<?xml version="1.0" encoding="UTF-8" standalone="no"?>
<svg
   xmlns:dc="http://purl.org/dc/elements/1.1/"
   xmlns:cc="http://creativecommons.org/ns#"
   xmlns:rdf="http://www.w3.org/1999/02/22-rdf-syntax-ns#"
   xmlns:svg="http://www.w3.org/2000/svg"
   xmlns="http://www.w3.org/2000/svg"
   viewBox="0 0 32 20"
   height="20"
   width="32"
   xml:space="preserve"
   id="svg2"
   version="1.1"><metadata
     id="metadata8"><rdf:RDF><cc:Work
         rdf:about=""><dc:format>image/svg+xml</dc:format><dc:type
           rdf:resource="http://purl.org/dc/dcmitype/StillImage" /></cc:Work></rdf:RDF></metadata><defs
     id="defs6" /><g
     transform="matrix(1.3333333,0,0,-1.3333333,0,20)"
     id="g10"><g
       transform="scale(0.1)"
       id="g12"><path
         id="path14"
         style="fill:#000000;fill-opacity:1;fill-rule:nonzero;stroke:none"
         d="m 48.7031,62.3125 h 27.2344 c 25.3755,0 46.2185,14.4375 46.2185,38.9845 0,22.5 -17.328,40.234 -48.0779,40.234 H 0.015625 v -9.703 H 19.4063 V 9.70313 H 0.015625 V 0 C 7.23438,0.625 25.7969,0.625 34.0625,0.625 c 8.25,0 26.8125,0 34.0313,-0.625 V 9.70313 H 48.7031 Z M 47.4688,131.828 H 65.625 c 24.9688,0 24.9688,-12.578 24.9688,-30.531 0,-17.7345 0,-30.5314 -24.9688,-30.5314 H 47.4688 v 61.0624" /><path
         id="path16"
         style="fill:#000000;fill-opacity:1;fill-rule:nonzero;stroke:none"
         d="m 196.719,51.375 19.39,26.4063 c 2.063,2.6875 3.094,4.125 19.61,4.125 v 9.7031 c -6.61,-0.4219 -15.063,-0.625 -18.781,-0.625 -5.157,0 -15.469,0.4062 -21.25,0.625 v -9.7031 c 4.125,0 6.39,-0.2032 9.703,-2.2657 L 190.938,59.625 175.469,81.9063 h 9.484 v 9.7031 c -5.969,-0.2188 -16.297,-0.625 -24.344,-0.625 -7.828,0 -14.64,0.2031 -22.078,0.625 v -9.7031 h 14.032 l 26.421,-38.375 -21.875,-29.9219 c -2.89,-3.90627 -9.703,-3.90627 -19.39,-3.90627 V 0 c 6.187,0.40625 16.297,0.625 18.765,0.625 4.954,0 16.719,-0.421875 21.047,-0.625 v 9.70313 c -5.984,0.20312 -6.812,0.60937 -9.484,2.26567 L 184.75,35.0781 202.297,9.70313 h -9.5 V 0 c 6.187,0.203125 19.187,0.625 24.547,0.625 5.984,0 15.062,-0.421875 22.078,-0.625 V 9.70313 H 225.391 L 196.719,51.375" /></g></g></svg>