<?xml version="1.0" encoding="UTF-8" standalone="no"?>
<svg
   xmlns:dc="http://purl.org/dc/elements/1.1/"
   xmlns:cc="http://creativecommons.org/ns#"
   xmlns:rdf="http://www.w3.org/1999/02/22-rdf-syntax-ns#"
   xmlns:svg="http://www.w3.org/2000/svg"
   xmlns="http://www.w3.org/2000/svg"
   viewBox="0 0 92 30.666668"
   height="30.666668"
   width="92"
   xml:space="preserve"
   id="svg2"
   version="1.1"><metadata
     id="metadata8"><rdf:RDF><cc:Work
         rdf:about=""><dc:format>image/svg+xml</dc:format><dc:type
           rdf:resource="http://purl.org/dc/dcmitype/StillImage" /></cc:Work></rdf:RDF></metadata><defs
     id="defs6" /><g
     transform="matrix(1.3333333,0,0,-1.3333333,0,30.666667)"
     id="g10"><g
       transform="scale(0.1)"
       id="g12"><path
         id="path14"
         style="fill:#000000;fill-opacity:1;fill-rule:nonzero;stroke:none"
         d="m -0.09375,90.875 h 107.094 v 11.7344 h -107.094 z" /><path
         id="path16"
         style="fill:#000000;fill-opacity:1;fill-rule:nonzero;stroke:none"
         d="m 181.391,193 c -30.188,-19.672 -48.469,-53.641 -48.469,-96.3594 0,-38.9375 18.875,-76.0937 47.875,-95.9531 l 2.594,3.375 C 155.766,27.9063 151,51.1406 151,97.4375 c 0,46.2965 5.359,70.3285 32.391,92.1875 l -2,3.375" /><path
         id="path18"
         style="fill:#000000;fill-opacity:1;fill-rule:nonzero;stroke:none"
         d="m 278.75,120.375 c 1.234,3.297 1.859,4.531 14.438,4.531 v 9.703 c -5.157,-0.421 -11.141,-0.625 -16.297,-0.625 -6.61,0 -15.688,0.407 -18.563,0.625 v -9.703 c 1.438,0 10.516,-0.203 10.516,-2.468 0,-0.219 0,-0.422 -0.828,-2.485 L 250.063,73.3281 230.266,124.906 h 11.75 v 9.703 c -5.969,-0.218 -19.188,-0.625 -25.375,-0.625 -5.36,0 -16.094,0.407 -23.11,0.625 v -9.703 h 12.797 l 29.5,-76.9529 c 2.063,-5.3593 4.344,-5.7812 7.641,-5.7812 5.156,0 5.984,2.2656 7.219,5.5781 l 28.062,72.625" /><path
         id="path20"
         style="fill:#000000;fill-opacity:1;fill-rule:nonzero;stroke:none"
         d="m 357.625,218.797 h 10.594 c 11.328,0 16.547,-0.734 16.984,-2.469 0.438,-1.172 0.735,-3.922 0.578,-5.375 l -0.578,-9.297 h 4.063 l 3.922,23.813 -13.204,-0.141 c -12.781,-0.156 -22.656,-0.297 -27.734,-0.297 -5.375,0 -14.656,0.141 -27.156,0.297 l -13.781,0.141 -2.625,-23.813 h 4.218 l 2.172,8.719 c 0.735,3.188 1.75,5.516 2.625,6.531 0.86,1.016 6.375,1.891 11.75,1.891 h 16.266 l -12.485,-75.656 c -2.328,-13.203 -2.609,-13.641 -8.421,-14.078 l -7.407,-0.438 -0.578,-4.062 8.266,0.14 c 5.812,0.156 10.031,0.297 12.344,0.297 2.765,0 7.265,-0.141 12.921,-0.297 l 6.391,-0.14 0.438,4.062 -8.563,0.438 c -3.781,0.14 -5.234,1.312 -5.234,4.359 0,1.312 0.156,2.328 0.578,5.078 l 13.656,80.297" /><path
         id="path22"
         style="fill:#000000;fill-opacity:1;fill-rule:nonzero;stroke:none"
         d="m 467.719,94.375 19.39,26.406 c 2.063,2.688 3.094,4.125 19.61,4.125 v 9.703 c -6.61,-0.421 -15.063,-0.625 -18.781,-0.625 -5.157,0 -15.469,0.407 -21.25,0.625 v -9.703 c 4.125,0 6.39,-0.203 9.703,-2.265 l -14.453,-20.016 -15.469,22.281 h 9.484 v 9.703 c -5.969,-0.218 -16.297,-0.625 -24.344,-0.625 -7.828,0 -14.64,0.204 -22.078,0.625 v -9.703 h 14.032 L 449.984,86.5313 428.109,56.6094 c -2.89,-3.9063 -9.703,-3.9063 -19.39,-3.9063 V 43 c 6.187,0.4063 16.297,0.625 18.765,0.625 4.954,0 16.719,-0.4219 21.047,-0.625 v 9.7031 c -5.984,0.2032 -6.812,0.6094 -9.484,2.2657 l 16.703,23.1093 17.547,-25.375 h -9.5 V 43 c 6.187,0.2031 19.187,0.625 24.547,0.625 5.984,0 15.062,-0.4219 22.078,-0.625 v 9.7031 H 496.391 L 467.719,94.375" /><path
         id="path24"
         style="fill:#000000;fill-opacity:1;fill-rule:nonzero;stroke:none"
         d="m 522.344,193 -1.985,-3.375 c 27.016,-21.859 32.375,-45.891 32.375,-92.1875 0,-46.2969 -4.765,-69.5312 -32.375,-93.375 l 2.579,-3.375 c 29.015,19.8594 47.89,57.0156 47.89,95.9531 0,42.7184 -18.281,76.6874 -48.484,96.3594" /><path
         id="path26"
         style="fill:#000000;fill-opacity:1;fill-rule:nonzero;stroke:none"
         d="m 672.75,120.375 c 1.234,3.297 1.859,4.531 14.438,4.531 v 9.703 c -5.157,-0.421 -11.141,-0.625 -16.297,-0.625 -6.61,0 -15.688,0.407 -18.563,0.625 v -9.703 c 1.438,0 10.516,-0.203 10.516,-2.468 0,-0.219 0,-0.422 -0.828,-2.485 L 644.063,73.3281 624.266,124.906 h 11.75 v 9.703 c -5.969,-0.218 -19.188,-0.625 -25.375,-0.625 -5.36,0 -16.094,0.407 -23.11,0.625 v -9.703 h 12.797 l 29.5,-76.9529 c 2.063,-5.3593 4.344,-5.7812 7.641,-5.7812 5.156,0 5.984,2.2656 7.219,5.5781 l 28.062,72.625" /></g></g></svg>