<?xml version="1.0" encoding="utf-8"?>
<svg xmlns="http://www.w3.org/2000/svg" xmlns:xlink="http://www.w3.org/1999/xlink" width="500" height="320" viewBox="0 0 2000 1280">
<defs>
  <clipPath id="clip150">
    <rect x="0" y="0" width="2000" height="1280"/>
  </clipPath>
</defs>
<path clip-path="url(#clip150)" d="M0 1280 L2000 1280 L2000 0 L0 0  Z" fill="#ffffff" fill-rule="evenodd" fill-opacity="1"/>
<defs>
  <clipPath id="clip151">
    <rect x="400" y="0" width="1401" height="1280"/>
  </clipPath>
</defs>
<path clip-path="url(#clip150)" d="M245.244 1111.02 L1952.76 1111.02 L1952.76 107.256 L245.244 107.256  Z" fill="#ffffff" fill-rule="evenodd" fill-opacity="1"/>
<defs>
  <clipPath id="clip152">
    <rect x="245" y="107" width="1709" height="1005"/>
  </clipPath>
</defs>
<polyline clip-path="url(#clip152)" style="stroke:#000000; stroke-linecap:round; stroke-linejoin:round; stroke-width:2; stroke-opacity:0.1; fill:none" points="293.57,1111.02 293.57,107.256 "/>
<polyline clip-path="url(#clip152)" style="stroke:#000000; stroke-linecap:round; stroke-linejoin:round; stroke-width:2; stroke-opacity:0.1; fill:none" points="603.351,1111.02 603.351,107.256 "/>
<polyline clip-path="url(#clip152)" style="stroke:#000000; stroke-linecap:round; stroke-linejoin:round; stroke-width:2; stroke-opacity:0.1; fill:none" points="913.132,1111.02 913.132,107.256 "/>
<polyline clip-path="url(#clip152)" style="stroke:#000000; stroke-linecap:round; stroke-linejoin:round; stroke-width:2; stroke-opacity:0.1; fill:none" points="1222.91,1111.02 1222.91,107.256 "/>
<polyline clip-path="url(#clip152)" style="stroke:#000000; stroke-linecap:round; stroke-linejoin:round; stroke-width:2; stroke-opacity:0.1; fill:none" points="1532.69,1111.02 1532.69,107.256 "/>
<polyline clip-path="url(#clip152)" style="stroke:#000000; stroke-linecap:round; stroke-linejoin:round; stroke-width:2; stroke-opacity:0.1; fill:none" points="1842.47,1111.02 1842.47,107.256 "/>
<polyline clip-path="url(#clip152)" style="stroke:#000000; stroke-linecap:round; stroke-linejoin:round; stroke-width:2; stroke-opacity:0.1; fill:none" points="245.244,1080.92 1952.76,1080.92 "/>
<polyline clip-path="url(#clip152)" style="stroke:#000000; stroke-linecap:round; stroke-linejoin:round; stroke-width:2; stroke-opacity:0.1; fill:none" points="245.244,572.152 1952.76,572.152 "/>
<polyline clip-path="url(#clip150)" style="stroke:#000000; stroke-linecap:round; stroke-linejoin:round; stroke-width:4; stroke-opacity:1; fill:none" points="245.244,1111.02 1952.76,1111.02 "/>
<polyline clip-path="url(#clip150)" style="stroke:#000000; stroke-linecap:round; stroke-linejoin:round; stroke-width:4; stroke-opacity:1; fill:none" points="293.57,1111.02 293.57,1092.12 "/>
<polyline clip-path="url(#clip150)" style="stroke:#000000; stroke-linecap:round; stroke-linejoin:round; stroke-width:4; stroke-opacity:1; fill:none" points="603.351,1111.02 603.351,1092.12 "/>
<polyline clip-path="url(#clip150)" style="stroke:#000000; stroke-linecap:round; stroke-linejoin:round; stroke-width:4; stroke-opacity:1; fill:none" points="913.132,1111.02 913.132,1092.12 "/>
<polyline clip-path="url(#clip150)" style="stroke:#000000; stroke-linecap:round; stroke-linejoin:round; stroke-width:4; stroke-opacity:1; fill:none" points="1222.91,1111.02 1222.91,1092.12 "/>
<polyline clip-path="url(#clip150)" style="stroke:#000000; stroke-linecap:round; stroke-linejoin:round; stroke-width:4; stroke-opacity:1; fill:none" points="1532.69,1111.02 1532.69,1092.12 "/>
<polyline clip-path="url(#clip150)" style="stroke:#000000; stroke-linecap:round; stroke-linejoin:round; stroke-width:4; stroke-opacity:1; fill:none" points="1842.47,1111.02 1842.47,1092.12 "/>
<path clip-path="url(#clip150)" d="M293.57 1138.74 Q289.959 1138.74 288.13 1142.3 Q286.325 1145.84 286.325 1152.97 Q286.325 1160.08 288.13 1163.64 Q289.959 1167.19 293.57 1167.19 Q297.204 1167.19 299.01 1163.64 Q300.839 1160.08 300.839 1152.97 Q300.839 1145.84 299.01 1142.3 Q297.204 1138.74 293.57 1138.74 M293.57 1135.03 Q299.38 1135.03 302.436 1139.64 Q305.515 1144.22 305.515 1152.97 Q305.515 1161.7 302.436 1166.31 Q299.38 1170.89 293.57 1170.89 Q287.76 1170.89 284.681 1166.31 Q281.626 1161.7 281.626 1152.97 Q281.626 1144.22 284.681 1139.64 Q287.76 1135.03 293.57 1135.03 Z" fill="#000000" fill-rule="nonzero" fill-opacity="1" /><path clip-path="url(#clip150)" d="M578.05 1135.66 L596.407 1135.66 L596.407 1139.59 L582.333 1139.59 L582.333 1148.07 Q583.351 1147.72 584.37 1147.56 Q585.388 1147.37 586.407 1147.37 Q592.194 1147.37 595.573 1150.54 Q598.953 1153.71 598.953 1159.13 Q598.953 1164.71 595.481 1167.81 Q592.008 1170.89 585.689 1170.89 Q583.513 1170.89 581.245 1170.52 Q578.999 1170.15 576.592 1169.41 L576.592 1164.71 Q578.675 1165.84 580.897 1166.4 Q583.12 1166.95 585.596 1166.95 Q589.601 1166.95 591.939 1164.85 Q594.277 1162.74 594.277 1159.13 Q594.277 1155.52 591.939 1153.41 Q589.601 1151.31 585.596 1151.31 Q583.721 1151.31 581.846 1151.72 Q579.995 1152.14 578.05 1153.02 L578.05 1135.66 Z" fill="#000000" fill-rule="nonzero" fill-opacity="1" /><path clip-path="url(#clip150)" d="M618.166 1138.74 Q614.555 1138.74 612.726 1142.3 Q610.92 1145.84 610.92 1152.97 Q610.92 1160.08 612.726 1163.64 Q614.555 1167.19 618.166 1167.19 Q621.8 1167.19 623.605 1163.64 Q625.434 1160.08 625.434 1152.97 Q625.434 1145.84 623.605 1142.3 Q621.8 1138.74 618.166 1138.74 M618.166 1135.03 Q623.976 1135.03 627.031 1139.64 Q630.11 1144.22 630.11 1152.97 Q630.11 1161.7 627.031 1166.31 Q623.976 1170.89 618.166 1170.89 Q612.356 1170.89 609.277 1166.31 Q606.221 1161.7 606.221 1152.97 Q606.221 1144.22 609.277 1139.64 Q612.356 1135.03 618.166 1135.03 Z" fill="#000000" fill-rule="nonzero" fill-opacity="1" /><path clip-path="url(#clip150)" d="M872.738 1166.28 L880.377 1166.28 L880.377 1139.92 L872.067 1141.58 L872.067 1137.33 L880.331 1135.66 L885.007 1135.66 L885.007 1166.28 L892.646 1166.28 L892.646 1170.22 L872.738 1170.22 L872.738 1166.28 Z" fill="#000000" fill-rule="nonzero" fill-opacity="1" /><path clip-path="url(#clip150)" d="M912.09 1138.74 Q908.479 1138.74 906.65 1142.3 Q904.845 1145.84 904.845 1152.97 Q904.845 1160.08 906.65 1163.64 Q908.479 1167.19 912.09 1167.19 Q915.724 1167.19 917.53 1163.64 Q919.359 1160.08 919.359 1152.97 Q919.359 1145.84 917.53 1142.3 Q915.724 1138.74 912.09 1138.74 M912.09 1135.03 Q917.9 1135.03 920.956 1139.64 Q924.034 1144.22 924.034 1152.97 Q924.034 1161.7 920.956 1166.31 Q917.9 1170.89 912.09 1170.89 Q906.28 1170.89 903.201 1166.31 Q900.146 1161.7 900.146 1152.97 Q900.146 1144.22 903.201 1139.64 Q906.28 1135.03 912.09 1135.03 Z" fill="#000000" fill-rule="nonzero" fill-opacity="1" /><path clip-path="url(#clip150)" d="M942.252 1138.74 Q938.641 1138.74 936.812 1142.3 Q935.007 1145.84 935.007 1152.97 Q935.007 1160.08 936.812 1163.64 Q938.641 1167.19 942.252 1167.19 Q945.886 1167.19 947.692 1163.64 Q949.52 1160.08 949.52 1152.97 Q949.52 1145.84 947.692 1142.3 Q945.886 1138.74 942.252 1138.74 M942.252 1135.03 Q948.062 1135.03 951.118 1139.64 Q954.196 1144.22 954.196 1152.97 Q954.196 1161.7 951.118 1166.31 Q948.062 1170.89 942.252 1170.89 Q936.442 1170.89 933.363 1166.31 Q930.308 1161.7 930.308 1152.97 Q930.308 1144.22 933.363 1139.64 Q936.442 1135.03 942.252 1135.03 Z" fill="#000000" fill-rule="nonzero" fill-opacity="1" /><path clip-path="url(#clip150)" d="M1182.52 1166.28 L1190.16 1166.28 L1190.16 1139.92 L1181.85 1141.58 L1181.85 1137.33 L1190.11 1135.66 L1194.79 1135.66 L1194.79 1166.28 L1202.43 1166.28 L1202.43 1170.22 L1182.52 1170.22 L1182.52 1166.28 Z" fill="#000000" fill-rule="nonzero" fill-opacity="1" /><path clip-path="url(#clip150)" d="M1211.92 1135.66 L1230.27 1135.66 L1230.27 1139.59 L1216.2 1139.59 L1216.2 1148.07 Q1217.22 1147.72 1218.24 1147.56 Q1219.26 1147.37 1220.27 1147.37 Q1226.06 1147.37 1229.44 1150.54 Q1232.82 1153.71 1232.82 1159.13 Q1232.82 1164.71 1229.35 1167.81 Q1225.88 1170.89 1219.56 1170.89 Q1217.38 1170.89 1215.11 1170.52 Q1212.87 1170.15 1210.46 1169.41 L1210.46 1164.71 Q1212.54 1165.84 1214.76 1166.4 Q1216.99 1166.95 1219.46 1166.95 Q1223.47 1166.95 1225.81 1164.85 Q1228.14 1162.74 1228.14 1159.13 Q1228.14 1155.52 1225.81 1153.41 Q1223.47 1151.31 1219.46 1151.31 Q1217.59 1151.31 1215.71 1151.72 Q1213.86 1152.14 1211.92 1153.02 L1211.92 1135.66 Z" fill="#000000" fill-rule="nonzero" fill-opacity="1" /><path clip-path="url(#clip150)" d="M1252.03 1138.74 Q1248.42 1138.74 1246.59 1142.3 Q1244.79 1145.84 1244.79 1152.97 Q1244.79 1160.08 1246.59 1163.64 Q1248.42 1167.19 1252.03 1167.19 Q1255.67 1167.19 1257.47 1163.64 Q1259.3 1160.08 1259.3 1152.97 Q1259.3 1145.84 1257.47 1142.3 Q1255.67 1138.74 1252.03 1138.74 M1252.03 1135.03 Q1257.84 1135.03 1260.9 1139.64 Q1263.98 1144.22 1263.98 1152.97 Q1263.98 1161.7 1260.9 1166.31 Q1257.84 1170.89 1252.03 1170.89 Q1246.22 1170.89 1243.14 1166.31 Q1240.09 1161.7 1240.09 1152.97 Q1240.09 1144.22 1243.14 1139.64 Q1246.22 1135.03 1252.03 1135.03 Z" fill="#000000" fill-rule="nonzero" fill-opacity="1" /><path clip-path="url(#clip150)" d="M1496.39 1166.28 L1512.7 1166.28 L1512.7 1170.22 L1490.76 1170.22 L1490.76 1166.28 Q1493.42 1163.53 1498.01 1158.9 Q1502.61 1154.25 1503.79 1152.9 Q1506.04 1150.38 1506.92 1148.64 Q1507.82 1146.89 1507.82 1145.2 Q1507.82 1142.44 1505.88 1140.7 Q1503.95 1138.97 1500.85 1138.97 Q1498.65 1138.97 1496.2 1139.73 Q1493.77 1140.5 1490.99 1142.05 L1490.99 1137.33 Q1493.82 1136.19 1496.27 1135.61 Q1498.72 1135.03 1500.76 1135.03 Q1506.13 1135.03 1509.33 1137.72 Q1512.52 1140.4 1512.52 1144.89 Q1512.52 1147.02 1511.71 1148.95 Q1510.92 1150.84 1508.82 1153.44 Q1508.24 1154.11 1505.14 1157.33 Q1502.03 1160.52 1496.39 1166.28 Z" fill="#000000" fill-rule="nonzero" fill-opacity="1" /><path clip-path="url(#clip150)" d="M1532.52 1138.74 Q1528.91 1138.74 1527.08 1142.3 Q1525.27 1145.84 1525.27 1152.97 Q1525.27 1160.08 1527.08 1163.64 Q1528.91 1167.19 1532.52 1167.19 Q1536.15 1167.19 1537.96 1163.64 Q1539.79 1160.08 1539.79 1152.97 Q1539.79 1145.84 1537.96 1142.3 Q1536.15 1138.74 1532.52 1138.74 M1532.52 1135.03 Q1538.33 1135.03 1541.39 1139.64 Q1544.46 1144.22 1544.46 1152.97 Q1544.46 1161.7 1541.39 1166.31 Q1538.33 1170.89 1532.52 1170.89 Q1526.71 1170.89 1523.63 1166.31 Q1520.58 1161.7 1520.58 1152.97 Q1520.58 1144.22 1523.63 1139.64 Q1526.71 1135.03 1532.52 1135.03 Z" fill="#000000" fill-rule="nonzero" fill-opacity="1" /><path clip-path="url(#clip150)" d="M1562.68 1138.74 Q1559.07 1138.74 1557.24 1142.3 Q1555.44 1145.84 1555.44 1152.97 Q1555.44 1160.08 1557.24 1163.64 Q1559.07 1167.19 1562.68 1167.19 Q1566.32 1167.19 1568.12 1163.64 Q1569.95 1160.08 1569.95 1152.97 Q1569.95 1145.84 1568.12 1142.3 Q1566.32 1138.74 1562.68 1138.74 M1562.68 1135.03 Q1568.49 1135.03 1571.55 1139.64 Q1574.63 1144.22 1574.63 1152.97 Q1574.63 1161.7 1571.55 1166.31 Q1568.49 1170.89 1562.68 1170.89 Q1556.87 1170.89 1553.79 1166.31 Q1550.74 1161.7 1550.74 1152.97 Q1550.74 1144.22 1553.79 1139.64 Q1556.87 1135.03 1562.68 1135.03 Z" fill="#000000" fill-rule="nonzero" fill-opacity="1" /><path clip-path="url(#clip150)" d="M1806.17 1166.28 L1822.49 1166.28 L1822.49 1170.22 L1800.54 1170.22 L1800.54 1166.28 Q1803.2 1163.53 1807.79 1158.9 Q1812.39 1154.25 1813.57 1152.9 Q1815.82 1150.38 1816.7 1148.64 Q1817.6 1146.89 1817.6 1145.2 Q1817.6 1142.44 1815.66 1140.7 Q1813.74 1138.97 1810.63 1138.97 Q1808.43 1138.97 1805.98 1139.73 Q1803.55 1140.5 1800.77 1142.05 L1800.77 1137.33 Q1803.6 1136.19 1806.05 1135.61 Q1808.5 1135.03 1810.54 1135.03 Q1815.91 1135.03 1819.11 1137.72 Q1822.3 1140.4 1822.3 1144.89 Q1822.3 1147.02 1821.49 1148.95 Q1820.7 1150.84 1818.6 1153.44 Q1818.02 1154.11 1814.92 1157.33 Q1811.81 1160.52 1806.17 1166.28 Z" fill="#000000" fill-rule="nonzero" fill-opacity="1" /><path clip-path="url(#clip150)" d="M1832.35 1135.66 L1850.7 1135.66 L1850.7 1139.59 L1836.63 1139.59 L1836.63 1148.07 Q1837.65 1147.72 1838.67 1147.56 Q1839.68 1147.37 1840.7 1147.37 Q1846.49 1147.37 1849.87 1150.54 Q1853.25 1153.71 1853.25 1159.13 Q1853.25 1164.71 1849.78 1167.81 Q1846.3 1170.89 1839.99 1170.89 Q1837.81 1170.89 1835.54 1170.52 Q1833.3 1170.15 1830.89 1169.41 L1830.89 1164.71 Q1832.97 1165.84 1835.19 1166.4 Q1837.42 1166.95 1839.89 1166.95 Q1843.9 1166.95 1846.24 1164.85 Q1848.57 1162.74 1848.57 1159.13 Q1848.57 1155.52 1846.24 1153.41 Q1843.9 1151.31 1839.89 1151.31 Q1838.02 1151.31 1836.14 1151.72 Q1834.29 1152.14 1832.35 1153.02 L1832.35 1135.66 Z" fill="#000000" fill-rule="nonzero" fill-opacity="1" /><path clip-path="url(#clip150)" d="M1872.46 1138.74 Q1868.85 1138.74 1867.02 1142.3 Q1865.22 1145.84 1865.22 1152.97 Q1865.22 1160.08 1867.02 1163.64 Q1868.85 1167.19 1872.46 1167.19 Q1876.1 1167.19 1877.9 1163.64 Q1879.73 1160.08 1879.73 1152.97 Q1879.73 1145.84 1877.9 1142.3 Q1876.1 1138.74 1872.46 1138.74 M1872.46 1135.03 Q1878.27 1135.03 1881.33 1139.64 Q1884.41 1144.22 1884.41 1152.97 Q1884.41 1161.7 1881.33 1166.31 Q1878.27 1170.89 1872.46 1170.89 Q1866.65 1170.89 1863.57 1166.31 Q1860.52 1161.7 1860.52 1152.97 Q1860.52 1144.22 1863.57 1139.64 Q1866.65 1135.03 1872.46 1135.03 Z" fill="#000000" fill-rule="nonzero" fill-opacity="1" /><g clip-path="url(#clip150)">
<text style="fill:#000000; fill-opacity:1; font-family:Arial,Helvetica Neue,Helvetica,sans-serif; font-size:66px; text-anchor:middle;" transform="rotate(0, 1099, 1252.42)" x="1099" y="1252.42">Krylov dimension</text>
</g>
<polyline clip-path="url(#clip150)" style="stroke:#000000; stroke-linecap:round; stroke-linejoin:round; stroke-width:4; stroke-opacity:1; fill:none" points="245.244,1111.02 245.244,107.256 "/>
<polyline clip-path="url(#clip150)" style="stroke:#000000; stroke-linecap:round; stroke-linejoin:round; stroke-width:4; stroke-opacity:1; fill:none" points="245.244,1080.92 264.142,1080.92 "/>
<polyline clip-path="url(#clip150)" style="stroke:#000000; stroke-linecap:round; stroke-linejoin:round; stroke-width:4; stroke-opacity:1; fill:none" points="245.244,572.152 264.142,572.152 "/>
<path clip-path="url(#clip150)" d="M113.675 1100.71 L121.314 1100.71 L121.314 1074.34 L113.004 1076.01 L113.004 1071.75 L121.268 1070.08 L125.944 1070.08 L125.944 1100.71 L133.583 1100.71 L133.583 1104.64 L113.675 1104.64 L113.675 1100.71 Z" fill="#000000" fill-rule="nonzero" fill-opacity="1" /><path clip-path="url(#clip150)" d="M153.027 1073.16 Q149.416 1073.16 147.587 1076.73 Q145.782 1080.27 145.782 1087.4 Q145.782 1094.5 147.587 1098.07 Q149.416 1101.61 153.027 1101.61 Q156.661 1101.61 158.467 1098.07 Q160.295 1094.5 160.295 1087.4 Q160.295 1080.27 158.467 1076.73 Q156.661 1073.16 153.027 1073.16 M153.027 1069.46 Q158.837 1069.46 161.893 1074.06 Q164.971 1078.65 164.971 1087.4 Q164.971 1096.13 161.893 1100.73 Q158.837 1105.31 153.027 1105.31 Q147.217 1105.31 144.138 1100.73 Q141.082 1096.13 141.082 1087.4 Q141.082 1078.65 144.138 1074.06 Q147.217 1069.46 153.027 1069.46 Z" fill="#000000" fill-rule="nonzero" fill-opacity="1" /><path clip-path="url(#clip150)" d="M164.971 1063.56 L189.083 1063.56 L189.083 1066.76 L164.971 1066.76 L164.971 1063.56 Z" fill="#000000" fill-rule="nonzero" fill-opacity="1" /><path clip-path="url(#clip150)" d="M205.878 1061.68 Q203.32 1061.68 201.816 1063.43 Q200.33 1065.18 200.33 1068.22 Q200.33 1071.25 201.816 1073.02 Q203.32 1074.77 205.878 1074.77 Q208.436 1074.77 209.922 1073.02 Q211.426 1071.25 211.426 1068.22 Q211.426 1065.18 209.922 1063.43 Q208.436 1061.68 205.878 1061.68 M213.42 1049.77 L213.42 1053.23 Q211.991 1052.56 210.524 1052.2 Q209.075 1051.84 207.646 1051.84 Q203.885 1051.84 201.891 1054.38 Q199.916 1056.92 199.634 1062.06 Q200.744 1060.42 202.417 1059.55 Q204.091 1058.67 206.104 1058.67 Q210.336 1058.67 212.781 1061.25 Q215.244 1063.8 215.244 1068.22 Q215.244 1072.55 212.687 1075.16 Q210.129 1077.78 205.878 1077.78 Q201.007 1077.78 198.43 1074.05 Q195.854 1070.31 195.854 1063.22 Q195.854 1056.56 199.013 1052.61 Q202.173 1048.65 207.496 1048.65 Q208.925 1048.65 210.373 1048.93 Q211.84 1049.21 213.42 1049.77 Z" fill="#000000" fill-rule="nonzero" fill-opacity="1" /><path clip-path="url(#clip150)" d="M114.333 591.944 L121.972 591.944 L121.972 565.579 L113.662 567.245 L113.662 562.986 L121.926 561.319 L126.602 561.319 L126.602 591.944 L134.241 591.944 L134.241 595.879 L114.333 595.879 L114.333 591.944 Z" fill="#000000" fill-rule="nonzero" fill-opacity="1" /><path clip-path="url(#clip150)" d="M153.685 564.398 Q150.074 564.398 148.245 567.963 Q146.44 571.505 146.44 578.634 Q146.44 585.741 148.245 589.305 Q150.074 592.847 153.685 592.847 Q157.319 592.847 159.125 589.305 Q160.954 585.741 160.954 578.634 Q160.954 571.505 159.125 567.963 Q157.319 564.398 153.685 564.398 M153.685 560.694 Q159.495 560.694 162.551 565.301 Q165.629 569.884 165.629 578.634 Q165.629 587.361 162.551 591.967 Q159.495 596.551 153.685 596.551 Q147.875 596.551 144.796 591.967 Q141.741 587.361 141.741 578.634 Q141.741 569.884 144.796 565.301 Q147.875 560.694 153.685 560.694 Z" fill="#000000" fill-rule="nonzero" fill-opacity="1" /><path clip-path="url(#clip150)" d="M165.629 554.796 L189.741 554.796 L189.741 557.993 L165.629 557.993 L165.629 554.796 Z" fill="#000000" fill-rule="nonzero" fill-opacity="1" /><path clip-path="url(#clip150)" d="M209.452 553.329 Q212.179 553.912 213.702 555.755 Q215.244 557.598 215.244 560.306 Q215.244 564.463 212.386 566.739 Q209.527 569.014 204.261 569.014 Q202.493 569.014 200.612 568.657 Q198.75 568.319 196.756 567.623 L196.756 563.955 Q198.336 564.877 200.217 565.347 Q202.098 565.817 204.148 565.817 Q207.721 565.817 209.583 564.407 Q211.464 562.996 211.464 560.306 Q211.464 557.824 209.715 556.432 Q207.985 555.022 204.881 555.022 L201.609 555.022 L201.609 551.899 L205.032 551.899 Q207.834 551.899 209.32 550.79 Q210.806 549.661 210.806 547.555 Q210.806 545.392 209.264 544.245 Q207.74 543.079 204.881 543.079 Q203.32 543.079 201.534 543.417 Q199.747 543.756 197.603 544.47 L197.603 541.085 Q199.766 540.483 201.646 540.182 Q203.546 539.881 205.22 539.881 Q209.546 539.881 212.066 541.856 Q214.586 543.812 214.586 547.16 Q214.586 549.492 213.251 551.109 Q211.915 552.708 209.452 553.329 Z" fill="#000000" fill-rule="nonzero" fill-opacity="1" /><g clip-path="url(#clip150)">
<text style="fill:#000000; fill-opacity:1; font-family:Arial,Helvetica Neue,Helvetica,sans-serif; font-size:66px; text-anchor:middle;" transform="rotate(-90, 71.4418, 609.137)" x="71.4418" y="609.137">relative residual norm</text>
</g>
<g clip-path="url(#clip150)">
<text style="fill:#000000; fill-opacity:1; font-family:Arial,Helvetica Neue,Helvetica,sans-serif; font-size:66px; text-anchor:middle;" transform="rotate(0, 1099, 57.6)" x="1099" y="57.6">Convergence of MINRES and CG</text>
</g>
<polyline clip-path="url(#clip152)" style="stroke:#009af9; stroke-linecap:round; stroke-linejoin:round; stroke-width:8; stroke-opacity:1; fill:none" points="293.57,140.505 299.766,186.494 305.961,220.877 312.157,248.338 318.353,270.899 324.548,290.418 330.744,307.628 336.939,322.193 343.135,335.316 349.331,347.01 355.526,357.366 361.722,367.33 367.918,376.532 374.113,385.491 380.309,393.503 386.504,401.352 392.7,408.597 398.896,415.619 405.091,422.269 411.287,428.598 417.482,434.591 423.678,440.276 429.874,445.917 436.069,451.053 442.265,456.421 448.461,461.499 454.656,466.231 460.852,470.797 467.047,475.541 473.243,479.908 479.439,484.157 485.634,488.424 491.83,492.528 498.025,496.546 504.221,500.362 510.417,504.356 516.612,508.065 522.808,511.738 529.004,515.334 535.199,518.757 541.395,522.318 547.59,525.805 553.786,529.286 559.982,532.602 566.177,535.932 572.373,539.299 578.568,542.616 584.764,545.754 590.96,548.996 597.155,552.146 603.351,555.42 609.547,558.451 615.742,561.605 621.938,564.706 628.133,567.697 634.329,570.731 640.525,573.839 646.72,576.918 652.916,580.026 659.111,583.043 665.307,585.935 671.503,588.929 677.698,591.908 683.894,594.855 690.09,597.929 696.285,601.093 702.481,604.114 708.676,607.137 714.872,609.992 721.068,612.831 727.263,615.72 733.459,618.7 739.654,621.589 745.85,624.468 752.046,627.374 758.241,630.214 764.437,633.162 770.633,636.026 776.828,639.06 783.024,641.93 789.219,644.88 795.415,647.76 801.611,650.764 807.806,653.69 814.002,656.552 820.197,659.394 826.393,662.291 832.589,665.129 838.784,667.971 844.98,670.851 851.176,673.667 857.371,676.356 863.567,679.316 869.762,682.255 875.958,685.18 882.154,687.949 888.349,690.724 894.545,693.566 900.74,696.377 906.936,699.072 913.132,701.948 919.327,704.738 925.523,707.766 931.719,710.78 937.914,713.634 944.11,716.354 950.305,719.263 956.501,722.165 962.697,724.933 968.892,727.962 975.088,730.858 981.283,733.665 987.479,736.52 993.675,739.457 999.87,742.457 1006.07,745.378 1012.26,748.347 1018.46,751.215 1024.65,754.236 1030.85,757.208 1037.04,760.302 1043.24,763.29 1049.44,766.324 1055.63,769.345 1061.83,772.318 1068.02,775.478 1074.22,778.441 1080.41,781.396 1086.61,784.263 1092.8,787.237 1099,790.099 1105.2,792.965 1111.39,795.85 1117.59,798.877 1123.78,801.757 1129.98,804.603 1136.17,807.575 1142.37,810.465 1148.57,813.289 1154.76,816.4 1160.96,819.325 1167.15,822.323 1173.35,825.272 1179.54,828.232 1185.74,831.308 1191.93,834.412 1198.13,837.411 1204.33,840.422 1210.52,843.351 1216.72,846.283 1222.91,849.228 1229.11,852.06 1235.3,855.05 1241.5,857.965 1247.69,860.77 1253.89,863.735 1260.09,866.808 1266.28,869.715 1272.48,872.768 1278.67,875.716 1284.87,878.934 1291.06,881.771 1297.26,884.768 1303.46,887.716 1309.65,890.685 1315.85,893.597 1322.04,896.598 1328.24,899.583 1334.43,902.506 1340.63,905.453 1346.82,908.472 1353.02,911.379 1359.22,914.382 1365.41,917.348 1371.61,920.607 1377.8,923.451 1384,926.387 1390.19,929.304 1396.39,932.089 1402.59,934.944 1408.78,937.859 1414.98,940.818 1421.17,943.711 1427.37,946.574 1433.56,949.495 1439.76,952.319 1445.95,955.319 1452.15,958.154 1458.35,961.154 1464.54,963.969 1470.74,966.98 1476.93,969.902 1483.13,972.881 1489.32,975.873 1495.52,978.785 1501.72,981.776 1507.91,984.752 1514.11,987.604 1520.3,990.456 1526.5,993.442 1532.69,996.51 1538.89,999.412 1545.08,1002.39 1551.28,1005.16 1557.48,1008.1 1563.67,1011.14 1569.87,1014.2 1576.06,1017.17 1582.26,1020.12 1588.45,1023.18 1594.65,1026.24 1600.84,1029.26 1607.04,1032.41 1613.24,1035.45 1619.43,1038.38 1625.63,1041.46 1631.82,1044.42 1638.02,1047.47 1644.21,1050.52 1650.41,1053.39 1656.61,1056.39 1662.8,1059.38 1669,1062.22 1675.19,1065.02 1681.39,1067.95 1687.58,1070.9 1693.78,1073.89 1699.97,1076.82 1706.17,1079.75 1712.37,1082.61 "/>
<polyline clip-path="url(#clip152)" style="stroke:#e26f46; stroke-linecap:round; stroke-linejoin:round; stroke-width:8; stroke-opacity:1; fill:none" points="293.57,135.664 299.766,174.045 305.961,202.486 312.157,224.651 318.353,242.15 324.548,257.712 330.744,271.343 336.939,280.991 343.135,290.952 349.331,299.074 355.526,305.594 361.722,314.321 367.918,320.956 374.113,329.047 380.309,333.405 386.504,340.569 392.7,345.162 398.896,351.139 405.091,355.963 411.287,360.63 417.482,364.775 423.678,368.667 429.874,374.042 436.069,375.97 442.265,382.852 448.461,386.026 454.656,388.333 460.852,391.658 467.047,397.728 473.243,399.237 479.439,402.523 485.634,406.946 491.83,409.689 498.025,412.968 504.221,414.988 510.417,420.579 516.612,421.69 522.808,425.031 529.004,427.879 535.199,429.576 541.395,434.517 547.59,437.277 553.786,440.689 559.982,442.305 566.177,445.779 572.373,449.531 578.568,452.325 584.764,453.514 590.96,457.896 597.155,460.043 603.351,464.671 609.547,464.976 615.742,469.539 621.938,472.045 628.133,473.762 634.329,477.292 640.525,481.26 646.72,483.996 652.916,487.449 659.111,489.411 665.307,490.807 671.503,495.023 677.698,497.82 683.894,500.4 690.09,504.95 696.285,509.146 702.481,510.525 708.676,513.576 714.872,514.402 721.068,517.046 727.263,520.559 733.459,524.62 739.654,526.422 745.85,529.179 752.046,532.422 758.241,534.44 764.437,538.71 770.633,540.553 776.828,545.628 783.024,546.524 789.219,550.457 795.415,552.477 801.611,556.981 807.806,558.972 814.002,561.053 820.197,563.655 826.393,567.217 832.589,569.333 838.784,572.231 844.98,575.567 851.176,577.59 857.371,578.647 863.567,585.018 869.762,587.696 875.958,590.446 882.154,591.284 888.349,594.128 894.545,597.821 900.74,600.241 906.936,601.434 913.132,606.622 919.327,608.334 925.523,614.261 931.719,617.12 937.914,618.034 944.11,619.051 950.305,624.337 956.501,627.156 962.697,628.26 968.892,634.466 975.088,635.778 981.283,637.481 987.479,640.935 993.675,644.869 999.87,648.628 1006.07,650.592 1012.26,654.154 1018.46,655.789 1024.65,660.652 1030.85,663.045 1037.04,667.551 1043.24,669.316 1049.44,672.892 1055.63,675.758 1061.83,678.173 1068.02,683.478 1074.22,684.166 1080.41,687.027 1086.61,688.834 1092.8,693.093 1099,694.591 1105.2,697.523 1111.39,700.632 1117.59,705.361 1123.78,706.48 1129.98,708.905 1136.17,713.416 1142.37,715.302 1148.57,717.327 1154.76,723.846 1160.96,724.602 1167.15,728.463 1173.35,730.828 1179.54,733.934 1185.74,738.359 1191.93,741.772 1198.13,743.574 1204.33,746.717 1210.52,748.667 1216.72,751.649 1222.91,754.739 1229.11,756.186 1235.3,761.095 1241.5,763.124 1247.69,764.556 1253.89,769.484 1260.09,773.826 1266.28,774.768 1272.48,779.557 1278.67,781.255 1284.87,787.585 1291.06,785.959 1297.26,790.902 1303.46,793.262 1309.65,796.48 1315.85,798.713 1322.04,802.773 1328.24,805.583 1334.43,807.754 1340.63,810.987 1346.82,814.862 1353.02,816.435 1359.22,820.581 1365.41,823.112 1371.61,829.693 1377.8,827.73 1384,831.789 1390.19,834.478 1396.39,835.624 1402.59,839.368 1408.78,843.002 1414.98,846.495 1421.17,848.602 1427.37,851.085 1433.56,854.72 1439.76,856.341 1445.95,861.489 1452.15,862.314 1458.35,867.325 1464.54,867.878 1470.74,873.288 1476.93,875.129 1483.13,878.798 1489.32,881.952 1495.52,883.893 1501.72,887.837 1507.91,890.64 1514.11,891.981 1520.3,894.836 1526.5,899.444 1532.69,903.463 1538.89,904.409 1545.08,908.276 1551.28,908.453 1557.48,913.622 1563.67,917.826 1569.87,920.995 1576.06,922.984 1582.26,925.676 1588.45,930.02 1594.65,933.111 1600.84,935.698 1607.04,940.298 1613.24,942.039 1619.43,943.694 1625.63,948.6 1631.82,950.029 1638.02,954.186 1644.21,957.216 1650.41,957.959 1656.61,962.243 1662.8,965.463 1669,966.118 1675.19,968.67 1681.39,973.595 1687.58,976.509 1693.78,980.049 1699.97,982.181 1706.17,985.166 1712.37,987.104 1718.56,991.203 1724.76,995.544 1730.95,998.139 1737.15,1000.87 1743.34,1005.25 1749.54,1006.32 1755.74,1009.73 1761.93,1011.83 1768.13,1014.06 1774.32,1018.75 1780.52,1021.91 1786.71,1020.97 1792.91,1025.58 1799.1,1028.57 1805.3,1032.72 1811.5,1035.07 1817.69,1039.61 1823.89,1041.14 1830.08,1045.82 1836.28,1047.3 1842.47,1053.54 1848.67,1054.27 1854.87,1057.15 1861.06,1059.2 1867.26,1062.48 1873.45,1063.72 1879.65,1066.98 1885.84,1070.6 1892.04,1073.23 1898.23,1076.33 1904.43,1080.95 "/>
<path clip-path="url(#clip150)" d="M1570 296.235 L1895.84 296.235 L1895.84 140.715 L1570 140.715  Z" fill="#ffffff" fill-rule="evenodd" fill-opacity="1"/>
<polyline clip-path="url(#clip150)" style="stroke:#000000; stroke-linecap:round; stroke-linejoin:round; stroke-width:4; stroke-opacity:1; fill:none" points="1570,296.235 1895.84,296.235 1895.84,140.715 1570,140.715 1570,296.235 "/>
<polyline clip-path="url(#clip150)" style="stroke:#009af9; stroke-linecap:round; stroke-linejoin:round; stroke-width:8; stroke-opacity:1; fill:none" points="1588.97,192.555 1702.8,192.555 "/>
<path clip-path="url(#clip150)" d="M1742.12 188.886 Q1743.72 186.015 1745.94 184.65 Q1748.16 183.284 1751.17 183.284 Q1755.22 183.284 1757.42 186.131 Q1759.62 188.955 1759.62 194.187 L1759.62 209.835 L1755.34 209.835 L1755.34 194.325 Q1755.34 190.599 1754.02 188.793 Q1752.7 186.988 1749.99 186.988 Q1746.68 186.988 1744.76 189.187 Q1742.84 191.386 1742.84 195.182 L1742.84 209.835 L1738.56 209.835 L1738.56 194.325 Q1738.56 190.575 1737.24 188.793 Q1735.92 186.988 1733.16 186.988 Q1729.9 186.988 1727.98 189.21 Q1726.06 191.409 1726.06 195.182 L1726.06 209.835 L1721.77 209.835 L1721.77 183.909 L1726.06 183.909 L1726.06 187.937 Q1727.52 185.552 1729.55 184.418 Q1731.59 183.284 1734.39 183.284 Q1737.21 183.284 1739.18 184.719 Q1741.17 186.154 1742.12 188.886 Z" fill="#000000" fill-rule="nonzero" fill-opacity="1" /><path clip-path="url(#clip150)" d="M1768.12 183.909 L1772.38 183.909 L1772.38 209.835 L1768.12 209.835 L1768.12 183.909 M1768.12 173.816 L1772.38 173.816 L1772.38 179.21 L1768.12 179.21 L1768.12 173.816 Z" fill="#000000" fill-rule="nonzero" fill-opacity="1" /><path clip-path="url(#clip150)" d="M1802.84 194.187 L1802.84 209.835 L1798.58 209.835 L1798.58 194.325 Q1798.58 190.645 1797.14 188.816 Q1795.71 186.988 1792.84 186.988 Q1789.39 186.988 1787.4 189.187 Q1785.41 191.386 1785.41 195.182 L1785.41 209.835 L1781.13 209.835 L1781.13 183.909 L1785.41 183.909 L1785.41 187.937 Q1786.94 185.599 1789 184.441 Q1791.08 183.284 1793.79 183.284 Q1798.26 183.284 1800.55 186.062 Q1802.84 188.816 1802.84 194.187 Z" fill="#000000" fill-rule="nonzero" fill-opacity="1" /><path clip-path="url(#clip150)" d="M1826.36 187.89 Q1825.64 187.474 1824.78 187.288 Q1823.95 187.08 1822.93 187.08 Q1819.32 187.08 1817.38 189.441 Q1815.45 191.779 1815.45 196.177 L1815.45 209.835 L1811.17 209.835 L1811.17 183.909 L1815.45 183.909 L1815.45 187.937 Q1816.8 185.576 1818.95 184.441 Q1821.1 183.284 1824.18 183.284 Q1824.62 183.284 1825.15 183.353 Q1825.69 183.4 1826.33 183.515 L1826.36 187.89 Z" fill="#000000" fill-rule="nonzero" fill-opacity="1" /><path clip-path="url(#clip150)" d="M1851.96 195.807 L1851.96 197.89 L1832.38 197.89 Q1832.65 202.288 1835.01 204.603 Q1837.4 206.895 1841.64 206.895 Q1844.09 206.895 1846.38 206.293 Q1848.7 205.691 1850.96 204.487 L1850.96 208.515 Q1848.67 209.487 1846.26 209.997 Q1843.86 210.506 1841.38 210.506 Q1835.18 210.506 1831.54 206.895 Q1827.93 203.284 1827.93 197.126 Q1827.93 190.761 1831.36 187.034 Q1834.81 183.284 1840.64 183.284 Q1845.87 183.284 1848.9 186.663 Q1851.96 190.02 1851.96 195.807 M1847.7 194.557 Q1847.65 191.062 1845.73 188.978 Q1843.83 186.895 1840.69 186.895 Q1837.12 186.895 1834.97 188.909 Q1832.84 190.923 1832.51 194.58 L1847.7 194.557 Z" fill="#000000" fill-rule="nonzero" fill-opacity="1" /><path clip-path="url(#clip150)" d="M1875.48 184.673 L1875.48 188.7 Q1873.67 187.775 1871.73 187.312 Q1869.78 186.849 1867.7 186.849 Q1864.53 186.849 1862.93 187.821 Q1861.36 188.793 1861.36 190.738 Q1861.36 192.219 1862.49 193.075 Q1863.63 193.909 1867.05 194.673 L1868.51 194.997 Q1873.05 195.969 1874.95 197.751 Q1876.87 199.511 1876.87 202.682 Q1876.87 206.293 1874 208.399 Q1871.15 210.506 1866.15 210.506 Q1864.07 210.506 1861.8 210.089 Q1859.55 209.696 1857.05 208.886 L1857.05 204.487 Q1859.41 205.714 1861.7 206.339 Q1864 206.941 1866.24 206.941 Q1869.25 206.941 1870.87 205.923 Q1872.49 204.881 1872.49 203.006 Q1872.49 201.27 1871.31 200.344 Q1870.15 199.418 1866.2 198.562 L1864.71 198.214 Q1860.76 197.381 1859 195.668 Q1857.24 193.932 1857.24 190.923 Q1857.24 187.265 1859.83 185.275 Q1862.42 183.284 1867.19 183.284 Q1869.55 183.284 1871.64 183.631 Q1873.72 183.978 1875.48 184.673 Z" fill="#000000" fill-rule="nonzero" fill-opacity="1" /><polyline clip-path="url(#clip150)" style="stroke:#e26f46; stroke-linecap:round; stroke-linejoin:round; stroke-width:8; stroke-opacity:1; fill:none" points="1588.97,244.395 1702.8,244.395 "/>
<path clip-path="url(#clip150)" d="M1742.28 236.744 L1742.28 240.726 Q1740.48 239.73 1738.65 239.244 Q1736.84 238.735 1734.99 238.735 Q1730.85 238.735 1728.56 241.374 Q1726.27 243.99 1726.27 248.735 Q1726.27 253.48 1728.56 256.119 Q1730.85 258.735 1734.99 258.735 Q1736.84 258.735 1738.65 258.249 Q1740.48 257.739 1742.28 256.744 L1742.28 260.679 Q1740.5 261.513 1738.58 261.929 Q1736.68 262.346 1734.53 262.346 Q1728.67 262.346 1725.22 258.665 Q1721.77 254.985 1721.77 248.735 Q1721.77 242.392 1725.25 238.758 Q1728.74 235.124 1734.81 235.124 Q1736.77 235.124 1738.65 235.541 Q1740.52 235.934 1742.28 236.744 Z" fill="#000000" fill-rule="nonzero" fill-opacity="1" /><path clip-path="url(#clip150)" d="M1766.75 248.411 Q1766.75 243.781 1764.83 241.235 Q1762.93 238.689 1759.48 238.689 Q1756.06 238.689 1754.14 241.235 Q1752.24 243.781 1752.24 248.411 Q1752.24 253.017 1754.14 255.564 Q1756.06 258.11 1759.48 258.11 Q1762.93 258.11 1764.83 255.564 Q1766.75 253.017 1766.75 248.411 M1771.01 258.457 Q1771.01 265.077 1768.07 268.295 Q1765.13 271.536 1759.07 271.536 Q1756.82 271.536 1754.83 271.188 Q1752.84 270.864 1750.96 270.17 L1750.96 266.026 Q1752.84 267.045 1754.67 267.531 Q1756.5 268.017 1758.39 268.017 Q1762.58 268.017 1764.67 265.818 Q1766.75 263.642 1766.75 259.221 L1766.75 257.114 Q1765.43 259.406 1763.37 260.54 Q1761.31 261.675 1758.44 261.675 Q1753.67 261.675 1750.76 258.04 Q1747.84 254.406 1747.84 248.411 Q1747.84 242.392 1750.76 238.758 Q1753.67 235.124 1758.44 235.124 Q1761.31 235.124 1763.37 236.258 Q1765.43 237.392 1766.75 239.684 L1766.75 235.749 L1771.01 235.749 L1771.01 258.457 Z" fill="#000000" fill-rule="nonzero" fill-opacity="1" /></svg>
