<?xml version="1.0" encoding="utf-8"?>
<svg xmlns="http://www.w3.org/2000/svg" xmlns:xlink="http://www.w3.org/1999/xlink" width="500" height="320" viewBox="0 0 2000 1280">
<defs>
  <clipPath id="clip690">
    <rect x="0" y="0" width="2000" height="1280"/>
  </clipPath>
</defs>
<path clip-path="url(#clip690)" d="M0 1280 L2000 1280 L2000 0 L0 0  Z" fill="#ffffff" fill-rule="evenodd" fill-opacity="1"/>
<defs>
  <clipPath id="clip691">
    <rect x="400" y="0" width="1401" height="1280"/>
  </clipPath>
</defs>
<path clip-path="url(#clip690)" d="M244.586 1111.02 L1952.76 1111.02 L1952.76 107.256 L244.586 107.256  Z" fill="#ffffff" fill-rule="evenodd" fill-opacity="1"/>
<defs>
  <clipPath id="clip692">
    <rect x="244" y="107" width="1709" height="1005"/>
  </clipPath>
</defs>
<polyline clip-path="url(#clip692)" style="stroke:#000000; stroke-linecap:round; stroke-linejoin:round; stroke-width:2; stroke-opacity:0.1; fill:none" points="292.931,1111.02 292.931,107.256 "/>
<polyline clip-path="url(#clip692)" style="stroke:#000000; stroke-linecap:round; stroke-linejoin:round; stroke-width:2; stroke-opacity:0.1; fill:none" points="695.801,1111.02 695.801,107.256 "/>
<polyline clip-path="url(#clip692)" style="stroke:#000000; stroke-linecap:round; stroke-linejoin:round; stroke-width:2; stroke-opacity:0.1; fill:none" points="1098.67,1111.02 1098.67,107.256 "/>
<polyline clip-path="url(#clip692)" style="stroke:#000000; stroke-linecap:round; stroke-linejoin:round; stroke-width:2; stroke-opacity:0.1; fill:none" points="1501.54,1111.02 1501.54,107.256 "/>
<polyline clip-path="url(#clip692)" style="stroke:#000000; stroke-linecap:round; stroke-linejoin:round; stroke-width:2; stroke-opacity:0.1; fill:none" points="1904.41,1111.02 1904.41,107.256 "/>
<polyline clip-path="url(#clip692)" style="stroke:#000000; stroke-linecap:round; stroke-linejoin:round; stroke-width:2; stroke-opacity:0.1; fill:none" points="244.586,670.318 1952.76,670.318 "/>
<polyline clip-path="url(#clip692)" style="stroke:#000000; stroke-linecap:round; stroke-linejoin:round; stroke-width:2; stroke-opacity:0.1; fill:none" points="244.586,135.664 1952.76,135.664 "/>
<polyline clip-path="url(#clip690)" style="stroke:#000000; stroke-linecap:round; stroke-linejoin:round; stroke-width:4; stroke-opacity:1; fill:none" points="244.586,1111.02 1952.76,1111.02 "/>
<polyline clip-path="url(#clip690)" style="stroke:#000000; stroke-linecap:round; stroke-linejoin:round; stroke-width:4; stroke-opacity:1; fill:none" points="292.931,1111.02 292.931,1092.12 "/>
<polyline clip-path="url(#clip690)" style="stroke:#000000; stroke-linecap:round; stroke-linejoin:round; stroke-width:4; stroke-opacity:1; fill:none" points="695.801,1111.02 695.801,1092.12 "/>
<polyline clip-path="url(#clip690)" style="stroke:#000000; stroke-linecap:round; stroke-linejoin:round; stroke-width:4; stroke-opacity:1; fill:none" points="1098.67,1111.02 1098.67,1092.12 "/>
<polyline clip-path="url(#clip690)" style="stroke:#000000; stroke-linecap:round; stroke-linejoin:round; stroke-width:4; stroke-opacity:1; fill:none" points="1501.54,1111.02 1501.54,1092.12 "/>
<polyline clip-path="url(#clip690)" style="stroke:#000000; stroke-linecap:round; stroke-linejoin:round; stroke-width:4; stroke-opacity:1; fill:none" points="1904.41,1111.02 1904.41,1092.12 "/>
<path clip-path="url(#clip690)" d="M292.931 1138.74 Q289.319 1138.74 287.491 1142.3 Q285.685 1145.84 285.685 1152.97 Q285.685 1160.08 287.491 1163.64 Q289.319 1167.19 292.931 1167.19 Q296.565 1167.19 298.37 1163.64 Q300.199 1160.08 300.199 1152.97 Q300.199 1145.84 298.37 1142.3 Q296.565 1138.74 292.931 1138.74 M292.931 1135.03 Q298.741 1135.03 301.796 1139.64 Q304.875 1144.22 304.875 1152.97 Q304.875 1161.7 301.796 1166.31 Q298.741 1170.89 292.931 1170.89 Q287.12 1170.89 284.042 1166.31 Q280.986 1161.7 280.986 1152.97 Q280.986 1144.22 284.042 1139.64 Q287.12 1135.03 292.931 1135.03 Z" fill="#000000" fill-rule="nonzero" fill-opacity="1" /><path clip-path="url(#clip690)" d="M670.488 1166.28 L678.127 1166.28 L678.127 1139.92 L669.817 1141.58 L669.817 1137.33 L678.081 1135.66 L682.757 1135.66 L682.757 1166.28 L690.396 1166.28 L690.396 1170.22 L670.488 1170.22 L670.488 1166.28 Z" fill="#000000" fill-rule="nonzero" fill-opacity="1" /><path clip-path="url(#clip690)" d="M709.84 1138.74 Q706.229 1138.74 704.4 1142.3 Q702.595 1145.84 702.595 1152.97 Q702.595 1160.08 704.4 1163.64 Q706.229 1167.19 709.84 1167.19 Q713.474 1167.19 715.28 1163.64 Q717.109 1160.08 717.109 1152.97 Q717.109 1145.84 715.28 1142.3 Q713.474 1138.74 709.84 1138.74 M709.84 1135.03 Q715.65 1135.03 718.706 1139.64 Q721.784 1144.22 721.784 1152.97 Q721.784 1161.7 718.706 1166.31 Q715.65 1170.89 709.84 1170.89 Q704.03 1170.89 700.951 1166.31 Q697.896 1161.7 697.896 1152.97 Q697.896 1144.22 700.951 1139.64 Q704.03 1135.03 709.84 1135.03 Z" fill="#000000" fill-rule="nonzero" fill-opacity="1" /><path clip-path="url(#clip690)" d="M1077.44 1166.28 L1093.76 1166.28 L1093.76 1170.22 L1071.82 1170.22 L1071.82 1166.28 Q1074.48 1163.53 1079.06 1158.9 Q1083.67 1154.25 1084.85 1152.9 Q1087.1 1150.38 1087.98 1148.64 Q1088.88 1146.89 1088.88 1145.2 Q1088.88 1142.44 1086.93 1140.7 Q1085.01 1138.97 1081.91 1138.97 Q1079.71 1138.97 1077.26 1139.73 Q1074.83 1140.5 1072.05 1142.05 L1072.05 1137.33 Q1074.87 1136.19 1077.33 1135.61 Q1079.78 1135.03 1081.82 1135.03 Q1087.19 1135.03 1090.38 1137.72 Q1093.58 1140.4 1093.58 1144.89 Q1093.58 1147.02 1092.77 1148.95 Q1091.98 1150.84 1089.87 1153.44 Q1089.3 1154.11 1086.19 1157.33 Q1083.09 1160.52 1077.44 1166.28 Z" fill="#000000" fill-rule="nonzero" fill-opacity="1" /><path clip-path="url(#clip690)" d="M1113.58 1138.74 Q1109.97 1138.74 1108.14 1142.3 Q1106.33 1145.84 1106.33 1152.97 Q1106.33 1160.08 1108.14 1163.64 Q1109.97 1167.19 1113.58 1167.19 Q1117.21 1167.19 1119.02 1163.64 Q1120.85 1160.08 1120.85 1152.97 Q1120.85 1145.84 1119.02 1142.3 Q1117.21 1138.74 1113.58 1138.74 M1113.58 1135.03 Q1119.39 1135.03 1122.44 1139.64 Q1125.52 1144.22 1125.52 1152.97 Q1125.52 1161.7 1122.44 1166.31 Q1119.39 1170.89 1113.58 1170.89 Q1107.77 1170.89 1104.69 1166.31 Q1101.63 1161.7 1101.63 1152.97 Q1101.63 1144.22 1104.69 1139.64 Q1107.77 1135.03 1113.58 1135.03 Z" fill="#000000" fill-rule="nonzero" fill-opacity="1" /><path clip-path="url(#clip690)" d="M1490.38 1151.58 Q1493.74 1152.3 1495.62 1154.57 Q1497.51 1156.84 1497.51 1160.17 Q1497.51 1165.29 1493.99 1168.09 Q1490.48 1170.89 1484 1170.89 Q1481.82 1170.89 1479.5 1170.45 Q1477.21 1170.03 1474.76 1169.18 L1474.76 1164.66 Q1476.7 1165.8 1479.02 1166.38 Q1481.33 1166.95 1483.86 1166.95 Q1488.25 1166.95 1490.55 1165.22 Q1492.86 1163.48 1492.86 1160.17 Q1492.86 1157.12 1490.71 1155.4 Q1488.58 1153.67 1484.76 1153.67 L1480.73 1153.67 L1480.73 1149.83 L1484.94 1149.83 Q1488.39 1149.83 1490.22 1148.46 Q1492.05 1147.07 1492.05 1144.48 Q1492.05 1141.82 1490.15 1140.4 Q1488.28 1138.97 1484.76 1138.97 Q1482.84 1138.97 1480.64 1139.39 Q1478.44 1139.8 1475.8 1140.68 L1475.8 1136.51 Q1478.46 1135.77 1480.78 1135.4 Q1483.12 1135.03 1485.18 1135.03 Q1490.5 1135.03 1493.6 1137.46 Q1496.7 1139.87 1496.7 1143.99 Q1496.7 1146.86 1495.06 1148.85 Q1493.42 1150.82 1490.38 1151.58 Z" fill="#000000" fill-rule="nonzero" fill-opacity="1" /><path clip-path="url(#clip690)" d="M1516.38 1138.74 Q1512.77 1138.74 1510.94 1142.3 Q1509.13 1145.84 1509.13 1152.97 Q1509.13 1160.08 1510.94 1163.64 Q1512.77 1167.19 1516.38 1167.19 Q1520.01 1167.19 1521.82 1163.64 Q1523.65 1160.08 1523.65 1152.97 Q1523.65 1145.84 1521.82 1142.3 Q1520.01 1138.74 1516.38 1138.74 M1516.38 1135.03 Q1522.19 1135.03 1525.24 1139.64 Q1528.32 1144.22 1528.32 1152.97 Q1528.32 1161.7 1525.24 1166.31 Q1522.19 1170.89 1516.38 1170.89 Q1510.57 1170.89 1507.49 1166.31 Q1504.43 1161.7 1504.43 1152.97 Q1504.43 1144.22 1507.49 1139.64 Q1510.57 1135.03 1516.38 1135.03 Z" fill="#000000" fill-rule="nonzero" fill-opacity="1" /><path clip-path="url(#clip690)" d="M1892.58 1139.73 L1880.78 1158.18 L1892.58 1158.18 L1892.58 1139.73 M1891.36 1135.66 L1897.24 1135.66 L1897.24 1158.18 L1902.17 1158.18 L1902.17 1162.07 L1897.24 1162.07 L1897.24 1170.22 L1892.58 1170.22 L1892.58 1162.07 L1876.98 1162.07 L1876.98 1157.56 L1891.36 1135.66 Z" fill="#000000" fill-rule="nonzero" fill-opacity="1" /><path clip-path="url(#clip690)" d="M1919.9 1138.74 Q1916.29 1138.74 1914.46 1142.3 Q1912.65 1145.84 1912.65 1152.97 Q1912.65 1160.08 1914.46 1163.64 Q1916.29 1167.19 1919.9 1167.19 Q1923.53 1167.19 1925.34 1163.64 Q1927.17 1160.08 1927.17 1152.97 Q1927.17 1145.84 1925.34 1142.3 Q1923.53 1138.74 1919.9 1138.74 M1919.9 1135.03 Q1925.71 1135.03 1928.76 1139.64 Q1931.84 1144.22 1931.84 1152.97 Q1931.84 1161.7 1928.76 1166.31 Q1925.71 1170.89 1919.9 1170.89 Q1914.09 1170.89 1911.01 1166.31 Q1907.95 1161.7 1907.95 1152.97 Q1907.95 1144.22 1911.01 1139.64 Q1914.09 1135.03 1919.9 1135.03 Z" fill="#000000" fill-rule="nonzero" fill-opacity="1" /><g clip-path="url(#clip690)">
<text style="fill:#000000; fill-opacity:1; font-family:Arial,Helvetica Neue,Helvetica,sans-serif; font-size:66px; text-anchor:middle;" transform="rotate(0, 1098.67, 1252.42)" x="1098.67" y="1252.42">iteration number</text>
</g>
<polyline clip-path="url(#clip690)" style="stroke:#000000; stroke-linecap:round; stroke-linejoin:round; stroke-width:4; stroke-opacity:1; fill:none" points="244.586,1111.02 244.586,107.256 "/>
<polyline clip-path="url(#clip690)" style="stroke:#000000; stroke-linecap:round; stroke-linejoin:round; stroke-width:4; stroke-opacity:1; fill:none" points="244.586,670.318 263.484,670.318 "/>
<polyline clip-path="url(#clip690)" style="stroke:#000000; stroke-linecap:round; stroke-linejoin:round; stroke-width:4; stroke-opacity:1; fill:none" points="244.586,135.664 263.484,135.664 "/>
<path clip-path="url(#clip690)" d="M113.675 690.111 L121.314 690.111 L121.314 663.745 L113.004 665.412 L113.004 661.153 L121.268 659.486 L125.944 659.486 L125.944 690.111 L133.583 690.111 L133.583 694.046 L113.675 694.046 L113.675 690.111 Z" fill="#000000" fill-rule="nonzero" fill-opacity="1" /><path clip-path="url(#clip690)" d="M153.027 662.565 Q149.416 662.565 147.587 666.13 Q145.782 669.671 145.782 676.801 Q145.782 683.907 147.587 687.472 Q149.416 691.014 153.027 691.014 Q156.661 691.014 158.467 687.472 Q160.295 683.907 160.295 676.801 Q160.295 669.671 158.467 666.13 Q156.661 662.565 153.027 662.565 M153.027 658.861 Q158.837 658.861 161.893 663.468 Q164.971 668.051 164.971 676.801 Q164.971 685.528 161.893 690.134 Q158.837 694.717 153.027 694.717 Q147.217 694.717 144.138 690.134 Q141.082 685.528 141.082 676.801 Q141.082 668.051 144.138 663.468 Q147.217 658.861 153.027 658.861 Z" fill="#000000" fill-rule="nonzero" fill-opacity="1" /><path clip-path="url(#clip690)" d="M164.971 652.962 L189.083 652.962 L189.083 656.16 L164.971 656.16 L164.971 652.962 Z" fill="#000000" fill-rule="nonzero" fill-opacity="1" /><path clip-path="url(#clip690)" d="M208.793 651.495 Q211.52 652.078 213.044 653.922 Q214.586 655.765 214.586 658.473 Q214.586 662.63 211.727 664.905 Q208.869 667.181 203.602 667.181 Q201.834 667.181 199.954 666.824 Q198.092 666.485 196.098 665.789 L196.098 662.122 Q197.678 663.043 199.559 663.514 Q201.439 663.984 203.49 663.984 Q207.063 663.984 208.925 662.573 Q210.806 661.163 210.806 658.473 Q210.806 655.99 209.057 654.599 Q207.326 653.188 204.223 653.188 L200.95 653.188 L200.95 650.066 L204.374 650.066 Q207.176 650.066 208.662 648.956 Q210.147 647.828 210.147 645.721 Q210.147 643.559 208.605 642.411 Q207.082 641.245 204.223 641.245 Q202.662 641.245 200.875 641.584 Q199.089 641.922 196.944 642.637 L196.944 639.252 Q199.107 638.65 200.988 638.349 Q202.888 638.048 204.562 638.048 Q208.887 638.048 211.408 640.023 Q213.928 641.979 213.928 645.326 Q213.928 647.659 212.592 649.276 Q211.257 650.875 208.793 651.495 Z" fill="#000000" fill-rule="nonzero" fill-opacity="1" /><path clip-path="url(#clip690)" d="M143.88 155.457 L151.519 155.457 L151.519 129.091 L143.209 130.758 L143.209 126.499 L151.473 124.832 L156.149 124.832 L156.149 155.457 L163.788 155.457 L163.788 159.392 L143.88 159.392 L143.88 155.457 Z" fill="#000000" fill-rule="nonzero" fill-opacity="1" /><path clip-path="url(#clip690)" d="M183.232 127.911 Q179.621 127.911 177.792 131.475 Q175.987 135.017 175.987 142.147 Q175.987 149.253 177.792 152.818 Q179.621 156.359 183.232 156.359 Q186.866 156.359 188.672 152.818 Q190.501 149.253 190.501 142.147 Q190.501 135.017 188.672 131.475 Q186.866 127.911 183.232 127.911 M183.232 124.207 Q189.042 124.207 192.098 128.813 Q195.177 133.397 195.177 142.147 Q195.177 150.873 192.098 155.48 Q189.042 160.063 183.232 160.063 Q177.422 160.063 174.343 155.48 Q171.288 150.873 171.288 142.147 Q171.288 133.397 174.343 128.813 Q177.422 124.207 183.232 124.207 Z" fill="#000000" fill-rule="nonzero" fill-opacity="1" /><path clip-path="url(#clip690)" d="M204.881 106.403 Q201.947 106.403 200.461 109.299 Q198.994 112.177 198.994 117.97 Q198.994 123.744 200.461 126.64 Q201.947 129.518 204.881 129.518 Q207.834 129.518 209.301 126.64 Q210.787 123.744 210.787 117.97 Q210.787 112.177 209.301 109.299 Q207.834 106.403 204.881 106.403 M204.881 103.394 Q209.602 103.394 212.085 107.136 Q214.586 110.86 214.586 117.97 Q214.586 125.06 212.085 128.803 Q209.602 132.527 204.881 132.527 Q200.161 132.527 197.659 128.803 Q195.177 125.06 195.177 117.97 Q195.177 110.86 197.659 107.136 Q200.161 103.394 204.881 103.394 Z" fill="#000000" fill-rule="nonzero" fill-opacity="1" /><g clip-path="url(#clip690)">
<text style="fill:#000000; fill-opacity:1; font-family:Arial,Helvetica Neue,Helvetica,sans-serif; font-size:66px; text-anchor:middle;" transform="rotate(-90, 71.4418, 609.137)" x="71.4418" y="609.137">residual norm</text>
</g>
<g clip-path="url(#clip690)">
<text style="fill:#000000; fill-opacity:1; font-family:Arial,Helvetica Neue,Helvetica,sans-serif; font-size:66px; text-anchor:middle;" transform="rotate(0, 1098.67, 57.6)" x="1098.67" y="57.6">Incomplete LU preconditioning</text>
</g>
<polyline clip-path="url(#clip692)" style="stroke:#009af9; stroke-linecap:round; stroke-linejoin:round; stroke-width:8; stroke-opacity:1; fill:none" points="292.931,135.664 333.218,137.19 373.505,137.656 413.792,137.836 454.079,137.915 494.366,137.954 534.653,137.975 574.94,137.988 615.227,137.996 655.514,138.002 695.801,138.007 736.088,138.012 776.375,138.016 816.662,138.02 856.949,138.024 897.236,138.028 937.523,138.032 977.81,138.035 1018.1,138.038 1058.38,138.041 1098.67,138.041 1138.96,138.041 1179.25,138.041 1219.53,138.041 1259.82,138.041 1300.11,138.042 1340.39,138.042 1380.68,138.042 1420.97,138.042 1461.25,138.042 1501.54,138.042 1541.83,138.042 1582.12,138.043 1622.4,138.043 1662.69,138.044 1702.98,138.046 1743.26,138.05 1783.55,138.055 1823.84,138.06 1864.12,138.064 1904.41,138.064 "/>
<polyline clip-path="url(#clip692)" style="stroke:#e26f46; stroke-linecap:round; stroke-linejoin:round; stroke-width:8; stroke-opacity:1; fill:none" points="292.931,135.664 333.218,151.849 373.505,180.25 413.792,229.82 454.079,253.703 494.366,294.942 534.653,343.533 574.94,400.794 615.227,468.048 655.514,524.7 695.801,577.559 736.088,626.705 776.375,690.811 816.662,756.966 856.949,813.083 897.236,884.91 937.523,984.94 977.81,1082.61 "/>
<polyline clip-path="url(#clip692)" style="stroke:#3da44d; stroke-linecap:round; stroke-linejoin:round; stroke-width:8; stroke-opacity:1; fill:none" points="292.931,135.664 333.218,201.234 373.505,261.584 413.792,305.291 454.079,366.813 494.366,450.693 534.653,534.822 574.94,613.81 615.227,677.65 655.514,763.956 695.801,862.603 736.088,952.005 776.375,1073.68 "/>
<polyline clip-path="url(#clip692)" style="stroke:#c271d2; stroke-linecap:round; stroke-linejoin:round; stroke-width:8; stroke-opacity:1; fill:none" points="292.931,135.664 333.218,247.583 373.505,390.663 413.792,544.606 454.079,649.29 494.366,803.637 534.653,992.28 "/>
<polyline clip-path="url(#clip692)" style="stroke:#ac8d18; stroke-linecap:round; stroke-linejoin:round; stroke-width:8; stroke-opacity:1; fill:none" points="292.931,135.664 333.218,278.627 373.505,503.853 413.792,676.35 454.079,881.879 "/>
<path clip-path="url(#clip690)" d="M1183.52 1077.56 L1895.82 1077.56 L1895.82 766.52 L1183.52 766.52  Z" fill="#ffffff" fill-rule="evenodd" fill-opacity="1"/>
<polyline clip-path="url(#clip690)" style="stroke:#000000; stroke-linecap:round; stroke-linejoin:round; stroke-width:4; stroke-opacity:1; fill:none" points="1183.52,1077.56 1895.82,1077.56 1895.82,766.52 1183.52,766.52 1183.52,1077.56 "/>
<polyline clip-path="url(#clip690)" style="stroke:#009af9; stroke-linecap:round; stroke-linejoin:round; stroke-width:8; stroke-opacity:1; fill:none" points="1202.5,818.36 1316.38,818.36 "/>
<path clip-path="url(#clip690)" d="M1357.07 819.992 L1357.07 835.64 L1352.81 835.64 L1352.81 820.131 Q1352.81 816.45 1351.38 814.621 Q1349.94 812.793 1347.07 812.793 Q1343.62 812.793 1341.63 814.992 Q1339.64 817.191 1339.64 820.987 L1339.64 835.64 L1335.36 835.64 L1335.36 809.714 L1339.64 809.714 L1339.64 813.742 Q1341.17 811.404 1343.23 810.246 Q1345.31 809.089 1348.02 809.089 Q1352.49 809.089 1354.78 811.867 Q1357.07 814.621 1357.07 819.992 Z" fill="#000000" fill-rule="nonzero" fill-opacity="1" /><path clip-path="url(#clip690)" d="M1375.61 812.7 Q1372.19 812.7 1370.2 815.385 Q1368.21 818.047 1368.21 822.7 Q1368.21 827.353 1370.17 830.038 Q1372.16 832.7 1375.61 832.7 Q1379.02 832.7 1381.01 830.015 Q1383 827.33 1383 822.7 Q1383 818.094 1381.01 815.408 Q1379.02 812.7 1375.61 812.7 M1375.61 809.089 Q1381.17 809.089 1384.34 812.7 Q1387.51 816.311 1387.51 822.7 Q1387.51 829.066 1384.34 832.7 Q1381.17 836.311 1375.61 836.311 Q1370.03 836.311 1366.86 832.7 Q1363.71 829.066 1363.71 822.7 Q1363.71 816.311 1366.86 812.7 Q1370.03 809.089 1375.61 809.089 Z" fill="#000000" fill-rule="nonzero" fill-opacity="1" /><path clip-path="url(#clip690)" d="M1413.76 831.751 L1413.76 845.501 L1409.48 845.501 L1409.48 809.714 L1413.76 809.714 L1413.76 813.649 Q1415.1 811.334 1417.14 810.223 Q1419.2 809.089 1422.05 809.089 Q1426.77 809.089 1429.71 812.839 Q1432.67 816.589 1432.67 822.7 Q1432.67 828.811 1429.71 832.561 Q1426.77 836.311 1422.05 836.311 Q1419.2 836.311 1417.14 835.2 Q1415.1 834.066 1413.76 831.751 M1428.25 822.7 Q1428.25 818.001 1426.31 815.339 Q1424.39 812.654 1421.01 812.654 Q1417.63 812.654 1415.68 815.339 Q1413.76 818.001 1413.76 822.7 Q1413.76 827.399 1415.68 830.084 Q1417.63 832.746 1421.01 832.746 Q1424.39 832.746 1426.31 830.084 Q1428.25 827.399 1428.25 822.7 Z" fill="#000000" fill-rule="nonzero" fill-opacity="1" /><path clip-path="url(#clip690)" d="M1454.76 813.695 Q1454.04 813.279 1453.18 813.094 Q1452.35 812.885 1451.33 812.885 Q1447.72 812.885 1445.77 815.246 Q1443.85 817.584 1443.85 821.982 L1443.85 835.64 L1439.57 835.64 L1439.57 809.714 L1443.85 809.714 L1443.85 813.742 Q1445.2 811.381 1447.35 810.246 Q1449.5 809.089 1452.58 809.089 Q1453.02 809.089 1453.55 809.158 Q1454.08 809.205 1454.73 809.32 L1454.76 813.695 Z" fill="#000000" fill-rule="nonzero" fill-opacity="1" /><path clip-path="url(#clip690)" d="M1480.36 821.612 L1480.36 823.695 L1460.77 823.695 Q1461.05 828.093 1463.41 830.408 Q1465.8 832.7 1470.03 832.7 Q1472.49 832.7 1474.78 832.098 Q1477.09 831.496 1479.36 830.293 L1479.36 834.32 Q1477.07 835.293 1474.66 835.802 Q1472.26 836.311 1469.78 836.311 Q1463.58 836.311 1459.94 832.7 Q1456.33 829.089 1456.33 822.931 Q1456.33 816.566 1459.76 812.839 Q1463.21 809.089 1469.04 809.089 Q1474.27 809.089 1477.3 812.469 Q1480.36 815.825 1480.36 821.612 M1476.1 820.362 Q1476.05 816.867 1474.13 814.783 Q1472.23 812.7 1469.08 812.7 Q1465.52 812.7 1463.37 814.714 Q1461.24 816.728 1460.91 820.385 L1476.1 820.362 Z" fill="#000000" fill-rule="nonzero" fill-opacity="1" /><path clip-path="url(#clip690)" d="M1506.01 810.709 L1506.01 814.691 Q1504.2 813.695 1502.37 813.209 Q1500.57 812.7 1498.71 812.7 Q1494.57 812.7 1492.28 815.339 Q1489.99 817.955 1489.99 822.7 Q1489.99 827.445 1492.28 830.084 Q1494.57 832.7 1498.71 832.7 Q1500.57 832.7 1502.37 832.214 Q1504.2 831.705 1506.01 830.709 L1506.01 834.644 Q1504.22 835.478 1502.3 835.894 Q1500.4 836.311 1498.25 836.311 Q1492.39 836.311 1488.95 832.63 Q1485.5 828.95 1485.5 822.7 Q1485.5 816.357 1488.97 812.723 Q1492.46 809.089 1498.53 809.089 Q1500.5 809.089 1502.37 809.506 Q1504.25 809.899 1506.01 810.709 Z" fill="#000000" fill-rule="nonzero" fill-opacity="1" /><path clip-path="url(#clip690)" d="M1523.46 812.7 Q1520.03 812.7 1518.04 815.385 Q1516.05 818.047 1516.05 822.7 Q1516.05 827.353 1518.02 830.038 Q1520.01 832.7 1523.46 832.7 Q1526.86 832.7 1528.85 830.015 Q1530.84 827.33 1530.84 822.7 Q1530.84 818.094 1528.85 815.408 Q1526.86 812.7 1523.46 812.7 M1523.46 809.089 Q1529.02 809.089 1532.19 812.7 Q1535.36 816.311 1535.36 822.7 Q1535.36 829.066 1532.19 832.7 Q1529.02 836.311 1523.46 836.311 Q1517.88 836.311 1514.71 832.7 Q1511.56 829.066 1511.56 822.7 Q1511.56 816.311 1514.71 812.7 Q1517.88 809.089 1523.46 809.089 Z" fill="#000000" fill-rule="nonzero" fill-opacity="1" /><path clip-path="url(#clip690)" d="M1563.97 819.992 L1563.97 835.64 L1559.71 835.64 L1559.71 820.131 Q1559.71 816.45 1558.27 814.621 Q1556.84 812.793 1553.97 812.793 Q1550.52 812.793 1548.53 814.992 Q1546.54 817.191 1546.54 820.987 L1546.54 835.64 L1542.26 835.64 L1542.26 809.714 L1546.54 809.714 L1546.54 813.742 Q1548.07 811.404 1550.13 810.246 Q1552.21 809.089 1554.92 809.089 Q1559.39 809.089 1561.68 811.867 Q1563.97 814.621 1563.97 819.992 Z" fill="#000000" fill-rule="nonzero" fill-opacity="1" /><path clip-path="url(#clip690)" d="M1589.52 813.649 L1589.52 799.621 L1593.78 799.621 L1593.78 835.64 L1589.52 835.64 L1589.52 831.751 Q1588.18 834.066 1586.12 835.2 Q1584.08 836.311 1581.21 836.311 Q1576.51 836.311 1573.55 832.561 Q1570.61 828.811 1570.61 822.7 Q1570.61 816.589 1573.55 812.839 Q1576.51 809.089 1581.21 809.089 Q1584.08 809.089 1586.12 810.223 Q1588.18 811.334 1589.52 813.649 M1575.01 822.7 Q1575.01 827.399 1576.93 830.084 Q1578.88 832.746 1582.26 832.746 Q1585.64 832.746 1587.58 830.084 Q1589.52 827.399 1589.52 822.7 Q1589.52 818.001 1587.58 815.339 Q1585.64 812.654 1582.26 812.654 Q1578.88 812.654 1576.93 815.339 Q1575.01 818.001 1575.01 822.7 Z" fill="#000000" fill-rule="nonzero" fill-opacity="1" /><path clip-path="url(#clip690)" d="M1602.56 809.714 L1606.82 809.714 L1606.82 835.64 L1602.56 835.64 L1602.56 809.714 M1602.56 799.621 L1606.82 799.621 L1606.82 805.015 L1602.56 805.015 L1602.56 799.621 Z" fill="#000000" fill-rule="nonzero" fill-opacity="1" /><path clip-path="url(#clip690)" d="M1619.94 802.353 L1619.94 809.714 L1628.71 809.714 L1628.71 813.024 L1619.94 813.024 L1619.94 827.098 Q1619.94 830.269 1620.8 831.172 Q1621.68 832.075 1624.34 832.075 L1628.71 832.075 L1628.71 835.64 L1624.34 835.64 Q1619.41 835.64 1617.53 833.811 Q1615.66 831.959 1615.66 827.098 L1615.66 813.024 L1612.53 813.024 L1612.53 809.714 L1615.66 809.714 L1615.66 802.353 L1619.94 802.353 Z" fill="#000000" fill-rule="nonzero" fill-opacity="1" /><path clip-path="url(#clip690)" d="M1634.32 809.714 L1638.57 809.714 L1638.57 835.64 L1634.32 835.64 L1634.32 809.714 M1634.32 799.621 L1638.57 799.621 L1638.57 805.015 L1634.32 805.015 L1634.32 799.621 Z" fill="#000000" fill-rule="nonzero" fill-opacity="1" /><path clip-path="url(#clip690)" d="M1657.53 812.7 Q1654.11 812.7 1652.12 815.385 Q1650.13 818.047 1650.13 822.7 Q1650.13 827.353 1652.09 830.038 Q1654.08 832.7 1657.53 832.7 Q1660.94 832.7 1662.93 830.015 Q1664.92 827.33 1664.92 822.7 Q1664.92 818.094 1662.93 815.408 Q1660.94 812.7 1657.53 812.7 M1657.53 809.089 Q1663.09 809.089 1666.26 812.7 Q1669.43 816.311 1669.43 822.7 Q1669.43 829.066 1666.26 832.7 Q1663.09 836.311 1657.53 836.311 Q1651.95 836.311 1648.78 832.7 Q1645.63 829.066 1645.63 822.7 Q1645.63 816.311 1648.78 812.7 Q1651.95 809.089 1657.53 809.089 Z" fill="#000000" fill-rule="nonzero" fill-opacity="1" /><path clip-path="url(#clip690)" d="M1698.04 819.992 L1698.04 835.64 L1693.78 835.64 L1693.78 820.131 Q1693.78 816.45 1692.35 814.621 Q1690.91 812.793 1688.04 812.793 Q1684.59 812.793 1682.6 814.992 Q1680.61 817.191 1680.61 820.987 L1680.61 835.64 L1676.33 835.64 L1676.33 809.714 L1680.61 809.714 L1680.61 813.742 Q1682.14 811.404 1684.2 810.246 Q1686.28 809.089 1688.99 809.089 Q1693.46 809.089 1695.75 811.867 Q1698.04 814.621 1698.04 819.992 Z" fill="#000000" fill-rule="nonzero" fill-opacity="1" /><path clip-path="url(#clip690)" d="M1706.54 809.714 L1710.8 809.714 L1710.8 835.64 L1706.54 835.64 L1706.54 809.714 M1706.54 799.621 L1710.8 799.621 L1710.8 805.015 L1706.54 805.015 L1706.54 799.621 Z" fill="#000000" fill-rule="nonzero" fill-opacity="1" /><path clip-path="url(#clip690)" d="M1741.26 819.992 L1741.26 835.64 L1737 835.64 L1737 820.131 Q1737 816.45 1735.56 814.621 Q1734.13 812.793 1731.26 812.793 Q1727.81 812.793 1725.82 814.992 Q1723.83 817.191 1723.83 820.987 L1723.83 835.64 L1719.55 835.64 L1719.55 809.714 L1723.83 809.714 L1723.83 813.742 Q1725.36 811.404 1727.42 810.246 Q1729.5 809.089 1732.21 809.089 Q1736.68 809.089 1738.97 811.867 Q1741.26 814.621 1741.26 819.992 Z" fill="#000000" fill-rule="nonzero" fill-opacity="1" /><path clip-path="url(#clip690)" d="M1766.81 822.376 Q1766.81 817.746 1764.89 815.2 Q1763 812.654 1759.55 812.654 Q1756.12 812.654 1754.2 815.2 Q1752.3 817.746 1752.3 822.376 Q1752.3 826.982 1754.2 829.529 Q1756.12 832.075 1759.55 832.075 Q1763 832.075 1764.89 829.529 Q1766.81 826.982 1766.81 822.376 M1771.07 832.422 Q1771.07 839.042 1768.13 842.26 Q1765.19 845.501 1759.13 845.501 Q1756.88 845.501 1754.89 845.154 Q1752.9 844.829 1751.03 844.135 L1751.03 839.992 Q1752.9 841.01 1754.73 841.496 Q1756.56 841.982 1758.46 841.982 Q1762.65 841.982 1764.73 839.783 Q1766.81 837.607 1766.81 833.186 L1766.81 831.08 Q1765.5 833.371 1763.44 834.505 Q1761.37 835.64 1758.5 835.64 Q1753.74 835.64 1750.82 832.005 Q1747.9 828.371 1747.9 822.376 Q1747.9 816.357 1750.82 812.723 Q1753.74 809.089 1758.5 809.089 Q1761.37 809.089 1763.44 810.223 Q1765.5 811.357 1766.81 813.649 L1766.81 809.714 L1771.07 809.714 L1771.07 832.422 Z" fill="#000000" fill-rule="nonzero" fill-opacity="1" /><polyline clip-path="url(#clip690)" style="stroke:#e26f46; stroke-linecap:round; stroke-linejoin:round; stroke-width:8; stroke-opacity:1; fill:none" points="1202.5,870.2 1316.38,870.2 "/>
<path clip-path="url(#clip690)" d="M1350.22 882.758 Q1351.05 883.869 1353.55 883.869 L1355.61 883.869 L1355.61 887.48 L1353.04 887.48 Q1348.88 887.48 1346.98 885.258 Q1345.08 882.989 1345.08 878.082 L1345.08 865.813 L1335.36 865.813 L1335.36 861.554 L1359.27 861.554 L1359.27 865.813 L1349.43 865.813 L1349.43 878.336 Q1349.43 881.693 1350.22 882.758 Z" fill="#000000" fill-rule="nonzero" fill-opacity="1" /><path clip-path="url(#clip690)" d="M1381.68 865.952 L1411.35 865.952 L1411.35 869.841 L1381.68 869.841 L1381.68 865.952 M1381.68 875.396 L1411.35 875.396 L1411.35 879.332 L1381.68 879.332 L1381.68 875.396 Z" fill="#000000" fill-rule="nonzero" fill-opacity="1" /><path clip-path="url(#clip690)" d="M1440.54 883.545 L1456.86 883.545 L1456.86 887.48 L1434.92 887.48 L1434.92 883.545 Q1437.58 880.79 1442.16 876.16 Q1446.77 871.508 1447.95 870.165 Q1450.2 867.642 1451.08 865.906 Q1451.98 864.147 1451.98 862.457 Q1451.98 859.702 1450.03 857.966 Q1448.11 856.23 1445.01 856.23 Q1442.81 856.23 1440.36 856.994 Q1437.93 857.758 1435.15 859.309 L1435.15 854.586 Q1437.97 853.452 1440.43 852.873 Q1442.88 852.295 1444.92 852.295 Q1450.29 852.295 1453.48 854.98 Q1456.68 857.665 1456.68 862.156 Q1456.68 864.285 1455.87 866.207 Q1455.08 868.105 1452.97 870.697 Q1452.4 871.369 1449.29 874.586 Q1446.19 877.781 1440.54 883.545 Z" fill="#000000" fill-rule="nonzero" fill-opacity="1" /><path clip-path="url(#clip690)" d="M1466.68 881.6 L1471.56 881.6 L1471.56 887.48 L1466.68 887.48 L1466.68 881.6 Z" fill="#000000" fill-rule="nonzero" fill-opacity="1" /><path clip-path="url(#clip690)" d="M1491.75 855.998 Q1488.14 855.998 1486.31 859.563 Q1484.5 863.105 1484.5 870.234 Q1484.5 877.341 1486.31 880.906 Q1488.14 884.447 1491.75 884.447 Q1495.38 884.447 1497.19 880.906 Q1499.02 877.341 1499.02 870.234 Q1499.02 863.105 1497.19 859.563 Q1495.38 855.998 1491.75 855.998 M1491.75 852.295 Q1497.56 852.295 1500.61 856.901 Q1503.69 861.485 1503.69 870.234 Q1503.69 878.961 1500.61 883.568 Q1497.56 888.151 1491.75 888.151 Q1485.94 888.151 1482.86 883.568 Q1479.8 878.961 1479.8 870.234 Q1479.8 861.485 1482.86 856.901 Q1485.94 852.295 1491.75 852.295 Z" fill="#000000" fill-rule="nonzero" fill-opacity="1" /><path clip-path="url(#clip690)" d="M1512.39 881.6 L1517.28 881.6 L1517.28 885.582 L1513.48 892.989 L1510.5 892.989 L1512.39 885.582 L1512.39 881.6 Z" fill="#000000" fill-rule="nonzero" fill-opacity="1" /><path clip-path="url(#clip690)" d="M1545.66 854.193 L1545.66 861.554 L1554.43 861.554 L1554.43 864.864 L1545.66 864.864 L1545.66 878.938 Q1545.66 882.109 1546.51 883.012 Q1547.39 883.915 1550.06 883.915 L1554.43 883.915 L1554.43 887.48 L1550.06 887.48 Q1545.13 887.48 1543.25 885.651 Q1541.38 883.799 1541.38 878.938 L1541.38 864.864 L1538.25 864.864 L1538.25 861.554 L1541.38 861.554 L1541.38 854.193 L1545.66 854.193 Z" fill="#000000" fill-rule="nonzero" fill-opacity="1" /><path clip-path="url(#clip690)" d="M1560.03 861.554 L1564.29 861.554 L1564.29 887.48 L1560.03 887.48 L1560.03 861.554 M1560.03 851.461 L1564.29 851.461 L1564.29 856.855 L1560.03 856.855 L1560.03 851.461 Z" fill="#000000" fill-rule="nonzero" fill-opacity="1" /><path clip-path="url(#clip690)" d="M1593.39 866.531 Q1594.99 863.66 1597.21 862.295 Q1599.43 860.929 1602.44 860.929 Q1606.49 860.929 1608.69 863.776 Q1610.89 866.6 1610.89 871.832 L1610.89 887.48 L1606.61 887.48 L1606.61 871.971 Q1606.61 868.244 1605.29 866.438 Q1603.97 864.633 1601.26 864.633 Q1597.95 864.633 1596.03 866.832 Q1594.11 869.031 1594.11 872.827 L1594.11 887.48 L1589.82 887.48 L1589.82 871.971 Q1589.82 868.221 1588.51 866.438 Q1587.19 864.633 1584.43 864.633 Q1581.17 864.633 1579.25 866.855 Q1577.32 869.054 1577.32 872.827 L1577.32 887.48 L1573.04 887.48 L1573.04 861.554 L1577.32 861.554 L1577.32 865.582 Q1578.78 863.197 1580.82 862.063 Q1582.86 860.929 1585.66 860.929 Q1588.48 860.929 1590.45 862.364 Q1592.44 863.799 1593.39 866.531 Z" fill="#000000" fill-rule="nonzero" fill-opacity="1" /><path clip-path="url(#clip690)" d="M1641.56 873.452 L1641.56 875.535 L1621.98 875.535 Q1622.26 879.933 1624.62 882.248 Q1627 884.54 1631.24 884.54 Q1633.69 884.54 1635.98 883.938 Q1638.3 883.336 1640.57 882.133 L1640.57 886.16 Q1638.27 887.133 1635.87 887.642 Q1633.46 888.151 1630.98 888.151 Q1624.78 888.151 1621.14 884.54 Q1617.53 880.929 1617.53 874.771 Q1617.53 868.406 1620.96 864.679 Q1624.41 860.929 1630.24 860.929 Q1635.47 860.929 1638.51 864.309 Q1641.56 867.665 1641.56 873.452 M1637.3 872.202 Q1637.26 868.707 1635.33 866.623 Q1633.44 864.54 1630.29 864.54 Q1626.72 864.54 1624.57 866.554 Q1622.44 868.568 1622.12 872.225 L1637.3 872.202 Z" fill="#000000" fill-rule="nonzero" fill-opacity="1" /><path clip-path="url(#clip690)" d="M1664.18 865.952 L1693.85 865.952 L1693.85 869.841 L1664.18 869.841 L1664.18 865.952 M1664.18 875.396 L1693.85 875.396 L1693.85 879.332 L1664.18 879.332 L1664.18 875.396 Z" fill="#000000" fill-rule="nonzero" fill-opacity="1" /><path clip-path="url(#clip690)" d="M1729.01 855.998 Q1725.4 855.998 1723.57 859.563 Q1721.77 863.105 1721.77 870.234 Q1721.77 877.341 1723.57 880.906 Q1725.4 884.447 1729.01 884.447 Q1732.65 884.447 1734.45 880.906 Q1736.28 877.341 1736.28 870.234 Q1736.28 863.105 1734.45 859.563 Q1732.65 855.998 1729.01 855.998 M1729.01 852.295 Q1734.82 852.295 1737.88 856.901 Q1740.96 861.485 1740.96 870.234 Q1740.96 878.961 1737.88 883.568 Q1734.82 888.151 1729.01 888.151 Q1723.2 888.151 1720.13 883.568 Q1717.07 878.961 1717.07 870.234 Q1717.07 861.485 1720.13 856.901 Q1723.2 852.295 1729.01 852.295 Z" fill="#000000" fill-rule="nonzero" fill-opacity="1" /><path clip-path="url(#clip690)" d="M1749.18 881.6 L1754.06 881.6 L1754.06 887.48 L1749.18 887.48 L1749.18 881.6 Z" fill="#000000" fill-rule="nonzero" fill-opacity="1" /><path clip-path="url(#clip690)" d="M1774.25 855.998 Q1770.63 855.998 1768.81 859.563 Q1767 863.105 1767 870.234 Q1767 877.341 1768.81 880.906 Q1770.63 884.447 1774.25 884.447 Q1777.88 884.447 1779.68 880.906 Q1781.51 877.341 1781.51 870.234 Q1781.51 863.105 1779.68 859.563 Q1777.88 855.998 1774.25 855.998 M1774.25 852.295 Q1780.06 852.295 1783.11 856.901 Q1786.19 861.485 1786.19 870.234 Q1786.19 878.961 1783.11 883.568 Q1780.06 888.151 1774.25 888.151 Q1768.44 888.151 1765.36 883.568 Q1762.3 878.961 1762.3 870.234 Q1762.3 861.485 1765.36 856.901 Q1768.44 852.295 1774.25 852.295 Z" fill="#000000" fill-rule="nonzero" fill-opacity="1" /><path clip-path="url(#clip690)" d="M1808.57 868.846 Q1811.93 869.563 1813.81 871.832 Q1815.7 874.1 1815.7 877.433 Q1815.7 882.549 1812.18 885.35 Q1808.67 888.151 1802.18 888.151 Q1800.01 888.151 1797.69 887.711 Q1795.4 887.295 1792.95 886.438 L1792.95 881.924 Q1794.89 883.058 1797.21 883.637 Q1799.52 884.216 1802.05 884.216 Q1806.44 884.216 1808.74 882.48 Q1811.05 880.744 1811.05 877.433 Q1811.05 874.378 1808.9 872.665 Q1806.77 870.929 1802.95 870.929 L1798.92 870.929 L1798.92 867.086 L1803.13 867.086 Q1806.58 867.086 1808.41 865.721 Q1810.24 864.332 1810.24 861.739 Q1810.24 859.077 1808.34 857.665 Q1806.47 856.23 1802.95 856.23 Q1801.03 856.23 1798.83 856.647 Q1796.63 857.063 1793.99 857.943 L1793.99 853.776 Q1796.65 853.035 1798.97 852.665 Q1801.31 852.295 1803.37 852.295 Q1808.69 852.295 1811.79 854.725 Q1814.89 857.133 1814.89 861.253 Q1814.89 864.123 1813.25 866.114 Q1811.61 868.082 1808.57 868.846 Z" fill="#000000" fill-rule="nonzero" fill-opacity="1" /><path clip-path="url(#clip690)" d="M1838.74 868.846 Q1842.09 869.563 1843.97 871.832 Q1845.87 874.1 1845.87 877.433 Q1845.87 882.549 1842.35 885.35 Q1838.83 888.151 1832.35 888.151 Q1830.17 888.151 1827.86 887.711 Q1825.56 887.295 1823.11 886.438 L1823.11 881.924 Q1825.06 883.058 1827.37 883.637 Q1829.68 884.216 1832.21 884.216 Q1836.61 884.216 1838.9 882.48 Q1841.21 880.744 1841.21 877.433 Q1841.21 874.378 1839.06 872.665 Q1836.93 870.929 1833.11 870.929 L1829.08 870.929 L1829.08 867.086 L1833.3 867.086 Q1836.74 867.086 1838.57 865.721 Q1840.4 864.332 1840.4 861.739 Q1840.4 859.077 1838.5 857.665 Q1836.63 856.23 1833.11 856.23 Q1831.19 856.23 1828.99 856.647 Q1826.79 857.063 1824.15 857.943 L1824.15 853.776 Q1826.81 853.035 1829.13 852.665 Q1831.47 852.295 1833.53 852.295 Q1838.85 852.295 1841.95 854.725 Q1845.06 857.133 1845.06 861.253 Q1845.06 864.123 1843.41 866.114 Q1841.77 868.082 1838.74 868.846 Z" fill="#000000" fill-rule="nonzero" fill-opacity="1" /><polyline clip-path="url(#clip690)" style="stroke:#3da44d; stroke-linecap:round; stroke-linejoin:round; stroke-width:8; stroke-opacity:1; fill:none" points="1202.5,922.04 1316.38,922.04 "/>
<path clip-path="url(#clip690)" d="M1350.22 934.598 Q1351.05 935.709 1353.55 935.709 L1355.61 935.709 L1355.61 939.32 L1353.04 939.32 Q1348.88 939.32 1346.98 937.098 Q1345.08 934.829 1345.08 929.922 L1345.08 917.653 L1335.36 917.653 L1335.36 913.394 L1359.27 913.394 L1359.27 917.653 L1349.43 917.653 L1349.43 930.176 Q1349.43 933.533 1350.22 934.598 Z" fill="#000000" fill-rule="nonzero" fill-opacity="1" /><path clip-path="url(#clip690)" d="M1381.68 917.792 L1411.35 917.792 L1411.35 921.681 L1381.68 921.681 L1381.68 917.792 M1381.68 927.236 L1411.35 927.236 L1411.35 931.172 L1381.68 931.172 L1381.68 927.236 Z" fill="#000000" fill-rule="nonzero" fill-opacity="1" /><path clip-path="url(#clip690)" d="M1437.33 935.385 L1444.96 935.385 L1444.96 909.019 L1436.65 910.686 L1436.65 906.426 L1444.92 904.76 L1449.59 904.76 L1449.59 935.385 L1457.23 935.385 L1457.23 939.32 L1437.33 939.32 L1437.33 935.385 Z" fill="#000000" fill-rule="nonzero" fill-opacity="1" /><path clip-path="url(#clip690)" d="M1466.68 933.44 L1471.56 933.44 L1471.56 939.32 L1466.68 939.32 L1466.68 933.44 Z" fill="#000000" fill-rule="nonzero" fill-opacity="1" /><path clip-path="url(#clip690)" d="M1491.75 907.838 Q1488.14 907.838 1486.31 911.403 Q1484.5 914.945 1484.5 922.074 Q1484.5 929.181 1486.31 932.746 Q1488.14 936.287 1491.75 936.287 Q1495.38 936.287 1497.19 932.746 Q1499.02 929.181 1499.02 922.074 Q1499.02 914.945 1497.19 911.403 Q1495.38 907.838 1491.75 907.838 M1491.75 904.135 Q1497.56 904.135 1500.61 908.741 Q1503.69 913.325 1503.69 922.074 Q1503.69 930.801 1500.61 935.408 Q1497.56 939.991 1491.75 939.991 Q1485.94 939.991 1482.86 935.408 Q1479.8 930.801 1479.8 922.074 Q1479.8 913.325 1482.86 908.741 Q1485.94 904.135 1491.75 904.135 Z" fill="#000000" fill-rule="nonzero" fill-opacity="1" /><path clip-path="url(#clip690)" d="M1512.39 933.44 L1517.28 933.44 L1517.28 937.422 L1513.48 944.829 L1510.5 944.829 L1512.39 937.422 L1512.39 933.44 Z" fill="#000000" fill-rule="nonzero" fill-opacity="1" /><path clip-path="url(#clip690)" d="M1545.66 906.033 L1545.66 913.394 L1554.43 913.394 L1554.43 916.704 L1545.66 916.704 L1545.66 930.778 Q1545.66 933.949 1546.51 934.852 Q1547.39 935.755 1550.06 935.755 L1554.43 935.755 L1554.43 939.32 L1550.06 939.32 Q1545.13 939.32 1543.25 937.491 Q1541.38 935.639 1541.38 930.778 L1541.38 916.704 L1538.25 916.704 L1538.25 913.394 L1541.38 913.394 L1541.38 906.033 L1545.66 906.033 Z" fill="#000000" fill-rule="nonzero" fill-opacity="1" /><path clip-path="url(#clip690)" d="M1560.03 913.394 L1564.29 913.394 L1564.29 939.32 L1560.03 939.32 L1560.03 913.394 M1560.03 903.301 L1564.29 903.301 L1564.29 908.695 L1560.03 908.695 L1560.03 903.301 Z" fill="#000000" fill-rule="nonzero" fill-opacity="1" /><path clip-path="url(#clip690)" d="M1593.39 918.371 Q1594.99 915.5 1597.21 914.135 Q1599.43 912.769 1602.44 912.769 Q1606.49 912.769 1608.69 915.616 Q1610.89 918.44 1610.89 923.672 L1610.89 939.32 L1606.61 939.32 L1606.61 923.811 Q1606.61 920.084 1605.29 918.278 Q1603.97 916.473 1601.26 916.473 Q1597.95 916.473 1596.03 918.672 Q1594.11 920.871 1594.11 924.667 L1594.11 939.32 L1589.82 939.32 L1589.82 923.811 Q1589.82 920.061 1588.51 918.278 Q1587.19 916.473 1584.43 916.473 Q1581.17 916.473 1579.25 918.695 Q1577.32 920.894 1577.32 924.667 L1577.32 939.32 L1573.04 939.32 L1573.04 913.394 L1577.32 913.394 L1577.32 917.422 Q1578.78 915.037 1580.82 913.903 Q1582.86 912.769 1585.66 912.769 Q1588.48 912.769 1590.45 914.204 Q1592.44 915.639 1593.39 918.371 Z" fill="#000000" fill-rule="nonzero" fill-opacity="1" /><path clip-path="url(#clip690)" d="M1641.56 925.292 L1641.56 927.375 L1621.98 927.375 Q1622.26 931.773 1624.62 934.088 Q1627 936.38 1631.24 936.38 Q1633.69 936.38 1635.98 935.778 Q1638.3 935.176 1640.57 933.973 L1640.57 938 Q1638.27 938.973 1635.87 939.482 Q1633.46 939.991 1630.98 939.991 Q1624.78 939.991 1621.14 936.38 Q1617.53 932.769 1617.53 926.611 Q1617.53 920.246 1620.96 916.519 Q1624.41 912.769 1630.24 912.769 Q1635.47 912.769 1638.51 916.149 Q1641.56 919.505 1641.56 925.292 M1637.3 924.042 Q1637.26 920.547 1635.33 918.463 Q1633.44 916.38 1630.29 916.38 Q1626.72 916.38 1624.57 918.394 Q1622.44 920.408 1622.12 924.065 L1637.3 924.042 Z" fill="#000000" fill-rule="nonzero" fill-opacity="1" /><path clip-path="url(#clip690)" d="M1664.18 917.792 L1693.85 917.792 L1693.85 921.681 L1664.18 921.681 L1664.18 917.792 M1664.18 927.236 L1693.85 927.236 L1693.85 931.172 L1664.18 931.172 L1664.18 927.236 Z" fill="#000000" fill-rule="nonzero" fill-opacity="1" /><path clip-path="url(#clip690)" d="M1729.01 907.838 Q1725.4 907.838 1723.57 911.403 Q1721.77 914.945 1721.77 922.074 Q1721.77 929.181 1723.57 932.746 Q1725.4 936.287 1729.01 936.287 Q1732.65 936.287 1734.45 932.746 Q1736.28 929.181 1736.28 922.074 Q1736.28 914.945 1734.45 911.403 Q1732.65 907.838 1729.01 907.838 M1729.01 904.135 Q1734.82 904.135 1737.88 908.741 Q1740.96 913.325 1740.96 922.074 Q1740.96 930.801 1737.88 935.408 Q1734.82 939.991 1729.01 939.991 Q1723.2 939.991 1720.13 935.408 Q1717.07 930.801 1717.07 922.074 Q1717.07 913.325 1720.13 908.741 Q1723.2 904.135 1729.01 904.135 Z" fill="#000000" fill-rule="nonzero" fill-opacity="1" /><path clip-path="url(#clip690)" d="M1749.18 933.44 L1754.06 933.44 L1754.06 939.32 L1749.18 939.32 L1749.18 933.44 Z" fill="#000000" fill-rule="nonzero" fill-opacity="1" /><path clip-path="url(#clip690)" d="M1774.25 907.838 Q1770.63 907.838 1768.81 911.403 Q1767 914.945 1767 922.074 Q1767 929.181 1768.81 932.746 Q1770.63 936.287 1774.25 936.287 Q1777.88 936.287 1779.68 932.746 Q1781.51 929.181 1781.51 922.074 Q1781.51 914.945 1779.68 911.403 Q1777.88 907.838 1774.25 907.838 M1774.25 904.135 Q1780.06 904.135 1783.11 908.741 Q1786.19 913.325 1786.19 922.074 Q1786.19 930.801 1783.11 935.408 Q1780.06 939.991 1774.25 939.991 Q1768.44 939.991 1765.36 935.408 Q1762.3 930.801 1762.3 922.074 Q1762.3 913.325 1765.36 908.741 Q1768.44 904.135 1774.25 904.135 Z" fill="#000000" fill-rule="nonzero" fill-opacity="1" /><path clip-path="url(#clip690)" d="M1794.45 904.76 L1812.81 904.76 L1812.81 908.695 L1798.74 908.695 L1798.74 917.167 Q1799.75 916.82 1800.77 916.658 Q1801.79 916.473 1802.81 916.473 Q1808.6 916.473 1811.98 919.644 Q1815.36 922.815 1815.36 928.232 Q1815.36 933.811 1811.88 936.912 Q1808.41 939.991 1802.09 939.991 Q1799.92 939.991 1797.65 939.621 Q1795.4 939.25 1793 938.51 L1793 933.811 Q1795.08 934.945 1797.3 935.5 Q1799.52 936.056 1802 936.056 Q1806 936.056 1808.34 933.949 Q1810.68 931.843 1810.68 928.232 Q1810.68 924.621 1808.34 922.514 Q1806 920.408 1802 920.408 Q1800.12 920.408 1798.25 920.824 Q1796.4 921.241 1794.45 922.121 L1794.45 904.76 Z" fill="#000000" fill-rule="nonzero" fill-opacity="1" /><path clip-path="url(#clip690)" d="M1828.6 935.385 L1844.92 935.385 L1844.92 939.32 L1822.97 939.32 L1822.97 935.385 Q1825.63 932.63 1830.22 928 Q1834.82 923.348 1836 922.005 Q1838.25 919.482 1839.13 917.746 Q1840.03 915.987 1840.03 914.297 Q1840.03 911.542 1838.09 909.806 Q1836.17 908.07 1833.06 908.07 Q1830.87 908.07 1828.41 908.834 Q1825.98 909.598 1823.2 911.149 L1823.2 906.426 Q1826.03 905.292 1828.48 904.713 Q1830.93 904.135 1832.97 904.135 Q1838.34 904.135 1841.54 906.82 Q1844.73 909.505 1844.73 913.996 Q1844.73 916.125 1843.92 918.047 Q1843.13 919.945 1841.03 922.537 Q1840.45 923.209 1837.35 926.426 Q1834.24 929.621 1828.6 935.385 Z" fill="#000000" fill-rule="nonzero" fill-opacity="1" /><polyline clip-path="url(#clip690)" style="stroke:#c271d2; stroke-linecap:round; stroke-linejoin:round; stroke-width:8; stroke-opacity:1; fill:none" points="1202.5,973.88 1316.38,973.88 "/>
<path clip-path="url(#clip690)" d="M1350.22 986.438 Q1351.05 987.549 1353.55 987.549 L1355.61 987.549 L1355.61 991.16 L1353.04 991.16 Q1348.88 991.16 1346.98 988.938 Q1345.08 986.669 1345.08 981.762 L1345.08 969.493 L1335.36 969.493 L1335.36 965.234 L1359.27 965.234 L1359.27 969.493 L1349.43 969.493 L1349.43 982.016 Q1349.43 985.373 1350.22 986.438 Z" fill="#000000" fill-rule="nonzero" fill-opacity="1" /><path clip-path="url(#clip690)" d="M1381.68 969.632 L1411.35 969.632 L1411.35 973.521 L1381.68 973.521 L1381.68 969.632 M1381.68 979.076 L1411.35 979.076 L1411.35 983.012 L1381.68 983.012 L1381.68 979.076 Z" fill="#000000" fill-rule="nonzero" fill-opacity="1" /><path clip-path="url(#clip690)" d="M1446.52 959.678 Q1442.9 959.678 1441.08 963.243 Q1439.27 966.785 1439.27 973.914 Q1439.27 981.021 1441.08 984.586 Q1442.9 988.127 1446.52 988.127 Q1450.15 988.127 1451.96 984.586 Q1453.78 981.021 1453.78 973.914 Q1453.78 966.785 1451.96 963.243 Q1450.15 959.678 1446.52 959.678 M1446.52 955.975 Q1452.33 955.975 1455.38 960.581 Q1458.46 965.165 1458.46 973.914 Q1458.46 982.641 1455.38 987.248 Q1452.33 991.831 1446.52 991.831 Q1440.71 991.831 1437.63 987.248 Q1434.57 982.641 1434.57 973.914 Q1434.57 965.165 1437.63 960.581 Q1440.71 955.975 1446.52 955.975 Z" fill="#000000" fill-rule="nonzero" fill-opacity="1" /><path clip-path="url(#clip690)" d="M1466.68 985.28 L1471.56 985.28 L1471.56 991.16 L1466.68 991.16 L1466.68 985.28 Z" fill="#000000" fill-rule="nonzero" fill-opacity="1" /><path clip-path="url(#clip690)" d="M1485.77 987.225 L1502.09 987.225 L1502.09 991.16 L1480.15 991.16 L1480.15 987.225 Q1482.81 984.47 1487.39 979.84 Q1492 975.188 1493.18 973.845 Q1495.43 971.322 1496.31 969.586 Q1497.21 967.827 1497.21 966.137 Q1497.21 963.382 1495.27 961.646 Q1493.34 959.91 1490.24 959.91 Q1488.04 959.91 1485.59 960.674 Q1483.16 961.438 1480.38 962.989 L1480.38 958.266 Q1483.21 957.132 1485.66 956.553 Q1488.11 955.975 1490.15 955.975 Q1495.52 955.975 1498.71 958.66 Q1501.91 961.345 1501.91 965.836 Q1501.91 967.965 1501.1 969.887 Q1500.31 971.785 1498.21 974.377 Q1497.63 975.049 1494.52 978.266 Q1491.42 981.461 1485.77 987.225 Z" fill="#000000" fill-rule="nonzero" fill-opacity="1" /><path clip-path="url(#clip690)" d="M1511.95 956.6 L1530.31 956.6 L1530.31 960.535 L1516.24 960.535 L1516.24 969.007 Q1517.26 968.66 1518.27 968.498 Q1519.29 968.313 1520.31 968.313 Q1526.1 968.313 1529.48 971.484 Q1532.86 974.655 1532.86 980.072 Q1532.86 985.651 1529.39 988.752 Q1525.91 991.831 1519.59 991.831 Q1517.42 991.831 1515.15 991.461 Q1512.9 991.09 1510.5 990.35 L1510.5 985.651 Q1512.58 986.785 1514.8 987.34 Q1517.02 987.896 1519.5 987.896 Q1523.51 987.896 1525.84 985.789 Q1528.18 983.683 1528.18 980.072 Q1528.18 976.461 1525.84 974.354 Q1523.51 972.248 1519.5 972.248 Q1517.63 972.248 1515.75 972.664 Q1513.9 973.081 1511.95 973.961 L1511.95 956.6 Z" fill="#000000" fill-rule="nonzero" fill-opacity="1" /><path clip-path="url(#clip690)" d="M1542.56 985.28 L1547.44 985.28 L1547.44 989.262 L1543.64 996.669 L1540.66 996.669 L1542.56 989.262 L1542.56 985.28 Z" fill="#000000" fill-rule="nonzero" fill-opacity="1" /><path clip-path="url(#clip690)" d="M1575.82 957.873 L1575.82 965.234 L1584.59 965.234 L1584.59 968.544 L1575.82 968.544 L1575.82 982.618 Q1575.82 985.789 1576.68 986.692 Q1577.56 987.595 1580.22 987.595 L1584.59 987.595 L1584.59 991.16 L1580.22 991.16 Q1575.29 991.16 1573.41 989.331 Q1571.54 987.479 1571.54 982.618 L1571.54 968.544 L1568.41 968.544 L1568.41 965.234 L1571.54 965.234 L1571.54 957.873 L1575.82 957.873 Z" fill="#000000" fill-rule="nonzero" fill-opacity="1" /><path clip-path="url(#clip690)" d="M1590.2 965.234 L1594.45 965.234 L1594.45 991.16 L1590.2 991.16 L1590.2 965.234 M1590.2 955.141 L1594.45 955.141 L1594.45 960.535 L1590.2 960.535 L1590.2 955.141 Z" fill="#000000" fill-rule="nonzero" fill-opacity="1" /><path clip-path="url(#clip690)" d="M1623.55 970.211 Q1625.15 967.34 1627.37 965.975 Q1629.59 964.609 1632.6 964.609 Q1636.65 964.609 1638.85 967.456 Q1641.05 970.28 1641.05 975.512 L1641.05 991.16 L1636.77 991.16 L1636.77 975.651 Q1636.77 971.924 1635.45 970.118 Q1634.13 968.313 1631.42 968.313 Q1628.11 968.313 1626.19 970.512 Q1624.27 972.711 1624.27 976.507 L1624.27 991.16 L1619.99 991.16 L1619.99 975.651 Q1619.99 971.901 1618.67 970.118 Q1617.35 968.313 1614.59 968.313 Q1611.33 968.313 1609.41 970.535 Q1607.49 972.734 1607.49 976.507 L1607.49 991.16 L1603.2 991.16 L1603.2 965.234 L1607.49 965.234 L1607.49 969.262 Q1608.95 966.877 1610.98 965.743 Q1613.02 964.609 1615.82 964.609 Q1618.64 964.609 1620.61 966.044 Q1622.6 967.479 1623.55 970.211 Z" fill="#000000" fill-rule="nonzero" fill-opacity="1" /><path clip-path="url(#clip690)" d="M1671.72 977.132 L1671.72 979.215 L1652.14 979.215 Q1652.42 983.613 1654.78 985.928 Q1657.16 988.22 1661.4 988.22 Q1663.85 988.22 1666.14 987.618 Q1668.46 987.016 1670.73 985.813 L1670.73 989.84 Q1668.44 990.813 1666.03 991.322 Q1663.62 991.831 1661.14 991.831 Q1654.94 991.831 1651.31 988.22 Q1647.69 984.609 1647.69 978.451 Q1647.69 972.086 1651.12 968.359 Q1654.57 964.609 1660.4 964.609 Q1665.63 964.609 1668.67 967.989 Q1671.72 971.345 1671.72 977.132 M1667.46 975.882 Q1667.42 972.387 1665.5 970.303 Q1663.6 968.22 1660.45 968.22 Q1656.88 968.22 1654.73 970.234 Q1652.6 972.248 1652.28 975.905 L1667.46 975.882 Z" fill="#000000" fill-rule="nonzero" fill-opacity="1" /><path clip-path="url(#clip690)" d="M1694.34 969.632 L1724.01 969.632 L1724.01 973.521 L1694.34 973.521 L1694.34 969.632 M1694.34 979.076 L1724.01 979.076 L1724.01 983.012 L1694.34 983.012 L1694.34 979.076 Z" fill="#000000" fill-rule="nonzero" fill-opacity="1" /><path clip-path="url(#clip690)" d="M1759.18 959.678 Q1755.56 959.678 1753.74 963.243 Q1751.93 966.785 1751.93 973.914 Q1751.93 981.021 1753.74 984.586 Q1755.56 988.127 1759.18 988.127 Q1762.81 988.127 1764.62 984.586 Q1766.44 981.021 1766.44 973.914 Q1766.44 966.785 1764.62 963.243 Q1762.81 959.678 1759.18 959.678 M1759.18 955.975 Q1764.99 955.975 1768.04 960.581 Q1771.12 965.165 1771.12 973.914 Q1771.12 982.641 1768.04 987.248 Q1764.99 991.831 1759.18 991.831 Q1753.37 991.831 1750.29 987.248 Q1747.23 982.641 1747.23 973.914 Q1747.23 965.165 1750.29 960.581 Q1753.37 955.975 1759.18 955.975 Z" fill="#000000" fill-rule="nonzero" fill-opacity="1" /><path clip-path="url(#clip690)" d="M1779.34 985.28 L1784.22 985.28 L1784.22 991.16 L1779.34 991.16 L1779.34 985.28 Z" fill="#000000" fill-rule="nonzero" fill-opacity="1" /><path clip-path="url(#clip690)" d="M1804.41 959.678 Q1800.8 959.678 1798.97 963.243 Q1797.16 966.785 1797.16 973.914 Q1797.16 981.021 1798.97 984.586 Q1800.8 988.127 1804.41 988.127 Q1808.04 988.127 1809.85 984.586 Q1811.68 981.021 1811.68 973.914 Q1811.68 966.785 1809.85 963.243 Q1808.04 959.678 1804.41 959.678 M1804.41 955.975 Q1810.22 955.975 1813.27 960.581 Q1816.35 965.165 1816.35 973.914 Q1816.35 982.641 1813.27 987.248 Q1810.22 991.831 1804.41 991.831 Q1798.6 991.831 1795.52 987.248 Q1792.46 982.641 1792.46 973.914 Q1792.46 965.165 1795.52 960.581 Q1798.6 955.975 1804.41 955.975 Z" fill="#000000" fill-rule="nonzero" fill-opacity="1" /><path clip-path="url(#clip690)" d="M1824.62 956.6 L1842.97 956.6 L1842.97 960.535 L1828.9 960.535 L1828.9 969.007 Q1829.92 968.66 1830.93 968.498 Q1831.95 968.313 1832.97 968.313 Q1838.76 968.313 1842.14 971.484 Q1845.52 974.655 1845.52 980.072 Q1845.52 985.651 1842.05 988.752 Q1838.57 991.831 1832.25 991.831 Q1830.08 991.831 1827.81 991.461 Q1825.56 991.09 1823.16 990.35 L1823.16 985.651 Q1825.24 986.785 1827.46 987.34 Q1829.68 987.896 1832.16 987.896 Q1836.17 987.896 1838.5 985.789 Q1840.84 983.683 1840.84 980.072 Q1840.84 976.461 1838.5 974.354 Q1836.17 972.248 1832.16 972.248 Q1830.29 972.248 1828.41 972.664 Q1826.56 973.081 1824.62 973.961 L1824.62 956.6 Z" fill="#000000" fill-rule="nonzero" fill-opacity="1" /><path clip-path="url(#clip690)" d="M1865.31 972.016 Q1862.16 972.016 1860.31 974.169 Q1858.48 976.322 1858.48 980.072 Q1858.48 983.799 1860.31 985.975 Q1862.16 988.127 1865.31 988.127 Q1868.46 988.127 1870.29 985.975 Q1872.14 983.799 1872.14 980.072 Q1872.14 976.322 1870.29 974.169 Q1868.46 972.016 1865.31 972.016 M1874.59 957.364 L1874.59 961.623 Q1872.83 960.79 1871.03 960.35 Q1869.24 959.91 1867.49 959.91 Q1862.86 959.91 1860.4 963.035 Q1857.97 966.16 1857.62 972.479 Q1858.99 970.465 1861.05 969.401 Q1863.11 968.313 1865.59 968.313 Q1870.8 968.313 1873.8 971.484 Q1876.84 974.632 1876.84 980.072 Q1876.84 985.396 1873.69 988.613 Q1870.54 991.831 1865.31 991.831 Q1859.31 991.831 1856.14 987.248 Q1852.97 982.641 1852.97 973.914 Q1852.97 965.72 1856.86 960.859 Q1860.75 955.975 1867.3 955.975 Q1869.06 955.975 1870.84 956.322 Q1872.65 956.669 1874.59 957.364 Z" fill="#000000" fill-rule="nonzero" fill-opacity="1" /><polyline clip-path="url(#clip690)" style="stroke:#ac8d18; stroke-linecap:round; stroke-linejoin:round; stroke-width:8; stroke-opacity:1; fill:none" points="1202.5,1025.72 1316.38,1025.72 "/>
<path clip-path="url(#clip690)" d="M1350.22 1038.28 Q1351.05 1039.39 1353.55 1039.39 L1355.61 1039.39 L1355.61 1043 L1353.04 1043 Q1348.88 1043 1346.98 1040.78 Q1345.08 1038.51 1345.08 1033.6 L1345.08 1021.33 L1335.36 1021.33 L1335.36 1017.07 L1359.27 1017.07 L1359.27 1021.33 L1349.43 1021.33 L1349.43 1033.86 Q1349.43 1037.21 1350.22 1038.28 Z" fill="#000000" fill-rule="nonzero" fill-opacity="1" /><path clip-path="url(#clip690)" d="M1381.68 1021.47 L1411.35 1021.47 L1411.35 1025.36 L1381.68 1025.36 L1381.68 1021.47 M1381.68 1030.92 L1411.35 1030.92 L1411.35 1034.85 L1381.68 1034.85 L1381.68 1030.92 Z" fill="#000000" fill-rule="nonzero" fill-opacity="1" /><path clip-path="url(#clip690)" d="M1446.52 1011.52 Q1442.9 1011.52 1441.08 1015.08 Q1439.27 1018.62 1439.27 1025.75 Q1439.27 1032.86 1441.08 1036.43 Q1442.9 1039.97 1446.52 1039.97 Q1450.15 1039.97 1451.96 1036.43 Q1453.78 1032.86 1453.78 1025.75 Q1453.78 1018.62 1451.96 1015.08 Q1450.15 1011.52 1446.52 1011.52 M1446.52 1007.81 Q1452.33 1007.81 1455.38 1012.42 Q1458.46 1017 1458.46 1025.75 Q1458.46 1034.48 1455.38 1039.09 Q1452.33 1043.67 1446.52 1043.67 Q1440.71 1043.67 1437.63 1039.09 Q1434.57 1034.48 1434.57 1025.75 Q1434.57 1017 1437.63 1012.42 Q1440.71 1007.81 1446.52 1007.81 Z" fill="#000000" fill-rule="nonzero" fill-opacity="1" /><path clip-path="url(#clip690)" d="M1466.68 1037.12 L1471.56 1037.12 L1471.56 1043 L1466.68 1043 L1466.68 1037.12 Z" fill="#000000" fill-rule="nonzero" fill-opacity="1" /><path clip-path="url(#clip690)" d="M1482.56 1039.06 L1490.2 1039.06 L1490.2 1012.7 L1481.89 1014.37 L1481.89 1010.11 L1490.15 1008.44 L1494.83 1008.44 L1494.83 1039.06 L1502.46 1039.06 L1502.46 1043 L1482.56 1043 L1482.56 1039.06 Z" fill="#000000" fill-rule="nonzero" fill-opacity="1" /><path clip-path="url(#clip690)" d="M1512.39 1037.12 L1517.28 1037.12 L1517.28 1041.1 L1513.48 1048.51 L1510.5 1048.51 L1512.39 1041.1 L1512.39 1037.12 Z" fill="#000000" fill-rule="nonzero" fill-opacity="1" /><path clip-path="url(#clip690)" d="M1545.66 1009.71 L1545.66 1017.07 L1554.43 1017.07 L1554.43 1020.38 L1545.66 1020.38 L1545.66 1034.46 Q1545.66 1037.63 1546.51 1038.53 Q1547.39 1039.43 1550.06 1039.43 L1554.43 1039.43 L1554.43 1043 L1550.06 1043 Q1545.13 1043 1543.25 1041.17 Q1541.38 1039.32 1541.38 1034.46 L1541.38 1020.38 L1538.25 1020.38 L1538.25 1017.07 L1541.38 1017.07 L1541.38 1009.71 L1545.66 1009.71 Z" fill="#000000" fill-rule="nonzero" fill-opacity="1" /><path clip-path="url(#clip690)" d="M1560.03 1017.07 L1564.29 1017.07 L1564.29 1043 L1560.03 1043 L1560.03 1017.07 M1560.03 1006.98 L1564.29 1006.98 L1564.29 1012.37 L1560.03 1012.37 L1560.03 1006.98 Z" fill="#000000" fill-rule="nonzero" fill-opacity="1" /><path clip-path="url(#clip690)" d="M1593.39 1022.05 Q1594.99 1019.18 1597.21 1017.81 Q1599.43 1016.45 1602.44 1016.45 Q1606.49 1016.45 1608.69 1019.3 Q1610.89 1022.12 1610.89 1027.35 L1610.89 1043 L1606.61 1043 L1606.61 1027.49 Q1606.61 1023.76 1605.29 1021.96 Q1603.97 1020.15 1601.26 1020.15 Q1597.95 1020.15 1596.03 1022.35 Q1594.11 1024.55 1594.11 1028.35 L1594.11 1043 L1589.82 1043 L1589.82 1027.49 Q1589.82 1023.74 1588.51 1021.96 Q1587.19 1020.15 1584.43 1020.15 Q1581.17 1020.15 1579.25 1022.37 Q1577.32 1024.57 1577.32 1028.35 L1577.32 1043 L1573.04 1043 L1573.04 1017.07 L1577.32 1017.07 L1577.32 1021.1 Q1578.78 1018.72 1580.82 1017.58 Q1582.86 1016.45 1585.66 1016.45 Q1588.48 1016.45 1590.45 1017.88 Q1592.44 1019.32 1593.39 1022.05 Z" fill="#000000" fill-rule="nonzero" fill-opacity="1" /><path clip-path="url(#clip690)" d="M1641.56 1028.97 L1641.56 1031.06 L1621.98 1031.06 Q1622.26 1035.45 1624.62 1037.77 Q1627 1040.06 1631.24 1040.06 Q1633.69 1040.06 1635.98 1039.46 Q1638.3 1038.86 1640.57 1037.65 L1640.57 1041.68 Q1638.27 1042.65 1635.87 1043.16 Q1633.46 1043.67 1630.98 1043.67 Q1624.78 1043.67 1621.14 1040.06 Q1617.53 1036.45 1617.53 1030.29 Q1617.53 1023.93 1620.96 1020.2 Q1624.41 1016.45 1630.24 1016.45 Q1635.47 1016.45 1638.51 1019.83 Q1641.56 1023.19 1641.56 1028.97 M1637.3 1027.72 Q1637.26 1024.23 1635.33 1022.14 Q1633.44 1020.06 1630.29 1020.06 Q1626.72 1020.06 1624.57 1022.07 Q1622.44 1024.09 1622.12 1027.75 L1637.3 1027.72 Z" fill="#000000" fill-rule="nonzero" fill-opacity="1" /><path clip-path="url(#clip690)" d="M1664.18 1021.47 L1693.85 1021.47 L1693.85 1025.36 L1664.18 1025.36 L1664.18 1021.47 M1664.18 1030.92 L1693.85 1030.92 L1693.85 1034.85 L1664.18 1034.85 L1664.18 1030.92 Z" fill="#000000" fill-rule="nonzero" fill-opacity="1" /><path clip-path="url(#clip690)" d="M1729.01 1011.52 Q1725.4 1011.52 1723.57 1015.08 Q1721.77 1018.62 1721.77 1025.75 Q1721.77 1032.86 1723.57 1036.43 Q1725.4 1039.97 1729.01 1039.97 Q1732.65 1039.97 1734.45 1036.43 Q1736.28 1032.86 1736.28 1025.75 Q1736.28 1018.62 1734.45 1015.08 Q1732.65 1011.52 1729.01 1011.52 M1729.01 1007.81 Q1734.82 1007.81 1737.88 1012.42 Q1740.96 1017 1740.96 1025.75 Q1740.96 1034.48 1737.88 1039.09 Q1734.82 1043.67 1729.01 1043.67 Q1723.2 1043.67 1720.13 1039.09 Q1717.07 1034.48 1717.07 1025.75 Q1717.07 1017 1720.13 1012.42 Q1723.2 1007.81 1729.01 1007.81 Z" fill="#000000" fill-rule="nonzero" fill-opacity="1" /><path clip-path="url(#clip690)" d="M1749.18 1037.12 L1754.06 1037.12 L1754.06 1043 L1749.18 1043 L1749.18 1037.12 Z" fill="#000000" fill-rule="nonzero" fill-opacity="1" /><path clip-path="url(#clip690)" d="M1765.06 1039.06 L1772.69 1039.06 L1772.69 1012.7 L1764.38 1014.37 L1764.38 1010.11 L1772.65 1008.44 L1777.32 1008.44 L1777.32 1039.06 L1784.96 1039.06 L1784.96 1043 L1765.06 1043 L1765.06 1039.06 Z" fill="#000000" fill-rule="nonzero" fill-opacity="1" /><path clip-path="url(#clip690)" d="M1804.41 1011.52 Q1800.8 1011.52 1798.97 1015.08 Q1797.16 1018.62 1797.16 1025.75 Q1797.16 1032.86 1798.97 1036.43 Q1800.8 1039.97 1804.41 1039.97 Q1808.04 1039.97 1809.85 1036.43 Q1811.68 1032.86 1811.68 1025.75 Q1811.68 1018.62 1809.85 1015.08 Q1808.04 1011.52 1804.41 1011.52 M1804.41 1007.81 Q1810.22 1007.81 1813.27 1012.42 Q1816.35 1017 1816.35 1025.75 Q1816.35 1034.48 1813.27 1039.09 Q1810.22 1043.67 1804.41 1043.67 Q1798.6 1043.67 1795.52 1039.09 Q1792.46 1034.48 1792.46 1025.75 Q1792.46 1017 1795.52 1012.42 Q1798.6 1007.81 1804.41 1007.81 Z" fill="#000000" fill-rule="nonzero" fill-opacity="1" /><path clip-path="url(#clip690)" d="M1834.57 1026.59 Q1831.24 1026.59 1829.31 1028.37 Q1827.42 1030.15 1827.42 1033.28 Q1827.42 1036.4 1829.31 1038.18 Q1831.24 1039.97 1834.57 1039.97 Q1837.9 1039.97 1839.82 1038.18 Q1841.74 1036.38 1841.74 1033.28 Q1841.74 1030.15 1839.82 1028.37 Q1837.93 1026.59 1834.57 1026.59 M1829.89 1024.6 Q1826.88 1023.86 1825.19 1021.8 Q1823.53 1019.74 1823.53 1016.77 Q1823.53 1012.63 1826.47 1010.22 Q1829.43 1007.81 1834.57 1007.81 Q1839.73 1007.81 1842.67 1010.22 Q1845.61 1012.63 1845.61 1016.77 Q1845.61 1019.74 1843.92 1021.8 Q1842.25 1023.86 1839.27 1024.6 Q1842.65 1025.38 1844.52 1027.68 Q1846.42 1029.97 1846.42 1033.28 Q1846.42 1038.3 1843.34 1040.99 Q1840.29 1043.67 1834.57 1043.67 Q1828.85 1043.67 1825.77 1040.99 Q1822.72 1038.3 1822.72 1033.28 Q1822.72 1029.97 1824.62 1027.68 Q1826.51 1025.38 1829.89 1024.6 M1828.18 1017.21 Q1828.18 1019.9 1829.85 1021.4 Q1831.54 1022.91 1834.57 1022.91 Q1837.58 1022.91 1839.27 1021.4 Q1840.98 1019.9 1840.98 1017.21 Q1840.98 1014.53 1839.27 1013.02 Q1837.58 1011.52 1834.57 1011.52 Q1831.54 1011.52 1829.85 1013.02 Q1828.18 1014.53 1828.18 1017.21 Z" fill="#000000" fill-rule="nonzero" fill-opacity="1" /></svg>
