<?xml version="1.0" encoding="utf-8"?>
<svg xmlns="http://www.w3.org/2000/svg" xmlns:xlink="http://www.w3.org/1999/xlink" width="500" height="320" viewBox="0 0 2000 1280">
<defs>
  <clipPath id="clip700">
    <rect x="0" y="0" width="2000" height="1280"/>
  </clipPath>
</defs>
<path clip-path="url(#clip700)" d="M0 1280 L2000 1280 L2000 0 L0 0  Z" fill="#ffffff" fill-rule="evenodd" fill-opacity="1"/>
<defs>
  <clipPath id="clip701">
    <rect x="400" y="0" width="1401" height="1280"/>
  </clipPath>
</defs>
<path clip-path="url(#clip700)" d="M185.496 1171.03 L1952.76 1171.03 L1952.76 107.256 L185.496 107.256  Z" fill="#ffffff" fill-rule="evenodd" fill-opacity="1"/>
<defs>
  <clipPath id="clip702">
    <rect x="185" y="107" width="1768" height="1065"/>
  </clipPath>
</defs>
<polyline clip-path="url(#clip702)" style="stroke:#000000; stroke-linecap:round; stroke-linejoin:round; stroke-width:2; stroke-opacity:0.1; fill:none" points="235.513,1171.03 235.513,107.256 "/>
<polyline clip-path="url(#clip702)" style="stroke:#000000; stroke-linecap:round; stroke-linejoin:round; stroke-width:2; stroke-opacity:0.1; fill:none" points="783.942,1171.03 783.942,107.256 "/>
<polyline clip-path="url(#clip702)" style="stroke:#000000; stroke-linecap:round; stroke-linejoin:round; stroke-width:2; stroke-opacity:0.1; fill:none" points="1332.37,1171.03 1332.37,107.256 "/>
<polyline clip-path="url(#clip702)" style="stroke:#000000; stroke-linecap:round; stroke-linejoin:round; stroke-width:2; stroke-opacity:0.1; fill:none" points="1880.8,1171.03 1880.8,107.256 "/>
<polyline clip-path="url(#clip702)" style="stroke:#000000; stroke-linecap:round; stroke-linejoin:round; stroke-width:2; stroke-opacity:0.1; fill:none" points="185.496,1091.04 1952.76,1091.04 "/>
<polyline clip-path="url(#clip702)" style="stroke:#000000; stroke-linecap:round; stroke-linejoin:round; stroke-width:2; stroke-opacity:0.1; fill:none" points="185.496,852.621 1952.76,852.621 "/>
<polyline clip-path="url(#clip702)" style="stroke:#000000; stroke-linecap:round; stroke-linejoin:round; stroke-width:2; stroke-opacity:0.1; fill:none" points="185.496,614.202 1952.76,614.202 "/>
<polyline clip-path="url(#clip702)" style="stroke:#000000; stroke-linecap:round; stroke-linejoin:round; stroke-width:2; stroke-opacity:0.1; fill:none" points="185.496,375.782 1952.76,375.782 "/>
<polyline clip-path="url(#clip702)" style="stroke:#000000; stroke-linecap:round; stroke-linejoin:round; stroke-width:2; stroke-opacity:0.1; fill:none" points="185.496,137.363 1952.76,137.363 "/>
<polyline clip-path="url(#clip700)" style="stroke:#000000; stroke-linecap:round; stroke-linejoin:round; stroke-width:4; stroke-opacity:1; fill:none" points="185.496,1171.03 1952.76,1171.03 "/>
<polyline clip-path="url(#clip700)" style="stroke:#000000; stroke-linecap:round; stroke-linejoin:round; stroke-width:4; stroke-opacity:1; fill:none" points="235.513,1171.03 235.513,1152.13 "/>
<polyline clip-path="url(#clip700)" style="stroke:#000000; stroke-linecap:round; stroke-linejoin:round; stroke-width:4; stroke-opacity:1; fill:none" points="783.942,1171.03 783.942,1152.13 "/>
<polyline clip-path="url(#clip700)" style="stroke:#000000; stroke-linecap:round; stroke-linejoin:round; stroke-width:4; stroke-opacity:1; fill:none" points="1332.37,1171.03 1332.37,1152.13 "/>
<polyline clip-path="url(#clip700)" style="stroke:#000000; stroke-linecap:round; stroke-linejoin:round; stroke-width:4; stroke-opacity:1; fill:none" points="1880.8,1171.03 1880.8,1152.13 "/>
<path clip-path="url(#clip700)" d="M235.513 1198.75 Q231.902 1198.75 230.073 1202.31 Q228.267 1205.86 228.267 1212.98 Q228.267 1220.09 230.073 1223.66 Q231.902 1227.2 235.513 1227.2 Q239.147 1227.2 240.952 1223.66 Q242.781 1220.09 242.781 1212.98 Q242.781 1205.86 240.952 1202.31 Q239.147 1198.75 235.513 1198.75 M235.513 1195.05 Q241.323 1195.05 244.378 1199.65 Q247.457 1204.24 247.457 1212.98 Q247.457 1221.71 244.378 1226.32 Q241.323 1230.9 235.513 1230.9 Q229.703 1230.9 226.624 1226.32 Q223.568 1221.71 223.568 1212.98 Q223.568 1204.24 226.624 1199.65 Q229.703 1195.05 235.513 1195.05 Z" fill="#000000" fill-rule="nonzero" fill-opacity="1" /><path clip-path="url(#clip700)" d="M758.642 1195.67 L776.998 1195.67 L776.998 1199.61 L762.924 1199.61 L762.924 1208.08 Q763.943 1207.73 764.961 1207.57 Q765.98 1207.38 766.998 1207.38 Q772.785 1207.38 776.165 1210.55 Q779.544 1213.73 779.544 1219.14 Q779.544 1224.72 776.072 1227.82 Q772.6 1230.9 766.281 1230.9 Q764.105 1230.9 761.836 1230.53 Q759.591 1230.16 757.183 1229.42 L757.183 1224.72 Q759.267 1225.86 761.489 1226.41 Q763.711 1226.97 766.188 1226.97 Q770.193 1226.97 772.53 1224.86 Q774.868 1222.75 774.868 1219.14 Q774.868 1215.53 772.53 1213.42 Q770.193 1211.32 766.188 1211.32 Q764.313 1211.32 762.438 1211.74 Q760.586 1212.15 758.642 1213.03 L758.642 1195.67 Z" fill="#000000" fill-rule="nonzero" fill-opacity="1" /><path clip-path="url(#clip700)" d="M798.757 1198.75 Q795.146 1198.75 793.317 1202.31 Q791.512 1205.86 791.512 1212.98 Q791.512 1220.09 793.317 1223.66 Q795.146 1227.2 798.757 1227.2 Q802.391 1227.2 804.197 1223.66 Q806.026 1220.09 806.026 1212.98 Q806.026 1205.86 804.197 1202.31 Q802.391 1198.75 798.757 1198.75 M798.757 1195.05 Q804.567 1195.05 807.623 1199.65 Q810.702 1204.24 810.702 1212.98 Q810.702 1221.71 807.623 1226.32 Q804.567 1230.9 798.757 1230.9 Q792.947 1230.9 789.868 1226.32 Q786.813 1221.71 786.813 1212.98 Q786.813 1204.24 789.868 1199.65 Q792.947 1195.05 798.757 1195.05 Z" fill="#000000" fill-rule="nonzero" fill-opacity="1" /><path clip-path="url(#clip700)" d="M1291.98 1226.3 L1299.62 1226.3 L1299.62 1199.93 L1291.31 1201.6 L1291.31 1197.34 L1299.57 1195.67 L1304.25 1195.67 L1304.25 1226.3 L1311.89 1226.3 L1311.89 1230.23 L1291.98 1230.23 L1291.98 1226.3 Z" fill="#000000" fill-rule="nonzero" fill-opacity="1" /><path clip-path="url(#clip700)" d="M1331.33 1198.75 Q1327.72 1198.75 1325.89 1202.31 Q1324.09 1205.86 1324.09 1212.98 Q1324.09 1220.09 1325.89 1223.66 Q1327.72 1227.2 1331.33 1227.2 Q1334.96 1227.2 1336.77 1223.66 Q1338.6 1220.09 1338.6 1212.98 Q1338.6 1205.86 1336.77 1202.31 Q1334.96 1198.75 1331.33 1198.75 M1331.33 1195.05 Q1337.14 1195.05 1340.2 1199.65 Q1343.27 1204.24 1343.27 1212.98 Q1343.27 1221.71 1340.2 1226.32 Q1337.14 1230.9 1331.33 1230.9 Q1325.52 1230.9 1322.44 1226.32 Q1319.39 1221.71 1319.39 1212.98 Q1319.39 1204.24 1322.44 1199.65 Q1325.52 1195.05 1331.33 1195.05 Z" fill="#000000" fill-rule="nonzero" fill-opacity="1" /><path clip-path="url(#clip700)" d="M1361.49 1198.75 Q1357.88 1198.75 1356.05 1202.31 Q1354.25 1205.86 1354.25 1212.98 Q1354.25 1220.09 1356.05 1223.66 Q1357.88 1227.2 1361.49 1227.2 Q1365.13 1227.2 1366.93 1223.66 Q1368.76 1220.09 1368.76 1212.98 Q1368.76 1205.86 1366.93 1202.31 Q1365.13 1198.75 1361.49 1198.75 M1361.49 1195.05 Q1367.3 1195.05 1370.36 1199.65 Q1373.44 1204.24 1373.44 1212.98 Q1373.44 1221.71 1370.36 1226.32 Q1367.3 1230.9 1361.49 1230.9 Q1355.68 1230.9 1352.6 1226.32 Q1349.55 1221.71 1349.55 1212.98 Q1349.55 1204.24 1352.6 1199.65 Q1355.68 1195.05 1361.49 1195.05 Z" fill="#000000" fill-rule="nonzero" fill-opacity="1" /><path clip-path="url(#clip700)" d="M1840.41 1226.3 L1848.05 1226.3 L1848.05 1199.93 L1839.74 1201.6 L1839.74 1197.34 L1848 1195.67 L1852.68 1195.67 L1852.68 1226.3 L1860.32 1226.3 L1860.32 1230.23 L1840.41 1230.23 L1840.41 1226.3 Z" fill="#000000" fill-rule="nonzero" fill-opacity="1" /><path clip-path="url(#clip700)" d="M1869.81 1195.67 L1888.16 1195.67 L1888.16 1199.61 L1874.09 1199.61 L1874.09 1208.08 Q1875.11 1207.73 1876.13 1207.57 Q1877.14 1207.38 1878.16 1207.38 Q1883.95 1207.38 1887.33 1210.55 Q1890.71 1213.73 1890.71 1219.14 Q1890.71 1224.72 1887.24 1227.82 Q1883.76 1230.9 1877.45 1230.9 Q1875.27 1230.9 1873 1230.53 Q1870.76 1230.16 1868.35 1229.42 L1868.35 1224.72 Q1870.43 1225.86 1872.65 1226.41 Q1874.88 1226.97 1877.35 1226.97 Q1881.36 1226.97 1883.7 1224.86 Q1886.03 1222.75 1886.03 1219.14 Q1886.03 1215.53 1883.7 1213.42 Q1881.36 1211.32 1877.35 1211.32 Q1875.48 1211.32 1873.6 1211.74 Q1871.75 1212.15 1869.81 1213.03 L1869.81 1195.67 Z" fill="#000000" fill-rule="nonzero" fill-opacity="1" /><path clip-path="url(#clip700)" d="M1909.92 1198.75 Q1906.31 1198.75 1904.48 1202.31 Q1902.68 1205.86 1902.68 1212.98 Q1902.68 1220.09 1904.48 1223.66 Q1906.31 1227.2 1909.92 1227.2 Q1913.56 1227.2 1915.36 1223.66 Q1917.19 1220.09 1917.19 1212.98 Q1917.19 1205.86 1915.36 1202.31 Q1913.56 1198.75 1909.92 1198.75 M1909.92 1195.05 Q1915.73 1195.05 1918.79 1199.65 Q1921.87 1204.24 1921.87 1212.98 Q1921.87 1221.71 1918.79 1226.32 Q1915.73 1230.9 1909.92 1230.9 Q1904.11 1230.9 1901.03 1226.32 Q1897.98 1221.71 1897.98 1212.98 Q1897.98 1204.24 1901.03 1199.65 Q1904.11 1195.05 1909.92 1195.05 Z" fill="#000000" fill-rule="nonzero" fill-opacity="1" /><polyline clip-path="url(#clip700)" style="stroke:#000000; stroke-linecap:round; stroke-linejoin:round; stroke-width:4; stroke-opacity:1; fill:none" points="185.496,1171.03 185.496,107.256 "/>
<polyline clip-path="url(#clip700)" style="stroke:#000000; stroke-linecap:round; stroke-linejoin:round; stroke-width:4; stroke-opacity:1; fill:none" points="185.496,1091.04 204.394,1091.04 "/>
<polyline clip-path="url(#clip700)" style="stroke:#000000; stroke-linecap:round; stroke-linejoin:round; stroke-width:4; stroke-opacity:1; fill:none" points="185.496,852.621 204.394,852.621 "/>
<polyline clip-path="url(#clip700)" style="stroke:#000000; stroke-linecap:round; stroke-linejoin:round; stroke-width:4; stroke-opacity:1; fill:none" points="185.496,614.202 204.394,614.202 "/>
<polyline clip-path="url(#clip700)" style="stroke:#000000; stroke-linecap:round; stroke-linejoin:round; stroke-width:4; stroke-opacity:1; fill:none" points="185.496,375.782 204.394,375.782 "/>
<polyline clip-path="url(#clip700)" style="stroke:#000000; stroke-linecap:round; stroke-linejoin:round; stroke-width:4; stroke-opacity:1; fill:none" points="185.496,137.363 204.394,137.363 "/>
<path clip-path="url(#clip700)" d="M53.6634 1110.83 L61.3023 1110.83 L61.3023 1084.47 L52.9921 1086.13 L52.9921 1081.88 L61.256 1080.21 L65.9319 1080.21 L65.9319 1110.83 L73.5707 1110.83 L73.5707 1114.77 L53.6634 1114.77 L53.6634 1110.83 Z" fill="#000000" fill-rule="nonzero" fill-opacity="1" /><path clip-path="url(#clip700)" d="M93.0151 1083.29 Q89.404 1083.29 87.5753 1086.85 Q85.7697 1090.39 85.7697 1097.52 Q85.7697 1104.63 87.5753 1108.19 Q89.404 1111.74 93.0151 1111.74 Q96.6493 1111.74 98.4548 1108.19 Q100.284 1104.63 100.284 1097.52 Q100.284 1090.39 98.4548 1086.85 Q96.6493 1083.29 93.0151 1083.29 M93.0151 1079.58 Q98.8252 1079.58 101.881 1084.19 Q104.959 1088.77 104.959 1097.52 Q104.959 1106.25 101.881 1110.86 Q98.8252 1115.44 93.0151 1115.44 Q87.2049 1115.44 84.1262 1110.86 Q81.0707 1106.25 81.0707 1097.52 Q81.0707 1088.77 84.1262 1084.19 Q87.2049 1079.58 93.0151 1079.58 Z" fill="#000000" fill-rule="nonzero" fill-opacity="1" /><path clip-path="url(#clip700)" d="M104.959 1073.68 L129.071 1073.68 L129.071 1076.88 L104.959 1076.88 L104.959 1073.68 Z" fill="#000000" fill-rule="nonzero" fill-opacity="1" /><path clip-path="url(#clip700)" d="M147.71 1062.59 L138.118 1077.58 L147.71 1077.58 L147.71 1062.59 M146.713 1059.28 L151.49 1059.28 L151.49 1077.58 L155.496 1077.58 L155.496 1080.74 L151.49 1080.74 L151.49 1087.36 L147.71 1087.36 L147.71 1080.74 L135.033 1080.74 L135.033 1077.07 L146.713 1059.28 Z" fill="#000000" fill-rule="nonzero" fill-opacity="1" /><path clip-path="url(#clip700)" d="M54.585 872.414 L62.2238 872.414 L62.2238 846.048 L53.9137 847.715 L53.9137 843.456 L62.1776 841.789 L66.8535 841.789 L66.8535 872.414 L74.4923 872.414 L74.4923 876.349 L54.585 876.349 L54.585 872.414 Z" fill="#000000" fill-rule="nonzero" fill-opacity="1" /><path clip-path="url(#clip700)" d="M93.9366 844.868 Q90.3255 844.868 88.4969 848.432 Q86.6913 851.974 86.6913 859.104 Q86.6913 866.21 88.4969 869.775 Q90.3255 873.317 93.9366 873.317 Q97.5709 873.317 99.3764 869.775 Q101.205 866.21 101.205 859.104 Q101.205 851.974 99.3764 848.432 Q97.5709 844.868 93.9366 844.868 M93.9366 841.164 Q99.7468 841.164 102.802 845.77 Q105.881 850.354 105.881 859.104 Q105.881 867.83 102.802 872.437 Q99.7468 877.02 93.9366 877.02 Q88.1265 877.02 85.0478 872.437 Q81.9923 867.83 81.9923 859.104 Q81.9923 850.354 85.0478 845.77 Q88.1265 841.164 93.9366 841.164 Z" fill="#000000" fill-rule="nonzero" fill-opacity="1" /><path clip-path="url(#clip700)" d="M105.881 835.265 L129.993 835.265 L129.993 838.463 L105.881 838.463 L105.881 835.265 Z" fill="#000000" fill-rule="nonzero" fill-opacity="1" /><path clip-path="url(#clip700)" d="M149.703 833.798 Q152.43 834.381 153.954 836.224 Q155.496 838.068 155.496 840.776 Q155.496 844.932 152.637 847.208 Q149.778 849.484 144.512 849.484 Q142.744 849.484 140.863 849.127 Q139.002 848.788 137.008 848.092 L137.008 844.425 Q138.588 845.346 140.469 845.816 Q142.349 846.287 144.399 846.287 Q147.973 846.287 149.835 844.876 Q151.716 843.465 151.716 840.776 Q151.716 838.293 149.966 836.902 Q148.236 835.491 145.133 835.491 L141.86 835.491 L141.86 832.369 L145.283 832.369 Q148.086 832.369 149.571 831.259 Q151.057 830.131 151.057 828.024 Q151.057 825.861 149.515 824.714 Q147.992 823.548 145.133 823.548 Q143.572 823.548 141.785 823.887 Q139.998 824.225 137.854 824.94 L137.854 821.554 Q140.017 820.953 141.898 820.652 Q143.797 820.351 145.471 820.351 Q149.797 820.351 152.317 822.326 Q154.838 824.282 154.838 827.629 Q154.838 829.961 153.502 831.579 Q152.167 833.178 149.703 833.798 Z" fill="#000000" fill-rule="nonzero" fill-opacity="1" /><path clip-path="url(#clip700)" d="M55.3561 633.994 L62.995 633.994 L62.995 607.629 L54.6848 609.295 L54.6848 605.036 L62.9487 603.369 L67.6246 603.369 L67.6246 633.994 L75.2634 633.994 L75.2634 637.929 L55.3561 637.929 L55.3561 633.994 Z" fill="#000000" fill-rule="nonzero" fill-opacity="1" /><path clip-path="url(#clip700)" d="M94.7078 606.448 Q91.0967 606.448 89.268 610.013 Q87.4624 613.554 87.4624 620.684 Q87.4624 627.791 89.268 631.355 Q91.0967 634.897 94.7078 634.897 Q98.342 634.897 100.148 631.355 Q101.976 627.791 101.976 620.684 Q101.976 613.554 100.148 610.013 Q98.342 606.448 94.7078 606.448 M94.7078 602.744 Q100.518 602.744 103.573 607.351 Q106.652 611.934 106.652 620.684 Q106.652 629.411 103.573 634.017 Q100.518 638.601 94.7078 638.601 Q88.8976 638.601 85.8189 634.017 Q82.7634 629.411 82.7634 620.684 Q82.7634 611.934 85.8189 607.351 Q88.8976 602.744 94.7078 602.744 Z" fill="#000000" fill-rule="nonzero" fill-opacity="1" /><path clip-path="url(#clip700)" d="M106.652 596.846 L130.764 596.846 L130.764 600.043 L106.652 600.043 L106.652 596.846 Z" fill="#000000" fill-rule="nonzero" fill-opacity="1" /><path clip-path="url(#clip700)" d="M142.236 607.322 L155.496 607.322 L155.496 610.519 L137.666 610.519 L137.666 607.322 Q139.829 605.084 143.553 601.322 Q147.296 597.542 148.255 596.451 Q150.079 594.401 150.794 592.99 Q151.527 591.561 151.527 590.188 Q151.527 587.95 149.948 586.539 Q148.387 585.128 145.866 585.128 Q144.08 585.128 142.086 585.749 Q140.111 586.37 137.854 587.63 L137.854 583.793 Q140.149 582.872 142.142 582.401 Q144.136 581.931 145.791 581.931 Q150.155 581.931 152.75 584.113 Q155.345 586.295 155.345 589.943 Q155.345 591.674 154.687 593.235 Q154.048 594.777 152.336 596.883 Q151.866 597.429 149.346 600.043 Q146.826 602.639 142.236 607.322 Z" fill="#000000" fill-rule="nonzero" fill-opacity="1" /><path clip-path="url(#clip700)" d="M55.0552 395.575 L62.694 395.575 L62.694 369.209 L54.3839 370.876 L54.3839 366.616 L62.6477 364.95 L67.3236 364.95 L67.3236 395.575 L74.9625 395.575 L74.9625 399.51 L55.0552 399.51 L55.0552 395.575 Z" fill="#000000" fill-rule="nonzero" fill-opacity="1" /><path clip-path="url(#clip700)" d="M94.4068 368.029 Q90.7957 368.029 88.967 371.593 Q87.1615 375.135 87.1615 382.265 Q87.1615 389.371 88.967 392.936 Q90.7957 396.477 94.4068 396.477 Q98.0411 396.477 99.8466 392.936 Q101.675 389.371 101.675 382.265 Q101.675 375.135 99.8466 371.593 Q98.0411 368.029 94.4068 368.029 M94.4068 364.325 Q100.217 364.325 103.273 368.931 Q106.351 373.515 106.351 382.265 Q106.351 390.991 103.273 395.598 Q100.217 400.181 94.4068 400.181 Q88.5967 400.181 85.518 395.598 Q82.4625 390.991 82.4625 382.265 Q82.4625 373.515 85.518 368.931 Q88.5967 364.325 94.4068 364.325 Z" fill="#000000" fill-rule="nonzero" fill-opacity="1" /><path clip-path="url(#clip700)" d="M106.351 358.426 L130.463 358.426 L130.463 361.624 L106.351 361.624 L106.351 358.426 Z" fill="#000000" fill-rule="nonzero" fill-opacity="1" /><path clip-path="url(#clip700)" d="M139.321 368.902 L145.528 368.902 L145.528 347.48 L138.776 348.834 L138.776 345.374 L145.49 344.019 L149.289 344.019 L149.289 368.902 L155.496 368.902 L155.496 372.099 L139.321 372.099 L139.321 368.902 Z" fill="#000000" fill-rule="nonzero" fill-opacity="1" /><path clip-path="url(#clip700)" d="M84.7903 157.155 L92.4291 157.155 L92.4291 130.79 L84.119 132.456 L84.119 128.197 L92.3828 126.53 L97.0587 126.53 L97.0587 157.155 L104.698 157.155 L104.698 161.09 L84.7903 161.09 L84.7903 157.155 Z" fill="#000000" fill-rule="nonzero" fill-opacity="1" /><path clip-path="url(#clip700)" d="M124.142 129.609 Q120.531 129.609 118.702 133.174 Q116.897 136.715 116.897 143.845 Q116.897 150.951 118.702 154.516 Q120.531 158.058 124.142 158.058 Q127.776 158.058 129.582 154.516 Q131.41 150.951 131.41 143.845 Q131.41 136.715 129.582 133.174 Q127.776 129.609 124.142 129.609 M124.142 125.905 Q129.952 125.905 133.008 130.512 Q136.086 135.095 136.086 143.845 Q136.086 152.572 133.008 157.178 Q129.952 161.762 124.142 161.762 Q118.332 161.762 115.253 157.178 Q112.198 152.572 112.198 143.845 Q112.198 135.095 115.253 130.512 Q118.332 125.905 124.142 125.905 Z" fill="#000000" fill-rule="nonzero" fill-opacity="1" /><path clip-path="url(#clip700)" d="M145.791 108.101 Q142.857 108.101 141.371 110.998 Q139.904 113.875 139.904 119.668 Q139.904 125.442 141.371 128.338 Q142.857 131.216 145.791 131.216 Q148.744 131.216 150.211 128.338 Q151.697 125.442 151.697 119.668 Q151.697 113.875 150.211 110.998 Q148.744 108.101 145.791 108.101 M145.791 105.092 Q150.512 105.092 152.994 108.835 Q155.496 112.559 155.496 119.668 Q155.496 126.759 152.994 130.501 Q150.512 134.225 145.791 134.225 Q141.07 134.225 138.569 130.501 Q136.086 126.759 136.086 119.668 Q136.086 112.559 138.569 108.835 Q141.07 105.092 145.791 105.092 Z" fill="#000000" fill-rule="nonzero" fill-opacity="1" /><g clip-path="url(#clip700)">
<text style="fill:#000000; fill-opacity:1; font-family:Arial,Helvetica Neue,Helvetica,sans-serif; font-size:66px; text-anchor:middle;" transform="rotate(0, 1069.13, 57.6)" x="1069.13" y="57.6">Diagonal preconditioning in CG</text>
</g>
<polyline clip-path="url(#clip702)" style="stroke:#009af9; stroke-linecap:round; stroke-linejoin:round; stroke-width:8; stroke-opacity:1; fill:none" points="235.513,137.363 246.481,174.626 257.45,249.394 268.418,283.995 279.387,285.233 290.356,287.936 301.324,312.574 312.293,344.436 323.261,365.405 334.23,372.967 345.199,374.437 356.167,384.418 367.136,398.663 378.104,410.606 389.073,417.106 400.042,417.985 411.01,422.388 421.979,429.661 432.947,435.651 443.916,439.794 454.885,442.81 465.853,445.147 476.822,450.884 487.79,454.639 498.759,457.064 509.728,464.247 520.696,467.076 531.665,471.896 542.633,474.171 553.602,479.949 564.571,483.837 575.539,487.975 586.508,491.852 597.476,495.938 608.445,498.902 619.414,500.736 630.382,501.68 641.351,504.328 652.319,505.76 663.288,504.931 674.256,505.962 685.225,506.805 696.194,508.69 707.162,510.587 718.131,511.713 729.099,513.48 740.068,516.447 751.037,518.298 762.005,523.191 772.974,524.905 783.942,529.81 794.911,532.187 805.88,537.627 816.848,541.515 827.817,545.944 838.785,550.882 849.754,555.109 860.723,560.046 871.691,563.258 882.66,567.388 893.628,572.92 904.597,579.472 915.566,585.867 926.534,590.885 937.503,599.364 948.471,605.152 959.44,613.082 970.409,619.091 981.377,627.318 992.346,633.872 1003.31,642.742 1014.28,651.657 1025.25,659.561 1036.22,666.116 1047.19,675.925 1058.16,684.836 1069.13,693.09 1080.09,702.078 1091.06,711.997 1102.03,720.471 1113,731.578 1123.97,740.37 1134.94,748.169 1145.91,758.141 1156.87,766.544 1167.84,773.843 1178.81,780.514 1189.78,789.307 1200.75,798.327 1211.72,804.67 1222.69,814.723 1233.65,823.188 1244.62,831.115 1255.59,838.635 1266.56,846.215 1277.53,853.13 1288.5,862.833 1299.47,866.426 1310.43,874.011 1321.4,881.719 1332.37,888.699 1343.34,896.668 1354.31,901.001 1365.28,907.808 1376.25,908.556 1387.22,912.776 1398.18,913.722 1409.15,914.95 1420.12,915.309 1431.09,917.257 1442.06,919.96 1453.03,925.902 1464,927.766 1474.96,929.773 1485.93,934.953 1496.9,939.308 1507.87,940.648 1518.84,947.623 1529.81,951.039 1540.78,955.524 1551.74,960.29 1562.71,965.77 1573.68,970.007 1584.65,974.302 1595.62,980.319 1606.59,983.954 1617.56,989.096 1628.52,994.456 1639.49,999.394 1650.46,1001.5 1661.43,1006.32 1672.4,1008.3 1683.37,1013.9 1694.34,1019.92 1705.3,1026.17 1716.27,1030.45 1727.24,1035.79 1738.21,1041.51 1749.18,1046.32 1760.15,1051.6 1771.12,1055.1 1782.08,1061.31 1793.05,1065.35 1804.02,1069.72 1814.99,1076.01 1825.96,1081.66 1836.93,1086.27 1847.9,1095.72 1858.86,1101.26 1869.83,1111.31 1880.8,1119.52 1891.77,1131.74 1902.74,1140.92 "/>
<polyline clip-path="url(#clip702)" style="stroke:#e26f46; stroke-linecap:round; stroke-linejoin:round; stroke-width:8; stroke-opacity:1; fill:none" points="235.513,137.363 246.481,197.773 257.45,274.83 268.418,337.311 279.387,391.803 290.356,445.269 301.324,497.938 312.293,543.974 323.261,580.34 334.23,612.79 345.199,679.093 356.167,744.692 367.136,801.498 378.104,845.401 389.073,897.025 400.042,944.772 411.01,980.85 421.979,1024.24 432.947,1077.57 "/>
<path clip-path="url(#clip700)" d="M1369.58 298.235 L1893.85 298.235 L1893.85 142.715 L1369.58 142.715  Z" fill="#ffffff" fill-rule="evenodd" fill-opacity="1"/>
<polyline clip-path="url(#clip700)" style="stroke:#000000; stroke-linecap:round; stroke-linejoin:round; stroke-width:4; stroke-opacity:1; fill:none" points="1369.58,298.235 1893.85,298.235 1893.85,142.715 1369.58,142.715 1369.58,298.235 "/>
<polyline clip-path="url(#clip700)" style="stroke:#009af9; stroke-linecap:round; stroke-linejoin:round; stroke-width:8; stroke-opacity:1; fill:none" points="1389.21,194.555 1507.03,194.555 "/>
<path clip-path="url(#clip700)" d="M1530.95 207.946 L1530.95 221.696 L1526.67 221.696 L1526.67 185.909 L1530.95 185.909 L1530.95 189.844 Q1532.29 187.53 1534.33 186.418 Q1536.39 185.284 1539.24 185.284 Q1543.96 185.284 1546.9 189.034 Q1549.86 192.784 1549.86 198.895 Q1549.86 205.006 1546.9 208.756 Q1543.96 212.506 1539.24 212.506 Q1536.39 212.506 1534.33 211.395 Q1532.29 210.261 1530.95 207.946 M1545.44 198.895 Q1545.44 194.196 1543.5 191.534 Q1541.57 188.849 1538.19 188.849 Q1534.81 188.849 1532.87 191.534 Q1530.95 194.196 1530.95 198.895 Q1530.95 203.594 1532.87 206.28 Q1534.81 208.942 1538.19 208.942 Q1541.57 208.942 1543.5 206.28 Q1545.44 203.594 1545.44 198.895 Z" fill="#000000" fill-rule="nonzero" fill-opacity="1" /><path clip-path="url(#clip700)" d="M1556.92 175.817 L1561.18 175.817 L1561.18 211.835 L1556.92 211.835 L1556.92 175.817 Z" fill="#000000" fill-rule="nonzero" fill-opacity="1" /><path clip-path="url(#clip700)" d="M1581.87 198.803 Q1576.71 198.803 1574.72 199.983 Q1572.73 201.164 1572.73 204.011 Q1572.73 206.28 1574.21 207.622 Q1575.72 208.942 1578.29 208.942 Q1581.83 208.942 1583.96 206.442 Q1586.11 203.918 1586.11 199.752 L1586.11 198.803 L1581.87 198.803 M1590.37 197.043 L1590.37 211.835 L1586.11 211.835 L1586.11 207.9 Q1584.65 210.261 1582.48 211.395 Q1580.3 212.506 1577.15 212.506 Q1573.17 212.506 1570.81 210.284 Q1568.47 208.039 1568.47 204.289 Q1568.47 199.914 1571.39 197.692 Q1574.33 195.469 1580.14 195.469 L1586.11 195.469 L1586.11 195.053 Q1586.11 192.113 1584.17 190.516 Q1582.24 188.895 1578.75 188.895 Q1576.53 188.895 1574.42 189.428 Q1572.31 189.96 1570.37 191.025 L1570.37 187.09 Q1572.71 186.187 1574.91 185.747 Q1577.11 185.284 1579.19 185.284 Q1584.81 185.284 1587.59 188.201 Q1590.37 191.118 1590.37 197.043 Z" fill="#000000" fill-rule="nonzero" fill-opacity="1" /><path clip-path="url(#clip700)" d="M1599.14 185.909 L1603.4 185.909 L1603.4 211.835 L1599.14 211.835 L1599.14 185.909 M1599.14 175.817 L1603.4 175.817 L1603.4 181.21 L1599.14 181.21 L1599.14 175.817 Z" fill="#000000" fill-rule="nonzero" fill-opacity="1" /><path clip-path="url(#clip700)" d="M1633.87 196.187 L1633.87 211.835 L1629.61 211.835 L1629.61 196.326 Q1629.61 192.645 1628.17 190.817 Q1626.74 188.988 1623.87 188.988 Q1620.42 188.988 1618.43 191.187 Q1616.43 193.386 1616.43 197.182 L1616.43 211.835 L1612.15 211.835 L1612.15 185.909 L1616.43 185.909 L1616.43 189.937 Q1617.96 187.599 1620.02 186.442 Q1622.11 185.284 1624.81 185.284 Q1629.28 185.284 1631.57 188.062 Q1633.87 190.817 1633.87 196.187 Z" fill="#000000" fill-rule="nonzero" fill-opacity="1" /><polyline clip-path="url(#clip700)" style="stroke:#e26f46; stroke-linecap:round; stroke-linejoin:round; stroke-width:8; stroke-opacity:1; fill:none" points="1389.21,246.395 1507.03,246.395 "/>
<path clip-path="url(#clip700)" d="M1530.95 259.786 L1530.95 273.536 L1526.67 273.536 L1526.67 237.749 L1530.95 237.749 L1530.95 241.684 Q1532.29 239.37 1534.33 238.258 Q1536.39 237.124 1539.24 237.124 Q1543.96 237.124 1546.9 240.874 Q1549.86 244.624 1549.86 250.735 Q1549.86 256.846 1546.9 260.596 Q1543.96 264.346 1539.24 264.346 Q1536.39 264.346 1534.33 263.235 Q1532.29 262.101 1530.95 259.786 M1545.44 250.735 Q1545.44 246.036 1543.5 243.374 Q1541.57 240.689 1538.19 240.689 Q1534.81 240.689 1532.87 243.374 Q1530.95 246.036 1530.95 250.735 Q1530.95 255.434 1532.87 258.12 Q1534.81 260.782 1538.19 260.782 Q1541.57 260.782 1543.5 258.12 Q1545.44 255.434 1545.44 250.735 Z" fill="#000000" fill-rule="nonzero" fill-opacity="1" /><path clip-path="url(#clip700)" d="M1571.94 241.731 Q1571.23 241.314 1570.37 241.129 Q1569.54 240.921 1568.52 240.921 Q1564.91 240.921 1562.96 243.282 Q1561.04 245.62 1561.04 250.018 L1561.04 263.675 L1556.76 263.675 L1556.76 237.749 L1561.04 237.749 L1561.04 241.777 Q1562.38 239.416 1564.54 238.282 Q1566.69 237.124 1569.77 237.124 Q1570.21 237.124 1570.74 237.194 Q1571.27 237.24 1571.92 237.356 L1571.94 241.731 Z" fill="#000000" fill-rule="nonzero" fill-opacity="1" /><path clip-path="url(#clip700)" d="M1597.55 249.647 L1597.55 251.731 L1577.96 251.731 Q1578.24 256.129 1580.6 258.444 Q1582.99 260.735 1587.22 260.735 Q1589.68 260.735 1591.97 260.133 Q1594.28 259.532 1596.55 258.328 L1596.55 262.356 Q1594.26 263.328 1591.85 263.837 Q1589.44 264.346 1586.97 264.346 Q1580.76 264.346 1577.13 260.735 Q1573.52 257.124 1573.52 250.967 Q1573.52 244.601 1576.94 240.874 Q1580.39 237.124 1586.23 237.124 Q1591.46 237.124 1594.49 240.504 Q1597.55 243.86 1597.55 249.647 M1593.29 248.397 Q1593.24 244.902 1591.32 242.819 Q1589.42 240.735 1586.27 240.735 Q1582.71 240.735 1580.56 242.749 Q1578.43 244.763 1578.1 248.42 L1593.29 248.397 Z" fill="#000000" fill-rule="nonzero" fill-opacity="1" /><path clip-path="url(#clip700)" d="M1623.19 238.745 L1623.19 242.726 Q1621.39 241.731 1619.56 241.245 Q1617.75 240.735 1615.9 240.735 Q1611.76 240.735 1609.47 243.374 Q1607.18 245.99 1607.18 250.735 Q1607.18 255.481 1609.47 258.12 Q1611.76 260.735 1615.9 260.735 Q1617.75 260.735 1619.56 260.249 Q1621.39 259.74 1623.19 258.744 L1623.19 262.68 Q1621.41 263.513 1619.49 263.93 Q1617.59 264.346 1615.44 264.346 Q1609.58 264.346 1606.13 260.666 Q1602.68 256.985 1602.68 250.735 Q1602.68 244.393 1606.16 240.758 Q1609.65 237.124 1615.72 237.124 Q1617.68 237.124 1619.56 237.541 Q1621.43 237.934 1623.19 238.745 Z" fill="#000000" fill-rule="nonzero" fill-opacity="1" /><path clip-path="url(#clip700)" d="M1640.65 240.735 Q1637.22 240.735 1635.23 243.421 Q1633.24 246.083 1633.24 250.735 Q1633.24 255.388 1635.21 258.073 Q1637.2 260.735 1640.65 260.735 Q1644.05 260.735 1646.04 258.05 Q1648.03 255.365 1648.03 250.735 Q1648.03 246.129 1646.04 243.444 Q1644.05 240.735 1640.65 240.735 M1640.65 237.124 Q1646.2 237.124 1649.37 240.735 Q1652.55 244.346 1652.55 250.735 Q1652.55 257.101 1649.37 260.735 Q1646.2 264.346 1640.65 264.346 Q1635.07 264.346 1631.9 260.735 Q1628.75 257.101 1628.75 250.735 Q1628.75 244.346 1631.9 240.735 Q1635.07 237.124 1640.65 237.124 Z" fill="#000000" fill-rule="nonzero" fill-opacity="1" /><path clip-path="url(#clip700)" d="M1681.16 248.027 L1681.16 263.675 L1676.9 263.675 L1676.9 248.166 Q1676.9 244.485 1675.46 242.657 Q1674.03 240.828 1671.16 240.828 Q1667.71 240.828 1665.72 243.027 Q1663.73 245.226 1663.73 249.022 L1663.73 263.675 L1659.44 263.675 L1659.44 237.749 L1663.73 237.749 L1663.73 241.777 Q1665.25 239.439 1667.31 238.282 Q1669.4 237.124 1672.11 237.124 Q1676.57 237.124 1678.86 239.902 Q1681.16 242.657 1681.16 248.027 Z" fill="#000000" fill-rule="nonzero" fill-opacity="1" /><path clip-path="url(#clip700)" d="M1706.71 241.684 L1706.71 227.657 L1710.97 227.657 L1710.97 263.675 L1706.71 263.675 L1706.71 259.786 Q1705.37 262.101 1703.31 263.235 Q1701.27 264.346 1698.4 264.346 Q1693.7 264.346 1690.74 260.596 Q1687.8 256.846 1687.8 250.735 Q1687.8 244.624 1690.74 240.874 Q1693.7 237.124 1698.4 237.124 Q1701.27 237.124 1703.31 238.258 Q1705.37 239.37 1706.71 241.684 M1692.2 250.735 Q1692.2 255.434 1694.12 258.12 Q1696.06 260.782 1699.44 260.782 Q1702.82 260.782 1704.77 258.12 Q1706.71 255.434 1706.71 250.735 Q1706.71 246.036 1704.77 243.374 Q1702.82 240.689 1699.44 240.689 Q1696.06 240.689 1694.12 243.374 Q1692.2 246.036 1692.2 250.735 Z" fill="#000000" fill-rule="nonzero" fill-opacity="1" /><path clip-path="url(#clip700)" d="M1719.74 237.749 L1724 237.749 L1724 263.675 L1719.74 263.675 L1719.74 237.749 M1719.74 227.657 L1724 227.657 L1724 233.05 L1719.74 233.05 L1719.74 227.657 Z" fill="#000000" fill-rule="nonzero" fill-opacity="1" /><path clip-path="url(#clip700)" d="M1737.13 230.388 L1737.13 237.749 L1745.9 237.749 L1745.9 241.059 L1737.13 241.059 L1737.13 255.133 Q1737.13 258.305 1737.98 259.207 Q1738.86 260.11 1741.53 260.11 L1745.9 260.11 L1745.9 263.675 L1741.53 263.675 Q1736.6 263.675 1734.72 261.846 Q1732.85 259.994 1732.85 255.133 L1732.85 241.059 L1729.72 241.059 L1729.72 237.749 L1732.85 237.749 L1732.85 230.388 L1737.13 230.388 Z" fill="#000000" fill-rule="nonzero" fill-opacity="1" /><path clip-path="url(#clip700)" d="M1751.5 237.749 L1755.76 237.749 L1755.76 263.675 L1751.5 263.675 L1751.5 237.749 M1751.5 227.657 L1755.76 227.657 L1755.76 233.05 L1751.5 233.05 L1751.5 227.657 Z" fill="#000000" fill-rule="nonzero" fill-opacity="1" /><path clip-path="url(#clip700)" d="M1774.72 240.735 Q1771.29 240.735 1769.3 243.421 Q1767.31 246.083 1767.31 250.735 Q1767.31 255.388 1769.28 258.073 Q1771.27 260.735 1774.72 260.735 Q1778.12 260.735 1780.11 258.05 Q1782.11 255.365 1782.11 250.735 Q1782.11 246.129 1780.11 243.444 Q1778.12 240.735 1774.72 240.735 M1774.72 237.124 Q1780.28 237.124 1783.45 240.735 Q1786.62 244.346 1786.62 250.735 Q1786.62 257.101 1783.45 260.735 Q1780.28 264.346 1774.72 264.346 Q1769.14 264.346 1765.97 260.735 Q1762.82 257.101 1762.82 250.735 Q1762.82 244.346 1765.97 240.735 Q1769.14 237.124 1774.72 237.124 Z" fill="#000000" fill-rule="nonzero" fill-opacity="1" /><path clip-path="url(#clip700)" d="M1815.23 248.027 L1815.23 263.675 L1810.97 263.675 L1810.97 248.166 Q1810.97 244.485 1809.54 242.657 Q1808.1 240.828 1805.23 240.828 Q1801.78 240.828 1799.79 243.027 Q1797.8 245.226 1797.8 249.022 L1797.8 263.675 L1793.52 263.675 L1793.52 237.749 L1797.8 237.749 L1797.8 241.777 Q1799.33 239.439 1801.39 238.282 Q1803.47 237.124 1806.18 237.124 Q1810.65 237.124 1812.94 239.902 Q1815.23 242.657 1815.23 248.027 Z" fill="#000000" fill-rule="nonzero" fill-opacity="1" /><path clip-path="url(#clip700)" d="M1845.9 249.647 L1845.9 251.731 L1826.32 251.731 Q1826.6 256.129 1828.96 258.444 Q1831.34 260.735 1835.58 260.735 Q1838.03 260.735 1840.32 260.133 Q1842.64 259.532 1844.91 258.328 L1844.91 262.356 Q1842.61 263.328 1840.21 263.837 Q1837.8 264.346 1835.32 264.346 Q1829.12 264.346 1825.48 260.735 Q1821.87 257.124 1821.87 250.967 Q1821.87 244.601 1825.3 240.874 Q1828.75 237.124 1834.58 237.124 Q1839.81 237.124 1842.85 240.504 Q1845.9 243.86 1845.9 249.647 M1841.64 248.397 Q1841.6 244.902 1839.67 242.819 Q1837.78 240.735 1834.63 240.735 Q1831.06 240.735 1828.91 242.749 Q1826.78 244.763 1826.46 248.42 L1841.64 248.397 Z" fill="#000000" fill-rule="nonzero" fill-opacity="1" /><path clip-path="url(#clip700)" d="M1869.95 241.684 L1869.95 227.657 L1874.21 227.657 L1874.21 263.675 L1869.95 263.675 L1869.95 259.786 Q1868.61 262.101 1866.55 263.235 Q1864.51 264.346 1861.64 264.346 Q1856.94 264.346 1853.98 260.596 Q1851.04 256.846 1851.04 250.735 Q1851.04 244.624 1853.98 240.874 Q1856.94 237.124 1861.64 237.124 Q1864.51 237.124 1866.55 238.258 Q1868.61 239.37 1869.95 241.684 M1855.44 250.735 Q1855.44 255.434 1857.36 258.12 Q1859.3 260.782 1862.68 260.782 Q1866.06 260.782 1868.01 258.12 Q1869.95 255.434 1869.95 250.735 Q1869.95 246.036 1868.01 243.374 Q1866.06 240.689 1862.68 240.689 Q1859.3 240.689 1857.36 243.374 Q1855.44 246.036 1855.44 250.735 Z" fill="#000000" fill-rule="nonzero" fill-opacity="1" /></svg>
