<?xml version="1.0" encoding="utf-8"?>
<svg xmlns="http://www.w3.org/2000/svg" xmlns:xlink="http://www.w3.org/1999/xlink" width="500" height="320" viewBox="0 0 2000 1280">
<defs>
  <clipPath id="clip470">
    <rect x="0" y="0" width="2000" height="1280"/>
  </clipPath>
</defs>
<path clip-path="url(#clip470)" d="M0 1280 L2000 1280 L2000 -2.66454e-14 L0 -2.66454e-14  Z" fill="#ffffff" fill-rule="evenodd" fill-opacity="1"/>
<defs>
  <clipPath id="clip471">
    <rect x="400" y="0" width="1401" height="1280"/>
  </clipPath>
</defs>
<path clip-path="url(#clip470)" d="M244.586 1111.02 L1952.76 1111.02 L1952.76 107.256 L244.586 107.256  Z" fill="#ffffff" fill-rule="evenodd" fill-opacity="1"/>
<defs>
  <clipPath id="clip472">
    <rect x="244" y="107" width="1709" height="1005"/>
  </clipPath>
</defs>
<polyline clip-path="url(#clip472)" style="stroke:#000000; stroke-linecap:round; stroke-linejoin:round; stroke-width:2; stroke-opacity:0.1; fill:none" points="292.931,1111.02 292.931,107.256 "/>
<polyline clip-path="url(#clip472)" style="stroke:#000000; stroke-linecap:round; stroke-linejoin:round; stroke-width:2; stroke-opacity:0.1; fill:none" points="695.801,1111.02 695.801,107.256 "/>
<polyline clip-path="url(#clip472)" style="stroke:#000000; stroke-linecap:round; stroke-linejoin:round; stroke-width:2; stroke-opacity:0.1; fill:none" points="1098.67,1111.02 1098.67,107.256 "/>
<polyline clip-path="url(#clip472)" style="stroke:#000000; stroke-linecap:round; stroke-linejoin:round; stroke-width:2; stroke-opacity:0.1; fill:none" points="1501.54,1111.02 1501.54,107.256 "/>
<polyline clip-path="url(#clip472)" style="stroke:#000000; stroke-linecap:round; stroke-linejoin:round; stroke-width:2; stroke-opacity:0.1; fill:none" points="1904.41,1111.02 1904.41,107.256 "/>
<polyline clip-path="url(#clip472)" style="stroke:#000000; stroke-linecap:round; stroke-linejoin:round; stroke-width:2; stroke-opacity:0.1; fill:none" points="244.586,670.289 1952.76,670.289 "/>
<polyline clip-path="url(#clip472)" style="stroke:#000000; stroke-linecap:round; stroke-linejoin:round; stroke-width:2; stroke-opacity:0.1; fill:none" points="244.586,135.664 1952.76,135.664 "/>
<polyline clip-path="url(#clip470)" style="stroke:#000000; stroke-linecap:round; stroke-linejoin:round; stroke-width:4; stroke-opacity:1; fill:none" points="244.586,1111.02 1952.76,1111.02 "/>
<polyline clip-path="url(#clip470)" style="stroke:#000000; stroke-linecap:round; stroke-linejoin:round; stroke-width:4; stroke-opacity:1; fill:none" points="292.931,1111.02 292.931,1092.12 "/>
<polyline clip-path="url(#clip470)" style="stroke:#000000; stroke-linecap:round; stroke-linejoin:round; stroke-width:4; stroke-opacity:1; fill:none" points="695.801,1111.02 695.801,1092.12 "/>
<polyline clip-path="url(#clip470)" style="stroke:#000000; stroke-linecap:round; stroke-linejoin:round; stroke-width:4; stroke-opacity:1; fill:none" points="1098.67,1111.02 1098.67,1092.12 "/>
<polyline clip-path="url(#clip470)" style="stroke:#000000; stroke-linecap:round; stroke-linejoin:round; stroke-width:4; stroke-opacity:1; fill:none" points="1501.54,1111.02 1501.54,1092.12 "/>
<polyline clip-path="url(#clip470)" style="stroke:#000000; stroke-linecap:round; stroke-linejoin:round; stroke-width:4; stroke-opacity:1; fill:none" points="1904.41,1111.02 1904.41,1092.12 "/>
<path clip-path="url(#clip470)" d="M292.931 1138.74 Q289.319 1138.74 287.491 1142.3 Q285.685 1145.84 285.685 1152.97 Q285.685 1160.08 287.491 1163.64 Q289.319 1167.19 292.931 1167.19 Q296.565 1167.19 298.37 1163.64 Q300.199 1160.08 300.199 1152.97 Q300.199 1145.84 298.37 1142.3 Q296.565 1138.74 292.931 1138.74 M292.931 1135.03 Q298.741 1135.03 301.796 1139.64 Q304.875 1144.22 304.875 1152.97 Q304.875 1161.7 301.796 1166.31 Q298.741 1170.89 292.931 1170.89 Q287.12 1170.89 284.042 1166.31 Q280.986 1161.7 280.986 1152.97 Q280.986 1144.22 284.042 1139.64 Q287.12 1135.03 292.931 1135.03 Z" fill="#000000" fill-rule="nonzero" fill-opacity="1" /><path clip-path="url(#clip470)" d="M670.488 1166.28 L678.127 1166.28 L678.127 1139.92 L669.817 1141.58 L669.817 1137.33 L678.081 1135.66 L682.757 1135.66 L682.757 1166.28 L690.396 1166.28 L690.396 1170.22 L670.488 1170.22 L670.488 1166.28 Z" fill="#000000" fill-rule="nonzero" fill-opacity="1" /><path clip-path="url(#clip470)" d="M709.84 1138.74 Q706.229 1138.74 704.4 1142.3 Q702.595 1145.84 702.595 1152.97 Q702.595 1160.08 704.4 1163.64 Q706.229 1167.19 709.84 1167.19 Q713.474 1167.19 715.28 1163.64 Q717.109 1160.08 717.109 1152.97 Q717.109 1145.84 715.28 1142.3 Q713.474 1138.74 709.84 1138.74 M709.84 1135.03 Q715.65 1135.03 718.706 1139.64 Q721.784 1144.22 721.784 1152.97 Q721.784 1161.7 718.706 1166.31 Q715.65 1170.89 709.84 1170.89 Q704.03 1170.89 700.951 1166.31 Q697.896 1161.7 697.896 1152.97 Q697.896 1144.22 700.951 1139.64 Q704.03 1135.03 709.84 1135.03 Z" fill="#000000" fill-rule="nonzero" fill-opacity="1" /><path clip-path="url(#clip470)" d="M1077.44 1166.28 L1093.76 1166.28 L1093.76 1170.22 L1071.82 1170.22 L1071.82 1166.28 Q1074.48 1163.53 1079.06 1158.9 Q1083.67 1154.25 1084.85 1152.9 Q1087.1 1150.38 1087.98 1148.64 Q1088.88 1146.89 1088.88 1145.2 Q1088.88 1142.44 1086.93 1140.7 Q1085.01 1138.97 1081.91 1138.97 Q1079.71 1138.97 1077.26 1139.73 Q1074.83 1140.5 1072.05 1142.05 L1072.05 1137.33 Q1074.87 1136.19 1077.33 1135.61 Q1079.78 1135.03 1081.82 1135.03 Q1087.19 1135.03 1090.38 1137.72 Q1093.58 1140.4 1093.58 1144.89 Q1093.58 1147.02 1092.77 1148.95 Q1091.98 1150.84 1089.87 1153.44 Q1089.3 1154.11 1086.19 1157.33 Q1083.09 1160.52 1077.44 1166.28 Z" fill="#000000" fill-rule="nonzero" fill-opacity="1" /><path clip-path="url(#clip470)" d="M1113.58 1138.74 Q1109.97 1138.74 1108.14 1142.3 Q1106.33 1145.84 1106.33 1152.97 Q1106.33 1160.08 1108.14 1163.64 Q1109.97 1167.19 1113.58 1167.19 Q1117.21 1167.19 1119.02 1163.64 Q1120.85 1160.08 1120.85 1152.97 Q1120.85 1145.84 1119.02 1142.3 Q1117.21 1138.74 1113.58 1138.74 M1113.58 1135.03 Q1119.39 1135.03 1122.44 1139.64 Q1125.52 1144.22 1125.52 1152.97 Q1125.52 1161.7 1122.44 1166.31 Q1119.39 1170.89 1113.58 1170.89 Q1107.77 1170.89 1104.69 1166.31 Q1101.63 1161.7 1101.63 1152.97 Q1101.63 1144.22 1104.69 1139.64 Q1107.77 1135.03 1113.58 1135.03 Z" fill="#000000" fill-rule="nonzero" fill-opacity="1" /><path clip-path="url(#clip470)" d="M1490.38 1151.58 Q1493.74 1152.3 1495.62 1154.57 Q1497.51 1156.84 1497.51 1160.17 Q1497.51 1165.29 1493.99 1168.09 Q1490.48 1170.89 1484 1170.89 Q1481.82 1170.89 1479.5 1170.45 Q1477.21 1170.03 1474.76 1169.18 L1474.76 1164.66 Q1476.7 1165.8 1479.02 1166.38 Q1481.33 1166.95 1483.86 1166.95 Q1488.25 1166.95 1490.55 1165.22 Q1492.86 1163.48 1492.86 1160.17 Q1492.86 1157.12 1490.71 1155.4 Q1488.58 1153.67 1484.76 1153.67 L1480.73 1153.67 L1480.73 1149.83 L1484.94 1149.83 Q1488.39 1149.83 1490.22 1148.46 Q1492.05 1147.07 1492.05 1144.48 Q1492.05 1141.82 1490.15 1140.4 Q1488.28 1138.97 1484.76 1138.97 Q1482.84 1138.97 1480.64 1139.39 Q1478.44 1139.8 1475.8 1140.68 L1475.8 1136.51 Q1478.46 1135.77 1480.78 1135.4 Q1483.12 1135.03 1485.18 1135.03 Q1490.5 1135.03 1493.6 1137.46 Q1496.7 1139.87 1496.7 1143.99 Q1496.7 1146.86 1495.06 1148.85 Q1493.42 1150.82 1490.38 1151.58 Z" fill="#000000" fill-rule="nonzero" fill-opacity="1" /><path clip-path="url(#clip470)" d="M1516.38 1138.74 Q1512.77 1138.74 1510.94 1142.3 Q1509.13 1145.84 1509.13 1152.97 Q1509.13 1160.08 1510.94 1163.64 Q1512.77 1167.19 1516.38 1167.19 Q1520.01 1167.19 1521.82 1163.64 Q1523.65 1160.08 1523.65 1152.97 Q1523.65 1145.84 1521.82 1142.3 Q1520.01 1138.74 1516.38 1138.74 M1516.38 1135.03 Q1522.19 1135.03 1525.24 1139.64 Q1528.32 1144.22 1528.32 1152.97 Q1528.32 1161.7 1525.24 1166.31 Q1522.19 1170.89 1516.38 1170.89 Q1510.57 1170.89 1507.49 1166.31 Q1504.43 1161.7 1504.43 1152.97 Q1504.43 1144.22 1507.49 1139.64 Q1510.57 1135.03 1516.38 1135.03 Z" fill="#000000" fill-rule="nonzero" fill-opacity="1" /><path clip-path="url(#clip470)" d="M1892.58 1139.73 L1880.78 1158.18 L1892.58 1158.18 L1892.58 1139.73 M1891.36 1135.66 L1897.24 1135.66 L1897.24 1158.18 L1902.17 1158.18 L1902.17 1162.07 L1897.24 1162.07 L1897.24 1170.22 L1892.58 1170.22 L1892.58 1162.07 L1876.98 1162.07 L1876.98 1157.56 L1891.36 1135.66 Z" fill="#000000" fill-rule="nonzero" fill-opacity="1" /><path clip-path="url(#clip470)" d="M1919.9 1138.74 Q1916.29 1138.74 1914.46 1142.3 Q1912.65 1145.84 1912.65 1152.97 Q1912.65 1160.08 1914.46 1163.64 Q1916.29 1167.19 1919.9 1167.19 Q1923.53 1167.19 1925.34 1163.64 Q1927.17 1160.08 1927.17 1152.97 Q1927.17 1145.84 1925.34 1142.3 Q1923.53 1138.74 1919.9 1138.74 M1919.9 1135.03 Q1925.71 1135.03 1928.76 1139.64 Q1931.84 1144.22 1931.84 1152.97 Q1931.84 1161.7 1928.76 1166.31 Q1925.71 1170.89 1919.9 1170.89 Q1914.09 1170.89 1911.01 1166.31 Q1907.95 1161.7 1907.95 1152.97 Q1907.95 1144.22 1911.01 1139.64 Q1914.09 1135.03 1919.9 1135.03 Z" fill="#000000" fill-rule="nonzero" fill-opacity="1" /><g clip-path="url(#clip470)">
<text style="fill:#000000; fill-opacity:1; font-family:Arial,Helvetica Neue,Helvetica,sans-serif; font-size:66px; text-anchor:middle;" transform="rotate(0, 1098.67, 1252.42)" x="1098.67" y="1252.42">iteration number</text>
</g>
<polyline clip-path="url(#clip470)" style="stroke:#000000; stroke-linecap:round; stroke-linejoin:round; stroke-width:4; stroke-opacity:1; fill:none" points="244.586,1111.02 244.586,107.256 "/>
<polyline clip-path="url(#clip470)" style="stroke:#000000; stroke-linecap:round; stroke-linejoin:round; stroke-width:4; stroke-opacity:1; fill:none" points="244.586,670.289 263.484,670.289 "/>
<polyline clip-path="url(#clip470)" style="stroke:#000000; stroke-linecap:round; stroke-linejoin:round; stroke-width:4; stroke-opacity:1; fill:none" points="244.586,135.664 263.484,135.664 "/>
<path clip-path="url(#clip470)" d="M113.675 690.081 L121.314 690.081 L121.314 663.716 L113.004 665.383 L113.004 661.123 L121.268 659.457 L125.944 659.457 L125.944 690.081 L133.583 690.081 L133.583 694.017 L113.675 694.017 L113.675 690.081 Z" fill="#000000" fill-rule="nonzero" fill-opacity="1" /><path clip-path="url(#clip470)" d="M153.027 662.535 Q149.416 662.535 147.587 666.1 Q145.782 669.642 145.782 676.771 Q145.782 683.878 147.587 687.443 Q149.416 690.984 153.027 690.984 Q156.661 690.984 158.467 687.443 Q160.295 683.878 160.295 676.771 Q160.295 669.642 158.467 666.1 Q156.661 662.535 153.027 662.535 M153.027 658.832 Q158.837 658.832 161.893 663.438 Q164.971 668.021 164.971 676.771 Q164.971 685.498 161.893 690.105 Q158.837 694.688 153.027 694.688 Q147.217 694.688 144.138 690.105 Q141.082 685.498 141.082 676.771 Q141.082 668.021 144.138 663.438 Q147.217 658.832 153.027 658.832 Z" fill="#000000" fill-rule="nonzero" fill-opacity="1" /><path clip-path="url(#clip470)" d="M164.971 652.933 L189.083 652.933 L189.083 656.13 L164.971 656.13 L164.971 652.933 Z" fill="#000000" fill-rule="nonzero" fill-opacity="1" /><path clip-path="url(#clip470)" d="M208.793 651.466 Q211.52 652.049 213.044 653.892 Q214.586 655.735 214.586 658.444 Q214.586 662.6 211.727 664.876 Q208.869 667.152 203.602 667.152 Q201.834 667.152 199.954 666.794 Q198.092 666.456 196.098 665.76 L196.098 662.092 Q197.678 663.014 199.559 663.484 Q201.439 663.954 203.49 663.954 Q207.063 663.954 208.925 662.544 Q210.806 661.133 210.806 658.444 Q210.806 655.961 209.057 654.569 Q207.326 653.159 204.223 653.159 L200.95 653.159 L200.95 650.037 L204.374 650.037 Q207.176 650.037 208.662 648.927 Q210.147 647.798 210.147 645.692 Q210.147 643.529 208.605 642.382 Q207.082 641.216 204.223 641.216 Q202.662 641.216 200.875 641.554 Q199.089 641.893 196.944 642.608 L196.944 639.222 Q199.107 638.62 200.988 638.319 Q202.888 638.018 204.562 638.018 Q208.887 638.018 211.408 639.993 Q213.928 641.949 213.928 645.297 Q213.928 647.629 212.592 649.247 Q211.257 650.845 208.793 651.466 Z" fill="#000000" fill-rule="nonzero" fill-opacity="1" /><path clip-path="url(#clip470)" d="M143.88 155.457 L151.519 155.457 L151.519 129.091 L143.209 130.758 L143.209 126.499 L151.473 124.832 L156.149 124.832 L156.149 155.457 L163.788 155.457 L163.788 159.392 L143.88 159.392 L143.88 155.457 Z" fill="#000000" fill-rule="nonzero" fill-opacity="1" /><path clip-path="url(#clip470)" d="M183.232 127.911 Q179.621 127.911 177.792 131.475 Q175.987 135.017 175.987 142.147 Q175.987 149.253 177.792 152.818 Q179.621 156.359 183.232 156.359 Q186.866 156.359 188.672 152.818 Q190.501 149.253 190.501 142.147 Q190.501 135.017 188.672 131.475 Q186.866 127.911 183.232 127.911 M183.232 124.207 Q189.042 124.207 192.098 128.813 Q195.177 133.397 195.177 142.147 Q195.177 150.873 192.098 155.48 Q189.042 160.063 183.232 160.063 Q177.422 160.063 174.343 155.48 Q171.288 150.873 171.288 142.147 Q171.288 133.397 174.343 128.813 Q177.422 124.207 183.232 124.207 Z" fill="#000000" fill-rule="nonzero" fill-opacity="1" /><path clip-path="url(#clip470)" d="M204.881 106.403 Q201.947 106.403 200.461 109.299 Q198.994 112.177 198.994 117.97 Q198.994 123.744 200.461 126.64 Q201.947 129.518 204.881 129.518 Q207.834 129.518 209.301 126.64 Q210.787 123.744 210.787 117.97 Q210.787 112.177 209.301 109.299 Q207.834 106.403 204.881 106.403 M204.881 103.394 Q209.602 103.394 212.085 107.136 Q214.586 110.86 214.586 117.97 Q214.586 125.06 212.085 128.803 Q209.602 132.527 204.881 132.527 Q200.161 132.527 197.659 128.803 Q195.177 125.06 195.177 117.97 Q195.177 110.86 197.659 107.136 Q200.161 103.394 204.881 103.394 Z" fill="#000000" fill-rule="nonzero" fill-opacity="1" /><g clip-path="url(#clip470)">
<text style="fill:#000000; fill-opacity:1; font-family:Arial,Helvetica Neue,Helvetica,sans-serif; font-size:66px; text-anchor:middle;" transform="rotate(-90, 71.4418, 609.137)" x="71.4418" y="609.137">residual norm</text>
</g>
<g clip-path="url(#clip470)">
<text style="fill:#000000; fill-opacity:1; font-family:Arial,Helvetica Neue,Helvetica,sans-serif; font-size:66px; text-anchor:middle;" transform="rotate(0, 1098.67, 57.6)" x="1098.67" y="57.6">Incomplete LU preconditioning</text>
</g>
<polyline clip-path="url(#clip472)" style="stroke:#009af9; stroke-linecap:round; stroke-linejoin:round; stroke-width:8; stroke-opacity:1; fill:none" points="292.931,135.664 333.218,137.214 373.505,137.693 413.792,137.878 454.079,137.959 494.366,137.998 534.653,138.02 574.94,138.033 615.227,138.042 655.514,138.049 695.801,138.055 736.088,138.061 776.375,138.067 816.662,138.073 856.949,138.078 897.236,138.083 937.523,138.088 977.81,138.092 1018.1,138.096 1058.38,138.1 1098.67,138.101 1138.96,138.101 1179.25,138.101 1219.53,138.101 1259.82,138.101 1300.11,138.101 1340.39,138.101 1380.68,138.101 1420.97,138.101 1461.25,138.101 1501.54,138.101 1541.83,138.101 1582.12,138.102 1622.4,138.102 1662.69,138.104 1702.98,138.106 1743.26,138.11 1783.55,138.115 1823.84,138.12 1864.12,138.124 1904.41,138.124 "/>
<polyline clip-path="url(#clip472)" style="stroke:#e26f46; stroke-linecap:round; stroke-linejoin:round; stroke-width:8; stroke-opacity:1; fill:none" points="292.931,135.664 333.218,151.708 373.505,180.17 413.792,229.72 454.079,253.628 494.366,294.367 534.653,343.02 574.94,400.734 615.227,467.597 655.514,524.415 695.801,576.948 736.088,626.355 776.375,690.258 816.662,756.551 856.949,812.717 897.236,884.598 937.523,985.015 977.81,1082.61 "/>
<polyline clip-path="url(#clip472)" style="stroke:#3da44d; stroke-linecap:round; stroke-linejoin:round; stroke-width:8; stroke-opacity:1; fill:none" points="292.931,135.664 333.218,201.21 373.505,261.444 413.792,305.417 454.079,366.469 494.366,449.748 534.653,534.448 574.94,613.313 615.227,676.714 655.514,763.915 695.801,862.618 736.088,951.463 776.375,1073.7 "/>
<polyline clip-path="url(#clip472)" style="stroke:#c271d2; stroke-linecap:round; stroke-linejoin:round; stroke-width:8; stroke-opacity:1; fill:none" points="292.931,135.664 333.218,247.366 373.505,389.929 413.792,544.157 454.079,648.887 494.366,803.374 534.653,992.166 "/>
<polyline clip-path="url(#clip472)" style="stroke:#ac8d18; stroke-linecap:round; stroke-linejoin:round; stroke-width:8; stroke-opacity:1; fill:none" points="292.931,135.664 333.218,279.046 373.505,503.491 413.792,676.221 454.079,881.776 "/>
<path clip-path="url(#clip470)" d="M1214.75 1077.56 L1895.82 1077.56 L1895.82 766.52 L1214.75 766.52  Z" fill="#ffffff" fill-rule="evenodd" fill-opacity="1"/>
<polyline clip-path="url(#clip470)" style="stroke:#000000; stroke-linecap:round; stroke-linejoin:round; stroke-width:4; stroke-opacity:1; fill:none" points="1214.75,1077.56 1895.82,1077.56 1895.82,766.52 1214.75,766.52 1214.75,1077.56 "/>
<polyline clip-path="url(#clip470)" style="stroke:#009af9; stroke-linecap:round; stroke-linejoin:round; stroke-width:8; stroke-opacity:1; fill:none" points="1233.73,818.36 1347.61,818.36 "/>
<path clip-path="url(#clip470)" d="M1388.3 819.992 L1388.3 835.64 L1384.04 835.64 L1384.04 820.131 Q1384.04 816.45 1382.6 814.621 Q1381.17 812.793 1378.3 812.793 Q1374.85 812.793 1372.86 814.992 Q1370.87 817.191 1370.87 820.987 L1370.87 835.64 L1366.59 835.64 L1366.59 809.714 L1370.87 809.714 L1370.87 813.742 Q1372.4 811.404 1374.46 810.246 Q1376.54 809.089 1379.25 809.089 Q1383.71 809.089 1386.01 811.867 Q1388.3 814.621 1388.3 819.992 Z" fill="#000000" fill-rule="nonzero" fill-opacity="1" /><path clip-path="url(#clip470)" d="M1406.84 812.7 Q1403.41 812.7 1401.42 815.385 Q1399.43 818.047 1399.43 822.7 Q1399.43 827.353 1401.4 830.038 Q1403.39 832.7 1406.84 832.7 Q1410.24 832.7 1412.23 830.015 Q1414.22 827.33 1414.22 822.7 Q1414.22 818.094 1412.23 815.408 Q1410.24 812.7 1406.84 812.7 M1406.84 809.089 Q1412.4 809.089 1415.57 812.7 Q1418.74 816.311 1418.74 822.7 Q1418.74 829.066 1415.57 832.7 Q1412.4 836.311 1406.84 836.311 Q1401.26 836.311 1398.09 832.7 Q1394.94 829.066 1394.94 822.7 Q1394.94 816.311 1398.09 812.7 Q1401.26 809.089 1406.84 809.089 Z" fill="#000000" fill-rule="nonzero" fill-opacity="1" /><path clip-path="url(#clip470)" d="M1444.99 831.751 L1444.99 845.501 L1440.71 845.501 L1440.71 809.714 L1444.99 809.714 L1444.99 813.649 Q1446.33 811.334 1448.37 810.223 Q1450.43 809.089 1453.27 809.089 Q1458 809.089 1460.94 812.839 Q1463.9 816.589 1463.9 822.7 Q1463.9 828.811 1460.94 832.561 Q1458 836.311 1453.27 836.311 Q1450.43 836.311 1448.37 835.2 Q1446.33 834.066 1444.99 831.751 M1459.48 822.7 Q1459.48 818.001 1457.53 815.339 Q1455.61 812.654 1452.23 812.654 Q1448.85 812.654 1446.91 815.339 Q1444.99 818.001 1444.99 822.7 Q1444.99 827.399 1446.91 830.084 Q1448.85 832.746 1452.23 832.746 Q1455.61 832.746 1457.53 830.084 Q1459.48 827.399 1459.48 822.7 Z" fill="#000000" fill-rule="nonzero" fill-opacity="1" /><path clip-path="url(#clip470)" d="M1485.98 813.695 Q1485.27 813.279 1484.41 813.094 Q1483.58 812.885 1482.56 812.885 Q1478.95 812.885 1477 815.246 Q1475.08 817.584 1475.08 821.982 L1475.08 835.64 L1470.8 835.64 L1470.8 809.714 L1475.08 809.714 L1475.08 813.742 Q1476.42 811.381 1478.58 810.246 Q1480.73 809.089 1483.81 809.089 Q1484.25 809.089 1484.78 809.158 Q1485.31 809.205 1485.96 809.32 L1485.98 813.695 Z" fill="#000000" fill-rule="nonzero" fill-opacity="1" /><path clip-path="url(#clip470)" d="M1511.58 821.612 L1511.58 823.695 L1492 823.695 Q1492.28 828.093 1494.64 830.408 Q1497.02 832.7 1501.26 832.7 Q1503.71 832.7 1506.01 832.098 Q1508.32 831.496 1510.59 830.293 L1510.59 834.32 Q1508.3 835.293 1505.89 835.802 Q1503.48 836.311 1501.01 836.311 Q1494.8 836.311 1491.17 832.7 Q1487.56 829.089 1487.56 822.931 Q1487.56 816.566 1490.98 812.839 Q1494.43 809.089 1500.27 809.089 Q1505.5 809.089 1508.53 812.469 Q1511.58 815.825 1511.58 821.612 M1507.33 820.362 Q1507.28 816.867 1505.36 814.783 Q1503.46 812.7 1500.31 812.7 Q1496.75 812.7 1494.59 814.714 Q1492.46 816.728 1492.14 820.385 L1507.33 820.362 Z" fill="#000000" fill-rule="nonzero" fill-opacity="1" /><path clip-path="url(#clip470)" d="M1537.23 810.709 L1537.23 814.691 Q1535.43 813.695 1533.6 813.209 Q1531.79 812.7 1529.94 812.7 Q1525.8 812.7 1523.51 815.339 Q1521.21 817.955 1521.21 822.7 Q1521.21 827.445 1523.51 830.084 Q1525.8 832.7 1529.94 832.7 Q1531.79 832.7 1533.6 832.214 Q1535.43 831.705 1537.23 830.709 L1537.23 834.644 Q1535.45 835.478 1533.53 835.894 Q1531.63 836.311 1529.48 836.311 Q1523.62 836.311 1520.17 832.63 Q1516.72 828.95 1516.72 822.7 Q1516.72 816.357 1520.2 812.723 Q1523.69 809.089 1529.76 809.089 Q1531.72 809.089 1533.6 809.506 Q1535.47 809.899 1537.23 810.709 Z" fill="#000000" fill-rule="nonzero" fill-opacity="1" /><path clip-path="url(#clip470)" d="M1554.69 812.7 Q1551.26 812.7 1549.27 815.385 Q1547.28 818.047 1547.28 822.7 Q1547.28 827.353 1549.25 830.038 Q1551.24 832.7 1554.69 832.7 Q1558.09 832.7 1560.08 830.015 Q1562.07 827.33 1562.07 822.7 Q1562.07 818.094 1560.08 815.408 Q1558.09 812.7 1554.69 812.7 M1554.69 809.089 Q1560.24 809.089 1563.41 812.7 Q1566.58 816.311 1566.58 822.7 Q1566.58 829.066 1563.41 832.7 Q1560.24 836.311 1554.69 836.311 Q1549.11 836.311 1545.94 832.7 Q1542.79 829.066 1542.79 822.7 Q1542.79 816.311 1545.94 812.7 Q1549.11 809.089 1554.69 809.089 Z" fill="#000000" fill-rule="nonzero" fill-opacity="1" /><path clip-path="url(#clip470)" d="M1595.2 819.992 L1595.2 835.64 L1590.94 835.64 L1590.94 820.131 Q1590.94 816.45 1589.5 814.621 Q1588.07 812.793 1585.2 812.793 Q1581.75 812.793 1579.76 814.992 Q1577.76 817.191 1577.76 820.987 L1577.76 835.64 L1573.48 835.64 L1573.48 809.714 L1577.76 809.714 L1577.76 813.742 Q1579.29 811.404 1581.35 810.246 Q1583.44 809.089 1586.14 809.089 Q1590.61 809.089 1592.9 811.867 Q1595.2 814.621 1595.2 819.992 Z" fill="#000000" fill-rule="nonzero" fill-opacity="1" /><path clip-path="url(#clip470)" d="M1620.75 813.649 L1620.75 799.621 L1625.01 799.621 L1625.01 835.64 L1620.75 835.64 L1620.75 831.751 Q1619.41 834.066 1617.35 835.2 Q1615.31 836.311 1612.44 836.311 Q1607.74 836.311 1604.78 832.561 Q1601.84 828.811 1601.84 822.7 Q1601.84 816.589 1604.78 812.839 Q1607.74 809.089 1612.44 809.089 Q1615.31 809.089 1617.35 810.223 Q1619.41 811.334 1620.75 813.649 M1606.24 822.7 Q1606.24 827.399 1608.16 830.084 Q1610.1 832.746 1613.48 832.746 Q1616.86 832.746 1618.81 830.084 Q1620.75 827.399 1620.75 822.7 Q1620.75 818.001 1618.81 815.339 Q1616.86 812.654 1613.48 812.654 Q1610.1 812.654 1608.16 815.339 Q1606.24 818.001 1606.24 822.7 Z" fill="#000000" fill-rule="nonzero" fill-opacity="1" /><path clip-path="url(#clip470)" d="M1633.78 809.714 L1638.04 809.714 L1638.04 835.64 L1633.78 835.64 L1633.78 809.714 M1633.78 799.621 L1638.04 799.621 L1638.04 805.015 L1633.78 805.015 L1633.78 799.621 Z" fill="#000000" fill-rule="nonzero" fill-opacity="1" /><path clip-path="url(#clip470)" d="M1651.17 802.353 L1651.17 809.714 L1659.94 809.714 L1659.94 813.024 L1651.17 813.024 L1651.17 827.098 Q1651.17 830.269 1652.02 831.172 Q1652.9 832.075 1655.57 832.075 L1659.94 832.075 L1659.94 835.64 L1655.57 835.64 Q1650.63 835.64 1648.76 833.811 Q1646.88 831.959 1646.88 827.098 L1646.88 813.024 L1643.76 813.024 L1643.76 809.714 L1646.88 809.714 L1646.88 802.353 L1651.17 802.353 Z" fill="#000000" fill-rule="nonzero" fill-opacity="1" /><path clip-path="url(#clip470)" d="M1665.54 809.714 L1669.8 809.714 L1669.8 835.64 L1665.54 835.64 L1665.54 809.714 M1665.54 799.621 L1669.8 799.621 L1669.8 805.015 L1665.54 805.015 L1665.54 799.621 Z" fill="#000000" fill-rule="nonzero" fill-opacity="1" /><path clip-path="url(#clip470)" d="M1688.76 812.7 Q1685.33 812.7 1683.34 815.385 Q1681.35 818.047 1681.35 822.7 Q1681.35 827.353 1683.32 830.038 Q1685.31 832.7 1688.76 832.7 Q1692.16 832.7 1694.15 830.015 Q1696.14 827.33 1696.14 822.7 Q1696.14 818.094 1694.15 815.408 Q1692.16 812.7 1688.76 812.7 M1688.76 809.089 Q1694.32 809.089 1697.49 812.7 Q1700.66 816.311 1700.66 822.7 Q1700.66 829.066 1697.49 832.7 Q1694.32 836.311 1688.76 836.311 Q1683.18 836.311 1680.01 832.7 Q1676.86 829.066 1676.86 822.7 Q1676.86 816.311 1680.01 812.7 Q1683.18 809.089 1688.76 809.089 Z" fill="#000000" fill-rule="nonzero" fill-opacity="1" /><path clip-path="url(#clip470)" d="M1729.27 819.992 L1729.27 835.64 L1725.01 835.64 L1725.01 820.131 Q1725.01 816.45 1723.57 814.621 Q1722.14 812.793 1719.27 812.793 Q1715.82 812.793 1713.83 814.992 Q1711.84 817.191 1711.84 820.987 L1711.84 835.64 L1707.56 835.64 L1707.56 809.714 L1711.84 809.714 L1711.84 813.742 Q1713.37 811.404 1715.43 810.246 Q1717.51 809.089 1720.22 809.089 Q1724.69 809.089 1726.98 811.867 Q1729.27 814.621 1729.27 819.992 Z" fill="#000000" fill-rule="nonzero" fill-opacity="1" /><path clip-path="url(#clip470)" d="M1737.76 809.714 L1742.02 809.714 L1742.02 835.64 L1737.76 835.64 L1737.76 809.714 M1737.76 799.621 L1742.02 799.621 L1742.02 805.015 L1737.76 805.015 L1737.76 799.621 Z" fill="#000000" fill-rule="nonzero" fill-opacity="1" /><path clip-path="url(#clip470)" d="M1772.49 819.992 L1772.49 835.64 L1768.23 835.64 L1768.23 820.131 Q1768.23 816.45 1766.79 814.621 Q1765.36 812.793 1762.49 812.793 Q1759.04 812.793 1757.05 814.992 Q1755.06 817.191 1755.06 820.987 L1755.06 835.64 L1750.77 835.64 L1750.77 809.714 L1755.06 809.714 L1755.06 813.742 Q1756.58 811.404 1758.64 810.246 Q1760.73 809.089 1763.44 809.089 Q1767.9 809.089 1770.19 811.867 Q1772.49 814.621 1772.49 819.992 Z" fill="#000000" fill-rule="nonzero" fill-opacity="1" /><path clip-path="url(#clip470)" d="M1798.04 822.376 Q1798.04 817.746 1796.12 815.2 Q1794.22 812.654 1790.77 812.654 Q1787.35 812.654 1785.43 815.2 Q1783.53 817.746 1783.53 822.376 Q1783.53 826.982 1785.43 829.529 Q1787.35 832.075 1790.77 832.075 Q1794.22 832.075 1796.12 829.529 Q1798.04 826.982 1798.04 822.376 M1802.3 832.422 Q1802.3 839.042 1799.36 842.26 Q1796.42 845.501 1790.36 845.501 Q1788.11 845.501 1786.12 845.154 Q1784.13 844.829 1782.25 844.135 L1782.25 839.992 Q1784.13 841.01 1785.96 841.496 Q1787.79 841.982 1789.68 841.982 Q1793.87 841.982 1795.96 839.783 Q1798.04 837.607 1798.04 833.186 L1798.04 831.08 Q1796.72 833.371 1794.66 834.505 Q1792.6 835.64 1789.73 835.64 Q1784.96 835.64 1782.05 832.005 Q1779.13 828.371 1779.13 822.376 Q1779.13 816.357 1782.05 812.723 Q1784.96 809.089 1789.73 809.089 Q1792.6 809.089 1794.66 810.223 Q1796.72 811.357 1798.04 813.649 L1798.04 809.714 L1802.3 809.714 L1802.3 832.422 Z" fill="#000000" fill-rule="nonzero" fill-opacity="1" /><polyline clip-path="url(#clip470)" style="stroke:#e26f46; stroke-linecap:round; stroke-linejoin:round; stroke-width:8; stroke-opacity:1; fill:none" points="1233.73,870.2 1347.61,870.2 "/>
<path clip-path="url(#clip470)" d="M1381.45 882.758 Q1382.28 883.869 1384.78 883.869 L1386.84 883.869 L1386.84 887.48 L1384.27 887.48 Q1380.1 887.48 1378.21 885.258 Q1376.31 882.989 1376.31 878.082 L1376.31 865.813 L1366.59 865.813 L1366.59 861.554 L1390.5 861.554 L1390.5 865.813 L1380.66 865.813 L1380.66 878.336 Q1380.66 881.693 1381.45 882.758 Z" fill="#000000" fill-rule="nonzero" fill-opacity="1" /><path clip-path="url(#clip470)" d="M1412.9 865.952 L1442.58 865.952 L1442.58 869.841 L1412.9 869.841 L1412.9 865.952 M1412.9 875.396 L1442.58 875.396 L1442.58 879.332 L1412.9 879.332 L1412.9 875.396 Z" fill="#000000" fill-rule="nonzero" fill-opacity="1" /><path clip-path="url(#clip470)" d="M1471.77 883.545 L1488.09 883.545 L1488.09 887.48 L1466.15 887.48 L1466.15 883.545 Q1468.81 880.79 1473.39 876.16 Q1478 871.508 1479.18 870.165 Q1481.42 867.642 1482.3 865.906 Q1483.21 864.147 1483.21 862.457 Q1483.21 859.702 1481.26 857.966 Q1479.34 856.23 1476.24 856.23 Q1474.04 856.23 1471.58 856.994 Q1469.15 857.758 1466.38 859.309 L1466.38 854.586 Q1469.2 853.452 1471.65 852.873 Q1474.11 852.295 1476.14 852.295 Q1481.52 852.295 1484.71 854.98 Q1487.9 857.665 1487.9 862.156 Q1487.9 864.285 1487.09 866.207 Q1486.31 868.105 1484.2 870.697 Q1483.62 871.369 1480.52 874.586 Q1477.42 877.781 1471.77 883.545 Z" fill="#000000" fill-rule="nonzero" fill-opacity="1" /><path clip-path="url(#clip470)" d="M1497.9 881.6 L1502.79 881.6 L1502.79 887.48 L1497.9 887.48 L1497.9 881.6 Z" fill="#000000" fill-rule="nonzero" fill-opacity="1" /><path clip-path="url(#clip470)" d="M1522.97 855.998 Q1519.36 855.998 1517.53 859.563 Q1515.73 863.105 1515.73 870.234 Q1515.73 877.341 1517.53 880.906 Q1519.36 884.447 1522.97 884.447 Q1526.61 884.447 1528.41 880.906 Q1530.24 877.341 1530.24 870.234 Q1530.24 863.105 1528.41 859.563 Q1526.61 855.998 1522.97 855.998 M1522.97 852.295 Q1528.78 852.295 1531.84 856.901 Q1534.92 861.485 1534.92 870.234 Q1534.92 878.961 1531.84 883.568 Q1528.78 888.151 1522.97 888.151 Q1517.16 888.151 1514.08 883.568 Q1511.03 878.961 1511.03 870.234 Q1511.03 861.485 1514.08 856.901 Q1517.16 852.295 1522.97 852.295 Z" fill="#000000" fill-rule="nonzero" fill-opacity="1" /><path clip-path="url(#clip470)" d="M1543.62 881.6 L1548.51 881.6 L1548.51 885.582 L1544.71 892.989 L1541.72 892.989 L1543.62 885.582 L1543.62 881.6 Z" fill="#000000" fill-rule="nonzero" fill-opacity="1" /><path clip-path="url(#clip470)" d="M1576.89 854.193 L1576.89 861.554 L1585.66 861.554 L1585.66 864.864 L1576.89 864.864 L1576.89 878.938 Q1576.89 882.109 1577.74 883.012 Q1578.62 883.915 1581.28 883.915 L1585.66 883.915 L1585.66 887.48 L1581.28 887.48 Q1576.35 887.48 1574.48 885.651 Q1572.6 883.799 1572.6 878.938 L1572.6 864.864 L1569.48 864.864 L1569.48 861.554 L1572.6 861.554 L1572.6 854.193 L1576.89 854.193 Z" fill="#000000" fill-rule="nonzero" fill-opacity="1" /><path clip-path="url(#clip470)" d="M1591.26 861.554 L1595.52 861.554 L1595.52 887.48 L1591.26 887.48 L1591.26 861.554 M1591.26 851.461 L1595.52 851.461 L1595.52 856.855 L1591.26 856.855 L1591.26 851.461 Z" fill="#000000" fill-rule="nonzero" fill-opacity="1" /><path clip-path="url(#clip470)" d="M1624.62 866.531 Q1626.21 863.66 1628.44 862.295 Q1630.66 860.929 1633.67 860.929 Q1637.72 860.929 1639.92 863.776 Q1642.12 866.6 1642.12 871.832 L1642.12 887.48 L1637.83 887.48 L1637.83 871.971 Q1637.83 868.244 1636.51 866.438 Q1635.2 864.633 1632.49 864.633 Q1629.18 864.633 1627.26 866.832 Q1625.33 869.031 1625.33 872.827 L1625.33 887.48 L1621.05 887.48 L1621.05 871.971 Q1621.05 868.221 1619.73 866.438 Q1618.41 864.633 1615.66 864.633 Q1612.39 864.633 1610.47 866.855 Q1608.55 869.054 1608.55 872.827 L1608.55 887.48 L1604.27 887.48 L1604.27 861.554 L1608.55 861.554 L1608.55 865.582 Q1610.01 863.197 1612.05 862.063 Q1614.08 860.929 1616.88 860.929 Q1619.71 860.929 1621.68 862.364 Q1623.67 863.799 1624.62 866.531 Z" fill="#000000" fill-rule="nonzero" fill-opacity="1" /><path clip-path="url(#clip470)" d="M1672.79 873.452 L1672.79 875.535 L1653.2 875.535 Q1653.48 879.933 1655.84 882.248 Q1658.23 884.54 1662.46 884.54 Q1664.92 884.54 1667.21 883.938 Q1669.52 883.336 1671.79 882.133 L1671.79 886.16 Q1669.5 887.133 1667.09 887.642 Q1664.69 888.151 1662.21 888.151 Q1656.01 888.151 1652.37 884.54 Q1648.76 880.929 1648.76 874.771 Q1648.76 868.406 1652.19 864.679 Q1655.63 860.929 1661.47 860.929 Q1666.7 860.929 1669.73 864.309 Q1672.79 867.665 1672.79 873.452 M1668.53 872.202 Q1668.48 868.707 1666.56 866.623 Q1664.66 864.54 1661.51 864.54 Q1657.95 864.54 1655.8 866.554 Q1653.67 868.568 1653.34 872.225 L1668.53 872.202 Z" fill="#000000" fill-rule="nonzero" fill-opacity="1" /><path clip-path="url(#clip470)" d="M1695.4 865.952 L1725.08 865.952 L1725.08 869.841 L1695.4 869.841 L1695.4 865.952 M1695.4 875.396 L1725.08 875.396 L1725.08 879.332 L1695.4 879.332 L1695.4 875.396 Z" fill="#000000" fill-rule="nonzero" fill-opacity="1" /><path clip-path="url(#clip470)" d="M1760.24 855.998 Q1756.63 855.998 1754.8 859.563 Q1753 863.105 1753 870.234 Q1753 877.341 1754.8 880.906 Q1756.63 884.447 1760.24 884.447 Q1763.87 884.447 1765.68 880.906 Q1767.51 877.341 1767.51 870.234 Q1767.51 863.105 1765.68 859.563 Q1763.87 855.998 1760.24 855.998 M1760.24 852.295 Q1766.05 852.295 1769.11 856.901 Q1772.19 861.485 1772.19 870.234 Q1772.19 878.961 1769.11 883.568 Q1766.05 888.151 1760.24 888.151 Q1754.43 888.151 1751.35 883.568 Q1748.3 878.961 1748.3 870.234 Q1748.3 861.485 1751.35 856.901 Q1754.43 852.295 1760.24 852.295 Z" fill="#000000" fill-rule="nonzero" fill-opacity="1" /><path clip-path="url(#clip470)" d="M1780.4 881.6 L1785.29 881.6 L1785.29 887.48 L1780.4 887.48 L1780.4 881.6 Z" fill="#000000" fill-rule="nonzero" fill-opacity="1" /><path clip-path="url(#clip470)" d="M1796.28 883.545 L1803.92 883.545 L1803.92 857.179 L1795.61 858.846 L1795.61 854.586 L1803.87 852.92 L1808.55 852.92 L1808.55 883.545 L1816.19 883.545 L1816.19 887.48 L1796.28 887.48 L1796.28 883.545 Z" fill="#000000" fill-rule="nonzero" fill-opacity="1" /><path clip-path="url(#clip470)" d="M1835.63 855.998 Q1832.02 855.998 1830.19 859.563 Q1828.39 863.105 1828.39 870.234 Q1828.39 877.341 1830.19 880.906 Q1832.02 884.447 1835.63 884.447 Q1839.27 884.447 1841.07 880.906 Q1842.9 877.341 1842.9 870.234 Q1842.9 863.105 1841.07 859.563 Q1839.27 855.998 1835.63 855.998 M1835.63 852.295 Q1841.44 852.295 1844.5 856.901 Q1847.58 861.485 1847.58 870.234 Q1847.58 878.961 1844.5 883.568 Q1841.44 888.151 1835.63 888.151 Q1829.82 888.151 1826.74 883.568 Q1823.69 878.961 1823.69 870.234 Q1823.69 861.485 1826.74 856.901 Q1829.82 852.295 1835.63 852.295 Z" fill="#000000" fill-rule="nonzero" fill-opacity="1" /><path clip-path="url(#clip470)" d="M1854.62 852.92 L1876.84 852.92 L1876.84 854.91 L1864.29 887.48 L1859.41 887.48 L1871.21 856.855 L1854.62 856.855 L1854.62 852.92 Z" fill="#000000" fill-rule="nonzero" fill-opacity="1" /><polyline clip-path="url(#clip470)" style="stroke:#3da44d; stroke-linecap:round; stroke-linejoin:round; stroke-width:8; stroke-opacity:1; fill:none" points="1233.73,922.04 1347.61,922.04 "/>
<path clip-path="url(#clip470)" d="M1381.45 934.598 Q1382.28 935.709 1384.78 935.709 L1386.84 935.709 L1386.84 939.32 L1384.27 939.32 Q1380.1 939.32 1378.21 937.098 Q1376.31 934.829 1376.31 929.922 L1376.31 917.653 L1366.59 917.653 L1366.59 913.394 L1390.5 913.394 L1390.5 917.653 L1380.66 917.653 L1380.66 930.176 Q1380.66 933.533 1381.45 934.598 Z" fill="#000000" fill-rule="nonzero" fill-opacity="1" /><path clip-path="url(#clip470)" d="M1412.9 917.792 L1442.58 917.792 L1442.58 921.681 L1412.9 921.681 L1412.9 917.792 M1412.9 927.236 L1442.58 927.236 L1442.58 931.172 L1412.9 931.172 L1412.9 927.236 Z" fill="#000000" fill-rule="nonzero" fill-opacity="1" /><path clip-path="url(#clip470)" d="M1468.55 935.385 L1476.19 935.385 L1476.19 909.019 L1467.88 910.686 L1467.88 906.426 L1476.14 904.76 L1480.82 904.76 L1480.82 935.385 L1488.46 935.385 L1488.46 939.32 L1468.55 939.32 L1468.55 935.385 Z" fill="#000000" fill-rule="nonzero" fill-opacity="1" /><path clip-path="url(#clip470)" d="M1497.9 933.44 L1502.79 933.44 L1502.79 939.32 L1497.9 939.32 L1497.9 933.44 Z" fill="#000000" fill-rule="nonzero" fill-opacity="1" /><path clip-path="url(#clip470)" d="M1522.97 907.838 Q1519.36 907.838 1517.53 911.403 Q1515.73 914.945 1515.73 922.074 Q1515.73 929.181 1517.53 932.746 Q1519.36 936.287 1522.97 936.287 Q1526.61 936.287 1528.41 932.746 Q1530.24 929.181 1530.24 922.074 Q1530.24 914.945 1528.41 911.403 Q1526.61 907.838 1522.97 907.838 M1522.97 904.135 Q1528.78 904.135 1531.84 908.741 Q1534.92 913.325 1534.92 922.074 Q1534.92 930.801 1531.84 935.408 Q1528.78 939.991 1522.97 939.991 Q1517.16 939.991 1514.08 935.408 Q1511.03 930.801 1511.03 922.074 Q1511.03 913.325 1514.08 908.741 Q1517.16 904.135 1522.97 904.135 Z" fill="#000000" fill-rule="nonzero" fill-opacity="1" /><path clip-path="url(#clip470)" d="M1543.62 933.44 L1548.51 933.44 L1548.51 937.422 L1544.71 944.829 L1541.72 944.829 L1543.62 937.422 L1543.62 933.44 Z" fill="#000000" fill-rule="nonzero" fill-opacity="1" /><path clip-path="url(#clip470)" d="M1576.89 906.033 L1576.89 913.394 L1585.66 913.394 L1585.66 916.704 L1576.89 916.704 L1576.89 930.778 Q1576.89 933.949 1577.74 934.852 Q1578.62 935.755 1581.28 935.755 L1585.66 935.755 L1585.66 939.32 L1581.28 939.32 Q1576.35 939.32 1574.48 937.491 Q1572.6 935.639 1572.6 930.778 L1572.6 916.704 L1569.48 916.704 L1569.48 913.394 L1572.6 913.394 L1572.6 906.033 L1576.89 906.033 Z" fill="#000000" fill-rule="nonzero" fill-opacity="1" /><path clip-path="url(#clip470)" d="M1591.26 913.394 L1595.52 913.394 L1595.52 939.32 L1591.26 939.32 L1591.26 913.394 M1591.26 903.301 L1595.52 903.301 L1595.52 908.695 L1591.26 908.695 L1591.26 903.301 Z" fill="#000000" fill-rule="nonzero" fill-opacity="1" /><path clip-path="url(#clip470)" d="M1624.62 918.371 Q1626.21 915.5 1628.44 914.135 Q1630.66 912.769 1633.67 912.769 Q1637.72 912.769 1639.92 915.616 Q1642.12 918.44 1642.12 923.672 L1642.12 939.32 L1637.83 939.32 L1637.83 923.811 Q1637.83 920.084 1636.51 918.278 Q1635.2 916.473 1632.49 916.473 Q1629.18 916.473 1627.26 918.672 Q1625.33 920.871 1625.33 924.667 L1625.33 939.32 L1621.05 939.32 L1621.05 923.811 Q1621.05 920.061 1619.73 918.278 Q1618.41 916.473 1615.66 916.473 Q1612.39 916.473 1610.47 918.695 Q1608.55 920.894 1608.55 924.667 L1608.55 939.32 L1604.27 939.32 L1604.27 913.394 L1608.55 913.394 L1608.55 917.422 Q1610.01 915.037 1612.05 913.903 Q1614.08 912.769 1616.88 912.769 Q1619.71 912.769 1621.68 914.204 Q1623.67 915.639 1624.62 918.371 Z" fill="#000000" fill-rule="nonzero" fill-opacity="1" /><path clip-path="url(#clip470)" d="M1672.79 925.292 L1672.79 927.375 L1653.2 927.375 Q1653.48 931.773 1655.84 934.088 Q1658.23 936.38 1662.46 936.38 Q1664.92 936.38 1667.21 935.778 Q1669.52 935.176 1671.79 933.973 L1671.79 938 Q1669.5 938.973 1667.09 939.482 Q1664.69 939.991 1662.21 939.991 Q1656.01 939.991 1652.37 936.38 Q1648.76 932.769 1648.76 926.611 Q1648.76 920.246 1652.19 916.519 Q1655.63 912.769 1661.47 912.769 Q1666.7 912.769 1669.73 916.149 Q1672.79 919.505 1672.79 925.292 M1668.53 924.042 Q1668.48 920.547 1666.56 918.463 Q1664.66 916.38 1661.51 916.38 Q1657.95 916.38 1655.8 918.394 Q1653.67 920.408 1653.34 924.065 L1668.53 924.042 Z" fill="#000000" fill-rule="nonzero" fill-opacity="1" /><path clip-path="url(#clip470)" d="M1695.4 917.792 L1725.08 917.792 L1725.08 921.681 L1695.4 921.681 L1695.4 917.792 M1695.4 927.236 L1725.08 927.236 L1725.08 931.172 L1695.4 931.172 L1695.4 927.236 Z" fill="#000000" fill-rule="nonzero" fill-opacity="1" /><path clip-path="url(#clip470)" d="M1760.24 907.838 Q1756.63 907.838 1754.8 911.403 Q1753 914.945 1753 922.074 Q1753 929.181 1754.8 932.746 Q1756.63 936.287 1760.24 936.287 Q1763.87 936.287 1765.68 932.746 Q1767.51 929.181 1767.51 922.074 Q1767.51 914.945 1765.68 911.403 Q1763.87 907.838 1760.24 907.838 M1760.24 904.135 Q1766.05 904.135 1769.11 908.741 Q1772.19 913.325 1772.19 922.074 Q1772.19 930.801 1769.11 935.408 Q1766.05 939.991 1760.24 939.991 Q1754.43 939.991 1751.35 935.408 Q1748.3 930.801 1748.3 922.074 Q1748.3 913.325 1751.35 908.741 Q1754.43 904.135 1760.24 904.135 Z" fill="#000000" fill-rule="nonzero" fill-opacity="1" /><path clip-path="url(#clip470)" d="M1780.4 933.44 L1785.29 933.44 L1785.29 939.32 L1780.4 939.32 L1780.4 933.44 Z" fill="#000000" fill-rule="nonzero" fill-opacity="1" /><path clip-path="url(#clip470)" d="M1796.28 935.385 L1803.92 935.385 L1803.92 909.019 L1795.61 910.686 L1795.61 906.426 L1803.87 904.76 L1808.55 904.76 L1808.55 935.385 L1816.19 935.385 L1816.19 939.32 L1796.28 939.32 L1796.28 935.385 Z" fill="#000000" fill-rule="nonzero" fill-opacity="1" /><path clip-path="url(#clip470)" d="M1825.68 904.76 L1844.04 904.76 L1844.04 908.695 L1829.96 908.695 L1829.96 917.167 Q1830.98 916.82 1832 916.658 Q1833.02 916.473 1834.04 916.473 Q1839.82 916.473 1843.2 919.644 Q1846.58 922.815 1846.58 928.232 Q1846.58 933.811 1843.11 936.912 Q1839.64 939.991 1833.32 939.991 Q1831.14 939.991 1828.87 939.621 Q1826.63 939.25 1824.22 938.51 L1824.22 933.811 Q1826.31 934.945 1828.53 935.5 Q1830.75 936.056 1833.23 936.056 Q1837.23 936.056 1839.57 933.949 Q1841.91 931.843 1841.91 928.232 Q1841.91 924.621 1839.57 922.514 Q1837.23 920.408 1833.23 920.408 Q1831.35 920.408 1829.48 920.824 Q1827.62 921.241 1825.68 922.121 L1825.68 904.76 Z" fill="#000000" fill-rule="nonzero" fill-opacity="1" /><path clip-path="url(#clip470)" d="M1859.82 935.385 L1876.14 935.385 L1876.14 939.32 L1854.2 939.32 L1854.2 935.385 Q1856.86 932.63 1861.44 928 Q1866.05 923.348 1867.23 922.005 Q1869.48 919.482 1870.36 917.746 Q1871.26 915.987 1871.26 914.297 Q1871.26 911.542 1869.31 909.806 Q1867.39 908.07 1864.29 908.07 Q1862.09 908.07 1859.64 908.834 Q1857.21 909.598 1854.43 911.149 L1854.43 906.426 Q1857.25 905.292 1859.71 904.713 Q1862.16 904.135 1864.2 904.135 Q1869.57 904.135 1872.76 906.82 Q1875.96 909.505 1875.96 913.996 Q1875.96 916.125 1875.15 918.047 Q1874.36 919.945 1872.25 922.537 Q1871.68 923.209 1868.57 926.426 Q1865.47 929.621 1859.82 935.385 Z" fill="#000000" fill-rule="nonzero" fill-opacity="1" /><polyline clip-path="url(#clip470)" style="stroke:#c271d2; stroke-linecap:round; stroke-linejoin:round; stroke-width:8; stroke-opacity:1; fill:none" points="1233.73,973.88 1347.61,973.88 "/>
<path clip-path="url(#clip470)" d="M1381.45 986.438 Q1382.28 987.549 1384.78 987.549 L1386.84 987.549 L1386.84 991.16 L1384.27 991.16 Q1380.1 991.16 1378.21 988.938 Q1376.31 986.669 1376.31 981.762 L1376.31 969.493 L1366.59 969.493 L1366.59 965.234 L1390.5 965.234 L1390.5 969.493 L1380.66 969.493 L1380.66 982.016 Q1380.66 985.373 1381.45 986.438 Z" fill="#000000" fill-rule="nonzero" fill-opacity="1" /><path clip-path="url(#clip470)" d="M1412.9 969.632 L1442.58 969.632 L1442.58 973.521 L1412.9 973.521 L1412.9 969.632 M1412.9 979.076 L1442.58 979.076 L1442.58 983.012 L1412.9 983.012 L1412.9 979.076 Z" fill="#000000" fill-rule="nonzero" fill-opacity="1" /><path clip-path="url(#clip470)" d="M1477.74 959.678 Q1474.13 959.678 1472.3 963.243 Q1470.5 966.785 1470.5 973.914 Q1470.5 981.021 1472.3 984.586 Q1474.13 988.127 1477.74 988.127 Q1481.38 988.127 1483.18 984.586 Q1485.01 981.021 1485.01 973.914 Q1485.01 966.785 1483.18 963.243 Q1481.38 959.678 1477.74 959.678 M1477.74 955.975 Q1483.55 955.975 1486.61 960.581 Q1489.69 965.165 1489.69 973.914 Q1489.69 982.641 1486.61 987.248 Q1483.55 991.831 1477.74 991.831 Q1471.93 991.831 1468.85 987.248 Q1465.8 982.641 1465.8 973.914 Q1465.8 965.165 1468.85 960.581 Q1471.93 955.975 1477.74 955.975 Z" fill="#000000" fill-rule="nonzero" fill-opacity="1" /><path clip-path="url(#clip470)" d="M1497.9 985.28 L1502.79 985.28 L1502.79 991.16 L1497.9 991.16 L1497.9 985.28 Z" fill="#000000" fill-rule="nonzero" fill-opacity="1" /><path clip-path="url(#clip470)" d="M1517 987.225 L1533.32 987.225 L1533.32 991.16 L1511.38 991.16 L1511.38 987.225 Q1514.04 984.47 1518.62 979.84 Q1523.23 975.188 1524.41 973.845 Q1526.65 971.322 1527.53 969.586 Q1528.44 967.827 1528.44 966.137 Q1528.44 963.382 1526.49 961.646 Q1524.57 959.91 1521.47 959.91 Q1519.27 959.91 1516.82 960.674 Q1514.39 961.438 1511.61 962.989 L1511.61 958.266 Q1514.43 957.132 1516.89 956.553 Q1519.34 955.975 1521.38 955.975 Q1526.75 955.975 1529.94 958.66 Q1533.14 961.345 1533.14 965.836 Q1533.14 967.965 1532.33 969.887 Q1531.54 971.785 1529.43 974.377 Q1528.85 975.049 1525.75 978.266 Q1522.65 981.461 1517 987.225 Z" fill="#000000" fill-rule="nonzero" fill-opacity="1" /><path clip-path="url(#clip470)" d="M1543.18 956.6 L1561.54 956.6 L1561.54 960.535 L1547.46 960.535 L1547.46 969.007 Q1548.48 968.66 1549.5 968.498 Q1550.52 968.313 1551.54 968.313 Q1557.33 968.313 1560.7 971.484 Q1564.08 974.655 1564.08 980.072 Q1564.08 985.651 1560.61 988.752 Q1557.14 991.831 1550.82 991.831 Q1548.64 991.831 1546.38 991.461 Q1544.13 991.09 1541.72 990.35 L1541.72 985.651 Q1543.81 986.785 1546.03 987.34 Q1548.25 987.896 1550.73 987.896 Q1554.73 987.896 1557.07 985.789 Q1559.41 983.683 1559.41 980.072 Q1559.41 976.461 1557.07 974.354 Q1554.73 972.248 1550.73 972.248 Q1548.85 972.248 1546.98 972.664 Q1545.13 973.081 1543.18 973.961 L1543.18 956.6 Z" fill="#000000" fill-rule="nonzero" fill-opacity="1" /><path clip-path="url(#clip470)" d="M1573.78 985.28 L1578.67 985.28 L1578.67 989.262 L1574.87 996.669 L1571.89 996.669 L1573.78 989.262 L1573.78 985.28 Z" fill="#000000" fill-rule="nonzero" fill-opacity="1" /><path clip-path="url(#clip470)" d="M1607.05 957.873 L1607.05 965.234 L1615.82 965.234 L1615.82 968.544 L1607.05 968.544 L1607.05 982.618 Q1607.05 985.789 1607.9 986.692 Q1608.78 987.595 1611.45 987.595 L1615.82 987.595 L1615.82 991.16 L1611.45 991.16 Q1606.51 991.16 1604.64 989.331 Q1602.76 987.479 1602.76 982.618 L1602.76 968.544 L1599.64 968.544 L1599.64 965.234 L1602.76 965.234 L1602.76 957.873 L1607.05 957.873 Z" fill="#000000" fill-rule="nonzero" fill-opacity="1" /><path clip-path="url(#clip470)" d="M1621.42 965.234 L1625.68 965.234 L1625.68 991.16 L1621.42 991.16 L1621.42 965.234 M1621.42 955.141 L1625.68 955.141 L1625.68 960.535 L1621.42 960.535 L1621.42 955.141 Z" fill="#000000" fill-rule="nonzero" fill-opacity="1" /><path clip-path="url(#clip470)" d="M1654.78 970.211 Q1656.38 967.34 1658.6 965.975 Q1660.82 964.609 1663.83 964.609 Q1667.88 964.609 1670.08 967.456 Q1672.28 970.28 1672.28 975.512 L1672.28 991.16 L1668 991.16 L1668 975.651 Q1668 971.924 1666.68 970.118 Q1665.36 968.313 1662.65 968.313 Q1659.34 968.313 1657.42 970.512 Q1655.5 972.711 1655.5 976.507 L1655.5 991.16 L1651.21 991.16 L1651.21 975.651 Q1651.21 971.901 1649.89 970.118 Q1648.57 968.313 1645.82 968.313 Q1642.56 968.313 1640.63 970.535 Q1638.71 972.734 1638.71 976.507 L1638.71 991.16 L1634.43 991.16 L1634.43 965.234 L1638.71 965.234 L1638.71 969.262 Q1640.17 966.877 1642.21 965.743 Q1644.25 964.609 1647.05 964.609 Q1649.87 964.609 1651.84 966.044 Q1653.83 967.479 1654.78 970.211 Z" fill="#000000" fill-rule="nonzero" fill-opacity="1" /><path clip-path="url(#clip470)" d="M1702.95 977.132 L1702.95 979.215 L1683.37 979.215 Q1683.64 983.613 1686 985.928 Q1688.39 988.22 1692.63 988.22 Q1695.08 988.22 1697.37 987.618 Q1699.69 987.016 1701.95 985.813 L1701.95 989.84 Q1699.66 990.813 1697.25 991.322 Q1694.85 991.831 1692.37 991.831 Q1686.17 991.831 1682.53 988.22 Q1678.92 984.609 1678.92 978.451 Q1678.92 972.086 1682.35 968.359 Q1685.8 964.609 1691.63 964.609 Q1696.86 964.609 1699.89 967.989 Q1702.95 971.345 1702.95 977.132 M1698.69 975.882 Q1698.64 972.387 1696.72 970.303 Q1694.82 968.22 1691.68 968.22 Q1688.11 968.22 1685.96 970.234 Q1683.83 972.248 1683.5 975.905 L1698.69 975.882 Z" fill="#000000" fill-rule="nonzero" fill-opacity="1" /><path clip-path="url(#clip470)" d="M1725.56 969.632 L1755.24 969.632 L1755.24 973.521 L1725.56 973.521 L1725.56 969.632 M1725.56 979.076 L1755.24 979.076 L1755.24 983.012 L1725.56 983.012 L1725.56 979.076 Z" fill="#000000" fill-rule="nonzero" fill-opacity="1" /><path clip-path="url(#clip470)" d="M1790.4 959.678 Q1786.79 959.678 1784.96 963.243 Q1783.16 966.785 1783.16 973.914 Q1783.16 981.021 1784.96 984.586 Q1786.79 988.127 1790.4 988.127 Q1794.04 988.127 1795.84 984.586 Q1797.67 981.021 1797.67 973.914 Q1797.67 966.785 1795.84 963.243 Q1794.04 959.678 1790.4 959.678 M1790.4 955.975 Q1796.21 955.975 1799.27 960.581 Q1802.35 965.165 1802.35 973.914 Q1802.35 982.641 1799.27 987.248 Q1796.21 991.831 1790.4 991.831 Q1784.59 991.831 1781.51 987.248 Q1778.46 982.641 1778.46 973.914 Q1778.46 965.165 1781.51 960.581 Q1784.59 955.975 1790.4 955.975 Z" fill="#000000" fill-rule="nonzero" fill-opacity="1" /><path clip-path="url(#clip470)" d="M1810.56 985.28 L1815.45 985.28 L1815.45 991.16 L1810.56 991.16 L1810.56 985.28 Z" fill="#000000" fill-rule="nonzero" fill-opacity="1" /><path clip-path="url(#clip470)" d="M1829.66 987.225 L1845.98 987.225 L1845.98 991.16 L1824.04 991.16 L1824.04 987.225 Q1826.7 984.47 1831.28 979.84 Q1835.89 975.188 1837.07 973.845 Q1839.31 971.322 1840.19 969.586 Q1841.1 967.827 1841.1 966.137 Q1841.1 963.382 1839.15 961.646 Q1837.23 959.91 1834.13 959.91 Q1831.93 959.91 1829.48 960.674 Q1827.05 961.438 1824.27 962.989 L1824.27 958.266 Q1827.09 957.132 1829.55 956.553 Q1832 955.975 1834.04 955.975 Q1839.41 955.975 1842.6 958.66 Q1845.8 961.345 1845.8 965.836 Q1845.8 967.965 1844.99 969.887 Q1844.2 971.785 1842.09 974.377 Q1841.51 975.049 1838.41 978.266 Q1835.31 981.461 1829.66 987.225 Z" fill="#000000" fill-rule="nonzero" fill-opacity="1" /><polyline clip-path="url(#clip470)" style="stroke:#ac8d18; stroke-linecap:round; stroke-linejoin:round; stroke-width:8; stroke-opacity:1; fill:none" points="1233.73,1025.72 1347.61,1025.72 "/>
<path clip-path="url(#clip470)" d="M1381.45 1038.28 Q1382.28 1039.39 1384.78 1039.39 L1386.84 1039.39 L1386.84 1043 L1384.27 1043 Q1380.1 1043 1378.21 1040.78 Q1376.31 1038.51 1376.31 1033.6 L1376.31 1021.33 L1366.59 1021.33 L1366.59 1017.07 L1390.5 1017.07 L1390.5 1021.33 L1380.66 1021.33 L1380.66 1033.86 Q1380.66 1037.21 1381.45 1038.28 Z" fill="#000000" fill-rule="nonzero" fill-opacity="1" /><path clip-path="url(#clip470)" d="M1412.9 1021.47 L1442.58 1021.47 L1442.58 1025.36 L1412.9 1025.36 L1412.9 1021.47 M1412.9 1030.92 L1442.58 1030.92 L1442.58 1034.85 L1412.9 1034.85 L1412.9 1030.92 Z" fill="#000000" fill-rule="nonzero" fill-opacity="1" /><path clip-path="url(#clip470)" d="M1477.74 1011.52 Q1474.13 1011.52 1472.3 1015.08 Q1470.5 1018.62 1470.5 1025.75 Q1470.5 1032.86 1472.3 1036.43 Q1474.13 1039.97 1477.74 1039.97 Q1481.38 1039.97 1483.18 1036.43 Q1485.01 1032.86 1485.01 1025.75 Q1485.01 1018.62 1483.18 1015.08 Q1481.38 1011.52 1477.74 1011.52 M1477.74 1007.81 Q1483.55 1007.81 1486.61 1012.42 Q1489.69 1017 1489.69 1025.75 Q1489.69 1034.48 1486.61 1039.09 Q1483.55 1043.67 1477.74 1043.67 Q1471.93 1043.67 1468.85 1039.09 Q1465.8 1034.48 1465.8 1025.75 Q1465.8 1017 1468.85 1012.42 Q1471.93 1007.81 1477.74 1007.81 Z" fill="#000000" fill-rule="nonzero" fill-opacity="1" /><path clip-path="url(#clip470)" d="M1497.9 1037.12 L1502.79 1037.12 L1502.79 1043 L1497.9 1043 L1497.9 1037.12 Z" fill="#000000" fill-rule="nonzero" fill-opacity="1" /><path clip-path="url(#clip470)" d="M1513.78 1039.06 L1521.42 1039.06 L1521.42 1012.7 L1513.11 1014.37 L1513.11 1010.11 L1521.38 1008.44 L1526.05 1008.44 L1526.05 1039.06 L1533.69 1039.06 L1533.69 1043 L1513.78 1043 L1513.78 1039.06 Z" fill="#000000" fill-rule="nonzero" fill-opacity="1" /><path clip-path="url(#clip470)" d="M1543.62 1037.12 L1548.51 1037.12 L1548.51 1041.1 L1544.71 1048.51 L1541.72 1048.51 L1543.62 1041.1 L1543.62 1037.12 Z" fill="#000000" fill-rule="nonzero" fill-opacity="1" /><path clip-path="url(#clip470)" d="M1576.89 1009.71 L1576.89 1017.07 L1585.66 1017.07 L1585.66 1020.38 L1576.89 1020.38 L1576.89 1034.46 Q1576.89 1037.63 1577.74 1038.53 Q1578.62 1039.43 1581.28 1039.43 L1585.66 1039.43 L1585.66 1043 L1581.28 1043 Q1576.35 1043 1574.48 1041.17 Q1572.6 1039.32 1572.6 1034.46 L1572.6 1020.38 L1569.48 1020.38 L1569.48 1017.07 L1572.6 1017.07 L1572.6 1009.71 L1576.89 1009.71 Z" fill="#000000" fill-rule="nonzero" fill-opacity="1" /><path clip-path="url(#clip470)" d="M1591.26 1017.07 L1595.52 1017.07 L1595.52 1043 L1591.26 1043 L1591.26 1017.07 M1591.26 1006.98 L1595.52 1006.98 L1595.52 1012.37 L1591.26 1012.37 L1591.26 1006.98 Z" fill="#000000" fill-rule="nonzero" fill-opacity="1" /><path clip-path="url(#clip470)" d="M1624.62 1022.05 Q1626.21 1019.18 1628.44 1017.81 Q1630.66 1016.45 1633.67 1016.45 Q1637.72 1016.45 1639.92 1019.3 Q1642.12 1022.12 1642.12 1027.35 L1642.12 1043 L1637.83 1043 L1637.83 1027.49 Q1637.83 1023.76 1636.51 1021.96 Q1635.2 1020.15 1632.49 1020.15 Q1629.18 1020.15 1627.26 1022.35 Q1625.33 1024.55 1625.33 1028.35 L1625.33 1043 L1621.05 1043 L1621.05 1027.49 Q1621.05 1023.74 1619.73 1021.96 Q1618.41 1020.15 1615.66 1020.15 Q1612.39 1020.15 1610.47 1022.37 Q1608.55 1024.57 1608.55 1028.35 L1608.55 1043 L1604.27 1043 L1604.27 1017.07 L1608.55 1017.07 L1608.55 1021.1 Q1610.01 1018.72 1612.05 1017.58 Q1614.08 1016.45 1616.88 1016.45 Q1619.71 1016.45 1621.68 1017.88 Q1623.67 1019.32 1624.62 1022.05 Z" fill="#000000" fill-rule="nonzero" fill-opacity="1" /><path clip-path="url(#clip470)" d="M1672.79 1028.97 L1672.79 1031.06 L1653.2 1031.06 Q1653.48 1035.45 1655.84 1037.77 Q1658.23 1040.06 1662.46 1040.06 Q1664.92 1040.06 1667.21 1039.46 Q1669.52 1038.86 1671.79 1037.65 L1671.79 1041.68 Q1669.5 1042.65 1667.09 1043.16 Q1664.69 1043.67 1662.21 1043.67 Q1656.01 1043.67 1652.37 1040.06 Q1648.76 1036.45 1648.76 1030.29 Q1648.76 1023.93 1652.19 1020.2 Q1655.63 1016.45 1661.47 1016.45 Q1666.7 1016.45 1669.73 1019.83 Q1672.79 1023.19 1672.79 1028.97 M1668.53 1027.72 Q1668.48 1024.23 1666.56 1022.14 Q1664.66 1020.06 1661.51 1020.06 Q1657.95 1020.06 1655.8 1022.07 Q1653.67 1024.09 1653.34 1027.75 L1668.53 1027.72 Z" fill="#000000" fill-rule="nonzero" fill-opacity="1" /><path clip-path="url(#clip470)" d="M1695.4 1021.47 L1725.08 1021.47 L1725.08 1025.36 L1695.4 1025.36 L1695.4 1021.47 M1695.4 1030.92 L1725.08 1030.92 L1725.08 1034.85 L1695.4 1034.85 L1695.4 1030.92 Z" fill="#000000" fill-rule="nonzero" fill-opacity="1" /><path clip-path="url(#clip470)" d="M1760.24 1011.52 Q1756.63 1011.52 1754.8 1015.08 Q1753 1018.62 1753 1025.75 Q1753 1032.86 1754.8 1036.43 Q1756.63 1039.97 1760.24 1039.97 Q1763.87 1039.97 1765.68 1036.43 Q1767.51 1032.86 1767.51 1025.75 Q1767.51 1018.62 1765.68 1015.08 Q1763.87 1011.52 1760.24 1011.52 M1760.24 1007.81 Q1766.05 1007.81 1769.11 1012.42 Q1772.19 1017 1772.19 1025.75 Q1772.19 1034.48 1769.11 1039.09 Q1766.05 1043.67 1760.24 1043.67 Q1754.43 1043.67 1751.35 1039.09 Q1748.3 1034.48 1748.3 1025.75 Q1748.3 1017 1751.35 1012.42 Q1754.43 1007.81 1760.24 1007.81 Z" fill="#000000" fill-rule="nonzero" fill-opacity="1" /><path clip-path="url(#clip470)" d="M1780.4 1037.12 L1785.29 1037.12 L1785.29 1043 L1780.4 1043 L1780.4 1037.12 Z" fill="#000000" fill-rule="nonzero" fill-opacity="1" /><path clip-path="url(#clip470)" d="M1799.5 1039.06 L1815.82 1039.06 L1815.82 1043 L1793.87 1043 L1793.87 1039.06 Q1796.54 1036.31 1801.12 1031.68 Q1805.73 1027.03 1806.91 1025.69 Q1809.15 1023.16 1810.03 1021.43 Q1810.93 1019.67 1810.93 1017.98 Q1810.93 1015.22 1808.99 1013.49 Q1807.07 1011.75 1803.97 1011.75 Q1801.77 1011.75 1799.31 1012.51 Q1796.88 1013.28 1794.11 1014.83 L1794.11 1010.11 Q1796.93 1008.97 1799.38 1008.39 Q1801.84 1007.81 1803.87 1007.81 Q1809.25 1007.81 1812.44 1010.5 Q1815.63 1013.19 1815.63 1017.68 Q1815.63 1019.81 1814.82 1021.73 Q1814.04 1023.62 1811.93 1026.22 Q1811.35 1026.89 1808.25 1030.11 Q1805.15 1033.3 1799.5 1039.06 Z" fill="#000000" fill-rule="nonzero" fill-opacity="1" /><path clip-path="url(#clip470)" d="M1835.63 1026.59 Q1832.3 1026.59 1830.38 1028.37 Q1828.48 1030.15 1828.48 1033.28 Q1828.48 1036.4 1830.38 1038.18 Q1832.3 1039.97 1835.63 1039.97 Q1838.97 1039.97 1840.89 1038.18 Q1842.81 1036.38 1842.81 1033.28 Q1842.81 1030.15 1840.89 1028.37 Q1838.99 1026.59 1835.63 1026.59 M1830.96 1024.6 Q1827.95 1023.86 1826.26 1021.8 Q1824.59 1019.74 1824.59 1016.77 Q1824.59 1012.63 1827.53 1010.22 Q1830.49 1007.81 1835.63 1007.81 Q1840.8 1007.81 1843.74 1010.22 Q1846.68 1012.63 1846.68 1016.77 Q1846.68 1019.74 1844.99 1021.8 Q1843.32 1023.86 1840.33 1024.6 Q1843.71 1025.38 1845.59 1027.68 Q1847.49 1029.97 1847.49 1033.28 Q1847.49 1038.3 1844.41 1040.99 Q1841.35 1043.67 1835.63 1043.67 Q1829.92 1043.67 1826.84 1040.99 Q1823.78 1038.3 1823.78 1033.28 Q1823.78 1029.97 1825.68 1027.68 Q1827.58 1025.38 1830.96 1024.6 M1829.24 1017.21 Q1829.24 1019.9 1830.91 1021.4 Q1832.6 1022.91 1835.63 1022.91 Q1838.64 1022.91 1840.33 1021.4 Q1842.05 1019.9 1842.05 1017.21 Q1842.05 1014.53 1840.33 1013.02 Q1838.64 1011.52 1835.63 1011.52 Q1832.6 1011.52 1830.91 1013.02 Q1829.24 1014.53 1829.24 1017.21 Z" fill="#000000" fill-rule="nonzero" fill-opacity="1" /><path clip-path="url(#clip470)" d="M1855.84 1008.44 L1874.2 1008.44 L1874.2 1012.37 L1860.12 1012.37 L1860.12 1020.85 Q1861.14 1020.5 1862.16 1020.34 Q1863.18 1020.15 1864.2 1020.15 Q1869.99 1020.15 1873.37 1023.32 Q1876.74 1026.5 1876.74 1031.91 Q1876.74 1037.49 1873.27 1040.59 Q1869.8 1043.67 1863.48 1043.67 Q1861.3 1043.67 1859.04 1043.3 Q1856.79 1042.93 1854.38 1042.19 L1854.38 1037.49 Q1856.47 1038.62 1858.69 1039.18 Q1860.91 1039.74 1863.39 1039.74 Q1867.39 1039.74 1869.73 1037.63 Q1872.07 1035.52 1872.07 1031.91 Q1872.07 1028.3 1869.73 1026.19 Q1867.39 1024.09 1863.39 1024.09 Q1861.51 1024.09 1859.64 1024.5 Q1857.79 1024.92 1855.84 1025.8 L1855.84 1008.44 Z" fill="#000000" fill-rule="nonzero" fill-opacity="1" /></svg>
