<?xml version="1.0" encoding="utf-8"?>
<svg xmlns="http://www.w3.org/2000/svg" xmlns:xlink="http://www.w3.org/1999/xlink" width="500" height="320" viewBox="0 0 2000 1280">
<defs>
  <clipPath id="clip380">
    <rect x="0" y="0" width="2000" height="1280"/>
  </clipPath>
</defs>
<path clip-path="url(#clip380)" d="M0 1280 L2000 1280 L2000 -2.66454e-14 L0 -2.66454e-14  Z" fill="#ffffff" fill-rule="evenodd" fill-opacity="1"/>
<defs>
  <clipPath id="clip381">
    <rect x="400" y="0" width="1401" height="1280"/>
  </clipPath>
</defs>
<path clip-path="url(#clip380)" d="M185.496 1171.03 L1952.76 1171.03 L1952.76 107.256 L185.496 107.256  Z" fill="#ffffff" fill-rule="evenodd" fill-opacity="1"/>
<defs>
  <clipPath id="clip382">
    <rect x="185" y="107" width="1768" height="1065"/>
  </clipPath>
</defs>
<polyline clip-path="url(#clip382)" style="stroke:#000000; stroke-linecap:round; stroke-linejoin:round; stroke-width:2; stroke-opacity:0.1; fill:none" points="235.513,1171.03 235.513,107.256 "/>
<polyline clip-path="url(#clip382)" style="stroke:#000000; stroke-linecap:round; stroke-linejoin:round; stroke-width:2; stroke-opacity:0.1; fill:none" points="482.509,1171.03 482.509,107.256 "/>
<polyline clip-path="url(#clip382)" style="stroke:#000000; stroke-linecap:round; stroke-linejoin:round; stroke-width:2; stroke-opacity:0.1; fill:none" points="729.506,1171.03 729.506,107.256 "/>
<polyline clip-path="url(#clip382)" style="stroke:#000000; stroke-linecap:round; stroke-linejoin:round; stroke-width:2; stroke-opacity:0.1; fill:none" points="976.502,1171.03 976.502,107.256 "/>
<polyline clip-path="url(#clip382)" style="stroke:#000000; stroke-linecap:round; stroke-linejoin:round; stroke-width:2; stroke-opacity:0.1; fill:none" points="1223.5,1171.03 1223.5,107.256 "/>
<polyline clip-path="url(#clip382)" style="stroke:#000000; stroke-linecap:round; stroke-linejoin:round; stroke-width:2; stroke-opacity:0.1; fill:none" points="1470.5,1171.03 1470.5,107.256 "/>
<polyline clip-path="url(#clip382)" style="stroke:#000000; stroke-linecap:round; stroke-linejoin:round; stroke-width:2; stroke-opacity:0.1; fill:none" points="1717.49,1171.03 1717.49,107.256 "/>
<polyline clip-path="url(#clip382)" style="stroke:#000000; stroke-linecap:round; stroke-linejoin:round; stroke-width:2; stroke-opacity:0.1; fill:none" points="185.496,1090.62 1952.76,1090.62 "/>
<polyline clip-path="url(#clip382)" style="stroke:#000000; stroke-linecap:round; stroke-linejoin:round; stroke-width:2; stroke-opacity:0.1; fill:none" points="185.496,852.308 1952.76,852.308 "/>
<polyline clip-path="url(#clip382)" style="stroke:#000000; stroke-linecap:round; stroke-linejoin:round; stroke-width:2; stroke-opacity:0.1; fill:none" points="185.496,613.993 1952.76,613.993 "/>
<polyline clip-path="url(#clip382)" style="stroke:#000000; stroke-linecap:round; stroke-linejoin:round; stroke-width:2; stroke-opacity:0.1; fill:none" points="185.496,375.678 1952.76,375.678 "/>
<polyline clip-path="url(#clip382)" style="stroke:#000000; stroke-linecap:round; stroke-linejoin:round; stroke-width:2; stroke-opacity:0.1; fill:none" points="185.496,137.363 1952.76,137.363 "/>
<polyline clip-path="url(#clip380)" style="stroke:#000000; stroke-linecap:round; stroke-linejoin:round; stroke-width:4; stroke-opacity:1; fill:none" points="185.496,1171.03 1952.76,1171.03 "/>
<polyline clip-path="url(#clip380)" style="stroke:#000000; stroke-linecap:round; stroke-linejoin:round; stroke-width:4; stroke-opacity:1; fill:none" points="235.513,1171.03 235.513,1152.13 "/>
<polyline clip-path="url(#clip380)" style="stroke:#000000; stroke-linecap:round; stroke-linejoin:round; stroke-width:4; stroke-opacity:1; fill:none" points="482.509,1171.03 482.509,1152.13 "/>
<polyline clip-path="url(#clip380)" style="stroke:#000000; stroke-linecap:round; stroke-linejoin:round; stroke-width:4; stroke-opacity:1; fill:none" points="729.506,1171.03 729.506,1152.13 "/>
<polyline clip-path="url(#clip380)" style="stroke:#000000; stroke-linecap:round; stroke-linejoin:round; stroke-width:4; stroke-opacity:1; fill:none" points="976.502,1171.03 976.502,1152.13 "/>
<polyline clip-path="url(#clip380)" style="stroke:#000000; stroke-linecap:round; stroke-linejoin:round; stroke-width:4; stroke-opacity:1; fill:none" points="1223.5,1171.03 1223.5,1152.13 "/>
<polyline clip-path="url(#clip380)" style="stroke:#000000; stroke-linecap:round; stroke-linejoin:round; stroke-width:4; stroke-opacity:1; fill:none" points="1470.5,1171.03 1470.5,1152.13 "/>
<polyline clip-path="url(#clip380)" style="stroke:#000000; stroke-linecap:round; stroke-linejoin:round; stroke-width:4; stroke-opacity:1; fill:none" points="1717.49,1171.03 1717.49,1152.13 "/>
<path clip-path="url(#clip380)" d="M235.513 1198.75 Q231.902 1198.75 230.073 1202.31 Q228.267 1205.86 228.267 1212.98 Q228.267 1220.09 230.073 1223.66 Q231.902 1227.2 235.513 1227.2 Q239.147 1227.2 240.952 1223.66 Q242.781 1220.09 242.781 1212.98 Q242.781 1205.86 240.952 1202.31 Q239.147 1198.75 235.513 1198.75 M235.513 1195.05 Q241.323 1195.05 244.378 1199.65 Q247.457 1204.24 247.457 1212.98 Q247.457 1221.71 244.378 1226.32 Q241.323 1230.9 235.513 1230.9 Q229.703 1230.9 226.624 1226.32 Q223.568 1221.71 223.568 1212.98 Q223.568 1204.24 226.624 1199.65 Q229.703 1195.05 235.513 1195.05 Z" fill="#000000" fill-rule="nonzero" fill-opacity="1" /><path clip-path="url(#clip380)" d="M461.282 1226.3 L477.602 1226.3 L477.602 1230.23 L455.658 1230.23 L455.658 1226.3 Q458.32 1223.54 462.903 1218.91 Q467.509 1214.26 468.69 1212.92 Q470.935 1210.39 471.815 1208.66 Q472.718 1206.9 472.718 1205.21 Q472.718 1202.45 470.773 1200.72 Q468.852 1198.98 465.75 1198.98 Q463.551 1198.98 461.097 1199.74 Q458.667 1200.51 455.889 1202.06 L455.889 1197.34 Q458.713 1196.2 461.167 1195.62 Q463.62 1195.05 465.657 1195.05 Q471.028 1195.05 474.222 1197.73 Q477.417 1200.42 477.417 1204.91 Q477.417 1207.04 476.606 1208.96 Q475.819 1210.86 473.713 1213.45 Q473.134 1214.12 470.032 1217.34 Q466.931 1220.53 461.282 1226.3 Z" fill="#000000" fill-rule="nonzero" fill-opacity="1" /><path clip-path="url(#clip380)" d="M497.417 1198.75 Q493.805 1198.75 491.977 1202.31 Q490.171 1205.86 490.171 1212.98 Q490.171 1220.09 491.977 1223.66 Q493.805 1227.2 497.417 1227.2 Q501.051 1227.2 502.856 1223.66 Q504.685 1220.09 504.685 1212.98 Q504.685 1205.86 502.856 1202.31 Q501.051 1198.75 497.417 1198.75 M497.417 1195.05 Q503.227 1195.05 506.282 1199.65 Q509.361 1204.24 509.361 1212.98 Q509.361 1221.71 506.282 1226.32 Q503.227 1230.9 497.417 1230.9 Q491.606 1230.9 488.528 1226.32 Q485.472 1221.71 485.472 1212.98 Q485.472 1204.24 488.528 1199.65 Q491.606 1195.05 497.417 1195.05 Z" fill="#000000" fill-rule="nonzero" fill-opacity="1" /><path clip-path="url(#clip380)" d="M717.677 1199.74 L705.872 1218.19 L717.677 1218.19 L717.677 1199.74 M716.45 1195.67 L722.33 1195.67 L722.33 1218.19 L727.26 1218.19 L727.26 1222.08 L722.33 1222.08 L722.33 1230.23 L717.677 1230.23 L717.677 1222.08 L702.075 1222.08 L702.075 1217.57 L716.45 1195.67 Z" fill="#000000" fill-rule="nonzero" fill-opacity="1" /><path clip-path="url(#clip380)" d="M744.992 1198.75 Q741.381 1198.75 739.552 1202.31 Q737.746 1205.86 737.746 1212.98 Q737.746 1220.09 739.552 1223.66 Q741.381 1227.2 744.992 1227.2 Q748.626 1227.2 750.432 1223.66 Q752.26 1220.09 752.26 1212.98 Q752.26 1205.86 750.432 1202.31 Q748.626 1198.75 744.992 1198.75 M744.992 1195.05 Q750.802 1195.05 753.857 1199.65 Q756.936 1204.24 756.936 1212.98 Q756.936 1221.71 753.857 1226.32 Q750.802 1230.9 744.992 1230.9 Q739.182 1230.9 736.103 1226.32 Q733.047 1221.71 733.047 1212.98 Q733.047 1204.24 736.103 1199.65 Q739.182 1195.05 744.992 1195.05 Z" fill="#000000" fill-rule="nonzero" fill-opacity="1" /><path clip-path="url(#clip380)" d="M961.907 1211.09 Q958.759 1211.09 956.907 1213.24 Q955.079 1215.39 955.079 1219.14 Q955.079 1222.87 956.907 1225.05 Q958.759 1227.2 961.907 1227.2 Q965.056 1227.2 966.884 1225.05 Q968.736 1222.87 968.736 1219.14 Q968.736 1215.39 966.884 1213.24 Q965.056 1211.09 961.907 1211.09 M971.19 1196.43 L971.19 1200.69 Q969.431 1199.86 967.625 1199.42 Q965.843 1198.98 964.083 1198.98 Q959.454 1198.98 957 1202.11 Q954.569 1205.23 954.222 1211.55 Q955.588 1209.54 957.648 1208.47 Q959.708 1207.38 962.185 1207.38 Q967.393 1207.38 970.403 1210.55 Q973.435 1213.7 973.435 1219.14 Q973.435 1224.47 970.287 1227.68 Q967.139 1230.9 961.907 1230.9 Q955.912 1230.9 952.741 1226.32 Q949.569 1221.71 949.569 1212.98 Q949.569 1204.79 953.458 1199.93 Q957.347 1195.05 963.898 1195.05 Q965.657 1195.05 967.44 1195.39 Q969.245 1195.74 971.19 1196.43 Z" fill="#000000" fill-rule="nonzero" fill-opacity="1" /><path clip-path="url(#clip380)" d="M991.491 1198.75 Q987.879 1198.75 986.051 1202.31 Q984.245 1205.86 984.245 1212.98 Q984.245 1220.09 986.051 1223.66 Q987.879 1227.2 991.491 1227.2 Q995.125 1227.2 996.93 1223.66 Q998.759 1220.09 998.759 1212.98 Q998.759 1205.86 996.93 1202.31 Q995.125 1198.75 991.491 1198.75 M991.491 1195.05 Q997.301 1195.05 1000.36 1199.65 Q1003.43 1204.24 1003.43 1212.98 Q1003.43 1221.71 1000.36 1226.32 Q997.301 1230.9 991.491 1230.9 Q985.68 1230.9 982.602 1226.32 Q979.546 1221.71 979.546 1212.98 Q979.546 1204.24 982.602 1199.65 Q985.68 1195.05 991.491 1195.05 Z" fill="#000000" fill-rule="nonzero" fill-opacity="1" /><path clip-path="url(#clip380)" d="M1208.37 1213.82 Q1205.04 1213.82 1203.12 1215.6 Q1201.22 1217.38 1201.22 1220.51 Q1201.22 1223.63 1203.12 1225.42 Q1205.04 1227.2 1208.37 1227.2 Q1211.7 1227.2 1213.63 1225.42 Q1215.55 1223.61 1215.55 1220.51 Q1215.55 1217.38 1213.63 1215.6 Q1211.73 1213.82 1208.37 1213.82 M1203.7 1211.83 Q1200.69 1211.09 1199 1209.03 Q1197.33 1206.97 1197.33 1204 Q1197.33 1199.86 1200.27 1197.45 Q1203.23 1195.05 1208.37 1195.05 Q1213.53 1195.05 1216.47 1197.45 Q1219.41 1199.86 1219.41 1204 Q1219.41 1206.97 1217.72 1209.03 Q1216.06 1211.09 1213.07 1211.83 Q1216.45 1212.61 1218.33 1214.91 Q1220.22 1217.2 1220.22 1220.51 Q1220.22 1225.53 1217.14 1228.22 Q1214.09 1230.9 1208.37 1230.9 Q1202.65 1230.9 1199.58 1228.22 Q1196.52 1225.53 1196.52 1220.51 Q1196.52 1217.2 1198.42 1214.91 Q1200.32 1212.61 1203.7 1211.83 M1201.98 1204.44 Q1201.98 1207.13 1203.65 1208.63 Q1205.34 1210.14 1208.37 1210.14 Q1211.38 1210.14 1213.07 1208.63 Q1214.78 1207.13 1214.78 1204.44 Q1214.78 1201.76 1213.07 1200.25 Q1211.38 1198.75 1208.37 1198.75 Q1205.34 1198.75 1203.65 1200.25 Q1201.98 1201.76 1201.98 1204.44 Z" fill="#000000" fill-rule="nonzero" fill-opacity="1" /><path clip-path="url(#clip380)" d="M1238.53 1198.75 Q1234.92 1198.75 1233.09 1202.31 Q1231.29 1205.86 1231.29 1212.98 Q1231.29 1220.09 1233.09 1223.66 Q1234.92 1227.2 1238.53 1227.2 Q1242.17 1227.2 1243.97 1223.66 Q1245.8 1220.09 1245.8 1212.98 Q1245.8 1205.86 1243.97 1202.31 Q1242.17 1198.75 1238.53 1198.75 M1238.53 1195.05 Q1244.34 1195.05 1247.4 1199.65 Q1250.48 1204.24 1250.48 1212.98 Q1250.48 1221.71 1247.4 1226.32 Q1244.34 1230.9 1238.53 1230.9 Q1232.72 1230.9 1229.64 1226.32 Q1226.59 1221.71 1226.59 1212.98 Q1226.59 1204.24 1229.64 1199.65 Q1232.72 1195.05 1238.53 1195.05 Z" fill="#000000" fill-rule="nonzero" fill-opacity="1" /><path clip-path="url(#clip380)" d="M1430.1 1226.3 L1437.74 1226.3 L1437.74 1199.93 L1429.43 1201.6 L1429.43 1197.34 L1437.69 1195.67 L1442.37 1195.67 L1442.37 1226.3 L1450.01 1226.3 L1450.01 1230.23 L1430.1 1230.23 L1430.1 1226.3 Z" fill="#000000" fill-rule="nonzero" fill-opacity="1" /><path clip-path="url(#clip380)" d="M1469.45 1198.75 Q1465.84 1198.75 1464.01 1202.31 Q1462.21 1205.86 1462.21 1212.98 Q1462.21 1220.09 1464.01 1223.66 Q1465.84 1227.2 1469.45 1227.2 Q1473.09 1227.2 1474.89 1223.66 Q1476.72 1220.09 1476.72 1212.98 Q1476.72 1205.86 1474.89 1202.31 Q1473.09 1198.75 1469.45 1198.75 M1469.45 1195.05 Q1475.26 1195.05 1478.32 1199.65 Q1481.4 1204.24 1481.4 1212.98 Q1481.4 1221.71 1478.32 1226.32 Q1475.26 1230.9 1469.45 1230.9 Q1463.64 1230.9 1460.56 1226.32 Q1457.51 1221.71 1457.51 1212.98 Q1457.51 1204.24 1460.56 1199.65 Q1463.64 1195.05 1469.45 1195.05 Z" fill="#000000" fill-rule="nonzero" fill-opacity="1" /><path clip-path="url(#clip380)" d="M1499.62 1198.75 Q1496 1198.75 1494.18 1202.31 Q1492.37 1205.86 1492.37 1212.98 Q1492.37 1220.09 1494.18 1223.66 Q1496 1227.2 1499.62 1227.2 Q1503.25 1227.2 1505.06 1223.66 Q1506.88 1220.09 1506.88 1212.98 Q1506.88 1205.86 1505.06 1202.31 Q1503.25 1198.75 1499.62 1198.75 M1499.62 1195.05 Q1505.43 1195.05 1508.48 1199.65 Q1511.56 1204.24 1511.56 1212.98 Q1511.56 1221.71 1508.48 1226.32 Q1505.43 1230.9 1499.62 1230.9 Q1493.81 1230.9 1490.73 1226.32 Q1487.67 1221.71 1487.67 1212.98 Q1487.67 1204.24 1490.73 1199.65 Q1493.81 1195.05 1499.62 1195.05 Z" fill="#000000" fill-rule="nonzero" fill-opacity="1" /><path clip-path="url(#clip380)" d="M1677.1 1226.3 L1684.74 1226.3 L1684.74 1199.93 L1676.43 1201.6 L1676.43 1197.34 L1684.69 1195.67 L1689.37 1195.67 L1689.37 1226.3 L1697.01 1226.3 L1697.01 1230.23 L1677.1 1230.23 L1677.1 1226.3 Z" fill="#000000" fill-rule="nonzero" fill-opacity="1" /><path clip-path="url(#clip380)" d="M1710.48 1226.3 L1726.8 1226.3 L1726.8 1230.23 L1704.85 1230.23 L1704.85 1226.3 Q1707.51 1223.54 1712.1 1218.91 Q1716.7 1214.26 1717.89 1212.92 Q1720.13 1210.39 1721.01 1208.66 Q1721.91 1206.9 1721.91 1205.21 Q1721.91 1202.45 1719.97 1200.72 Q1718.05 1198.98 1714.95 1198.98 Q1712.75 1198.98 1710.29 1199.74 Q1707.86 1200.51 1705.08 1202.06 L1705.08 1197.34 Q1707.91 1196.2 1710.36 1195.62 Q1712.82 1195.05 1714.85 1195.05 Q1720.22 1195.05 1723.42 1197.73 Q1726.61 1200.42 1726.61 1204.91 Q1726.61 1207.04 1725.8 1208.96 Q1725.01 1210.86 1722.91 1213.45 Q1722.33 1214.12 1719.23 1217.34 Q1716.13 1220.53 1710.48 1226.3 Z" fill="#000000" fill-rule="nonzero" fill-opacity="1" /><path clip-path="url(#clip380)" d="M1746.61 1198.75 Q1743 1198.75 1741.17 1202.31 Q1739.37 1205.86 1739.37 1212.98 Q1739.37 1220.09 1741.17 1223.66 Q1743 1227.2 1746.61 1227.2 Q1750.25 1227.2 1752.05 1223.66 Q1753.88 1220.09 1753.88 1212.98 Q1753.88 1205.86 1752.05 1202.31 Q1750.25 1198.75 1746.61 1198.75 M1746.61 1195.05 Q1752.42 1195.05 1755.48 1199.65 Q1758.56 1204.24 1758.56 1212.98 Q1758.56 1221.71 1755.48 1226.32 Q1752.42 1230.9 1746.61 1230.9 Q1740.8 1230.9 1737.72 1226.32 Q1734.67 1221.71 1734.67 1212.98 Q1734.67 1204.24 1737.72 1199.65 Q1740.8 1195.05 1746.61 1195.05 Z" fill="#000000" fill-rule="nonzero" fill-opacity="1" /><polyline clip-path="url(#clip380)" style="stroke:#000000; stroke-linecap:round; stroke-linejoin:round; stroke-width:4; stroke-opacity:1; fill:none" points="185.496,1171.03 185.496,107.256 "/>
<polyline clip-path="url(#clip380)" style="stroke:#000000; stroke-linecap:round; stroke-linejoin:round; stroke-width:4; stroke-opacity:1; fill:none" points="185.496,1090.62 204.394,1090.62 "/>
<polyline clip-path="url(#clip380)" style="stroke:#000000; stroke-linecap:round; stroke-linejoin:round; stroke-width:4; stroke-opacity:1; fill:none" points="185.496,852.308 204.394,852.308 "/>
<polyline clip-path="url(#clip380)" style="stroke:#000000; stroke-linecap:round; stroke-linejoin:round; stroke-width:4; stroke-opacity:1; fill:none" points="185.496,613.993 204.394,613.993 "/>
<polyline clip-path="url(#clip380)" style="stroke:#000000; stroke-linecap:round; stroke-linejoin:round; stroke-width:4; stroke-opacity:1; fill:none" points="185.496,375.678 204.394,375.678 "/>
<polyline clip-path="url(#clip380)" style="stroke:#000000; stroke-linecap:round; stroke-linejoin:round; stroke-width:4; stroke-opacity:1; fill:none" points="185.496,137.363 204.394,137.363 "/>
<path clip-path="url(#clip380)" d="M53.6634 1110.42 L61.3023 1110.42 L61.3023 1084.05 L52.9921 1085.72 L52.9921 1081.46 L61.256 1079.79 L65.9319 1079.79 L65.9319 1110.42 L73.5707 1110.42 L73.5707 1114.35 L53.6634 1114.35 L53.6634 1110.42 Z" fill="#000000" fill-rule="nonzero" fill-opacity="1" /><path clip-path="url(#clip380)" d="M93.0151 1082.87 Q89.404 1082.87 87.5753 1086.43 Q85.7697 1089.98 85.7697 1097.11 Q85.7697 1104.21 87.5753 1107.78 Q89.404 1111.32 93.0151 1111.32 Q96.6493 1111.32 98.4548 1107.78 Q100.284 1104.21 100.284 1097.11 Q100.284 1089.98 98.4548 1086.43 Q96.6493 1082.87 93.0151 1082.87 M93.0151 1079.17 Q98.8252 1079.17 101.881 1083.77 Q104.959 1088.36 104.959 1097.11 Q104.959 1105.83 101.881 1110.44 Q98.8252 1115.02 93.0151 1115.02 Q87.2049 1115.02 84.1262 1110.44 Q81.0707 1105.83 81.0707 1097.11 Q81.0707 1088.36 84.1262 1083.77 Q87.2049 1079.17 93.0151 1079.17 Z" fill="#000000" fill-rule="nonzero" fill-opacity="1" /><path clip-path="url(#clip380)" d="M104.959 1073.27 L129.071 1073.27 L129.071 1076.46 L104.959 1076.46 L104.959 1073.27 Z" fill="#000000" fill-rule="nonzero" fill-opacity="1" /><path clip-path="url(#clip380)" d="M147.71 1062.17 L138.118 1077.16 L147.71 1077.16 L147.71 1062.17 M146.713 1058.86 L151.49 1058.86 L151.49 1077.16 L155.496 1077.16 L155.496 1080.32 L151.49 1080.32 L151.49 1086.94 L147.71 1086.94 L147.71 1080.32 L135.033 1080.32 L135.033 1076.65 L146.713 1058.86 Z" fill="#000000" fill-rule="nonzero" fill-opacity="1" /><path clip-path="url(#clip380)" d="M54.585 872.1 L62.2238 872.1 L62.2238 845.735 L53.9137 847.402 L53.9137 843.142 L62.1776 841.476 L66.8535 841.476 L66.8535 872.1 L74.4923 872.1 L74.4923 876.036 L54.585 876.036 L54.585 872.1 Z" fill="#000000" fill-rule="nonzero" fill-opacity="1" /><path clip-path="url(#clip380)" d="M93.9366 844.554 Q90.3255 844.554 88.4969 848.119 Q86.6913 851.661 86.6913 858.79 Q86.6913 865.897 88.4969 869.462 Q90.3255 873.003 93.9366 873.003 Q97.5709 873.003 99.3764 869.462 Q101.205 865.897 101.205 858.79 Q101.205 851.661 99.3764 848.119 Q97.5709 844.554 93.9366 844.554 M93.9366 840.851 Q99.7468 840.851 102.802 845.457 Q105.881 850.04 105.881 858.79 Q105.881 867.517 102.802 872.124 Q99.7468 876.707 93.9366 876.707 Q88.1265 876.707 85.0478 872.124 Q81.9923 867.517 81.9923 858.79 Q81.9923 850.04 85.0478 845.457 Q88.1265 840.851 93.9366 840.851 Z" fill="#000000" fill-rule="nonzero" fill-opacity="1" /><path clip-path="url(#clip380)" d="M105.881 834.952 L129.993 834.952 L129.993 838.149 L105.881 838.149 L105.881 834.952 Z" fill="#000000" fill-rule="nonzero" fill-opacity="1" /><path clip-path="url(#clip380)" d="M149.703 833.485 Q152.43 834.068 153.954 835.911 Q155.496 837.754 155.496 840.463 Q155.496 844.619 152.637 846.895 Q149.778 849.171 144.512 849.171 Q142.744 849.171 140.863 848.813 Q139.002 848.475 137.008 847.779 L137.008 844.111 Q138.588 845.033 140.469 845.503 Q142.349 845.973 144.399 845.973 Q147.973 845.973 149.835 844.563 Q151.716 843.152 151.716 840.463 Q151.716 837.98 149.966 836.588 Q148.236 835.178 145.133 835.178 L141.86 835.178 L141.86 832.056 L145.283 832.056 Q148.086 832.056 149.571 830.946 Q151.057 829.817 151.057 827.711 Q151.057 825.548 149.515 824.401 Q147.992 823.235 145.133 823.235 Q143.572 823.235 141.785 823.573 Q139.998 823.912 137.854 824.627 L137.854 821.241 Q140.017 820.639 141.898 820.338 Q143.797 820.037 145.471 820.037 Q149.797 820.037 152.317 822.012 Q154.838 823.968 154.838 827.316 Q154.838 829.648 153.502 831.266 Q152.167 832.864 149.703 833.485 Z" fill="#000000" fill-rule="nonzero" fill-opacity="1" /><path clip-path="url(#clip380)" d="M55.3561 633.785 L62.995 633.785 L62.995 607.42 L54.6848 609.086 L54.6848 604.827 L62.9487 603.161 L67.6246 603.161 L67.6246 633.785 L75.2634 633.785 L75.2634 637.721 L55.3561 637.721 L55.3561 633.785 Z" fill="#000000" fill-rule="nonzero" fill-opacity="1" /><path clip-path="url(#clip380)" d="M94.7078 606.239 Q91.0967 606.239 89.268 609.804 Q87.4624 613.346 87.4624 620.475 Q87.4624 627.582 89.268 631.146 Q91.0967 634.688 94.7078 634.688 Q98.342 634.688 100.148 631.146 Q101.976 627.582 101.976 620.475 Q101.976 613.346 100.148 609.804 Q98.342 606.239 94.7078 606.239 M94.7078 602.536 Q100.518 602.536 103.573 607.142 Q106.652 611.725 106.652 620.475 Q106.652 629.202 103.573 633.809 Q100.518 638.392 94.7078 638.392 Q88.8976 638.392 85.8189 633.809 Q82.7634 629.202 82.7634 620.475 Q82.7634 611.725 85.8189 607.142 Q88.8976 602.536 94.7078 602.536 Z" fill="#000000" fill-rule="nonzero" fill-opacity="1" /><path clip-path="url(#clip380)" d="M106.652 596.637 L130.764 596.637 L130.764 599.834 L106.652 599.834 L106.652 596.637 Z" fill="#000000" fill-rule="nonzero" fill-opacity="1" /><path clip-path="url(#clip380)" d="M142.236 607.113 L155.496 607.113 L155.496 610.31 L137.666 610.31 L137.666 607.113 Q139.829 604.875 143.553 601.113 Q147.296 597.333 148.255 596.242 Q150.079 594.192 150.794 592.781 Q151.527 591.352 151.527 589.979 Q151.527 587.741 149.948 586.33 Q148.387 584.92 145.866 584.92 Q144.08 584.92 142.086 585.54 Q140.111 586.161 137.854 587.421 L137.854 583.584 Q140.149 582.663 142.142 582.193 Q144.136 581.722 145.791 581.722 Q150.155 581.722 152.75 583.904 Q155.345 586.086 155.345 589.734 Q155.345 591.465 154.687 593.026 Q154.048 594.568 152.336 596.674 Q151.866 597.22 149.346 599.834 Q146.826 602.43 142.236 607.113 Z" fill="#000000" fill-rule="nonzero" fill-opacity="1" /><path clip-path="url(#clip380)" d="M55.0552 395.47 L62.694 395.47 L62.694 369.105 L54.3839 370.771 L54.3839 366.512 L62.6477 364.845 L67.3236 364.845 L67.3236 395.47 L74.9625 395.47 L74.9625 399.405 L55.0552 399.405 L55.0552 395.47 Z" fill="#000000" fill-rule="nonzero" fill-opacity="1" /><path clip-path="url(#clip380)" d="M94.4068 367.924 Q90.7957 367.924 88.967 371.489 Q87.1615 375.031 87.1615 382.16 Q87.1615 389.267 88.967 392.831 Q90.7957 396.373 94.4068 396.373 Q98.0411 396.373 99.8466 392.831 Q101.675 389.267 101.675 382.16 Q101.675 375.031 99.8466 371.489 Q98.0411 367.924 94.4068 367.924 M94.4068 364.22 Q100.217 364.22 103.273 368.827 Q106.351 373.41 106.351 382.16 Q106.351 390.887 103.273 395.493 Q100.217 400.077 94.4068 400.077 Q88.5967 400.077 85.518 395.493 Q82.4625 390.887 82.4625 382.16 Q82.4625 373.41 85.518 368.827 Q88.5967 364.22 94.4068 364.22 Z" fill="#000000" fill-rule="nonzero" fill-opacity="1" /><path clip-path="url(#clip380)" d="M106.351 358.322 L130.463 358.322 L130.463 361.519 L106.351 361.519 L106.351 358.322 Z" fill="#000000" fill-rule="nonzero" fill-opacity="1" /><path clip-path="url(#clip380)" d="M139.321 368.798 L145.528 368.798 L145.528 347.376 L138.776 348.73 L138.776 345.269 L145.49 343.915 L149.289 343.915 L149.289 368.798 L155.496 368.798 L155.496 371.995 L139.321 371.995 L139.321 368.798 Z" fill="#000000" fill-rule="nonzero" fill-opacity="1" /><path clip-path="url(#clip380)" d="M84.7903 157.155 L92.4291 157.155 L92.4291 130.79 L84.119 132.456 L84.119 128.197 L92.3828 126.53 L97.0587 126.53 L97.0587 157.155 L104.698 157.155 L104.698 161.09 L84.7903 161.09 L84.7903 157.155 Z" fill="#000000" fill-rule="nonzero" fill-opacity="1" /><path clip-path="url(#clip380)" d="M124.142 129.609 Q120.531 129.609 118.702 133.174 Q116.897 136.715 116.897 143.845 Q116.897 150.951 118.702 154.516 Q120.531 158.058 124.142 158.058 Q127.776 158.058 129.582 154.516 Q131.41 150.951 131.41 143.845 Q131.41 136.715 129.582 133.174 Q127.776 129.609 124.142 129.609 M124.142 125.905 Q129.952 125.905 133.008 130.512 Q136.086 135.095 136.086 143.845 Q136.086 152.572 133.008 157.178 Q129.952 161.762 124.142 161.762 Q118.332 161.762 115.253 157.178 Q112.198 152.572 112.198 143.845 Q112.198 135.095 115.253 130.512 Q118.332 125.905 124.142 125.905 Z" fill="#000000" fill-rule="nonzero" fill-opacity="1" /><path clip-path="url(#clip380)" d="M145.791 108.101 Q142.857 108.101 141.371 110.998 Q139.904 113.875 139.904 119.668 Q139.904 125.442 141.371 128.338 Q142.857 131.216 145.791 131.216 Q148.744 131.216 150.211 128.338 Q151.697 125.442 151.697 119.668 Q151.697 113.875 150.211 110.998 Q148.744 108.101 145.791 108.101 M145.791 105.092 Q150.512 105.092 152.994 108.835 Q155.496 112.559 155.496 119.668 Q155.496 126.759 152.994 130.501 Q150.512 134.225 145.791 134.225 Q141.07 134.225 138.569 130.501 Q136.086 126.759 136.086 119.668 Q136.086 112.559 138.569 108.835 Q141.07 105.092 145.791 105.092 Z" fill="#000000" fill-rule="nonzero" fill-opacity="1" /><g clip-path="url(#clip380)">
<text style="fill:#000000; fill-opacity:1; font-family:Arial,Helvetica Neue,Helvetica,sans-serif; font-size:66px; text-anchor:middle;" transform="rotate(0, 1069.13, 57.6)" x="1069.13" y="57.6">Diagonal preconditioning in CG</text>
</g>
<polyline clip-path="url(#clip382)" style="stroke:#009af9; stroke-linecap:round; stroke-linejoin:round; stroke-width:8; stroke-opacity:1; fill:none" points="235.513,137.363 247.863,175.879 260.212,249.698 272.562,283.356 284.912,284.019 297.262,286.022 309.612,309.074 321.961,341.489 334.311,362.469 346.661,367.685 359.011,371.523 371.361,381.596 383.711,394.569 396.06,407.389 408.41,413.614 420.76,417.355 433.11,422.873 445.46,433.042 457.81,440.066 470.159,446.037 482.509,451.497 494.859,456.393 507.209,461.489 519.559,469.142 531.909,475.842 544.258,479.835 556.608,485.8 568.958,490.619 581.308,496.271 593.658,503.242 606.007,511.042 618.357,514.166 630.707,520.405 643.057,528.518 655.407,531.125 667.757,536.619 680.106,539.68 692.456,541.51 704.806,543.379 717.156,547.269 729.506,551.557 741.856,553.733 754.205,559.665 766.555,563.718 778.905,567.919 791.255,574.052 803.605,579.204 815.954,583.366 828.304,588.968 840.654,594.739 853.004,601.021 865.354,606.01 877.704,611.812 890.053,616.786 902.403,624.04 914.753,632.396 927.103,640.818 939.453,645.863 951.803,655.873 964.152,662.19 976.502,669.886 988.852,677.651 1001.2,682.948 1013.55,689.057 1025.9,694.318 1038.25,699.441 1050.6,705.248 1062.95,711.205 1075.3,717.588 1087.65,724.258 1100,730.814 1112.35,737.116 1124.7,743.915 1137.05,749.566 1149.4,757.458 1161.75,763.622 1174.1,767.704 1186.45,773.471 1198.8,780.563 1211.15,783.831 1223.5,790.305 1235.85,792.89 1248.2,799.117 1260.55,803.345 1272.9,806.225 1285.25,810.008 1297.6,813.231 1309.95,815.839 1322.3,821.872 1334.65,825.623 1347,832.318 1359.35,839.561 1371.7,844.373 1384.05,850.811 1396.4,856.917 1408.75,863.08 1421.1,867.41 1433.45,873.221 1445.8,882.56 1458.15,888.11 1470.5,893.546 1482.85,901.446 1495.19,908.725 1507.54,917.46 1519.89,924.382 1532.24,933.348 1544.59,942.214 1556.94,951.681 1569.29,959.849 1581.64,967.692 1593.99,973.737 1606.34,980.727 1618.69,983.26 1631.04,992.294 1643.39,998.417 1655.74,1003.11 1668.09,1009.47 1680.44,1015.02 1692.79,1021.56 1705.14,1026 1717.49,1033.11 1729.84,1042.32 1742.19,1048.11 1754.54,1054.65 1766.89,1061.92 1779.24,1066.99 1791.59,1074.24 1803.94,1081.59 1816.29,1085.76 1828.64,1093.02 1840.99,1100.57 1853.34,1108.21 1865.69,1117.21 1878.04,1125.25 1890.39,1131.79 1902.74,1140.92 "/>
<polyline clip-path="url(#clip382)" style="stroke:#e26f46; stroke-linecap:round; stroke-linejoin:round; stroke-width:8; stroke-opacity:1; fill:none" points="235.513,137.363 247.863,197.713 260.212,273.348 272.562,336.39 284.912,387.735 297.262,446.076 309.612,490.898 321.961,540.014 334.311,579.473 346.661,613.283 359.011,676.669 371.361,741.521 383.711,797.158 396.06,844.021 408.41,895.046 420.76,943.084 433.11,979.692 445.46,1018.67 457.81,1076.17 "/>
<path clip-path="url(#clip380)" d="M1369.58 298.235 L1893.85 298.235 L1893.85 142.715 L1369.58 142.715  Z" fill="#ffffff" fill-rule="evenodd" fill-opacity="1"/>
<polyline clip-path="url(#clip380)" style="stroke:#000000; stroke-linecap:round; stroke-linejoin:round; stroke-width:4; stroke-opacity:1; fill:none" points="1369.58,298.235 1893.85,298.235 1893.85,142.715 1369.58,142.715 1369.58,298.235 "/>
<polyline clip-path="url(#clip380)" style="stroke:#009af9; stroke-linecap:round; stroke-linejoin:round; stroke-width:8; stroke-opacity:1; fill:none" points="1389.21,194.555 1507.03,194.555 "/>
<path clip-path="url(#clip380)" d="M1530.95 207.946 L1530.95 221.696 L1526.67 221.696 L1526.67 185.909 L1530.95 185.909 L1530.95 189.844 Q1532.29 187.53 1534.33 186.418 Q1536.39 185.284 1539.24 185.284 Q1543.96 185.284 1546.9 189.034 Q1549.86 192.784 1549.86 198.895 Q1549.86 205.006 1546.9 208.756 Q1543.96 212.506 1539.24 212.506 Q1536.39 212.506 1534.33 211.395 Q1532.29 210.261 1530.95 207.946 M1545.44 198.895 Q1545.44 194.196 1543.5 191.534 Q1541.57 188.849 1538.19 188.849 Q1534.81 188.849 1532.87 191.534 Q1530.95 194.196 1530.95 198.895 Q1530.95 203.594 1532.87 206.28 Q1534.81 208.942 1538.19 208.942 Q1541.57 208.942 1543.5 206.28 Q1545.44 203.594 1545.44 198.895 Z" fill="#000000" fill-rule="nonzero" fill-opacity="1" /><path clip-path="url(#clip380)" d="M1556.92 175.817 L1561.18 175.817 L1561.18 211.835 L1556.92 211.835 L1556.92 175.817 Z" fill="#000000" fill-rule="nonzero" fill-opacity="1" /><path clip-path="url(#clip380)" d="M1581.87 198.803 Q1576.71 198.803 1574.72 199.983 Q1572.73 201.164 1572.73 204.011 Q1572.73 206.28 1574.21 207.622 Q1575.72 208.942 1578.29 208.942 Q1581.83 208.942 1583.96 206.442 Q1586.11 203.918 1586.11 199.752 L1586.11 198.803 L1581.87 198.803 M1590.37 197.043 L1590.37 211.835 L1586.11 211.835 L1586.11 207.9 Q1584.65 210.261 1582.48 211.395 Q1580.3 212.506 1577.15 212.506 Q1573.17 212.506 1570.81 210.284 Q1568.47 208.039 1568.47 204.289 Q1568.47 199.914 1571.39 197.692 Q1574.33 195.469 1580.14 195.469 L1586.11 195.469 L1586.11 195.053 Q1586.11 192.113 1584.17 190.516 Q1582.24 188.895 1578.75 188.895 Q1576.53 188.895 1574.42 189.428 Q1572.31 189.96 1570.37 191.025 L1570.37 187.09 Q1572.71 186.187 1574.91 185.747 Q1577.11 185.284 1579.19 185.284 Q1584.81 185.284 1587.59 188.201 Q1590.37 191.118 1590.37 197.043 Z" fill="#000000" fill-rule="nonzero" fill-opacity="1" /><path clip-path="url(#clip380)" d="M1599.14 185.909 L1603.4 185.909 L1603.4 211.835 L1599.14 211.835 L1599.14 185.909 M1599.14 175.817 L1603.4 175.817 L1603.4 181.21 L1599.14 181.21 L1599.14 175.817 Z" fill="#000000" fill-rule="nonzero" fill-opacity="1" /><path clip-path="url(#clip380)" d="M1633.87 196.187 L1633.87 211.835 L1629.61 211.835 L1629.61 196.326 Q1629.61 192.645 1628.17 190.817 Q1626.74 188.988 1623.87 188.988 Q1620.42 188.988 1618.43 191.187 Q1616.43 193.386 1616.43 197.182 L1616.43 211.835 L1612.15 211.835 L1612.15 185.909 L1616.43 185.909 L1616.43 189.937 Q1617.96 187.599 1620.02 186.442 Q1622.11 185.284 1624.81 185.284 Q1629.28 185.284 1631.57 188.062 Q1633.87 190.817 1633.87 196.187 Z" fill="#000000" fill-rule="nonzero" fill-opacity="1" /><polyline clip-path="url(#clip380)" style="stroke:#e26f46; stroke-linecap:round; stroke-linejoin:round; stroke-width:8; stroke-opacity:1; fill:none" points="1389.21,246.395 1507.03,246.395 "/>
<path clip-path="url(#clip380)" d="M1530.95 259.786 L1530.95 273.536 L1526.67 273.536 L1526.67 237.749 L1530.95 237.749 L1530.95 241.684 Q1532.29 239.37 1534.33 238.258 Q1536.39 237.124 1539.24 237.124 Q1543.96 237.124 1546.9 240.874 Q1549.86 244.624 1549.86 250.735 Q1549.86 256.846 1546.9 260.596 Q1543.96 264.346 1539.24 264.346 Q1536.39 264.346 1534.33 263.235 Q1532.29 262.101 1530.95 259.786 M1545.44 250.735 Q1545.44 246.036 1543.5 243.374 Q1541.57 240.689 1538.19 240.689 Q1534.81 240.689 1532.87 243.374 Q1530.95 246.036 1530.95 250.735 Q1530.95 255.434 1532.87 258.12 Q1534.81 260.782 1538.19 260.782 Q1541.57 260.782 1543.5 258.12 Q1545.44 255.434 1545.44 250.735 Z" fill="#000000" fill-rule="nonzero" fill-opacity="1" /><path clip-path="url(#clip380)" d="M1571.94 241.731 Q1571.23 241.314 1570.37 241.129 Q1569.54 240.921 1568.52 240.921 Q1564.91 240.921 1562.96 243.282 Q1561.04 245.62 1561.04 250.018 L1561.04 263.675 L1556.76 263.675 L1556.76 237.749 L1561.04 237.749 L1561.04 241.777 Q1562.38 239.416 1564.54 238.282 Q1566.69 237.124 1569.77 237.124 Q1570.21 237.124 1570.74 237.194 Q1571.27 237.24 1571.92 237.356 L1571.94 241.731 Z" fill="#000000" fill-rule="nonzero" fill-opacity="1" /><path clip-path="url(#clip380)" d="M1597.55 249.647 L1597.55 251.731 L1577.96 251.731 Q1578.24 256.129 1580.6 258.444 Q1582.99 260.735 1587.22 260.735 Q1589.68 260.735 1591.97 260.133 Q1594.28 259.532 1596.55 258.328 L1596.55 262.356 Q1594.26 263.328 1591.85 263.837 Q1589.44 264.346 1586.97 264.346 Q1580.76 264.346 1577.13 260.735 Q1573.52 257.124 1573.52 250.967 Q1573.52 244.601 1576.94 240.874 Q1580.39 237.124 1586.23 237.124 Q1591.46 237.124 1594.49 240.504 Q1597.55 243.86 1597.55 249.647 M1593.29 248.397 Q1593.24 244.902 1591.32 242.819 Q1589.42 240.735 1586.27 240.735 Q1582.71 240.735 1580.56 242.749 Q1578.43 244.763 1578.1 248.42 L1593.29 248.397 Z" fill="#000000" fill-rule="nonzero" fill-opacity="1" /><path clip-path="url(#clip380)" d="M1623.19 238.745 L1623.19 242.726 Q1621.39 241.731 1619.56 241.245 Q1617.75 240.735 1615.9 240.735 Q1611.76 240.735 1609.47 243.374 Q1607.18 245.99 1607.18 250.735 Q1607.18 255.481 1609.47 258.12 Q1611.76 260.735 1615.9 260.735 Q1617.75 260.735 1619.56 260.249 Q1621.39 259.74 1623.19 258.744 L1623.19 262.68 Q1621.41 263.513 1619.49 263.93 Q1617.59 264.346 1615.44 264.346 Q1609.58 264.346 1606.13 260.666 Q1602.68 256.985 1602.68 250.735 Q1602.68 244.393 1606.16 240.758 Q1609.65 237.124 1615.72 237.124 Q1617.68 237.124 1619.56 237.541 Q1621.43 237.934 1623.19 238.745 Z" fill="#000000" fill-rule="nonzero" fill-opacity="1" /><path clip-path="url(#clip380)" d="M1640.65 240.735 Q1637.22 240.735 1635.23 243.421 Q1633.24 246.083 1633.24 250.735 Q1633.24 255.388 1635.21 258.073 Q1637.2 260.735 1640.65 260.735 Q1644.05 260.735 1646.04 258.05 Q1648.03 255.365 1648.03 250.735 Q1648.03 246.129 1646.04 243.444 Q1644.05 240.735 1640.65 240.735 M1640.65 237.124 Q1646.2 237.124 1649.37 240.735 Q1652.55 244.346 1652.55 250.735 Q1652.55 257.101 1649.37 260.735 Q1646.2 264.346 1640.65 264.346 Q1635.07 264.346 1631.9 260.735 Q1628.75 257.101 1628.75 250.735 Q1628.75 244.346 1631.9 240.735 Q1635.07 237.124 1640.65 237.124 Z" fill="#000000" fill-rule="nonzero" fill-opacity="1" /><path clip-path="url(#clip380)" d="M1681.16 248.027 L1681.16 263.675 L1676.9 263.675 L1676.9 248.166 Q1676.9 244.485 1675.46 242.657 Q1674.03 240.828 1671.16 240.828 Q1667.71 240.828 1665.72 243.027 Q1663.73 245.226 1663.73 249.022 L1663.73 263.675 L1659.44 263.675 L1659.44 237.749 L1663.73 237.749 L1663.73 241.777 Q1665.25 239.439 1667.31 238.282 Q1669.4 237.124 1672.11 237.124 Q1676.57 237.124 1678.86 239.902 Q1681.16 242.657 1681.16 248.027 Z" fill="#000000" fill-rule="nonzero" fill-opacity="1" /><path clip-path="url(#clip380)" d="M1706.71 241.684 L1706.71 227.657 L1710.97 227.657 L1710.97 263.675 L1706.71 263.675 L1706.71 259.786 Q1705.37 262.101 1703.31 263.235 Q1701.27 264.346 1698.4 264.346 Q1693.7 264.346 1690.74 260.596 Q1687.8 256.846 1687.8 250.735 Q1687.8 244.624 1690.74 240.874 Q1693.7 237.124 1698.4 237.124 Q1701.27 237.124 1703.31 238.258 Q1705.37 239.37 1706.71 241.684 M1692.2 250.735 Q1692.2 255.434 1694.12 258.12 Q1696.06 260.782 1699.44 260.782 Q1702.82 260.782 1704.77 258.12 Q1706.71 255.434 1706.71 250.735 Q1706.71 246.036 1704.77 243.374 Q1702.82 240.689 1699.44 240.689 Q1696.06 240.689 1694.12 243.374 Q1692.2 246.036 1692.2 250.735 Z" fill="#000000" fill-rule="nonzero" fill-opacity="1" /><path clip-path="url(#clip380)" d="M1719.74 237.749 L1724 237.749 L1724 263.675 L1719.74 263.675 L1719.74 237.749 M1719.74 227.657 L1724 227.657 L1724 233.05 L1719.74 233.05 L1719.74 227.657 Z" fill="#000000" fill-rule="nonzero" fill-opacity="1" /><path clip-path="url(#clip380)" d="M1737.13 230.388 L1737.13 237.749 L1745.9 237.749 L1745.9 241.059 L1737.13 241.059 L1737.13 255.133 Q1737.13 258.305 1737.98 259.207 Q1738.86 260.11 1741.53 260.11 L1745.9 260.11 L1745.9 263.675 L1741.53 263.675 Q1736.6 263.675 1734.72 261.846 Q1732.85 259.994 1732.85 255.133 L1732.85 241.059 L1729.72 241.059 L1729.72 237.749 L1732.85 237.749 L1732.85 230.388 L1737.13 230.388 Z" fill="#000000" fill-rule="nonzero" fill-opacity="1" /><path clip-path="url(#clip380)" d="M1751.5 237.749 L1755.76 237.749 L1755.76 263.675 L1751.5 263.675 L1751.5 237.749 M1751.5 227.657 L1755.76 227.657 L1755.76 233.05 L1751.5 233.05 L1751.5 227.657 Z" fill="#000000" fill-rule="nonzero" fill-opacity="1" /><path clip-path="url(#clip380)" d="M1774.72 240.735 Q1771.29 240.735 1769.3 243.421 Q1767.31 246.083 1767.31 250.735 Q1767.31 255.388 1769.28 258.073 Q1771.27 260.735 1774.72 260.735 Q1778.12 260.735 1780.11 258.05 Q1782.11 255.365 1782.11 250.735 Q1782.11 246.129 1780.11 243.444 Q1778.12 240.735 1774.72 240.735 M1774.72 237.124 Q1780.28 237.124 1783.45 240.735 Q1786.62 244.346 1786.62 250.735 Q1786.62 257.101 1783.45 260.735 Q1780.28 264.346 1774.72 264.346 Q1769.14 264.346 1765.97 260.735 Q1762.82 257.101 1762.82 250.735 Q1762.82 244.346 1765.97 240.735 Q1769.14 237.124 1774.72 237.124 Z" fill="#000000" fill-rule="nonzero" fill-opacity="1" /><path clip-path="url(#clip380)" d="M1815.23 248.027 L1815.23 263.675 L1810.97 263.675 L1810.97 248.166 Q1810.97 244.485 1809.54 242.657 Q1808.1 240.828 1805.23 240.828 Q1801.78 240.828 1799.79 243.027 Q1797.8 245.226 1797.8 249.022 L1797.8 263.675 L1793.52 263.675 L1793.52 237.749 L1797.8 237.749 L1797.8 241.777 Q1799.33 239.439 1801.39 238.282 Q1803.47 237.124 1806.18 237.124 Q1810.65 237.124 1812.94 239.902 Q1815.23 242.657 1815.23 248.027 Z" fill="#000000" fill-rule="nonzero" fill-opacity="1" /><path clip-path="url(#clip380)" d="M1845.9 249.647 L1845.9 251.731 L1826.32 251.731 Q1826.6 256.129 1828.96 258.444 Q1831.34 260.735 1835.58 260.735 Q1838.03 260.735 1840.32 260.133 Q1842.64 259.532 1844.91 258.328 L1844.91 262.356 Q1842.61 263.328 1840.21 263.837 Q1837.8 264.346 1835.32 264.346 Q1829.12 264.346 1825.48 260.735 Q1821.87 257.124 1821.87 250.967 Q1821.87 244.601 1825.3 240.874 Q1828.75 237.124 1834.58 237.124 Q1839.81 237.124 1842.85 240.504 Q1845.9 243.86 1845.9 249.647 M1841.64 248.397 Q1841.6 244.902 1839.67 242.819 Q1837.78 240.735 1834.63 240.735 Q1831.06 240.735 1828.91 242.749 Q1826.78 244.763 1826.46 248.42 L1841.64 248.397 Z" fill="#000000" fill-rule="nonzero" fill-opacity="1" /><path clip-path="url(#clip380)" d="M1869.95 241.684 L1869.95 227.657 L1874.21 227.657 L1874.21 263.675 L1869.95 263.675 L1869.95 259.786 Q1868.61 262.101 1866.55 263.235 Q1864.51 264.346 1861.64 264.346 Q1856.94 264.346 1853.98 260.596 Q1851.04 256.846 1851.04 250.735 Q1851.04 244.624 1853.98 240.874 Q1856.94 237.124 1861.64 237.124 Q1864.51 237.124 1866.55 238.258 Q1868.61 239.37 1869.95 241.684 M1855.44 250.735 Q1855.44 255.434 1857.36 258.12 Q1859.3 260.782 1862.68 260.782 Q1866.06 260.782 1868.01 258.12 Q1869.95 255.434 1869.95 250.735 Q1869.95 246.036 1868.01 243.374 Q1866.06 240.689 1862.68 240.689 Q1859.3 240.689 1857.36 243.374 Q1855.44 246.036 1855.44 250.735 Z" fill="#000000" fill-rule="nonzero" fill-opacity="1" /></svg>
