<?xml version="1.0" encoding="utf-8"?>
<svg xmlns="http://www.w3.org/2000/svg" xmlns:xlink="http://www.w3.org/1999/xlink" width="600" height="400" viewBox="0 0 2400 1600">
<defs>
  <clipPath id="clip050">
    <rect x="0" y="0" width="2400" height="1600"/>
  </clipPath>
</defs>
<path clip-path="url(#clip050)" d="
M0 1600 L2400 1600 L2400 0 L0 0  Z
  " fill="#ffffff" fill-rule="evenodd" fill-opacity="1"/>
<defs>
  <clipPath id="clip051">
    <rect x="480" y="0" width="1681" height="1600"/>
  </clipPath>
</defs>
<path clip-path="url(#clip050)" d="
M212.645 1486.45 L1102.33 1486.45 L1102.33 47.2441 L212.645 47.2441  Z
  " fill="#ffffff" fill-rule="evenodd" fill-opacity="1"/>
<defs>
  <clipPath id="clip052">
    <rect x="212" y="47" width="891" height="1440"/>
  </clipPath>
</defs>
<polyline clip-path="url(#clip052)" style="stroke:#8b0000; stroke-width:8; stroke-opacity:1; fill:none" points="
  212.645,570.591 997.665,1093.94 
  "/>
<polyline clip-path="url(#clip052)" style="stroke:#00008b; stroke-width:8; stroke-opacity:1; fill:none" points="
  212.645,570.591 1045.99,1012.95 
  "/>
<polyline clip-path="url(#clip052)" style="stroke:#000000; stroke-width:8; stroke-opacity:1; fill:none" points="
  997.665,1093.94 1045.99,1012.95 
  "/>
<path clip-path="url(#clip050)" d="M 0 0 M599.941 903.037 L585.062 903.528 L585.062 897.011 Q581.25 903.528 572.97 903.528 Q569.568 903.528 567.026 903.078 Q564.526 902.627 562.313 901.52 Q560.14 900.372 558.992 898.159 Q557.845 895.945 557.845 892.707 L557.845 873.155 Q557.845 870.778 556.984 870.327 Q556.123 869.876 552.065 869.876 L552.065 865.941 L567.436 865.244 L567.436 893.896 Q567.436 895.904 567.559 896.929 Q567.723 897.913 568.338 898.897 Q568.994 899.839 570.387 900.208 Q571.781 900.536 574.158 900.536 Q578.79 900.536 581.66 897.421 Q584.57 894.306 584.57 889.182 L584.57 873.155 Q584.57 870.778 583.668 870.327 Q582.807 869.876 578.749 869.876 L578.749 865.941 L594.12 865.244 L594.12 895.822 Q594.12 898.2 594.981 898.651 Q595.883 899.102 599.941 899.102 L599.941 903.037 Z" fill="#000000" fill-rule="evenodd" fill-opacity="1" /><path clip-path="url(#clip050)" d="M 0 0 M730.18 764.863 Q727.597 764.863 726.286 765.109 Q724.974 765.314 724.605 765.642 Q724.236 765.929 723.949 766.626 L710.013 796.507 Q709.439 797.737 708.783 798.146 Q708.127 798.515 706.939 798.515 Q706.201 798.515 705.791 798.433 Q705.422 798.392 704.807 797.901 Q704.234 797.409 703.742 796.425 L689.026 764.863 L683.657 764.863 L683.657 760.928 L693.248 761.174 L703.66 760.928 L703.66 764.863 L699.11 764.863 L709.767 787.776 L719.523 766.79 L719.932 765.765 Q719.932 765.314 718.662 765.109 Q717.391 764.863 715.915 764.863 L715.915 760.928 L723.539 761.174 Q727.065 761.174 730.18 760.928 L730.18 764.863 Z" fill="#000000" fill-rule="evenodd" fill-opacity="1" /><path clip-path="url(#clip050)" d="M 0 0 M1110.96 1086.21 L1096.08 1086.7 L1096.08 1080.18 Q1092.27 1086.7 1083.99 1086.7 Q1080.59 1086.7 1078.04 1086.25 Q1075.54 1085.8 1073.33 1084.69 Q1071.16 1083.54 1070.01 1081.33 Q1068.86 1079.12 1068.86 1075.88 L1068.86 1056.33 Q1068.86 1053.95 1068 1053.5 Q1067.14 1053.05 1063.08 1053.05 L1063.08 1049.11 L1078.45 1048.42 L1078.45 1077.07 Q1078.45 1079.08 1078.58 1080.1 Q1078.74 1081.08 1079.36 1082.07 Q1080.01 1083.01 1081.41 1083.38 Q1082.8 1083.71 1085.18 1083.71 Q1089.81 1083.71 1092.68 1080.59 Q1095.59 1077.48 1095.59 1072.35 L1095.59 1056.33 Q1095.59 1053.95 1094.69 1053.5 Q1093.83 1053.05 1089.77 1053.05 L1089.77 1049.11 L1105.14 1048.42 L1105.14 1078.99 Q1105.14 1081.37 1106 1081.82 Q1106.9 1082.27 1110.96 1082.27 L1110.96 1086.21 Z" fill="#000000" fill-rule="evenodd" fill-opacity="1" /><path clip-path="url(#clip050)" d="M 0 0 M1184.9 1064.03 Q1185.39 1064.52 1185.39 1065.22 Q1185.39 1065.92 1184.9 1066.41 Q1184.4 1066.9 1183.71 1066.9 L1131.16 1066.9 Q1130.46 1066.9 1129.97 1066.41 Q1129.48 1065.92 1129.48 1065.22 Q1129.48 1064.52 1129.97 1064.03 Q1130.46 1063.54 1131.16 1063.54 L1183.71 1063.54 Q1184.4 1063.54 1184.9 1064.03 Z" fill="#000000" fill-rule="evenodd" fill-opacity="1" /><path clip-path="url(#clip050)" d="M 0 0 M1253.97 1052.88 Q1251.38 1052.88 1250.07 1053.13 Q1248.76 1053.33 1248.39 1053.66 Q1248.02 1053.95 1247.74 1054.65 L1233.8 1084.53 Q1233.23 1085.76 1232.57 1086.17 Q1231.91 1086.54 1230.72 1086.54 Q1229.99 1086.54 1229.58 1086.45 Q1229.21 1086.41 1228.59 1085.92 Q1228.02 1085.43 1227.53 1084.45 L1212.81 1052.88 L1207.44 1052.88 L1207.44 1048.95 L1217.03 1049.19 L1227.45 1048.95 L1227.45 1052.88 L1222.9 1052.88 L1233.55 1075.8 L1243.31 1054.81 L1243.72 1053.79 Q1243.72 1053.33 1242.45 1053.13 Q1241.18 1052.88 1239.7 1052.88 L1239.7 1048.95 L1247.33 1049.19 Q1250.85 1049.19 1253.97 1048.95 L1253.97 1052.88 Z" fill="#000000" fill-rule="evenodd" fill-opacity="1" /><path clip-path="url(#clip050)" d="
M1412.64 1486.45 L2302.33 1486.45 L2302.33 47.2441 L1412.64 47.2441  Z
  " fill="#ffffff" fill-rule="evenodd" fill-opacity="1"/>
<defs>
  <clipPath id="clip053">
    <rect x="1412" y="47" width="891" height="1440"/>
  </clipPath>
</defs>
<polyline clip-path="url(#clip053)" style="stroke:#8b0000; stroke-width:8; stroke-opacity:1; fill:none" points="
  1412.64,832.264 2197.66,1355.61 
  "/>
<polyline clip-path="url(#clip053)" style="stroke:#00008b; stroke-width:8; stroke-opacity:1; fill:none" points="
  1412.64,832.264 1935.99,47.2441 
  "/>
<polyline clip-path="url(#clip053)" style="stroke:#000000; stroke-width:8; stroke-opacity:1; fill:none" points="
  2197.66,1355.61 1935.99,47.2441 
  "/>
<path clip-path="url(#clip050)" d="M 0 0 M1799.94 1164.71 L1785.06 1165.2 L1785.06 1158.68 Q1781.25 1165.2 1772.97 1165.2 Q1769.57 1165.2 1767.03 1164.75 Q1764.53 1164.3 1762.31 1163.19 Q1760.14 1162.05 1758.99 1159.83 Q1757.84 1157.62 1757.84 1154.38 L1757.84 1134.83 Q1757.84 1132.45 1756.98 1132 Q1756.12 1131.55 1752.07 1131.55 L1752.07 1127.61 L1767.44 1126.92 L1767.44 1155.57 Q1767.44 1157.58 1767.56 1158.6 Q1767.72 1159.59 1768.34 1160.57 Q1768.99 1161.51 1770.39 1161.88 Q1771.78 1162.21 1774.16 1162.21 Q1778.79 1162.21 1781.66 1159.09 Q1784.57 1155.98 1784.57 1150.86 L1784.57 1134.83 Q1784.57 1132.45 1783.67 1132 Q1782.81 1131.55 1778.75 1131.55 L1778.75 1127.61 L1794.12 1126.92 L1794.12 1157.5 Q1794.12 1159.87 1794.98 1160.32 Q1795.88 1160.77 1799.94 1160.77 L1799.94 1164.71 Z" fill="#000000" fill-rule="evenodd" fill-opacity="1" /><path clip-path="url(#clip050)" d="M 0 0 M1616.17 424.688 Q1613.59 424.688 1612.28 424.934 Q1610.97 425.139 1610.6 425.467 Q1610.23 425.753 1609.94 426.45 L1596 456.331 Q1595.43 457.561 1594.78 457.971 Q1594.12 458.34 1592.93 458.34 Q1592.19 458.34 1591.78 458.258 Q1591.41 458.217 1590.8 457.725 Q1590.23 457.233 1589.73 456.249 L1575.02 424.688 L1569.65 424.688 L1569.65 420.753 L1579.24 420.999 L1589.65 420.753 L1589.65 424.688 L1585.1 424.688 L1595.76 447.601 L1605.51 426.614 L1605.92 425.59 Q1605.92 425.139 1604.65 424.934 Q1603.38 424.688 1601.91 424.688 L1601.91 420.753 L1609.53 420.999 Q1613.06 420.999 1616.17 420.753 L1616.17 424.688 Z" fill="#000000" fill-rule="evenodd" fill-opacity="1" /><path clip-path="url(#clip050)" d="M 0 0 M2167.04 536.694 L2152.16 537.186 L2152.16 530.668 Q2148.35 537.186 2140.07 537.186 Q2136.67 537.186 2134.12 536.735 Q2131.62 536.284 2129.41 535.177 Q2127.24 534.029 2126.09 531.816 Q2124.94 529.603 2124.94 526.364 L2124.94 506.813 Q2124.94 504.435 2124.08 503.984 Q2123.22 503.533 2119.16 503.533 L2119.16 499.598 L2134.53 498.902 L2134.53 527.553 Q2134.53 529.562 2134.66 530.586 Q2134.82 531.57 2135.44 532.554 Q2136.09 533.497 2137.49 533.865 Q2138.88 534.193 2141.26 534.193 Q2145.89 534.193 2148.76 531.078 Q2151.67 527.963 2151.67 522.839 L2151.67 506.813 Q2151.67 504.435 2150.77 503.984 Q2149.9 503.533 2145.85 503.533 L2145.85 499.598 L2161.22 498.902 L2161.22 529.48 Q2161.22 531.857 2162.08 532.308 Q2162.98 532.759 2167.04 532.759 L2167.04 536.694 Z" fill="#000000" fill-rule="evenodd" fill-opacity="1" /><path clip-path="url(#clip050)" d="M 0 0 M2240.98 514.519 Q2241.47 515.01 2241.47 515.707 Q2241.47 516.404 2240.98 516.896 Q2240.48 517.388 2239.79 517.388 L2187.24 517.388 Q2186.54 517.388 2186.05 516.896 Q2185.56 516.404 2185.56 515.707 Q2185.56 515.01 2186.05 514.519 Q2186.54 514.027 2187.24 514.027 L2239.79 514.027 Q2240.48 514.027 2240.98 514.519 Z" fill="#000000" fill-rule="evenodd" fill-opacity="1" /><path clip-path="url(#clip050)" d="M 0 0 M2310.05 503.369 Q2307.46 503.369 2306.15 503.615 Q2304.84 503.82 2304.47 504.148 Q2304.1 504.435 2303.81 505.132 L2289.88 535.013 Q2289.3 536.243 2288.65 536.653 Q2287.99 537.022 2286.8 537.022 Q2286.07 537.022 2285.66 536.94 Q2285.29 536.899 2284.67 536.407 Q2284.1 535.915 2283.61 534.931 L2268.89 503.369 L2263.52 503.369 L2263.52 499.434 L2273.11 499.68 L2283.53 499.434 L2283.53 503.369 L2278.98 503.369 L2289.63 526.282 L2299.39 505.296 L2299.8 504.271 Q2299.8 503.82 2298.53 503.615 Q2297.26 503.369 2295.78 503.369 L2295.78 499.434 L2303.4 499.68 Q2306.93 499.68 2310.05 499.434 L2310.05 503.369 Z" fill="#000000" fill-rule="evenodd" fill-opacity="1" /></svg>
