<?xml version="1.0" encoding="utf-8"?>
<svg xmlns="http://www.w3.org/2000/svg" xmlns:xlink="http://www.w3.org/1999/xlink" width="600" height="400" viewBox="0 0 2400 1600">
<defs>
  <clipPath id="clip080">
    <rect x="0" y="0" width="2400" height="1600"/>
  </clipPath>
</defs>
<path clip-path="url(#clip080)" d="
M0 1600 L2400 1600 L2400 0 L0 0  Z
  " fill="#ffffff" fill-rule="evenodd" fill-opacity="1"/>
<defs>
  <clipPath id="clip081">
    <rect x="480" y="0" width="1681" height="1600"/>
  </clipPath>
</defs>
<path clip-path="url(#clip080)" d="
M519.693 1486.45 L1958.9 1486.45 L1958.9 47.2441 L519.693 47.2441  Z
  " fill="#ffffff" fill-rule="evenodd" fill-opacity="1"/>
<defs>
  <clipPath id="clip082">
    <rect x="519" y="47" width="1440" height="1440"/>
  </clipPath>
</defs>
<polyline clip-path="url(#clip082)" style="stroke:#000000; stroke-width:8; stroke-opacity:1; fill:none" stroke-dasharray="32, 20" points="
  2472.9,1383.65 5.69197,150.044 
  "/>
<polyline clip-path="url(#clip082)" style="stroke:#8b0000; stroke-width:8; stroke-opacity:1; fill:none" points="
  1239.3,766.846 1856.1,355.645 
  "/>
<polyline clip-path="url(#clip082)" style="stroke:#00008b; stroke-width:8; stroke-opacity:1; fill:none" points="
  1239.3,766.846 1568.26,931.326 
  "/>
<polyline clip-path="url(#clip082)" style="stroke:#00008b; stroke-width:8; stroke-opacity:1; fill:none" points="
  1856.1,355.645 1568.26,931.326 
  "/>
<circle clip-path="url(#clip082)" cx="1239.3" cy="766.846" r="18" fill="#000000" fill-rule="evenodd" fill-opacity="1" stroke="none"/>
<polyline clip-path="url(#clip082)" style="stroke:#a9a9a9; stroke-width:8; stroke-opacity:1; fill:none" points="
  1605.04,857.769 1531.48,820.99 1494.7,894.547 
  "/>
<path clip-path="url(#clip080)" d="M 0 0 M647.505 707.283 Q646.249 706.554 644.75 706.23 Q643.292 705.865 641.509 705.865 Q635.19 705.865 631.787 709.997 Q628.425 714.089 628.425 721.786 L628.425 745.686 L620.931 745.686 L620.931 700.316 L628.425 700.316 L628.425 707.364 Q630.775 703.232 634.542 701.247 Q638.309 699.222 643.697 699.222 Q644.467 699.222 645.398 699.344 Q646.33 699.425 647.464 699.627 L647.505 707.283 Z" fill="#000000" fill-rule="evenodd" fill-opacity="1" /><path clip-path="url(#clip080)" d="M 0 0 M675.942 722.879 Q666.909 722.879 663.425 724.945 Q659.941 727.011 659.941 731.994 Q659.941 735.964 662.534 738.313 Q665.167 740.622 669.663 740.622 Q675.861 740.622 679.588 736.247 Q683.355 731.832 683.355 724.54 L683.355 722.879 L675.942 722.879 M690.809 719.801 L690.809 745.686 L683.355 745.686 L683.355 738.799 Q680.803 742.931 676.995 744.916 Q673.188 746.861 667.678 746.861 Q660.711 746.861 656.579 742.972 Q652.487 739.042 652.487 732.48 Q652.487 724.824 657.592 720.935 Q662.736 717.046 672.904 717.046 L683.355 717.046 L683.355 716.317 Q683.355 711.172 679.953 708.377 Q676.59 705.541 670.473 705.541 Q666.585 705.541 662.898 706.473 Q659.212 707.405 655.809 709.268 L655.809 702.382 Q659.901 700.802 663.749 700.032 Q667.597 699.222 671.243 699.222 Q681.087 699.222 685.948 704.326 Q690.809 709.43 690.809 719.801 Z" fill="#000000" fill-rule="evenodd" fill-opacity="1" /><path clip-path="url(#clip080)" d="M 0 0 M736.341 718.302 L736.341 745.686 L728.887 745.686 L728.887 718.545 Q728.887 712.104 726.376 708.904 Q723.864 705.703 718.841 705.703 Q712.805 705.703 709.322 709.552 Q705.838 713.4 705.838 720.044 L705.838 745.686 L698.344 745.686 L698.344 700.316 L705.838 700.316 L705.838 707.364 Q708.511 703.273 712.117 701.247 Q715.763 699.222 720.502 699.222 Q728.32 699.222 732.331 704.083 Q736.341 708.904 736.341 718.302 Z" fill="#000000" fill-rule="evenodd" fill-opacity="1" /><path clip-path="url(#clip080)" d="M 0 0 M774.015 722.474 Q774.015 714.372 770.652 709.916 Q767.331 705.46 761.295 705.46 Q755.299 705.46 751.937 709.916 Q748.615 714.372 748.615 722.474 Q748.615 730.535 751.937 734.991 Q755.299 739.447 761.295 739.447 Q767.331 739.447 770.652 734.991 Q774.015 730.535 774.015 722.474 M781.468 740.055 Q781.468 751.641 776.324 757.271 Q771.179 762.943 760.566 762.943 Q756.636 762.943 753.152 762.335 Q749.669 761.768 746.387 760.553 L746.387 753.302 Q749.669 755.084 752.869 755.935 Q756.069 756.785 759.391 756.785 Q766.723 756.785 770.369 752.937 Q774.015 749.129 774.015 741.392 L774.015 737.706 Q771.706 741.716 768.1 743.701 Q764.495 745.686 759.472 745.686 Q751.127 745.686 746.023 739.326 Q740.919 732.966 740.919 722.474 Q740.919 711.942 746.023 705.582 Q751.127 699.222 759.472 699.222 Q764.495 699.222 768.1 701.207 Q771.706 703.192 774.015 707.202 L774.015 700.316 L781.468 700.316 L781.468 740.055 Z" fill="#000000" fill-rule="evenodd" fill-opacity="1" /><path clip-path="url(#clip080)" d="M 0 0 M828.094 721.137 L828.094 724.783 L793.823 724.783 Q794.31 732.48 798.442 736.531 Q802.614 740.541 810.027 740.541 Q814.321 740.541 818.331 739.488 Q822.382 738.435 826.352 736.328 L826.352 743.377 Q822.342 745.078 818.129 745.969 Q813.916 746.861 809.581 746.861 Q798.725 746.861 792.365 740.541 Q786.046 734.222 786.046 723.446 Q786.046 712.306 792.041 705.784 Q798.077 699.222 808.285 699.222 Q817.44 699.222 822.747 705.136 Q828.094 711.01 828.094 721.137 M820.64 718.95 Q820.559 712.833 817.197 709.187 Q813.875 705.541 808.366 705.541 Q802.128 705.541 798.36 709.066 Q794.634 712.59 794.067 718.99 L820.64 718.95 Z" fill="#000000" fill-rule="evenodd" fill-opacity="1" /><path clip-path="url(#clip080)" d="M 0 0 M842.486 715.209 Q842.486 701.027 847.774 689.591 Q850.028 684.795 853.184 680.778 Q856.341 676.761 858.431 674.999 Q860.521 673.236 861.095 673.236 Q861.915 673.236 861.956 674.056 Q861.956 674.466 860.849 675.491 Q847.323 689.263 847.364 715.209 Q847.364 741.238 860.521 754.477 Q861.956 755.912 861.956 756.363 Q861.956 757.182 861.095 757.182 Q860.521 757.182 858.513 755.502 Q856.504 753.821 853.389 749.968 Q850.274 746.115 848.02 741.401 Q842.486 729.965 842.486 715.209 Z" fill="#000000" fill-rule="evenodd" fill-opacity="1" /><path clip-path="url(#clip080)" d="M 0 0 M929.617 736.196 Q926.666 735.95 915.927 735.95 Q904.327 735.95 901.13 736.196 L901.13 732.261 L909.123 732.261 L904.081 720.005 L881.578 720.005 L877.397 730.17 L877.069 731.154 Q877.069 731.646 878.914 731.933 Q880.799 732.179 882.644 732.22 L884.529 732.261 L884.529 736.196 Q881.414 735.95 873.462 735.95 L863.625 736.196 L863.625 732.261 L865.387 732.261 Q868.461 732.261 869.978 732.015 Q871.495 731.769 871.863 731.441 Q872.232 731.113 872.519 730.334 L893.342 679.795 Q893.834 678.524 894.408 678.073 Q894.981 677.581 896.621 677.581 Q897.523 677.581 897.974 677.663 Q898.424 677.745 898.957 678.278 Q899.531 678.77 899.982 679.795 L921.46 732.261 L929.617 732.261 L929.617 736.196 M902.4 716.029 L892.85 692.706 L883.258 716.029 L902.4 716.029 Z" fill="#000000" fill-rule="evenodd" fill-opacity="1" /><path clip-path="url(#clip080)" d="M 0 0 M935.831 756.363 Q935.831 755.953 936.897 754.928 Q950.423 741.156 950.423 715.209 Q950.423 689.181 937.43 676.024 Q935.831 674.507 935.831 674.056 Q935.831 673.236 936.651 673.236 Q937.225 673.236 939.233 674.917 Q941.283 676.597 944.357 680.45 Q947.472 684.303 949.768 689.017 Q955.301 700.453 955.301 715.209 Q955.301 729.392 950.014 740.828 Q947.759 745.623 944.603 749.64 Q941.447 753.657 939.356 755.42 Q937.266 757.182 936.651 757.182 Q935.831 757.182 935.831 756.363 Z" fill="#000000" fill-rule="evenodd" fill-opacity="1" /><path clip-path="url(#clip080)" d="M 0 0 M1403.93 591.628 Q1403.93 600.318 1398.07 605.605 Q1392.21 610.852 1382.78 610.852 Q1375.73 610.852 1370.53 605.646 Q1369.87 606.466 1368.48 608.024 Q1367.08 609.581 1366.39 610.36 L1362.45 610.36 L1362.45 559.984 Q1362.45 557.607 1361.59 557.156 Q1360.73 556.705 1356.67 556.705 L1356.67 552.77 L1371.51 552.114 L1371.51 576.708 Q1376.47 572.568 1383.85 572.568 Q1392.91 572.568 1398.4 577.897 Q1403.93 583.184 1403.93 591.628 M1393.19 591.628 Q1393.19 589.866 1393.15 588.882 Q1393.15 587.857 1392.95 585.931 Q1392.74 584.004 1392.37 582.815 Q1392.04 581.627 1391.27 580.11 Q1390.53 578.593 1389.46 577.733 Q1388.4 576.831 1386.72 576.216 Q1385.08 575.601 1382.94 575.601 Q1379.62 575.601 1376.71 577.118 Q1373.85 578.634 1372.04 580.971 L1372.04 602.039 Q1372.53 602.777 1373.19 603.556 Q1373.85 604.294 1375.07 605.4 Q1376.3 606.466 1378.11 607.163 Q1379.95 607.86 1382 607.86 Q1384.42 607.86 1386.88 606.835 Q1389.34 605.81 1390.98 603.474 Q1392 601.957 1392.5 599.703 Q1393.03 597.449 1393.11 595.85 Q1393.19 594.251 1393.19 591.628 Z" fill="#000000" fill-rule="evenodd" fill-opacity="1" /><path clip-path="url(#clip080)" d="M 0 0 M1388.23 960.303 Q1385.28 960.057 1374.54 960.057 Q1362.94 960.057 1359.74 960.303 L1359.74 956.368 L1367.74 956.368 L1362.69 944.112 L1340.19 944.112 L1336.01 954.278 L1335.68 955.261 Q1335.68 955.753 1337.53 956.04 Q1339.41 956.286 1341.26 956.327 L1343.14 956.368 L1343.14 960.303 Q1340.03 960.057 1332.08 960.057 L1322.24 960.303 L1322.24 956.368 L1324 956.368 Q1327.07 956.368 1328.59 956.122 Q1330.11 955.876 1330.48 955.548 Q1330.85 955.22 1331.13 954.442 L1351.95 903.902 Q1352.45 902.631 1353.02 902.18 Q1353.59 901.688 1355.23 901.688 Q1356.14 901.688 1356.59 901.77 Q1357.04 901.852 1357.57 902.385 Q1358.14 902.877 1358.6 903.902 L1380.07 956.368 L1388.23 956.368 L1388.23 960.303 M1361.01 940.136 L1351.46 916.813 L1341.87 940.136 L1361.01 940.136 Z" fill="#000000" fill-rule="evenodd" fill-opacity="1" /><path clip-path="url(#clip080)" d="M 0 0 M1441.71 960.303 L1432.48 960.057 L1422.4 960.303 L1422.4 956.368 L1425.68 956.368 L1416.46 945.465 L1408.3 954.605 L1407.72 955.425 Q1407.72 955.794 1408.67 956.081 Q1409.65 956.368 1410.8 956.368 L1410.8 960.303 L1402.15 960.057 L1394.44 960.303 L1394.44 956.368 Q1397.03 956.368 1398.22 956.327 Q1399.45 956.245 1400.84 955.876 Q1402.23 955.507 1402.93 954.769 L1413.91 942.432 L1400.84 926.979 L1394.85 926.979 L1394.85 923.044 L1404.12 923.29 L1414.24 923.044 L1414.24 926.979 L1410.88 926.979 L1419.12 936.611 L1426.17 928.741 Q1426.21 928.7 1426.87 927.717 Q1425.56 926.979 1423.67 926.979 L1423.67 923.044 L1432.32 923.29 L1440.02 923.044 L1440.02 926.979 Q1436.66 926.979 1434.9 927.225 Q1433.18 927.43 1432.65 927.717 Q1432.15 928.003 1431.46 928.741 L1421.66 939.644 L1435.76 956.368 L1441.71 956.368 L1441.71 960.303 Z" fill="#000000" fill-rule="evenodd" fill-opacity="1" /><path clip-path="url(#clip080)" d="M 0 0 M1780 694.608 Q1780 703.298 1774.14 708.585 Q1768.27 713.832 1758.85 713.832 Q1751.8 713.832 1746.59 708.626 Q1745.94 709.446 1744.54 711.004 Q1743.15 712.561 1742.45 713.34 L1738.52 713.34 L1738.52 662.964 Q1738.52 660.587 1737.66 660.136 Q1736.79 659.685 1732.74 659.685 L1732.74 655.75 L1747.57 655.094 L1747.57 679.688 Q1752.53 675.548 1759.91 675.548 Q1768.97 675.548 1774.46 680.877 Q1780 686.164 1780 694.608 M1769.26 694.608 Q1769.26 692.846 1769.22 691.862 Q1769.22 690.837 1769.01 688.911 Q1768.81 686.984 1768.44 685.795 Q1768.11 684.607 1767.33 683.09 Q1766.59 681.573 1765.53 680.713 Q1764.46 679.811 1762.78 679.196 Q1761.14 678.581 1759.01 678.581 Q1755.69 678.581 1752.78 680.098 Q1749.91 681.614 1748.11 683.951 L1748.11 705.019 Q1748.6 705.757 1749.26 706.536 Q1749.91 707.274 1751.14 708.38 Q1752.37 709.446 1754.17 710.143 Q1756.02 710.84 1758.07 710.84 Q1760.49 710.84 1762.95 709.815 Q1765.4 708.79 1767.04 706.454 Q1768.07 704.937 1768.56 702.683 Q1769.09 700.429 1769.18 698.83 Q1769.26 697.231 1769.26 694.608 Z" fill="#000000" fill-rule="evenodd" fill-opacity="1" /><path clip-path="url(#clip080)" d="M 0 0 M1854.55 691.165 Q1855.04 691.657 1855.04 692.354 Q1855.04 693.05 1854.55 693.542 Q1854.06 694.034 1853.36 694.034 L1800.81 694.034 Q1800.12 694.034 1799.62 693.542 Q1799.13 693.05 1799.13 692.354 Q1799.13 691.657 1799.62 691.165 Q1800.12 690.673 1800.81 690.673 L1853.36 690.673 Q1854.06 690.673 1854.55 691.165 Z" fill="#000000" fill-rule="evenodd" fill-opacity="1" /><path clip-path="url(#clip080)" d="M 0 0 M1943.09 713.34 Q1940.14 713.094 1929.4 713.094 Q1917.8 713.094 1914.6 713.34 L1914.6 709.405 L1922.59 709.405 L1917.55 697.149 L1895.05 697.149 L1890.87 707.315 L1890.54 708.298 Q1890.54 708.79 1892.38 709.077 Q1894.27 709.323 1896.11 709.364 L1898 709.405 L1898 713.34 Q1894.89 713.094 1886.93 713.094 L1877.1 713.34 L1877.1 709.405 L1878.86 709.405 Q1881.93 709.405 1883.45 709.159 Q1884.97 708.913 1885.33 708.585 Q1885.7 708.257 1885.99 707.479 L1906.81 656.939 Q1907.31 655.668 1907.88 655.217 Q1908.45 654.725 1910.09 654.725 Q1910.99 654.725 1911.44 654.807 Q1911.9 654.889 1912.43 655.422 Q1913 655.914 1913.45 656.939 L1934.93 709.405 L1943.09 709.405 L1943.09 713.34 M1915.87 693.173 L1906.32 669.851 L1896.73 693.173 L1915.87 693.173 Z" fill="#000000" fill-rule="evenodd" fill-opacity="1" /><path clip-path="url(#clip080)" d="M 0 0 M1996.56 713.34 L1987.34 713.094 L1977.26 713.34 L1977.26 709.405 L1980.54 709.405 L1971.31 698.502 L1963.16 707.643 L1962.58 708.462 Q1962.58 708.831 1963.53 709.118 Q1964.51 709.405 1965.66 709.405 L1965.66 713.34 L1957.01 713.094 L1949.3 713.34 L1949.3 709.405 Q1951.88 709.405 1953.07 709.364 Q1954.3 709.282 1955.7 708.913 Q1957.09 708.544 1957.79 707.807 L1968.77 695.469 L1955.7 680.016 L1949.71 680.016 L1949.71 676.081 L1958.98 676.327 L1969.1 676.081 L1969.1 680.016 L1965.74 680.016 L1973.98 689.648 L1981.03 681.778 Q1981.07 681.737 1981.73 680.754 Q1980.41 680.016 1978.53 680.016 L1978.53 676.081 L1987.18 676.327 L1994.88 676.081 L1994.88 680.016 Q1991.52 680.016 1989.76 680.262 Q1988.04 680.467 1987.5 680.754 Q1987.01 681.041 1986.32 681.778 L1976.52 692.682 L1990.62 709.405 L1996.56 709.405 L1996.56 713.34 Z" fill="#000000" fill-rule="evenodd" fill-opacity="1" /></svg>
