<?xml version="1.0" encoding="UTF-8" standalone="no"?>
<svg
   xmlns:dc="http://purl.org/dc/elements/1.1/"
   xmlns:cc="http://creativecommons.org/ns#"
   xmlns:rdf="http://www.w3.org/1999/02/22-rdf-syntax-ns#"
   xmlns:svg="http://www.w3.org/2000/svg"
   xmlns="http://www.w3.org/2000/svg"
   viewBox="0 0 13.333333 13.333333"
   height="13.333333"
   width="13.333333"
   xml:space="preserve"
   id="svg2"
   version="1.1"><metadata
     id="metadata8"><rdf:RDF><cc:Work
         rdf:about=""><dc:format>image/svg+xml</dc:format><dc:type
           rdf:resource="http://purl.org/dc/dcmitype/StillImage" /></cc:Work></rdf:RDF></metadata><defs
     id="defs6" /><g
     transform="matrix(1.3333333,0,0,-1.3333333,0,13.333333)"
     id="g10"><g
       transform="scale(0.1)"
       id="g12"><path
         id="path14"
         style="fill:#000000;fill-opacity:1;fill-rule:nonzero;stroke:none"
         d="m 84.75,78.375 c 1.2344,3.2969 1.8594,4.5313 14.4375,4.5313 v 9.7031 c -5.1562,-0.4219 -11.1406,-0.625 -16.2969,-0.625 -6.6093,0 -15.6875,0.4062 -18.5625,0.625 v -9.7031 c 1.4375,0 10.5157,-0.2032 10.5157,-2.4688 0,-0.2187 0,-0.4219 -0.8282,-2.4844 L 56.0625,31.3281 36.2656,82.9063 h 11.75 v 9.7031 c -5.9687,-0.2188 -19.1875,-0.625 -25.375,-0.625 -5.3593,0 -16.09372,0.4062 -23.10935,0.625 V 82.9063 H 12.3281 l 29.5,-76.95317 c 2.0625,-5.35938 4.3438,-5.781255 7.6407,-5.781255 5.1562,0 5.9843,2.265625 7.2187,5.578125 L 84.75,78.375" /></g></g></svg>