<?xml version="1.0" encoding="utf-8"?>
<svg xmlns="http://www.w3.org/2000/svg" xmlns:xlink="http://www.w3.org/1999/xlink" width="600" height="400" viewBox="0 0 2400 1600">
<defs>
  <clipPath id="clip300">
    <rect x="0" y="0" width="2400" height="1600"/>
  </clipPath>
</defs>
<path clip-path="url(#clip300)" d="
M0 1600 L2400 1600 L2400 0 L0 0  Z
  " fill="#ffffff" fill-rule="evenodd" fill-opacity="1"/>
<defs>
  <clipPath id="clip301">
    <rect x="480" y="0" width="1681" height="1600"/>
  </clipPath>
</defs>
<path clip-path="url(#clip300)" d="
M251.88 1423.18 L2352.76 1423.18 L2352.76 123.472 L251.88 123.472  Z
  " fill="#ffffff" fill-rule="evenodd" fill-opacity="1"/>
<defs>
  <clipPath id="clip302">
    <rect x="251" y="123" width="2102" height="1301"/>
  </clipPath>
</defs>
<polyline clip-path="url(#clip302)" style="stroke:#000000; stroke-width:2; stroke-opacity:0.1; fill:none" points="
  311.339,1423.18 311.339,123.472 
  "/>
<polyline clip-path="url(#clip302)" style="stroke:#000000; stroke-width:2; stroke-opacity:0.1; fill:none" points="
  971.992,1423.18 971.992,123.472 
  "/>
<polyline clip-path="url(#clip302)" style="stroke:#000000; stroke-width:2; stroke-opacity:0.1; fill:none" points="
  1632.64,1423.18 1632.64,123.472 
  "/>
<polyline clip-path="url(#clip302)" style="stroke:#000000; stroke-width:2; stroke-opacity:0.1; fill:none" points="
  2293.3,1423.18 2293.3,123.472 
  "/>
<polyline clip-path="url(#clip302)" style="stroke:#000000; stroke-width:2; stroke-opacity:0.1; fill:none" points="
  251.88,1332.21 2352.76,1332.21 
  "/>
<polyline clip-path="url(#clip302)" style="stroke:#000000; stroke-width:2; stroke-opacity:0.1; fill:none" points="
  251.88,977.225 2352.76,977.225 
  "/>
<polyline clip-path="url(#clip302)" style="stroke:#000000; stroke-width:2; stroke-opacity:0.1; fill:none" points="
  251.88,622.239 2352.76,622.239 
  "/>
<polyline clip-path="url(#clip302)" style="stroke:#000000; stroke-width:2; stroke-opacity:0.1; fill:none" points="
  251.88,267.253 2352.76,267.253 
  "/>
<polyline clip-path="url(#clip300)" style="stroke:#000000; stroke-width:4; stroke-opacity:1; fill:none" points="
  251.88,1423.18 2352.76,1423.18 
  "/>
<polyline clip-path="url(#clip300)" style="stroke:#000000; stroke-width:4; stroke-opacity:1; fill:none" points="
  251.88,1423.18 251.88,123.472 
  "/>
<polyline clip-path="url(#clip300)" style="stroke:#000000; stroke-width:4; stroke-opacity:1; fill:none" points="
  311.339,1423.18 311.339,1407.58 
  "/>
<polyline clip-path="url(#clip300)" style="stroke:#000000; stroke-width:4; stroke-opacity:1; fill:none" points="
  971.992,1423.18 971.992,1407.58 
  "/>
<polyline clip-path="url(#clip300)" style="stroke:#000000; stroke-width:4; stroke-opacity:1; fill:none" points="
  1632.64,1423.18 1632.64,1407.58 
  "/>
<polyline clip-path="url(#clip300)" style="stroke:#000000; stroke-width:4; stroke-opacity:1; fill:none" points="
  2293.3,1423.18 2293.3,1407.58 
  "/>
<polyline clip-path="url(#clip300)" style="stroke:#000000; stroke-width:4; stroke-opacity:1; fill:none" points="
  251.88,1332.21 277.09,1332.21 
  "/>
<polyline clip-path="url(#clip300)" style="stroke:#000000; stroke-width:4; stroke-opacity:1; fill:none" points="
  251.88,977.225 277.09,977.225 
  "/>
<polyline clip-path="url(#clip300)" style="stroke:#000000; stroke-width:4; stroke-opacity:1; fill:none" points="
  251.88,622.239 277.09,622.239 
  "/>
<polyline clip-path="url(#clip300)" style="stroke:#000000; stroke-width:4; stroke-opacity:1; fill:none" points="
  251.88,267.253 277.09,267.253 
  "/>
<path clip-path="url(#clip300)" d="M 0 0 M311.339 1445.17 Q307.728 1445.17 305.899 1448.74 Q304.093 1452.28 304.093 1459.41 Q304.093 1466.51 305.899 1470.08 Q307.728 1473.62 311.339 1473.62 Q314.973 1473.62 316.779 1470.08 Q318.607 1466.51 318.607 1459.41 Q318.607 1452.28 316.779 1448.74 Q314.973 1445.17 311.339 1445.17 M311.339 1441.47 Q317.149 1441.47 320.204 1446.07 Q323.283 1450.66 323.283 1459.41 Q323.283 1468.13 320.204 1472.74 Q317.149 1477.32 311.339 1477.32 Q305.529 1477.32 302.45 1472.74 Q299.394 1468.13 299.394 1459.41 Q299.394 1450.66 302.45 1446.07 Q305.529 1441.47 311.339 1441.47 Z" fill="#000000" fill-rule="evenodd" fill-opacity="1" /><path clip-path="url(#clip300)" d="M 0 0 M948.867 1472.72 L956.506 1472.72 L956.506 1446.35 L948.195 1448.02 L948.195 1443.76 L956.459 1442.09 L961.135 1442.09 L961.135 1472.72 L968.774 1472.72 L968.774 1476.65 L948.867 1476.65 L948.867 1472.72 Z" fill="#000000" fill-rule="evenodd" fill-opacity="1" /><path clip-path="url(#clip300)" d="M 0 0 M983.843 1445.17 Q980.232 1445.17 978.404 1448.74 Q976.598 1452.28 976.598 1459.41 Q976.598 1466.51 978.404 1470.08 Q980.232 1473.62 983.843 1473.62 Q987.478 1473.62 989.283 1470.08 Q991.112 1466.51 991.112 1459.41 Q991.112 1452.28 989.283 1448.74 Q987.478 1445.17 983.843 1445.17 M983.843 1441.47 Q989.653 1441.47 992.709 1446.07 Q995.788 1450.66 995.788 1459.41 Q995.788 1468.13 992.709 1472.74 Q989.653 1477.32 983.843 1477.32 Q978.033 1477.32 974.954 1472.74 Q971.899 1468.13 971.899 1459.41 Q971.899 1450.66 974.954 1446.07 Q978.033 1441.47 983.843 1441.47 Z" fill="#000000" fill-rule="evenodd" fill-opacity="1" /><path clip-path="url(#clip300)" d="M 0 0 M1613.79 1472.72 L1630.11 1472.72 L1630.11 1476.65 L1608.17 1476.65 L1608.17 1472.72 Q1610.83 1469.96 1615.41 1465.33 Q1620.02 1460.68 1621.2 1459.34 Q1623.44 1456.81 1624.32 1455.08 Q1625.23 1453.32 1625.23 1451.63 Q1625.23 1448.87 1623.28 1447.14 Q1621.36 1445.4 1618.26 1445.4 Q1616.06 1445.4 1613.61 1446.17 Q1611.17 1446.93 1608.4 1448.48 L1608.4 1443.76 Q1611.22 1442.62 1613.67 1442.05 Q1616.13 1441.47 1618.17 1441.47 Q1623.54 1441.47 1626.73 1444.15 Q1629.92 1446.84 1629.92 1451.33 Q1629.92 1453.46 1629.11 1455.38 Q1628.33 1457.28 1626.22 1459.87 Q1625.64 1460.54 1622.54 1463.76 Q1619.44 1466.95 1613.79 1472.72 Z" fill="#000000" fill-rule="evenodd" fill-opacity="1" /><path clip-path="url(#clip300)" d="M 0 0 M1645.18 1445.17 Q1641.57 1445.17 1639.74 1448.74 Q1637.93 1452.28 1637.93 1459.41 Q1637.93 1466.51 1639.74 1470.08 Q1641.57 1473.62 1645.18 1473.62 Q1648.81 1473.62 1650.62 1470.08 Q1652.45 1466.51 1652.45 1459.41 Q1652.45 1452.28 1650.62 1448.74 Q1648.81 1445.17 1645.18 1445.17 M1645.18 1441.47 Q1650.99 1441.47 1654.04 1446.07 Q1657.12 1450.66 1657.12 1459.41 Q1657.12 1468.13 1654.04 1472.74 Q1650.99 1477.32 1645.18 1477.32 Q1639.37 1477.32 1636.29 1472.74 Q1633.23 1468.13 1633.23 1459.41 Q1633.23 1450.66 1636.29 1446.07 Q1639.37 1441.47 1645.18 1441.47 Z" fill="#000000" fill-rule="evenodd" fill-opacity="1" /><path clip-path="url(#clip300)" d="M 0 0 M2284.04 1458.02 Q2287.39 1458.74 2289.27 1461 Q2291.17 1463.27 2291.17 1466.61 Q2291.17 1471.72 2287.65 1474.52 Q2284.13 1477.32 2277.65 1477.32 Q2275.47 1477.32 2273.16 1476.88 Q2270.87 1476.47 2268.41 1475.61 L2268.41 1471.1 Q2270.36 1472.23 2272.67 1472.81 Q2274.99 1473.39 2277.51 1473.39 Q2281.91 1473.39 2284.2 1471.65 Q2286.51 1469.92 2286.51 1466.61 Q2286.51 1463.55 2284.36 1461.84 Q2282.23 1460.1 2278.41 1460.1 L2274.39 1460.1 L2274.39 1456.26 L2278.6 1456.26 Q2282.05 1456.26 2283.88 1454.89 Q2285.7 1453.5 2285.7 1450.91 Q2285.7 1448.25 2283.81 1446.84 Q2281.93 1445.4 2278.41 1445.4 Q2276.49 1445.4 2274.29 1445.82 Q2272.09 1446.24 2269.45 1447.11 L2269.45 1442.95 Q2272.12 1442.21 2274.43 1441.84 Q2276.77 1441.47 2278.83 1441.47 Q2284.15 1441.47 2287.26 1443.9 Q2290.36 1446.3 2290.36 1450.43 Q2290.36 1453.3 2288.71 1455.29 Q2287.07 1457.25 2284.04 1458.02 Z" fill="#000000" fill-rule="evenodd" fill-opacity="1" /><path clip-path="url(#clip300)" d="M 0 0 M2306.24 1445.17 Q2302.63 1445.17 2300.8 1448.74 Q2298.99 1452.28 2298.99 1459.41 Q2298.99 1466.51 2300.8 1470.08 Q2302.63 1473.62 2306.24 1473.62 Q2309.87 1473.62 2311.68 1470.08 Q2313.51 1466.51 2313.51 1459.41 Q2313.51 1452.28 2311.68 1448.74 Q2309.87 1445.17 2306.24 1445.17 M2306.24 1441.47 Q2312.05 1441.47 2315.1 1446.07 Q2318.18 1450.66 2318.18 1459.41 Q2318.18 1468.13 2315.1 1472.74 Q2312.05 1477.32 2306.24 1477.32 Q2300.43 1477.32 2297.35 1472.74 Q2294.29 1468.13 2294.29 1459.41 Q2294.29 1450.66 2297.35 1446.07 Q2300.43 1441.47 2306.24 1441.47 Z" fill="#000000" fill-rule="evenodd" fill-opacity="1" /><path clip-path="url(#clip300)" d="M 0 0 M126.931 1345.56 L134.57 1345.56 L134.57 1319.19 L126.26 1320.86 L126.26 1316.6 L134.524 1314.93 L139.2 1314.93 L139.2 1345.56 L146.839 1345.56 L146.839 1349.49 L126.931 1349.49 L126.931 1345.56 Z" fill="#000000" fill-rule="evenodd" fill-opacity="1" /><path clip-path="url(#clip300)" d="M 0 0 M161.908 1318.01 Q158.297 1318.01 156.468 1321.57 Q154.663 1325.12 154.663 1332.25 Q154.663 1339.35 156.468 1342.92 Q158.297 1346.46 161.908 1346.46 Q165.542 1346.46 167.348 1342.92 Q169.177 1339.35 169.177 1332.25 Q169.177 1325.12 167.348 1321.57 Q165.542 1318.01 161.908 1318.01 M161.908 1314.31 Q167.718 1314.31 170.774 1318.91 Q173.852 1323.5 173.852 1332.25 Q173.852 1340.97 170.774 1345.58 Q167.718 1350.16 161.908 1350.16 Q156.098 1350.16 153.019 1345.58 Q149.964 1340.97 149.964 1332.25 Q149.964 1323.5 153.019 1318.91 Q156.098 1314.31 161.908 1314.31 Z" fill="#000000" fill-rule="evenodd" fill-opacity="1" /><path clip-path="url(#clip300)" d="M 0 0 M188.922 1318.01 Q185.311 1318.01 183.482 1321.57 Q181.677 1325.12 181.677 1332.25 Q181.677 1339.35 183.482 1342.92 Q185.311 1346.46 188.922 1346.46 Q192.556 1346.46 194.362 1342.92 Q196.19 1339.35 196.19 1332.25 Q196.19 1325.12 194.362 1321.57 Q192.556 1318.01 188.922 1318.01 M188.922 1314.31 Q194.732 1314.31 197.788 1318.91 Q200.866 1323.5 200.866 1332.25 Q200.866 1340.97 197.788 1345.58 Q194.732 1350.16 188.922 1350.16 Q183.112 1350.16 180.033 1345.58 Q176.977 1340.97 176.977 1332.25 Q176.977 1323.5 180.033 1318.91 Q183.112 1314.31 188.922 1314.31 Z" fill="#000000" fill-rule="evenodd" fill-opacity="1" /><path clip-path="url(#clip300)" d="M 0 0 M215.936 1318.01 Q212.325 1318.01 210.496 1321.57 Q208.69 1325.12 208.69 1332.25 Q208.69 1339.35 210.496 1342.92 Q212.325 1346.46 215.936 1346.46 Q219.57 1346.46 221.375 1342.92 Q223.204 1339.35 223.204 1332.25 Q223.204 1325.12 221.375 1321.57 Q219.57 1318.01 215.936 1318.01 M215.936 1314.31 Q221.746 1314.31 224.801 1318.91 Q227.88 1323.5 227.88 1332.25 Q227.88 1340.97 224.801 1345.58 Q221.746 1350.16 215.936 1350.16 Q210.125 1350.16 207.047 1345.58 Q203.991 1340.97 203.991 1332.25 Q203.991 1323.5 207.047 1318.91 Q210.125 1314.31 215.936 1314.31 Z" fill="#000000" fill-rule="evenodd" fill-opacity="1" /><path clip-path="url(#clip300)" d="M 0 0 M128.158 990.569 L135.797 990.569 L135.797 964.204 L127.487 965.871 L127.487 961.611 L135.751 959.945 L140.427 959.945 L140.427 990.569 L148.066 990.569 L148.066 994.505 L128.158 994.505 L128.158 990.569 Z" fill="#000000" fill-rule="evenodd" fill-opacity="1" /><path clip-path="url(#clip300)" d="M 0 0 M153.945 990.569 L161.584 990.569 L161.584 964.204 L153.274 965.871 L153.274 961.611 L161.538 959.945 L166.214 959.945 L166.214 990.569 L173.852 990.569 L173.852 994.505 L153.945 994.505 L153.945 990.569 Z" fill="#000000" fill-rule="evenodd" fill-opacity="1" /><path clip-path="url(#clip300)" d="M 0 0 M188.922 963.023 Q185.311 963.023 183.482 966.588 Q181.677 970.13 181.677 977.259 Q181.677 984.366 183.482 987.931 Q185.311 991.472 188.922 991.472 Q192.556 991.472 194.362 987.931 Q196.19 984.366 196.19 977.259 Q196.19 970.13 194.362 966.588 Q192.556 963.023 188.922 963.023 M188.922 959.32 Q194.732 959.32 197.788 963.926 Q200.866 968.509 200.866 977.259 Q200.866 985.986 197.788 990.593 Q194.732 995.176 188.922 995.176 Q183.112 995.176 180.033 990.593 Q176.977 985.986 176.977 977.259 Q176.977 968.509 180.033 963.926 Q183.112 959.32 188.922 959.32 Z" fill="#000000" fill-rule="evenodd" fill-opacity="1" /><path clip-path="url(#clip300)" d="M 0 0 M215.936 963.023 Q212.325 963.023 210.496 966.588 Q208.69 970.13 208.69 977.259 Q208.69 984.366 210.496 987.931 Q212.325 991.472 215.936 991.472 Q219.57 991.472 221.375 987.931 Q223.204 984.366 223.204 977.259 Q223.204 970.13 221.375 966.588 Q219.57 963.023 215.936 963.023 M215.936 959.32 Q221.746 959.32 224.801 963.926 Q227.88 968.509 227.88 977.259 Q227.88 985.986 224.801 990.593 Q221.746 995.176 215.936 995.176 Q210.125 995.176 207.047 990.593 Q203.991 985.986 203.991 977.259 Q203.991 968.509 207.047 963.926 Q210.125 959.32 215.936 959.32 Z" fill="#000000" fill-rule="evenodd" fill-opacity="1" /><path clip-path="url(#clip300)" d="M 0 0 M128.529 635.583 L136.168 635.583 L136.168 609.218 L127.857 610.885 L127.857 606.625 L136.121 604.959 L140.797 604.959 L140.797 635.583 L148.436 635.583 L148.436 639.519 L128.529 639.519 L128.529 635.583 Z" fill="#000000" fill-rule="evenodd" fill-opacity="1" /><path clip-path="url(#clip300)" d="M 0 0 M157.533 635.583 L173.852 635.583 L173.852 639.519 L151.908 639.519 L151.908 635.583 Q154.57 632.829 159.153 628.199 Q163.76 623.546 164.941 622.204 Q167.186 619.681 168.065 617.945 Q168.968 616.185 168.968 614.496 Q168.968 611.741 167.024 610.005 Q165.103 608.269 162.001 608.269 Q159.802 608.269 157.348 609.033 Q154.917 609.797 152.14 611.347 L152.14 606.625 Q154.964 605.491 157.417 604.912 Q159.871 604.334 161.908 604.334 Q167.278 604.334 170.473 607.019 Q173.667 609.704 173.667 614.195 Q173.667 616.324 172.857 618.246 Q172.07 620.144 169.964 622.736 Q169.385 623.408 166.283 626.625 Q163.181 629.82 157.533 635.583 Z" fill="#000000" fill-rule="evenodd" fill-opacity="1" /><path clip-path="url(#clip300)" d="M 0 0 M188.922 608.037 Q185.311 608.037 183.482 611.602 Q181.677 615.144 181.677 622.273 Q181.677 629.38 183.482 632.945 Q185.311 636.486 188.922 636.486 Q192.556 636.486 194.362 632.945 Q196.19 629.38 196.19 622.273 Q196.19 615.144 194.362 611.602 Q192.556 608.037 188.922 608.037 M188.922 604.334 Q194.732 604.334 197.788 608.94 Q200.866 613.523 200.866 622.273 Q200.866 631 197.788 635.607 Q194.732 640.19 188.922 640.19 Q183.112 640.19 180.033 635.607 Q176.977 631 176.977 622.273 Q176.977 613.523 180.033 608.94 Q183.112 604.334 188.922 604.334 Z" fill="#000000" fill-rule="evenodd" fill-opacity="1" /><path clip-path="url(#clip300)" d="M 0 0 M215.936 608.037 Q212.325 608.037 210.496 611.602 Q208.69 615.144 208.69 622.273 Q208.69 629.38 210.496 632.945 Q212.325 636.486 215.936 636.486 Q219.57 636.486 221.375 632.945 Q223.204 629.38 223.204 622.273 Q223.204 615.144 221.375 611.602 Q219.57 608.037 215.936 608.037 M215.936 604.334 Q221.746 604.334 224.801 608.94 Q227.88 613.523 227.88 622.273 Q227.88 631 224.801 635.607 Q221.746 640.19 215.936 640.19 Q210.125 640.19 207.047 635.607 Q203.991 631 203.991 622.273 Q203.991 613.523 207.047 608.94 Q210.125 604.334 215.936 604.334 Z" fill="#000000" fill-rule="evenodd" fill-opacity="1" /><path clip-path="url(#clip300)" d="M 0 0 M127.58 280.597 L135.218 280.597 L135.218 254.232 L126.908 255.899 L126.908 251.639 L135.172 249.973 L139.848 249.973 L139.848 280.597 L147.487 280.597 L147.487 284.533 L127.58 284.533 L127.58 280.597 Z" fill="#000000" fill-rule="evenodd" fill-opacity="1" /><path clip-path="url(#clip300)" d="M 0 0 M166.723 265.898 Q170.079 266.616 171.954 268.885 Q173.852 271.153 173.852 274.486 Q173.852 279.602 170.334 282.403 Q166.815 285.204 160.334 285.204 Q158.158 285.204 155.843 284.764 Q153.552 284.347 151.098 283.491 L151.098 278.977 Q153.042 280.111 155.357 280.69 Q157.672 281.269 160.195 281.269 Q164.593 281.269 166.885 279.533 Q169.2 277.797 169.2 274.486 Q169.2 271.431 167.047 269.718 Q164.917 267.982 161.098 267.982 L157.07 267.982 L157.07 264.139 L161.283 264.139 Q164.732 264.139 166.561 262.773 Q168.39 261.385 168.39 258.792 Q168.39 256.13 166.491 254.718 Q164.616 253.283 161.098 253.283 Q159.177 253.283 156.978 253.699 Q154.779 254.116 152.14 254.996 L152.14 250.829 Q154.802 250.088 157.116 249.718 Q159.454 249.348 161.515 249.348 Q166.839 249.348 169.94 251.778 Q173.042 254.186 173.042 258.306 Q173.042 261.176 171.399 263.167 Q169.755 265.135 166.723 265.898 Z" fill="#000000" fill-rule="evenodd" fill-opacity="1" /><path clip-path="url(#clip300)" d="M 0 0 M188.922 253.051 Q185.311 253.051 183.482 256.616 Q181.677 260.158 181.677 267.287 Q181.677 274.394 183.482 277.959 Q185.311 281.5 188.922 281.5 Q192.556 281.5 194.362 277.959 Q196.19 274.394 196.19 267.287 Q196.19 260.158 194.362 256.616 Q192.556 253.051 188.922 253.051 M188.922 249.348 Q194.732 249.348 197.788 253.954 Q200.866 258.537 200.866 267.287 Q200.866 276.014 197.788 280.621 Q194.732 285.204 188.922 285.204 Q183.112 285.204 180.033 280.621 Q176.977 276.014 176.977 267.287 Q176.977 258.537 180.033 253.954 Q183.112 249.348 188.922 249.348 Z" fill="#000000" fill-rule="evenodd" fill-opacity="1" /><path clip-path="url(#clip300)" d="M 0 0 M215.936 253.051 Q212.325 253.051 210.496 256.616 Q208.69 260.158 208.69 267.287 Q208.69 274.394 210.496 277.959 Q212.325 281.5 215.936 281.5 Q219.57 281.5 221.375 277.959 Q223.204 274.394 223.204 267.287 Q223.204 260.158 221.375 256.616 Q219.57 253.051 215.936 253.051 M215.936 249.348 Q221.746 249.348 224.801 253.954 Q227.88 258.537 227.88 267.287 Q227.88 276.014 224.801 280.621 Q221.746 285.204 215.936 285.204 Q210.125 285.204 207.047 280.621 Q203.991 276.014 203.991 267.287 Q203.991 258.537 207.047 253.954 Q210.125 249.348 215.936 249.348 Z" fill="#000000" fill-rule="evenodd" fill-opacity="1" /><path clip-path="url(#clip300)" d="M 0 0 M958.275 18.8205 L958.275 41.5461 L968.564 41.5461 Q974.276 41.5461 977.395 38.5889 Q980.514 35.6318 980.514 30.163 Q980.514 24.7348 977.395 21.7777 Q974.276 18.8205 968.564 18.8205 L958.275 18.8205 M950.092 12.096 L968.564 12.096 Q978.732 12.096 983.917 16.714 Q989.143 21.2916 989.143 30.163 Q989.143 39.1155 983.917 43.6931 Q978.732 48.2706 968.564 48.2706 L958.275 48.2706 L958.275 72.576 L950.092 72.576 L950.092 12.096 Z" fill="#000000" fill-rule="evenodd" fill-opacity="1" /><path clip-path="url(#clip300)" d="M 0 0 M1011.58 32.4315 Q1005.59 32.4315 1002.11 37.1306 Q998.622 41.7891 998.622 49.9314 Q998.622 58.0738 1002.06 62.7728 Q1005.55 67.4314 1011.58 67.4314 Q1017.54 67.4314 1021.02 62.7323 Q1024.51 58.0333 1024.51 49.9314 Q1024.51 41.8701 1021.02 37.1711 Q1017.54 32.4315 1011.58 32.4315 M1011.58 26.1121 Q1021.31 26.1121 1026.86 32.4315 Q1032.41 38.7509 1032.41 49.9314 Q1032.41 61.0714 1026.86 67.4314 Q1021.31 73.7508 1011.58 73.7508 Q1001.82 73.7508 996.272 67.4314 Q990.763 61.0714 990.763 49.9314 Q990.763 38.7509 996.272 32.4315 Q1001.82 26.1121 1011.58 26.1121 Z" fill="#000000" fill-rule="evenodd" fill-opacity="1" /><path clip-path="url(#clip300)" d="M 0 0 M1047.44 65.7705 L1047.44 89.8329 L1039.94 89.8329 L1039.94 27.2059 L1047.44 27.2059 L1047.44 34.0924 Q1049.78 30.0415 1053.35 28.0971 Q1056.95 26.1121 1061.94 26.1121 Q1070.2 26.1121 1075.35 32.6746 Q1080.53 39.2371 1080.53 49.9314 Q1080.53 60.6258 1075.35 67.1883 Q1070.2 73.7508 1061.94 73.7508 Q1056.95 73.7508 1053.35 71.8063 Q1049.78 69.8214 1047.44 65.7705 M1072.79 49.9314 Q1072.79 41.7081 1069.39 37.0496 Q1066.03 32.3505 1060.11 32.3505 Q1054.2 32.3505 1050.8 37.0496 Q1047.44 41.7081 1047.44 49.9314 Q1047.44 58.1548 1050.8 62.8538 Q1054.2 67.5124 1060.11 67.5124 Q1066.03 67.5124 1069.39 62.8538 Q1072.79 58.1548 1072.79 49.9314 Z" fill="#000000" fill-rule="evenodd" fill-opacity="1" /><path clip-path="url(#clip300)" d="M 0 0 M1087.58 54.671 L1087.58 27.2059 L1095.03 27.2059 L1095.03 54.3874 Q1095.03 60.8284 1097.54 64.0691 Q1100.06 67.2693 1105.08 67.2693 Q1111.12 67.2693 1114.6 63.421 Q1118.12 59.5726 1118.12 52.9291 L1118.12 27.2059 L1125.58 27.2059 L1125.58 72.576 L1118.12 72.576 L1118.12 65.6084 Q1115.41 69.7404 1111.8 71.7658 Q1108.24 73.7508 1103.5 73.7508 Q1095.68 73.7508 1091.63 68.8897 Q1087.58 64.0286 1087.58 54.671 M1106.34 26.1121 L1106.34 26.1121 Z" fill="#000000" fill-rule="evenodd" fill-opacity="1" /><path clip-path="url(#clip300)" d="M 0 0 M1133.4 9.54393 L1140.85 9.54393 L1140.85 72.576 L1133.4 72.576 L1133.4 9.54393 Z" fill="#000000" fill-rule="evenodd" fill-opacity="1" /><path clip-path="url(#clip300)" d="M 0 0 M1169.29 49.7694 Q1160.25 49.7694 1156.77 51.8354 Q1153.29 53.9013 1153.29 58.8839 Q1153.29 62.8538 1155.88 65.2034 Q1158.51 67.5124 1163.01 67.5124 Q1169.21 67.5124 1172.93 63.1374 Q1176.7 58.7219 1176.7 51.4303 L1176.7 49.7694 L1169.29 49.7694 M1184.15 46.6907 L1184.15 72.576 L1176.7 72.576 L1176.7 65.6895 Q1174.15 69.8214 1170.34 71.8063 Q1166.53 73.7508 1161.02 73.7508 Q1154.05 73.7508 1149.92 69.8619 Q1145.83 65.9325 1145.83 59.3701 Q1145.83 51.7138 1150.94 47.825 Q1156.08 43.9361 1166.25 43.9361 L1176.7 43.9361 L1176.7 43.2069 Q1176.7 38.0623 1173.3 35.2672 Q1169.93 32.4315 1163.82 32.4315 Q1159.93 32.4315 1156.24 33.3632 Q1152.56 34.295 1149.15 36.1584 L1149.15 29.2718 Q1153.24 27.692 1157.09 26.9223 Q1160.94 26.1121 1164.59 26.1121 Q1174.43 26.1121 1179.29 31.2163 Q1184.15 36.3204 1184.15 46.6907 Z" fill="#000000" fill-rule="evenodd" fill-opacity="1" /><path clip-path="url(#clip300)" d="M 0 0 M1199.34 14.324 L1199.34 27.2059 L1214.7 27.2059 L1214.7 32.9987 L1199.34 32.9987 L1199.34 57.6282 Q1199.34 63.1779 1200.84 64.7578 Q1202.38 66.3376 1207.04 66.3376 L1214.7 66.3376 L1214.7 72.576 L1207.04 72.576 Q1198.41 72.576 1195.13 69.3758 Q1191.85 66.1351 1191.85 57.6282 L1191.85 32.9987 L1186.38 32.9987 L1186.38 27.2059 L1191.85 27.2059 L1191.85 14.324 L1199.34 14.324 Z" fill="#000000" fill-rule="evenodd" fill-opacity="1" /><path clip-path="url(#clip300)" d="M 0 0 M1222.52 27.2059 L1229.97 27.2059 L1229.97 72.576 L1222.52 72.576 L1222.52 27.2059 M1222.52 9.54393 L1229.97 9.54393 L1229.97 18.9825 L1222.52 18.9825 L1222.52 9.54393 Z" fill="#000000" fill-rule="evenodd" fill-opacity="1" /><path clip-path="url(#clip300)" d="M 0 0 M1255.37 32.4315 Q1249.37 32.4315 1245.89 37.1306 Q1242.41 41.7891 1242.41 49.9314 Q1242.41 58.0738 1245.85 62.7728 Q1249.33 67.4314 1255.37 67.4314 Q1261.32 67.4314 1264.81 62.7323 Q1268.29 58.0333 1268.29 49.9314 Q1268.29 41.8701 1264.81 37.1711 Q1261.32 32.4315 1255.37 32.4315 M1255.37 26.1121 Q1265.09 26.1121 1270.64 32.4315 Q1276.19 38.7509 1276.19 49.9314 Q1276.19 61.0714 1270.64 67.4314 Q1265.09 73.7508 1255.37 73.7508 Q1245.61 73.7508 1240.06 67.4314 Q1234.55 61.0714 1234.55 49.9314 Q1234.55 38.7509 1240.06 32.4315 Q1245.61 26.1121 1255.37 26.1121 Z" fill="#000000" fill-rule="evenodd" fill-opacity="1" /><path clip-path="url(#clip300)" d="M 0 0 M1321.72 45.1919 L1321.72 72.576 L1314.27 72.576 L1314.27 45.4349 Q1314.27 38.994 1311.76 35.7938 Q1309.24 32.5936 1304.22 32.5936 Q1298.19 32.5936 1294.7 36.4419 Q1291.22 40.2903 1291.22 46.9338 L1291.22 72.576 L1283.72 72.576 L1283.72 27.2059 L1291.22 27.2059 L1291.22 34.2544 Q1293.89 30.163 1297.5 28.1376 Q1301.14 26.1121 1305.88 26.1121 Q1313.7 26.1121 1317.71 30.9732 Q1321.72 35.7938 1321.72 45.1919 Z" fill="#000000" fill-rule="evenodd" fill-opacity="1" /><path clip-path="url(#clip300)" d="M 0 0 M1373.49 32.4315 Q1367.5 32.4315 1364.01 37.1306 Q1360.53 41.7891 1360.53 49.9314 Q1360.53 58.0738 1363.97 62.7728 Q1367.46 67.4314 1373.49 67.4314 Q1379.45 67.4314 1382.93 62.7323 Q1386.41 58.0333 1386.41 49.9314 Q1386.41 41.8701 1382.93 37.1711 Q1379.45 32.4315 1373.49 32.4315 M1373.49 26.1121 Q1383.21 26.1121 1388.76 32.4315 Q1394.31 38.7509 1394.31 49.9314 Q1394.31 61.0714 1388.76 67.4314 Q1383.21 73.7508 1373.49 73.7508 Q1363.73 73.7508 1358.18 67.4314 Q1352.67 61.0714 1352.67 49.9314 Q1352.67 38.7509 1358.18 32.4315 Q1363.73 26.1121 1373.49 26.1121 Z" fill="#000000" fill-rule="evenodd" fill-opacity="1" /><path clip-path="url(#clip300)" d="M 0 0 M1425.1 9.54393 L1425.1 15.7418 L1417.97 15.7418 Q1413.96 15.7418 1412.38 17.3622 Q1410.84 18.9825 1410.84 23.1955 L1410.84 27.2059 L1423.12 27.2059 L1423.12 32.9987 L1410.84 32.9987 L1410.84 72.576 L1403.35 72.576 L1403.35 32.9987 L1396.22 32.9987 L1396.22 27.2059 L1403.35 27.2059 L1403.35 24.0462 Q1403.35 16.471 1406.87 13.0277 Q1410.4 9.54393 1418.05 9.54393 L1425.1 9.54393 Z" fill="#000000" fill-rule="evenodd" fill-opacity="1" /><path clip-path="url(#clip300)" d="M 0 0 M1504.9 16.7545 L1504.9 25.383 Q1500.77 21.5346 1496.07 19.6307 Q1491.41 17.7268 1486.15 17.7268 Q1475.78 17.7268 1470.27 24.0867 Q1464.76 30.4061 1464.76 42.3968 Q1464.76 54.3469 1470.27 60.7069 Q1475.78 67.0263 1486.15 67.0263 Q1491.41 67.0263 1496.07 65.1223 Q1500.77 63.2184 1504.9 59.3701 L1504.9 67.9175 Q1500.61 70.8341 1495.79 72.2924 Q1491.01 73.7508 1485.66 73.7508 Q1471.93 73.7508 1464.03 65.3654 Q1456.13 56.9395 1456.13 42.3968 Q1456.13 27.8135 1464.03 19.4281 Q1471.93 11.0023 1485.66 11.0023 Q1491.09 11.0023 1495.87 12.4606 Q1500.69 13.8784 1504.9 16.7545 Z" fill="#000000" fill-rule="evenodd" fill-opacity="1" /><path clip-path="url(#clip300)" d="M 0 0 M1550.44 45.1919 L1550.44 72.576 L1542.98 72.576 L1542.98 45.4349 Q1542.98 38.994 1540.47 35.7938 Q1537.96 32.5936 1532.94 32.5936 Q1526.9 32.5936 1523.42 36.4419 Q1519.93 40.2903 1519.93 46.9338 L1519.93 72.576 L1512.44 72.576 L1512.44 9.54393 L1519.93 9.54393 L1519.93 34.2544 Q1522.61 30.163 1526.21 28.1376 Q1529.86 26.1121 1534.6 26.1121 Q1542.42 26.1121 1546.43 30.9732 Q1550.44 35.7938 1550.44 45.1919 Z" fill="#000000" fill-rule="evenodd" fill-opacity="1" /><path clip-path="url(#clip300)" d="M 0 0 M1558.25 27.2059 L1565.71 27.2059 L1565.71 72.576 L1558.25 72.576 L1558.25 27.2059 M1558.25 9.54393 L1565.71 9.54393 L1565.71 18.9825 L1558.25 18.9825 L1558.25 9.54393 Z" fill="#000000" fill-rule="evenodd" fill-opacity="1" /><path clip-path="url(#clip300)" d="M 0 0 M1611.24 45.1919 L1611.24 72.576 L1603.79 72.576 L1603.79 45.4349 Q1603.79 38.994 1601.27 35.7938 Q1598.76 32.5936 1593.74 32.5936 Q1587.7 32.5936 1584.22 36.4419 Q1580.74 40.2903 1580.74 46.9338 L1580.74 72.576 L1573.24 72.576 L1573.24 27.2059 L1580.74 27.2059 L1580.74 34.2544 Q1583.41 30.163 1587.02 28.1376 Q1590.66 26.1121 1595.4 26.1121 Q1603.22 26.1121 1607.23 30.9732 Q1611.24 35.7938 1611.24 45.1919 Z" fill="#000000" fill-rule="evenodd" fill-opacity="1" /><path clip-path="url(#clip300)" d="M 0 0 M1639.68 49.7694 Q1630.64 49.7694 1627.16 51.8354 Q1623.68 53.9013 1623.68 58.8839 Q1623.68 62.8538 1626.27 65.2034 Q1628.9 67.5124 1633.4 67.5124 Q1639.6 67.5124 1643.32 63.1374 Q1647.09 58.7219 1647.09 51.4303 L1647.09 49.7694 L1639.68 49.7694 M1654.54 46.6907 L1654.54 72.576 L1647.09 72.576 L1647.09 65.6895 Q1644.54 69.8214 1640.73 71.8063 Q1636.92 73.7508 1631.41 73.7508 Q1624.45 73.7508 1620.31 69.8619 Q1616.22 65.9325 1616.22 59.3701 Q1616.22 51.7138 1621.33 47.825 Q1626.47 43.9361 1636.64 43.9361 L1647.09 43.9361 L1647.09 43.2069 Q1647.09 38.0623 1643.69 35.2672 Q1640.33 32.4315 1634.21 32.4315 Q1630.32 32.4315 1626.63 33.3632 Q1622.95 34.295 1619.54 36.1584 L1619.54 29.2718 Q1623.64 27.692 1627.48 26.9223 Q1631.33 26.1121 1634.98 26.1121 Q1644.82 26.1121 1649.68 31.2163 Q1654.54 36.3204 1654.54 46.6907 Z" fill="#000000" fill-rule="evenodd" fill-opacity="1" /><path clip-path="url(#clip300)" d="M 0 0 M1072.42 1559.35 Q1069.94 1565.72 1067.58 1567.66 Q1065.23 1569.6 1061.28 1569.6 L1056.6 1569.6 L1056.6 1564.7 L1060.04 1564.7 Q1062.46 1564.7 1063.79 1563.56 Q1065.13 1562.41 1066.75 1558.14 L1067.81 1555.47 L1053.39 1520.4 L1059.59 1520.4 L1070.73 1548.28 L1081.87 1520.4 L1088.08 1520.4 L1072.42 1559.35 Z" fill="#000000" fill-rule="evenodd" fill-opacity="1" /><path clip-path="url(#clip300)" d="M 0 0 M1124.71 1536.76 L1124.71 1539.62 L1097.79 1539.62 Q1098.17 1545.67 1101.42 1548.85 Q1104.69 1552 1110.52 1552 Q1113.89 1552 1117.04 1551.17 Q1120.23 1550.35 1123.35 1548.69 L1123.35 1554.23 Q1120.2 1555.57 1116.88 1556.27 Q1113.57 1556.97 1110.17 1556.97 Q1101.64 1556.97 1096.64 1552 Q1091.68 1547.04 1091.68 1538.57 Q1091.68 1529.82 1096.39 1524.69 Q1101.13 1519.54 1109.15 1519.54 Q1116.34 1519.54 1120.51 1524.18 Q1124.71 1528.8 1124.71 1536.76 M1118.86 1535.04 Q1118.79 1530.23 1116.15 1527.37 Q1113.54 1524.5 1109.21 1524.5 Q1104.31 1524.5 1101.35 1527.27 Q1098.42 1530.04 1097.98 1535.07 L1118.86 1535.04 Z" fill="#000000" fill-rule="evenodd" fill-opacity="1" /><path clip-path="url(#clip300)" d="M 0 0 M1147.06 1538.12 Q1139.96 1538.12 1137.22 1539.75 Q1134.49 1541.37 1134.49 1545.29 Q1134.49 1548.4 1136.52 1550.25 Q1138.59 1552.07 1142.12 1552.07 Q1146.99 1552.07 1149.92 1548.63 Q1152.88 1545.16 1152.88 1539.43 L1152.88 1538.12 L1147.06 1538.12 M1158.74 1535.71 L1158.74 1556.04 L1152.88 1556.04 L1152.88 1550.63 Q1150.88 1553.88 1147.89 1555.44 Q1144.89 1556.97 1140.57 1556.97 Q1135.09 1556.97 1131.84 1553.91 Q1128.63 1550.82 1128.63 1545.67 Q1128.63 1539.65 1132.64 1536.6 Q1136.68 1533.54 1144.67 1533.54 L1152.88 1533.54 L1152.88 1532.97 Q1152.88 1528.93 1150.21 1526.73 Q1147.57 1524.5 1142.76 1524.5 Q1139.71 1524.5 1136.81 1525.23 Q1133.91 1525.97 1131.24 1527.43 L1131.24 1522.02 Q1134.45 1520.78 1137.48 1520.17 Q1140.5 1519.54 1143.37 1519.54 Q1151.1 1519.54 1154.92 1523.55 Q1158.74 1527.56 1158.74 1535.71 Z" fill="#000000" fill-rule="evenodd" fill-opacity="1" /><path clip-path="url(#clip300)" d="M 0 0 M1185.54 1525.87 Q1184.55 1525.3 1183.37 1525.04 Q1182.23 1524.76 1180.83 1524.76 Q1175.86 1524.76 1173.19 1528 Q1170.55 1531.22 1170.55 1537.27 L1170.55 1556.04 L1164.66 1556.04 L1164.66 1520.4 L1170.55 1520.4 L1170.55 1525.93 Q1172.39 1522.69 1175.35 1521.13 Q1178.31 1519.54 1182.55 1519.54 Q1183.15 1519.54 1183.88 1519.63 Q1184.62 1519.7 1185.51 1519.85 L1185.54 1525.87 Z" fill="#000000" fill-rule="evenodd" fill-opacity="1" /><path clip-path="url(#clip300)" d="M 0 0 M1214.41 1521.45 L1214.41 1526.98 Q1211.92 1525.71 1209.25 1525.07 Q1206.58 1524.44 1203.71 1524.44 Q1199.35 1524.44 1197.16 1525.77 Q1194.99 1527.11 1194.99 1529.79 Q1194.99 1531.82 1196.55 1533 Q1198.11 1534.15 1202.82 1535.2 L1204.83 1535.64 Q1211.07 1536.98 1213.68 1539.43 Q1216.32 1541.85 1216.32 1546.21 Q1216.32 1551.17 1212.37 1554.07 Q1208.46 1556.97 1201.58 1556.97 Q1198.72 1556.97 1195.6 1556.39 Q1192.51 1555.85 1189.07 1554.74 L1189.07 1548.69 Q1192.32 1550.38 1195.47 1551.24 Q1198.62 1552.07 1201.71 1552.07 Q1205.85 1552.07 1208.07 1550.66 Q1210.3 1549.23 1210.3 1546.65 Q1210.3 1544.27 1208.68 1542.99 Q1207.09 1541.72 1201.64 1540.54 L1199.61 1540.07 Q1194.16 1538.92 1191.75 1536.56 Q1189.33 1534.18 1189.33 1530.04 Q1189.33 1525.01 1192.89 1522.27 Q1196.46 1519.54 1203.01 1519.54 Q1206.26 1519.54 1209.12 1520.01 Q1211.99 1520.49 1214.41 1521.45 Z" fill="#000000" fill-rule="evenodd" fill-opacity="1" /><path clip-path="url(#clip300)" d="M 0 0 M1265.91 1521.45 L1265.91 1526.98 Q1263.42 1525.71 1260.75 1525.07 Q1258.08 1524.44 1255.21 1524.44 Q1250.85 1524.44 1248.66 1525.77 Q1246.49 1527.11 1246.49 1529.79 Q1246.49 1531.82 1248.05 1533 Q1249.61 1534.15 1254.32 1535.2 L1256.33 1535.64 Q1262.56 1536.98 1265.17 1539.43 Q1267.82 1541.85 1267.82 1546.21 Q1267.82 1551.17 1263.87 1554.07 Q1259.95 1556.97 1253.08 1556.97 Q1250.21 1556.97 1247.1 1556.39 Q1244.01 1555.85 1240.57 1554.74 L1240.57 1548.69 Q1243.82 1550.38 1246.97 1551.24 Q1250.12 1552.07 1253.21 1552.07 Q1257.34 1552.07 1259.57 1550.66 Q1261.8 1549.23 1261.8 1546.65 Q1261.8 1544.27 1260.18 1542.99 Q1258.59 1541.72 1253.14 1540.54 L1251.11 1540.07 Q1245.66 1538.92 1243.24 1536.56 Q1240.83 1534.18 1240.83 1530.04 Q1240.83 1525.01 1244.39 1522.27 Q1247.95 1519.54 1254.51 1519.54 Q1257.76 1519.54 1260.62 1520.01 Q1263.49 1520.49 1265.91 1521.45 Z" fill="#000000" fill-rule="evenodd" fill-opacity="1" /><path clip-path="url(#clip300)" d="M 0 0 M1273.96 1520.4 L1279.82 1520.4 L1279.82 1556.04 L1273.96 1556.04 L1273.96 1520.4 M1273.96 1506.52 L1279.82 1506.52 L1279.82 1513.93 L1273.96 1513.93 L1273.96 1506.52 Z" fill="#000000" fill-rule="evenodd" fill-opacity="1" /><path clip-path="url(#clip300)" d="M 0 0 M1315.59 1534.53 L1315.59 1556.04 L1309.73 1556.04 L1309.73 1534.72 Q1309.73 1529.66 1307.76 1527.14 Q1305.79 1524.63 1301.84 1524.63 Q1297.1 1524.63 1294.36 1527.65 Q1291.62 1530.68 1291.62 1535.9 L1291.62 1556.04 L1285.74 1556.04 L1285.74 1520.4 L1291.62 1520.4 L1291.62 1525.93 Q1293.72 1522.72 1296.56 1521.13 Q1299.42 1519.54 1303.15 1519.54 Q1309.29 1519.54 1312.44 1523.36 Q1315.59 1527.14 1315.59 1534.53 Z" fill="#000000" fill-rule="evenodd" fill-opacity="1" /><path clip-path="url(#clip300)" d="M 0 0 M1347.39 1521.76 L1347.39 1527.24 Q1344.9 1525.87 1342.39 1525.2 Q1339.91 1524.5 1337.36 1524.5 Q1331.66 1524.5 1328.51 1528.13 Q1325.36 1531.73 1325.36 1538.25 Q1325.36 1544.78 1328.51 1548.4 Q1331.66 1552 1337.36 1552 Q1339.91 1552 1342.39 1551.33 Q1344.9 1550.63 1347.39 1549.26 L1347.39 1554.68 Q1344.94 1555.82 1342.29 1556.39 Q1339.68 1556.97 1336.72 1556.97 Q1328.67 1556.97 1323.93 1551.91 Q1319.19 1546.85 1319.19 1538.25 Q1319.19 1529.53 1323.96 1524.53 Q1328.77 1519.54 1337.11 1519.54 Q1339.81 1519.54 1342.39 1520.11 Q1344.97 1520.65 1347.39 1521.76 Z" fill="#000000" fill-rule="evenodd" fill-opacity="1" /><path clip-path="url(#clip300)" d="M 0 0 M1384.02 1536.76 L1384.02 1539.62 L1357.09 1539.62 Q1357.48 1545.67 1360.72 1548.85 Q1364 1552 1369.83 1552 Q1373.2 1552 1376.35 1551.17 Q1379.53 1550.35 1382.65 1548.69 L1382.65 1554.23 Q1379.5 1555.57 1376.19 1556.27 Q1372.88 1556.97 1369.48 1556.97 Q1360.95 1556.97 1355.95 1552 Q1350.98 1547.04 1350.98 1538.57 Q1350.98 1529.82 1355.69 1524.69 Q1360.44 1519.54 1368.46 1519.54 Q1375.65 1519.54 1379.82 1524.18 Q1384.02 1528.8 1384.02 1536.76 M1378.17 1535.04 Q1378.1 1530.23 1375.46 1527.37 Q1372.85 1524.5 1368.52 1524.5 Q1363.62 1524.5 1360.66 1527.27 Q1357.73 1530.04 1357.29 1535.07 L1378.17 1535.04 Z" fill="#000000" fill-rule="evenodd" fill-opacity="1" /><path clip-path="url(#clip300)" d="M 0 0 M1412.83 1550.63 L1423.33 1550.63 L1423.33 1514.38 L1411.9 1516.67 L1411.9 1510.82 L1423.27 1508.52 L1429.7 1508.52 L1429.7 1550.63 L1440.2 1550.63 L1440.2 1556.04 L1412.83 1556.04 L1412.83 1550.63 Z" fill="#000000" fill-rule="evenodd" fill-opacity="1" /><path clip-path="url(#clip300)" d="M 0 0 M1447.36 1555.06 L1447.36 1549.2 Q1449.78 1550.35 1452.26 1550.95 Q1454.74 1551.56 1457.13 1551.56 Q1463.5 1551.56 1466.84 1547.29 Q1470.21 1542.99 1470.69 1534.27 Q1468.84 1537.01 1466.01 1538.47 Q1463.18 1539.94 1459.74 1539.94 Q1452.61 1539.94 1448.44 1535.64 Q1444.31 1531.31 1444.31 1523.83 Q1444.31 1516.51 1448.63 1512.09 Q1452.96 1507.66 1460.16 1507.66 Q1468.4 1507.66 1472.73 1514 Q1477.09 1520.3 1477.09 1532.33 Q1477.09 1543.57 1471.74 1550.28 Q1466.43 1556.97 1457.42 1556.97 Q1455 1556.97 1452.52 1556.49 Q1450.03 1556.01 1447.36 1555.06 M1460.16 1534.91 Q1464.48 1534.91 1467 1531.95 Q1469.55 1528.99 1469.55 1523.83 Q1469.55 1518.71 1467 1515.75 Q1464.48 1512.76 1460.16 1512.76 Q1455.83 1512.76 1453.28 1515.75 Q1450.77 1518.71 1450.77 1523.83 Q1450.77 1528.99 1453.28 1531.95 Q1455.83 1534.91 1460.16 1534.91 Z" fill="#000000" fill-rule="evenodd" fill-opacity="1" /><path clip-path="url(#clip300)" d="M 0 0 M1497.81 1533.48 Q1493.23 1533.48 1490.58 1535.93 Q1487.97 1538.38 1487.97 1542.68 Q1487.97 1546.97 1490.58 1549.42 Q1493.23 1551.87 1497.81 1551.87 Q1502.39 1551.87 1505.03 1549.42 Q1507.68 1546.94 1507.68 1542.68 Q1507.68 1538.38 1505.03 1535.93 Q1502.42 1533.48 1497.81 1533.48 M1491.38 1530.74 Q1487.24 1529.72 1484.92 1526.89 Q1482.63 1524.06 1482.63 1519.98 Q1482.63 1514.28 1486.67 1510.97 Q1490.74 1507.66 1497.81 1507.66 Q1504.91 1507.66 1508.95 1510.97 Q1512.99 1514.28 1512.99 1519.98 Q1512.99 1524.06 1510.67 1526.89 Q1508.38 1529.72 1504.27 1530.74 Q1508.92 1531.82 1511.5 1534.97 Q1514.11 1538.12 1514.11 1542.68 Q1514.11 1549.58 1509.87 1553.27 Q1505.67 1556.97 1497.81 1556.97 Q1489.95 1556.97 1485.71 1553.27 Q1481.51 1549.58 1481.51 1542.68 Q1481.51 1538.12 1484.12 1534.97 Q1486.73 1531.82 1491.38 1530.74 M1489.02 1520.59 Q1489.02 1524.28 1491.32 1526.35 Q1493.64 1528.42 1497.81 1528.42 Q1501.95 1528.42 1504.27 1526.35 Q1506.63 1524.28 1506.63 1520.59 Q1506.63 1516.89 1504.27 1514.83 Q1501.95 1512.76 1497.81 1512.76 Q1493.64 1512.76 1491.32 1514.83 Q1489.02 1516.89 1489.02 1520.59 Z" fill="#000000" fill-rule="evenodd" fill-opacity="1" /><path clip-path="url(#clip300)" d="M 0 0 M1534.83 1512.76 Q1529.86 1512.76 1527.35 1517.66 Q1524.86 1522.53 1524.86 1532.33 Q1524.86 1542.1 1527.35 1547 Q1529.86 1551.87 1534.83 1551.87 Q1539.82 1551.87 1542.31 1547 Q1544.82 1542.1 1544.82 1532.33 Q1544.82 1522.53 1542.31 1517.66 Q1539.82 1512.76 1534.83 1512.76 M1534.83 1507.66 Q1542.81 1507.66 1547.02 1514 Q1551.25 1520.3 1551.25 1532.33 Q1551.25 1544.33 1547.02 1550.66 Q1542.81 1556.97 1534.83 1556.97 Q1526.84 1556.97 1522.6 1550.66 Q1518.4 1544.33 1518.4 1532.33 Q1518.4 1520.3 1522.6 1514 Q1526.84 1507.66 1534.83 1507.66 Z" fill="#000000" fill-rule="evenodd" fill-opacity="1" /><path clip-path="url(#clip300)" d="M 0 0 M82.657 1050 L101.563 1050 L101.563 1055.88 L52.3562 1055.88 L52.3562 1050 L57.7671 1050 Q54.5842 1048.15 53.0564 1045.35 Q51.4968 1042.52 51.4968 1038.6 Q51.4968 1032.11 56.6531 1028.07 Q61.8093 1023.99 70.212 1023.99 Q78.6147 1023.99 83.771 1028.07 Q88.9272 1032.11 88.9272 1038.6 Q88.9272 1042.52 87.3994 1045.35 Q85.8398 1048.15 82.657 1050 M70.212 1030.07 Q63.7508 1030.07 60.0905 1032.74 Q56.3984 1035.39 56.3984 1040.03 Q56.3984 1044.68 60.0905 1047.35 Q63.7508 1050 70.212 1050 Q76.6732 1050 80.3653 1047.35 Q84.0256 1044.68 84.0256 1040.03 Q84.0256 1035.39 80.3653 1032.74 Q76.6732 1030.07 70.212 1030.07 Z" fill="#000000" fill-rule="evenodd" fill-opacity="1" /><path clip-path="url(#clip300)" d="M 0 0 M56.4621 1004.04 Q56.4621 1008.75 60.1542 1011.48 Q63.8145 1014.22 70.212 1014.22 Q76.6095 1014.22 80.3017 1011.51 Q83.9619 1008.78 83.9619 1004.04 Q83.9619 999.356 80.2698 996.619 Q76.5777 993.882 70.212 993.882 Q63.8781 993.882 60.186 996.619 Q56.4621 999.356 56.4621 1004.04 M51.4968 1004.04 Q51.4968 996.396 56.4621 992.036 Q61.4273 987.675 70.212 987.675 Q78.9649 987.675 83.9619 992.036 Q88.9272 996.396 88.9272 1004.04 Q88.9272 1011.71 83.9619 1016.07 Q78.9649 1020.39 70.212 1020.39 Q61.4273 1020.39 56.4621 1016.07 Q51.4968 1011.71 51.4968 1004.04 Z" fill="#000000" fill-rule="evenodd" fill-opacity="1" /><path clip-path="url(#clip300)" d="M 0 0 M82.657 975.867 L101.563 975.867 L101.563 981.755 L52.3562 981.755 L52.3562 975.867 L57.7671 975.867 Q54.5842 974.021 53.0564 971.22 Q51.4968 968.387 51.4968 964.472 Q51.4968 957.979 56.6531 953.937 Q61.8093 949.863 70.212 949.863 Q78.6147 949.863 83.771 953.937 Q88.9272 957.979 88.9272 964.472 Q88.9272 968.387 87.3994 971.22 Q85.8398 974.021 82.657 975.867 M70.212 955.942 Q63.7508 955.942 60.0905 958.616 Q56.3984 961.258 56.3984 965.905 Q56.3984 970.551 60.0905 973.225 Q63.7508 975.867 70.212 975.867 Q76.6732 975.867 80.3653 973.225 Q84.0256 970.551 84.0256 965.905 Q84.0256 961.258 80.3653 958.616 Q76.6732 955.942 70.212 955.942 Z" fill="#000000" fill-rule="evenodd" fill-opacity="1" /><path clip-path="url(#clip300)" d="M 0 0 M73.9359 944.325 L52.3562 944.325 L52.3562 938.468 L73.7131 938.468 Q78.7739 938.468 81.3202 936.495 Q83.8346 934.522 83.8346 930.575 Q83.8346 925.832 80.8109 923.095 Q77.7872 920.326 72.5673 920.326 L52.3562 920.326 L52.3562 914.47 L88.0042 914.47 L88.0042 920.326 L82.5296 920.326 Q85.7762 922.459 87.3676 925.291 Q88.9272 928.092 88.9272 931.816 Q88.9272 937.959 85.1078 941.142 Q81.2883 944.325 73.9359 944.325 M51.4968 929.588 L51.4968 929.588 Z" fill="#000000" fill-rule="evenodd" fill-opacity="1" /><path clip-path="url(#clip300)" d="M 0 0 M38.479 908.327 L38.479 902.47 L88.0042 902.47 L88.0042 908.327 L38.479 908.327 Z" fill="#000000" fill-rule="evenodd" fill-opacity="1" /><path clip-path="url(#clip300)" d="M 0 0 M70.0847 880.127 Q70.0847 887.224 71.7079 889.962 Q73.3312 892.699 77.2461 892.699 Q80.3653 892.699 82.2114 890.662 Q84.0256 888.593 84.0256 885.06 Q84.0256 880.19 80.5881 877.262 Q77.1188 874.302 71.3897 874.302 L70.0847 874.302 L70.0847 880.127 M67.6657 868.446 L88.0042 868.446 L88.0042 874.302 L82.5933 874.302 Q85.8398 876.307 87.3994 879.299 Q88.9272 882.291 88.9272 886.62 Q88.9272 892.094 85.8716 895.341 Q82.7843 898.555 77.6281 898.555 Q71.6125 898.555 68.5569 894.545 Q65.5014 890.503 65.5014 882.514 L65.5014 874.302 L64.9285 874.302 Q60.8862 874.302 58.6901 876.976 Q56.4621 879.617 56.4621 884.423 Q56.4621 887.479 57.1941 890.375 Q57.9262 893.272 59.3903 895.945 L53.9795 895.945 Q52.7381 892.731 52.1334 889.707 Q51.4968 886.683 51.4968 883.819 Q51.4968 876.084 55.5072 872.265 Q59.5176 868.446 67.6657 868.446 Z" fill="#000000" fill-rule="evenodd" fill-opacity="1" /><path clip-path="url(#clip300)" d="M 0 0 M42.2347 856.51 L52.3562 856.51 L52.3562 844.447 L56.9077 844.447 L56.9077 856.51 L76.2594 856.51 Q80.6199 856.51 81.8613 855.332 Q83.1026 854.123 83.1026 850.462 L83.1026 844.447 L88.0042 844.447 L88.0042 850.462 Q88.0042 857.242 85.4897 859.82 Q82.9434 862.398 76.2594 862.398 L56.9077 862.398 L56.9077 866.695 L52.3562 866.695 L52.3562 862.398 L42.2347 862.398 L42.2347 856.51 Z" fill="#000000" fill-rule="evenodd" fill-opacity="1" /><path clip-path="url(#clip300)" d="M 0 0 M52.3562 838.304 L52.3562 832.447 L88.0042 832.447 L88.0042 838.304 L52.3562 838.304 M38.479 838.304 L38.479 832.447 L45.895 832.447 L45.895 838.304 L38.479 838.304 Z" fill="#000000" fill-rule="evenodd" fill-opacity="1" /><path clip-path="url(#clip300)" d="M 0 0 M56.4621 812.491 Q56.4621 817.202 60.1542 819.939 Q63.8145 822.676 70.212 822.676 Q76.6095 822.676 80.3017 819.971 Q83.9619 817.233 83.9619 812.491 Q83.9619 807.812 80.2698 805.075 Q76.5777 802.338 70.212 802.338 Q63.8781 802.338 60.186 805.075 Q56.4621 807.812 56.4621 812.491 M51.4968 812.491 Q51.4968 804.852 56.4621 800.492 Q61.4273 796.131 70.212 796.131 Q78.9649 796.131 83.9619 800.492 Q88.9272 804.852 88.9272 812.491 Q88.9272 820.162 83.9619 824.522 Q78.9649 828.851 70.212 828.851 Q61.4273 828.851 56.4621 824.522 Q51.4968 820.162 51.4968 812.491 Z" fill="#000000" fill-rule="evenodd" fill-opacity="1" /><path clip-path="url(#clip300)" d="M 0 0 M66.4881 760.356 L88.0042 760.356 L88.0042 766.212 L66.679 766.212 Q61.6183 766.212 59.1038 768.186 Q56.5894 770.159 56.5894 774.106 Q56.5894 778.848 59.6131 781.585 Q62.6368 784.323 67.8567 784.323 L88.0042 784.323 L88.0042 790.211 L52.3562 790.211 L52.3562 784.323 L57.8944 784.323 Q54.6797 782.222 53.0883 779.389 Q51.4968 776.525 51.4968 772.801 Q51.4968 766.658 55.3163 763.507 Q59.1038 760.356 66.4881 760.356 Z" fill="#000000" fill-rule="evenodd" fill-opacity="1" /><path clip-path="url(#clip300)" d="M 0 0 M38.5426 719.424 Q45.8632 723.689 53.0246 725.758 Q60.186 727.827 67.5384 727.827 Q74.8908 727.827 82.1159 725.758 Q89.3091 723.658 96.5979 719.424 L96.5979 724.517 Q89.1182 729.291 81.8931 731.678 Q74.668 734.034 67.5384 734.034 Q60.4406 734.034 53.2474 731.678 Q46.0542 729.323 38.5426 724.517 L38.5426 719.424 Z" fill="#000000" fill-rule="evenodd" fill-opacity="1" /><path clip-path="url(#clip300)" d="M 0 0 M59.1993 685.527 Q55.2526 683.331 53.3747 680.275 Q51.4968 677.22 51.4968 673.082 Q51.4968 667.512 55.4117 664.488 Q59.2948 661.465 66.4881 661.465 L88.0042 661.465 L88.0042 667.353 L66.679 667.353 Q61.5546 667.353 59.072 669.167 Q56.5894 670.981 56.5894 674.705 Q56.5894 679.257 59.6131 681.899 Q62.6368 684.54 67.8567 684.54 L88.0042 684.54 L88.0042 690.429 L66.679 690.429 Q61.5228 690.429 59.072 692.243 Q56.5894 694.057 56.5894 697.845 Q56.5894 702.332 59.6449 704.974 Q62.6686 707.616 67.8567 707.616 L88.0042 707.616 L88.0042 713.504 L52.3562 713.504 L52.3562 707.616 L57.8944 707.616 Q54.616 705.611 53.0564 702.81 Q51.4968 700.009 51.4968 696.158 Q51.4968 692.275 53.4702 689.569 Q55.4436 686.832 59.1993 685.527 Z" fill="#000000" fill-rule="evenodd" fill-opacity="1" /><path clip-path="url(#clip300)" d="M 0 0 M52.3562 655.322 L52.3562 649.465 L88.0042 649.465 L88.0042 655.322 L52.3562 655.322 M38.479 655.322 L38.479 649.465 L45.895 649.465 L45.895 655.322 L38.479 655.322 Z" fill="#000000" fill-rule="evenodd" fill-opacity="1" /><path clip-path="url(#clip300)" d="M 0 0 M38.479 643.322 L38.479 637.466 L88.0042 637.466 L88.0042 643.322 L38.479 643.322 Z" fill="#000000" fill-rule="evenodd" fill-opacity="1" /><path clip-path="url(#clip300)" d="M 0 0 M38.479 631.323 L38.479 625.467 L88.0042 625.467 L88.0042 631.323 L38.479 631.323 Z" fill="#000000" fill-rule="evenodd" fill-opacity="1" /><path clip-path="url(#clip300)" d="M 0 0 M52.3562 619.324 L52.3562 613.467 L88.0042 613.467 L88.0042 619.324 L52.3562 619.324 M38.479 619.324 L38.479 613.467 L45.895 613.467 L45.895 619.324 L38.479 619.324 Z" fill="#000000" fill-rule="evenodd" fill-opacity="1" /><path clip-path="url(#clip300)" d="M 0 0 M56.4621 593.511 Q56.4621 598.221 60.1542 600.959 Q63.8145 603.696 70.212 603.696 Q76.6095 603.696 80.3017 600.99 Q83.9619 598.253 83.9619 593.511 Q83.9619 588.832 80.2698 586.095 Q76.5777 583.357 70.212 583.357 Q63.8781 583.357 60.186 586.095 Q56.4621 588.832 56.4621 593.511 M51.4968 593.511 Q51.4968 585.872 56.4621 581.511 Q61.4273 577.151 70.212 577.151 Q78.9649 577.151 83.9619 581.511 Q88.9272 585.872 88.9272 593.511 Q88.9272 601.181 83.9619 605.542 Q78.9649 609.871 70.212 609.871 Q61.4273 609.871 56.4621 605.542 Q51.4968 601.181 51.4968 593.511 Z" fill="#000000" fill-rule="evenodd" fill-opacity="1" /><path clip-path="url(#clip300)" d="M 0 0 M66.4881 541.376 L88.0042 541.376 L88.0042 547.232 L66.679 547.232 Q61.6183 547.232 59.1038 549.205 Q56.5894 551.179 56.5894 555.125 Q56.5894 559.868 59.6131 562.605 Q62.6368 565.342 67.8567 565.342 L88.0042 565.342 L88.0042 571.231 L52.3562 571.231 L52.3562 565.342 L57.8944 565.342 Q54.6797 563.242 53.0883 560.409 Q51.4968 557.544 51.4968 553.821 Q51.4968 547.678 55.3163 544.527 Q59.1038 541.376 66.4881 541.376 Z" fill="#000000" fill-rule="evenodd" fill-opacity="1" /><path clip-path="url(#clip300)" d="M 0 0 M53.4065 512.507 L58.9447 512.507 Q57.6716 514.99 57.035 517.663 Q56.3984 520.337 56.3984 523.201 Q56.3984 527.562 57.7352 529.758 Q59.072 531.922 61.7456 531.922 Q63.7826 531.922 64.9603 530.363 Q66.1061 528.803 67.1565 524.093 L67.6021 522.087 Q68.9389 515.849 71.3897 513.239 Q73.8086 510.597 78.1691 510.597 Q83.1344 510.597 86.0308 514.544 Q88.9272 518.459 88.9272 525.334 Q88.9272 528.199 88.3543 531.318 Q87.8132 534.405 86.6992 537.843 L80.6518 537.843 Q82.3387 534.596 83.198 531.445 Q84.0256 528.294 84.0256 525.207 Q84.0256 521.069 82.6251 518.841 Q81.1929 516.613 78.6147 516.613 Q76.2276 516.613 74.9545 518.236 Q73.6813 519.828 72.5037 525.27 L72.0262 527.307 Q70.8804 532.75 68.5251 535.169 Q66.138 537.588 62.0002 537.588 Q56.9713 537.588 54.2341 534.023 Q51.4968 530.458 51.4968 523.902 Q51.4968 520.655 51.9743 517.791 Q52.4517 514.926 53.4065 512.507 Z" fill="#000000" fill-rule="evenodd" fill-opacity="1" /><path clip-path="url(#clip300)" d="M 0 0 M38.5426 505.377 L38.5426 500.285 Q46.0542 495.511 53.2474 493.155 Q60.4406 490.768 67.5384 490.768 Q74.668 490.768 81.8931 493.155 Q89.1182 495.511 96.5979 500.285 L96.5979 505.377 Q89.3091 501.144 82.1159 499.075 Q74.8908 496.975 67.5384 496.975 Q60.186 496.975 53.0246 499.075 Q45.8632 501.144 38.5426 505.377 Z" fill="#000000" fill-rule="evenodd" fill-opacity="1" /><circle clip-path="url(#clip302)" cx="311.339" cy="1386.4" r="14" fill="#009af9" fill-rule="evenodd" fill-opacity="1" stroke="#000000" stroke-opacity="1" stroke-width="3.2"/>
<circle clip-path="url(#clip302)" cx="971.992" cy="805.539" r="14" fill="#009af9" fill-rule="evenodd" fill-opacity="1" stroke="#000000" stroke-opacity="1" stroke-width="3.2"/>
<circle clip-path="url(#clip302)" cx="1632.64" cy="396.333" r="14" fill="#009af9" fill-rule="evenodd" fill-opacity="1" stroke="#000000" stroke-opacity="1" stroke-width="3.2"/>
<circle clip-path="url(#clip302)" cx="2293.3" cy="160.256" r="14" fill="#009af9" fill-rule="evenodd" fill-opacity="1" stroke="#000000" stroke-opacity="1" stroke-width="3.2"/>
<polyline clip-path="url(#clip302)" style="stroke:#e26f46; stroke-width:4; stroke-opacity:1; fill:none" points="
  311.339,1386.4 315.311,1382.39 319.282,1378.4 323.254,1374.41 327.226,1370.42 331.198,1366.45 335.17,1362.48 339.142,1358.51 343.114,1354.55 347.085,1350.6 
  351.057,1346.65 355.029,1342.71 359.001,1338.78 362.973,1334.85 366.945,1330.93 370.917,1327.01 374.889,1323.1 378.86,1319.2 382.832,1315.3 386.804,1311.41 
  390.776,1307.52 394.748,1303.64 398.72,1299.77 402.692,1295.9 406.663,1292.04 410.635,1288.19 414.607,1284.34 418.579,1280.5 422.551,1276.66 426.523,1272.83 
  430.495,1269.01 434.466,1265.19 438.438,1261.38 442.41,1257.58 446.382,1253.78 450.354,1249.99 454.326,1246.2 458.298,1242.42 462.269,1238.64 466.241,1234.88 
  470.213,1231.11 474.185,1227.36 478.157,1223.61 482.129,1219.87 486.101,1216.13 490.072,1212.4 494.044,1208.67 498.016,1204.95 501.988,1201.24 505.96,1197.53 
  509.932,1193.83 513.904,1190.14 517.875,1186.45 521.847,1182.77 525.819,1179.09 529.791,1175.42 533.763,1171.76 537.735,1168.1 541.707,1164.45 545.679,1160.81 
  549.65,1157.17 553.622,1153.54 557.594,1149.91 561.566,1146.29 565.538,1142.68 569.51,1139.07 573.482,1135.47 577.453,1131.87 581.425,1128.28 585.397,1124.7 
  589.369,1121.12 593.341,1117.55 597.313,1113.99 601.285,1110.43 605.256,1106.88 609.228,1103.33 613.2,1099.79 617.172,1096.26 621.144,1092.73 625.116,1089.21 
  629.088,1085.69 633.059,1082.19 637.031,1078.68 641.003,1075.19 644.975,1071.7 648.947,1068.21 652.919,1064.73 656.891,1061.26 660.862,1057.8 664.834,1054.34 
  668.806,1050.88 672.778,1047.44 676.75,1043.99 680.722,1040.56 684.694,1037.13 688.665,1033.71 692.637,1030.29 696.609,1026.88 700.581,1023.48 704.553,1020.08 
  708.525,1016.69 712.497,1013.3 716.469,1009.92 720.44,1006.55 724.412,1003.18 728.384,999.824 732.356,996.469 736.328,993.121 740.3,989.779 744.272,986.443 
  748.243,983.113 752.215,979.79 756.187,976.473 760.159,973.161 764.131,969.856 768.103,966.558 772.075,963.265 776.046,959.979 780.018,956.698 783.99,953.424 
  787.962,950.157 791.934,946.895 795.906,943.64 799.878,940.39 803.849,937.147 807.821,933.91 811.793,930.68 815.765,927.455 819.737,924.237 823.709,921.025 
  827.681,917.819 831.652,914.619 835.624,911.425 839.596,908.238 843.568,905.057 847.54,901.882 851.512,898.713 855.484,895.551 859.455,892.394 863.427,889.244 
  867.399,886.1 871.371,882.962 875.343,879.831 879.315,876.705 883.287,873.586 887.259,870.473 891.23,867.366 895.202,864.266 899.174,861.171 903.146,858.083 
  907.118,855.001 911.09,851.925 915.062,848.856 919.033,845.792 923.005,842.735 926.977,839.684 930.949,836.639 934.921,833.601 938.893,830.568 942.865,827.542 
  946.836,824.522 950.808,821.508 954.78,818.5 958.752,815.499 962.724,812.504 966.696,809.515 970.668,806.532 974.639,803.555 978.611,800.585 982.583,797.621 
  986.555,794.663 990.527,791.711 994.499,788.766 998.471,785.826 1002.44,782.893 1006.41,779.966 1010.39,777.045 1014.36,774.131 1018.33,771.223 1022.3,768.32 
  1026.27,765.425 1030.25,762.535 1034.22,759.651 1038.19,756.774 1042.16,753.903 1046.13,751.038 1050.1,748.179 1054.08,745.327 1058.05,742.481 1062.02,739.641 
  1065.99,736.807 1069.96,733.979 1073.94,731.158 1077.91,728.343 1081.88,725.534 1085.85,722.731 1089.82,719.935 1093.8,717.144 1097.77,714.36 1101.74,711.582 
  1105.71,708.811 1109.68,706.045 1113.65,703.286 1117.63,700.533 1121.6,697.786 1125.57,695.045 1129.54,692.311 1133.51,689.583 1137.49,686.861 1141.46,684.145 
  1145.43,681.436 1149.4,678.732 1153.37,676.035 1157.35,673.344 1161.32,670.66 1165.29,667.981 1169.26,665.309 1173.23,662.643 1177.2,659.984 1181.18,657.33 
  1185.15,654.683 1189.12,652.042 1193.09,649.407 1197.06,646.778 1201.04,644.156 1205.01,641.539 1208.98,638.929 1212.95,636.326 1216.92,633.728 1220.89,631.137 
  1224.87,628.552 1228.84,625.973 1232.81,623.4 1236.78,620.834 1240.75,618.274 1244.73,615.72 1248.7,613.172 1252.67,610.63 1256.64,608.095 1260.61,605.566 
  1264.59,603.043 1268.56,600.527 1272.53,598.016 1276.5,595.512 1280.47,593.014 1284.44,590.523 1288.42,588.037 1292.39,585.558 1296.36,583.085 1300.33,580.618 
  1304.3,578.158 1308.28,575.703 1312.25,573.255 1316.22,570.813 1320.19,568.378 1324.16,565.948 1328.14,563.525 1332.11,561.108 1336.08,558.698 1340.05,556.293 
  1344.02,553.895 1347.99,551.503 1351.97,549.117 1355.94,546.738 1359.91,544.365 1363.88,541.998 1367.85,539.637 1371.83,537.282 1375.8,534.934 1379.77,532.592 
  1383.74,530.256 1387.71,527.926 1391.68,525.603 1395.66,523.286 1399.63,520.975 1403.6,518.67 1407.57,516.372 1411.54,514.08 1415.52,511.794 1419.49,509.514 
  1423.46,507.241 1427.43,504.973 1431.4,502.712 1435.38,500.458 1439.35,498.209 1443.32,495.967 1447.29,493.731 1451.26,491.501 1455.23,489.278 1459.21,487.06 
  1463.18,484.849 1467.15,482.645 1471.12,480.446 1475.09,478.254 1479.07,476.068 1483.04,473.888 1487.01,471.714 1490.98,469.547 1494.95,467.386 1498.93,465.231 
  1502.9,463.083 1506.87,460.94 1510.84,458.804 1514.81,456.674 1518.78,454.551 1522.76,452.433 1526.73,450.322 1530.7,448.217 1534.67,446.119 1538.64,444.026 
  1542.62,441.94 1546.59,439.86 1550.56,437.787 1554.53,435.72 1558.5,433.658 1562.47,431.604 1566.45,429.555 1570.42,427.513 1574.39,425.477 1578.36,423.447 
  1582.33,421.423 1586.31,419.406 1590.28,417.395 1594.25,415.39 1598.22,413.391 1602.19,411.399 1606.17,409.413 1610.14,407.433 1614.11,405.46 1618.08,403.492 
  1622.05,401.531 1626.02,399.577 1630,397.628 1633.97,395.686 1637.94,393.75 1641.91,391.82 1645.88,389.897 1649.86,387.979 1653.83,386.069 1657.8,384.164 
  1661.77,382.265 1665.74,380.373 1669.72,378.487 1673.69,376.608 1677.66,374.734 1681.63,372.867 1685.6,371.006 1689.57,369.152 1693.55,367.303 1697.52,365.461 
  1701.49,363.625 1705.46,361.796 1709.43,359.972 1713.41,358.155 1717.38,356.345 1721.35,354.54 1725.32,352.742 1729.29,350.95 1733.26,349.164 1737.24,347.385 
  1741.21,345.612 1745.18,343.845 1749.15,342.084 1753.12,340.33 1757.1,338.581 1761.07,336.84 1765.04,335.104 1769.01,333.375 1772.98,331.652 1776.96,329.935 
  1780.93,328.224 1784.9,326.52 1788.87,324.822 1792.84,323.131 1796.81,321.445 1800.79,319.766 1804.76,318.093 1808.73,316.427 1812.7,314.766 1816.67,313.112 
  1820.65,311.464 1824.62,309.823 1828.59,308.188 1832.56,306.559 1836.53,304.936 1840.51,303.319 1844.48,301.709 1848.45,300.105 1852.42,298.508 1856.39,296.917 
  1860.36,295.331 1864.34,293.753 1868.31,292.18 1872.28,290.614 1876.25,289.054 1880.22,287.5 1884.2,285.953 1888.17,284.412 1892.14,282.877 1896.11,281.349 
  1900.08,279.826 1904.05,278.31 1908.03,276.801 1912,275.297 1915.97,273.8 1919.94,272.309 1923.91,270.825 1927.89,269.346 1931.86,267.874 1935.83,266.408 
  1939.8,264.949 1943.77,263.496 1947.75,262.049 1951.72,260.608 1955.69,259.174 1959.66,257.746 1963.63,256.324 1967.6,254.909 1971.58,253.499 1975.55,252.097 
  1979.52,250.7 1983.49,249.31 1987.46,247.926 1991.44,246.548 1995.41,245.176 1999.38,243.811 2003.35,242.452 2007.32,241.1 2011.3,239.753 2015.27,238.413 
  2019.24,237.08 2023.21,235.752 2027.18,234.431 2031.15,233.116 2035.13,231.807 2039.1,230.505 2043.07,229.209 2047.04,227.919 2051.01,226.636 2054.99,225.359 
  2058.96,224.088 2062.93,222.823 2066.9,221.565 2070.87,220.313 2074.84,219.067 2078.82,217.828 2082.79,216.595 2086.76,215.368 2090.73,214.148 2094.7,212.934 
  2098.68,211.726 2102.65,210.524 2106.62,209.329 2110.59,208.14 2114.56,206.957 2118.54,205.781 2122.51,204.61 2126.48,203.447 2130.45,202.289 2134.42,201.138 
  2138.39,199.993 2142.37,198.854 2146.34,197.722 2150.31,196.596 2154.28,195.476 2158.25,194.363 2162.23,193.255 2166.2,192.155 2170.17,191.06 2174.14,189.972 
  2178.11,188.89 2182.09,187.814 2186.06,186.745 2190.03,185.682 2194,184.625 2197.97,183.575 2201.94,182.531 2205.92,181.493 2209.89,180.461 2213.86,179.436 
  2217.83,178.417 2221.8,177.405 2225.78,176.398 2229.75,175.398 2233.72,174.405 2237.69,173.417 2241.66,172.436 2245.63,171.461 2249.61,170.493 2253.58,169.531 
  2257.55,168.575 2261.52,167.625 2265.49,166.682 2269.47,165.745 2273.44,164.815 2277.41,163.89 2281.38,162.972 2285.35,162.061 2289.33,161.155 2293.3,160.256 
  
  "/>
<path clip-path="url(#clip300)" d="
M323.88 388.432 L788.601 388.432 L788.601 206.992 L323.88 206.992  Z
  " fill="#ffffff" fill-rule="evenodd" fill-opacity="1"/>
<polyline clip-path="url(#clip300)" style="stroke:#000000; stroke-width:4; stroke-opacity:1; fill:none" points="
  323.88,388.432 788.601,388.432 788.601,206.992 323.88,206.992 323.88,388.432 
  "/>
<circle clip-path="url(#clip300)" cx="431.88" cy="267.472" r="23" fill="#009af9" fill-rule="evenodd" fill-opacity="1" stroke="#000000" stroke-opacity="1" stroke-width="5.12"/>
<path clip-path="url(#clip300)" d="M 0 0 M529.283 271.72 Q524.121 271.72 522.13 272.9 Q520.139 274.081 520.139 276.928 Q520.139 279.197 521.621 280.539 Q523.125 281.859 525.695 281.859 Q529.236 281.859 531.366 279.359 Q533.519 276.836 533.519 272.669 L533.519 271.72 L529.283 271.72 M537.778 269.961 L537.778 284.752 L533.519 284.752 L533.519 280.817 Q532.06 283.178 529.885 284.312 Q527.709 285.423 524.56 285.423 Q520.579 285.423 518.218 283.201 Q515.88 280.956 515.88 277.206 Q515.88 272.831 518.797 270.609 Q521.736 268.386 527.547 268.386 L533.519 268.386 L533.519 267.97 Q533.519 265.03 531.574 263.433 Q529.653 261.812 526.158 261.812 Q523.935 261.812 521.829 262.345 Q519.723 262.877 517.778 263.942 L517.778 260.007 Q520.116 259.104 522.315 258.664 Q524.514 258.201 526.598 258.201 Q532.222 258.201 535 261.118 Q537.778 264.035 537.778 269.961 Z" fill="#000000" fill-rule="evenodd" fill-opacity="1" /><path clip-path="url(#clip300)" d="M 0 0 M560.903 259.822 L560.903 263.803 Q559.097 262.808 557.269 262.322 Q555.463 261.812 553.611 261.812 Q549.468 261.812 547.176 264.451 Q544.884 267.067 544.884 271.812 Q544.884 276.558 547.176 279.197 Q549.468 281.812 553.611 281.812 Q555.463 281.812 557.269 281.326 Q559.097 280.817 560.903 279.822 L560.903 283.757 Q559.12 284.59 557.199 285.007 Q555.301 285.423 553.148 285.423 Q547.292 285.423 543.843 281.743 Q540.394 278.062 540.394 271.812 Q540.394 265.47 543.866 261.836 Q547.361 258.201 553.426 258.201 Q555.394 258.201 557.269 258.618 Q559.144 259.012 560.903 259.822 Z" fill="#000000" fill-rule="evenodd" fill-opacity="1" /><path clip-path="url(#clip300)" d="M 0 0 M569.583 251.465 L569.583 258.826 L578.357 258.826 L578.357 262.137 L569.583 262.137 L569.583 276.211 Q569.583 279.382 570.44 280.285 Q571.32 281.187 573.982 281.187 L578.357 281.187 L578.357 284.752 L573.982 284.752 Q569.051 284.752 567.176 282.923 Q565.301 281.072 565.301 276.211 L565.301 262.137 L562.176 262.137 L562.176 258.826 L565.301 258.826 L565.301 251.465 L569.583 251.465 Z" fill="#000000" fill-rule="evenodd" fill-opacity="1" /><path clip-path="url(#clip300)" d="M 0 0 M582.384 274.521 L582.384 258.826 L586.643 258.826 L586.643 274.359 Q586.643 278.039 588.079 279.891 Q589.514 281.72 592.384 281.72 Q595.833 281.72 597.824 279.521 Q599.838 277.322 599.838 273.525 L599.838 258.826 L604.097 258.826 L604.097 284.752 L599.838 284.752 L599.838 280.771 Q598.287 283.132 596.227 284.289 Q594.19 285.423 591.481 285.423 Q587.014 285.423 584.699 282.646 Q582.384 279.868 582.384 274.521 M593.102 258.201 L593.102 258.201 Z" fill="#000000" fill-rule="evenodd" fill-opacity="1" /><path clip-path="url(#clip300)" d="M 0 0 M620.347 271.72 Q615.185 271.72 613.194 272.9 Q611.204 274.081 611.204 276.928 Q611.204 279.197 612.685 280.539 Q614.19 281.859 616.759 281.859 Q620.301 281.859 622.43 279.359 Q624.583 276.836 624.583 272.669 L624.583 271.72 L620.347 271.72 M628.842 269.961 L628.842 284.752 L624.583 284.752 L624.583 280.817 Q623.125 283.178 620.949 284.312 Q618.773 285.423 615.625 285.423 Q611.643 285.423 609.282 283.201 Q606.944 280.956 606.944 277.206 Q606.944 272.831 609.861 270.609 Q612.801 268.386 618.611 268.386 L624.583 268.386 L624.583 267.97 Q624.583 265.03 622.639 263.433 Q620.717 261.812 617.222 261.812 Q615 261.812 612.893 262.345 Q610.787 262.877 608.842 263.942 L608.842 260.007 Q611.18 259.104 613.379 258.664 Q615.579 258.201 617.662 258.201 Q623.287 258.201 626.065 261.118 Q628.842 264.035 628.842 269.961 Z" fill="#000000" fill-rule="evenodd" fill-opacity="1" /><path clip-path="url(#clip300)" d="M 0 0 M633.31 248.734 L637.569 248.734 L637.569 284.752 L633.31 284.752 L633.31 248.734 Z" fill="#000000" fill-rule="evenodd" fill-opacity="1" /><polyline clip-path="url(#clip300)" style="stroke:#e26f46; stroke-width:4; stroke-opacity:1; fill:none" points="
  347.88,327.952 491.88,327.952 
  "/>
<path clip-path="url(#clip300)" d="M 0 0 M515.88 319.306 L520.139 319.306 L520.139 345.232 L515.88 345.232 L515.88 319.306 M515.88 309.214 L520.139 309.214 L520.139 314.607 L515.88 314.607 L515.88 309.214 Z" fill="#000000" fill-rule="evenodd" fill-opacity="1" /><path clip-path="url(#clip300)" d="M 0 0 M546.158 329.584 L546.158 345.232 L541.898 345.232 L541.898 329.723 Q541.898 326.042 540.463 324.214 Q539.028 322.385 536.158 322.385 Q532.709 322.385 530.718 324.584 Q528.727 326.783 528.727 330.579 L528.727 345.232 L524.445 345.232 L524.445 319.306 L528.727 319.306 L528.727 323.334 Q530.255 320.996 532.315 319.839 Q534.398 318.681 537.107 318.681 Q541.574 318.681 543.866 321.459 Q546.158 324.214 546.158 329.584 Z" fill="#000000" fill-rule="evenodd" fill-opacity="1" /><path clip-path="url(#clip300)" d="M 0 0 M554.838 311.945 L554.838 319.306 L563.611 319.306 L563.611 322.617 L554.838 322.617 L554.838 336.691 Q554.838 339.862 555.695 340.765 Q556.574 341.667 559.236 341.667 L563.611 341.667 L563.611 345.232 L559.236 345.232 Q554.306 345.232 552.431 343.403 Q550.556 341.552 550.556 336.691 L550.556 322.617 L547.431 322.617 L547.431 319.306 L550.556 319.306 L550.556 311.945 L554.838 311.945 Z" fill="#000000" fill-rule="evenodd" fill-opacity="1" /><path clip-path="url(#clip300)" d="M 0 0 M590.255 331.204 L590.255 333.288 L570.671 333.288 Q570.949 337.686 573.31 340.001 Q575.694 342.292 579.931 342.292 Q582.384 342.292 584.676 341.69 Q586.991 341.089 589.259 339.885 L589.259 343.913 Q586.968 344.885 584.56 345.394 Q582.153 345.903 579.676 345.903 Q573.472 345.903 569.838 342.292 Q566.227 338.681 566.227 332.524 Q566.227 326.158 569.653 322.431 Q573.102 318.681 578.935 318.681 Q584.167 318.681 587.199 322.061 Q590.255 325.417 590.255 331.204 M585.995 329.954 Q585.949 326.459 584.028 324.376 Q582.13 322.292 578.981 322.292 Q575.417 322.292 573.264 324.306 Q571.134 326.32 570.81 329.978 L585.995 329.954 Z" fill="#000000" fill-rule="evenodd" fill-opacity="1" /><path clip-path="url(#clip300)" d="M 0 0 M609.745 323.288 Q609.028 322.871 608.171 322.686 Q607.338 322.478 606.319 322.478 Q602.708 322.478 600.764 324.839 Q598.843 327.177 598.843 331.575 L598.843 345.232 L594.56 345.232 L594.56 319.306 L598.843 319.306 L598.843 323.334 Q600.185 320.973 602.338 319.839 Q604.491 318.681 607.569 318.681 Q608.009 318.681 608.542 318.751 Q609.074 318.797 609.722 318.913 L609.745 323.288 Z" fill="#000000" fill-rule="evenodd" fill-opacity="1" /><path clip-path="url(#clip300)" d="M 0 0 M618.333 341.343 L618.333 355.093 L614.051 355.093 L614.051 319.306 L618.333 319.306 L618.333 323.242 Q619.676 320.927 621.713 319.816 Q623.773 318.681 626.62 318.681 Q631.342 318.681 634.282 322.431 Q637.245 326.181 637.245 332.292 Q637.245 338.403 634.282 342.153 Q631.342 345.903 626.62 345.903 Q623.773 345.903 621.713 344.792 Q619.676 343.658 618.333 341.343 M632.824 332.292 Q632.824 327.593 630.879 324.931 Q628.958 322.246 625.578 322.246 Q622.199 322.246 620.254 324.931 Q618.333 327.593 618.333 332.292 Q618.333 336.991 620.254 339.677 Q622.199 342.339 625.578 342.339 Q628.958 342.339 630.879 339.677 Q632.824 336.991 632.824 332.292 Z" fill="#000000" fill-rule="evenodd" fill-opacity="1" /><path clip-path="url(#clip300)" d="M 0 0 M651.759 322.292 Q648.333 322.292 646.342 324.978 Q644.352 327.64 644.352 332.292 Q644.352 336.945 646.319 339.63 Q648.31 342.292 651.759 342.292 Q655.162 342.292 657.152 339.607 Q659.143 336.922 659.143 332.292 Q659.143 327.686 657.152 325.001 Q655.162 322.292 651.759 322.292 M651.759 318.681 Q657.314 318.681 660.486 322.292 Q663.657 325.904 663.657 332.292 Q663.657 338.658 660.486 342.292 Q657.314 345.903 651.759 345.903 Q646.18 345.903 643.009 342.292 Q639.861 338.658 639.861 332.292 Q639.861 325.904 643.009 322.292 Q646.18 318.681 651.759 318.681 Z" fill="#000000" fill-rule="evenodd" fill-opacity="1" /><path clip-path="url(#clip300)" d="M 0 0 M668.125 309.214 L672.384 309.214 L672.384 345.232 L668.125 345.232 L668.125 309.214 Z" fill="#000000" fill-rule="evenodd" fill-opacity="1" /><path clip-path="url(#clip300)" d="M 0 0 M688.634 332.2 Q683.472 332.2 681.481 333.38 Q679.49 334.561 679.49 337.408 Q679.49 339.677 680.972 341.019 Q682.476 342.339 685.046 342.339 Q688.587 342.339 690.717 339.839 Q692.87 337.316 692.87 333.149 L692.87 332.2 L688.634 332.2 M697.129 330.441 L697.129 345.232 L692.87 345.232 L692.87 341.297 Q691.411 343.658 689.236 344.792 Q687.06 345.903 683.911 345.903 Q679.93 345.903 677.569 343.681 Q675.231 341.436 675.231 337.686 Q675.231 333.311 678.148 331.089 Q681.087 328.866 686.898 328.866 L692.87 328.866 L692.87 328.45 Q692.87 325.51 690.925 323.913 Q689.004 322.292 685.509 322.292 Q683.286 322.292 681.18 322.825 Q679.074 323.357 677.129 324.422 L677.129 320.487 Q679.467 319.584 681.666 319.144 Q683.865 318.681 685.949 318.681 Q691.573 318.681 694.351 321.598 Q697.129 324.515 697.129 330.441 Z" fill="#000000" fill-rule="evenodd" fill-opacity="1" /><path clip-path="url(#clip300)" d="M 0 0 M723.147 329.584 L723.147 345.232 L718.888 345.232 L718.888 329.723 Q718.888 326.042 717.453 324.214 Q716.018 322.385 713.147 322.385 Q709.698 322.385 707.708 324.584 Q705.717 326.783 705.717 330.579 L705.717 345.232 L701.435 345.232 L701.435 319.306 L705.717 319.306 L705.717 323.334 Q707.245 320.996 709.305 319.839 Q711.388 318.681 714.097 318.681 Q718.564 318.681 720.856 321.459 Q723.147 324.214 723.147 329.584 Z" fill="#000000" fill-rule="evenodd" fill-opacity="1" /><path clip-path="url(#clip300)" d="M 0 0 M731.828 311.945 L731.828 319.306 L740.601 319.306 L740.601 322.617 L731.828 322.617 L731.828 336.691 Q731.828 339.862 732.684 340.765 Q733.564 341.667 736.226 341.667 L740.601 341.667 L740.601 345.232 L736.226 345.232 Q731.295 345.232 729.421 343.403 Q727.546 341.552 727.546 336.691 L727.546 322.617 L724.421 322.617 L724.421 319.306 L727.546 319.306 L727.546 311.945 L731.828 311.945 Z" fill="#000000" fill-rule="evenodd" fill-opacity="1" /></svg>
