<?xml version="1.0" encoding="utf-8"?>
<svg xmlns="http://www.w3.org/2000/svg" xmlns:xlink="http://www.w3.org/1999/xlink" width="600" height="400" viewBox="0 0 2400 1600">
<defs>
  <clipPath id="clip410">
    <rect x="0" y="0" width="2400" height="1600"/>
  </clipPath>
</defs>
<path clip-path="url(#clip410)" d="
M0 1600 L2400 1600 L2400 0 L0 0  Z
  " fill="#ffffff" fill-rule="evenodd" fill-opacity="1"/>
<defs>
  <clipPath id="clip411">
    <rect x="480" y="0" width="1681" height="1600"/>
  </clipPath>
</defs>
<path clip-path="url(#clip410)" d="
M204.203 1444.7 L1171.07 1444.7 L1171.07 123.472 L204.203 123.472  Z
  " fill="#ffffff" fill-rule="evenodd" fill-opacity="1"/>
<defs>
  <clipPath id="clip412">
    <rect x="204" y="123" width="968" height="1322"/>
  </clipPath>
</defs>
<polyline clip-path="url(#clip412)" style="stroke:#000000; stroke-width:2; stroke-opacity:0.1; fill:none" points="
  231.567,1444.7 231.567,123.472 
  "/>
<polyline clip-path="url(#clip412)" style="stroke:#000000; stroke-width:2; stroke-opacity:0.1; fill:none" points="
  459.601,1444.7 459.601,123.472 
  "/>
<polyline clip-path="url(#clip412)" style="stroke:#000000; stroke-width:2; stroke-opacity:0.1; fill:none" points="
  687.634,1444.7 687.634,123.472 
  "/>
<polyline clip-path="url(#clip412)" style="stroke:#000000; stroke-width:2; stroke-opacity:0.1; fill:none" points="
  915.668,1444.7 915.668,123.472 
  "/>
<polyline clip-path="url(#clip412)" style="stroke:#000000; stroke-width:2; stroke-opacity:0.1; fill:none" points="
  1143.7,1444.7 1143.7,123.472 
  "/>
<polyline clip-path="url(#clip412)" style="stroke:#000000; stroke-width:2; stroke-opacity:0.1; fill:none" points="
  204.203,1240.15 1171.07,1240.15 
  "/>
<polyline clip-path="url(#clip412)" style="stroke:#000000; stroke-width:2; stroke-opacity:0.1; fill:none" points="
  204.203,1012.12 1171.07,1012.12 
  "/>
<polyline clip-path="url(#clip412)" style="stroke:#000000; stroke-width:2; stroke-opacity:0.1; fill:none" points="
  204.203,784.086 1171.07,784.086 
  "/>
<polyline clip-path="url(#clip412)" style="stroke:#000000; stroke-width:2; stroke-opacity:0.1; fill:none" points="
  204.203,556.052 1171.07,556.052 
  "/>
<polyline clip-path="url(#clip412)" style="stroke:#000000; stroke-width:2; stroke-opacity:0.1; fill:none" points="
  204.203,328.018 1171.07,328.018 
  "/>
<polyline clip-path="url(#clip410)" style="stroke:#000000; stroke-width:4; stroke-opacity:1; fill:none" points="
  204.203,1444.7 1171.07,1444.7 
  "/>
<polyline clip-path="url(#clip410)" style="stroke:#000000; stroke-width:4; stroke-opacity:1; fill:none" points="
  204.203,1444.7 204.203,123.472 
  "/>
<polyline clip-path="url(#clip410)" style="stroke:#000000; stroke-width:4; stroke-opacity:1; fill:none" points="
  231.567,1444.7 231.567,1428.85 
  "/>
<polyline clip-path="url(#clip410)" style="stroke:#000000; stroke-width:4; stroke-opacity:1; fill:none" points="
  459.601,1444.7 459.601,1428.85 
  "/>
<polyline clip-path="url(#clip410)" style="stroke:#000000; stroke-width:4; stroke-opacity:1; fill:none" points="
  687.634,1444.7 687.634,1428.85 
  "/>
<polyline clip-path="url(#clip410)" style="stroke:#000000; stroke-width:4; stroke-opacity:1; fill:none" points="
  915.668,1444.7 915.668,1428.85 
  "/>
<polyline clip-path="url(#clip410)" style="stroke:#000000; stroke-width:4; stroke-opacity:1; fill:none" points="
  1143.7,1444.7 1143.7,1428.85 
  "/>
<polyline clip-path="url(#clip410)" style="stroke:#000000; stroke-width:4; stroke-opacity:1; fill:none" points="
  204.203,1240.15 215.805,1240.15 
  "/>
<polyline clip-path="url(#clip410)" style="stroke:#000000; stroke-width:4; stroke-opacity:1; fill:none" points="
  204.203,1012.12 215.805,1012.12 
  "/>
<polyline clip-path="url(#clip410)" style="stroke:#000000; stroke-width:4; stroke-opacity:1; fill:none" points="
  204.203,784.086 215.805,784.086 
  "/>
<polyline clip-path="url(#clip410)" style="stroke:#000000; stroke-width:4; stroke-opacity:1; fill:none" points="
  204.203,556.052 215.805,556.052 
  "/>
<polyline clip-path="url(#clip410)" style="stroke:#000000; stroke-width:4; stroke-opacity:1; fill:none" points="
  204.203,328.018 215.805,328.018 
  "/>
<path clip-path="url(#clip410)" d="M 0 0 M193.951 1483.29 L206.428 1483.29 L206.428 1487.08 L193.951 1487.08 L193.951 1483.29 Z" fill="#000000" fill-rule="evenodd" fill-opacity="1" /><path clip-path="url(#clip410)" d="M 0 0 M212.308 1494.24 L219.946 1494.24 L219.946 1467.87 L211.636 1469.54 L211.636 1465.28 L219.9 1463.61 L224.576 1463.61 L224.576 1494.24 L232.215 1494.24 L232.215 1498.17 L212.308 1498.17 L212.308 1494.24 Z" fill="#000000" fill-rule="evenodd" fill-opacity="1" /><path clip-path="url(#clip410)" d="M 0 0 M237.284 1492.29 L242.169 1492.29 L242.169 1498.17 L237.284 1498.17 L237.284 1492.29 Z" fill="#000000" fill-rule="evenodd" fill-opacity="1" /><path clip-path="url(#clip410)" d="M 0 0 M257.238 1466.69 Q253.627 1466.69 251.798 1470.26 Q249.993 1473.8 249.993 1480.93 Q249.993 1488.03 251.798 1491.6 Q253.627 1495.14 257.238 1495.14 Q260.872 1495.14 262.678 1491.6 Q264.506 1488.03 264.506 1480.93 Q264.506 1473.8 262.678 1470.26 Q260.872 1466.69 257.238 1466.69 M257.238 1462.99 Q263.048 1462.99 266.104 1467.59 Q269.182 1472.18 269.182 1480.93 Q269.182 1489.65 266.104 1494.26 Q263.048 1498.84 257.238 1498.84 Q251.428 1498.84 248.349 1494.26 Q245.294 1489.65 245.294 1480.93 Q245.294 1472.18 248.349 1467.59 Q251.428 1462.99 257.238 1462.99 Z" fill="#000000" fill-rule="evenodd" fill-opacity="1" /><path clip-path="url(#clip410)" d="M 0 0 M421.869 1483.29 L434.346 1483.29 L434.346 1487.08 L421.869 1487.08 L421.869 1483.29 Z" fill="#000000" fill-rule="evenodd" fill-opacity="1" /><path clip-path="url(#clip410)" d="M 0 0 M449.415 1466.69 Q445.804 1466.69 443.976 1470.26 Q442.17 1473.8 442.17 1480.93 Q442.17 1488.03 443.976 1491.6 Q445.804 1495.14 449.415 1495.14 Q453.05 1495.14 454.855 1491.6 Q456.684 1488.03 456.684 1480.93 Q456.684 1473.8 454.855 1470.26 Q453.05 1466.69 449.415 1466.69 M449.415 1462.99 Q455.226 1462.99 458.281 1467.59 Q461.36 1472.18 461.36 1480.93 Q461.36 1489.65 458.281 1494.26 Q455.226 1498.84 449.415 1498.84 Q443.605 1498.84 440.527 1494.26 Q437.471 1489.65 437.471 1480.93 Q437.471 1472.18 440.527 1467.59 Q443.605 1462.99 449.415 1462.99 Z" fill="#000000" fill-rule="evenodd" fill-opacity="1" /><path clip-path="url(#clip410)" d="M 0 0 M466.429 1492.29 L471.313 1492.29 L471.313 1498.17 L466.429 1498.17 L466.429 1492.29 Z" fill="#000000" fill-rule="evenodd" fill-opacity="1" /><path clip-path="url(#clip410)" d="M 0 0 M476.429 1463.61 L494.786 1463.61 L494.786 1467.55 L480.712 1467.55 L480.712 1476.02 Q481.73 1475.67 482.749 1475.51 Q483.767 1475.32 484.786 1475.32 Q490.573 1475.32 493.952 1478.5 Q497.332 1481.67 497.332 1487.08 Q497.332 1492.66 493.86 1495.76 Q490.387 1498.84 484.068 1498.84 Q481.892 1498.84 479.624 1498.47 Q477.378 1498.1 474.971 1497.36 L474.971 1492.66 Q477.054 1493.8 479.276 1494.35 Q481.499 1494.91 483.975 1494.91 Q487.98 1494.91 490.318 1492.8 Q492.656 1490.7 492.656 1487.08 Q492.656 1483.47 490.318 1481.37 Q487.98 1479.26 483.975 1479.26 Q482.1 1479.26 480.225 1479.68 Q478.374 1480.09 476.429 1480.97 L476.429 1463.61 Z" fill="#000000" fill-rule="evenodd" fill-opacity="1" /><path clip-path="url(#clip410)" d="M 0 0 M669.151 1466.69 Q665.54 1466.69 663.711 1470.26 Q661.905 1473.8 661.905 1480.93 Q661.905 1488.03 663.711 1491.6 Q665.54 1495.14 669.151 1495.14 Q672.785 1495.14 674.59 1491.6 Q676.419 1488.03 676.419 1480.93 Q676.419 1473.8 674.59 1470.26 Q672.785 1466.69 669.151 1466.69 M669.151 1462.99 Q674.961 1462.99 678.016 1467.59 Q681.095 1472.18 681.095 1480.93 Q681.095 1489.65 678.016 1494.26 Q674.961 1498.84 669.151 1498.84 Q663.341 1498.84 660.262 1494.26 Q657.206 1489.65 657.206 1480.93 Q657.206 1472.18 660.262 1467.59 Q663.341 1462.99 669.151 1462.99 Z" fill="#000000" fill-rule="evenodd" fill-opacity="1" /><path clip-path="url(#clip410)" d="M 0 0 M686.164 1492.29 L691.049 1492.29 L691.049 1498.17 L686.164 1498.17 L686.164 1492.29 Z" fill="#000000" fill-rule="evenodd" fill-opacity="1" /><path clip-path="url(#clip410)" d="M 0 0 M706.118 1466.69 Q702.507 1466.69 700.678 1470.26 Q698.873 1473.8 698.873 1480.93 Q698.873 1488.03 700.678 1491.6 Q702.507 1495.14 706.118 1495.14 Q709.752 1495.14 711.558 1491.6 Q713.387 1488.03 713.387 1480.93 Q713.387 1473.8 711.558 1470.26 Q709.752 1466.69 706.118 1466.69 M706.118 1462.99 Q711.928 1462.99 714.984 1467.59 Q718.062 1472.18 718.062 1480.93 Q718.062 1489.65 714.984 1494.26 Q711.928 1498.84 706.118 1498.84 Q700.308 1498.84 697.229 1494.26 Q694.174 1489.65 694.174 1480.93 Q694.174 1472.18 697.229 1467.59 Q700.308 1462.99 706.118 1462.99 Z" fill="#000000" fill-rule="evenodd" fill-opacity="1" /><path clip-path="url(#clip410)" d="M 0 0 M897.682 1466.69 Q894.071 1466.69 892.242 1470.26 Q890.437 1473.8 890.437 1480.93 Q890.437 1488.03 892.242 1491.6 Q894.071 1495.14 897.682 1495.14 Q901.316 1495.14 903.122 1491.6 Q904.951 1488.03 904.951 1480.93 Q904.951 1473.8 903.122 1470.26 Q901.316 1466.69 897.682 1466.69 M897.682 1462.99 Q903.492 1462.99 906.548 1467.59 Q909.627 1472.18 909.627 1480.93 Q909.627 1489.65 906.548 1494.26 Q903.492 1498.84 897.682 1498.84 Q891.872 1498.84 888.793 1494.26 Q885.738 1489.65 885.738 1480.93 Q885.738 1472.18 888.793 1467.59 Q891.872 1462.99 897.682 1462.99 Z" fill="#000000" fill-rule="evenodd" fill-opacity="1" /><path clip-path="url(#clip410)" d="M 0 0 M914.696 1492.29 L919.58 1492.29 L919.58 1498.17 L914.696 1498.17 L914.696 1492.29 Z" fill="#000000" fill-rule="evenodd" fill-opacity="1" /><path clip-path="url(#clip410)" d="M 0 0 M924.696 1463.61 L943.052 1463.61 L943.052 1467.55 L928.978 1467.55 L928.978 1476.02 Q929.997 1475.67 931.015 1475.51 Q932.034 1475.32 933.052 1475.32 Q938.839 1475.32 942.219 1478.5 Q945.599 1481.67 945.599 1487.08 Q945.599 1492.66 942.126 1495.76 Q938.654 1498.84 932.335 1498.84 Q930.159 1498.84 927.89 1498.47 Q925.645 1498.1 923.238 1497.36 L923.238 1492.66 Q925.321 1493.8 927.543 1494.35 Q929.765 1494.91 932.242 1494.91 Q936.247 1494.91 938.585 1492.8 Q940.923 1490.7 940.923 1487.08 Q940.923 1483.47 938.585 1481.37 Q936.247 1479.26 932.242 1479.26 Q930.367 1479.26 928.492 1479.68 Q926.64 1480.09 924.696 1480.97 L924.696 1463.61 Z" fill="#000000" fill-rule="evenodd" fill-opacity="1" /><path clip-path="url(#clip410)" d="M 0 0 M1115.6 1494.24 L1123.24 1494.24 L1123.24 1467.87 L1114.93 1469.54 L1114.93 1465.28 L1123.19 1463.61 L1127.87 1463.61 L1127.87 1494.24 L1135.51 1494.24 L1135.51 1498.17 L1115.6 1498.17 L1115.6 1494.24 Z" fill="#000000" fill-rule="evenodd" fill-opacity="1" /><path clip-path="url(#clip410)" d="M 0 0 M1140.58 1492.29 L1145.46 1492.29 L1145.46 1498.17 L1140.58 1498.17 L1140.58 1492.29 Z" fill="#000000" fill-rule="evenodd" fill-opacity="1" /><path clip-path="url(#clip410)" d="M 0 0 M1160.53 1466.69 Q1156.92 1466.69 1155.09 1470.26 Q1153.29 1473.8 1153.29 1480.93 Q1153.29 1488.03 1155.09 1491.6 Q1156.92 1495.14 1160.53 1495.14 Q1164.16 1495.14 1165.97 1491.6 Q1167.8 1488.03 1167.8 1480.93 Q1167.8 1473.8 1165.97 1470.26 Q1164.16 1466.69 1160.53 1466.69 M1160.53 1462.99 Q1166.34 1462.99 1169.4 1467.59 Q1172.47 1472.18 1172.47 1480.93 Q1172.47 1489.65 1169.4 1494.26 Q1166.34 1498.84 1160.53 1498.84 Q1154.72 1498.84 1151.64 1494.26 Q1148.59 1489.65 1148.59 1480.93 Q1148.59 1472.18 1151.64 1467.59 Q1154.72 1462.99 1160.53 1462.99 Z" fill="#000000" fill-rule="evenodd" fill-opacity="1" /><path clip-path="url(#clip410)" d="M 0 0 M104.972 1242.55 L117.448 1242.55 L117.448 1246.35 L104.972 1246.35 L104.972 1242.55 Z" fill="#000000" fill-rule="evenodd" fill-opacity="1" /><path clip-path="url(#clip410)" d="M 0 0 M123.328 1253.5 L130.967 1253.5 L130.967 1227.13 L122.657 1228.8 L122.657 1224.54 L130.921 1222.87 L135.596 1222.87 L135.596 1253.5 L143.235 1253.5 L143.235 1257.43 L123.328 1257.43 L123.328 1253.5 Z" fill="#000000" fill-rule="evenodd" fill-opacity="1" /><path clip-path="url(#clip410)" d="M 0 0 M148.305 1251.55 L153.189 1251.55 L153.189 1257.43 L148.305 1257.43 L148.305 1251.55 Z" fill="#000000" fill-rule="evenodd" fill-opacity="1" /><path clip-path="url(#clip410)" d="M 0 0 M168.258 1225.95 Q164.647 1225.95 162.819 1229.52 Q161.013 1233.06 161.013 1240.19 Q161.013 1247.29 162.819 1250.86 Q164.647 1254.4 168.258 1254.4 Q171.893 1254.4 173.698 1250.86 Q175.527 1247.29 175.527 1240.19 Q175.527 1233.06 173.698 1229.52 Q171.893 1225.95 168.258 1225.95 M168.258 1222.25 Q174.068 1222.25 177.124 1226.86 Q180.203 1231.44 180.203 1240.19 Q180.203 1248.92 177.124 1253.52 Q174.068 1258.1 168.258 1258.1 Q162.448 1258.1 159.369 1253.52 Q156.314 1248.92 156.314 1240.19 Q156.314 1231.44 159.369 1226.86 Q162.448 1222.25 168.258 1222.25 Z" fill="#000000" fill-rule="evenodd" fill-opacity="1" /><path clip-path="url(#clip410)" d="M 0 0 M104.74 1014.52 L117.217 1014.52 L117.217 1018.31 L104.74 1018.31 L104.74 1014.52 Z" fill="#000000" fill-rule="evenodd" fill-opacity="1" /><path clip-path="url(#clip410)" d="M 0 0 M132.286 997.918 Q128.675 997.918 126.847 1001.48 Q125.041 1005.02 125.041 1012.15 Q125.041 1019.26 126.847 1022.83 Q128.675 1026.37 132.286 1026.37 Q135.921 1026.37 137.726 1022.83 Q139.555 1019.26 139.555 1012.15 Q139.555 1005.02 137.726 1001.48 Q135.921 997.918 132.286 997.918 M132.286 994.215 Q138.096 994.215 141.152 998.821 Q144.231 1003.4 144.231 1012.15 Q144.231 1020.88 141.152 1025.49 Q138.096 1030.07 132.286 1030.07 Q126.476 1030.07 123.397 1025.49 Q120.342 1020.88 120.342 1012.15 Q120.342 1003.4 123.397 998.821 Q126.476 994.215 132.286 994.215 Z" fill="#000000" fill-rule="evenodd" fill-opacity="1" /><path clip-path="url(#clip410)" d="M 0 0 M149.3 1023.52 L154.184 1023.52 L154.184 1029.4 L149.3 1029.4 L149.3 1023.52 Z" fill="#000000" fill-rule="evenodd" fill-opacity="1" /><path clip-path="url(#clip410)" d="M 0 0 M159.3 994.84 L177.656 994.84 L177.656 998.775 L163.582 998.775 L163.582 1007.25 Q164.601 1006.9 165.619 1006.74 Q166.638 1006.55 167.656 1006.55 Q173.443 1006.55 176.823 1009.72 Q180.203 1012.9 180.203 1018.31 Q180.203 1023.89 176.731 1026.99 Q173.258 1030.07 166.939 1030.07 Q164.763 1030.07 162.494 1029.7 Q160.249 1029.33 157.842 1028.59 L157.842 1023.89 Q159.925 1025.02 162.147 1025.58 Q164.369 1026.14 166.846 1026.14 Q170.851 1026.14 173.189 1024.03 Q175.527 1021.92 175.527 1018.31 Q175.527 1014.7 173.189 1012.59 Q170.851 1010.49 166.846 1010.49 Q164.971 1010.49 163.096 1010.9 Q161.244 1011.32 159.3 1012.2 L159.3 994.84 Z" fill="#000000" fill-rule="evenodd" fill-opacity="1" /><path clip-path="url(#clip410)" d="M 0 0 M131.291 769.885 Q127.68 769.885 125.851 773.449 Q124.046 776.991 124.046 784.121 Q124.046 791.227 125.851 794.792 Q127.68 798.334 131.291 798.334 Q134.925 798.334 136.731 794.792 Q138.559 791.227 138.559 784.121 Q138.559 776.991 136.731 773.449 Q134.925 769.885 131.291 769.885 M131.291 766.181 Q137.101 766.181 140.157 770.787 Q143.235 775.371 143.235 784.121 Q143.235 792.848 140.157 797.454 Q137.101 802.037 131.291 802.037 Q125.481 802.037 122.402 797.454 Q119.347 792.848 119.347 784.121 Q119.347 775.371 122.402 770.787 Q125.481 766.181 131.291 766.181 Z" fill="#000000" fill-rule="evenodd" fill-opacity="1" /><path clip-path="url(#clip410)" d="M 0 0 M148.305 795.486 L153.189 795.486 L153.189 801.366 L148.305 801.366 L148.305 795.486 Z" fill="#000000" fill-rule="evenodd" fill-opacity="1" /><path clip-path="url(#clip410)" d="M 0 0 M168.258 769.885 Q164.647 769.885 162.819 773.449 Q161.013 776.991 161.013 784.121 Q161.013 791.227 162.819 794.792 Q164.647 798.334 168.258 798.334 Q171.893 798.334 173.698 794.792 Q175.527 791.227 175.527 784.121 Q175.527 776.991 173.698 773.449 Q171.893 769.885 168.258 769.885 M168.258 766.181 Q174.068 766.181 177.124 770.787 Q180.203 775.371 180.203 784.121 Q180.203 792.848 177.124 797.454 Q174.068 802.037 168.258 802.037 Q162.448 802.037 159.369 797.454 Q156.314 792.848 156.314 784.121 Q156.314 775.371 159.369 770.787 Q162.448 766.181 168.258 766.181 Z" fill="#000000" fill-rule="evenodd" fill-opacity="1" /><path clip-path="url(#clip410)" d="M 0 0 M132.286 541.851 Q128.675 541.851 126.847 545.416 Q125.041 548.957 125.041 556.087 Q125.041 563.193 126.847 566.758 Q128.675 570.3 132.286 570.3 Q135.921 570.3 137.726 566.758 Q139.555 563.193 139.555 556.087 Q139.555 548.957 137.726 545.416 Q135.921 541.851 132.286 541.851 M132.286 538.147 Q138.096 538.147 141.152 542.754 Q144.231 547.337 144.231 556.087 Q144.231 564.814 141.152 569.42 Q138.096 574.003 132.286 574.003 Q126.476 574.003 123.397 569.42 Q120.342 564.814 120.342 556.087 Q120.342 547.337 123.397 542.754 Q126.476 538.147 132.286 538.147 Z" fill="#000000" fill-rule="evenodd" fill-opacity="1" /><path clip-path="url(#clip410)" d="M 0 0 M149.3 567.453 L154.184 567.453 L154.184 573.332 L149.3 573.332 L149.3 567.453 Z" fill="#000000" fill-rule="evenodd" fill-opacity="1" /><path clip-path="url(#clip410)" d="M 0 0 M159.3 538.772 L177.656 538.772 L177.656 542.707 L163.582 542.707 L163.582 551.18 Q164.601 550.832 165.619 550.67 Q166.638 550.485 167.656 550.485 Q173.443 550.485 176.823 553.656 Q180.203 556.828 180.203 562.244 Q180.203 567.823 176.731 570.925 Q173.258 574.003 166.939 574.003 Q164.763 574.003 162.494 573.633 Q160.249 573.263 157.842 572.522 L157.842 567.823 Q159.925 568.957 162.147 569.513 Q164.369 570.068 166.846 570.068 Q170.851 570.068 173.189 567.962 Q175.527 565.855 175.527 562.244 Q175.527 558.633 173.189 556.527 Q170.851 554.42 166.846 554.42 Q164.971 554.42 163.096 554.837 Q161.244 555.254 159.3 556.133 L159.3 538.772 Z" fill="#000000" fill-rule="evenodd" fill-opacity="1" /><path clip-path="url(#clip410)" d="M 0 0 M123.328 341.363 L130.967 341.363 L130.967 314.998 L122.657 316.664 L122.657 312.405 L130.921 310.738 L135.596 310.738 L135.596 341.363 L143.235 341.363 L143.235 345.298 L123.328 345.298 L123.328 341.363 Z" fill="#000000" fill-rule="evenodd" fill-opacity="1" /><path clip-path="url(#clip410)" d="M 0 0 M148.305 339.419 L153.189 339.419 L153.189 345.298 L148.305 345.298 L148.305 339.419 Z" fill="#000000" fill-rule="evenodd" fill-opacity="1" /><path clip-path="url(#clip410)" d="M 0 0 M168.258 313.817 Q164.647 313.817 162.819 317.382 Q161.013 320.924 161.013 328.053 Q161.013 335.16 162.819 338.724 Q164.647 342.266 168.258 342.266 Q171.893 342.266 173.698 338.724 Q175.527 335.16 175.527 328.053 Q175.527 320.924 173.698 317.382 Q171.893 313.817 168.258 313.817 M168.258 310.113 Q174.068 310.113 177.124 314.72 Q180.203 319.303 180.203 328.053 Q180.203 336.78 177.124 341.386 Q174.068 345.97 168.258 345.97 Q162.448 345.97 159.369 341.386 Q156.314 336.78 156.314 328.053 Q156.314 319.303 159.369 314.72 Q162.448 310.113 168.258 310.113 Z" fill="#000000" fill-rule="evenodd" fill-opacity="1" /><path clip-path="url(#clip410)" d="M 0 0 M510.428 12.096 L518.651 12.096 L518.651 48.8377 Q518.651 58.5599 522.175 62.8538 Q525.699 67.1073 533.599 67.1073 Q541.457 67.1073 544.982 62.8538 Q548.506 58.5599 548.506 48.8377 L548.506 12.096 L556.729 12.096 L556.729 49.8504 Q556.729 61.6791 550.856 67.7149 Q545.022 73.7508 533.599 73.7508 Q522.135 73.7508 516.261 67.7149 Q510.428 61.6791 510.428 49.8504 L510.428 12.096 Z" fill="#000000" fill-rule="evenodd" fill-opacity="1" /><path clip-path="url(#clip410)" d="M 0 0 M602.262 45.1919 L602.262 72.576 L594.808 72.576 L594.808 45.4349 Q594.808 38.994 592.296 35.7938 Q589.785 32.5936 584.762 32.5936 Q578.726 32.5936 575.242 36.4419 Q571.758 40.2903 571.758 46.9338 L571.758 72.576 L564.264 72.576 L564.264 27.2059 L571.758 27.2059 L571.758 34.2544 Q574.432 30.163 578.037 28.1376 Q581.683 26.1121 586.423 26.1121 Q594.241 26.1121 598.251 30.9732 Q602.262 35.7938 602.262 45.1919 Z" fill="#000000" fill-rule="evenodd" fill-opacity="1" /><path clip-path="url(#clip410)" d="M 0 0 M610.08 27.2059 L617.533 27.2059 L617.533 72.576 L610.08 72.576 L610.08 27.2059 M610.08 9.54393 L617.533 9.54393 L617.533 18.9825 L610.08 18.9825 L610.08 9.54393 Z" fill="#000000" fill-rule="evenodd" fill-opacity="1" /><path clip-path="url(#clip410)" d="M 0 0 M632.724 14.324 L632.724 27.2059 L648.077 27.2059 L648.077 32.9987 L632.724 32.9987 L632.724 57.6282 Q632.724 63.1779 634.223 64.7578 Q635.763 66.3376 640.421 66.3376 L648.077 66.3376 L648.077 72.576 L640.421 72.576 Q631.793 72.576 628.511 69.3758 Q625.23 66.1351 625.23 57.6282 L625.23 32.9987 L619.761 32.9987 L619.761 27.2059 L625.23 27.2059 L625.23 14.324 L632.724 14.324 Z" fill="#000000" fill-rule="evenodd" fill-opacity="1" /><path clip-path="url(#clip410)" d="M 0 0 M714.917 28.9478 L714.917 35.9153 Q711.757 34.1734 708.557 33.3227 Q705.398 32.4315 702.157 32.4315 Q694.906 32.4315 690.895 37.0496 Q686.885 41.6271 686.885 49.9314 Q686.885 58.2358 690.895 62.8538 Q694.906 67.4314 702.157 67.4314 Q705.398 67.4314 708.557 66.5807 Q711.757 65.6895 714.917 63.9476 L714.917 70.8341 Q711.798 72.2924 708.436 73.0216 Q705.114 73.7508 701.347 73.7508 Q691.098 73.7508 685.062 67.3098 Q679.026 60.8689 679.026 49.9314 Q679.026 38.832 685.103 32.472 Q691.219 26.1121 701.833 26.1121 Q705.276 26.1121 708.557 26.8413 Q711.839 27.5299 714.917 28.9478 Z" fill="#000000" fill-rule="evenodd" fill-opacity="1" /><path clip-path="url(#clip410)" d="M 0 0 M722.735 27.2059 L730.189 27.2059 L730.189 72.576 L722.735 72.576 L722.735 27.2059 M722.735 9.54393 L730.189 9.54393 L730.189 18.9825 L722.735 18.9825 L722.735 9.54393 Z" fill="#000000" fill-rule="evenodd" fill-opacity="1" /><path clip-path="url(#clip410)" d="M 0 0 M764.298 34.1734 Q763.042 33.4443 761.543 33.1202 Q760.085 32.7556 758.302 32.7556 Q751.983 32.7556 748.58 36.8875 Q745.218 40.9789 745.218 48.6757 L745.218 72.576 L737.724 72.576 L737.724 27.2059 L745.218 27.2059 L745.218 34.2544 Q747.567 30.1225 751.335 28.1376 Q755.102 26.1121 760.49 26.1121 Q761.26 26.1121 762.191 26.2337 Q763.123 26.3147 764.257 26.5172 L764.298 34.1734 Z" fill="#000000" fill-rule="evenodd" fill-opacity="1" /><path clip-path="url(#clip410)" d="M 0 0 M802.943 28.9478 L802.943 35.9153 Q799.784 34.1734 796.583 33.3227 Q793.424 32.4315 790.183 32.4315 Q782.932 32.4315 778.921 37.0496 Q774.911 41.6271 774.911 49.9314 Q774.911 58.2358 778.921 62.8538 Q782.932 67.4314 790.183 67.4314 Q793.424 67.4314 796.583 66.5807 Q799.784 65.6895 802.943 63.9476 L802.943 70.8341 Q799.824 72.2924 796.462 73.0216 Q793.14 73.7508 789.373 73.7508 Q779.124 73.7508 773.088 67.3098 Q767.052 60.8689 767.052 49.9314 Q767.052 38.832 773.129 32.472 Q779.246 26.1121 789.859 26.1121 Q793.302 26.1121 796.583 26.8413 Q799.865 27.5299 802.943 28.9478 Z" fill="#000000" fill-rule="evenodd" fill-opacity="1" /><path clip-path="url(#clip410)" d="M 0 0 M810.762 9.54393 L818.215 9.54393 L818.215 72.576 L810.762 72.576 L810.762 9.54393 Z" fill="#000000" fill-rule="evenodd" fill-opacity="1" /><path clip-path="url(#clip410)" d="M 0 0 M864.841 48.0275 L864.841 51.6733 L830.571 51.6733 Q831.057 59.3701 835.189 63.421 Q839.361 67.4314 846.774 67.4314 Q851.068 67.4314 855.078 66.3781 Q859.129 65.3249 863.099 63.2184 L863.099 70.267 Q859.089 71.9684 854.876 72.8596 Q850.663 73.7508 846.329 73.7508 Q835.472 73.7508 829.112 67.4314 Q822.793 61.1119 822.793 50.3365 Q822.793 39.1965 828.788 32.6746 Q834.824 26.1121 845.032 26.1121 Q854.187 26.1121 859.494 32.0264 Q864.841 37.9003 864.841 48.0275 M857.387 45.84 Q857.306 39.7232 853.944 36.0774 Q850.622 32.4315 845.113 32.4315 Q838.875 32.4315 835.108 35.9558 Q831.381 39.4801 830.814 45.8805 L857.387 45.84 Z" fill="#000000" fill-rule="evenodd" fill-opacity="1" /><path clip-path="url(#clip410)" d="M 0 0 M689.619 1515.82 Q689.619 1517.63 688.491 1518.66 Q687.364 1519.65 686.076 1519.65 Q684.852 1519.65 684.208 1518.95 Q683.564 1518.24 683.564 1517.34 Q683.564 1516.11 684.466 1515.05 Q685.367 1513.99 686.72 1513.76 Q685.4 1512.92 683.435 1512.92 Q682.147 1512.92 681.02 1513.6 Q679.925 1514.28 679.248 1515.15 Q678.604 1516.02 678.024 1517.27 Q677.477 1518.5 677.252 1519.24 Q677.058 1519.94 676.897 1520.72 L674.643 1529.74 Q673.548 1534.02 673.548 1535.53 Q673.548 1537.4 674.45 1538.66 Q675.351 1539.88 677.155 1539.88 Q677.863 1539.88 678.669 1539.69 Q679.474 1539.46 680.504 1538.88 Q681.567 1538.27 682.501 1537.37 Q683.467 1536.43 684.401 1534.86 Q685.335 1533.28 685.947 1531.25 Q686.14 1530.54 686.784 1530.54 Q687.59 1530.54 687.59 1531.18 Q687.59 1531.73 687.139 1532.89 Q686.72 1534.02 685.786 1535.5 Q684.884 1536.95 683.693 1538.27 Q682.501 1539.56 680.73 1540.46 Q678.958 1541.36 677.026 1541.36 Q674.256 1541.36 672.421 1539.88 Q670.585 1538.4 669.909 1536.34 Q669.748 1536.63 669.522 1537.01 Q669.297 1537.4 668.62 1538.27 Q667.976 1539.11 667.235 1539.75 Q666.495 1540.36 665.335 1540.85 Q664.208 1541.36 662.984 1541.36 Q661.438 1541.36 660.054 1540.91 Q658.701 1540.46 657.735 1539.43 Q656.769 1538.4 656.769 1536.98 Q656.769 1535.4 657.831 1534.31 Q658.926 1533.18 660.408 1533.18 Q661.342 1533.18 662.083 1533.73 Q662.855 1534.28 662.855 1535.47 Q662.855 1536.79 661.954 1537.79 Q661.052 1538.79 659.764 1539.04 Q661.084 1539.88 663.049 1539.88 Q665.174 1539.88 666.849 1538.01 Q668.524 1536.14 669.329 1533.02 Q671.326 1525.52 672.099 1522.17 Q672.872 1518.79 672.872 1517.34 Q672.872 1515.98 672.517 1515.05 Q672.163 1514.12 671.551 1513.7 Q670.971 1513.25 670.424 1513.08 Q669.909 1512.92 669.329 1512.92 Q668.363 1512.92 667.268 1513.31 Q666.205 1513.7 664.917 1514.6 Q663.661 1515.47 662.469 1517.27 Q661.277 1519.08 660.472 1521.55 Q660.311 1522.3 659.603 1522.3 Q658.83 1522.26 658.83 1521.62 Q658.83 1521.07 659.248 1519.94 Q659.699 1518.79 660.601 1517.34 Q661.535 1515.89 662.727 1514.6 Q663.95 1513.28 665.722 1512.38 Q667.525 1511.47 669.458 1511.47 Q670.327 1511.47 671.165 1511.67 Q672.034 1511.83 673.065 1512.31 Q674.128 1512.79 675.062 1513.86 Q675.995 1514.92 676.575 1516.47 Q676.962 1515.73 677.477 1515.02 Q678.024 1514.31 678.862 1513.44 Q679.731 1512.54 680.923 1512.02 Q682.147 1511.47 683.499 1511.47 Q684.82 1511.47 686.108 1511.83 Q687.396 1512.15 688.491 1513.21 Q689.619 1514.24 689.619 1515.82 Z" fill="#000000" fill-rule="evenodd" fill-opacity="1" /><path clip-path="url(#clip410)" d="M 0 0 M696.355 1533.19 L696.355 1531.74 Q701.901 1531.74 704.764 1528.79 Q705.553 1528.79 705.689 1528.97 Q705.824 1529.15 705.824 1529.98 L705.824 1555.89 Q705.824 1557.26 706.5 1557.69 Q707.177 1558.12 710.13 1558.12 L711.595 1558.12 L711.595 1559.54 Q709.972 1559.4 704.111 1559.4 Q698.249 1559.4 696.649 1559.54 L696.649 1558.12 L698.114 1558.12 Q701.022 1558.12 701.721 1557.71 Q702.42 1557.29 702.42 1555.89 L702.42 1531.97 Q700.008 1533.19 696.355 1533.19 Z" fill="#000000" fill-rule="evenodd" fill-opacity="1" /><path clip-path="url(#clip410)" d="M 0 0 M45.6604 783.688 Q47.4639 783.688 48.4945 784.815 Q49.4929 785.942 49.4929 787.23 Q49.4929 788.454 48.7844 789.098 Q48.0758 789.742 47.1741 789.742 Q45.9502 789.742 44.8875 788.841 Q43.8247 787.939 43.5992 786.586 Q42.7619 787.907 42.7619 789.871 Q42.7619 791.159 43.4382 792.287 Q44.1145 793.382 44.9841 794.058 Q45.8536 794.702 47.1097 795.282 Q48.3335 795.829 49.0742 796.055 Q49.7827 796.248 50.5557 796.409 L59.5733 798.663 Q63.8567 799.758 65.3704 799.758 Q67.2383 799.758 68.4943 798.857 Q69.7182 797.955 69.7182 796.151 Q69.7182 795.443 69.5249 794.638 Q69.2995 793.833 68.7198 792.802 Q68.1079 791.739 67.2061 790.805 Q66.2721 789.839 64.6941 788.905 Q63.116 787.971 61.087 787.359 Q60.3785 787.166 60.3785 786.522 Q60.3785 785.717 61.0226 785.717 Q61.5701 785.717 62.7295 786.168 Q63.8567 786.586 65.3382 787.52 Q66.7874 788.422 68.1079 789.614 Q69.3961 790.805 70.2979 792.577 Q71.1996 794.348 71.1996 796.28 Q71.1996 799.05 69.7182 800.886 Q68.2367 802.721 66.1755 803.398 Q66.4654 803.559 66.8519 803.784 Q67.2383 804.01 68.1079 804.686 Q68.9452 805.33 69.5893 806.071 Q70.2013 806.812 70.6843 807.971 Q71.1996 809.098 71.1996 810.322 Q71.1996 811.868 70.7488 813.253 Q70.2979 814.605 69.2673 815.572 Q68.2367 816.538 66.8196 816.538 Q65.2416 816.538 64.1466 815.475 Q63.0194 814.38 63.0194 812.898 Q63.0194 811.964 63.5669 811.224 Q64.1144 810.451 65.306 810.451 Q66.6264 810.451 67.6248 811.353 Q68.6232 812.254 68.8808 813.543 Q69.7182 812.222 69.7182 810.258 Q69.7182 808.132 67.8502 806.457 Q65.9823 804.783 62.8583 803.977 Q55.3544 801.981 52.0049 801.208 Q48.6233 800.435 47.1741 800.435 Q45.8214 800.435 44.8875 800.789 Q43.9535 801.143 43.5348 801.755 Q43.0839 802.335 42.9229 802.882 Q42.7619 803.398 42.7619 803.977 Q42.7619 804.944 43.1483 806.039 Q43.5348 807.101 44.4366 808.39 Q45.3061 809.646 47.1097 810.837 Q48.9132 812.029 51.393 812.834 Q52.1338 812.995 52.1338 813.704 Q52.1016 814.477 51.4574 814.477 Q50.9099 814.477 49.7827 814.058 Q48.6233 813.607 47.1741 812.705 Q45.7248 811.771 44.4366 810.58 Q43.1161 809.356 42.2144 807.584 Q41.3126 805.781 41.3126 803.849 Q41.3126 802.979 41.5058 802.142 Q41.6669 801.272 42.15 800.242 Q42.633 799.179 43.6958 798.245 Q44.7586 797.311 46.3045 796.731 Q45.5638 796.345 44.8552 795.829 Q44.1467 795.282 43.2772 794.444 Q42.3754 793.575 41.8601 792.383 Q41.3126 791.159 41.3126 789.807 Q41.3126 788.486 41.6669 787.198 Q41.9889 785.91 43.0517 784.815 Q44.0823 783.688 45.6604 783.688 Z" fill="#000000" fill-rule="evenodd" fill-opacity="1" /><path clip-path="url(#clip410)" d="M 0 0 M89.378 776.951 Q88.5438 776.951 88.2959 776.883 Q88.0479 776.793 87.6646 776.432 L77.7903 767.572 Q72.3346 762.725 67.5778 762.725 Q64.4893 762.725 62.28 764.349 Q60.0706 765.949 60.0706 768.903 Q60.0706 770.932 61.3106 772.645 Q62.5505 774.358 64.7598 775.147 Q64.7147 775.012 64.7147 774.539 Q64.7147 773.389 65.4361 772.758 Q66.1575 772.104 67.1269 772.104 Q68.3669 772.104 68.9756 772.915 Q69.5617 773.704 69.5617 774.494 Q69.5617 774.809 69.4941 775.237 Q69.4264 775.643 68.7952 776.297 Q68.1414 776.951 66.9917 776.951 Q63.7679 776.951 61.1978 774.516 Q58.6278 772.059 58.6278 768.316 Q58.6278 764.078 61.1528 761.305 Q63.6551 758.51 67.5778 758.51 Q68.953 758.51 70.2155 758.938 Q71.4554 759.344 72.4248 759.907 Q73.3942 760.449 74.9497 761.936 Q76.5053 763.424 77.6099 764.619 Q78.7146 765.814 81.0592 768.497 L85.816 773.389 L85.816 765.07 Q85.816 761.012 85.4553 760.697 Q84.8015 760.246 81.3523 759.682 L81.3523 758.51 L89.378 759.817 L89.378 776.951 Z" fill="#000000" fill-rule="evenodd" fill-opacity="1" /><polyline clip-path="url(#clip412)" style="stroke:#009af9; stroke-width:4; stroke-opacity:1; fill:none" points="
  1143.7,784.086 1143.68,779.31 1143.6,774.535 1143.48,769.761 1143.3,764.988 1143.08,760.217 1142.8,755.449 1142.48,750.684 1142.1,745.923 1141.68,741.166 
  1141.2,736.414 1140.68,731.667 1140.11,726.926 1139.48,722.191 1138.81,717.462 1138.09,712.741 1137.32,708.028 1136.49,703.323 1135.62,698.627 1134.7,693.941 
  1133.74,689.264 1132.72,684.598 1131.65,679.943 1130.54,675.299 1129.37,670.667 1128.16,666.047 1126.9,661.44 1125.59,656.847 1124.24,652.268 1122.83,647.703 
  1121.38,643.153 1119.88,638.619 1118.33,634.101 1116.74,629.599 1115.1,625.114 1113.41,620.646 1111.68,616.196 1109.89,611.765 1108.07,607.353 1106.19,602.96 
  1104.27,598.587 1102.31,594.234 1100.3,589.902 1098.24,585.591 1096.14,581.302 1093.99,577.036 1091.8,572.792 1089.57,568.571 1087.29,564.374 1084.97,560.201 
  1082.6,556.052 1080.19,551.929 1077.74,547.831 1075.24,543.759 1072.7,539.713 1070.12,535.694 1067.5,531.702 1064.84,527.738 1062.13,523.802 1059.39,519.895 
  1056.6,516.016 1053.77,512.167 1050.91,508.348 1048,504.559 1045.05,500.801 1042.07,497.073 1039.04,493.378 1035.98,489.714 1032.88,486.082 1029.74,482.483 
  1026.56,478.917 1023.34,475.385 1020.09,471.886 1016.81,468.422 1013.48,464.992 1010.12,461.598 1006.73,458.238 1003.3,454.915 999.834,451.627 996.336,448.376 
  992.803,445.162 989.237,441.985 985.638,438.845 982.007,435.743 978.343,432.68 974.647,429.655 970.92,426.669 967.161,423.722 963.372,420.815 959.553,417.947 
  955.704,415.12 951.826,412.333 947.918,409.586 943.982,406.881 940.018,404.218 936.027,401.596 932.008,399.015 927.962,396.477 923.89,393.982 919.792,391.529 
  915.668,389.12 911.52,386.754 907.347,384.431 903.149,382.152 898.929,379.917 894.685,377.727 890.418,375.581 886.129,373.48 881.818,371.424 877.487,369.413 
  873.134,367.448 868.761,365.528 864.368,363.654 859.955,361.826 855.524,360.045 851.074,358.31 846.607,356.622 842.122,354.981 837.62,353.387 833.101,351.84 
  828.567,350.34 824.017,348.888 819.452,347.484 814.873,346.127 810.28,344.819 805.673,343.559 801.054,342.347 796.422,341.183 791.778,340.068 787.122,339.002 
  782.456,337.985 777.779,337.016 773.093,336.097 768.397,335.226 763.692,334.405 758.979,333.633 754.258,332.911 749.53,332.238 744.795,331.615 740.053,331.041 
  735.306,330.517 730.554,330.042 725.797,329.618 721.036,329.243 716.271,328.918 711.503,328.643 706.732,328.418 701.96,328.243 697.186,328.118 692.41,328.043 
  687.634,328.018 682.859,328.043 678.083,328.118 673.309,328.243 668.536,328.418 663.766,328.643 658.998,328.918 654.233,329.243 649.472,329.618 644.715,330.042 
  639.962,330.517 635.215,331.041 630.474,331.615 625.739,332.238 621.011,332.911 616.29,333.633 611.577,334.405 606.872,335.226 602.176,336.097 597.489,337.016 
  592.813,337.985 588.146,339.002 583.491,340.068 578.847,341.183 574.215,342.347 569.595,343.559 564.989,344.819 560.396,346.127 555.816,347.484 551.252,348.888 
  546.702,350.34 542.167,351.84 537.649,353.387 533.147,354.981 528.662,356.622 524.194,358.31 519.745,360.045 515.313,361.826 510.901,363.654 506.508,365.528 
  502.135,367.448 497.782,369.413 493.45,371.424 489.14,373.48 484.851,375.581 480.584,377.727 476.34,379.917 472.119,382.152 467.922,384.431 463.749,386.754 
  459.601,389.12 455.477,391.529 451.379,393.982 447.307,396.477 443.261,399.015 439.242,401.596 435.25,404.218 431.286,406.881 427.35,409.586 423.443,412.333 
  419.565,415.12 415.716,417.947 411.896,420.815 408.107,423.722 404.349,426.669 400.622,429.655 396.926,432.68 393.262,435.743 389.63,438.845 386.031,441.985 
  382.466,445.162 378.933,448.376 375.435,451.627 371.97,454.915 368.541,458.238 365.146,461.598 361.787,464.992 358.463,468.422 355.175,471.886 351.924,475.385 
  348.71,478.917 345.533,482.483 342.393,486.082 339.292,489.714 336.228,493.378 333.203,497.073 330.217,500.801 327.27,504.559 324.363,508.348 321.495,512.167 
  318.668,516.016 315.881,519.895 313.135,523.802 310.43,527.738 307.766,531.702 305.144,535.694 302.564,539.713 300.026,543.759 297.53,547.831 295.078,551.929 
  292.668,556.052 290.302,560.201 287.979,564.374 285.7,568.571 283.466,572.792 281.275,577.036 279.129,581.302 277.028,585.591 274.972,589.902 272.961,594.234 
  270.996,598.587 269.076,602.96 267.202,607.353 265.375,611.765 263.593,616.196 261.859,620.646 260.17,625.114 258.529,629.599 256.935,634.101 255.388,638.619 
  253.888,643.153 252.436,647.703 251.032,652.268 249.676,656.847 248.367,661.44 247.107,666.047 245.895,670.667 244.731,675.299 243.617,679.943 242.55,684.598 
  241.533,689.264 240.564,693.941 239.645,698.627 238.775,703.323 237.954,708.028 237.182,712.741 236.459,717.462 235.786,722.191 235.163,726.926 234.589,731.667 
  234.065,736.414 233.591,741.166 233.166,745.923 232.792,750.684 232.467,755.449 232.192,760.217 231.967,764.988 231.792,769.761 231.667,774.535 231.592,779.31 
  231.567,784.086 231.592,788.862 231.667,793.637 231.792,798.411 231.967,803.184 232.192,807.955 232.467,812.723 232.792,817.488 233.166,822.249 233.591,827.006 
  234.065,831.758 234.589,836.505 235.163,841.246 235.786,845.981 236.459,850.71 237.182,855.431 237.954,860.144 238.775,864.849 239.645,869.545 240.564,874.231 
  241.533,878.908 242.55,883.574 243.617,888.229 244.731,892.873 245.895,897.505 247.107,902.125 248.367,906.732 249.676,911.325 251.032,915.904 252.436,920.469 
  253.888,925.019 255.388,929.553 256.935,934.071 258.529,938.573 260.17,943.058 261.859,947.526 263.593,951.976 265.375,956.407 267.202,960.819 269.076,965.212 
  270.996,969.585 272.961,973.938 274.972,978.27 277.028,982.581 279.129,986.87 281.275,991.136 283.466,995.38 285.7,999.601 287.979,1003.8 290.302,1007.97 
  292.668,1012.12 295.078,1016.24 297.53,1020.34 300.026,1024.41 302.564,1028.46 305.144,1032.48 307.766,1036.47 310.43,1040.43 313.135,1044.37 315.881,1048.28 
  318.668,1052.16 321.495,1056 324.363,1059.82 327.27,1063.61 330.217,1067.37 333.203,1071.1 336.228,1074.79 339.292,1078.46 342.393,1082.09 345.533,1085.69 
  348.71,1089.25 351.924,1092.79 355.175,1096.29 358.463,1099.75 361.787,1103.18 365.146,1106.57 368.541,1109.93 371.97,1113.26 375.435,1116.54 378.933,1119.8 
  382.466,1123.01 386.031,1126.19 389.63,1129.33 393.262,1132.43 396.926,1135.49 400.622,1138.52 404.349,1141.5 408.107,1144.45 411.896,1147.36 415.716,1150.23 
  419.565,1153.05 423.443,1155.84 427.35,1158.59 431.286,1161.29 435.25,1163.95 439.242,1166.58 443.261,1169.16 447.307,1171.69 451.379,1174.19 455.477,1176.64 
  459.601,1179.05 463.749,1181.42 467.922,1183.74 472.119,1186.02 476.34,1188.25 480.584,1190.45 484.851,1192.59 489.14,1194.69 493.45,1196.75 497.782,1198.76 
  502.135,1200.72 506.508,1202.64 510.901,1204.52 515.313,1206.35 519.745,1208.13 524.194,1209.86 528.662,1211.55 533.147,1213.19 537.649,1214.79 542.167,1216.33 
  546.702,1217.83 551.252,1219.28 555.816,1220.69 560.396,1222.04 564.989,1223.35 569.595,1224.61 574.215,1225.83 578.847,1226.99 583.491,1228.1 588.146,1229.17 
  592.813,1230.19 597.489,1231.16 602.176,1232.08 606.872,1232.95 611.577,1233.77 616.29,1234.54 621.011,1235.26 625.739,1235.93 630.474,1236.56 635.215,1237.13 
  639.962,1237.66 644.715,1238.13 649.472,1238.55 654.233,1238.93 658.998,1239.25 663.766,1239.53 668.536,1239.75 673.309,1239.93 678.083,1240.05 682.859,1240.13 
  687.634,1240.15 692.41,1240.13 697.186,1240.05 701.96,1239.93 706.732,1239.75 711.503,1239.53 716.271,1239.25 721.036,1238.93 725.797,1238.55 730.554,1238.13 
  735.306,1237.66 740.053,1237.13 744.795,1236.56 749.53,1235.93 754.258,1235.26 758.979,1234.54 763.692,1233.77 768.397,1232.95 773.093,1232.08 777.779,1231.16 
  782.456,1230.19 787.122,1229.17 791.778,1228.1 796.422,1226.99 801.054,1225.83 805.673,1224.61 810.28,1223.35 814.873,1222.04 819.452,1220.69 824.017,1219.28 
  828.567,1217.83 833.101,1216.33 837.62,1214.79 842.122,1213.19 846.607,1211.55 851.074,1209.86 855.524,1208.13 859.955,1206.35 864.368,1204.52 868.761,1202.64 
  873.134,1200.72 877.487,1198.76 881.818,1196.75 886.129,1194.69 890.418,1192.59 894.685,1190.45 898.929,1188.25 903.149,1186.02 907.347,1183.74 911.52,1181.42 
  915.668,1179.05 919.792,1176.64 923.89,1174.19 927.962,1171.69 932.008,1169.16 936.027,1166.58 940.018,1163.95 943.982,1161.29 947.918,1158.59 951.826,1155.84 
  955.704,1153.05 959.553,1150.23 963.372,1147.36 967.161,1144.45 970.92,1141.5 974.647,1138.52 978.343,1135.49 982.007,1132.43 985.638,1129.33 989.237,1126.19 
  992.803,1123.01 996.336,1119.8 999.834,1116.54 1003.3,1113.26 1006.73,1109.93 1010.12,1106.57 1013.48,1103.18 1016.81,1099.75 1020.09,1096.29 1023.34,1092.79 
  1026.56,1089.25 1029.74,1085.69 1032.88,1082.09 1035.98,1078.46 1039.04,1074.79 1042.07,1071.1 1045.05,1067.37 1048,1063.61 1050.91,1059.82 1053.77,1056 
  1056.6,1052.16 1059.39,1048.28 1062.13,1044.37 1064.84,1040.43 1067.5,1036.47 1070.12,1032.48 1072.7,1028.46 1075.24,1024.41 1077.74,1020.34 1080.19,1016.24 
  1082.6,1012.12 1084.97,1007.97 1087.29,1003.8 1089.57,999.601 1091.8,995.38 1093.99,991.136 1096.14,986.87 1098.24,982.581 1100.3,978.27 1102.31,973.938 
  1104.27,969.585 1106.19,965.212 1108.07,960.819 1109.89,956.407 1111.68,951.976 1113.41,947.526 1115.1,943.058 1116.74,938.573 1118.33,934.071 1119.88,929.553 
  1121.38,925.019 1122.83,920.469 1124.24,915.904 1125.59,911.325 1126.9,906.732 1128.16,902.125 1129.37,897.505 1130.54,892.873 1131.65,888.229 1132.72,883.574 
  1133.74,878.908 1134.7,874.231 1135.62,869.545 1136.49,864.849 1137.32,860.144 1138.09,855.431 1138.81,850.71 1139.48,845.981 1140.11,841.246 1140.68,836.505 
  1141.2,831.758 1141.68,827.006 1142.1,822.249 1142.48,817.488 1142.8,812.723 1143.08,807.955 1143.3,803.184 1143.48,798.411 1143.6,793.637 1143.68,788.862 
  1143.7,784.086 
  "/>
<path clip-path="url(#clip410)" d="
M1385.89 1444.7 L2352.76 1444.7 L2352.76 123.472 L1385.89 123.472  Z
  " fill="#ffffff" fill-rule="evenodd" fill-opacity="1"/>
<defs>
  <clipPath id="clip413">
    <rect x="1385" y="123" width="968" height="1322"/>
  </clipPath>
</defs>
<polyline clip-path="url(#clip413)" style="stroke:#000000; stroke-width:2; stroke-opacity:0.1; fill:none" points="
  1470.71,1444.7 1470.71,123.472 
  "/>
<polyline clip-path="url(#clip413)" style="stroke:#000000; stroke-width:2; stroke-opacity:0.1; fill:none" points="
  1670.02,1444.7 1670.02,123.472 
  "/>
<polyline clip-path="url(#clip413)" style="stroke:#000000; stroke-width:2; stroke-opacity:0.1; fill:none" points="
  1869.32,1444.7 1869.32,123.472 
  "/>
<polyline clip-path="url(#clip413)" style="stroke:#000000; stroke-width:2; stroke-opacity:0.1; fill:none" points="
  2068.63,1444.7 2068.63,123.472 
  "/>
<polyline clip-path="url(#clip413)" style="stroke:#000000; stroke-width:2; stroke-opacity:0.1; fill:none" points="
  2267.94,1444.7 2267.94,123.472 
  "/>
<polyline clip-path="url(#clip413)" style="stroke:#000000; stroke-width:2; stroke-opacity:0.1; fill:none" points="
  1385.89,1382.01 2352.76,1382.01 
  "/>
<polyline clip-path="url(#clip413)" style="stroke:#000000; stroke-width:2; stroke-opacity:0.1; fill:none" points="
  1385.89,1182.7 2352.76,1182.7 
  "/>
<polyline clip-path="url(#clip413)" style="stroke:#000000; stroke-width:2; stroke-opacity:0.1; fill:none" points="
  1385.89,983.395 2352.76,983.395 
  "/>
<polyline clip-path="url(#clip413)" style="stroke:#000000; stroke-width:2; stroke-opacity:0.1; fill:none" points="
  1385.89,784.086 2352.76,784.086 
  "/>
<polyline clip-path="url(#clip413)" style="stroke:#000000; stroke-width:2; stroke-opacity:0.1; fill:none" points="
  1385.89,584.777 2352.76,584.777 
  "/>
<polyline clip-path="url(#clip413)" style="stroke:#000000; stroke-width:2; stroke-opacity:0.1; fill:none" points="
  1385.89,385.468 2352.76,385.468 
  "/>
<polyline clip-path="url(#clip413)" style="stroke:#000000; stroke-width:2; stroke-opacity:0.1; fill:none" points="
  1385.89,186.159 2352.76,186.159 
  "/>
<polyline clip-path="url(#clip410)" style="stroke:#000000; stroke-width:4; stroke-opacity:1; fill:none" points="
  1385.89,1444.7 2352.76,1444.7 
  "/>
<polyline clip-path="url(#clip410)" style="stroke:#000000; stroke-width:4; stroke-opacity:1; fill:none" points="
  1385.89,1444.7 1385.89,123.472 
  "/>
<polyline clip-path="url(#clip410)" style="stroke:#000000; stroke-width:4; stroke-opacity:1; fill:none" points="
  1470.71,1444.7 1470.71,1428.85 
  "/>
<polyline clip-path="url(#clip410)" style="stroke:#000000; stroke-width:4; stroke-opacity:1; fill:none" points="
  1670.02,1444.7 1670.02,1428.85 
  "/>
<polyline clip-path="url(#clip410)" style="stroke:#000000; stroke-width:4; stroke-opacity:1; fill:none" points="
  1869.32,1444.7 1869.32,1428.85 
  "/>
<polyline clip-path="url(#clip410)" style="stroke:#000000; stroke-width:4; stroke-opacity:1; fill:none" points="
  2068.63,1444.7 2068.63,1428.85 
  "/>
<polyline clip-path="url(#clip410)" style="stroke:#000000; stroke-width:4; stroke-opacity:1; fill:none" points="
  2267.94,1444.7 2267.94,1428.85 
  "/>
<polyline clip-path="url(#clip410)" style="stroke:#000000; stroke-width:4; stroke-opacity:1; fill:none" points="
  1385.89,1382.01 1397.49,1382.01 
  "/>
<polyline clip-path="url(#clip410)" style="stroke:#000000; stroke-width:4; stroke-opacity:1; fill:none" points="
  1385.89,1182.7 1397.49,1182.7 
  "/>
<polyline clip-path="url(#clip410)" style="stroke:#000000; stroke-width:4; stroke-opacity:1; fill:none" points="
  1385.89,983.395 1397.49,983.395 
  "/>
<polyline clip-path="url(#clip410)" style="stroke:#000000; stroke-width:4; stroke-opacity:1; fill:none" points="
  1385.89,784.086 1397.49,784.086 
  "/>
<polyline clip-path="url(#clip410)" style="stroke:#000000; stroke-width:4; stroke-opacity:1; fill:none" points="
  1385.89,584.777 1397.49,584.777 
  "/>
<polyline clip-path="url(#clip410)" style="stroke:#000000; stroke-width:4; stroke-opacity:1; fill:none" points="
  1385.89,385.468 1397.49,385.468 
  "/>
<polyline clip-path="url(#clip410)" style="stroke:#000000; stroke-width:4; stroke-opacity:1; fill:none" points="
  1385.89,186.159 1397.49,186.159 
  "/>
<path clip-path="url(#clip410)" d="M 0 0 M1451.76 1483.29 L1464.24 1483.29 L1464.24 1487.08 L1451.76 1487.08 L1451.76 1483.29 Z" fill="#000000" fill-rule="evenodd" fill-opacity="1" /><path clip-path="url(#clip410)" d="M 0 0 M1473.33 1494.24 L1489.65 1494.24 L1489.65 1498.17 L1467.71 1498.17 L1467.71 1494.24 Q1470.37 1491.48 1474.95 1486.85 Q1479.56 1482.2 1480.74 1480.86 Q1482.99 1478.33 1483.87 1476.6 Q1484.77 1474.84 1484.77 1473.15 Q1484.77 1470.39 1482.82 1468.66 Q1480.9 1466.92 1477.8 1466.92 Q1475.6 1466.92 1473.15 1467.69 Q1470.72 1468.45 1467.94 1470 L1467.94 1465.28 Q1470.76 1464.14 1473.22 1463.57 Q1475.67 1462.99 1477.71 1462.99 Q1483.08 1462.99 1486.27 1465.67 Q1489.47 1468.36 1489.47 1472.85 Q1489.47 1474.98 1488.66 1476.9 Q1487.87 1478.8 1485.76 1481.39 Q1485.19 1482.06 1482.08 1485.28 Q1478.98 1488.47 1473.33 1494.24 Z" fill="#000000" fill-rule="evenodd" fill-opacity="1" /><path clip-path="url(#clip410)" d="M 0 0 M1650.88 1483.29 L1663.36 1483.29 L1663.36 1487.08 L1650.88 1487.08 L1650.88 1483.29 Z" fill="#000000" fill-rule="evenodd" fill-opacity="1" /><path clip-path="url(#clip410)" d="M 0 0 M1669.24 1494.24 L1676.88 1494.24 L1676.88 1467.87 L1668.57 1469.54 L1668.57 1465.28 L1676.83 1463.61 L1681.51 1463.61 L1681.51 1494.24 L1689.15 1494.24 L1689.15 1498.17 L1669.24 1498.17 L1669.24 1494.24 Z" fill="#000000" fill-rule="evenodd" fill-opacity="1" /><path clip-path="url(#clip410)" d="M 0 0 M1869.32 1466.69 Q1865.71 1466.69 1863.88 1470.26 Q1862.08 1473.8 1862.08 1480.93 Q1862.08 1488.03 1863.88 1491.6 Q1865.71 1495.14 1869.32 1495.14 Q1872.96 1495.14 1874.76 1491.6 Q1876.59 1488.03 1876.59 1480.93 Q1876.59 1473.8 1874.76 1470.26 Q1872.96 1466.69 1869.32 1466.69 M1869.32 1462.99 Q1875.13 1462.99 1878.19 1467.59 Q1881.27 1472.18 1881.27 1480.93 Q1881.27 1489.65 1878.19 1494.26 Q1875.13 1498.84 1869.32 1498.84 Q1863.51 1498.84 1860.44 1494.26 Q1857.38 1489.65 1857.38 1480.93 Q1857.38 1472.18 1860.44 1467.59 Q1863.51 1462.99 1869.32 1462.99 Z" fill="#000000" fill-rule="evenodd" fill-opacity="1" /><path clip-path="url(#clip410)" d="M 0 0 M2059.02 1494.24 L2066.65 1494.24 L2066.65 1467.87 L2058.34 1469.54 L2058.34 1465.28 L2066.61 1463.61 L2071.28 1463.61 L2071.28 1494.24 L2078.92 1494.24 L2078.92 1498.17 L2059.02 1498.17 L2059.02 1494.24 Z" fill="#000000" fill-rule="evenodd" fill-opacity="1" /><path clip-path="url(#clip410)" d="M 0 0 M2262.59 1494.24 L2278.91 1494.24 L2278.91 1498.17 L2256.97 1498.17 L2256.97 1494.24 Q2259.63 1491.48 2264.22 1486.85 Q2268.82 1482.2 2270 1480.86 Q2272.25 1478.33 2273.13 1476.6 Q2274.03 1474.84 2274.03 1473.15 Q2274.03 1470.39 2272.09 1468.66 Q2270.16 1466.92 2267.06 1466.92 Q2264.86 1466.92 2262.41 1467.69 Q2259.98 1468.45 2257.2 1470 L2257.2 1465.28 Q2260.03 1464.14 2262.48 1463.57 Q2264.93 1462.99 2266.97 1462.99 Q2272.34 1462.99 2275.53 1465.67 Q2278.73 1468.36 2278.73 1472.85 Q2278.73 1474.98 2277.92 1476.9 Q2277.13 1478.8 2275.03 1481.39 Q2274.45 1482.06 2271.34 1485.28 Q2268.24 1488.47 2262.59 1494.24 Z" fill="#000000" fill-rule="evenodd" fill-opacity="1" /><path clip-path="url(#clip410)" d="M 0 0 M1323.05 1384.41 L1335.53 1384.41 L1335.53 1388.2 L1323.05 1388.2 L1323.05 1384.41 Z" fill="#000000" fill-rule="evenodd" fill-opacity="1" /><path clip-path="url(#clip410)" d="M 0 0 M1354.76 1380.66 Q1358.12 1381.38 1359.99 1383.64 Q1361.89 1385.91 1361.89 1389.25 Q1361.89 1394.36 1358.37 1397.16 Q1354.86 1399.96 1348.37 1399.96 Q1346.2 1399.96 1343.88 1399.52 Q1341.59 1399.11 1339.14 1398.25 L1339.14 1393.74 Q1341.08 1394.87 1343.4 1395.45 Q1345.71 1396.03 1348.24 1396.03 Q1352.63 1396.03 1354.93 1394.29 Q1357.24 1392.56 1357.24 1389.25 Q1357.24 1386.19 1355.09 1384.48 Q1352.96 1382.74 1349.14 1382.74 L1345.11 1382.74 L1345.11 1378.9 L1349.32 1378.9 Q1352.77 1378.9 1354.6 1377.53 Q1356.43 1376.14 1356.43 1373.55 Q1356.43 1370.89 1354.53 1369.48 Q1352.66 1368.04 1349.14 1368.04 Q1347.22 1368.04 1345.02 1368.46 Q1342.82 1368.88 1340.18 1369.76 L1340.18 1365.59 Q1342.84 1364.85 1345.16 1364.48 Q1347.49 1364.11 1349.55 1364.11 Q1354.88 1364.11 1357.98 1366.54 Q1361.08 1368.95 1361.08 1373.07 Q1361.08 1375.94 1359.44 1377.93 Q1357.8 1379.89 1354.76 1380.66 Z" fill="#000000" fill-rule="evenodd" fill-opacity="1" /><path clip-path="url(#clip410)" d="M 0 0 M1324 1185.1 L1336.48 1185.1 L1336.48 1188.9 L1324 1188.9 L1324 1185.1 Z" fill="#000000" fill-rule="evenodd" fill-opacity="1" /><path clip-path="url(#clip410)" d="M 0 0 M1345.57 1196.05 L1361.89 1196.05 L1361.89 1199.98 L1339.95 1199.98 L1339.95 1196.05 Q1342.61 1193.29 1347.19 1188.66 Q1351.8 1184.01 1352.98 1182.67 Q1355.23 1180.15 1356.11 1178.41 Q1357.01 1176.65 1357.01 1174.96 Q1357.01 1172.21 1355.06 1170.47 Q1353.14 1168.73 1350.04 1168.73 Q1347.84 1168.73 1345.39 1169.5 Q1342.96 1170.26 1340.18 1171.81 L1340.18 1167.09 Q1343 1165.96 1345.46 1165.38 Q1347.91 1164.8 1349.95 1164.8 Q1355.32 1164.8 1358.51 1167.48 Q1361.71 1170.17 1361.71 1174.66 Q1361.71 1176.79 1360.9 1178.71 Q1360.11 1180.61 1358 1183.2 Q1357.43 1183.87 1354.32 1187.09 Q1351.22 1190.28 1345.57 1196.05 Z" fill="#000000" fill-rule="evenodd" fill-opacity="1" /><path clip-path="url(#clip410)" d="M 0 0 M1323.63 985.791 L1336.11 985.791 L1336.11 989.587 L1323.63 989.587 L1323.63 985.791 Z" fill="#000000" fill-rule="evenodd" fill-opacity="1" /><path clip-path="url(#clip410)" d="M 0 0 M1341.99 996.74 L1349.62 996.74 L1349.62 970.374 L1341.31 972.041 L1341.31 967.781 L1349.58 966.115 L1354.25 966.115 L1354.25 996.74 L1361.89 996.74 L1361.89 1000.67 L1341.99 1000.67 L1341.99 996.74 Z" fill="#000000" fill-rule="evenodd" fill-opacity="1" /><path clip-path="url(#clip410)" d="M 0 0 M1349.95 769.885 Q1346.34 769.885 1344.51 773.449 Q1342.7 776.991 1342.7 784.121 Q1342.7 791.227 1344.51 794.792 Q1346.34 798.334 1349.95 798.334 Q1353.58 798.334 1355.39 794.792 Q1357.22 791.227 1357.22 784.121 Q1357.22 776.991 1355.39 773.449 Q1353.58 769.885 1349.95 769.885 M1349.95 766.181 Q1355.76 766.181 1358.81 770.787 Q1361.89 775.371 1361.89 784.121 Q1361.89 792.848 1358.81 797.454 Q1355.76 802.037 1349.95 802.037 Q1344.14 802.037 1341.06 797.454 Q1338 792.848 1338 784.121 Q1338 775.371 1341.06 770.787 Q1344.14 766.181 1349.95 766.181 Z" fill="#000000" fill-rule="evenodd" fill-opacity="1" /><path clip-path="url(#clip410)" d="M 0 0 M1341.99 598.122 L1349.62 598.122 L1349.62 571.756 L1341.31 573.423 L1341.31 569.164 L1349.58 567.497 L1354.25 567.497 L1354.25 598.122 L1361.89 598.122 L1361.89 602.057 L1341.99 602.057 L1341.99 598.122 Z" fill="#000000" fill-rule="evenodd" fill-opacity="1" /><path clip-path="url(#clip410)" d="M 0 0 M1345.57 398.813 L1361.89 398.813 L1361.89 402.748 L1339.95 402.748 L1339.95 398.813 Q1342.61 396.059 1347.19 391.429 Q1351.8 386.776 1352.98 385.434 Q1355.23 382.91 1356.11 381.174 Q1357.01 379.415 1357.01 377.725 Q1357.01 374.971 1355.06 373.235 Q1353.14 371.498 1350.04 371.498 Q1347.84 371.498 1345.39 372.262 Q1342.96 373.026 1340.18 374.577 L1340.18 369.855 Q1343 368.721 1345.46 368.142 Q1347.91 367.563 1349.95 367.563 Q1355.32 367.563 1358.51 370.248 Q1361.71 372.934 1361.71 377.424 Q1361.71 379.554 1360.9 381.475 Q1360.11 383.373 1358 385.966 Q1357.43 386.637 1354.32 389.855 Q1351.22 393.049 1345.57 398.813 Z" fill="#000000" fill-rule="evenodd" fill-opacity="1" /><path clip-path="url(#clip410)" d="M 0 0 M1354.76 184.805 Q1358.12 185.523 1359.99 187.791 Q1361.89 190.06 1361.89 193.393 Q1361.89 198.509 1358.37 201.31 Q1354.86 204.111 1348.37 204.111 Q1346.2 204.111 1343.88 203.671 Q1341.59 203.254 1339.14 202.398 L1339.14 197.884 Q1341.08 199.018 1343.4 199.597 Q1345.71 200.176 1348.24 200.176 Q1352.63 200.176 1354.93 198.439 Q1357.24 196.703 1357.24 193.393 Q1357.24 190.338 1355.09 188.625 Q1352.96 186.889 1349.14 186.889 L1345.11 186.889 L1345.11 183.046 L1349.32 183.046 Q1352.77 183.046 1354.6 181.68 Q1356.43 180.291 1356.43 177.699 Q1356.43 175.037 1354.53 173.625 Q1352.66 172.19 1349.14 172.19 Q1347.22 172.19 1345.02 172.606 Q1342.82 173.023 1340.18 173.903 L1340.18 169.736 Q1342.84 168.995 1345.16 168.625 Q1347.49 168.254 1349.55 168.254 Q1354.88 168.254 1357.98 170.685 Q1361.08 173.092 1361.08 177.213 Q1361.08 180.083 1359.44 182.074 Q1357.8 184.041 1354.76 184.805 Z" fill="#000000" fill-rule="evenodd" fill-opacity="1" /><path clip-path="url(#clip410)" d="M 0 0 M1543.63 12.096 L1551.81 12.096 L1551.81 72.576 L1543.63 72.576 L1543.63 12.096 Z" fill="#000000" fill-rule="evenodd" fill-opacity="1" /><path clip-path="url(#clip410)" d="M 0 0 M1594.96 35.9153 Q1597.75 30.8922 1601.64 28.5022 Q1605.53 26.1121 1610.8 26.1121 Q1617.88 26.1121 1621.73 31.0947 Q1625.58 36.0368 1625.58 45.1919 L1625.58 72.576 L1618.09 72.576 L1618.09 45.4349 Q1618.09 38.913 1615.78 35.7533 Q1613.47 32.5936 1608.73 32.5936 Q1602.94 32.5936 1599.57 36.4419 Q1596.21 40.2903 1596.21 46.9338 L1596.21 72.576 L1588.72 72.576 L1588.72 45.4349 Q1588.72 38.8725 1586.41 35.7533 Q1584.1 32.5936 1579.28 32.5936 Q1573.57 32.5936 1570.21 36.4824 Q1566.84 40.3308 1566.84 46.9338 L1566.84 72.576 L1559.35 72.576 L1559.35 27.2059 L1566.84 27.2059 L1566.84 34.2544 Q1569.4 30.082 1572.96 28.0971 Q1576.52 26.1121 1581.43 26.1121 Q1586.37 26.1121 1589.81 28.6237 Q1593.3 31.1352 1594.96 35.9153 Z" fill="#000000" fill-rule="evenodd" fill-opacity="1" /><path clip-path="url(#clip410)" d="M 0 0 M1654.02 49.7694 Q1644.99 49.7694 1641.5 51.8354 Q1638.02 53.9013 1638.02 58.8839 Q1638.02 62.8538 1640.61 65.2034 Q1643.24 67.5124 1647.74 67.5124 Q1653.94 67.5124 1657.66 63.1374 Q1661.43 58.7219 1661.43 51.4303 L1661.43 49.7694 L1654.02 49.7694 M1668.89 46.6907 L1668.89 72.576 L1661.43 72.576 L1661.43 65.6895 Q1658.88 69.8214 1655.07 71.8063 Q1651.26 73.7508 1645.75 73.7508 Q1638.79 73.7508 1634.66 69.8619 Q1630.56 65.9325 1630.56 59.3701 Q1630.56 51.7138 1635.67 47.825 Q1640.81 43.9361 1650.98 43.9361 L1661.43 43.9361 L1661.43 43.2069 Q1661.43 38.0623 1658.03 35.2672 Q1654.67 32.4315 1648.55 32.4315 Q1644.66 32.4315 1640.97 33.3632 Q1637.29 34.295 1633.89 36.1584 L1633.89 29.2718 Q1637.98 27.692 1641.83 26.9223 Q1645.67 26.1121 1649.32 26.1121 Q1659.16 26.1121 1664.02 31.2163 Q1668.89 36.3204 1668.89 46.6907 Z" fill="#000000" fill-rule="evenodd" fill-opacity="1" /><path clip-path="url(#clip410)" d="M 0 0 M1706.56 49.3643 Q1706.56 41.2625 1703.2 36.8065 Q1699.87 32.3505 1693.84 32.3505 Q1687.84 32.3505 1684.48 36.8065 Q1681.16 41.2625 1681.16 49.3643 Q1681.16 57.4256 1684.48 61.8816 Q1687.84 66.3376 1693.84 66.3376 Q1699.87 66.3376 1703.2 61.8816 Q1706.56 57.4256 1706.56 49.3643 M1714.01 66.9452 Q1714.01 78.5308 1708.87 84.1616 Q1703.72 89.8329 1693.11 89.8329 Q1689.18 89.8329 1685.7 89.2252 Q1682.21 88.6581 1678.93 87.4428 L1678.93 80.1917 Q1682.21 81.9741 1685.41 82.8248 Q1688.61 83.6755 1691.94 83.6755 Q1699.27 83.6755 1702.91 79.8271 Q1706.56 76.0193 1706.56 68.282 L1706.56 64.5957 Q1704.25 68.6061 1700.64 70.5911 Q1697.04 72.576 1692.02 72.576 Q1683.67 72.576 1678.57 66.2161 Q1673.46 59.8562 1673.46 49.3643 Q1673.46 38.832 1678.57 32.472 Q1683.67 26.1121 1692.02 26.1121 Q1697.04 26.1121 1700.64 28.0971 Q1704.25 30.082 1706.56 34.0924 L1706.56 27.2059 L1714.01 27.2059 L1714.01 66.9452 Z" fill="#000000" fill-rule="evenodd" fill-opacity="1" /><path clip-path="url(#clip410)" d="M 0 0 M1760.64 48.0275 L1760.64 51.6733 L1726.37 51.6733 Q1726.85 59.3701 1730.99 63.421 Q1735.16 67.4314 1742.57 67.4314 Q1746.87 67.4314 1750.88 66.3781 Q1754.93 65.3249 1758.9 63.2184 L1758.9 70.267 Q1754.89 71.9684 1750.67 72.8596 Q1746.46 73.7508 1742.13 73.7508 Q1731.27 73.7508 1724.91 67.4314 Q1718.59 61.1119 1718.59 50.3365 Q1718.59 39.1965 1724.59 32.6746 Q1730.62 26.1121 1740.83 26.1121 Q1749.98 26.1121 1755.29 32.0264 Q1760.64 37.9003 1760.64 48.0275 M1753.18 45.84 Q1753.1 39.7232 1749.74 36.0774 Q1746.42 32.4315 1740.91 32.4315 Q1734.67 32.4315 1730.9 35.9558 Q1727.18 39.4801 1726.61 45.8805 L1753.18 45.84 Z" fill="#000000" fill-rule="evenodd" fill-opacity="1" /><path clip-path="url(#clip410)" d="M 0 0 M1794.06 54.671 L1794.06 27.2059 L1801.51 27.2059 L1801.51 54.3874 Q1801.51 60.8284 1804.02 64.0691 Q1806.54 67.2693 1811.56 67.2693 Q1817.59 67.2693 1821.08 63.421 Q1824.6 59.5726 1824.6 52.9291 L1824.6 27.2059 L1832.06 27.2059 L1832.06 72.576 L1824.6 72.576 L1824.6 65.6084 Q1821.89 69.7404 1818.28 71.7658 Q1814.72 73.7508 1809.98 73.7508 Q1802.16 73.7508 1798.11 68.8897 Q1794.06 64.0286 1794.06 54.671 M1812.81 26.1121 L1812.81 26.1121 Z" fill="#000000" fill-rule="evenodd" fill-opacity="1" /><path clip-path="url(#clip410)" d="M 0 0 M1877.59 45.1919 L1877.59 72.576 L1870.13 72.576 L1870.13 45.4349 Q1870.13 38.994 1867.62 35.7938 Q1865.11 32.5936 1860.09 32.5936 Q1854.05 32.5936 1850.57 36.4419 Q1847.08 40.2903 1847.08 46.9338 L1847.08 72.576 L1839.59 72.576 L1839.59 27.2059 L1847.08 27.2059 L1847.08 34.2544 Q1849.76 30.163 1853.36 28.1376 Q1857.01 26.1121 1861.75 26.1121 Q1869.57 26.1121 1873.58 30.9732 Q1877.59 35.7938 1877.59 45.1919 Z" fill="#000000" fill-rule="evenodd" fill-opacity="1" /><path clip-path="url(#clip410)" d="M 0 0 M1915.26 34.0924 L1915.26 9.54393 L1922.72 9.54393 L1922.72 72.576 L1915.26 72.576 L1915.26 65.7705 Q1912.91 69.8214 1909.31 71.8063 Q1905.74 73.7508 1900.72 73.7508 Q1892.5 73.7508 1887.31 67.1883 Q1882.17 60.6258 1882.17 49.9314 Q1882.17 39.2371 1887.31 32.6746 Q1892.5 26.1121 1900.72 26.1121 Q1905.74 26.1121 1909.31 28.0971 Q1912.91 30.0415 1915.26 34.0924 M1889.86 49.9314 Q1889.86 58.1548 1893.22 62.8538 Q1896.63 67.5124 1902.54 67.5124 Q1908.46 67.5124 1911.86 62.8538 Q1915.26 58.1548 1915.26 49.9314 Q1915.26 41.7081 1911.86 37.0496 Q1908.46 32.3505 1902.54 32.3505 Q1896.63 32.3505 1893.22 37.0496 Q1889.86 41.7081 1889.86 49.9314 Z" fill="#000000" fill-rule="evenodd" fill-opacity="1" /><path clip-path="url(#clip410)" d="M 0 0 M1969.34 48.0275 L1969.34 51.6733 L1935.07 51.6733 Q1935.56 59.3701 1939.69 63.421 Q1943.86 67.4314 1951.27 67.4314 Q1955.57 67.4314 1959.58 66.3781 Q1963.63 65.3249 1967.6 63.2184 L1967.6 70.267 Q1963.59 71.9684 1959.38 72.8596 Q1955.16 73.7508 1950.83 73.7508 Q1939.97 73.7508 1933.61 67.4314 Q1927.29 61.1119 1927.29 50.3365 Q1927.29 39.1965 1933.29 32.6746 Q1939.32 26.1121 1949.53 26.1121 Q1958.69 26.1121 1963.99 32.0264 Q1969.34 37.9003 1969.34 48.0275 M1961.89 45.84 Q1961.81 39.7232 1958.44 36.0774 Q1955.12 32.4315 1949.61 32.4315 Q1943.37 32.4315 1939.61 35.9558 Q1935.88 39.4801 1935.31 45.8805 L1961.89 45.84 Z" fill="#000000" fill-rule="evenodd" fill-opacity="1" /><path clip-path="url(#clip410)" d="M 0 0 M2003.45 34.1734 Q2002.19 33.4443 2000.7 33.1202 Q1999.24 32.7556 1997.45 32.7556 Q1991.13 32.7556 1987.73 36.8875 Q1984.37 40.9789 1984.37 48.6757 L1984.37 72.576 L1976.88 72.576 L1976.88 27.2059 L1984.37 27.2059 L1984.37 34.2544 Q1986.72 30.1225 1990.49 28.1376 Q1994.25 26.1121 1999.64 26.1121 Q2000.41 26.1121 2001.34 26.2337 Q2002.27 26.3147 2003.41 26.5172 L2003.45 34.1734 Z" fill="#000000" fill-rule="evenodd" fill-opacity="1" /><path clip-path="url(#clip410)" d="M 0 0 M2072.96 35.9153 Q2075.76 30.8922 2079.65 28.5022 Q2083.54 26.1121 2088.8 26.1121 Q2095.89 26.1121 2099.74 31.0947 Q2103.59 36.0368 2103.59 45.1919 L2103.59 72.576 L2096.09 72.576 L2096.09 45.4349 Q2096.09 38.913 2093.78 35.7533 Q2091.48 32.5936 2086.74 32.5936 Q2080.94 32.5936 2077.58 36.4419 Q2074.22 40.2903 2074.22 46.9338 L2074.22 72.576 L2066.72 72.576 L2066.72 45.4349 Q2066.72 38.8725 2064.42 35.7533 Q2062.11 32.5936 2057.29 32.5936 Q2051.57 32.5936 2048.21 36.4824 Q2044.85 40.3308 2044.85 46.9338 L2044.85 72.576 L2037.36 72.576 L2037.36 27.2059 L2044.85 27.2059 L2044.85 34.2544 Q2047.4 30.082 2050.97 28.0971 Q2054.53 26.1121 2059.43 26.1121 Q2064.38 26.1121 2067.82 28.6237 Q2071.3 31.1352 2072.96 35.9153 Z" fill="#000000" fill-rule="evenodd" fill-opacity="1" /><path clip-path="url(#clip410)" d="M 0 0 M2132.03 49.7694 Q2122.99 49.7694 2119.51 51.8354 Q2116.02 53.9013 2116.02 58.8839 Q2116.02 62.8538 2118.62 65.2034 Q2121.25 67.5124 2125.75 67.5124 Q2131.94 67.5124 2135.67 63.1374 Q2139.44 58.7219 2139.44 51.4303 L2139.44 49.7694 L2132.03 49.7694 M2146.89 46.6907 L2146.89 72.576 L2139.44 72.576 L2139.44 65.6895 Q2136.89 69.8214 2133.08 71.8063 Q2129.27 73.7508 2123.76 73.7508 Q2116.79 73.7508 2112.66 69.8619 Q2108.57 65.9325 2108.57 59.3701 Q2108.57 51.7138 2113.67 47.825 Q2118.82 43.9361 2128.99 43.9361 L2139.44 43.9361 L2139.44 43.2069 Q2139.44 38.0623 2136.04 35.2672 Q2132.67 32.4315 2126.56 32.4315 Q2122.67 32.4315 2118.98 33.3632 Q2115.3 34.295 2111.89 36.1584 L2111.89 29.2718 Q2115.98 27.692 2119.83 26.9223 Q2123.68 26.1121 2127.33 26.1121 Q2137.17 26.1121 2142.03 31.2163 Q2146.89 36.3204 2146.89 46.6907 Z" fill="#000000" fill-rule="evenodd" fill-opacity="1" /><path clip-path="url(#clip410)" d="M 0 0 M2161.92 65.7705 L2161.92 89.8329 L2154.43 89.8329 L2154.43 27.2059 L2161.92 27.2059 L2161.92 34.0924 Q2164.27 30.0415 2167.84 28.0971 Q2171.44 26.1121 2176.42 26.1121 Q2184.69 26.1121 2189.83 32.6746 Q2195.02 39.2371 2195.02 49.9314 Q2195.02 60.6258 2189.83 67.1883 Q2184.69 73.7508 2176.42 73.7508 Q2171.44 73.7508 2167.84 71.8063 Q2164.27 69.8214 2161.92 65.7705 M2187.28 49.9314 Q2187.28 41.7081 2183.88 37.0496 Q2180.51 32.3505 2174.6 32.3505 Q2168.69 32.3505 2165.28 37.0496 Q2161.92 41.7081 2161.92 49.9314 Q2161.92 58.1548 2165.28 62.8538 Q2168.69 67.5124 2174.6 67.5124 Q2180.51 67.5124 2183.88 62.8538 Q2187.28 58.1548 2187.28 49.9314 Z" fill="#000000" fill-rule="evenodd" fill-opacity="1" /><path clip-path="url(#clip410)" d="M 0 0 M1871.31 1515.82 Q1871.31 1517.63 1870.18 1518.66 Q1869.05 1519.65 1867.77 1519.65 Q1866.54 1519.65 1865.9 1518.95 Q1865.25 1518.24 1865.25 1517.34 Q1865.25 1516.11 1866.16 1515.05 Q1867.06 1513.99 1868.41 1513.76 Q1867.09 1512.92 1865.12 1512.92 Q1863.84 1512.92 1862.71 1513.6 Q1861.61 1514.28 1860.94 1515.15 Q1860.29 1516.02 1859.71 1517.27 Q1859.17 1518.5 1858.94 1519.24 Q1858.75 1519.94 1858.59 1520.72 L1856.33 1529.74 Q1855.24 1534.02 1855.24 1535.53 Q1855.24 1537.4 1856.14 1538.66 Q1857.04 1539.88 1858.84 1539.88 Q1859.55 1539.88 1860.36 1539.69 Q1861.16 1539.46 1862.19 1538.88 Q1863.26 1538.27 1864.19 1537.37 Q1865.16 1536.43 1866.09 1534.86 Q1867.03 1533.28 1867.64 1531.25 Q1867.83 1530.54 1868.47 1530.54 Q1869.28 1530.54 1869.28 1531.18 Q1869.28 1531.73 1868.83 1532.89 Q1868.41 1534.02 1867.48 1535.5 Q1866.57 1536.95 1865.38 1538.27 Q1864.19 1539.56 1862.42 1540.46 Q1860.65 1541.36 1858.72 1541.36 Q1855.95 1541.36 1854.11 1539.88 Q1852.27 1538.4 1851.6 1536.34 Q1851.44 1536.63 1851.21 1537.01 Q1850.99 1537.4 1850.31 1538.27 Q1849.67 1539.11 1848.93 1539.75 Q1848.18 1540.36 1847.03 1540.85 Q1845.9 1541.36 1844.67 1541.36 Q1843.13 1541.36 1841.74 1540.91 Q1840.39 1540.46 1839.42 1539.43 Q1838.46 1538.4 1838.46 1536.98 Q1838.46 1535.4 1839.52 1534.31 Q1840.62 1533.18 1842.1 1533.18 Q1843.03 1533.18 1843.77 1533.73 Q1844.55 1534.28 1844.55 1535.47 Q1844.55 1536.79 1843.64 1537.79 Q1842.74 1538.79 1841.45 1539.04 Q1842.77 1539.88 1844.74 1539.88 Q1846.86 1539.88 1848.54 1538.01 Q1850.21 1536.14 1851.02 1533.02 Q1853.02 1525.52 1853.79 1522.17 Q1854.56 1518.79 1854.56 1517.34 Q1854.56 1515.98 1854.21 1515.05 Q1853.85 1514.12 1853.24 1513.7 Q1852.66 1513.25 1852.11 1513.08 Q1851.6 1512.92 1851.02 1512.92 Q1850.05 1512.92 1848.96 1513.31 Q1847.89 1513.7 1846.61 1514.6 Q1845.35 1515.47 1844.16 1517.27 Q1842.97 1519.08 1842.16 1521.55 Q1842 1522.3 1841.29 1522.3 Q1840.52 1522.26 1840.52 1521.62 Q1840.52 1521.07 1840.94 1519.94 Q1841.39 1518.79 1842.29 1517.34 Q1843.22 1515.89 1844.42 1514.6 Q1845.64 1513.28 1847.41 1512.38 Q1849.22 1511.47 1851.15 1511.47 Q1852.02 1511.47 1852.85 1511.67 Q1853.72 1511.83 1854.75 1512.31 Q1855.82 1512.79 1856.75 1513.86 Q1857.69 1514.92 1858.27 1516.47 Q1858.65 1515.73 1859.17 1515.02 Q1859.71 1514.31 1860.55 1513.44 Q1861.42 1512.54 1862.61 1512.02 Q1863.84 1511.47 1865.19 1511.47 Q1866.51 1511.47 1867.8 1511.83 Q1869.09 1512.15 1870.18 1513.21 Q1871.31 1514.24 1871.31 1515.82 Z" fill="#000000" fill-rule="evenodd" fill-opacity="1" /><path clip-path="url(#clip410)" d="M 0 0 M1878.05 1533.19 L1878.05 1531.74 Q1883.59 1531.74 1886.45 1528.79 Q1887.24 1528.79 1887.38 1528.97 Q1887.51 1529.15 1887.51 1529.98 L1887.51 1555.89 Q1887.51 1557.26 1888.19 1557.69 Q1888.87 1558.12 1891.82 1558.12 L1893.29 1558.12 L1893.29 1559.54 Q1891.66 1559.4 1885.8 1559.4 Q1879.94 1559.4 1878.34 1559.54 L1878.34 1558.12 L1879.8 1558.12 Q1882.71 1558.12 1883.41 1557.71 Q1884.11 1557.29 1884.11 1555.89 L1884.11 1531.97 Q1881.7 1533.19 1878.05 1533.19 Z" fill="#000000" fill-rule="evenodd" fill-opacity="1" /><path clip-path="url(#clip410)" d="M 0 0 M1263.97 783.688 Q1265.77 783.688 1266.8 784.815 Q1267.8 785.942 1267.8 787.23 Q1267.8 788.454 1267.09 789.098 Q1266.39 789.742 1265.48 789.742 Q1264.26 789.742 1263.2 788.841 Q1262.13 787.939 1261.91 786.586 Q1261.07 787.907 1261.07 789.871 Q1261.07 791.159 1261.75 792.287 Q1262.42 793.382 1263.29 794.058 Q1264.16 794.702 1265.42 795.282 Q1266.64 795.829 1267.38 796.055 Q1268.09 796.248 1268.87 796.409 L1277.88 798.663 Q1282.17 799.758 1283.68 799.758 Q1285.55 799.758 1286.8 798.857 Q1288.03 797.955 1288.03 796.151 Q1288.03 795.443 1287.84 794.638 Q1287.61 793.833 1287.03 792.802 Q1286.42 791.739 1285.52 790.805 Q1284.58 789.839 1283 788.905 Q1281.43 787.971 1279.4 787.359 Q1278.69 787.166 1278.69 786.522 Q1278.69 785.717 1279.33 785.717 Q1279.88 785.717 1281.04 786.168 Q1282.17 786.586 1283.65 787.52 Q1285.1 788.422 1286.42 789.614 Q1287.71 790.805 1288.61 792.577 Q1289.51 794.348 1289.51 796.28 Q1289.51 799.05 1288.03 800.886 Q1286.55 802.721 1284.49 803.398 Q1284.78 803.559 1285.16 803.784 Q1285.55 804.01 1286.42 804.686 Q1287.26 805.33 1287.9 806.071 Q1288.51 806.812 1288.99 807.971 Q1289.51 809.098 1289.51 810.322 Q1289.51 811.868 1289.06 813.253 Q1288.61 814.605 1287.58 815.572 Q1286.55 816.538 1285.13 816.538 Q1283.55 816.538 1282.46 815.475 Q1281.33 814.38 1281.33 812.898 Q1281.33 811.964 1281.88 811.224 Q1282.42 810.451 1283.62 810.451 Q1284.94 810.451 1285.93 811.353 Q1286.93 812.254 1287.19 813.543 Q1288.03 812.222 1288.03 810.258 Q1288.03 808.132 1286.16 806.457 Q1284.29 804.783 1281.17 803.977 Q1273.66 801.981 1270.32 801.208 Q1266.93 800.435 1265.48 800.435 Q1264.13 800.435 1263.2 800.789 Q1262.26 801.143 1261.84 801.755 Q1261.39 802.335 1261.23 802.882 Q1261.07 803.398 1261.07 803.977 Q1261.07 804.944 1261.46 806.039 Q1261.84 807.101 1262.75 808.39 Q1263.62 809.646 1265.42 810.837 Q1267.22 812.029 1269.7 812.834 Q1270.44 812.995 1270.44 813.704 Q1270.41 814.477 1269.77 814.477 Q1269.22 814.477 1268.09 814.058 Q1266.93 813.607 1265.48 812.705 Q1264.03 811.771 1262.75 810.58 Q1261.43 809.356 1260.52 807.584 Q1259.62 805.781 1259.62 803.849 Q1259.62 802.979 1259.82 802.142 Q1259.98 801.272 1260.46 800.242 Q1260.94 799.179 1262.01 798.245 Q1263.07 797.311 1264.61 796.731 Q1263.87 796.345 1263.17 795.829 Q1262.46 795.282 1261.59 794.444 Q1260.69 793.575 1260.17 792.383 Q1259.62 791.159 1259.62 789.807 Q1259.62 788.486 1259.98 787.198 Q1260.3 785.91 1261.36 784.815 Q1262.39 783.688 1263.97 783.688 Z" fill="#000000" fill-rule="evenodd" fill-opacity="1" /><path clip-path="url(#clip410)" d="M 0 0 M1307.69 776.951 Q1306.85 776.951 1306.61 776.883 Q1306.36 776.793 1305.97 776.432 L1296.1 767.572 Q1290.64 762.725 1285.89 762.725 Q1282.8 762.725 1280.59 764.349 Q1278.38 765.949 1278.38 768.903 Q1278.38 770.932 1279.62 772.645 Q1280.86 774.358 1283.07 775.147 Q1283.02 775.012 1283.02 774.539 Q1283.02 773.389 1283.75 772.758 Q1284.47 772.104 1285.44 772.104 Q1286.68 772.104 1287.29 772.915 Q1287.87 773.704 1287.87 774.494 Q1287.87 774.809 1287.8 775.237 Q1287.74 775.643 1287.11 776.297 Q1286.45 776.951 1285.3 776.951 Q1282.08 776.951 1279.51 774.516 Q1276.94 772.059 1276.94 768.316 Q1276.94 764.078 1279.46 761.305 Q1281.97 758.51 1285.89 758.51 Q1287.26 758.51 1288.53 758.938 Q1289.77 759.344 1290.73 759.907 Q1291.7 760.449 1293.26 761.936 Q1294.82 763.424 1295.92 764.619 Q1297.02 765.814 1299.37 768.497 L1304.13 773.389 L1304.13 765.07 Q1304.13 761.012 1303.77 760.697 Q1303.11 760.246 1299.66 759.682 L1299.66 758.51 L1307.69 759.817 L1307.69 776.951 Z" fill="#000000" fill-rule="evenodd" fill-opacity="1" /><polyline clip-path="url(#clip413)" style="stroke:#009af9; stroke-width:4; stroke-opacity:1; fill:none" points="
  2267.94,584.777 2267.92,586.875 2267.85,588.995 2267.75,591.136 2267.59,593.298 2267.4,595.481 2267.16,597.685 2266.87,599.909 2266.54,602.154 2266.17,604.418 
  2265.76,606.702 2265.3,609.006 2264.8,611.329 2264.25,613.67 2263.67,616.031 2263.03,618.41 2262.36,620.807 2261.64,623.222 2260.88,625.654 2260.08,628.104 
  2259.23,630.571 2258.34,633.055 2257.41,635.555 2256.44,638.072 2255.42,640.605 2254.36,643.153 2253.26,645.717 2252.11,648.296 2250.93,650.89 2249.7,653.499 
  2248.43,656.122 2247.12,658.759 2245.77,661.409 2244.38,664.074 2242.94,666.751 2241.47,669.441 2239.95,672.144 2238.39,674.859 2236.8,677.586 2235.16,680.324 
  2233.48,683.075 2231.76,685.836 2230,688.608 2228.21,691.39 2226.37,694.182 2224.5,696.985 2222.58,699.797 2220.63,702.618 2218.64,705.448 2216.61,708.287 
  2214.54,711.134 2212.43,713.989 2210.29,716.852 2208.11,719.722 2205.89,722.599 2203.63,725.483 2201.34,728.373 2199.01,731.27 2196.65,734.172 2194.25,737.08 
  2191.81,739.993 2189.34,742.91 2186.84,745.832 2184.29,748.759 2181.72,751.689 2179.11,754.623 2176.46,757.56 2173.79,760.5 2171.08,763.443 2168.33,766.388 
  2165.55,769.334 2162.75,772.283 2159.9,775.232 2157.03,778.183 2154.13,781.134 2151.19,784.086 2148.22,787.038 2145.22,789.989 2142.2,792.94 2139.14,795.889 
  2136.05,798.838 2132.93,801.784 2129.79,804.729 2126.62,807.672 2123.41,810.612 2120.18,813.549 2116.92,816.483 2113.64,819.413 2110.33,822.339 2106.99,825.262 
  2103.63,828.179 2100.24,831.092 2096.82,834 2093.38,836.902 2089.92,839.799 2086.43,842.689 2082.91,845.573 2079.38,848.45 2075.82,851.32 2072.24,854.183 
  2068.63,857.038 2065.01,859.885 2061.36,862.724 2057.69,865.554 2054,868.375 2050.29,871.187 2046.56,873.99 2042.82,876.782 2039.05,879.564 2035.26,882.336 
  2031.46,885.097 2027.63,887.848 2023.79,890.586 2019.94,893.313 2016.07,896.028 2012.18,898.731 2008.27,901.421 2004.35,904.098 2000.42,906.763 1996.47,909.413 
  1992.5,912.05 1988.53,914.673 1984.54,917.282 1980.54,919.876 1976.52,922.455 1972.49,925.019 1968.46,927.567 1964.41,930.1 1960.35,932.617 1956.28,935.117 
  1952.2,937.601 1948.11,940.068 1944.02,942.518 1939.91,944.95 1935.8,947.365 1931.68,949.762 1927.56,952.141 1923.42,954.501 1919.28,956.843 1915.14,959.166 
  1910.99,961.47 1906.84,963.754 1902.68,966.018 1898.52,968.263 1894.35,970.487 1890.19,972.691 1886.02,974.874 1881.85,977.036 1877.67,979.177 1873.5,981.297 
  1869.32,983.395 1865.15,985.471 1860.98,987.525 1856.8,989.557 1852.63,991.566 1848.46,993.553 1844.29,995.516 1840.13,997.457 1835.97,999.374 1831.81,1001.27 
  1827.66,1003.14 1823.51,1004.98 1819.36,1006.8 1815.23,1008.6 1811.09,1010.37 1806.97,1012.12 1802.85,1013.84 1798.74,1015.54 1794.63,1017.21 1790.53,1018.86 
  1786.45,1020.48 1782.37,1022.07 1778.3,1023.64 1774.24,1025.18 1770.19,1026.7 1766.15,1028.19 1762.13,1029.65 1758.11,1031.09 1754.11,1032.49 1750.12,1033.88 
  1746.14,1035.23 1742.18,1036.56 1738.23,1037.85 1734.3,1039.13 1730.38,1040.37 1726.47,1041.58 1722.58,1042.77 1718.71,1043.93 1714.85,1045.06 1711.01,1046.16 
  1707.19,1047.23 1703.39,1048.27 1699.6,1049.29 1695.83,1050.27 1692.08,1051.23 1688.36,1052.16 1684.65,1053.05 1680.96,1053.92 1677.29,1054.76 1673.64,1055.57 
  1670.02,1056.35 1666.41,1057.1 1662.83,1057.82 1659.27,1058.5 1655.73,1059.16 1652.22,1059.79 1648.73,1060.39 1645.27,1060.96 1641.83,1061.5 1638.41,1062 
  1635.02,1062.48 1631.66,1062.93 1628.32,1063.34 1625.01,1063.73 1621.72,1064.08 1618.47,1064.41 1615.24,1064.7 1612.03,1064.96 1608.86,1065.19 1605.71,1065.4 
  1602.6,1065.56 1599.51,1065.7 1596.45,1065.81 1593.42,1065.89 1590.43,1065.94 1587.46,1065.95 1584.52,1065.94 1581.62,1065.89 1578.74,1065.81 1575.9,1065.7 
  1573.09,1065.56 1570.32,1065.4 1567.57,1065.19 1564.86,1064.96 1562.18,1064.7 1559.54,1064.41 1556.93,1064.08 1554.35,1063.73 1551.81,1063.34 1549.31,1062.93 
  1546.84,1062.48 1544.4,1062 1542,1061.5 1539.64,1060.96 1537.31,1060.39 1535.02,1059.79 1532.76,1059.16 1530.54,1058.5 1528.36,1057.82 1526.22,1057.1 
  1524.11,1056.35 1522.04,1055.57 1520.01,1054.76 1518.02,1053.92 1516.07,1053.05 1514.15,1052.16 1512.28,1051.23 1510.44,1050.27 1508.64,1049.29 1506.89,1048.27 
  1505.17,1047.23 1503.49,1046.16 1501.85,1045.06 1500.26,1043.93 1498.7,1042.77 1497.18,1041.58 1495.71,1040.37 1494.27,1039.13 1492.88,1037.85 1491.53,1036.56 
  1490.22,1035.23 1488.95,1033.88 1487.72,1032.49 1486.53,1031.09 1485.39,1029.65 1484.29,1028.19 1483.23,1026.7 1482.21,1025.18 1481.24,1023.64 1480.31,1022.07 
  1479.42,1020.48 1478.57,1018.86 1477.77,1017.21 1477.01,1015.54 1476.29,1013.84 1475.61,1012.12 1474.98,1010.37 1474.39,1008.6 1473.85,1006.8 1473.35,1004.98 
  1472.89,1003.14 1472.48,1001.27 1472.1,999.374 1471.78,997.457 1471.49,995.516 1471.25,993.553 1471.06,991.566 1470.9,989.557 1470.79,987.525 1470.73,985.471 
  1470.71,983.395 1470.73,981.297 1470.79,979.177 1470.9,977.036 1471.06,974.874 1471.25,972.691 1471.49,970.487 1471.78,968.263 1472.1,966.018 1472.48,963.754 
  1472.89,961.47 1473.35,959.166 1473.85,956.843 1474.39,954.501 1474.98,952.141 1475.61,949.762 1476.29,947.365 1477.01,944.95 1477.77,942.518 1478.57,940.068 
  1479.42,937.601 1480.31,935.117 1481.24,932.617 1482.21,930.1 1483.23,927.567 1484.29,925.019 1485.39,922.455 1486.53,919.876 1487.72,917.282 1488.95,914.673 
  1490.22,912.05 1491.53,909.413 1492.88,906.763 1494.27,904.098 1495.71,901.421 1497.18,898.731 1498.7,896.028 1500.26,893.313 1501.85,890.586 1503.49,887.848 
  1505.17,885.097 1506.89,882.336 1508.64,879.564 1510.44,876.782 1512.28,873.99 1514.15,871.187 1516.07,868.375 1518.02,865.554 1520.01,862.724 1522.04,859.885 
  1524.11,857.038 1526.22,854.183 1528.36,851.32 1530.54,848.45 1532.76,845.573 1535.02,842.689 1537.31,839.799 1539.64,836.902 1542,834 1544.4,831.092 
  1546.84,828.179 1549.31,825.262 1551.81,822.339 1554.35,819.413 1556.93,816.483 1559.54,813.549 1562.18,810.612 1564.86,807.672 1567.57,804.729 1570.32,801.784 
  1573.09,798.838 1575.9,795.889 1578.74,792.94 1581.62,789.989 1584.52,787.038 1587.46,784.086 1590.43,781.134 1593.42,778.183 1596.45,775.232 1599.51,772.283 
  1602.6,769.334 1605.71,766.388 1608.86,763.443 1612.03,760.5 1615.24,757.56 1618.47,754.623 1621.72,751.689 1625.01,748.759 1628.32,745.832 1631.66,742.91 
  1635.02,739.993 1638.41,737.08 1641.83,734.172 1645.27,731.27 1648.73,728.373 1652.22,725.483 1655.73,722.599 1659.27,719.722 1662.83,716.852 1666.41,713.989 
  1670.02,711.134 1673.64,708.287 1677.29,705.448 1680.96,702.618 1684.65,699.797 1688.36,696.985 1692.08,694.182 1695.83,691.39 1699.6,688.608 1703.39,685.836 
  1707.19,683.075 1711.01,680.324 1714.85,677.586 1718.71,674.859 1722.58,672.144 1726.47,669.441 1730.38,666.751 1734.3,664.074 1738.23,661.409 1742.18,658.759 
  1746.14,656.122 1750.12,653.499 1754.11,650.89 1758.11,648.296 1762.13,645.717 1766.15,643.153 1770.19,640.605 1774.24,638.072 1778.3,635.555 1782.37,633.055 
  1786.45,630.571 1790.53,628.104 1794.63,625.654 1798.74,623.222 1802.85,620.807 1806.97,618.41 1811.09,616.031 1815.23,613.67 1819.36,611.329 1823.51,609.006 
  1827.66,606.702 1831.81,604.418 1835.97,602.154 1840.13,599.909 1844.29,597.685 1848.46,595.481 1852.63,593.298 1856.8,591.136 1860.98,588.995 1865.15,586.875 
  1869.32,584.777 1873.5,582.701 1877.67,580.647 1881.85,578.615 1886.02,576.606 1890.19,574.619 1894.35,572.656 1898.52,570.715 1902.68,568.798 1906.84,566.905 
  1910.99,565.036 1915.14,563.19 1919.28,561.369 1923.42,559.572 1927.56,557.8 1931.68,556.052 1935.8,554.33 1939.91,552.633 1944.02,550.961 1948.11,549.314 
  1952.2,547.694 1956.28,546.099 1960.35,544.531 1964.41,542.989 1968.46,541.473 1972.49,539.984 1976.52,538.521 1980.54,537.086 1984.54,535.677 1988.53,534.296 
  1992.5,532.942 1996.47,531.616 2000.42,530.317 2004.35,529.047 2008.27,527.804 2012.18,526.589 2016.07,525.403 2019.94,524.245 2023.79,523.115 2027.63,522.014 
  2031.46,520.942 2035.26,519.899 2039.05,518.884 2042.82,517.899 2046.56,516.943 2050.29,516.016 2054,515.119 2057.69,514.251 2061.36,513.413 2065.01,512.604 
  2068.63,511.825 2072.24,511.076 2075.82,510.357 2079.38,509.668 2082.91,509.009 2086.43,508.38 2089.92,507.782 2093.38,507.213 2096.82,506.675 2100.24,506.168 
  2103.63,505.691 2106.99,505.244 2110.33,504.829 2113.64,504.443 2116.92,504.089 2120.18,503.765 2123.41,503.472 2126.62,503.209 2129.79,502.978 2132.93,502.777 
  2136.05,502.607 2139.14,502.468 2142.2,502.36 2145.22,502.283 2148.22,502.236 2151.19,502.221 2154.13,502.236 2157.03,502.283 2159.9,502.36 2162.75,502.468 
  2165.55,502.607 2168.33,502.777 2171.08,502.978 2173.79,503.209 2176.46,503.472 2179.11,503.765 2181.72,504.089 2184.29,504.443 2186.84,504.829 2189.34,505.244 
  2191.81,505.691 2194.25,506.168 2196.65,506.675 2199.01,507.213 2201.34,507.782 2203.63,508.38 2205.89,509.009 2208.11,509.668 2210.29,510.357 2212.43,511.076 
  2214.54,511.825 2216.61,512.604 2218.64,513.413 2220.63,514.251 2222.58,515.119 2224.5,516.016 2226.37,516.943 2228.21,517.899 2230,518.884 2231.76,519.899 
  2233.48,520.942 2235.16,522.014 2236.8,523.115 2238.39,524.245 2239.95,525.403 2241.47,526.589 2242.94,527.804 2244.38,529.047 2245.77,530.317 2247.12,531.616 
  2248.43,532.942 2249.7,534.296 2250.93,535.677 2252.11,537.086 2253.26,538.521 2254.36,539.984 2255.42,541.473 2256.44,542.989 2257.41,544.531 2258.34,546.099 
  2259.23,547.694 2260.08,549.314 2260.88,550.961 2261.64,552.633 2262.36,554.33 2263.03,556.052 2263.67,557.8 2264.25,559.572 2264.8,561.369 2265.3,563.19 
  2265.76,565.036 2266.17,566.905 2266.54,568.798 2266.87,570.715 2267.16,572.656 2267.4,574.619 2267.59,576.606 2267.75,578.615 2267.85,580.647 2267.92,582.701 
  2267.94,584.777 
  "/>
<polyline clip-path="url(#clip413)" style="stroke:#e26f46; stroke-width:4; stroke-opacity:1; fill:none" stroke-dasharray="16, 10" points="
  2325.39,784.086 2325.37,779.31 2325.29,774.535 2325.17,769.761 2324.99,764.988 2324.77,760.217 2324.49,755.449 2324.17,750.684 2323.79,745.923 2323.37,741.166 
  2322.89,736.414 2322.37,731.667 2321.8,726.926 2321.17,722.191 2320.5,717.462 2319.78,712.741 2319.01,708.028 2318.18,703.323 2317.31,698.627 2316.39,693.941 
  2315.43,689.264 2314.41,684.598 2313.34,679.943 2312.23,675.299 2311.06,670.667 2309.85,666.047 2308.59,661.44 2307.28,656.847 2305.93,652.268 2304.52,647.703 
  2303.07,643.153 2301.57,638.619 2300.02,634.101 2298.43,629.599 2296.79,625.114 2295.1,620.646 2293.37,616.196 2291.58,611.765 2289.76,607.353 2287.88,602.96 
  2285.96,598.587 2284,594.234 2281.99,589.902 2279.93,585.591 2277.83,581.302 2275.68,577.036 2273.49,572.792 2271.26,568.571 2268.98,564.374 2266.66,560.201 
  2264.29,556.052 2261.88,551.929 2259.43,547.831 2256.93,543.759 2254.39,539.713 2251.81,535.694 2249.19,531.702 2246.53,527.738 2243.82,523.802 2241.08,519.895 
  2238.29,516.016 2235.46,512.167 2232.6,508.348 2229.69,504.559 2226.74,500.801 2223.76,497.073 2220.73,493.378 2217.67,489.714 2214.57,486.082 2211.43,482.483 
  2208.25,478.917 2205.03,475.385 2201.78,471.886 2198.5,468.422 2195.17,464.992 2191.81,461.598 2188.42,458.238 2184.99,454.915 2181.52,451.627 2178.03,448.376 
  2174.49,445.162 2170.93,441.985 2167.33,438.845 2163.7,435.743 2160.03,432.68 2156.34,429.655 2152.61,426.669 2148.85,423.722 2145.06,420.815 2141.24,417.947 
  2137.39,415.12 2133.52,412.333 2129.61,409.586 2125.67,406.881 2121.71,404.218 2117.72,401.596 2113.7,399.015 2109.65,396.477 2105.58,393.982 2101.48,391.529 
  2097.36,389.12 2093.21,386.754 2089.04,384.431 2084.84,382.152 2080.62,379.917 2076.37,377.727 2072.11,375.581 2067.82,373.48 2063.51,371.424 2059.18,369.413 
  2054.82,367.448 2050.45,365.528 2046.06,363.654 2041.65,361.826 2037.21,360.045 2032.76,358.31 2028.3,356.622 2023.81,354.981 2019.31,353.387 2014.79,351.84 
  2010.26,350.34 2005.71,348.888 2001.14,347.484 1996.56,346.127 1991.97,344.819 1987.36,343.559 1982.74,342.347 1978.11,341.183 1973.47,340.068 1968.81,339.002 
  1964.15,337.985 1959.47,337.016 1954.78,336.097 1950.09,335.226 1945.38,334.405 1940.67,333.633 1935.95,332.911 1931.22,332.238 1926.48,331.615 1921.74,331.041 
  1917,330.517 1912.24,330.042 1907.49,329.618 1902.73,329.243 1897.96,328.918 1893.19,328.643 1888.42,328.418 1883.65,328.243 1878.88,328.118 1874.1,328.043 
  1869.32,328.018 1864.55,328.043 1859.77,328.118 1855,328.243 1850.23,328.418 1845.46,328.643 1840.69,328.918 1835.92,329.243 1831.16,329.618 1826.4,330.042 
  1821.65,330.517 1816.91,331.041 1812.16,331.615 1807.43,332.238 1802.7,332.911 1797.98,333.633 1793.27,334.405 1788.56,335.226 1783.87,336.097 1779.18,337.016 
  1774.5,337.985 1769.84,339.002 1765.18,340.068 1760.54,341.183 1755.9,342.347 1751.29,343.559 1746.68,344.819 1742.09,346.127 1737.51,347.484 1732.94,348.888 
  1728.39,350.34 1723.86,351.84 1719.34,353.387 1714.84,354.981 1710.35,356.622 1705.88,358.31 1701.43,360.045 1697,361.826 1692.59,363.654 1688.2,365.528 
  1683.82,367.448 1679.47,369.413 1675.14,371.424 1670.83,373.48 1666.54,375.581 1662.27,377.727 1658.03,379.917 1653.81,382.152 1649.61,384.431 1645.44,386.754 
  1641.29,389.12 1637.17,391.529 1633.07,393.982 1629,396.477 1624.95,399.015 1620.93,401.596 1616.94,404.218 1612.98,406.881 1609.04,409.586 1605.13,412.333 
  1601.25,415.12 1597.41,417.947 1593.59,420.815 1589.8,423.722 1586.04,426.669 1582.31,429.655 1578.62,432.68 1574.95,435.743 1571.32,438.845 1567.72,441.985 
  1564.16,445.162 1560.62,448.376 1557.12,451.627 1553.66,454.915 1550.23,458.238 1546.84,461.598 1543.48,464.992 1540.15,468.422 1536.87,471.886 1533.61,475.385 
  1530.4,478.917 1527.22,482.483 1524.08,486.082 1520.98,489.714 1517.92,493.378 1514.89,497.073 1511.91,500.801 1508.96,504.559 1506.05,508.348 1503.19,512.167 
  1500.36,516.016 1497.57,519.895 1494.82,523.802 1492.12,527.738 1489.46,531.702 1486.83,535.694 1484.25,539.713 1481.72,543.759 1479.22,547.831 1476.77,551.929 
  1474.36,556.052 1471.99,560.201 1469.67,564.374 1467.39,568.571 1465.16,572.792 1462.97,577.036 1460.82,581.302 1458.72,585.591 1456.66,589.902 1454.65,594.234 
  1452.69,598.587 1450.77,602.96 1448.89,607.353 1447.06,611.765 1445.28,616.196 1443.55,620.646 1441.86,625.114 1440.22,629.599 1438.62,634.101 1437.08,638.619 
  1435.58,643.153 1434.13,647.703 1432.72,652.268 1431.37,656.847 1430.06,661.44 1428.8,666.047 1427.58,670.667 1426.42,675.299 1425.31,679.943 1424.24,684.598 
  1423.22,689.264 1422.25,693.941 1421.33,698.627 1420.46,703.323 1419.64,708.028 1418.87,712.741 1418.15,717.462 1417.48,722.191 1416.85,726.926 1416.28,731.667 
  1415.76,736.414 1415.28,741.166 1414.86,745.923 1414.48,750.684 1414.16,755.449 1413.88,760.217 1413.66,764.988 1413.48,769.761 1413.36,774.535 1413.28,779.31 
  1413.26,784.086 1413.28,788.862 1413.36,793.637 1413.48,798.411 1413.66,803.184 1413.88,807.955 1414.16,812.723 1414.48,817.488 1414.86,822.249 1415.28,827.006 
  1415.76,831.758 1416.28,836.505 1416.85,841.246 1417.48,845.981 1418.15,850.71 1418.87,855.431 1419.64,860.144 1420.46,864.849 1421.33,869.545 1422.25,874.231 
  1423.22,878.908 1424.24,883.574 1425.31,888.229 1426.42,892.873 1427.58,897.505 1428.8,902.125 1430.06,906.732 1431.37,911.325 1432.72,915.904 1434.13,920.469 
  1435.58,925.019 1437.08,929.553 1438.62,934.071 1440.22,938.573 1441.86,943.058 1443.55,947.526 1445.28,951.976 1447.06,956.407 1448.89,960.819 1450.77,965.212 
  1452.69,969.585 1454.65,973.938 1456.66,978.27 1458.72,982.581 1460.82,986.87 1462.97,991.136 1465.16,995.38 1467.39,999.601 1469.67,1003.8 1471.99,1007.97 
  1474.36,1012.12 1476.77,1016.24 1479.22,1020.34 1481.72,1024.41 1484.25,1028.46 1486.83,1032.48 1489.46,1036.47 1492.12,1040.43 1494.82,1044.37 1497.57,1048.28 
  1500.36,1052.16 1503.19,1056 1506.05,1059.82 1508.96,1063.61 1511.91,1067.37 1514.89,1071.1 1517.92,1074.79 1520.98,1078.46 1524.08,1082.09 1527.22,1085.69 
  1530.4,1089.25 1533.61,1092.79 1536.87,1096.29 1540.15,1099.75 1543.48,1103.18 1546.84,1106.57 1550.23,1109.93 1553.66,1113.26 1557.12,1116.54 1560.62,1119.8 
  1564.16,1123.01 1567.72,1126.19 1571.32,1129.33 1574.95,1132.43 1578.62,1135.49 1582.31,1138.52 1586.04,1141.5 1589.8,1144.45 1593.59,1147.36 1597.41,1150.23 
  1601.25,1153.05 1605.13,1155.84 1609.04,1158.59 1612.98,1161.29 1616.94,1163.95 1620.93,1166.58 1624.95,1169.16 1629,1171.69 1633.07,1174.19 1637.17,1176.64 
  1641.29,1179.05 1645.44,1181.42 1649.61,1183.74 1653.81,1186.02 1658.03,1188.25 1662.27,1190.45 1666.54,1192.59 1670.83,1194.69 1675.14,1196.75 1679.47,1198.76 
  1683.82,1200.72 1688.2,1202.64 1692.59,1204.52 1697,1206.35 1701.43,1208.13 1705.88,1209.86 1710.35,1211.55 1714.84,1213.19 1719.34,1214.79 1723.86,1216.33 
  1728.39,1217.83 1732.94,1219.28 1737.51,1220.69 1742.09,1222.04 1746.68,1223.35 1751.29,1224.61 1755.9,1225.83 1760.54,1226.99 1765.18,1228.1 1769.84,1229.17 
  1774.5,1230.19 1779.18,1231.16 1783.87,1232.08 1788.56,1232.95 1793.27,1233.77 1797.98,1234.54 1802.7,1235.26 1807.43,1235.93 1812.16,1236.56 1816.91,1237.13 
  1821.65,1237.66 1826.4,1238.13 1831.16,1238.55 1835.92,1238.93 1840.69,1239.25 1845.46,1239.53 1850.23,1239.75 1855,1239.93 1859.77,1240.05 1864.55,1240.13 
  1869.32,1240.15 1874.1,1240.13 1878.88,1240.05 1883.65,1239.93 1888.42,1239.75 1893.19,1239.53 1897.96,1239.25 1902.73,1238.93 1907.49,1238.55 1912.24,1238.13 
  1917,1237.66 1921.74,1237.13 1926.48,1236.56 1931.22,1235.93 1935.95,1235.26 1940.67,1234.54 1945.38,1233.77 1950.09,1232.95 1954.78,1232.08 1959.47,1231.16 
  1964.15,1230.19 1968.81,1229.17 1973.47,1228.1 1978.11,1226.99 1982.74,1225.83 1987.36,1224.61 1991.97,1223.35 1996.56,1222.04 2001.14,1220.69 2005.71,1219.28 
  2010.26,1217.83 2014.79,1216.33 2019.31,1214.79 2023.81,1213.19 2028.3,1211.55 2032.76,1209.86 2037.21,1208.13 2041.65,1206.35 2046.06,1204.52 2050.45,1202.64 
  2054.82,1200.72 2059.18,1198.76 2063.51,1196.75 2067.82,1194.69 2072.11,1192.59 2076.37,1190.45 2080.62,1188.25 2084.84,1186.02 2089.04,1183.74 2093.21,1181.42 
  2097.36,1179.05 2101.48,1176.64 2105.58,1174.19 2109.65,1171.69 2113.7,1169.16 2117.72,1166.58 2121.71,1163.95 2125.67,1161.29 2129.61,1158.59 2133.52,1155.84 
  2137.39,1153.05 2141.24,1150.23 2145.06,1147.36 2148.85,1144.45 2152.61,1141.5 2156.34,1138.52 2160.03,1135.49 2163.7,1132.43 2167.33,1129.33 2170.93,1126.19 
  2174.49,1123.01 2178.03,1119.8 2181.52,1116.54 2184.99,1113.26 2188.42,1109.93 2191.81,1106.57 2195.17,1103.18 2198.5,1099.75 2201.78,1096.29 2205.03,1092.79 
  2208.25,1089.25 2211.43,1085.69 2214.57,1082.09 2217.67,1078.46 2220.73,1074.79 2223.76,1071.1 2226.74,1067.37 2229.69,1063.61 2232.6,1059.82 2235.46,1056 
  2238.29,1052.16 2241.08,1048.28 2243.82,1044.37 2246.53,1040.43 2249.19,1036.47 2251.81,1032.48 2254.39,1028.46 2256.93,1024.41 2259.43,1020.34 2261.88,1016.24 
  2264.29,1012.12 2266.66,1007.97 2268.98,1003.8 2271.26,999.601 2273.49,995.38 2275.68,991.136 2277.83,986.87 2279.93,982.581 2281.99,978.27 2284,973.938 
  2285.96,969.585 2287.88,965.212 2289.76,960.819 2291.58,956.407 2293.37,951.976 2295.1,947.526 2296.79,943.058 2298.43,938.573 2300.02,934.071 2301.57,929.553 
  2303.07,925.019 2304.52,920.469 2305.93,915.904 2307.28,911.325 2308.59,906.732 2309.85,902.125 2311.06,897.505 2312.23,892.873 2313.34,888.229 2314.41,883.574 
  2315.43,878.908 2316.39,874.231 2317.31,869.545 2318.18,864.849 2319.01,860.144 2319.78,855.431 2320.5,850.71 2321.17,845.981 2321.8,841.246 2322.37,836.505 
  2322.89,831.758 2323.37,827.006 2323.79,822.249 2324.17,817.488 2324.49,812.723 2324.77,807.955 2324.99,803.184 2325.17,798.411 2325.29,793.637 2325.37,788.862 
  2325.39,784.086 
  "/>
</svg>
