<?xml version="1.0" encoding="utf-8"?>
<svg xmlns="http://www.w3.org/2000/svg" xmlns:xlink="http://www.w3.org/1999/xlink" width="600" height="400" viewBox="0 0 2400 1600">
<defs>
  <clipPath id="clip370">
    <rect x="0" y="0" width="2400" height="1600"/>
  </clipPath>
</defs>
<path clip-path="url(#clip370)" d="
M0 1600 L2400 1600 L2400 0 L0 0  Z
  " fill="#ffffff" fill-rule="evenodd" fill-opacity="1"/>
<defs>
  <clipPath id="clip371">
    <rect x="480" y="0" width="1681" height="1600"/>
  </clipPath>
</defs>
<path clip-path="url(#clip370)" d="
M204.203 1444.7 L1171.36 1444.7 L1171.36 123.472 L204.203 123.472  Z
  " fill="#ffffff" fill-rule="evenodd" fill-opacity="1"/>
<defs>
  <clipPath id="clip372">
    <rect x="204" y="123" width="968" height="1322"/>
  </clipPath>
</defs>
<polyline clip-path="url(#clip372)" style="stroke:#000000; stroke-width:2; stroke-opacity:0.1; fill:none" points="
  231.575,1444.7 231.575,123.472 
  "/>
<polyline clip-path="url(#clip372)" style="stroke:#000000; stroke-width:2; stroke-opacity:0.1; fill:none" points="
  459.677,1444.7 459.677,123.472 
  "/>
<polyline clip-path="url(#clip372)" style="stroke:#000000; stroke-width:2; stroke-opacity:0.1; fill:none" points="
  687.779,1444.7 687.779,123.472 
  "/>
<polyline clip-path="url(#clip372)" style="stroke:#000000; stroke-width:2; stroke-opacity:0.1; fill:none" points="
  915.881,1444.7 915.881,123.472 
  "/>
<polyline clip-path="url(#clip372)" style="stroke:#000000; stroke-width:2; stroke-opacity:0.1; fill:none" points="
  1143.98,1444.7 1143.98,123.472 
  "/>
<polyline clip-path="url(#clip372)" style="stroke:#000000; stroke-width:2; stroke-opacity:0.1; fill:none" points="
  204.203,1240.29 1171.36,1240.29 
  "/>
<polyline clip-path="url(#clip372)" style="stroke:#000000; stroke-width:2; stroke-opacity:0.1; fill:none" points="
  204.203,1012.19 1171.36,1012.19 
  "/>
<polyline clip-path="url(#clip372)" style="stroke:#000000; stroke-width:2; stroke-opacity:0.1; fill:none" points="
  204.203,784.086 1171.36,784.086 
  "/>
<polyline clip-path="url(#clip372)" style="stroke:#000000; stroke-width:2; stroke-opacity:0.1; fill:none" points="
  204.203,555.984 1171.36,555.984 
  "/>
<polyline clip-path="url(#clip372)" style="stroke:#000000; stroke-width:2; stroke-opacity:0.1; fill:none" points="
  204.203,327.882 1171.36,327.882 
  "/>
<polyline clip-path="url(#clip370)" style="stroke:#000000; stroke-width:4; stroke-opacity:1; fill:none" points="
  204.203,1444.7 1171.36,1444.7 
  "/>
<polyline clip-path="url(#clip370)" style="stroke:#000000; stroke-width:4; stroke-opacity:1; fill:none" points="
  204.203,1444.7 204.203,123.472 
  "/>
<polyline clip-path="url(#clip370)" style="stroke:#000000; stroke-width:4; stroke-opacity:1; fill:none" points="
  231.575,1444.7 231.575,1428.85 
  "/>
<polyline clip-path="url(#clip370)" style="stroke:#000000; stroke-width:4; stroke-opacity:1; fill:none" points="
  459.677,1444.7 459.677,1428.85 
  "/>
<polyline clip-path="url(#clip370)" style="stroke:#000000; stroke-width:4; stroke-opacity:1; fill:none" points="
  687.779,1444.7 687.779,1428.85 
  "/>
<polyline clip-path="url(#clip370)" style="stroke:#000000; stroke-width:4; stroke-opacity:1; fill:none" points="
  915.881,1444.7 915.881,1428.85 
  "/>
<polyline clip-path="url(#clip370)" style="stroke:#000000; stroke-width:4; stroke-opacity:1; fill:none" points="
  1143.98,1444.7 1143.98,1428.85 
  "/>
<polyline clip-path="url(#clip370)" style="stroke:#000000; stroke-width:4; stroke-opacity:1; fill:none" points="
  204.203,1240.29 215.809,1240.29 
  "/>
<polyline clip-path="url(#clip370)" style="stroke:#000000; stroke-width:4; stroke-opacity:1; fill:none" points="
  204.203,1012.19 215.809,1012.19 
  "/>
<polyline clip-path="url(#clip370)" style="stroke:#000000; stroke-width:4; stroke-opacity:1; fill:none" points="
  204.203,784.086 215.809,784.086 
  "/>
<polyline clip-path="url(#clip370)" style="stroke:#000000; stroke-width:4; stroke-opacity:1; fill:none" points="
  204.203,555.984 215.809,555.984 
  "/>
<polyline clip-path="url(#clip370)" style="stroke:#000000; stroke-width:4; stroke-opacity:1; fill:none" points="
  204.203,327.882 215.809,327.882 
  "/>
<path clip-path="url(#clip370)" d="M 0 0 M193.959 1483.29 L206.436 1483.29 L206.436 1487.08 L193.959 1487.08 L193.959 1483.29 Z" fill="#000000" fill-rule="evenodd" fill-opacity="1" /><path clip-path="url(#clip370)" d="M 0 0 M212.316 1494.24 L219.955 1494.24 L219.955 1467.87 L211.645 1469.54 L211.645 1465.28 L219.908 1463.61 L224.584 1463.61 L224.584 1494.24 L232.223 1494.24 L232.223 1498.17 L212.316 1498.17 L212.316 1494.24 Z" fill="#000000" fill-rule="evenodd" fill-opacity="1" /><path clip-path="url(#clip370)" d="M 0 0 M237.293 1492.29 L242.177 1492.29 L242.177 1498.17 L237.293 1498.17 L237.293 1492.29 Z" fill="#000000" fill-rule="evenodd" fill-opacity="1" /><path clip-path="url(#clip370)" d="M 0 0 M257.246 1466.69 Q253.635 1466.69 251.806 1470.26 Q250.001 1473.8 250.001 1480.93 Q250.001 1488.03 251.806 1491.6 Q253.635 1495.14 257.246 1495.14 Q260.88 1495.14 262.686 1491.6 Q264.515 1488.03 264.515 1480.93 Q264.515 1473.8 262.686 1470.26 Q260.88 1466.69 257.246 1466.69 M257.246 1462.99 Q263.056 1462.99 266.112 1467.59 Q269.19 1472.18 269.19 1480.93 Q269.19 1489.65 266.112 1494.26 Q263.056 1498.84 257.246 1498.84 Q251.436 1498.84 248.357 1494.26 Q245.302 1489.65 245.302 1480.93 Q245.302 1472.18 248.357 1467.59 Q251.436 1462.99 257.246 1462.99 Z" fill="#000000" fill-rule="evenodd" fill-opacity="1" /><path clip-path="url(#clip370)" d="M 0 0 M421.946 1483.29 L434.423 1483.29 L434.423 1487.08 L421.946 1487.08 L421.946 1483.29 Z" fill="#000000" fill-rule="evenodd" fill-opacity="1" /><path clip-path="url(#clip370)" d="M 0 0 M449.492 1466.69 Q445.881 1466.69 444.052 1470.26 Q442.247 1473.8 442.247 1480.93 Q442.247 1488.03 444.052 1491.6 Q445.881 1495.14 449.492 1495.14 Q453.126 1495.14 454.932 1491.6 Q456.76 1488.03 456.76 1480.93 Q456.76 1473.8 454.932 1470.26 Q453.126 1466.69 449.492 1466.69 M449.492 1462.99 Q455.302 1462.99 458.358 1467.59 Q461.436 1472.18 461.436 1480.93 Q461.436 1489.65 458.358 1494.26 Q455.302 1498.84 449.492 1498.84 Q443.682 1498.84 440.603 1494.26 Q437.547 1489.65 437.547 1480.93 Q437.547 1472.18 440.603 1467.59 Q443.682 1462.99 449.492 1462.99 Z" fill="#000000" fill-rule="evenodd" fill-opacity="1" /><path clip-path="url(#clip370)" d="M 0 0 M466.506 1492.29 L471.39 1492.29 L471.39 1498.17 L466.506 1498.17 L466.506 1492.29 Z" fill="#000000" fill-rule="evenodd" fill-opacity="1" /><path clip-path="url(#clip370)" d="M 0 0 M476.506 1463.61 L494.862 1463.61 L494.862 1467.55 L480.788 1467.55 L480.788 1476.02 Q481.807 1475.67 482.825 1475.51 Q483.844 1475.32 484.862 1475.32 Q490.649 1475.32 494.029 1478.5 Q497.408 1481.67 497.408 1487.08 Q497.408 1492.66 493.936 1495.76 Q490.464 1498.84 484.144 1498.84 Q481.969 1498.84 479.7 1498.47 Q477.455 1498.1 475.047 1497.36 L475.047 1492.66 Q477.131 1493.8 479.353 1494.35 Q481.575 1494.91 484.052 1494.91 Q488.056 1494.91 490.394 1492.8 Q492.732 1490.7 492.732 1487.08 Q492.732 1483.47 490.394 1481.37 Q488.056 1479.26 484.052 1479.26 Q482.177 1479.26 480.302 1479.68 Q478.45 1480.09 476.506 1480.97 L476.506 1463.61 Z" fill="#000000" fill-rule="evenodd" fill-opacity="1" /><path clip-path="url(#clip370)" d="M 0 0 M669.295 1466.69 Q665.684 1466.69 663.856 1470.26 Q662.05 1473.8 662.05 1480.93 Q662.05 1488.03 663.856 1491.6 Q665.684 1495.14 669.295 1495.14 Q672.93 1495.14 674.735 1491.6 Q676.564 1488.03 676.564 1480.93 Q676.564 1473.8 674.735 1470.26 Q672.93 1466.69 669.295 1466.69 M669.295 1462.99 Q675.105 1462.99 678.161 1467.59 Q681.24 1472.18 681.24 1480.93 Q681.24 1489.65 678.161 1494.26 Q675.105 1498.84 669.295 1498.84 Q663.485 1498.84 660.406 1494.26 Q657.351 1489.65 657.351 1480.93 Q657.351 1472.18 660.406 1467.59 Q663.485 1462.99 669.295 1462.99 Z" fill="#000000" fill-rule="evenodd" fill-opacity="1" /><path clip-path="url(#clip370)" d="M 0 0 M686.309 1492.29 L691.193 1492.29 L691.193 1498.17 L686.309 1498.17 L686.309 1492.29 Z" fill="#000000" fill-rule="evenodd" fill-opacity="1" /><path clip-path="url(#clip370)" d="M 0 0 M706.263 1466.69 Q702.652 1466.69 700.823 1470.26 Q699.017 1473.8 699.017 1480.93 Q699.017 1488.03 700.823 1491.6 Q702.652 1495.14 706.263 1495.14 Q709.897 1495.14 711.703 1491.6 Q713.531 1488.03 713.531 1480.93 Q713.531 1473.8 711.703 1470.26 Q709.897 1466.69 706.263 1466.69 M706.263 1462.99 Q712.073 1462.99 715.128 1467.59 Q718.207 1472.18 718.207 1480.93 Q718.207 1489.65 715.128 1494.26 Q712.073 1498.84 706.263 1498.84 Q700.453 1498.84 697.374 1494.26 Q694.318 1489.65 694.318 1480.93 Q694.318 1472.18 697.374 1467.59 Q700.453 1462.99 706.263 1462.99 Z" fill="#000000" fill-rule="evenodd" fill-opacity="1" /><path clip-path="url(#clip370)" d="M 0 0 M897.895 1466.69 Q894.284 1466.69 892.455 1470.26 Q890.65 1473.8 890.65 1480.93 Q890.65 1488.03 892.455 1491.6 Q894.284 1495.14 897.895 1495.14 Q901.529 1495.14 903.335 1491.6 Q905.164 1488.03 905.164 1480.93 Q905.164 1473.8 903.335 1470.26 Q901.529 1466.69 897.895 1466.69 M897.895 1462.99 Q903.705 1462.99 906.761 1467.59 Q909.839 1472.18 909.839 1480.93 Q909.839 1489.65 906.761 1494.26 Q903.705 1498.84 897.895 1498.84 Q892.085 1498.84 889.006 1494.26 Q885.951 1489.65 885.951 1480.93 Q885.951 1472.18 889.006 1467.59 Q892.085 1462.99 897.895 1462.99 Z" fill="#000000" fill-rule="evenodd" fill-opacity="1" /><path clip-path="url(#clip370)" d="M 0 0 M914.909 1492.29 L919.793 1492.29 L919.793 1498.17 L914.909 1498.17 L914.909 1492.29 Z" fill="#000000" fill-rule="evenodd" fill-opacity="1" /><path clip-path="url(#clip370)" d="M 0 0 M924.909 1463.61 L943.265 1463.61 L943.265 1467.55 L929.191 1467.55 L929.191 1476.02 Q930.21 1475.67 931.228 1475.51 Q932.247 1475.32 933.265 1475.32 Q939.052 1475.32 942.432 1478.5 Q945.811 1481.67 945.811 1487.08 Q945.811 1492.66 942.339 1495.76 Q938.867 1498.84 932.548 1498.84 Q930.372 1498.84 928.103 1498.47 Q925.858 1498.1 923.45 1497.36 L923.45 1492.66 Q925.534 1493.8 927.756 1494.35 Q929.978 1494.91 932.455 1494.91 Q936.46 1494.91 938.798 1492.8 Q941.136 1490.7 941.136 1487.08 Q941.136 1483.47 938.798 1481.37 Q936.46 1479.26 932.455 1479.26 Q930.58 1479.26 928.705 1479.68 Q926.853 1480.09 924.909 1480.97 L924.909 1463.61 Z" fill="#000000" fill-rule="evenodd" fill-opacity="1" /><path clip-path="url(#clip370)" d="M 0 0 M1115.88 1494.24 L1123.52 1494.24 L1123.52 1467.87 L1115.21 1469.54 L1115.21 1465.28 L1123.47 1463.61 L1128.15 1463.61 L1128.15 1494.24 L1135.79 1494.24 L1135.79 1498.17 L1115.88 1498.17 L1115.88 1494.24 Z" fill="#000000" fill-rule="evenodd" fill-opacity="1" /><path clip-path="url(#clip370)" d="M 0 0 M1140.86 1492.29 L1145.74 1492.29 L1145.74 1498.17 L1140.86 1498.17 L1140.86 1492.29 Z" fill="#000000" fill-rule="evenodd" fill-opacity="1" /><path clip-path="url(#clip370)" d="M 0 0 M1160.81 1466.69 Q1157.2 1466.69 1155.37 1470.26 Q1153.57 1473.8 1153.57 1480.93 Q1153.57 1488.03 1155.37 1491.6 Q1157.2 1495.14 1160.81 1495.14 Q1164.45 1495.14 1166.25 1491.6 Q1168.08 1488.03 1168.08 1480.93 Q1168.08 1473.8 1166.25 1470.26 Q1164.45 1466.69 1160.81 1466.69 M1160.81 1462.99 Q1166.62 1462.99 1169.68 1467.59 Q1172.76 1472.18 1172.76 1480.93 Q1172.76 1489.65 1169.68 1494.26 Q1166.62 1498.84 1160.81 1498.84 Q1155 1498.84 1151.92 1494.26 Q1148.87 1489.65 1148.87 1480.93 Q1148.87 1472.18 1151.92 1467.59 Q1155 1462.99 1160.81 1462.99 Z" fill="#000000" fill-rule="evenodd" fill-opacity="1" /><path clip-path="url(#clip370)" d="M 0 0 M104.972 1242.69 L117.448 1242.69 L117.448 1246.48 L104.972 1246.48 L104.972 1242.69 Z" fill="#000000" fill-rule="evenodd" fill-opacity="1" /><path clip-path="url(#clip370)" d="M 0 0 M123.328 1253.63 L130.967 1253.63 L130.967 1227.27 L122.657 1228.94 L122.657 1224.68 L130.921 1223.01 L135.596 1223.01 L135.596 1253.63 L143.235 1253.63 L143.235 1257.57 L123.328 1257.57 L123.328 1253.63 Z" fill="#000000" fill-rule="evenodd" fill-opacity="1" /><path clip-path="url(#clip370)" d="M 0 0 M148.305 1251.69 L153.189 1251.69 L153.189 1257.57 L148.305 1257.57 L148.305 1251.69 Z" fill="#000000" fill-rule="evenodd" fill-opacity="1" /><path clip-path="url(#clip370)" d="M 0 0 M168.258 1226.09 Q164.647 1226.09 162.819 1229.65 Q161.013 1233.2 161.013 1240.32 Q161.013 1247.43 162.819 1251 Q164.647 1254.54 168.258 1254.54 Q171.893 1254.54 173.698 1251 Q175.527 1247.43 175.527 1240.32 Q175.527 1233.2 173.698 1229.65 Q171.893 1226.09 168.258 1226.09 M168.258 1222.39 Q174.068 1222.39 177.124 1226.99 Q180.203 1231.57 180.203 1240.32 Q180.203 1249.05 177.124 1253.66 Q174.068 1258.24 168.258 1258.24 Q162.448 1258.24 159.369 1253.66 Q156.314 1249.05 156.314 1240.32 Q156.314 1231.57 159.369 1226.99 Q162.448 1222.39 168.258 1222.39 Z" fill="#000000" fill-rule="evenodd" fill-opacity="1" /><path clip-path="url(#clip370)" d="M 0 0 M104.74 1014.58 L117.217 1014.58 L117.217 1018.38 L104.74 1018.38 L104.74 1014.58 Z" fill="#000000" fill-rule="evenodd" fill-opacity="1" /><path clip-path="url(#clip370)" d="M 0 0 M132.286 997.987 Q128.675 997.987 126.847 1001.55 Q125.041 1005.09 125.041 1012.22 Q125.041 1019.33 126.847 1022.89 Q128.675 1026.44 132.286 1026.44 Q135.921 1026.44 137.726 1022.89 Q139.555 1019.33 139.555 1012.22 Q139.555 1005.09 137.726 1001.55 Q135.921 997.987 132.286 997.987 M132.286 994.283 Q138.096 994.283 141.152 998.889 Q144.231 1003.47 144.231 1012.22 Q144.231 1020.95 141.152 1025.56 Q138.096 1030.14 132.286 1030.14 Q126.476 1030.14 123.397 1025.56 Q120.342 1020.95 120.342 1012.22 Q120.342 1003.47 123.397 998.889 Q126.476 994.283 132.286 994.283 Z" fill="#000000" fill-rule="evenodd" fill-opacity="1" /><path clip-path="url(#clip370)" d="M 0 0 M149.3 1023.59 L154.184 1023.59 L154.184 1029.47 L149.3 1029.47 L149.3 1023.59 Z" fill="#000000" fill-rule="evenodd" fill-opacity="1" /><path clip-path="url(#clip370)" d="M 0 0 M159.3 994.908 L177.656 994.908 L177.656 998.843 L163.582 998.843 L163.582 1007.32 Q164.601 1006.97 165.619 1006.81 Q166.638 1006.62 167.656 1006.62 Q173.443 1006.62 176.823 1009.79 Q180.203 1012.96 180.203 1018.38 Q180.203 1023.96 176.731 1027.06 Q173.258 1030.14 166.939 1030.14 Q164.763 1030.14 162.494 1029.77 Q160.249 1029.4 157.842 1028.66 L157.842 1023.96 Q159.925 1025.09 162.147 1025.65 Q164.369 1026.2 166.846 1026.2 Q170.851 1026.2 173.189 1024.1 Q175.527 1021.99 175.527 1018.38 Q175.527 1014.77 173.189 1012.66 Q170.851 1010.56 166.846 1010.56 Q164.971 1010.56 163.096 1010.97 Q161.244 1011.39 159.3 1012.27 L159.3 994.908 Z" fill="#000000" fill-rule="evenodd" fill-opacity="1" /><path clip-path="url(#clip370)" d="M 0 0 M131.291 769.885 Q127.68 769.885 125.851 773.449 Q124.046 776.991 124.046 784.121 Q124.046 791.227 125.851 794.792 Q127.68 798.334 131.291 798.334 Q134.925 798.334 136.731 794.792 Q138.559 791.227 138.559 784.121 Q138.559 776.991 136.731 773.449 Q134.925 769.885 131.291 769.885 M131.291 766.181 Q137.101 766.181 140.157 770.787 Q143.235 775.371 143.235 784.121 Q143.235 792.848 140.157 797.454 Q137.101 802.037 131.291 802.037 Q125.481 802.037 122.402 797.454 Q119.347 792.848 119.347 784.121 Q119.347 775.371 122.402 770.787 Q125.481 766.181 131.291 766.181 Z" fill="#000000" fill-rule="evenodd" fill-opacity="1" /><path clip-path="url(#clip370)" d="M 0 0 M148.305 795.486 L153.189 795.486 L153.189 801.366 L148.305 801.366 L148.305 795.486 Z" fill="#000000" fill-rule="evenodd" fill-opacity="1" /><path clip-path="url(#clip370)" d="M 0 0 M168.258 769.885 Q164.647 769.885 162.819 773.449 Q161.013 776.991 161.013 784.121 Q161.013 791.227 162.819 794.792 Q164.647 798.334 168.258 798.334 Q171.893 798.334 173.698 794.792 Q175.527 791.227 175.527 784.121 Q175.527 776.991 173.698 773.449 Q171.893 769.885 168.258 769.885 M168.258 766.181 Q174.068 766.181 177.124 770.787 Q180.203 775.371 180.203 784.121 Q180.203 792.848 177.124 797.454 Q174.068 802.037 168.258 802.037 Q162.448 802.037 159.369 797.454 Q156.314 792.848 156.314 784.121 Q156.314 775.371 159.369 770.787 Q162.448 766.181 168.258 766.181 Z" fill="#000000" fill-rule="evenodd" fill-opacity="1" /><path clip-path="url(#clip370)" d="M 0 0 M132.286 541.783 Q128.675 541.783 126.847 545.347 Q125.041 548.889 125.041 556.019 Q125.041 563.125 126.847 566.69 Q128.675 570.232 132.286 570.232 Q135.921 570.232 137.726 566.69 Q139.555 563.125 139.555 556.019 Q139.555 548.889 137.726 545.347 Q135.921 541.783 132.286 541.783 M132.286 538.079 Q138.096 538.079 141.152 542.685 Q144.231 547.269 144.231 556.019 Q144.231 564.745 141.152 569.352 Q138.096 573.935 132.286 573.935 Q126.476 573.935 123.397 569.352 Q120.342 564.745 120.342 556.019 Q120.342 547.269 123.397 542.685 Q126.476 538.079 132.286 538.079 Z" fill="#000000" fill-rule="evenodd" fill-opacity="1" /><path clip-path="url(#clip370)" d="M 0 0 M149.3 567.384 L154.184 567.384 L154.184 573.264 L149.3 573.264 L149.3 567.384 Z" fill="#000000" fill-rule="evenodd" fill-opacity="1" /><path clip-path="url(#clip370)" d="M 0 0 M159.3 538.704 L177.656 538.704 L177.656 542.639 L163.582 542.639 L163.582 551.111 Q164.601 550.764 165.619 550.602 Q166.638 550.417 167.656 550.417 Q173.443 550.417 176.823 553.588 Q180.203 556.759 180.203 562.176 Q180.203 567.755 176.731 570.857 Q173.258 573.935 166.939 573.935 Q164.763 573.935 162.494 573.565 Q160.249 573.195 157.842 572.454 L157.842 567.755 Q159.925 568.889 162.147 569.445 Q164.369 570 166.846 570 Q170.851 570 173.189 567.894 Q175.527 565.787 175.527 562.176 Q175.527 558.565 173.189 556.458 Q170.851 554.352 166.846 554.352 Q164.971 554.352 163.096 554.769 Q161.244 555.185 159.3 556.065 L159.3 538.704 Z" fill="#000000" fill-rule="evenodd" fill-opacity="1" /><path clip-path="url(#clip370)" d="M 0 0 M123.328 341.227 L130.967 341.227 L130.967 314.861 L122.657 316.528 L122.657 312.269 L130.921 310.602 L135.596 310.602 L135.596 341.227 L143.235 341.227 L143.235 345.162 L123.328 345.162 L123.328 341.227 Z" fill="#000000" fill-rule="evenodd" fill-opacity="1" /><path clip-path="url(#clip370)" d="M 0 0 M148.305 339.282 L153.189 339.282 L153.189 345.162 L148.305 345.162 L148.305 339.282 Z" fill="#000000" fill-rule="evenodd" fill-opacity="1" /><path clip-path="url(#clip370)" d="M 0 0 M168.258 313.681 Q164.647 313.681 162.819 317.245 Q161.013 320.787 161.013 327.917 Q161.013 335.023 162.819 338.588 Q164.647 342.13 168.258 342.13 Q171.893 342.13 173.698 338.588 Q175.527 335.023 175.527 327.917 Q175.527 320.787 173.698 317.245 Q171.893 313.681 168.258 313.681 M168.258 309.977 Q174.068 309.977 177.124 314.583 Q180.203 319.167 180.203 327.917 Q180.203 336.643 177.124 341.25 Q174.068 345.833 168.258 345.833 Q162.448 345.833 159.369 341.25 Q156.314 336.643 156.314 327.917 Q156.314 319.167 159.369 314.583 Q162.448 309.977 168.258 309.977 Z" fill="#000000" fill-rule="evenodd" fill-opacity="1" /><path clip-path="url(#clip370)" d="M 0 0 M510.572 12.096 L518.796 12.096 L518.796 48.8377 Q518.796 58.5599 522.32 62.8538 Q525.844 67.1073 533.743 67.1073 Q541.602 67.1073 545.126 62.8538 Q548.651 58.5599 548.651 48.8377 L548.651 12.096 L556.874 12.096 L556.874 49.8504 Q556.874 61.6791 551 67.7149 Q545.167 73.7508 533.743 73.7508 Q522.279 73.7508 516.406 67.7149 Q510.572 61.6791 510.572 49.8504 L510.572 12.096 Z" fill="#000000" fill-rule="evenodd" fill-opacity="1" /><path clip-path="url(#clip370)" d="M 0 0 M602.406 45.1919 L602.406 72.576 L594.953 72.576 L594.953 45.4349 Q594.953 38.994 592.441 35.7938 Q589.929 32.5936 584.906 32.5936 Q578.87 32.5936 575.387 36.4419 Q571.903 40.2903 571.903 46.9338 L571.903 72.576 L564.409 72.576 L564.409 27.2059 L571.903 27.2059 L571.903 34.2544 Q574.577 30.163 578.182 28.1376 Q581.828 26.1121 586.567 26.1121 Q594.385 26.1121 598.396 30.9732 Q602.406 35.7938 602.406 45.1919 Z" fill="#000000" fill-rule="evenodd" fill-opacity="1" /><path clip-path="url(#clip370)" d="M 0 0 M610.224 27.2059 L617.678 27.2059 L617.678 72.576 L610.224 72.576 L610.224 27.2059 M610.224 9.54393 L617.678 9.54393 L617.678 18.9825 L610.224 18.9825 L610.224 9.54393 Z" fill="#000000" fill-rule="evenodd" fill-opacity="1" /><path clip-path="url(#clip370)" d="M 0 0 M632.869 14.324 L632.869 27.2059 L648.222 27.2059 L648.222 32.9987 L632.869 32.9987 L632.869 57.6282 Q632.869 63.1779 634.368 64.7578 Q635.907 66.3376 640.566 66.3376 L648.222 66.3376 L648.222 72.576 L640.566 72.576 Q631.937 72.576 628.656 69.3758 Q625.375 66.1351 625.375 57.6282 L625.375 32.9987 L619.906 32.9987 L619.906 27.2059 L625.375 27.2059 L625.375 14.324 L632.869 14.324 Z" fill="#000000" fill-rule="evenodd" fill-opacity="1" /><path clip-path="url(#clip370)" d="M 0 0 M715.062 28.9478 L715.062 35.9153 Q711.902 34.1734 708.702 33.3227 Q705.542 32.4315 702.302 32.4315 Q695.05 32.4315 691.04 37.0496 Q687.03 41.6271 687.03 49.9314 Q687.03 58.2358 691.04 62.8538 Q695.05 67.4314 702.302 67.4314 Q705.542 67.4314 708.702 66.5807 Q711.902 65.6895 715.062 63.9476 L715.062 70.8341 Q711.943 72.2924 708.58 73.0216 Q705.259 73.7508 701.491 73.7508 Q691.243 73.7508 685.207 67.3098 Q679.171 60.8689 679.171 49.9314 Q679.171 38.832 685.247 32.472 Q691.364 26.1121 701.977 26.1121 Q705.421 26.1121 708.702 26.8413 Q711.983 27.5299 715.062 28.9478 Z" fill="#000000" fill-rule="evenodd" fill-opacity="1" /><path clip-path="url(#clip370)" d="M 0 0 M722.88 27.2059 L730.334 27.2059 L730.334 72.576 L722.88 72.576 L722.88 27.2059 M722.88 9.54393 L730.334 9.54393 L730.334 18.9825 L722.88 18.9825 L722.88 9.54393 Z" fill="#000000" fill-rule="evenodd" fill-opacity="1" /><path clip-path="url(#clip370)" d="M 0 0 M764.442 34.1734 Q763.187 33.4443 761.688 33.1202 Q760.229 32.7556 758.447 32.7556 Q752.128 32.7556 748.725 36.8875 Q745.363 40.9789 745.363 48.6757 L745.363 72.576 L737.868 72.576 L737.868 27.2059 L745.363 27.2059 L745.363 34.2544 Q747.712 30.1225 751.479 28.1376 Q755.247 26.1121 760.635 26.1121 Q761.404 26.1121 762.336 26.2337 Q763.268 26.3147 764.402 26.5172 L764.442 34.1734 Z" fill="#000000" fill-rule="evenodd" fill-opacity="1" /><path clip-path="url(#clip370)" d="M 0 0 M803.088 28.9478 L803.088 35.9153 Q799.928 34.1734 796.728 33.3227 Q793.568 32.4315 790.328 32.4315 Q783.077 32.4315 779.066 37.0496 Q775.056 41.6271 775.056 49.9314 Q775.056 58.2358 779.066 62.8538 Q783.077 67.4314 790.328 67.4314 Q793.568 67.4314 796.728 66.5807 Q799.928 65.6895 803.088 63.9476 L803.088 70.8341 Q799.969 72.2924 796.607 73.0216 Q793.285 73.7508 789.517 73.7508 Q779.269 73.7508 773.233 67.3098 Q767.197 60.8689 767.197 49.9314 Q767.197 38.832 773.273 32.472 Q779.39 26.1121 790.004 26.1121 Q793.447 26.1121 796.728 26.8413 Q800.009 27.5299 803.088 28.9478 Z" fill="#000000" fill-rule="evenodd" fill-opacity="1" /><path clip-path="url(#clip370)" d="M 0 0 M810.906 9.54393 L818.36 9.54393 L818.36 72.576 L810.906 72.576 L810.906 9.54393 Z" fill="#000000" fill-rule="evenodd" fill-opacity="1" /><path clip-path="url(#clip370)" d="M 0 0 M864.986 48.0275 L864.986 51.6733 L830.715 51.6733 Q831.201 59.3701 835.333 63.421 Q839.506 67.4314 846.919 67.4314 Q851.213 67.4314 855.223 66.3781 Q859.274 65.3249 863.244 63.2184 L863.244 70.267 Q859.234 71.9684 855.021 72.8596 Q850.808 73.7508 846.473 73.7508 Q835.617 73.7508 829.257 67.4314 Q822.937 61.1119 822.937 50.3365 Q822.937 39.1965 828.933 32.6746 Q834.969 26.1121 845.177 26.1121 Q854.332 26.1121 859.639 32.0264 Q864.986 37.9003 864.986 48.0275 M857.532 45.84 Q857.451 39.7232 854.089 36.0774 Q850.767 32.4315 845.258 32.4315 Q839.02 32.4315 835.252 35.9558 Q831.525 39.4801 830.958 45.8805 L857.532 45.84 Z" fill="#000000" fill-rule="evenodd" fill-opacity="1" /><path clip-path="url(#clip370)" d="M 0 0 M689.763 1515.82 Q689.763 1517.63 688.636 1518.66 Q687.509 1519.65 686.221 1519.65 Q684.997 1519.65 684.353 1518.95 Q683.709 1518.24 683.709 1517.34 Q683.709 1516.11 684.61 1515.05 Q685.512 1513.99 686.865 1513.76 Q685.544 1512.92 683.58 1512.92 Q682.291 1512.92 681.164 1513.6 Q680.069 1514.28 679.393 1515.15 Q678.749 1516.02 678.169 1517.27 Q677.622 1518.5 677.396 1519.24 Q677.203 1519.94 677.042 1520.72 L674.788 1529.74 Q673.693 1534.02 673.693 1535.53 Q673.693 1537.4 674.594 1538.66 Q675.496 1539.88 677.3 1539.88 Q678.008 1539.88 678.813 1539.69 Q679.618 1539.46 680.649 1538.88 Q681.712 1538.27 682.646 1537.37 Q683.612 1536.43 684.546 1534.86 Q685.48 1533.28 686.092 1531.25 Q686.285 1530.54 686.929 1530.54 Q687.734 1530.54 687.734 1531.18 Q687.734 1531.73 687.283 1532.89 Q686.865 1534.02 685.931 1535.5 Q685.029 1536.95 683.837 1538.27 Q682.646 1539.56 680.874 1540.46 Q679.103 1541.36 677.171 1541.36 Q674.401 1541.36 672.565 1539.88 Q670.73 1538.4 670.053 1536.34 Q669.892 1536.63 669.667 1537.01 Q669.441 1537.4 668.765 1538.27 Q668.121 1539.11 667.38 1539.75 Q666.639 1540.36 665.48 1540.85 Q664.353 1541.36 663.129 1541.36 Q661.583 1541.36 660.198 1540.91 Q658.846 1540.46 657.879 1539.43 Q656.913 1538.4 656.913 1536.98 Q656.913 1535.4 657.976 1534.31 Q659.071 1533.18 660.553 1533.18 Q661.486 1533.18 662.227 1533.73 Q663 1534.28 663 1535.47 Q663 1536.79 662.098 1537.79 Q661.197 1538.79 659.908 1539.04 Q661.229 1539.88 663.193 1539.88 Q665.319 1539.88 666.994 1538.01 Q668.668 1536.14 669.474 1533.02 Q671.47 1525.52 672.243 1522.17 Q673.016 1518.79 673.016 1517.34 Q673.016 1515.98 672.662 1515.05 Q672.308 1514.12 671.696 1513.7 Q671.116 1513.25 670.569 1513.08 Q670.053 1512.92 669.474 1512.92 Q668.507 1512.92 667.412 1513.31 Q666.35 1513.7 665.061 1514.6 Q663.805 1515.47 662.614 1517.27 Q661.422 1519.08 660.617 1521.55 Q660.456 1522.3 659.747 1522.3 Q658.974 1522.26 658.974 1521.62 Q658.974 1521.07 659.393 1519.94 Q659.844 1518.79 660.746 1517.34 Q661.68 1515.89 662.871 1514.6 Q664.095 1513.28 665.866 1512.38 Q667.67 1511.47 669.602 1511.47 Q670.472 1511.47 671.309 1511.67 Q672.179 1511.83 673.209 1512.31 Q674.272 1512.79 675.206 1513.86 Q676.14 1514.92 676.72 1516.47 Q677.106 1515.73 677.622 1515.02 Q678.169 1514.31 679.006 1513.44 Q679.876 1512.54 681.068 1512.02 Q682.291 1511.47 683.644 1511.47 Q684.965 1511.47 686.253 1511.83 Q687.541 1512.15 688.636 1513.21 Q689.763 1514.24 689.763 1515.82 Z" fill="#000000" fill-rule="evenodd" fill-opacity="1" /><path clip-path="url(#clip370)" d="M 0 0 M696.5 1533.19 L696.5 1531.74 Q702.046 1531.74 704.909 1528.79 Q705.698 1528.79 705.833 1528.97 Q705.969 1529.15 705.969 1529.98 L705.969 1555.89 Q705.969 1557.26 706.645 1557.69 Q707.321 1558.12 710.275 1558.12 L711.74 1558.12 L711.74 1559.54 Q710.117 1559.4 704.255 1559.4 Q698.394 1559.4 696.793 1559.54 L696.793 1558.12 L698.259 1558.12 Q701.167 1558.12 701.866 1557.71 Q702.564 1557.29 702.564 1555.89 L702.564 1531.97 Q700.152 1533.19 696.5 1533.19 Z" fill="#000000" fill-rule="evenodd" fill-opacity="1" /><path clip-path="url(#clip370)" d="M 0 0 M45.6604 783.688 Q47.4639 783.688 48.4945 784.815 Q49.4929 785.942 49.4929 787.23 Q49.4929 788.454 48.7844 789.098 Q48.0758 789.742 47.1741 789.742 Q45.9502 789.742 44.8875 788.841 Q43.8247 787.939 43.5992 786.586 Q42.7619 787.907 42.7619 789.871 Q42.7619 791.159 43.4382 792.287 Q44.1145 793.382 44.9841 794.058 Q45.8536 794.702 47.1097 795.282 Q48.3335 795.829 49.0742 796.055 Q49.7827 796.248 50.5557 796.409 L59.5733 798.663 Q63.8567 799.758 65.3704 799.758 Q67.2383 799.758 68.4943 798.857 Q69.7182 797.955 69.7182 796.151 Q69.7182 795.443 69.5249 794.638 Q69.2995 793.833 68.7198 792.802 Q68.1079 791.739 67.2061 790.805 Q66.2721 789.839 64.6941 788.905 Q63.116 787.971 61.087 787.359 Q60.3785 787.166 60.3785 786.522 Q60.3785 785.717 61.0226 785.717 Q61.5701 785.717 62.7295 786.168 Q63.8567 786.586 65.3382 787.52 Q66.7874 788.422 68.1079 789.614 Q69.3961 790.805 70.2979 792.577 Q71.1996 794.348 71.1996 796.28 Q71.1996 799.05 69.7182 800.886 Q68.2367 802.721 66.1755 803.398 Q66.4654 803.559 66.8519 803.784 Q67.2383 804.01 68.1079 804.686 Q68.9452 805.33 69.5893 806.071 Q70.2013 806.812 70.6843 807.971 Q71.1996 809.098 71.1996 810.322 Q71.1996 811.868 70.7488 813.253 Q70.2979 814.605 69.2673 815.572 Q68.2367 816.538 66.8196 816.538 Q65.2416 816.538 64.1466 815.475 Q63.0194 814.38 63.0194 812.898 Q63.0194 811.964 63.5669 811.224 Q64.1144 810.451 65.306 810.451 Q66.6264 810.451 67.6248 811.353 Q68.6232 812.254 68.8808 813.543 Q69.7182 812.222 69.7182 810.258 Q69.7182 808.132 67.8502 806.457 Q65.9823 804.783 62.8583 803.977 Q55.3544 801.981 52.0049 801.208 Q48.6233 800.435 47.1741 800.435 Q45.8214 800.435 44.8875 800.789 Q43.9535 801.143 43.5348 801.755 Q43.0839 802.335 42.9229 802.882 Q42.7619 803.398 42.7619 803.977 Q42.7619 804.944 43.1483 806.039 Q43.5348 807.101 44.4366 808.39 Q45.3061 809.646 47.1097 810.837 Q48.9132 812.029 51.393 812.834 Q52.1338 812.995 52.1338 813.704 Q52.1016 814.477 51.4574 814.477 Q50.9099 814.477 49.7827 814.058 Q48.6233 813.607 47.1741 812.705 Q45.7248 811.771 44.4366 810.58 Q43.1161 809.356 42.2144 807.584 Q41.3126 805.781 41.3126 803.849 Q41.3126 802.979 41.5058 802.142 Q41.6669 801.272 42.15 800.242 Q42.633 799.179 43.6958 798.245 Q44.7586 797.311 46.3045 796.731 Q45.5638 796.345 44.8552 795.829 Q44.1467 795.282 43.2772 794.444 Q42.3754 793.575 41.8601 792.383 Q41.3126 791.159 41.3126 789.807 Q41.3126 788.486 41.6669 787.198 Q41.9889 785.91 43.0517 784.815 Q44.0823 783.688 45.6604 783.688 Z" fill="#000000" fill-rule="evenodd" fill-opacity="1" /><path clip-path="url(#clip370)" d="M 0 0 M89.378 776.951 Q88.5438 776.951 88.2959 776.883 Q88.0479 776.793 87.6646 776.432 L77.7903 767.572 Q72.3346 762.725 67.5778 762.725 Q64.4893 762.725 62.28 764.349 Q60.0706 765.949 60.0706 768.903 Q60.0706 770.932 61.3106 772.645 Q62.5505 774.358 64.7598 775.147 Q64.7147 775.012 64.7147 774.539 Q64.7147 773.389 65.4361 772.758 Q66.1575 772.104 67.1269 772.104 Q68.3669 772.104 68.9756 772.915 Q69.5617 773.704 69.5617 774.494 Q69.5617 774.809 69.4941 775.237 Q69.4264 775.643 68.7952 776.297 Q68.1414 776.951 66.9917 776.951 Q63.7679 776.951 61.1978 774.516 Q58.6278 772.059 58.6278 768.316 Q58.6278 764.078 61.1528 761.305 Q63.6551 758.51 67.5778 758.51 Q68.953 758.51 70.2155 758.938 Q71.4554 759.344 72.4248 759.907 Q73.3942 760.449 74.9497 761.936 Q76.5053 763.424 77.6099 764.619 Q78.7146 765.814 81.0592 768.497 L85.816 773.389 L85.816 765.07 Q85.816 761.012 85.4553 760.697 Q84.8015 760.246 81.3523 759.682 L81.3523 758.51 L89.378 759.817 L89.378 776.951 Z" fill="#000000" fill-rule="evenodd" fill-opacity="1" /><polyline clip-path="url(#clip372)" style="stroke:#009af9; stroke-width:4; stroke-opacity:1; fill:none" points="
  1143.98,784.086 1143.96,779.309 1143.88,774.532 1143.76,769.756 1143.58,764.982 1143.36,760.21 1143.08,755.441 1142.76,750.674 1142.38,745.912 1141.96,741.153 
  1141.48,736.4 1140.96,731.651 1140.39,726.908 1139.76,722.172 1139.09,717.442 1138.37,712.72 1137.59,708.005 1136.77,703.299 1135.9,698.602 1134.98,693.914 
  1134.01,689.236 1133,684.568 1131.93,679.911 1130.81,675.266 1129.65,670.633 1128.44,666.012 1127.18,661.404 1125.87,656.809 1124.51,652.229 1123.11,647.662 
  1121.65,643.111 1120.15,638.575 1118.61,634.056 1117.01,629.552 1115.37,625.066 1113.68,620.597 1111.95,616.146 1110.16,611.713 1108.34,607.3 1106.46,602.906 
  1104.54,598.531 1102.58,594.177 1100.56,589.844 1098.51,585.532 1096.41,581.242 1094.26,576.974 1092.07,572.728 1089.83,568.506 1087.55,564.308 1085.23,560.134 
  1082.86,555.984 1080.45,551.859 1078,547.76 1075.5,543.687 1072.96,539.64 1070.38,535.619 1067.76,531.627 1065.1,527.661 1062.39,523.724 1059.64,519.816 
  1056.86,515.936 1054.03,512.086 1051.16,508.265 1048.25,504.475 1045.3,500.716 1042.32,496.987 1039.29,493.291 1036.23,489.626 1033.12,485.993 1029.98,482.393 
  1026.8,478.826 1023.59,475.292 1020.34,471.793 1017.05,468.327 1013.72,464.897 1010.36,461.501 1006.97,458.141 1003.54,454.816 1000.07,451.528 996.573,448.275 
  993.039,445.06 989.472,441.882 985.872,438.742 982.239,435.639 978.574,432.575 974.878,429.549 971.149,426.562 967.39,423.614 963.6,420.706 959.779,417.837 
  955.929,415.009 952.049,412.221 948.141,409.474 944.204,406.768 940.239,404.104 936.246,401.481 932.225,398.9 928.178,396.361 924.105,393.865 920.006,391.412 
  915.881,389.002 911.731,386.635 907.557,384.311 903.359,382.032 899.137,379.796 894.891,377.605 890.623,375.459 886.333,373.357 882.021,371.3 877.688,369.289 
  873.334,367.323 868.96,365.403 864.565,363.528 860.152,361.7 855.719,359.918 851.268,358.183 846.799,356.494 842.313,354.852 837.809,353.258 833.29,351.71 
  828.754,350.21 824.203,348.758 819.637,347.353 815.056,345.996 810.461,344.687 805.853,343.427 801.232,342.214 796.599,341.051 791.954,339.935 787.297,338.869 
  782.629,337.851 777.951,336.882 773.263,335.963 768.566,335.092 763.86,334.271 759.145,333.499 754.423,332.776 749.693,332.103 744.957,331.479 740.214,330.905 
  735.465,330.381 730.712,329.907 725.953,329.482 721.191,329.107 716.424,328.782 711.655,328.507 706.883,328.282 702.109,328.107 697.333,327.982 692.556,327.907 
  687.779,327.882 683.002,327.907 678.225,327.982 673.449,328.107 668.675,328.282 663.903,328.507 659.134,328.782 654.367,329.107 649.605,329.482 644.846,329.907 
  640.093,330.381 635.344,330.905 630.601,331.479 625.865,332.103 621.135,332.776 616.413,333.499 611.698,334.271 606.992,335.092 602.295,335.963 597.607,336.882 
  592.929,337.851 588.261,338.869 583.604,339.935 578.959,341.051 574.326,342.214 569.705,343.427 565.097,344.687 560.502,345.996 555.922,347.353 551.355,348.758 
  546.804,350.21 542.268,351.71 537.749,353.258 533.245,354.852 528.759,356.494 524.29,358.183 519.839,359.918 515.407,361.7 510.993,363.528 506.599,365.403 
  502.224,367.323 497.87,369.289 493.537,371.3 489.225,373.357 484.935,375.459 480.667,377.605 476.421,379.796 472.199,382.032 468.001,384.311 463.827,386.635 
  459.677,389.002 455.552,391.412 451.453,393.865 447.38,396.361 443.333,398.9 439.312,401.481 435.32,404.104 431.354,406.768 427.417,409.474 423.509,412.221 
  419.629,415.009 415.779,417.837 411.958,420.706 408.168,423.614 404.409,426.562 400.681,429.549 396.984,432.575 393.319,435.639 389.686,438.742 386.086,441.882 
  382.519,445.06 378.985,448.275 375.486,451.528 372.02,454.816 368.59,458.141 365.194,461.501 361.834,464.897 358.509,468.327 355.221,471.793 351.969,475.292 
  348.753,478.826 345.575,482.393 342.435,485.993 339.332,489.626 336.268,493.291 333.242,496.987 330.255,500.716 327.307,504.475 324.399,508.265 321.53,512.086 
  318.702,515.936 315.914,519.816 313.167,523.724 310.462,527.661 307.797,531.627 305.174,535.619 302.593,539.64 300.055,543.687 297.558,547.76 295.105,551.859 
  292.695,555.984 290.328,560.134 288.004,564.308 285.725,568.506 283.489,572.728 281.298,576.974 279.152,581.242 277.05,585.532 274.993,589.844 272.982,594.177 
  271.016,598.531 269.096,602.906 267.221,607.3 265.393,611.713 263.611,616.146 261.876,620.597 260.187,625.066 258.545,629.552 256.951,634.056 255.403,638.575 
  253.903,643.111 252.451,647.662 251.046,652.229 249.689,656.809 248.38,661.404 247.12,666.012 245.907,670.633 244.744,675.266 243.628,679.911 242.562,684.568 
  241.544,689.236 240.575,693.914 239.656,698.602 238.785,703.299 237.964,708.005 237.192,712.72 236.469,717.442 235.796,722.172 235.172,726.908 234.598,731.651 
  234.074,736.4 233.6,741.153 233.175,745.912 232.8,750.674 232.475,755.441 232.2,760.21 231.975,764.982 231.8,769.756 231.675,774.532 231.6,779.309 
  231.575,784.086 231.6,788.863 231.675,793.64 231.8,798.416 231.975,803.19 232.2,807.962 232.475,812.731 232.8,817.498 233.175,822.26 233.6,827.019 
  234.074,831.772 234.598,836.521 235.172,841.264 235.796,846 236.469,850.73 237.192,855.452 237.964,860.167 238.785,864.873 239.656,869.57 240.575,874.258 
  241.544,878.936 242.562,883.604 243.628,888.261 244.744,892.906 245.907,897.539 247.12,902.16 248.38,906.768 249.689,911.363 251.046,915.943 252.451,920.51 
  253.903,925.061 255.403,929.597 256.951,934.116 258.545,938.62 260.187,943.106 261.876,947.575 263.611,952.026 265.393,956.458 267.221,960.872 269.096,965.266 
  271.016,969.641 272.982,973.995 274.993,978.328 277.05,982.64 279.152,986.93 281.298,991.198 283.489,995.444 285.725,999.666 288.004,1003.86 290.328,1008.04 
  292.695,1012.19 295.105,1016.31 297.558,1020.41 300.055,1024.49 302.593,1028.53 305.174,1032.55 307.797,1036.55 310.462,1040.51 313.167,1044.45 315.914,1048.36 
  318.702,1052.24 321.53,1056.09 324.399,1059.91 327.307,1063.7 330.255,1067.46 333.242,1071.18 336.268,1074.88 339.332,1078.55 342.435,1082.18 345.575,1085.78 
  348.753,1089.35 351.969,1092.88 355.221,1096.38 358.509,1099.84 361.834,1103.28 365.194,1106.67 368.59,1110.03 372.02,1113.36 375.486,1116.64 378.985,1119.9 
  382.519,1123.11 386.086,1126.29 389.686,1129.43 393.319,1132.53 396.984,1135.6 400.681,1138.62 404.409,1141.61 408.168,1144.56 411.958,1147.47 415.779,1150.33 
  419.629,1153.16 423.509,1155.95 427.417,1158.7 431.354,1161.4 435.32,1164.07 439.312,1166.69 443.333,1169.27 447.38,1171.81 451.453,1174.31 455.552,1176.76 
  459.677,1179.17 463.827,1181.54 468.001,1183.86 472.199,1186.14 476.421,1188.38 480.667,1190.57 484.935,1192.71 489.225,1194.82 493.537,1196.87 497.87,1198.88 
  502.224,1200.85 506.599,1202.77 510.993,1204.64 515.407,1206.47 519.839,1208.25 524.29,1209.99 528.759,1211.68 533.245,1213.32 537.749,1214.91 542.268,1216.46 
  546.804,1217.96 551.355,1219.41 555.922,1220.82 560.502,1222.18 565.097,1223.48 569.705,1224.75 574.326,1225.96 578.959,1227.12 583.604,1228.24 588.261,1229.3 
  592.929,1230.32 597.607,1231.29 602.295,1232.21 606.992,1233.08 611.698,1233.9 616.413,1234.67 621.135,1235.4 625.865,1236.07 630.601,1236.69 635.344,1237.27 
  640.093,1237.79 644.846,1238.27 649.605,1238.69 654.367,1239.06 659.134,1239.39 663.903,1239.66 668.675,1239.89 673.449,1240.06 678.225,1240.19 683.002,1240.27 
  687.779,1240.29 692.556,1240.27 697.333,1240.19 702.109,1240.06 706.883,1239.89 711.655,1239.66 716.424,1239.39 721.191,1239.06 725.953,1238.69 730.712,1238.27 
  735.465,1237.79 740.214,1237.27 744.957,1236.69 749.693,1236.07 754.423,1235.4 759.145,1234.67 763.86,1233.9 768.566,1233.08 773.263,1232.21 777.951,1231.29 
  782.629,1230.32 787.297,1229.3 791.954,1228.24 796.599,1227.12 801.232,1225.96 805.853,1224.75 810.461,1223.48 815.056,1222.18 819.637,1220.82 824.203,1219.41 
  828.754,1217.96 833.29,1216.46 837.809,1214.91 842.313,1213.32 846.799,1211.68 851.268,1209.99 855.719,1208.25 860.152,1206.47 864.565,1204.64 868.96,1202.77 
  873.334,1200.85 877.688,1198.88 882.021,1196.87 886.333,1194.82 890.623,1192.71 894.891,1190.57 899.137,1188.38 903.359,1186.14 907.557,1183.86 911.731,1181.54 
  915.881,1179.17 920.006,1176.76 924.105,1174.31 928.178,1171.81 932.225,1169.27 936.246,1166.69 940.239,1164.07 944.204,1161.4 948.141,1158.7 952.049,1155.95 
  955.929,1153.16 959.779,1150.33 963.6,1147.47 967.39,1144.56 971.149,1141.61 974.878,1138.62 978.574,1135.6 982.239,1132.53 985.872,1129.43 989.472,1126.29 
  993.039,1123.11 996.573,1119.9 1000.07,1116.64 1003.54,1113.36 1006.97,1110.03 1010.36,1106.67 1013.72,1103.28 1017.05,1099.84 1020.34,1096.38 1023.59,1092.88 
  1026.8,1089.35 1029.98,1085.78 1033.12,1082.18 1036.23,1078.55 1039.29,1074.88 1042.32,1071.18 1045.3,1067.46 1048.25,1063.7 1051.16,1059.91 1054.03,1056.09 
  1056.86,1052.24 1059.64,1048.36 1062.39,1044.45 1065.1,1040.51 1067.76,1036.55 1070.38,1032.55 1072.96,1028.53 1075.5,1024.49 1078,1020.41 1080.45,1016.31 
  1082.86,1012.19 1085.23,1008.04 1087.55,1003.86 1089.83,999.666 1092.07,995.444 1094.26,991.198 1096.41,986.93 1098.51,982.64 1100.56,978.328 1102.58,973.995 
  1104.54,969.641 1106.46,965.266 1108.34,960.872 1110.16,956.458 1111.95,952.026 1113.68,947.575 1115.37,943.106 1117.01,938.62 1118.61,934.116 1120.15,929.597 
  1121.65,925.061 1123.11,920.51 1124.51,915.943 1125.87,911.363 1127.18,906.768 1128.44,902.16 1129.65,897.539 1130.81,892.906 1131.93,888.261 1133,883.604 
  1134.01,878.936 1134.98,874.258 1135.9,869.57 1136.77,864.873 1137.59,860.167 1138.37,855.452 1139.09,850.73 1139.76,846 1140.39,841.264 1140.96,836.521 
  1141.48,831.772 1141.96,827.019 1142.38,822.26 1142.76,817.498 1143.08,812.731 1143.36,807.962 1143.58,803.19 1143.76,798.416 1143.88,793.64 1143.96,788.863 
  1143.98,784.086 
  "/>
<path clip-path="url(#clip370)" d="
M1385.6 1444.7 L2352.76 1444.7 L2352.76 123.472 L1385.6 123.472  Z
  " fill="#ffffff" fill-rule="evenodd" fill-opacity="1"/>
<defs>
  <clipPath id="clip373">
    <rect x="1385" y="123" width="968" height="1322"/>
  </clipPath>
</defs>
<polyline clip-path="url(#clip373)" style="stroke:#000000; stroke-width:2; stroke-opacity:0.1; fill:none" points="
  1412.98,1444.7 1412.98,123.472 
  "/>
<polyline clip-path="url(#clip373)" style="stroke:#000000; stroke-width:2; stroke-opacity:0.1; fill:none" points="
  1641.08,1444.7 1641.08,123.472 
  "/>
<polyline clip-path="url(#clip373)" style="stroke:#000000; stroke-width:2; stroke-opacity:0.1; fill:none" points="
  1869.18,1444.7 1869.18,123.472 
  "/>
<polyline clip-path="url(#clip373)" style="stroke:#000000; stroke-width:2; stroke-opacity:0.1; fill:none" points="
  2097.28,1444.7 2097.28,123.472 
  "/>
<polyline clip-path="url(#clip373)" style="stroke:#000000; stroke-width:2; stroke-opacity:0.1; fill:none" points="
  2325.38,1444.7 2325.38,123.472 
  "/>
<polyline clip-path="url(#clip373)" style="stroke:#000000; stroke-width:2; stroke-opacity:0.1; fill:none" points="
  1385.6,1240.29 2352.76,1240.29 
  "/>
<polyline clip-path="url(#clip373)" style="stroke:#000000; stroke-width:2; stroke-opacity:0.1; fill:none" points="
  1385.6,1012.19 2352.76,1012.19 
  "/>
<polyline clip-path="url(#clip373)" style="stroke:#000000; stroke-width:2; stroke-opacity:0.1; fill:none" points="
  1385.6,784.086 2352.76,784.086 
  "/>
<polyline clip-path="url(#clip373)" style="stroke:#000000; stroke-width:2; stroke-opacity:0.1; fill:none" points="
  1385.6,555.984 2352.76,555.984 
  "/>
<polyline clip-path="url(#clip373)" style="stroke:#000000; stroke-width:2; stroke-opacity:0.1; fill:none" points="
  1385.6,327.882 2352.76,327.882 
  "/>
<polyline clip-path="url(#clip370)" style="stroke:#000000; stroke-width:4; stroke-opacity:1; fill:none" points="
  1385.6,1444.7 2352.76,1444.7 
  "/>
<polyline clip-path="url(#clip370)" style="stroke:#000000; stroke-width:4; stroke-opacity:1; fill:none" points="
  1385.6,1444.7 1385.6,123.472 
  "/>
<polyline clip-path="url(#clip370)" style="stroke:#000000; stroke-width:4; stroke-opacity:1; fill:none" points="
  1412.98,1444.7 1412.98,1428.85 
  "/>
<polyline clip-path="url(#clip370)" style="stroke:#000000; stroke-width:4; stroke-opacity:1; fill:none" points="
  1641.08,1444.7 1641.08,1428.85 
  "/>
<polyline clip-path="url(#clip370)" style="stroke:#000000; stroke-width:4; stroke-opacity:1; fill:none" points="
  1869.18,1444.7 1869.18,1428.85 
  "/>
<polyline clip-path="url(#clip370)" style="stroke:#000000; stroke-width:4; stroke-opacity:1; fill:none" points="
  2097.28,1444.7 2097.28,1428.85 
  "/>
<polyline clip-path="url(#clip370)" style="stroke:#000000; stroke-width:4; stroke-opacity:1; fill:none" points="
  2325.38,1444.7 2325.38,1428.85 
  "/>
<polyline clip-path="url(#clip370)" style="stroke:#000000; stroke-width:4; stroke-opacity:1; fill:none" points="
  1385.6,1240.29 1397.21,1240.29 
  "/>
<polyline clip-path="url(#clip370)" style="stroke:#000000; stroke-width:4; stroke-opacity:1; fill:none" points="
  1385.6,1012.19 1397.21,1012.19 
  "/>
<polyline clip-path="url(#clip370)" style="stroke:#000000; stroke-width:4; stroke-opacity:1; fill:none" points="
  1385.6,784.086 1397.21,784.086 
  "/>
<polyline clip-path="url(#clip370)" style="stroke:#000000; stroke-width:4; stroke-opacity:1; fill:none" points="
  1385.6,555.984 1397.21,555.984 
  "/>
<polyline clip-path="url(#clip370)" style="stroke:#000000; stroke-width:4; stroke-opacity:1; fill:none" points="
  1385.6,327.882 1397.21,327.882 
  "/>
<path clip-path="url(#clip370)" d="M 0 0 M1394.03 1483.29 L1406.51 1483.29 L1406.51 1487.08 L1394.03 1487.08 L1394.03 1483.29 Z" fill="#000000" fill-rule="evenodd" fill-opacity="1" /><path clip-path="url(#clip370)" d="M 0 0 M1415.6 1494.24 L1431.92 1494.24 L1431.92 1498.17 L1409.98 1498.17 L1409.98 1494.24 Q1412.64 1491.48 1417.22 1486.85 Q1421.83 1482.2 1423.01 1480.86 Q1425.26 1478.33 1426.14 1476.6 Q1427.04 1474.84 1427.04 1473.15 Q1427.04 1470.39 1425.09 1468.66 Q1423.17 1466.92 1420.07 1466.92 Q1417.87 1466.92 1415.42 1467.69 Q1412.99 1468.45 1410.21 1470 L1410.21 1465.28 Q1413.03 1464.14 1415.49 1463.57 Q1417.94 1462.99 1419.98 1462.99 Q1425.35 1462.99 1428.54 1465.67 Q1431.74 1468.36 1431.74 1472.85 Q1431.74 1474.98 1430.93 1476.9 Q1430.14 1478.8 1428.03 1481.39 Q1427.45 1482.06 1424.35 1485.28 Q1421.25 1488.47 1415.6 1494.24 Z" fill="#000000" fill-rule="evenodd" fill-opacity="1" /><path clip-path="url(#clip370)" d="M 0 0 M1621.95 1483.29 L1634.42 1483.29 L1634.42 1487.08 L1621.95 1487.08 L1621.95 1483.29 Z" fill="#000000" fill-rule="evenodd" fill-opacity="1" /><path clip-path="url(#clip370)" d="M 0 0 M1640.3 1494.24 L1647.94 1494.24 L1647.94 1467.87 L1639.63 1469.54 L1639.63 1465.28 L1647.89 1463.61 L1652.57 1463.61 L1652.57 1494.24 L1660.21 1494.24 L1660.21 1498.17 L1640.3 1498.17 L1640.3 1494.24 Z" fill="#000000" fill-rule="evenodd" fill-opacity="1" /><path clip-path="url(#clip370)" d="M 0 0 M1869.18 1466.69 Q1865.57 1466.69 1863.74 1470.26 Q1861.93 1473.8 1861.93 1480.93 Q1861.93 1488.03 1863.74 1491.6 Q1865.57 1495.14 1869.18 1495.14 Q1872.81 1495.14 1874.62 1491.6 Q1876.45 1488.03 1876.45 1480.93 Q1876.45 1473.8 1874.62 1470.26 Q1872.81 1466.69 1869.18 1466.69 M1869.18 1462.99 Q1874.99 1462.99 1878.05 1467.59 Q1881.12 1472.18 1881.12 1480.93 Q1881.12 1489.65 1878.05 1494.26 Q1874.99 1498.84 1869.18 1498.84 Q1863.37 1498.84 1860.29 1494.26 Q1857.24 1489.65 1857.24 1480.93 Q1857.24 1472.18 1860.29 1467.59 Q1863.37 1462.99 1869.18 1462.99 Z" fill="#000000" fill-rule="evenodd" fill-opacity="1" /><path clip-path="url(#clip370)" d="M 0 0 M2087.66 1494.24 L2095.3 1494.24 L2095.3 1467.87 L2086.99 1469.54 L2086.99 1465.28 L2095.26 1463.61 L2099.93 1463.61 L2099.93 1494.24 L2107.57 1494.24 L2107.57 1498.17 L2087.66 1498.17 L2087.66 1494.24 Z" fill="#000000" fill-rule="evenodd" fill-opacity="1" /><path clip-path="url(#clip370)" d="M 0 0 M2320.04 1494.24 L2336.36 1494.24 L2336.36 1498.17 L2314.41 1498.17 L2314.41 1494.24 Q2317.07 1491.48 2321.66 1486.85 Q2326.26 1482.2 2327.44 1480.86 Q2329.69 1478.33 2330.57 1476.6 Q2331.47 1474.84 2331.47 1473.15 Q2331.47 1470.39 2329.53 1468.66 Q2327.61 1466.92 2324.5 1466.92 Q2322.3 1466.92 2319.85 1467.69 Q2317.42 1468.45 2314.64 1470 L2314.64 1465.28 Q2317.47 1464.14 2319.92 1463.57 Q2322.37 1462.99 2324.41 1462.99 Q2329.78 1462.99 2332.98 1465.67 Q2336.17 1468.36 2336.17 1472.85 Q2336.17 1474.98 2335.36 1476.9 Q2334.57 1478.8 2332.47 1481.39 Q2331.89 1482.06 2328.79 1485.28 Q2325.68 1488.47 2320.04 1494.24 Z" fill="#000000" fill-rule="evenodd" fill-opacity="1" /><path clip-path="url(#clip370)" d="M 0 0 M1323.71 1242.69 L1336.19 1242.69 L1336.19 1246.48 L1323.71 1246.48 L1323.71 1242.69 Z" fill="#000000" fill-rule="evenodd" fill-opacity="1" /><path clip-path="url(#clip370)" d="M 0 0 M1345.28 1253.63 L1361.6 1253.63 L1361.6 1257.57 L1339.66 1257.57 L1339.66 1253.63 Q1342.32 1250.88 1346.9 1246.25 Q1351.51 1241.6 1352.69 1240.26 Q1354.94 1237.73 1355.82 1236 Q1356.72 1234.24 1356.72 1232.55 Q1356.72 1229.79 1354.77 1228.06 Q1352.85 1226.32 1349.75 1226.32 Q1347.55 1226.32 1345.1 1227.08 Q1342.67 1227.85 1339.89 1229.4 L1339.89 1224.68 Q1342.71 1223.54 1345.17 1222.96 Q1347.62 1222.39 1349.66 1222.39 Q1355.03 1222.39 1358.22 1225.07 Q1361.42 1227.76 1361.42 1232.25 Q1361.42 1234.38 1360.61 1236.3 Q1359.82 1238.2 1357.71 1240.79 Q1357.14 1241.46 1354.03 1244.68 Q1350.93 1247.87 1345.28 1253.63 Z" fill="#000000" fill-rule="evenodd" fill-opacity="1" /><path clip-path="url(#clip370)" d="M 0 0 M1323.34 1014.58 L1335.82 1014.58 L1335.82 1018.38 L1323.34 1018.38 L1323.34 1014.58 Z" fill="#000000" fill-rule="evenodd" fill-opacity="1" /><path clip-path="url(#clip370)" d="M 0 0 M1341.7 1025.53 L1349.33 1025.53 L1349.33 999.167 L1341.02 1000.83 L1341.02 996.575 L1349.29 994.908 L1353.96 994.908 L1353.96 1025.53 L1361.6 1025.53 L1361.6 1029.47 L1341.7 1029.47 L1341.7 1025.53 Z" fill="#000000" fill-rule="evenodd" fill-opacity="1" /><path clip-path="url(#clip370)" d="M 0 0 M1349.66 769.885 Q1346.05 769.885 1344.22 773.449 Q1342.41 776.991 1342.41 784.121 Q1342.41 791.227 1344.22 794.792 Q1346.05 798.334 1349.66 798.334 Q1353.29 798.334 1355.1 794.792 Q1356.93 791.227 1356.93 784.121 Q1356.93 776.991 1355.1 773.449 Q1353.29 769.885 1349.66 769.885 M1349.66 766.181 Q1355.47 766.181 1358.52 770.787 Q1361.6 775.371 1361.6 784.121 Q1361.6 792.848 1358.52 797.454 Q1355.47 802.037 1349.66 802.037 Q1343.85 802.037 1340.77 797.454 Q1337.71 792.848 1337.71 784.121 Q1337.71 775.371 1340.77 770.787 Q1343.85 766.181 1349.66 766.181 Z" fill="#000000" fill-rule="evenodd" fill-opacity="1" /><path clip-path="url(#clip370)" d="M 0 0 M1341.7 569.329 L1349.33 569.329 L1349.33 542.963 L1341.02 544.63 L1341.02 540.371 L1349.29 538.704 L1353.96 538.704 L1353.96 569.329 L1361.6 569.329 L1361.6 573.264 L1341.7 573.264 L1341.7 569.329 Z" fill="#000000" fill-rule="evenodd" fill-opacity="1" /><path clip-path="url(#clip370)" d="M 0 0 M1345.28 341.227 L1361.6 341.227 L1361.6 345.162 L1339.66 345.162 L1339.66 341.227 Q1342.32 338.472 1346.9 333.843 Q1351.51 329.19 1352.69 327.847 Q1354.94 325.324 1355.82 323.588 Q1356.72 321.829 1356.72 320.139 Q1356.72 317.384 1354.77 315.648 Q1352.85 313.912 1349.75 313.912 Q1347.55 313.912 1345.1 314.676 Q1342.67 315.44 1339.89 316.991 L1339.89 312.269 Q1342.71 311.134 1345.17 310.556 Q1347.62 309.977 1349.66 309.977 Q1355.03 309.977 1358.22 312.662 Q1361.42 315.347 1361.42 319.838 Q1361.42 321.968 1360.61 323.889 Q1359.82 325.787 1357.71 328.38 Q1357.14 329.051 1354.03 332.268 Q1350.93 335.463 1345.28 341.227 Z" fill="#000000" fill-rule="evenodd" fill-opacity="1" /><path clip-path="url(#clip370)" d="M 0 0 M1543.49 12.096 L1551.67 12.096 L1551.67 72.576 L1543.49 72.576 L1543.49 12.096 Z" fill="#000000" fill-rule="evenodd" fill-opacity="1" /><path clip-path="url(#clip370)" d="M 0 0 M1594.81 35.9153 Q1597.61 30.8922 1601.5 28.5022 Q1605.38 26.1121 1610.65 26.1121 Q1617.74 26.1121 1621.59 31.0947 Q1625.44 36.0368 1625.44 45.1919 L1625.44 72.576 L1617.94 72.576 L1617.94 45.4349 Q1617.94 38.913 1615.63 35.7533 Q1613.32 32.5936 1608.58 32.5936 Q1602.79 32.5936 1599.43 36.4419 Q1596.07 40.2903 1596.07 46.9338 L1596.07 72.576 L1588.57 72.576 L1588.57 45.4349 Q1588.57 38.8725 1586.26 35.7533 Q1583.96 32.5936 1579.13 32.5936 Q1573.42 32.5936 1570.06 36.4824 Q1566.7 40.3308 1566.7 46.9338 L1566.7 72.576 L1559.2 72.576 L1559.2 27.2059 L1566.7 27.2059 L1566.7 34.2544 Q1569.25 30.082 1572.82 28.0971 Q1576.38 26.1121 1581.28 26.1121 Q1586.22 26.1121 1589.67 28.6237 Q1593.15 31.1352 1594.81 35.9153 Z" fill="#000000" fill-rule="evenodd" fill-opacity="1" /><path clip-path="url(#clip370)" d="M 0 0 M1653.87 49.7694 Q1644.84 49.7694 1641.36 51.8354 Q1637.87 53.9013 1637.87 58.8839 Q1637.87 62.8538 1640.47 65.2034 Q1643.1 67.5124 1647.6 67.5124 Q1653.79 67.5124 1657.52 63.1374 Q1661.29 58.7219 1661.29 51.4303 L1661.29 49.7694 L1653.87 49.7694 M1668.74 46.6907 L1668.74 72.576 L1661.29 72.576 L1661.29 65.6895 Q1658.74 69.8214 1654.93 71.8063 Q1651.12 73.7508 1645.61 73.7508 Q1638.64 73.7508 1634.51 69.8619 Q1630.42 65.9325 1630.42 59.3701 Q1630.42 51.7138 1635.52 47.825 Q1640.67 43.9361 1650.84 43.9361 L1661.29 43.9361 L1661.29 43.2069 Q1661.29 38.0623 1657.88 35.2672 Q1654.52 32.4315 1648.41 32.4315 Q1644.52 32.4315 1640.83 33.3632 Q1637.14 34.295 1633.74 36.1584 L1633.74 29.2718 Q1637.83 27.692 1641.68 26.9223 Q1645.53 26.1121 1649.17 26.1121 Q1659.02 26.1121 1663.88 31.2163 Q1668.74 36.3204 1668.74 46.6907 Z" fill="#000000" fill-rule="evenodd" fill-opacity="1" /><path clip-path="url(#clip370)" d="M 0 0 M1706.41 49.3643 Q1706.41 41.2625 1703.05 36.8065 Q1699.73 32.3505 1693.69 32.3505 Q1687.7 32.3505 1684.34 36.8065 Q1681.02 41.2625 1681.02 49.3643 Q1681.02 57.4256 1684.34 61.8816 Q1687.7 66.3376 1693.69 66.3376 Q1699.73 66.3376 1703.05 61.8816 Q1706.41 57.4256 1706.41 49.3643 M1713.87 66.9452 Q1713.87 78.5308 1708.72 84.1616 Q1703.58 89.8329 1692.97 89.8329 Q1689.04 89.8329 1685.55 89.2252 Q1682.07 88.6581 1678.79 87.4428 L1678.79 80.1917 Q1682.07 81.9741 1685.27 82.8248 Q1688.47 83.6755 1691.79 83.6755 Q1699.12 83.6755 1702.77 79.8271 Q1706.41 76.0193 1706.41 68.282 L1706.41 64.5957 Q1704.11 68.6061 1700.5 70.5911 Q1696.89 72.576 1691.87 72.576 Q1683.53 72.576 1678.42 66.2161 Q1673.32 59.8562 1673.32 49.3643 Q1673.32 38.832 1678.42 32.472 Q1683.53 26.1121 1691.87 26.1121 Q1696.89 26.1121 1700.5 28.0971 Q1704.11 30.082 1706.41 34.0924 L1706.41 27.2059 L1713.87 27.2059 L1713.87 66.9452 Z" fill="#000000" fill-rule="evenodd" fill-opacity="1" /><path clip-path="url(#clip370)" d="M 0 0 M1760.49 48.0275 L1760.49 51.6733 L1726.22 51.6733 Q1726.71 59.3701 1730.84 63.421 Q1735.01 67.4314 1742.43 67.4314 Q1746.72 67.4314 1750.73 66.3781 Q1754.78 65.3249 1758.75 63.2184 L1758.75 70.267 Q1754.74 71.9684 1750.53 72.8596 Q1746.32 73.7508 1741.98 73.7508 Q1731.12 73.7508 1724.76 67.4314 Q1718.45 61.1119 1718.45 50.3365 Q1718.45 39.1965 1724.44 32.6746 Q1730.48 26.1121 1740.68 26.1121 Q1749.84 26.1121 1755.15 32.0264 Q1760.49 37.9003 1760.49 48.0275 M1753.04 45.84 Q1752.96 39.7232 1749.6 36.0774 Q1746.28 32.4315 1740.77 32.4315 Q1734.53 32.4315 1730.76 35.9558 Q1727.03 39.4801 1726.47 45.8805 L1753.04 45.84 Z" fill="#000000" fill-rule="evenodd" fill-opacity="1" /><path clip-path="url(#clip370)" d="M 0 0 M1793.91 54.671 L1793.91 27.2059 L1801.37 27.2059 L1801.37 54.3874 Q1801.37 60.8284 1803.88 64.0691 Q1806.39 67.2693 1811.41 67.2693 Q1817.45 67.2693 1820.93 63.421 Q1824.46 59.5726 1824.46 52.9291 L1824.46 27.2059 L1831.91 27.2059 L1831.91 72.576 L1824.46 72.576 L1824.46 65.6084 Q1821.74 69.7404 1818.14 71.7658 Q1814.57 73.7508 1809.83 73.7508 Q1802.02 73.7508 1797.96 68.8897 Q1793.91 64.0286 1793.91 54.671 M1812.67 26.1121 L1812.67 26.1121 Z" fill="#000000" fill-rule="evenodd" fill-opacity="1" /><path clip-path="url(#clip370)" d="M 0 0 M1877.44 45.1919 L1877.44 72.576 L1869.99 72.576 L1869.99 45.4349 Q1869.99 38.994 1867.48 35.7938 Q1864.97 32.5936 1859.94 32.5936 Q1853.91 32.5936 1850.42 36.4419 Q1846.94 40.2903 1846.94 46.9338 L1846.94 72.576 L1839.45 72.576 L1839.45 27.2059 L1846.94 27.2059 L1846.94 34.2544 Q1849.61 30.163 1853.22 28.1376 Q1856.86 26.1121 1861.6 26.1121 Q1869.42 26.1121 1873.43 30.9732 Q1877.44 35.7938 1877.44 45.1919 Z" fill="#000000" fill-rule="evenodd" fill-opacity="1" /><path clip-path="url(#clip370)" d="M 0 0 M1915.12 34.0924 L1915.12 9.54393 L1922.57 9.54393 L1922.57 72.576 L1915.12 72.576 L1915.12 65.7705 Q1912.77 69.8214 1909.16 71.8063 Q1905.6 73.7508 1900.57 73.7508 Q1892.35 73.7508 1887.17 67.1883 Q1882.02 60.6258 1882.02 49.9314 Q1882.02 39.2371 1887.17 32.6746 Q1892.35 26.1121 1900.57 26.1121 Q1905.6 26.1121 1909.16 28.0971 Q1912.77 30.0415 1915.12 34.0924 M1889.72 49.9314 Q1889.72 58.1548 1893.08 62.8538 Q1896.48 67.5124 1902.4 67.5124 Q1908.31 67.5124 1911.71 62.8538 Q1915.12 58.1548 1915.12 49.9314 Q1915.12 41.7081 1911.71 37.0496 Q1908.31 32.3505 1902.4 32.3505 Q1896.48 32.3505 1893.08 37.0496 Q1889.72 41.7081 1889.72 49.9314 Z" fill="#000000" fill-rule="evenodd" fill-opacity="1" /><path clip-path="url(#clip370)" d="M 0 0 M1969.2 48.0275 L1969.2 51.6733 L1934.93 51.6733 Q1935.41 59.3701 1939.54 63.421 Q1943.72 67.4314 1951.13 67.4314 Q1955.42 67.4314 1959.43 66.3781 Q1963.48 65.3249 1967.45 63.2184 L1967.45 70.267 Q1963.44 71.9684 1959.23 72.8596 Q1955.02 73.7508 1950.68 73.7508 Q1939.83 73.7508 1933.47 67.4314 Q1927.15 61.1119 1927.15 50.3365 Q1927.15 39.1965 1933.14 32.6746 Q1939.18 26.1121 1949.39 26.1121 Q1958.54 26.1121 1963.85 32.0264 Q1969.2 37.9003 1969.2 48.0275 M1961.74 45.84 Q1961.66 39.7232 1958.3 36.0774 Q1954.98 32.4315 1949.47 32.4315 Q1943.23 32.4315 1939.46 35.9558 Q1935.74 39.4801 1935.17 45.8805 L1961.74 45.84 Z" fill="#000000" fill-rule="evenodd" fill-opacity="1" /><path clip-path="url(#clip370)" d="M 0 0 M2003.31 34.1734 Q2002.05 33.4443 2000.55 33.1202 Q1999.09 32.7556 1997.31 32.7556 Q1990.99 32.7556 1987.59 36.8875 Q1984.23 40.9789 1984.23 48.6757 L1984.23 72.576 L1976.73 72.576 L1976.73 27.2059 L1984.23 27.2059 L1984.23 34.2544 Q1986.57 30.1225 1990.34 28.1376 Q1994.11 26.1121 1999.5 26.1121 Q2000.27 26.1121 2001.2 26.2337 Q2002.13 26.3147 2003.26 26.5172 L2003.31 34.1734 Z" fill="#000000" fill-rule="evenodd" fill-opacity="1" /><path clip-path="url(#clip370)" d="M 0 0 M2072.82 35.9153 Q2075.61 30.8922 2079.5 28.5022 Q2083.39 26.1121 2088.66 26.1121 Q2095.75 26.1121 2099.6 31.0947 Q2103.44 36.0368 2103.44 45.1919 L2103.44 72.576 L2095.95 72.576 L2095.95 45.4349 Q2095.95 38.913 2093.64 35.7533 Q2091.33 32.5936 2086.59 32.5936 Q2080.8 32.5936 2077.44 36.4419 Q2074.07 40.2903 2074.07 46.9338 L2074.07 72.576 L2066.58 72.576 L2066.58 45.4349 Q2066.58 38.8725 2064.27 35.7533 Q2061.96 32.5936 2057.14 32.5936 Q2051.43 32.5936 2048.07 36.4824 Q2044.71 40.3308 2044.71 46.9338 L2044.71 72.576 L2037.21 72.576 L2037.21 27.2059 L2044.71 27.2059 L2044.71 34.2544 Q2047.26 30.082 2050.82 28.0971 Q2054.39 26.1121 2059.29 26.1121 Q2064.23 26.1121 2067.67 28.6237 Q2071.16 31.1352 2072.82 35.9153 Z" fill="#000000" fill-rule="evenodd" fill-opacity="1" /><path clip-path="url(#clip370)" d="M 0 0 M2131.88 49.7694 Q2122.85 49.7694 2119.36 51.8354 Q2115.88 53.9013 2115.88 58.8839 Q2115.88 62.8538 2118.47 65.2034 Q2121.11 67.5124 2125.6 67.5124 Q2131.8 67.5124 2135.53 63.1374 Q2139.29 58.7219 2139.29 51.4303 L2139.29 49.7694 L2131.88 49.7694 M2146.75 46.6907 L2146.75 72.576 L2139.29 72.576 L2139.29 65.6895 Q2136.74 69.8214 2132.93 71.8063 Q2129.13 73.7508 2123.62 73.7508 Q2116.65 73.7508 2112.52 69.8619 Q2108.43 65.9325 2108.43 59.3701 Q2108.43 51.7138 2113.53 47.825 Q2118.67 43.9361 2128.84 43.9361 L2139.29 43.9361 L2139.29 43.2069 Q2139.29 38.0623 2135.89 35.2672 Q2132.53 32.4315 2126.41 32.4315 Q2122.52 32.4315 2118.84 33.3632 Q2115.15 34.295 2111.75 36.1584 L2111.75 29.2718 Q2115.84 27.692 2119.69 26.9223 Q2123.54 26.1121 2127.18 26.1121 Q2137.03 26.1121 2141.89 31.2163 Q2146.75 36.3204 2146.75 46.6907 Z" fill="#000000" fill-rule="evenodd" fill-opacity="1" /><path clip-path="url(#clip370)" d="M 0 0 M2161.78 65.7705 L2161.78 89.8329 L2154.28 89.8329 L2154.28 27.2059 L2161.78 27.2059 L2161.78 34.0924 Q2164.13 30.0415 2167.69 28.0971 Q2171.3 26.1121 2176.28 26.1121 Q2184.54 26.1121 2189.69 32.6746 Q2194.87 39.2371 2194.87 49.9314 Q2194.87 60.6258 2189.69 67.1883 Q2184.54 73.7508 2176.28 73.7508 Q2171.3 73.7508 2167.69 71.8063 Q2164.13 69.8214 2161.78 65.7705 M2187.14 49.9314 Q2187.14 41.7081 2183.73 37.0496 Q2180.37 32.3505 2174.46 32.3505 Q2168.54 32.3505 2165.14 37.0496 Q2161.78 41.7081 2161.78 49.9314 Q2161.78 58.1548 2165.14 62.8538 Q2168.54 67.5124 2174.46 67.5124 Q2180.37 67.5124 2183.73 62.8538 Q2187.14 58.1548 2187.14 49.9314 Z" fill="#000000" fill-rule="evenodd" fill-opacity="1" /><path clip-path="url(#clip370)" d="M 0 0 M1871.16 1515.82 Q1871.16 1517.63 1870.04 1518.66 Q1868.91 1519.65 1867.62 1519.65 Q1866.4 1519.65 1865.75 1518.95 Q1865.11 1518.24 1865.11 1517.34 Q1865.11 1516.11 1866.01 1515.05 Q1866.91 1513.99 1868.27 1513.76 Q1866.94 1512.92 1864.98 1512.92 Q1863.69 1512.92 1862.56 1513.6 Q1861.47 1514.28 1860.79 1515.15 Q1860.15 1516.02 1859.57 1517.27 Q1859.02 1518.5 1858.8 1519.24 Q1858.6 1519.94 1858.44 1520.72 L1856.19 1529.74 Q1855.09 1534.02 1855.09 1535.53 Q1855.09 1537.4 1855.99 1538.66 Q1856.9 1539.88 1858.7 1539.88 Q1859.41 1539.88 1860.21 1539.69 Q1861.02 1539.46 1862.05 1538.88 Q1863.11 1538.27 1864.05 1537.37 Q1865.01 1536.43 1865.95 1534.86 Q1866.88 1533.28 1867.49 1531.25 Q1867.69 1530.54 1868.33 1530.54 Q1869.13 1530.54 1869.13 1531.18 Q1869.13 1531.73 1868.68 1532.89 Q1868.27 1534.02 1867.33 1535.5 Q1866.43 1536.95 1865.24 1538.27 Q1864.05 1539.56 1862.27 1540.46 Q1860.5 1541.36 1858.57 1541.36 Q1855.8 1541.36 1853.97 1539.88 Q1852.13 1538.4 1851.45 1536.34 Q1851.29 1536.63 1851.07 1537.01 Q1850.84 1537.4 1850.17 1538.27 Q1849.52 1539.11 1848.78 1539.75 Q1848.04 1540.36 1846.88 1540.85 Q1845.75 1541.36 1844.53 1541.36 Q1842.98 1541.36 1841.6 1540.91 Q1840.25 1540.46 1839.28 1539.43 Q1838.31 1538.4 1838.31 1536.98 Q1838.31 1535.4 1839.38 1534.31 Q1840.47 1533.18 1841.95 1533.18 Q1842.89 1533.18 1843.63 1533.73 Q1844.4 1534.28 1844.4 1535.47 Q1844.4 1536.79 1843.5 1537.79 Q1842.6 1538.79 1841.31 1539.04 Q1842.63 1539.88 1844.59 1539.88 Q1846.72 1539.88 1848.39 1538.01 Q1850.07 1536.14 1850.87 1533.02 Q1852.87 1525.52 1853.64 1522.17 Q1854.42 1518.79 1854.42 1517.34 Q1854.42 1515.98 1854.06 1515.05 Q1853.71 1514.12 1853.1 1513.7 Q1852.52 1513.25 1851.97 1513.08 Q1851.45 1512.92 1850.87 1512.92 Q1849.91 1512.92 1848.81 1513.31 Q1847.75 1513.7 1846.46 1514.6 Q1845.21 1515.47 1844.01 1517.27 Q1842.82 1519.08 1842.02 1521.55 Q1841.86 1522.3 1841.15 1522.3 Q1840.37 1522.26 1840.37 1521.62 Q1840.37 1521.07 1840.79 1519.94 Q1841.24 1518.79 1842.15 1517.34 Q1843.08 1515.89 1844.27 1514.6 Q1845.5 1513.28 1847.27 1512.38 Q1849.07 1511.47 1851 1511.47 Q1851.87 1511.47 1852.71 1511.67 Q1853.58 1511.83 1854.61 1512.31 Q1855.67 1512.79 1856.61 1513.86 Q1857.54 1514.92 1858.12 1516.47 Q1858.51 1515.73 1859.02 1515.02 Q1859.57 1514.31 1860.41 1513.44 Q1861.28 1512.54 1862.47 1512.02 Q1863.69 1511.47 1865.04 1511.47 Q1866.37 1511.47 1867.65 1511.83 Q1868.94 1512.15 1870.04 1513.21 Q1871.16 1514.24 1871.16 1515.82 Z" fill="#000000" fill-rule="evenodd" fill-opacity="1" /><path clip-path="url(#clip370)" d="M 0 0 M1877.9 1533.19 L1877.9 1531.74 Q1883.45 1531.74 1886.31 1528.79 Q1887.1 1528.79 1887.23 1528.97 Q1887.37 1529.15 1887.37 1529.98 L1887.37 1555.89 Q1887.37 1557.26 1888.05 1557.69 Q1888.72 1558.12 1891.68 1558.12 L1893.14 1558.12 L1893.14 1559.54 Q1891.52 1559.4 1885.66 1559.4 Q1879.79 1559.4 1878.19 1559.54 L1878.19 1558.12 L1879.66 1558.12 Q1882.57 1558.12 1883.27 1557.71 Q1883.97 1557.29 1883.97 1555.89 L1883.97 1531.97 Q1881.55 1533.19 1877.9 1533.19 Z" fill="#000000" fill-rule="evenodd" fill-opacity="1" /><path clip-path="url(#clip370)" d="M 0 0 M1264.26 783.688 Q1266.06 783.688 1267.09 784.815 Q1268.09 785.942 1268.09 787.23 Q1268.09 788.454 1267.38 789.098 Q1266.68 789.742 1265.77 789.742 Q1264.55 789.742 1263.49 788.841 Q1262.42 787.939 1262.2 786.586 Q1261.36 787.907 1261.36 789.871 Q1261.36 791.159 1262.04 792.287 Q1262.71 793.382 1263.58 794.058 Q1264.45 794.702 1265.71 795.282 Q1266.93 795.829 1267.67 796.055 Q1268.38 796.248 1269.16 796.409 L1278.17 798.663 Q1282.46 799.758 1283.97 799.758 Q1285.84 799.758 1287.09 798.857 Q1288.32 797.955 1288.32 796.151 Q1288.32 795.443 1288.12 794.638 Q1287.9 793.833 1287.32 792.802 Q1286.71 791.739 1285.81 790.805 Q1284.87 789.839 1283.29 788.905 Q1281.72 787.971 1279.69 787.359 Q1278.98 787.166 1278.98 786.522 Q1278.98 785.717 1279.62 785.717 Q1280.17 785.717 1281.33 786.168 Q1282.46 786.586 1283.94 787.52 Q1285.39 788.422 1286.71 789.614 Q1288 790.805 1288.9 792.577 Q1289.8 794.348 1289.8 796.28 Q1289.8 799.05 1288.32 800.886 Q1286.84 802.721 1284.77 803.398 Q1285.06 803.559 1285.45 803.784 Q1285.84 804.01 1286.71 804.686 Q1287.54 805.33 1288.19 806.071 Q1288.8 806.812 1289.28 807.971 Q1289.8 809.098 1289.8 810.322 Q1289.8 811.868 1289.35 813.253 Q1288.9 814.605 1287.87 815.572 Q1286.84 816.538 1285.42 816.538 Q1283.84 816.538 1282.75 815.475 Q1281.62 814.38 1281.62 812.898 Q1281.62 811.964 1282.17 811.224 Q1282.71 810.451 1283.91 810.451 Q1285.23 810.451 1286.22 811.353 Q1287.22 812.254 1287.48 813.543 Q1288.32 812.222 1288.32 810.258 Q1288.32 808.132 1286.45 806.457 Q1284.58 804.783 1281.46 803.977 Q1273.95 801.981 1270.6 801.208 Q1267.22 800.435 1265.77 800.435 Q1264.42 800.435 1263.49 800.789 Q1262.55 801.143 1262.13 801.755 Q1261.68 802.335 1261.52 802.882 Q1261.36 803.398 1261.36 803.977 Q1261.36 804.944 1261.75 806.039 Q1262.13 807.101 1263.04 808.39 Q1263.91 809.646 1265.71 810.837 Q1267.51 812.029 1269.99 812.834 Q1270.73 812.995 1270.73 813.704 Q1270.7 814.477 1270.06 814.477 Q1269.51 814.477 1268.38 814.058 Q1267.22 813.607 1265.77 812.705 Q1264.32 811.771 1263.04 810.58 Q1261.72 809.356 1260.81 807.584 Q1259.91 805.781 1259.91 803.849 Q1259.91 802.979 1260.11 802.142 Q1260.27 801.272 1260.75 800.242 Q1261.23 799.179 1262.3 798.245 Q1263.36 797.311 1264.9 796.731 Q1264.16 796.345 1263.45 795.829 Q1262.75 795.282 1261.88 794.444 Q1260.97 793.575 1260.46 792.383 Q1259.91 791.159 1259.91 789.807 Q1259.91 788.486 1260.27 787.198 Q1260.59 785.91 1261.65 784.815 Q1262.68 783.688 1264.26 783.688 Z" fill="#000000" fill-rule="evenodd" fill-opacity="1" /><path clip-path="url(#clip370)" d="M 0 0 M1307.98 776.951 Q1307.14 776.951 1306.9 776.883 Q1306.65 776.793 1306.26 776.432 L1296.39 767.572 Q1290.93 762.725 1286.18 762.725 Q1283.09 762.725 1280.88 764.349 Q1278.67 765.949 1278.67 768.903 Q1278.67 770.932 1279.91 772.645 Q1281.15 774.358 1283.36 775.147 Q1283.31 775.012 1283.31 774.539 Q1283.31 773.389 1284.04 772.758 Q1284.76 772.104 1285.73 772.104 Q1286.97 772.104 1287.57 772.915 Q1288.16 773.704 1288.16 774.494 Q1288.16 774.809 1288.09 775.237 Q1288.03 775.643 1287.39 776.297 Q1286.74 776.951 1285.59 776.951 Q1282.37 776.951 1279.8 774.516 Q1277.23 772.059 1277.23 768.316 Q1277.23 764.078 1279.75 761.305 Q1282.25 758.51 1286.18 758.51 Q1287.55 758.51 1288.81 758.938 Q1290.05 759.344 1291.02 759.907 Q1291.99 760.449 1293.55 761.936 Q1295.1 763.424 1296.21 764.619 Q1297.31 765.814 1299.66 768.497 L1304.42 773.389 L1304.42 765.07 Q1304.42 761.012 1304.05 760.697 Q1303.4 760.246 1299.95 759.682 L1299.95 758.51 L1307.98 759.817 L1307.98 776.951 Z" fill="#000000" fill-rule="evenodd" fill-opacity="1" /><polyline clip-path="url(#clip373)" style="stroke:#009af9; stroke-width:4; stroke-opacity:1; fill:none" points="
  2325.38,555.984 2325.36,558.385 2325.28,560.811 2325.16,563.261 2324.98,565.736 2324.76,568.234 2324.48,570.757 2324.16,573.302 2323.78,575.871 2323.36,578.463 
  2322.88,581.077 2322.36,583.713 2321.79,586.371 2321.16,589.051 2320.49,591.753 2319.77,594.475 2318.99,597.219 2318.17,599.982 2317.3,602.766 2316.38,605.57 
  2315.41,608.394 2314.4,611.236 2313.33,614.098 2312.22,616.978 2311.05,619.877 2309.84,622.793 2308.58,625.728 2307.27,628.679 2305.91,631.648 2304.51,634.634 
  2303.06,637.635 2301.56,640.653 2300.01,643.687 2298.41,646.736 2296.77,649.8 2295.08,652.879 2293.35,655.972 2291.57,659.079 2289.74,662.2 2287.86,665.335 
  2285.94,668.482 2283.98,671.642 2281.97,674.814 2279.91,677.999 2277.81,681.194 2275.66,684.402 2273.47,687.62 2271.23,690.849 2268.95,694.088 2266.63,697.336 
  2264.26,700.595 2261.85,703.862 2259.4,707.139 2256.9,710.423 2254.37,713.716 2251.78,717.017 2249.16,720.325 2246.5,723.64 2243.79,726.961 2241.04,730.289 
  2238.26,733.623 2235.43,736.962 2232.56,740.306 2229.65,743.655 2226.7,747.009 2223.72,750.367 2220.69,753.728 2217.63,757.093 2214.52,760.46 2211.38,763.831 
  2208.21,767.203 2204.99,770.578 2201.74,773.953 2198.45,777.33 2195.12,780.708 2191.76,784.086 2188.37,787.464 2184.94,790.842 2181.47,794.219 2177.97,797.594 
  2174.44,800.969 2170.87,804.341 2167.27,807.712 2163.64,811.079 2159.98,814.444 2156.28,817.805 2152.55,821.163 2148.79,824.517 2145,827.866 2141.18,831.21 
  2137.33,834.549 2133.45,837.883 2129.54,841.211 2125.6,844.532 2121.64,847.847 2117.65,851.155 2113.63,854.456 2109.58,857.749 2105.51,861.033 2101.41,864.31 
  2097.28,867.577 2093.13,870.835 2088.96,874.084 2084.76,877.323 2080.54,880.552 2076.29,883.77 2072.02,886.977 2067.73,890.173 2063.42,893.358 2059.09,896.53 
  2054.73,899.69 2050.36,902.837 2045.97,905.972 2041.55,909.093 2037.12,912.2 2032.67,915.293 2028.2,918.372 2023.71,921.436 2019.21,924.485 2014.69,927.519 
  2010.15,930.537 2005.6,933.538 2001.04,936.524 1996.46,939.492 1991.86,942.444 1987.25,945.378 1982.63,948.295 1978,951.194 1973.35,954.074 1968.7,956.936 
  1964.03,959.778 1959.35,962.602 1954.66,965.406 1949.97,968.19 1945.26,970.953 1940.55,973.697 1935.82,976.419 1931.09,979.121 1926.36,981.801 1921.61,984.459 
  1916.87,987.095 1912.11,989.709 1907.35,992.301 1902.59,994.87 1897.82,997.415 1893.06,999.937 1888.28,1002.44 1883.51,1004.91 1878.73,1007.36 1873.96,1009.79 
  1869.18,1012.19 1864.4,1014.56 1859.63,1016.92 1854.85,1019.24 1850.08,1021.54 1845.3,1023.81 1840.53,1026.06 1835.77,1028.28 1831.01,1030.48 1826.25,1032.64 
  1821.49,1034.78 1816.74,1036.89 1812,1038.98 1807.27,1041.03 1802.54,1043.06 1797.81,1045.06 1793.1,1047.03 1788.39,1048.98 1783.7,1050.89 1779.01,1052.77 
  1774.33,1054.63 1769.66,1056.45 1765,1058.25 1760.36,1060.01 1755.73,1061.75 1751.11,1063.45 1746.5,1065.13 1741.9,1066.77 1737.32,1068.38 1732.76,1069.96 
  1728.2,1071.51 1723.67,1073.03 1719.15,1074.52 1714.65,1075.97 1710.16,1077.39 1705.69,1078.78 1701.24,1080.14 1696.81,1081.47 1692.39,1082.76 1688,1084.02 
  1683.62,1085.25 1679.27,1086.44 1674.94,1087.6 1670.63,1088.73 1666.34,1089.82 1662.07,1090.88 1657.82,1091.91 1653.6,1092.9 1649.4,1093.86 1645.23,1094.79 
  1641.08,1095.68 1636.95,1096.54 1632.85,1097.36 1628.78,1098.15 1624.73,1098.9 1620.71,1099.62 1616.72,1100.31 1612.75,1100.96 1608.82,1101.57 1604.91,1102.15 
  1601.03,1102.7 1597.18,1103.21 1593.36,1103.69 1589.57,1104.13 1585.81,1104.53 1582.08,1104.9 1578.38,1105.24 1574.72,1105.54 1571.09,1105.8 1567.49,1106.03 
  1563.92,1106.23 1560.39,1106.39 1556.89,1106.51 1553.42,1106.6 1549.99,1106.65 1546.59,1106.67 1543.23,1106.65 1539.91,1106.6 1536.62,1106.51 1533.37,1106.39 
  1530.15,1106.23 1526.98,1106.03 1523.84,1105.8 1520.73,1105.54 1517.67,1105.24 1514.64,1104.9 1511.66,1104.53 1508.71,1104.13 1505.8,1103.69 1502.93,1103.21 
  1500.1,1102.7 1497.31,1102.15 1494.57,1101.57 1491.86,1100.96 1489.2,1100.31 1486.57,1099.62 1483.99,1098.9 1481.46,1098.15 1478.96,1097.36 1476.51,1096.54 
  1474.1,1095.68 1471.73,1094.79 1469.4,1093.86 1467.13,1092.9 1464.89,1091.91 1462.7,1090.88 1460.55,1089.82 1458.45,1088.73 1456.39,1087.6 1454.38,1086.44 
  1452.42,1085.25 1450.5,1084.02 1448.62,1082.76 1446.79,1081.47 1445.01,1080.14 1443.28,1078.78 1441.59,1077.39 1439.95,1075.97 1438.35,1074.52 1436.8,1073.03 
  1435.3,1071.51 1433.85,1069.96 1432.45,1068.38 1431.09,1066.77 1429.78,1065.13 1428.52,1063.45 1427.31,1061.75 1426.14,1060.01 1425.03,1058.25 1423.96,1056.45 
  1422.94,1054.63 1421.98,1052.77 1421.06,1050.89 1420.19,1048.98 1419.36,1047.03 1418.59,1045.06 1417.87,1043.06 1417.2,1041.03 1416.57,1038.98 1416,1036.89 
  1415.47,1034.78 1415,1032.64 1414.58,1030.48 1414.2,1028.28 1413.88,1026.06 1413.6,1023.81 1413.38,1021.54 1413.2,1019.24 1413.08,1016.92 1413,1014.56 
  1412.98,1012.19 1413,1009.79 1413.08,1007.36 1413.2,1004.91 1413.38,1002.44 1413.6,999.937 1413.88,997.415 1414.2,994.87 1414.58,992.301 1415,989.709 
  1415.47,987.095 1416,984.459 1416.57,981.801 1417.2,979.121 1417.87,976.419 1418.59,973.697 1419.36,970.953 1420.19,968.19 1421.06,965.406 1421.98,962.602 
  1422.94,959.778 1423.96,956.936 1425.03,954.074 1426.14,951.194 1427.31,948.295 1428.52,945.378 1429.78,942.444 1431.09,939.492 1432.45,936.524 1433.85,933.538 
  1435.3,930.537 1436.8,927.519 1438.35,924.485 1439.95,921.436 1441.59,918.372 1443.28,915.293 1445.01,912.2 1446.79,909.093 1448.62,905.972 1450.5,902.837 
  1452.42,899.69 1454.38,896.53 1456.39,893.358 1458.45,890.173 1460.55,886.977 1462.7,883.77 1464.89,880.552 1467.13,877.323 1469.4,874.084 1471.73,870.835 
  1474.1,867.577 1476.51,864.31 1478.96,861.033 1481.46,857.749 1483.99,854.456 1486.57,851.155 1489.2,847.847 1491.86,844.532 1494.57,841.211 1497.31,837.883 
  1500.1,834.549 1502.93,831.21 1505.8,827.866 1508.71,824.517 1511.66,821.163 1514.64,817.805 1517.67,814.444 1520.73,811.079 1523.84,807.712 1526.98,804.341 
  1530.15,800.969 1533.37,797.594 1536.62,794.219 1539.91,790.842 1543.23,787.464 1546.59,784.086 1549.99,780.708 1553.42,777.33 1556.89,773.953 1560.39,770.578 
  1563.92,767.203 1567.49,763.831 1571.09,760.46 1574.72,757.093 1578.38,753.728 1582.08,750.367 1585.81,747.009 1589.57,743.655 1593.36,740.306 1597.18,736.962 
  1601.03,733.623 1604.91,730.289 1608.82,726.961 1612.75,723.64 1616.72,720.325 1620.71,717.017 1624.73,713.716 1628.78,710.423 1632.85,707.139 1636.95,703.862 
  1641.08,700.595 1645.23,697.336 1649.4,694.088 1653.6,690.849 1657.82,687.62 1662.07,684.402 1666.34,681.194 1670.63,677.999 1674.94,674.814 1679.27,671.642 
  1683.62,668.482 1688,665.335 1692.39,662.2 1696.81,659.079 1701.24,655.972 1705.69,652.879 1710.16,649.8 1714.65,646.736 1719.15,643.687 1723.67,640.653 
  1728.2,637.635 1732.76,634.634 1737.32,631.648 1741.9,628.679 1746.5,625.728 1751.11,622.793 1755.73,619.877 1760.36,616.978 1765,614.098 1769.66,611.236 
  1774.33,608.394 1779.01,605.57 1783.7,602.766 1788.39,599.982 1793.1,597.219 1797.81,594.475 1802.54,591.753 1807.27,589.051 1812,586.371 1816.74,583.713 
  1821.49,581.077 1826.25,578.463 1831.01,575.871 1835.77,573.302 1840.53,570.757 1845.3,568.234 1850.08,565.736 1854.85,563.261 1859.63,560.811 1864.4,558.385 
  1869.18,555.984 1873.96,553.608 1878.73,551.257 1883.51,548.932 1888.28,546.632 1893.06,544.359 1897.82,542.111 1902.59,539.891 1907.35,537.697 1912.11,535.53 
  1916.87,533.39 1921.61,531.278 1926.36,529.194 1931.09,527.137 1935.82,525.109 1940.55,523.109 1945.26,521.138 1949.97,519.196 1954.66,517.282 1959.35,515.398 
  1964.03,513.543 1968.7,511.718 1973.35,509.923 1978,508.158 1982.63,506.424 1987.25,504.719 1991.86,503.045 1996.46,501.403 2001.04,499.791 2005.6,498.21 
  2010.15,496.661 2014.69,495.143 2019.21,493.657 2023.71,492.202 2028.2,490.78 2032.67,489.39 2037.12,488.032 2041.55,486.707 2045.97,485.414 2050.36,484.154 
  2054.73,482.927 2059.09,481.733 2063.42,480.572 2067.73,479.444 2072.02,478.35 2076.29,477.289 2080.54,476.262 2084.76,475.269 2088.96,474.31 2093.13,473.384 
  2097.28,472.493 2101.41,471.636 2105.51,470.813 2109.58,470.024 2113.63,469.27 2117.65,468.55 2121.64,467.865 2125.6,467.215 2129.54,466.599 2133.45,466.018 
  2137.33,465.473 2141.18,464.962 2145,464.486 2148.79,464.045 2152.55,463.639 2156.28,463.268 2159.98,462.933 2163.64,462.632 2167.27,462.367 2170.87,462.138 
  2174.44,461.943 2177.97,461.784 2181.47,461.66 2184.94,461.572 2188.37,461.519 2191.76,461.501 2195.12,461.519 2198.45,461.572 2201.74,461.66 2204.99,461.784 
  2208.21,461.943 2211.38,462.138 2214.52,462.367 2217.63,462.632 2220.69,462.933 2223.72,463.268 2226.7,463.639 2229.65,464.045 2232.56,464.486 2235.43,464.962 
  2238.26,465.473 2241.04,466.018 2243.79,466.599 2246.5,467.215 2249.16,467.865 2251.78,468.55 2254.37,469.27 2256.9,470.024 2259.4,470.813 2261.85,471.636 
  2264.26,472.493 2266.63,473.384 2268.95,474.31 2271.23,475.269 2273.47,476.262 2275.66,477.289 2277.81,478.35 2279.91,479.444 2281.97,480.572 2283.98,481.733 
  2285.94,482.927 2287.86,484.154 2289.74,485.414 2291.57,486.707 2293.35,488.032 2295.08,489.39 2296.77,490.78 2298.41,492.202 2300.01,493.657 2301.56,495.143 
  2303.06,496.661 2304.51,498.21 2305.91,499.791 2307.27,501.403 2308.58,503.045 2309.84,504.719 2311.05,506.424 2312.22,508.158 2313.33,509.923 2314.4,511.718 
  2315.41,513.543 2316.38,515.398 2317.3,517.282 2318.17,519.196 2318.99,521.138 2319.77,523.109 2320.49,525.109 2321.16,527.137 2321.79,529.194 2322.36,531.278 
  2322.88,533.39 2323.36,535.53 2323.78,537.697 2324.16,539.891 2324.48,542.111 2324.76,544.359 2324.98,546.632 2325.16,548.932 2325.28,551.257 2325.36,553.608 
  2325.38,555.984 
  "/>
</svg>
