<?xml version="1.0" encoding="utf-8"?>
<svg xmlns="http://www.w3.org/2000/svg" xmlns:xlink="http://www.w3.org/1999/xlink" width="600" height="400" viewBox="0 0 2400 1600">
<defs>
  <clipPath id="clip620">
    <rect x="0" y="0" width="2400" height="1600"/>
  </clipPath>
</defs>
<path clip-path="url(#clip620)" d="
M0 1600 L2400 1600 L2400 0 L0 0  Z
  " fill="#ffffff" fill-rule="evenodd" fill-opacity="1"/>
<defs>
  <clipPath id="clip621">
    <rect x="480" y="0" width="1681" height="1600"/>
  </clipPath>
</defs>
<path clip-path="url(#clip620)" d="
M146.714 1486.45 L2352.76 1486.45 L2352.76 47.2441 L146.714 47.2441  Z
  " fill="#ffffff" fill-rule="evenodd" fill-opacity="1"/>
<defs>
  <clipPath id="clip622">
    <rect x="146" y="47" width="2207" height="1440"/>
  </clipPath>
</defs>
<polyline clip-path="url(#clip622)" style="stroke:#009af9; stroke-width:8; stroke-opacity:1; fill:none" points="
  209.149,895.239 214.23,889.921 219.311,884.536 224.392,879.084 229.474,873.565 276.455,819.4 323.437,759.807 370.419,695.39 417.401,627.156 473.87,542.163 
  530.338,457.108 578.082,388.18 625.825,324.927 677.688,265.956 729.55,220.442 753.457,204.8 777.363,192.843 801.269,184.736 825.176,180.595 850.806,180.626 
  876.436,185.281 902.066,194.483 927.696,208.085 957.392,229.056 987.087,255.198 1016.78,285.976 1046.48,320.786 1152.03,467.118 1244.6,606.822 1295.06,680.909 
  1345.52,750.915 1396.28,815.864 1447.04,874.515 1503.16,931.63 1559.28,980.685 1612.68,1020.26 1666.08,1053.47 1721.6,1081.92 1777.12,1104.89 1823.86,1120.46 
  1870.6,1132.97 1927.66,1144.55 1984.72,1152.44 2038.36,1156.8 2092,1158.34 2177.94,1155.05 2263.87,1144.34 2277.1,1141.98 2290.32,1139.42 
  "/>
<polyline clip-path="url(#clip622)" style="stroke:#000000; stroke-width:8; stroke-opacity:1; fill:none" points="
  209.149,895.239 556.011,419.511 902.873,194.846 1249.73,614.498 1596.6,1009.04 1943.46,1147.08 2290.32,1139.42 
  "/>
<circle clip-path="url(#clip622)" cx="209.149" cy="895.239" r="18" fill="#000000" fill-rule="evenodd" fill-opacity="1" stroke="none"/>
<circle clip-path="url(#clip622)" cx="556.011" cy="419.511" r="18" fill="#000000" fill-rule="evenodd" fill-opacity="1" stroke="none"/>
<circle clip-path="url(#clip622)" cx="902.873" cy="194.846" r="18" fill="#000000" fill-rule="evenodd" fill-opacity="1" stroke="none"/>
<circle clip-path="url(#clip622)" cx="1249.73" cy="614.498" r="18" fill="#000000" fill-rule="evenodd" fill-opacity="1" stroke="none"/>
<circle clip-path="url(#clip622)" cx="1596.6" cy="1009.04" r="18" fill="#000000" fill-rule="evenodd" fill-opacity="1" stroke="none"/>
<circle clip-path="url(#clip622)" cx="1943.46" cy="1147.08" r="18" fill="#000000" fill-rule="evenodd" fill-opacity="1" stroke="none"/>
<circle clip-path="url(#clip622)" cx="2290.32" cy="1139.42" r="18" fill="#000000" fill-rule="evenodd" fill-opacity="1" stroke="none"/>
<polyline clip-path="url(#clip622)" style="stroke:#000000; stroke-width:4; stroke-opacity:1; fill:none" stroke-dasharray="16, 10" points="
  209.149,895.239 209.149,1353.1 
  "/>
<polyline clip-path="url(#clip622)" style="stroke:#000000; stroke-width:4; stroke-opacity:1; fill:none" stroke-dasharray="16, 10" points="
  556.011,419.511 556.011,1353.1 
  "/>
<polyline clip-path="url(#clip622)" style="stroke:#000000; stroke-width:4; stroke-opacity:1; fill:none" stroke-dasharray="16, 10" points="
  902.873,194.846 902.873,1353.1 
  "/>
<polyline clip-path="url(#clip622)" style="stroke:#000000; stroke-width:4; stroke-opacity:1; fill:none" stroke-dasharray="16, 10" points="
  1249.73,614.498 1249.73,1353.1 
  "/>
<polyline clip-path="url(#clip622)" style="stroke:#000000; stroke-width:4; stroke-opacity:1; fill:none" stroke-dasharray="16, 10" points="
  1596.6,1009.04 1596.6,1353.1 
  "/>
<polyline clip-path="url(#clip622)" style="stroke:#000000; stroke-width:4; stroke-opacity:1; fill:none" stroke-dasharray="16, 10" points="
  1943.46,1147.08 1943.46,1353.1 
  "/>
<polyline clip-path="url(#clip622)" style="stroke:#000000; stroke-width:4; stroke-opacity:1; fill:none" stroke-dasharray="16, 10" points="
  2290.32,1139.42 2290.32,1353.1 
  "/>
<path clip-path="url(#clip622)" d="
M902.873 1353.1 L1249.73 1353.1 L1249.73 614.498 L902.873 194.846 L902.873 1353.1  Z
  " fill="#000000" fill-rule="evenodd" fill-opacity="0.2"/>
<polyline clip-path="url(#clip622)" style="stroke:#000000; stroke-width:8; stroke-opacity:0; fill:none" points="
  902.873,1353.1 1249.73,1353.1 1249.73,614.498 902.873,194.846 902.873,1353.1 
  "/>
<path clip-path="url(#clip620)" d="M 0 0 M200.969 1393.54 Q200.969 1394.69 200.436 1394.97 Q199.903 1395.22 198.428 1395.22 L190.558 1395.22 L184.327 1419.98 Q183.836 1422.15 183.836 1423.99 Q183.836 1426.04 184.45 1426.95 Q185.106 1427.85 186.459 1427.85 Q189.123 1427.85 191.992 1425.43 Q194.903 1423.01 197.362 1417.11 Q197.69 1416.33 197.854 1416.17 Q198.059 1415.96 198.592 1415.96 Q199.616 1415.96 199.616 1416.78 Q199.616 1417.07 199.043 1418.38 Q198.51 1419.69 197.321 1421.62 Q196.173 1423.54 194.657 1425.35 Q193.181 1427.15 190.927 1428.46 Q188.672 1429.73 186.254 1429.73 Q182.852 1429.73 180.679 1427.56 Q178.548 1425.39 178.548 1421.99 Q178.548 1420.88 179.409 1417.35 Q180.27 1413.79 184.942 1395.22 L177.523 1395.22 Q176.498 1395.22 176.089 1395.18 Q175.72 1395.14 175.433 1394.93 Q175.187 1394.69 175.187 1394.2 Q175.187 1393.42 175.515 1393.09 Q175.843 1392.72 176.253 1392.68 Q176.703 1392.6 177.728 1392.6 L185.598 1392.6 L188.877 1379.28 Q189.205 1377.96 190.025 1377.23 Q190.886 1376.45 191.378 1376.37 Q191.869 1376.24 192.238 1376.24 Q193.345 1376.24 194.001 1376.86 Q194.657 1377.43 194.657 1378.5 Q194.657 1379.07 191.214 1392.6 L198.592 1392.6 Q199.534 1392.6 199.903 1392.64 Q200.313 1392.68 200.641 1392.88 Q200.969 1393.09 200.969 1393.54 Z" fill="#000000" fill-rule="evenodd" fill-opacity="1" /><path clip-path="url(#clip620)" d="M 0 0 M209.662 1434.15 Q209.662 1425.52 211.843 1420.81 Q214.884 1413.81 222.058 1413.81 Q223.578 1413.81 225.156 1414.24 Q226.763 1414.64 228.772 1416.22 Q230.809 1417.8 232.043 1420.38 Q234.395 1425.37 234.395 1434.15 Q234.395 1442.73 232.215 1447.41 Q229.03 1454.24 222 1454.24 Q219.361 1454.24 216.663 1452.89 Q213.995 1451.54 212.302 1448.3 Q209.662 1443.45 209.662 1434.15 M214.54 1433.44 Q214.54 1442.3 215.171 1445.83 Q215.889 1449.65 217.84 1451.31 Q219.82 1452.95 222 1452.95 Q224.353 1452.95 226.304 1451.2 Q228.284 1449.42 228.886 1445.6 Q229.546 1441.84 229.518 1433.44 Q229.518 1425.26 228.944 1421.99 Q228.169 1418.17 226.103 1416.65 Q224.066 1415.1 222 1415.1 Q221.226 1415.1 220.393 1415.33 Q219.59 1415.56 218.414 1416.22 Q217.237 1416.88 216.319 1418.52 Q215.43 1420.15 214.999 1422.62 Q214.54 1425.8 214.54 1433.44 Z" fill="#000000" fill-rule="evenodd" fill-opacity="1" /><path clip-path="url(#clip620)" d="M 0 0 M550.472 1394.18 Q550.472 1395.33 549.94 1395.61 Q549.407 1395.86 547.931 1395.86 L540.061 1395.86 L533.831 1420.62 Q533.339 1422.79 533.339 1424.63 Q533.339 1426.68 533.954 1427.59 Q534.61 1428.49 535.962 1428.49 Q538.627 1428.49 541.496 1426.07 Q544.406 1423.65 546.865 1417.75 Q547.193 1416.97 547.357 1416.81 Q547.562 1416.6 548.095 1416.6 Q549.12 1416.6 549.12 1417.42 Q549.12 1417.71 548.546 1419.02 Q548.013 1420.33 546.824 1422.26 Q545.677 1424.18 544.16 1425.99 Q542.684 1427.79 540.43 1429.1 Q538.176 1430.37 535.757 1430.37 Q532.355 1430.37 530.183 1428.2 Q528.051 1426.03 528.051 1422.63 Q528.051 1421.52 528.912 1417.99 Q529.773 1414.43 534.446 1395.86 L527.027 1395.86 Q526.002 1395.86 525.592 1395.82 Q525.223 1395.78 524.936 1395.57 Q524.69 1395.33 524.69 1394.84 Q524.69 1394.06 525.018 1393.73 Q525.346 1393.36 525.756 1393.32 Q526.207 1393.24 527.232 1393.24 L535.101 1393.24 L538.381 1379.92 Q538.709 1378.6 539.528 1377.87 Q540.389 1377.09 540.881 1377.01 Q541.373 1376.88 541.742 1376.88 Q542.848 1376.88 543.504 1377.5 Q544.16 1378.07 544.16 1379.14 Q544.16 1379.71 540.717 1393.24 L548.095 1393.24 Q549.038 1393.24 549.407 1393.28 Q549.817 1393.32 550.145 1393.52 Q550.472 1393.73 550.472 1394.18 Z" fill="#000000" fill-rule="evenodd" fill-opacity="1" /><path clip-path="url(#clip620)" d="M 0 0 M559.166 1420.04 L559.166 1418.21 Q566.224 1418.21 569.868 1414.45 Q570.872 1414.45 571.044 1414.68 Q571.217 1414.91 571.217 1415.97 L571.217 1448.94 Q571.217 1450.69 572.077 1451.23 Q572.938 1451.78 576.697 1451.78 L578.562 1451.78 L578.562 1453.59 Q576.496 1453.41 569.036 1453.41 Q561.576 1453.41 559.539 1453.59 L559.539 1451.78 L561.404 1451.78 Q565.105 1451.78 565.995 1451.26 Q566.884 1450.72 566.884 1448.94 L566.884 1418.5 Q563.814 1420.04 559.166 1420.04 Z" fill="#000000" fill-rule="evenodd" fill-opacity="1" /><path clip-path="url(#clip620)" d="M 0 0 M2278.62 1397.76 Q2278.62 1398.91 2278.09 1399.19 Q2277.55 1399.44 2276.08 1399.44 L2268.21 1399.44 L2261.98 1424.2 Q2261.49 1426.37 2261.49 1428.21 Q2261.49 1430.26 2262.1 1431.17 Q2262.76 1432.07 2264.11 1432.07 Q2266.77 1432.07 2269.64 1429.65 Q2272.55 1427.23 2275.01 1421.33 Q2275.34 1420.55 2275.5 1420.39 Q2275.71 1420.18 2276.24 1420.18 Q2277.27 1420.18 2277.27 1421 Q2277.27 1421.29 2276.69 1422.6 Q2276.16 1423.91 2274.97 1425.84 Q2273.82 1427.76 2272.31 1429.57 Q2270.83 1431.37 2268.58 1432.68 Q2266.32 1433.95 2263.9 1433.95 Q2260.5 1433.95 2258.33 1431.78 Q2256.2 1429.61 2256.2 1426.21 Q2256.2 1425.1 2257.06 1421.57 Q2257.92 1418.01 2262.59 1399.44 L2255.17 1399.44 Q2254.15 1399.44 2253.74 1399.4 Q2253.37 1399.36 2253.08 1399.15 Q2252.84 1398.91 2252.84 1398.42 Q2252.84 1397.64 2253.16 1397.31 Q2253.49 1396.94 2253.9 1396.9 Q2254.35 1396.82 2255.38 1396.82 L2263.25 1396.82 L2266.53 1383.5 Q2266.85 1382.18 2267.67 1381.45 Q2268.54 1380.67 2269.03 1380.58 Q2269.52 1380.46 2269.89 1380.46 Q2270.99 1380.46 2271.65 1381.08 Q2272.31 1381.65 2272.31 1382.72 Q2272.31 1383.29 2268.86 1396.82 L2276.24 1396.82 Q2277.18 1396.82 2277.55 1396.86 Q2277.96 1396.9 2278.29 1397.1 Q2278.62 1397.31 2278.62 1397.76 Z" fill="#000000" fill-rule="evenodd" fill-opacity="1" /><path clip-path="url(#clip620)" d="M 0 0 M2319.16 1440.94 Q2319.16 1441.17 2318.9 1442.06 Q2318.64 1442.95 2318.01 1444.33 Q2317.41 1445.71 2316.58 1446.97 Q2315.75 1448.2 2314.37 1449.12 Q2313.02 1450.01 2311.47 1450.01 Q2309.41 1450.01 2308.03 1448.63 Q2306.65 1447.26 2306.65 1445.19 Q2306.65 1444.04 2307.25 1442.46 Q2311.07 1432.28 2311.07 1428.78 Q2311.07 1424.67 2307.88 1424.67 Q2306.31 1424.67 2304.81 1425.28 Q2303.35 1425.85 2302.35 1426.65 Q2301.34 1427.46 2300.42 1428.58 Q2299.54 1429.67 2299.08 1430.41 Q2298.65 1431.13 2298.3 1431.85 L2297.56 1434.77 Q2297.38 1435.58 2296.55 1438.71 L2295.26 1444.01 Q2294.34 1447.97 2294.14 1448.35 Q2293.85 1449.15 2293.22 1449.58 Q2292.59 1450.01 2291.96 1450.01 Q2291.24 1450.01 2290.76 1449.58 Q2290.27 1449.15 2290.27 1448.4 Q2290.27 1448.29 2290.35 1447.86 Q2290.44 1447.43 2290.58 1446.82 Q2290.73 1446.22 2290.78 1445.88 L2294.2 1432.31 Q2294.83 1429.84 2294.97 1429.06 Q2295.15 1428.26 2295.15 1427.37 Q2295.15 1424.67 2293.31 1424.67 Q2291.82 1424.67 2290.84 1426.45 Q2289.87 1428.23 2289.03 1431.68 Q2288.78 1432.62 2288.6 1432.82 Q2288.46 1433.02 2288.03 1433.02 Q2287.31 1433 2287.31 1432.42 Q2287.31 1432.28 2287.54 1431.33 Q2287.77 1430.38 2288.2 1429.04 Q2288.66 1427.66 2289.09 1426.74 Q2289.46 1426.05 2289.66 1425.74 Q2289.89 1425.39 2290.44 1424.73 Q2291.01 1424.04 2291.76 1423.73 Q2292.53 1423.38 2293.48 1423.38 Q2295.6 1423.38 2297.15 1424.76 Q2298.7 1426.11 2298.9 1428.49 Q2302.72 1423.38 2308.06 1423.38 Q2311.21 1423.38 2313.02 1425.05 Q2314.83 1426.71 2314.83 1429.67 Q2314.83 1430.36 2314.68 1431.24 Q2314.57 1432.11 2314.28 1433.2 Q2314.02 1434.29 2313.8 1435.12 Q2313.57 1435.95 2313.11 1437.3 Q2312.65 1438.62 2312.45 1439.19 Q2312.25 1439.77 2311.76 1441.12 Q2311.3 1442.44 2311.24 1442.58 Q2310.18 1445.25 2310.18 1446.77 Q2310.18 1447.77 2310.5 1448.23 Q2310.84 1448.69 2311.59 1448.69 Q2313.59 1448.69 2315.09 1446.71 Q2316.61 1444.7 2317.58 1441.43 Q2317.81 1440.71 2317.93 1440.54 Q2318.07 1440.37 2318.47 1440.37 Q2319.16 1440.37 2319.16 1440.94 Z" fill="#000000" fill-rule="evenodd" fill-opacity="1" /><path clip-path="url(#clip620)" d="M 0 0 M556.846 196.605 Q556.846 198.859 555.412 200.253 Q554.018 201.646 552.256 201.646 Q550.985 201.646 550.042 200.868 Q549.14 200.089 549.14 198.736 Q549.14 197.343 550.206 195.867 Q551.272 194.391 553.69 194.186 Q552.092 192.67 549.55 192.67 Q548.28 192.67 547.214 193.49 Q546.189 194.268 545.615 195.539 Q545.001 196.851 543.607 204.27 Q543.156 206.688 542.746 209.025 Q542.336 211.361 541.844 213.82 L548.813 213.82 Q549.714 213.82 550.083 213.861 Q550.452 213.902 550.739 214.107 Q551.067 214.312 551.067 214.763 Q551.067 215.911 550.534 216.198 Q550.042 216.444 548.567 216.444 L541.352 216.444 L536.311 243.046 Q536.188 243.824 535.655 246.284 Q535.163 248.702 533.974 252.678 Q532.786 256.695 531.597 259.072 Q530.941 260.425 530.08 261.696 Q529.261 263.007 528.072 264.319 Q526.883 265.631 525.326 266.41 Q523.768 267.229 522.128 267.229 Q519.341 267.229 517.169 265.672 Q514.996 264.114 514.996 261.45 Q514.996 259.195 516.39 257.802 Q517.825 256.408 519.587 256.408 Q520.858 256.408 521.76 257.187 Q522.702 257.966 522.702 259.318 Q522.702 259.892 522.497 260.548 Q522.292 261.204 521.842 261.942 Q521.391 262.721 520.407 263.253 Q519.423 263.786 518.071 263.868 Q519.669 265.385 522.128 265.385 Q522.907 265.385 523.604 265.057 Q524.301 264.77 524.875 264.032 Q525.49 263.294 525.94 262.557 Q526.391 261.86 526.842 260.507 Q527.293 259.195 527.58 258.212 Q527.867 257.228 528.236 255.465 Q528.646 253.703 528.851 252.637 Q529.056 251.612 529.425 249.604 L535.696 216.444 L530.162 216.444 Q529.179 216.444 528.769 216.403 Q528.4 216.362 528.113 216.157 Q527.826 215.911 527.826 215.419 Q527.826 214.64 528.154 214.312 Q528.523 213.943 528.933 213.902 Q529.343 213.82 530.326 213.82 L536.147 213.82 Q538.114 203.45 538.893 200.663 Q539.795 197.712 541.189 195.662 Q542.582 193.572 544.14 192.588 Q545.697 191.604 546.968 191.235 Q548.28 190.825 549.55 190.825 Q552.42 190.825 554.633 192.383 Q556.846 193.9 556.846 196.605 Z" fill="#000000" fill-rule="evenodd" fill-opacity="1" /><path clip-path="url(#clip620)" d="M 0 0 M555.707 229.027 Q555.707 214.845 560.994 203.409 Q563.249 198.613 566.405 194.596 Q569.561 190.579 571.651 188.817 Q573.742 187.054 574.316 187.054 Q575.135 187.054 575.176 187.874 Q575.176 188.284 574.07 189.309 Q560.543 203.081 560.584 229.027 Q560.584 255.056 573.742 268.295 Q575.176 269.73 575.176 270.181 Q575.176 271 574.316 271 Q573.742 271 571.733 269.32 Q569.725 267.639 566.61 263.786 Q563.494 259.933 561.24 255.219 Q555.707 243.783 555.707 229.027 Z" fill="#000000" fill-rule="evenodd" fill-opacity="1" /><path clip-path="url(#clip620)" d="M 0 0 M618.654 218.452 Q618.654 220.747 617.219 222.059 Q615.785 223.33 614.145 223.33 Q612.588 223.33 611.768 222.428 Q610.948 221.526 610.948 220.379 Q610.948 218.821 612.096 217.468 Q613.243 216.116 614.965 215.829 Q613.284 214.763 610.784 214.763 Q609.144 214.763 607.71 215.624 Q606.316 216.485 605.455 217.591 Q604.636 218.698 603.898 220.297 Q603.201 221.854 602.914 222.797 Q602.668 223.699 602.463 224.682 L599.594 236.159 Q598.2 241.611 598.2 243.538 Q598.2 245.915 599.348 247.513 Q600.496 249.071 602.791 249.071 Q603.693 249.071 604.718 248.825 Q605.742 248.538 607.054 247.8 Q608.407 247.022 609.595 245.874 Q610.825 244.685 612.014 242.677 Q613.202 240.668 613.981 238.086 Q614.227 237.184 615.047 237.184 Q616.072 237.184 616.072 238.004 Q616.072 238.701 615.498 240.176 Q614.965 241.611 613.776 243.497 Q612.629 245.341 611.112 247.022 Q609.595 248.661 607.341 249.809 Q605.087 250.957 602.627 250.957 Q599.102 250.957 596.766 249.071 Q594.429 247.186 593.569 244.562 Q593.364 244.931 593.077 245.423 Q592.79 245.915 591.929 247.022 Q591.109 248.087 590.166 248.907 Q589.224 249.686 587.748 250.301 Q586.313 250.957 584.756 250.957 Q582.788 250.957 581.026 250.383 Q579.304 249.809 578.075 248.497 Q576.845 247.186 576.845 245.382 Q576.845 243.374 578.198 241.98 Q579.591 240.545 581.477 240.545 Q582.665 240.545 583.608 241.242 Q584.592 241.939 584.592 243.456 Q584.592 245.136 583.444 246.407 Q582.296 247.677 580.657 248.005 Q582.337 249.071 584.838 249.071 Q587.543 249.071 589.675 246.694 Q591.806 244.316 592.831 240.34 Q595.372 230.79 596.356 226.527 Q597.34 222.223 597.34 220.379 Q597.34 218.657 596.889 217.468 Q596.438 216.28 595.659 215.747 Q594.921 215.173 594.224 214.968 Q593.569 214.763 592.831 214.763 Q591.601 214.763 590.207 215.255 Q588.855 215.747 587.215 216.894 Q585.617 218.001 584.1 220.297 Q582.583 222.592 581.559 225.748 Q581.354 226.691 580.452 226.691 Q579.468 226.65 579.468 225.83 Q579.468 225.133 580.001 223.699 Q580.575 222.223 581.723 220.379 Q582.911 218.534 584.428 216.894 Q585.986 215.214 588.24 214.066 Q590.535 212.919 592.995 212.919 Q594.101 212.919 595.167 213.164 Q596.274 213.369 597.585 213.984 Q598.938 214.599 600.127 215.952 Q601.316 217.304 602.053 219.272 Q602.545 218.329 603.201 217.427 Q603.898 216.526 604.964 215.419 Q606.07 214.271 607.587 213.615 Q609.144 212.919 610.866 212.919 Q612.547 212.919 614.186 213.369 Q615.826 213.779 617.219 215.132 Q618.654 216.444 618.654 218.452 Z" fill="#000000" fill-rule="evenodd" fill-opacity="1" /><path clip-path="url(#clip620)" d="M 0 0 M624.374 270.181 Q624.374 269.771 625.44 268.746 Q638.966 254.974 638.966 229.027 Q638.966 202.999 625.972 189.842 Q624.374 188.325 624.374 187.874 Q624.374 187.054 625.194 187.054 Q625.768 187.054 627.776 188.735 Q629.825 190.415 632.9 194.268 Q636.015 198.121 638.31 202.835 Q643.844 214.271 643.844 229.027 Q643.844 243.21 638.556 254.646 Q636.302 259.441 633.146 263.458 Q629.989 267.475 627.899 269.238 Q625.809 271 625.194 271 Q624.374 271 624.374 270.181 Z" fill="#000000" fill-rule="evenodd" fill-opacity="1" /></svg>
