<?xml version="1.0" encoding="utf-8"?>
<svg xmlns="http://www.w3.org/2000/svg" xmlns:xlink="http://www.w3.org/1999/xlink" width="500" height="320" viewBox="0 0 2000 1280">
<defs>
  <clipPath id="clip690">
    <rect x="0" y="0" width="2000" height="1280"/>
  </clipPath>
</defs>
<path clip-path="url(#clip690)" d="M0 1280 L2000 1280 L2000 0 L0 0  Z" fill="#ffffff" fill-rule="evenodd" fill-opacity="1"/>
<defs>
  <clipPath id="clip691">
    <rect x="400" y="0" width="1401" height="1280"/>
  </clipPath>
</defs>
<path clip-path="url(#clip690)" d="M168.189 1111.02 L1952.76 1111.02 L1952.76 107.256 L168.189 107.256  Z" fill="#ffffff" fill-rule="evenodd" fill-opacity="1"/>
<defs>
  <clipPath id="clip692">
    <rect x="168" y="107" width="1786" height="1005"/>
  </clipPath>
</defs>
<polyline clip-path="url(#clip692)" style="stroke:#000000; stroke-linecap:round; stroke-linejoin:round; stroke-width:2; stroke-opacity:0.1; fill:none" points="218.696,1111.02 218.696,107.256 "/>
<polyline clip-path="url(#clip692)" style="stroke:#000000; stroke-linecap:round; stroke-linejoin:round; stroke-width:2; stroke-opacity:0.1; fill:none" points="639.584,1111.02 639.584,107.256 "/>
<polyline clip-path="url(#clip692)" style="stroke:#000000; stroke-linecap:round; stroke-linejoin:round; stroke-width:2; stroke-opacity:0.1; fill:none" points="1060.47,1111.02 1060.47,107.256 "/>
<polyline clip-path="url(#clip692)" style="stroke:#000000; stroke-linecap:round; stroke-linejoin:round; stroke-width:2; stroke-opacity:0.1; fill:none" points="1481.36,1111.02 1481.36,107.256 "/>
<polyline clip-path="url(#clip692)" style="stroke:#000000; stroke-linecap:round; stroke-linejoin:round; stroke-width:2; stroke-opacity:0.1; fill:none" points="1902.25,1111.02 1902.25,107.256 "/>
<polyline clip-path="url(#clip692)" style="stroke:#000000; stroke-linecap:round; stroke-linejoin:round; stroke-width:2; stroke-opacity:0.1; fill:none" points="168.189,1082.61 1952.76,1082.61 "/>
<polyline clip-path="url(#clip692)" style="stroke:#000000; stroke-linecap:round; stroke-linejoin:round; stroke-width:2; stroke-opacity:0.1; fill:none" points="168.189,893.221 1952.76,893.221 "/>
<polyline clip-path="url(#clip692)" style="stroke:#000000; stroke-linecap:round; stroke-linejoin:round; stroke-width:2; stroke-opacity:0.1; fill:none" points="168.189,703.832 1952.76,703.832 "/>
<polyline clip-path="url(#clip692)" style="stroke:#000000; stroke-linecap:round; stroke-linejoin:round; stroke-width:2; stroke-opacity:0.1; fill:none" points="168.189,514.443 1952.76,514.443 "/>
<polyline clip-path="url(#clip692)" style="stroke:#000000; stroke-linecap:round; stroke-linejoin:round; stroke-width:2; stroke-opacity:0.1; fill:none" points="168.189,325.053 1952.76,325.053 "/>
<polyline clip-path="url(#clip692)" style="stroke:#000000; stroke-linecap:round; stroke-linejoin:round; stroke-width:2; stroke-opacity:0.1; fill:none" points="168.189,135.664 1952.76,135.664 "/>
<polyline clip-path="url(#clip690)" style="stroke:#000000; stroke-linecap:round; stroke-linejoin:round; stroke-width:4; stroke-opacity:1; fill:none" points="168.189,1111.02 1952.76,1111.02 "/>
<polyline clip-path="url(#clip690)" style="stroke:#000000; stroke-linecap:round; stroke-linejoin:round; stroke-width:4; stroke-opacity:1; fill:none" points="218.696,1111.02 218.696,1092.12 "/>
<polyline clip-path="url(#clip690)" style="stroke:#000000; stroke-linecap:round; stroke-linejoin:round; stroke-width:4; stroke-opacity:1; fill:none" points="639.584,1111.02 639.584,1092.12 "/>
<polyline clip-path="url(#clip690)" style="stroke:#000000; stroke-linecap:round; stroke-linejoin:round; stroke-width:4; stroke-opacity:1; fill:none" points="1060.47,1111.02 1060.47,1092.12 "/>
<polyline clip-path="url(#clip690)" style="stroke:#000000; stroke-linecap:round; stroke-linejoin:round; stroke-width:4; stroke-opacity:1; fill:none" points="1481.36,1111.02 1481.36,1092.12 "/>
<polyline clip-path="url(#clip690)" style="stroke:#000000; stroke-linecap:round; stroke-linejoin:round; stroke-width:4; stroke-opacity:1; fill:none" points="1902.25,1111.02 1902.25,1092.12 "/>
<path clip-path="url(#clip690)" d="M218.696 1138.74 Q215.084 1138.74 213.256 1142.3 Q211.45 1145.84 211.45 1152.97 Q211.45 1160.08 213.256 1163.64 Q215.084 1167.19 218.696 1167.19 Q222.33 1167.19 224.135 1163.64 Q225.964 1160.08 225.964 1152.97 Q225.964 1145.84 224.135 1142.3 Q222.33 1138.74 218.696 1138.74 M218.696 1135.03 Q224.506 1135.03 227.561 1139.64 Q230.64 1144.22 230.64 1152.97 Q230.64 1161.7 227.561 1166.31 Q224.506 1170.89 218.696 1170.89 Q212.885 1170.89 209.807 1166.31 Q206.751 1161.7 206.751 1152.97 Q206.751 1144.22 209.807 1139.64 Q212.885 1135.03 218.696 1135.03 Z" fill="#000000" fill-rule="nonzero" fill-opacity="1" /><path clip-path="url(#clip690)" d="M634.237 1166.28 L650.556 1166.28 L650.556 1170.22 L628.612 1170.22 L628.612 1166.28 Q631.274 1163.53 635.857 1158.9 Q640.464 1154.25 641.644 1152.9 Q643.89 1150.38 644.769 1148.64 Q645.672 1146.89 645.672 1145.2 Q645.672 1142.44 643.728 1140.7 Q641.806 1138.97 638.704 1138.97 Q636.505 1138.97 634.052 1139.73 Q631.621 1140.5 628.843 1142.05 L628.843 1137.33 Q631.667 1136.19 634.121 1135.61 Q636.575 1135.03 638.612 1135.03 Q643.982 1135.03 647.177 1137.72 Q650.371 1140.4 650.371 1144.89 Q650.371 1147.02 649.561 1148.95 Q648.774 1150.84 646.667 1153.44 Q646.089 1154.11 642.987 1157.33 Q639.885 1160.52 634.237 1166.28 Z" fill="#000000" fill-rule="nonzero" fill-opacity="1" /><path clip-path="url(#clip690)" d="M1063.48 1139.73 L1051.68 1158.18 L1063.48 1158.18 L1063.48 1139.73 M1062.25 1135.66 L1068.13 1135.66 L1068.13 1158.18 L1073.06 1158.18 L1073.06 1162.07 L1068.13 1162.07 L1068.13 1170.22 L1063.48 1170.22 L1063.48 1162.07 L1047.88 1162.07 L1047.88 1157.56 L1062.25 1135.66 Z" fill="#000000" fill-rule="nonzero" fill-opacity="1" /><path clip-path="url(#clip690)" d="M1481.77 1151.08 Q1478.62 1151.08 1476.77 1153.23 Q1474.94 1155.38 1474.94 1159.13 Q1474.94 1162.86 1476.77 1165.03 Q1478.62 1167.19 1481.77 1167.19 Q1484.91 1167.19 1486.74 1165.03 Q1488.59 1162.86 1488.59 1159.13 Q1488.59 1155.38 1486.74 1153.23 Q1484.91 1151.08 1481.77 1151.08 M1491.05 1136.42 L1491.05 1140.68 Q1489.29 1139.85 1487.48 1139.41 Q1485.7 1138.97 1483.94 1138.97 Q1479.31 1138.97 1476.86 1142.09 Q1474.43 1145.22 1474.08 1151.54 Q1475.45 1149.52 1477.51 1148.46 Q1479.57 1147.37 1482.04 1147.37 Q1487.25 1147.37 1490.26 1150.54 Q1493.29 1153.69 1493.29 1159.13 Q1493.29 1164.45 1490.15 1167.67 Q1487 1170.89 1481.77 1170.89 Q1475.77 1170.89 1472.6 1166.31 Q1469.43 1161.7 1469.43 1152.97 Q1469.43 1144.78 1473.32 1139.92 Q1477.21 1135.03 1483.76 1135.03 Q1485.52 1135.03 1487.3 1135.38 Q1489.1 1135.73 1491.05 1136.42 Z" fill="#000000" fill-rule="nonzero" fill-opacity="1" /><path clip-path="url(#clip690)" d="M1902.25 1153.81 Q1898.92 1153.81 1896.99 1155.59 Q1895.1 1157.37 1895.1 1160.5 Q1895.1 1163.62 1896.99 1165.4 Q1898.92 1167.19 1902.25 1167.19 Q1905.58 1167.19 1907.5 1165.4 Q1909.43 1163.6 1909.43 1160.5 Q1909.43 1157.37 1907.5 1155.59 Q1905.61 1153.81 1902.25 1153.81 M1897.57 1151.82 Q1894.56 1151.08 1892.87 1149.01 Q1891.21 1146.95 1891.21 1143.99 Q1891.21 1139.85 1894.15 1137.44 Q1897.11 1135.03 1902.25 1135.03 Q1907.41 1135.03 1910.35 1137.44 Q1913.29 1139.85 1913.29 1143.99 Q1913.29 1146.95 1911.6 1149.01 Q1909.93 1151.08 1906.95 1151.82 Q1910.33 1152.6 1912.2 1154.89 Q1914.1 1157.19 1914.1 1160.5 Q1914.1 1165.52 1911.02 1168.2 Q1907.97 1170.89 1902.25 1170.89 Q1896.53 1170.89 1893.45 1168.2 Q1890.4 1165.52 1890.4 1160.5 Q1890.4 1157.19 1892.3 1154.89 Q1894.19 1152.6 1897.57 1151.82 M1895.86 1144.43 Q1895.86 1147.12 1897.53 1148.62 Q1899.22 1150.13 1902.25 1150.13 Q1905.26 1150.13 1906.95 1148.62 Q1908.66 1147.12 1908.66 1144.43 Q1908.66 1141.75 1906.95 1140.24 Q1905.26 1138.74 1902.25 1138.74 Q1899.22 1138.74 1897.53 1140.24 Q1895.86 1141.75 1895.86 1144.43 Z" fill="#000000" fill-rule="nonzero" fill-opacity="1" /><g clip-path="url(#clip690)">
<text style="fill:#000000; fill-opacity:1; font-family:Arial,Helvetica Neue,Helvetica,sans-serif; font-size:66px; text-anchor:middle;" transform="rotate(0, 1060.47, 1252.42)" x="1060.47" y="1252.42">stock price</text>
</g>
<polyline clip-path="url(#clip690)" style="stroke:#000000; stroke-linecap:round; stroke-linejoin:round; stroke-width:4; stroke-opacity:1; fill:none" points="168.189,1111.02 168.189,107.256 "/>
<polyline clip-path="url(#clip690)" style="stroke:#000000; stroke-linecap:round; stroke-linejoin:round; stroke-width:4; stroke-opacity:1; fill:none" points="168.189,1082.61 187.087,1082.61 "/>
<polyline clip-path="url(#clip690)" style="stroke:#000000; stroke-linecap:round; stroke-linejoin:round; stroke-width:4; stroke-opacity:1; fill:none" points="168.189,893.221 187.087,893.221 "/>
<polyline clip-path="url(#clip690)" style="stroke:#000000; stroke-linecap:round; stroke-linejoin:round; stroke-width:4; stroke-opacity:1; fill:none" points="168.189,703.832 187.087,703.832 "/>
<polyline clip-path="url(#clip690)" style="stroke:#000000; stroke-linecap:round; stroke-linejoin:round; stroke-width:4; stroke-opacity:1; fill:none" points="168.189,514.443 187.087,514.443 "/>
<polyline clip-path="url(#clip690)" style="stroke:#000000; stroke-linecap:round; stroke-linejoin:round; stroke-width:4; stroke-opacity:1; fill:none" points="168.189,325.053 187.087,325.053 "/>
<polyline clip-path="url(#clip690)" style="stroke:#000000; stroke-linecap:round; stroke-linejoin:round; stroke-width:4; stroke-opacity:1; fill:none" points="168.189,135.664 187.087,135.664 "/>
<path clip-path="url(#clip690)" d="M126.245 1068.41 Q122.633 1068.41 120.805 1071.97 Q118.999 1075.52 118.999 1082.64 Q118.999 1089.75 120.805 1093.32 Q122.633 1096.86 126.245 1096.86 Q129.879 1096.86 131.684 1093.32 Q133.513 1089.75 133.513 1082.64 Q133.513 1075.52 131.684 1071.97 Q129.879 1068.41 126.245 1068.41 M126.245 1064.71 Q132.055 1064.71 135.11 1069.31 Q138.189 1073.89 138.189 1082.64 Q138.189 1091.37 135.11 1095.98 Q132.055 1100.56 126.245 1100.56 Q120.434 1100.56 117.356 1095.98 Q114.3 1091.37 114.3 1082.64 Q114.3 1073.89 117.356 1069.31 Q120.434 1064.71 126.245 1064.71 Z" fill="#000000" fill-rule="nonzero" fill-opacity="1" /><path clip-path="url(#clip690)" d="M118.282 906.566 L125.921 906.566 L125.921 880.2 L117.61 881.867 L117.61 877.608 L125.874 875.941 L130.55 875.941 L130.55 906.566 L138.189 906.566 L138.189 910.501 L118.282 910.501 L118.282 906.566 Z" fill="#000000" fill-rule="nonzero" fill-opacity="1" /><path clip-path="url(#clip690)" d="M121.87 717.177 L138.189 717.177 L138.189 721.112 L116.245 721.112 L116.245 717.177 Q118.907 714.422 123.49 709.792 Q128.096 705.14 129.277 703.797 Q131.522 701.274 132.402 699.538 Q133.305 697.779 133.305 696.089 Q133.305 693.334 131.36 691.598 Q129.439 689.862 126.337 689.862 Q124.138 689.862 121.684 690.626 Q119.254 691.39 116.476 692.941 L116.476 688.218 Q119.3 687.084 121.754 686.505 Q124.208 685.927 126.245 685.927 Q131.615 685.927 134.809 688.612 Q138.004 691.297 138.004 695.788 Q138.004 697.917 137.194 699.839 Q136.407 701.737 134.3 704.329 Q133.721 705.001 130.62 708.218 Q127.518 711.413 121.87 717.177 Z" fill="#000000" fill-rule="nonzero" fill-opacity="1" /><path clip-path="url(#clip690)" d="M131.059 513.088 Q134.416 513.806 136.291 516.075 Q138.189 518.343 138.189 521.676 Q138.189 526.792 134.67 529.593 Q131.152 532.394 124.671 532.394 Q122.495 532.394 120.18 531.954 Q117.888 531.537 115.434 530.681 L115.434 526.167 Q117.379 527.301 119.694 527.88 Q122.008 528.459 124.532 528.459 Q128.93 528.459 131.221 526.723 Q133.536 524.987 133.536 521.676 Q133.536 518.621 131.383 516.908 Q129.254 515.172 125.434 515.172 L121.407 515.172 L121.407 511.329 L125.62 511.329 Q129.069 511.329 130.897 509.963 Q132.726 508.575 132.726 505.982 Q132.726 503.32 130.828 501.908 Q128.953 500.473 125.434 500.473 Q123.513 500.473 121.314 500.889 Q119.115 501.306 116.476 502.186 L116.476 498.019 Q119.138 497.278 121.453 496.908 Q123.791 496.538 125.851 496.538 Q131.175 496.538 134.277 498.968 Q137.379 501.376 137.379 505.496 Q137.379 508.366 135.735 510.357 Q134.092 512.325 131.059 513.088 Z" fill="#000000" fill-rule="nonzero" fill-opacity="1" /><path clip-path="url(#clip690)" d="M128.606 311.847 L116.8 330.296 L128.606 330.296 L128.606 311.847 M127.379 307.773 L133.258 307.773 L133.258 330.296 L138.189 330.296 L138.189 334.185 L133.258 334.185 L133.258 342.333 L128.606 342.333 L128.606 334.185 L113.004 334.185 L113.004 329.671 L127.379 307.773 Z" fill="#000000" fill-rule="nonzero" fill-opacity="1" /><path clip-path="url(#clip690)" d="M117.286 118.384 L135.643 118.384 L135.643 122.319 L121.569 122.319 L121.569 130.792 Q122.587 130.444 123.606 130.282 Q124.624 130.097 125.643 130.097 Q131.43 130.097 134.809 133.268 Q138.189 136.44 138.189 141.856 Q138.189 147.435 134.717 150.537 Q131.245 153.616 124.925 153.616 Q122.749 153.616 120.481 153.245 Q118.235 152.875 115.828 152.134 L115.828 147.435 Q117.911 148.569 120.134 149.125 Q122.356 149.68 124.833 149.68 Q128.837 149.68 131.175 147.574 Q133.513 145.467 133.513 141.856 Q133.513 138.245 131.175 136.139 Q128.837 134.032 124.833 134.032 Q122.958 134.032 121.083 134.449 Q119.231 134.866 117.286 135.745 L117.286 118.384 Z" fill="#000000" fill-rule="nonzero" fill-opacity="1" /><g clip-path="url(#clip690)">
<text style="fill:#000000; fill-opacity:1; font-family:Arial,Helvetica Neue,Helvetica,sans-serif; font-size:66px; text-anchor:middle;" transform="rotate(-90, 71.4418, 609.137)" x="71.4418" y="609.137">option value</text>
</g>
<g clip-path="url(#clip690)">
<text style="fill:#000000; fill-opacity:1; font-family:Arial,Helvetica Neue,Helvetica,sans-serif; font-size:66px; text-anchor:middle;" transform="rotate(0, 1060.47, 57.6)" x="1060.47" y="57.6">Black–Scholes solution</text>
</g>
<polyline clip-path="url(#clip692)" style="stroke:#009af9; stroke-linecap:round; stroke-linejoin:round; stroke-width:8; stroke-opacity:1; fill:none" points="218.696,1082.61 227.113,1082.61 235.531,1082.61 243.949,1082.61 252.367,1082.61 260.784,1082.61 269.202,1082.61 277.62,1082.61 286.038,1082.61 294.455,1082.61 302.873,1082.61 311.291,1082.61 319.709,1082.61 328.127,1082.61 336.544,1082.61 344.962,1082.61 353.38,1082.61 361.798,1082.61 370.215,1082.61 378.633,1082.61 387.051,1082.61 395.469,1082.61 403.886,1082.61 412.304,1082.61 420.722,1082.61 429.14,1082.61 437.558,1082.61 445.975,1082.61 454.393,1082.61 462.811,1082.61 471.229,1082.61 479.646,1082.61 488.064,1082.61 496.482,1082.61 504.9,1082.61 513.317,1082.61 521.735,1082.61 530.153,1082.61 538.571,1082.61 546.989,1082.61 555.406,1082.61 563.824,1082.61 572.242,1082.61 580.66,1082.61 589.077,1082.61 597.495,1082.61 605.913,1082.61 614.331,1082.61 622.748,1082.61 631.166,1082.61 639.584,1082.61 648.002,1082.61 656.42,1082.61 664.837,1082.61 673.255,1082.61 681.673,1082.61 690.091,1082.61 698.508,1082.61 706.926,1082.61 715.344,1082.61 723.762,1082.61 732.179,1082.61 740.597,1082.61 749.015,1082.61 757.433,1082.61 765.851,1082.61 774.268,1082.61 782.686,1082.61 791.104,1082.61 799.522,1082.61 807.939,1082.61 816.357,1082.61 824.775,1082.61 833.193,1082.61 841.61,1082.61 850.028,1082.61 858.446,1075.03 866.864,1067.46 875.282,1059.88 883.699,1052.31 892.117,1044.73 900.535,1037.16 908.953,1029.58 917.37,1022.01 925.788,1014.43 934.206,1006.85 942.624,999.279 951.041,991.703 959.459,984.128 967.877,976.552 976.295,968.977 984.713,961.401 993.13,953.825 1001.55,946.25 1009.97,938.674 1018.38,931.099 1026.8,923.523 1035.22,915.948 1043.64,908.372 1052.05,900.797 1060.47,893.221 1068.89,885.645 1077.31,878.07 1085.73,870.494 1094.14,862.919 1102.56,855.343 1110.98,847.768 1119.4,840.192 1127.81,832.616 1136.23,825.041 1144.65,817.465 1153.07,809.89 1161.49,802.314 1169.9,794.739 1178.32,787.163 1186.74,779.587 1195.16,772.012 1203.57,764.436 1211.99,756.861 1220.41,749.285 1228.83,741.71 1237.25,734.134 1245.66,726.558 1254.08,718.983 1262.5,711.407 1270.92,703.832 1279.33,696.256 1287.75,688.681 1296.17,681.105 1304.59,673.53 1313.01,665.954 1321.42,658.378 1329.84,650.803 1338.26,643.227 1346.68,635.652 1355.09,628.076 1363.51,620.501 1371.93,612.925 1380.35,605.349 1388.77,597.774 1397.18,590.198 1405.6,582.623 1414.02,575.047 1422.44,567.472 1430.85,559.896 1439.27,552.32 1447.69,544.745 1456.11,537.169 1464.53,529.594 1472.94,522.018 1481.36,514.443 1489.78,506.867 1498.2,499.291 1506.61,491.716 1515.03,484.14 1523.45,476.565 1531.87,468.989 1540.29,461.414 1548.7,453.838 1557.12,446.262 1565.54,438.687 1573.96,431.111 1582.37,423.536 1590.79,415.96 1599.21,408.385 1607.63,400.809 1616.05,393.234 1624.46,385.658 1632.88,378.082 1641.3,370.507 1649.72,362.931 1658.13,355.356 1666.55,347.78 1674.97,340.205 1683.39,332.629 1691.81,325.053 1700.22,317.478 1708.64,309.902 1717.06,302.327 1725.48,294.751 1733.89,287.176 1742.31,279.6 1750.73,272.024 1759.15,264.449 1767.56,256.873 1775.98,249.298 1784.4,241.722 1792.82,234.147 1801.24,226.571 1809.65,218.995 1818.07,211.42 1826.49,203.844 1834.91,196.269 1843.32,188.693 1851.74,181.118 1860.16,173.542 1868.58,165.967 1877,158.391 1885.41,150.815 1893.83,143.24 1902.25,135.664 "/>
<polyline clip-path="url(#clip692)" style="stroke:#e26f46; stroke-linecap:round; stroke-linejoin:round; stroke-width:8; stroke-opacity:1; fill:none" points="218.696,1082.61 227.113,1082.61 235.531,1082.61 243.949,1082.61 252.367,1082.61 260.784,1082.61 269.202,1082.61 277.62,1082.61 286.038,1082.61 294.455,1082.61 302.873,1082.61 311.291,1082.61 319.709,1082.61 328.127,1082.61 336.544,1082.61 344.962,1082.61 353.38,1082.61 361.798,1082.61 370.215,1082.61 378.633,1082.61 387.051,1082.61 395.469,1082.61 403.886,1082.61 412.304,1082.61 420.722,1082.61 429.14,1082.61 437.558,1082.61 445.975,1082.61 454.393,1082.61 462.811,1082.61 471.229,1082.61 479.646,1082.61 488.064,1082.61 496.482,1082.61 504.9,1082.61 513.317,1082.61 521.735,1082.61 530.153,1082.61 538.571,1082.61 546.989,1082.61 555.406,1082.61 563.824,1082.61 572.242,1082.61 580.66,1082.61 589.077,1082.61 597.495,1082.61 605.913,1082.61 614.331,1082.61 622.748,1082.61 631.166,1082.61 639.584,1082.61 648.002,1082.61 656.42,1082.61 664.837,1082.61 673.255,1082.61 681.673,1082.61 690.091,1082.61 698.508,1082.61 706.926,1082.61 715.344,1082.6 723.762,1082.6 732.179,1082.58 740.597,1082.55 749.015,1082.5 757.433,1082.4 765.851,1082.23 774.268,1081.96 782.686,1081.55 791.104,1080.94 799.522,1080.07 807.939,1078.87 816.357,1077.29 824.775,1075.25 833.193,1072.71 841.61,1069.64 850.028,1066.02 858.446,1061.85 866.864,1057.14 875.282,1051.95 883.699,1046.3 892.117,1040.26 900.535,1033.88 908.953,1027.22 917.37,1020.33 925.788,1013.26 934.206,1006.05 942.624,998.737 951.041,991.342 959.459,983.891 967.877,976.399 976.295,968.879 984.713,961.339 993.13,953.787 1001.55,946.226 1009.97,938.66 1018.38,931.09 1026.8,923.518 1035.22,915.945 1043.64,908.37 1052.05,900.796 1060.47,893.22 1068.89,885.645 1077.31,878.07 1085.73,870.494 1094.14,862.919 1102.56,855.343 1110.98,847.768 1119.4,840.192 1127.81,832.616 1136.23,825.041 1144.65,817.465 1153.07,809.89 1161.49,802.314 1169.9,794.739 1178.32,787.163 1186.74,779.587 1195.16,772.012 1203.57,764.436 1211.99,756.861 1220.41,749.285 1228.83,741.71 1237.25,734.134 1245.66,726.558 1254.08,718.983 1262.5,711.407 1270.92,703.832 1279.33,696.256 1287.75,688.681 1296.17,681.105 1304.59,673.53 1313.01,665.954 1321.42,658.378 1329.84,650.803 1338.26,643.227 1346.68,635.652 1355.09,628.076 1363.51,620.501 1371.93,612.925 1380.35,605.349 1388.77,597.774 1397.18,590.198 1405.6,582.623 1414.02,575.047 1422.44,567.472 1430.85,559.896 1439.27,552.32 1447.69,544.745 1456.11,537.169 1464.53,529.594 1472.94,522.018 1481.36,514.443 1489.78,506.867 1498.2,499.291 1506.61,491.716 1515.03,484.14 1523.45,476.565 1531.87,468.989 1540.29,461.414 1548.7,453.838 1557.12,446.262 1565.54,438.687 1573.96,431.111 1582.37,423.536 1590.79,415.96 1599.21,408.385 1607.63,400.809 1616.05,393.234 1624.46,385.658 1632.88,378.082 1641.3,370.507 1649.72,362.931 1658.13,355.356 1666.55,347.78 1674.97,340.205 1683.39,332.629 1691.81,325.053 1700.22,317.478 1708.64,309.902 1717.06,302.327 1725.48,294.751 1733.89,287.176 1742.31,279.6 1750.73,272.024 1759.15,264.449 1767.56,256.873 1775.98,249.298 1784.4,241.722 1792.82,234.147 1801.24,226.571 1809.65,218.995 1818.07,211.42 1826.49,203.844 1834.91,196.269 1843.32,188.693 1851.74,181.118 1860.16,173.542 1868.58,165.967 1877,158.391 1885.41,150.815 1893.83,143.24 1902.25,135.664 "/>
<polyline clip-path="url(#clip692)" style="stroke:#3da44d; stroke-linecap:round; stroke-linejoin:round; stroke-width:8; stroke-opacity:1; fill:none" points="218.696,1082.61 227.113,1082.61 235.531,1082.61 243.949,1082.61 252.367,1082.61 260.784,1082.61 269.202,1082.61 277.62,1082.61 286.038,1082.61 294.455,1082.61 302.873,1082.61 311.291,1082.61 319.709,1082.61 328.127,1082.61 336.544,1082.61 344.962,1082.61 353.38,1082.61 361.798,1082.61 370.215,1082.61 378.633,1082.61 387.051,1082.61 395.469,1082.61 403.886,1082.61 412.304,1082.61 420.722,1082.61 429.14,1082.61 437.558,1082.61 445.975,1082.61 454.393,1082.61 462.811,1082.61 471.229,1082.61 479.646,1082.61 488.064,1082.61 496.482,1082.61 504.9,1082.61 513.317,1082.61 521.735,1082.61 530.153,1082.61 538.571,1082.61 546.989,1082.61 555.406,1082.61 563.824,1082.61 572.242,1082.61 580.66,1082.61 589.077,1082.61 597.495,1082.61 605.913,1082.61 614.331,1082.61 622.748,1082.61 631.166,1082.61 639.584,1082.61 648.002,1082.61 656.42,1082.61 664.837,1082.6 673.255,1082.6 681.673,1082.59 690.091,1082.57 698.508,1082.54 706.926,1082.5 715.344,1082.42 723.762,1082.31 732.179,1082.14 740.597,1081.9 749.015,1081.57 757.433,1081.11 765.851,1080.5 774.268,1079.71 782.686,1078.69 791.104,1077.42 799.522,1075.86 807.939,1073.99 816.357,1071.77 824.775,1069.18 833.193,1066.21 841.61,1062.86 850.028,1059.11 858.446,1054.97 866.864,1050.45 875.282,1045.58 883.699,1040.36 892.117,1034.83 900.535,1029.01 908.953,1022.92 917.37,1016.61 925.788,1010.08 934.206,1003.38 942.624,996.515 951.041,989.522 959.459,982.418 967.877,975.22 976.295,967.946 984.713,960.608 993.13,953.219 1001.55,945.789 1009.97,938.326 1018.38,930.837 1026.8,923.327 1035.22,915.802 1043.64,908.264 1052.05,900.717 1060.47,893.163 1068.89,885.603 1077.31,878.039 1085.73,870.472 1094.14,862.903 1102.56,855.332 1110.98,847.759 1119.4,840.186 1127.81,832.612 1136.23,825.038 1144.65,817.463 1153.07,809.888 1161.49,802.313 1169.9,794.738 1178.32,787.163 1186.74,779.587 1195.16,772.012 1203.57,764.436 1211.99,756.861 1220.41,749.285 1228.83,741.71 1237.25,734.134 1245.66,726.558 1254.08,718.983 1262.5,711.407 1270.92,703.832 1279.33,696.256 1287.75,688.681 1296.17,681.105 1304.59,673.53 1313.01,665.954 1321.42,658.378 1329.84,650.803 1338.26,643.227 1346.68,635.652 1355.09,628.076 1363.51,620.501 1371.93,612.925 1380.35,605.349 1388.77,597.774 1397.18,590.198 1405.6,582.623 1414.02,575.047 1422.44,567.472 1430.85,559.896 1439.27,552.32 1447.69,544.745 1456.11,537.169 1464.53,529.594 1472.94,522.018 1481.36,514.443 1489.78,506.867 1498.2,499.291 1506.61,491.716 1515.03,484.14 1523.45,476.565 1531.87,468.989 1540.29,461.414 1548.7,453.838 1557.12,446.262 1565.54,438.687 1573.96,431.111 1582.37,423.536 1590.79,415.96 1599.21,408.385 1607.63,400.809 1616.05,393.234 1624.46,385.658 1632.88,378.082 1641.3,370.507 1649.72,362.931 1658.13,355.356 1666.55,347.78 1674.97,340.205 1683.39,332.629 1691.81,325.053 1700.22,317.478 1708.64,309.902 1717.06,302.327 1725.48,294.751 1733.89,287.176 1742.31,279.6 1750.73,272.024 1759.15,264.449 1767.56,256.873 1775.98,249.298 1784.4,241.722 1792.82,234.147 1801.24,226.571 1809.65,218.995 1818.07,211.42 1826.49,203.844 1834.91,196.269 1843.32,188.693 1851.74,181.118 1860.16,173.542 1868.58,165.967 1877,158.391 1885.41,150.815 1893.83,143.24 1902.25,135.664 "/>
<polyline clip-path="url(#clip692)" style="stroke:#c271d2; stroke-linecap:round; stroke-linejoin:round; stroke-width:8; stroke-opacity:1; fill:none" points="218.696,1082.61 227.113,1082.61 235.531,1082.61 243.949,1082.61 252.367,1082.61 260.784,1082.61 269.202,1082.61 277.62,1082.61 286.038,1082.61 294.455,1082.61 302.873,1082.61 311.291,1082.61 319.709,1082.61 328.127,1082.61 336.544,1082.61 344.962,1082.61 353.38,1082.61 361.798,1082.61 370.215,1082.61 378.633,1082.61 387.051,1082.61 395.469,1082.61 403.886,1082.61 412.304,1082.61 420.722,1082.61 429.14,1082.61 437.558,1082.61 445.975,1082.61 454.393,1082.61 462.811,1082.61 471.229,1082.61 479.646,1082.61 488.064,1082.61 496.482,1082.61 504.9,1082.61 513.317,1082.61 521.735,1082.61 530.153,1082.61 538.571,1082.61 546.989,1082.61 555.406,1082.61 563.824,1082.61 572.242,1082.61 580.66,1082.61 589.077,1082.61 597.495,1082.61 605.913,1082.61 614.331,1082.61 622.748,1082.61 631.166,1082.6 639.584,1082.6 648.002,1082.59 656.42,1082.57 664.837,1082.55 673.255,1082.51 681.673,1082.46 690.091,1082.38 698.508,1082.26 706.926,1082.1 715.344,1081.88 723.762,1081.58 732.179,1081.18 740.597,1080.67 749.015,1080.03 757.433,1079.22 765.851,1078.23 774.268,1077.03 782.686,1075.6 791.104,1073.92 799.522,1071.96 807.939,1069.72 816.357,1067.17 824.775,1064.31 833.193,1061.14 841.61,1057.64 850.028,1053.81 858.446,1049.68 866.864,1045.23 875.282,1040.49 883.699,1035.46 892.117,1030.16 900.535,1024.62 908.953,1018.83 917.37,1012.83 925.788,1006.64 934.206,1000.26 942.624,993.721 951.041,987.039 959.459,980.228 967.877,973.305 976.295,966.283 984.713,959.175 993.13,951.993 1001.55,944.746 1009.97,937.445 1018.38,930.097 1026.8,922.71 1035.22,915.289 1043.64,907.841 1052.05,900.369 1060.47,892.878 1068.89,885.371 1077.31,877.851 1085.73,870.32 1094.14,862.781 1102.56,855.234 1110.98,847.681 1119.4,840.124 1127.81,832.563 1136.23,824.999 1144.65,817.433 1153.07,809.864 1161.49,802.294 1169.9,794.723 1178.32,787.151 1186.74,779.578 1195.16,772.005 1203.57,764.431 1211.99,756.857 1220.41,749.282 1228.83,741.707 1237.25,734.132 1245.66,726.557 1254.08,718.982 1262.5,711.406 1270.92,703.831 1279.33,696.256 1287.75,688.68 1296.17,681.105 1304.59,673.529 1313.01,665.954 1321.42,658.378 1329.84,650.803 1338.26,643.227 1346.68,635.652 1355.09,628.076 1363.51,620.501 1371.93,612.925 1380.35,605.349 1388.77,597.774 1397.18,590.198 1405.6,582.623 1414.02,575.047 1422.44,567.472 1430.85,559.896 1439.27,552.32 1447.69,544.745 1456.11,537.169 1464.53,529.594 1472.94,522.018 1481.36,514.443 1489.78,506.867 1498.2,499.291 1506.61,491.716 1515.03,484.14 1523.45,476.565 1531.87,468.989 1540.29,461.414 1548.7,453.838 1557.12,446.262 1565.54,438.687 1573.96,431.111 1582.37,423.536 1590.79,415.96 1599.21,408.385 1607.63,400.809 1616.05,393.234 1624.46,385.658 1632.88,378.082 1641.3,370.507 1649.72,362.931 1658.13,355.356 1666.55,347.78 1674.97,340.205 1683.39,332.629 1691.81,325.053 1700.22,317.478 1708.64,309.902 1717.06,302.327 1725.48,294.751 1733.89,287.176 1742.31,279.6 1750.73,272.024 1759.15,264.449 1767.56,256.873 1775.98,249.298 1784.4,241.722 1792.82,234.147 1801.24,226.571 1809.65,218.995 1818.07,211.42 1826.49,203.844 1834.91,196.269 1843.32,188.693 1851.74,181.118 1860.16,173.542 1868.58,165.967 1877,158.391 1885.41,150.815 1893.83,143.24 1902.25,135.664 "/>
<polyline clip-path="url(#clip692)" style="stroke:#ac8d18; stroke-linecap:round; stroke-linejoin:round; stroke-width:8; stroke-opacity:1; fill:none" points="218.696,1082.61 227.113,1082.61 235.531,1082.61 243.949,1082.61 252.367,1082.61 260.784,1082.61 269.202,1082.61 277.62,1082.61 286.038,1082.61 294.455,1082.61 302.873,1082.61 311.291,1082.61 319.709,1082.61 328.127,1082.61 336.544,1082.61 344.962,1082.61 353.38,1082.61 361.798,1082.61 370.215,1082.61 378.633,1082.61 387.051,1082.61 395.469,1082.61 403.886,1082.61 412.304,1082.61 420.722,1082.61 429.14,1082.61 437.558,1082.61 445.975,1082.61 454.393,1082.61 462.811,1082.61 471.229,1082.61 479.646,1082.61 488.064,1082.61 496.482,1082.61 504.9,1082.61 513.317,1082.61 521.735,1082.61 530.153,1082.61 538.571,1082.61 546.989,1082.61 555.406,1082.61 563.824,1082.61 572.242,1082.61 580.66,1082.61 589.077,1082.61 597.495,1082.61 605.913,1082.6 614.331,1082.6 622.748,1082.59 631.166,1082.57 639.584,1082.55 648.002,1082.52 656.42,1082.47 664.837,1082.4 673.255,1082.3 681.673,1082.16 690.091,1081.98 698.508,1081.74 706.926,1081.42 715.344,1081.02 723.762,1080.52 732.179,1079.9 740.597,1079.13 749.015,1078.21 757.433,1077.12 765.851,1075.83 774.268,1074.33 782.686,1072.6 791.104,1070.64 799.522,1068.41 807.939,1065.93 816.357,1063.17 824.775,1060.14 833.193,1056.82 841.61,1053.23 850.028,1049.36 858.446,1045.21 866.864,1040.8 875.282,1036.13 883.699,1031.21 892.117,1026.05 900.535,1020.66 908.953,1015.07 917.37,1009.27 925.788,1003.29 934.206,997.139 942.624,990.829 951.041,984.375 959.459,977.79 967.877,971.086 976.295,964.274 984.713,957.366 993.13,950.372 1001.55,943.302 1009.97,936.163 1018.38,928.965 1026.8,921.714 1035.22,914.418 1043.64,907.081 1052.05,899.709 1060.47,892.307 1068.89,884.879 1077.31,877.428 1085.73,869.958 1094.14,862.471 1102.56,854.971 1110.98,847.458 1119.4,839.935 1127.81,832.404 1136.23,824.865 1144.65,817.32 1153.07,809.77 1161.49,802.216 1169.9,794.658 1178.32,787.097 1186.74,779.533 1195.16,771.967 1203.57,764.4 1211.99,756.831 1220.41,749.261 1228.83,741.69 1237.25,734.118 1245.66,726.545 1254.08,718.972 1262.5,711.399 1270.92,703.825 1279.33,696.251 1287.75,688.676 1296.17,681.101 1304.59,673.527 1313.01,665.952 1321.42,658.376 1329.84,650.801 1338.26,643.226 1346.68,635.651 1355.09,628.075 1363.51,620.5 1371.93,612.924 1380.35,605.349 1388.77,597.773 1397.18,590.198 1405.6,582.622 1414.02,575.047 1422.44,567.471 1430.85,559.896 1439.27,552.32 1447.69,544.745 1456.11,537.169 1464.53,529.594 1472.94,522.018 1481.36,514.443 1489.78,506.867 1498.2,499.291 1506.61,491.716 1515.03,484.14 1523.45,476.565 1531.87,468.989 1540.29,461.414 1548.7,453.838 1557.12,446.262 1565.54,438.687 1573.96,431.111 1582.37,423.536 1590.79,415.96 1599.21,408.385 1607.63,400.809 1616.05,393.234 1624.46,385.658 1632.88,378.082 1641.3,370.507 1649.72,362.931 1658.13,355.356 1666.55,347.78 1674.97,340.205 1683.39,332.629 1691.81,325.053 1700.22,317.478 1708.64,309.902 1717.06,302.327 1725.48,294.751 1733.89,287.176 1742.31,279.6 1750.73,272.024 1759.15,264.449 1767.56,256.873 1775.98,249.298 1784.4,241.722 1792.82,234.147 1801.24,226.571 1809.65,218.995 1818.07,211.42 1826.49,203.844 1834.91,196.269 1843.32,188.693 1851.74,181.118 1860.16,173.542 1868.58,165.967 1877,158.391 1885.41,150.815 1893.83,143.24 1902.25,135.664 "/>
<path clip-path="url(#clip690)" d="M227.675 451.755 L565.552 451.755 L565.552 140.715 L227.675 140.715  Z" fill="#ffffff" fill-rule="evenodd" fill-opacity="1"/>
<polyline clip-path="url(#clip690)" style="stroke:#000000; stroke-linecap:round; stroke-linejoin:round; stroke-width:4; stroke-opacity:1; fill:none" points="227.675,451.755 565.552,451.755 565.552,140.715 227.675,140.715 227.675,451.755 "/>
<polyline clip-path="url(#clip690)" style="stroke:#009af9; stroke-linecap:round; stroke-linejoin:round; stroke-width:8; stroke-opacity:1; fill:none" points="247.503,192.555 366.474,192.555 "/>
<path clip-path="url(#clip690)" d="M393.71 176.548 L393.71 183.909 L402.483 183.909 L402.483 187.219 L393.71 187.219 L393.71 201.293 Q393.71 204.464 394.567 205.367 Q395.446 206.27 398.108 206.27 L402.483 206.27 L402.483 209.835 L398.108 209.835 Q393.178 209.835 391.303 208.006 Q389.428 206.154 389.428 201.293 L389.428 187.219 L386.303 187.219 L386.303 183.909 L389.428 183.909 L389.428 176.548 L393.71 176.548 Z" fill="#000000" fill-rule="nonzero" fill-opacity="1" /><path clip-path="url(#clip690)" d="M423.71 188.307 L453.386 188.307 L453.386 192.196 L423.71 192.196 L423.71 188.307 M423.71 197.751 L453.386 197.751 L453.386 201.687 L423.71 201.687 L423.71 197.751 Z" fill="#000000" fill-rule="nonzero" fill-opacity="1" /><path clip-path="url(#clip690)" d="M488.548 178.353 Q484.936 178.353 483.108 181.918 Q481.302 185.46 481.302 192.589 Q481.302 199.696 483.108 203.261 Q484.936 206.802 488.548 206.802 Q492.182 206.802 493.987 203.261 Q495.816 199.696 495.816 192.589 Q495.816 185.46 493.987 181.918 Q492.182 178.353 488.548 178.353 M488.548 174.65 Q494.358 174.65 497.413 179.256 Q500.492 183.839 500.492 192.589 Q500.492 201.316 497.413 205.923 Q494.358 210.506 488.548 210.506 Q482.737 210.506 479.659 205.923 Q476.603 201.316 476.603 192.589 Q476.603 183.839 479.659 179.256 Q482.737 174.65 488.548 174.65 Z" fill="#000000" fill-rule="nonzero" fill-opacity="1" /><path clip-path="url(#clip690)" d="M508.709 203.955 L513.594 203.955 L513.594 209.835 L508.709 209.835 L508.709 203.955 Z" fill="#000000" fill-rule="nonzero" fill-opacity="1" /><path clip-path="url(#clip690)" d="M533.779 178.353 Q530.168 178.353 528.339 181.918 Q526.533 185.46 526.533 192.589 Q526.533 199.696 528.339 203.261 Q530.168 206.802 533.779 206.802 Q537.413 206.802 539.219 203.261 Q541.047 199.696 541.047 192.589 Q541.047 185.46 539.219 181.918 Q537.413 178.353 533.779 178.353 M533.779 174.65 Q539.589 174.65 542.644 179.256 Q545.723 183.839 545.723 192.589 Q545.723 201.316 542.644 205.923 Q539.589 210.506 533.779 210.506 Q527.969 210.506 524.89 205.923 Q521.834 201.316 521.834 192.589 Q521.834 183.839 524.89 179.256 Q527.969 174.65 533.779 174.65 Z" fill="#000000" fill-rule="nonzero" fill-opacity="1" /><polyline clip-path="url(#clip690)" style="stroke:#e26f46; stroke-linecap:round; stroke-linejoin:round; stroke-width:8; stroke-opacity:1; fill:none" points="247.503,244.395 366.474,244.395 "/>
<path clip-path="url(#clip690)" d="M393.71 228.388 L393.71 235.749 L402.483 235.749 L402.483 239.059 L393.71 239.059 L393.71 253.133 Q393.71 256.304 394.567 257.207 Q395.446 258.11 398.108 258.11 L402.483 258.11 L402.483 261.675 L398.108 261.675 Q393.178 261.675 391.303 259.846 Q389.428 257.994 389.428 253.133 L389.428 239.059 L386.303 239.059 L386.303 235.749 L389.428 235.749 L389.428 228.388 L393.71 228.388 Z" fill="#000000" fill-rule="nonzero" fill-opacity="1" /><path clip-path="url(#clip690)" d="M423.71 240.147 L453.386 240.147 L453.386 244.036 L423.71 244.036 L423.71 240.147 M423.71 249.591 L453.386 249.591 L453.386 253.527 L423.71 253.527 L423.71 249.591 Z" fill="#000000" fill-rule="nonzero" fill-opacity="1" /><path clip-path="url(#clip690)" d="M479.358 257.739 L486.997 257.739 L486.997 231.374 L478.686 233.041 L478.686 228.781 L486.95 227.115 L491.626 227.115 L491.626 257.739 L499.265 257.739 L499.265 261.675 L479.358 261.675 L479.358 257.739 Z" fill="#000000" fill-rule="nonzero" fill-opacity="1" /><path clip-path="url(#clip690)" d="M508.709 255.795 L513.594 255.795 L513.594 261.675 L508.709 261.675 L508.709 255.795 Z" fill="#000000" fill-rule="nonzero" fill-opacity="1" /><path clip-path="url(#clip690)" d="M523.825 227.115 L542.181 227.115 L542.181 231.05 L528.107 231.05 L528.107 239.522 Q529.126 239.175 530.145 239.013 Q531.163 238.828 532.182 238.828 Q537.969 238.828 541.348 241.999 Q544.728 245.17 544.728 250.587 Q544.728 256.165 541.256 259.267 Q537.783 262.346 531.464 262.346 Q529.288 262.346 527.02 261.976 Q524.774 261.605 522.367 260.864 L522.367 256.165 Q524.45 257.3 526.672 257.855 Q528.895 258.411 531.371 258.411 Q535.376 258.411 537.714 256.304 Q540.052 254.198 540.052 250.587 Q540.052 246.976 537.714 244.869 Q535.376 242.763 531.371 242.763 Q529.496 242.763 527.621 243.179 Q525.77 243.596 523.825 244.476 L523.825 227.115 Z" fill="#000000" fill-rule="nonzero" fill-opacity="1" /><polyline clip-path="url(#clip690)" style="stroke:#3da44d; stroke-linecap:round; stroke-linejoin:round; stroke-width:8; stroke-opacity:1; fill:none" points="247.503,296.235 366.474,296.235 "/>
<path clip-path="url(#clip690)" d="M393.71 280.228 L393.71 287.589 L402.483 287.589 L402.483 290.899 L393.71 290.899 L393.71 304.973 Q393.71 308.144 394.567 309.047 Q395.446 309.95 398.108 309.95 L402.483 309.95 L402.483 313.515 L398.108 313.515 Q393.178 313.515 391.303 311.686 Q389.428 309.834 389.428 304.973 L389.428 290.899 L386.303 290.899 L386.303 287.589 L389.428 287.589 L389.428 280.228 L393.71 280.228 Z" fill="#000000" fill-rule="nonzero" fill-opacity="1" /><path clip-path="url(#clip690)" d="M423.71 291.987 L453.386 291.987 L453.386 295.876 L423.71 295.876 L423.71 291.987 M423.71 301.431 L453.386 301.431 L453.386 305.367 L423.71 305.367 L423.71 301.431 Z" fill="#000000" fill-rule="nonzero" fill-opacity="1" /><path clip-path="url(#clip690)" d="M492.714 294.88 Q496.071 295.598 497.946 297.867 Q499.844 300.135 499.844 303.468 Q499.844 308.584 496.325 311.385 Q492.807 314.186 486.325 314.186 Q484.149 314.186 481.835 313.746 Q479.543 313.329 477.089 312.473 L477.089 307.959 Q479.034 309.093 481.348 309.672 Q483.663 310.251 486.186 310.251 Q490.585 310.251 492.876 308.515 Q495.191 306.779 495.191 303.468 Q495.191 300.413 493.038 298.7 Q490.909 296.964 487.089 296.964 L483.061 296.964 L483.061 293.121 L487.274 293.121 Q490.723 293.121 492.552 291.755 Q494.381 290.367 494.381 287.774 Q494.381 285.112 492.483 283.7 Q490.608 282.265 487.089 282.265 Q485.168 282.265 482.969 282.681 Q480.77 283.098 478.131 283.978 L478.131 279.811 Q480.793 279.07 483.108 278.7 Q485.446 278.33 487.506 278.33 Q492.83 278.33 495.932 280.76 Q499.034 283.168 499.034 287.288 Q499.034 290.158 497.39 292.149 Q495.747 294.117 492.714 294.88 Z" fill="#000000" fill-rule="nonzero" fill-opacity="1" /><path clip-path="url(#clip690)" d="M508.709 307.635 L513.594 307.635 L513.594 313.515 L508.709 313.515 L508.709 307.635 Z" fill="#000000" fill-rule="nonzero" fill-opacity="1" /><path clip-path="url(#clip690)" d="M533.779 282.033 Q530.168 282.033 528.339 285.598 Q526.533 289.14 526.533 296.269 Q526.533 303.376 528.339 306.941 Q530.168 310.482 533.779 310.482 Q537.413 310.482 539.219 306.941 Q541.047 303.376 541.047 296.269 Q541.047 289.14 539.219 285.598 Q537.413 282.033 533.779 282.033 M533.779 278.33 Q539.589 278.33 542.644 282.936 Q545.723 287.519 545.723 296.269 Q545.723 304.996 542.644 309.603 Q539.589 314.186 533.779 314.186 Q527.969 314.186 524.89 309.603 Q521.834 304.996 521.834 296.269 Q521.834 287.519 524.89 282.936 Q527.969 278.33 533.779 278.33 Z" fill="#000000" fill-rule="nonzero" fill-opacity="1" /><polyline clip-path="url(#clip690)" style="stroke:#c271d2; stroke-linecap:round; stroke-linejoin:round; stroke-width:8; stroke-opacity:1; fill:none" points="247.503,348.075 366.474,348.075 "/>
<path clip-path="url(#clip690)" d="M393.71 332.068 L393.71 339.429 L402.483 339.429 L402.483 342.739 L393.71 342.739 L393.71 356.813 Q393.71 359.984 394.567 360.887 Q395.446 361.79 398.108 361.79 L402.483 361.79 L402.483 365.355 L398.108 365.355 Q393.178 365.355 391.303 363.526 Q389.428 361.674 389.428 356.813 L389.428 342.739 L386.303 342.739 L386.303 339.429 L389.428 339.429 L389.428 332.068 L393.71 332.068 Z" fill="#000000" fill-rule="nonzero" fill-opacity="1" /><path clip-path="url(#clip690)" d="M423.71 343.827 L453.386 343.827 L453.386 347.716 L423.71 347.716 L423.71 343.827 M423.71 353.271 L453.386 353.271 L453.386 357.207 L423.71 357.207 L423.71 353.271 Z" fill="#000000" fill-rule="nonzero" fill-opacity="1" /><path clip-path="url(#clip690)" d="M491.395 334.869 L479.589 353.318 L491.395 353.318 L491.395 334.869 M490.168 330.795 L496.047 330.795 L496.047 353.318 L500.978 353.318 L500.978 357.207 L496.047 357.207 L496.047 365.355 L491.395 365.355 L491.395 357.207 L475.793 357.207 L475.793 352.693 L490.168 330.795 Z" fill="#000000" fill-rule="nonzero" fill-opacity="1" /><path clip-path="url(#clip690)" d="M508.709 359.475 L513.594 359.475 L513.594 365.355 L508.709 365.355 L508.709 359.475 Z" fill="#000000" fill-rule="nonzero" fill-opacity="1" /><path clip-path="url(#clip690)" d="M523.825 330.795 L542.181 330.795 L542.181 334.73 L528.107 334.73 L528.107 343.202 Q529.126 342.855 530.145 342.693 Q531.163 342.508 532.182 342.508 Q537.969 342.508 541.348 345.679 Q544.728 348.85 544.728 354.267 Q544.728 359.845 541.256 362.947 Q537.783 366.026 531.464 366.026 Q529.288 366.026 527.02 365.656 Q524.774 365.285 522.367 364.544 L522.367 359.845 Q524.45 360.98 526.672 361.535 Q528.895 362.091 531.371 362.091 Q535.376 362.091 537.714 359.984 Q540.052 357.878 540.052 354.267 Q540.052 350.656 537.714 348.549 Q535.376 346.443 531.371 346.443 Q529.496 346.443 527.621 346.859 Q525.77 347.276 523.825 348.156 L523.825 330.795 Z" fill="#000000" fill-rule="nonzero" fill-opacity="1" /><polyline clip-path="url(#clip690)" style="stroke:#ac8d18; stroke-linecap:round; stroke-linejoin:round; stroke-width:8; stroke-opacity:1; fill:none" points="247.503,399.915 366.474,399.915 "/>
<path clip-path="url(#clip690)" d="M393.71 383.908 L393.71 391.269 L402.483 391.269 L402.483 394.579 L393.71 394.579 L393.71 408.653 Q393.71 411.824 394.567 412.727 Q395.446 413.63 398.108 413.63 L402.483 413.63 L402.483 417.195 L398.108 417.195 Q393.178 417.195 391.303 415.366 Q389.428 413.514 389.428 408.653 L389.428 394.579 L386.303 394.579 L386.303 391.269 L389.428 391.269 L389.428 383.908 L393.71 383.908 Z" fill="#000000" fill-rule="nonzero" fill-opacity="1" /><path clip-path="url(#clip690)" d="M423.71 395.667 L453.386 395.667 L453.386 399.556 L423.71 399.556 L423.71 395.667 M423.71 405.111 L453.386 405.111 L453.386 409.047 L423.71 409.047 L423.71 405.111 Z" fill="#000000" fill-rule="nonzero" fill-opacity="1" /><path clip-path="url(#clip690)" d="M489.126 398.051 Q485.978 398.051 484.126 400.204 Q482.298 402.357 482.298 406.107 Q482.298 409.834 484.126 412.009 Q485.978 414.162 489.126 414.162 Q492.274 414.162 494.103 412.009 Q495.955 409.834 495.955 406.107 Q495.955 402.357 494.103 400.204 Q492.274 398.051 489.126 398.051 M498.409 383.399 L498.409 387.658 Q496.649 386.824 494.844 386.385 Q493.061 385.945 491.302 385.945 Q486.673 385.945 484.219 389.07 Q481.788 392.195 481.441 398.514 Q482.807 396.5 484.867 395.435 Q486.927 394.348 489.404 394.348 Q494.612 394.348 497.622 397.519 Q500.654 400.667 500.654 406.107 Q500.654 411.431 497.506 414.648 Q494.358 417.866 489.126 417.866 Q483.131 417.866 479.96 413.283 Q476.788 408.676 476.788 399.949 Q476.788 391.755 480.677 386.894 Q484.566 382.01 491.117 382.01 Q492.876 382.01 494.659 382.357 Q496.464 382.704 498.409 383.399 Z" fill="#000000" fill-rule="nonzero" fill-opacity="1" /><path clip-path="url(#clip690)" d="M508.709 411.315 L513.594 411.315 L513.594 417.195 L508.709 417.195 L508.709 411.315 Z" fill="#000000" fill-rule="nonzero" fill-opacity="1" /><path clip-path="url(#clip690)" d="M533.779 385.713 Q530.168 385.713 528.339 389.278 Q526.533 392.82 526.533 399.949 Q526.533 407.056 528.339 410.621 Q530.168 414.162 533.779 414.162 Q537.413 414.162 539.219 410.621 Q541.047 407.056 541.047 399.949 Q541.047 392.82 539.219 389.278 Q537.413 385.713 533.779 385.713 M533.779 382.01 Q539.589 382.01 542.644 386.616 Q545.723 391.199 545.723 399.949 Q545.723 408.676 542.644 413.283 Q539.589 417.866 533.779 417.866 Q527.969 417.866 524.89 413.283 Q521.834 408.676 521.834 399.949 Q521.834 391.199 524.89 386.616 Q527.969 382.01 533.779 382.01 Z" fill="#000000" fill-rule="nonzero" fill-opacity="1" /></svg>
