<?xml version="1.0" encoding="utf-8"?>
<svg xmlns="http://www.w3.org/2000/svg" xmlns:xlink="http://www.w3.org/1999/xlink" width="500" height="320" viewBox="0 0 2000 1280">
<defs>
  <clipPath id="clip390">
    <rect x="0" y="0" width="2000" height="1280"/>
  </clipPath>
</defs>
<path clip-path="url(#clip390)" d="M0 1280 L2000 1280 L2000 -2.66454e-14 L0 -2.66454e-14  Z" fill="#ffffff" fill-rule="evenodd" fill-opacity="1"/>
<defs>
  <clipPath id="clip391">
    <rect x="1205" y="107" width="749" height="1065"/>
  </clipPath>
</defs>
<path clip-path="url(#clip390)" d="M185.496 1171.03 L1952.76 1171.03 L1952.76 107.256 L185.496 107.256  Z" fill="#ffffff" fill-rule="evenodd" fill-opacity="1"/>
<defs>
  <clipPath id="clip392">
    <rect x="185" y="107" width="1768" height="1065"/>
  </clipPath>
</defs>
<polyline clip-path="url(#clip392)" style="stroke:#000000; stroke-linecap:round; stroke-linejoin:round; stroke-width:2; stroke-opacity:0.1; fill:none" points="235.513,1171.03 235.513,107.256 "/>
<polyline clip-path="url(#clip392)" style="stroke:#000000; stroke-linecap:round; stroke-linejoin:round; stroke-width:2; stroke-opacity:0.1; fill:none" points="498.068,1171.03 498.068,107.256 "/>
<polyline clip-path="url(#clip392)" style="stroke:#000000; stroke-linecap:round; stroke-linejoin:round; stroke-width:2; stroke-opacity:0.1; fill:none" points="760.623,1171.03 760.623,107.256 "/>
<polyline clip-path="url(#clip392)" style="stroke:#000000; stroke-linecap:round; stroke-linejoin:round; stroke-width:2; stroke-opacity:0.1; fill:none" points="1023.18,1171.03 1023.18,107.256 "/>
<polyline clip-path="url(#clip392)" style="stroke:#000000; stroke-linecap:round; stroke-linejoin:round; stroke-width:2; stroke-opacity:0.1; fill:none" points="1285.73,1171.03 1285.73,107.256 "/>
<polyline clip-path="url(#clip392)" style="stroke:#000000; stroke-linecap:round; stroke-linejoin:round; stroke-width:2; stroke-opacity:0.1; fill:none" points="1548.29,1171.03 1548.29,107.256 "/>
<polyline clip-path="url(#clip392)" style="stroke:#000000; stroke-linecap:round; stroke-linejoin:round; stroke-width:2; stroke-opacity:0.1; fill:none" points="1810.84,1171.03 1810.84,107.256 "/>
<polyline clip-path="url(#clip392)" style="stroke:#000000; stroke-linecap:round; stroke-linejoin:round; stroke-width:2; stroke-opacity:0.1; fill:none" points="185.496,1091.73 1952.76,1091.73 "/>
<polyline clip-path="url(#clip392)" style="stroke:#000000; stroke-linecap:round; stroke-linejoin:round; stroke-width:2; stroke-opacity:0.1; fill:none" points="185.496,853.135 1952.76,853.135 "/>
<polyline clip-path="url(#clip392)" style="stroke:#000000; stroke-linecap:round; stroke-linejoin:round; stroke-width:2; stroke-opacity:0.1; fill:none" points="185.496,614.544 1952.76,614.544 "/>
<polyline clip-path="url(#clip392)" style="stroke:#000000; stroke-linecap:round; stroke-linejoin:round; stroke-width:2; stroke-opacity:0.1; fill:none" points="185.496,375.953 1952.76,375.953 "/>
<polyline clip-path="url(#clip392)" style="stroke:#000000; stroke-linecap:round; stroke-linejoin:round; stroke-width:2; stroke-opacity:0.1; fill:none" points="185.496,137.363 1952.76,137.363 "/>
<polyline clip-path="url(#clip390)" style="stroke:#000000; stroke-linecap:round; stroke-linejoin:round; stroke-width:4; stroke-opacity:1; fill:none" points="185.496,1171.03 1952.76,1171.03 "/>
<polyline clip-path="url(#clip390)" style="stroke:#000000; stroke-linecap:round; stroke-linejoin:round; stroke-width:4; stroke-opacity:1; fill:none" points="235.513,1171.03 235.513,1152.13 "/>
<polyline clip-path="url(#clip390)" style="stroke:#000000; stroke-linecap:round; stroke-linejoin:round; stroke-width:4; stroke-opacity:1; fill:none" points="498.068,1171.03 498.068,1152.13 "/>
<polyline clip-path="url(#clip390)" style="stroke:#000000; stroke-linecap:round; stroke-linejoin:round; stroke-width:4; stroke-opacity:1; fill:none" points="760.623,1171.03 760.623,1152.13 "/>
<polyline clip-path="url(#clip390)" style="stroke:#000000; stroke-linecap:round; stroke-linejoin:round; stroke-width:4; stroke-opacity:1; fill:none" points="1023.18,1171.03 1023.18,1152.13 "/>
<polyline clip-path="url(#clip390)" style="stroke:#000000; stroke-linecap:round; stroke-linejoin:round; stroke-width:4; stroke-opacity:1; fill:none" points="1285.73,1171.03 1285.73,1152.13 "/>
<polyline clip-path="url(#clip390)" style="stroke:#000000; stroke-linecap:round; stroke-linejoin:round; stroke-width:4; stroke-opacity:1; fill:none" points="1548.29,1171.03 1548.29,1152.13 "/>
<polyline clip-path="url(#clip390)" style="stroke:#000000; stroke-linecap:round; stroke-linejoin:round; stroke-width:4; stroke-opacity:1; fill:none" points="1810.84,1171.03 1810.84,1152.13 "/>
<path clip-path="url(#clip390)" d="M235.513 1198.75 Q231.902 1198.75 230.073 1202.31 Q228.267 1205.86 228.267 1212.98 Q228.267 1220.09 230.073 1223.66 Q231.902 1227.2 235.513 1227.2 Q239.147 1227.2 240.952 1223.66 Q242.781 1220.09 242.781 1212.98 Q242.781 1205.86 240.952 1202.31 Q239.147 1198.75 235.513 1198.75 M235.513 1195.05 Q241.323 1195.05 244.378 1199.65 Q247.457 1204.24 247.457 1212.98 Q247.457 1221.71 244.378 1226.32 Q241.323 1230.9 235.513 1230.9 Q229.703 1230.9 226.624 1226.32 Q223.568 1221.71 223.568 1212.98 Q223.568 1204.24 226.624 1199.65 Q229.703 1195.05 235.513 1195.05 Z" fill="#000000" fill-rule="nonzero" fill-opacity="1" /><path clip-path="url(#clip390)" d="M476.841 1226.3 L493.161 1226.3 L493.161 1230.23 L471.216 1230.23 L471.216 1226.3 Q473.878 1223.54 478.462 1218.91 Q483.068 1214.26 484.249 1212.92 Q486.494 1210.39 487.374 1208.66 Q488.276 1206.9 488.276 1205.21 Q488.276 1202.45 486.332 1200.72 Q484.411 1198.98 481.309 1198.98 Q479.11 1198.98 476.656 1199.74 Q474.226 1200.51 471.448 1202.06 L471.448 1197.34 Q474.272 1196.2 476.726 1195.62 Q479.179 1195.05 481.216 1195.05 Q486.587 1195.05 489.781 1197.73 Q492.975 1200.42 492.975 1204.91 Q492.975 1207.04 492.165 1208.96 Q491.378 1210.86 489.272 1213.45 Q488.693 1214.12 485.591 1217.34 Q482.489 1220.53 476.841 1226.3 Z" fill="#000000" fill-rule="nonzero" fill-opacity="1" /><path clip-path="url(#clip390)" d="M512.975 1198.75 Q509.364 1198.75 507.536 1202.31 Q505.73 1205.86 505.73 1212.98 Q505.73 1220.09 507.536 1223.66 Q509.364 1227.2 512.975 1227.2 Q516.61 1227.2 518.415 1223.66 Q520.244 1220.09 520.244 1212.98 Q520.244 1205.86 518.415 1202.31 Q516.61 1198.75 512.975 1198.75 M512.975 1195.05 Q518.786 1195.05 521.841 1199.65 Q524.92 1204.24 524.92 1212.98 Q524.92 1221.71 521.841 1226.32 Q518.786 1230.9 512.975 1230.9 Q507.165 1230.9 504.087 1226.32 Q501.031 1221.71 501.031 1212.98 Q501.031 1204.24 504.087 1199.65 Q507.165 1195.05 512.975 1195.05 Z" fill="#000000" fill-rule="nonzero" fill-opacity="1" /><path clip-path="url(#clip390)" d="M748.795 1199.74 L736.989 1218.19 L748.795 1218.19 L748.795 1199.74 M747.568 1195.67 L753.448 1195.67 L753.448 1218.19 L758.378 1218.19 L758.378 1222.08 L753.448 1222.08 L753.448 1230.23 L748.795 1230.23 L748.795 1222.08 L733.193 1222.08 L733.193 1217.57 L747.568 1195.67 Z" fill="#000000" fill-rule="nonzero" fill-opacity="1" /><path clip-path="url(#clip390)" d="M776.109 1198.75 Q772.498 1198.75 770.67 1202.31 Q768.864 1205.86 768.864 1212.98 Q768.864 1220.09 770.67 1223.66 Q772.498 1227.2 776.109 1227.2 Q779.744 1227.2 781.549 1223.66 Q783.378 1220.09 783.378 1212.98 Q783.378 1205.86 781.549 1202.31 Q779.744 1198.75 776.109 1198.75 M776.109 1195.05 Q781.92 1195.05 784.975 1199.65 Q788.054 1204.24 788.054 1212.98 Q788.054 1221.71 784.975 1226.32 Q781.92 1230.9 776.109 1230.9 Q770.299 1230.9 767.221 1226.32 Q764.165 1221.71 764.165 1212.98 Q764.165 1204.24 767.221 1199.65 Q770.299 1195.05 776.109 1195.05 Z" fill="#000000" fill-rule="nonzero" fill-opacity="1" /><path clip-path="url(#clip390)" d="M1008.58 1211.09 Q1005.44 1211.09 1003.58 1213.24 Q1001.76 1215.39 1001.76 1219.14 Q1001.76 1222.87 1003.58 1225.05 Q1005.44 1227.2 1008.58 1227.2 Q1011.73 1227.2 1013.56 1225.05 Q1015.41 1222.87 1015.41 1219.14 Q1015.41 1215.39 1013.56 1213.24 Q1011.73 1211.09 1008.58 1211.09 M1017.87 1196.43 L1017.87 1200.69 Q1016.11 1199.86 1014.3 1199.42 Q1012.52 1198.98 1010.76 1198.98 Q1006.13 1198.98 1003.68 1202.11 Q1001.25 1205.23 1000.9 1211.55 Q1002.26 1209.54 1004.32 1208.47 Q1006.38 1207.38 1008.86 1207.38 Q1014.07 1207.38 1017.08 1210.55 Q1020.11 1213.7 1020.11 1219.14 Q1020.11 1224.47 1016.96 1227.68 Q1013.82 1230.9 1008.58 1230.9 Q1002.59 1230.9 999.417 1226.32 Q996.246 1221.71 996.246 1212.98 Q996.246 1204.79 1000.13 1199.93 Q1004.02 1195.05 1010.57 1195.05 Q1012.33 1195.05 1014.12 1195.39 Q1015.92 1195.74 1017.87 1196.43 Z" fill="#000000" fill-rule="nonzero" fill-opacity="1" /><path clip-path="url(#clip390)" d="M1038.17 1198.75 Q1034.56 1198.75 1032.73 1202.31 Q1030.92 1205.86 1030.92 1212.98 Q1030.92 1220.09 1032.73 1223.66 Q1034.56 1227.2 1038.17 1227.2 Q1041.8 1227.2 1043.61 1223.66 Q1045.44 1220.09 1045.44 1212.98 Q1045.44 1205.86 1043.61 1202.31 Q1041.8 1198.75 1038.17 1198.75 M1038.17 1195.05 Q1043.98 1195.05 1047.03 1199.65 Q1050.11 1204.24 1050.11 1212.98 Q1050.11 1221.71 1047.03 1226.32 Q1043.98 1230.9 1038.17 1230.9 Q1032.36 1230.9 1029.28 1226.32 Q1026.22 1221.71 1026.22 1212.98 Q1026.22 1204.24 1029.28 1199.65 Q1032.36 1195.05 1038.17 1195.05 Z" fill="#000000" fill-rule="nonzero" fill-opacity="1" /><path clip-path="url(#clip390)" d="M1270.61 1213.82 Q1267.27 1213.82 1265.35 1215.6 Q1263.45 1217.38 1263.45 1220.51 Q1263.45 1223.63 1265.35 1225.42 Q1267.27 1227.2 1270.61 1227.2 Q1273.94 1227.2 1275.86 1225.42 Q1277.78 1223.61 1277.78 1220.51 Q1277.78 1217.38 1275.86 1215.6 Q1273.96 1213.82 1270.61 1213.82 M1265.93 1211.83 Q1262.92 1211.09 1261.23 1209.03 Q1259.57 1206.97 1259.57 1204 Q1259.57 1199.86 1262.51 1197.45 Q1265.47 1195.05 1270.61 1195.05 Q1275.77 1195.05 1278.71 1197.45 Q1281.65 1199.86 1281.65 1204 Q1281.65 1206.97 1279.96 1209.03 Q1278.29 1211.09 1275.31 1211.83 Q1278.69 1212.61 1280.56 1214.91 Q1282.46 1217.2 1282.46 1220.51 Q1282.46 1225.53 1279.38 1228.22 Q1276.32 1230.9 1270.61 1230.9 Q1264.89 1230.9 1261.81 1228.22 Q1258.76 1225.53 1258.76 1220.51 Q1258.76 1217.2 1260.65 1214.91 Q1262.55 1212.61 1265.93 1211.83 M1264.22 1204.44 Q1264.22 1207.13 1265.88 1208.63 Q1267.57 1210.14 1270.61 1210.14 Q1273.62 1210.14 1275.31 1208.63 Q1277.02 1207.13 1277.02 1204.44 Q1277.02 1201.76 1275.31 1200.25 Q1273.62 1198.75 1270.61 1198.75 Q1267.57 1198.75 1265.88 1200.25 Q1264.22 1201.76 1264.22 1204.44 Z" fill="#000000" fill-rule="nonzero" fill-opacity="1" /><path clip-path="url(#clip390)" d="M1300.77 1198.75 Q1297.16 1198.75 1295.33 1202.31 Q1293.52 1205.86 1293.52 1212.98 Q1293.52 1220.09 1295.33 1223.66 Q1297.16 1227.2 1300.77 1227.2 Q1304.4 1227.2 1306.21 1223.66 Q1308.04 1220.09 1308.04 1212.98 Q1308.04 1205.86 1306.21 1202.31 Q1304.4 1198.75 1300.77 1198.75 M1300.77 1195.05 Q1306.58 1195.05 1309.63 1199.65 Q1312.71 1204.24 1312.71 1212.98 Q1312.71 1221.71 1309.63 1226.32 Q1306.58 1230.9 1300.77 1230.9 Q1294.96 1230.9 1291.88 1226.32 Q1288.82 1221.71 1288.82 1212.98 Q1288.82 1204.24 1291.88 1199.65 Q1294.96 1195.05 1300.77 1195.05 Z" fill="#000000" fill-rule="nonzero" fill-opacity="1" /><path clip-path="url(#clip390)" d="M1507.9 1226.3 L1515.53 1226.3 L1515.53 1199.93 L1507.22 1201.6 L1507.22 1197.34 L1515.49 1195.67 L1520.16 1195.67 L1520.16 1226.3 L1527.8 1226.3 L1527.8 1230.23 L1507.9 1230.23 L1507.9 1226.3 Z" fill="#000000" fill-rule="nonzero" fill-opacity="1" /><path clip-path="url(#clip390)" d="M1547.25 1198.75 Q1543.64 1198.75 1541.81 1202.31 Q1540 1205.86 1540 1212.98 Q1540 1220.09 1541.81 1223.66 Q1543.64 1227.2 1547.25 1227.2 Q1550.88 1227.2 1552.69 1223.66 Q1554.52 1220.09 1554.52 1212.98 Q1554.52 1205.86 1552.69 1202.31 Q1550.88 1198.75 1547.25 1198.75 M1547.25 1195.05 Q1553.06 1195.05 1556.11 1199.65 Q1559.19 1204.24 1559.19 1212.98 Q1559.19 1221.71 1556.11 1226.32 Q1553.06 1230.9 1547.25 1230.9 Q1541.44 1230.9 1538.36 1226.32 Q1535.3 1221.71 1535.3 1212.98 Q1535.3 1204.24 1538.36 1199.65 Q1541.44 1195.05 1547.25 1195.05 Z" fill="#000000" fill-rule="nonzero" fill-opacity="1" /><path clip-path="url(#clip390)" d="M1577.41 1198.75 Q1573.8 1198.75 1571.97 1202.31 Q1570.16 1205.86 1570.16 1212.98 Q1570.16 1220.09 1571.97 1223.66 Q1573.8 1227.2 1577.41 1227.2 Q1581.04 1227.2 1582.85 1223.66 Q1584.68 1220.09 1584.68 1212.98 Q1584.68 1205.86 1582.85 1202.31 Q1581.04 1198.75 1577.41 1198.75 M1577.41 1195.05 Q1583.22 1195.05 1586.28 1199.65 Q1589.35 1204.24 1589.35 1212.98 Q1589.35 1221.71 1586.28 1226.32 Q1583.22 1230.9 1577.41 1230.9 Q1571.6 1230.9 1568.52 1226.32 Q1565.47 1221.71 1565.47 1212.98 Q1565.47 1204.24 1568.52 1199.65 Q1571.6 1195.05 1577.41 1195.05 Z" fill="#000000" fill-rule="nonzero" fill-opacity="1" /><path clip-path="url(#clip390)" d="M1770.45 1226.3 L1778.09 1226.3 L1778.09 1199.93 L1769.78 1201.6 L1769.78 1197.34 L1778.04 1195.67 L1782.72 1195.67 L1782.72 1226.3 L1790.36 1226.3 L1790.36 1230.23 L1770.45 1230.23 L1770.45 1226.3 Z" fill="#000000" fill-rule="nonzero" fill-opacity="1" /><path clip-path="url(#clip390)" d="M1803.83 1226.3 L1820.15 1226.3 L1820.15 1230.23 L1798.21 1230.23 L1798.21 1226.3 Q1800.87 1223.54 1805.45 1218.91 Q1810.06 1214.26 1811.24 1212.92 Q1813.48 1210.39 1814.36 1208.66 Q1815.27 1206.9 1815.27 1205.21 Q1815.27 1202.45 1813.32 1200.72 Q1811.4 1198.98 1808.3 1198.98 Q1806.1 1198.98 1803.65 1199.74 Q1801.22 1200.51 1798.44 1202.06 L1798.44 1197.34 Q1801.26 1196.2 1803.72 1195.62 Q1806.17 1195.05 1808.21 1195.05 Q1813.58 1195.05 1816.77 1197.73 Q1819.97 1200.42 1819.97 1204.91 Q1819.97 1207.04 1819.15 1208.96 Q1818.37 1210.86 1816.26 1213.45 Q1815.68 1214.12 1812.58 1217.34 Q1809.48 1220.53 1803.83 1226.3 Z" fill="#000000" fill-rule="nonzero" fill-opacity="1" /><path clip-path="url(#clip390)" d="M1839.96 1198.75 Q1836.35 1198.75 1834.53 1202.31 Q1832.72 1205.86 1832.72 1212.98 Q1832.72 1220.09 1834.53 1223.66 Q1836.35 1227.2 1839.96 1227.2 Q1843.6 1227.2 1845.4 1223.66 Q1847.23 1220.09 1847.23 1212.98 Q1847.23 1205.86 1845.4 1202.31 Q1843.6 1198.75 1839.96 1198.75 M1839.96 1195.05 Q1845.78 1195.05 1848.83 1199.65 Q1851.91 1204.24 1851.91 1212.98 Q1851.91 1221.71 1848.83 1226.32 Q1845.78 1230.9 1839.96 1230.9 Q1834.15 1230.9 1831.08 1226.32 Q1828.02 1221.71 1828.02 1212.98 Q1828.02 1204.24 1831.08 1199.65 Q1834.15 1195.05 1839.96 1195.05 Z" fill="#000000" fill-rule="nonzero" fill-opacity="1" /><polyline clip-path="url(#clip390)" style="stroke:#000000; stroke-linecap:round; stroke-linejoin:round; stroke-width:4; stroke-opacity:1; fill:none" points="185.496,1171.03 185.496,107.256 "/>
<polyline clip-path="url(#clip390)" style="stroke:#000000; stroke-linecap:round; stroke-linejoin:round; stroke-width:4; stroke-opacity:1; fill:none" points="185.496,1091.73 204.394,1091.73 "/>
<polyline clip-path="url(#clip390)" style="stroke:#000000; stroke-linecap:round; stroke-linejoin:round; stroke-width:4; stroke-opacity:1; fill:none" points="185.496,853.135 204.394,853.135 "/>
<polyline clip-path="url(#clip390)" style="stroke:#000000; stroke-linecap:round; stroke-linejoin:round; stroke-width:4; stroke-opacity:1; fill:none" points="185.496,614.544 204.394,614.544 "/>
<polyline clip-path="url(#clip390)" style="stroke:#000000; stroke-linecap:round; stroke-linejoin:round; stroke-width:4; stroke-opacity:1; fill:none" points="185.496,375.953 204.394,375.953 "/>
<polyline clip-path="url(#clip390)" style="stroke:#000000; stroke-linecap:round; stroke-linejoin:round; stroke-width:4; stroke-opacity:1; fill:none" points="185.496,137.363 204.394,137.363 "/>
<path clip-path="url(#clip390)" d="M53.6634 1111.52 L61.3023 1111.52 L61.3023 1085.15 L52.9921 1086.82 L52.9921 1082.56 L61.256 1080.89 L65.9319 1080.89 L65.9319 1111.52 L73.5707 1111.52 L73.5707 1115.45 L53.6634 1115.45 L53.6634 1111.52 Z" fill="#000000" fill-rule="nonzero" fill-opacity="1" /><path clip-path="url(#clip390)" d="M93.0151 1083.97 Q89.404 1083.97 87.5753 1087.54 Q85.7697 1091.08 85.7697 1098.21 Q85.7697 1105.31 87.5753 1108.88 Q89.404 1112.42 93.0151 1112.42 Q96.6493 1112.42 98.4548 1108.88 Q100.284 1105.31 100.284 1098.21 Q100.284 1091.08 98.4548 1087.54 Q96.6493 1083.97 93.0151 1083.97 M93.0151 1080.27 Q98.8252 1080.27 101.881 1084.87 Q104.959 1089.46 104.959 1098.21 Q104.959 1106.93 101.881 1111.54 Q98.8252 1116.12 93.0151 1116.12 Q87.2049 1116.12 84.1262 1111.54 Q81.0707 1106.93 81.0707 1098.21 Q81.0707 1089.46 84.1262 1084.87 Q87.2049 1080.27 93.0151 1080.27 Z" fill="#000000" fill-rule="nonzero" fill-opacity="1" /><path clip-path="url(#clip390)" d="M104.959 1074.37 L129.071 1074.37 L129.071 1077.57 L104.959 1077.57 L104.959 1074.37 Z" fill="#000000" fill-rule="nonzero" fill-opacity="1" /><path clip-path="url(#clip390)" d="M147.71 1063.27 L138.118 1078.26 L147.71 1078.26 L147.71 1063.27 M146.713 1059.96 L151.49 1059.96 L151.49 1078.26 L155.496 1078.26 L155.496 1081.42 L151.49 1081.42 L151.49 1088.04 L147.71 1088.04 L147.71 1081.42 L135.033 1081.42 L135.033 1077.75 L146.713 1059.96 Z" fill="#000000" fill-rule="nonzero" fill-opacity="1" /><path clip-path="url(#clip390)" d="M54.585 872.927 L62.2238 872.927 L62.2238 846.562 L53.9137 848.228 L53.9137 843.969 L62.1776 842.302 L66.8535 842.302 L66.8535 872.927 L74.4923 872.927 L74.4923 876.862 L54.585 876.862 L54.585 872.927 Z" fill="#000000" fill-rule="nonzero" fill-opacity="1" /><path clip-path="url(#clip390)" d="M93.9366 845.381 Q90.3255 845.381 88.4969 848.946 Q86.6913 852.487 86.6913 859.617 Q86.6913 866.724 88.4969 870.288 Q90.3255 873.83 93.9366 873.83 Q97.5709 873.83 99.3764 870.288 Q101.205 866.724 101.205 859.617 Q101.205 852.487 99.3764 848.946 Q97.5709 845.381 93.9366 845.381 M93.9366 841.677 Q99.7468 841.677 102.802 846.284 Q105.881 850.867 105.881 859.617 Q105.881 868.344 102.802 872.95 Q99.7468 877.534 93.9366 877.534 Q88.1265 877.534 85.0478 872.95 Q81.9923 868.344 81.9923 859.617 Q81.9923 850.867 85.0478 846.284 Q88.1265 841.677 93.9366 841.677 Z" fill="#000000" fill-rule="nonzero" fill-opacity="1" /><path clip-path="url(#clip390)" d="M105.881 835.779 L129.993 835.779 L129.993 838.976 L105.881 838.976 L105.881 835.779 Z" fill="#000000" fill-rule="nonzero" fill-opacity="1" /><path clip-path="url(#clip390)" d="M149.703 834.312 Q152.43 834.895 153.954 836.738 Q155.496 838.581 155.496 841.289 Q155.496 845.446 152.637 847.722 Q149.778 849.997 144.512 849.997 Q142.744 849.997 140.863 849.64 Q139.002 849.301 137.008 848.606 L137.008 844.938 Q138.588 845.86 140.469 846.33 Q142.349 846.8 144.399 846.8 Q147.973 846.8 149.835 845.389 Q151.716 843.979 151.716 841.289 Q151.716 838.807 149.966 837.415 Q148.236 836.004 145.133 836.004 L141.86 836.004 L141.86 832.882 L145.283 832.882 Q148.086 832.882 149.571 831.773 Q151.057 830.644 151.057 828.538 Q151.057 826.375 149.515 825.228 Q147.992 824.061 145.133 824.061 Q143.572 824.061 141.785 824.4 Q139.998 824.739 137.854 825.453 L137.854 822.068 Q140.017 821.466 141.898 821.165 Q143.797 820.864 145.471 820.864 Q149.797 820.864 152.317 822.839 Q154.838 824.795 154.838 828.143 Q154.838 830.475 153.502 832.092 Q152.167 833.691 149.703 834.312 Z" fill="#000000" fill-rule="nonzero" fill-opacity="1" /><path clip-path="url(#clip390)" d="M55.3561 634.337 L62.995 634.337 L62.995 607.971 L54.6848 609.638 L54.6848 605.378 L62.9487 603.712 L67.6246 603.712 L67.6246 634.337 L75.2634 634.337 L75.2634 638.272 L55.3561 638.272 L55.3561 634.337 Z" fill="#000000" fill-rule="nonzero" fill-opacity="1" /><path clip-path="url(#clip390)" d="M94.7078 606.79 Q91.0967 606.79 89.268 610.355 Q87.4624 613.897 87.4624 621.026 Q87.4624 628.133 89.268 631.698 Q91.0967 635.239 94.7078 635.239 Q98.342 635.239 100.148 631.698 Q101.976 628.133 101.976 621.026 Q101.976 613.897 100.148 610.355 Q98.342 606.79 94.7078 606.79 M94.7078 603.087 Q100.518 603.087 103.573 607.693 Q106.652 612.276 106.652 621.026 Q106.652 629.753 103.573 634.36 Q100.518 638.943 94.7078 638.943 Q88.8976 638.943 85.8189 634.36 Q82.7634 629.753 82.7634 621.026 Q82.7634 612.276 85.8189 607.693 Q88.8976 603.087 94.7078 603.087 Z" fill="#000000" fill-rule="nonzero" fill-opacity="1" /><path clip-path="url(#clip390)" d="M106.652 597.188 L130.764 597.188 L130.764 600.385 L106.652 600.385 L106.652 597.188 Z" fill="#000000" fill-rule="nonzero" fill-opacity="1" /><path clip-path="url(#clip390)" d="M142.236 607.664 L155.496 607.664 L155.496 610.861 L137.666 610.861 L137.666 607.664 Q139.829 605.426 143.553 601.664 Q147.296 597.884 148.255 596.793 Q150.079 594.743 150.794 593.332 Q151.527 591.903 151.527 590.53 Q151.527 588.292 149.948 586.881 Q148.387 585.471 145.866 585.471 Q144.08 585.471 142.086 586.091 Q140.111 586.712 137.854 587.972 L137.854 584.135 Q140.149 583.214 142.142 582.744 Q144.136 582.273 145.791 582.273 Q150.155 582.273 152.75 584.455 Q155.345 586.637 155.345 590.286 Q155.345 592.016 154.687 593.577 Q154.048 595.119 152.336 597.226 Q151.866 597.771 149.346 600.385 Q146.826 602.981 142.236 607.664 Z" fill="#000000" fill-rule="nonzero" fill-opacity="1" /><path clip-path="url(#clip390)" d="M55.0552 395.746 L62.694 395.746 L62.694 369.38 L54.3839 371.047 L54.3839 366.788 L62.6477 365.121 L67.3236 365.121 L67.3236 395.746 L74.9625 395.746 L74.9625 399.681 L55.0552 399.681 L55.0552 395.746 Z" fill="#000000" fill-rule="nonzero" fill-opacity="1" /><path clip-path="url(#clip390)" d="M94.4068 368.2 Q90.7957 368.2 88.967 371.764 Q87.1615 375.306 87.1615 382.436 Q87.1615 389.542 88.967 393.107 Q90.7957 396.649 94.4068 396.649 Q98.0411 396.649 99.8466 393.107 Q101.675 389.542 101.675 382.436 Q101.675 375.306 99.8466 371.764 Q98.0411 368.2 94.4068 368.2 M94.4068 364.496 Q100.217 364.496 103.273 369.102 Q106.351 373.686 106.351 382.436 Q106.351 391.163 103.273 395.769 Q100.217 400.352 94.4068 400.352 Q88.5967 400.352 85.518 395.769 Q82.4625 391.163 82.4625 382.436 Q82.4625 373.686 85.518 369.102 Q88.5967 364.496 94.4068 364.496 Z" fill="#000000" fill-rule="nonzero" fill-opacity="1" /><path clip-path="url(#clip390)" d="M106.351 358.597 L130.463 358.597 L130.463 361.795 L106.351 361.795 L106.351 358.597 Z" fill="#000000" fill-rule="nonzero" fill-opacity="1" /><path clip-path="url(#clip390)" d="M139.321 369.073 L145.528 369.073 L145.528 347.651 L138.776 349.005 L138.776 345.545 L145.49 344.191 L149.289 344.191 L149.289 369.073 L155.496 369.073 L155.496 372.271 L139.321 372.271 L139.321 369.073 Z" fill="#000000" fill-rule="nonzero" fill-opacity="1" /><path clip-path="url(#clip390)" d="M84.7903 157.155 L92.4291 157.155 L92.4291 130.79 L84.119 132.456 L84.119 128.197 L92.3828 126.53 L97.0587 126.53 L97.0587 157.155 L104.698 157.155 L104.698 161.09 L84.7903 161.09 L84.7903 157.155 Z" fill="#000000" fill-rule="nonzero" fill-opacity="1" /><path clip-path="url(#clip390)" d="M124.142 129.609 Q120.531 129.609 118.702 133.174 Q116.897 136.715 116.897 143.845 Q116.897 150.951 118.702 154.516 Q120.531 158.058 124.142 158.058 Q127.776 158.058 129.582 154.516 Q131.41 150.951 131.41 143.845 Q131.41 136.715 129.582 133.174 Q127.776 129.609 124.142 129.609 M124.142 125.905 Q129.952 125.905 133.008 130.512 Q136.086 135.095 136.086 143.845 Q136.086 152.572 133.008 157.178 Q129.952 161.762 124.142 161.762 Q118.332 161.762 115.253 157.178 Q112.198 152.572 112.198 143.845 Q112.198 135.095 115.253 130.512 Q118.332 125.905 124.142 125.905 Z" fill="#000000" fill-rule="nonzero" fill-opacity="1" /><path clip-path="url(#clip390)" d="M145.791 108.101 Q142.857 108.101 141.371 110.998 Q139.904 113.875 139.904 119.668 Q139.904 125.442 141.371 128.338 Q142.857 131.216 145.791 131.216 Q148.744 131.216 150.211 128.338 Q151.697 125.442 151.697 119.668 Q151.697 113.875 150.211 110.998 Q148.744 108.101 145.791 108.101 M145.791 105.092 Q150.512 105.092 152.994 108.835 Q155.496 112.559 155.496 119.668 Q155.496 126.759 152.994 130.501 Q150.512 134.225 145.791 134.225 Q141.07 134.225 138.569 130.501 Q136.086 126.759 136.086 119.668 Q136.086 112.559 138.569 108.835 Q141.07 105.092 145.791 105.092 Z" fill="#000000" fill-rule="nonzero" fill-opacity="1" /><g clip-path="url(#clip390)">
<text style="fill:#000000; fill-opacity:1; font-family:Arial,Helvetica Neue,Helvetica,sans-serif; font-size:66px; text-anchor:middle;" transform="rotate(0, 1069.13, 57.6)" x="1069.13" y="57.6">Diagonal preconditioning in CG</text>
</g>
<polyline clip-path="url(#clip392)" style="stroke:#009af9; stroke-linecap:round; stroke-linejoin:round; stroke-width:8; stroke-opacity:1; fill:none" points="235.513,137.363 248.64,174.662 261.768,246.608 274.896,282.773 288.024,284.512 301.152,286.189 314.279,308.695 327.407,341.838 340.535,362.602 353.663,370.373 366.79,374.557 379.918,384.019 393.046,401.364 406.174,415.549 419.301,421.769 432.429,425.934 445.557,430.544 458.685,440.373 471.813,447.965 484.94,454.21 498.068,458.495 511.196,462.342 524.324,467.758 537.451,474.178 550.579,477.803 563.707,483.309 576.835,488.566 589.962,491.435 603.09,495.869 616.218,501.728 629.346,507.253 642.473,512.131 655.601,515.816 668.729,519.559 681.857,524.928 694.985,528.725 708.112,531.308 721.24,538.628 734.368,543.372 747.496,550.052 760.623,555.759 773.751,562.03 786.879,569.841 800.007,577.861 813.134,584.728 826.262,594.627 839.39,602.795 852.518,612.74 865.646,622.665 878.773,629.62 891.901,638.455 905.029,646.83 918.157,652.884 931.284,661.034 944.412,667.3 957.54,672.824 970.668,679.365 983.795,683.068 996.923,687.549 1010.05,691.088 1023.18,693.929 1036.31,699.626 1049.43,700.8 1062.56,706.814 1075.69,711.352 1088.82,715.153 1101.95,721.345 1115.07,725.313 1128.2,731.475 1141.33,738.502 1154.46,746.082 1167.58,752.859 1180.71,759.491 1193.84,765.206 1206.97,771.287 1220.1,779.25 1233.22,782.91 1246.35,789.285 1259.48,795.364 1272.61,800.675 1285.73,806.667 1298.86,813.237 1311.99,817.604 1325.12,824.167 1338.25,831.124 1351.37,835.751 1364.5,842.093 1377.63,847.401 1390.76,855.173 1403.88,861.101 1417.01,867.944 1430.14,872.431 1443.27,879.011 1456.4,884.803 1469.52,894.825 1482.65,902.702 1495.78,908.789 1508.91,916.889 1522.03,924.459 1535.16,929.655 1548.29,937.756 1561.42,944.752 1574.54,952.921 1587.67,961.77 1600.8,969.113 1613.93,978.126 1627.06,986.043 1640.18,994.486 1653.31,1002.32 1666.44,1009.3 1679.57,1018.99 1692.69,1025.13 1705.82,1033.81 1718.95,1041.17 1732.08,1048.5 1745.21,1054.72 1758.33,1063.52 1771.46,1068.34 1784.59,1077.72 1797.72,1085.32 1810.84,1092.64 1823.97,1099.94 1837.1,1106.38 1850.23,1114.63 1863.36,1120.59 1876.48,1127.02 1889.61,1134.68 1902.74,1140.92 "/>
<polyline clip-path="url(#clip392)" style="stroke:#e26f46; stroke-linecap:round; stroke-linejoin:round; stroke-width:8; stroke-opacity:1; fill:none" points="235.513,137.363 248.64,196.261 261.768,270.77 274.896,337.628 288.024,391.79 301.152,446.493 314.279,490.832 327.407,541.197 340.535,580.288 353.663,613.928 366.79,676.727 379.918,742.318 393.046,800.953 406.174,842.163 419.301,896.236 432.429,945.954 445.557,979.837 458.685,1022.69 471.813,1076.82 "/>
<path clip-path="url(#clip390)" d="M1369.58 298.235 L1893.85 298.235 L1893.85 142.715 L1369.58 142.715  Z" fill="#ffffff" fill-rule="evenodd" fill-opacity="1"/>
<polyline clip-path="url(#clip390)" style="stroke:#000000; stroke-linecap:round; stroke-linejoin:round; stroke-width:4; stroke-opacity:1; fill:none" points="1369.58,298.235 1893.85,298.235 1893.85,142.715 1369.58,142.715 1369.58,298.235 "/>
<polyline clip-path="url(#clip390)" style="stroke:#009af9; stroke-linecap:round; stroke-linejoin:round; stroke-width:8; stroke-opacity:1; fill:none" points="1389.21,194.555 1507.03,194.555 "/>
<path clip-path="url(#clip390)" d="M1530.95 207.946 L1530.95 221.696 L1526.67 221.696 L1526.67 185.909 L1530.95 185.909 L1530.95 189.844 Q1532.29 187.53 1534.33 186.418 Q1536.39 185.284 1539.24 185.284 Q1543.96 185.284 1546.9 189.034 Q1549.86 192.784 1549.86 198.895 Q1549.86 205.006 1546.9 208.756 Q1543.96 212.506 1539.24 212.506 Q1536.39 212.506 1534.33 211.395 Q1532.29 210.261 1530.95 207.946 M1545.44 198.895 Q1545.44 194.196 1543.5 191.534 Q1541.57 188.849 1538.19 188.849 Q1534.81 188.849 1532.87 191.534 Q1530.95 194.196 1530.95 198.895 Q1530.95 203.594 1532.87 206.28 Q1534.81 208.942 1538.19 208.942 Q1541.57 208.942 1543.5 206.28 Q1545.44 203.594 1545.44 198.895 Z" fill="#000000" fill-rule="nonzero" fill-opacity="1" /><path clip-path="url(#clip390)" d="M1556.92 175.817 L1561.18 175.817 L1561.18 211.835 L1556.92 211.835 L1556.92 175.817 Z" fill="#000000" fill-rule="nonzero" fill-opacity="1" /><path clip-path="url(#clip390)" d="M1581.87 198.803 Q1576.71 198.803 1574.72 199.983 Q1572.73 201.164 1572.73 204.011 Q1572.73 206.28 1574.21 207.622 Q1575.72 208.942 1578.29 208.942 Q1581.83 208.942 1583.96 206.442 Q1586.11 203.918 1586.11 199.752 L1586.11 198.803 L1581.87 198.803 M1590.37 197.043 L1590.37 211.835 L1586.11 211.835 L1586.11 207.9 Q1584.65 210.261 1582.48 211.395 Q1580.3 212.506 1577.15 212.506 Q1573.17 212.506 1570.81 210.284 Q1568.47 208.039 1568.47 204.289 Q1568.47 199.914 1571.39 197.692 Q1574.33 195.469 1580.14 195.469 L1586.11 195.469 L1586.11 195.053 Q1586.11 192.113 1584.17 190.516 Q1582.24 188.895 1578.75 188.895 Q1576.53 188.895 1574.42 189.428 Q1572.31 189.96 1570.37 191.025 L1570.37 187.09 Q1572.71 186.187 1574.91 185.747 Q1577.11 185.284 1579.19 185.284 Q1584.81 185.284 1587.59 188.201 Q1590.37 191.118 1590.37 197.043 Z" fill="#000000" fill-rule="nonzero" fill-opacity="1" /><path clip-path="url(#clip390)" d="M1599.14 185.909 L1603.4 185.909 L1603.4 211.835 L1599.14 211.835 L1599.14 185.909 M1599.14 175.817 L1603.4 175.817 L1603.4 181.21 L1599.14 181.21 L1599.14 175.817 Z" fill="#000000" fill-rule="nonzero" fill-opacity="1" /><path clip-path="url(#clip390)" d="M1633.87 196.187 L1633.87 211.835 L1629.61 211.835 L1629.61 196.326 Q1629.61 192.645 1628.17 190.817 Q1626.74 188.988 1623.87 188.988 Q1620.42 188.988 1618.43 191.187 Q1616.43 193.386 1616.43 197.182 L1616.43 211.835 L1612.15 211.835 L1612.15 185.909 L1616.43 185.909 L1616.43 189.937 Q1617.96 187.599 1620.02 186.442 Q1622.11 185.284 1624.81 185.284 Q1629.28 185.284 1631.57 188.062 Q1633.87 190.817 1633.87 196.187 Z" fill="#000000" fill-rule="nonzero" fill-opacity="1" /><polyline clip-path="url(#clip390)" style="stroke:#e26f46; stroke-linecap:round; stroke-linejoin:round; stroke-width:8; stroke-opacity:1; fill:none" points="1389.21,246.395 1507.03,246.395 "/>
<path clip-path="url(#clip390)" d="M1530.95 259.786 L1530.95 273.536 L1526.67 273.536 L1526.67 237.749 L1530.95 237.749 L1530.95 241.684 Q1532.29 239.37 1534.33 238.258 Q1536.39 237.124 1539.24 237.124 Q1543.96 237.124 1546.9 240.874 Q1549.86 244.624 1549.86 250.735 Q1549.86 256.846 1546.9 260.596 Q1543.96 264.346 1539.24 264.346 Q1536.39 264.346 1534.33 263.235 Q1532.29 262.101 1530.95 259.786 M1545.44 250.735 Q1545.44 246.036 1543.5 243.374 Q1541.57 240.689 1538.19 240.689 Q1534.81 240.689 1532.87 243.374 Q1530.95 246.036 1530.95 250.735 Q1530.95 255.434 1532.87 258.12 Q1534.81 260.782 1538.19 260.782 Q1541.57 260.782 1543.5 258.12 Q1545.44 255.434 1545.44 250.735 Z" fill="#000000" fill-rule="nonzero" fill-opacity="1" /><path clip-path="url(#clip390)" d="M1571.94 241.731 Q1571.23 241.314 1570.37 241.129 Q1569.54 240.921 1568.52 240.921 Q1564.91 240.921 1562.96 243.282 Q1561.04 245.62 1561.04 250.018 L1561.04 263.675 L1556.76 263.675 L1556.76 237.749 L1561.04 237.749 L1561.04 241.777 Q1562.38 239.416 1564.54 238.282 Q1566.69 237.124 1569.77 237.124 Q1570.21 237.124 1570.74 237.194 Q1571.27 237.24 1571.92 237.356 L1571.94 241.731 Z" fill="#000000" fill-rule="nonzero" fill-opacity="1" /><path clip-path="url(#clip390)" d="M1597.55 249.647 L1597.55 251.731 L1577.96 251.731 Q1578.24 256.129 1580.6 258.444 Q1582.99 260.735 1587.22 260.735 Q1589.68 260.735 1591.97 260.133 Q1594.28 259.532 1596.55 258.328 L1596.55 262.356 Q1594.26 263.328 1591.85 263.837 Q1589.44 264.346 1586.97 264.346 Q1580.76 264.346 1577.13 260.735 Q1573.52 257.124 1573.52 250.967 Q1573.52 244.601 1576.94 240.874 Q1580.39 237.124 1586.23 237.124 Q1591.46 237.124 1594.49 240.504 Q1597.55 243.86 1597.55 249.647 M1593.29 248.397 Q1593.24 244.902 1591.32 242.819 Q1589.42 240.735 1586.27 240.735 Q1582.71 240.735 1580.56 242.749 Q1578.43 244.763 1578.1 248.42 L1593.29 248.397 Z" fill="#000000" fill-rule="nonzero" fill-opacity="1" /><path clip-path="url(#clip390)" d="M1623.19 238.745 L1623.19 242.726 Q1621.39 241.731 1619.56 241.245 Q1617.75 240.735 1615.9 240.735 Q1611.76 240.735 1609.47 243.374 Q1607.18 245.99 1607.18 250.735 Q1607.18 255.481 1609.47 258.12 Q1611.76 260.735 1615.9 260.735 Q1617.75 260.735 1619.56 260.249 Q1621.39 259.74 1623.19 258.744 L1623.19 262.68 Q1621.41 263.513 1619.49 263.93 Q1617.59 264.346 1615.44 264.346 Q1609.58 264.346 1606.13 260.666 Q1602.68 256.985 1602.68 250.735 Q1602.68 244.393 1606.16 240.758 Q1609.65 237.124 1615.72 237.124 Q1617.68 237.124 1619.56 237.541 Q1621.43 237.934 1623.19 238.745 Z" fill="#000000" fill-rule="nonzero" fill-opacity="1" /><path clip-path="url(#clip390)" d="M1640.65 240.735 Q1637.22 240.735 1635.23 243.421 Q1633.24 246.083 1633.24 250.735 Q1633.24 255.388 1635.21 258.073 Q1637.2 260.735 1640.65 260.735 Q1644.05 260.735 1646.04 258.05 Q1648.03 255.365 1648.03 250.735 Q1648.03 246.129 1646.04 243.444 Q1644.05 240.735 1640.65 240.735 M1640.65 237.124 Q1646.2 237.124 1649.37 240.735 Q1652.55 244.346 1652.55 250.735 Q1652.55 257.101 1649.37 260.735 Q1646.2 264.346 1640.65 264.346 Q1635.07 264.346 1631.9 260.735 Q1628.75 257.101 1628.75 250.735 Q1628.75 244.346 1631.9 240.735 Q1635.07 237.124 1640.65 237.124 Z" fill="#000000" fill-rule="nonzero" fill-opacity="1" /><path clip-path="url(#clip390)" d="M1681.16 248.027 L1681.16 263.675 L1676.9 263.675 L1676.9 248.166 Q1676.9 244.485 1675.46 242.657 Q1674.03 240.828 1671.16 240.828 Q1667.71 240.828 1665.72 243.027 Q1663.73 245.226 1663.73 249.022 L1663.73 263.675 L1659.44 263.675 L1659.44 237.749 L1663.73 237.749 L1663.73 241.777 Q1665.25 239.439 1667.31 238.282 Q1669.4 237.124 1672.11 237.124 Q1676.57 237.124 1678.86 239.902 Q1681.16 242.657 1681.16 248.027 Z" fill="#000000" fill-rule="nonzero" fill-opacity="1" /><path clip-path="url(#clip390)" d="M1706.71 241.684 L1706.71 227.657 L1710.97 227.657 L1710.97 263.675 L1706.71 263.675 L1706.71 259.786 Q1705.37 262.101 1703.31 263.235 Q1701.27 264.346 1698.4 264.346 Q1693.7 264.346 1690.74 260.596 Q1687.8 256.846 1687.8 250.735 Q1687.8 244.624 1690.74 240.874 Q1693.7 237.124 1698.4 237.124 Q1701.27 237.124 1703.31 238.258 Q1705.37 239.37 1706.71 241.684 M1692.2 250.735 Q1692.2 255.434 1694.12 258.12 Q1696.06 260.782 1699.44 260.782 Q1702.82 260.782 1704.77 258.12 Q1706.71 255.434 1706.71 250.735 Q1706.71 246.036 1704.77 243.374 Q1702.82 240.689 1699.44 240.689 Q1696.06 240.689 1694.12 243.374 Q1692.2 246.036 1692.2 250.735 Z" fill="#000000" fill-rule="nonzero" fill-opacity="1" /><path clip-path="url(#clip390)" d="M1719.74 237.749 L1724 237.749 L1724 263.675 L1719.74 263.675 L1719.74 237.749 M1719.74 227.657 L1724 227.657 L1724 233.05 L1719.74 233.05 L1719.74 227.657 Z" fill="#000000" fill-rule="nonzero" fill-opacity="1" /><path clip-path="url(#clip390)" d="M1737.13 230.388 L1737.13 237.749 L1745.9 237.749 L1745.9 241.059 L1737.13 241.059 L1737.13 255.133 Q1737.13 258.305 1737.98 259.207 Q1738.86 260.11 1741.53 260.11 L1745.9 260.11 L1745.9 263.675 L1741.53 263.675 Q1736.6 263.675 1734.72 261.846 Q1732.85 259.994 1732.85 255.133 L1732.85 241.059 L1729.72 241.059 L1729.72 237.749 L1732.85 237.749 L1732.85 230.388 L1737.13 230.388 Z" fill="#000000" fill-rule="nonzero" fill-opacity="1" /><path clip-path="url(#clip390)" d="M1751.5 237.749 L1755.76 237.749 L1755.76 263.675 L1751.5 263.675 L1751.5 237.749 M1751.5 227.657 L1755.76 227.657 L1755.76 233.05 L1751.5 233.05 L1751.5 227.657 Z" fill="#000000" fill-rule="nonzero" fill-opacity="1" /><path clip-path="url(#clip390)" d="M1774.72 240.735 Q1771.29 240.735 1769.3 243.421 Q1767.31 246.083 1767.31 250.735 Q1767.31 255.388 1769.28 258.073 Q1771.27 260.735 1774.72 260.735 Q1778.12 260.735 1780.11 258.05 Q1782.11 255.365 1782.11 250.735 Q1782.11 246.129 1780.11 243.444 Q1778.12 240.735 1774.72 240.735 M1774.72 237.124 Q1780.28 237.124 1783.45 240.735 Q1786.62 244.346 1786.62 250.735 Q1786.62 257.101 1783.45 260.735 Q1780.28 264.346 1774.72 264.346 Q1769.14 264.346 1765.97 260.735 Q1762.82 257.101 1762.82 250.735 Q1762.82 244.346 1765.97 240.735 Q1769.14 237.124 1774.72 237.124 Z" fill="#000000" fill-rule="nonzero" fill-opacity="1" /><path clip-path="url(#clip390)" d="M1815.23 248.027 L1815.23 263.675 L1810.97 263.675 L1810.97 248.166 Q1810.97 244.485 1809.54 242.657 Q1808.1 240.828 1805.23 240.828 Q1801.78 240.828 1799.79 243.027 Q1797.8 245.226 1797.8 249.022 L1797.8 263.675 L1793.52 263.675 L1793.52 237.749 L1797.8 237.749 L1797.8 241.777 Q1799.33 239.439 1801.39 238.282 Q1803.47 237.124 1806.18 237.124 Q1810.65 237.124 1812.94 239.902 Q1815.23 242.657 1815.23 248.027 Z" fill="#000000" fill-rule="nonzero" fill-opacity="1" /><path clip-path="url(#clip390)" d="M1845.9 249.647 L1845.9 251.731 L1826.32 251.731 Q1826.6 256.129 1828.96 258.444 Q1831.34 260.735 1835.58 260.735 Q1838.03 260.735 1840.32 260.133 Q1842.64 259.532 1844.91 258.328 L1844.91 262.356 Q1842.61 263.328 1840.21 263.837 Q1837.8 264.346 1835.32 264.346 Q1829.12 264.346 1825.48 260.735 Q1821.87 257.124 1821.87 250.967 Q1821.87 244.601 1825.3 240.874 Q1828.75 237.124 1834.58 237.124 Q1839.81 237.124 1842.85 240.504 Q1845.9 243.86 1845.9 249.647 M1841.64 248.397 Q1841.6 244.902 1839.67 242.819 Q1837.78 240.735 1834.63 240.735 Q1831.06 240.735 1828.91 242.749 Q1826.78 244.763 1826.46 248.42 L1841.64 248.397 Z" fill="#000000" fill-rule="nonzero" fill-opacity="1" /><path clip-path="url(#clip390)" d="M1869.95 241.684 L1869.95 227.657 L1874.21 227.657 L1874.21 263.675 L1869.95 263.675 L1869.95 259.786 Q1868.61 262.101 1866.55 263.235 Q1864.51 264.346 1861.64 264.346 Q1856.94 264.346 1853.98 260.596 Q1851.04 256.846 1851.04 250.735 Q1851.04 244.624 1853.98 240.874 Q1856.94 237.124 1861.64 237.124 Q1864.51 237.124 1866.55 238.258 Q1868.61 239.37 1869.95 241.684 M1855.44 250.735 Q1855.44 255.434 1857.36 258.12 Q1859.3 260.782 1862.68 260.782 Q1866.06 260.782 1868.01 258.12 Q1869.95 255.434 1869.95 250.735 Q1869.95 246.036 1868.01 243.374 Q1866.06 240.689 1862.68 240.689 Q1859.3 240.689 1857.36 243.374 Q1855.44 246.036 1855.44 250.735 Z" fill="#000000" fill-rule="nonzero" fill-opacity="1" /></svg>
