<?xml version="1.0" encoding="utf-8"?>
<svg xmlns="http://www.w3.org/2000/svg" xmlns:xlink="http://www.w3.org/1999/xlink" width="500" height="320" viewBox="0 0 2000 1280">
<defs>
  <clipPath id="clip720">
    <rect x="0" y="0" width="2000" height="1280"/>
  </clipPath>
</defs>
<path clip-path="url(#clip720)" d="M0 1280 L2000 1280 L2000 0 L0 0  Z" fill="#ffffff" fill-rule="evenodd" fill-opacity="1"/>
<defs>
  <clipPath id="clip721">
    <rect x="400" y="0" width="1401" height="1280"/>
  </clipPath>
</defs>
<path clip-path="url(#clip720)" d="M245.244 1111.02 L1952.76 1111.02 L1952.76 107.256 L245.244 107.256  Z" fill="#ffffff" fill-rule="evenodd" fill-opacity="1"/>
<defs>
  <clipPath id="clip722">
    <rect x="245" y="107" width="1709" height="1005"/>
  </clipPath>
</defs>
<polyline clip-path="url(#clip722)" style="stroke:#000000; stroke-linecap:round; stroke-linejoin:round; stroke-width:2; stroke-opacity:0.1; fill:none" points="293.57,1111.02 293.57,107.256 "/>
<polyline clip-path="url(#clip722)" style="stroke:#000000; stroke-linecap:round; stroke-linejoin:round; stroke-width:2; stroke-opacity:0.1; fill:none" points="602.164,1111.02 602.164,107.256 "/>
<polyline clip-path="url(#clip722)" style="stroke:#000000; stroke-linecap:round; stroke-linejoin:round; stroke-width:2; stroke-opacity:0.1; fill:none" points="910.758,1111.02 910.758,107.256 "/>
<polyline clip-path="url(#clip722)" style="stroke:#000000; stroke-linecap:round; stroke-linejoin:round; stroke-width:2; stroke-opacity:0.1; fill:none" points="1219.35,1111.02 1219.35,107.256 "/>
<polyline clip-path="url(#clip722)" style="stroke:#000000; stroke-linecap:round; stroke-linejoin:round; stroke-width:2; stroke-opacity:0.1; fill:none" points="1527.95,1111.02 1527.95,107.256 "/>
<polyline clip-path="url(#clip722)" style="stroke:#000000; stroke-linecap:round; stroke-linejoin:round; stroke-width:2; stroke-opacity:0.1; fill:none" points="1836.54,1111.02 1836.54,107.256 "/>
<polyline clip-path="url(#clip722)" style="stroke:#000000; stroke-linecap:round; stroke-linejoin:round; stroke-width:2; stroke-opacity:0.1; fill:none" points="245.244,1079.79 1952.76,1079.79 "/>
<polyline clip-path="url(#clip722)" style="stroke:#000000; stroke-linecap:round; stroke-linejoin:round; stroke-width:2; stroke-opacity:0.1; fill:none" points="245.244,571.217 1952.76,571.217 "/>
<polyline clip-path="url(#clip720)" style="stroke:#000000; stroke-linecap:round; stroke-linejoin:round; stroke-width:4; stroke-opacity:1; fill:none" points="245.244,1111.02 1952.76,1111.02 "/>
<polyline clip-path="url(#clip720)" style="stroke:#000000; stroke-linecap:round; stroke-linejoin:round; stroke-width:4; stroke-opacity:1; fill:none" points="293.57,1111.02 293.57,1092.12 "/>
<polyline clip-path="url(#clip720)" style="stroke:#000000; stroke-linecap:round; stroke-linejoin:round; stroke-width:4; stroke-opacity:1; fill:none" points="602.164,1111.02 602.164,1092.12 "/>
<polyline clip-path="url(#clip720)" style="stroke:#000000; stroke-linecap:round; stroke-linejoin:round; stroke-width:4; stroke-opacity:1; fill:none" points="910.758,1111.02 910.758,1092.12 "/>
<polyline clip-path="url(#clip720)" style="stroke:#000000; stroke-linecap:round; stroke-linejoin:round; stroke-width:4; stroke-opacity:1; fill:none" points="1219.35,1111.02 1219.35,1092.12 "/>
<polyline clip-path="url(#clip720)" style="stroke:#000000; stroke-linecap:round; stroke-linejoin:round; stroke-width:4; stroke-opacity:1; fill:none" points="1527.95,1111.02 1527.95,1092.12 "/>
<polyline clip-path="url(#clip720)" style="stroke:#000000; stroke-linecap:round; stroke-linejoin:round; stroke-width:4; stroke-opacity:1; fill:none" points="1836.54,1111.02 1836.54,1092.12 "/>
<path clip-path="url(#clip720)" d="M293.57 1138.74 Q289.959 1138.74 288.13 1142.3 Q286.325 1145.84 286.325 1152.97 Q286.325 1160.08 288.13 1163.64 Q289.959 1167.19 293.57 1167.19 Q297.204 1167.19 299.01 1163.64 Q300.839 1160.08 300.839 1152.97 Q300.839 1145.84 299.01 1142.3 Q297.204 1138.74 293.57 1138.74 M293.57 1135.03 Q299.38 1135.03 302.436 1139.64 Q305.515 1144.22 305.515 1152.97 Q305.515 1161.7 302.436 1166.31 Q299.38 1170.89 293.57 1170.89 Q287.76 1170.89 284.681 1166.31 Q281.626 1161.7 281.626 1152.97 Q281.626 1144.22 284.681 1139.64 Q287.76 1135.03 293.57 1135.03 Z" fill="#000000" fill-rule="nonzero" fill-opacity="1" /><path clip-path="url(#clip720)" d="M576.863 1135.66 L595.22 1135.66 L595.22 1139.59 L581.146 1139.59 L581.146 1148.07 Q582.164 1147.72 583.183 1147.56 Q584.201 1147.37 585.22 1147.37 Q591.007 1147.37 594.386 1150.54 Q597.766 1153.71 597.766 1159.13 Q597.766 1164.71 594.294 1167.81 Q590.822 1170.89 584.502 1170.89 Q582.326 1170.89 580.058 1170.52 Q577.812 1170.15 575.405 1169.41 L575.405 1164.71 Q577.488 1165.84 579.71 1166.4 Q581.933 1166.95 584.41 1166.95 Q588.414 1166.95 590.752 1164.85 Q593.09 1162.74 593.09 1159.13 Q593.09 1155.52 590.752 1153.41 Q588.414 1151.31 584.41 1151.31 Q582.535 1151.31 580.66 1151.72 Q578.808 1152.14 576.863 1153.02 L576.863 1135.66 Z" fill="#000000" fill-rule="nonzero" fill-opacity="1" /><path clip-path="url(#clip720)" d="M616.979 1138.74 Q613.368 1138.74 611.539 1142.3 Q609.733 1145.84 609.733 1152.97 Q609.733 1160.08 611.539 1163.64 Q613.368 1167.19 616.979 1167.19 Q620.613 1167.19 622.419 1163.64 Q624.247 1160.08 624.247 1152.97 Q624.247 1145.84 622.419 1142.3 Q620.613 1138.74 616.979 1138.74 M616.979 1135.03 Q622.789 1135.03 625.844 1139.64 Q628.923 1144.22 628.923 1152.97 Q628.923 1161.7 625.844 1166.31 Q622.789 1170.89 616.979 1170.89 Q611.169 1170.89 608.09 1166.31 Q605.034 1161.7 605.034 1152.97 Q605.034 1144.22 608.09 1139.64 Q611.169 1135.03 616.979 1135.03 Z" fill="#000000" fill-rule="nonzero" fill-opacity="1" /><path clip-path="url(#clip720)" d="M870.365 1166.28 L878.003 1166.28 L878.003 1139.92 L869.693 1141.58 L869.693 1137.33 L877.957 1135.66 L882.633 1135.66 L882.633 1166.28 L890.272 1166.28 L890.272 1170.22 L870.365 1170.22 L870.365 1166.28 Z" fill="#000000" fill-rule="nonzero" fill-opacity="1" /><path clip-path="url(#clip720)" d="M909.716 1138.74 Q906.105 1138.74 904.276 1142.3 Q902.471 1145.84 902.471 1152.97 Q902.471 1160.08 904.276 1163.64 Q906.105 1167.19 909.716 1167.19 Q913.35 1167.19 915.156 1163.64 Q916.985 1160.08 916.985 1152.97 Q916.985 1145.84 915.156 1142.3 Q913.35 1138.74 909.716 1138.74 M909.716 1135.03 Q915.526 1135.03 918.582 1139.64 Q921.661 1144.22 921.661 1152.97 Q921.661 1161.7 918.582 1166.31 Q915.526 1170.89 909.716 1170.89 Q903.906 1170.89 900.827 1166.31 Q897.772 1161.7 897.772 1152.97 Q897.772 1144.22 900.827 1139.64 Q903.906 1135.03 909.716 1135.03 Z" fill="#000000" fill-rule="nonzero" fill-opacity="1" /><path clip-path="url(#clip720)" d="M939.878 1138.74 Q936.267 1138.74 934.438 1142.3 Q932.633 1145.84 932.633 1152.97 Q932.633 1160.08 934.438 1163.64 Q936.267 1167.19 939.878 1167.19 Q943.512 1167.19 945.318 1163.64 Q947.147 1160.08 947.147 1152.97 Q947.147 1145.84 945.318 1142.3 Q943.512 1138.74 939.878 1138.74 M939.878 1135.03 Q945.688 1135.03 948.744 1139.64 Q951.822 1144.22 951.822 1152.97 Q951.822 1161.7 948.744 1166.31 Q945.688 1170.89 939.878 1170.89 Q934.068 1170.89 930.989 1166.31 Q927.934 1161.7 927.934 1152.97 Q927.934 1144.22 930.989 1139.64 Q934.068 1135.03 939.878 1135.03 Z" fill="#000000" fill-rule="nonzero" fill-opacity="1" /><path clip-path="url(#clip720)" d="M1178.96 1166.28 L1186.6 1166.28 L1186.6 1139.92 L1178.29 1141.58 L1178.29 1137.33 L1186.55 1135.66 L1191.23 1135.66 L1191.23 1166.28 L1198.87 1166.28 L1198.87 1170.22 L1178.96 1170.22 L1178.96 1166.28 Z" fill="#000000" fill-rule="nonzero" fill-opacity="1" /><path clip-path="url(#clip720)" d="M1208.36 1135.66 L1226.71 1135.66 L1226.71 1139.59 L1212.64 1139.59 L1212.64 1148.07 Q1213.66 1147.72 1214.68 1147.56 Q1215.69 1147.37 1216.71 1147.37 Q1222.5 1147.37 1225.88 1150.54 Q1229.26 1153.71 1229.26 1159.13 Q1229.26 1164.71 1225.79 1167.81 Q1222.31 1170.89 1216 1170.89 Q1213.82 1170.89 1211.55 1170.52 Q1209.31 1170.15 1206.9 1169.41 L1206.9 1164.71 Q1208.98 1165.84 1211.2 1166.4 Q1213.43 1166.95 1215.9 1166.95 Q1219.91 1166.95 1222.25 1164.85 Q1224.58 1162.74 1224.58 1159.13 Q1224.58 1155.52 1222.25 1153.41 Q1219.91 1151.31 1215.9 1151.31 Q1214.03 1151.31 1212.15 1151.72 Q1210.3 1152.14 1208.36 1153.02 L1208.36 1135.66 Z" fill="#000000" fill-rule="nonzero" fill-opacity="1" /><path clip-path="url(#clip720)" d="M1248.47 1138.74 Q1244.86 1138.74 1243.03 1142.3 Q1241.23 1145.84 1241.23 1152.97 Q1241.23 1160.08 1243.03 1163.64 Q1244.86 1167.19 1248.47 1167.19 Q1252.11 1167.19 1253.91 1163.64 Q1255.74 1160.08 1255.74 1152.97 Q1255.74 1145.84 1253.91 1142.3 Q1252.11 1138.74 1248.47 1138.74 M1248.47 1135.03 Q1254.28 1135.03 1257.34 1139.64 Q1260.42 1144.22 1260.42 1152.97 Q1260.42 1161.7 1257.34 1166.31 Q1254.28 1170.89 1248.47 1170.89 Q1242.66 1170.89 1239.58 1166.31 Q1236.53 1161.7 1236.53 1152.97 Q1236.53 1144.22 1239.58 1139.64 Q1242.66 1135.03 1248.47 1135.03 Z" fill="#000000" fill-rule="nonzero" fill-opacity="1" /><path clip-path="url(#clip720)" d="M1491.64 1166.28 L1507.96 1166.28 L1507.96 1170.22 L1486.01 1170.22 L1486.01 1166.28 Q1488.67 1163.53 1493.26 1158.9 Q1497.86 1154.25 1499.05 1152.9 Q1501.29 1150.38 1502.17 1148.64 Q1503.07 1146.89 1503.07 1145.2 Q1503.07 1142.44 1501.13 1140.7 Q1499.21 1138.97 1496.11 1138.97 Q1493.91 1138.97 1491.45 1139.73 Q1489.02 1140.5 1486.24 1142.05 L1486.24 1137.33 Q1489.07 1136.19 1491.52 1135.61 Q1493.98 1135.03 1496.01 1135.03 Q1501.38 1135.03 1504.58 1137.72 Q1507.77 1140.4 1507.77 1144.89 Q1507.77 1147.02 1506.96 1148.95 Q1506.17 1150.84 1504.07 1153.44 Q1503.49 1154.11 1500.39 1157.33 Q1497.29 1160.52 1491.64 1166.28 Z" fill="#000000" fill-rule="nonzero" fill-opacity="1" /><path clip-path="url(#clip720)" d="M1527.77 1138.74 Q1524.16 1138.74 1522.33 1142.3 Q1520.53 1145.84 1520.53 1152.97 Q1520.53 1160.08 1522.33 1163.64 Q1524.16 1167.19 1527.77 1167.19 Q1531.41 1167.19 1533.21 1163.64 Q1535.04 1160.08 1535.04 1152.97 Q1535.04 1145.84 1533.21 1142.3 Q1531.41 1138.74 1527.77 1138.74 M1527.77 1135.03 Q1533.58 1135.03 1536.64 1139.64 Q1539.72 1144.22 1539.72 1152.97 Q1539.72 1161.7 1536.64 1166.31 Q1533.58 1170.89 1527.77 1170.89 Q1521.96 1170.89 1518.88 1166.31 Q1515.83 1161.7 1515.83 1152.97 Q1515.83 1144.22 1518.88 1139.64 Q1521.96 1135.03 1527.77 1135.03 Z" fill="#000000" fill-rule="nonzero" fill-opacity="1" /><path clip-path="url(#clip720)" d="M1557.93 1138.74 Q1554.32 1138.74 1552.49 1142.3 Q1550.69 1145.84 1550.69 1152.97 Q1550.69 1160.08 1552.49 1163.64 Q1554.32 1167.19 1557.93 1167.19 Q1561.57 1167.19 1563.37 1163.64 Q1565.2 1160.08 1565.2 1152.97 Q1565.2 1145.84 1563.37 1142.3 Q1561.57 1138.74 1557.93 1138.74 M1557.93 1135.03 Q1563.74 1135.03 1566.8 1139.64 Q1569.88 1144.22 1569.88 1152.97 Q1569.88 1161.7 1566.8 1166.31 Q1563.74 1170.89 1557.93 1170.89 Q1552.12 1170.89 1549.05 1166.31 Q1545.99 1161.7 1545.99 1152.97 Q1545.99 1144.22 1549.05 1139.64 Q1552.12 1135.03 1557.93 1135.03 Z" fill="#000000" fill-rule="nonzero" fill-opacity="1" /><path clip-path="url(#clip720)" d="M1800.23 1166.28 L1816.55 1166.28 L1816.55 1170.22 L1794.61 1170.22 L1794.61 1166.28 Q1797.27 1163.53 1801.85 1158.9 Q1806.46 1154.25 1807.64 1152.9 Q1809.88 1150.38 1810.76 1148.64 Q1811.67 1146.89 1811.67 1145.2 Q1811.67 1142.44 1809.72 1140.7 Q1807.8 1138.97 1804.7 1138.97 Q1802.5 1138.97 1800.05 1139.73 Q1797.62 1140.5 1794.84 1142.05 L1794.84 1137.33 Q1797.66 1136.19 1800.12 1135.61 Q1802.57 1135.03 1804.61 1135.03 Q1809.98 1135.03 1813.17 1137.72 Q1816.37 1140.4 1816.37 1144.89 Q1816.37 1147.02 1815.56 1148.95 Q1814.77 1150.84 1812.66 1153.44 Q1812.08 1154.11 1808.98 1157.33 Q1805.88 1160.52 1800.23 1166.28 Z" fill="#000000" fill-rule="nonzero" fill-opacity="1" /><path clip-path="url(#clip720)" d="M1826.41 1135.66 L1844.77 1135.66 L1844.77 1139.59 L1830.69 1139.59 L1830.69 1148.07 Q1831.71 1147.72 1832.73 1147.56 Q1833.75 1147.37 1834.77 1147.37 Q1840.56 1147.37 1843.94 1150.54 Q1847.31 1153.71 1847.31 1159.13 Q1847.31 1164.71 1843.84 1167.81 Q1840.37 1170.89 1834.05 1170.89 Q1831.88 1170.89 1829.61 1170.52 Q1827.36 1170.15 1824.95 1169.41 L1824.95 1164.71 Q1827.04 1165.84 1829.26 1166.4 Q1831.48 1166.95 1833.96 1166.95 Q1837.96 1166.95 1840.3 1164.85 Q1842.64 1162.74 1842.64 1159.13 Q1842.64 1155.52 1840.3 1153.41 Q1837.96 1151.31 1833.96 1151.31 Q1832.08 1151.31 1830.21 1151.72 Q1828.36 1152.14 1826.41 1153.02 L1826.41 1135.66 Z" fill="#000000" fill-rule="nonzero" fill-opacity="1" /><path clip-path="url(#clip720)" d="M1866.53 1138.74 Q1862.92 1138.74 1861.09 1142.3 Q1859.28 1145.84 1859.28 1152.97 Q1859.28 1160.08 1861.09 1163.64 Q1862.92 1167.19 1866.53 1167.19 Q1870.16 1167.19 1871.97 1163.64 Q1873.8 1160.08 1873.8 1152.97 Q1873.8 1145.84 1871.97 1142.3 Q1870.16 1138.74 1866.53 1138.74 M1866.53 1135.03 Q1872.34 1135.03 1875.39 1139.64 Q1878.47 1144.22 1878.47 1152.97 Q1878.47 1161.7 1875.39 1166.31 Q1872.34 1170.89 1866.53 1170.89 Q1860.72 1170.89 1857.64 1166.31 Q1854.58 1161.7 1854.58 1152.97 Q1854.58 1144.22 1857.64 1139.64 Q1860.72 1135.03 1866.53 1135.03 Z" fill="#000000" fill-rule="nonzero" fill-opacity="1" /><g clip-path="url(#clip720)">
<text style="fill:#000000; fill-opacity:1; font-family:Arial,Helvetica Neue,Helvetica,sans-serif; font-size:66px; text-anchor:middle;" transform="rotate(0, 1099, 1252.42)" x="1099" y="1252.42">Krylov dimension</text>
</g>
<polyline clip-path="url(#clip720)" style="stroke:#000000; stroke-linecap:round; stroke-linejoin:round; stroke-width:4; stroke-opacity:1; fill:none" points="245.244,1111.02 245.244,107.256 "/>
<polyline clip-path="url(#clip720)" style="stroke:#000000; stroke-linecap:round; stroke-linejoin:round; stroke-width:4; stroke-opacity:1; fill:none" points="245.244,1079.79 264.142,1079.79 "/>
<polyline clip-path="url(#clip720)" style="stroke:#000000; stroke-linecap:round; stroke-linejoin:round; stroke-width:4; stroke-opacity:1; fill:none" points="245.244,571.217 264.142,571.217 "/>
<path clip-path="url(#clip720)" d="M113.675 1099.58 L121.314 1099.58 L121.314 1073.22 L113.004 1074.88 L113.004 1070.63 L121.268 1068.96 L125.944 1068.96 L125.944 1099.58 L133.583 1099.58 L133.583 1103.52 L113.675 1103.52 L113.675 1099.58 Z" fill="#000000" fill-rule="nonzero" fill-opacity="1" /><path clip-path="url(#clip720)" d="M153.027 1072.04 Q149.416 1072.04 147.587 1075.6 Q145.782 1079.14 145.782 1086.27 Q145.782 1093.38 147.587 1096.94 Q149.416 1100.49 153.027 1100.49 Q156.661 1100.49 158.467 1096.94 Q160.295 1093.38 160.295 1086.27 Q160.295 1079.14 158.467 1075.6 Q156.661 1072.04 153.027 1072.04 M153.027 1068.33 Q158.837 1068.33 161.893 1072.94 Q164.971 1077.52 164.971 1086.27 Q164.971 1095 161.893 1099.61 Q158.837 1104.19 153.027 1104.19 Q147.217 1104.19 144.138 1099.61 Q141.082 1095 141.082 1086.27 Q141.082 1077.52 144.138 1072.94 Q147.217 1068.33 153.027 1068.33 Z" fill="#000000" fill-rule="nonzero" fill-opacity="1" /><path clip-path="url(#clip720)" d="M164.971 1062.43 L189.083 1062.43 L189.083 1065.63 L164.971 1065.63 L164.971 1062.43 Z" fill="#000000" fill-rule="nonzero" fill-opacity="1" /><path clip-path="url(#clip720)" d="M205.878 1060.55 Q203.32 1060.55 201.816 1062.3 Q200.33 1064.05 200.33 1067.1 Q200.33 1070.13 201.816 1071.9 Q203.32 1073.64 205.878 1073.64 Q208.436 1073.64 209.922 1071.9 Q211.426 1070.13 211.426 1067.1 Q211.426 1064.05 209.922 1062.3 Q208.436 1060.55 205.878 1060.55 M213.42 1048.65 L213.42 1052.11 Q211.991 1051.43 210.524 1051.08 Q209.075 1050.72 207.646 1050.72 Q203.885 1050.72 201.891 1053.26 Q199.916 1055.8 199.634 1060.93 Q200.744 1059.29 202.417 1058.43 Q204.091 1057.54 206.104 1057.54 Q210.336 1057.54 212.781 1060.12 Q215.244 1062.68 215.244 1067.1 Q215.244 1071.43 212.687 1074.04 Q210.129 1076.65 205.878 1076.65 Q201.007 1076.65 198.43 1072.93 Q195.854 1069.19 195.854 1062.1 Q195.854 1055.44 199.013 1051.49 Q202.173 1047.52 207.496 1047.52 Q208.925 1047.52 210.373 1047.8 Q211.84 1048.08 213.42 1048.65 Z" fill="#000000" fill-rule="nonzero" fill-opacity="1" /><path clip-path="url(#clip720)" d="M114.333 591.009 L121.972 591.009 L121.972 564.644 L113.662 566.31 L113.662 562.051 L121.926 560.384 L126.602 560.384 L126.602 591.009 L134.241 591.009 L134.241 594.944 L114.333 594.944 L114.333 591.009 Z" fill="#000000" fill-rule="nonzero" fill-opacity="1" /><path clip-path="url(#clip720)" d="M153.685 563.463 Q150.074 563.463 148.245 567.028 Q146.44 570.57 146.44 577.699 Q146.44 584.806 148.245 588.37 Q150.074 591.912 153.685 591.912 Q157.319 591.912 159.125 588.37 Q160.954 584.806 160.954 577.699 Q160.954 570.57 159.125 567.028 Q157.319 563.463 153.685 563.463 M153.685 559.759 Q159.495 559.759 162.551 564.366 Q165.629 568.949 165.629 577.699 Q165.629 586.426 162.551 591.032 Q159.495 595.616 153.685 595.616 Q147.875 595.616 144.796 591.032 Q141.741 586.426 141.741 577.699 Q141.741 568.949 144.796 564.366 Q147.875 559.759 153.685 559.759 Z" fill="#000000" fill-rule="nonzero" fill-opacity="1" /><path clip-path="url(#clip720)" d="M165.629 553.861 L189.741 553.861 L189.741 557.058 L165.629 557.058 L165.629 553.861 Z" fill="#000000" fill-rule="nonzero" fill-opacity="1" /><path clip-path="url(#clip720)" d="M209.452 552.394 Q212.179 552.977 213.702 554.82 Q215.244 556.663 215.244 559.371 Q215.244 563.528 212.386 565.804 Q209.527 568.079 204.261 568.079 Q202.493 568.079 200.612 567.722 Q198.75 567.384 196.756 566.688 L196.756 563.02 Q198.336 563.942 200.217 564.412 Q202.098 564.882 204.148 564.882 Q207.721 564.882 209.583 563.472 Q211.464 562.061 211.464 559.371 Q211.464 556.889 209.715 555.497 Q207.985 554.086 204.881 554.086 L201.609 554.086 L201.609 550.964 L205.032 550.964 Q207.834 550.964 209.32 549.855 Q210.806 548.726 210.806 546.62 Q210.806 544.457 209.264 543.31 Q207.74 542.144 204.881 542.144 Q203.32 542.144 201.534 542.482 Q199.747 542.821 197.603 543.535 L197.603 540.15 Q199.766 539.548 201.646 539.247 Q203.546 538.946 205.22 538.946 Q209.546 538.946 212.066 540.921 Q214.586 542.877 214.586 546.225 Q214.586 548.557 213.251 550.174 Q211.915 551.773 209.452 552.394 Z" fill="#000000" fill-rule="nonzero" fill-opacity="1" /><g clip-path="url(#clip720)">
<text style="fill:#000000; fill-opacity:1; font-family:Arial,Helvetica Neue,Helvetica,sans-serif; font-size:66px; text-anchor:middle;" transform="rotate(-90, 71.4418, 609.137)" x="71.4418" y="609.137">relative residual norm</text>
</g>
<g clip-path="url(#clip720)">
<text style="fill:#000000; fill-opacity:1; font-family:Arial,Helvetica Neue,Helvetica,sans-serif; font-size:66px; text-anchor:middle;" transform="rotate(0, 1099, 57.6)" x="1099" y="57.6">Convergence of MINRES and CG</text>
</g>
<polyline clip-path="url(#clip722)" style="stroke:#009af9; stroke-linecap:round; stroke-linejoin:round; stroke-width:8; stroke-opacity:1; fill:none" points="293.57,140.409 299.742,189.545 305.914,223.355 312.086,249.846 318.258,271.781 324.43,291.217 330.601,307.79 336.773,322.531 342.945,335.764 349.117,348.238 355.289,358.408 361.461,368.224 367.633,378.068 373.805,387.036 379.976,395.361 386.148,402.868 392.32,409.974 398.492,416.855 404.664,423.179 410.836,429.311 417.008,435.251 423.18,441.304 429.351,446.838 435.523,452.404 441.695,457.514 447.867,462.607 454.039,467.574 460.211,472.303 466.383,476.857 472.555,481.194 478.727,485.647 484.898,489.905 491.07,494.075 497.242,498.121 503.414,502.129 509.586,505.795 515.758,509.454 521.93,513.157 528.102,516.821 534.273,520.363 540.445,523.691 546.617,527.165 552.789,530.716 558.961,534.229 565.133,537.386 571.305,540.74 577.477,544.099 583.648,547.157 589.82,550.474 595.992,553.61 602.164,556.767 608.336,559.81 614.508,562.883 620.68,566.015 626.852,569.096 633.023,572.126 639.195,575.308 645.367,578.324 651.539,581.161 657.711,584.063 663.883,587.036 670.055,590.058 676.227,592.975 682.398,595.925 688.57,598.844 694.742,601.9 700.914,604.849 707.086,607.666 713.258,610.539 719.43,613.457 725.602,616.479 731.773,619.303 737.945,622.175 744.117,625.126 750.289,627.942 756.461,630.649 762.633,633.505 768.805,636.31 774.977,639.152 781.148,641.982 787.32,644.938 793.492,647.68 799.664,650.488 805.836,653.26 812.008,656.158 818.18,658.947 824.352,661.757 830.523,664.544 836.695,667.272 842.867,670.047 849.039,672.899 855.211,675.829 861.383,678.719 867.555,681.68 873.727,684.454 879.899,687.439 886.07,690.239 892.242,693.195 898.414,696.068 904.586,698.827 910.758,701.778 916.93,704.599 923.102,707.434 929.274,710.336 935.445,713.237 941.617,716.2 947.789,719.021 953.961,721.904 960.133,724.8 966.305,727.727 972.477,730.711 978.649,733.752 984.82,736.652 990.992,739.524 997.164,742.434 1003.34,745.328 1009.51,748.384 1015.68,751.273 1021.85,754.33 1028.02,757.271 1034.2,760.13 1040.37,763.166 1046.54,766.077 1052.71,768.897 1058.88,771.666 1065.05,774.682 1071.23,777.657 1077.4,780.675 1083.57,783.562 1089.74,786.658 1095.91,789.457 1102.09,792.428 1108.26,795.316 1114.43,798.192 1120.6,801.025 1126.77,803.932 1132.95,806.883 1139.12,809.78 1145.29,812.548 1151.46,815.28 1157.63,818.233 1163.8,821.206 1169.98,824.082 1176.15,826.891 1182.32,829.809 1188.49,832.637 1194.66,835.597 1200.84,838.57 1207.01,841.649 1213.18,844.503 1219.35,847.406 1225.52,850.274 1231.7,853.098 1237.87,855.946 1244.04,858.95 1250.21,861.886 1256.38,864.848 1262.55,867.933 1268.73,870.785 1274.9,873.847 1281.07,876.728 1287.24,879.638 1293.41,882.584 1299.59,885.464 1305.76,888.54 1311.93,891.321 1318.1,894.264 1324.27,897.301 1330.45,900.313 1336.62,903.335 1342.79,906.388 1348.96,909.254 1355.13,912.193 1361.3,914.981 1367.48,917.926 1373.65,920.915 1379.82,923.895 1385.99,926.889 1392.16,929.898 1398.34,932.897 1404.51,935.925 1410.68,938.828 1416.85,941.845 1423.02,944.634 1429.2,947.579 1435.37,950.651 1441.54,953.665 1447.71,956.608 1453.88,959.473 1460.05,962.465 1466.23,965.249 1472.4,968.197 1478.57,971.113 1484.74,974.136 1490.91,977.08 1497.09,980.075 1503.26,983.091 1509.43,986.113 1515.6,989.109 1521.77,992.01 1527.95,994.973 1534.12,997.999 1540.29,1000.91 1546.46,1003.69 1552.63,1006.46 1558.8,1009.47 1564.98,1012.39 1571.15,1015.44 1577.32,1018.32 1583.49,1021.18 1589.66,1023.99 1595.84,1026.97 1602.01,1029.85 1608.18,1032.75 1614.35,1035.65 1620.52,1038.66 1626.7,1041.62 1632.87,1044.54 1639.04,1047.47 1645.21,1050.5 1651.38,1053.5 1657.56,1056.57 1663.73,1059.59 1669.9,1062.7 1676.07,1065.63 1682.24,1068.6 1688.41,1071.66 1694.59,1074.79 1700.76,1077.93 1706.93,1080.85 "/>
<polyline clip-path="url(#clip722)" style="stroke:#e26f46; stroke-linecap:round; stroke-linejoin:round; stroke-width:8; stroke-opacity:1; fill:none" points="293.57,135.664 299.742,178.3 305.914,204.604 312.086,225.279 318.258,242.297 324.43,258.414 330.601,270.435 336.773,281.717 342.945,291.683 349.117,302.339 355.289,306.088 361.461,314.766 367.633,324.701 373.805,330.658 379.976,336.557 386.148,340.647 392.32,345.925 398.492,351.738 404.664,355.214 410.836,360.312 417.008,365.173 423.18,371.861 429.351,374.353 435.523,380.11 441.695,382.305 447.867,387.276 454.039,391.38 460.211,394.429 466.383,397.673 472.555,400.316 478.727,405.691 484.898,408.387 491.07,411.843 497.242,414.828 503.414,418.511 509.586,419.068 515.758,422.653 521.93,426.777 528.102,430.067 534.273,432.423 540.445,433.565 546.617,438.548 552.789,442.866 558.961,446.005 565.133,445.399 571.305,450.891 577.477,454.293 583.648,454.047 589.82,460.24 595.992,461.381 602.164,464.785 608.336,466.53 614.508,469.95 620.68,473.753 626.852,476.242 633.023,478.702 639.195,483.598 645.367,484.724 651.539,485.409 657.711,489.102 663.883,492.934 670.055,496.528 676.227,498.2 682.398,501.547 688.57,504.09 694.742,508.766 700.914,510.463 707.086,511.652 713.258,515.222 719.43,518.693 725.602,522.959 731.773,523.372 737.945,526.845 744.117,530.765 750.289,531.919 756.461,533.218 762.633,537.983 768.805,540.153 774.977,543.452 781.148,546.133 787.32,550.631 793.492,550.717 799.664,554.36 805.836,556.674 812.008,561.159 818.18,562.57 824.352,565.661 830.523,568.157 836.695,570.117 842.867,573.504 849.039,577.333 855.211,581.21 861.383,583.612 867.555,587.431 873.727,587.902 879.899,593.474 886.07,594.01 892.242,598.893 898.414,600.757 904.586,602.067 910.758,607.421 916.93,608.639 923.102,611.65 929.274,615.376 935.445,618.261 941.617,621.978 947.789,623.053 953.961,626.713 960.133,629.777 966.305,633.071 972.477,636.737 978.649,640.444 984.82,641.663 990.992,644.2 997.164,647.57 1003.34,650.273 1009.51,655.249 1015.68,656.166 1021.85,661.2 1028.02,662.796 1034.2,664.632 1040.37,669.806 1046.54,671.231 1052.71,672.927 1058.88,675.034 1065.05,681.089 1071.23,683.579 1077.4,687.1 1083.57,688.423 1089.74,693.986 1095.91,693.219 1102.09,698.294 1108.26,700.193 1114.43,702.908 1120.6,705.22 1126.77,709.027 1132.95,712.525 1139.12,714.756 1145.29,715.909 1151.46,718.184 1157.63,723.898 1163.8,727.094 1169.98,728.813 1176.15,730.778 1182.32,735.042 1188.49,736.765 1194.66,741.339 1200.84,744.466 1207.01,748.777 1213.18,748.957 1219.35,752.453 1225.52,754.901 1231.7,757.176 1237.87,760.324 1244.04,765.207 1250.21,767.344 1256.38,770.615 1262.55,775.133 1268.73,775.215 1274.9,780.782 1281.07,781.506 1287.24,784.783 1293.41,788.161 1299.59,790.236 1305.76,795.631 1311.93,794.856 1318.1,799.8 1324.27,803.951 1330.45,806.676 1336.62,809.807 1342.79,813.223 1348.96,813.85 1355.13,817.686 1361.3,818.601 1367.48,823.483 1373.65,827 1379.82,829.882 1385.99,833.025 1392.16,836.228 1398.34,839.094 1404.51,842.469 1410.68,843.877 1416.85,848.265 1423.02,848.268 1429.2,853.138 1435.37,857.713 1441.54,860.038 1447.71,862.153 1453.88,864.051 1460.05,868.582 1466.23,868.823 1472.4,873.798 1478.57,876.326 1484.74,880.615 1490.91,882.63 1497.09,886.238 1503.26,889.489 1509.43,892.585 1515.6,895.275 1521.77,897.048 1527.95,900.746 1534.12,904.52 1540.29,906.054 1546.46,907.286 1552.63,909.809 1558.8,915.837 1564.98,917.659 1571.15,922.206 1577.32,923.174 1583.49,925.738 1589.66,927.913 1595.84,933.048 1602.01,934.659 1608.18,937.694 1614.35,940.665 1620.52,944.99 1626.7,947.274 1632.87,949.737 1639.04,952.916 1645.21,956.99 1651.38,959.72 1657.56,963.681 1663.73,966.02 1669.9,970.223 1676.07,970.921 1682.24,974.427 1688.41,978.618 1694.59,982.523 1700.76,985.72 1706.93,986.126 1713.1,988.7 1719.27,992.528 1725.45,995.457 1731.62,998.305 1737.79,1000.33 1743.96,1006.13 1750.13,1006.39 1756.31,1009.94 1762.48,1012.24 1768.65,1016.76 1774.82,1020.22 1780.99,1023.6 1787.16,1023.97 1793.34,1029.52 1799.51,1032.29 1805.68,1035.79 1811.85,1038.07 1818.02,1039.05 1824.2,1045.91 1830.37,1047.78 1836.54,1051.09 1842.71,1054.1 1848.88,1055.24 1855.06,1058.15 1861.23,1060.91 1867.4,1063.66 1873.57,1066.56 1879.74,1070.98 1885.91,1071.95 1892.09,1076.98 1898.26,1079 1904.43,1082.61 "/>
<path clip-path="url(#clip720)" d="M1570 296.235 L1895.84 296.235 L1895.84 140.715 L1570 140.715  Z" fill="#ffffff" fill-rule="evenodd" fill-opacity="1"/>
<polyline clip-path="url(#clip720)" style="stroke:#000000; stroke-linecap:round; stroke-linejoin:round; stroke-width:4; stroke-opacity:1; fill:none" points="1570,296.235 1895.84,296.235 1895.84,140.715 1570,140.715 1570,296.235 "/>
<polyline clip-path="url(#clip720)" style="stroke:#009af9; stroke-linecap:round; stroke-linejoin:round; stroke-width:8; stroke-opacity:1; fill:none" points="1588.97,192.555 1702.8,192.555 "/>
<path clip-path="url(#clip720)" d="M1742.12 188.886 Q1743.72 186.015 1745.94 184.65 Q1748.16 183.284 1751.17 183.284 Q1755.22 183.284 1757.42 186.131 Q1759.62 188.955 1759.62 194.187 L1759.62 209.835 L1755.34 209.835 L1755.34 194.325 Q1755.34 190.599 1754.02 188.793 Q1752.7 186.988 1749.99 186.988 Q1746.68 186.988 1744.76 189.187 Q1742.84 191.386 1742.84 195.182 L1742.84 209.835 L1738.56 209.835 L1738.56 194.325 Q1738.56 190.575 1737.24 188.793 Q1735.92 186.988 1733.16 186.988 Q1729.9 186.988 1727.98 189.21 Q1726.06 191.409 1726.06 195.182 L1726.06 209.835 L1721.77 209.835 L1721.77 183.909 L1726.06 183.909 L1726.06 187.937 Q1727.52 185.552 1729.55 184.418 Q1731.59 183.284 1734.39 183.284 Q1737.21 183.284 1739.18 184.719 Q1741.17 186.154 1742.12 188.886 Z" fill="#000000" fill-rule="nonzero" fill-opacity="1" /><path clip-path="url(#clip720)" d="M1768.12 183.909 L1772.38 183.909 L1772.38 209.835 L1768.12 209.835 L1768.12 183.909 M1768.12 173.816 L1772.38 173.816 L1772.38 179.21 L1768.12 179.21 L1768.12 173.816 Z" fill="#000000" fill-rule="nonzero" fill-opacity="1" /><path clip-path="url(#clip720)" d="M1802.84 194.187 L1802.84 209.835 L1798.58 209.835 L1798.58 194.325 Q1798.58 190.645 1797.14 188.816 Q1795.71 186.988 1792.84 186.988 Q1789.39 186.988 1787.4 189.187 Q1785.41 191.386 1785.41 195.182 L1785.41 209.835 L1781.13 209.835 L1781.13 183.909 L1785.41 183.909 L1785.41 187.937 Q1786.94 185.599 1789 184.441 Q1791.08 183.284 1793.79 183.284 Q1798.26 183.284 1800.55 186.062 Q1802.84 188.816 1802.84 194.187 Z" fill="#000000" fill-rule="nonzero" fill-opacity="1" /><path clip-path="url(#clip720)" d="M1826.36 187.89 Q1825.64 187.474 1824.78 187.288 Q1823.95 187.08 1822.93 187.08 Q1819.32 187.08 1817.38 189.441 Q1815.45 191.779 1815.45 196.177 L1815.45 209.835 L1811.17 209.835 L1811.17 183.909 L1815.45 183.909 L1815.45 187.937 Q1816.8 185.576 1818.95 184.441 Q1821.1 183.284 1824.18 183.284 Q1824.62 183.284 1825.15 183.353 Q1825.69 183.4 1826.33 183.515 L1826.36 187.89 Z" fill="#000000" fill-rule="nonzero" fill-opacity="1" /><path clip-path="url(#clip720)" d="M1851.96 195.807 L1851.96 197.89 L1832.38 197.89 Q1832.65 202.288 1835.01 204.603 Q1837.4 206.895 1841.64 206.895 Q1844.09 206.895 1846.38 206.293 Q1848.7 205.691 1850.96 204.487 L1850.96 208.515 Q1848.67 209.487 1846.26 209.997 Q1843.86 210.506 1841.38 210.506 Q1835.18 210.506 1831.54 206.895 Q1827.93 203.284 1827.93 197.126 Q1827.93 190.761 1831.36 187.034 Q1834.81 183.284 1840.64 183.284 Q1845.87 183.284 1848.9 186.663 Q1851.96 190.02 1851.96 195.807 M1847.7 194.557 Q1847.65 191.062 1845.73 188.978 Q1843.83 186.895 1840.69 186.895 Q1837.12 186.895 1834.97 188.909 Q1832.84 190.923 1832.51 194.58 L1847.7 194.557 Z" fill="#000000" fill-rule="nonzero" fill-opacity="1" /><path clip-path="url(#clip720)" d="M1875.48 184.673 L1875.48 188.7 Q1873.67 187.775 1871.73 187.312 Q1869.78 186.849 1867.7 186.849 Q1864.53 186.849 1862.93 187.821 Q1861.36 188.793 1861.36 190.738 Q1861.36 192.219 1862.49 193.075 Q1863.63 193.909 1867.05 194.673 L1868.51 194.997 Q1873.05 195.969 1874.95 197.751 Q1876.87 199.511 1876.87 202.682 Q1876.87 206.293 1874 208.399 Q1871.15 210.506 1866.15 210.506 Q1864.07 210.506 1861.8 210.089 Q1859.55 209.696 1857.05 208.886 L1857.05 204.487 Q1859.41 205.714 1861.7 206.339 Q1864 206.941 1866.24 206.941 Q1869.25 206.941 1870.87 205.923 Q1872.49 204.881 1872.49 203.006 Q1872.49 201.27 1871.31 200.344 Q1870.15 199.418 1866.2 198.562 L1864.71 198.214 Q1860.76 197.381 1859 195.668 Q1857.24 193.932 1857.24 190.923 Q1857.24 187.265 1859.83 185.275 Q1862.42 183.284 1867.19 183.284 Q1869.55 183.284 1871.64 183.631 Q1873.72 183.978 1875.48 184.673 Z" fill="#000000" fill-rule="nonzero" fill-opacity="1" /><polyline clip-path="url(#clip720)" style="stroke:#e26f46; stroke-linecap:round; stroke-linejoin:round; stroke-width:8; stroke-opacity:1; fill:none" points="1588.97,244.395 1702.8,244.395 "/>
<path clip-path="url(#clip720)" d="M1742.28 236.744 L1742.28 240.726 Q1740.48 239.73 1738.65 239.244 Q1736.84 238.735 1734.99 238.735 Q1730.85 238.735 1728.56 241.374 Q1726.27 243.99 1726.27 248.735 Q1726.27 253.48 1728.56 256.119 Q1730.85 258.735 1734.99 258.735 Q1736.84 258.735 1738.65 258.249 Q1740.48 257.739 1742.28 256.744 L1742.28 260.679 Q1740.5 261.513 1738.58 261.929 Q1736.68 262.346 1734.53 262.346 Q1728.67 262.346 1725.22 258.665 Q1721.77 254.985 1721.77 248.735 Q1721.77 242.392 1725.25 238.758 Q1728.74 235.124 1734.81 235.124 Q1736.77 235.124 1738.65 235.541 Q1740.52 235.934 1742.28 236.744 Z" fill="#000000" fill-rule="nonzero" fill-opacity="1" /><path clip-path="url(#clip720)" d="M1766.75 248.411 Q1766.75 243.781 1764.83 241.235 Q1762.93 238.689 1759.48 238.689 Q1756.06 238.689 1754.14 241.235 Q1752.24 243.781 1752.24 248.411 Q1752.24 253.017 1754.14 255.564 Q1756.06 258.11 1759.48 258.11 Q1762.93 258.11 1764.83 255.564 Q1766.75 253.017 1766.75 248.411 M1771.01 258.457 Q1771.01 265.077 1768.07 268.295 Q1765.13 271.536 1759.07 271.536 Q1756.82 271.536 1754.83 271.188 Q1752.84 270.864 1750.96 270.17 L1750.96 266.026 Q1752.84 267.045 1754.67 267.531 Q1756.5 268.017 1758.39 268.017 Q1762.58 268.017 1764.67 265.818 Q1766.75 263.642 1766.75 259.221 L1766.75 257.114 Q1765.43 259.406 1763.37 260.54 Q1761.31 261.675 1758.44 261.675 Q1753.67 261.675 1750.76 258.04 Q1747.84 254.406 1747.84 248.411 Q1747.84 242.392 1750.76 238.758 Q1753.67 235.124 1758.44 235.124 Q1761.31 235.124 1763.37 236.258 Q1765.43 237.392 1766.75 239.684 L1766.75 235.749 L1771.01 235.749 L1771.01 258.457 Z" fill="#000000" fill-rule="nonzero" fill-opacity="1" /></svg>
