<?xml version="1.0" encoding="utf-8"?>
<svg xmlns="http://www.w3.org/2000/svg" xmlns:xlink="http://www.w3.org/1999/xlink" width="500" height="320" viewBox="0 0 2000 1280">
<defs>
  <clipPath id="clip050">
    <rect x="0" y="0" width="2000" height="1280"/>
  </clipPath>
</defs>
<path clip-path="url(#clip050)" d="M0 1280 L2000 1280 L2000 0 L0 0  Z" fill="#ffffff" fill-rule="evenodd" fill-opacity="1"/>
<defs>
  <clipPath id="clip051">
    <rect x="400" y="0" width="1401" height="1280"/>
  </clipPath>
</defs>
<path clip-path="url(#clip050)" d="M244.586 1111.02 L1952.76 1111.02 L1952.76 107.256 L244.586 107.256  Z" fill="#ffffff" fill-rule="evenodd" fill-opacity="1"/>
<defs>
  <clipPath id="clip052">
    <rect x="244" y="107" width="1709" height="1005"/>
  </clipPath>
</defs>
<polyline clip-path="url(#clip052)" style="stroke:#000000; stroke-linecap:round; stroke-linejoin:round; stroke-width:2; stroke-opacity:0.1; fill:none" points="292.931,1111.02 292.931,107.256 "/>
<polyline clip-path="url(#clip052)" style="stroke:#000000; stroke-linecap:round; stroke-linejoin:round; stroke-width:2; stroke-opacity:0.1; fill:none" points="695.801,1111.02 695.801,107.256 "/>
<polyline clip-path="url(#clip052)" style="stroke:#000000; stroke-linecap:round; stroke-linejoin:round; stroke-width:2; stroke-opacity:0.1; fill:none" points="1098.67,1111.02 1098.67,107.256 "/>
<polyline clip-path="url(#clip052)" style="stroke:#000000; stroke-linecap:round; stroke-linejoin:round; stroke-width:2; stroke-opacity:0.1; fill:none" points="1501.54,1111.02 1501.54,107.256 "/>
<polyline clip-path="url(#clip052)" style="stroke:#000000; stroke-linecap:round; stroke-linejoin:round; stroke-width:2; stroke-opacity:0.1; fill:none" points="1904.41,1111.02 1904.41,107.256 "/>
<polyline clip-path="url(#clip052)" style="stroke:#000000; stroke-linecap:round; stroke-linejoin:round; stroke-width:2; stroke-opacity:0.1; fill:none" points="244.586,670.383 1952.76,670.383 "/>
<polyline clip-path="url(#clip052)" style="stroke:#000000; stroke-linecap:round; stroke-linejoin:round; stroke-width:2; stroke-opacity:0.1; fill:none" points="244.586,135.664 1952.76,135.664 "/>
<polyline clip-path="url(#clip050)" style="stroke:#000000; stroke-linecap:round; stroke-linejoin:round; stroke-width:4; stroke-opacity:1; fill:none" points="244.586,1111.02 1952.76,1111.02 "/>
<polyline clip-path="url(#clip050)" style="stroke:#000000; stroke-linecap:round; stroke-linejoin:round; stroke-width:4; stroke-opacity:1; fill:none" points="292.931,1111.02 292.931,1092.12 "/>
<polyline clip-path="url(#clip050)" style="stroke:#000000; stroke-linecap:round; stroke-linejoin:round; stroke-width:4; stroke-opacity:1; fill:none" points="695.801,1111.02 695.801,1092.12 "/>
<polyline clip-path="url(#clip050)" style="stroke:#000000; stroke-linecap:round; stroke-linejoin:round; stroke-width:4; stroke-opacity:1; fill:none" points="1098.67,1111.02 1098.67,1092.12 "/>
<polyline clip-path="url(#clip050)" style="stroke:#000000; stroke-linecap:round; stroke-linejoin:round; stroke-width:4; stroke-opacity:1; fill:none" points="1501.54,1111.02 1501.54,1092.12 "/>
<polyline clip-path="url(#clip050)" style="stroke:#000000; stroke-linecap:round; stroke-linejoin:round; stroke-width:4; stroke-opacity:1; fill:none" points="1904.41,1111.02 1904.41,1092.12 "/>
<path clip-path="url(#clip050)" d="M292.931 1138.74 Q289.319 1138.74 287.491 1142.3 Q285.685 1145.84 285.685 1152.97 Q285.685 1160.08 287.491 1163.64 Q289.319 1167.19 292.931 1167.19 Q296.565 1167.19 298.37 1163.64 Q300.199 1160.08 300.199 1152.97 Q300.199 1145.84 298.37 1142.3 Q296.565 1138.74 292.931 1138.74 M292.931 1135.03 Q298.741 1135.03 301.796 1139.64 Q304.875 1144.22 304.875 1152.97 Q304.875 1161.7 301.796 1166.31 Q298.741 1170.89 292.931 1170.89 Q287.12 1170.89 284.042 1166.31 Q280.986 1161.7 280.986 1152.97 Q280.986 1144.22 284.042 1139.64 Q287.12 1135.03 292.931 1135.03 Z" fill="#000000" fill-rule="nonzero" fill-opacity="1" /><path clip-path="url(#clip050)" d="M670.488 1166.28 L678.127 1166.28 L678.127 1139.92 L669.817 1141.58 L669.817 1137.33 L678.081 1135.66 L682.757 1135.66 L682.757 1166.28 L690.396 1166.28 L690.396 1170.22 L670.488 1170.22 L670.488 1166.28 Z" fill="#000000" fill-rule="nonzero" fill-opacity="1" /><path clip-path="url(#clip050)" d="M709.84 1138.74 Q706.229 1138.74 704.4 1142.3 Q702.595 1145.84 702.595 1152.97 Q702.595 1160.08 704.4 1163.64 Q706.229 1167.19 709.84 1167.19 Q713.474 1167.19 715.28 1163.64 Q717.109 1160.08 717.109 1152.97 Q717.109 1145.84 715.28 1142.3 Q713.474 1138.74 709.84 1138.74 M709.84 1135.03 Q715.65 1135.03 718.706 1139.64 Q721.784 1144.22 721.784 1152.97 Q721.784 1161.7 718.706 1166.31 Q715.65 1170.89 709.84 1170.89 Q704.03 1170.89 700.951 1166.31 Q697.896 1161.7 697.896 1152.97 Q697.896 1144.22 700.951 1139.64 Q704.03 1135.03 709.84 1135.03 Z" fill="#000000" fill-rule="nonzero" fill-opacity="1" /><path clip-path="url(#clip050)" d="M1077.44 1166.28 L1093.76 1166.28 L1093.76 1170.22 L1071.82 1170.22 L1071.82 1166.28 Q1074.48 1163.53 1079.06 1158.9 Q1083.67 1154.25 1084.85 1152.9 Q1087.1 1150.38 1087.98 1148.64 Q1088.88 1146.89 1088.88 1145.2 Q1088.88 1142.44 1086.93 1140.7 Q1085.01 1138.97 1081.91 1138.97 Q1079.71 1138.97 1077.26 1139.73 Q1074.83 1140.5 1072.05 1142.05 L1072.05 1137.33 Q1074.87 1136.19 1077.33 1135.61 Q1079.78 1135.03 1081.82 1135.03 Q1087.19 1135.03 1090.38 1137.72 Q1093.58 1140.4 1093.58 1144.89 Q1093.58 1147.02 1092.77 1148.95 Q1091.98 1150.84 1089.87 1153.44 Q1089.3 1154.11 1086.19 1157.33 Q1083.09 1160.52 1077.44 1166.28 Z" fill="#000000" fill-rule="nonzero" fill-opacity="1" /><path clip-path="url(#clip050)" d="M1113.58 1138.74 Q1109.97 1138.74 1108.14 1142.3 Q1106.33 1145.84 1106.33 1152.97 Q1106.33 1160.08 1108.14 1163.64 Q1109.97 1167.19 1113.58 1167.19 Q1117.21 1167.19 1119.02 1163.64 Q1120.85 1160.08 1120.85 1152.97 Q1120.85 1145.84 1119.02 1142.3 Q1117.21 1138.74 1113.58 1138.74 M1113.58 1135.03 Q1119.39 1135.03 1122.44 1139.64 Q1125.52 1144.22 1125.52 1152.97 Q1125.52 1161.7 1122.44 1166.31 Q1119.39 1170.89 1113.58 1170.89 Q1107.77 1170.89 1104.69 1166.31 Q1101.63 1161.7 1101.63 1152.97 Q1101.63 1144.22 1104.69 1139.64 Q1107.77 1135.03 1113.58 1135.03 Z" fill="#000000" fill-rule="nonzero" fill-opacity="1" /><path clip-path="url(#clip050)" d="M1490.38 1151.58 Q1493.74 1152.3 1495.62 1154.57 Q1497.51 1156.84 1497.51 1160.17 Q1497.51 1165.29 1493.99 1168.09 Q1490.48 1170.89 1484 1170.89 Q1481.82 1170.89 1479.5 1170.45 Q1477.21 1170.03 1474.76 1169.18 L1474.76 1164.66 Q1476.7 1165.8 1479.02 1166.38 Q1481.33 1166.95 1483.86 1166.95 Q1488.25 1166.95 1490.55 1165.22 Q1492.86 1163.48 1492.86 1160.17 Q1492.86 1157.12 1490.71 1155.4 Q1488.58 1153.67 1484.76 1153.67 L1480.73 1153.67 L1480.73 1149.83 L1484.94 1149.83 Q1488.39 1149.83 1490.22 1148.46 Q1492.05 1147.07 1492.05 1144.48 Q1492.05 1141.82 1490.15 1140.4 Q1488.28 1138.97 1484.76 1138.97 Q1482.84 1138.97 1480.64 1139.39 Q1478.44 1139.8 1475.8 1140.68 L1475.8 1136.51 Q1478.46 1135.77 1480.78 1135.4 Q1483.12 1135.03 1485.18 1135.03 Q1490.5 1135.03 1493.6 1137.46 Q1496.7 1139.87 1496.7 1143.99 Q1496.7 1146.86 1495.06 1148.85 Q1493.42 1150.82 1490.38 1151.58 Z" fill="#000000" fill-rule="nonzero" fill-opacity="1" /><path clip-path="url(#clip050)" d="M1516.38 1138.74 Q1512.77 1138.74 1510.94 1142.3 Q1509.13 1145.84 1509.13 1152.97 Q1509.13 1160.08 1510.94 1163.64 Q1512.77 1167.19 1516.38 1167.19 Q1520.01 1167.19 1521.82 1163.64 Q1523.65 1160.08 1523.65 1152.97 Q1523.65 1145.84 1521.82 1142.3 Q1520.01 1138.74 1516.38 1138.74 M1516.38 1135.03 Q1522.19 1135.03 1525.24 1139.64 Q1528.32 1144.22 1528.32 1152.97 Q1528.32 1161.7 1525.24 1166.31 Q1522.19 1170.89 1516.38 1170.89 Q1510.57 1170.89 1507.49 1166.31 Q1504.43 1161.7 1504.43 1152.97 Q1504.43 1144.22 1507.49 1139.64 Q1510.57 1135.03 1516.38 1135.03 Z" fill="#000000" fill-rule="nonzero" fill-opacity="1" /><path clip-path="url(#clip050)" d="M1892.58 1139.73 L1880.78 1158.18 L1892.58 1158.18 L1892.58 1139.73 M1891.36 1135.66 L1897.24 1135.66 L1897.24 1158.18 L1902.17 1158.18 L1902.17 1162.07 L1897.24 1162.07 L1897.24 1170.22 L1892.58 1170.22 L1892.58 1162.07 L1876.98 1162.07 L1876.98 1157.56 L1891.36 1135.66 Z" fill="#000000" fill-rule="nonzero" fill-opacity="1" /><path clip-path="url(#clip050)" d="M1919.9 1138.74 Q1916.29 1138.74 1914.46 1142.3 Q1912.65 1145.84 1912.65 1152.97 Q1912.65 1160.08 1914.46 1163.64 Q1916.29 1167.19 1919.9 1167.19 Q1923.53 1167.19 1925.34 1163.64 Q1927.17 1160.08 1927.17 1152.97 Q1927.17 1145.84 1925.34 1142.3 Q1923.53 1138.74 1919.9 1138.74 M1919.9 1135.03 Q1925.71 1135.03 1928.76 1139.64 Q1931.84 1144.22 1931.84 1152.97 Q1931.84 1161.7 1928.76 1166.31 Q1925.71 1170.89 1919.9 1170.89 Q1914.09 1170.89 1911.01 1166.31 Q1907.95 1161.7 1907.95 1152.97 Q1907.95 1144.22 1911.01 1139.64 Q1914.09 1135.03 1919.9 1135.03 Z" fill="#000000" fill-rule="nonzero" fill-opacity="1" /><g clip-path="url(#clip050)">
<text style="fill:#000000; fill-opacity:1; font-family:Arial,Helvetica Neue,Helvetica,sans-serif; font-size:66px; text-anchor:middle;" transform="rotate(0, 1098.67, 1252.42)" x="1098.67" y="1252.42">iteration number</text>
</g>
<polyline clip-path="url(#clip050)" style="stroke:#000000; stroke-linecap:round; stroke-linejoin:round; stroke-width:4; stroke-opacity:1; fill:none" points="244.586,1111.02 244.586,107.256 "/>
<polyline clip-path="url(#clip050)" style="stroke:#000000; stroke-linecap:round; stroke-linejoin:round; stroke-width:4; stroke-opacity:1; fill:none" points="244.586,670.383 263.484,670.383 "/>
<polyline clip-path="url(#clip050)" style="stroke:#000000; stroke-linecap:round; stroke-linejoin:round; stroke-width:4; stroke-opacity:1; fill:none" points="244.586,135.664 263.484,135.664 "/>
<path clip-path="url(#clip050)" d="M113.675 690.176 L121.314 690.176 L121.314 663.81 L113.004 665.477 L113.004 661.218 L121.268 659.551 L125.944 659.551 L125.944 690.176 L133.583 690.176 L133.583 694.111 L113.675 694.111 L113.675 690.176 Z" fill="#000000" fill-rule="nonzero" fill-opacity="1" /><path clip-path="url(#clip050)" d="M153.027 662.63 Q149.416 662.63 147.587 666.194 Q145.782 669.736 145.782 676.866 Q145.782 683.972 147.587 687.537 Q149.416 691.078 153.027 691.078 Q156.661 691.078 158.467 687.537 Q160.295 683.972 160.295 676.866 Q160.295 669.736 158.467 666.194 Q156.661 662.63 153.027 662.63 M153.027 658.926 Q158.837 658.926 161.893 663.532 Q164.971 668.116 164.971 676.866 Q164.971 685.592 161.893 690.199 Q158.837 694.782 153.027 694.782 Q147.217 694.782 144.138 690.199 Q141.082 685.592 141.082 676.866 Q141.082 668.116 144.138 663.532 Q147.217 658.926 153.027 658.926 Z" fill="#000000" fill-rule="nonzero" fill-opacity="1" /><path clip-path="url(#clip050)" d="M164.971 653.027 L189.083 653.027 L189.083 656.225 L164.971 656.225 L164.971 653.027 Z" fill="#000000" fill-rule="nonzero" fill-opacity="1" /><path clip-path="url(#clip050)" d="M208.793 651.56 Q211.52 652.143 213.044 653.986 Q214.586 655.83 214.586 658.538 Q214.586 662.694 211.727 664.97 Q208.869 667.246 203.602 667.246 Q201.834 667.246 199.954 666.889 Q198.092 666.55 196.098 665.854 L196.098 662.187 Q197.678 663.108 199.559 663.578 Q201.439 664.049 203.49 664.049 Q207.063 664.049 208.925 662.638 Q210.806 661.227 210.806 658.538 Q210.806 656.055 209.057 654.664 Q207.326 653.253 204.223 653.253 L200.95 653.253 L200.95 650.131 L204.374 650.131 Q207.176 650.131 208.662 649.021 Q210.147 647.893 210.147 645.786 Q210.147 643.623 208.605 642.476 Q207.082 641.31 204.223 641.31 Q202.662 641.31 200.875 641.649 Q199.089 641.987 196.944 642.702 L196.944 639.316 Q199.107 638.715 200.988 638.414 Q202.888 638.113 204.562 638.113 Q208.887 638.113 211.408 640.087 Q213.928 642.043 213.928 645.391 Q213.928 647.723 212.592 649.341 Q211.257 650.94 208.793 651.56 Z" fill="#000000" fill-rule="nonzero" fill-opacity="1" /><path clip-path="url(#clip050)" d="M143.88 155.457 L151.519 155.457 L151.519 129.091 L143.209 130.758 L143.209 126.499 L151.473 124.832 L156.149 124.832 L156.149 155.457 L163.788 155.457 L163.788 159.392 L143.88 159.392 L143.88 155.457 Z" fill="#000000" fill-rule="nonzero" fill-opacity="1" /><path clip-path="url(#clip050)" d="M183.232 127.911 Q179.621 127.911 177.792 131.475 Q175.987 135.017 175.987 142.147 Q175.987 149.253 177.792 152.818 Q179.621 156.359 183.232 156.359 Q186.866 156.359 188.672 152.818 Q190.501 149.253 190.501 142.147 Q190.501 135.017 188.672 131.475 Q186.866 127.911 183.232 127.911 M183.232 124.207 Q189.042 124.207 192.098 128.813 Q195.177 133.397 195.177 142.147 Q195.177 150.873 192.098 155.48 Q189.042 160.063 183.232 160.063 Q177.422 160.063 174.343 155.48 Q171.288 150.873 171.288 142.147 Q171.288 133.397 174.343 128.813 Q177.422 124.207 183.232 124.207 Z" fill="#000000" fill-rule="nonzero" fill-opacity="1" /><path clip-path="url(#clip050)" d="M204.881 106.403 Q201.947 106.403 200.461 109.299 Q198.994 112.177 198.994 117.97 Q198.994 123.744 200.461 126.64 Q201.947 129.518 204.881 129.518 Q207.834 129.518 209.301 126.64 Q210.787 123.744 210.787 117.97 Q210.787 112.177 209.301 109.299 Q207.834 106.403 204.881 106.403 M204.881 103.394 Q209.602 103.394 212.085 107.136 Q214.586 110.86 214.586 117.97 Q214.586 125.06 212.085 128.803 Q209.602 132.527 204.881 132.527 Q200.161 132.527 197.659 128.803 Q195.177 125.06 195.177 117.97 Q195.177 110.86 197.659 107.136 Q200.161 103.394 204.881 103.394 Z" fill="#000000" fill-rule="nonzero" fill-opacity="1" /><g clip-path="url(#clip050)">
<text style="fill:#000000; fill-opacity:1; font-family:Arial,Helvetica Neue,Helvetica,sans-serif; font-size:66px; text-anchor:middle;" transform="rotate(-90, 71.4418, 609.137)" x="71.4418" y="609.137">residual norm</text>
</g>
<g clip-path="url(#clip050)">
<text style="fill:#000000; fill-opacity:1; font-family:Arial,Helvetica Neue,Helvetica,sans-serif; font-size:66px; text-anchor:middle;" transform="rotate(0, 1098.67, 57.6)" x="1098.67" y="57.6">Incomplete LU preconditioning</text>
</g>
<polyline clip-path="url(#clip052)" style="stroke:#009af9; stroke-linecap:round; stroke-linejoin:round; stroke-width:8; stroke-opacity:1; fill:none" points="292.931,135.664 333.218,137.223 373.505,137.702 413.792,137.885 454.079,137.964 494.366,138.001 534.653,138.021 574.94,138.032 615.227,138.04 655.514,138.045 695.801,138.05 736.088,138.053 776.375,138.057 816.662,138.06 856.949,138.063 897.236,138.066 937.523,138.068 977.81,138.071 1018.1,138.074 1058.38,138.076 1098.67,138.076 1138.96,138.076 1179.25,138.076 1219.53,138.076 1259.82,138.077 1300.11,138.077 1340.39,138.077 1380.68,138.077 1420.97,138.077 1461.25,138.077 1501.54,138.077 1541.83,138.077 1582.12,138.078 1622.4,138.078 1662.69,138.079 1702.98,138.081 1743.26,138.085 1783.55,138.09 1823.84,138.095 1864.12,138.099 1904.41,138.099 "/>
<polyline clip-path="url(#clip052)" style="stroke:#e26f46; stroke-linecap:round; stroke-linejoin:round; stroke-width:8; stroke-opacity:1; fill:none" points="292.931,135.664 333.218,151.83 373.505,180.108 413.792,229.842 454.079,253.669 494.366,294.345 534.653,343.161 574.94,400.754 615.227,467.51 655.514,524.112 695.801,576.702 736.088,626.035 776.375,689.929 816.662,756.024 856.949,812.718 897.236,884.298 937.523,984.588 977.81,1082.61 "/>
<polyline clip-path="url(#clip052)" style="stroke:#3da44d; stroke-linecap:round; stroke-linejoin:round; stroke-width:8; stroke-opacity:1; fill:none" points="292.931,135.664 333.218,201.29 373.505,261.534 413.792,305.273 454.079,366.384 494.366,450.331 534.653,534.51 574.94,613.22 615.227,676.629 655.514,763.579 695.801,862.116 736.088,951.519 776.375,1072.6 "/>
<polyline clip-path="url(#clip052)" style="stroke:#c271d2; stroke-linecap:round; stroke-linejoin:round; stroke-width:8; stroke-opacity:1; fill:none" points="292.931,135.664 333.218,247.659 373.505,391.041 413.792,545.003 454.079,649.146 494.366,803.931 534.653,992.062 "/>
<polyline clip-path="url(#clip052)" style="stroke:#ac8d18; stroke-linecap:round; stroke-linejoin:round; stroke-width:8; stroke-opacity:1; fill:none" points="292.931,135.664 333.218,278.487 373.505,503.83 413.792,676.352 454.079,882.259 "/>
<path clip-path="url(#clip050)" d="M1214.03 1077.56 L1895.82 1077.56 L1895.82 766.52 L1214.03 766.52  Z" fill="#ffffff" fill-rule="evenodd" fill-opacity="1"/>
<polyline clip-path="url(#clip050)" style="stroke:#000000; stroke-linecap:round; stroke-linejoin:round; stroke-width:4; stroke-opacity:1; fill:none" points="1214.03,1077.56 1895.82,1077.56 1895.82,766.52 1214.03,766.52 1214.03,1077.56 "/>
<polyline clip-path="url(#clip050)" style="stroke:#009af9; stroke-linecap:round; stroke-linejoin:round; stroke-width:8; stroke-opacity:1; fill:none" points="1233.01,818.36 1346.89,818.36 "/>
<path clip-path="url(#clip050)" d="M1387.58 819.992 L1387.58 835.64 L1383.32 835.64 L1383.32 820.131 Q1383.32 816.45 1381.89 814.621 Q1380.45 812.793 1377.58 812.793 Q1374.13 812.793 1372.14 814.992 Q1370.15 817.191 1370.15 820.987 L1370.15 835.64 L1365.87 835.64 L1365.87 809.714 L1370.15 809.714 L1370.15 813.742 Q1371.68 811.404 1373.74 810.246 Q1375.82 809.089 1378.53 809.089 Q1383 809.089 1385.29 811.867 Q1387.58 814.621 1387.58 819.992 Z" fill="#000000" fill-rule="nonzero" fill-opacity="1" /><path clip-path="url(#clip050)" d="M1406.12 812.7 Q1402.7 812.7 1400.71 815.385 Q1398.71 818.047 1398.71 822.7 Q1398.71 827.353 1400.68 830.038 Q1402.67 832.7 1406.12 832.7 Q1409.52 832.7 1411.52 830.015 Q1413.51 827.33 1413.51 822.7 Q1413.51 818.094 1411.52 815.408 Q1409.52 812.7 1406.12 812.7 M1406.12 809.089 Q1411.68 809.089 1414.85 812.7 Q1418.02 816.311 1418.02 822.7 Q1418.02 829.066 1414.85 832.7 Q1411.68 836.311 1406.12 836.311 Q1400.54 836.311 1397.37 832.7 Q1394.22 829.066 1394.22 822.7 Q1394.22 816.311 1397.37 812.7 Q1400.54 809.089 1406.12 809.089 Z" fill="#000000" fill-rule="nonzero" fill-opacity="1" /><path clip-path="url(#clip050)" d="M1444.27 831.751 L1444.27 845.501 L1439.99 845.501 L1439.99 809.714 L1444.27 809.714 L1444.27 813.649 Q1445.61 811.334 1447.65 810.223 Q1449.71 809.089 1452.56 809.089 Q1457.28 809.089 1460.22 812.839 Q1463.18 816.589 1463.18 822.7 Q1463.18 828.811 1460.22 832.561 Q1457.28 836.311 1452.56 836.311 Q1449.71 836.311 1447.65 835.2 Q1445.61 834.066 1444.27 831.751 M1458.76 822.7 Q1458.76 818.001 1456.82 815.339 Q1454.9 812.654 1451.52 812.654 Q1448.14 812.654 1446.19 815.339 Q1444.27 818.001 1444.27 822.7 Q1444.27 827.399 1446.19 830.084 Q1448.14 832.746 1451.52 832.746 Q1454.9 832.746 1456.82 830.084 Q1458.76 827.399 1458.76 822.7 Z" fill="#000000" fill-rule="nonzero" fill-opacity="1" /><path clip-path="url(#clip050)" d="M1485.27 813.695 Q1484.55 813.279 1483.69 813.094 Q1482.86 812.885 1481.84 812.885 Q1478.23 812.885 1476.28 815.246 Q1474.36 817.584 1474.36 821.982 L1474.36 835.64 L1470.08 835.64 L1470.08 809.714 L1474.36 809.714 L1474.36 813.742 Q1475.71 811.381 1477.86 810.246 Q1480.01 809.089 1483.09 809.089 Q1483.53 809.089 1484.06 809.158 Q1484.59 809.205 1485.24 809.32 L1485.27 813.695 Z" fill="#000000" fill-rule="nonzero" fill-opacity="1" /><path clip-path="url(#clip050)" d="M1510.87 821.612 L1510.87 823.695 L1491.28 823.695 Q1491.56 828.093 1493.92 830.408 Q1496.31 832.7 1500.54 832.7 Q1503 832.7 1505.29 832.098 Q1507.6 831.496 1509.87 830.293 L1509.87 834.32 Q1507.58 835.293 1505.17 835.802 Q1502.77 836.311 1500.29 836.311 Q1494.08 836.311 1490.45 832.7 Q1486.84 829.089 1486.84 822.931 Q1486.84 816.566 1490.27 812.839 Q1493.71 809.089 1499.55 809.089 Q1504.78 809.089 1507.81 812.469 Q1510.87 815.825 1510.87 821.612 M1506.61 820.362 Q1506.56 816.867 1504.64 814.783 Q1502.74 812.7 1499.59 812.7 Q1496.03 812.7 1493.88 814.714 Q1491.75 816.728 1491.42 820.385 L1506.61 820.362 Z" fill="#000000" fill-rule="nonzero" fill-opacity="1" /><path clip-path="url(#clip050)" d="M1536.51 810.709 L1536.51 814.691 Q1534.71 813.695 1532.88 813.209 Q1531.08 812.7 1529.22 812.7 Q1525.08 812.7 1522.79 815.339 Q1520.5 817.955 1520.5 822.7 Q1520.5 827.445 1522.79 830.084 Q1525.08 832.7 1529.22 832.7 Q1531.08 832.7 1532.88 832.214 Q1534.71 831.705 1536.51 830.709 L1536.51 834.644 Q1534.73 835.478 1532.81 835.894 Q1530.91 836.311 1528.76 836.311 Q1522.9 836.311 1519.45 832.63 Q1516.01 828.95 1516.01 822.7 Q1516.01 816.357 1519.48 812.723 Q1522.97 809.089 1529.04 809.089 Q1531.01 809.089 1532.88 809.506 Q1534.76 809.899 1536.51 810.709 Z" fill="#000000" fill-rule="nonzero" fill-opacity="1" /><path clip-path="url(#clip050)" d="M1553.97 812.7 Q1550.54 812.7 1548.55 815.385 Q1546.56 818.047 1546.56 822.7 Q1546.56 827.353 1548.53 830.038 Q1550.52 832.7 1553.97 832.7 Q1557.37 832.7 1559.36 830.015 Q1561.35 827.33 1561.35 822.7 Q1561.35 818.094 1559.36 815.408 Q1557.37 812.7 1553.97 812.7 M1553.97 809.089 Q1559.52 809.089 1562.7 812.7 Q1565.87 816.311 1565.87 822.7 Q1565.87 829.066 1562.7 832.7 Q1559.52 836.311 1553.97 836.311 Q1548.39 836.311 1545.22 832.7 Q1542.07 829.066 1542.07 822.7 Q1542.07 816.311 1545.22 812.7 Q1548.39 809.089 1553.97 809.089 Z" fill="#000000" fill-rule="nonzero" fill-opacity="1" /><path clip-path="url(#clip050)" d="M1594.48 819.992 L1594.48 835.64 L1590.22 835.64 L1590.22 820.131 Q1590.22 816.45 1588.78 814.621 Q1587.35 812.793 1584.48 812.793 Q1581.03 812.793 1579.04 814.992 Q1577.05 817.191 1577.05 820.987 L1577.05 835.64 L1572.76 835.64 L1572.76 809.714 L1577.05 809.714 L1577.05 813.742 Q1578.57 811.404 1580.64 810.246 Q1582.72 809.089 1585.43 809.089 Q1589.89 809.089 1592.19 811.867 Q1594.48 814.621 1594.48 819.992 Z" fill="#000000" fill-rule="nonzero" fill-opacity="1" /><path clip-path="url(#clip050)" d="M1620.03 813.649 L1620.03 799.621 L1624.29 799.621 L1624.29 835.64 L1620.03 835.64 L1620.03 831.751 Q1618.69 834.066 1616.63 835.2 Q1614.59 836.311 1611.72 836.311 Q1607.02 836.311 1604.06 832.561 Q1601.12 828.811 1601.12 822.7 Q1601.12 816.589 1604.06 812.839 Q1607.02 809.089 1611.72 809.089 Q1614.59 809.089 1616.63 810.223 Q1618.69 811.334 1620.03 813.649 M1605.52 822.7 Q1605.52 827.399 1607.44 830.084 Q1609.38 832.746 1612.76 832.746 Q1616.14 832.746 1618.09 830.084 Q1620.03 827.399 1620.03 822.7 Q1620.03 818.001 1618.09 815.339 Q1616.14 812.654 1612.76 812.654 Q1609.38 812.654 1607.44 815.339 Q1605.52 818.001 1605.52 822.7 Z" fill="#000000" fill-rule="nonzero" fill-opacity="1" /><path clip-path="url(#clip050)" d="M1633.07 809.714 L1637.32 809.714 L1637.32 835.64 L1633.07 835.64 L1633.07 809.714 M1633.07 799.621 L1637.32 799.621 L1637.32 805.015 L1633.07 805.015 L1633.07 799.621 Z" fill="#000000" fill-rule="nonzero" fill-opacity="1" /><path clip-path="url(#clip050)" d="M1650.45 802.353 L1650.45 809.714 L1659.22 809.714 L1659.22 813.024 L1650.45 813.024 L1650.45 827.098 Q1650.45 830.269 1651.31 831.172 Q1652.19 832.075 1654.85 832.075 L1659.22 832.075 L1659.22 835.64 L1654.85 835.64 Q1649.92 835.64 1648.04 833.811 Q1646.17 831.959 1646.17 827.098 L1646.17 813.024 L1643.04 813.024 L1643.04 809.714 L1646.17 809.714 L1646.17 802.353 L1650.45 802.353 Z" fill="#000000" fill-rule="nonzero" fill-opacity="1" /><path clip-path="url(#clip050)" d="M1664.82 809.714 L1669.08 809.714 L1669.08 835.64 L1664.82 835.64 L1664.82 809.714 M1664.82 799.621 L1669.08 799.621 L1669.08 805.015 L1664.82 805.015 L1664.82 799.621 Z" fill="#000000" fill-rule="nonzero" fill-opacity="1" /><path clip-path="url(#clip050)" d="M1688.04 812.7 Q1684.62 812.7 1682.63 815.385 Q1680.63 818.047 1680.63 822.7 Q1680.63 827.353 1682.6 830.038 Q1684.59 832.7 1688.04 832.7 Q1691.44 832.7 1693.44 830.015 Q1695.43 827.33 1695.43 822.7 Q1695.43 818.094 1693.44 815.408 Q1691.44 812.7 1688.04 812.7 M1688.04 809.089 Q1693.6 809.089 1696.77 812.7 Q1699.94 816.311 1699.94 822.7 Q1699.94 829.066 1696.77 832.7 Q1693.6 836.311 1688.04 836.311 Q1682.46 836.311 1679.29 832.7 Q1676.14 829.066 1676.14 822.7 Q1676.14 816.311 1679.29 812.7 Q1682.46 809.089 1688.04 809.089 Z" fill="#000000" fill-rule="nonzero" fill-opacity="1" /><path clip-path="url(#clip050)" d="M1728.55 819.992 L1728.55 835.64 L1724.29 835.64 L1724.29 820.131 Q1724.29 816.45 1722.86 814.621 Q1721.42 812.793 1718.55 812.793 Q1715.1 812.793 1713.11 814.992 Q1711.12 817.191 1711.12 820.987 L1711.12 835.64 L1706.84 835.64 L1706.84 809.714 L1711.12 809.714 L1711.12 813.742 Q1712.65 811.404 1714.71 810.246 Q1716.79 809.089 1719.5 809.089 Q1723.97 809.089 1726.26 811.867 Q1728.55 814.621 1728.55 819.992 Z" fill="#000000" fill-rule="nonzero" fill-opacity="1" /><path clip-path="url(#clip050)" d="M1737.05 809.714 L1741.31 809.714 L1741.31 835.64 L1737.05 835.64 L1737.05 809.714 M1737.05 799.621 L1741.31 799.621 L1741.31 805.015 L1737.05 805.015 L1737.05 799.621 Z" fill="#000000" fill-rule="nonzero" fill-opacity="1" /><path clip-path="url(#clip050)" d="M1771.77 819.992 L1771.77 835.64 L1767.51 835.64 L1767.51 820.131 Q1767.51 816.45 1766.07 814.621 Q1764.64 812.793 1761.77 812.793 Q1758.32 812.793 1756.33 814.992 Q1754.34 817.191 1754.34 820.987 L1754.34 835.64 L1750.06 835.64 L1750.06 809.714 L1754.34 809.714 L1754.34 813.742 Q1755.87 811.404 1757.93 810.246 Q1760.01 809.089 1762.72 809.089 Q1767.19 809.089 1769.48 811.867 Q1771.77 814.621 1771.77 819.992 Z" fill="#000000" fill-rule="nonzero" fill-opacity="1" /><path clip-path="url(#clip050)" d="M1797.32 822.376 Q1797.32 817.746 1795.4 815.2 Q1793.5 812.654 1790.06 812.654 Q1786.63 812.654 1784.71 815.2 Q1782.81 817.746 1782.81 822.376 Q1782.81 826.982 1784.71 829.529 Q1786.63 832.075 1790.06 832.075 Q1793.5 832.075 1795.4 829.529 Q1797.32 826.982 1797.32 822.376 M1801.58 832.422 Q1801.58 839.042 1798.64 842.26 Q1795.7 845.501 1789.64 845.501 Q1787.39 845.501 1785.4 845.154 Q1783.41 844.829 1781.54 844.135 L1781.54 839.992 Q1783.41 841.01 1785.24 841.496 Q1787.07 841.982 1788.97 841.982 Q1793.16 841.982 1795.24 839.783 Q1797.32 837.607 1797.32 833.186 L1797.32 831.08 Q1796 833.371 1793.94 834.505 Q1791.88 835.64 1789.01 835.64 Q1784.25 835.64 1781.33 832.005 Q1778.41 828.371 1778.41 822.376 Q1778.41 816.357 1781.33 812.723 Q1784.25 809.089 1789.01 809.089 Q1791.88 809.089 1793.94 810.223 Q1796 811.357 1797.32 813.649 L1797.32 809.714 L1801.58 809.714 L1801.58 832.422 Z" fill="#000000" fill-rule="nonzero" fill-opacity="1" /><polyline clip-path="url(#clip050)" style="stroke:#e26f46; stroke-linecap:round; stroke-linejoin:round; stroke-width:8; stroke-opacity:1; fill:none" points="1233.01,870.2 1346.89,870.2 "/>
<path clip-path="url(#clip050)" d="M1380.73 882.758 Q1381.56 883.869 1384.06 883.869 L1386.12 883.869 L1386.12 887.48 L1383.55 887.48 Q1379.39 887.48 1377.49 885.258 Q1375.59 882.989 1375.59 878.082 L1375.59 865.813 L1365.87 865.813 L1365.87 861.554 L1389.78 861.554 L1389.78 865.813 L1379.94 865.813 L1379.94 878.336 Q1379.94 881.693 1380.73 882.758 Z" fill="#000000" fill-rule="nonzero" fill-opacity="1" /><path clip-path="url(#clip050)" d="M1412.19 865.952 L1441.86 865.952 L1441.86 869.841 L1412.19 869.841 L1412.19 865.952 M1412.19 875.396 L1441.86 875.396 L1441.86 879.332 L1412.19 879.332 L1412.19 875.396 Z" fill="#000000" fill-rule="nonzero" fill-opacity="1" /><path clip-path="url(#clip050)" d="M1471.05 883.545 L1487.37 883.545 L1487.37 887.48 L1465.43 887.48 L1465.43 883.545 Q1468.09 880.79 1472.67 876.16 Q1477.28 871.508 1478.46 870.165 Q1480.71 867.642 1481.58 865.906 Q1482.49 864.147 1482.49 862.457 Q1482.49 859.702 1480.54 857.966 Q1478.62 856.23 1475.52 856.23 Q1473.32 856.23 1470.87 856.994 Q1468.44 857.758 1465.66 859.309 L1465.66 854.586 Q1468.48 853.452 1470.94 852.873 Q1473.39 852.295 1475.43 852.295 Q1480.8 852.295 1483.99 854.98 Q1487.19 857.665 1487.19 862.156 Q1487.19 864.285 1486.38 866.207 Q1485.59 868.105 1483.48 870.697 Q1482.9 871.369 1479.8 874.586 Q1476.7 877.781 1471.05 883.545 Z" fill="#000000" fill-rule="nonzero" fill-opacity="1" /><path clip-path="url(#clip050)" d="M1497.19 881.6 L1502.07 881.6 L1502.07 887.48 L1497.19 887.48 L1497.19 881.6 Z" fill="#000000" fill-rule="nonzero" fill-opacity="1" /><path clip-path="url(#clip050)" d="M1522.26 855.998 Q1518.64 855.998 1516.82 859.563 Q1515.01 863.105 1515.01 870.234 Q1515.01 877.341 1516.82 880.906 Q1518.64 884.447 1522.26 884.447 Q1525.89 884.447 1527.7 880.906 Q1529.52 877.341 1529.52 870.234 Q1529.52 863.105 1527.7 859.563 Q1525.89 855.998 1522.26 855.998 M1522.26 852.295 Q1528.07 852.295 1531.12 856.901 Q1534.2 861.485 1534.2 870.234 Q1534.2 878.961 1531.12 883.568 Q1528.07 888.151 1522.26 888.151 Q1516.45 888.151 1513.37 883.568 Q1510.31 878.961 1510.31 870.234 Q1510.31 861.485 1513.37 856.901 Q1516.45 852.295 1522.26 852.295 Z" fill="#000000" fill-rule="nonzero" fill-opacity="1" /><path clip-path="url(#clip050)" d="M1542.9 881.6 L1547.79 881.6 L1547.79 885.582 L1543.99 892.989 L1541.01 892.989 L1542.9 885.582 L1542.9 881.6 Z" fill="#000000" fill-rule="nonzero" fill-opacity="1" /><path clip-path="url(#clip050)" d="M1576.17 854.193 L1576.17 861.554 L1584.94 861.554 L1584.94 864.864 L1576.17 864.864 L1576.17 878.938 Q1576.17 882.109 1577.02 883.012 Q1577.9 883.915 1580.57 883.915 L1584.94 883.915 L1584.94 887.48 L1580.57 887.48 Q1575.64 887.48 1573.76 885.651 Q1571.89 883.799 1571.89 878.938 L1571.89 864.864 L1568.76 864.864 L1568.76 861.554 L1571.89 861.554 L1571.89 854.193 L1576.17 854.193 Z" fill="#000000" fill-rule="nonzero" fill-opacity="1" /><path clip-path="url(#clip050)" d="M1590.54 861.554 L1594.8 861.554 L1594.8 887.48 L1590.54 887.48 L1590.54 861.554 M1590.54 851.461 L1594.8 851.461 L1594.8 856.855 L1590.54 856.855 L1590.54 851.461 Z" fill="#000000" fill-rule="nonzero" fill-opacity="1" /><path clip-path="url(#clip050)" d="M1623.9 866.531 Q1625.5 863.66 1627.72 862.295 Q1629.94 860.929 1632.95 860.929 Q1637 860.929 1639.2 863.776 Q1641.4 866.6 1641.4 871.832 L1641.4 887.48 L1637.12 887.48 L1637.12 871.971 Q1637.12 868.244 1635.8 866.438 Q1634.48 864.633 1631.77 864.633 Q1628.46 864.633 1626.54 866.832 Q1624.62 869.031 1624.62 872.827 L1624.62 887.48 L1620.33 887.48 L1620.33 871.971 Q1620.33 868.221 1619.01 866.438 Q1617.7 864.633 1614.94 864.633 Q1611.68 864.633 1609.76 866.855 Q1607.83 869.054 1607.83 872.827 L1607.83 887.48 L1603.55 887.48 L1603.55 861.554 L1607.83 861.554 L1607.83 865.582 Q1609.29 863.197 1611.33 862.063 Q1613.37 860.929 1616.17 860.929 Q1618.99 860.929 1620.96 862.364 Q1622.95 863.799 1623.9 866.531 Z" fill="#000000" fill-rule="nonzero" fill-opacity="1" /><path clip-path="url(#clip050)" d="M1672.07 873.452 L1672.07 875.535 L1652.49 875.535 Q1652.76 879.933 1655.13 882.248 Q1657.51 884.54 1661.75 884.54 Q1664.2 884.54 1666.49 883.938 Q1668.81 883.336 1671.07 882.133 L1671.07 886.16 Q1668.78 887.133 1666.38 887.642 Q1663.97 888.151 1661.49 888.151 Q1655.29 888.151 1651.65 884.54 Q1648.04 880.929 1648.04 874.771 Q1648.04 868.406 1651.47 864.679 Q1654.92 860.929 1660.75 860.929 Q1665.98 860.929 1669.01 864.309 Q1672.07 867.665 1672.07 873.452 M1667.81 872.202 Q1667.76 868.707 1665.84 866.623 Q1663.94 864.54 1660.8 864.54 Q1657.23 864.54 1655.08 866.554 Q1652.95 868.568 1652.63 872.225 L1667.81 872.202 Z" fill="#000000" fill-rule="nonzero" fill-opacity="1" /><path clip-path="url(#clip050)" d="M1694.69 865.952 L1724.36 865.952 L1724.36 869.841 L1694.69 869.841 L1694.69 865.952 M1694.69 875.396 L1724.36 875.396 L1724.36 879.332 L1694.69 879.332 L1694.69 875.396 Z" fill="#000000" fill-rule="nonzero" fill-opacity="1" /><path clip-path="url(#clip050)" d="M1759.52 855.998 Q1755.91 855.998 1754.08 859.563 Q1752.28 863.105 1752.28 870.234 Q1752.28 877.341 1754.08 880.906 Q1755.91 884.447 1759.52 884.447 Q1763.16 884.447 1764.96 880.906 Q1766.79 877.341 1766.79 870.234 Q1766.79 863.105 1764.96 859.563 Q1763.16 855.998 1759.52 855.998 M1759.52 852.295 Q1765.33 852.295 1768.39 856.901 Q1771.47 861.485 1771.47 870.234 Q1771.47 878.961 1768.39 883.568 Q1765.33 888.151 1759.52 888.151 Q1753.71 888.151 1750.63 883.568 Q1747.58 878.961 1747.58 870.234 Q1747.58 861.485 1750.63 856.901 Q1753.71 852.295 1759.52 852.295 Z" fill="#000000" fill-rule="nonzero" fill-opacity="1" /><path clip-path="url(#clip050)" d="M1779.68 881.6 L1784.57 881.6 L1784.57 887.48 L1779.68 887.48 L1779.68 881.6 Z" fill="#000000" fill-rule="nonzero" fill-opacity="1" /><path clip-path="url(#clip050)" d="M1795.56 883.545 L1803.2 883.545 L1803.2 857.179 L1794.89 858.846 L1794.89 854.586 L1803.16 852.92 L1807.83 852.92 L1807.83 883.545 L1815.47 883.545 L1815.47 887.48 L1795.56 887.48 L1795.56 883.545 Z" fill="#000000" fill-rule="nonzero" fill-opacity="1" /><path clip-path="url(#clip050)" d="M1837.76 856.994 L1825.96 875.443 L1837.76 875.443 L1837.76 856.994 M1836.54 852.92 L1842.42 852.92 L1842.42 875.443 L1847.35 875.443 L1847.35 879.332 L1842.42 879.332 L1842.42 887.48 L1837.76 887.48 L1837.76 879.332 L1822.16 879.332 L1822.16 874.818 L1836.54 852.92 Z" fill="#000000" fill-rule="nonzero" fill-opacity="1" /><path clip-path="url(#clip050)" d="M1855.89 883.545 L1863.53 883.545 L1863.53 857.179 L1855.22 858.846 L1855.22 854.586 L1863.48 852.92 L1868.16 852.92 L1868.16 883.545 L1875.8 883.545 L1875.8 887.48 L1855.89 887.48 L1855.89 883.545 Z" fill="#000000" fill-rule="nonzero" fill-opacity="1" /><polyline clip-path="url(#clip050)" style="stroke:#3da44d; stroke-linecap:round; stroke-linejoin:round; stroke-width:8; stroke-opacity:1; fill:none" points="1233.01,922.04 1346.89,922.04 "/>
<path clip-path="url(#clip050)" d="M1380.73 934.598 Q1381.56 935.709 1384.06 935.709 L1386.12 935.709 L1386.12 939.32 L1383.55 939.32 Q1379.39 939.32 1377.49 937.098 Q1375.59 934.829 1375.59 929.922 L1375.59 917.653 L1365.87 917.653 L1365.87 913.394 L1389.78 913.394 L1389.78 917.653 L1379.94 917.653 L1379.94 930.176 Q1379.94 933.533 1380.73 934.598 Z" fill="#000000" fill-rule="nonzero" fill-opacity="1" /><path clip-path="url(#clip050)" d="M1412.19 917.792 L1441.86 917.792 L1441.86 921.681 L1412.19 921.681 L1412.19 917.792 M1412.19 927.236 L1441.86 927.236 L1441.86 931.172 L1412.19 931.172 L1412.19 927.236 Z" fill="#000000" fill-rule="nonzero" fill-opacity="1" /><path clip-path="url(#clip050)" d="M1467.83 935.385 L1475.47 935.385 L1475.47 909.019 L1467.16 910.686 L1467.16 906.426 L1475.43 904.76 L1480.1 904.76 L1480.1 935.385 L1487.74 935.385 L1487.74 939.32 L1467.83 939.32 L1467.83 935.385 Z" fill="#000000" fill-rule="nonzero" fill-opacity="1" /><path clip-path="url(#clip050)" d="M1497.19 933.44 L1502.07 933.44 L1502.07 939.32 L1497.19 939.32 L1497.19 933.44 Z" fill="#000000" fill-rule="nonzero" fill-opacity="1" /><path clip-path="url(#clip050)" d="M1522.26 907.838 Q1518.64 907.838 1516.82 911.403 Q1515.01 914.945 1515.01 922.074 Q1515.01 929.181 1516.82 932.746 Q1518.64 936.287 1522.26 936.287 Q1525.89 936.287 1527.7 932.746 Q1529.52 929.181 1529.52 922.074 Q1529.52 914.945 1527.7 911.403 Q1525.89 907.838 1522.26 907.838 M1522.26 904.135 Q1528.07 904.135 1531.12 908.741 Q1534.2 913.325 1534.2 922.074 Q1534.2 930.801 1531.12 935.408 Q1528.07 939.991 1522.26 939.991 Q1516.45 939.991 1513.37 935.408 Q1510.31 930.801 1510.31 922.074 Q1510.31 913.325 1513.37 908.741 Q1516.45 904.135 1522.26 904.135 Z" fill="#000000" fill-rule="nonzero" fill-opacity="1" /><path clip-path="url(#clip050)" d="M1542.9 933.44 L1547.79 933.44 L1547.79 937.422 L1543.99 944.829 L1541.01 944.829 L1542.9 937.422 L1542.9 933.44 Z" fill="#000000" fill-rule="nonzero" fill-opacity="1" /><path clip-path="url(#clip050)" d="M1576.17 906.033 L1576.17 913.394 L1584.94 913.394 L1584.94 916.704 L1576.17 916.704 L1576.17 930.778 Q1576.17 933.949 1577.02 934.852 Q1577.9 935.755 1580.57 935.755 L1584.94 935.755 L1584.94 939.32 L1580.57 939.32 Q1575.64 939.32 1573.76 937.491 Q1571.89 935.639 1571.89 930.778 L1571.89 916.704 L1568.76 916.704 L1568.76 913.394 L1571.89 913.394 L1571.89 906.033 L1576.17 906.033 Z" fill="#000000" fill-rule="nonzero" fill-opacity="1" /><path clip-path="url(#clip050)" d="M1590.54 913.394 L1594.8 913.394 L1594.8 939.32 L1590.54 939.32 L1590.54 913.394 M1590.54 903.301 L1594.8 903.301 L1594.8 908.695 L1590.54 908.695 L1590.54 903.301 Z" fill="#000000" fill-rule="nonzero" fill-opacity="1" /><path clip-path="url(#clip050)" d="M1623.9 918.371 Q1625.5 915.5 1627.72 914.135 Q1629.94 912.769 1632.95 912.769 Q1637 912.769 1639.2 915.616 Q1641.4 918.44 1641.4 923.672 L1641.4 939.32 L1637.12 939.32 L1637.12 923.811 Q1637.12 920.084 1635.8 918.278 Q1634.48 916.473 1631.77 916.473 Q1628.46 916.473 1626.54 918.672 Q1624.62 920.871 1624.62 924.667 L1624.62 939.32 L1620.33 939.32 L1620.33 923.811 Q1620.33 920.061 1619.01 918.278 Q1617.7 916.473 1614.94 916.473 Q1611.68 916.473 1609.76 918.695 Q1607.83 920.894 1607.83 924.667 L1607.83 939.32 L1603.55 939.32 L1603.55 913.394 L1607.83 913.394 L1607.83 917.422 Q1609.29 915.037 1611.33 913.903 Q1613.37 912.769 1616.17 912.769 Q1618.99 912.769 1620.96 914.204 Q1622.95 915.639 1623.9 918.371 Z" fill="#000000" fill-rule="nonzero" fill-opacity="1" /><path clip-path="url(#clip050)" d="M1672.07 925.292 L1672.07 927.375 L1652.49 927.375 Q1652.76 931.773 1655.13 934.088 Q1657.51 936.38 1661.75 936.38 Q1664.2 936.38 1666.49 935.778 Q1668.81 935.176 1671.07 933.973 L1671.07 938 Q1668.78 938.973 1666.38 939.482 Q1663.97 939.991 1661.49 939.991 Q1655.29 939.991 1651.65 936.38 Q1648.04 932.769 1648.04 926.611 Q1648.04 920.246 1651.47 916.519 Q1654.92 912.769 1660.75 912.769 Q1665.98 912.769 1669.01 916.149 Q1672.07 919.505 1672.07 925.292 M1667.81 924.042 Q1667.76 920.547 1665.84 918.463 Q1663.94 916.38 1660.8 916.38 Q1657.23 916.38 1655.08 918.394 Q1652.95 920.408 1652.63 924.065 L1667.81 924.042 Z" fill="#000000" fill-rule="nonzero" fill-opacity="1" /><path clip-path="url(#clip050)" d="M1694.69 917.792 L1724.36 917.792 L1724.36 921.681 L1694.69 921.681 L1694.69 917.792 M1694.69 927.236 L1724.36 927.236 L1724.36 931.172 L1694.69 931.172 L1694.69 927.236 Z" fill="#000000" fill-rule="nonzero" fill-opacity="1" /><path clip-path="url(#clip050)" d="M1759.52 907.838 Q1755.91 907.838 1754.08 911.403 Q1752.28 914.945 1752.28 922.074 Q1752.28 929.181 1754.08 932.746 Q1755.91 936.287 1759.52 936.287 Q1763.16 936.287 1764.96 932.746 Q1766.79 929.181 1766.79 922.074 Q1766.79 914.945 1764.96 911.403 Q1763.16 907.838 1759.52 907.838 M1759.52 904.135 Q1765.33 904.135 1768.39 908.741 Q1771.47 913.325 1771.47 922.074 Q1771.47 930.801 1768.39 935.408 Q1765.33 939.991 1759.52 939.991 Q1753.71 939.991 1750.63 935.408 Q1747.58 930.801 1747.58 922.074 Q1747.58 913.325 1750.63 908.741 Q1753.71 904.135 1759.52 904.135 Z" fill="#000000" fill-rule="nonzero" fill-opacity="1" /><path clip-path="url(#clip050)" d="M1779.68 933.44 L1784.57 933.44 L1784.57 939.32 L1779.68 939.32 L1779.68 933.44 Z" fill="#000000" fill-rule="nonzero" fill-opacity="1" /><path clip-path="url(#clip050)" d="M1793.57 904.76 L1815.8 904.76 L1815.8 906.75 L1803.25 939.32 L1798.37 939.32 L1810.17 908.695 L1793.57 908.695 L1793.57 904.76 Z" fill="#000000" fill-rule="nonzero" fill-opacity="1" /><path clip-path="url(#clip050)" d="M1834.92 907.838 Q1831.31 907.838 1829.48 911.403 Q1827.67 914.945 1827.67 922.074 Q1827.67 929.181 1829.48 932.746 Q1831.31 936.287 1834.92 936.287 Q1838.55 936.287 1840.36 932.746 Q1842.18 929.181 1842.18 922.074 Q1842.18 914.945 1840.36 911.403 Q1838.55 907.838 1834.92 907.838 M1834.92 904.135 Q1840.73 904.135 1843.78 908.741 Q1846.86 913.325 1846.86 922.074 Q1846.86 930.801 1843.78 935.408 Q1840.73 939.991 1834.92 939.991 Q1829.11 939.991 1826.03 935.408 Q1822.97 930.801 1822.97 922.074 Q1822.97 913.325 1826.03 908.741 Q1829.11 904.135 1834.92 904.135 Z" fill="#000000" fill-rule="nonzero" fill-opacity="1" /><path clip-path="url(#clip050)" d="M1855.22 938.602 L1855.22 934.343 Q1856.98 935.176 1858.78 935.616 Q1860.59 936.056 1862.32 936.056 Q1866.95 936.056 1869.38 932.954 Q1871.84 929.829 1872.18 923.486 Q1870.84 925.477 1868.78 926.542 Q1866.72 927.607 1864.22 927.607 Q1859.04 927.607 1856 924.482 Q1852.99 921.334 1852.99 915.894 Q1852.99 910.57 1856.14 907.352 Q1859.29 904.135 1864.52 904.135 Q1870.52 904.135 1873.67 908.741 Q1876.84 913.325 1876.84 922.074 Q1876.84 930.246 1872.95 935.13 Q1869.08 939.991 1862.53 939.991 Q1860.77 939.991 1858.97 939.644 Q1857.16 939.297 1855.22 938.602 M1864.52 923.949 Q1867.67 923.949 1869.5 921.797 Q1871.35 919.644 1871.35 915.894 Q1871.35 912.167 1869.5 910.014 Q1867.67 907.838 1864.52 907.838 Q1861.37 907.838 1859.52 910.014 Q1857.69 912.167 1857.69 915.894 Q1857.69 919.644 1859.52 921.797 Q1861.37 923.949 1864.52 923.949 Z" fill="#000000" fill-rule="nonzero" fill-opacity="1" /><polyline clip-path="url(#clip050)" style="stroke:#c271d2; stroke-linecap:round; stroke-linejoin:round; stroke-width:8; stroke-opacity:1; fill:none" points="1233.01,973.88 1346.89,973.88 "/>
<path clip-path="url(#clip050)" d="M1380.73 986.438 Q1381.56 987.549 1384.06 987.549 L1386.12 987.549 L1386.12 991.16 L1383.55 991.16 Q1379.39 991.16 1377.49 988.938 Q1375.59 986.669 1375.59 981.762 L1375.59 969.493 L1365.87 969.493 L1365.87 965.234 L1389.78 965.234 L1389.78 969.493 L1379.94 969.493 L1379.94 982.016 Q1379.94 985.373 1380.73 986.438 Z" fill="#000000" fill-rule="nonzero" fill-opacity="1" /><path clip-path="url(#clip050)" d="M1412.19 969.632 L1441.86 969.632 L1441.86 973.521 L1412.19 973.521 L1412.19 969.632 M1412.19 979.076 L1441.86 979.076 L1441.86 983.012 L1412.19 983.012 L1412.19 979.076 Z" fill="#000000" fill-rule="nonzero" fill-opacity="1" /><path clip-path="url(#clip050)" d="M1477.02 959.678 Q1473.41 959.678 1471.58 963.243 Q1469.78 966.785 1469.78 973.914 Q1469.78 981.021 1471.58 984.586 Q1473.41 988.127 1477.02 988.127 Q1480.66 988.127 1482.46 984.586 Q1484.29 981.021 1484.29 973.914 Q1484.29 966.785 1482.46 963.243 Q1480.66 959.678 1477.02 959.678 M1477.02 955.975 Q1482.83 955.975 1485.89 960.581 Q1488.97 965.165 1488.97 973.914 Q1488.97 982.641 1485.89 987.248 Q1482.83 991.831 1477.02 991.831 Q1471.21 991.831 1468.14 987.248 Q1465.08 982.641 1465.08 973.914 Q1465.08 965.165 1468.14 960.581 Q1471.21 955.975 1477.02 955.975 Z" fill="#000000" fill-rule="nonzero" fill-opacity="1" /><path clip-path="url(#clip050)" d="M1497.19 985.28 L1502.07 985.28 L1502.07 991.16 L1497.19 991.16 L1497.19 985.28 Z" fill="#000000" fill-rule="nonzero" fill-opacity="1" /><path clip-path="url(#clip050)" d="M1516.28 987.225 L1532.6 987.225 L1532.6 991.16 L1510.66 991.16 L1510.66 987.225 Q1513.32 984.47 1517.9 979.84 Q1522.51 975.188 1523.69 973.845 Q1525.94 971.322 1526.82 969.586 Q1527.72 967.827 1527.72 966.137 Q1527.72 963.382 1525.77 961.646 Q1523.85 959.91 1520.75 959.91 Q1518.55 959.91 1516.1 960.674 Q1513.67 961.438 1510.89 962.989 L1510.89 958.266 Q1513.71 957.132 1516.17 956.553 Q1518.62 955.975 1520.66 955.975 Q1526.03 955.975 1529.22 958.66 Q1532.42 961.345 1532.42 965.836 Q1532.42 967.965 1531.61 969.887 Q1530.82 971.785 1528.71 974.377 Q1528.14 975.049 1525.03 978.266 Q1521.93 981.461 1516.28 987.225 Z" fill="#000000" fill-rule="nonzero" fill-opacity="1" /><path clip-path="url(#clip050)" d="M1542.46 956.6 L1560.82 956.6 L1560.82 960.535 L1546.75 960.535 L1546.75 969.007 Q1547.76 968.66 1548.78 968.498 Q1549.8 968.313 1550.82 968.313 Q1556.61 968.313 1559.99 971.484 Q1563.37 974.655 1563.37 980.072 Q1563.37 985.651 1559.89 988.752 Q1556.42 991.831 1550.1 991.831 Q1547.93 991.831 1545.66 991.461 Q1543.41 991.09 1541.01 990.35 L1541.01 985.651 Q1543.09 986.785 1545.31 987.34 Q1547.53 987.896 1550.01 987.896 Q1554.01 987.896 1556.35 985.789 Q1558.69 983.683 1558.69 980.072 Q1558.69 976.461 1556.35 974.354 Q1554.01 972.248 1550.01 972.248 Q1548.14 972.248 1546.26 972.664 Q1544.41 973.081 1542.46 973.961 L1542.46 956.6 Z" fill="#000000" fill-rule="nonzero" fill-opacity="1" /><path clip-path="url(#clip050)" d="M1573.07 985.28 L1577.95 985.28 L1577.95 989.262 L1574.15 996.669 L1571.17 996.669 L1573.07 989.262 L1573.07 985.28 Z" fill="#000000" fill-rule="nonzero" fill-opacity="1" /><path clip-path="url(#clip050)" d="M1606.33 957.873 L1606.33 965.234 L1615.1 965.234 L1615.1 968.544 L1606.33 968.544 L1606.33 982.618 Q1606.33 985.789 1607.19 986.692 Q1608.07 987.595 1610.73 987.595 L1615.1 987.595 L1615.1 991.16 L1610.73 991.16 Q1605.8 991.16 1603.92 989.331 Q1602.05 987.479 1602.05 982.618 L1602.05 968.544 L1598.92 968.544 L1598.92 965.234 L1602.05 965.234 L1602.05 957.873 L1606.33 957.873 Z" fill="#000000" fill-rule="nonzero" fill-opacity="1" /><path clip-path="url(#clip050)" d="M1620.7 965.234 L1624.96 965.234 L1624.96 991.16 L1620.7 991.16 L1620.7 965.234 M1620.7 955.141 L1624.96 955.141 L1624.96 960.535 L1620.7 960.535 L1620.7 955.141 Z" fill="#000000" fill-rule="nonzero" fill-opacity="1" /><path clip-path="url(#clip050)" d="M1654.06 970.211 Q1655.66 967.34 1657.88 965.975 Q1660.1 964.609 1663.11 964.609 Q1667.16 964.609 1669.36 967.456 Q1671.56 970.28 1671.56 975.512 L1671.56 991.16 L1667.28 991.16 L1667.28 975.651 Q1667.28 971.924 1665.96 970.118 Q1664.64 968.313 1661.93 968.313 Q1658.62 968.313 1656.7 970.512 Q1654.78 972.711 1654.78 976.507 L1654.78 991.16 L1650.5 991.16 L1650.5 975.651 Q1650.5 971.901 1649.18 970.118 Q1647.86 968.313 1645.1 968.313 Q1641.84 968.313 1639.92 970.535 Q1638 972.734 1638 976.507 L1638 991.16 L1633.71 991.16 L1633.71 965.234 L1638 965.234 L1638 969.262 Q1639.45 966.877 1641.49 965.743 Q1643.53 964.609 1646.33 964.609 Q1649.15 964.609 1651.12 966.044 Q1653.11 967.479 1654.06 970.211 Z" fill="#000000" fill-rule="nonzero" fill-opacity="1" /><path clip-path="url(#clip050)" d="M1702.23 977.132 L1702.23 979.215 L1682.65 979.215 Q1682.93 983.613 1685.29 985.928 Q1687.67 988.22 1691.91 988.22 Q1694.36 988.22 1696.65 987.618 Q1698.97 987.016 1701.24 985.813 L1701.24 989.84 Q1698.94 990.813 1696.54 991.322 Q1694.13 991.831 1691.65 991.831 Q1685.45 991.831 1681.82 988.22 Q1678.2 984.609 1678.2 978.451 Q1678.2 972.086 1681.63 968.359 Q1685.08 964.609 1690.91 964.609 Q1696.14 964.609 1699.18 967.989 Q1702.23 971.345 1702.23 977.132 M1697.97 975.882 Q1697.93 972.387 1696 970.303 Q1694.11 968.22 1690.96 968.22 Q1687.39 968.22 1685.24 970.234 Q1683.11 972.248 1682.79 975.905 L1697.97 975.882 Z" fill="#000000" fill-rule="nonzero" fill-opacity="1" /><path clip-path="url(#clip050)" d="M1724.85 969.632 L1754.52 969.632 L1754.52 973.521 L1724.85 973.521 L1724.85 969.632 M1724.85 979.076 L1754.52 979.076 L1754.52 983.012 L1724.85 983.012 L1724.85 979.076 Z" fill="#000000" fill-rule="nonzero" fill-opacity="1" /><path clip-path="url(#clip050)" d="M1789.68 959.678 Q1786.07 959.678 1784.25 963.243 Q1782.44 966.785 1782.44 973.914 Q1782.44 981.021 1784.25 984.586 Q1786.07 988.127 1789.68 988.127 Q1793.32 988.127 1795.12 984.586 Q1796.95 981.021 1796.95 973.914 Q1796.95 966.785 1795.12 963.243 Q1793.32 959.678 1789.68 959.678 M1789.68 955.975 Q1795.5 955.975 1798.55 960.581 Q1801.63 965.165 1801.63 973.914 Q1801.63 982.641 1798.55 987.248 Q1795.5 991.831 1789.68 991.831 Q1783.87 991.831 1780.8 987.248 Q1777.74 982.641 1777.74 973.914 Q1777.74 965.165 1780.8 960.581 Q1783.87 955.975 1789.68 955.975 Z" fill="#000000" fill-rule="nonzero" fill-opacity="1" /><path clip-path="url(#clip050)" d="M1809.85 985.28 L1814.73 985.28 L1814.73 991.16 L1809.85 991.16 L1809.85 985.28 Z" fill="#000000" fill-rule="nonzero" fill-opacity="1" /><path clip-path="url(#clip050)" d="M1825.73 987.225 L1833.37 987.225 L1833.37 960.859 L1825.06 962.526 L1825.06 958.266 L1833.32 956.6 L1837.99 956.6 L1837.99 987.225 L1845.63 987.225 L1845.63 991.16 L1825.73 991.16 L1825.73 987.225 Z" fill="#000000" fill-rule="nonzero" fill-opacity="1" /><polyline clip-path="url(#clip050)" style="stroke:#ac8d18; stroke-linecap:round; stroke-linejoin:round; stroke-width:8; stroke-opacity:1; fill:none" points="1233.01,1025.72 1346.89,1025.72 "/>
<path clip-path="url(#clip050)" d="M1380.73 1038.28 Q1381.56 1039.39 1384.06 1039.39 L1386.12 1039.39 L1386.12 1043 L1383.55 1043 Q1379.39 1043 1377.49 1040.78 Q1375.59 1038.51 1375.59 1033.6 L1375.59 1021.33 L1365.87 1021.33 L1365.87 1017.07 L1389.78 1017.07 L1389.78 1021.33 L1379.94 1021.33 L1379.94 1033.86 Q1379.94 1037.21 1380.73 1038.28 Z" fill="#000000" fill-rule="nonzero" fill-opacity="1" /><path clip-path="url(#clip050)" d="M1412.19 1021.47 L1441.86 1021.47 L1441.86 1025.36 L1412.19 1025.36 L1412.19 1021.47 M1412.19 1030.92 L1441.86 1030.92 L1441.86 1034.85 L1412.19 1034.85 L1412.19 1030.92 Z" fill="#000000" fill-rule="nonzero" fill-opacity="1" /><path clip-path="url(#clip050)" d="M1477.02 1011.52 Q1473.41 1011.52 1471.58 1015.08 Q1469.78 1018.62 1469.78 1025.75 Q1469.78 1032.86 1471.58 1036.43 Q1473.41 1039.97 1477.02 1039.97 Q1480.66 1039.97 1482.46 1036.43 Q1484.29 1032.86 1484.29 1025.75 Q1484.29 1018.62 1482.46 1015.08 Q1480.66 1011.52 1477.02 1011.52 M1477.02 1007.81 Q1482.83 1007.81 1485.89 1012.42 Q1488.97 1017 1488.97 1025.75 Q1488.97 1034.48 1485.89 1039.09 Q1482.83 1043.67 1477.02 1043.67 Q1471.21 1043.67 1468.14 1039.09 Q1465.08 1034.48 1465.08 1025.75 Q1465.08 1017 1468.14 1012.42 Q1471.21 1007.81 1477.02 1007.81 Z" fill="#000000" fill-rule="nonzero" fill-opacity="1" /><path clip-path="url(#clip050)" d="M1497.19 1037.12 L1502.07 1037.12 L1502.07 1043 L1497.19 1043 L1497.19 1037.12 Z" fill="#000000" fill-rule="nonzero" fill-opacity="1" /><path clip-path="url(#clip050)" d="M1513.07 1039.06 L1520.7 1039.06 L1520.7 1012.7 L1512.39 1014.37 L1512.39 1010.11 L1520.66 1008.44 L1525.33 1008.44 L1525.33 1039.06 L1532.97 1039.06 L1532.97 1043 L1513.07 1043 L1513.07 1039.06 Z" fill="#000000" fill-rule="nonzero" fill-opacity="1" /><path clip-path="url(#clip050)" d="M1542.9 1037.12 L1547.79 1037.12 L1547.79 1041.1 L1543.99 1048.51 L1541.01 1048.51 L1542.9 1041.1 L1542.9 1037.12 Z" fill="#000000" fill-rule="nonzero" fill-opacity="1" /><path clip-path="url(#clip050)" d="M1576.17 1009.71 L1576.17 1017.07 L1584.94 1017.07 L1584.94 1020.38 L1576.17 1020.38 L1576.17 1034.46 Q1576.17 1037.63 1577.02 1038.53 Q1577.9 1039.43 1580.57 1039.43 L1584.94 1039.43 L1584.94 1043 L1580.57 1043 Q1575.64 1043 1573.76 1041.17 Q1571.89 1039.32 1571.89 1034.46 L1571.89 1020.38 L1568.76 1020.38 L1568.76 1017.07 L1571.89 1017.07 L1571.89 1009.71 L1576.17 1009.71 Z" fill="#000000" fill-rule="nonzero" fill-opacity="1" /><path clip-path="url(#clip050)" d="M1590.54 1017.07 L1594.8 1017.07 L1594.8 1043 L1590.54 1043 L1590.54 1017.07 M1590.54 1006.98 L1594.8 1006.98 L1594.8 1012.37 L1590.54 1012.37 L1590.54 1006.98 Z" fill="#000000" fill-rule="nonzero" fill-opacity="1" /><path clip-path="url(#clip050)" d="M1623.9 1022.05 Q1625.5 1019.18 1627.72 1017.81 Q1629.94 1016.45 1632.95 1016.45 Q1637 1016.45 1639.2 1019.3 Q1641.4 1022.12 1641.4 1027.35 L1641.4 1043 L1637.12 1043 L1637.12 1027.49 Q1637.12 1023.76 1635.8 1021.96 Q1634.48 1020.15 1631.77 1020.15 Q1628.46 1020.15 1626.54 1022.35 Q1624.62 1024.55 1624.62 1028.35 L1624.62 1043 L1620.33 1043 L1620.33 1027.49 Q1620.33 1023.74 1619.01 1021.96 Q1617.7 1020.15 1614.94 1020.15 Q1611.68 1020.15 1609.76 1022.37 Q1607.83 1024.57 1607.83 1028.35 L1607.83 1043 L1603.55 1043 L1603.55 1017.07 L1607.83 1017.07 L1607.83 1021.1 Q1609.29 1018.72 1611.33 1017.58 Q1613.37 1016.45 1616.17 1016.45 Q1618.99 1016.45 1620.96 1017.88 Q1622.95 1019.32 1623.9 1022.05 Z" fill="#000000" fill-rule="nonzero" fill-opacity="1" /><path clip-path="url(#clip050)" d="M1672.07 1028.97 L1672.07 1031.06 L1652.49 1031.06 Q1652.76 1035.45 1655.13 1037.77 Q1657.51 1040.06 1661.75 1040.06 Q1664.2 1040.06 1666.49 1039.46 Q1668.81 1038.86 1671.07 1037.65 L1671.07 1041.68 Q1668.78 1042.65 1666.38 1043.16 Q1663.97 1043.67 1661.49 1043.67 Q1655.29 1043.67 1651.65 1040.06 Q1648.04 1036.45 1648.04 1030.29 Q1648.04 1023.93 1651.47 1020.2 Q1654.92 1016.45 1660.75 1016.45 Q1665.98 1016.45 1669.01 1019.83 Q1672.07 1023.19 1672.07 1028.97 M1667.81 1027.72 Q1667.76 1024.23 1665.84 1022.14 Q1663.94 1020.06 1660.8 1020.06 Q1657.23 1020.06 1655.08 1022.07 Q1652.95 1024.09 1652.63 1027.75 L1667.81 1027.72 Z" fill="#000000" fill-rule="nonzero" fill-opacity="1" /><path clip-path="url(#clip050)" d="M1694.69 1021.47 L1724.36 1021.47 L1724.36 1025.36 L1694.69 1025.36 L1694.69 1021.47 M1694.69 1030.92 L1724.36 1030.92 L1724.36 1034.85 L1694.69 1034.85 L1694.69 1030.92 Z" fill="#000000" fill-rule="nonzero" fill-opacity="1" /><path clip-path="url(#clip050)" d="M1759.52 1011.52 Q1755.91 1011.52 1754.08 1015.08 Q1752.28 1018.62 1752.28 1025.75 Q1752.28 1032.86 1754.08 1036.43 Q1755.91 1039.97 1759.52 1039.97 Q1763.16 1039.97 1764.96 1036.43 Q1766.79 1032.86 1766.79 1025.75 Q1766.79 1018.62 1764.96 1015.08 Q1763.16 1011.52 1759.52 1011.52 M1759.52 1007.81 Q1765.33 1007.81 1768.39 1012.42 Q1771.47 1017 1771.47 1025.75 Q1771.47 1034.48 1768.39 1039.09 Q1765.33 1043.67 1759.52 1043.67 Q1753.71 1043.67 1750.63 1039.09 Q1747.58 1034.48 1747.58 1025.75 Q1747.58 1017 1750.63 1012.42 Q1753.71 1007.81 1759.52 1007.81 Z" fill="#000000" fill-rule="nonzero" fill-opacity="1" /><path clip-path="url(#clip050)" d="M1779.68 1037.12 L1784.57 1037.12 L1784.57 1043 L1779.68 1043 L1779.68 1037.12 Z" fill="#000000" fill-rule="nonzero" fill-opacity="1" /><path clip-path="url(#clip050)" d="M1795.56 1039.06 L1803.2 1039.06 L1803.2 1012.7 L1794.89 1014.37 L1794.89 1010.11 L1803.16 1008.44 L1807.83 1008.44 L1807.83 1039.06 L1815.47 1039.06 L1815.47 1043 L1795.56 1043 L1795.56 1039.06 Z" fill="#000000" fill-rule="nonzero" fill-opacity="1" /><path clip-path="url(#clip050)" d="M1834.92 1026.59 Q1831.58 1026.59 1829.66 1028.37 Q1827.76 1030.15 1827.76 1033.28 Q1827.76 1036.4 1829.66 1038.18 Q1831.58 1039.97 1834.92 1039.97 Q1838.25 1039.97 1840.17 1038.18 Q1842.09 1036.38 1842.09 1033.28 Q1842.09 1030.15 1840.17 1028.37 Q1838.27 1026.59 1834.92 1026.59 M1830.24 1024.6 Q1827.23 1023.86 1825.54 1021.8 Q1823.87 1019.74 1823.87 1016.77 Q1823.87 1012.63 1826.81 1010.22 Q1829.78 1007.81 1834.92 1007.81 Q1840.08 1007.81 1843.02 1010.22 Q1845.96 1012.63 1845.96 1016.77 Q1845.96 1019.74 1844.27 1021.8 Q1842.6 1023.86 1839.62 1024.6 Q1842.99 1025.38 1844.87 1027.68 Q1846.77 1029.97 1846.77 1033.28 Q1846.77 1038.3 1843.69 1040.99 Q1840.63 1043.67 1834.92 1043.67 Q1829.2 1043.67 1826.12 1040.99 Q1823.06 1038.3 1823.06 1033.28 Q1823.06 1029.97 1824.96 1027.68 Q1826.86 1025.38 1830.24 1024.6 M1828.53 1017.21 Q1828.53 1019.9 1830.19 1021.4 Q1831.88 1022.91 1834.92 1022.91 Q1837.93 1022.91 1839.62 1021.4 Q1841.33 1019.9 1841.33 1017.21 Q1841.33 1014.53 1839.62 1013.02 Q1837.93 1011.52 1834.92 1011.52 Q1831.88 1011.52 1830.19 1013.02 Q1828.53 1014.53 1828.53 1017.21 Z" fill="#000000" fill-rule="nonzero" fill-opacity="1" /></svg>
