<?xml version="1.0" encoding="utf-8"?>
<svg xmlns="http://www.w3.org/2000/svg" xmlns:xlink="http://www.w3.org/1999/xlink" width="500" height="320" viewBox="0 0 2000 1280">
<defs>
  <clipPath id="clip600">
    <rect x="0" y="0" width="2000" height="1280"/>
  </clipPath>
</defs>
<path clip-path="url(#clip600)" d="M0 1280 L2000 1280 L2000 0 L0 0  Z" fill="#ffffff" fill-rule="evenodd" fill-opacity="1"/>
<defs>
  <clipPath id="clip601">
    <rect x="400" y="0" width="1401" height="1280"/>
  </clipPath>
</defs>
<path clip-path="url(#clip600)" d="M185.496 1171.03 L1952.76 1171.03 L1952.76 107.256 L185.496 107.256  Z" fill="#ffffff" fill-rule="evenodd" fill-opacity="1"/>
<defs>
  <clipPath id="clip602">
    <rect x="185" y="107" width="1768" height="1065"/>
  </clipPath>
</defs>
<polyline clip-path="url(#clip602)" style="stroke:#000000; stroke-linecap:round; stroke-linejoin:round; stroke-width:2; stroke-opacity:0.1; fill:none" points="235.513,1171.03 235.513,107.256 "/>
<polyline clip-path="url(#clip602)" style="stroke:#000000; stroke-linecap:round; stroke-linejoin:round; stroke-width:2; stroke-opacity:0.1; fill:none" points="737.689,1171.03 737.689,107.256 "/>
<polyline clip-path="url(#clip602)" style="stroke:#000000; stroke-linecap:round; stroke-linejoin:round; stroke-width:2; stroke-opacity:0.1; fill:none" points="1239.87,1171.03 1239.87,107.256 "/>
<polyline clip-path="url(#clip602)" style="stroke:#000000; stroke-linecap:round; stroke-linejoin:round; stroke-width:2; stroke-opacity:0.1; fill:none" points="1742.04,1171.03 1742.04,107.256 "/>
<polyline clip-path="url(#clip602)" style="stroke:#000000; stroke-linecap:round; stroke-linejoin:round; stroke-width:2; stroke-opacity:0.1; fill:none" points="185.496,1085.77 1952.76,1085.77 "/>
<polyline clip-path="url(#clip602)" style="stroke:#000000; stroke-linecap:round; stroke-linejoin:round; stroke-width:2; stroke-opacity:0.1; fill:none" points="185.496,848.666 1952.76,848.666 "/>
<polyline clip-path="url(#clip602)" style="stroke:#000000; stroke-linecap:round; stroke-linejoin:round; stroke-width:2; stroke-opacity:0.1; fill:none" points="185.496,611.565 1952.76,611.565 "/>
<polyline clip-path="url(#clip602)" style="stroke:#000000; stroke-linecap:round; stroke-linejoin:round; stroke-width:2; stroke-opacity:0.1; fill:none" points="185.496,374.464 1952.76,374.464 "/>
<polyline clip-path="url(#clip602)" style="stroke:#000000; stroke-linecap:round; stroke-linejoin:round; stroke-width:2; stroke-opacity:0.1; fill:none" points="185.496,137.363 1952.76,137.363 "/>
<polyline clip-path="url(#clip600)" style="stroke:#000000; stroke-linecap:round; stroke-linejoin:round; stroke-width:4; stroke-opacity:1; fill:none" points="185.496,1171.03 1952.76,1171.03 "/>
<polyline clip-path="url(#clip600)" style="stroke:#000000; stroke-linecap:round; stroke-linejoin:round; stroke-width:4; stroke-opacity:1; fill:none" points="235.513,1171.03 235.513,1152.13 "/>
<polyline clip-path="url(#clip600)" style="stroke:#000000; stroke-linecap:round; stroke-linejoin:round; stroke-width:4; stroke-opacity:1; fill:none" points="737.689,1171.03 737.689,1152.13 "/>
<polyline clip-path="url(#clip600)" style="stroke:#000000; stroke-linecap:round; stroke-linejoin:round; stroke-width:4; stroke-opacity:1; fill:none" points="1239.87,1171.03 1239.87,1152.13 "/>
<polyline clip-path="url(#clip600)" style="stroke:#000000; stroke-linecap:round; stroke-linejoin:round; stroke-width:4; stroke-opacity:1; fill:none" points="1742.04,1171.03 1742.04,1152.13 "/>
<path clip-path="url(#clip600)" d="M235.513 1198.75 Q231.902 1198.75 230.073 1202.31 Q228.267 1205.86 228.267 1212.98 Q228.267 1220.09 230.073 1223.66 Q231.902 1227.2 235.513 1227.2 Q239.147 1227.2 240.952 1223.66 Q242.781 1220.09 242.781 1212.98 Q242.781 1205.86 240.952 1202.31 Q239.147 1198.75 235.513 1198.75 M235.513 1195.05 Q241.323 1195.05 244.378 1199.65 Q247.457 1204.24 247.457 1212.98 Q247.457 1221.71 244.378 1226.32 Q241.323 1230.9 235.513 1230.9 Q229.703 1230.9 226.624 1226.32 Q223.568 1221.71 223.568 1212.98 Q223.568 1204.24 226.624 1199.65 Q229.703 1195.05 235.513 1195.05 Z" fill="#000000" fill-rule="nonzero" fill-opacity="1" /><path clip-path="url(#clip600)" d="M712.389 1195.67 L730.745 1195.67 L730.745 1199.61 L716.671 1199.61 L716.671 1208.08 Q717.689 1207.73 718.708 1207.57 Q719.726 1207.38 720.745 1207.38 Q726.532 1207.38 729.912 1210.55 Q733.291 1213.73 733.291 1219.14 Q733.291 1224.72 729.819 1227.82 Q726.347 1230.9 720.027 1230.9 Q717.851 1230.9 715.583 1230.53 Q713.338 1230.16 710.93 1229.42 L710.93 1224.72 Q713.014 1225.86 715.236 1226.41 Q717.458 1226.97 719.935 1226.97 Q723.939 1226.97 726.277 1224.86 Q728.615 1222.75 728.615 1219.14 Q728.615 1215.53 726.277 1213.42 Q723.939 1211.32 719.935 1211.32 Q718.06 1211.32 716.185 1211.74 Q714.333 1212.15 712.389 1213.03 L712.389 1195.67 Z" fill="#000000" fill-rule="nonzero" fill-opacity="1" /><path clip-path="url(#clip600)" d="M752.504 1198.75 Q748.893 1198.75 747.064 1202.31 Q745.259 1205.86 745.259 1212.98 Q745.259 1220.09 747.064 1223.66 Q748.893 1227.2 752.504 1227.2 Q756.138 1227.2 757.944 1223.66 Q759.773 1220.09 759.773 1212.98 Q759.773 1205.86 757.944 1202.31 Q756.138 1198.75 752.504 1198.75 M752.504 1195.05 Q758.314 1195.05 761.37 1199.65 Q764.448 1204.24 764.448 1212.98 Q764.448 1221.71 761.37 1226.32 Q758.314 1230.9 752.504 1230.9 Q746.694 1230.9 743.615 1226.32 Q740.56 1221.71 740.56 1212.98 Q740.56 1204.24 743.615 1199.65 Q746.694 1195.05 752.504 1195.05 Z" fill="#000000" fill-rule="nonzero" fill-opacity="1" /><path clip-path="url(#clip600)" d="M1199.47 1226.3 L1207.11 1226.3 L1207.11 1199.93 L1198.8 1201.6 L1198.8 1197.34 L1207.07 1195.67 L1211.74 1195.67 L1211.74 1226.3 L1219.38 1226.3 L1219.38 1230.23 L1199.47 1230.23 L1199.47 1226.3 Z" fill="#000000" fill-rule="nonzero" fill-opacity="1" /><path clip-path="url(#clip600)" d="M1238.82 1198.75 Q1235.21 1198.75 1233.38 1202.31 Q1231.58 1205.86 1231.58 1212.98 Q1231.58 1220.09 1233.38 1223.66 Q1235.21 1227.2 1238.82 1227.2 Q1242.46 1227.2 1244.26 1223.66 Q1246.09 1220.09 1246.09 1212.98 Q1246.09 1205.86 1244.26 1202.31 Q1242.46 1198.75 1238.82 1198.75 M1238.82 1195.05 Q1244.63 1195.05 1247.69 1199.65 Q1250.77 1204.24 1250.77 1212.98 Q1250.77 1221.71 1247.69 1226.32 Q1244.63 1230.9 1238.82 1230.9 Q1233.01 1230.9 1229.94 1226.32 Q1226.88 1221.71 1226.88 1212.98 Q1226.88 1204.24 1229.94 1199.65 Q1233.01 1195.05 1238.82 1195.05 Z" fill="#000000" fill-rule="nonzero" fill-opacity="1" /><path clip-path="url(#clip600)" d="M1268.99 1198.75 Q1265.38 1198.75 1263.55 1202.31 Q1261.74 1205.86 1261.74 1212.98 Q1261.74 1220.09 1263.55 1223.66 Q1265.38 1227.2 1268.99 1227.2 Q1272.62 1227.2 1274.43 1223.66 Q1276.25 1220.09 1276.25 1212.98 Q1276.25 1205.86 1274.43 1202.31 Q1272.62 1198.75 1268.99 1198.75 M1268.99 1195.05 Q1274.8 1195.05 1277.85 1199.65 Q1280.93 1204.24 1280.93 1212.98 Q1280.93 1221.71 1277.85 1226.32 Q1274.8 1230.9 1268.99 1230.9 Q1263.18 1230.9 1260.1 1226.32 Q1257.04 1221.71 1257.04 1212.98 Q1257.04 1204.24 1260.1 1199.65 Q1263.18 1195.05 1268.99 1195.05 Z" fill="#000000" fill-rule="nonzero" fill-opacity="1" /><path clip-path="url(#clip600)" d="M1701.65 1226.3 L1709.29 1226.3 L1709.29 1199.93 L1700.98 1201.6 L1700.98 1197.34 L1709.24 1195.67 L1713.92 1195.67 L1713.92 1226.3 L1721.56 1226.3 L1721.56 1230.23 L1701.65 1230.23 L1701.65 1226.3 Z" fill="#000000" fill-rule="nonzero" fill-opacity="1" /><path clip-path="url(#clip600)" d="M1731.05 1195.67 L1749.4 1195.67 L1749.4 1199.61 L1735.33 1199.61 L1735.33 1208.08 Q1736.35 1207.73 1737.37 1207.57 Q1738.39 1207.38 1739.4 1207.38 Q1745.19 1207.38 1748.57 1210.55 Q1751.95 1213.73 1751.95 1219.14 Q1751.95 1224.72 1748.48 1227.82 Q1745.01 1230.9 1738.69 1230.9 Q1736.51 1230.9 1734.24 1230.53 Q1732 1230.16 1729.59 1229.42 L1729.59 1224.72 Q1731.67 1225.86 1733.89 1226.41 Q1736.12 1226.97 1738.59 1226.97 Q1742.6 1226.97 1744.94 1224.86 Q1747.27 1222.75 1747.27 1219.14 Q1747.27 1215.53 1744.94 1213.42 Q1742.6 1211.32 1738.59 1211.32 Q1736.72 1211.32 1734.84 1211.74 Q1732.99 1212.15 1731.05 1213.03 L1731.05 1195.67 Z" fill="#000000" fill-rule="nonzero" fill-opacity="1" /><path clip-path="url(#clip600)" d="M1771.16 1198.75 Q1767.55 1198.75 1765.72 1202.31 Q1763.92 1205.86 1763.92 1212.98 Q1763.92 1220.09 1765.72 1223.66 Q1767.55 1227.2 1771.16 1227.2 Q1774.8 1227.2 1776.6 1223.66 Q1778.43 1220.09 1778.43 1212.98 Q1778.43 1205.86 1776.6 1202.31 Q1774.8 1198.75 1771.16 1198.75 M1771.16 1195.05 Q1776.97 1195.05 1780.03 1199.65 Q1783.11 1204.24 1783.11 1212.98 Q1783.11 1221.71 1780.03 1226.32 Q1776.97 1230.9 1771.16 1230.9 Q1765.35 1230.9 1762.27 1226.32 Q1759.22 1221.71 1759.22 1212.98 Q1759.22 1204.24 1762.27 1199.65 Q1765.35 1195.05 1771.16 1195.05 Z" fill="#000000" fill-rule="nonzero" fill-opacity="1" /><polyline clip-path="url(#clip600)" style="stroke:#000000; stroke-linecap:round; stroke-linejoin:round; stroke-width:4; stroke-opacity:1; fill:none" points="185.496,1171.03 185.496,107.256 "/>
<polyline clip-path="url(#clip600)" style="stroke:#000000; stroke-linecap:round; stroke-linejoin:round; stroke-width:4; stroke-opacity:1; fill:none" points="185.496,1085.77 204.394,1085.77 "/>
<polyline clip-path="url(#clip600)" style="stroke:#000000; stroke-linecap:round; stroke-linejoin:round; stroke-width:4; stroke-opacity:1; fill:none" points="185.496,848.666 204.394,848.666 "/>
<polyline clip-path="url(#clip600)" style="stroke:#000000; stroke-linecap:round; stroke-linejoin:round; stroke-width:4; stroke-opacity:1; fill:none" points="185.496,611.565 204.394,611.565 "/>
<polyline clip-path="url(#clip600)" style="stroke:#000000; stroke-linecap:round; stroke-linejoin:round; stroke-width:4; stroke-opacity:1; fill:none" points="185.496,374.464 204.394,374.464 "/>
<polyline clip-path="url(#clip600)" style="stroke:#000000; stroke-linecap:round; stroke-linejoin:round; stroke-width:4; stroke-opacity:1; fill:none" points="185.496,137.363 204.394,137.363 "/>
<path clip-path="url(#clip600)" d="M53.6634 1105.56 L61.3023 1105.56 L61.3023 1079.19 L52.9921 1080.86 L52.9921 1076.6 L61.256 1074.93 L65.9319 1074.93 L65.9319 1105.56 L73.5707 1105.56 L73.5707 1109.49 L53.6634 1109.49 L53.6634 1105.56 Z" fill="#000000" fill-rule="nonzero" fill-opacity="1" /><path clip-path="url(#clip600)" d="M93.0151 1078.01 Q89.404 1078.01 87.5753 1081.58 Q85.7697 1085.12 85.7697 1092.25 Q85.7697 1099.36 87.5753 1102.92 Q89.404 1106.46 93.0151 1106.46 Q96.6493 1106.46 98.4548 1102.92 Q100.284 1099.36 100.284 1092.25 Q100.284 1085.12 98.4548 1081.58 Q96.6493 1078.01 93.0151 1078.01 M93.0151 1074.31 Q98.8252 1074.31 101.881 1078.92 Q104.959 1083.5 104.959 1092.25 Q104.959 1100.98 101.881 1105.58 Q98.8252 1110.17 93.0151 1110.17 Q87.2049 1110.17 84.1262 1105.58 Q81.0707 1100.98 81.0707 1092.25 Q81.0707 1083.5 84.1262 1078.92 Q87.2049 1074.31 93.0151 1074.31 Z" fill="#000000" fill-rule="nonzero" fill-opacity="1" /><path clip-path="url(#clip600)" d="M104.959 1068.41 L129.071 1068.41 L129.071 1071.61 L104.959 1071.61 L104.959 1068.41 Z" fill="#000000" fill-rule="nonzero" fill-opacity="1" /><path clip-path="url(#clip600)" d="M147.71 1057.31 L138.118 1072.3 L147.71 1072.3 L147.71 1057.31 M146.713 1054 L151.49 1054 L151.49 1072.3 L155.496 1072.3 L155.496 1075.46 L151.49 1075.46 L151.49 1082.08 L147.71 1082.08 L147.71 1075.46 L135.033 1075.46 L135.033 1071.8 L146.713 1054 Z" fill="#000000" fill-rule="nonzero" fill-opacity="1" /><path clip-path="url(#clip600)" d="M54.585 868.458 L62.2238 868.458 L62.2238 842.093 L53.9137 843.759 L53.9137 839.5 L62.1776 837.833 L66.8535 837.833 L66.8535 868.458 L74.4923 868.458 L74.4923 872.393 L54.585 872.393 L54.585 868.458 Z" fill="#000000" fill-rule="nonzero" fill-opacity="1" /><path clip-path="url(#clip600)" d="M93.9366 840.912 Q90.3255 840.912 88.4969 844.477 Q86.6913 848.019 86.6913 855.148 Q86.6913 862.255 88.4969 865.819 Q90.3255 869.361 93.9366 869.361 Q97.5709 869.361 99.3764 865.819 Q101.205 862.255 101.205 855.148 Q101.205 848.019 99.3764 844.477 Q97.5709 840.912 93.9366 840.912 M93.9366 837.208 Q99.7468 837.208 102.802 841.815 Q105.881 846.398 105.881 855.148 Q105.881 863.875 102.802 868.481 Q99.7468 873.065 93.9366 873.065 Q88.1265 873.065 85.0478 868.481 Q81.9923 863.875 81.9923 855.148 Q81.9923 846.398 85.0478 841.815 Q88.1265 837.208 93.9366 837.208 Z" fill="#000000" fill-rule="nonzero" fill-opacity="1" /><path clip-path="url(#clip600)" d="M105.881 831.31 L129.993 831.31 L129.993 834.507 L105.881 834.507 L105.881 831.31 Z" fill="#000000" fill-rule="nonzero" fill-opacity="1" /><path clip-path="url(#clip600)" d="M149.703 829.843 Q152.43 830.426 153.954 832.269 Q155.496 834.112 155.496 836.82 Q155.496 840.977 152.637 843.253 Q149.778 845.528 144.512 845.528 Q142.744 845.528 140.863 845.171 Q139.002 844.833 137.008 844.137 L137.008 840.469 Q138.588 841.391 140.469 841.861 Q142.349 842.331 144.399 842.331 Q147.973 842.331 149.835 840.921 Q151.716 839.51 151.716 836.82 Q151.716 834.338 149.966 832.946 Q148.236 831.535 145.133 831.535 L141.86 831.535 L141.86 828.413 L145.283 828.413 Q148.086 828.413 149.571 827.304 Q151.057 826.175 151.057 824.069 Q151.057 821.906 149.515 820.759 Q147.992 819.593 145.133 819.593 Q143.572 819.593 141.785 819.931 Q139.998 820.27 137.854 820.984 L137.854 817.599 Q140.017 816.997 141.898 816.696 Q143.797 816.395 145.471 816.395 Q149.797 816.395 152.317 818.37 Q154.838 820.326 154.838 823.674 Q154.838 826.006 153.502 827.623 Q152.167 829.222 149.703 829.843 Z" fill="#000000" fill-rule="nonzero" fill-opacity="1" /><path clip-path="url(#clip600)" d="M55.3561 631.357 L62.995 631.357 L62.995 604.992 L54.6848 606.658 L54.6848 602.399 L62.9487 600.732 L67.6246 600.732 L67.6246 631.357 L75.2634 631.357 L75.2634 635.292 L55.3561 635.292 L55.3561 631.357 Z" fill="#000000" fill-rule="nonzero" fill-opacity="1" /><path clip-path="url(#clip600)" d="M94.7078 603.811 Q91.0967 603.811 89.268 607.376 Q87.4624 610.918 87.4624 618.047 Q87.4624 625.154 89.268 628.718 Q91.0967 632.26 94.7078 632.26 Q98.342 632.26 100.148 628.718 Q101.976 625.154 101.976 618.047 Q101.976 610.918 100.148 607.376 Q98.342 603.811 94.7078 603.811 M94.7078 600.107 Q100.518 600.107 103.573 604.714 Q106.652 609.297 106.652 618.047 Q106.652 626.774 103.573 631.38 Q100.518 635.964 94.7078 635.964 Q88.8976 635.964 85.8189 631.38 Q82.7634 626.774 82.7634 618.047 Q82.7634 609.297 85.8189 604.714 Q88.8976 600.107 94.7078 600.107 Z" fill="#000000" fill-rule="nonzero" fill-opacity="1" /><path clip-path="url(#clip600)" d="M106.652 594.209 L130.764 594.209 L130.764 597.406 L106.652 597.406 L106.652 594.209 Z" fill="#000000" fill-rule="nonzero" fill-opacity="1" /><path clip-path="url(#clip600)" d="M142.236 604.685 L155.496 604.685 L155.496 607.882 L137.666 607.882 L137.666 604.685 Q139.829 602.447 143.553 598.685 Q147.296 594.905 148.255 593.814 Q150.079 591.764 150.794 590.353 Q151.527 588.924 151.527 587.551 Q151.527 585.313 149.948 583.902 Q148.387 582.491 145.866 582.491 Q144.08 582.491 142.086 583.112 Q140.111 583.733 137.854 584.993 L137.854 581.156 Q140.149 580.235 142.142 579.764 Q144.136 579.294 145.791 579.294 Q150.155 579.294 152.75 581.476 Q155.345 583.658 155.345 587.306 Q155.345 589.037 154.687 590.598 Q154.048 592.14 152.336 594.246 Q151.866 594.792 149.346 597.406 Q146.826 600.002 142.236 604.685 Z" fill="#000000" fill-rule="nonzero" fill-opacity="1" /><path clip-path="url(#clip600)" d="M55.0552 394.256 L62.694 394.256 L62.694 367.891 L54.3839 369.557 L54.3839 365.298 L62.6477 363.631 L67.3236 363.631 L67.3236 394.256 L74.9625 394.256 L74.9625 398.191 L55.0552 398.191 L55.0552 394.256 Z" fill="#000000" fill-rule="nonzero" fill-opacity="1" /><path clip-path="url(#clip600)" d="M94.4068 366.71 Q90.7957 366.71 88.967 370.275 Q87.1615 373.816 87.1615 380.946 Q87.1615 388.053 88.967 391.617 Q90.7957 395.159 94.4068 395.159 Q98.0411 395.159 99.8466 391.617 Q101.675 388.053 101.675 380.946 Q101.675 373.816 99.8466 370.275 Q98.0411 366.71 94.4068 366.71 M94.4068 363.006 Q100.217 363.006 103.273 367.613 Q106.351 372.196 106.351 380.946 Q106.351 389.673 103.273 394.279 Q100.217 398.863 94.4068 398.863 Q88.5967 398.863 85.518 394.279 Q82.4625 389.673 82.4625 380.946 Q82.4625 372.196 85.518 367.613 Q88.5967 363.006 94.4068 363.006 Z" fill="#000000" fill-rule="nonzero" fill-opacity="1" /><path clip-path="url(#clip600)" d="M106.351 357.108 L130.463 357.108 L130.463 360.305 L106.351 360.305 L106.351 357.108 Z" fill="#000000" fill-rule="nonzero" fill-opacity="1" /><path clip-path="url(#clip600)" d="M139.321 367.584 L145.528 367.584 L145.528 346.162 L138.776 347.516 L138.776 344.055 L145.49 342.701 L149.289 342.701 L149.289 367.584 L155.496 367.584 L155.496 370.781 L139.321 370.781 L139.321 367.584 Z" fill="#000000" fill-rule="nonzero" fill-opacity="1" /><path clip-path="url(#clip600)" d="M84.7903 157.155 L92.4291 157.155 L92.4291 130.79 L84.119 132.456 L84.119 128.197 L92.3828 126.53 L97.0587 126.53 L97.0587 157.155 L104.698 157.155 L104.698 161.09 L84.7903 161.09 L84.7903 157.155 Z" fill="#000000" fill-rule="nonzero" fill-opacity="1" /><path clip-path="url(#clip600)" d="M124.142 129.609 Q120.531 129.609 118.702 133.174 Q116.897 136.715 116.897 143.845 Q116.897 150.951 118.702 154.516 Q120.531 158.058 124.142 158.058 Q127.776 158.058 129.582 154.516 Q131.41 150.951 131.41 143.845 Q131.41 136.715 129.582 133.174 Q127.776 129.609 124.142 129.609 M124.142 125.905 Q129.952 125.905 133.008 130.512 Q136.086 135.095 136.086 143.845 Q136.086 152.572 133.008 157.178 Q129.952 161.762 124.142 161.762 Q118.332 161.762 115.253 157.178 Q112.198 152.572 112.198 143.845 Q112.198 135.095 115.253 130.512 Q118.332 125.905 124.142 125.905 Z" fill="#000000" fill-rule="nonzero" fill-opacity="1" /><path clip-path="url(#clip600)" d="M145.791 108.101 Q142.857 108.101 141.371 110.998 Q139.904 113.875 139.904 119.668 Q139.904 125.442 141.371 128.338 Q142.857 131.216 145.791 131.216 Q148.744 131.216 150.211 128.338 Q151.697 125.442 151.697 119.668 Q151.697 113.875 150.211 110.998 Q148.744 108.101 145.791 108.101 M145.791 105.092 Q150.512 105.092 152.994 108.835 Q155.496 112.559 155.496 119.668 Q155.496 126.759 152.994 130.501 Q150.512 134.225 145.791 134.225 Q141.07 134.225 138.569 130.501 Q136.086 126.759 136.086 119.668 Q136.086 112.559 138.569 108.835 Q141.07 105.092 145.791 105.092 Z" fill="#000000" fill-rule="nonzero" fill-opacity="1" /><g clip-path="url(#clip600)">
<text style="fill:#000000; fill-opacity:1; font-family:Arial,Helvetica Neue,Helvetica,sans-serif; font-size:66px; text-anchor:middle;" transform="rotate(0, 1069.13, 57.6)" x="1069.13" y="57.6">Diagonal preconditioning in CG</text>
</g>
<polyline clip-path="url(#clip602)" style="stroke:#009af9; stroke-linecap:round; stroke-linejoin:round; stroke-width:8; stroke-opacity:1; fill:none" points="235.513,137.363 245.556,173.809 255.6,250.122 265.643,283.886 275.687,285.401 285.73,288.636 295.774,312.991 305.817,343.136 315.861,364.823 325.905,371.417 335.948,373.575 345.992,383.175 356.035,395.605 366.079,409.382 376.122,415.062 386.166,417.607 396.209,422.982 406.253,429.923 416.296,439.068 426.34,445.609 436.383,450.131 446.427,454.404 456.47,457.82 466.514,463.435 476.557,468.022 486.601,471.491 496.645,472.619 506.688,473.532 516.732,472.427 526.775,474.143 536.819,475.403 546.862,472.599 556.906,474.723 566.949,476.033 576.993,479.694 587.036,482.639 597.08,484.804 607.123,487.638 617.167,492.418 627.21,496.836 637.254,500.051 647.298,506.27 657.341,511.296 667.385,516.561 677.428,521.977 687.472,528.467 697.515,535.215 707.559,539.628 717.602,543.119 727.646,549.14 737.689,552.714 747.733,555.301 757.776,558.488 767.82,562.392 777.863,563.921 787.907,566.342 797.951,568.243 807.994,569.541 818.038,571.825 828.081,572.468 838.125,573.014 848.168,575.062 858.212,578.716 868.255,580.852 878.299,584.068 888.342,586.704 898.386,589.111 908.429,594.597 918.473,599.88 928.516,604.169 938.56,611.147 948.604,617.93 958.647,624.028 968.691,632.04 978.734,642.114 988.778,649.637 998.821,657.21 1008.86,665.328 1018.91,672.632 1028.95,680.565 1039,688.345 1049.04,694.818 1059.08,702.422 1069.13,710.391 1079.17,715.221 1089.21,721.486 1099.26,726.786 1109.3,732.582 1119.34,736.82 1129.39,740.298 1139.43,746.72 1149.47,751.898 1159.52,756.316 1169.56,761.898 1179.6,770.15 1189.65,773.972 1199.69,777.345 1209.74,781.242 1219.78,787.223 1229.82,792.363 1239.87,798.244 1249.91,804.314 1259.95,806.908 1270,811.597 1280.04,814.531 1290.08,816.418 1300.13,820.941 1310.17,823.04 1320.21,825.134 1330.26,824.744 1340.3,826.251 1350.34,828.977 1360.39,828.182 1370.43,832.687 1380.48,829.653 1390.52,829.985 1400.56,827.647 1410.61,827.849 1420.65,830.422 1430.69,833.37 1440.74,835.26 1450.78,841.068 1460.82,844.379 1470.87,849.838 1480.91,856.254 1490.95,863.937 1501,870.4 1511.04,880.117 1521.08,886.987 1531.13,894.566 1541.17,903.662 1551.22,911.908 1561.26,920.909 1571.3,927.983 1581.35,936.107 1591.39,943.278 1601.43,950.942 1611.48,955.977 1621.52,962.603 1631.56,967.656 1641.61,974.278 1651.65,979.948 1661.69,985.262 1671.74,990.527 1681.78,995.837 1691.82,1000.54 1701.87,1003.47 1711.91,1006.51 1721.96,1008.78 1732,1010.66 1742.04,1012.97 1752.09,1014.64 1762.13,1018.5 1772.17,1021.64 1782.22,1026.31 1792.26,1030.54 1802.3,1037.68 1812.35,1044.64 1822.39,1053.59 1832.43,1059.94 1842.48,1071.23 1852.52,1079.52 1862.56,1091.2 1872.61,1102.24 1882.65,1115.04 1892.7,1127.37 1902.74,1140.92 "/>
<polyline clip-path="url(#clip602)" style="stroke:#e26f46; stroke-linecap:round; stroke-linejoin:round; stroke-width:8; stroke-opacity:1; fill:none" points="235.513,137.363 245.556,197.88 255.6,269.83 265.643,337.436 275.687,391.379 285.73,443.965 295.774,487.685 305.817,542.296 315.861,578.545 325.905,608.001 335.948,676.342 345.992,742.777 356.035,795.901 366.079,840.96 376.122,892.924 386.166,941.644 396.209,978.155 406.253,1018.38 416.296,1071.41 "/>
<path clip-path="url(#clip600)" d="M1369.58 298.235 L1893.85 298.235 L1893.85 142.715 L1369.58 142.715  Z" fill="#ffffff" fill-rule="evenodd" fill-opacity="1"/>
<polyline clip-path="url(#clip600)" style="stroke:#000000; stroke-linecap:round; stroke-linejoin:round; stroke-width:4; stroke-opacity:1; fill:none" points="1369.58,298.235 1893.85,298.235 1893.85,142.715 1369.58,142.715 1369.58,298.235 "/>
<polyline clip-path="url(#clip600)" style="stroke:#009af9; stroke-linecap:round; stroke-linejoin:round; stroke-width:8; stroke-opacity:1; fill:none" points="1389.21,194.555 1507.03,194.555 "/>
<path clip-path="url(#clip600)" d="M1530.95 207.946 L1530.95 221.696 L1526.67 221.696 L1526.67 185.909 L1530.95 185.909 L1530.95 189.844 Q1532.29 187.53 1534.33 186.418 Q1536.39 185.284 1539.24 185.284 Q1543.96 185.284 1546.9 189.034 Q1549.86 192.784 1549.86 198.895 Q1549.86 205.006 1546.9 208.756 Q1543.96 212.506 1539.24 212.506 Q1536.39 212.506 1534.33 211.395 Q1532.29 210.261 1530.95 207.946 M1545.44 198.895 Q1545.44 194.196 1543.5 191.534 Q1541.57 188.849 1538.19 188.849 Q1534.81 188.849 1532.87 191.534 Q1530.95 194.196 1530.95 198.895 Q1530.95 203.594 1532.87 206.28 Q1534.81 208.942 1538.19 208.942 Q1541.57 208.942 1543.5 206.28 Q1545.44 203.594 1545.44 198.895 Z" fill="#000000" fill-rule="nonzero" fill-opacity="1" /><path clip-path="url(#clip600)" d="M1556.92 175.817 L1561.18 175.817 L1561.18 211.835 L1556.92 211.835 L1556.92 175.817 Z" fill="#000000" fill-rule="nonzero" fill-opacity="1" /><path clip-path="url(#clip600)" d="M1581.87 198.803 Q1576.71 198.803 1574.72 199.983 Q1572.73 201.164 1572.73 204.011 Q1572.73 206.28 1574.21 207.622 Q1575.72 208.942 1578.29 208.942 Q1581.83 208.942 1583.96 206.442 Q1586.11 203.918 1586.11 199.752 L1586.11 198.803 L1581.87 198.803 M1590.37 197.043 L1590.37 211.835 L1586.11 211.835 L1586.11 207.9 Q1584.65 210.261 1582.48 211.395 Q1580.3 212.506 1577.15 212.506 Q1573.17 212.506 1570.81 210.284 Q1568.47 208.039 1568.47 204.289 Q1568.47 199.914 1571.39 197.692 Q1574.33 195.469 1580.14 195.469 L1586.11 195.469 L1586.11 195.053 Q1586.11 192.113 1584.17 190.516 Q1582.24 188.895 1578.75 188.895 Q1576.53 188.895 1574.42 189.428 Q1572.31 189.96 1570.37 191.025 L1570.37 187.09 Q1572.71 186.187 1574.91 185.747 Q1577.11 185.284 1579.19 185.284 Q1584.81 185.284 1587.59 188.201 Q1590.37 191.118 1590.37 197.043 Z" fill="#000000" fill-rule="nonzero" fill-opacity="1" /><path clip-path="url(#clip600)" d="M1599.14 185.909 L1603.4 185.909 L1603.4 211.835 L1599.14 211.835 L1599.14 185.909 M1599.14 175.817 L1603.4 175.817 L1603.4 181.21 L1599.14 181.21 L1599.14 175.817 Z" fill="#000000" fill-rule="nonzero" fill-opacity="1" /><path clip-path="url(#clip600)" d="M1633.87 196.187 L1633.87 211.835 L1629.61 211.835 L1629.61 196.326 Q1629.61 192.645 1628.17 190.817 Q1626.74 188.988 1623.87 188.988 Q1620.42 188.988 1618.43 191.187 Q1616.43 193.386 1616.43 197.182 L1616.43 211.835 L1612.15 211.835 L1612.15 185.909 L1616.43 185.909 L1616.43 189.937 Q1617.96 187.599 1620.02 186.442 Q1622.11 185.284 1624.81 185.284 Q1629.28 185.284 1631.57 188.062 Q1633.87 190.817 1633.87 196.187 Z" fill="#000000" fill-rule="nonzero" fill-opacity="1" /><polyline clip-path="url(#clip600)" style="stroke:#e26f46; stroke-linecap:round; stroke-linejoin:round; stroke-width:8; stroke-opacity:1; fill:none" points="1389.21,246.395 1507.03,246.395 "/>
<path clip-path="url(#clip600)" d="M1530.95 259.786 L1530.95 273.536 L1526.67 273.536 L1526.67 237.749 L1530.95 237.749 L1530.95 241.684 Q1532.29 239.37 1534.33 238.258 Q1536.39 237.124 1539.24 237.124 Q1543.96 237.124 1546.9 240.874 Q1549.86 244.624 1549.86 250.735 Q1549.86 256.846 1546.9 260.596 Q1543.96 264.346 1539.24 264.346 Q1536.39 264.346 1534.33 263.235 Q1532.29 262.101 1530.95 259.786 M1545.44 250.735 Q1545.44 246.036 1543.5 243.374 Q1541.57 240.689 1538.19 240.689 Q1534.81 240.689 1532.87 243.374 Q1530.95 246.036 1530.95 250.735 Q1530.95 255.434 1532.87 258.12 Q1534.81 260.782 1538.19 260.782 Q1541.57 260.782 1543.5 258.12 Q1545.44 255.434 1545.44 250.735 Z" fill="#000000" fill-rule="nonzero" fill-opacity="1" /><path clip-path="url(#clip600)" d="M1571.94 241.731 Q1571.23 241.314 1570.37 241.129 Q1569.54 240.921 1568.52 240.921 Q1564.91 240.921 1562.96 243.282 Q1561.04 245.62 1561.04 250.018 L1561.04 263.675 L1556.76 263.675 L1556.76 237.749 L1561.04 237.749 L1561.04 241.777 Q1562.38 239.416 1564.54 238.282 Q1566.69 237.124 1569.77 237.124 Q1570.21 237.124 1570.74 237.194 Q1571.27 237.24 1571.92 237.356 L1571.94 241.731 Z" fill="#000000" fill-rule="nonzero" fill-opacity="1" /><path clip-path="url(#clip600)" d="M1597.55 249.647 L1597.55 251.731 L1577.96 251.731 Q1578.24 256.129 1580.6 258.444 Q1582.99 260.735 1587.22 260.735 Q1589.68 260.735 1591.97 260.133 Q1594.28 259.532 1596.55 258.328 L1596.55 262.356 Q1594.26 263.328 1591.85 263.837 Q1589.44 264.346 1586.97 264.346 Q1580.76 264.346 1577.13 260.735 Q1573.52 257.124 1573.52 250.967 Q1573.52 244.601 1576.94 240.874 Q1580.39 237.124 1586.23 237.124 Q1591.46 237.124 1594.49 240.504 Q1597.55 243.86 1597.55 249.647 M1593.29 248.397 Q1593.24 244.902 1591.32 242.819 Q1589.42 240.735 1586.27 240.735 Q1582.71 240.735 1580.56 242.749 Q1578.43 244.763 1578.1 248.42 L1593.29 248.397 Z" fill="#000000" fill-rule="nonzero" fill-opacity="1" /><path clip-path="url(#clip600)" d="M1623.19 238.745 L1623.19 242.726 Q1621.39 241.731 1619.56 241.245 Q1617.75 240.735 1615.9 240.735 Q1611.76 240.735 1609.47 243.374 Q1607.18 245.99 1607.18 250.735 Q1607.18 255.481 1609.47 258.12 Q1611.76 260.735 1615.9 260.735 Q1617.75 260.735 1619.56 260.249 Q1621.39 259.74 1623.19 258.744 L1623.19 262.68 Q1621.41 263.513 1619.49 263.93 Q1617.59 264.346 1615.44 264.346 Q1609.58 264.346 1606.13 260.666 Q1602.68 256.985 1602.68 250.735 Q1602.68 244.393 1606.16 240.758 Q1609.65 237.124 1615.72 237.124 Q1617.68 237.124 1619.56 237.541 Q1621.43 237.934 1623.19 238.745 Z" fill="#000000" fill-rule="nonzero" fill-opacity="1" /><path clip-path="url(#clip600)" d="M1640.65 240.735 Q1637.22 240.735 1635.23 243.421 Q1633.24 246.083 1633.24 250.735 Q1633.24 255.388 1635.21 258.073 Q1637.2 260.735 1640.65 260.735 Q1644.05 260.735 1646.04 258.05 Q1648.03 255.365 1648.03 250.735 Q1648.03 246.129 1646.04 243.444 Q1644.05 240.735 1640.65 240.735 M1640.65 237.124 Q1646.2 237.124 1649.37 240.735 Q1652.55 244.346 1652.55 250.735 Q1652.55 257.101 1649.37 260.735 Q1646.2 264.346 1640.65 264.346 Q1635.07 264.346 1631.9 260.735 Q1628.75 257.101 1628.75 250.735 Q1628.75 244.346 1631.9 240.735 Q1635.07 237.124 1640.65 237.124 Z" fill="#000000" fill-rule="nonzero" fill-opacity="1" /><path clip-path="url(#clip600)" d="M1681.16 248.027 L1681.16 263.675 L1676.9 263.675 L1676.9 248.166 Q1676.9 244.485 1675.46 242.657 Q1674.03 240.828 1671.16 240.828 Q1667.71 240.828 1665.72 243.027 Q1663.73 245.226 1663.73 249.022 L1663.73 263.675 L1659.44 263.675 L1659.44 237.749 L1663.73 237.749 L1663.73 241.777 Q1665.25 239.439 1667.31 238.282 Q1669.4 237.124 1672.11 237.124 Q1676.57 237.124 1678.86 239.902 Q1681.16 242.657 1681.16 248.027 Z" fill="#000000" fill-rule="nonzero" fill-opacity="1" /><path clip-path="url(#clip600)" d="M1706.71 241.684 L1706.71 227.657 L1710.97 227.657 L1710.97 263.675 L1706.71 263.675 L1706.71 259.786 Q1705.37 262.101 1703.31 263.235 Q1701.27 264.346 1698.4 264.346 Q1693.7 264.346 1690.74 260.596 Q1687.8 256.846 1687.8 250.735 Q1687.8 244.624 1690.74 240.874 Q1693.7 237.124 1698.4 237.124 Q1701.27 237.124 1703.31 238.258 Q1705.37 239.37 1706.71 241.684 M1692.2 250.735 Q1692.2 255.434 1694.12 258.12 Q1696.06 260.782 1699.44 260.782 Q1702.82 260.782 1704.77 258.12 Q1706.71 255.434 1706.71 250.735 Q1706.71 246.036 1704.77 243.374 Q1702.82 240.689 1699.44 240.689 Q1696.06 240.689 1694.12 243.374 Q1692.2 246.036 1692.2 250.735 Z" fill="#000000" fill-rule="nonzero" fill-opacity="1" /><path clip-path="url(#clip600)" d="M1719.74 237.749 L1724 237.749 L1724 263.675 L1719.74 263.675 L1719.74 237.749 M1719.74 227.657 L1724 227.657 L1724 233.05 L1719.74 233.05 L1719.74 227.657 Z" fill="#000000" fill-rule="nonzero" fill-opacity="1" /><path clip-path="url(#clip600)" d="M1737.13 230.388 L1737.13 237.749 L1745.9 237.749 L1745.9 241.059 L1737.13 241.059 L1737.13 255.133 Q1737.13 258.305 1737.98 259.207 Q1738.86 260.11 1741.53 260.11 L1745.9 260.11 L1745.9 263.675 L1741.53 263.675 Q1736.6 263.675 1734.72 261.846 Q1732.85 259.994 1732.85 255.133 L1732.85 241.059 L1729.72 241.059 L1729.72 237.749 L1732.85 237.749 L1732.85 230.388 L1737.13 230.388 Z" fill="#000000" fill-rule="nonzero" fill-opacity="1" /><path clip-path="url(#clip600)" d="M1751.5 237.749 L1755.76 237.749 L1755.76 263.675 L1751.5 263.675 L1751.5 237.749 M1751.5 227.657 L1755.76 227.657 L1755.76 233.05 L1751.5 233.05 L1751.5 227.657 Z" fill="#000000" fill-rule="nonzero" fill-opacity="1" /><path clip-path="url(#clip600)" d="M1774.72 240.735 Q1771.29 240.735 1769.3 243.421 Q1767.31 246.083 1767.31 250.735 Q1767.31 255.388 1769.28 258.073 Q1771.27 260.735 1774.72 260.735 Q1778.12 260.735 1780.11 258.05 Q1782.11 255.365 1782.11 250.735 Q1782.11 246.129 1780.11 243.444 Q1778.12 240.735 1774.72 240.735 M1774.72 237.124 Q1780.28 237.124 1783.45 240.735 Q1786.62 244.346 1786.62 250.735 Q1786.62 257.101 1783.45 260.735 Q1780.28 264.346 1774.72 264.346 Q1769.14 264.346 1765.97 260.735 Q1762.82 257.101 1762.82 250.735 Q1762.82 244.346 1765.97 240.735 Q1769.14 237.124 1774.72 237.124 Z" fill="#000000" fill-rule="nonzero" fill-opacity="1" /><path clip-path="url(#clip600)" d="M1815.23 248.027 L1815.23 263.675 L1810.97 263.675 L1810.97 248.166 Q1810.97 244.485 1809.54 242.657 Q1808.1 240.828 1805.23 240.828 Q1801.78 240.828 1799.79 243.027 Q1797.8 245.226 1797.8 249.022 L1797.8 263.675 L1793.52 263.675 L1793.52 237.749 L1797.8 237.749 L1797.8 241.777 Q1799.33 239.439 1801.39 238.282 Q1803.47 237.124 1806.18 237.124 Q1810.65 237.124 1812.94 239.902 Q1815.23 242.657 1815.23 248.027 Z" fill="#000000" fill-rule="nonzero" fill-opacity="1" /><path clip-path="url(#clip600)" d="M1845.9 249.647 L1845.9 251.731 L1826.32 251.731 Q1826.6 256.129 1828.96 258.444 Q1831.34 260.735 1835.58 260.735 Q1838.03 260.735 1840.32 260.133 Q1842.64 259.532 1844.91 258.328 L1844.91 262.356 Q1842.61 263.328 1840.21 263.837 Q1837.8 264.346 1835.32 264.346 Q1829.12 264.346 1825.48 260.735 Q1821.87 257.124 1821.87 250.967 Q1821.87 244.601 1825.3 240.874 Q1828.75 237.124 1834.58 237.124 Q1839.81 237.124 1842.85 240.504 Q1845.9 243.86 1845.9 249.647 M1841.64 248.397 Q1841.6 244.902 1839.67 242.819 Q1837.78 240.735 1834.63 240.735 Q1831.06 240.735 1828.91 242.749 Q1826.78 244.763 1826.46 248.42 L1841.64 248.397 Z" fill="#000000" fill-rule="nonzero" fill-opacity="1" /><path clip-path="url(#clip600)" d="M1869.95 241.684 L1869.95 227.657 L1874.21 227.657 L1874.21 263.675 L1869.95 263.675 L1869.95 259.786 Q1868.61 262.101 1866.55 263.235 Q1864.51 264.346 1861.64 264.346 Q1856.94 264.346 1853.98 260.596 Q1851.04 256.846 1851.04 250.735 Q1851.04 244.624 1853.98 240.874 Q1856.94 237.124 1861.64 237.124 Q1864.51 237.124 1866.55 238.258 Q1868.61 239.37 1869.95 241.684 M1855.44 250.735 Q1855.44 255.434 1857.36 258.12 Q1859.3 260.782 1862.68 260.782 Q1866.06 260.782 1868.01 258.12 Q1869.95 255.434 1869.95 250.735 Q1869.95 246.036 1868.01 243.374 Q1866.06 240.689 1862.68 240.689 Q1859.3 240.689 1857.36 243.374 Q1855.44 246.036 1855.44 250.735 Z" fill="#000000" fill-rule="nonzero" fill-opacity="1" /></svg>
