<?xml version="1.0" encoding="utf-8"?>
<svg xmlns="http://www.w3.org/2000/svg" xmlns:xlink="http://www.w3.org/1999/xlink" width="500" height="320" viewBox="0 0 2000 1280">
<defs>
  <clipPath id="clip670">
    <rect x="0" y="0" width="2000" height="1280"/>
  </clipPath>
</defs>
<path clip-path="url(#clip670)" d="M0 1280 L2000 1280 L2000 0 L0 0  Z" fill="#ffffff" fill-rule="evenodd" fill-opacity="1"/>
<defs>
  <clipPath id="clip671">
    <rect x="400" y="0" width="1401" height="1280"/>
  </clipPath>
</defs>
<path clip-path="url(#clip670)" d="M188.941 1171.03 L1952.76 1171.03 L1952.76 47.2441 L188.941 47.2441  Z" fill="#ffffff" fill-rule="evenodd" fill-opacity="1"/>
<defs>
  <clipPath id="clip672">
    <rect x="188" y="47" width="1765" height="1125"/>
  </clipPath>
</defs>
<polyline clip-path="url(#clip672)" style="stroke:#000000; stroke-linecap:round; stroke-linejoin:round; stroke-width:2; stroke-opacity:0.1; fill:none" points="238.86,1171.03 238.86,47.2441 "/>
<polyline clip-path="url(#clip672)" style="stroke:#000000; stroke-linecap:round; stroke-linejoin:round; stroke-width:2; stroke-opacity:0.1; fill:none" points="654.854,1171.03 654.854,47.2441 "/>
<polyline clip-path="url(#clip672)" style="stroke:#000000; stroke-linecap:round; stroke-linejoin:round; stroke-width:2; stroke-opacity:0.1; fill:none" points="1070.85,1171.03 1070.85,47.2441 "/>
<polyline clip-path="url(#clip672)" style="stroke:#000000; stroke-linecap:round; stroke-linejoin:round; stroke-width:2; stroke-opacity:0.1; fill:none" points="1486.84,1171.03 1486.84,47.2441 "/>
<polyline clip-path="url(#clip672)" style="stroke:#000000; stroke-linecap:round; stroke-linejoin:round; stroke-width:2; stroke-opacity:0.1; fill:none" points="1902.84,1171.03 1902.84,47.2441 "/>
<polyline clip-path="url(#clip672)" style="stroke:#000000; stroke-linecap:round; stroke-linejoin:round; stroke-width:2; stroke-opacity:0.1; fill:none" points="188.941,1114.98 1952.76,1114.98 "/>
<polyline clip-path="url(#clip672)" style="stroke:#000000; stroke-linecap:round; stroke-linejoin:round; stroke-width:2; stroke-opacity:0.1; fill:none" points="188.941,939.782 1952.76,939.782 "/>
<polyline clip-path="url(#clip672)" style="stroke:#000000; stroke-linecap:round; stroke-linejoin:round; stroke-width:2; stroke-opacity:0.1; fill:none" points="188.941,764.585 1952.76,764.585 "/>
<polyline clip-path="url(#clip672)" style="stroke:#000000; stroke-linecap:round; stroke-linejoin:round; stroke-width:2; stroke-opacity:0.1; fill:none" points="188.941,589.388 1952.76,589.388 "/>
<polyline clip-path="url(#clip672)" style="stroke:#000000; stroke-linecap:round; stroke-linejoin:round; stroke-width:2; stroke-opacity:0.1; fill:none" points="188.941,414.191 1952.76,414.191 "/>
<polyline clip-path="url(#clip672)" style="stroke:#000000; stroke-linecap:round; stroke-linejoin:round; stroke-width:2; stroke-opacity:0.1; fill:none" points="188.941,238.994 1952.76,238.994 "/>
<polyline clip-path="url(#clip672)" style="stroke:#000000; stroke-linecap:round; stroke-linejoin:round; stroke-width:2; stroke-opacity:0.1; fill:none" points="188.941,63.7976 1952.76,63.7976 "/>
<polyline clip-path="url(#clip670)" style="stroke:#000000; stroke-linecap:round; stroke-linejoin:round; stroke-width:4; stroke-opacity:1; fill:none" points="188.941,1171.03 1952.76,1171.03 "/>
<polyline clip-path="url(#clip670)" style="stroke:#000000; stroke-linecap:round; stroke-linejoin:round; stroke-width:4; stroke-opacity:1; fill:none" points="238.86,1171.03 238.86,1152.13 "/>
<polyline clip-path="url(#clip670)" style="stroke:#000000; stroke-linecap:round; stroke-linejoin:round; stroke-width:4; stroke-opacity:1; fill:none" points="654.854,1171.03 654.854,1152.13 "/>
<polyline clip-path="url(#clip670)" style="stroke:#000000; stroke-linecap:round; stroke-linejoin:round; stroke-width:4; stroke-opacity:1; fill:none" points="1070.85,1171.03 1070.85,1152.13 "/>
<polyline clip-path="url(#clip670)" style="stroke:#000000; stroke-linecap:round; stroke-linejoin:round; stroke-width:4; stroke-opacity:1; fill:none" points="1486.84,1171.03 1486.84,1152.13 "/>
<polyline clip-path="url(#clip670)" style="stroke:#000000; stroke-linecap:round; stroke-linejoin:round; stroke-width:4; stroke-opacity:1; fill:none" points="1902.84,1171.03 1902.84,1152.13 "/>
<path clip-path="url(#clip670)" d="M185.388 1213.4 L215.064 1213.4 L215.064 1217.34 L185.388 1217.34 L185.388 1213.4 Z" fill="#000000" fill-rule="nonzero" fill-opacity="1" /><path clip-path="url(#clip670)" d="M225.966 1226.3 L233.605 1226.3 L233.605 1199.93 L225.295 1201.6 L225.295 1197.34 L233.559 1195.67 L238.235 1195.67 L238.235 1226.3 L245.874 1226.3 L245.874 1230.23 L225.966 1230.23 L225.966 1226.3 Z" fill="#000000" fill-rule="nonzero" fill-opacity="1" /><path clip-path="url(#clip670)" d="M255.318 1224.35 L260.202 1224.35 L260.202 1230.23 L255.318 1230.23 L255.318 1224.35 Z" fill="#000000" fill-rule="nonzero" fill-opacity="1" /><path clip-path="url(#clip670)" d="M280.387 1198.75 Q276.776 1198.75 274.948 1202.31 Q273.142 1205.86 273.142 1212.98 Q273.142 1220.09 274.948 1223.66 Q276.776 1227.2 280.387 1227.2 Q284.022 1227.2 285.827 1223.66 Q287.656 1220.09 287.656 1212.98 Q287.656 1205.86 285.827 1202.31 Q284.022 1198.75 280.387 1198.75 M280.387 1195.05 Q286.198 1195.05 289.253 1199.65 Q292.332 1204.24 292.332 1212.98 Q292.332 1221.71 289.253 1226.32 Q286.198 1230.9 280.387 1230.9 Q274.577 1230.9 271.499 1226.32 Q268.443 1221.71 268.443 1212.98 Q268.443 1204.24 271.499 1199.65 Q274.577 1195.05 280.387 1195.05 Z" fill="#000000" fill-rule="nonzero" fill-opacity="1" /><path clip-path="url(#clip670)" d="M601.88 1213.4 L631.556 1213.4 L631.556 1217.34 L601.88 1217.34 L601.88 1213.4 Z" fill="#000000" fill-rule="nonzero" fill-opacity="1" /><path clip-path="url(#clip670)" d="M651.648 1198.75 Q648.037 1198.75 646.208 1202.31 Q644.403 1205.86 644.403 1212.98 Q644.403 1220.09 646.208 1223.66 Q648.037 1227.2 651.648 1227.2 Q655.282 1227.2 657.088 1223.66 Q658.917 1220.09 658.917 1212.98 Q658.917 1205.86 657.088 1202.31 Q655.282 1198.75 651.648 1198.75 M651.648 1195.05 Q657.458 1195.05 660.514 1199.65 Q663.592 1204.24 663.592 1212.98 Q663.592 1221.71 660.514 1226.32 Q657.458 1230.9 651.648 1230.9 Q645.838 1230.9 642.759 1226.32 Q639.704 1221.71 639.704 1212.98 Q639.704 1204.24 642.759 1199.65 Q645.838 1195.05 651.648 1195.05 Z" fill="#000000" fill-rule="nonzero" fill-opacity="1" /><path clip-path="url(#clip670)" d="M671.81 1224.35 L676.694 1224.35 L676.694 1230.23 L671.81 1230.23 L671.81 1224.35 Z" fill="#000000" fill-rule="nonzero" fill-opacity="1" /><path clip-path="url(#clip670)" d="M686.926 1195.67 L705.282 1195.67 L705.282 1199.61 L691.208 1199.61 L691.208 1208.08 Q692.227 1207.73 693.245 1207.57 Q694.264 1207.38 695.282 1207.38 Q701.069 1207.38 704.449 1210.55 Q707.828 1213.73 707.828 1219.14 Q707.828 1224.72 704.356 1227.82 Q700.884 1230.9 694.565 1230.9 Q692.389 1230.9 690.12 1230.53 Q687.875 1230.16 685.467 1229.42 L685.467 1224.72 Q687.551 1225.86 689.773 1226.41 Q691.995 1226.97 694.472 1226.97 Q698.477 1226.97 700.815 1224.86 Q703.152 1222.75 703.152 1219.14 Q703.152 1215.53 700.815 1213.42 Q698.477 1211.32 694.472 1211.32 Q692.597 1211.32 690.722 1211.74 Q688.87 1212.15 686.926 1213.03 L686.926 1195.67 Z" fill="#000000" fill-rule="nonzero" fill-opacity="1" /><path clip-path="url(#clip670)" d="M1048.23 1198.75 Q1044.62 1198.75 1042.79 1202.31 Q1040.99 1205.86 1040.99 1212.98 Q1040.99 1220.09 1042.79 1223.66 Q1044.62 1227.2 1048.23 1227.2 Q1051.87 1227.2 1053.67 1223.66 Q1055.5 1220.09 1055.5 1212.98 Q1055.5 1205.86 1053.67 1202.31 Q1051.87 1198.75 1048.23 1198.75 M1048.23 1195.05 Q1054.04 1195.05 1057.1 1199.65 Q1060.18 1204.24 1060.18 1212.98 Q1060.18 1221.71 1057.1 1226.32 Q1054.04 1230.9 1048.23 1230.9 Q1042.42 1230.9 1039.34 1226.32 Q1036.29 1221.71 1036.29 1212.98 Q1036.29 1204.24 1039.34 1199.65 Q1042.42 1195.05 1048.23 1195.05 Z" fill="#000000" fill-rule="nonzero" fill-opacity="1" /><path clip-path="url(#clip670)" d="M1068.39 1224.35 L1073.28 1224.35 L1073.28 1230.23 L1068.39 1230.23 L1068.39 1224.35 Z" fill="#000000" fill-rule="nonzero" fill-opacity="1" /><path clip-path="url(#clip670)" d="M1093.46 1198.75 Q1089.85 1198.75 1088.02 1202.31 Q1086.22 1205.86 1086.22 1212.98 Q1086.22 1220.09 1088.02 1223.66 Q1089.85 1227.2 1093.46 1227.2 Q1097.1 1227.2 1098.9 1223.66 Q1100.73 1220.09 1100.73 1212.98 Q1100.73 1205.86 1098.9 1202.31 Q1097.1 1198.75 1093.46 1198.75 M1093.46 1195.05 Q1099.27 1195.05 1102.33 1199.65 Q1105.41 1204.24 1105.41 1212.98 Q1105.41 1221.71 1102.33 1226.32 Q1099.27 1230.9 1093.46 1230.9 Q1087.65 1230.9 1084.58 1226.32 Q1081.52 1221.71 1081.52 1212.98 Q1081.52 1204.24 1084.58 1199.65 Q1087.65 1195.05 1093.46 1195.05 Z" fill="#000000" fill-rule="nonzero" fill-opacity="1" /><path clip-path="url(#clip670)" d="M1464.72 1198.75 Q1461.11 1198.75 1459.28 1202.31 Q1457.48 1205.86 1457.48 1212.98 Q1457.48 1220.09 1459.28 1223.66 Q1461.11 1227.2 1464.72 1227.2 Q1468.36 1227.2 1470.16 1223.66 Q1471.99 1220.09 1471.99 1212.98 Q1471.99 1205.86 1470.16 1202.31 Q1468.36 1198.75 1464.72 1198.75 M1464.72 1195.05 Q1470.53 1195.05 1473.59 1199.65 Q1476.67 1204.24 1476.67 1212.98 Q1476.67 1221.71 1473.59 1226.32 Q1470.53 1230.9 1464.72 1230.9 Q1458.91 1230.9 1455.84 1226.32 Q1452.78 1221.71 1452.78 1212.98 Q1452.78 1204.24 1455.84 1199.65 Q1458.91 1195.05 1464.72 1195.05 Z" fill="#000000" fill-rule="nonzero" fill-opacity="1" /><path clip-path="url(#clip670)" d="M1484.89 1224.35 L1489.77 1224.35 L1489.77 1230.23 L1484.89 1230.23 L1484.89 1224.35 Z" fill="#000000" fill-rule="nonzero" fill-opacity="1" /><path clip-path="url(#clip670)" d="M1500 1195.67 L1518.36 1195.67 L1518.36 1199.61 L1504.28 1199.61 L1504.28 1208.08 Q1505.3 1207.73 1506.32 1207.57 Q1507.34 1207.38 1508.36 1207.38 Q1514.15 1207.38 1517.53 1210.55 Q1520.9 1213.73 1520.9 1219.14 Q1520.9 1224.72 1517.43 1227.82 Q1513.96 1230.9 1507.64 1230.9 Q1505.47 1230.9 1503.2 1230.53 Q1500.95 1230.16 1498.54 1229.42 L1498.54 1224.72 Q1500.63 1225.86 1502.85 1226.41 Q1505.07 1226.97 1507.55 1226.97 Q1511.55 1226.97 1513.89 1224.86 Q1516.23 1222.75 1516.23 1219.14 Q1516.23 1215.53 1513.89 1213.42 Q1511.55 1211.32 1507.55 1211.32 Q1505.67 1211.32 1503.8 1211.74 Q1501.95 1212.15 1500 1213.03 L1500 1195.67 Z" fill="#000000" fill-rule="nonzero" fill-opacity="1" /><path clip-path="url(#clip670)" d="M1869.99 1226.3 L1877.63 1226.3 L1877.63 1199.93 L1869.32 1201.6 L1869.32 1197.34 L1877.58 1195.67 L1882.26 1195.67 L1882.26 1226.3 L1889.9 1226.3 L1889.9 1230.23 L1869.99 1230.23 L1869.99 1226.3 Z" fill="#000000" fill-rule="nonzero" fill-opacity="1" /><path clip-path="url(#clip670)" d="M1899.34 1224.35 L1904.23 1224.35 L1904.23 1230.23 L1899.34 1230.23 L1899.34 1224.35 Z" fill="#000000" fill-rule="nonzero" fill-opacity="1" /><path clip-path="url(#clip670)" d="M1924.41 1198.75 Q1920.8 1198.75 1918.97 1202.31 Q1917.17 1205.86 1917.17 1212.98 Q1917.17 1220.09 1918.97 1223.66 Q1920.8 1227.2 1924.41 1227.2 Q1928.04 1227.2 1929.85 1223.66 Q1931.68 1220.09 1931.68 1212.98 Q1931.68 1205.86 1929.85 1202.31 Q1928.04 1198.75 1924.41 1198.75 M1924.41 1195.05 Q1930.22 1195.05 1933.28 1199.65 Q1936.35 1204.24 1936.35 1212.98 Q1936.35 1221.71 1933.28 1226.32 Q1930.22 1230.9 1924.41 1230.9 Q1918.6 1230.9 1915.52 1226.32 Q1912.47 1221.71 1912.47 1212.98 Q1912.47 1204.24 1915.52 1199.65 Q1918.6 1195.05 1924.41 1195.05 Z" fill="#000000" fill-rule="nonzero" fill-opacity="1" /><polyline clip-path="url(#clip670)" style="stroke:#000000; stroke-linecap:round; stroke-linejoin:round; stroke-width:4; stroke-opacity:1; fill:none" points="188.941,1171.03 188.941,47.2441 "/>
<polyline clip-path="url(#clip670)" style="stroke:#000000; stroke-linecap:round; stroke-linejoin:round; stroke-width:4; stroke-opacity:1; fill:none" points="188.941,1114.98 207.838,1114.98 "/>
<polyline clip-path="url(#clip670)" style="stroke:#000000; stroke-linecap:round; stroke-linejoin:round; stroke-width:4; stroke-opacity:1; fill:none" points="188.941,939.782 207.838,939.782 "/>
<polyline clip-path="url(#clip670)" style="stroke:#000000; stroke-linecap:round; stroke-linejoin:round; stroke-width:4; stroke-opacity:1; fill:none" points="188.941,764.585 207.838,764.585 "/>
<polyline clip-path="url(#clip670)" style="stroke:#000000; stroke-linecap:round; stroke-linejoin:round; stroke-width:4; stroke-opacity:1; fill:none" points="188.941,589.388 207.838,589.388 "/>
<polyline clip-path="url(#clip670)" style="stroke:#000000; stroke-linecap:round; stroke-linejoin:round; stroke-width:4; stroke-opacity:1; fill:none" points="188.941,414.191 207.838,414.191 "/>
<polyline clip-path="url(#clip670)" style="stroke:#000000; stroke-linecap:round; stroke-linejoin:round; stroke-width:4; stroke-opacity:1; fill:none" points="188.941,238.994 207.838,238.994 "/>
<polyline clip-path="url(#clip670)" style="stroke:#000000; stroke-linecap:round; stroke-linejoin:round; stroke-width:4; stroke-opacity:1; fill:none" points="188.941,63.7976 207.838,63.7976 "/>
<path clip-path="url(#clip670)" d="M52.9921 1115.43 L82.6679 1115.43 L82.6679 1119.37 L52.9921 1119.37 L52.9921 1115.43 Z" fill="#000000" fill-rule="nonzero" fill-opacity="1" /><path clip-path="url(#clip670)" d="M102.76 1100.78 Q99.1493 1100.78 97.3206 1104.34 Q95.515 1107.88 95.515 1115.01 Q95.515 1122.12 97.3206 1125.68 Q99.1493 1129.23 102.76 1129.23 Q106.395 1129.23 108.2 1125.68 Q110.029 1122.12 110.029 1115.01 Q110.029 1107.88 108.2 1104.34 Q106.395 1100.78 102.76 1100.78 M102.76 1097.07 Q108.571 1097.07 111.626 1101.68 Q114.705 1106.26 114.705 1115.01 Q114.705 1123.74 111.626 1128.35 Q108.571 1132.93 102.76 1132.93 Q96.9502 1132.93 93.8715 1128.35 Q90.816 1123.74 90.816 1115.01 Q90.816 1106.26 93.8715 1101.68 Q96.9502 1097.07 102.76 1097.07 Z" fill="#000000" fill-rule="nonzero" fill-opacity="1" /><path clip-path="url(#clip670)" d="M122.922 1126.38 L127.807 1126.38 L127.807 1132.26 L122.922 1132.26 L122.922 1126.38 Z" fill="#000000" fill-rule="nonzero" fill-opacity="1" /><path clip-path="url(#clip670)" d="M138.038 1097.7 L156.394 1097.7 L156.394 1101.63 L142.32 1101.63 L142.32 1110.11 Q143.339 1109.76 144.357 1109.6 Q145.376 1109.41 146.394 1109.41 Q152.181 1109.41 155.561 1112.58 Q158.941 1115.75 158.941 1121.17 Q158.941 1126.75 155.468 1129.85 Q151.996 1132.93 145.677 1132.93 Q143.501 1132.93 141.232 1132.56 Q138.987 1132.19 136.58 1131.45 L136.58 1126.75 Q138.663 1127.88 140.885 1128.44 Q143.107 1128.99 145.584 1128.99 Q149.589 1128.99 151.927 1126.89 Q154.265 1124.78 154.265 1121.17 Q154.265 1117.56 151.927 1115.45 Q149.589 1113.35 145.584 1113.35 Q143.709 1113.35 141.834 1113.76 Q139.982 1114.18 138.038 1115.06 L138.038 1097.7 Z" fill="#000000" fill-rule="nonzero" fill-opacity="1" /><path clip-path="url(#clip670)" d="M101.765 925.58 Q98.1539 925.58 96.3252 929.145 Q94.5197 932.687 94.5197 939.816 Q94.5197 946.923 96.3252 950.488 Q98.1539 954.029 101.765 954.029 Q105.399 954.029 107.205 950.488 Q109.033 946.923 109.033 939.816 Q109.033 932.687 107.205 929.145 Q105.399 925.58 101.765 925.58 M101.765 921.877 Q107.575 921.877 110.631 926.483 Q113.709 931.066 113.709 939.816 Q113.709 948.543 110.631 953.15 Q107.575 957.733 101.765 957.733 Q95.9549 957.733 92.8762 953.15 Q89.8206 948.543 89.8206 939.816 Q89.8206 931.066 92.8762 926.483 Q95.9549 921.877 101.765 921.877 Z" fill="#000000" fill-rule="nonzero" fill-opacity="1" /><path clip-path="url(#clip670)" d="M121.927 951.182 L126.811 951.182 L126.811 957.062 L121.927 957.062 L121.927 951.182 Z" fill="#000000" fill-rule="nonzero" fill-opacity="1" /><path clip-path="url(#clip670)" d="M146.996 925.58 Q143.385 925.58 141.556 929.145 Q139.751 932.687 139.751 939.816 Q139.751 946.923 141.556 950.488 Q143.385 954.029 146.996 954.029 Q150.63 954.029 152.436 950.488 Q154.265 946.923 154.265 939.816 Q154.265 932.687 152.436 929.145 Q150.63 925.58 146.996 925.58 M146.996 921.877 Q152.806 921.877 155.862 926.483 Q158.941 931.066 158.941 939.816 Q158.941 948.543 155.862 953.15 Q152.806 957.733 146.996 957.733 Q141.186 957.733 138.107 953.15 Q135.052 948.543 135.052 939.816 Q135.052 931.066 138.107 926.483 Q141.186 921.877 146.996 921.877 Z" fill="#000000" fill-rule="nonzero" fill-opacity="1" /><path clip-path="url(#clip670)" d="M102.76 750.384 Q99.1493 750.384 97.3206 753.948 Q95.515 757.49 95.515 764.62 Q95.515 771.726 97.3206 775.291 Q99.1493 778.832 102.76 778.832 Q106.395 778.832 108.2 775.291 Q110.029 771.726 110.029 764.62 Q110.029 757.49 108.2 753.948 Q106.395 750.384 102.76 750.384 M102.76 746.68 Q108.571 746.68 111.626 751.286 Q114.705 755.87 114.705 764.62 Q114.705 773.346 111.626 777.953 Q108.571 782.536 102.76 782.536 Q96.9502 782.536 93.8715 777.953 Q90.816 773.346 90.816 764.62 Q90.816 755.87 93.8715 751.286 Q96.9502 746.68 102.76 746.68 Z" fill="#000000" fill-rule="nonzero" fill-opacity="1" /><path clip-path="url(#clip670)" d="M122.922 775.985 L127.807 775.985 L127.807 781.865 L122.922 781.865 L122.922 775.985 Z" fill="#000000" fill-rule="nonzero" fill-opacity="1" /><path clip-path="url(#clip670)" d="M138.038 747.305 L156.394 747.305 L156.394 751.24 L142.32 751.24 L142.32 759.712 Q143.339 759.365 144.357 759.203 Q145.376 759.018 146.394 759.018 Q152.181 759.018 155.561 762.189 Q158.941 765.36 158.941 770.777 Q158.941 776.356 155.468 779.457 Q151.996 782.536 145.677 782.536 Q143.501 782.536 141.232 782.166 Q138.987 781.795 136.58 781.055 L136.58 776.356 Q138.663 777.49 140.885 778.045 Q143.107 778.601 145.584 778.601 Q149.589 778.601 151.927 776.495 Q154.265 774.388 154.265 770.777 Q154.265 767.166 151.927 765.059 Q149.589 762.953 145.584 762.953 Q143.709 762.953 141.834 763.37 Q139.982 763.786 138.038 764.666 L138.038 747.305 Z" fill="#000000" fill-rule="nonzero" fill-opacity="1" /><path clip-path="url(#clip670)" d="M92.5752 602.733 L100.214 602.733 L100.214 576.367 L91.904 578.034 L91.904 573.775 L100.168 572.108 L104.844 572.108 L104.844 602.733 L112.483 602.733 L112.483 606.668 L92.5752 606.668 L92.5752 602.733 Z" fill="#000000" fill-rule="nonzero" fill-opacity="1" /><path clip-path="url(#clip670)" d="M121.927 600.788 L126.811 600.788 L126.811 606.668 L121.927 606.668 L121.927 600.788 Z" fill="#000000" fill-rule="nonzero" fill-opacity="1" /><path clip-path="url(#clip670)" d="M146.996 575.187 Q143.385 575.187 141.556 578.752 Q139.751 582.293 139.751 589.423 Q139.751 596.529 141.556 600.094 Q143.385 603.636 146.996 603.636 Q150.63 603.636 152.436 600.094 Q154.265 596.529 154.265 589.423 Q154.265 582.293 152.436 578.752 Q150.63 575.187 146.996 575.187 M146.996 571.483 Q152.806 571.483 155.862 576.09 Q158.941 580.673 158.941 589.423 Q158.941 598.15 155.862 602.756 Q152.806 607.339 146.996 607.339 Q141.186 607.339 138.107 602.756 Q135.052 598.15 135.052 589.423 Q135.052 580.673 138.107 576.09 Q141.186 571.483 146.996 571.483 Z" fill="#000000" fill-rule="nonzero" fill-opacity="1" /><path clip-path="url(#clip670)" d="M93.5706 427.536 L101.209 427.536 L101.209 401.17 L92.8993 402.837 L92.8993 398.578 L101.163 396.911 L105.839 396.911 L105.839 427.536 L113.478 427.536 L113.478 431.471 L93.5706 431.471 L93.5706 427.536 Z" fill="#000000" fill-rule="nonzero" fill-opacity="1" /><path clip-path="url(#clip670)" d="M122.922 425.592 L127.807 425.592 L127.807 431.471 L122.922 431.471 L122.922 425.592 Z" fill="#000000" fill-rule="nonzero" fill-opacity="1" /><path clip-path="url(#clip670)" d="M138.038 396.911 L156.394 396.911 L156.394 400.846 L142.32 400.846 L142.32 409.319 Q143.339 408.971 144.357 408.809 Q145.376 408.624 146.394 408.624 Q152.181 408.624 155.561 411.795 Q158.941 414.967 158.941 420.383 Q158.941 425.962 155.468 429.064 Q151.996 432.143 145.677 432.143 Q143.501 432.143 141.232 431.772 Q138.987 431.402 136.58 430.661 L136.58 425.962 Q138.663 427.096 140.885 427.652 Q143.107 428.207 145.584 428.207 Q149.589 428.207 151.927 426.101 Q154.265 423.994 154.265 420.383 Q154.265 416.772 151.927 414.666 Q149.589 412.559 145.584 412.559 Q143.709 412.559 141.834 412.976 Q139.982 413.393 138.038 414.272 L138.038 396.911 Z" fill="#000000" fill-rule="nonzero" fill-opacity="1" /><path clip-path="url(#clip670)" d="M95.7928 252.339 L112.112 252.339 L112.112 256.274 L90.1679 256.274 L90.1679 252.339 Q92.8299 249.585 97.4132 244.955 Q102.02 240.302 103.2 238.96 Q105.446 236.437 106.325 234.7 Q107.228 232.941 107.228 231.251 Q107.228 228.497 105.284 226.761 Q103.362 225.025 100.26 225.025 Q98.0613 225.025 95.6076 225.789 Q93.1771 226.552 90.3993 228.103 L90.3993 223.381 Q93.2234 222.247 95.6771 221.668 Q98.1308 221.089 100.168 221.089 Q105.538 221.089 108.733 223.775 Q111.927 226.46 111.927 230.951 Q111.927 233.08 111.117 235.001 Q110.33 236.9 108.223 239.492 Q107.645 240.163 104.543 243.381 Q101.441 246.575 95.7928 252.339 Z" fill="#000000" fill-rule="nonzero" fill-opacity="1" /><path clip-path="url(#clip670)" d="M121.927 250.395 L126.811 250.395 L126.811 256.274 L121.927 256.274 L121.927 250.395 Z" fill="#000000" fill-rule="nonzero" fill-opacity="1" /><path clip-path="url(#clip670)" d="M146.996 224.793 Q143.385 224.793 141.556 228.358 Q139.751 231.9 139.751 239.029 Q139.751 246.136 141.556 249.7 Q143.385 253.242 146.996 253.242 Q150.63 253.242 152.436 249.7 Q154.265 246.136 154.265 239.029 Q154.265 231.9 152.436 228.358 Q150.63 224.793 146.996 224.793 M146.996 221.089 Q152.806 221.089 155.862 225.696 Q158.941 230.279 158.941 239.029 Q158.941 247.756 155.862 252.362 Q152.806 256.946 146.996 256.946 Q141.186 256.946 138.107 252.362 Q135.052 247.756 135.052 239.029 Q135.052 230.279 138.107 225.696 Q141.186 221.089 146.996 221.089 Z" fill="#000000" fill-rule="nonzero" fill-opacity="1" /><path clip-path="url(#clip670)" d="M96.7882 77.1425 L113.108 77.1425 L113.108 81.0776 L91.1632 81.0776 L91.1632 77.1425 Q93.8252 74.3879 98.4085 69.7583 Q103.015 65.1055 104.196 63.7629 Q106.441 61.2398 107.321 59.5037 Q108.223 57.7444 108.223 56.0546 Q108.223 53.3 106.279 51.5639 Q104.358 49.8278 101.256 49.8278 Q99.0567 49.8278 96.603 50.5917 Q94.1725 51.3556 91.3947 52.9065 L91.3947 48.1843 Q94.2188 47.0501 96.6724 46.4714 Q99.1261 45.8927 101.163 45.8927 Q106.534 45.8927 109.728 48.5778 Q112.922 51.263 112.922 55.7537 Q112.922 57.8833 112.112 59.8046 Q111.325 61.7028 109.219 64.2953 Q108.64 64.9666 105.538 68.1842 Q102.436 71.3786 96.7882 77.1425 Z" fill="#000000" fill-rule="nonzero" fill-opacity="1" /><path clip-path="url(#clip670)" d="M122.922 75.1981 L127.807 75.1981 L127.807 81.0776 L122.922 81.0776 L122.922 75.1981 Z" fill="#000000" fill-rule="nonzero" fill-opacity="1" /><path clip-path="url(#clip670)" d="M138.038 46.5176 L156.394 46.5176 L156.394 50.4528 L142.32 50.4528 L142.32 58.925 Q143.339 58.5778 144.357 58.4157 Q145.376 58.2306 146.394 58.2306 Q152.181 58.2306 155.561 61.4018 Q158.941 64.5731 158.941 69.9897 Q158.941 75.5684 155.468 78.6703 Q151.996 81.7489 145.677 81.7489 Q143.501 81.7489 141.232 81.3786 Q138.987 81.0082 136.58 80.2675 L136.58 75.5684 Q138.663 76.7027 140.885 77.2582 Q143.107 77.8138 145.584 77.8138 Q149.589 77.8138 151.927 75.7073 Q154.265 73.6008 154.265 69.9897 Q154.265 66.3787 151.927 64.2722 Q149.589 62.1657 145.584 62.1657 Q143.709 62.1657 141.834 62.5824 Q139.982 62.999 138.038 63.8787 L138.038 46.5176 Z" fill="#000000" fill-rule="nonzero" fill-opacity="1" /><circle clip-path="url(#clip672)" cx="238.86" cy="1099.73" r="10.8" fill="#009af9" fill-rule="evenodd" fill-opacity="1" stroke="#000000" stroke-opacity="1" stroke-width="2.56"/>
<circle clip-path="url(#clip672)" cx="377.525" cy="845.058" r="10.8" fill="#009af9" fill-rule="evenodd" fill-opacity="1" stroke="#000000" stroke-opacity="1" stroke-width="2.56"/>
<circle clip-path="url(#clip672)" cx="516.189" cy="1139.23" r="10.8" fill="#009af9" fill-rule="evenodd" fill-opacity="1" stroke="#000000" stroke-opacity="1" stroke-width="2.56"/>
<circle clip-path="url(#clip672)" cx="654.854" cy="932.069" r="10.8" fill="#009af9" fill-rule="evenodd" fill-opacity="1" stroke="#000000" stroke-opacity="1" stroke-width="2.56"/>
<circle clip-path="url(#clip672)" cx="793.519" cy="1083.2" r="10.8" fill="#009af9" fill-rule="evenodd" fill-opacity="1" stroke="#000000" stroke-opacity="1" stroke-width="2.56"/>
<circle clip-path="url(#clip672)" cx="932.184" cy="955.061" r="10.8" fill="#009af9" fill-rule="evenodd" fill-opacity="1" stroke="#000000" stroke-opacity="1" stroke-width="2.56"/>
<circle clip-path="url(#clip672)" cx="1070.85" cy="939.782" r="10.8" fill="#009af9" fill-rule="evenodd" fill-opacity="1" stroke="#000000" stroke-opacity="1" stroke-width="2.56"/>
<circle clip-path="url(#clip672)" cx="1209.51" cy="905.036" r="10.8" fill="#009af9" fill-rule="evenodd" fill-opacity="1" stroke="#000000" stroke-opacity="1" stroke-width="2.56"/>
<circle clip-path="url(#clip672)" cx="1348.18" cy="718.501" r="10.8" fill="#009af9" fill-rule="evenodd" fill-opacity="1" stroke="#000000" stroke-opacity="1" stroke-width="2.56"/>
<circle clip-path="url(#clip672)" cx="1486.84" cy="772.297" r="10.8" fill="#009af9" fill-rule="evenodd" fill-opacity="1" stroke="#000000" stroke-opacity="1" stroke-width="2.56"/>
<circle clip-path="url(#clip672)" cx="1625.51" cy="428.877" r="10.8" fill="#009af9" fill-rule="evenodd" fill-opacity="1" stroke="#000000" stroke-opacity="1" stroke-width="2.56"/>
<circle clip-path="url(#clip672)" cx="1764.17" cy="547.847" r="10.8" fill="#009af9" fill-rule="evenodd" fill-opacity="1" stroke="#000000" stroke-opacity="1" stroke-width="2.56"/>
<circle clip-path="url(#clip672)" cx="1902.84" cy="79.0494" r="10.8" fill="#009af9" fill-rule="evenodd" fill-opacity="1" stroke="#000000" stroke-opacity="1" stroke-width="2.56"/>
<polyline clip-path="url(#clip672)" style="stroke:#e26f46; stroke-linecap:round; stroke-linejoin:round; stroke-width:8; stroke-opacity:1; fill:none" points="238.86,1099.73 247.449,1083.95 256.038,1068.18 306.345,975.786 356.651,883.395 362.501,872.65 368.352,861.905 371.277,856.532 374.203,851.159 375.665,848.473 377.128,845.787 378.59,847.319 380.053,850.422 382.978,856.628 385.904,862.834 388.829,869.04 391.754,875.245 397.605,887.657 403.456,900.069 434.824,966.613 466.192,1033.16 479.151,1060.65 492.111,1088.14 498.591,1101.89 505.071,1115.64 508.311,1122.51 511.551,1129.38 513.171,1132.82 514.791,1136.26 515.601,1137.98 516.411,1138.89 517.221,1137.68 518.031,1136.47 524.056,1127.47 530.082,1118.47 536.108,1109.47 542.133,1100.47 554.185,1082.46 566.236,1064.46 596.493,1019.26 626.75,974.054 633.536,963.918 640.321,953.781 643.713,948.713 647.106,943.644 650.499,938.576 653.891,933.508 655.588,932.869 657.284,934.717 658.98,936.566 660.676,938.415 664.069,942.112 667.462,945.81 674.247,953.205 681.032,960.6 712.098,994.459 743.165,1028.32 754.776,1040.97 766.387,1053.63 772.192,1059.95 777.998,1066.28 783.803,1072.61 789.609,1078.94 791.465,1080.96 793.322,1082.98 795.178,1081.66 797.034,1079.95 800.747,1076.52 804.46,1073.09 811.885,1066.23 819.31,1059.36 834.161,1045.64 849.012,1031.92 876.121,1006.87 903.229,981.816 910.942,974.689 918.656,967.561 926.369,960.434 934.082,954.851 941.795,954.001 949.509,953.152 957.222,952.302 964.935,951.452 989.393,948.757 1013.85,946.062 1044.24,942.714 1074.62,938.836 1097.89,933.005 1121.16,927.174 1153.97,918.953 1186.78,910.733 1192.91,909.197 1199.04,907.661 1205.17,906.125 1211.3,902.636 1217.43,894.391 1223.56,886.146 1229.68,877.901 1235.81,869.656 1263.7,832.149 1291.58,794.642 1305.38,776.07 1319.19,757.498 1326.09,748.212 1332.99,738.926 1339.9,729.639 1346.8,720.353 1348.7,718.703 1350.6,719.44 1352.5,720.177 1354.4,720.913 1358.19,722.386 1361.99,723.86 1369.58,726.806 1377.18,729.752 1392.37,735.645 1407.56,741.538 1430.76,750.54 1453.97,759.542 1461.29,762.382 1468.61,765.222 1475.93,768.062 1483.25,770.902 1485.08,771.612 1486.91,772.139 1488.74,767.606 1490.57,763.074 1494.23,754.009 1497.89,744.944 1505.21,726.815 1512.53,708.685 1539.61,641.613 1566.69,574.541 1580.66,539.955 1594.62,505.368 1601.6,488.075 1608.59,470.781 1615.57,453.488 1622.55,436.195 1624.32,431.813 1626.09,429.379 1627.86,430.897 1629.63,432.415 1633.17,435.451 1636.71,438.487 1643.79,444.56 1650.86,450.632 1665.02,462.777 1679.17,474.922 1708.74,500.285 1738.3,525.648 1744.12,530.643 1749.94,535.638 1752.85,538.135 1755.76,540.633 1758.67,543.13 1761.58,545.628 1763.04,546.876 1764.5,546.753 1765.95,541.833 1767.41,536.912 1770.32,527.071 1773.23,517.23 1779.05,497.548 1784.87,477.865 1837.9,298.573 1890.94,119.281 1896.89,99.1652 1902.84,79.0494 "/>
<path clip-path="url(#clip670)" d="M793.492 240.224 L1348.2 240.224 L1348.2 84.7036 L793.492 84.7036  Z" fill="#ffffff" fill-rule="evenodd" fill-opacity="1"/>
<polyline clip-path="url(#clip670)" style="stroke:#000000; stroke-linecap:round; stroke-linejoin:round; stroke-width:4; stroke-opacity:1; fill:none" points="793.492,240.224 1348.2,240.224 1348.2,84.7036 793.492,84.7036 793.492,240.224 "/>
<circle clip-path="url(#clip670)" cx="871.884" cy="136.544" r="19.7486" fill="#009af9" fill-rule="evenodd" fill-opacity="1" stroke="#000000" stroke-opacity="1" stroke-width="4.68114"/>
<path clip-path="url(#clip670)" d="M969.187 131.833 L969.187 117.805 L973.447 117.805 L973.447 153.824 L969.187 153.824 L969.187 149.935 Q967.845 152.25 965.785 153.384 Q963.748 154.495 960.877 154.495 Q956.178 154.495 953.215 150.745 Q950.275 146.995 950.275 140.884 Q950.275 134.773 953.215 131.023 Q956.178 127.273 960.877 127.273 Q963.748 127.273 965.785 128.407 Q967.845 129.518 969.187 131.833 M954.674 140.884 Q954.674 145.583 956.595 148.268 Q958.539 150.93 961.919 150.93 Q965.298 150.93 967.243 148.268 Q969.187 145.583 969.187 140.884 Q969.187 136.185 967.243 133.523 Q965.298 130.838 961.919 130.838 Q958.539 130.838 956.595 133.523 Q954.674 136.185 954.674 140.884 Z" fill="#000000" fill-rule="nonzero" fill-opacity="1" /><path clip-path="url(#clip670)" d="M994.002 140.791 Q988.84 140.791 986.849 141.972 Q984.859 143.152 984.859 146 Q984.859 148.268 986.34 149.611 Q987.845 150.93 990.414 150.93 Q993.956 150.93 996.085 148.43 Q998.238 145.907 998.238 141.74 L998.238 140.791 L994.002 140.791 M1002.5 139.032 L1002.5 153.824 L998.238 153.824 L998.238 149.888 Q996.78 152.25 994.604 153.384 Q992.428 154.495 989.28 154.495 Q985.298 154.495 982.937 152.273 Q980.599 150.027 980.599 146.277 Q980.599 141.902 983.516 139.68 Q986.456 137.458 992.266 137.458 L998.238 137.458 L998.238 137.041 Q998.238 134.102 996.294 132.504 Q994.372 130.884 990.877 130.884 Q988.655 130.884 986.548 131.416 Q984.442 131.949 982.497 133.014 L982.497 129.078 Q984.835 128.176 987.034 127.736 Q989.234 127.273 991.317 127.273 Q996.942 127.273 999.72 130.19 Q1002.5 133.106 1002.5 139.032 Z" fill="#000000" fill-rule="nonzero" fill-opacity="1" /><path clip-path="url(#clip670)" d="M1015.48 120.537 L1015.48 127.898 L1024.26 127.898 L1024.26 131.208 L1015.48 131.208 L1015.48 145.282 Q1015.48 148.453 1016.34 149.356 Q1017.22 150.259 1019.88 150.259 L1024.26 150.259 L1024.26 153.824 L1019.88 153.824 Q1014.95 153.824 1013.08 151.995 Q1011.2 150.143 1011.2 145.282 L1011.2 131.208 L1008.08 131.208 L1008.08 127.898 L1011.2 127.898 L1011.2 120.537 L1015.48 120.537 Z" fill="#000000" fill-rule="nonzero" fill-opacity="1" /><path clip-path="url(#clip670)" d="M1041.64 140.791 Q1036.48 140.791 1034.49 141.972 Q1032.5 143.152 1032.5 146 Q1032.5 148.268 1033.98 149.611 Q1035.48 150.93 1038.05 150.93 Q1041.59 150.93 1043.72 148.43 Q1045.88 145.907 1045.88 141.74 L1045.88 140.791 L1041.64 140.791 M1050.14 139.032 L1050.14 153.824 L1045.88 153.824 L1045.88 149.888 Q1044.42 152.25 1042.24 153.384 Q1040.07 154.495 1036.92 154.495 Q1032.94 154.495 1030.58 152.273 Q1028.24 150.027 1028.24 146.277 Q1028.24 141.902 1031.15 139.68 Q1034.09 137.458 1039.9 137.458 L1045.88 137.458 L1045.88 137.041 Q1045.88 134.102 1043.93 132.504 Q1042.01 130.884 1038.52 130.884 Q1036.29 130.884 1034.19 131.416 Q1032.08 131.949 1030.14 133.014 L1030.14 129.078 Q1032.47 128.176 1034.67 127.736 Q1036.87 127.273 1038.96 127.273 Q1044.58 127.273 1047.36 130.19 Q1050.14 133.106 1050.14 139.032 Z" fill="#000000" fill-rule="nonzero" fill-opacity="1" /><polyline clip-path="url(#clip670)" style="stroke:#e26f46; stroke-linecap:round; stroke-linejoin:round; stroke-width:8; stroke-opacity:1; fill:none" points="813.09,188.384 930.677,188.384 "/>
<path clip-path="url(#clip670)" d="M954.558 201.775 L954.558 215.525 L950.275 215.525 L950.275 179.738 L954.558 179.738 L954.558 183.673 Q955.9 181.358 957.937 180.247 Q959.998 179.113 962.845 179.113 Q967.567 179.113 970.507 182.863 Q973.47 186.613 973.47 192.724 Q973.47 198.835 970.507 202.585 Q967.567 206.335 962.845 206.335 Q959.998 206.335 957.937 205.224 Q955.9 204.09 954.558 201.775 M969.048 192.724 Q969.048 188.025 967.104 185.363 Q965.183 182.678 961.803 182.678 Q958.424 182.678 956.479 185.363 Q954.558 188.025 954.558 192.724 Q954.558 197.423 956.479 200.108 Q958.424 202.77 961.803 202.77 Q965.183 202.77 967.104 200.108 Q969.048 197.423 969.048 192.724 Z" fill="#000000" fill-rule="nonzero" fill-opacity="1" /><path clip-path="url(#clip670)" d="M980.53 179.738 L984.789 179.738 L984.789 205.664 L980.53 205.664 L980.53 179.738 M980.53 169.645 L984.789 169.645 L984.789 175.039 L980.53 175.039 L980.53 169.645 Z" fill="#000000" fill-rule="nonzero" fill-opacity="1" /><path clip-path="url(#clip670)" d="M1015.88 191.636 L1015.88 193.719 L996.294 193.719 Q996.571 198.117 998.933 200.432 Q1001.32 202.724 1005.55 202.724 Q1008.01 202.724 1010.3 202.122 Q1012.61 201.52 1014.88 200.316 L1014.88 204.344 Q1012.59 205.316 1010.18 205.826 Q1007.78 206.335 1005.3 206.335 Q999.095 206.335 995.46 202.724 Q991.849 199.113 991.849 192.955 Q991.849 186.59 995.275 182.863 Q998.724 179.113 1004.56 179.113 Q1009.79 179.113 1012.82 182.492 Q1015.88 185.849 1015.88 191.636 M1011.62 190.386 Q1011.57 186.891 1009.65 184.807 Q1007.75 182.724 1004.6 182.724 Q1001.04 182.724 998.886 184.738 Q996.757 186.752 996.433 190.409 L1011.62 190.386 Z" fill="#000000" fill-rule="nonzero" fill-opacity="1" /><path clip-path="url(#clip670)" d="M1041.52 180.733 L1041.52 184.715 Q1039.72 183.719 1037.89 183.233 Q1036.09 182.724 1034.23 182.724 Q1030.09 182.724 1027.8 185.363 Q1025.51 187.979 1025.51 192.724 Q1025.51 197.469 1027.8 200.108 Q1030.09 202.724 1034.23 202.724 Q1036.09 202.724 1037.89 202.238 Q1039.72 201.728 1041.52 200.733 L1041.52 204.668 Q1039.74 205.502 1037.82 205.918 Q1035.92 206.335 1033.77 206.335 Q1027.91 206.335 1024.46 202.654 Q1021.02 198.974 1021.02 192.724 Q1021.02 186.381 1024.49 182.747 Q1027.98 179.113 1034.05 179.113 Q1036.02 179.113 1037.89 179.53 Q1039.77 179.923 1041.52 180.733 Z" fill="#000000" fill-rule="nonzero" fill-opacity="1" /><path clip-path="url(#clip670)" d="M1071.11 191.636 L1071.11 193.719 L1051.52 193.719 Q1051.8 198.117 1054.16 200.432 Q1056.55 202.724 1060.78 202.724 Q1063.24 202.724 1065.53 202.122 Q1067.84 201.52 1070.11 200.316 L1070.11 204.344 Q1067.82 205.316 1065.41 205.826 Q1063.01 206.335 1060.53 206.335 Q1054.33 206.335 1050.69 202.724 Q1047.08 199.113 1047.08 192.955 Q1047.08 186.59 1050.51 182.863 Q1053.96 179.113 1059.79 179.113 Q1065.02 179.113 1068.05 182.492 Q1071.11 185.849 1071.11 191.636 M1066.85 190.386 Q1066.8 186.891 1064.88 184.807 Q1062.98 182.724 1059.84 182.724 Q1056.27 182.724 1054.12 184.738 Q1051.99 186.752 1051.66 190.409 L1066.85 190.386 Z" fill="#000000" fill-rule="nonzero" fill-opacity="1" /><path clip-path="url(#clip670)" d="M1075.62 179.738 L1079.88 179.738 L1085.21 199.969 L1090.51 179.738 L1095.53 179.738 L1100.85 199.969 L1106.15 179.738 L1110.41 179.738 L1103.63 205.664 L1098.61 205.664 L1093.03 184.414 L1087.43 205.664 L1082.4 205.664 L1075.62 179.738 Z" fill="#000000" fill-rule="nonzero" fill-opacity="1" /><path clip-path="url(#clip670)" d="M1116.87 179.738 L1121.13 179.738 L1121.13 205.664 L1116.87 205.664 L1116.87 179.738 M1116.87 169.645 L1121.13 169.645 L1121.13 175.039 L1116.87 175.039 L1116.87 169.645 Z" fill="#000000" fill-rule="nonzero" fill-opacity="1" /><path clip-path="url(#clip670)" d="M1146.57 180.502 L1146.57 184.529 Q1144.77 183.604 1142.82 183.141 Q1140.88 182.678 1138.79 182.678 Q1135.62 182.678 1134.02 183.65 Q1132.45 184.622 1132.45 186.567 Q1132.45 188.048 1133.58 188.904 Q1134.72 189.738 1138.14 190.502 L1139.6 190.826 Q1144.14 191.798 1146.04 193.58 Q1147.96 195.34 1147.96 198.511 Q1147.96 202.122 1145.09 204.228 Q1142.24 206.335 1137.24 206.335 Q1135.16 206.335 1132.89 205.918 Q1130.64 205.525 1128.14 204.715 L1128.14 200.316 Q1130.51 201.543 1132.8 202.168 Q1135.09 202.77 1137.33 202.77 Q1140.34 202.77 1141.96 201.752 Q1143.58 200.71 1143.58 198.835 Q1143.58 197.099 1142.4 196.173 Q1141.25 195.247 1137.29 194.391 L1135.81 194.043 Q1131.85 193.21 1130.09 191.497 Q1128.33 189.761 1128.33 186.752 Q1128.33 183.094 1130.92 181.104 Q1133.52 179.113 1138.28 179.113 Q1140.64 179.113 1142.73 179.46 Q1144.81 179.807 1146.57 180.502 Z" fill="#000000" fill-rule="nonzero" fill-opacity="1" /><path clip-path="url(#clip670)" d="M1176.92 191.636 L1176.92 193.719 L1157.33 193.719 Q1157.61 198.117 1159.97 200.432 Q1162.36 202.724 1166.59 202.724 Q1169.05 202.724 1171.34 202.122 Q1173.65 201.52 1175.92 200.316 L1175.92 204.344 Q1173.63 205.316 1171.22 205.826 Q1168.82 206.335 1166.34 206.335 Q1160.14 206.335 1156.5 202.724 Q1152.89 199.113 1152.89 192.955 Q1152.89 186.59 1156.32 182.863 Q1159.77 179.113 1165.6 179.113 Q1170.83 179.113 1173.86 182.492 Q1176.92 185.849 1176.92 191.636 M1172.66 190.386 Q1172.61 186.891 1170.69 184.807 Q1168.79 182.724 1165.64 182.724 Q1162.08 182.724 1159.93 184.738 Q1157.8 186.752 1157.47 190.409 L1172.66 190.386 Z" fill="#000000" fill-rule="nonzero" fill-opacity="1" /><path clip-path="url(#clip670)" d="M1198.98 169.645 L1203.24 169.645 L1203.24 205.664 L1198.98 205.664 L1198.98 169.645 Z" fill="#000000" fill-rule="nonzero" fill-opacity="1" /><path clip-path="url(#clip670)" d="M1212.15 179.738 L1216.41 179.738 L1216.41 205.664 L1212.15 205.664 L1212.15 179.738 M1212.15 169.645 L1216.41 169.645 L1216.41 175.039 L1212.15 175.039 L1212.15 169.645 Z" fill="#000000" fill-rule="nonzero" fill-opacity="1" /><path clip-path="url(#clip670)" d="M1246.87 190.016 L1246.87 205.664 L1242.61 205.664 L1242.61 190.154 Q1242.61 186.474 1241.18 184.645 Q1239.74 182.817 1236.87 182.817 Q1233.42 182.817 1231.43 185.016 Q1229.44 187.215 1229.44 191.011 L1229.44 205.664 L1225.16 205.664 L1225.16 179.738 L1229.44 179.738 L1229.44 183.766 Q1230.97 181.428 1233.03 180.27 Q1235.11 179.113 1237.82 179.113 Q1242.29 179.113 1244.58 181.891 Q1246.87 184.645 1246.87 190.016 Z" fill="#000000" fill-rule="nonzero" fill-opacity="1" /><path clip-path="url(#clip670)" d="M1277.54 191.636 L1277.54 193.719 L1257.96 193.719 Q1258.24 198.117 1260.6 200.432 Q1262.98 202.724 1267.22 202.724 Q1269.67 202.724 1271.96 202.122 Q1274.28 201.52 1276.55 200.316 L1276.55 204.344 Q1274.26 205.316 1271.85 205.826 Q1269.44 206.335 1266.96 206.335 Q1260.76 206.335 1257.13 202.724 Q1253.51 199.113 1253.51 192.955 Q1253.51 186.59 1256.94 182.863 Q1260.39 179.113 1266.22 179.113 Q1271.45 179.113 1274.49 182.492 Q1277.54 185.849 1277.54 191.636 M1273.28 190.386 Q1273.24 186.891 1271.32 184.807 Q1269.42 182.724 1266.27 182.724 Q1262.7 182.724 1260.55 184.738 Q1258.42 186.752 1258.1 190.409 L1273.28 190.386 Z" fill="#000000" fill-rule="nonzero" fill-opacity="1" /><path clip-path="url(#clip670)" d="M1296.32 192.631 Q1291.15 192.631 1289.16 193.812 Q1287.17 194.992 1287.17 197.84 Q1287.17 200.108 1288.65 201.451 Q1290.16 202.77 1292.73 202.77 Q1296.27 202.77 1298.4 200.27 Q1300.55 197.747 1300.55 193.58 L1300.55 192.631 L1296.32 192.631 M1304.81 190.872 L1304.81 205.664 L1300.55 205.664 L1300.55 201.728 Q1299.09 204.09 1296.92 205.224 Q1294.74 206.335 1291.59 206.335 Q1287.61 206.335 1285.25 204.113 Q1282.91 201.867 1282.91 198.117 Q1282.91 193.742 1285.83 191.52 Q1288.77 189.298 1294.58 189.298 L1300.55 189.298 L1300.55 188.881 Q1300.55 185.942 1298.61 184.344 Q1296.69 182.724 1293.19 182.724 Q1290.97 182.724 1288.86 183.256 Q1286.76 183.789 1284.81 184.854 L1284.81 180.918 Q1287.15 180.016 1289.35 179.576 Q1291.55 179.113 1293.63 179.113 Q1299.26 179.113 1302.03 182.03 Q1304.81 184.946 1304.81 190.872 Z" fill="#000000" fill-rule="nonzero" fill-opacity="1" /><path clip-path="url(#clip670)" d="M1328.61 183.719 Q1327.89 183.303 1327.03 183.117 Q1326.2 182.909 1325.18 182.909 Q1321.57 182.909 1319.63 185.27 Q1317.7 187.608 1317.7 192.006 L1317.7 205.664 L1313.42 205.664 L1313.42 179.738 L1317.7 179.738 L1317.7 183.766 Q1319.05 181.405 1321.2 180.27 Q1323.35 179.113 1326.43 179.113 Q1326.87 179.113 1327.4 179.182 Q1327.94 179.229 1328.58 179.344 L1328.61 183.719 Z" fill="#000000" fill-rule="nonzero" fill-opacity="1" /></svg>
