<?xml version="1.0" encoding="utf-8"?>
<svg xmlns="http://www.w3.org/2000/svg" xmlns:xlink="http://www.w3.org/1999/xlink" width="500" height="320" viewBox="0 0 2000 1280">
<defs>
  <clipPath id="clip030">
    <rect x="0" y="0" width="2000" height="1280"/>
  </clipPath>
</defs>
<path clip-path="url(#clip030)" d="M0 1280 L2000 1280 L2000 -2.66454e-14 L0 -2.66454e-14  Z" fill="#ffffff" fill-rule="evenodd" fill-opacity="1"/>
<defs>
  <clipPath id="clip031">
    <rect x="245" y="107" width="1709" height="1005"/>
  </clipPath>
</defs>
<path clip-path="url(#clip030)" d="M245.244 1111.02 L1952.76 1111.02 L1952.76 107.256 L245.244 107.256  Z" fill="#ffffff" fill-rule="evenodd" fill-opacity="1"/>
<polyline clip-path="url(#clip031)" style="stroke:#000000; stroke-linecap:round; stroke-linejoin:round; stroke-width:2; stroke-opacity:0.1; fill:none" points="293.57,1111.02 293.57,107.256 "/>
<polyline clip-path="url(#clip031)" style="stroke:#000000; stroke-linecap:round; stroke-linejoin:round; stroke-width:2; stroke-opacity:0.1; fill:none" points="603.351,1111.02 603.351,107.256 "/>
<polyline clip-path="url(#clip031)" style="stroke:#000000; stroke-linecap:round; stroke-linejoin:round; stroke-width:2; stroke-opacity:0.1; fill:none" points="913.132,1111.02 913.132,107.256 "/>
<polyline clip-path="url(#clip031)" style="stroke:#000000; stroke-linecap:round; stroke-linejoin:round; stroke-width:2; stroke-opacity:0.1; fill:none" points="1222.91,1111.02 1222.91,107.256 "/>
<polyline clip-path="url(#clip031)" style="stroke:#000000; stroke-linecap:round; stroke-linejoin:round; stroke-width:2; stroke-opacity:0.1; fill:none" points="1532.69,1111.02 1532.69,107.256 "/>
<polyline clip-path="url(#clip031)" style="stroke:#000000; stroke-linecap:round; stroke-linejoin:round; stroke-width:2; stroke-opacity:0.1; fill:none" points="1842.47,1111.02 1842.47,107.256 "/>
<polyline clip-path="url(#clip031)" style="stroke:#000000; stroke-linecap:round; stroke-linejoin:round; stroke-width:2; stroke-opacity:0.1; fill:none" points="245.244,1081.84 1952.76,1081.84 "/>
<polyline clip-path="url(#clip031)" style="stroke:#000000; stroke-linecap:round; stroke-linejoin:round; stroke-width:2; stroke-opacity:0.1; fill:none" points="245.244,572.579 1952.76,572.579 "/>
<polyline clip-path="url(#clip030)" style="stroke:#000000; stroke-linecap:round; stroke-linejoin:round; stroke-width:4; stroke-opacity:1; fill:none" points="245.244,1111.02 1952.76,1111.02 "/>
<polyline clip-path="url(#clip030)" style="stroke:#000000; stroke-linecap:round; stroke-linejoin:round; stroke-width:4; stroke-opacity:1; fill:none" points="293.57,1111.02 293.57,1092.12 "/>
<polyline clip-path="url(#clip030)" style="stroke:#000000; stroke-linecap:round; stroke-linejoin:round; stroke-width:4; stroke-opacity:1; fill:none" points="603.351,1111.02 603.351,1092.12 "/>
<polyline clip-path="url(#clip030)" style="stroke:#000000; stroke-linecap:round; stroke-linejoin:round; stroke-width:4; stroke-opacity:1; fill:none" points="913.132,1111.02 913.132,1092.12 "/>
<polyline clip-path="url(#clip030)" style="stroke:#000000; stroke-linecap:round; stroke-linejoin:round; stroke-width:4; stroke-opacity:1; fill:none" points="1222.91,1111.02 1222.91,1092.12 "/>
<polyline clip-path="url(#clip030)" style="stroke:#000000; stroke-linecap:round; stroke-linejoin:round; stroke-width:4; stroke-opacity:1; fill:none" points="1532.69,1111.02 1532.69,1092.12 "/>
<polyline clip-path="url(#clip030)" style="stroke:#000000; stroke-linecap:round; stroke-linejoin:round; stroke-width:4; stroke-opacity:1; fill:none" points="1842.47,1111.02 1842.47,1092.12 "/>
<path clip-path="url(#clip030)" d="M293.57 1138.74 Q289.959 1138.74 288.13 1142.3 Q286.325 1145.84 286.325 1152.97 Q286.325 1160.08 288.13 1163.64 Q289.959 1167.19 293.57 1167.19 Q297.204 1167.19 299.01 1163.64 Q300.839 1160.08 300.839 1152.97 Q300.839 1145.84 299.01 1142.3 Q297.204 1138.74 293.57 1138.74 M293.57 1135.03 Q299.38 1135.03 302.436 1139.64 Q305.515 1144.22 305.515 1152.97 Q305.515 1161.7 302.436 1166.31 Q299.38 1170.89 293.57 1170.89 Q287.76 1170.89 284.681 1166.31 Q281.626 1161.7 281.626 1152.97 Q281.626 1144.22 284.681 1139.64 Q287.76 1135.03 293.57 1135.03 Z" fill="#000000" fill-rule="nonzero" fill-opacity="1" /><path clip-path="url(#clip030)" d="M578.05 1135.66 L596.407 1135.66 L596.407 1139.59 L582.333 1139.59 L582.333 1148.07 Q583.351 1147.72 584.37 1147.56 Q585.388 1147.37 586.407 1147.37 Q592.194 1147.37 595.573 1150.54 Q598.953 1153.71 598.953 1159.13 Q598.953 1164.71 595.481 1167.81 Q592.008 1170.89 585.689 1170.89 Q583.513 1170.89 581.245 1170.52 Q578.999 1170.15 576.592 1169.41 L576.592 1164.71 Q578.675 1165.84 580.897 1166.4 Q583.12 1166.95 585.596 1166.95 Q589.601 1166.95 591.939 1164.85 Q594.277 1162.74 594.277 1159.13 Q594.277 1155.52 591.939 1153.41 Q589.601 1151.31 585.596 1151.31 Q583.721 1151.31 581.846 1151.72 Q579.995 1152.14 578.05 1153.02 L578.05 1135.66 Z" fill="#000000" fill-rule="nonzero" fill-opacity="1" /><path clip-path="url(#clip030)" d="M618.166 1138.74 Q614.555 1138.74 612.726 1142.3 Q610.92 1145.84 610.92 1152.97 Q610.92 1160.08 612.726 1163.64 Q614.555 1167.19 618.166 1167.19 Q621.8 1167.19 623.605 1163.64 Q625.434 1160.08 625.434 1152.97 Q625.434 1145.84 623.605 1142.3 Q621.8 1138.74 618.166 1138.74 M618.166 1135.03 Q623.976 1135.03 627.031 1139.64 Q630.11 1144.22 630.11 1152.97 Q630.11 1161.7 627.031 1166.31 Q623.976 1170.89 618.166 1170.89 Q612.356 1170.89 609.277 1166.31 Q606.221 1161.7 606.221 1152.97 Q606.221 1144.22 609.277 1139.64 Q612.356 1135.03 618.166 1135.03 Z" fill="#000000" fill-rule="nonzero" fill-opacity="1" /><path clip-path="url(#clip030)" d="M872.738 1166.28 L880.377 1166.28 L880.377 1139.92 L872.067 1141.58 L872.067 1137.33 L880.331 1135.66 L885.007 1135.66 L885.007 1166.28 L892.646 1166.28 L892.646 1170.22 L872.738 1170.22 L872.738 1166.28 Z" fill="#000000" fill-rule="nonzero" fill-opacity="1" /><path clip-path="url(#clip030)" d="M912.09 1138.74 Q908.479 1138.74 906.65 1142.3 Q904.845 1145.84 904.845 1152.97 Q904.845 1160.08 906.65 1163.64 Q908.479 1167.19 912.09 1167.19 Q915.724 1167.19 917.53 1163.64 Q919.359 1160.08 919.359 1152.97 Q919.359 1145.84 917.53 1142.3 Q915.724 1138.74 912.09 1138.74 M912.09 1135.03 Q917.9 1135.03 920.956 1139.64 Q924.034 1144.22 924.034 1152.97 Q924.034 1161.7 920.956 1166.31 Q917.9 1170.89 912.09 1170.89 Q906.28 1170.89 903.201 1166.31 Q900.146 1161.7 900.146 1152.97 Q900.146 1144.22 903.201 1139.64 Q906.28 1135.03 912.09 1135.03 Z" fill="#000000" fill-rule="nonzero" fill-opacity="1" /><path clip-path="url(#clip030)" d="M942.252 1138.74 Q938.641 1138.74 936.812 1142.3 Q935.007 1145.84 935.007 1152.97 Q935.007 1160.08 936.812 1163.64 Q938.641 1167.19 942.252 1167.19 Q945.886 1167.19 947.692 1163.64 Q949.52 1160.08 949.52 1152.97 Q949.52 1145.84 947.692 1142.3 Q945.886 1138.74 942.252 1138.74 M942.252 1135.03 Q948.062 1135.03 951.118 1139.64 Q954.196 1144.22 954.196 1152.97 Q954.196 1161.7 951.118 1166.31 Q948.062 1170.89 942.252 1170.89 Q936.442 1170.89 933.363 1166.31 Q930.308 1161.7 930.308 1152.97 Q930.308 1144.22 933.363 1139.64 Q936.442 1135.03 942.252 1135.03 Z" fill="#000000" fill-rule="nonzero" fill-opacity="1" /><path clip-path="url(#clip030)" d="M1182.52 1166.28 L1190.16 1166.28 L1190.16 1139.92 L1181.85 1141.58 L1181.85 1137.33 L1190.11 1135.66 L1194.79 1135.66 L1194.79 1166.28 L1202.43 1166.28 L1202.43 1170.22 L1182.52 1170.22 L1182.52 1166.28 Z" fill="#000000" fill-rule="nonzero" fill-opacity="1" /><path clip-path="url(#clip030)" d="M1211.92 1135.66 L1230.27 1135.66 L1230.27 1139.59 L1216.2 1139.59 L1216.2 1148.07 Q1217.22 1147.72 1218.24 1147.56 Q1219.26 1147.37 1220.27 1147.37 Q1226.06 1147.37 1229.44 1150.54 Q1232.82 1153.71 1232.82 1159.13 Q1232.82 1164.71 1229.35 1167.81 Q1225.88 1170.89 1219.56 1170.89 Q1217.38 1170.89 1215.11 1170.52 Q1212.87 1170.15 1210.46 1169.41 L1210.46 1164.71 Q1212.54 1165.84 1214.76 1166.4 Q1216.99 1166.95 1219.46 1166.95 Q1223.47 1166.95 1225.81 1164.85 Q1228.14 1162.74 1228.14 1159.13 Q1228.14 1155.52 1225.81 1153.41 Q1223.47 1151.31 1219.46 1151.31 Q1217.59 1151.31 1215.71 1151.72 Q1213.86 1152.14 1211.92 1153.02 L1211.92 1135.66 Z" fill="#000000" fill-rule="nonzero" fill-opacity="1" /><path clip-path="url(#clip030)" d="M1252.03 1138.74 Q1248.42 1138.74 1246.59 1142.3 Q1244.79 1145.84 1244.79 1152.97 Q1244.79 1160.08 1246.59 1163.64 Q1248.42 1167.19 1252.03 1167.19 Q1255.67 1167.19 1257.47 1163.64 Q1259.3 1160.08 1259.3 1152.97 Q1259.3 1145.84 1257.47 1142.3 Q1255.67 1138.74 1252.03 1138.74 M1252.03 1135.03 Q1257.84 1135.03 1260.9 1139.64 Q1263.98 1144.22 1263.98 1152.97 Q1263.98 1161.7 1260.9 1166.31 Q1257.84 1170.89 1252.03 1170.89 Q1246.22 1170.89 1243.14 1166.31 Q1240.09 1161.7 1240.09 1152.97 Q1240.09 1144.22 1243.14 1139.64 Q1246.22 1135.03 1252.03 1135.03 Z" fill="#000000" fill-rule="nonzero" fill-opacity="1" /><path clip-path="url(#clip030)" d="M1496.39 1166.28 L1512.7 1166.28 L1512.7 1170.22 L1490.76 1170.22 L1490.76 1166.28 Q1493.42 1163.53 1498.01 1158.9 Q1502.61 1154.25 1503.79 1152.9 Q1506.04 1150.38 1506.92 1148.64 Q1507.82 1146.89 1507.82 1145.2 Q1507.82 1142.44 1505.88 1140.7 Q1503.95 1138.97 1500.85 1138.97 Q1498.65 1138.97 1496.2 1139.73 Q1493.77 1140.5 1490.99 1142.05 L1490.99 1137.33 Q1493.82 1136.19 1496.27 1135.61 Q1498.72 1135.03 1500.76 1135.03 Q1506.13 1135.03 1509.33 1137.72 Q1512.52 1140.4 1512.52 1144.89 Q1512.52 1147.02 1511.71 1148.95 Q1510.92 1150.84 1508.82 1153.44 Q1508.24 1154.11 1505.14 1157.33 Q1502.03 1160.52 1496.39 1166.28 Z" fill="#000000" fill-rule="nonzero" fill-opacity="1" /><path clip-path="url(#clip030)" d="M1532.52 1138.74 Q1528.91 1138.74 1527.08 1142.3 Q1525.27 1145.84 1525.27 1152.97 Q1525.27 1160.08 1527.08 1163.64 Q1528.91 1167.19 1532.52 1167.19 Q1536.15 1167.19 1537.96 1163.64 Q1539.79 1160.08 1539.79 1152.97 Q1539.79 1145.84 1537.96 1142.3 Q1536.15 1138.74 1532.52 1138.74 M1532.52 1135.03 Q1538.33 1135.03 1541.39 1139.64 Q1544.46 1144.22 1544.46 1152.97 Q1544.46 1161.7 1541.39 1166.31 Q1538.33 1170.89 1532.52 1170.89 Q1526.71 1170.89 1523.63 1166.31 Q1520.58 1161.7 1520.58 1152.97 Q1520.58 1144.22 1523.63 1139.64 Q1526.71 1135.03 1532.52 1135.03 Z" fill="#000000" fill-rule="nonzero" fill-opacity="1" /><path clip-path="url(#clip030)" d="M1562.68 1138.74 Q1559.07 1138.74 1557.24 1142.3 Q1555.44 1145.84 1555.44 1152.97 Q1555.44 1160.08 1557.24 1163.64 Q1559.07 1167.19 1562.68 1167.19 Q1566.32 1167.19 1568.12 1163.64 Q1569.95 1160.08 1569.95 1152.97 Q1569.95 1145.84 1568.12 1142.3 Q1566.32 1138.74 1562.68 1138.74 M1562.68 1135.03 Q1568.49 1135.03 1571.55 1139.64 Q1574.63 1144.22 1574.63 1152.97 Q1574.63 1161.7 1571.55 1166.31 Q1568.49 1170.89 1562.68 1170.89 Q1556.87 1170.89 1553.79 1166.31 Q1550.74 1161.7 1550.74 1152.97 Q1550.74 1144.22 1553.79 1139.64 Q1556.87 1135.03 1562.68 1135.03 Z" fill="#000000" fill-rule="nonzero" fill-opacity="1" /><path clip-path="url(#clip030)" d="M1806.17 1166.28 L1822.49 1166.28 L1822.49 1170.22 L1800.54 1170.22 L1800.54 1166.28 Q1803.2 1163.53 1807.79 1158.9 Q1812.39 1154.25 1813.57 1152.9 Q1815.82 1150.38 1816.7 1148.64 Q1817.6 1146.89 1817.6 1145.2 Q1817.6 1142.44 1815.66 1140.7 Q1813.74 1138.97 1810.63 1138.97 Q1808.43 1138.97 1805.98 1139.73 Q1803.55 1140.5 1800.77 1142.05 L1800.77 1137.33 Q1803.6 1136.19 1806.05 1135.61 Q1808.5 1135.03 1810.54 1135.03 Q1815.91 1135.03 1819.11 1137.72 Q1822.3 1140.4 1822.3 1144.89 Q1822.3 1147.02 1821.49 1148.95 Q1820.7 1150.84 1818.6 1153.44 Q1818.02 1154.11 1814.92 1157.33 Q1811.81 1160.52 1806.17 1166.28 Z" fill="#000000" fill-rule="nonzero" fill-opacity="1" /><path clip-path="url(#clip030)" d="M1832.35 1135.66 L1850.7 1135.66 L1850.7 1139.59 L1836.63 1139.59 L1836.63 1148.07 Q1837.65 1147.72 1838.67 1147.56 Q1839.68 1147.37 1840.7 1147.37 Q1846.49 1147.37 1849.87 1150.54 Q1853.25 1153.71 1853.25 1159.13 Q1853.25 1164.71 1849.78 1167.81 Q1846.3 1170.89 1839.99 1170.89 Q1837.81 1170.89 1835.54 1170.52 Q1833.3 1170.15 1830.89 1169.41 L1830.89 1164.71 Q1832.97 1165.84 1835.19 1166.4 Q1837.42 1166.95 1839.89 1166.95 Q1843.9 1166.95 1846.24 1164.85 Q1848.57 1162.74 1848.57 1159.13 Q1848.57 1155.52 1846.24 1153.41 Q1843.9 1151.31 1839.89 1151.31 Q1838.02 1151.31 1836.14 1151.72 Q1834.29 1152.14 1832.35 1153.02 L1832.35 1135.66 Z" fill="#000000" fill-rule="nonzero" fill-opacity="1" /><path clip-path="url(#clip030)" d="M1872.46 1138.74 Q1868.85 1138.74 1867.02 1142.3 Q1865.22 1145.84 1865.22 1152.97 Q1865.22 1160.08 1867.02 1163.64 Q1868.85 1167.19 1872.46 1167.19 Q1876.1 1167.19 1877.9 1163.64 Q1879.73 1160.08 1879.73 1152.97 Q1879.73 1145.84 1877.9 1142.3 Q1876.1 1138.74 1872.46 1138.74 M1872.46 1135.03 Q1878.27 1135.03 1881.33 1139.64 Q1884.41 1144.22 1884.41 1152.97 Q1884.41 1161.7 1881.33 1166.31 Q1878.27 1170.89 1872.46 1170.89 Q1866.65 1170.89 1863.57 1166.31 Q1860.52 1161.7 1860.52 1152.97 Q1860.52 1144.22 1863.57 1139.64 Q1866.65 1135.03 1872.46 1135.03 Z" fill="#000000" fill-rule="nonzero" fill-opacity="1" /><g clip-path="url(#clip030)">
<text style="fill:#000000; fill-opacity:1; font-family:Arial,Helvetica Neue,Helvetica,sans-serif; font-size:66px; text-anchor:middle;" transform="rotate(0, 1099, 1252.42)" x="1099" y="1252.42">Krylov dimension</text>
</g>
<polyline clip-path="url(#clip030)" style="stroke:#000000; stroke-linecap:round; stroke-linejoin:round; stroke-width:4; stroke-opacity:1; fill:none" points="245.244,1111.02 245.244,107.256 "/>
<polyline clip-path="url(#clip030)" style="stroke:#000000; stroke-linecap:round; stroke-linejoin:round; stroke-width:4; stroke-opacity:1; fill:none" points="245.244,1081.84 264.142,1081.84 "/>
<polyline clip-path="url(#clip030)" style="stroke:#000000; stroke-linecap:round; stroke-linejoin:round; stroke-width:4; stroke-opacity:1; fill:none" points="245.244,572.579 264.142,572.579 "/>
<path clip-path="url(#clip030)" d="M113.675 1101.63 L121.314 1101.63 L121.314 1075.27 L113.004 1076.93 L113.004 1072.67 L121.268 1071.01 L125.944 1071.01 L125.944 1101.63 L133.583 1101.63 L133.583 1105.57 L113.675 1105.57 L113.675 1101.63 Z" fill="#000000" fill-rule="nonzero" fill-opacity="1" /><path clip-path="url(#clip030)" d="M153.027 1074.09 Q149.416 1074.09 147.587 1077.65 Q145.782 1081.19 145.782 1088.32 Q145.782 1095.43 147.587 1098.99 Q149.416 1102.54 153.027 1102.54 Q156.661 1102.54 158.467 1098.99 Q160.295 1095.43 160.295 1088.32 Q160.295 1081.19 158.467 1077.65 Q156.661 1074.09 153.027 1074.09 M153.027 1070.38 Q158.837 1070.38 161.893 1074.99 Q164.971 1079.57 164.971 1088.32 Q164.971 1097.05 161.893 1101.66 Q158.837 1106.24 153.027 1106.24 Q147.217 1106.24 144.138 1101.66 Q141.082 1097.05 141.082 1088.32 Q141.082 1079.57 144.138 1074.99 Q147.217 1070.38 153.027 1070.38 Z" fill="#000000" fill-rule="nonzero" fill-opacity="1" /><path clip-path="url(#clip030)" d="M164.971 1064.48 L189.083 1064.48 L189.083 1067.68 L164.971 1067.68 L164.971 1064.48 Z" fill="#000000" fill-rule="nonzero" fill-opacity="1" /><path clip-path="url(#clip030)" d="M205.878 1062.6 Q203.32 1062.6 201.816 1064.35 Q200.33 1066.1 200.33 1069.15 Q200.33 1072.18 201.816 1073.94 Q203.32 1075.69 205.878 1075.69 Q208.436 1075.69 209.922 1073.94 Q211.426 1072.18 211.426 1069.15 Q211.426 1066.1 209.922 1064.35 Q208.436 1062.6 205.878 1062.6 M213.42 1050.7 L213.42 1054.16 Q211.991 1053.48 210.524 1053.12 Q209.075 1052.77 207.646 1052.77 Q203.885 1052.77 201.891 1055.31 Q199.916 1057.84 199.634 1062.98 Q200.744 1061.34 202.417 1060.48 Q204.091 1059.59 206.104 1059.59 Q210.336 1059.59 212.781 1062.17 Q215.244 1064.73 215.244 1069.15 Q215.244 1073.47 212.687 1076.09 Q210.129 1078.7 205.878 1078.7 Q201.007 1078.7 198.43 1074.98 Q195.854 1071.24 195.854 1064.15 Q195.854 1057.49 199.013 1053.54 Q202.173 1049.57 207.496 1049.57 Q208.925 1049.57 210.373 1049.85 Q211.84 1050.13 213.42 1050.7 Z" fill="#000000" fill-rule="nonzero" fill-opacity="1" /><path clip-path="url(#clip030)" d="M114.333 592.372 L121.972 592.372 L121.972 566.006 L113.662 567.673 L113.662 563.413 L121.926 561.747 L126.602 561.747 L126.602 592.372 L134.241 592.372 L134.241 596.307 L114.333 596.307 L114.333 592.372 Z" fill="#000000" fill-rule="nonzero" fill-opacity="1" /><path clip-path="url(#clip030)" d="M153.685 564.825 Q150.074 564.825 148.245 568.39 Q146.44 571.932 146.44 579.061 Q146.44 586.168 148.245 589.733 Q150.074 593.274 153.685 593.274 Q157.319 593.274 159.125 589.733 Q160.954 586.168 160.954 579.061 Q160.954 571.932 159.125 568.39 Q157.319 564.825 153.685 564.825 M153.685 561.122 Q159.495 561.122 162.551 565.728 Q165.629 570.311 165.629 579.061 Q165.629 587.788 162.551 592.395 Q159.495 596.978 153.685 596.978 Q147.875 596.978 144.796 592.395 Q141.741 587.788 141.741 579.061 Q141.741 570.311 144.796 565.728 Q147.875 561.122 153.685 561.122 Z" fill="#000000" fill-rule="nonzero" fill-opacity="1" /><path clip-path="url(#clip030)" d="M165.629 555.223 L189.741 555.223 L189.741 558.42 L165.629 558.42 L165.629 555.223 Z" fill="#000000" fill-rule="nonzero" fill-opacity="1" /><path clip-path="url(#clip030)" d="M209.452 553.756 Q212.179 554.339 213.702 556.182 Q215.244 558.025 215.244 560.734 Q215.244 564.89 212.386 567.166 Q209.527 569.442 204.261 569.442 Q202.493 569.442 200.612 569.084 Q198.75 568.746 196.756 568.05 L196.756 564.382 Q198.336 565.304 200.217 565.774 Q202.098 566.244 204.148 566.244 Q207.721 566.244 209.583 564.834 Q211.464 563.423 211.464 560.734 Q211.464 558.251 209.715 556.859 Q207.985 555.449 204.881 555.449 L201.609 555.449 L201.609 552.327 L205.032 552.327 Q207.834 552.327 209.32 551.217 Q210.806 550.089 210.806 547.982 Q210.806 545.819 209.264 544.672 Q207.74 543.506 204.881 543.506 Q203.32 543.506 201.534 543.844 Q199.747 544.183 197.603 544.898 L197.603 541.512 Q199.766 540.91 201.646 540.609 Q203.546 540.309 205.22 540.309 Q209.546 540.309 212.066 542.283 Q214.586 544.239 214.586 547.587 Q214.586 549.919 213.251 551.537 Q211.915 553.135 209.452 553.756 Z" fill="#000000" fill-rule="nonzero" fill-opacity="1" /><g clip-path="url(#clip030)">
<text style="fill:#000000; fill-opacity:1; font-family:Arial,Helvetica Neue,Helvetica,sans-serif; font-size:66px; text-anchor:middle;" transform="rotate(-90, 71.4418, 609.137)" x="71.4418" y="609.137">relative residual norm</text>
</g>
<g clip-path="url(#clip030)">
<text style="fill:#000000; fill-opacity:1; font-family:Arial,Helvetica Neue,Helvetica,sans-serif; font-size:66px; text-anchor:middle;" transform="rotate(0, 1099, 57.6)" x="1099" y="57.6">Convergence of MINRES and CG</text>
</g>
<polyline clip-path="url(#clip031)" style="stroke:#009af9; stroke-linecap:round; stroke-linejoin:round; stroke-width:8; stroke-opacity:1; fill:none" points="293.57,140.51 299.766,188.634 305.961,222.034 312.157,248.863 318.353,270.841 324.548,289.392 330.744,305.731 336.939,320.067 343.135,333.058 349.331,345.093 355.526,356.595 361.722,366.516 367.918,375.781 374.113,384.432 380.309,392.873 386.504,400.452 392.7,407.837 398.896,414.845 405.091,421.825 411.287,428.145 417.482,434.207 423.678,439.737 429.874,445.219 436.069,450.557 442.265,455.703 448.461,460.816 454.656,465.743 460.852,470.372 467.047,475.016 473.243,479.357 479.439,483.654 485.634,487.605 491.83,491.691 498.025,495.6 504.221,499.688 510.417,503.436 516.612,507.14 522.808,510.709 529.004,514.244 535.199,517.898 541.395,521.389 547.59,524.904 553.786,528.351 559.982,531.785 566.177,535.19 572.373,538.421 578.568,541.702 584.764,544.921 590.96,548.155 597.155,551.35 603.351,554.579 609.547,557.797 615.742,560.904 621.938,564.054 628.133,567.151 634.329,570.151 640.525,573.322 646.72,576.277 652.916,579.302 659.111,582.453 665.307,585.505 671.503,588.506 677.698,591.654 683.894,594.591 690.09,597.593 696.285,600.429 702.481,603.309 708.676,606.262 714.872,609.05 721.068,612.001 727.263,614.871 733.459,617.796 739.654,620.569 745.85,623.369 752.046,626.289 758.241,629.316 764.437,632.194 770.633,635.068 776.828,637.937 783.024,640.792 789.219,643.644 795.415,646.529 801.611,649.336 807.806,652.296 814.002,655.498 820.197,658.409 826.393,661.364 832.589,664.327 838.784,667.174 844.98,670.118 851.176,672.943 857.371,675.655 863.567,678.517 869.762,681.371 875.958,684.205 882.154,687.03 888.349,689.87 894.545,692.76 900.74,695.597 906.936,698.538 913.132,701.309 919.327,704.115 925.523,707 931.719,709.85 937.914,712.815 944.11,715.624 950.305,718.469 956.501,721.236 962.697,724.253 968.892,727.268 975.088,730.146 981.283,733.058 987.479,736 993.675,739.087 999.87,741.979 1006.07,744.988 1012.26,747.786 1018.46,750.772 1024.65,753.829 1030.85,756.842 1037.04,759.754 1043.24,762.682 1049.44,765.431 1055.63,768.387 1061.83,771.413 1068.02,774.33 1074.22,777.235 1080.41,780.09 1086.61,783.158 1092.8,786.065 1099,789.129 1105.2,791.971 1111.39,794.837 1117.59,797.811 1123.78,800.862 1129.98,803.685 1136.17,806.644 1142.37,809.543 1148.57,812.52 1154.76,815.579 1160.96,818.46 1167.15,821.371 1173.35,824.341 1179.54,827.21 1185.74,830.119 1191.93,833.116 1198.13,836.075 1204.33,839.065 1210.52,842.027 1216.72,844.722 1222.91,847.518 1229.11,850.444 1235.3,853.438 1241.5,856.364 1247.69,859.234 1253.89,862.254 1260.09,865.284 1266.28,868.202 1272.48,871.225 1278.67,874.208 1284.87,877.204 1291.06,880.301 1297.26,883.258 1303.46,886.163 1309.65,889.137 1315.85,892.224 1322.04,895.157 1328.24,897.944 1334.43,900.873 1340.63,903.882 1346.82,906.544 1353.02,909.457 1359.22,912.363 1365.41,915.431 1371.61,918.326 1377.8,921.486 1384,924.474 1390.19,927.472 1396.39,930.383 1402.59,933.334 1408.78,936.368 1414.98,939.257 1421.17,942.114 1427.37,945.217 1433.56,947.912 1439.76,950.972 1445.95,953.87 1452.15,957.075 1458.35,960.015 1464.54,962.988 1470.74,966.031 1476.93,968.883 1483.13,971.844 1489.32,974.715 1495.52,977.766 1501.72,980.762 1507.91,983.882 1514.11,986.74 1520.3,989.898 1526.5,992.908 1532.69,995.779 1538.89,998.829 1545.08,1001.84 1551.28,1004.87 1557.48,1007.75 1563.67,1010.71 1569.87,1013.79 1576.06,1016.74 1582.26,1019.77 1588.45,1022.81 1594.65,1025.73 1600.84,1028.72 1607.04,1031.69 1613.24,1034.69 1619.43,1037.51 1625.63,1040.3 1631.82,1043.16 1638.02,1046.14 1644.21,1049.14 1650.41,1052.15 1656.61,1055.37 1662.8,1058.32 1669,1061.41 1675.19,1064.63 1681.39,1067.54 1687.58,1070.6 1693.78,1073.66 1699.97,1076.56 1706.17,1079.67 1712.37,1082.61 "/>
<polyline clip-path="url(#clip031)" style="stroke:#e26f46; stroke-linecap:round; stroke-linejoin:round; stroke-width:8; stroke-opacity:1; fill:none" points="293.57,135.664 299.766,176.982 305.961,202.952 312.157,224.547 318.353,241.335 324.548,255.194 330.744,267.872 336.939,278.318 343.135,288.311 349.331,297.979 355.526,308.063 361.722,313.285 367.918,320.342 374.113,326.76 380.309,334.398 386.504,338.421 392.7,344.943 398.896,350.201 405.091,357.047 411.287,360.028 417.482,364.679 423.678,367.079 429.874,372.263 436.069,376.695 442.265,380.583 448.461,385.474 454.656,389.126 460.852,391.594 467.047,396.359 473.243,398.356 479.439,402.3 485.634,403.336 491.83,408.586 498.025,410.949 504.221,416.599 510.417,417.314 516.612,420.607 522.808,422.867 529.004,426.072 535.199,430.882 541.395,432.785 547.59,436.528 553.786,439.285 559.982,442.6 566.177,445.695 572.373,447.081 578.568,450.911 584.764,453.446 590.96,456.856 597.155,459.614 603.351,463.216 609.547,466.317 615.742,468.188 621.938,471.812 628.133,474.323 634.329,476.184 640.525,481.33 646.72,481.776 652.916,485.639 659.111,490.229 665.307,492.152 671.503,494.559 677.698,499.395 683.894,499.89 690.09,503.655 696.285,504.473 702.481,507.903 708.676,511.745 714.872,512.494 721.068,517.464 727.263,519.337 733.459,522.948 739.654,523.823 745.85,526.961 752.046,531.374 758.241,535.677 764.437,536.757 770.633,539.599 776.828,542.385 783.024,545.08 789.219,547.89 795.415,551.194 801.611,553.016 807.806,557.866 814.002,563.841 820.197,563.384 826.393,566.87 832.589,569.929 838.784,571.366 844.98,575.488 851.176,576.85 857.371,578.116 863.567,582.889 869.762,585.65 875.958,588.223 882.154,590.945 888.349,593.97 894.545,597.482 900.74,599.652 906.936,603.883 913.132,604.53 919.327,607.785 925.523,611.66 931.719,614.079 937.914,618.438 944.11,619.333 950.305,622.633 956.501,624.417 962.697,630.484 968.892,633.493 975.088,634.712 981.283,638.049 987.479,641.345 993.675,646.139 999.87,646.719 1006.07,651.134 1012.26,651.358 1018.46,656.648 1024.65,660.533 1030.85,663.045 1037.04,664.737 1043.24,667.863 1049.44,668.373 1055.63,673.905 1061.83,677.763 1068.02,679.378 1074.22,682.136 1080.41,684.377 1086.61,689.991 1092.8,690.996 1099,695.914 1105.2,696.09 1111.39,699.265 1117.59,703.539 1123.78,707.499 1129.98,707.579 1136.17,712.193 1142.37,714.378 1148.57,718.282 1154.76,722.304 1160.96,723.075 1167.15,726.339 1173.35,730.036 1179.54,731.658 1185.74,735.08 1191.93,739.123 1198.13,741.629 1204.33,744.985 1210.52,747.618 1216.72,746.953 1222.91,751.063 1229.11,755.602 1235.3,759.404 1241.5,761.53 1247.69,763.699 1253.89,768.535 1260.09,771.676 1266.28,773.266 1272.48,777.535 1278.67,780.05 1284.87,783.193 1291.06,787.467 1297.26,788.794 1303.46,791.062 1309.65,794.862 1315.85,799.276 1322.04,800.401 1328.24,801.371 1334.43,806.069 1340.63,810.025 1346.82,808.358 1353.02,814.456 1359.22,817.272 1365.41,822.27 1371.61,823.094 1377.8,829.37 1384,830.367 1390.19,833.493 1396.39,835.357 1402.59,838.798 1408.78,842.798 1414.98,843.972 1421.17,846.421 1427.37,852.454 1433.56,850.149 1439.76,857.711 1445.95,858.689 1452.15,865.452 1458.35,865.339 1464.54,868.712 1470.74,872.568 1476.93,873.133 1483.13,877.427 1489.32,879.199 1495.52,884.401 1501.72,886.753 1507.91,891.303 1514.11,891.064 1520.3,897.744 1526.5,899.056 1532.69,900.201 1538.89,905.414 1545.08,907.88 1551.28,911.174 1557.48,912.123 1563.67,915.971 1569.87,920.499 1576.06,921.79 1582.26,925.489 1588.45,928.664 1594.65,930.013 1600.84,932.944 1607.04,936.209 1613.24,940.334 1619.43,942.493 1625.63,944.542 1631.82,948.574 1638.02,952.55 1644.21,955.526 1650.41,958.505 1656.61,963.995 1662.8,963.762 1669,968.499 1675.19,973.18 1681.39,972.541 1687.58,977.296 1693.78,980.46 1699.97,981.374 1706.17,987.01 1712.37,987.881 1718.56,991.249 1724.76,994.468 1730.95,995.914 1737.15,999.506 1743.34,1001.31 1749.54,1005.92 1755.74,1008.59 1761.93,1011.49 1768.13,1011.15 1774.32,1016.01 1780.52,1018.61 1786.71,1022.91 1792.91,1028.16 1799.1,1029.62 1805.3,1031.39 1811.5,1034.26 1817.69,1039.43 1823.89,1040.53 1830.08,1043.05 1836.28,1048.87 1842.47,1050.58 1848.67,1053.54 1854.87,1055.58 1861.06,1059.62 1867.26,1061.63 1873.45,1064.25 1879.65,1068.03 1885.84,1072.19 1892.04,1072.55 1898.23,1077.85 1904.43,1082.3 "/>
<path clip-path="url(#clip030)" d="M1570 296.235 L1895.84 296.235 L1895.84 140.715 L1570 140.715  Z" fill="#ffffff" fill-rule="evenodd" fill-opacity="1"/>
<polyline clip-path="url(#clip030)" style="stroke:#000000; stroke-linecap:round; stroke-linejoin:round; stroke-width:4; stroke-opacity:1; fill:none" points="1570,296.235 1895.84,296.235 1895.84,140.715 1570,140.715 1570,296.235 "/>
<polyline clip-path="url(#clip030)" style="stroke:#009af9; stroke-linecap:round; stroke-linejoin:round; stroke-width:8; stroke-opacity:1; fill:none" points="1588.97,192.555 1702.8,192.555 "/>
<path clip-path="url(#clip030)" d="M1742.12 188.886 Q1743.72 186.015 1745.94 184.65 Q1748.16 183.284 1751.17 183.284 Q1755.22 183.284 1757.42 186.131 Q1759.62 188.955 1759.62 194.187 L1759.62 209.835 L1755.34 209.835 L1755.34 194.325 Q1755.34 190.599 1754.02 188.793 Q1752.7 186.988 1749.99 186.988 Q1746.68 186.988 1744.76 189.187 Q1742.84 191.386 1742.84 195.182 L1742.84 209.835 L1738.56 209.835 L1738.56 194.325 Q1738.56 190.575 1737.24 188.793 Q1735.92 186.988 1733.16 186.988 Q1729.9 186.988 1727.98 189.21 Q1726.06 191.409 1726.06 195.182 L1726.06 209.835 L1721.77 209.835 L1721.77 183.909 L1726.06 183.909 L1726.06 187.937 Q1727.52 185.552 1729.55 184.418 Q1731.59 183.284 1734.39 183.284 Q1737.21 183.284 1739.18 184.719 Q1741.17 186.154 1742.12 188.886 Z" fill="#000000" fill-rule="nonzero" fill-opacity="1" /><path clip-path="url(#clip030)" d="M1768.12 183.909 L1772.38 183.909 L1772.38 209.835 L1768.12 209.835 L1768.12 183.909 M1768.12 173.816 L1772.38 173.816 L1772.38 179.21 L1768.12 179.21 L1768.12 173.816 Z" fill="#000000" fill-rule="nonzero" fill-opacity="1" /><path clip-path="url(#clip030)" d="M1802.84 194.187 L1802.84 209.835 L1798.58 209.835 L1798.58 194.325 Q1798.58 190.645 1797.14 188.816 Q1795.71 186.988 1792.84 186.988 Q1789.39 186.988 1787.4 189.187 Q1785.41 191.386 1785.41 195.182 L1785.41 209.835 L1781.13 209.835 L1781.13 183.909 L1785.41 183.909 L1785.41 187.937 Q1786.94 185.599 1789 184.441 Q1791.08 183.284 1793.79 183.284 Q1798.26 183.284 1800.55 186.062 Q1802.84 188.816 1802.84 194.187 Z" fill="#000000" fill-rule="nonzero" fill-opacity="1" /><path clip-path="url(#clip030)" d="M1826.36 187.89 Q1825.64 187.474 1824.78 187.288 Q1823.95 187.08 1822.93 187.08 Q1819.32 187.08 1817.38 189.441 Q1815.45 191.779 1815.45 196.177 L1815.45 209.835 L1811.17 209.835 L1811.17 183.909 L1815.45 183.909 L1815.45 187.937 Q1816.8 185.576 1818.95 184.441 Q1821.1 183.284 1824.18 183.284 Q1824.62 183.284 1825.15 183.353 Q1825.69 183.4 1826.33 183.515 L1826.36 187.89 Z" fill="#000000" fill-rule="nonzero" fill-opacity="1" /><path clip-path="url(#clip030)" d="M1851.96 195.807 L1851.96 197.89 L1832.38 197.89 Q1832.65 202.288 1835.01 204.603 Q1837.4 206.895 1841.64 206.895 Q1844.09 206.895 1846.38 206.293 Q1848.7 205.691 1850.96 204.487 L1850.96 208.515 Q1848.67 209.487 1846.26 209.997 Q1843.86 210.506 1841.38 210.506 Q1835.18 210.506 1831.54 206.895 Q1827.93 203.284 1827.93 197.126 Q1827.93 190.761 1831.36 187.034 Q1834.81 183.284 1840.64 183.284 Q1845.87 183.284 1848.9 186.663 Q1851.96 190.02 1851.96 195.807 M1847.7 194.557 Q1847.65 191.062 1845.73 188.978 Q1843.83 186.895 1840.69 186.895 Q1837.12 186.895 1834.97 188.909 Q1832.84 190.923 1832.51 194.58 L1847.7 194.557 Z" fill="#000000" fill-rule="nonzero" fill-opacity="1" /><path clip-path="url(#clip030)" d="M1875.48 184.673 L1875.48 188.7 Q1873.67 187.775 1871.73 187.312 Q1869.78 186.849 1867.7 186.849 Q1864.53 186.849 1862.93 187.821 Q1861.36 188.793 1861.36 190.738 Q1861.36 192.219 1862.49 193.075 Q1863.63 193.909 1867.05 194.673 L1868.51 194.997 Q1873.05 195.969 1874.95 197.751 Q1876.87 199.511 1876.87 202.682 Q1876.87 206.293 1874 208.399 Q1871.15 210.506 1866.15 210.506 Q1864.07 210.506 1861.8 210.089 Q1859.55 209.696 1857.05 208.886 L1857.05 204.487 Q1859.41 205.714 1861.7 206.339 Q1864 206.941 1866.24 206.941 Q1869.25 206.941 1870.87 205.923 Q1872.49 204.881 1872.49 203.006 Q1872.49 201.27 1871.31 200.344 Q1870.15 199.418 1866.2 198.562 L1864.71 198.214 Q1860.76 197.381 1859 195.668 Q1857.24 193.932 1857.24 190.923 Q1857.24 187.265 1859.83 185.275 Q1862.42 183.284 1867.19 183.284 Q1869.55 183.284 1871.64 183.631 Q1873.72 183.978 1875.48 184.673 Z" fill="#000000" fill-rule="nonzero" fill-opacity="1" /><polyline clip-path="url(#clip030)" style="stroke:#e26f46; stroke-linecap:round; stroke-linejoin:round; stroke-width:8; stroke-opacity:1; fill:none" points="1588.97,244.395 1702.8,244.395 "/>
<path clip-path="url(#clip030)" d="M1742.28 236.744 L1742.28 240.726 Q1740.48 239.73 1738.65 239.244 Q1736.84 238.735 1734.99 238.735 Q1730.85 238.735 1728.56 241.374 Q1726.27 243.99 1726.27 248.735 Q1726.27 253.48 1728.56 256.119 Q1730.85 258.735 1734.99 258.735 Q1736.84 258.735 1738.65 258.249 Q1740.48 257.739 1742.28 256.744 L1742.28 260.679 Q1740.5 261.513 1738.58 261.929 Q1736.68 262.346 1734.53 262.346 Q1728.67 262.346 1725.22 258.665 Q1721.77 254.985 1721.77 248.735 Q1721.77 242.392 1725.25 238.758 Q1728.74 235.124 1734.81 235.124 Q1736.77 235.124 1738.65 235.541 Q1740.52 235.934 1742.28 236.744 Z" fill="#000000" fill-rule="nonzero" fill-opacity="1" /><path clip-path="url(#clip030)" d="M1766.75 248.411 Q1766.75 243.781 1764.83 241.235 Q1762.93 238.689 1759.48 238.689 Q1756.06 238.689 1754.14 241.235 Q1752.24 243.781 1752.24 248.411 Q1752.24 253.017 1754.14 255.564 Q1756.06 258.11 1759.48 258.11 Q1762.93 258.11 1764.83 255.564 Q1766.75 253.017 1766.75 248.411 M1771.01 258.457 Q1771.01 265.077 1768.07 268.295 Q1765.13 271.536 1759.07 271.536 Q1756.82 271.536 1754.83 271.188 Q1752.84 270.864 1750.96 270.17 L1750.96 266.026 Q1752.84 267.045 1754.67 267.531 Q1756.5 268.017 1758.39 268.017 Q1762.58 268.017 1764.67 265.818 Q1766.75 263.642 1766.75 259.221 L1766.75 257.114 Q1765.43 259.406 1763.37 260.54 Q1761.31 261.675 1758.44 261.675 Q1753.67 261.675 1750.76 258.04 Q1747.84 254.406 1747.84 248.411 Q1747.84 242.392 1750.76 238.758 Q1753.67 235.124 1758.44 235.124 Q1761.31 235.124 1763.37 236.258 Q1765.43 237.392 1766.75 239.684 L1766.75 235.749 L1771.01 235.749 L1771.01 258.457 Z" fill="#000000" fill-rule="nonzero" fill-opacity="1" /></svg>
