<?xml version="1.0" encoding="utf-8"?>
<svg xmlns="http://www.w3.org/2000/svg" xmlns:xlink="http://www.w3.org/1999/xlink" width="500" height="320" viewBox="0 0 2000 1280">
<defs>
  <clipPath id="clip120">
    <rect x="0" y="0" width="2000" height="1280"/>
  </clipPath>
</defs>
<path clip-path="url(#clip120)" d="M0 1280 L2000 1280 L2000 0 L0 0  Z" fill="#ffffff" fill-rule="evenodd" fill-opacity="1"/>
<defs>
  <clipPath id="clip121">
    <rect x="400" y="0" width="1401" height="1280"/>
  </clipPath>
</defs>
<path clip-path="url(#clip120)" d="M255.295 1111.02 L1952.76 1111.02 L1952.76 107.256 L255.295 107.256  Z" fill="#ffffff" fill-rule="evenodd" fill-opacity="1"/>
<defs>
  <clipPath id="clip122">
    <rect x="255" y="107" width="1698" height="1005"/>
  </clipPath>
</defs>
<polyline clip-path="url(#clip122)" style="stroke:#000000; stroke-linecap:round; stroke-linejoin:round; stroke-width:2; stroke-opacity:0.1; fill:none" points="303.336,1111.02 303.336,107.256 "/>
<polyline clip-path="url(#clip122)" style="stroke:#000000; stroke-linecap:round; stroke-linejoin:round; stroke-width:2; stroke-opacity:0.1; fill:none" points="760.873,1111.02 760.873,107.256 "/>
<polyline clip-path="url(#clip122)" style="stroke:#000000; stroke-linecap:round; stroke-linejoin:round; stroke-width:2; stroke-opacity:0.1; fill:none" points="1218.41,1111.02 1218.41,107.256 "/>
<polyline clip-path="url(#clip122)" style="stroke:#000000; stroke-linecap:round; stroke-linejoin:round; stroke-width:2; stroke-opacity:0.1; fill:none" points="1675.95,1111.02 1675.95,107.256 "/>
<polyline clip-path="url(#clip122)" style="stroke:#000000; stroke-linecap:round; stroke-linejoin:round; stroke-width:2; stroke-opacity:0.1; fill:none" points="255.295,995.9 1952.76,995.9 "/>
<polyline clip-path="url(#clip122)" style="stroke:#000000; stroke-linecap:round; stroke-linejoin:round; stroke-width:2; stroke-opacity:0.1; fill:none" points="255.295,766.271 1952.76,766.271 "/>
<polyline clip-path="url(#clip122)" style="stroke:#000000; stroke-linecap:round; stroke-linejoin:round; stroke-width:2; stroke-opacity:0.1; fill:none" points="255.295,536.642 1952.76,536.642 "/>
<polyline clip-path="url(#clip122)" style="stroke:#000000; stroke-linecap:round; stroke-linejoin:round; stroke-width:2; stroke-opacity:0.1; fill:none" points="255.295,307.013 1952.76,307.013 "/>
<polyline clip-path="url(#clip120)" style="stroke:#000000; stroke-linecap:round; stroke-linejoin:round; stroke-width:4; stroke-opacity:1; fill:none" points="255.295,1111.02 1952.76,1111.02 "/>
<polyline clip-path="url(#clip120)" style="stroke:#000000; stroke-linecap:round; stroke-linejoin:round; stroke-width:4; stroke-opacity:1; fill:none" points="303.336,1111.02 303.336,1092.12 "/>
<polyline clip-path="url(#clip120)" style="stroke:#000000; stroke-linecap:round; stroke-linejoin:round; stroke-width:4; stroke-opacity:1; fill:none" points="760.873,1111.02 760.873,1092.12 "/>
<polyline clip-path="url(#clip120)" style="stroke:#000000; stroke-linecap:round; stroke-linejoin:round; stroke-width:4; stroke-opacity:1; fill:none" points="1218.41,1111.02 1218.41,1092.12 "/>
<polyline clip-path="url(#clip120)" style="stroke:#000000; stroke-linecap:round; stroke-linejoin:round; stroke-width:4; stroke-opacity:1; fill:none" points="1675.95,1111.02 1675.95,1092.12 "/>
<path clip-path="url(#clip120)" d="M303.336 1138.74 Q299.725 1138.74 297.897 1142.3 Q296.091 1145.84 296.091 1152.97 Q296.091 1160.08 297.897 1163.64 Q299.725 1167.19 303.336 1167.19 Q306.971 1167.19 308.776 1163.64 Q310.605 1160.08 310.605 1152.97 Q310.605 1145.84 308.776 1142.3 Q306.971 1138.74 303.336 1138.74 M303.336 1135.03 Q309.146 1135.03 312.202 1139.64 Q315.281 1144.22 315.281 1152.97 Q315.281 1161.7 312.202 1166.31 Q309.146 1170.89 303.336 1170.89 Q297.526 1170.89 294.447 1166.31 Q291.392 1161.7 291.392 1152.97 Q291.392 1144.22 294.447 1139.64 Q297.526 1135.03 303.336 1135.03 Z" fill="#000000" fill-rule="nonzero" fill-opacity="1" /><path clip-path="url(#clip120)" d="M735.561 1166.28 L743.199 1166.28 L743.199 1139.92 L734.889 1141.58 L734.889 1137.33 L743.153 1135.66 L747.829 1135.66 L747.829 1166.28 L755.468 1166.28 L755.468 1170.22 L735.561 1170.22 L735.561 1166.28 Z" fill="#000000" fill-rule="nonzero" fill-opacity="1" /><path clip-path="url(#clip120)" d="M774.912 1138.74 Q771.301 1138.74 769.472 1142.3 Q767.667 1145.84 767.667 1152.97 Q767.667 1160.08 769.472 1163.64 Q771.301 1167.19 774.912 1167.19 Q778.546 1167.19 780.352 1163.64 Q782.181 1160.08 782.181 1152.97 Q782.181 1145.84 780.352 1142.3 Q778.546 1138.74 774.912 1138.74 M774.912 1135.03 Q780.722 1135.03 783.778 1139.64 Q786.857 1144.22 786.857 1152.97 Q786.857 1161.7 783.778 1166.31 Q780.722 1170.89 774.912 1170.89 Q769.102 1170.89 766.023 1166.31 Q762.968 1161.7 762.968 1152.97 Q762.968 1144.22 766.023 1139.64 Q769.102 1135.03 774.912 1135.03 Z" fill="#000000" fill-rule="nonzero" fill-opacity="1" /><path clip-path="url(#clip120)" d="M1197.18 1166.28 L1213.5 1166.28 L1213.5 1170.22 L1191.56 1170.22 L1191.56 1166.28 Q1194.22 1163.53 1198.8 1158.9 Q1203.41 1154.25 1204.59 1152.9 Q1206.84 1150.38 1207.72 1148.64 Q1208.62 1146.89 1208.62 1145.2 Q1208.62 1142.44 1206.67 1140.7 Q1204.75 1138.97 1201.65 1138.97 Q1199.45 1138.97 1197 1139.73 Q1194.57 1140.5 1191.79 1142.05 L1191.79 1137.33 Q1194.61 1136.19 1197.07 1135.61 Q1199.52 1135.03 1201.56 1135.03 Q1206.93 1135.03 1210.12 1137.72 Q1213.32 1140.4 1213.32 1144.89 Q1213.32 1147.02 1212.51 1148.95 Q1211.72 1150.84 1209.61 1153.44 Q1209.03 1154.11 1205.93 1157.33 Q1202.83 1160.52 1197.18 1166.28 Z" fill="#000000" fill-rule="nonzero" fill-opacity="1" /><path clip-path="url(#clip120)" d="M1233.32 1138.74 Q1229.71 1138.74 1227.88 1142.3 Q1226.07 1145.84 1226.07 1152.97 Q1226.07 1160.08 1227.88 1163.64 Q1229.71 1167.19 1233.32 1167.19 Q1236.95 1167.19 1238.76 1163.64 Q1240.59 1160.08 1240.59 1152.97 Q1240.59 1145.84 1238.76 1142.3 Q1236.95 1138.74 1233.32 1138.74 M1233.32 1135.03 Q1239.13 1135.03 1242.18 1139.64 Q1245.26 1144.22 1245.26 1152.97 Q1245.26 1161.7 1242.18 1166.31 Q1239.13 1170.89 1233.32 1170.89 Q1227.51 1170.89 1224.43 1166.31 Q1221.37 1161.7 1221.37 1152.97 Q1221.37 1144.22 1224.43 1139.64 Q1227.51 1135.03 1233.32 1135.03 Z" fill="#000000" fill-rule="nonzero" fill-opacity="1" /><path clip-path="url(#clip120)" d="M1664.79 1151.58 Q1668.15 1152.3 1670.02 1154.57 Q1671.92 1156.84 1671.92 1160.17 Q1671.92 1165.29 1668.4 1168.09 Q1664.88 1170.89 1658.4 1170.89 Q1656.22 1170.89 1653.91 1170.45 Q1651.62 1170.03 1649.16 1169.18 L1649.16 1164.66 Q1651.11 1165.8 1653.42 1166.38 Q1655.74 1166.95 1658.26 1166.95 Q1662.66 1166.95 1664.95 1165.22 Q1667.27 1163.48 1667.27 1160.17 Q1667.27 1157.12 1665.11 1155.4 Q1662.98 1153.67 1659.16 1153.67 L1655.14 1153.67 L1655.14 1149.83 L1659.35 1149.83 Q1662.8 1149.83 1664.63 1148.46 Q1666.46 1147.07 1666.46 1144.48 Q1666.46 1141.82 1664.56 1140.4 Q1662.68 1138.97 1659.16 1138.97 Q1657.24 1138.97 1655.04 1139.39 Q1652.84 1139.8 1650.21 1140.68 L1650.21 1136.51 Q1652.87 1135.77 1655.18 1135.4 Q1657.52 1135.03 1659.58 1135.03 Q1664.9 1135.03 1668.01 1137.46 Q1671.11 1139.87 1671.11 1143.99 Q1671.11 1146.86 1669.46 1148.85 Q1667.82 1150.82 1664.79 1151.58 Z" fill="#000000" fill-rule="nonzero" fill-opacity="1" /><path clip-path="url(#clip120)" d="M1690.78 1138.74 Q1687.17 1138.74 1685.34 1142.3 Q1683.54 1145.84 1683.54 1152.97 Q1683.54 1160.08 1685.34 1163.64 Q1687.17 1167.19 1690.78 1167.19 Q1694.42 1167.19 1696.22 1163.64 Q1698.05 1160.08 1698.05 1152.97 Q1698.05 1145.84 1696.22 1142.3 Q1694.42 1138.74 1690.78 1138.74 M1690.78 1135.03 Q1696.59 1135.03 1699.65 1139.64 Q1702.73 1144.22 1702.73 1152.97 Q1702.73 1161.7 1699.65 1166.31 Q1696.59 1170.89 1690.78 1170.89 Q1684.97 1170.89 1681.9 1166.31 Q1678.84 1161.7 1678.84 1152.97 Q1678.84 1144.22 1681.9 1139.64 Q1684.97 1135.03 1690.78 1135.03 Z" fill="#000000" fill-rule="nonzero" fill-opacity="1" /><g clip-path="url(#clip120)">
<text style="fill:#000000; fill-opacity:1; font-family:Arial,Helvetica Neue,Helvetica,sans-serif; font-size:66px; text-anchor:middle;" transform="rotate(0, 1104.03, 1252.42)" x="1104.03" y="1252.42">years since 1980</text>
</g>
<polyline clip-path="url(#clip120)" style="stroke:#000000; stroke-linecap:round; stroke-linejoin:round; stroke-width:4; stroke-opacity:1; fill:none" points="255.295,1111.02 255.295,107.256 "/>
<polyline clip-path="url(#clip120)" style="stroke:#000000; stroke-linecap:round; stroke-linejoin:round; stroke-width:4; stroke-opacity:1; fill:none" points="255.295,995.9 274.193,995.9 "/>
<polyline clip-path="url(#clip120)" style="stroke:#000000; stroke-linecap:round; stroke-linejoin:round; stroke-width:4; stroke-opacity:1; fill:none" points="255.295,766.271 274.193,766.271 "/>
<polyline clip-path="url(#clip120)" style="stroke:#000000; stroke-linecap:round; stroke-linejoin:round; stroke-width:4; stroke-opacity:1; fill:none" points="255.295,536.642 274.193,536.642 "/>
<polyline clip-path="url(#clip120)" style="stroke:#000000; stroke-linecap:round; stroke-linejoin:round; stroke-width:4; stroke-opacity:1; fill:none" points="255.295,307.013 274.193,307.013 "/>
<path clip-path="url(#clip120)" d="M113.675 1009.24 L121.314 1009.24 L121.314 982.879 L113.004 984.545 L113.004 980.286 L121.268 978.62 L125.944 978.62 L125.944 1009.24 L133.583 1009.24 L133.583 1013.18 L113.675 1013.18 L113.675 1009.24 Z" fill="#000000" fill-rule="nonzero" fill-opacity="1" /><path clip-path="url(#clip120)" d="M153.027 981.698 Q149.416 981.698 147.587 985.263 Q145.782 988.805 145.782 995.934 Q145.782 1003.04 147.587 1006.61 Q149.416 1010.15 153.027 1010.15 Q156.661 1010.15 158.467 1006.61 Q160.295 1003.04 160.295 995.934 Q160.295 988.805 158.467 985.263 Q156.661 981.698 153.027 981.698 M153.027 977.995 Q158.837 977.995 161.893 982.601 Q164.971 987.184 164.971 995.934 Q164.971 1004.66 161.893 1009.27 Q158.837 1013.85 153.027 1013.85 Q147.217 1013.85 144.138 1009.27 Q141.082 1004.66 141.082 995.934 Q141.082 987.184 144.138 982.601 Q147.217 977.995 153.027 977.995 Z" fill="#000000" fill-rule="nonzero" fill-opacity="1" /><path clip-path="url(#clip120)" d="M183.189 981.698 Q179.578 981.698 177.749 985.263 Q175.943 988.805 175.943 995.934 Q175.943 1003.04 177.749 1006.61 Q179.578 1010.15 183.189 1010.15 Q186.823 1010.15 188.629 1006.61 Q190.457 1003.04 190.457 995.934 Q190.457 988.805 188.629 985.263 Q186.823 981.698 183.189 981.698 M183.189 977.995 Q188.999 977.995 192.054 982.601 Q195.133 987.184 195.133 995.934 Q195.133 1004.66 192.054 1009.27 Q188.999 1013.85 183.189 1013.85 Q177.379 1013.85 174.3 1009.27 Q171.244 1004.66 171.244 995.934 Q171.244 987.184 174.3 982.601 Q177.379 977.995 183.189 977.995 Z" fill="#000000" fill-rule="nonzero" fill-opacity="1" /><path clip-path="url(#clip120)" d="M213.351 981.698 Q209.74 981.698 207.911 985.263 Q206.105 988.805 206.105 995.934 Q206.105 1003.04 207.911 1006.61 Q209.74 1010.15 213.351 1010.15 Q216.985 1010.15 218.79 1006.61 Q220.619 1003.04 220.619 995.934 Q220.619 988.805 218.79 985.263 Q216.985 981.698 213.351 981.698 M213.351 977.995 Q219.161 977.995 222.216 982.601 Q225.295 987.184 225.295 995.934 Q225.295 1004.66 222.216 1009.27 Q219.161 1013.85 213.351 1013.85 Q207.54 1013.85 204.462 1009.27 Q201.406 1004.66 201.406 995.934 Q201.406 987.184 204.462 982.601 Q207.54 977.995 213.351 977.995 Z" fill="#000000" fill-rule="nonzero" fill-opacity="1" /><path clip-path="url(#clip120)" d="M113.675 779.616 L121.314 779.616 L121.314 753.25 L113.004 754.917 L113.004 750.657 L121.268 748.991 L125.944 748.991 L125.944 779.616 L133.583 779.616 L133.583 783.551 L113.675 783.551 L113.675 779.616 Z" fill="#000000" fill-rule="nonzero" fill-opacity="1" /><path clip-path="url(#clip120)" d="M143.837 779.616 L151.476 779.616 L151.476 753.25 L143.166 754.917 L143.166 750.657 L151.43 748.991 L156.106 748.991 L156.106 779.616 L163.744 779.616 L163.744 783.551 L143.837 783.551 L143.837 779.616 Z" fill="#000000" fill-rule="nonzero" fill-opacity="1" /><path clip-path="url(#clip120)" d="M183.189 752.069 Q179.578 752.069 177.749 755.634 Q175.943 759.176 175.943 766.305 Q175.943 773.412 177.749 776.977 Q179.578 780.518 183.189 780.518 Q186.823 780.518 188.629 776.977 Q190.457 773.412 190.457 766.305 Q190.457 759.176 188.629 755.634 Q186.823 752.069 183.189 752.069 M183.189 748.366 Q188.999 748.366 192.054 752.972 Q195.133 757.556 195.133 766.305 Q195.133 775.032 192.054 779.639 Q188.999 784.222 183.189 784.222 Q177.379 784.222 174.3 779.639 Q171.244 775.032 171.244 766.305 Q171.244 757.556 174.3 752.972 Q177.379 748.366 183.189 748.366 Z" fill="#000000" fill-rule="nonzero" fill-opacity="1" /><path clip-path="url(#clip120)" d="M213.351 752.069 Q209.74 752.069 207.911 755.634 Q206.105 759.176 206.105 766.305 Q206.105 773.412 207.911 776.977 Q209.74 780.518 213.351 780.518 Q216.985 780.518 218.79 776.977 Q220.619 773.412 220.619 766.305 Q220.619 759.176 218.79 755.634 Q216.985 752.069 213.351 752.069 M213.351 748.366 Q219.161 748.366 222.216 752.972 Q225.295 757.556 225.295 766.305 Q225.295 775.032 222.216 779.639 Q219.161 784.222 213.351 784.222 Q207.54 784.222 204.462 779.639 Q201.406 775.032 201.406 766.305 Q201.406 757.556 204.462 752.972 Q207.54 748.366 213.351 748.366 Z" fill="#000000" fill-rule="nonzero" fill-opacity="1" /><path clip-path="url(#clip120)" d="M113.675 549.987 L121.314 549.987 L121.314 523.621 L113.004 525.288 L113.004 521.029 L121.268 519.362 L125.944 519.362 L125.944 549.987 L133.583 549.987 L133.583 553.922 L113.675 553.922 L113.675 549.987 Z" fill="#000000" fill-rule="nonzero" fill-opacity="1" /><path clip-path="url(#clip120)" d="M147.055 549.987 L163.374 549.987 L163.374 553.922 L141.43 553.922 L141.43 549.987 Q144.092 547.232 148.675 542.603 Q153.281 537.95 154.462 536.607 Q156.707 534.084 157.587 532.348 Q158.49 530.589 158.49 528.899 Q158.49 526.144 156.545 524.408 Q154.624 522.672 151.522 522.672 Q149.323 522.672 146.869 523.436 Q144.439 524.2 141.661 525.751 L141.661 521.029 Q144.485 519.894 146.939 519.316 Q149.393 518.737 151.43 518.737 Q156.8 518.737 159.994 521.422 Q163.189 524.107 163.189 528.598 Q163.189 530.728 162.379 532.649 Q161.592 534.547 159.485 537.14 Q158.906 537.811 155.805 541.029 Q152.703 544.223 147.055 549.987 Z" fill="#000000" fill-rule="nonzero" fill-opacity="1" /><path clip-path="url(#clip120)" d="M183.189 522.441 Q179.578 522.441 177.749 526.005 Q175.943 529.547 175.943 536.677 Q175.943 543.783 177.749 547.348 Q179.578 550.89 183.189 550.89 Q186.823 550.89 188.629 547.348 Q190.457 543.783 190.457 536.677 Q190.457 529.547 188.629 526.005 Q186.823 522.441 183.189 522.441 M183.189 518.737 Q188.999 518.737 192.054 523.343 Q195.133 527.927 195.133 536.677 Q195.133 545.404 192.054 550.01 Q188.999 554.593 183.189 554.593 Q177.379 554.593 174.3 550.01 Q171.244 545.404 171.244 536.677 Q171.244 527.927 174.3 523.343 Q177.379 518.737 183.189 518.737 Z" fill="#000000" fill-rule="nonzero" fill-opacity="1" /><path clip-path="url(#clip120)" d="M213.351 522.441 Q209.74 522.441 207.911 526.005 Q206.105 529.547 206.105 536.677 Q206.105 543.783 207.911 547.348 Q209.74 550.89 213.351 550.89 Q216.985 550.89 218.79 547.348 Q220.619 543.783 220.619 536.677 Q220.619 529.547 218.79 526.005 Q216.985 522.441 213.351 522.441 M213.351 518.737 Q219.161 518.737 222.216 523.343 Q225.295 527.927 225.295 536.677 Q225.295 545.404 222.216 550.01 Q219.161 554.593 213.351 554.593 Q207.54 554.593 204.462 550.01 Q201.406 545.404 201.406 536.677 Q201.406 527.927 204.462 523.343 Q207.54 518.737 213.351 518.737 Z" fill="#000000" fill-rule="nonzero" fill-opacity="1" /><path clip-path="url(#clip120)" d="M113.675 320.358 L121.314 320.358 L121.314 293.992 L113.004 295.659 L113.004 291.4 L121.268 289.733 L125.944 289.733 L125.944 320.358 L133.583 320.358 L133.583 324.293 L113.675 324.293 L113.675 320.358 Z" fill="#000000" fill-rule="nonzero" fill-opacity="1" /><path clip-path="url(#clip120)" d="M157.193 305.659 Q160.55 306.377 162.425 308.645 Q164.323 310.914 164.323 314.247 Q164.323 319.363 160.805 322.164 Q157.286 324.965 150.805 324.965 Q148.629 324.965 146.314 324.525 Q144.022 324.108 141.569 323.252 L141.569 318.738 Q143.513 319.872 145.828 320.451 Q148.143 321.029 150.666 321.029 Q155.064 321.029 157.356 319.293 Q159.67 317.557 159.67 314.247 Q159.67 311.191 157.518 309.479 Q155.388 307.742 151.569 307.742 L147.541 307.742 L147.541 303.9 L151.754 303.9 Q155.203 303.9 157.031 302.534 Q158.86 301.145 158.86 298.553 Q158.86 295.891 156.962 294.479 Q155.087 293.043 151.569 293.043 Q149.647 293.043 147.448 293.46 Q145.249 293.877 142.61 294.756 L142.61 290.59 Q145.272 289.849 147.587 289.479 Q149.925 289.108 151.985 289.108 Q157.309 289.108 160.411 291.539 Q163.513 293.946 163.513 298.067 Q163.513 300.937 161.869 302.928 Q160.226 304.895 157.193 305.659 Z" fill="#000000" fill-rule="nonzero" fill-opacity="1" /><path clip-path="url(#clip120)" d="M183.189 292.812 Q179.578 292.812 177.749 296.377 Q175.943 299.918 175.943 307.048 Q175.943 314.154 177.749 317.719 Q179.578 321.261 183.189 321.261 Q186.823 321.261 188.629 317.719 Q190.457 314.154 190.457 307.048 Q190.457 299.918 188.629 296.377 Q186.823 292.812 183.189 292.812 M183.189 289.108 Q188.999 289.108 192.054 293.715 Q195.133 298.298 195.133 307.048 Q195.133 315.775 192.054 320.381 Q188.999 324.965 183.189 324.965 Q177.379 324.965 174.3 320.381 Q171.244 315.775 171.244 307.048 Q171.244 298.298 174.3 293.715 Q177.379 289.108 183.189 289.108 Z" fill="#000000" fill-rule="nonzero" fill-opacity="1" /><path clip-path="url(#clip120)" d="M213.351 292.812 Q209.74 292.812 207.911 296.377 Q206.105 299.918 206.105 307.048 Q206.105 314.154 207.911 317.719 Q209.74 321.261 213.351 321.261 Q216.985 321.261 218.79 317.719 Q220.619 314.154 220.619 307.048 Q220.619 299.918 218.79 296.377 Q216.985 292.812 213.351 292.812 M213.351 289.108 Q219.161 289.108 222.216 293.715 Q225.295 298.298 225.295 307.048 Q225.295 315.775 222.216 320.381 Q219.161 324.965 213.351 324.965 Q207.54 324.965 204.462 320.381 Q201.406 315.775 201.406 307.048 Q201.406 298.298 204.462 293.715 Q207.54 289.108 213.351 289.108 Z" fill="#000000" fill-rule="nonzero" fill-opacity="1" /><g clip-path="url(#clip120)">
<text style="fill:#000000; fill-opacity:1; font-family:Arial,Helvetica Neue,Helvetica,sans-serif; font-size:66px; text-anchor:middle;" transform="rotate(-90, 71.4418, 609.137)" x="71.4418" y="609.137">population (millions)</text>
</g>
<g clip-path="url(#clip120)">
<text style="fill:#000000; fill-opacity:1; font-family:Arial,Helvetica Neue,Helvetica,sans-serif; font-size:66px; text-anchor:middle;" transform="rotate(0, 1104.03, 57.6)" x="1104.03" y="57.6">Population of China</text>
</g>
<circle clip-path="url(#clip122)" cx="394.844" cy="977.116" r="10.8" fill="#009af9" fill-rule="evenodd" fill-opacity="1" stroke="#000000" stroke-opacity="1" stroke-width="2.56"/>
<circle clip-path="url(#clip122)" cx="1218.41" cy="392.803" r="10.8" fill="#009af9" fill-rule="evenodd" fill-opacity="1" stroke="#000000" stroke-opacity="1" stroke-width="2.56"/>
<circle clip-path="url(#clip122)" cx="1675.95" cy="220.168" r="10.8" fill="#009af9" fill-rule="evenodd" fill-opacity="1" stroke="#000000" stroke-opacity="1" stroke-width="2.56"/>
<circle clip-path="url(#clip122)" cx="1904.71" cy="135.664" r="10.8" fill="#009af9" fill-rule="evenodd" fill-opacity="1" stroke="#000000" stroke-opacity="1" stroke-width="2.56"/>
<polyline clip-path="url(#clip122)" style="stroke:#e26f46; stroke-linecap:round; stroke-linejoin:round; stroke-width:8; stroke-opacity:1; fill:none" points="303.336,1082.61 306.545,1078.73 309.755,1074.86 312.964,1071.01 316.173,1067.17 319.382,1063.35 322.591,1059.53 325.801,1055.73 329.01,1051.95 332.219,1048.17 335.428,1044.41 338.637,1040.67 341.846,1036.93 345.056,1033.21 348.265,1029.5 351.474,1025.81 354.683,1022.12 357.892,1018.45 361.101,1014.8 364.311,1011.15 367.52,1007.52 370.729,1003.9 373.938,1000.3 377.147,996.704 380.357,993.123 383.566,989.555 386.775,986 389.984,982.457 393.193,978.927 396.402,975.409 399.612,971.903 402.821,968.41 406.03,964.929 409.239,961.461 412.448,958.005 415.657,954.561 418.867,951.13 422.076,947.71 425.285,944.303 428.494,940.908 431.703,937.525 434.912,934.155 438.122,930.796 441.331,927.449 444.54,924.114 447.749,920.792 450.958,917.481 454.168,914.182 457.377,910.894 460.586,907.619 463.795,904.356 467.004,901.104 470.213,897.864 473.423,894.635 476.632,891.419 479.841,888.214 483.05,885.02 486.259,881.838 489.468,878.668 492.678,875.509 495.887,872.361 499.096,869.225 502.305,866.101 505.514,862.987 508.724,859.885 511.933,856.795 515.142,853.715 518.351,850.647 521.56,847.59 524.769,844.544 527.979,841.51 531.188,838.486 534.397,835.474 537.606,832.472 540.815,829.482 544.024,826.503 547.234,823.534 550.443,820.576 553.652,817.63 556.861,814.694 560.07,811.769 563.279,808.855 566.489,805.951 569.698,803.058 572.907,800.176 576.116,797.304 579.325,794.444 582.535,791.593 585.744,788.754 588.953,785.924 592.162,783.106 595.371,780.297 598.58,777.499 601.79,774.712 604.999,771.935 608.208,769.168 611.417,766.412 614.626,763.665 617.835,760.929 621.045,758.203 624.254,755.488 627.463,752.782 630.672,750.087 633.881,747.401 637.091,744.726 640.3,742.061 643.509,739.405 646.718,736.76 649.927,734.124 653.136,731.498 656.346,728.883 659.555,726.277 662.764,723.68 665.973,721.094 669.182,718.517 672.391,715.95 675.601,713.392 678.81,710.844 682.019,708.306 685.228,705.777 688.437,703.258 691.646,700.748 694.856,698.248 698.065,695.757 701.274,693.275 704.483,690.803 707.692,688.34 710.902,685.886 714.111,683.442 717.32,681.007 720.529,678.581 723.738,676.164 726.947,673.756 730.157,671.357 733.366,668.968 736.575,666.587 739.784,664.216 742.993,661.853 746.202,659.499 749.412,657.155 752.621,654.819 755.83,652.492 759.039,650.173 762.248,647.864 765.457,645.563 768.667,643.271 771.876,640.987 775.085,638.712 778.294,636.446 781.503,634.188 784.713,631.939 787.922,629.699 791.131,627.466 794.34,625.243 797.549,623.027 800.758,620.82 803.968,618.622 807.177,616.431 810.386,614.249 813.595,612.076 816.804,609.91 820.013,607.753 823.223,605.603 826.432,603.462 829.641,601.329 832.85,599.204 836.059,597.087 839.269,594.978 842.478,592.877 845.687,590.784 848.896,588.698 852.105,586.621 855.314,584.551 858.524,582.489 861.733,580.435 864.942,578.389 868.151,576.35 871.36,574.319 874.569,572.296 877.779,570.28 880.988,568.272 884.197,566.271 887.406,564.278 890.615,562.292 893.824,560.313 897.034,558.343 900.243,556.379 903.452,554.423 906.661,552.474 909.87,550.532 913.08,548.597 916.289,546.67 919.498,544.75 922.707,542.837 925.916,540.931 929.125,539.032 932.335,537.141 935.544,535.256 938.753,533.378 941.962,531.507 945.171,529.643 948.38,527.786 951.59,525.936 954.799,524.092 958.008,522.256 961.217,520.426 964.426,518.603 967.636,516.786 970.845,514.976 974.054,513.173 977.263,511.376 980.472,509.586 983.681,507.803 986.891,506.025 990.1,504.255 993.309,502.49 996.518,500.733 999.727,498.981 1002.94,497.236 1006.15,495.497 1009.35,493.764 1012.56,492.038 1015.77,490.318 1018.98,488.604 1022.19,486.896 1025.4,485.194 1028.61,483.498 1031.82,481.808 1035.03,480.124 1038.24,478.447 1041.45,476.775 1044.66,475.109 1047.86,473.449 1051.07,471.794 1054.28,470.146 1057.49,468.503 1060.7,466.866 1063.91,465.235 1067.12,463.609 1070.33,461.989 1073.54,460.375 1076.75,458.766 1079.96,457.163 1083.17,455.565 1086.37,453.973 1089.58,452.386 1092.79,450.804 1096,449.228 1099.21,447.658 1102.42,446.092 1105.63,444.532 1108.84,442.977 1112.05,441.428 1115.26,439.883 1118.47,438.344 1121.68,436.81 1124.89,435.281 1128.09,433.756 1131.3,432.237 1134.51,430.723 1137.72,429.214 1140.93,427.71 1144.14,426.211 1147.35,424.716 1150.56,423.227 1153.77,421.742 1156.98,420.262 1160.19,418.786 1163.4,417.316 1166.6,415.85 1169.81,414.389 1173.02,412.932 1176.23,411.48 1179.44,410.032 1182.65,408.589 1185.86,407.15 1189.07,405.716 1192.28,404.286 1195.49,402.86 1198.7,401.439 1201.91,400.022 1205.11,398.61 1208.32,397.202 1211.53,395.797 1214.74,394.397 1217.95,393.002 1221.16,391.61 1224.37,390.222 1227.58,388.839 1230.79,387.459 1234,386.083 1237.21,384.712 1240.42,383.344 1243.62,381.98 1246.83,380.62 1250.04,379.264 1253.25,377.912 1256.46,376.563 1259.67,375.218 1262.88,373.877 1266.09,372.539 1269.3,371.205 1272.51,369.875 1275.72,368.548 1278.93,367.225 1282.13,365.905 1285.34,364.588 1288.55,363.275 1291.76,361.966 1294.97,360.66 1298.18,359.357 1301.39,358.057 1304.6,356.761 1307.81,355.468 1311.02,354.178 1314.23,352.891 1317.44,351.608 1320.64,350.327 1323.85,349.05 1327.06,347.775 1330.27,346.504 1333.48,345.235 1336.69,343.97 1339.9,342.707 1343.11,341.448 1346.32,340.191 1349.53,338.937 1352.74,337.685 1355.95,336.437 1359.15,335.191 1362.36,333.948 1365.57,332.707 1368.78,331.47 1371.99,330.234 1375.2,329.001 1378.41,327.771 1381.62,326.543 1384.83,325.318 1388.04,324.095 1391.25,322.875 1394.46,321.656 1397.66,320.441 1400.87,319.227 1404.08,318.016 1407.29,316.807 1410.5,315.6 1413.71,314.395 1416.92,313.192 1420.13,311.992 1423.34,310.793 1426.55,309.597 1429.76,308.402 1432.97,307.21 1436.18,306.019 1439.38,304.831 1442.59,303.644 1445.8,302.459 1449.01,301.276 1452.22,300.094 1455.43,298.915 1458.64,297.737 1461.85,296.56 1465.06,295.386 1468.27,294.212 1471.48,293.041 1474.69,291.871 1477.89,290.703 1481.1,289.536 1484.31,288.37 1487.52,287.206 1490.73,286.043 1493.94,284.882 1497.15,283.722 1500.36,282.563 1503.57,281.405 1506.78,280.249 1509.99,279.094 1513.2,277.94 1516.4,276.787 1519.61,275.635 1522.82,274.484 1526.03,273.334 1529.24,272.185 1532.45,271.037 1535.66,269.891 1538.87,268.745 1542.08,267.599 1545.29,266.455 1548.5,265.311 1551.71,264.169 1554.91,263.026 1558.12,261.885 1561.33,260.744 1564.54,259.604 1567.75,258.465 1570.96,257.326 1574.17,256.187 1577.38,255.049 1580.59,253.912 1583.8,252.775 1587.01,251.638 1590.22,250.502 1593.42,249.366 1596.63,248.23 1599.84,247.095 1603.05,245.96 1606.26,244.825 1609.47,243.69 1612.68,242.556 1615.89,241.421 1619.1,240.287 1622.31,239.152 1625.52,238.018 1628.73,236.883 1631.93,235.749 1635.14,234.614 1638.35,233.48 1641.56,232.345 1644.77,231.21 1647.98,230.075 1651.19,228.939 1654.4,227.803 1657.61,226.667 1660.82,225.531 1664.03,224.394 1667.24,223.257 1670.44,222.119 1673.65,220.981 1676.86,219.842 1680.07,218.703 1683.28,217.563 1686.49,216.423 1689.7,215.282 1692.91,214.14 1696.12,212.998 1699.33,211.854 1702.54,210.711 1705.75,209.566 1708.95,208.42 1712.16,207.274 1715.37,206.126 1718.58,204.978 1721.79,203.829 1725,202.679 1728.21,201.527 1731.42,200.375 1734.63,199.221 1737.84,198.067 1741.05,196.911 1744.26,195.754 1747.46,194.596 1750.67,193.437 1753.88,192.276 1757.09,191.114 1760.3,189.95 1763.51,188.786 1766.72,187.619 1769.93,186.452 1773.14,185.283 1776.35,184.112 1779.56,182.94 1782.77,181.766 1785.98,180.59 1789.18,179.413 1792.39,178.235 1795.6,177.054 1798.81,175.872 1802.02,174.688 1805.23,173.502 1808.44,172.314 1811.65,171.125 1814.86,169.933 1818.07,168.74 1821.28,167.545 1824.49,166.347 1827.69,165.148 1830.9,163.946 1834.11,162.743 1837.32,161.537 1840.53,160.329 1843.74,159.119 1846.95,157.906 1850.16,156.692 1853.37,155.475 1856.58,154.256 1859.79,153.034 1863,151.81 1866.2,150.583 1869.41,149.354 1872.62,148.123 1875.83,146.889 1879.04,145.653 1882.25,144.413 1885.46,143.172 1888.67,141.927 1891.88,140.68 1895.09,139.43 1898.3,138.178 1901.51,136.922 1904.71,135.664 "/>
<path clip-path="url(#clip120)" d="M311.877 296.235 L736.437 296.235 L736.437 140.715 L311.877 140.715  Z" fill="#ffffff" fill-rule="evenodd" fill-opacity="1"/>
<polyline clip-path="url(#clip120)" style="stroke:#000000; stroke-linecap:round; stroke-linejoin:round; stroke-width:4; stroke-opacity:1; fill:none" points="311.877,296.235 736.437,296.235 736.437,140.715 311.877,140.715 311.877,296.235 "/>
<circle clip-path="url(#clip120)" cx="387.32" cy="192.555" r="19.7486" fill="#009af9" fill-rule="evenodd" fill-opacity="1" stroke="#000000" stroke-opacity="1" stroke-width="4.68114"/>
<path clip-path="url(#clip120)" d="M476.165 196.802 Q471.003 196.802 469.012 197.983 Q467.022 199.163 467.022 202.011 Q467.022 204.279 468.503 205.622 Q470.008 206.941 472.577 206.941 Q476.119 206.941 478.248 204.441 Q480.401 201.918 480.401 197.751 L480.401 196.802 L476.165 196.802 M484.66 195.043 L484.66 209.835 L480.401 209.835 L480.401 205.899 Q478.943 208.261 476.767 209.395 Q474.591 210.506 471.443 210.506 Q467.461 210.506 465.1 208.284 Q462.762 206.038 462.762 202.288 Q462.762 197.913 465.679 195.691 Q468.619 193.469 474.429 193.469 L480.401 193.469 L480.401 193.052 Q480.401 190.113 478.457 188.515 Q476.535 186.895 473.04 186.895 Q470.818 186.895 468.711 187.427 Q466.605 187.96 464.661 189.025 L464.661 185.089 Q466.999 184.187 469.198 183.747 Q471.397 183.284 473.48 183.284 Q479.105 183.284 481.883 186.201 Q484.66 189.117 484.66 195.043 Z" fill="#000000" fill-rule="nonzero" fill-opacity="1" /><path clip-path="url(#clip120)" d="M512.091 184.904 L512.091 188.886 Q510.285 187.89 508.457 187.404 Q506.651 186.895 504.799 186.895 Q500.656 186.895 498.364 189.534 Q496.072 192.15 496.072 196.895 Q496.072 201.64 498.364 204.279 Q500.656 206.895 504.799 206.895 Q506.651 206.895 508.457 206.409 Q510.285 205.899 512.091 204.904 L512.091 208.839 Q510.308 209.673 508.387 210.089 Q506.489 210.506 504.336 210.506 Q498.48 210.506 495.031 206.825 Q491.582 203.145 491.582 196.895 Q491.582 190.552 495.054 186.918 Q498.549 183.284 504.614 183.284 Q506.582 183.284 508.457 183.701 Q510.332 184.094 512.091 184.904 Z" fill="#000000" fill-rule="nonzero" fill-opacity="1" /><path clip-path="url(#clip120)" d="M523.711 176.548 L523.711 183.909 L532.484 183.909 L532.484 187.219 L523.711 187.219 L523.711 201.293 Q523.711 204.464 524.568 205.367 Q525.447 206.27 528.109 206.27 L532.484 206.27 L532.484 209.835 L528.109 209.835 Q523.179 209.835 521.304 208.006 Q519.429 206.154 519.429 201.293 L519.429 187.219 L516.304 187.219 L516.304 183.909 L519.429 183.909 L519.429 176.548 L523.711 176.548 Z" fill="#000000" fill-rule="nonzero" fill-opacity="1" /><path clip-path="url(#clip120)" d="M537.646 199.603 L537.646 183.909 L541.906 183.909 L541.906 199.441 Q541.906 203.122 543.341 204.974 Q544.776 206.802 547.646 206.802 Q551.095 206.802 553.086 204.603 Q555.1 202.404 555.1 198.608 L555.1 183.909 L559.359 183.909 L559.359 209.835 L555.1 209.835 L555.1 205.853 Q553.549 208.214 551.489 209.372 Q549.452 210.506 546.743 210.506 Q542.276 210.506 539.961 207.728 Q537.646 204.95 537.646 199.603 M548.364 183.284 L548.364 183.284 Z" fill="#000000" fill-rule="nonzero" fill-opacity="1" /><path clip-path="url(#clip120)" d="M579.915 196.802 Q574.753 196.802 572.762 197.983 Q570.771 199.163 570.771 202.011 Q570.771 204.279 572.253 205.622 Q573.757 206.941 576.327 206.941 Q579.868 206.941 581.998 204.441 Q584.151 201.918 584.151 197.751 L584.151 196.802 L579.915 196.802 M588.41 195.043 L588.41 209.835 L584.151 209.835 L584.151 205.899 Q582.692 208.261 580.516 209.395 Q578.341 210.506 575.192 210.506 Q571.211 210.506 568.85 208.284 Q566.512 206.038 566.512 202.288 Q566.512 197.913 569.429 195.691 Q572.368 193.469 578.178 193.469 L584.151 193.469 L584.151 193.052 Q584.151 190.113 582.206 188.515 Q580.285 186.895 576.79 186.895 Q574.567 186.895 572.461 187.427 Q570.354 187.96 568.41 189.025 L568.41 185.089 Q570.748 184.187 572.947 183.747 Q575.146 183.284 577.229 183.284 Q582.854 183.284 585.632 186.201 Q588.41 189.117 588.41 195.043 Z" fill="#000000" fill-rule="nonzero" fill-opacity="1" /><path clip-path="url(#clip120)" d="M597.183 173.816 L601.442 173.816 L601.442 209.835 L597.183 209.835 L597.183 173.816 Z" fill="#000000" fill-rule="nonzero" fill-opacity="1" /><polyline clip-path="url(#clip120)" style="stroke:#e26f46; stroke-linecap:round; stroke-linejoin:round; stroke-width:8; stroke-opacity:1; fill:none" points="330.738,244.395 443.902,244.395 "/>
<path clip-path="url(#clip120)" d="M462.762 235.749 L467.022 235.749 L467.022 261.675 L462.762 261.675 L462.762 235.749 M462.762 225.656 L467.022 225.656 L467.022 231.05 L462.762 231.05 L462.762 225.656 Z" fill="#000000" fill-rule="nonzero" fill-opacity="1" /><path clip-path="url(#clip120)" d="M497.484 246.027 L497.484 261.675 L493.225 261.675 L493.225 246.165 Q493.225 242.485 491.79 240.656 Q490.355 238.828 487.485 238.828 Q484.035 238.828 482.045 241.027 Q480.054 243.226 480.054 247.022 L480.054 261.675 L475.772 261.675 L475.772 235.749 L480.054 235.749 L480.054 239.777 Q481.582 237.439 483.642 236.281 Q485.725 235.124 488.434 235.124 Q492.901 235.124 495.193 237.902 Q497.484 240.656 497.484 246.027 Z" fill="#000000" fill-rule="nonzero" fill-opacity="1" /><path clip-path="url(#clip120)" d="M510.193 228.388 L510.193 235.749 L518.966 235.749 L518.966 239.059 L510.193 239.059 L510.193 253.133 Q510.193 256.304 511.049 257.207 Q511.929 258.11 514.591 258.11 L518.966 258.11 L518.966 261.675 L514.591 261.675 Q509.66 261.675 507.785 259.846 Q505.91 257.994 505.91 253.133 L505.91 239.059 L502.785 239.059 L502.785 235.749 L505.91 235.749 L505.91 228.388 L510.193 228.388 Z" fill="#000000" fill-rule="nonzero" fill-opacity="1" /><path clip-path="url(#clip120)" d="M546.743 247.647 L546.743 249.73 L527.16 249.73 Q527.438 254.128 529.799 256.443 Q532.183 258.735 536.419 258.735 Q538.873 258.735 541.165 258.133 Q543.48 257.531 545.748 256.327 L545.748 260.355 Q543.456 261.327 541.049 261.837 Q538.642 262.346 536.165 262.346 Q529.961 262.346 526.327 258.735 Q522.716 255.124 522.716 248.966 Q522.716 242.601 526.142 238.874 Q529.591 235.124 535.424 235.124 Q540.656 235.124 543.688 238.503 Q546.743 241.86 546.743 247.647 M542.484 246.397 Q542.438 242.902 540.517 240.818 Q538.618 238.735 535.47 238.735 Q531.906 238.735 529.753 240.749 Q527.623 242.763 527.299 246.42 L542.484 246.397 Z" fill="#000000" fill-rule="nonzero" fill-opacity="1" /><path clip-path="url(#clip120)" d="M568.757 239.73 Q568.04 239.314 567.183 239.128 Q566.35 238.92 565.331 238.92 Q561.72 238.92 559.776 241.281 Q557.855 243.619 557.855 248.017 L557.855 261.675 L553.572 261.675 L553.572 235.749 L557.855 235.749 L557.855 239.777 Q559.197 237.416 561.35 236.281 Q563.503 235.124 566.581 235.124 Q567.021 235.124 567.554 235.193 Q568.086 235.24 568.734 235.355 L568.757 239.73 Z" fill="#000000" fill-rule="nonzero" fill-opacity="1" /><path clip-path="url(#clip120)" d="M577.345 257.786 L577.345 271.536 L573.063 271.536 L573.063 235.749 L577.345 235.749 L577.345 239.684 Q578.688 237.369 580.725 236.258 Q582.785 235.124 585.632 235.124 Q590.354 235.124 593.294 238.874 Q596.257 242.624 596.257 248.735 Q596.257 254.846 593.294 258.596 Q590.354 262.346 585.632 262.346 Q582.785 262.346 580.725 261.235 Q578.688 260.101 577.345 257.786 M591.836 248.735 Q591.836 244.036 589.891 241.374 Q587.97 238.689 584.59 238.689 Q581.211 238.689 579.266 241.374 Q577.345 244.036 577.345 248.735 Q577.345 253.434 579.266 256.119 Q581.211 258.781 584.59 258.781 Q587.97 258.781 589.891 256.119 Q591.836 253.434 591.836 248.735 Z" fill="#000000" fill-rule="nonzero" fill-opacity="1" /><path clip-path="url(#clip120)" d="M613.363 238.735 Q609.938 238.735 607.947 241.42 Q605.956 244.082 605.956 248.735 Q605.956 253.388 607.924 256.073 Q609.914 258.735 613.363 258.735 Q616.766 258.735 618.757 256.05 Q620.748 253.364 620.748 248.735 Q620.748 244.128 618.757 241.443 Q616.766 238.735 613.363 238.735 M613.363 235.124 Q618.919 235.124 622.09 238.735 Q625.262 242.346 625.262 248.735 Q625.262 255.101 622.09 258.735 Q618.919 262.346 613.363 262.346 Q607.785 262.346 604.614 258.735 Q601.465 255.101 601.465 248.735 Q601.465 242.346 604.614 238.735 Q607.785 235.124 613.363 235.124 Z" fill="#000000" fill-rule="nonzero" fill-opacity="1" /><path clip-path="url(#clip120)" d="M632.322 225.656 L636.581 225.656 L636.581 261.675 L632.322 261.675 L632.322 225.656 Z" fill="#000000" fill-rule="nonzero" fill-opacity="1" /><path clip-path="url(#clip120)" d="M657.275 248.642 Q652.113 248.642 650.123 249.823 Q648.132 251.003 648.132 253.851 Q648.132 256.119 649.613 257.462 Q651.118 258.781 653.687 258.781 Q657.229 258.781 659.359 256.281 Q661.511 253.758 661.511 249.591 L661.511 248.642 L657.275 248.642 M665.771 246.883 L665.771 261.675 L661.511 261.675 L661.511 257.739 Q660.053 260.101 657.877 261.235 Q655.701 262.346 652.553 262.346 Q648.572 262.346 646.211 260.124 Q643.873 257.878 643.873 254.128 Q643.873 249.753 646.789 247.531 Q649.729 245.309 655.539 245.309 L661.511 245.309 L661.511 244.892 Q661.511 241.953 659.567 240.355 Q657.646 238.735 654.15 238.735 Q651.928 238.735 649.822 239.267 Q647.715 239.8 645.771 240.865 L645.771 236.929 Q648.109 236.027 650.308 235.587 Q652.507 235.124 654.59 235.124 Q660.215 235.124 662.993 238.041 Q665.771 240.957 665.771 246.883 Z" fill="#000000" fill-rule="nonzero" fill-opacity="1" /><path clip-path="url(#clip120)" d="M696.095 246.027 L696.095 261.675 L691.835 261.675 L691.835 246.165 Q691.835 242.485 690.4 240.656 Q688.965 238.828 686.095 238.828 Q682.646 238.828 680.655 241.027 Q678.664 243.226 678.664 247.022 L678.664 261.675 L674.382 261.675 L674.382 235.749 L678.664 235.749 L678.664 239.777 Q680.192 237.439 682.252 236.281 Q684.335 235.124 687.044 235.124 Q691.511 235.124 693.803 237.902 Q696.095 240.656 696.095 246.027 Z" fill="#000000" fill-rule="nonzero" fill-opacity="1" /><path clip-path="url(#clip120)" d="M708.803 228.388 L708.803 235.749 L717.576 235.749 L717.576 239.059 L708.803 239.059 L708.803 253.133 Q708.803 256.304 709.659 257.207 Q710.539 258.11 713.201 258.11 L717.576 258.11 L717.576 261.675 L713.201 261.675 Q708.27 261.675 706.395 259.846 Q704.52 257.994 704.52 253.133 L704.52 239.059 L701.395 239.059 L701.395 235.749 L704.52 235.749 L704.52 228.388 L708.803 228.388 Z" fill="#000000" fill-rule="nonzero" fill-opacity="1" /></svg>
