<?xml version="1.0" encoding="utf-8"?>
<svg xmlns="http://www.w3.org/2000/svg" xmlns:xlink="http://www.w3.org/1999/xlink" width="500" height="320" viewBox="0 0 2000 1280">
<defs>
  <clipPath id="clip590">
    <rect x="0" y="0" width="2000" height="1280"/>
  </clipPath>
</defs>
<path clip-path="url(#clip590)" d="M0 1280 L2000 1280 L2000 0 L0 0  Z" fill="#ffffff" fill-rule="evenodd" fill-opacity="1"/>
<defs>
  <clipPath id="clip591">
    <rect x="400" y="0" width="1401" height="1280"/>
  </clipPath>
</defs>
<path clip-path="url(#clip590)" d="M185.496 1171.03 L1952.76 1171.03 L1952.76 107.256 L185.496 107.256  Z" fill="#ffffff" fill-rule="evenodd" fill-opacity="1"/>
<defs>
  <clipPath id="clip592">
    <rect x="185" y="107" width="1768" height="1065"/>
  </clipPath>
</defs>
<polyline clip-path="url(#clip592)" style="stroke:#000000; stroke-linecap:round; stroke-linejoin:round; stroke-width:2; stroke-opacity:0.1; fill:none" points="235.513,1171.03 235.513,107.256 "/>
<polyline clip-path="url(#clip592)" style="stroke:#000000; stroke-linecap:round; stroke-linejoin:round; stroke-width:2; stroke-opacity:0.1; fill:none" points="492.009,1171.03 492.009,107.256 "/>
<polyline clip-path="url(#clip592)" style="stroke:#000000; stroke-linecap:round; stroke-linejoin:round; stroke-width:2; stroke-opacity:0.1; fill:none" points="748.505,1171.03 748.505,107.256 "/>
<polyline clip-path="url(#clip592)" style="stroke:#000000; stroke-linecap:round; stroke-linejoin:round; stroke-width:2; stroke-opacity:0.1; fill:none" points="1005,1171.03 1005,107.256 "/>
<polyline clip-path="url(#clip592)" style="stroke:#000000; stroke-linecap:round; stroke-linejoin:round; stroke-width:2; stroke-opacity:0.1; fill:none" points="1261.5,1171.03 1261.5,107.256 "/>
<polyline clip-path="url(#clip592)" style="stroke:#000000; stroke-linecap:round; stroke-linejoin:round; stroke-width:2; stroke-opacity:0.1; fill:none" points="1517.99,1171.03 1517.99,107.256 "/>
<polyline clip-path="url(#clip592)" style="stroke:#000000; stroke-linecap:round; stroke-linejoin:round; stroke-width:2; stroke-opacity:0.1; fill:none" points="1774.49,1171.03 1774.49,107.256 "/>
<polyline clip-path="url(#clip592)" style="stroke:#000000; stroke-linecap:round; stroke-linejoin:round; stroke-width:2; stroke-opacity:0.1; fill:none" points="185.496,1087.43 1952.76,1087.43 "/>
<polyline clip-path="url(#clip592)" style="stroke:#000000; stroke-linecap:round; stroke-linejoin:round; stroke-width:2; stroke-opacity:0.1; fill:none" points="185.496,849.911 1952.76,849.911 "/>
<polyline clip-path="url(#clip592)" style="stroke:#000000; stroke-linecap:round; stroke-linejoin:round; stroke-width:2; stroke-opacity:0.1; fill:none" points="185.496,612.395 1952.76,612.395 "/>
<polyline clip-path="url(#clip592)" style="stroke:#000000; stroke-linecap:round; stroke-linejoin:round; stroke-width:2; stroke-opacity:0.1; fill:none" points="185.496,374.879 1952.76,374.879 "/>
<polyline clip-path="url(#clip592)" style="stroke:#000000; stroke-linecap:round; stroke-linejoin:round; stroke-width:2; stroke-opacity:0.1; fill:none" points="185.496,137.363 1952.76,137.363 "/>
<polyline clip-path="url(#clip590)" style="stroke:#000000; stroke-linecap:round; stroke-linejoin:round; stroke-width:4; stroke-opacity:1; fill:none" points="185.496,1171.03 1952.76,1171.03 "/>
<polyline clip-path="url(#clip590)" style="stroke:#000000; stroke-linecap:round; stroke-linejoin:round; stroke-width:4; stroke-opacity:1; fill:none" points="235.513,1171.03 235.513,1152.13 "/>
<polyline clip-path="url(#clip590)" style="stroke:#000000; stroke-linecap:round; stroke-linejoin:round; stroke-width:4; stroke-opacity:1; fill:none" points="492.009,1171.03 492.009,1152.13 "/>
<polyline clip-path="url(#clip590)" style="stroke:#000000; stroke-linecap:round; stroke-linejoin:round; stroke-width:4; stroke-opacity:1; fill:none" points="748.505,1171.03 748.505,1152.13 "/>
<polyline clip-path="url(#clip590)" style="stroke:#000000; stroke-linecap:round; stroke-linejoin:round; stroke-width:4; stroke-opacity:1; fill:none" points="1005,1171.03 1005,1152.13 "/>
<polyline clip-path="url(#clip590)" style="stroke:#000000; stroke-linecap:round; stroke-linejoin:round; stroke-width:4; stroke-opacity:1; fill:none" points="1261.5,1171.03 1261.5,1152.13 "/>
<polyline clip-path="url(#clip590)" style="stroke:#000000; stroke-linecap:round; stroke-linejoin:round; stroke-width:4; stroke-opacity:1; fill:none" points="1517.99,1171.03 1517.99,1152.13 "/>
<polyline clip-path="url(#clip590)" style="stroke:#000000; stroke-linecap:round; stroke-linejoin:round; stroke-width:4; stroke-opacity:1; fill:none" points="1774.49,1171.03 1774.49,1152.13 "/>
<path clip-path="url(#clip590)" d="M235.513 1198.75 Q231.902 1198.75 230.073 1202.31 Q228.267 1205.86 228.267 1212.98 Q228.267 1220.09 230.073 1223.66 Q231.902 1227.2 235.513 1227.2 Q239.147 1227.2 240.952 1223.66 Q242.781 1220.09 242.781 1212.98 Q242.781 1205.86 240.952 1202.31 Q239.147 1198.75 235.513 1198.75 M235.513 1195.05 Q241.323 1195.05 244.378 1199.65 Q247.457 1204.24 247.457 1212.98 Q247.457 1221.71 244.378 1226.32 Q241.323 1230.9 235.513 1230.9 Q229.703 1230.9 226.624 1226.32 Q223.568 1221.71 223.568 1212.98 Q223.568 1204.24 226.624 1199.65 Q229.703 1195.05 235.513 1195.05 Z" fill="#000000" fill-rule="nonzero" fill-opacity="1" /><path clip-path="url(#clip590)" d="M470.782 1226.3 L487.102 1226.3 L487.102 1230.23 L465.157 1230.23 L465.157 1226.3 Q467.819 1223.54 472.403 1218.91 Q477.009 1214.26 478.19 1212.92 Q480.435 1210.39 481.315 1208.66 Q482.217 1206.9 482.217 1205.21 Q482.217 1202.45 480.273 1200.72 Q478.352 1198.98 475.25 1198.98 Q473.051 1198.98 470.597 1199.74 Q468.167 1200.51 465.389 1202.06 L465.389 1197.34 Q468.213 1196.2 470.667 1195.62 Q473.12 1195.05 475.157 1195.05 Q480.528 1195.05 483.722 1197.73 Q486.917 1200.42 486.917 1204.91 Q486.917 1207.04 486.106 1208.96 Q485.319 1210.86 483.213 1213.45 Q482.634 1214.12 479.532 1217.34 Q476.43 1220.53 470.782 1226.3 Z" fill="#000000" fill-rule="nonzero" fill-opacity="1" /><path clip-path="url(#clip590)" d="M506.916 1198.75 Q503.305 1198.75 501.477 1202.31 Q499.671 1205.86 499.671 1212.98 Q499.671 1220.09 501.477 1223.66 Q503.305 1227.2 506.916 1227.2 Q510.551 1227.2 512.356 1223.66 Q514.185 1220.09 514.185 1212.98 Q514.185 1205.86 512.356 1202.31 Q510.551 1198.75 506.916 1198.75 M506.916 1195.05 Q512.727 1195.05 515.782 1199.65 Q518.861 1204.24 518.861 1212.98 Q518.861 1221.71 515.782 1226.32 Q512.727 1230.9 506.916 1230.9 Q501.106 1230.9 498.028 1226.32 Q494.972 1221.71 494.972 1212.98 Q494.972 1204.24 498.028 1199.65 Q501.106 1195.05 506.916 1195.05 Z" fill="#000000" fill-rule="nonzero" fill-opacity="1" /><path clip-path="url(#clip590)" d="M736.677 1199.74 L724.871 1218.19 L736.677 1218.19 L736.677 1199.74 M735.45 1195.67 L741.33 1195.67 L741.33 1218.19 L746.26 1218.19 L746.26 1222.08 L741.33 1222.08 L741.33 1230.23 L736.677 1230.23 L736.677 1222.08 L721.075 1222.08 L721.075 1217.57 L735.45 1195.67 Z" fill="#000000" fill-rule="nonzero" fill-opacity="1" /><path clip-path="url(#clip590)" d="M763.991 1198.75 Q760.38 1198.75 758.552 1202.31 Q756.746 1205.86 756.746 1212.98 Q756.746 1220.09 758.552 1223.66 Q760.38 1227.2 763.991 1227.2 Q767.626 1227.2 769.431 1223.66 Q771.26 1220.09 771.26 1212.98 Q771.26 1205.86 769.431 1202.31 Q767.626 1198.75 763.991 1198.75 M763.991 1195.05 Q769.802 1195.05 772.857 1199.65 Q775.936 1204.24 775.936 1212.98 Q775.936 1221.71 772.857 1226.32 Q769.802 1230.9 763.991 1230.9 Q758.181 1230.9 755.103 1226.32 Q752.047 1221.71 752.047 1212.98 Q752.047 1204.24 755.103 1199.65 Q758.181 1195.05 763.991 1195.05 Z" fill="#000000" fill-rule="nonzero" fill-opacity="1" /><path clip-path="url(#clip590)" d="M990.407 1211.09 Q987.259 1211.09 985.407 1213.24 Q983.578 1215.39 983.578 1219.14 Q983.578 1222.87 985.407 1225.05 Q987.259 1227.2 990.407 1227.2 Q993.555 1227.2 995.384 1225.05 Q997.236 1222.87 997.236 1219.14 Q997.236 1215.39 995.384 1213.24 Q993.555 1211.09 990.407 1211.09 M999.689 1196.43 L999.689 1200.69 Q997.93 1199.86 996.125 1199.42 Q994.342 1198.98 992.583 1198.98 Q987.953 1198.98 985.5 1202.11 Q983.069 1205.23 982.722 1211.55 Q984.088 1209.54 986.148 1208.47 Q988.208 1207.38 990.685 1207.38 Q995.893 1207.38 998.902 1210.55 Q1001.93 1213.7 1001.93 1219.14 Q1001.93 1224.47 998.787 1227.68 Q995.638 1230.9 990.407 1230.9 Q984.412 1230.9 981.24 1226.32 Q978.069 1221.71 978.069 1212.98 Q978.069 1204.79 981.958 1199.93 Q985.847 1195.05 992.398 1195.05 Q994.157 1195.05 995.939 1195.39 Q997.745 1195.74 999.689 1196.43 Z" fill="#000000" fill-rule="nonzero" fill-opacity="1" /><path clip-path="url(#clip590)" d="M1019.99 1198.75 Q1016.38 1198.75 1014.55 1202.31 Q1012.74 1205.86 1012.74 1212.98 Q1012.74 1220.09 1014.55 1223.66 Q1016.38 1227.2 1019.99 1227.2 Q1023.62 1227.2 1025.43 1223.66 Q1027.26 1220.09 1027.26 1212.98 Q1027.26 1205.86 1025.43 1202.31 Q1023.62 1198.75 1019.99 1198.75 M1019.99 1195.05 Q1025.8 1195.05 1028.86 1199.65 Q1031.93 1204.24 1031.93 1212.98 Q1031.93 1221.71 1028.86 1226.32 Q1025.8 1230.9 1019.99 1230.9 Q1014.18 1230.9 1011.1 1226.32 Q1008.05 1221.71 1008.05 1212.98 Q1008.05 1204.24 1011.1 1199.65 Q1014.18 1195.05 1019.99 1195.05 Z" fill="#000000" fill-rule="nonzero" fill-opacity="1" /><path clip-path="url(#clip590)" d="M1246.37 1213.82 Q1243.04 1213.82 1241.12 1215.6 Q1239.22 1217.38 1239.22 1220.51 Q1239.22 1223.63 1241.12 1225.42 Q1243.04 1227.2 1246.37 1227.2 Q1249.7 1227.2 1251.63 1225.42 Q1253.55 1223.61 1253.55 1220.51 Q1253.55 1217.38 1251.63 1215.6 Q1249.73 1213.82 1246.37 1213.82 M1241.7 1211.83 Q1238.69 1211.09 1237 1209.03 Q1235.33 1206.97 1235.33 1204 Q1235.33 1199.86 1238.27 1197.45 Q1241.23 1195.05 1246.37 1195.05 Q1251.53 1195.05 1254.47 1197.45 Q1257.41 1199.86 1257.41 1204 Q1257.41 1206.97 1255.72 1209.03 Q1254.06 1211.09 1251.07 1211.83 Q1254.45 1212.61 1256.32 1214.91 Q1258.22 1217.2 1258.22 1220.51 Q1258.22 1225.53 1255.14 1228.22 Q1252.09 1230.9 1246.37 1230.9 Q1240.65 1230.9 1237.57 1228.22 Q1234.52 1225.53 1234.52 1220.51 Q1234.52 1217.2 1236.42 1214.91 Q1238.32 1212.61 1241.7 1211.83 M1239.98 1204.44 Q1239.98 1207.13 1241.65 1208.63 Q1243.34 1210.14 1246.37 1210.14 Q1249.38 1210.14 1251.07 1208.63 Q1252.78 1207.13 1252.78 1204.44 Q1252.78 1201.76 1251.07 1200.25 Q1249.38 1198.75 1246.37 1198.75 Q1243.34 1198.75 1241.65 1200.25 Q1239.98 1201.76 1239.98 1204.44 Z" fill="#000000" fill-rule="nonzero" fill-opacity="1" /><path clip-path="url(#clip590)" d="M1276.53 1198.75 Q1272.92 1198.75 1271.09 1202.31 Q1269.29 1205.86 1269.29 1212.98 Q1269.29 1220.09 1271.09 1223.66 Q1272.92 1227.2 1276.53 1227.2 Q1280.17 1227.2 1281.97 1223.66 Q1283.8 1220.09 1283.8 1212.98 Q1283.8 1205.86 1281.97 1202.31 Q1280.17 1198.75 1276.53 1198.75 M1276.53 1195.05 Q1282.34 1195.05 1285.4 1199.65 Q1288.48 1204.24 1288.48 1212.98 Q1288.48 1221.71 1285.4 1226.32 Q1282.34 1230.9 1276.53 1230.9 Q1270.72 1230.9 1267.64 1226.32 Q1264.59 1221.71 1264.59 1212.98 Q1264.59 1204.24 1267.64 1199.65 Q1270.72 1195.05 1276.53 1195.05 Z" fill="#000000" fill-rule="nonzero" fill-opacity="1" /><path clip-path="url(#clip590)" d="M1477.6 1226.3 L1485.24 1226.3 L1485.24 1199.93 L1476.93 1201.6 L1476.93 1197.34 L1485.19 1195.67 L1489.87 1195.67 L1489.87 1226.3 L1497.51 1226.3 L1497.51 1230.23 L1477.6 1230.23 L1477.6 1226.3 Z" fill="#000000" fill-rule="nonzero" fill-opacity="1" /><path clip-path="url(#clip590)" d="M1516.95 1198.75 Q1513.34 1198.75 1511.51 1202.31 Q1509.71 1205.86 1509.71 1212.98 Q1509.71 1220.09 1511.51 1223.66 Q1513.34 1227.2 1516.95 1227.2 Q1520.59 1227.2 1522.39 1223.66 Q1524.22 1220.09 1524.22 1212.98 Q1524.22 1205.86 1522.39 1202.31 Q1520.59 1198.75 1516.95 1198.75 M1516.95 1195.05 Q1522.76 1195.05 1525.82 1199.65 Q1528.9 1204.24 1528.9 1212.98 Q1528.9 1221.71 1525.82 1226.32 Q1522.76 1230.9 1516.95 1230.9 Q1511.14 1230.9 1508.06 1226.32 Q1505.01 1221.71 1505.01 1212.98 Q1505.01 1204.24 1508.06 1199.65 Q1511.14 1195.05 1516.95 1195.05 Z" fill="#000000" fill-rule="nonzero" fill-opacity="1" /><path clip-path="url(#clip590)" d="M1547.11 1198.75 Q1543.5 1198.75 1541.67 1202.31 Q1539.87 1205.86 1539.87 1212.98 Q1539.87 1220.09 1541.67 1223.66 Q1543.5 1227.2 1547.11 1227.2 Q1550.75 1227.2 1552.55 1223.66 Q1554.38 1220.09 1554.38 1212.98 Q1554.38 1205.86 1552.55 1202.31 Q1550.75 1198.75 1547.11 1198.75 M1547.11 1195.05 Q1552.92 1195.05 1555.98 1199.65 Q1559.06 1204.24 1559.06 1212.98 Q1559.06 1221.71 1555.98 1226.32 Q1552.92 1230.9 1547.11 1230.9 Q1541.3 1230.9 1538.23 1226.32 Q1535.17 1221.71 1535.17 1212.98 Q1535.17 1204.24 1538.23 1199.65 Q1541.3 1195.05 1547.11 1195.05 Z" fill="#000000" fill-rule="nonzero" fill-opacity="1" /><path clip-path="url(#clip590)" d="M1734.1 1226.3 L1741.74 1226.3 L1741.74 1199.93 L1733.43 1201.6 L1733.43 1197.34 L1741.69 1195.67 L1746.37 1195.67 L1746.37 1226.3 L1754 1226.3 L1754 1230.23 L1734.1 1230.23 L1734.1 1226.3 Z" fill="#000000" fill-rule="nonzero" fill-opacity="1" /><path clip-path="url(#clip590)" d="M1767.48 1226.3 L1783.8 1226.3 L1783.8 1230.23 L1761.85 1230.23 L1761.85 1226.3 Q1764.51 1223.54 1769.1 1218.91 Q1773.7 1214.26 1774.88 1212.92 Q1777.13 1210.39 1778.01 1208.66 Q1778.91 1206.9 1778.91 1205.21 Q1778.91 1202.45 1776.97 1200.72 Q1775.05 1198.98 1771.94 1198.98 Q1769.75 1198.98 1767.29 1199.74 Q1764.86 1200.51 1762.08 1202.06 L1762.08 1197.34 Q1764.91 1196.2 1767.36 1195.62 Q1769.82 1195.05 1771.85 1195.05 Q1777.22 1195.05 1780.42 1197.73 Q1783.61 1200.42 1783.61 1204.91 Q1783.61 1207.04 1782.8 1208.96 Q1782.01 1210.86 1779.91 1213.45 Q1779.33 1214.12 1776.23 1217.34 Q1773.13 1220.53 1767.48 1226.3 Z" fill="#000000" fill-rule="nonzero" fill-opacity="1" /><path clip-path="url(#clip590)" d="M1803.61 1198.75 Q1800 1198.75 1798.17 1202.31 Q1796.37 1205.86 1796.37 1212.98 Q1796.37 1220.09 1798.17 1223.66 Q1800 1227.2 1803.61 1227.2 Q1807.25 1227.2 1809.05 1223.66 Q1810.88 1220.09 1810.88 1212.98 Q1810.88 1205.86 1809.05 1202.31 Q1807.25 1198.75 1803.61 1198.75 M1803.61 1195.05 Q1809.42 1195.05 1812.48 1199.65 Q1815.56 1204.24 1815.56 1212.98 Q1815.56 1221.71 1812.48 1226.32 Q1809.42 1230.9 1803.61 1230.9 Q1797.8 1230.9 1794.72 1226.32 Q1791.67 1221.71 1791.67 1212.98 Q1791.67 1204.24 1794.72 1199.65 Q1797.8 1195.05 1803.61 1195.05 Z" fill="#000000" fill-rule="nonzero" fill-opacity="1" /><polyline clip-path="url(#clip590)" style="stroke:#000000; stroke-linecap:round; stroke-linejoin:round; stroke-width:4; stroke-opacity:1; fill:none" points="185.496,1171.03 185.496,107.256 "/>
<polyline clip-path="url(#clip590)" style="stroke:#000000; stroke-linecap:round; stroke-linejoin:round; stroke-width:4; stroke-opacity:1; fill:none" points="185.496,1087.43 204.394,1087.43 "/>
<polyline clip-path="url(#clip590)" style="stroke:#000000; stroke-linecap:round; stroke-linejoin:round; stroke-width:4; stroke-opacity:1; fill:none" points="185.496,849.911 204.394,849.911 "/>
<polyline clip-path="url(#clip590)" style="stroke:#000000; stroke-linecap:round; stroke-linejoin:round; stroke-width:4; stroke-opacity:1; fill:none" points="185.496,612.395 204.394,612.395 "/>
<polyline clip-path="url(#clip590)" style="stroke:#000000; stroke-linecap:round; stroke-linejoin:round; stroke-width:4; stroke-opacity:1; fill:none" points="185.496,374.879 204.394,374.879 "/>
<polyline clip-path="url(#clip590)" style="stroke:#000000; stroke-linecap:round; stroke-linejoin:round; stroke-width:4; stroke-opacity:1; fill:none" points="185.496,137.363 204.394,137.363 "/>
<path clip-path="url(#clip590)" d="M53.6634 1107.22 L61.3023 1107.22 L61.3023 1080.85 L52.9921 1082.52 L52.9921 1078.26 L61.256 1076.59 L65.9319 1076.59 L65.9319 1107.22 L73.5707 1107.22 L73.5707 1111.15 L53.6634 1111.15 L53.6634 1107.22 Z" fill="#000000" fill-rule="nonzero" fill-opacity="1" /><path clip-path="url(#clip590)" d="M93.0151 1079.67 Q89.404 1079.67 87.5753 1083.24 Q85.7697 1086.78 85.7697 1093.91 Q85.7697 1101.02 87.5753 1104.58 Q89.404 1108.12 93.0151 1108.12 Q96.6493 1108.12 98.4548 1104.58 Q100.284 1101.02 100.284 1093.91 Q100.284 1086.78 98.4548 1083.24 Q96.6493 1079.67 93.0151 1079.67 M93.0151 1075.97 Q98.8252 1075.97 101.881 1080.58 Q104.959 1085.16 104.959 1093.91 Q104.959 1102.64 101.881 1107.24 Q98.8252 1111.83 93.0151 1111.83 Q87.2049 1111.83 84.1262 1107.24 Q81.0707 1102.64 81.0707 1093.91 Q81.0707 1085.16 84.1262 1080.58 Q87.2049 1075.97 93.0151 1075.97 Z" fill="#000000" fill-rule="nonzero" fill-opacity="1" /><path clip-path="url(#clip590)" d="M104.959 1070.07 L129.071 1070.07 L129.071 1073.27 L104.959 1073.27 L104.959 1070.07 Z" fill="#000000" fill-rule="nonzero" fill-opacity="1" /><path clip-path="url(#clip590)" d="M147.71 1058.97 L138.118 1073.96 L147.71 1073.96 L147.71 1058.97 M146.713 1055.66 L151.49 1055.66 L151.49 1073.96 L155.496 1073.96 L155.496 1077.12 L151.49 1077.12 L151.49 1083.74 L147.71 1083.74 L147.71 1077.12 L135.033 1077.12 L135.033 1073.46 L146.713 1055.66 Z" fill="#000000" fill-rule="nonzero" fill-opacity="1" /><path clip-path="url(#clip590)" d="M54.585 869.703 L62.2238 869.703 L62.2238 843.338 L53.9137 845.004 L53.9137 840.745 L62.1776 839.079 L66.8535 839.079 L66.8535 869.703 L74.4923 869.703 L74.4923 873.639 L54.585 873.639 L54.585 869.703 Z" fill="#000000" fill-rule="nonzero" fill-opacity="1" /><path clip-path="url(#clip590)" d="M93.9366 842.157 Q90.3255 842.157 88.4969 845.722 Q86.6913 849.264 86.6913 856.393 Q86.6913 863.5 88.4969 867.065 Q90.3255 870.606 93.9366 870.606 Q97.5709 870.606 99.3764 867.065 Q101.205 863.5 101.205 856.393 Q101.205 849.264 99.3764 845.722 Q97.5709 842.157 93.9366 842.157 M93.9366 838.454 Q99.7468 838.454 102.802 843.06 Q105.881 847.643 105.881 856.393 Q105.881 865.12 102.802 869.727 Q99.7468 874.31 93.9366 874.31 Q88.1265 874.31 85.0478 869.727 Q81.9923 865.12 81.9923 856.393 Q81.9923 847.643 85.0478 843.06 Q88.1265 838.454 93.9366 838.454 Z" fill="#000000" fill-rule="nonzero" fill-opacity="1" /><path clip-path="url(#clip590)" d="M105.881 832.555 L129.993 832.555 L129.993 835.752 L105.881 835.752 L105.881 832.555 Z" fill="#000000" fill-rule="nonzero" fill-opacity="1" /><path clip-path="url(#clip590)" d="M149.703 831.088 Q152.43 831.671 153.954 833.514 Q155.496 835.357 155.496 838.066 Q155.496 842.222 152.637 844.498 Q149.778 846.774 144.512 846.774 Q142.744 846.774 140.863 846.416 Q139.002 846.078 137.008 845.382 L137.008 841.714 Q138.588 842.636 140.469 843.106 Q142.349 843.576 144.399 843.576 Q147.973 843.576 149.835 842.166 Q151.716 840.755 151.716 838.066 Q151.716 835.583 149.966 834.191 Q148.236 832.781 145.133 832.781 L141.86 832.781 L141.86 829.659 L145.283 829.659 Q148.086 829.659 149.571 828.549 Q151.057 827.42 151.057 825.314 Q151.057 823.151 149.515 822.004 Q147.992 820.838 145.133 820.838 Q143.572 820.838 141.785 821.176 Q139.998 821.515 137.854 822.229 L137.854 818.844 Q140.017 818.242 141.898 817.941 Q143.797 817.64 145.471 817.64 Q149.797 817.64 152.317 819.615 Q154.838 821.571 154.838 824.919 Q154.838 827.251 153.502 828.869 Q152.167 830.467 149.703 831.088 Z" fill="#000000" fill-rule="nonzero" fill-opacity="1" /><path clip-path="url(#clip590)" d="M55.3561 632.187 L62.995 632.187 L62.995 605.822 L54.6848 607.488 L54.6848 603.229 L62.9487 601.562 L67.6246 601.562 L67.6246 632.187 L75.2634 632.187 L75.2634 636.122 L55.3561 636.122 L55.3561 632.187 Z" fill="#000000" fill-rule="nonzero" fill-opacity="1" /><path clip-path="url(#clip590)" d="M94.7078 604.641 Q91.0967 604.641 89.268 608.206 Q87.4624 611.748 87.4624 618.877 Q87.4624 625.984 89.268 629.548 Q91.0967 633.09 94.7078 633.09 Q98.342 633.09 100.148 629.548 Q101.976 625.984 101.976 618.877 Q101.976 611.748 100.148 608.206 Q98.342 604.641 94.7078 604.641 M94.7078 600.937 Q100.518 600.937 103.573 605.544 Q106.652 610.127 106.652 618.877 Q106.652 627.604 103.573 632.21 Q100.518 636.794 94.7078 636.794 Q88.8976 636.794 85.8189 632.21 Q82.7634 627.604 82.7634 618.877 Q82.7634 610.127 85.8189 605.544 Q88.8976 600.937 94.7078 600.937 Z" fill="#000000" fill-rule="nonzero" fill-opacity="1" /><path clip-path="url(#clip590)" d="M106.652 595.039 L130.764 595.039 L130.764 598.236 L106.652 598.236 L106.652 595.039 Z" fill="#000000" fill-rule="nonzero" fill-opacity="1" /><path clip-path="url(#clip590)" d="M142.236 605.515 L155.496 605.515 L155.496 608.712 L137.666 608.712 L137.666 605.515 Q139.829 603.277 143.553 599.515 Q147.296 595.735 148.255 594.644 Q150.079 592.594 150.794 591.183 Q151.527 589.754 151.527 588.381 Q151.527 586.143 149.948 584.732 Q148.387 583.322 145.866 583.322 Q144.08 583.322 142.086 583.942 Q140.111 584.563 137.854 585.823 L137.854 581.986 Q140.149 581.065 142.142 580.594 Q144.136 580.124 145.791 580.124 Q150.155 580.124 152.75 582.306 Q155.345 584.488 155.345 588.136 Q155.345 589.867 154.687 591.428 Q154.048 592.97 152.336 595.076 Q151.866 595.622 149.346 598.236 Q146.826 600.832 142.236 605.515 Z" fill="#000000" fill-rule="nonzero" fill-opacity="1" /><path clip-path="url(#clip590)" d="M55.0552 394.671 L62.694 394.671 L62.694 368.306 L54.3839 369.972 L54.3839 365.713 L62.6477 364.046 L67.3236 364.046 L67.3236 394.671 L74.9625 394.671 L74.9625 398.606 L55.0552 398.606 L55.0552 394.671 Z" fill="#000000" fill-rule="nonzero" fill-opacity="1" /><path clip-path="url(#clip590)" d="M94.4068 367.125 Q90.7957 367.125 88.967 370.69 Q87.1615 374.232 87.1615 381.361 Q87.1615 388.468 88.967 392.032 Q90.7957 395.574 94.4068 395.574 Q98.0411 395.574 99.8466 392.032 Q101.675 388.468 101.675 381.361 Q101.675 374.232 99.8466 370.69 Q98.0411 367.125 94.4068 367.125 M94.4068 363.421 Q100.217 363.421 103.273 368.028 Q106.351 372.611 106.351 381.361 Q106.351 390.088 103.273 394.694 Q100.217 399.278 94.4068 399.278 Q88.5967 399.278 85.518 394.694 Q82.4625 390.088 82.4625 381.361 Q82.4625 372.611 85.518 368.028 Q88.5967 363.421 94.4068 363.421 Z" fill="#000000" fill-rule="nonzero" fill-opacity="1" /><path clip-path="url(#clip590)" d="M106.351 357.523 L130.463 357.523 L130.463 360.72 L106.351 360.72 L106.351 357.523 Z" fill="#000000" fill-rule="nonzero" fill-opacity="1" /><path clip-path="url(#clip590)" d="M139.321 367.999 L145.528 367.999 L145.528 346.577 L138.776 347.931 L138.776 344.47 L145.49 343.116 L149.289 343.116 L149.289 367.999 L155.496 367.999 L155.496 371.196 L139.321 371.196 L139.321 367.999 Z" fill="#000000" fill-rule="nonzero" fill-opacity="1" /><path clip-path="url(#clip590)" d="M84.7903 157.155 L92.4291 157.155 L92.4291 130.79 L84.119 132.456 L84.119 128.197 L92.3828 126.53 L97.0587 126.53 L97.0587 157.155 L104.698 157.155 L104.698 161.09 L84.7903 161.09 L84.7903 157.155 Z" fill="#000000" fill-rule="nonzero" fill-opacity="1" /><path clip-path="url(#clip590)" d="M124.142 129.609 Q120.531 129.609 118.702 133.174 Q116.897 136.715 116.897 143.845 Q116.897 150.951 118.702 154.516 Q120.531 158.058 124.142 158.058 Q127.776 158.058 129.582 154.516 Q131.41 150.951 131.41 143.845 Q131.41 136.715 129.582 133.174 Q127.776 129.609 124.142 129.609 M124.142 125.905 Q129.952 125.905 133.008 130.512 Q136.086 135.095 136.086 143.845 Q136.086 152.572 133.008 157.178 Q129.952 161.762 124.142 161.762 Q118.332 161.762 115.253 157.178 Q112.198 152.572 112.198 143.845 Q112.198 135.095 115.253 130.512 Q118.332 125.905 124.142 125.905 Z" fill="#000000" fill-rule="nonzero" fill-opacity="1" /><path clip-path="url(#clip590)" d="M145.791 108.101 Q142.857 108.101 141.371 110.998 Q139.904 113.875 139.904 119.668 Q139.904 125.442 141.371 128.338 Q142.857 131.216 145.791 131.216 Q148.744 131.216 150.211 128.338 Q151.697 125.442 151.697 119.668 Q151.697 113.875 150.211 110.998 Q148.744 108.101 145.791 108.101 M145.791 105.092 Q150.512 105.092 152.994 108.835 Q155.496 112.559 155.496 119.668 Q155.496 126.759 152.994 130.501 Q150.512 134.225 145.791 134.225 Q141.07 134.225 138.569 130.501 Q136.086 126.759 136.086 119.668 Q136.086 112.559 138.569 108.835 Q141.07 105.092 145.791 105.092 Z" fill="#000000" fill-rule="nonzero" fill-opacity="1" /><g clip-path="url(#clip590)">
<text style="fill:#000000; fill-opacity:1; font-family:Arial,Helvetica Neue,Helvetica,sans-serif; font-size:66px; text-anchor:middle;" transform="rotate(0, 1069.13, 57.6)" x="1069.13" y="57.6">Diagonal preconditioning in CG</text>
</g>
<polyline clip-path="url(#clip592)" style="stroke:#009af9; stroke-linecap:round; stroke-linejoin:round; stroke-width:8; stroke-opacity:1; fill:none" points="235.513,137.363 248.338,175.287 261.162,249.844 273.987,284.415 286.812,284.677 299.637,288.496 312.462,311.132 325.286,345.855 338.111,366.744 350.936,374.712 363.761,378.638 376.586,390.202 389.411,406.865 402.235,420.493 415.06,429.663 427.885,434.334 440.71,441.606 453.535,449.948 466.359,459.397 479.184,464.75 492.009,467.828 504.834,470.594 517.659,474.01 530.484,479.223 543.308,482.255 556.133,485.865 568.958,486.892 581.783,491.865 594.608,494.275 607.432,497.71 620.257,501.729 633.082,507.148 645.907,512.126 658.732,516.754 671.557,521.779 684.381,529.07 697.206,531.821 710.031,538.258 722.856,542.797 735.681,548.29 748.505,552.007 761.33,556.6 774.155,559.357 786.98,563.774 799.805,567.206 812.63,570.906 825.454,574.336 838.279,578.123 851.104,584.759 863.929,591.919 876.754,597.546 889.578,606.297 902.403,613.532 915.228,620.79 928.053,629.39 940.878,634.641 953.703,639.983 966.527,647.971 979.352,656.119 992.177,662.398 1005,669.368 1017.83,675.49 1030.65,683.101 1043.48,688.93 1056.3,693.953 1069.13,699.091 1081.95,703.003 1094.78,707.103 1107.6,713.265 1120.43,719.487 1133.25,726.544 1146.07,734.51 1158.9,744.116 1171.72,754.969 1184.55,763.784 1197.37,773.69 1210.2,785.387 1223.02,796.127 1235.85,804.578 1248.67,815.888 1261.5,822.227 1274.32,831.143 1287.15,837.544 1299.97,846.836 1312.8,849.592 1325.62,855.222 1338.45,859.218 1351.27,859.652 1364.1,860.674 1376.92,864.336 1389.75,860.304 1402.57,860.899 1415.4,861.426 1428.22,865.53 1441.05,867.519 1453.87,871.432 1466.7,874.771 1479.52,879.184 1492.34,885.678 1505.17,892.684 1517.99,901.558 1530.82,909.364 1543.64,920.817 1556.47,927.259 1569.29,938.274 1582.12,946.923 1594.94,958.631 1607.77,969.301 1620.59,975.989 1633.42,984.46 1646.24,992.348 1659.07,999.628 1671.89,1007.41 1684.72,1014.82 1697.54,1022.1 1710.37,1028.08 1723.19,1034.67 1736.02,1042.83 1748.84,1047.04 1761.67,1054.71 1774.49,1059.93 1787.32,1066.67 1800.14,1076.38 1812.97,1083.6 1825.79,1090.9 1838.62,1098.34 1851.44,1106.75 1864.26,1114.46 1877.09,1121.71 1889.91,1131.5 1902.74,1140.92 "/>
<polyline clip-path="url(#clip592)" style="stroke:#e26f46; stroke-linecap:round; stroke-linejoin:round; stroke-width:8; stroke-opacity:1; fill:none" points="235.513,137.363 248.338,201.976 261.162,275.704 273.987,339.633 286.812,390.945 299.637,446.859 312.462,496.095 325.286,542.353 338.111,575.621 350.936,614.667 363.761,679.778 376.586,741.144 389.411,796.718 402.235,846.03 415.06,897.23 427.885,940.474 440.71,980.426 453.535,1023.23 466.359,1074.1 "/>
<path clip-path="url(#clip590)" d="M1369.58 298.235 L1893.85 298.235 L1893.85 142.715 L1369.58 142.715  Z" fill="#ffffff" fill-rule="evenodd" fill-opacity="1"/>
<polyline clip-path="url(#clip590)" style="stroke:#000000; stroke-linecap:round; stroke-linejoin:round; stroke-width:4; stroke-opacity:1; fill:none" points="1369.58,298.235 1893.85,298.235 1893.85,142.715 1369.58,142.715 1369.58,298.235 "/>
<polyline clip-path="url(#clip590)" style="stroke:#009af9; stroke-linecap:round; stroke-linejoin:round; stroke-width:8; stroke-opacity:1; fill:none" points="1389.21,194.555 1507.03,194.555 "/>
<path clip-path="url(#clip590)" d="M1530.95 207.946 L1530.95 221.696 L1526.67 221.696 L1526.67 185.909 L1530.95 185.909 L1530.95 189.844 Q1532.29 187.53 1534.33 186.418 Q1536.39 185.284 1539.24 185.284 Q1543.96 185.284 1546.9 189.034 Q1549.86 192.784 1549.86 198.895 Q1549.86 205.006 1546.9 208.756 Q1543.96 212.506 1539.24 212.506 Q1536.39 212.506 1534.33 211.395 Q1532.29 210.261 1530.95 207.946 M1545.44 198.895 Q1545.44 194.196 1543.5 191.534 Q1541.57 188.849 1538.19 188.849 Q1534.81 188.849 1532.87 191.534 Q1530.95 194.196 1530.95 198.895 Q1530.95 203.594 1532.87 206.28 Q1534.81 208.942 1538.19 208.942 Q1541.57 208.942 1543.5 206.28 Q1545.44 203.594 1545.44 198.895 Z" fill="#000000" fill-rule="nonzero" fill-opacity="1" /><path clip-path="url(#clip590)" d="M1556.92 175.817 L1561.18 175.817 L1561.18 211.835 L1556.92 211.835 L1556.92 175.817 Z" fill="#000000" fill-rule="nonzero" fill-opacity="1" /><path clip-path="url(#clip590)" d="M1581.87 198.803 Q1576.71 198.803 1574.72 199.983 Q1572.73 201.164 1572.73 204.011 Q1572.73 206.28 1574.21 207.622 Q1575.72 208.942 1578.29 208.942 Q1581.83 208.942 1583.96 206.442 Q1586.11 203.918 1586.11 199.752 L1586.11 198.803 L1581.87 198.803 M1590.37 197.043 L1590.37 211.835 L1586.11 211.835 L1586.11 207.9 Q1584.65 210.261 1582.48 211.395 Q1580.3 212.506 1577.15 212.506 Q1573.17 212.506 1570.81 210.284 Q1568.47 208.039 1568.47 204.289 Q1568.47 199.914 1571.39 197.692 Q1574.33 195.469 1580.14 195.469 L1586.11 195.469 L1586.11 195.053 Q1586.11 192.113 1584.17 190.516 Q1582.24 188.895 1578.75 188.895 Q1576.53 188.895 1574.42 189.428 Q1572.31 189.96 1570.37 191.025 L1570.37 187.09 Q1572.71 186.187 1574.91 185.747 Q1577.11 185.284 1579.19 185.284 Q1584.81 185.284 1587.59 188.201 Q1590.37 191.118 1590.37 197.043 Z" fill="#000000" fill-rule="nonzero" fill-opacity="1" /><path clip-path="url(#clip590)" d="M1599.14 185.909 L1603.4 185.909 L1603.4 211.835 L1599.14 211.835 L1599.14 185.909 M1599.14 175.817 L1603.4 175.817 L1603.4 181.21 L1599.14 181.21 L1599.14 175.817 Z" fill="#000000" fill-rule="nonzero" fill-opacity="1" /><path clip-path="url(#clip590)" d="M1633.87 196.187 L1633.87 211.835 L1629.61 211.835 L1629.61 196.326 Q1629.61 192.645 1628.17 190.817 Q1626.74 188.988 1623.87 188.988 Q1620.42 188.988 1618.43 191.187 Q1616.43 193.386 1616.43 197.182 L1616.43 211.835 L1612.15 211.835 L1612.15 185.909 L1616.43 185.909 L1616.43 189.937 Q1617.96 187.599 1620.02 186.442 Q1622.11 185.284 1624.81 185.284 Q1629.28 185.284 1631.57 188.062 Q1633.87 190.817 1633.87 196.187 Z" fill="#000000" fill-rule="nonzero" fill-opacity="1" /><polyline clip-path="url(#clip590)" style="stroke:#e26f46; stroke-linecap:round; stroke-linejoin:round; stroke-width:8; stroke-opacity:1; fill:none" points="1389.21,246.395 1507.03,246.395 "/>
<path clip-path="url(#clip590)" d="M1530.95 259.786 L1530.95 273.536 L1526.67 273.536 L1526.67 237.749 L1530.95 237.749 L1530.95 241.684 Q1532.29 239.37 1534.33 238.258 Q1536.39 237.124 1539.24 237.124 Q1543.96 237.124 1546.9 240.874 Q1549.86 244.624 1549.86 250.735 Q1549.86 256.846 1546.9 260.596 Q1543.96 264.346 1539.24 264.346 Q1536.39 264.346 1534.33 263.235 Q1532.29 262.101 1530.95 259.786 M1545.44 250.735 Q1545.44 246.036 1543.5 243.374 Q1541.57 240.689 1538.19 240.689 Q1534.81 240.689 1532.87 243.374 Q1530.95 246.036 1530.95 250.735 Q1530.95 255.434 1532.87 258.12 Q1534.81 260.782 1538.19 260.782 Q1541.57 260.782 1543.5 258.12 Q1545.44 255.434 1545.44 250.735 Z" fill="#000000" fill-rule="nonzero" fill-opacity="1" /><path clip-path="url(#clip590)" d="M1571.94 241.731 Q1571.23 241.314 1570.37 241.129 Q1569.54 240.921 1568.52 240.921 Q1564.91 240.921 1562.96 243.282 Q1561.04 245.62 1561.04 250.018 L1561.04 263.675 L1556.76 263.675 L1556.76 237.749 L1561.04 237.749 L1561.04 241.777 Q1562.38 239.416 1564.54 238.282 Q1566.69 237.124 1569.77 237.124 Q1570.21 237.124 1570.74 237.194 Q1571.27 237.24 1571.92 237.356 L1571.94 241.731 Z" fill="#000000" fill-rule="nonzero" fill-opacity="1" /><path clip-path="url(#clip590)" d="M1597.55 249.647 L1597.55 251.731 L1577.96 251.731 Q1578.24 256.129 1580.6 258.444 Q1582.99 260.735 1587.22 260.735 Q1589.68 260.735 1591.97 260.133 Q1594.28 259.532 1596.55 258.328 L1596.55 262.356 Q1594.26 263.328 1591.85 263.837 Q1589.44 264.346 1586.97 264.346 Q1580.76 264.346 1577.13 260.735 Q1573.52 257.124 1573.52 250.967 Q1573.52 244.601 1576.94 240.874 Q1580.39 237.124 1586.23 237.124 Q1591.46 237.124 1594.49 240.504 Q1597.55 243.86 1597.55 249.647 M1593.29 248.397 Q1593.24 244.902 1591.32 242.819 Q1589.42 240.735 1586.27 240.735 Q1582.71 240.735 1580.56 242.749 Q1578.43 244.763 1578.1 248.42 L1593.29 248.397 Z" fill="#000000" fill-rule="nonzero" fill-opacity="1" /><path clip-path="url(#clip590)" d="M1623.19 238.745 L1623.19 242.726 Q1621.39 241.731 1619.56 241.245 Q1617.75 240.735 1615.9 240.735 Q1611.76 240.735 1609.47 243.374 Q1607.18 245.99 1607.18 250.735 Q1607.18 255.481 1609.47 258.12 Q1611.76 260.735 1615.9 260.735 Q1617.75 260.735 1619.56 260.249 Q1621.39 259.74 1623.19 258.744 L1623.19 262.68 Q1621.41 263.513 1619.49 263.93 Q1617.59 264.346 1615.44 264.346 Q1609.58 264.346 1606.13 260.666 Q1602.68 256.985 1602.68 250.735 Q1602.68 244.393 1606.16 240.758 Q1609.65 237.124 1615.72 237.124 Q1617.68 237.124 1619.56 237.541 Q1621.43 237.934 1623.19 238.745 Z" fill="#000000" fill-rule="nonzero" fill-opacity="1" /><path clip-path="url(#clip590)" d="M1640.65 240.735 Q1637.22 240.735 1635.23 243.421 Q1633.24 246.083 1633.24 250.735 Q1633.24 255.388 1635.21 258.073 Q1637.2 260.735 1640.65 260.735 Q1644.05 260.735 1646.04 258.05 Q1648.03 255.365 1648.03 250.735 Q1648.03 246.129 1646.04 243.444 Q1644.05 240.735 1640.65 240.735 M1640.65 237.124 Q1646.2 237.124 1649.37 240.735 Q1652.55 244.346 1652.55 250.735 Q1652.55 257.101 1649.37 260.735 Q1646.2 264.346 1640.65 264.346 Q1635.07 264.346 1631.9 260.735 Q1628.75 257.101 1628.75 250.735 Q1628.75 244.346 1631.9 240.735 Q1635.07 237.124 1640.65 237.124 Z" fill="#000000" fill-rule="nonzero" fill-opacity="1" /><path clip-path="url(#clip590)" d="M1681.16 248.027 L1681.16 263.675 L1676.9 263.675 L1676.9 248.166 Q1676.9 244.485 1675.46 242.657 Q1674.03 240.828 1671.16 240.828 Q1667.71 240.828 1665.72 243.027 Q1663.73 245.226 1663.73 249.022 L1663.73 263.675 L1659.44 263.675 L1659.44 237.749 L1663.73 237.749 L1663.73 241.777 Q1665.25 239.439 1667.31 238.282 Q1669.4 237.124 1672.11 237.124 Q1676.57 237.124 1678.86 239.902 Q1681.16 242.657 1681.16 248.027 Z" fill="#000000" fill-rule="nonzero" fill-opacity="1" /><path clip-path="url(#clip590)" d="M1706.71 241.684 L1706.71 227.657 L1710.97 227.657 L1710.97 263.675 L1706.71 263.675 L1706.71 259.786 Q1705.37 262.101 1703.31 263.235 Q1701.27 264.346 1698.4 264.346 Q1693.7 264.346 1690.74 260.596 Q1687.8 256.846 1687.8 250.735 Q1687.8 244.624 1690.74 240.874 Q1693.7 237.124 1698.4 237.124 Q1701.27 237.124 1703.31 238.258 Q1705.37 239.37 1706.71 241.684 M1692.2 250.735 Q1692.2 255.434 1694.12 258.12 Q1696.06 260.782 1699.44 260.782 Q1702.82 260.782 1704.77 258.12 Q1706.71 255.434 1706.71 250.735 Q1706.71 246.036 1704.77 243.374 Q1702.82 240.689 1699.44 240.689 Q1696.06 240.689 1694.12 243.374 Q1692.2 246.036 1692.2 250.735 Z" fill="#000000" fill-rule="nonzero" fill-opacity="1" /><path clip-path="url(#clip590)" d="M1719.74 237.749 L1724 237.749 L1724 263.675 L1719.74 263.675 L1719.74 237.749 M1719.74 227.657 L1724 227.657 L1724 233.05 L1719.74 233.05 L1719.74 227.657 Z" fill="#000000" fill-rule="nonzero" fill-opacity="1" /><path clip-path="url(#clip590)" d="M1737.13 230.388 L1737.13 237.749 L1745.9 237.749 L1745.9 241.059 L1737.13 241.059 L1737.13 255.133 Q1737.13 258.305 1737.98 259.207 Q1738.86 260.11 1741.53 260.11 L1745.9 260.11 L1745.9 263.675 L1741.53 263.675 Q1736.6 263.675 1734.72 261.846 Q1732.85 259.994 1732.85 255.133 L1732.85 241.059 L1729.72 241.059 L1729.72 237.749 L1732.85 237.749 L1732.85 230.388 L1737.13 230.388 Z" fill="#000000" fill-rule="nonzero" fill-opacity="1" /><path clip-path="url(#clip590)" d="M1751.5 237.749 L1755.76 237.749 L1755.76 263.675 L1751.5 263.675 L1751.5 237.749 M1751.5 227.657 L1755.76 227.657 L1755.76 233.05 L1751.5 233.05 L1751.5 227.657 Z" fill="#000000" fill-rule="nonzero" fill-opacity="1" /><path clip-path="url(#clip590)" d="M1774.72 240.735 Q1771.29 240.735 1769.3 243.421 Q1767.31 246.083 1767.31 250.735 Q1767.31 255.388 1769.28 258.073 Q1771.27 260.735 1774.72 260.735 Q1778.12 260.735 1780.11 258.05 Q1782.11 255.365 1782.11 250.735 Q1782.11 246.129 1780.11 243.444 Q1778.12 240.735 1774.72 240.735 M1774.72 237.124 Q1780.28 237.124 1783.45 240.735 Q1786.62 244.346 1786.62 250.735 Q1786.62 257.101 1783.45 260.735 Q1780.28 264.346 1774.72 264.346 Q1769.14 264.346 1765.97 260.735 Q1762.82 257.101 1762.82 250.735 Q1762.82 244.346 1765.97 240.735 Q1769.14 237.124 1774.72 237.124 Z" fill="#000000" fill-rule="nonzero" fill-opacity="1" /><path clip-path="url(#clip590)" d="M1815.23 248.027 L1815.23 263.675 L1810.97 263.675 L1810.97 248.166 Q1810.97 244.485 1809.54 242.657 Q1808.1 240.828 1805.23 240.828 Q1801.78 240.828 1799.79 243.027 Q1797.8 245.226 1797.8 249.022 L1797.8 263.675 L1793.52 263.675 L1793.52 237.749 L1797.8 237.749 L1797.8 241.777 Q1799.33 239.439 1801.39 238.282 Q1803.47 237.124 1806.18 237.124 Q1810.65 237.124 1812.94 239.902 Q1815.23 242.657 1815.23 248.027 Z" fill="#000000" fill-rule="nonzero" fill-opacity="1" /><path clip-path="url(#clip590)" d="M1845.9 249.647 L1845.9 251.731 L1826.32 251.731 Q1826.6 256.129 1828.96 258.444 Q1831.34 260.735 1835.58 260.735 Q1838.03 260.735 1840.32 260.133 Q1842.64 259.532 1844.91 258.328 L1844.91 262.356 Q1842.61 263.328 1840.21 263.837 Q1837.8 264.346 1835.32 264.346 Q1829.12 264.346 1825.48 260.735 Q1821.87 257.124 1821.87 250.967 Q1821.87 244.601 1825.3 240.874 Q1828.75 237.124 1834.58 237.124 Q1839.81 237.124 1842.85 240.504 Q1845.9 243.86 1845.9 249.647 M1841.64 248.397 Q1841.6 244.902 1839.67 242.819 Q1837.78 240.735 1834.63 240.735 Q1831.06 240.735 1828.91 242.749 Q1826.78 244.763 1826.46 248.42 L1841.64 248.397 Z" fill="#000000" fill-rule="nonzero" fill-opacity="1" /><path clip-path="url(#clip590)" d="M1869.95 241.684 L1869.95 227.657 L1874.21 227.657 L1874.21 263.675 L1869.95 263.675 L1869.95 259.786 Q1868.61 262.101 1866.55 263.235 Q1864.51 264.346 1861.64 264.346 Q1856.94 264.346 1853.98 260.596 Q1851.04 256.846 1851.04 250.735 Q1851.04 244.624 1853.98 240.874 Q1856.94 237.124 1861.64 237.124 Q1864.51 237.124 1866.55 238.258 Q1868.61 239.37 1869.95 241.684 M1855.44 250.735 Q1855.44 255.434 1857.36 258.12 Q1859.3 260.782 1862.68 260.782 Q1866.06 260.782 1868.01 258.12 Q1869.95 255.434 1869.95 250.735 Q1869.95 246.036 1868.01 243.374 Q1866.06 240.689 1862.68 240.689 Q1859.3 240.689 1857.36 243.374 Q1855.44 246.036 1855.44 250.735 Z" fill="#000000" fill-rule="nonzero" fill-opacity="1" /></svg>
