<?xml version="1.0" encoding="utf-8"?>
<svg xmlns="http://www.w3.org/2000/svg" xmlns:xlink="http://www.w3.org/1999/xlink" width="500" height="320" viewBox="0 0 2000 1280">
<defs>
  <clipPath id="clip990">
    <rect x="0" y="0" width="2000" height="1280"/>
  </clipPath>
</defs>
<path clip-path="url(#clip990)" d="M0 1280 L2000 1280 L2000 0 L0 0  Z" fill="#ffffff" fill-rule="evenodd" fill-opacity="1"/>
<defs>
  <clipPath id="clip991">
    <rect x="400" y="0" width="1401" height="1280"/>
  </clipPath>
</defs>
<path clip-path="url(#clip990)" d="M185.496 1171.03 L1952.76 1171.03 L1952.76 107.256 L185.496 107.256  Z" fill="#ffffff" fill-rule="evenodd" fill-opacity="1"/>
<defs>
  <clipPath id="clip992">
    <rect x="185" y="107" width="1768" height="1065"/>
  </clipPath>
</defs>
<polyline clip-path="url(#clip992)" style="stroke:#000000; stroke-linecap:round; stroke-linejoin:round; stroke-width:2; stroke-opacity:0.1; fill:none" points="235.513,1171.03 235.513,107.256 "/>
<polyline clip-path="url(#clip992)" style="stroke:#000000; stroke-linecap:round; stroke-linejoin:round; stroke-width:2; stroke-opacity:0.1; fill:none" points="539.751,1171.03 539.751,107.256 "/>
<polyline clip-path="url(#clip992)" style="stroke:#000000; stroke-linecap:round; stroke-linejoin:round; stroke-width:2; stroke-opacity:0.1; fill:none" points="843.989,1171.03 843.989,107.256 "/>
<polyline clip-path="url(#clip992)" style="stroke:#000000; stroke-linecap:round; stroke-linejoin:round; stroke-width:2; stroke-opacity:0.1; fill:none" points="1148.23,1171.03 1148.23,107.256 "/>
<polyline clip-path="url(#clip992)" style="stroke:#000000; stroke-linecap:round; stroke-linejoin:round; stroke-width:2; stroke-opacity:0.1; fill:none" points="1452.47,1171.03 1452.47,107.256 "/>
<polyline clip-path="url(#clip992)" style="stroke:#000000; stroke-linecap:round; stroke-linejoin:round; stroke-width:2; stroke-opacity:0.1; fill:none" points="1756.7,1171.03 1756.7,107.256 "/>
<polyline clip-path="url(#clip992)" style="stroke:#000000; stroke-linecap:round; stroke-linejoin:round; stroke-width:2; stroke-opacity:0.1; fill:none" points="185.496,1089.61 1952.76,1089.61 "/>
<polyline clip-path="url(#clip992)" style="stroke:#000000; stroke-linecap:round; stroke-linejoin:round; stroke-width:2; stroke-opacity:0.1; fill:none" points="185.496,851.547 1952.76,851.547 "/>
<polyline clip-path="url(#clip992)" style="stroke:#000000; stroke-linecap:round; stroke-linejoin:round; stroke-width:2; stroke-opacity:0.1; fill:none" points="185.496,613.486 1952.76,613.486 "/>
<polyline clip-path="url(#clip992)" style="stroke:#000000; stroke-linecap:round; stroke-linejoin:round; stroke-width:2; stroke-opacity:0.1; fill:none" points="185.496,375.424 1952.76,375.424 "/>
<polyline clip-path="url(#clip992)" style="stroke:#000000; stroke-linecap:round; stroke-linejoin:round; stroke-width:2; stroke-opacity:0.1; fill:none" points="185.496,137.363 1952.76,137.363 "/>
<polyline clip-path="url(#clip990)" style="stroke:#000000; stroke-linecap:round; stroke-linejoin:round; stroke-width:4; stroke-opacity:1; fill:none" points="185.496,1171.03 1952.76,1171.03 "/>
<polyline clip-path="url(#clip990)" style="stroke:#000000; stroke-linecap:round; stroke-linejoin:round; stroke-width:4; stroke-opacity:1; fill:none" points="235.513,1171.03 235.513,1152.13 "/>
<polyline clip-path="url(#clip990)" style="stroke:#000000; stroke-linecap:round; stroke-linejoin:round; stroke-width:4; stroke-opacity:1; fill:none" points="539.751,1171.03 539.751,1152.13 "/>
<polyline clip-path="url(#clip990)" style="stroke:#000000; stroke-linecap:round; stroke-linejoin:round; stroke-width:4; stroke-opacity:1; fill:none" points="843.989,1171.03 843.989,1152.13 "/>
<polyline clip-path="url(#clip990)" style="stroke:#000000; stroke-linecap:round; stroke-linejoin:round; stroke-width:4; stroke-opacity:1; fill:none" points="1148.23,1171.03 1148.23,1152.13 "/>
<polyline clip-path="url(#clip990)" style="stroke:#000000; stroke-linecap:round; stroke-linejoin:round; stroke-width:4; stroke-opacity:1; fill:none" points="1452.47,1171.03 1452.47,1152.13 "/>
<polyline clip-path="url(#clip990)" style="stroke:#000000; stroke-linecap:round; stroke-linejoin:round; stroke-width:4; stroke-opacity:1; fill:none" points="1756.7,1171.03 1756.7,1152.13 "/>
<path clip-path="url(#clip990)" d="M235.513 1198.75 Q231.902 1198.75 230.073 1202.31 Q228.267 1205.86 228.267 1212.98 Q228.267 1220.09 230.073 1223.66 Q231.902 1227.2 235.513 1227.2 Q239.147 1227.2 240.952 1223.66 Q242.781 1220.09 242.781 1212.98 Q242.781 1205.86 240.952 1202.31 Q239.147 1198.75 235.513 1198.75 M235.513 1195.05 Q241.323 1195.05 244.378 1199.65 Q247.457 1204.24 247.457 1212.98 Q247.457 1221.71 244.378 1226.32 Q241.323 1230.9 235.513 1230.9 Q229.703 1230.9 226.624 1226.32 Q223.568 1221.71 223.568 1212.98 Q223.568 1204.24 226.624 1199.65 Q229.703 1195.05 235.513 1195.05 Z" fill="#000000" fill-rule="nonzero" fill-opacity="1" /><path clip-path="url(#clip990)" d="M519.022 1226.3 L535.341 1226.3 L535.341 1230.23 L513.397 1230.23 L513.397 1226.3 Q516.059 1223.54 520.642 1218.91 Q525.249 1214.26 526.429 1212.92 Q528.675 1210.39 529.554 1208.66 Q530.457 1206.9 530.457 1205.21 Q530.457 1202.45 528.513 1200.72 Q526.591 1198.98 523.49 1198.98 Q521.291 1198.98 518.837 1199.74 Q516.406 1200.51 513.629 1202.06 L513.629 1197.34 Q516.453 1196.2 518.906 1195.62 Q521.36 1195.05 523.397 1195.05 Q528.767 1195.05 531.962 1197.73 Q535.156 1200.42 535.156 1204.91 Q535.156 1207.04 534.346 1208.96 Q533.559 1210.86 531.453 1213.45 Q530.874 1214.12 527.772 1217.34 Q524.67 1220.53 519.022 1226.3 Z" fill="#000000" fill-rule="nonzero" fill-opacity="1" /><path clip-path="url(#clip990)" d="M545.202 1195.67 L563.559 1195.67 L563.559 1199.61 L549.485 1199.61 L549.485 1208.08 Q550.503 1207.73 551.522 1207.57 Q552.54 1207.38 553.559 1207.38 Q559.346 1207.38 562.726 1210.55 Q566.105 1213.73 566.105 1219.14 Q566.105 1224.72 562.633 1227.82 Q559.161 1230.9 552.841 1230.9 Q550.665 1230.9 548.397 1230.53 Q546.152 1230.16 543.744 1229.42 L543.744 1224.72 Q545.827 1225.86 548.05 1226.41 Q550.272 1226.97 552.749 1226.97 Q556.753 1226.97 559.091 1224.86 Q561.429 1222.75 561.429 1219.14 Q561.429 1215.53 559.091 1213.42 Q556.753 1211.32 552.749 1211.32 Q550.874 1211.32 548.999 1211.74 Q547.147 1212.15 545.202 1213.03 L545.202 1195.67 Z" fill="#000000" fill-rule="nonzero" fill-opacity="1" /><path clip-path="url(#clip990)" d="M818.689 1195.67 L837.045 1195.67 L837.045 1199.61 L822.971 1199.61 L822.971 1208.08 Q823.99 1207.73 825.008 1207.57 Q826.027 1207.38 827.045 1207.38 Q832.832 1207.38 836.212 1210.55 Q839.591 1213.73 839.591 1219.14 Q839.591 1224.72 836.119 1227.82 Q832.647 1230.9 826.328 1230.9 Q824.152 1230.9 821.883 1230.53 Q819.638 1230.16 817.23 1229.42 L817.23 1224.72 Q819.314 1225.86 821.536 1226.41 Q823.758 1226.97 826.235 1226.97 Q830.24 1226.97 832.578 1224.86 Q834.915 1222.75 834.915 1219.14 Q834.915 1215.53 832.578 1213.42 Q830.24 1211.32 826.235 1211.32 Q824.36 1211.32 822.485 1211.74 Q820.633 1212.15 818.689 1213.03 L818.689 1195.67 Z" fill="#000000" fill-rule="nonzero" fill-opacity="1" /><path clip-path="url(#clip990)" d="M858.804 1198.75 Q855.193 1198.75 853.364 1202.31 Q851.559 1205.86 851.559 1212.98 Q851.559 1220.09 853.364 1223.66 Q855.193 1227.2 858.804 1227.2 Q862.438 1227.2 864.244 1223.66 Q866.073 1220.09 866.073 1212.98 Q866.073 1205.86 864.244 1202.31 Q862.438 1198.75 858.804 1198.75 M858.804 1195.05 Q864.614 1195.05 867.67 1199.65 Q870.749 1204.24 870.749 1212.98 Q870.749 1221.71 867.67 1226.32 Q864.614 1230.9 858.804 1230.9 Q852.994 1230.9 849.915 1226.32 Q846.86 1221.71 846.86 1212.98 Q846.86 1204.24 849.915 1199.65 Q852.994 1195.05 858.804 1195.05 Z" fill="#000000" fill-rule="nonzero" fill-opacity="1" /><path clip-path="url(#clip990)" d="M1122.08 1195.67 L1144.3 1195.67 L1144.3 1197.66 L1131.76 1230.23 L1126.87 1230.23 L1138.68 1199.61 L1122.08 1199.61 L1122.08 1195.67 Z" fill="#000000" fill-rule="nonzero" fill-opacity="1" /><path clip-path="url(#clip990)" d="M1153.47 1195.67 L1171.83 1195.67 L1171.83 1199.61 L1157.75 1199.61 L1157.75 1208.08 Q1158.77 1207.73 1159.79 1207.57 Q1160.81 1207.38 1161.83 1207.38 Q1167.61 1207.38 1170.99 1210.55 Q1174.37 1213.73 1174.37 1219.14 Q1174.37 1224.72 1170.9 1227.82 Q1167.43 1230.9 1161.11 1230.9 Q1158.93 1230.9 1156.67 1230.53 Q1154.42 1230.16 1152.01 1229.42 L1152.01 1224.72 Q1154.1 1225.86 1156.32 1226.41 Q1158.54 1226.97 1161.02 1226.97 Q1165.02 1226.97 1167.36 1224.86 Q1169.7 1222.75 1169.7 1219.14 Q1169.7 1215.53 1167.36 1213.42 Q1165.02 1211.32 1161.02 1211.32 Q1159.14 1211.32 1157.27 1211.74 Q1155.42 1212.15 1153.47 1213.03 L1153.47 1195.67 Z" fill="#000000" fill-rule="nonzero" fill-opacity="1" /><path clip-path="url(#clip990)" d="M1412.07 1226.3 L1419.71 1226.3 L1419.71 1199.93 L1411.4 1201.6 L1411.4 1197.34 L1419.67 1195.67 L1424.34 1195.67 L1424.34 1226.3 L1431.98 1226.3 L1431.98 1230.23 L1412.07 1230.23 L1412.07 1226.3 Z" fill="#000000" fill-rule="nonzero" fill-opacity="1" /><path clip-path="url(#clip990)" d="M1451.42 1198.75 Q1447.81 1198.75 1445.98 1202.31 Q1444.18 1205.86 1444.18 1212.98 Q1444.18 1220.09 1445.98 1223.66 Q1447.81 1227.2 1451.42 1227.2 Q1455.06 1227.2 1456.86 1223.66 Q1458.69 1220.09 1458.69 1212.98 Q1458.69 1205.86 1456.86 1202.31 Q1455.06 1198.75 1451.42 1198.75 M1451.42 1195.05 Q1457.23 1195.05 1460.29 1199.65 Q1463.37 1204.24 1463.37 1212.98 Q1463.37 1221.71 1460.29 1226.32 Q1457.23 1230.9 1451.42 1230.9 Q1445.61 1230.9 1442.54 1226.32 Q1439.48 1221.71 1439.48 1212.98 Q1439.48 1204.24 1442.54 1199.65 Q1445.61 1195.05 1451.42 1195.05 Z" fill="#000000" fill-rule="nonzero" fill-opacity="1" /><path clip-path="url(#clip990)" d="M1481.59 1198.75 Q1477.98 1198.75 1476.15 1202.31 Q1474.34 1205.86 1474.34 1212.98 Q1474.34 1220.09 1476.15 1223.66 Q1477.98 1227.2 1481.59 1227.2 Q1485.22 1227.2 1487.03 1223.66 Q1488.85 1220.09 1488.85 1212.98 Q1488.85 1205.86 1487.03 1202.31 Q1485.22 1198.75 1481.59 1198.75 M1481.59 1195.05 Q1487.4 1195.05 1490.45 1199.65 Q1493.53 1204.24 1493.53 1212.98 Q1493.53 1221.71 1490.45 1226.32 Q1487.4 1230.9 1481.59 1230.9 Q1475.78 1230.9 1472.7 1226.32 Q1469.64 1221.71 1469.64 1212.98 Q1469.64 1204.24 1472.7 1199.65 Q1475.78 1195.05 1481.59 1195.05 Z" fill="#000000" fill-rule="nonzero" fill-opacity="1" /><path clip-path="url(#clip990)" d="M1716.81 1226.3 L1724.45 1226.3 L1724.45 1199.93 L1716.14 1201.6 L1716.14 1197.34 L1724.4 1195.67 L1729.08 1195.67 L1729.08 1226.3 L1736.72 1226.3 L1736.72 1230.23 L1716.81 1230.23 L1716.81 1226.3 Z" fill="#000000" fill-rule="nonzero" fill-opacity="1" /><path clip-path="url(#clip990)" d="M1750.19 1226.3 L1766.51 1226.3 L1766.51 1230.23 L1744.56 1230.23 L1744.56 1226.3 Q1747.23 1223.54 1751.81 1218.91 Q1756.42 1214.26 1757.6 1212.92 Q1759.84 1210.39 1760.72 1208.66 Q1761.62 1206.9 1761.62 1205.21 Q1761.62 1202.45 1759.68 1200.72 Q1757.76 1198.98 1754.66 1198.98 Q1752.46 1198.98 1750 1199.74 Q1747.57 1200.51 1744.8 1202.06 L1744.8 1197.34 Q1747.62 1196.2 1750.07 1195.62 Q1752.53 1195.05 1754.56 1195.05 Q1759.93 1195.05 1763.13 1197.73 Q1766.32 1200.42 1766.32 1204.91 Q1766.32 1207.04 1765.51 1208.96 Q1764.73 1210.86 1762.62 1213.45 Q1762.04 1214.12 1758.94 1217.34 Q1755.84 1220.53 1750.19 1226.3 Z" fill="#000000" fill-rule="nonzero" fill-opacity="1" /><path clip-path="url(#clip990)" d="M1776.37 1195.67 L1794.73 1195.67 L1794.73 1199.61 L1780.65 1199.61 L1780.65 1208.08 Q1781.67 1207.73 1782.69 1207.57 Q1783.71 1207.38 1784.73 1207.38 Q1790.51 1207.38 1793.89 1210.55 Q1797.27 1213.73 1797.27 1219.14 Q1797.27 1224.72 1793.8 1227.82 Q1790.33 1230.9 1784.01 1230.9 Q1781.83 1230.9 1779.56 1230.53 Q1777.32 1230.16 1774.91 1229.42 L1774.91 1224.72 Q1776.99 1225.86 1779.22 1226.41 Q1781.44 1226.97 1783.92 1226.97 Q1787.92 1226.97 1790.26 1224.86 Q1792.6 1222.75 1792.6 1219.14 Q1792.6 1215.53 1790.26 1213.42 Q1787.92 1211.32 1783.92 1211.32 Q1782.04 1211.32 1780.17 1211.74 Q1778.31 1212.15 1776.37 1213.03 L1776.37 1195.67 Z" fill="#000000" fill-rule="nonzero" fill-opacity="1" /><polyline clip-path="url(#clip990)" style="stroke:#000000; stroke-linecap:round; stroke-linejoin:round; stroke-width:4; stroke-opacity:1; fill:none" points="185.496,1171.03 185.496,107.256 "/>
<polyline clip-path="url(#clip990)" style="stroke:#000000; stroke-linecap:round; stroke-linejoin:round; stroke-width:4; stroke-opacity:1; fill:none" points="185.496,1089.61 204.394,1089.61 "/>
<polyline clip-path="url(#clip990)" style="stroke:#000000; stroke-linecap:round; stroke-linejoin:round; stroke-width:4; stroke-opacity:1; fill:none" points="185.496,851.547 204.394,851.547 "/>
<polyline clip-path="url(#clip990)" style="stroke:#000000; stroke-linecap:round; stroke-linejoin:round; stroke-width:4; stroke-opacity:1; fill:none" points="185.496,613.486 204.394,613.486 "/>
<polyline clip-path="url(#clip990)" style="stroke:#000000; stroke-linecap:round; stroke-linejoin:round; stroke-width:4; stroke-opacity:1; fill:none" points="185.496,375.424 204.394,375.424 "/>
<polyline clip-path="url(#clip990)" style="stroke:#000000; stroke-linecap:round; stroke-linejoin:round; stroke-width:4; stroke-opacity:1; fill:none" points="185.496,137.363 204.394,137.363 "/>
<path clip-path="url(#clip990)" d="M53.6634 1109.4 L61.3023 1109.4 L61.3023 1083.04 L52.9921 1084.7 L52.9921 1080.44 L61.256 1078.78 L65.9319 1078.78 L65.9319 1109.4 L73.5707 1109.4 L73.5707 1113.34 L53.6634 1113.34 L53.6634 1109.4 Z" fill="#000000" fill-rule="nonzero" fill-opacity="1" /><path clip-path="url(#clip990)" d="M93.0151 1081.86 Q89.404 1081.86 87.5753 1085.42 Q85.7697 1088.96 85.7697 1096.09 Q85.7697 1103.2 87.5753 1106.76 Q89.404 1110.3 93.0151 1110.3 Q96.6493 1110.3 98.4548 1106.76 Q100.284 1103.2 100.284 1096.09 Q100.284 1088.96 98.4548 1085.42 Q96.6493 1081.86 93.0151 1081.86 M93.0151 1078.15 Q98.8252 1078.15 101.881 1082.76 Q104.959 1087.34 104.959 1096.09 Q104.959 1104.82 101.881 1109.42 Q98.8252 1114.01 93.0151 1114.01 Q87.2049 1114.01 84.1262 1109.42 Q81.0707 1104.82 81.0707 1096.09 Q81.0707 1087.34 84.1262 1082.76 Q87.2049 1078.15 93.0151 1078.15 Z" fill="#000000" fill-rule="nonzero" fill-opacity="1" /><path clip-path="url(#clip990)" d="M104.959 1072.25 L129.071 1072.25 L129.071 1075.45 L104.959 1075.45 L104.959 1072.25 Z" fill="#000000" fill-rule="nonzero" fill-opacity="1" /><path clip-path="url(#clip990)" d="M147.71 1061.16 L138.118 1076.15 L147.71 1076.15 L147.71 1061.16 M146.713 1057.85 L151.49 1057.85 L151.49 1076.15 L155.496 1076.15 L155.496 1079.31 L151.49 1079.31 L151.49 1085.93 L147.71 1085.93 L147.71 1079.31 L135.033 1079.31 L135.033 1075.64 L146.713 1057.85 Z" fill="#000000" fill-rule="nonzero" fill-opacity="1" /><path clip-path="url(#clip990)" d="M54.585 871.34 L62.2238 871.34 L62.2238 844.974 L53.9137 846.641 L53.9137 842.382 L62.1776 840.715 L66.8535 840.715 L66.8535 871.34 L74.4923 871.34 L74.4923 875.275 L54.585 875.275 L54.585 871.34 Z" fill="#000000" fill-rule="nonzero" fill-opacity="1" /><path clip-path="url(#clip990)" d="M93.9366 843.794 Q90.3255 843.794 88.4969 847.358 Q86.6913 850.9 86.6913 858.03 Q86.6913 865.136 88.4969 868.701 Q90.3255 872.243 93.9366 872.243 Q97.5709 872.243 99.3764 868.701 Q101.205 865.136 101.205 858.03 Q101.205 850.9 99.3764 847.358 Q97.5709 843.794 93.9366 843.794 M93.9366 840.09 Q99.7468 840.09 102.802 844.696 Q105.881 849.28 105.881 858.03 Q105.881 866.756 102.802 871.363 Q99.7468 875.946 93.9366 875.946 Q88.1265 875.946 85.0478 871.363 Q81.9923 866.756 81.9923 858.03 Q81.9923 849.28 85.0478 844.696 Q88.1265 840.09 93.9366 840.09 Z" fill="#000000" fill-rule="nonzero" fill-opacity="1" /><path clip-path="url(#clip990)" d="M105.881 834.191 L129.993 834.191 L129.993 837.389 L105.881 837.389 L105.881 834.191 Z" fill="#000000" fill-rule="nonzero" fill-opacity="1" /><path clip-path="url(#clip990)" d="M149.703 832.724 Q152.43 833.307 153.954 835.15 Q155.496 836.994 155.496 839.702 Q155.496 843.858 152.637 846.134 Q149.778 848.41 144.512 848.41 Q142.744 848.41 140.863 848.053 Q139.002 847.714 137.008 847.018 L137.008 843.351 Q138.588 844.272 140.469 844.742 Q142.349 845.213 144.399 845.213 Q147.973 845.213 149.835 843.802 Q151.716 842.391 151.716 839.702 Q151.716 837.219 149.966 835.828 Q148.236 834.417 145.133 834.417 L141.86 834.417 L141.86 831.295 L145.283 831.295 Q148.086 831.295 149.571 830.185 Q151.057 829.057 151.057 826.95 Q151.057 824.787 149.515 823.64 Q147.992 822.474 145.133 822.474 Q143.572 822.474 141.785 822.813 Q139.998 823.151 137.854 823.866 L137.854 820.48 Q140.017 819.879 141.898 819.578 Q143.797 819.277 145.471 819.277 Q149.797 819.277 152.317 821.252 Q154.838 823.208 154.838 826.555 Q154.838 828.887 153.502 830.505 Q152.167 832.104 149.703 832.724 Z" fill="#000000" fill-rule="nonzero" fill-opacity="1" /><path clip-path="url(#clip990)" d="M55.3561 633.278 L62.995 633.278 L62.995 606.913 L54.6848 608.579 L54.6848 604.32 L62.9487 602.653 L67.6246 602.653 L67.6246 633.278 L75.2634 633.278 L75.2634 637.213 L55.3561 637.213 L55.3561 633.278 Z" fill="#000000" fill-rule="nonzero" fill-opacity="1" /><path clip-path="url(#clip990)" d="M94.7078 605.732 Q91.0967 605.732 89.268 609.297 Q87.4624 612.839 87.4624 619.968 Q87.4624 627.075 89.268 630.639 Q91.0967 634.181 94.7078 634.181 Q98.342 634.181 100.148 630.639 Q101.976 627.075 101.976 619.968 Q101.976 612.839 100.148 609.297 Q98.342 605.732 94.7078 605.732 M94.7078 602.028 Q100.518 602.028 103.573 606.635 Q106.652 611.218 106.652 619.968 Q106.652 628.695 103.573 633.301 Q100.518 637.885 94.7078 637.885 Q88.8976 637.885 85.8189 633.301 Q82.7634 628.695 82.7634 619.968 Q82.7634 611.218 85.8189 606.635 Q88.8976 602.028 94.7078 602.028 Z" fill="#000000" fill-rule="nonzero" fill-opacity="1" /><path clip-path="url(#clip990)" d="M106.652 596.13 L130.764 596.13 L130.764 599.327 L106.652 599.327 L106.652 596.13 Z" fill="#000000" fill-rule="nonzero" fill-opacity="1" /><path clip-path="url(#clip990)" d="M142.236 606.606 L155.496 606.606 L155.496 609.803 L137.666 609.803 L137.666 606.606 Q139.829 604.368 143.553 600.606 Q147.296 596.826 148.255 595.735 Q150.079 593.685 150.794 592.274 Q151.527 590.845 151.527 589.472 Q151.527 587.234 149.948 585.823 Q148.387 584.412 145.866 584.412 Q144.08 584.412 142.086 585.033 Q140.111 585.654 137.854 586.914 L137.854 583.077 Q140.149 582.156 142.142 581.685 Q144.136 581.215 145.791 581.215 Q150.155 581.215 152.75 583.397 Q155.345 585.579 155.345 589.227 Q155.345 590.958 154.687 592.519 Q154.048 594.061 152.336 596.167 Q151.866 596.713 149.346 599.327 Q146.826 601.923 142.236 606.606 Z" fill="#000000" fill-rule="nonzero" fill-opacity="1" /><path clip-path="url(#clip990)" d="M55.0552 395.217 L62.694 395.217 L62.694 368.851 L54.3839 370.518 L54.3839 366.258 L62.6477 364.592 L67.3236 364.592 L67.3236 395.217 L74.9625 395.217 L74.9625 399.152 L55.0552 399.152 L55.0552 395.217 Z" fill="#000000" fill-rule="nonzero" fill-opacity="1" /><path clip-path="url(#clip990)" d="M94.4068 367.671 Q90.7957 367.671 88.967 371.235 Q87.1615 374.777 87.1615 381.907 Q87.1615 389.013 88.967 392.578 Q90.7957 396.119 94.4068 396.119 Q98.0411 396.119 99.8466 392.578 Q101.675 389.013 101.675 381.907 Q101.675 374.777 99.8466 371.235 Q98.0411 367.671 94.4068 367.671 M94.4068 363.967 Q100.217 363.967 103.273 368.573 Q106.351 373.157 106.351 381.907 Q106.351 390.633 103.273 395.24 Q100.217 399.823 94.4068 399.823 Q88.5967 399.823 85.518 395.24 Q82.4625 390.633 82.4625 381.907 Q82.4625 373.157 85.518 368.573 Q88.5967 363.967 94.4068 363.967 Z" fill="#000000" fill-rule="nonzero" fill-opacity="1" /><path clip-path="url(#clip990)" d="M106.351 358.068 L130.463 358.068 L130.463 361.266 L106.351 361.266 L106.351 358.068 Z" fill="#000000" fill-rule="nonzero" fill-opacity="1" /><path clip-path="url(#clip990)" d="M139.321 368.544 L145.528 368.544 L145.528 347.122 L138.776 348.476 L138.776 345.016 L145.49 343.661 L149.289 343.661 L149.289 368.544 L155.496 368.544 L155.496 371.741 L139.321 371.741 L139.321 368.544 Z" fill="#000000" fill-rule="nonzero" fill-opacity="1" /><path clip-path="url(#clip990)" d="M84.7903 157.155 L92.4291 157.155 L92.4291 130.79 L84.119 132.456 L84.119 128.197 L92.3828 126.53 L97.0587 126.53 L97.0587 157.155 L104.698 157.155 L104.698 161.09 L84.7903 161.09 L84.7903 157.155 Z" fill="#000000" fill-rule="nonzero" fill-opacity="1" /><path clip-path="url(#clip990)" d="M124.142 129.609 Q120.531 129.609 118.702 133.174 Q116.897 136.715 116.897 143.845 Q116.897 150.951 118.702 154.516 Q120.531 158.058 124.142 158.058 Q127.776 158.058 129.582 154.516 Q131.41 150.951 131.41 143.845 Q131.41 136.715 129.582 133.174 Q127.776 129.609 124.142 129.609 M124.142 125.905 Q129.952 125.905 133.008 130.512 Q136.086 135.095 136.086 143.845 Q136.086 152.572 133.008 157.178 Q129.952 161.762 124.142 161.762 Q118.332 161.762 115.253 157.178 Q112.198 152.572 112.198 143.845 Q112.198 135.095 115.253 130.512 Q118.332 125.905 124.142 125.905 Z" fill="#000000" fill-rule="nonzero" fill-opacity="1" /><path clip-path="url(#clip990)" d="M145.791 108.101 Q142.857 108.101 141.371 110.998 Q139.904 113.875 139.904 119.668 Q139.904 125.442 141.371 128.338 Q142.857 131.216 145.791 131.216 Q148.744 131.216 150.211 128.338 Q151.697 125.442 151.697 119.668 Q151.697 113.875 150.211 110.998 Q148.744 108.101 145.791 108.101 M145.791 105.092 Q150.512 105.092 152.994 108.835 Q155.496 112.559 155.496 119.668 Q155.496 126.759 152.994 130.501 Q150.512 134.225 145.791 134.225 Q141.07 134.225 138.569 130.501 Q136.086 126.759 136.086 119.668 Q136.086 112.559 138.569 108.835 Q141.07 105.092 145.791 105.092 Z" fill="#000000" fill-rule="nonzero" fill-opacity="1" /><g clip-path="url(#clip990)">
<text style="fill:#000000; fill-opacity:1; font-family:Arial,Helvetica Neue,Helvetica,sans-serif; font-size:66px; text-anchor:middle;" transform="rotate(0, 1069.13, 57.6)" x="1069.13" y="57.6">Diagonal preconditioning in CG</text>
</g>
<polyline clip-path="url(#clip992)" style="stroke:#009af9; stroke-linecap:round; stroke-linejoin:round; stroke-width:8; stroke-opacity:1; fill:none" points="235.513,137.363 247.682,176.084 259.852,250.339 272.021,282.007 284.191,284.069 296.36,285.441 308.53,309.73 320.699,341.994 332.869,362.377 345.039,370.109 357.208,372.919 369.378,381.401 381.547,397.644 393.717,409.776 405.886,413.948 418.056,417.339 430.225,419.825 442.395,426.034 454.564,432.267 466.734,437.392 478.903,439.621 491.073,442.172 503.242,446.398 515.412,453.281 527.582,457.202 539.751,460.469 551.921,464.658 564.09,469.181 576.26,474.053 588.429,480.04 600.599,485.228 612.768,491.182 624.938,496.227 637.107,501.628 649.277,507.449 661.446,512.823 673.616,517.013 685.786,522 697.955,526.168 710.125,534.318 722.294,537.613 734.464,542.56 746.633,548.787 758.803,554.125 770.972,559.485 783.142,564.136 795.311,571.424 807.481,576.025 819.65,583.017 831.82,587.574 843.989,593.324 856.159,600.761 868.329,606.754 880.498,612.338 892.668,619.033 904.837,625.221 917.007,631.174 929.176,637.755 941.346,643.458 953.515,649.643 965.685,656.508 977.854,660.42 990.024,665.001 1002.19,672.749 1014.36,681.066 1026.53,686.311 1038.7,691.562 1050.87,699.704 1063.04,705.991 1075.21,710.368 1087.38,717.598 1099.55,723.957 1111.72,728.278 1123.89,734.489 1136.06,742.406 1148.23,744.984 1160.4,751.156 1172.57,755.828 1184.74,759.588 1196.91,765.333 1209.08,769.287 1221.25,774.949 1233.41,780.991 1245.58,786.189 1257.75,793.544 1269.92,801.457 1282.09,806.428 1294.26,814.951 1306.43,819.431 1318.6,825.558 1330.77,833.01 1342.94,841.496 1355.11,850.522 1367.28,857.829 1379.45,866.806 1391.62,874.285 1403.79,882.402 1415.96,889.54 1428.13,897.357 1440.3,903.627 1452.47,909.709 1464.64,916.641 1476.81,923.266 1488.97,928.852 1501.14,935.096 1513.31,940.121 1525.48,945.228 1537.65,950.616 1549.82,956.885 1561.99,961.793 1574.16,967.548 1586.33,974.424 1598.5,980.685 1610.67,986.596 1622.84,994.421 1635.01,1004.6 1647.18,1011.97 1659.35,1020.67 1671.52,1030.97 1683.69,1037.47 1695.86,1047.38 1708.03,1055.57 1720.2,1062.62 1732.37,1068.71 1744.54,1076.56 1756.7,1081.75 1768.87,1086.98 1781.04,1091.83 1793.21,1097.93 1805.38,1102.83 1817.55,1106.67 1829.72,1113.66 1841.89,1118.34 1854.06,1123.8 1866.23,1129.24 1878.4,1133.75 1890.57,1136.17 1902.74,1140.92 "/>
<polyline clip-path="url(#clip992)" style="stroke:#e26f46; stroke-linecap:round; stroke-linejoin:round; stroke-width:8; stroke-opacity:1; fill:none" points="235.513,137.363 247.682,193.547 259.852,269.864 272.021,335.36 284.191,391.036 296.36,444.89 308.53,487.951 320.699,540.317 332.869,578.92 345.039,611.048 357.208,673.839 369.378,742.403 381.547,797.999 393.717,841.894 405.886,893.717 418.056,944.588 430.225,979.317 442.395,1022.43 454.564,1074.45 "/>
<path clip-path="url(#clip990)" d="M1369.58 298.235 L1893.85 298.235 L1893.85 142.715 L1369.58 142.715  Z" fill="#ffffff" fill-rule="evenodd" fill-opacity="1"/>
<polyline clip-path="url(#clip990)" style="stroke:#000000; stroke-linecap:round; stroke-linejoin:round; stroke-width:4; stroke-opacity:1; fill:none" points="1369.58,298.235 1893.85,298.235 1893.85,142.715 1369.58,142.715 1369.58,298.235 "/>
<polyline clip-path="url(#clip990)" style="stroke:#009af9; stroke-linecap:round; stroke-linejoin:round; stroke-width:8; stroke-opacity:1; fill:none" points="1389.21,194.555 1507.03,194.555 "/>
<path clip-path="url(#clip990)" d="M1530.95 207.946 L1530.95 221.696 L1526.67 221.696 L1526.67 185.909 L1530.95 185.909 L1530.95 189.844 Q1532.29 187.53 1534.33 186.418 Q1536.39 185.284 1539.24 185.284 Q1543.96 185.284 1546.9 189.034 Q1549.86 192.784 1549.86 198.895 Q1549.86 205.006 1546.9 208.756 Q1543.96 212.506 1539.24 212.506 Q1536.39 212.506 1534.33 211.395 Q1532.29 210.261 1530.95 207.946 M1545.44 198.895 Q1545.44 194.196 1543.5 191.534 Q1541.57 188.849 1538.19 188.849 Q1534.81 188.849 1532.87 191.534 Q1530.95 194.196 1530.95 198.895 Q1530.95 203.594 1532.87 206.28 Q1534.81 208.942 1538.19 208.942 Q1541.57 208.942 1543.5 206.28 Q1545.44 203.594 1545.44 198.895 Z" fill="#000000" fill-rule="nonzero" fill-opacity="1" /><path clip-path="url(#clip990)" d="M1556.92 175.817 L1561.18 175.817 L1561.18 211.835 L1556.92 211.835 L1556.92 175.817 Z" fill="#000000" fill-rule="nonzero" fill-opacity="1" /><path clip-path="url(#clip990)" d="M1581.87 198.803 Q1576.71 198.803 1574.72 199.983 Q1572.73 201.164 1572.73 204.011 Q1572.73 206.28 1574.21 207.622 Q1575.72 208.942 1578.29 208.942 Q1581.83 208.942 1583.96 206.442 Q1586.11 203.918 1586.11 199.752 L1586.11 198.803 L1581.87 198.803 M1590.37 197.043 L1590.37 211.835 L1586.11 211.835 L1586.11 207.9 Q1584.65 210.261 1582.48 211.395 Q1580.3 212.506 1577.15 212.506 Q1573.17 212.506 1570.81 210.284 Q1568.47 208.039 1568.47 204.289 Q1568.47 199.914 1571.39 197.692 Q1574.33 195.469 1580.14 195.469 L1586.11 195.469 L1586.11 195.053 Q1586.11 192.113 1584.17 190.516 Q1582.24 188.895 1578.75 188.895 Q1576.53 188.895 1574.42 189.428 Q1572.31 189.96 1570.37 191.025 L1570.37 187.09 Q1572.71 186.187 1574.91 185.747 Q1577.11 185.284 1579.19 185.284 Q1584.81 185.284 1587.59 188.201 Q1590.37 191.118 1590.37 197.043 Z" fill="#000000" fill-rule="nonzero" fill-opacity="1" /><path clip-path="url(#clip990)" d="M1599.14 185.909 L1603.4 185.909 L1603.4 211.835 L1599.14 211.835 L1599.14 185.909 M1599.14 175.817 L1603.4 175.817 L1603.4 181.21 L1599.14 181.21 L1599.14 175.817 Z" fill="#000000" fill-rule="nonzero" fill-opacity="1" /><path clip-path="url(#clip990)" d="M1633.87 196.187 L1633.87 211.835 L1629.61 211.835 L1629.61 196.326 Q1629.61 192.645 1628.17 190.817 Q1626.74 188.988 1623.87 188.988 Q1620.42 188.988 1618.43 191.187 Q1616.43 193.386 1616.43 197.182 L1616.43 211.835 L1612.15 211.835 L1612.15 185.909 L1616.43 185.909 L1616.43 189.937 Q1617.96 187.599 1620.02 186.442 Q1622.11 185.284 1624.81 185.284 Q1629.28 185.284 1631.57 188.062 Q1633.87 190.817 1633.87 196.187 Z" fill="#000000" fill-rule="nonzero" fill-opacity="1" /><polyline clip-path="url(#clip990)" style="stroke:#e26f46; stroke-linecap:round; stroke-linejoin:round; stroke-width:8; stroke-opacity:1; fill:none" points="1389.21,246.395 1507.03,246.395 "/>
<path clip-path="url(#clip990)" d="M1530.95 259.786 L1530.95 273.536 L1526.67 273.536 L1526.67 237.749 L1530.95 237.749 L1530.95 241.684 Q1532.29 239.37 1534.33 238.258 Q1536.39 237.124 1539.24 237.124 Q1543.96 237.124 1546.9 240.874 Q1549.86 244.624 1549.86 250.735 Q1549.86 256.846 1546.9 260.596 Q1543.96 264.346 1539.24 264.346 Q1536.39 264.346 1534.33 263.235 Q1532.29 262.101 1530.95 259.786 M1545.44 250.735 Q1545.44 246.036 1543.5 243.374 Q1541.57 240.689 1538.19 240.689 Q1534.81 240.689 1532.87 243.374 Q1530.95 246.036 1530.95 250.735 Q1530.95 255.434 1532.87 258.12 Q1534.81 260.782 1538.19 260.782 Q1541.57 260.782 1543.5 258.12 Q1545.44 255.434 1545.44 250.735 Z" fill="#000000" fill-rule="nonzero" fill-opacity="1" /><path clip-path="url(#clip990)" d="M1571.94 241.731 Q1571.23 241.314 1570.37 241.129 Q1569.54 240.921 1568.52 240.921 Q1564.91 240.921 1562.96 243.282 Q1561.04 245.62 1561.04 250.018 L1561.04 263.675 L1556.76 263.675 L1556.76 237.749 L1561.04 237.749 L1561.04 241.777 Q1562.38 239.416 1564.54 238.282 Q1566.69 237.124 1569.77 237.124 Q1570.21 237.124 1570.74 237.194 Q1571.27 237.24 1571.92 237.356 L1571.94 241.731 Z" fill="#000000" fill-rule="nonzero" fill-opacity="1" /><path clip-path="url(#clip990)" d="M1597.55 249.647 L1597.55 251.731 L1577.96 251.731 Q1578.24 256.129 1580.6 258.444 Q1582.99 260.735 1587.22 260.735 Q1589.68 260.735 1591.97 260.133 Q1594.28 259.532 1596.55 258.328 L1596.55 262.356 Q1594.26 263.328 1591.85 263.837 Q1589.44 264.346 1586.97 264.346 Q1580.76 264.346 1577.13 260.735 Q1573.52 257.124 1573.52 250.967 Q1573.52 244.601 1576.94 240.874 Q1580.39 237.124 1586.23 237.124 Q1591.46 237.124 1594.49 240.504 Q1597.55 243.86 1597.55 249.647 M1593.29 248.397 Q1593.24 244.902 1591.32 242.819 Q1589.42 240.735 1586.27 240.735 Q1582.71 240.735 1580.56 242.749 Q1578.43 244.763 1578.1 248.42 L1593.29 248.397 Z" fill="#000000" fill-rule="nonzero" fill-opacity="1" /><path clip-path="url(#clip990)" d="M1623.19 238.745 L1623.19 242.726 Q1621.39 241.731 1619.56 241.245 Q1617.75 240.735 1615.9 240.735 Q1611.76 240.735 1609.47 243.374 Q1607.18 245.99 1607.18 250.735 Q1607.18 255.481 1609.47 258.12 Q1611.76 260.735 1615.9 260.735 Q1617.75 260.735 1619.56 260.249 Q1621.39 259.74 1623.19 258.744 L1623.19 262.68 Q1621.41 263.513 1619.49 263.93 Q1617.59 264.346 1615.44 264.346 Q1609.58 264.346 1606.13 260.666 Q1602.68 256.985 1602.68 250.735 Q1602.68 244.393 1606.16 240.758 Q1609.65 237.124 1615.72 237.124 Q1617.68 237.124 1619.56 237.541 Q1621.43 237.934 1623.19 238.745 Z" fill="#000000" fill-rule="nonzero" fill-opacity="1" /><path clip-path="url(#clip990)" d="M1640.65 240.735 Q1637.22 240.735 1635.23 243.421 Q1633.24 246.083 1633.24 250.735 Q1633.24 255.388 1635.21 258.073 Q1637.2 260.735 1640.65 260.735 Q1644.05 260.735 1646.04 258.05 Q1648.03 255.365 1648.03 250.735 Q1648.03 246.129 1646.04 243.444 Q1644.05 240.735 1640.65 240.735 M1640.65 237.124 Q1646.2 237.124 1649.37 240.735 Q1652.55 244.346 1652.55 250.735 Q1652.55 257.101 1649.37 260.735 Q1646.2 264.346 1640.65 264.346 Q1635.07 264.346 1631.9 260.735 Q1628.75 257.101 1628.75 250.735 Q1628.75 244.346 1631.9 240.735 Q1635.07 237.124 1640.65 237.124 Z" fill="#000000" fill-rule="nonzero" fill-opacity="1" /><path clip-path="url(#clip990)" d="M1681.16 248.027 L1681.16 263.675 L1676.9 263.675 L1676.9 248.166 Q1676.9 244.485 1675.46 242.657 Q1674.03 240.828 1671.16 240.828 Q1667.71 240.828 1665.72 243.027 Q1663.73 245.226 1663.73 249.022 L1663.73 263.675 L1659.44 263.675 L1659.44 237.749 L1663.73 237.749 L1663.73 241.777 Q1665.25 239.439 1667.31 238.282 Q1669.4 237.124 1672.11 237.124 Q1676.57 237.124 1678.86 239.902 Q1681.16 242.657 1681.16 248.027 Z" fill="#000000" fill-rule="nonzero" fill-opacity="1" /><path clip-path="url(#clip990)" d="M1706.71 241.684 L1706.71 227.657 L1710.97 227.657 L1710.97 263.675 L1706.71 263.675 L1706.71 259.786 Q1705.37 262.101 1703.31 263.235 Q1701.27 264.346 1698.4 264.346 Q1693.7 264.346 1690.74 260.596 Q1687.8 256.846 1687.8 250.735 Q1687.8 244.624 1690.74 240.874 Q1693.7 237.124 1698.4 237.124 Q1701.27 237.124 1703.31 238.258 Q1705.37 239.37 1706.71 241.684 M1692.2 250.735 Q1692.2 255.434 1694.12 258.12 Q1696.06 260.782 1699.44 260.782 Q1702.82 260.782 1704.77 258.12 Q1706.71 255.434 1706.71 250.735 Q1706.71 246.036 1704.77 243.374 Q1702.82 240.689 1699.44 240.689 Q1696.06 240.689 1694.12 243.374 Q1692.2 246.036 1692.2 250.735 Z" fill="#000000" fill-rule="nonzero" fill-opacity="1" /><path clip-path="url(#clip990)" d="M1719.74 237.749 L1724 237.749 L1724 263.675 L1719.74 263.675 L1719.74 237.749 M1719.74 227.657 L1724 227.657 L1724 233.05 L1719.74 233.05 L1719.74 227.657 Z" fill="#000000" fill-rule="nonzero" fill-opacity="1" /><path clip-path="url(#clip990)" d="M1737.13 230.388 L1737.13 237.749 L1745.9 237.749 L1745.9 241.059 L1737.13 241.059 L1737.13 255.133 Q1737.13 258.305 1737.98 259.207 Q1738.86 260.11 1741.53 260.11 L1745.9 260.11 L1745.9 263.675 L1741.53 263.675 Q1736.6 263.675 1734.72 261.846 Q1732.85 259.994 1732.85 255.133 L1732.85 241.059 L1729.72 241.059 L1729.72 237.749 L1732.85 237.749 L1732.85 230.388 L1737.13 230.388 Z" fill="#000000" fill-rule="nonzero" fill-opacity="1" /><path clip-path="url(#clip990)" d="M1751.5 237.749 L1755.76 237.749 L1755.76 263.675 L1751.5 263.675 L1751.5 237.749 M1751.5 227.657 L1755.76 227.657 L1755.76 233.05 L1751.5 233.05 L1751.5 227.657 Z" fill="#000000" fill-rule="nonzero" fill-opacity="1" /><path clip-path="url(#clip990)" d="M1774.72 240.735 Q1771.29 240.735 1769.3 243.421 Q1767.31 246.083 1767.31 250.735 Q1767.31 255.388 1769.28 258.073 Q1771.27 260.735 1774.72 260.735 Q1778.12 260.735 1780.11 258.05 Q1782.11 255.365 1782.11 250.735 Q1782.11 246.129 1780.11 243.444 Q1778.12 240.735 1774.72 240.735 M1774.72 237.124 Q1780.28 237.124 1783.45 240.735 Q1786.62 244.346 1786.62 250.735 Q1786.62 257.101 1783.45 260.735 Q1780.28 264.346 1774.72 264.346 Q1769.14 264.346 1765.97 260.735 Q1762.82 257.101 1762.82 250.735 Q1762.82 244.346 1765.97 240.735 Q1769.14 237.124 1774.72 237.124 Z" fill="#000000" fill-rule="nonzero" fill-opacity="1" /><path clip-path="url(#clip990)" d="M1815.23 248.027 L1815.23 263.675 L1810.97 263.675 L1810.97 248.166 Q1810.97 244.485 1809.54 242.657 Q1808.1 240.828 1805.23 240.828 Q1801.78 240.828 1799.79 243.027 Q1797.8 245.226 1797.8 249.022 L1797.8 263.675 L1793.52 263.675 L1793.52 237.749 L1797.8 237.749 L1797.8 241.777 Q1799.33 239.439 1801.39 238.282 Q1803.47 237.124 1806.18 237.124 Q1810.65 237.124 1812.94 239.902 Q1815.23 242.657 1815.23 248.027 Z" fill="#000000" fill-rule="nonzero" fill-opacity="1" /><path clip-path="url(#clip990)" d="M1845.9 249.647 L1845.9 251.731 L1826.32 251.731 Q1826.6 256.129 1828.96 258.444 Q1831.34 260.735 1835.58 260.735 Q1838.03 260.735 1840.32 260.133 Q1842.64 259.532 1844.91 258.328 L1844.91 262.356 Q1842.61 263.328 1840.21 263.837 Q1837.8 264.346 1835.32 264.346 Q1829.12 264.346 1825.48 260.735 Q1821.87 257.124 1821.87 250.967 Q1821.87 244.601 1825.3 240.874 Q1828.75 237.124 1834.58 237.124 Q1839.81 237.124 1842.85 240.504 Q1845.9 243.86 1845.9 249.647 M1841.64 248.397 Q1841.6 244.902 1839.67 242.819 Q1837.78 240.735 1834.63 240.735 Q1831.06 240.735 1828.91 242.749 Q1826.78 244.763 1826.46 248.42 L1841.64 248.397 Z" fill="#000000" fill-rule="nonzero" fill-opacity="1" /><path clip-path="url(#clip990)" d="M1869.95 241.684 L1869.95 227.657 L1874.21 227.657 L1874.21 263.675 L1869.95 263.675 L1869.95 259.786 Q1868.61 262.101 1866.55 263.235 Q1864.51 264.346 1861.64 264.346 Q1856.94 264.346 1853.98 260.596 Q1851.04 256.846 1851.04 250.735 Q1851.04 244.624 1853.98 240.874 Q1856.94 237.124 1861.64 237.124 Q1864.51 237.124 1866.55 238.258 Q1868.61 239.37 1869.95 241.684 M1855.44 250.735 Q1855.44 255.434 1857.36 258.12 Q1859.3 260.782 1862.68 260.782 Q1866.06 260.782 1868.01 258.12 Q1869.95 255.434 1869.95 250.735 Q1869.95 246.036 1868.01 243.374 Q1866.06 240.689 1862.68 240.689 Q1859.3 240.689 1857.36 243.374 Q1855.44 246.036 1855.44 250.735 Z" fill="#000000" fill-rule="nonzero" fill-opacity="1" /></svg>
