<?xml version="1.0" encoding="utf-8"?>
<svg xmlns="http://www.w3.org/2000/svg" xmlns:xlink="http://www.w3.org/1999/xlink" width="500" height="320" viewBox="0 0 2000 1280">
<defs>
  <clipPath id="clip490">
    <rect x="0" y="0" width="2000" height="1280"/>
  </clipPath>
</defs>
<path clip-path="url(#clip490)" d="M0 1280 L2000 1280 L2000 0 L0 0  Z" fill="#ffffff" fill-rule="evenodd" fill-opacity="1"/>
<defs>
  <clipPath id="clip491">
    <rect x="400" y="0" width="1401" height="1280"/>
  </clipPath>
</defs>
<path clip-path="url(#clip490)" d="M185.496 1171.03 L1952.76 1171.03 L1952.76 107.256 L185.496 107.256  Z" fill="#ffffff" fill-rule="evenodd" fill-opacity="1"/>
<defs>
  <clipPath id="clip492">
    <rect x="185" y="107" width="1768" height="1065"/>
  </clipPath>
</defs>
<polyline clip-path="url(#clip492)" style="stroke:#000000; stroke-linecap:round; stroke-linejoin:round; stroke-width:2; stroke-opacity:0.1; fill:none" points="235.513,1171.03 235.513,107.256 "/>
<polyline clip-path="url(#clip492)" style="stroke:#000000; stroke-linecap:round; stroke-linejoin:round; stroke-width:2; stroke-opacity:0.1; fill:none" points="773.328,1171.03 773.328,107.256 "/>
<polyline clip-path="url(#clip492)" style="stroke:#000000; stroke-linecap:round; stroke-linejoin:round; stroke-width:2; stroke-opacity:0.1; fill:none" points="1311.14,1171.03 1311.14,107.256 "/>
<polyline clip-path="url(#clip492)" style="stroke:#000000; stroke-linecap:round; stroke-linejoin:round; stroke-width:2; stroke-opacity:0.1; fill:none" points="1848.96,1171.03 1848.96,107.256 "/>
<polyline clip-path="url(#clip492)" style="stroke:#000000; stroke-linecap:round; stroke-linejoin:round; stroke-width:2; stroke-opacity:0.1; fill:none" points="185.496,1091.82 1952.76,1091.82 "/>
<polyline clip-path="url(#clip492)" style="stroke:#000000; stroke-linecap:round; stroke-linejoin:round; stroke-width:2; stroke-opacity:0.1; fill:none" points="185.496,853.209 1952.76,853.209 "/>
<polyline clip-path="url(#clip492)" style="stroke:#000000; stroke-linecap:round; stroke-linejoin:round; stroke-width:2; stroke-opacity:0.1; fill:none" points="185.496,614.593 1952.76,614.593 "/>
<polyline clip-path="url(#clip492)" style="stroke:#000000; stroke-linecap:round; stroke-linejoin:round; stroke-width:2; stroke-opacity:0.1; fill:none" points="185.496,375.978 1952.76,375.978 "/>
<polyline clip-path="url(#clip492)" style="stroke:#000000; stroke-linecap:round; stroke-linejoin:round; stroke-width:2; stroke-opacity:0.1; fill:none" points="185.496,137.363 1952.76,137.363 "/>
<polyline clip-path="url(#clip490)" style="stroke:#000000; stroke-linecap:round; stroke-linejoin:round; stroke-width:4; stroke-opacity:1; fill:none" points="185.496,1171.03 1952.76,1171.03 "/>
<polyline clip-path="url(#clip490)" style="stroke:#000000; stroke-linecap:round; stroke-linejoin:round; stroke-width:4; stroke-opacity:1; fill:none" points="235.513,1171.03 235.513,1152.13 "/>
<polyline clip-path="url(#clip490)" style="stroke:#000000; stroke-linecap:round; stroke-linejoin:round; stroke-width:4; stroke-opacity:1; fill:none" points="773.328,1171.03 773.328,1152.13 "/>
<polyline clip-path="url(#clip490)" style="stroke:#000000; stroke-linecap:round; stroke-linejoin:round; stroke-width:4; stroke-opacity:1; fill:none" points="1311.14,1171.03 1311.14,1152.13 "/>
<polyline clip-path="url(#clip490)" style="stroke:#000000; stroke-linecap:round; stroke-linejoin:round; stroke-width:4; stroke-opacity:1; fill:none" points="1848.96,1171.03 1848.96,1152.13 "/>
<path clip-path="url(#clip490)" d="M235.513 1198.75 Q231.902 1198.75 230.073 1202.31 Q228.267 1205.86 228.267 1212.98 Q228.267 1220.09 230.073 1223.66 Q231.902 1227.2 235.513 1227.2 Q239.147 1227.2 240.952 1223.66 Q242.781 1220.09 242.781 1212.98 Q242.781 1205.86 240.952 1202.31 Q239.147 1198.75 235.513 1198.75 M235.513 1195.05 Q241.323 1195.05 244.378 1199.65 Q247.457 1204.24 247.457 1212.98 Q247.457 1221.71 244.378 1226.32 Q241.323 1230.9 235.513 1230.9 Q229.703 1230.9 226.624 1226.32 Q223.568 1221.71 223.568 1212.98 Q223.568 1204.24 226.624 1199.65 Q229.703 1195.05 235.513 1195.05 Z" fill="#000000" fill-rule="nonzero" fill-opacity="1" /><path clip-path="url(#clip490)" d="M748.027 1195.67 L766.383 1195.67 L766.383 1199.61 L752.309 1199.61 L752.309 1208.08 Q753.328 1207.73 754.346 1207.57 Q755.365 1207.38 756.383 1207.38 Q762.17 1207.38 765.55 1210.55 Q768.93 1213.73 768.93 1219.14 Q768.93 1224.72 765.457 1227.82 Q761.985 1230.9 755.666 1230.9 Q753.49 1230.9 751.221 1230.53 Q748.976 1230.16 746.569 1229.42 L746.569 1224.72 Q748.652 1225.86 750.874 1226.41 Q753.096 1226.97 755.573 1226.97 Q759.578 1226.97 761.916 1224.86 Q764.254 1222.75 764.254 1219.14 Q764.254 1215.53 761.916 1213.42 Q759.578 1211.32 755.573 1211.32 Q753.698 1211.32 751.823 1211.74 Q749.971 1212.15 748.027 1213.03 L748.027 1195.67 Z" fill="#000000" fill-rule="nonzero" fill-opacity="1" /><path clip-path="url(#clip490)" d="M788.142 1198.75 Q784.531 1198.75 782.703 1202.31 Q780.897 1205.86 780.897 1212.98 Q780.897 1220.09 782.703 1223.66 Q784.531 1227.2 788.142 1227.2 Q791.777 1227.2 793.582 1223.66 Q795.411 1220.09 795.411 1212.98 Q795.411 1205.86 793.582 1202.31 Q791.777 1198.75 788.142 1198.75 M788.142 1195.05 Q793.953 1195.05 797.008 1199.65 Q800.087 1204.24 800.087 1212.98 Q800.087 1221.71 797.008 1226.32 Q793.953 1230.9 788.142 1230.9 Q782.332 1230.9 779.254 1226.32 Q776.198 1221.71 776.198 1212.98 Q776.198 1204.24 779.254 1199.65 Q782.332 1195.05 788.142 1195.05 Z" fill="#000000" fill-rule="nonzero" fill-opacity="1" /><path clip-path="url(#clip490)" d="M1270.75 1226.3 L1278.39 1226.3 L1278.39 1199.93 L1270.08 1201.6 L1270.08 1197.34 L1278.34 1195.67 L1283.02 1195.67 L1283.02 1226.3 L1290.66 1226.3 L1290.66 1230.23 L1270.75 1230.23 L1270.75 1226.3 Z" fill="#000000" fill-rule="nonzero" fill-opacity="1" /><path clip-path="url(#clip490)" d="M1310.1 1198.75 Q1306.49 1198.75 1304.66 1202.31 Q1302.86 1205.86 1302.86 1212.98 Q1302.86 1220.09 1304.66 1223.66 Q1306.49 1227.2 1310.1 1227.2 Q1313.74 1227.2 1315.54 1223.66 Q1317.37 1220.09 1317.37 1212.98 Q1317.37 1205.86 1315.54 1202.31 Q1313.74 1198.75 1310.1 1198.75 M1310.1 1195.05 Q1315.91 1195.05 1318.97 1199.65 Q1322.05 1204.24 1322.05 1212.98 Q1322.05 1221.71 1318.97 1226.32 Q1315.91 1230.9 1310.1 1230.9 Q1304.29 1230.9 1301.21 1226.32 Q1298.16 1221.71 1298.16 1212.98 Q1298.16 1204.24 1301.21 1199.65 Q1304.29 1195.05 1310.1 1195.05 Z" fill="#000000" fill-rule="nonzero" fill-opacity="1" /><path clip-path="url(#clip490)" d="M1340.26 1198.75 Q1336.65 1198.75 1334.82 1202.31 Q1333.02 1205.86 1333.02 1212.98 Q1333.02 1220.09 1334.82 1223.66 Q1336.65 1227.2 1340.26 1227.2 Q1343.9 1227.2 1345.7 1223.66 Q1347.53 1220.09 1347.53 1212.98 Q1347.53 1205.86 1345.7 1202.31 Q1343.9 1198.75 1340.26 1198.75 M1340.26 1195.05 Q1346.07 1195.05 1349.13 1199.65 Q1352.21 1204.24 1352.21 1212.98 Q1352.21 1221.71 1349.13 1226.32 Q1346.07 1230.9 1340.26 1230.9 Q1334.45 1230.9 1331.37 1226.32 Q1328.32 1221.71 1328.32 1212.98 Q1328.32 1204.24 1331.37 1199.65 Q1334.45 1195.05 1340.26 1195.05 Z" fill="#000000" fill-rule="nonzero" fill-opacity="1" /><path clip-path="url(#clip490)" d="M1808.56 1226.3 L1816.2 1226.3 L1816.2 1199.93 L1807.89 1201.6 L1807.89 1197.34 L1816.16 1195.67 L1820.83 1195.67 L1820.83 1226.3 L1828.47 1226.3 L1828.47 1230.23 L1808.56 1230.23 L1808.56 1226.3 Z" fill="#000000" fill-rule="nonzero" fill-opacity="1" /><path clip-path="url(#clip490)" d="M1837.96 1195.67 L1856.32 1195.67 L1856.32 1199.61 L1842.24 1199.61 L1842.24 1208.08 Q1843.26 1207.73 1844.28 1207.57 Q1845.3 1207.38 1846.32 1207.38 Q1852.11 1207.38 1855.49 1210.55 Q1858.86 1213.73 1858.86 1219.14 Q1858.86 1224.72 1855.39 1227.82 Q1851.92 1230.9 1845.6 1230.9 Q1843.43 1230.9 1841.16 1230.53 Q1838.91 1230.16 1836.5 1229.42 L1836.5 1224.72 Q1838.59 1225.86 1840.81 1226.41 Q1843.03 1226.97 1845.51 1226.97 Q1849.51 1226.97 1851.85 1224.86 Q1854.19 1222.75 1854.19 1219.14 Q1854.19 1215.53 1851.85 1213.42 Q1849.51 1211.32 1845.51 1211.32 Q1843.63 1211.32 1841.76 1211.74 Q1839.91 1212.15 1837.96 1213.03 L1837.96 1195.67 Z" fill="#000000" fill-rule="nonzero" fill-opacity="1" /><path clip-path="url(#clip490)" d="M1878.08 1198.75 Q1874.47 1198.75 1872.64 1202.31 Q1870.83 1205.86 1870.83 1212.98 Q1870.83 1220.09 1872.64 1223.66 Q1874.47 1227.2 1878.08 1227.2 Q1881.71 1227.2 1883.52 1223.66 Q1885.35 1220.09 1885.35 1212.98 Q1885.35 1205.86 1883.52 1202.31 Q1881.71 1198.75 1878.08 1198.75 M1878.08 1195.05 Q1883.89 1195.05 1886.94 1199.65 Q1890.02 1204.24 1890.02 1212.98 Q1890.02 1221.71 1886.94 1226.32 Q1883.89 1230.9 1878.08 1230.9 Q1872.27 1230.9 1869.19 1226.32 Q1866.13 1221.71 1866.13 1212.98 Q1866.13 1204.24 1869.19 1199.65 Q1872.27 1195.05 1878.08 1195.05 Z" fill="#000000" fill-rule="nonzero" fill-opacity="1" /><polyline clip-path="url(#clip490)" style="stroke:#000000; stroke-linecap:round; stroke-linejoin:round; stroke-width:4; stroke-opacity:1; fill:none" points="185.496,1171.03 185.496,107.256 "/>
<polyline clip-path="url(#clip490)" style="stroke:#000000; stroke-linecap:round; stroke-linejoin:round; stroke-width:4; stroke-opacity:1; fill:none" points="185.496,1091.82 204.394,1091.82 "/>
<polyline clip-path="url(#clip490)" style="stroke:#000000; stroke-linecap:round; stroke-linejoin:round; stroke-width:4; stroke-opacity:1; fill:none" points="185.496,853.209 204.394,853.209 "/>
<polyline clip-path="url(#clip490)" style="stroke:#000000; stroke-linecap:round; stroke-linejoin:round; stroke-width:4; stroke-opacity:1; fill:none" points="185.496,614.593 204.394,614.593 "/>
<polyline clip-path="url(#clip490)" style="stroke:#000000; stroke-linecap:round; stroke-linejoin:round; stroke-width:4; stroke-opacity:1; fill:none" points="185.496,375.978 204.394,375.978 "/>
<polyline clip-path="url(#clip490)" style="stroke:#000000; stroke-linecap:round; stroke-linejoin:round; stroke-width:4; stroke-opacity:1; fill:none" points="185.496,137.363 204.394,137.363 "/>
<path clip-path="url(#clip490)" d="M53.6634 1111.62 L61.3023 1111.62 L61.3023 1085.25 L52.9921 1086.92 L52.9921 1082.66 L61.256 1080.99 L65.9319 1080.99 L65.9319 1111.62 L73.5707 1111.62 L73.5707 1115.55 L53.6634 1115.55 L53.6634 1111.62 Z" fill="#000000" fill-rule="nonzero" fill-opacity="1" /><path clip-path="url(#clip490)" d="M93.0151 1084.07 Q89.404 1084.07 87.5753 1087.64 Q85.7697 1091.18 85.7697 1098.31 Q85.7697 1105.41 87.5753 1108.98 Q89.404 1112.52 93.0151 1112.52 Q96.6493 1112.52 98.4548 1108.98 Q100.284 1105.41 100.284 1098.31 Q100.284 1091.18 98.4548 1087.64 Q96.6493 1084.07 93.0151 1084.07 M93.0151 1080.37 Q98.8252 1080.37 101.881 1084.97 Q104.959 1089.56 104.959 1098.31 Q104.959 1107.03 101.881 1111.64 Q98.8252 1116.22 93.0151 1116.22 Q87.2049 1116.22 84.1262 1111.64 Q81.0707 1107.03 81.0707 1098.31 Q81.0707 1089.56 84.1262 1084.97 Q87.2049 1080.37 93.0151 1080.37 Z" fill="#000000" fill-rule="nonzero" fill-opacity="1" /><path clip-path="url(#clip490)" d="M104.959 1074.47 L129.071 1074.47 L129.071 1077.67 L104.959 1077.67 L104.959 1074.47 Z" fill="#000000" fill-rule="nonzero" fill-opacity="1" /><path clip-path="url(#clip490)" d="M147.71 1063.37 L138.118 1078.36 L147.71 1078.36 L147.71 1063.37 M146.713 1060.06 L151.49 1060.06 L151.49 1078.36 L155.496 1078.36 L155.496 1081.52 L151.49 1081.52 L151.49 1088.14 L147.71 1088.14 L147.71 1081.52 L135.033 1081.52 L135.033 1077.85 L146.713 1060.06 Z" fill="#000000" fill-rule="nonzero" fill-opacity="1" /><path clip-path="url(#clip490)" d="M54.585 873.001 L62.2238 873.001 L62.2238 846.636 L53.9137 848.302 L53.9137 844.043 L62.1776 842.376 L66.8535 842.376 L66.8535 873.001 L74.4923 873.001 L74.4923 876.936 L54.585 876.936 L54.585 873.001 Z" fill="#000000" fill-rule="nonzero" fill-opacity="1" /><path clip-path="url(#clip490)" d="M93.9366 845.455 Q90.3255 845.455 88.4969 849.02 Q86.6913 852.561 86.6913 859.691 Q86.6913 866.798 88.4969 870.362 Q90.3255 873.904 93.9366 873.904 Q97.5709 873.904 99.3764 870.362 Q101.205 866.798 101.205 859.691 Q101.205 852.561 99.3764 849.02 Q97.5709 845.455 93.9366 845.455 M93.9366 841.751 Q99.7468 841.751 102.802 846.358 Q105.881 850.941 105.881 859.691 Q105.881 868.418 102.802 873.024 Q99.7468 877.608 93.9366 877.608 Q88.1265 877.608 85.0478 873.024 Q81.9923 868.418 81.9923 859.691 Q81.9923 850.941 85.0478 846.358 Q88.1265 841.751 93.9366 841.751 Z" fill="#000000" fill-rule="nonzero" fill-opacity="1" /><path clip-path="url(#clip490)" d="M105.881 835.853 L129.993 835.853 L129.993 839.05 L105.881 839.05 L105.881 835.853 Z" fill="#000000" fill-rule="nonzero" fill-opacity="1" /><path clip-path="url(#clip490)" d="M149.703 834.386 Q152.43 834.969 153.954 836.812 Q155.496 838.655 155.496 841.363 Q155.496 845.52 152.637 847.796 Q149.778 850.071 144.512 850.071 Q142.744 850.071 140.863 849.714 Q139.002 849.375 137.008 848.68 L137.008 845.012 Q138.588 845.934 140.469 846.404 Q142.349 846.874 144.399 846.874 Q147.973 846.874 149.835 845.463 Q151.716 844.053 151.716 841.363 Q151.716 838.881 149.966 837.489 Q148.236 836.078 145.133 836.078 L141.86 836.078 L141.86 832.956 L145.283 832.956 Q148.086 832.956 149.571 831.847 Q151.057 830.718 151.057 828.612 Q151.057 826.449 149.515 825.302 Q147.992 824.135 145.133 824.135 Q143.572 824.135 141.785 824.474 Q139.998 824.813 137.854 825.527 L137.854 822.142 Q140.017 821.54 141.898 821.239 Q143.797 820.938 145.471 820.938 Q149.797 820.938 152.317 822.913 Q154.838 824.869 154.838 828.217 Q154.838 830.549 153.502 832.166 Q152.167 833.765 149.703 834.386 Z" fill="#000000" fill-rule="nonzero" fill-opacity="1" /><path clip-path="url(#clip490)" d="M55.3561 634.386 L62.995 634.386 L62.995 608.02 L54.6848 609.687 L54.6848 605.428 L62.9487 603.761 L67.6246 603.761 L67.6246 634.386 L75.2634 634.386 L75.2634 638.321 L55.3561 638.321 L55.3561 634.386 Z" fill="#000000" fill-rule="nonzero" fill-opacity="1" /><path clip-path="url(#clip490)" d="M94.7078 606.84 Q91.0967 606.84 89.268 610.404 Q87.4624 613.946 87.4624 621.076 Q87.4624 628.182 89.268 631.747 Q91.0967 635.289 94.7078 635.289 Q98.342 635.289 100.148 631.747 Q101.976 628.182 101.976 621.076 Q101.976 613.946 100.148 610.404 Q98.342 606.84 94.7078 606.84 M94.7078 603.136 Q100.518 603.136 103.573 607.742 Q106.652 612.326 106.652 621.076 Q106.652 629.803 103.573 634.409 Q100.518 638.992 94.7078 638.992 Q88.8976 638.992 85.8189 634.409 Q82.7634 629.803 82.7634 621.076 Q82.7634 612.326 85.8189 607.742 Q88.8976 603.136 94.7078 603.136 Z" fill="#000000" fill-rule="nonzero" fill-opacity="1" /><path clip-path="url(#clip490)" d="M106.652 597.237 L130.764 597.237 L130.764 600.435 L106.652 600.435 L106.652 597.237 Z" fill="#000000" fill-rule="nonzero" fill-opacity="1" /><path clip-path="url(#clip490)" d="M142.236 607.713 L155.496 607.713 L155.496 610.911 L137.666 610.911 L137.666 607.713 Q139.829 605.475 143.553 601.714 Q147.296 597.933 148.255 596.842 Q150.079 594.792 150.794 593.382 Q151.527 591.952 151.527 590.579 Q151.527 588.341 149.948 586.931 Q148.387 585.52 145.866 585.52 Q144.08 585.52 142.086 586.141 Q140.111 586.761 137.854 588.022 L137.854 584.185 Q140.149 583.263 142.142 582.793 Q144.136 582.323 145.791 582.323 Q150.155 582.323 152.75 584.504 Q155.345 586.686 155.345 590.335 Q155.345 592.065 154.687 593.626 Q154.048 595.169 152.336 597.275 Q151.866 597.82 149.346 600.435 Q146.826 603.03 142.236 607.713 Z" fill="#000000" fill-rule="nonzero" fill-opacity="1" /><path clip-path="url(#clip490)" d="M55.0552 395.77 L62.694 395.77 L62.694 369.405 L54.3839 371.072 L54.3839 366.812 L62.6477 365.146 L67.3236 365.146 L67.3236 395.77 L74.9625 395.77 L74.9625 399.706 L55.0552 399.706 L55.0552 395.77 Z" fill="#000000" fill-rule="nonzero" fill-opacity="1" /><path clip-path="url(#clip490)" d="M94.4068 368.224 Q90.7957 368.224 88.967 371.789 Q87.1615 375.331 87.1615 382.46 Q87.1615 389.567 88.967 393.132 Q90.7957 396.673 94.4068 396.673 Q98.0411 396.673 99.8466 393.132 Q101.675 389.567 101.675 382.46 Q101.675 375.331 99.8466 371.789 Q98.0411 368.224 94.4068 368.224 M94.4068 364.521 Q100.217 364.521 103.273 369.127 Q106.351 373.71 106.351 382.46 Q106.351 391.187 103.273 395.794 Q100.217 400.377 94.4068 400.377 Q88.5967 400.377 85.518 395.794 Q82.4625 391.187 82.4625 382.46 Q82.4625 373.71 85.518 369.127 Q88.5967 364.521 94.4068 364.521 Z" fill="#000000" fill-rule="nonzero" fill-opacity="1" /><path clip-path="url(#clip490)" d="M106.351 358.622 L130.463 358.622 L130.463 361.819 L106.351 361.819 L106.351 358.622 Z" fill="#000000" fill-rule="nonzero" fill-opacity="1" /><path clip-path="url(#clip490)" d="M139.321 369.098 L145.528 369.098 L145.528 347.676 L138.776 349.03 L138.776 345.569 L145.49 344.215 L149.289 344.215 L149.289 369.098 L155.496 369.098 L155.496 372.295 L139.321 372.295 L139.321 369.098 Z" fill="#000000" fill-rule="nonzero" fill-opacity="1" /><path clip-path="url(#clip490)" d="M84.7903 157.155 L92.4291 157.155 L92.4291 130.79 L84.119 132.456 L84.119 128.197 L92.3828 126.53 L97.0587 126.53 L97.0587 157.155 L104.698 157.155 L104.698 161.09 L84.7903 161.09 L84.7903 157.155 Z" fill="#000000" fill-rule="nonzero" fill-opacity="1" /><path clip-path="url(#clip490)" d="M124.142 129.609 Q120.531 129.609 118.702 133.174 Q116.897 136.715 116.897 143.845 Q116.897 150.951 118.702 154.516 Q120.531 158.058 124.142 158.058 Q127.776 158.058 129.582 154.516 Q131.41 150.951 131.41 143.845 Q131.41 136.715 129.582 133.174 Q127.776 129.609 124.142 129.609 M124.142 125.905 Q129.952 125.905 133.008 130.512 Q136.086 135.095 136.086 143.845 Q136.086 152.572 133.008 157.178 Q129.952 161.762 124.142 161.762 Q118.332 161.762 115.253 157.178 Q112.198 152.572 112.198 143.845 Q112.198 135.095 115.253 130.512 Q118.332 125.905 124.142 125.905 Z" fill="#000000" fill-rule="nonzero" fill-opacity="1" /><path clip-path="url(#clip490)" d="M145.791 108.101 Q142.857 108.101 141.371 110.998 Q139.904 113.875 139.904 119.668 Q139.904 125.442 141.371 128.338 Q142.857 131.216 145.791 131.216 Q148.744 131.216 150.211 128.338 Q151.697 125.442 151.697 119.668 Q151.697 113.875 150.211 110.998 Q148.744 108.101 145.791 108.101 M145.791 105.092 Q150.512 105.092 152.994 108.835 Q155.496 112.559 155.496 119.668 Q155.496 126.759 152.994 130.501 Q150.512 134.225 145.791 134.225 Q141.07 134.225 138.569 130.501 Q136.086 126.759 136.086 119.668 Q136.086 112.559 138.569 108.835 Q141.07 105.092 145.791 105.092 Z" fill="#000000" fill-rule="nonzero" fill-opacity="1" /><g clip-path="url(#clip490)">
<text style="fill:#000000; fill-opacity:1; font-family:Arial,Helvetica Neue,Helvetica,sans-serif; font-size:66px; text-anchor:middle;" transform="rotate(0, 1069.13, 57.6)" x="1069.13" y="57.6">Diagonal preconditioning in CG</text>
</g>
<polyline clip-path="url(#clip492)" style="stroke:#009af9; stroke-linecap:round; stroke-linejoin:round; stroke-width:8; stroke-opacity:1; fill:none" points="235.513,137.363 246.269,175.212 257.025,252.007 267.782,284.41 278.538,283.056 289.294,286.316 300.051,310.513 310.807,339.205 321.563,357.255 332.319,358.671 343.076,359.705 353.832,368.741 364.588,381.321 375.345,390.707 386.101,394.239 396.857,396.775 407.613,399.381 418.37,408.199 429.126,413.279 439.882,419.659 450.639,421.513 461.395,424.901 472.151,429.534 482.908,435.795 493.664,439.835 504.42,443.308 515.176,449.151 525.933,456.402 536.689,458.604 547.445,465.131 558.202,470.808 568.958,476.032 579.714,481.155 590.471,486.505 601.227,491.207 611.983,495.778 622.739,501.33 633.496,504.815 644.252,509.069 655.008,513.439 665.765,519.667 676.521,523.651 687.277,527.487 698.034,533.156 708.79,537.622 719.546,541.556 730.302,544.632 741.059,551.28 751.815,552.927 762.571,556.131 773.328,559.971 784.084,564.888 794.84,567.421 805.597,574.043 816.353,576.993 827.109,580.518 837.865,582.322 848.622,587.522 859.378,588.498 870.134,590.198 880.891,594.476 891.647,597.791 902.403,601.081 913.16,603.864 923.916,608.722 934.672,613.122 945.428,614.901 956.185,621.907 966.941,624.681 977.697,628.349 988.454,631.36 999.21,634.954 1009.97,638.624 1020.72,641.626 1031.48,645.48 1042.24,648.427 1052.99,651.807 1063.75,655.797 1074.5,659.143 1085.26,662.945 1096.02,667.6 1106.77,671.097 1117.53,676.454 1128.29,681.919 1139.04,684.745 1149.8,689.003 1160.55,692.97 1171.31,697.705 1182.07,702.795 1192.82,708.581 1203.58,713.193 1214.34,719.081 1225.09,727.463 1235.85,733.597 1246.6,742.13 1257.36,747.483 1268.12,753.814 1278.87,760.258 1289.63,765.267 1300.39,770.242 1311.14,773.485 1321.9,780.458 1332.66,784.402 1343.41,788.223 1354.17,794.564 1364.92,797.097 1375.68,801.172 1386.44,807.381 1397.19,813.035 1407.95,819.464 1418.71,828.001 1429.46,838.421 1440.22,847.017 1450.97,856.687 1461.73,868.339 1472.49,875.291 1483.24,883.45 1494,893.35 1504.76,899.653 1515.51,906.343 1526.27,912.262 1537.02,921.023 1547.78,926.11 1558.54,929.496 1569.29,935.47 1580.05,937.09 1590.81,942.417 1601.56,943.88 1612.32,949.868 1623.08,956.383 1633.83,961.464 1644.59,966.911 1655.34,974.38 1666.1,980.997 1676.86,985.991 1687.61,994.73 1698.37,1003.05 1709.13,1009.77 1719.88,1017.21 1730.64,1021.37 1741.39,1030.65 1752.15,1036.3 1762.91,1041.78 1773.66,1049.07 1784.42,1054.54 1795.18,1063.81 1805.93,1070.16 1816.69,1078.38 1827.45,1086.03 1838.2,1094.76 1848.96,1102.4 1859.71,1108.78 1870.47,1116.87 1881.23,1126.07 1891.98,1130.24 1902.74,1140.92 "/>
<polyline clip-path="url(#clip492)" style="stroke:#e26f46; stroke-linecap:round; stroke-linejoin:round; stroke-width:8; stroke-opacity:1; fill:none" points="235.513,137.363 246.269,193.289 257.025,270.722 267.782,331.286 278.538,388.073 289.294,439.499 300.051,489.945 310.807,538.373 321.563,576.436 332.319,607.45 343.076,669.187 353.832,737.999 364.588,796.505 375.345,842.783 386.101,891.531 396.857,940.63 407.613,978.187 418.37,1019.31 429.126,1072.99 "/>
<path clip-path="url(#clip490)" d="M1369.58 298.235 L1893.85 298.235 L1893.85 142.715 L1369.58 142.715  Z" fill="#ffffff" fill-rule="evenodd" fill-opacity="1"/>
<polyline clip-path="url(#clip490)" style="stroke:#000000; stroke-linecap:round; stroke-linejoin:round; stroke-width:4; stroke-opacity:1; fill:none" points="1369.58,298.235 1893.85,298.235 1893.85,142.715 1369.58,142.715 1369.58,298.235 "/>
<polyline clip-path="url(#clip490)" style="stroke:#009af9; stroke-linecap:round; stroke-linejoin:round; stroke-width:8; stroke-opacity:1; fill:none" points="1389.21,194.555 1507.03,194.555 "/>
<path clip-path="url(#clip490)" d="M1530.95 207.946 L1530.95 221.696 L1526.67 221.696 L1526.67 185.909 L1530.95 185.909 L1530.95 189.844 Q1532.29 187.53 1534.33 186.418 Q1536.39 185.284 1539.24 185.284 Q1543.96 185.284 1546.9 189.034 Q1549.86 192.784 1549.86 198.895 Q1549.86 205.006 1546.9 208.756 Q1543.96 212.506 1539.24 212.506 Q1536.39 212.506 1534.33 211.395 Q1532.29 210.261 1530.95 207.946 M1545.44 198.895 Q1545.44 194.196 1543.5 191.534 Q1541.57 188.849 1538.19 188.849 Q1534.81 188.849 1532.87 191.534 Q1530.95 194.196 1530.95 198.895 Q1530.95 203.594 1532.87 206.28 Q1534.81 208.942 1538.19 208.942 Q1541.57 208.942 1543.5 206.28 Q1545.44 203.594 1545.44 198.895 Z" fill="#000000" fill-rule="nonzero" fill-opacity="1" /><path clip-path="url(#clip490)" d="M1556.92 175.817 L1561.18 175.817 L1561.18 211.835 L1556.92 211.835 L1556.92 175.817 Z" fill="#000000" fill-rule="nonzero" fill-opacity="1" /><path clip-path="url(#clip490)" d="M1581.87 198.803 Q1576.71 198.803 1574.72 199.983 Q1572.73 201.164 1572.73 204.011 Q1572.73 206.28 1574.21 207.622 Q1575.72 208.942 1578.29 208.942 Q1581.83 208.942 1583.96 206.442 Q1586.11 203.918 1586.11 199.752 L1586.11 198.803 L1581.87 198.803 M1590.37 197.043 L1590.37 211.835 L1586.11 211.835 L1586.11 207.9 Q1584.65 210.261 1582.48 211.395 Q1580.3 212.506 1577.15 212.506 Q1573.17 212.506 1570.81 210.284 Q1568.47 208.039 1568.47 204.289 Q1568.47 199.914 1571.39 197.692 Q1574.33 195.469 1580.14 195.469 L1586.11 195.469 L1586.11 195.053 Q1586.11 192.113 1584.17 190.516 Q1582.24 188.895 1578.75 188.895 Q1576.53 188.895 1574.42 189.428 Q1572.31 189.96 1570.37 191.025 L1570.37 187.09 Q1572.71 186.187 1574.91 185.747 Q1577.11 185.284 1579.19 185.284 Q1584.81 185.284 1587.59 188.201 Q1590.37 191.118 1590.37 197.043 Z" fill="#000000" fill-rule="nonzero" fill-opacity="1" /><path clip-path="url(#clip490)" d="M1599.14 185.909 L1603.4 185.909 L1603.4 211.835 L1599.14 211.835 L1599.14 185.909 M1599.14 175.817 L1603.4 175.817 L1603.4 181.21 L1599.14 181.21 L1599.14 175.817 Z" fill="#000000" fill-rule="nonzero" fill-opacity="1" /><path clip-path="url(#clip490)" d="M1633.87 196.187 L1633.87 211.835 L1629.61 211.835 L1629.61 196.326 Q1629.61 192.645 1628.17 190.817 Q1626.74 188.988 1623.87 188.988 Q1620.42 188.988 1618.43 191.187 Q1616.43 193.386 1616.43 197.182 L1616.43 211.835 L1612.15 211.835 L1612.15 185.909 L1616.43 185.909 L1616.43 189.937 Q1617.96 187.599 1620.02 186.442 Q1622.11 185.284 1624.81 185.284 Q1629.28 185.284 1631.57 188.062 Q1633.87 190.817 1633.87 196.187 Z" fill="#000000" fill-rule="nonzero" fill-opacity="1" /><polyline clip-path="url(#clip490)" style="stroke:#e26f46; stroke-linecap:round; stroke-linejoin:round; stroke-width:8; stroke-opacity:1; fill:none" points="1389.21,246.395 1507.03,246.395 "/>
<path clip-path="url(#clip490)" d="M1530.95 259.786 L1530.95 273.536 L1526.67 273.536 L1526.67 237.749 L1530.95 237.749 L1530.95 241.684 Q1532.29 239.37 1534.33 238.258 Q1536.39 237.124 1539.24 237.124 Q1543.96 237.124 1546.9 240.874 Q1549.86 244.624 1549.86 250.735 Q1549.86 256.846 1546.9 260.596 Q1543.96 264.346 1539.24 264.346 Q1536.39 264.346 1534.33 263.235 Q1532.29 262.101 1530.95 259.786 M1545.44 250.735 Q1545.44 246.036 1543.5 243.374 Q1541.57 240.689 1538.19 240.689 Q1534.81 240.689 1532.87 243.374 Q1530.95 246.036 1530.95 250.735 Q1530.95 255.434 1532.87 258.12 Q1534.81 260.782 1538.19 260.782 Q1541.57 260.782 1543.5 258.12 Q1545.44 255.434 1545.44 250.735 Z" fill="#000000" fill-rule="nonzero" fill-opacity="1" /><path clip-path="url(#clip490)" d="M1571.94 241.731 Q1571.23 241.314 1570.37 241.129 Q1569.54 240.921 1568.52 240.921 Q1564.91 240.921 1562.96 243.282 Q1561.04 245.62 1561.04 250.018 L1561.04 263.675 L1556.76 263.675 L1556.76 237.749 L1561.04 237.749 L1561.04 241.777 Q1562.38 239.416 1564.54 238.282 Q1566.69 237.124 1569.77 237.124 Q1570.21 237.124 1570.74 237.194 Q1571.27 237.24 1571.92 237.356 L1571.94 241.731 Z" fill="#000000" fill-rule="nonzero" fill-opacity="1" /><path clip-path="url(#clip490)" d="M1597.55 249.647 L1597.55 251.731 L1577.96 251.731 Q1578.24 256.129 1580.6 258.444 Q1582.99 260.735 1587.22 260.735 Q1589.68 260.735 1591.97 260.133 Q1594.28 259.532 1596.55 258.328 L1596.55 262.356 Q1594.26 263.328 1591.85 263.837 Q1589.44 264.346 1586.97 264.346 Q1580.76 264.346 1577.13 260.735 Q1573.52 257.124 1573.52 250.967 Q1573.52 244.601 1576.94 240.874 Q1580.39 237.124 1586.23 237.124 Q1591.46 237.124 1594.49 240.504 Q1597.55 243.86 1597.55 249.647 M1593.29 248.397 Q1593.24 244.902 1591.32 242.819 Q1589.42 240.735 1586.27 240.735 Q1582.71 240.735 1580.56 242.749 Q1578.43 244.763 1578.1 248.42 L1593.29 248.397 Z" fill="#000000" fill-rule="nonzero" fill-opacity="1" /><path clip-path="url(#clip490)" d="M1623.19 238.745 L1623.19 242.726 Q1621.39 241.731 1619.56 241.245 Q1617.75 240.735 1615.9 240.735 Q1611.76 240.735 1609.47 243.374 Q1607.18 245.99 1607.18 250.735 Q1607.18 255.481 1609.47 258.12 Q1611.76 260.735 1615.9 260.735 Q1617.75 260.735 1619.56 260.249 Q1621.39 259.74 1623.19 258.744 L1623.19 262.68 Q1621.41 263.513 1619.49 263.93 Q1617.59 264.346 1615.44 264.346 Q1609.58 264.346 1606.13 260.666 Q1602.68 256.985 1602.68 250.735 Q1602.68 244.393 1606.16 240.758 Q1609.65 237.124 1615.72 237.124 Q1617.68 237.124 1619.56 237.541 Q1621.43 237.934 1623.19 238.745 Z" fill="#000000" fill-rule="nonzero" fill-opacity="1" /><path clip-path="url(#clip490)" d="M1640.65 240.735 Q1637.22 240.735 1635.23 243.421 Q1633.24 246.083 1633.24 250.735 Q1633.24 255.388 1635.21 258.073 Q1637.2 260.735 1640.65 260.735 Q1644.05 260.735 1646.04 258.05 Q1648.03 255.365 1648.03 250.735 Q1648.03 246.129 1646.04 243.444 Q1644.05 240.735 1640.65 240.735 M1640.65 237.124 Q1646.2 237.124 1649.37 240.735 Q1652.55 244.346 1652.55 250.735 Q1652.55 257.101 1649.37 260.735 Q1646.2 264.346 1640.65 264.346 Q1635.07 264.346 1631.9 260.735 Q1628.75 257.101 1628.75 250.735 Q1628.75 244.346 1631.9 240.735 Q1635.07 237.124 1640.65 237.124 Z" fill="#000000" fill-rule="nonzero" fill-opacity="1" /><path clip-path="url(#clip490)" d="M1681.16 248.027 L1681.16 263.675 L1676.9 263.675 L1676.9 248.166 Q1676.9 244.485 1675.46 242.657 Q1674.03 240.828 1671.16 240.828 Q1667.71 240.828 1665.72 243.027 Q1663.73 245.226 1663.73 249.022 L1663.73 263.675 L1659.44 263.675 L1659.44 237.749 L1663.73 237.749 L1663.73 241.777 Q1665.25 239.439 1667.31 238.282 Q1669.4 237.124 1672.11 237.124 Q1676.57 237.124 1678.86 239.902 Q1681.16 242.657 1681.16 248.027 Z" fill="#000000" fill-rule="nonzero" fill-opacity="1" /><path clip-path="url(#clip490)" d="M1706.71 241.684 L1706.71 227.657 L1710.97 227.657 L1710.97 263.675 L1706.71 263.675 L1706.71 259.786 Q1705.37 262.101 1703.31 263.235 Q1701.27 264.346 1698.4 264.346 Q1693.7 264.346 1690.74 260.596 Q1687.8 256.846 1687.8 250.735 Q1687.8 244.624 1690.74 240.874 Q1693.7 237.124 1698.4 237.124 Q1701.27 237.124 1703.31 238.258 Q1705.37 239.37 1706.71 241.684 M1692.2 250.735 Q1692.2 255.434 1694.12 258.12 Q1696.06 260.782 1699.44 260.782 Q1702.82 260.782 1704.77 258.12 Q1706.71 255.434 1706.71 250.735 Q1706.71 246.036 1704.77 243.374 Q1702.82 240.689 1699.44 240.689 Q1696.06 240.689 1694.12 243.374 Q1692.2 246.036 1692.2 250.735 Z" fill="#000000" fill-rule="nonzero" fill-opacity="1" /><path clip-path="url(#clip490)" d="M1719.74 237.749 L1724 237.749 L1724 263.675 L1719.74 263.675 L1719.74 237.749 M1719.74 227.657 L1724 227.657 L1724 233.05 L1719.74 233.05 L1719.74 227.657 Z" fill="#000000" fill-rule="nonzero" fill-opacity="1" /><path clip-path="url(#clip490)" d="M1737.13 230.388 L1737.13 237.749 L1745.9 237.749 L1745.9 241.059 L1737.13 241.059 L1737.13 255.133 Q1737.13 258.305 1737.98 259.207 Q1738.86 260.11 1741.53 260.11 L1745.9 260.11 L1745.9 263.675 L1741.53 263.675 Q1736.6 263.675 1734.72 261.846 Q1732.85 259.994 1732.85 255.133 L1732.85 241.059 L1729.72 241.059 L1729.72 237.749 L1732.85 237.749 L1732.85 230.388 L1737.13 230.388 Z" fill="#000000" fill-rule="nonzero" fill-opacity="1" /><path clip-path="url(#clip490)" d="M1751.5 237.749 L1755.76 237.749 L1755.76 263.675 L1751.5 263.675 L1751.5 237.749 M1751.5 227.657 L1755.76 227.657 L1755.76 233.05 L1751.5 233.05 L1751.5 227.657 Z" fill="#000000" fill-rule="nonzero" fill-opacity="1" /><path clip-path="url(#clip490)" d="M1774.72 240.735 Q1771.29 240.735 1769.3 243.421 Q1767.31 246.083 1767.31 250.735 Q1767.31 255.388 1769.28 258.073 Q1771.27 260.735 1774.72 260.735 Q1778.12 260.735 1780.11 258.05 Q1782.11 255.365 1782.11 250.735 Q1782.11 246.129 1780.11 243.444 Q1778.12 240.735 1774.72 240.735 M1774.72 237.124 Q1780.28 237.124 1783.45 240.735 Q1786.62 244.346 1786.62 250.735 Q1786.62 257.101 1783.45 260.735 Q1780.28 264.346 1774.72 264.346 Q1769.14 264.346 1765.97 260.735 Q1762.82 257.101 1762.82 250.735 Q1762.82 244.346 1765.97 240.735 Q1769.14 237.124 1774.72 237.124 Z" fill="#000000" fill-rule="nonzero" fill-opacity="1" /><path clip-path="url(#clip490)" d="M1815.23 248.027 L1815.23 263.675 L1810.97 263.675 L1810.97 248.166 Q1810.97 244.485 1809.54 242.657 Q1808.1 240.828 1805.23 240.828 Q1801.78 240.828 1799.79 243.027 Q1797.8 245.226 1797.8 249.022 L1797.8 263.675 L1793.52 263.675 L1793.52 237.749 L1797.8 237.749 L1797.8 241.777 Q1799.33 239.439 1801.39 238.282 Q1803.47 237.124 1806.18 237.124 Q1810.65 237.124 1812.94 239.902 Q1815.23 242.657 1815.23 248.027 Z" fill="#000000" fill-rule="nonzero" fill-opacity="1" /><path clip-path="url(#clip490)" d="M1845.9 249.647 L1845.9 251.731 L1826.32 251.731 Q1826.6 256.129 1828.96 258.444 Q1831.34 260.735 1835.58 260.735 Q1838.03 260.735 1840.32 260.133 Q1842.64 259.532 1844.91 258.328 L1844.91 262.356 Q1842.61 263.328 1840.21 263.837 Q1837.8 264.346 1835.32 264.346 Q1829.12 264.346 1825.48 260.735 Q1821.87 257.124 1821.87 250.967 Q1821.87 244.601 1825.3 240.874 Q1828.75 237.124 1834.58 237.124 Q1839.81 237.124 1842.85 240.504 Q1845.9 243.86 1845.9 249.647 M1841.64 248.397 Q1841.6 244.902 1839.67 242.819 Q1837.78 240.735 1834.63 240.735 Q1831.06 240.735 1828.91 242.749 Q1826.78 244.763 1826.46 248.42 L1841.64 248.397 Z" fill="#000000" fill-rule="nonzero" fill-opacity="1" /><path clip-path="url(#clip490)" d="M1869.95 241.684 L1869.95 227.657 L1874.21 227.657 L1874.21 263.675 L1869.95 263.675 L1869.95 259.786 Q1868.61 262.101 1866.55 263.235 Q1864.51 264.346 1861.64 264.346 Q1856.94 264.346 1853.98 260.596 Q1851.04 256.846 1851.04 250.735 Q1851.04 244.624 1853.98 240.874 Q1856.94 237.124 1861.64 237.124 Q1864.51 237.124 1866.55 238.258 Q1868.61 239.37 1869.95 241.684 M1855.44 250.735 Q1855.44 255.434 1857.36 258.12 Q1859.3 260.782 1862.68 260.782 Q1866.06 260.782 1868.01 258.12 Q1869.95 255.434 1869.95 250.735 Q1869.95 246.036 1868.01 243.374 Q1866.06 240.689 1862.68 240.689 Q1859.3 240.689 1857.36 243.374 Q1855.44 246.036 1855.44 250.735 Z" fill="#000000" fill-rule="nonzero" fill-opacity="1" /></svg>
