<?xml version="1.0" encoding="utf-8"?>
<svg xmlns="http://www.w3.org/2000/svg" xmlns:xlink="http://www.w3.org/1999/xlink" width="500" height="320" viewBox="0 0 2000 1280">
<defs>
  <clipPath id="clip370">
    <rect x="0" y="0" width="2000" height="1280"/>
  </clipPath>
</defs>
<path clip-path="url(#clip370)" d="M0 1280 L2000 1280 L2000 0 L0 0  Z" fill="#ffffff" fill-rule="evenodd" fill-opacity="1"/>
<defs>
  <clipPath id="clip371">
    <rect x="400" y="0" width="1401" height="1280"/>
  </clipPath>
</defs>
<path clip-path="url(#clip370)" d="M245.244 1111.02 L1952.76 1111.02 L1952.76 107.256 L245.244 107.256  Z" fill="#ffffff" fill-rule="evenodd" fill-opacity="1"/>
<defs>
  <clipPath id="clip372">
    <rect x="245" y="107" width="1709" height="1005"/>
  </clipPath>
</defs>
<polyline clip-path="url(#clip372)" style="stroke:#000000; stroke-linecap:round; stroke-linejoin:round; stroke-width:2; stroke-opacity:0.1; fill:none" points="293.57,1111.02 293.57,107.256 "/>
<polyline clip-path="url(#clip372)" style="stroke:#000000; stroke-linecap:round; stroke-linejoin:round; stroke-width:2; stroke-opacity:0.1; fill:none" points="603.351,1111.02 603.351,107.256 "/>
<polyline clip-path="url(#clip372)" style="stroke:#000000; stroke-linecap:round; stroke-linejoin:round; stroke-width:2; stroke-opacity:0.1; fill:none" points="913.132,1111.02 913.132,107.256 "/>
<polyline clip-path="url(#clip372)" style="stroke:#000000; stroke-linecap:round; stroke-linejoin:round; stroke-width:2; stroke-opacity:0.1; fill:none" points="1222.91,1111.02 1222.91,107.256 "/>
<polyline clip-path="url(#clip372)" style="stroke:#000000; stroke-linecap:round; stroke-linejoin:round; stroke-width:2; stroke-opacity:0.1; fill:none" points="1532.69,1111.02 1532.69,107.256 "/>
<polyline clip-path="url(#clip372)" style="stroke:#000000; stroke-linecap:round; stroke-linejoin:round; stroke-width:2; stroke-opacity:0.1; fill:none" points="1842.47,1111.02 1842.47,107.256 "/>
<polyline clip-path="url(#clip372)" style="stroke:#000000; stroke-linecap:round; stroke-linejoin:round; stroke-width:2; stroke-opacity:0.1; fill:none" points="245.244,1082.26 1952.76,1082.26 "/>
<polyline clip-path="url(#clip372)" style="stroke:#000000; stroke-linecap:round; stroke-linejoin:round; stroke-width:2; stroke-opacity:0.1; fill:none" points="245.244,571.317 1952.76,571.317 "/>
<polyline clip-path="url(#clip370)" style="stroke:#000000; stroke-linecap:round; stroke-linejoin:round; stroke-width:4; stroke-opacity:1; fill:none" points="245.244,1111.02 1952.76,1111.02 "/>
<polyline clip-path="url(#clip370)" style="stroke:#000000; stroke-linecap:round; stroke-linejoin:round; stroke-width:4; stroke-opacity:1; fill:none" points="293.57,1111.02 293.57,1092.12 "/>
<polyline clip-path="url(#clip370)" style="stroke:#000000; stroke-linecap:round; stroke-linejoin:round; stroke-width:4; stroke-opacity:1; fill:none" points="603.351,1111.02 603.351,1092.12 "/>
<polyline clip-path="url(#clip370)" style="stroke:#000000; stroke-linecap:round; stroke-linejoin:round; stroke-width:4; stroke-opacity:1; fill:none" points="913.132,1111.02 913.132,1092.12 "/>
<polyline clip-path="url(#clip370)" style="stroke:#000000; stroke-linecap:round; stroke-linejoin:round; stroke-width:4; stroke-opacity:1; fill:none" points="1222.91,1111.02 1222.91,1092.12 "/>
<polyline clip-path="url(#clip370)" style="stroke:#000000; stroke-linecap:round; stroke-linejoin:round; stroke-width:4; stroke-opacity:1; fill:none" points="1532.69,1111.02 1532.69,1092.12 "/>
<polyline clip-path="url(#clip370)" style="stroke:#000000; stroke-linecap:round; stroke-linejoin:round; stroke-width:4; stroke-opacity:1; fill:none" points="1842.47,1111.02 1842.47,1092.12 "/>
<path clip-path="url(#clip370)" d="M293.57 1138.74 Q289.959 1138.74 288.13 1142.3 Q286.325 1145.84 286.325 1152.97 Q286.325 1160.08 288.13 1163.64 Q289.959 1167.19 293.57 1167.19 Q297.204 1167.19 299.01 1163.64 Q300.839 1160.08 300.839 1152.97 Q300.839 1145.84 299.01 1142.3 Q297.204 1138.74 293.57 1138.74 M293.57 1135.03 Q299.38 1135.03 302.436 1139.64 Q305.515 1144.22 305.515 1152.97 Q305.515 1161.7 302.436 1166.31 Q299.38 1170.89 293.57 1170.89 Q287.76 1170.89 284.681 1166.31 Q281.626 1161.7 281.626 1152.97 Q281.626 1144.22 284.681 1139.64 Q287.76 1135.03 293.57 1135.03 Z" fill="#000000" fill-rule="nonzero" fill-opacity="1" /><path clip-path="url(#clip370)" d="M578.05 1135.66 L596.407 1135.66 L596.407 1139.59 L582.333 1139.59 L582.333 1148.07 Q583.351 1147.72 584.37 1147.56 Q585.388 1147.37 586.407 1147.37 Q592.194 1147.37 595.573 1150.54 Q598.953 1153.71 598.953 1159.13 Q598.953 1164.71 595.481 1167.81 Q592.008 1170.89 585.689 1170.89 Q583.513 1170.89 581.245 1170.52 Q578.999 1170.15 576.592 1169.41 L576.592 1164.71 Q578.675 1165.84 580.897 1166.4 Q583.12 1166.95 585.596 1166.95 Q589.601 1166.95 591.939 1164.85 Q594.277 1162.74 594.277 1159.13 Q594.277 1155.52 591.939 1153.41 Q589.601 1151.31 585.596 1151.31 Q583.721 1151.31 581.846 1151.72 Q579.995 1152.14 578.05 1153.02 L578.05 1135.66 Z" fill="#000000" fill-rule="nonzero" fill-opacity="1" /><path clip-path="url(#clip370)" d="M618.166 1138.74 Q614.555 1138.74 612.726 1142.3 Q610.92 1145.84 610.92 1152.97 Q610.92 1160.08 612.726 1163.64 Q614.555 1167.19 618.166 1167.19 Q621.8 1167.19 623.605 1163.64 Q625.434 1160.08 625.434 1152.97 Q625.434 1145.84 623.605 1142.3 Q621.8 1138.74 618.166 1138.74 M618.166 1135.03 Q623.976 1135.03 627.031 1139.64 Q630.11 1144.22 630.11 1152.97 Q630.11 1161.7 627.031 1166.31 Q623.976 1170.89 618.166 1170.89 Q612.356 1170.89 609.277 1166.31 Q606.221 1161.7 606.221 1152.97 Q606.221 1144.22 609.277 1139.64 Q612.356 1135.03 618.166 1135.03 Z" fill="#000000" fill-rule="nonzero" fill-opacity="1" /><path clip-path="url(#clip370)" d="M872.738 1166.28 L880.377 1166.28 L880.377 1139.92 L872.067 1141.58 L872.067 1137.33 L880.331 1135.66 L885.007 1135.66 L885.007 1166.28 L892.646 1166.28 L892.646 1170.22 L872.738 1170.22 L872.738 1166.28 Z" fill="#000000" fill-rule="nonzero" fill-opacity="1" /><path clip-path="url(#clip370)" d="M912.09 1138.74 Q908.479 1138.74 906.65 1142.3 Q904.845 1145.84 904.845 1152.97 Q904.845 1160.08 906.65 1163.64 Q908.479 1167.19 912.09 1167.19 Q915.724 1167.19 917.53 1163.64 Q919.359 1160.08 919.359 1152.97 Q919.359 1145.84 917.53 1142.3 Q915.724 1138.74 912.09 1138.74 M912.09 1135.03 Q917.9 1135.03 920.956 1139.64 Q924.034 1144.22 924.034 1152.97 Q924.034 1161.7 920.956 1166.31 Q917.9 1170.89 912.09 1170.89 Q906.28 1170.89 903.201 1166.31 Q900.146 1161.7 900.146 1152.97 Q900.146 1144.22 903.201 1139.64 Q906.28 1135.03 912.09 1135.03 Z" fill="#000000" fill-rule="nonzero" fill-opacity="1" /><path clip-path="url(#clip370)" d="M942.252 1138.74 Q938.641 1138.74 936.812 1142.3 Q935.007 1145.84 935.007 1152.97 Q935.007 1160.08 936.812 1163.64 Q938.641 1167.19 942.252 1167.19 Q945.886 1167.19 947.692 1163.64 Q949.52 1160.08 949.52 1152.97 Q949.52 1145.84 947.692 1142.3 Q945.886 1138.74 942.252 1138.74 M942.252 1135.03 Q948.062 1135.03 951.118 1139.64 Q954.196 1144.22 954.196 1152.97 Q954.196 1161.7 951.118 1166.31 Q948.062 1170.89 942.252 1170.89 Q936.442 1170.89 933.363 1166.31 Q930.308 1161.7 930.308 1152.97 Q930.308 1144.22 933.363 1139.64 Q936.442 1135.03 942.252 1135.03 Z" fill="#000000" fill-rule="nonzero" fill-opacity="1" /><path clip-path="url(#clip370)" d="M1182.52 1166.28 L1190.16 1166.28 L1190.16 1139.92 L1181.85 1141.58 L1181.85 1137.33 L1190.11 1135.66 L1194.79 1135.66 L1194.79 1166.28 L1202.43 1166.28 L1202.43 1170.22 L1182.52 1170.22 L1182.52 1166.28 Z" fill="#000000" fill-rule="nonzero" fill-opacity="1" /><path clip-path="url(#clip370)" d="M1211.92 1135.66 L1230.27 1135.66 L1230.27 1139.59 L1216.2 1139.59 L1216.2 1148.07 Q1217.22 1147.72 1218.24 1147.56 Q1219.26 1147.37 1220.27 1147.37 Q1226.06 1147.37 1229.44 1150.54 Q1232.82 1153.71 1232.82 1159.13 Q1232.82 1164.71 1229.35 1167.81 Q1225.88 1170.89 1219.56 1170.89 Q1217.38 1170.89 1215.11 1170.52 Q1212.87 1170.15 1210.46 1169.41 L1210.46 1164.71 Q1212.54 1165.84 1214.76 1166.4 Q1216.99 1166.95 1219.46 1166.95 Q1223.47 1166.95 1225.81 1164.85 Q1228.14 1162.74 1228.14 1159.13 Q1228.14 1155.52 1225.81 1153.41 Q1223.47 1151.31 1219.46 1151.31 Q1217.59 1151.31 1215.71 1151.72 Q1213.86 1152.14 1211.92 1153.02 L1211.92 1135.66 Z" fill="#000000" fill-rule="nonzero" fill-opacity="1" /><path clip-path="url(#clip370)" d="M1252.03 1138.74 Q1248.42 1138.74 1246.59 1142.3 Q1244.79 1145.84 1244.79 1152.97 Q1244.79 1160.08 1246.59 1163.64 Q1248.42 1167.19 1252.03 1167.19 Q1255.67 1167.19 1257.47 1163.64 Q1259.3 1160.08 1259.3 1152.97 Q1259.3 1145.84 1257.47 1142.3 Q1255.67 1138.74 1252.03 1138.74 M1252.03 1135.03 Q1257.84 1135.03 1260.9 1139.64 Q1263.98 1144.22 1263.98 1152.97 Q1263.98 1161.7 1260.9 1166.31 Q1257.84 1170.89 1252.03 1170.89 Q1246.22 1170.89 1243.14 1166.31 Q1240.09 1161.7 1240.09 1152.97 Q1240.09 1144.22 1243.14 1139.64 Q1246.22 1135.03 1252.03 1135.03 Z" fill="#000000" fill-rule="nonzero" fill-opacity="1" /><path clip-path="url(#clip370)" d="M1496.39 1166.28 L1512.7 1166.28 L1512.7 1170.22 L1490.76 1170.22 L1490.76 1166.28 Q1493.42 1163.53 1498.01 1158.9 Q1502.61 1154.25 1503.79 1152.9 Q1506.04 1150.38 1506.92 1148.64 Q1507.82 1146.89 1507.82 1145.2 Q1507.82 1142.44 1505.88 1140.7 Q1503.95 1138.97 1500.85 1138.97 Q1498.65 1138.97 1496.2 1139.73 Q1493.77 1140.5 1490.99 1142.05 L1490.99 1137.33 Q1493.82 1136.19 1496.27 1135.61 Q1498.72 1135.03 1500.76 1135.03 Q1506.13 1135.03 1509.33 1137.72 Q1512.52 1140.4 1512.52 1144.89 Q1512.52 1147.02 1511.71 1148.95 Q1510.92 1150.84 1508.82 1153.44 Q1508.24 1154.11 1505.14 1157.33 Q1502.03 1160.52 1496.39 1166.28 Z" fill="#000000" fill-rule="nonzero" fill-opacity="1" /><path clip-path="url(#clip370)" d="M1532.52 1138.74 Q1528.91 1138.74 1527.08 1142.3 Q1525.27 1145.84 1525.27 1152.97 Q1525.27 1160.08 1527.08 1163.64 Q1528.91 1167.19 1532.52 1167.19 Q1536.15 1167.19 1537.96 1163.64 Q1539.79 1160.08 1539.79 1152.97 Q1539.79 1145.84 1537.96 1142.3 Q1536.15 1138.74 1532.52 1138.74 M1532.52 1135.03 Q1538.33 1135.03 1541.39 1139.64 Q1544.46 1144.22 1544.46 1152.97 Q1544.46 1161.7 1541.39 1166.31 Q1538.33 1170.89 1532.52 1170.89 Q1526.71 1170.89 1523.63 1166.31 Q1520.58 1161.7 1520.58 1152.97 Q1520.58 1144.22 1523.63 1139.64 Q1526.71 1135.03 1532.52 1135.03 Z" fill="#000000" fill-rule="nonzero" fill-opacity="1" /><path clip-path="url(#clip370)" d="M1562.68 1138.74 Q1559.07 1138.74 1557.24 1142.3 Q1555.44 1145.84 1555.44 1152.97 Q1555.44 1160.08 1557.24 1163.64 Q1559.07 1167.19 1562.68 1167.19 Q1566.32 1167.19 1568.12 1163.64 Q1569.95 1160.08 1569.95 1152.97 Q1569.95 1145.84 1568.12 1142.3 Q1566.32 1138.74 1562.68 1138.74 M1562.68 1135.03 Q1568.49 1135.03 1571.55 1139.64 Q1574.63 1144.22 1574.63 1152.97 Q1574.63 1161.7 1571.55 1166.31 Q1568.49 1170.89 1562.68 1170.89 Q1556.87 1170.89 1553.79 1166.31 Q1550.74 1161.7 1550.74 1152.97 Q1550.74 1144.22 1553.79 1139.64 Q1556.87 1135.03 1562.68 1135.03 Z" fill="#000000" fill-rule="nonzero" fill-opacity="1" /><path clip-path="url(#clip370)" d="M1806.17 1166.28 L1822.49 1166.28 L1822.49 1170.22 L1800.54 1170.22 L1800.54 1166.28 Q1803.2 1163.53 1807.79 1158.9 Q1812.39 1154.25 1813.57 1152.9 Q1815.82 1150.38 1816.7 1148.64 Q1817.6 1146.89 1817.6 1145.2 Q1817.6 1142.44 1815.66 1140.7 Q1813.74 1138.97 1810.63 1138.97 Q1808.43 1138.97 1805.98 1139.73 Q1803.55 1140.5 1800.77 1142.05 L1800.77 1137.33 Q1803.6 1136.19 1806.05 1135.61 Q1808.5 1135.03 1810.54 1135.03 Q1815.91 1135.03 1819.11 1137.72 Q1822.3 1140.4 1822.3 1144.89 Q1822.3 1147.02 1821.49 1148.95 Q1820.7 1150.84 1818.6 1153.44 Q1818.02 1154.11 1814.92 1157.33 Q1811.81 1160.52 1806.17 1166.28 Z" fill="#000000" fill-rule="nonzero" fill-opacity="1" /><path clip-path="url(#clip370)" d="M1832.35 1135.66 L1850.7 1135.66 L1850.7 1139.59 L1836.63 1139.59 L1836.63 1148.07 Q1837.65 1147.72 1838.67 1147.56 Q1839.68 1147.37 1840.7 1147.37 Q1846.49 1147.37 1849.87 1150.54 Q1853.25 1153.71 1853.25 1159.13 Q1853.25 1164.71 1849.78 1167.81 Q1846.3 1170.89 1839.99 1170.89 Q1837.81 1170.89 1835.54 1170.52 Q1833.3 1170.15 1830.89 1169.41 L1830.89 1164.71 Q1832.97 1165.84 1835.19 1166.4 Q1837.42 1166.95 1839.89 1166.95 Q1843.9 1166.95 1846.24 1164.85 Q1848.57 1162.74 1848.57 1159.13 Q1848.57 1155.52 1846.24 1153.41 Q1843.9 1151.31 1839.89 1151.31 Q1838.02 1151.31 1836.14 1151.72 Q1834.29 1152.14 1832.35 1153.02 L1832.35 1135.66 Z" fill="#000000" fill-rule="nonzero" fill-opacity="1" /><path clip-path="url(#clip370)" d="M1872.46 1138.74 Q1868.85 1138.74 1867.02 1142.3 Q1865.22 1145.84 1865.22 1152.97 Q1865.22 1160.08 1867.02 1163.64 Q1868.85 1167.19 1872.46 1167.19 Q1876.1 1167.19 1877.9 1163.64 Q1879.73 1160.08 1879.73 1152.97 Q1879.73 1145.84 1877.9 1142.3 Q1876.1 1138.74 1872.46 1138.74 M1872.46 1135.03 Q1878.27 1135.03 1881.33 1139.64 Q1884.41 1144.22 1884.41 1152.97 Q1884.41 1161.7 1881.33 1166.31 Q1878.27 1170.89 1872.46 1170.89 Q1866.65 1170.89 1863.57 1166.31 Q1860.52 1161.7 1860.52 1152.97 Q1860.52 1144.22 1863.57 1139.64 Q1866.65 1135.03 1872.46 1135.03 Z" fill="#000000" fill-rule="nonzero" fill-opacity="1" /><g clip-path="url(#clip370)">
<text style="fill:#000000; fill-opacity:1; font-family:Arial,Helvetica Neue,Helvetica,sans-serif; font-size:66px; text-anchor:middle;" transform="rotate(0, 1099, 1252.42)" x="1099" y="1252.42">Krylov dimension</text>
</g>
<polyline clip-path="url(#clip370)" style="stroke:#000000; stroke-linecap:round; stroke-linejoin:round; stroke-width:4; stroke-opacity:1; fill:none" points="245.244,1111.02 245.244,107.256 "/>
<polyline clip-path="url(#clip370)" style="stroke:#000000; stroke-linecap:round; stroke-linejoin:round; stroke-width:4; stroke-opacity:1; fill:none" points="245.244,1082.26 264.142,1082.26 "/>
<polyline clip-path="url(#clip370)" style="stroke:#000000; stroke-linecap:round; stroke-linejoin:round; stroke-width:4; stroke-opacity:1; fill:none" points="245.244,571.317 264.142,571.317 "/>
<path clip-path="url(#clip370)" d="M113.675 1102.05 L121.314 1102.05 L121.314 1075.68 L113.004 1077.35 L113.004 1073.09 L121.268 1071.42 L125.944 1071.42 L125.944 1102.05 L133.583 1102.05 L133.583 1105.98 L113.675 1105.98 L113.675 1102.05 Z" fill="#000000" fill-rule="nonzero" fill-opacity="1" /><path clip-path="url(#clip370)" d="M153.027 1074.5 Q149.416 1074.5 147.587 1078.07 Q145.782 1081.61 145.782 1088.74 Q145.782 1095.84 147.587 1099.41 Q149.416 1102.95 153.027 1102.95 Q156.661 1102.95 158.467 1099.41 Q160.295 1095.84 160.295 1088.74 Q160.295 1081.61 158.467 1078.07 Q156.661 1074.5 153.027 1074.5 M153.027 1070.8 Q158.837 1070.8 161.893 1075.4 Q164.971 1079.99 164.971 1088.74 Q164.971 1097.46 161.893 1102.07 Q158.837 1106.65 153.027 1106.65 Q147.217 1106.65 144.138 1102.07 Q141.082 1097.46 141.082 1088.74 Q141.082 1079.99 144.138 1075.4 Q147.217 1070.8 153.027 1070.8 Z" fill="#000000" fill-rule="nonzero" fill-opacity="1" /><path clip-path="url(#clip370)" d="M164.971 1064.9 L189.083 1064.9 L189.083 1068.1 L164.971 1068.1 L164.971 1064.9 Z" fill="#000000" fill-rule="nonzero" fill-opacity="1" /><path clip-path="url(#clip370)" d="M205.878 1063.02 Q203.32 1063.02 201.816 1064.77 Q200.33 1066.52 200.33 1069.56 Q200.33 1072.59 201.816 1074.36 Q203.32 1076.11 205.878 1076.11 Q208.436 1076.11 209.922 1074.36 Q211.426 1072.59 211.426 1069.56 Q211.426 1066.52 209.922 1064.77 Q208.436 1063.02 205.878 1063.02 M213.42 1051.11 L213.42 1054.57 Q211.991 1053.9 210.524 1053.54 Q209.075 1053.18 207.646 1053.18 Q203.885 1053.18 201.891 1055.72 Q199.916 1058.26 199.634 1063.39 Q200.744 1061.76 202.417 1060.89 Q204.091 1060.01 206.104 1060.01 Q210.336 1060.01 212.781 1062.59 Q215.244 1065.14 215.244 1069.56 Q215.244 1073.89 212.687 1076.5 Q210.129 1079.12 205.878 1079.12 Q201.007 1079.12 198.43 1075.39 Q195.854 1071.65 195.854 1064.56 Q195.854 1057.9 199.013 1053.95 Q202.173 1049.98 207.496 1049.98 Q208.925 1049.98 210.373 1050.27 Q211.84 1050.55 213.42 1051.11 Z" fill="#000000" fill-rule="nonzero" fill-opacity="1" /><path clip-path="url(#clip370)" d="M114.333 591.109 L121.972 591.109 L121.972 564.744 L113.662 566.411 L113.662 562.151 L121.926 560.485 L126.602 560.485 L126.602 591.109 L134.241 591.109 L134.241 595.045 L114.333 595.045 L114.333 591.109 Z" fill="#000000" fill-rule="nonzero" fill-opacity="1" /><path clip-path="url(#clip370)" d="M153.685 563.563 Q150.074 563.563 148.245 567.128 Q146.44 570.67 146.44 577.799 Q146.44 584.906 148.245 588.471 Q150.074 592.012 153.685 592.012 Q157.319 592.012 159.125 588.471 Q160.954 584.906 160.954 577.799 Q160.954 570.67 159.125 567.128 Q157.319 563.563 153.685 563.563 M153.685 559.86 Q159.495 559.86 162.551 564.466 Q165.629 569.049 165.629 577.799 Q165.629 586.526 162.551 591.133 Q159.495 595.716 153.685 595.716 Q147.875 595.716 144.796 591.133 Q141.741 586.526 141.741 577.799 Q141.741 569.049 144.796 564.466 Q147.875 559.86 153.685 559.86 Z" fill="#000000" fill-rule="nonzero" fill-opacity="1" /><path clip-path="url(#clip370)" d="M165.629 553.961 L189.741 553.961 L189.741 557.158 L165.629 557.158 L165.629 553.961 Z" fill="#000000" fill-rule="nonzero" fill-opacity="1" /><path clip-path="url(#clip370)" d="M209.452 552.494 Q212.179 553.077 213.702 554.92 Q215.244 556.763 215.244 559.472 Q215.244 563.628 212.386 565.904 Q209.527 568.18 204.261 568.18 Q202.493 568.18 200.612 567.822 Q198.75 567.484 196.756 566.788 L196.756 563.12 Q198.336 564.042 200.217 564.512 Q202.098 564.982 204.148 564.982 Q207.721 564.982 209.583 563.572 Q211.464 562.161 211.464 559.472 Q211.464 556.989 209.715 555.597 Q207.985 554.187 204.881 554.187 L201.609 554.187 L201.609 551.065 L205.032 551.065 Q207.834 551.065 209.32 549.955 Q210.806 548.826 210.806 546.72 Q210.806 544.557 209.264 543.41 Q207.74 542.244 204.881 542.244 Q203.32 542.244 201.534 542.582 Q199.747 542.921 197.603 543.636 L197.603 540.25 Q199.766 539.648 201.646 539.347 Q203.546 539.046 205.22 539.046 Q209.546 539.046 212.066 541.021 Q214.586 542.977 214.586 546.325 Q214.586 548.657 213.251 550.275 Q211.915 551.873 209.452 552.494 Z" fill="#000000" fill-rule="nonzero" fill-opacity="1" /><g clip-path="url(#clip370)">
<text style="fill:#000000; fill-opacity:1; font-family:Arial,Helvetica Neue,Helvetica,sans-serif; font-size:66px; text-anchor:middle;" transform="rotate(-90, 71.4418, 609.137)" x="71.4418" y="609.137">relative residual norm</text>
</g>
<g clip-path="url(#clip370)">
<text style="fill:#000000; fill-opacity:1; font-family:Arial,Helvetica Neue,Helvetica,sans-serif; font-size:66px; text-anchor:middle;" transform="rotate(0, 1099, 57.6)" x="1099" y="57.6">Convergence of MINRES and CG</text>
</g>
<polyline clip-path="url(#clip372)" style="stroke:#009af9; stroke-linecap:round; stroke-linejoin:round; stroke-width:8; stroke-opacity:1; fill:none" points="293.57,140.204 299.766,188.434 305.961,222.486 312.157,250.405 318.353,272.066 324.548,291.11 330.744,308.252 336.939,322.521 343.135,335.952 349.331,348.01 355.526,358.866 361.722,369.266 367.918,378.652 374.113,387.135 380.309,395.429 386.504,403.563 392.7,410.984 398.896,417.901 405.091,424.861 411.287,431.193 417.482,437.386 423.678,443.093 429.874,448.551 436.069,454.151 442.265,459.239 448.461,464.135 454.656,469.036 460.852,473.818 467.047,478.316 473.243,482.735 479.439,487.088 485.634,491.406 491.83,495.578 498.025,499.648 504.221,503.662 510.417,507.524 516.612,511.444 522.808,515.184 529.004,518.857 535.199,522.495 541.395,526.088 547.59,529.573 553.786,533.159 559.982,536.415 566.177,539.799 572.373,543.081 578.568,546.35 584.764,549.788 590.96,553.013 597.155,556.169 603.351,559.398 609.547,562.658 615.742,565.905 621.938,569.049 628.133,572.265 634.329,575.234 640.525,578.354 646.72,581.415 652.916,584.343 659.111,587.31 665.307,590.311 671.503,593.35 677.698,596.476 683.894,599.354 690.09,602.204 696.285,605.092 702.481,607.829 708.676,610.715 714.872,613.615 721.068,616.528 727.263,619.367 733.459,622.179 739.654,624.961 745.85,627.856 752.046,630.888 758.241,633.699 764.437,636.627 770.633,639.583 776.828,642.407 783.024,645.284 789.219,648.041 795.415,650.941 801.611,653.773 807.806,656.63 814.002,659.39 820.197,662.136 826.393,664.982 832.589,667.884 838.784,670.78 844.98,673.473 851.176,676.21 857.371,679.108 863.567,681.83 869.762,684.846 875.958,687.788 882.154,690.682 888.349,693.458 894.545,696.317 900.74,699.143 906.936,702.079 913.132,705.004 919.327,707.9 925.523,710.706 931.719,713.604 937.914,716.417 944.11,719.235 950.305,722.194 956.501,725.204 962.697,728.219 968.892,731.225 975.088,734.058 981.283,736.886 987.479,739.767 993.675,742.703 999.87,745.795 1006.07,748.792 1012.26,751.659 1018.46,754.66 1024.65,757.574 1030.85,760.595 1037.04,763.575 1043.24,766.603 1049.44,769.356 1055.63,772.181 1061.83,775.196 1068.02,778.227 1074.22,781.214 1080.41,784.199 1086.61,787.071 1092.8,789.878 1099,792.775 1105.2,795.788 1111.39,798.706 1117.59,801.642 1123.78,804.655 1129.98,807.506 1136.17,810.319 1142.37,813.219 1148.57,815.889 1154.76,818.833 1160.96,821.825 1167.15,824.746 1173.35,827.713 1179.54,830.586 1185.74,833.589 1191.93,836.339 1198.13,839.339 1204.33,842.34 1210.52,845.357 1216.72,848.196 1222.91,851.092 1229.11,853.953 1235.3,857.006 1241.5,859.999 1247.69,862.843 1253.89,865.745 1260.09,868.62 1266.28,871.723 1272.48,874.69 1278.67,877.79 1284.87,880.682 1291.06,883.729 1297.26,886.756 1303.46,889.791 1309.65,892.833 1315.85,895.991 1322.04,898.932 1328.24,901.897 1334.43,905.031 1340.63,907.952 1346.82,911.001 1353.02,914.005 1359.22,917.072 1365.41,919.994 1371.61,922.8 1377.8,925.662 1384,928.516 1390.19,931.438 1396.39,934.469 1402.59,937.521 1408.78,940.445 1414.98,943.276 1421.17,946.297 1427.37,949.248 1433.56,952.189 1439.76,955.118 1445.95,958.018 1452.15,960.833 1458.35,963.815 1464.54,966.772 1470.74,969.616 1476.93,972.729 1483.13,975.751 1489.32,978.771 1495.52,981.687 1501.72,984.728 1507.91,987.675 1514.11,990.805 1520.3,993.782 1526.5,996.89 1532.69,999.844 1538.89,1002.93 1545.08,1005.9 1551.28,1008.81 1557.48,1011.84 1563.67,1014.83 1569.87,1017.71 1576.06,1020.5 1582.26,1023.41 1588.45,1026.25 1594.65,1029.1 1600.84,1032.04 1607.04,1034.93 1613.24,1037.77 1619.43,1040.72 1625.63,1043.65 1631.82,1046.46 1638.02,1049.43 1644.21,1052.41 1650.41,1055.38 1656.61,1058.56 1662.8,1061.38 1669,1064.38 1675.19,1067.33 1681.39,1070.28 1687.58,1073.4 1693.78,1076.46 1699.97,1079.56 1706.17,1082.52 "/>
<polyline clip-path="url(#clip372)" style="stroke:#e26f46; stroke-linecap:round; stroke-linejoin:round; stroke-width:8; stroke-opacity:1; fill:none" points="293.57,135.664 299.766,176.724 305.961,203.703 312.157,226.922 318.353,241.979 324.548,257.451 330.744,271.574 336.939,280.395 343.135,291.979 349.331,300.698 355.526,308.237 361.722,317.269 367.918,323.348 374.113,328.523 380.309,336.071 386.504,343.562 392.7,347.938 398.896,352.492 405.091,359.663 411.287,362.805 417.482,368.241 423.678,371.165 429.874,375.096 436.069,381.576 442.265,383.361 448.461,386.935 454.656,391.868 460.852,395.804 467.047,398.169 473.243,401.977 479.439,405.808 485.634,409.834 491.83,412.813 498.025,416.021 504.221,419.542 510.417,422.054 516.612,426.498 522.808,428.586 529.004,431.635 535.199,434.919 541.395,438.089 547.59,440.492 553.786,445.074 559.982,444.934 566.177,449.682 572.373,451.882 578.568,455.01 584.764,460.217 590.96,461.192 597.155,463.589 603.351,467.62 609.547,471.212 615.742,474.331 621.938,476.324 628.133,480.343 634.329,480.486 640.525,485.349 646.72,487.752 652.916,489.087 659.111,492.543 665.307,495.933 671.503,499.425 677.698,503.544 683.894,503.494 690.09,506.002 696.285,509.355 702.481,510.182 708.676,514.947 714.872,518.032 721.068,521.094 727.263,523.022 733.459,525.492 739.654,527.893 745.85,532.201 752.046,536.879 758.241,537.007 764.437,541.373 770.633,544.674 776.828,545.876 783.024,549.413 789.219,550.646 795.415,555.356 801.611,557.341 807.806,560.502 814.002,562.045 820.197,564.6 826.393,568.723 832.589,572.32 838.784,575.145 844.98,575.243 851.176,578.563 857.371,583.496 863.567,583.977 869.762,590.656 875.958,592.707 882.154,595.025 888.349,596.313 894.545,600.222 900.74,602.625 906.936,606.932 913.132,609.712 919.327,612.271 925.523,613.945 931.719,617.989 937.914,619.739 944.11,622.629 950.305,627.325 956.501,630.933 962.697,634.008 968.892,636.911 975.088,637.635 981.283,640.407 987.479,643.935 993.675,647.554 999.87,652.487 1006.07,654.373 1012.26,655.661 1018.46,660.29 1024.65,662.154 1030.85,666.457 1037.04,668.949 1043.24,672.546 1049.44,671.915 1055.63,675.653 1061.83,680.993 1068.02,684.206 1074.22,686.675 1080.41,689.635 1086.61,691.14 1092.8,693.125 1099,697.151 1105.2,701.553 1111.39,703.343 1117.59,706.485 1123.78,710.426 1129.98,711.311 1136.17,713.64 1142.37,717.635 1148.57,717.358 1154.76,723.775 1160.96,727.352 1167.15,729.407 1173.35,732.933 1179.54,734.661 1185.74,739.241 1191.93,738.856 1198.13,744.96 1204.33,747.961 1210.52,751.175 1216.72,751.845 1222.91,755.458 1229.11,757.888 1235.3,763.242 1241.5,765.532 1247.69,766.556 1253.89,770.172 1260.09,772.723 1266.28,778.534 1272.48,779.914 1278.67,784.573 1284.87,784.997 1291.06,789.888 1297.26,792.696 1303.46,795.814 1309.65,798.938 1315.85,803.434 1322.04,803.837 1328.24,807.094 1334.43,812.196 1340.63,812.616 1346.82,817.19 1353.02,819.676 1359.22,823.459 1365.41,824.681 1371.61,826.042 1377.8,829.603 1384,832.356 1390.19,836.115 1396.39,840.444 1402.59,843.755 1408.78,845.148 1414.98,846.827 1421.17,852.159 1427.37,854.277 1433.56,857.092 1439.76,859.891 1445.95,862.419 1452.15,864.189 1458.35,869.211 1464.54,871.873 1470.74,873.344 1476.93,879.648 1483.13,881.63 1489.32,884.611 1495.52,886.283 1501.72,890.814 1507.91,892.635 1514.11,897.915 1520.3,899.076 1526.5,903.654 1532.69,904.656 1538.89,909.202 1545.08,910.516 1551.28,912.675 1557.48,917.423 1563.67,919.548 1569.87,921.295 1576.06,923.925 1582.26,928.719 1588.45,930.59 1594.65,933.22 1600.84,936.981 1607.04,939.351 1613.24,941.416 1619.43,945.882 1625.63,948.447 1631.82,949.738 1638.02,954.649 1644.21,957.878 1650.41,960.599 1656.61,966.201 1662.8,964.802 1669,969.963 1675.19,972.365 1681.39,975.29 1687.58,980.433 1693.78,982.841 1699.97,986.344 1706.17,987.585 1712.37,989.988 1718.56,993.4 1724.76,994.479 1730.95,1002.13 1737.15,1001.3 1743.34,1006.07 1749.54,1007.67 1755.74,1010.59 1761.93,1014.06 1768.13,1020.11 1774.32,1018.78 1780.52,1026.09 1786.71,1026.65 1792.91,1033.83 1799.1,1034.05 1805.3,1037.86 1811.5,1039.59 1817.69,1042.7 1823.89,1044.54 1830.08,1046.27 1836.28,1051.98 1842.47,1054.69 1848.67,1056.52 1854.87,1058.45 1861.06,1062.71 1867.26,1064.85 1873.45,1069.1 1879.65,1070.68 1885.84,1074.3 1892.04,1075.44 1898.23,1080.54 1904.43,1082.61 "/>
<path clip-path="url(#clip370)" d="M1570 296.235 L1895.84 296.235 L1895.84 140.715 L1570 140.715  Z" fill="#ffffff" fill-rule="evenodd" fill-opacity="1"/>
<polyline clip-path="url(#clip370)" style="stroke:#000000; stroke-linecap:round; stroke-linejoin:round; stroke-width:4; stroke-opacity:1; fill:none" points="1570,296.235 1895.84,296.235 1895.84,140.715 1570,140.715 1570,296.235 "/>
<polyline clip-path="url(#clip370)" style="stroke:#009af9; stroke-linecap:round; stroke-linejoin:round; stroke-width:8; stroke-opacity:1; fill:none" points="1588.97,192.555 1702.8,192.555 "/>
<path clip-path="url(#clip370)" d="M1742.12 188.886 Q1743.72 186.015 1745.94 184.65 Q1748.16 183.284 1751.17 183.284 Q1755.22 183.284 1757.42 186.131 Q1759.62 188.955 1759.62 194.187 L1759.62 209.835 L1755.34 209.835 L1755.34 194.325 Q1755.34 190.599 1754.02 188.793 Q1752.7 186.988 1749.99 186.988 Q1746.68 186.988 1744.76 189.187 Q1742.84 191.386 1742.84 195.182 L1742.84 209.835 L1738.56 209.835 L1738.56 194.325 Q1738.56 190.575 1737.24 188.793 Q1735.92 186.988 1733.16 186.988 Q1729.9 186.988 1727.98 189.21 Q1726.06 191.409 1726.06 195.182 L1726.06 209.835 L1721.77 209.835 L1721.77 183.909 L1726.06 183.909 L1726.06 187.937 Q1727.52 185.552 1729.55 184.418 Q1731.59 183.284 1734.39 183.284 Q1737.21 183.284 1739.18 184.719 Q1741.17 186.154 1742.12 188.886 Z" fill="#000000" fill-rule="nonzero" fill-opacity="1" /><path clip-path="url(#clip370)" d="M1768.12 183.909 L1772.38 183.909 L1772.38 209.835 L1768.12 209.835 L1768.12 183.909 M1768.12 173.816 L1772.38 173.816 L1772.38 179.21 L1768.12 179.21 L1768.12 173.816 Z" fill="#000000" fill-rule="nonzero" fill-opacity="1" /><path clip-path="url(#clip370)" d="M1802.84 194.187 L1802.84 209.835 L1798.58 209.835 L1798.58 194.325 Q1798.58 190.645 1797.14 188.816 Q1795.71 186.988 1792.84 186.988 Q1789.39 186.988 1787.4 189.187 Q1785.41 191.386 1785.41 195.182 L1785.41 209.835 L1781.13 209.835 L1781.13 183.909 L1785.41 183.909 L1785.41 187.937 Q1786.94 185.599 1789 184.441 Q1791.08 183.284 1793.79 183.284 Q1798.26 183.284 1800.55 186.062 Q1802.84 188.816 1802.84 194.187 Z" fill="#000000" fill-rule="nonzero" fill-opacity="1" /><path clip-path="url(#clip370)" d="M1826.36 187.89 Q1825.64 187.474 1824.78 187.288 Q1823.95 187.08 1822.93 187.08 Q1819.32 187.08 1817.38 189.441 Q1815.45 191.779 1815.45 196.177 L1815.45 209.835 L1811.17 209.835 L1811.17 183.909 L1815.45 183.909 L1815.45 187.937 Q1816.8 185.576 1818.95 184.441 Q1821.1 183.284 1824.18 183.284 Q1824.62 183.284 1825.15 183.353 Q1825.69 183.4 1826.33 183.515 L1826.36 187.89 Z" fill="#000000" fill-rule="nonzero" fill-opacity="1" /><path clip-path="url(#clip370)" d="M1851.96 195.807 L1851.96 197.89 L1832.38 197.89 Q1832.65 202.288 1835.01 204.603 Q1837.4 206.895 1841.64 206.895 Q1844.09 206.895 1846.38 206.293 Q1848.7 205.691 1850.96 204.487 L1850.96 208.515 Q1848.67 209.487 1846.26 209.997 Q1843.86 210.506 1841.38 210.506 Q1835.18 210.506 1831.54 206.895 Q1827.93 203.284 1827.93 197.126 Q1827.93 190.761 1831.36 187.034 Q1834.81 183.284 1840.64 183.284 Q1845.87 183.284 1848.9 186.663 Q1851.96 190.02 1851.96 195.807 M1847.7 194.557 Q1847.65 191.062 1845.73 188.978 Q1843.83 186.895 1840.69 186.895 Q1837.12 186.895 1834.97 188.909 Q1832.84 190.923 1832.51 194.58 L1847.7 194.557 Z" fill="#000000" fill-rule="nonzero" fill-opacity="1" /><path clip-path="url(#clip370)" d="M1875.48 184.673 L1875.48 188.7 Q1873.67 187.775 1871.73 187.312 Q1869.78 186.849 1867.7 186.849 Q1864.53 186.849 1862.93 187.821 Q1861.36 188.793 1861.36 190.738 Q1861.36 192.219 1862.49 193.075 Q1863.63 193.909 1867.05 194.673 L1868.51 194.997 Q1873.05 195.969 1874.95 197.751 Q1876.87 199.511 1876.87 202.682 Q1876.87 206.293 1874 208.399 Q1871.15 210.506 1866.15 210.506 Q1864.07 210.506 1861.8 210.089 Q1859.55 209.696 1857.05 208.886 L1857.05 204.487 Q1859.41 205.714 1861.7 206.339 Q1864 206.941 1866.24 206.941 Q1869.25 206.941 1870.87 205.923 Q1872.49 204.881 1872.49 203.006 Q1872.49 201.27 1871.31 200.344 Q1870.15 199.418 1866.2 198.562 L1864.71 198.214 Q1860.76 197.381 1859 195.668 Q1857.24 193.932 1857.24 190.923 Q1857.24 187.265 1859.83 185.275 Q1862.42 183.284 1867.19 183.284 Q1869.55 183.284 1871.64 183.631 Q1873.72 183.978 1875.48 184.673 Z" fill="#000000" fill-rule="nonzero" fill-opacity="1" /><polyline clip-path="url(#clip370)" style="stroke:#e26f46; stroke-linecap:round; stroke-linejoin:round; stroke-width:8; stroke-opacity:1; fill:none" points="1588.97,244.395 1702.8,244.395 "/>
<path clip-path="url(#clip370)" d="M1742.28 236.744 L1742.28 240.726 Q1740.48 239.73 1738.65 239.244 Q1736.84 238.735 1734.99 238.735 Q1730.85 238.735 1728.56 241.374 Q1726.27 243.99 1726.27 248.735 Q1726.27 253.48 1728.56 256.119 Q1730.85 258.735 1734.99 258.735 Q1736.84 258.735 1738.65 258.249 Q1740.48 257.739 1742.28 256.744 L1742.28 260.679 Q1740.5 261.513 1738.58 261.929 Q1736.68 262.346 1734.53 262.346 Q1728.67 262.346 1725.22 258.665 Q1721.77 254.985 1721.77 248.735 Q1721.77 242.392 1725.25 238.758 Q1728.74 235.124 1734.81 235.124 Q1736.77 235.124 1738.65 235.541 Q1740.52 235.934 1742.28 236.744 Z" fill="#000000" fill-rule="nonzero" fill-opacity="1" /><path clip-path="url(#clip370)" d="M1766.75 248.411 Q1766.75 243.781 1764.83 241.235 Q1762.93 238.689 1759.48 238.689 Q1756.06 238.689 1754.14 241.235 Q1752.24 243.781 1752.24 248.411 Q1752.24 253.017 1754.14 255.564 Q1756.06 258.11 1759.48 258.11 Q1762.93 258.11 1764.83 255.564 Q1766.75 253.017 1766.75 248.411 M1771.01 258.457 Q1771.01 265.077 1768.07 268.295 Q1765.13 271.536 1759.07 271.536 Q1756.82 271.536 1754.83 271.188 Q1752.84 270.864 1750.96 270.17 L1750.96 266.026 Q1752.84 267.045 1754.67 267.531 Q1756.5 268.017 1758.39 268.017 Q1762.58 268.017 1764.67 265.818 Q1766.75 263.642 1766.75 259.221 L1766.75 257.114 Q1765.43 259.406 1763.37 260.54 Q1761.31 261.675 1758.44 261.675 Q1753.67 261.675 1750.76 258.04 Q1747.84 254.406 1747.84 248.411 Q1747.84 242.392 1750.76 238.758 Q1753.67 235.124 1758.44 235.124 Q1761.31 235.124 1763.37 236.258 Q1765.43 237.392 1766.75 239.684 L1766.75 235.749 L1771.01 235.749 L1771.01 258.457 Z" fill="#000000" fill-rule="nonzero" fill-opacity="1" /></svg>
