<?xml version="1.0" encoding="utf-8"?>
<svg xmlns="http://www.w3.org/2000/svg" xmlns:xlink="http://www.w3.org/1999/xlink" width="500" height="320" viewBox="0 0 2000 1280">
<defs>
  <clipPath id="clip080">
    <rect x="0" y="0" width="2000" height="1280"/>
  </clipPath>
</defs>
<path clip-path="url(#clip080)" d="M0 1280 L2000 1280 L2000 0 L0 0  Z" fill="#ffffff" fill-rule="evenodd" fill-opacity="1"/>
<defs>
  <clipPath id="clip081">
    <rect x="400" y="0" width="1401" height="1280"/>
  </clipPath>
</defs>
<path clip-path="url(#clip080)" d="M244.586 1111.02 L1952.76 1111.02 L1952.76 107.256 L244.586 107.256  Z" fill="#ffffff" fill-rule="evenodd" fill-opacity="1"/>
<defs>
  <clipPath id="clip082">
    <rect x="244" y="107" width="1709" height="1005"/>
  </clipPath>
</defs>
<polyline clip-path="url(#clip082)" style="stroke:#000000; stroke-linecap:round; stroke-linejoin:round; stroke-width:2; stroke-opacity:0.1; fill:none" points="292.931,1111.02 292.931,107.256 "/>
<polyline clip-path="url(#clip082)" style="stroke:#000000; stroke-linecap:round; stroke-linejoin:round; stroke-width:2; stroke-opacity:0.1; fill:none" points="695.801,1111.02 695.801,107.256 "/>
<polyline clip-path="url(#clip082)" style="stroke:#000000; stroke-linecap:round; stroke-linejoin:round; stroke-width:2; stroke-opacity:0.1; fill:none" points="1098.67,1111.02 1098.67,107.256 "/>
<polyline clip-path="url(#clip082)" style="stroke:#000000; stroke-linecap:round; stroke-linejoin:round; stroke-width:2; stroke-opacity:0.1; fill:none" points="1501.54,1111.02 1501.54,107.256 "/>
<polyline clip-path="url(#clip082)" style="stroke:#000000; stroke-linecap:round; stroke-linejoin:round; stroke-width:2; stroke-opacity:0.1; fill:none" points="1904.41,1111.02 1904.41,107.256 "/>
<polyline clip-path="url(#clip082)" style="stroke:#000000; stroke-linecap:round; stroke-linejoin:round; stroke-width:2; stroke-opacity:0.1; fill:none" points="244.586,671.779 1952.76,671.779 "/>
<polyline clip-path="url(#clip082)" style="stroke:#000000; stroke-linecap:round; stroke-linejoin:round; stroke-width:2; stroke-opacity:0.1; fill:none" points="244.586,135.664 1952.76,135.664 "/>
<polyline clip-path="url(#clip080)" style="stroke:#000000; stroke-linecap:round; stroke-linejoin:round; stroke-width:4; stroke-opacity:1; fill:none" points="244.586,1111.02 1952.76,1111.02 "/>
<polyline clip-path="url(#clip080)" style="stroke:#000000; stroke-linecap:round; stroke-linejoin:round; stroke-width:4; stroke-opacity:1; fill:none" points="292.931,1111.02 292.931,1092.12 "/>
<polyline clip-path="url(#clip080)" style="stroke:#000000; stroke-linecap:round; stroke-linejoin:round; stroke-width:4; stroke-opacity:1; fill:none" points="695.801,1111.02 695.801,1092.12 "/>
<polyline clip-path="url(#clip080)" style="stroke:#000000; stroke-linecap:round; stroke-linejoin:round; stroke-width:4; stroke-opacity:1; fill:none" points="1098.67,1111.02 1098.67,1092.12 "/>
<polyline clip-path="url(#clip080)" style="stroke:#000000; stroke-linecap:round; stroke-linejoin:round; stroke-width:4; stroke-opacity:1; fill:none" points="1501.54,1111.02 1501.54,1092.12 "/>
<polyline clip-path="url(#clip080)" style="stroke:#000000; stroke-linecap:round; stroke-linejoin:round; stroke-width:4; stroke-opacity:1; fill:none" points="1904.41,1111.02 1904.41,1092.12 "/>
<path clip-path="url(#clip080)" d="M292.931 1138.74 Q289.319 1138.74 287.491 1142.3 Q285.685 1145.84 285.685 1152.97 Q285.685 1160.08 287.491 1163.64 Q289.319 1167.19 292.931 1167.19 Q296.565 1167.19 298.37 1163.64 Q300.199 1160.08 300.199 1152.97 Q300.199 1145.84 298.37 1142.3 Q296.565 1138.74 292.931 1138.74 M292.931 1135.03 Q298.741 1135.03 301.796 1139.64 Q304.875 1144.22 304.875 1152.97 Q304.875 1161.7 301.796 1166.31 Q298.741 1170.89 292.931 1170.89 Q287.12 1170.89 284.042 1166.31 Q280.986 1161.7 280.986 1152.97 Q280.986 1144.22 284.042 1139.64 Q287.12 1135.03 292.931 1135.03 Z" fill="#000000" fill-rule="nonzero" fill-opacity="1" /><path clip-path="url(#clip080)" d="M670.488 1166.28 L678.127 1166.28 L678.127 1139.92 L669.817 1141.58 L669.817 1137.33 L678.081 1135.66 L682.757 1135.66 L682.757 1166.28 L690.396 1166.28 L690.396 1170.22 L670.488 1170.22 L670.488 1166.28 Z" fill="#000000" fill-rule="nonzero" fill-opacity="1" /><path clip-path="url(#clip080)" d="M709.84 1138.74 Q706.229 1138.74 704.4 1142.3 Q702.595 1145.84 702.595 1152.97 Q702.595 1160.08 704.4 1163.64 Q706.229 1167.19 709.84 1167.19 Q713.474 1167.19 715.28 1163.64 Q717.109 1160.08 717.109 1152.97 Q717.109 1145.84 715.28 1142.3 Q713.474 1138.74 709.84 1138.74 M709.84 1135.03 Q715.65 1135.03 718.706 1139.64 Q721.784 1144.22 721.784 1152.97 Q721.784 1161.7 718.706 1166.31 Q715.65 1170.89 709.84 1170.89 Q704.03 1170.89 700.951 1166.31 Q697.896 1161.7 697.896 1152.97 Q697.896 1144.22 700.951 1139.64 Q704.03 1135.03 709.84 1135.03 Z" fill="#000000" fill-rule="nonzero" fill-opacity="1" /><path clip-path="url(#clip080)" d="M1077.44 1166.28 L1093.76 1166.28 L1093.76 1170.22 L1071.82 1170.22 L1071.82 1166.28 Q1074.48 1163.53 1079.06 1158.9 Q1083.67 1154.25 1084.85 1152.9 Q1087.1 1150.38 1087.98 1148.64 Q1088.88 1146.89 1088.88 1145.2 Q1088.88 1142.44 1086.93 1140.7 Q1085.01 1138.97 1081.91 1138.97 Q1079.71 1138.97 1077.26 1139.73 Q1074.83 1140.5 1072.05 1142.05 L1072.05 1137.33 Q1074.87 1136.19 1077.33 1135.61 Q1079.78 1135.03 1081.82 1135.03 Q1087.19 1135.03 1090.38 1137.72 Q1093.58 1140.4 1093.58 1144.89 Q1093.58 1147.02 1092.77 1148.95 Q1091.98 1150.84 1089.87 1153.44 Q1089.3 1154.11 1086.19 1157.33 Q1083.09 1160.52 1077.44 1166.28 Z" fill="#000000" fill-rule="nonzero" fill-opacity="1" /><path clip-path="url(#clip080)" d="M1113.58 1138.74 Q1109.97 1138.74 1108.14 1142.3 Q1106.33 1145.84 1106.33 1152.97 Q1106.33 1160.08 1108.14 1163.64 Q1109.97 1167.19 1113.58 1167.19 Q1117.21 1167.19 1119.02 1163.64 Q1120.85 1160.08 1120.85 1152.97 Q1120.85 1145.84 1119.02 1142.3 Q1117.21 1138.74 1113.58 1138.74 M1113.58 1135.03 Q1119.39 1135.03 1122.44 1139.64 Q1125.52 1144.22 1125.52 1152.97 Q1125.52 1161.7 1122.44 1166.31 Q1119.39 1170.89 1113.58 1170.89 Q1107.77 1170.89 1104.69 1166.31 Q1101.63 1161.7 1101.63 1152.97 Q1101.63 1144.22 1104.69 1139.64 Q1107.77 1135.03 1113.58 1135.03 Z" fill="#000000" fill-rule="nonzero" fill-opacity="1" /><path clip-path="url(#clip080)" d="M1490.38 1151.58 Q1493.74 1152.3 1495.62 1154.57 Q1497.51 1156.84 1497.51 1160.17 Q1497.51 1165.29 1493.99 1168.09 Q1490.48 1170.89 1484 1170.89 Q1481.82 1170.89 1479.5 1170.45 Q1477.21 1170.03 1474.76 1169.18 L1474.76 1164.66 Q1476.7 1165.8 1479.02 1166.38 Q1481.33 1166.95 1483.86 1166.95 Q1488.25 1166.95 1490.55 1165.22 Q1492.86 1163.48 1492.86 1160.17 Q1492.86 1157.12 1490.71 1155.4 Q1488.58 1153.67 1484.76 1153.67 L1480.73 1153.67 L1480.73 1149.83 L1484.94 1149.83 Q1488.39 1149.83 1490.22 1148.46 Q1492.05 1147.07 1492.05 1144.48 Q1492.05 1141.82 1490.15 1140.4 Q1488.28 1138.97 1484.76 1138.97 Q1482.84 1138.97 1480.64 1139.39 Q1478.44 1139.8 1475.8 1140.68 L1475.8 1136.51 Q1478.46 1135.77 1480.78 1135.4 Q1483.12 1135.03 1485.18 1135.03 Q1490.5 1135.03 1493.6 1137.46 Q1496.7 1139.87 1496.7 1143.99 Q1496.7 1146.86 1495.06 1148.85 Q1493.42 1150.82 1490.38 1151.58 Z" fill="#000000" fill-rule="nonzero" fill-opacity="1" /><path clip-path="url(#clip080)" d="M1516.38 1138.74 Q1512.77 1138.74 1510.94 1142.3 Q1509.13 1145.84 1509.13 1152.97 Q1509.13 1160.08 1510.94 1163.64 Q1512.77 1167.19 1516.38 1167.19 Q1520.01 1167.19 1521.82 1163.64 Q1523.65 1160.08 1523.65 1152.97 Q1523.65 1145.84 1521.82 1142.3 Q1520.01 1138.74 1516.38 1138.74 M1516.38 1135.03 Q1522.19 1135.03 1525.24 1139.64 Q1528.32 1144.22 1528.32 1152.97 Q1528.32 1161.7 1525.24 1166.31 Q1522.19 1170.89 1516.38 1170.89 Q1510.57 1170.89 1507.49 1166.31 Q1504.43 1161.7 1504.43 1152.97 Q1504.43 1144.22 1507.49 1139.64 Q1510.57 1135.03 1516.38 1135.03 Z" fill="#000000" fill-rule="nonzero" fill-opacity="1" /><path clip-path="url(#clip080)" d="M1892.58 1139.73 L1880.78 1158.18 L1892.58 1158.18 L1892.58 1139.73 M1891.36 1135.66 L1897.24 1135.66 L1897.24 1158.18 L1902.17 1158.18 L1902.17 1162.07 L1897.24 1162.07 L1897.24 1170.22 L1892.58 1170.22 L1892.58 1162.07 L1876.98 1162.07 L1876.98 1157.56 L1891.36 1135.66 Z" fill="#000000" fill-rule="nonzero" fill-opacity="1" /><path clip-path="url(#clip080)" d="M1919.9 1138.74 Q1916.29 1138.74 1914.46 1142.3 Q1912.65 1145.84 1912.65 1152.97 Q1912.65 1160.08 1914.46 1163.64 Q1916.29 1167.19 1919.9 1167.19 Q1923.53 1167.19 1925.34 1163.64 Q1927.17 1160.08 1927.17 1152.97 Q1927.17 1145.84 1925.34 1142.3 Q1923.53 1138.74 1919.9 1138.74 M1919.9 1135.03 Q1925.71 1135.03 1928.76 1139.64 Q1931.84 1144.22 1931.84 1152.97 Q1931.84 1161.7 1928.76 1166.31 Q1925.71 1170.89 1919.9 1170.89 Q1914.09 1170.89 1911.01 1166.31 Q1907.95 1161.7 1907.95 1152.97 Q1907.95 1144.22 1911.01 1139.64 Q1914.09 1135.03 1919.9 1135.03 Z" fill="#000000" fill-rule="nonzero" fill-opacity="1" /><g clip-path="url(#clip080)">
<text style="fill:#000000; fill-opacity:1; font-family:Arial,Helvetica Neue,Helvetica,sans-serif; font-size:66px; text-anchor:middle;" transform="rotate(0, 1098.67, 1252.42)" x="1098.67" y="1252.42">iteration number</text>
</g>
<polyline clip-path="url(#clip080)" style="stroke:#000000; stroke-linecap:round; stroke-linejoin:round; stroke-width:4; stroke-opacity:1; fill:none" points="244.586,1111.02 244.586,107.256 "/>
<polyline clip-path="url(#clip080)" style="stroke:#000000; stroke-linecap:round; stroke-linejoin:round; stroke-width:4; stroke-opacity:1; fill:none" points="244.586,671.779 263.484,671.779 "/>
<polyline clip-path="url(#clip080)" style="stroke:#000000; stroke-linecap:round; stroke-linejoin:round; stroke-width:4; stroke-opacity:1; fill:none" points="244.586,135.664 263.484,135.664 "/>
<path clip-path="url(#clip080)" d="M113.675 691.571 L121.314 691.571 L121.314 665.205 L113.004 666.872 L113.004 662.613 L121.268 660.946 L125.944 660.946 L125.944 691.571 L133.583 691.571 L133.583 695.506 L113.675 695.506 L113.675 691.571 Z" fill="#000000" fill-rule="nonzero" fill-opacity="1" /><path clip-path="url(#clip080)" d="M153.027 664.025 Q149.416 664.025 147.587 667.59 Q145.782 671.131 145.782 678.261 Q145.782 685.367 147.587 688.932 Q149.416 692.474 153.027 692.474 Q156.661 692.474 158.467 688.932 Q160.295 685.367 160.295 678.261 Q160.295 671.131 158.467 667.59 Q156.661 664.025 153.027 664.025 M153.027 660.321 Q158.837 660.321 161.893 664.928 Q164.971 669.511 164.971 678.261 Q164.971 686.988 161.893 691.594 Q158.837 696.178 153.027 696.178 Q147.217 696.178 144.138 691.594 Q141.082 686.988 141.082 678.261 Q141.082 669.511 144.138 664.928 Q147.217 660.321 153.027 660.321 Z" fill="#000000" fill-rule="nonzero" fill-opacity="1" /><path clip-path="url(#clip080)" d="M164.971 654.423 L189.083 654.423 L189.083 657.62 L164.971 657.62 L164.971 654.423 Z" fill="#000000" fill-rule="nonzero" fill-opacity="1" /><path clip-path="url(#clip080)" d="M208.793 652.956 Q211.52 653.539 213.044 655.382 Q214.586 657.225 214.586 659.933 Q214.586 664.09 211.727 666.366 Q208.869 668.641 203.602 668.641 Q201.834 668.641 199.954 668.284 Q198.092 667.945 196.098 667.249 L196.098 663.582 Q197.678 664.504 199.559 664.974 Q201.439 665.444 203.49 665.444 Q207.063 665.444 208.925 664.033 Q210.806 662.623 210.806 659.933 Q210.806 657.451 209.057 656.059 Q207.326 654.648 204.223 654.648 L200.95 654.648 L200.95 651.526 L204.374 651.526 Q207.176 651.526 208.662 650.417 Q210.147 649.288 210.147 647.182 Q210.147 645.019 208.605 643.871 Q207.082 642.705 204.223 642.705 Q202.662 642.705 200.875 643.044 Q199.089 643.382 196.944 644.097 L196.944 640.712 Q199.107 640.11 200.988 639.809 Q202.888 639.508 204.562 639.508 Q208.887 639.508 211.408 641.483 Q213.928 643.439 213.928 646.787 Q213.928 649.119 212.592 650.736 Q211.257 652.335 208.793 652.956 Z" fill="#000000" fill-rule="nonzero" fill-opacity="1" /><path clip-path="url(#clip080)" d="M143.88 155.457 L151.519 155.457 L151.519 129.091 L143.209 130.758 L143.209 126.499 L151.473 124.832 L156.149 124.832 L156.149 155.457 L163.788 155.457 L163.788 159.392 L143.88 159.392 L143.88 155.457 Z" fill="#000000" fill-rule="nonzero" fill-opacity="1" /><path clip-path="url(#clip080)" d="M183.232 127.911 Q179.621 127.911 177.792 131.475 Q175.987 135.017 175.987 142.147 Q175.987 149.253 177.792 152.818 Q179.621 156.359 183.232 156.359 Q186.866 156.359 188.672 152.818 Q190.501 149.253 190.501 142.147 Q190.501 135.017 188.672 131.475 Q186.866 127.911 183.232 127.911 M183.232 124.207 Q189.042 124.207 192.098 128.813 Q195.177 133.397 195.177 142.147 Q195.177 150.873 192.098 155.48 Q189.042 160.063 183.232 160.063 Q177.422 160.063 174.343 155.48 Q171.288 150.873 171.288 142.147 Q171.288 133.397 174.343 128.813 Q177.422 124.207 183.232 124.207 Z" fill="#000000" fill-rule="nonzero" fill-opacity="1" /><path clip-path="url(#clip080)" d="M204.881 106.403 Q201.947 106.403 200.461 109.299 Q198.994 112.177 198.994 117.97 Q198.994 123.744 200.461 126.64 Q201.947 129.518 204.881 129.518 Q207.834 129.518 209.301 126.64 Q210.787 123.744 210.787 117.97 Q210.787 112.177 209.301 109.299 Q207.834 106.403 204.881 106.403 M204.881 103.394 Q209.602 103.394 212.085 107.136 Q214.586 110.86 214.586 117.97 Q214.586 125.06 212.085 128.803 Q209.602 132.527 204.881 132.527 Q200.161 132.527 197.659 128.803 Q195.177 125.06 195.177 117.97 Q195.177 110.86 197.659 107.136 Q200.161 103.394 204.881 103.394 Z" fill="#000000" fill-rule="nonzero" fill-opacity="1" /><g clip-path="url(#clip080)">
<text style="fill:#000000; fill-opacity:1; font-family:Arial,Helvetica Neue,Helvetica,sans-serif; font-size:66px; text-anchor:middle;" transform="rotate(-90, 71.4418, 609.137)" x="71.4418" y="609.137">residual norm</text>
</g>
<g clip-path="url(#clip080)">
<text style="fill:#000000; fill-opacity:1; font-family:Arial,Helvetica Neue,Helvetica,sans-serif; font-size:66px; text-anchor:middle;" transform="rotate(0, 1098.67, 57.6)" x="1098.67" y="57.6">Incomplete LU preconditioning</text>
</g>
<polyline clip-path="url(#clip082)" style="stroke:#009af9; stroke-linecap:round; stroke-linejoin:round; stroke-width:8; stroke-opacity:1; fill:none" points="292.931,135.664 333.218,137.25 373.505,137.74 413.792,137.93 454.079,138.013 494.366,138.053 534.653,138.074 574.94,138.087 615.227,138.096 655.514,138.104 695.801,138.11 736.088,138.116 776.375,138.121 816.662,138.127 856.949,138.132 897.236,138.137 937.523,138.141 977.81,138.145 1018.1,138.148 1058.38,138.151 1098.67,138.151 1138.96,138.151 1179.25,138.151 1219.53,138.151 1259.82,138.151 1300.11,138.151 1340.39,138.152 1380.68,138.152 1420.97,138.152 1461.25,138.152 1501.54,138.152 1541.83,138.152 1582.12,138.152 1622.4,138.153 1662.69,138.154 1702.98,138.157 1743.26,138.161 1783.55,138.167 1823.84,138.173 1864.12,138.178 1904.41,138.178 "/>
<polyline clip-path="url(#clip082)" style="stroke:#e26f46; stroke-linecap:round; stroke-linejoin:round; stroke-width:8; stroke-opacity:1; fill:none" points="292.931,135.664 333.218,151.549 373.505,179.858 413.792,229.71 454.079,253.518 494.366,294.918 534.653,344.178 574.94,401.647 615.227,468.141 655.514,524.763 695.801,578.259 736.088,627.915 776.375,691.906 816.662,757.184 856.949,813.462 897.236,885.157 937.523,984.886 977.81,1082.61 "/>
<polyline clip-path="url(#clip082)" style="stroke:#3da44d; stroke-linecap:round; stroke-linejoin:round; stroke-width:8; stroke-opacity:1; fill:none" points="292.931,135.664 333.218,200.888 373.505,261.184 413.792,305.454 454.079,367.261 494.366,451.206 534.653,535.166 574.94,614.133 615.227,678.254 655.514,764.621 695.801,862.771 736.088,951.431 776.375,1073.92 "/>
<polyline clip-path="url(#clip082)" style="stroke:#c271d2; stroke-linecap:round; stroke-linejoin:round; stroke-width:8; stroke-opacity:1; fill:none" points="292.931,135.664 333.218,247.628 373.505,391.976 413.792,546.227 454.079,651.145 494.366,806.29 534.653,993.991 "/>
<polyline clip-path="url(#clip082)" style="stroke:#ac8d18; stroke-linecap:round; stroke-linejoin:round; stroke-width:8; stroke-opacity:1; fill:none" points="292.931,135.664 333.218,278.87 373.505,504.865 413.792,678.009 454.079,883.661 "/>
<path clip-path="url(#clip080)" d="M1183.87 1077.56 L1895.82 1077.56 L1895.82 766.52 L1183.87 766.52  Z" fill="#ffffff" fill-rule="evenodd" fill-opacity="1"/>
<polyline clip-path="url(#clip080)" style="stroke:#000000; stroke-linecap:round; stroke-linejoin:round; stroke-width:4; stroke-opacity:1; fill:none" points="1183.87,1077.56 1895.82,1077.56 1895.82,766.52 1183.87,766.52 1183.87,1077.56 "/>
<polyline clip-path="url(#clip080)" style="stroke:#009af9; stroke-linecap:round; stroke-linejoin:round; stroke-width:8; stroke-opacity:1; fill:none" points="1202.85,818.36 1316.73,818.36 "/>
<path clip-path="url(#clip080)" d="M1357.42 819.992 L1357.42 835.64 L1353.16 835.64 L1353.16 820.131 Q1353.16 816.45 1351.72 814.621 Q1350.29 812.793 1347.42 812.793 Q1343.97 812.793 1341.98 814.992 Q1339.99 817.191 1339.99 820.987 L1339.99 835.64 L1335.71 835.64 L1335.71 809.714 L1339.99 809.714 L1339.99 813.742 Q1341.52 811.404 1343.58 810.246 Q1345.66 809.089 1348.37 809.089 Q1352.84 809.089 1355.13 811.867 Q1357.42 814.621 1357.42 819.992 Z" fill="#000000" fill-rule="nonzero" fill-opacity="1" /><path clip-path="url(#clip080)" d="M1375.96 812.7 Q1372.53 812.7 1370.54 815.385 Q1368.55 818.047 1368.55 822.7 Q1368.55 827.353 1370.52 830.038 Q1372.51 832.7 1375.96 832.7 Q1379.36 832.7 1381.35 830.015 Q1383.34 827.33 1383.34 822.7 Q1383.34 818.094 1381.35 815.408 Q1379.36 812.7 1375.96 812.7 M1375.96 809.089 Q1381.52 809.089 1384.69 812.7 Q1387.86 816.311 1387.86 822.7 Q1387.86 829.066 1384.69 832.7 Q1381.52 836.311 1375.96 836.311 Q1370.38 836.311 1367.21 832.7 Q1364.06 829.066 1364.06 822.7 Q1364.06 816.311 1367.21 812.7 Q1370.38 809.089 1375.96 809.089 Z" fill="#000000" fill-rule="nonzero" fill-opacity="1" /><path clip-path="url(#clip080)" d="M1414.11 831.751 L1414.11 845.501 L1409.83 845.501 L1409.83 809.714 L1414.11 809.714 L1414.11 813.649 Q1415.45 811.334 1417.49 810.223 Q1419.55 809.089 1422.4 809.089 Q1427.12 809.089 1430.06 812.839 Q1433.02 816.589 1433.02 822.7 Q1433.02 828.811 1430.06 832.561 Q1427.12 836.311 1422.4 836.311 Q1419.55 836.311 1417.49 835.2 Q1415.45 834.066 1414.11 831.751 M1428.6 822.7 Q1428.6 818.001 1426.65 815.339 Q1424.73 812.654 1421.35 812.654 Q1417.97 812.654 1416.03 815.339 Q1414.11 818.001 1414.11 822.7 Q1414.11 827.399 1416.03 830.084 Q1417.97 832.746 1421.35 832.746 Q1424.73 832.746 1426.65 830.084 Q1428.6 827.399 1428.6 822.7 Z" fill="#000000" fill-rule="nonzero" fill-opacity="1" /><path clip-path="url(#clip080)" d="M1455.1 813.695 Q1454.39 813.279 1453.53 813.094 Q1452.7 812.885 1451.68 812.885 Q1448.07 812.885 1446.12 815.246 Q1444.2 817.584 1444.2 821.982 L1444.2 835.64 L1439.92 835.64 L1439.92 809.714 L1444.2 809.714 L1444.2 813.742 Q1445.54 811.381 1447.7 810.246 Q1449.85 809.089 1452.93 809.089 Q1453.37 809.089 1453.9 809.158 Q1454.43 809.205 1455.08 809.32 L1455.1 813.695 Z" fill="#000000" fill-rule="nonzero" fill-opacity="1" /><path clip-path="url(#clip080)" d="M1480.71 821.612 L1480.71 823.695 L1461.12 823.695 Q1461.4 828.093 1463.76 830.408 Q1466.15 832.7 1470.38 832.7 Q1472.83 832.7 1475.13 832.098 Q1477.44 831.496 1479.71 830.293 L1479.71 834.32 Q1477.42 835.293 1475.01 835.802 Q1472.6 836.311 1470.13 836.311 Q1463.92 836.311 1460.29 832.7 Q1456.68 829.089 1456.68 822.931 Q1456.68 816.566 1460.1 812.839 Q1463.55 809.089 1469.39 809.089 Q1474.62 809.089 1477.65 812.469 Q1480.71 815.825 1480.71 821.612 M1476.45 820.362 Q1476.4 816.867 1474.48 814.783 Q1472.58 812.7 1469.43 812.7 Q1465.87 812.7 1463.71 814.714 Q1461.58 816.728 1461.26 820.385 L1476.45 820.362 Z" fill="#000000" fill-rule="nonzero" fill-opacity="1" /><path clip-path="url(#clip080)" d="M1506.35 810.709 L1506.35 814.691 Q1504.55 813.695 1502.72 813.209 Q1500.91 812.7 1499.06 812.7 Q1494.92 812.7 1492.63 815.339 Q1490.33 817.955 1490.33 822.7 Q1490.33 827.445 1492.63 830.084 Q1494.92 832.7 1499.06 832.7 Q1500.91 832.7 1502.72 832.214 Q1504.55 831.705 1506.35 830.709 L1506.35 834.644 Q1504.57 835.478 1502.65 835.894 Q1500.75 836.311 1498.6 836.311 Q1492.74 836.311 1489.29 832.63 Q1485.84 828.95 1485.84 822.7 Q1485.84 816.357 1489.32 812.723 Q1492.81 809.089 1498.88 809.089 Q1500.84 809.089 1502.72 809.506 Q1504.59 809.899 1506.35 810.709 Z" fill="#000000" fill-rule="nonzero" fill-opacity="1" /><path clip-path="url(#clip080)" d="M1523.81 812.7 Q1520.38 812.7 1518.39 815.385 Q1516.4 818.047 1516.4 822.7 Q1516.4 827.353 1518.37 830.038 Q1520.36 832.7 1523.81 832.7 Q1527.21 832.7 1529.2 830.015 Q1531.19 827.33 1531.19 822.7 Q1531.19 818.094 1529.2 815.408 Q1527.21 812.7 1523.81 812.7 M1523.81 809.089 Q1529.36 809.089 1532.53 812.7 Q1535.7 816.311 1535.7 822.7 Q1535.7 829.066 1532.53 832.7 Q1529.36 836.311 1523.81 836.311 Q1518.23 836.311 1515.06 832.7 Q1511.91 829.066 1511.91 822.7 Q1511.91 816.311 1515.06 812.7 Q1518.23 809.089 1523.81 809.089 Z" fill="#000000" fill-rule="nonzero" fill-opacity="1" /><path clip-path="url(#clip080)" d="M1564.32 819.992 L1564.32 835.64 L1560.06 835.64 L1560.06 820.131 Q1560.06 816.45 1558.62 814.621 Q1557.19 812.793 1554.32 812.793 Q1550.87 812.793 1548.88 814.992 Q1546.89 817.191 1546.89 820.987 L1546.89 835.64 L1542.6 835.64 L1542.6 809.714 L1546.89 809.714 L1546.89 813.742 Q1548.41 811.404 1550.47 810.246 Q1552.56 809.089 1555.26 809.089 Q1559.73 809.089 1562.02 811.867 Q1564.32 814.621 1564.32 819.992 Z" fill="#000000" fill-rule="nonzero" fill-opacity="1" /><path clip-path="url(#clip080)" d="M1589.87 813.649 L1589.87 799.621 L1594.13 799.621 L1594.13 835.64 L1589.87 835.64 L1589.87 831.751 Q1588.53 834.066 1586.47 835.2 Q1584.43 836.311 1581.56 836.311 Q1576.86 836.311 1573.9 832.561 Q1570.96 828.811 1570.96 822.7 Q1570.96 816.589 1573.9 812.839 Q1576.86 809.089 1581.56 809.089 Q1584.43 809.089 1586.47 810.223 Q1588.53 811.334 1589.87 813.649 M1575.36 822.7 Q1575.36 827.399 1577.28 830.084 Q1579.22 832.746 1582.6 832.746 Q1585.98 832.746 1587.93 830.084 Q1589.87 827.399 1589.87 822.7 Q1589.87 818.001 1587.93 815.339 Q1585.98 812.654 1582.6 812.654 Q1579.22 812.654 1577.28 815.339 Q1575.36 818.001 1575.36 822.7 Z" fill="#000000" fill-rule="nonzero" fill-opacity="1" /><path clip-path="url(#clip080)" d="M1602.9 809.714 L1607.16 809.714 L1607.16 835.64 L1602.9 835.64 L1602.9 809.714 M1602.9 799.621 L1607.16 799.621 L1607.16 805.015 L1602.9 805.015 L1602.9 799.621 Z" fill="#000000" fill-rule="nonzero" fill-opacity="1" /><path clip-path="url(#clip080)" d="M1620.29 802.353 L1620.29 809.714 L1629.06 809.714 L1629.06 813.024 L1620.29 813.024 L1620.29 827.098 Q1620.29 830.269 1621.14 831.172 Q1622.02 832.075 1624.69 832.075 L1629.06 832.075 L1629.06 835.64 L1624.69 835.64 Q1619.76 835.64 1617.88 833.811 Q1616.01 831.959 1616.01 827.098 L1616.01 813.024 L1612.88 813.024 L1612.88 809.714 L1616.01 809.714 L1616.01 802.353 L1620.29 802.353 Z" fill="#000000" fill-rule="nonzero" fill-opacity="1" /><path clip-path="url(#clip080)" d="M1634.66 809.714 L1638.92 809.714 L1638.92 835.64 L1634.66 835.64 L1634.66 809.714 M1634.66 799.621 L1638.92 799.621 L1638.92 805.015 L1634.66 805.015 L1634.66 799.621 Z" fill="#000000" fill-rule="nonzero" fill-opacity="1" /><path clip-path="url(#clip080)" d="M1657.88 812.7 Q1654.45 812.7 1652.46 815.385 Q1650.47 818.047 1650.47 822.7 Q1650.47 827.353 1652.44 830.038 Q1654.43 832.7 1657.88 832.7 Q1661.28 832.7 1663.27 830.015 Q1665.26 827.33 1665.26 822.7 Q1665.26 818.094 1663.27 815.408 Q1661.28 812.7 1657.88 812.7 M1657.88 809.089 Q1663.44 809.089 1666.61 812.7 Q1669.78 816.311 1669.78 822.7 Q1669.78 829.066 1666.61 832.7 Q1663.44 836.311 1657.88 836.311 Q1652.3 836.311 1649.13 832.7 Q1645.98 829.066 1645.98 822.7 Q1645.98 816.311 1649.13 812.7 Q1652.3 809.089 1657.88 809.089 Z" fill="#000000" fill-rule="nonzero" fill-opacity="1" /><path clip-path="url(#clip080)" d="M1698.39 819.992 L1698.39 835.64 L1694.13 835.64 L1694.13 820.131 Q1694.13 816.45 1692.69 814.621 Q1691.26 812.793 1688.39 812.793 Q1684.94 812.793 1682.95 814.992 Q1680.96 817.191 1680.96 820.987 L1680.96 835.64 L1676.68 835.64 L1676.68 809.714 L1680.96 809.714 L1680.96 813.742 Q1682.49 811.404 1684.55 810.246 Q1686.63 809.089 1689.34 809.089 Q1693.81 809.089 1696.1 811.867 Q1698.39 814.621 1698.39 819.992 Z" fill="#000000" fill-rule="nonzero" fill-opacity="1" /><path clip-path="url(#clip080)" d="M1706.88 809.714 L1711.14 809.714 L1711.14 835.64 L1706.88 835.64 L1706.88 809.714 M1706.88 799.621 L1711.14 799.621 L1711.14 805.015 L1706.88 805.015 L1706.88 799.621 Z" fill="#000000" fill-rule="nonzero" fill-opacity="1" /><path clip-path="url(#clip080)" d="M1741.61 819.992 L1741.61 835.64 L1737.35 835.64 L1737.35 820.131 Q1737.35 816.45 1735.91 814.621 Q1734.48 812.793 1731.61 812.793 Q1728.16 812.793 1726.17 814.992 Q1724.18 817.191 1724.18 820.987 L1724.18 835.64 L1719.89 835.64 L1719.89 809.714 L1724.18 809.714 L1724.18 813.742 Q1725.7 811.404 1727.76 810.246 Q1729.85 809.089 1732.56 809.089 Q1737.02 809.089 1739.31 811.867 Q1741.61 814.621 1741.61 819.992 Z" fill="#000000" fill-rule="nonzero" fill-opacity="1" /><path clip-path="url(#clip080)" d="M1767.16 822.376 Q1767.16 817.746 1765.24 815.2 Q1763.34 812.654 1759.89 812.654 Q1756.47 812.654 1754.55 815.2 Q1752.65 817.746 1752.65 822.376 Q1752.65 826.982 1754.55 829.529 Q1756.47 832.075 1759.89 832.075 Q1763.34 832.075 1765.24 829.529 Q1767.16 826.982 1767.16 822.376 M1771.42 832.422 Q1771.42 839.042 1768.48 842.26 Q1765.54 845.501 1759.48 845.501 Q1757.23 845.501 1755.24 845.154 Q1753.25 844.829 1751.37 844.135 L1751.37 839.992 Q1753.25 841.01 1755.08 841.496 Q1756.91 841.982 1758.81 841.982 Q1763 841.982 1765.08 839.783 Q1767.16 837.607 1767.16 833.186 L1767.16 831.08 Q1765.84 833.371 1763.78 834.505 Q1761.72 835.64 1758.85 835.64 Q1754.08 835.64 1751.17 832.005 Q1748.25 828.371 1748.25 822.376 Q1748.25 816.357 1751.17 812.723 Q1754.08 809.089 1758.85 809.089 Q1761.72 809.089 1763.78 810.223 Q1765.84 811.357 1767.16 813.649 L1767.16 809.714 L1771.42 809.714 L1771.42 832.422 Z" fill="#000000" fill-rule="nonzero" fill-opacity="1" /><polyline clip-path="url(#clip080)" style="stroke:#e26f46; stroke-linecap:round; stroke-linejoin:round; stroke-width:8; stroke-opacity:1; fill:none" points="1202.85,870.2 1316.73,870.2 "/>
<path clip-path="url(#clip080)" d="M1350.57 882.758 Q1351.4 883.869 1353.9 883.869 L1355.96 883.869 L1355.96 887.48 L1353.39 887.48 Q1349.22 887.48 1347.33 885.258 Q1345.43 882.989 1345.43 878.082 L1345.43 865.813 L1335.71 865.813 L1335.71 861.554 L1359.62 861.554 L1359.62 865.813 L1349.78 865.813 L1349.78 878.336 Q1349.78 881.693 1350.57 882.758 Z" fill="#000000" fill-rule="nonzero" fill-opacity="1" /><path clip-path="url(#clip080)" d="M1382.03 865.952 L1411.7 865.952 L1411.7 869.841 L1382.03 869.841 L1382.03 865.952 M1382.03 875.396 L1411.7 875.396 L1411.7 879.332 L1382.03 879.332 L1382.03 875.396 Z" fill="#000000" fill-rule="nonzero" fill-opacity="1" /><path clip-path="url(#clip080)" d="M1440.89 883.545 L1457.21 883.545 L1457.21 887.48 L1435.27 887.48 L1435.27 883.545 Q1437.93 880.79 1442.51 876.16 Q1447.12 871.508 1448.3 870.165 Q1450.54 867.642 1451.42 865.906 Q1452.33 864.147 1452.33 862.457 Q1452.33 859.702 1450.38 857.966 Q1448.46 856.23 1445.36 856.23 Q1443.16 856.23 1440.71 856.994 Q1438.27 857.758 1435.5 859.309 L1435.5 854.586 Q1438.32 853.452 1440.77 852.873 Q1443.23 852.295 1445.27 852.295 Q1450.64 852.295 1453.83 854.98 Q1457.02 857.665 1457.02 862.156 Q1457.02 864.285 1456.21 866.207 Q1455.43 868.105 1453.32 870.697 Q1452.74 871.369 1449.64 874.586 Q1446.54 877.781 1440.89 883.545 Z" fill="#000000" fill-rule="nonzero" fill-opacity="1" /><path clip-path="url(#clip080)" d="M1467.02 881.6 L1471.91 881.6 L1471.91 887.48 L1467.02 887.48 L1467.02 881.6 Z" fill="#000000" fill-rule="nonzero" fill-opacity="1" /><path clip-path="url(#clip080)" d="M1492.09 855.998 Q1488.48 855.998 1486.65 859.563 Q1484.85 863.105 1484.85 870.234 Q1484.85 877.341 1486.65 880.906 Q1488.48 884.447 1492.09 884.447 Q1495.73 884.447 1497.53 880.906 Q1499.36 877.341 1499.36 870.234 Q1499.36 863.105 1497.53 859.563 Q1495.73 855.998 1492.09 855.998 M1492.09 852.295 Q1497.9 852.295 1500.96 856.901 Q1504.04 861.485 1504.04 870.234 Q1504.04 878.961 1500.96 883.568 Q1497.9 888.151 1492.09 888.151 Q1486.28 888.151 1483.21 883.568 Q1480.15 878.961 1480.15 870.234 Q1480.15 861.485 1483.21 856.901 Q1486.28 852.295 1492.09 852.295 Z" fill="#000000" fill-rule="nonzero" fill-opacity="1" /><path clip-path="url(#clip080)" d="M1512.74 881.6 L1517.63 881.6 L1517.63 885.582 L1513.83 892.989 L1510.84 892.989 L1512.74 885.582 L1512.74 881.6 Z" fill="#000000" fill-rule="nonzero" fill-opacity="1" /><path clip-path="url(#clip080)" d="M1546.01 854.193 L1546.01 861.554 L1554.78 861.554 L1554.78 864.864 L1546.01 864.864 L1546.01 878.938 Q1546.01 882.109 1546.86 883.012 Q1547.74 883.915 1550.4 883.915 L1554.78 883.915 L1554.78 887.48 L1550.4 887.48 Q1545.47 887.48 1543.6 885.651 Q1541.72 883.799 1541.72 878.938 L1541.72 864.864 L1538.6 864.864 L1538.6 861.554 L1541.72 861.554 L1541.72 854.193 L1546.01 854.193 Z" fill="#000000" fill-rule="nonzero" fill-opacity="1" /><path clip-path="url(#clip080)" d="M1560.38 861.554 L1564.64 861.554 L1564.64 887.48 L1560.38 887.48 L1560.38 861.554 M1560.38 851.461 L1564.64 851.461 L1564.64 856.855 L1560.38 856.855 L1560.38 851.461 Z" fill="#000000" fill-rule="nonzero" fill-opacity="1" /><path clip-path="url(#clip080)" d="M1593.74 866.531 Q1595.33 863.66 1597.56 862.295 Q1599.78 860.929 1602.79 860.929 Q1606.84 860.929 1609.04 863.776 Q1611.24 866.6 1611.24 871.832 L1611.24 887.48 L1606.95 887.48 L1606.95 871.971 Q1606.95 868.244 1605.63 866.438 Q1604.32 864.633 1601.61 864.633 Q1598.3 864.633 1596.38 866.832 Q1594.45 869.031 1594.45 872.827 L1594.45 887.48 L1590.17 887.48 L1590.17 871.971 Q1590.17 868.221 1588.85 866.438 Q1587.53 864.633 1584.78 864.633 Q1581.51 864.633 1579.59 866.855 Q1577.67 869.054 1577.67 872.827 L1577.67 887.48 L1573.39 887.48 L1573.39 861.554 L1577.67 861.554 L1577.67 865.582 Q1579.13 863.197 1581.17 862.063 Q1583.2 860.929 1586.01 860.929 Q1588.83 860.929 1590.8 862.364 Q1592.79 863.799 1593.74 866.531 Z" fill="#000000" fill-rule="nonzero" fill-opacity="1" /><path clip-path="url(#clip080)" d="M1641.91 873.452 L1641.91 875.535 L1622.32 875.535 Q1622.6 879.933 1624.96 882.248 Q1627.35 884.54 1631.58 884.54 Q1634.04 884.54 1636.33 883.938 Q1638.64 883.336 1640.91 882.133 L1640.91 886.16 Q1638.62 887.133 1636.21 887.642 Q1633.81 888.151 1631.33 888.151 Q1625.13 888.151 1621.49 884.54 Q1617.88 880.929 1617.88 874.771 Q1617.88 868.406 1621.31 864.679 Q1624.76 860.929 1630.59 860.929 Q1635.82 860.929 1638.85 864.309 Q1641.91 867.665 1641.91 873.452 M1637.65 872.202 Q1637.6 868.707 1635.68 866.623 Q1633.78 864.54 1630.63 864.54 Q1627.07 864.54 1624.92 866.554 Q1622.79 868.568 1622.46 872.225 L1637.65 872.202 Z" fill="#000000" fill-rule="nonzero" fill-opacity="1" /><path clip-path="url(#clip080)" d="M1664.52 865.952 L1694.2 865.952 L1694.2 869.841 L1664.52 869.841 L1664.52 865.952 M1664.52 875.396 L1694.2 875.396 L1694.2 879.332 L1664.52 879.332 L1664.52 875.396 Z" fill="#000000" fill-rule="nonzero" fill-opacity="1" /><path clip-path="url(#clip080)" d="M1729.36 855.998 Q1725.75 855.998 1723.92 859.563 Q1722.12 863.105 1722.12 870.234 Q1722.12 877.341 1723.92 880.906 Q1725.75 884.447 1729.36 884.447 Q1733 884.447 1734.8 880.906 Q1736.63 877.341 1736.63 870.234 Q1736.63 863.105 1734.8 859.563 Q1733 855.998 1729.36 855.998 M1729.36 852.295 Q1735.17 852.295 1738.23 856.901 Q1741.31 861.485 1741.31 870.234 Q1741.31 878.961 1738.23 883.568 Q1735.17 888.151 1729.36 888.151 Q1723.55 888.151 1720.47 883.568 Q1717.42 878.961 1717.42 870.234 Q1717.42 861.485 1720.47 856.901 Q1723.55 852.295 1729.36 852.295 Z" fill="#000000" fill-rule="nonzero" fill-opacity="1" /><path clip-path="url(#clip080)" d="M1749.52 881.6 L1754.41 881.6 L1754.41 887.48 L1749.52 887.48 L1749.52 881.6 Z" fill="#000000" fill-rule="nonzero" fill-opacity="1" /><path clip-path="url(#clip080)" d="M1774.59 855.998 Q1770.98 855.998 1769.15 859.563 Q1767.35 863.105 1767.35 870.234 Q1767.35 877.341 1769.15 880.906 Q1770.98 884.447 1774.59 884.447 Q1778.23 884.447 1780.03 880.906 Q1781.86 877.341 1781.86 870.234 Q1781.86 863.105 1780.03 859.563 Q1778.23 855.998 1774.59 855.998 M1774.59 852.295 Q1780.4 852.295 1783.46 856.901 Q1786.54 861.485 1786.54 870.234 Q1786.54 878.961 1783.46 883.568 Q1780.4 888.151 1774.59 888.151 Q1768.78 888.151 1765.7 883.568 Q1762.65 878.961 1762.65 870.234 Q1762.65 861.485 1765.7 856.901 Q1768.78 852.295 1774.59 852.295 Z" fill="#000000" fill-rule="nonzero" fill-opacity="1" /><path clip-path="url(#clip080)" d="M1804.75 871.068 Q1801.42 871.068 1799.5 872.85 Q1797.6 874.633 1797.6 877.758 Q1797.6 880.883 1799.5 882.665 Q1801.42 884.447 1804.75 884.447 Q1808.09 884.447 1810.01 882.665 Q1811.93 880.859 1811.93 877.758 Q1811.93 874.633 1810.01 872.85 Q1808.11 871.068 1804.75 871.068 M1800.08 869.077 Q1797.07 868.336 1795.38 866.276 Q1793.71 864.216 1793.71 861.253 Q1793.71 857.11 1796.65 854.702 Q1799.62 852.295 1804.75 852.295 Q1809.92 852.295 1812.86 854.702 Q1815.8 857.11 1815.8 861.253 Q1815.8 864.216 1814.11 866.276 Q1812.44 868.336 1809.45 869.077 Q1812.83 869.864 1814.71 872.156 Q1816.61 874.447 1816.61 877.758 Q1816.61 882.781 1813.53 885.466 Q1810.47 888.151 1804.75 888.151 Q1799.04 888.151 1795.96 885.466 Q1792.9 882.781 1792.9 877.758 Q1792.9 874.447 1794.8 872.156 Q1796.7 869.864 1800.08 869.077 M1798.37 861.693 Q1798.37 864.378 1800.03 865.883 Q1801.72 867.387 1804.75 867.387 Q1807.76 867.387 1809.45 865.883 Q1811.17 864.378 1811.17 861.693 Q1811.17 859.008 1809.45 857.503 Q1807.76 855.998 1804.75 855.998 Q1801.72 855.998 1800.03 857.503 Q1798.37 859.008 1798.37 861.693 Z" fill="#000000" fill-rule="nonzero" fill-opacity="1" /><path clip-path="url(#clip080)" d="M1824.96 852.92 L1843.32 852.92 L1843.32 856.855 L1829.24 856.855 L1829.24 865.327 Q1830.26 864.98 1831.28 864.818 Q1832.3 864.633 1833.32 864.633 Q1839.11 864.633 1842.49 867.804 Q1845.87 870.975 1845.87 876.392 Q1845.87 881.971 1842.39 885.072 Q1838.92 888.151 1832.6 888.151 Q1830.43 888.151 1828.16 887.781 Q1825.91 887.41 1823.5 886.67 L1823.5 881.971 Q1825.59 883.105 1827.81 883.66 Q1830.03 884.216 1832.51 884.216 Q1836.51 884.216 1838.85 882.109 Q1841.19 880.003 1841.19 876.392 Q1841.19 872.781 1838.85 870.674 Q1836.51 868.568 1832.51 868.568 Q1830.63 868.568 1828.76 868.984 Q1826.91 869.401 1824.96 870.281 L1824.96 852.92 Z" fill="#000000" fill-rule="nonzero" fill-opacity="1" /><polyline clip-path="url(#clip080)" style="stroke:#3da44d; stroke-linecap:round; stroke-linejoin:round; stroke-width:8; stroke-opacity:1; fill:none" points="1202.85,922.04 1316.73,922.04 "/>
<path clip-path="url(#clip080)" d="M1350.57 934.598 Q1351.4 935.709 1353.9 935.709 L1355.96 935.709 L1355.96 939.32 L1353.39 939.32 Q1349.22 939.32 1347.33 937.098 Q1345.43 934.829 1345.43 929.922 L1345.43 917.653 L1335.71 917.653 L1335.71 913.394 L1359.62 913.394 L1359.62 917.653 L1349.78 917.653 L1349.78 930.176 Q1349.78 933.533 1350.57 934.598 Z" fill="#000000" fill-rule="nonzero" fill-opacity="1" /><path clip-path="url(#clip080)" d="M1382.03 917.792 L1411.7 917.792 L1411.7 921.681 L1382.03 921.681 L1382.03 917.792 M1382.03 927.236 L1411.7 927.236 L1411.7 931.172 L1382.03 931.172 L1382.03 927.236 Z" fill="#000000" fill-rule="nonzero" fill-opacity="1" /><path clip-path="url(#clip080)" d="M1437.67 935.385 L1445.31 935.385 L1445.31 909.019 L1437 910.686 L1437 906.426 L1445.27 904.76 L1449.94 904.76 L1449.94 935.385 L1457.58 935.385 L1457.58 939.32 L1437.67 939.32 L1437.67 935.385 Z" fill="#000000" fill-rule="nonzero" fill-opacity="1" /><path clip-path="url(#clip080)" d="M1467.02 933.44 L1471.91 933.44 L1471.91 939.32 L1467.02 939.32 L1467.02 933.44 Z" fill="#000000" fill-rule="nonzero" fill-opacity="1" /><path clip-path="url(#clip080)" d="M1492.09 907.838 Q1488.48 907.838 1486.65 911.403 Q1484.85 914.945 1484.85 922.074 Q1484.85 929.181 1486.65 932.746 Q1488.48 936.287 1492.09 936.287 Q1495.73 936.287 1497.53 932.746 Q1499.36 929.181 1499.36 922.074 Q1499.36 914.945 1497.53 911.403 Q1495.73 907.838 1492.09 907.838 M1492.09 904.135 Q1497.9 904.135 1500.96 908.741 Q1504.04 913.325 1504.04 922.074 Q1504.04 930.801 1500.96 935.408 Q1497.9 939.991 1492.09 939.991 Q1486.28 939.991 1483.21 935.408 Q1480.15 930.801 1480.15 922.074 Q1480.15 913.325 1483.21 908.741 Q1486.28 904.135 1492.09 904.135 Z" fill="#000000" fill-rule="nonzero" fill-opacity="1" /><path clip-path="url(#clip080)" d="M1512.74 933.44 L1517.63 933.44 L1517.63 937.422 L1513.83 944.829 L1510.84 944.829 L1512.74 937.422 L1512.74 933.44 Z" fill="#000000" fill-rule="nonzero" fill-opacity="1" /><path clip-path="url(#clip080)" d="M1546.01 906.033 L1546.01 913.394 L1554.78 913.394 L1554.78 916.704 L1546.01 916.704 L1546.01 930.778 Q1546.01 933.949 1546.86 934.852 Q1547.74 935.755 1550.4 935.755 L1554.78 935.755 L1554.78 939.32 L1550.4 939.32 Q1545.47 939.32 1543.6 937.491 Q1541.72 935.639 1541.72 930.778 L1541.72 916.704 L1538.6 916.704 L1538.6 913.394 L1541.72 913.394 L1541.72 906.033 L1546.01 906.033 Z" fill="#000000" fill-rule="nonzero" fill-opacity="1" /><path clip-path="url(#clip080)" d="M1560.38 913.394 L1564.64 913.394 L1564.64 939.32 L1560.38 939.32 L1560.38 913.394 M1560.38 903.301 L1564.64 903.301 L1564.64 908.695 L1560.38 908.695 L1560.38 903.301 Z" fill="#000000" fill-rule="nonzero" fill-opacity="1" /><path clip-path="url(#clip080)" d="M1593.74 918.371 Q1595.33 915.5 1597.56 914.135 Q1599.78 912.769 1602.79 912.769 Q1606.84 912.769 1609.04 915.616 Q1611.24 918.44 1611.24 923.672 L1611.24 939.32 L1606.95 939.32 L1606.95 923.811 Q1606.95 920.084 1605.63 918.278 Q1604.32 916.473 1601.61 916.473 Q1598.3 916.473 1596.38 918.672 Q1594.45 920.871 1594.45 924.667 L1594.45 939.32 L1590.17 939.32 L1590.17 923.811 Q1590.17 920.061 1588.85 918.278 Q1587.53 916.473 1584.78 916.473 Q1581.51 916.473 1579.59 918.695 Q1577.67 920.894 1577.67 924.667 L1577.67 939.32 L1573.39 939.32 L1573.39 913.394 L1577.67 913.394 L1577.67 917.422 Q1579.13 915.037 1581.17 913.903 Q1583.2 912.769 1586.01 912.769 Q1588.83 912.769 1590.8 914.204 Q1592.79 915.639 1593.74 918.371 Z" fill="#000000" fill-rule="nonzero" fill-opacity="1" /><path clip-path="url(#clip080)" d="M1641.91 925.292 L1641.91 927.375 L1622.32 927.375 Q1622.6 931.773 1624.96 934.088 Q1627.35 936.38 1631.58 936.38 Q1634.04 936.38 1636.33 935.778 Q1638.64 935.176 1640.91 933.973 L1640.91 938 Q1638.62 938.973 1636.21 939.482 Q1633.81 939.991 1631.33 939.991 Q1625.13 939.991 1621.49 936.38 Q1617.88 932.769 1617.88 926.611 Q1617.88 920.246 1621.31 916.519 Q1624.76 912.769 1630.59 912.769 Q1635.82 912.769 1638.85 916.149 Q1641.91 919.505 1641.91 925.292 M1637.65 924.042 Q1637.6 920.547 1635.68 918.463 Q1633.78 916.38 1630.63 916.38 Q1627.07 916.38 1624.92 918.394 Q1622.79 920.408 1622.46 924.065 L1637.65 924.042 Z" fill="#000000" fill-rule="nonzero" fill-opacity="1" /><path clip-path="url(#clip080)" d="M1664.52 917.792 L1694.2 917.792 L1694.2 921.681 L1664.52 921.681 L1664.52 917.792 M1664.52 927.236 L1694.2 927.236 L1694.2 931.172 L1664.52 931.172 L1664.52 927.236 Z" fill="#000000" fill-rule="nonzero" fill-opacity="1" /><path clip-path="url(#clip080)" d="M1729.36 907.838 Q1725.75 907.838 1723.92 911.403 Q1722.12 914.945 1722.12 922.074 Q1722.12 929.181 1723.92 932.746 Q1725.75 936.287 1729.36 936.287 Q1733 936.287 1734.8 932.746 Q1736.63 929.181 1736.63 922.074 Q1736.63 914.945 1734.8 911.403 Q1733 907.838 1729.36 907.838 M1729.36 904.135 Q1735.17 904.135 1738.23 908.741 Q1741.31 913.325 1741.31 922.074 Q1741.31 930.801 1738.23 935.408 Q1735.17 939.991 1729.36 939.991 Q1723.55 939.991 1720.47 935.408 Q1717.42 930.801 1717.42 922.074 Q1717.42 913.325 1720.47 908.741 Q1723.55 904.135 1729.36 904.135 Z" fill="#000000" fill-rule="nonzero" fill-opacity="1" /><path clip-path="url(#clip080)" d="M1749.52 933.44 L1754.41 933.44 L1754.41 939.32 L1749.52 939.32 L1749.52 933.44 Z" fill="#000000" fill-rule="nonzero" fill-opacity="1" /><path clip-path="url(#clip080)" d="M1774.59 907.838 Q1770.98 907.838 1769.15 911.403 Q1767.35 914.945 1767.35 922.074 Q1767.35 929.181 1769.15 932.746 Q1770.98 936.287 1774.59 936.287 Q1778.23 936.287 1780.03 932.746 Q1781.86 929.181 1781.86 922.074 Q1781.86 914.945 1780.03 911.403 Q1778.23 907.838 1774.59 907.838 M1774.59 904.135 Q1780.4 904.135 1783.46 908.741 Q1786.54 913.325 1786.54 922.074 Q1786.54 930.801 1783.46 935.408 Q1780.4 939.991 1774.59 939.991 Q1768.78 939.991 1765.7 935.408 Q1762.65 930.801 1762.65 922.074 Q1762.65 913.325 1765.7 908.741 Q1768.78 904.135 1774.59 904.135 Z" fill="#000000" fill-rule="nonzero" fill-opacity="1" /><path clip-path="url(#clip080)" d="M1805.33 920.176 Q1802.18 920.176 1800.33 922.329 Q1798.5 924.482 1798.5 928.232 Q1798.5 931.959 1800.33 934.135 Q1802.18 936.287 1805.33 936.287 Q1808.48 936.287 1810.31 934.135 Q1812.16 931.959 1812.16 928.232 Q1812.16 924.482 1810.31 922.329 Q1808.48 920.176 1805.33 920.176 M1814.62 905.524 L1814.62 909.783 Q1812.86 908.95 1811.05 908.51 Q1809.27 908.07 1807.51 908.07 Q1802.88 908.07 1800.43 911.195 Q1798 914.32 1797.65 920.639 Q1799.01 918.625 1801.07 917.561 Q1803.13 916.473 1805.61 916.473 Q1810.82 916.473 1813.83 919.644 Q1816.86 922.792 1816.86 928.232 Q1816.86 933.556 1813.71 936.773 Q1810.56 939.991 1805.33 939.991 Q1799.34 939.991 1796.17 935.408 Q1793 930.801 1793 922.074 Q1793 913.88 1796.88 909.019 Q1800.77 904.135 1807.32 904.135 Q1809.08 904.135 1810.87 904.482 Q1812.67 904.829 1814.62 905.524 Z" fill="#000000" fill-rule="nonzero" fill-opacity="1" /><path clip-path="url(#clip080)" d="M1839.08 920.686 Q1842.44 921.403 1844.31 923.672 Q1846.21 925.94 1846.21 929.273 Q1846.21 934.389 1842.69 937.19 Q1839.18 939.991 1832.69 939.991 Q1830.52 939.991 1828.2 939.551 Q1825.91 939.135 1823.46 938.278 L1823.46 933.764 Q1825.4 934.898 1827.72 935.477 Q1830.03 936.056 1832.56 936.056 Q1836.95 936.056 1839.24 934.32 Q1841.56 932.584 1841.56 929.273 Q1841.56 926.218 1839.41 924.505 Q1837.28 922.769 1833.46 922.769 L1829.43 922.769 L1829.43 918.926 L1833.64 918.926 Q1837.09 918.926 1838.92 917.561 Q1840.75 916.172 1840.75 913.579 Q1840.75 910.917 1838.85 909.505 Q1836.98 908.07 1833.46 908.07 Q1831.54 908.07 1829.34 908.487 Q1827.14 908.903 1824.5 909.783 L1824.5 905.616 Q1827.16 904.875 1829.48 904.505 Q1831.81 904.135 1833.87 904.135 Q1839.2 904.135 1842.3 906.565 Q1845.4 908.973 1845.4 913.093 Q1845.4 915.963 1843.76 917.954 Q1842.12 919.922 1839.08 920.686 Z" fill="#000000" fill-rule="nonzero" fill-opacity="1" /><polyline clip-path="url(#clip080)" style="stroke:#c271d2; stroke-linecap:round; stroke-linejoin:round; stroke-width:8; stroke-opacity:1; fill:none" points="1202.85,973.88 1316.73,973.88 "/>
<path clip-path="url(#clip080)" d="M1350.57 986.438 Q1351.4 987.549 1353.9 987.549 L1355.96 987.549 L1355.96 991.16 L1353.39 991.16 Q1349.22 991.16 1347.33 988.938 Q1345.43 986.669 1345.43 981.762 L1345.43 969.493 L1335.71 969.493 L1335.71 965.234 L1359.62 965.234 L1359.62 969.493 L1349.78 969.493 L1349.78 982.016 Q1349.78 985.373 1350.57 986.438 Z" fill="#000000" fill-rule="nonzero" fill-opacity="1" /><path clip-path="url(#clip080)" d="M1382.03 969.632 L1411.7 969.632 L1411.7 973.521 L1382.03 973.521 L1382.03 969.632 M1382.03 979.076 L1411.7 979.076 L1411.7 983.012 L1382.03 983.012 L1382.03 979.076 Z" fill="#000000" fill-rule="nonzero" fill-opacity="1" /><path clip-path="url(#clip080)" d="M1446.86 959.678 Q1443.25 959.678 1441.42 963.243 Q1439.62 966.785 1439.62 973.914 Q1439.62 981.021 1441.42 984.586 Q1443.25 988.127 1446.86 988.127 Q1450.5 988.127 1452.3 984.586 Q1454.13 981.021 1454.13 973.914 Q1454.13 966.785 1452.3 963.243 Q1450.5 959.678 1446.86 959.678 M1446.86 955.975 Q1452.67 955.975 1455.73 960.581 Q1458.81 965.165 1458.81 973.914 Q1458.81 982.641 1455.73 987.248 Q1452.67 991.831 1446.86 991.831 Q1441.05 991.831 1437.97 987.248 Q1434.92 982.641 1434.92 973.914 Q1434.92 965.165 1437.97 960.581 Q1441.05 955.975 1446.86 955.975 Z" fill="#000000" fill-rule="nonzero" fill-opacity="1" /><path clip-path="url(#clip080)" d="M1467.02 985.28 L1471.91 985.28 L1471.91 991.16 L1467.02 991.16 L1467.02 985.28 Z" fill="#000000" fill-rule="nonzero" fill-opacity="1" /><path clip-path="url(#clip080)" d="M1486.12 987.225 L1502.44 987.225 L1502.44 991.16 L1480.5 991.16 L1480.5 987.225 Q1483.16 984.47 1487.74 979.84 Q1492.35 975.188 1493.53 973.845 Q1495.77 971.322 1496.65 969.586 Q1497.56 967.827 1497.56 966.137 Q1497.56 963.382 1495.61 961.646 Q1493.69 959.91 1490.59 959.91 Q1488.39 959.91 1485.94 960.674 Q1483.51 961.438 1480.73 962.989 L1480.73 958.266 Q1483.55 957.132 1486.01 956.553 Q1488.46 955.975 1490.5 955.975 Q1495.87 955.975 1499.06 958.66 Q1502.26 961.345 1502.26 965.836 Q1502.26 967.965 1501.45 969.887 Q1500.66 971.785 1498.55 974.377 Q1497.97 975.049 1494.87 978.266 Q1491.77 981.461 1486.12 987.225 Z" fill="#000000" fill-rule="nonzero" fill-opacity="1" /><path clip-path="url(#clip080)" d="M1512.3 956.6 L1530.66 956.6 L1530.66 960.535 L1516.58 960.535 L1516.58 969.007 Q1517.6 968.66 1518.62 968.498 Q1519.64 968.313 1520.66 968.313 Q1526.45 968.313 1529.83 971.484 Q1533.2 974.655 1533.2 980.072 Q1533.2 985.651 1529.73 988.752 Q1526.26 991.831 1519.94 991.831 Q1517.77 991.831 1515.5 991.461 Q1513.25 991.09 1510.84 990.35 L1510.84 985.651 Q1512.93 986.785 1515.15 987.34 Q1517.37 987.896 1519.85 987.896 Q1523.85 987.896 1526.19 985.789 Q1528.53 983.683 1528.53 980.072 Q1528.53 976.461 1526.19 974.354 Q1523.85 972.248 1519.85 972.248 Q1517.97 972.248 1516.1 972.664 Q1514.25 973.081 1512.3 973.961 L1512.3 956.6 Z" fill="#000000" fill-rule="nonzero" fill-opacity="1" /><path clip-path="url(#clip080)" d="M1542.9 985.28 L1547.79 985.28 L1547.79 989.262 L1543.99 996.669 L1541.01 996.669 L1542.9 989.262 L1542.9 985.28 Z" fill="#000000" fill-rule="nonzero" fill-opacity="1" /><path clip-path="url(#clip080)" d="M1576.17 957.873 L1576.17 965.234 L1584.94 965.234 L1584.94 968.544 L1576.17 968.544 L1576.17 982.618 Q1576.17 985.789 1577.02 986.692 Q1577.9 987.595 1580.57 987.595 L1584.94 987.595 L1584.94 991.16 L1580.57 991.16 Q1575.64 991.16 1573.76 989.331 Q1571.89 987.479 1571.89 982.618 L1571.89 968.544 L1568.76 968.544 L1568.76 965.234 L1571.89 965.234 L1571.89 957.873 L1576.17 957.873 Z" fill="#000000" fill-rule="nonzero" fill-opacity="1" /><path clip-path="url(#clip080)" d="M1590.54 965.234 L1594.8 965.234 L1594.8 991.16 L1590.54 991.16 L1590.54 965.234 M1590.54 955.141 L1594.8 955.141 L1594.8 960.535 L1590.54 960.535 L1590.54 955.141 Z" fill="#000000" fill-rule="nonzero" fill-opacity="1" /><path clip-path="url(#clip080)" d="M1623.9 970.211 Q1625.5 967.34 1627.72 965.975 Q1629.94 964.609 1632.95 964.609 Q1637 964.609 1639.2 967.456 Q1641.4 970.28 1641.4 975.512 L1641.4 991.16 L1637.12 991.16 L1637.12 975.651 Q1637.12 971.924 1635.8 970.118 Q1634.48 968.313 1631.77 968.313 Q1628.46 968.313 1626.54 970.512 Q1624.62 972.711 1624.62 976.507 L1624.62 991.16 L1620.33 991.16 L1620.33 975.651 Q1620.33 971.901 1619.01 970.118 Q1617.7 968.313 1614.94 968.313 Q1611.68 968.313 1609.76 970.535 Q1607.83 972.734 1607.83 976.507 L1607.83 991.16 L1603.55 991.16 L1603.55 965.234 L1607.83 965.234 L1607.83 969.262 Q1609.29 966.877 1611.33 965.743 Q1613.37 964.609 1616.17 964.609 Q1618.99 964.609 1620.96 966.044 Q1622.95 967.479 1623.9 970.211 Z" fill="#000000" fill-rule="nonzero" fill-opacity="1" /><path clip-path="url(#clip080)" d="M1672.07 977.132 L1672.07 979.215 L1652.49 979.215 Q1652.76 983.613 1655.13 985.928 Q1657.51 988.22 1661.75 988.22 Q1664.2 988.22 1666.49 987.618 Q1668.81 987.016 1671.07 985.813 L1671.07 989.84 Q1668.78 990.813 1666.38 991.322 Q1663.97 991.831 1661.49 991.831 Q1655.29 991.831 1651.65 988.22 Q1648.04 984.609 1648.04 978.451 Q1648.04 972.086 1651.47 968.359 Q1654.92 964.609 1660.75 964.609 Q1665.98 964.609 1669.01 967.989 Q1672.07 971.345 1672.07 977.132 M1667.81 975.882 Q1667.76 972.387 1665.84 970.303 Q1663.94 968.22 1660.8 968.22 Q1657.23 968.22 1655.08 970.234 Q1652.95 972.248 1652.63 975.905 L1667.81 975.882 Z" fill="#000000" fill-rule="nonzero" fill-opacity="1" /><path clip-path="url(#clip080)" d="M1694.69 969.632 L1724.36 969.632 L1724.36 973.521 L1694.69 973.521 L1694.69 969.632 M1694.69 979.076 L1724.36 979.076 L1724.36 983.012 L1694.69 983.012 L1694.69 979.076 Z" fill="#000000" fill-rule="nonzero" fill-opacity="1" /><path clip-path="url(#clip080)" d="M1759.52 959.678 Q1755.91 959.678 1754.08 963.243 Q1752.28 966.785 1752.28 973.914 Q1752.28 981.021 1754.08 984.586 Q1755.91 988.127 1759.52 988.127 Q1763.16 988.127 1764.96 984.586 Q1766.79 981.021 1766.79 973.914 Q1766.79 966.785 1764.96 963.243 Q1763.16 959.678 1759.52 959.678 M1759.52 955.975 Q1765.33 955.975 1768.39 960.581 Q1771.47 965.165 1771.47 973.914 Q1771.47 982.641 1768.39 987.248 Q1765.33 991.831 1759.52 991.831 Q1753.71 991.831 1750.63 987.248 Q1747.58 982.641 1747.58 973.914 Q1747.58 965.165 1750.63 960.581 Q1753.71 955.975 1759.52 955.975 Z" fill="#000000" fill-rule="nonzero" fill-opacity="1" /><path clip-path="url(#clip080)" d="M1779.68 985.28 L1784.57 985.28 L1784.57 991.16 L1779.68 991.16 L1779.68 985.28 Z" fill="#000000" fill-rule="nonzero" fill-opacity="1" /><path clip-path="url(#clip080)" d="M1804.75 974.748 Q1801.42 974.748 1799.5 976.53 Q1797.6 978.313 1797.6 981.438 Q1797.6 984.563 1799.5 986.345 Q1801.42 988.127 1804.75 988.127 Q1808.09 988.127 1810.01 986.345 Q1811.93 984.539 1811.93 981.438 Q1811.93 978.313 1810.01 976.53 Q1808.11 974.748 1804.75 974.748 M1800.08 972.757 Q1797.07 972.016 1795.38 969.956 Q1793.71 967.896 1793.71 964.933 Q1793.71 960.79 1796.65 958.382 Q1799.62 955.975 1804.75 955.975 Q1809.92 955.975 1812.86 958.382 Q1815.8 960.79 1815.8 964.933 Q1815.8 967.896 1814.11 969.956 Q1812.44 972.016 1809.45 972.757 Q1812.83 973.544 1814.71 975.836 Q1816.61 978.127 1816.61 981.438 Q1816.61 986.461 1813.53 989.146 Q1810.47 991.831 1804.75 991.831 Q1799.04 991.831 1795.96 989.146 Q1792.9 986.461 1792.9 981.438 Q1792.9 978.127 1794.8 975.836 Q1796.7 973.544 1800.08 972.757 M1798.37 965.373 Q1798.37 968.058 1800.03 969.563 Q1801.72 971.067 1804.75 971.067 Q1807.76 971.067 1809.45 969.563 Q1811.17 968.058 1811.17 965.373 Q1811.17 962.688 1809.45 961.183 Q1807.76 959.678 1804.75 959.678 Q1801.72 959.678 1800.03 961.183 Q1798.37 962.688 1798.37 965.373 Z" fill="#000000" fill-rule="nonzero" fill-opacity="1" /><path clip-path="url(#clip080)" d="M1828.94 987.225 L1845.26 987.225 L1845.26 991.16 L1823.32 991.16 L1823.32 987.225 Q1825.98 984.47 1830.56 979.84 Q1835.17 975.188 1836.35 973.845 Q1838.6 971.322 1839.48 969.586 Q1840.38 967.827 1840.38 966.137 Q1840.38 963.382 1838.43 961.646 Q1836.51 959.91 1833.41 959.91 Q1831.21 959.91 1828.76 960.674 Q1826.33 961.438 1823.55 962.989 L1823.55 958.266 Q1826.37 957.132 1828.83 956.553 Q1831.28 955.975 1833.32 955.975 Q1838.69 955.975 1841.88 958.66 Q1845.08 961.345 1845.08 965.836 Q1845.08 967.965 1844.27 969.887 Q1843.48 971.785 1841.37 974.377 Q1840.8 975.049 1837.69 978.266 Q1834.59 981.461 1828.94 987.225 Z" fill="#000000" fill-rule="nonzero" fill-opacity="1" /><path clip-path="url(#clip080)" d="M1855.22 990.442 L1855.22 986.183 Q1856.98 987.016 1858.78 987.456 Q1860.59 987.896 1862.32 987.896 Q1866.95 987.896 1869.38 984.794 Q1871.84 981.669 1872.18 975.326 Q1870.84 977.317 1868.78 978.382 Q1866.72 979.447 1864.22 979.447 Q1859.04 979.447 1856 976.322 Q1852.99 973.174 1852.99 967.734 Q1852.99 962.41 1856.14 959.192 Q1859.29 955.975 1864.52 955.975 Q1870.52 955.975 1873.67 960.581 Q1876.84 965.165 1876.84 973.914 Q1876.84 982.086 1872.95 986.97 Q1869.08 991.831 1862.53 991.831 Q1860.77 991.831 1858.97 991.484 Q1857.16 991.137 1855.22 990.442 M1864.52 975.789 Q1867.67 975.789 1869.5 973.637 Q1871.35 971.484 1871.35 967.734 Q1871.35 964.007 1869.5 961.854 Q1867.67 959.678 1864.52 959.678 Q1861.37 959.678 1859.52 961.854 Q1857.69 964.007 1857.69 967.734 Q1857.69 971.484 1859.52 973.637 Q1861.37 975.789 1864.52 975.789 Z" fill="#000000" fill-rule="nonzero" fill-opacity="1" /><polyline clip-path="url(#clip080)" style="stroke:#ac8d18; stroke-linecap:round; stroke-linejoin:round; stroke-width:8; stroke-opacity:1; fill:none" points="1202.85,1025.72 1316.73,1025.72 "/>
<path clip-path="url(#clip080)" d="M1350.57 1038.28 Q1351.4 1039.39 1353.9 1039.39 L1355.96 1039.39 L1355.96 1043 L1353.39 1043 Q1349.22 1043 1347.33 1040.78 Q1345.43 1038.51 1345.43 1033.6 L1345.43 1021.33 L1335.71 1021.33 L1335.71 1017.07 L1359.62 1017.07 L1359.62 1021.33 L1349.78 1021.33 L1349.78 1033.86 Q1349.78 1037.21 1350.57 1038.28 Z" fill="#000000" fill-rule="nonzero" fill-opacity="1" /><path clip-path="url(#clip080)" d="M1382.03 1021.47 L1411.7 1021.47 L1411.7 1025.36 L1382.03 1025.36 L1382.03 1021.47 M1382.03 1030.92 L1411.7 1030.92 L1411.7 1034.85 L1382.03 1034.85 L1382.03 1030.92 Z" fill="#000000" fill-rule="nonzero" fill-opacity="1" /><path clip-path="url(#clip080)" d="M1446.86 1011.52 Q1443.25 1011.52 1441.42 1015.08 Q1439.62 1018.62 1439.62 1025.75 Q1439.62 1032.86 1441.42 1036.43 Q1443.25 1039.97 1446.86 1039.97 Q1450.5 1039.97 1452.3 1036.43 Q1454.13 1032.86 1454.13 1025.75 Q1454.13 1018.62 1452.3 1015.08 Q1450.5 1011.52 1446.86 1011.52 M1446.86 1007.81 Q1452.67 1007.81 1455.73 1012.42 Q1458.81 1017 1458.81 1025.75 Q1458.81 1034.48 1455.73 1039.09 Q1452.67 1043.67 1446.86 1043.67 Q1441.05 1043.67 1437.97 1039.09 Q1434.92 1034.48 1434.92 1025.75 Q1434.92 1017 1437.97 1012.42 Q1441.05 1007.81 1446.86 1007.81 Z" fill="#000000" fill-rule="nonzero" fill-opacity="1" /><path clip-path="url(#clip080)" d="M1467.02 1037.12 L1471.91 1037.12 L1471.91 1043 L1467.02 1043 L1467.02 1037.12 Z" fill="#000000" fill-rule="nonzero" fill-opacity="1" /><path clip-path="url(#clip080)" d="M1482.9 1039.06 L1490.54 1039.06 L1490.54 1012.7 L1482.23 1014.37 L1482.23 1010.11 L1490.5 1008.44 L1495.17 1008.44 L1495.17 1039.06 L1502.81 1039.06 L1502.81 1043 L1482.9 1043 L1482.9 1039.06 Z" fill="#000000" fill-rule="nonzero" fill-opacity="1" /><path clip-path="url(#clip080)" d="M1512.74 1037.12 L1517.63 1037.12 L1517.63 1041.1 L1513.83 1048.51 L1510.84 1048.51 L1512.74 1041.1 L1512.74 1037.12 Z" fill="#000000" fill-rule="nonzero" fill-opacity="1" /><path clip-path="url(#clip080)" d="M1546.01 1009.71 L1546.01 1017.07 L1554.78 1017.07 L1554.78 1020.38 L1546.01 1020.38 L1546.01 1034.46 Q1546.01 1037.63 1546.86 1038.53 Q1547.74 1039.43 1550.4 1039.43 L1554.78 1039.43 L1554.78 1043 L1550.4 1043 Q1545.47 1043 1543.6 1041.17 Q1541.72 1039.32 1541.72 1034.46 L1541.72 1020.38 L1538.6 1020.38 L1538.6 1017.07 L1541.72 1017.07 L1541.72 1009.71 L1546.01 1009.71 Z" fill="#000000" fill-rule="nonzero" fill-opacity="1" /><path clip-path="url(#clip080)" d="M1560.38 1017.07 L1564.64 1017.07 L1564.64 1043 L1560.38 1043 L1560.38 1017.07 M1560.38 1006.98 L1564.64 1006.98 L1564.64 1012.37 L1560.38 1012.37 L1560.38 1006.98 Z" fill="#000000" fill-rule="nonzero" fill-opacity="1" /><path clip-path="url(#clip080)" d="M1593.74 1022.05 Q1595.33 1019.18 1597.56 1017.81 Q1599.78 1016.45 1602.79 1016.45 Q1606.84 1016.45 1609.04 1019.3 Q1611.24 1022.12 1611.24 1027.35 L1611.24 1043 L1606.95 1043 L1606.95 1027.49 Q1606.95 1023.76 1605.63 1021.96 Q1604.32 1020.15 1601.61 1020.15 Q1598.3 1020.15 1596.38 1022.35 Q1594.45 1024.55 1594.45 1028.35 L1594.45 1043 L1590.17 1043 L1590.17 1027.49 Q1590.17 1023.74 1588.85 1021.96 Q1587.53 1020.15 1584.78 1020.15 Q1581.51 1020.15 1579.59 1022.37 Q1577.67 1024.57 1577.67 1028.35 L1577.67 1043 L1573.39 1043 L1573.39 1017.07 L1577.67 1017.07 L1577.67 1021.1 Q1579.13 1018.72 1581.17 1017.58 Q1583.2 1016.45 1586.01 1016.45 Q1588.83 1016.45 1590.8 1017.88 Q1592.79 1019.32 1593.74 1022.05 Z" fill="#000000" fill-rule="nonzero" fill-opacity="1" /><path clip-path="url(#clip080)" d="M1641.91 1028.97 L1641.91 1031.06 L1622.32 1031.06 Q1622.6 1035.45 1624.96 1037.77 Q1627.35 1040.06 1631.58 1040.06 Q1634.04 1040.06 1636.33 1039.46 Q1638.64 1038.86 1640.91 1037.65 L1640.91 1041.68 Q1638.62 1042.65 1636.21 1043.16 Q1633.81 1043.67 1631.33 1043.67 Q1625.13 1043.67 1621.49 1040.06 Q1617.88 1036.45 1617.88 1030.29 Q1617.88 1023.93 1621.31 1020.2 Q1624.76 1016.45 1630.59 1016.45 Q1635.82 1016.45 1638.85 1019.83 Q1641.91 1023.19 1641.91 1028.97 M1637.65 1027.72 Q1637.6 1024.23 1635.68 1022.14 Q1633.78 1020.06 1630.63 1020.06 Q1627.07 1020.06 1624.92 1022.07 Q1622.79 1024.09 1622.46 1027.75 L1637.65 1027.72 Z" fill="#000000" fill-rule="nonzero" fill-opacity="1" /><path clip-path="url(#clip080)" d="M1664.52 1021.47 L1694.2 1021.47 L1694.2 1025.36 L1664.52 1025.36 L1664.52 1021.47 M1664.52 1030.92 L1694.2 1030.92 L1694.2 1034.85 L1664.52 1034.85 L1664.52 1030.92 Z" fill="#000000" fill-rule="nonzero" fill-opacity="1" /><path clip-path="url(#clip080)" d="M1729.36 1011.52 Q1725.75 1011.52 1723.92 1015.08 Q1722.12 1018.62 1722.12 1025.75 Q1722.12 1032.86 1723.92 1036.43 Q1725.75 1039.97 1729.36 1039.97 Q1733 1039.97 1734.8 1036.43 Q1736.63 1032.86 1736.63 1025.75 Q1736.63 1018.62 1734.8 1015.08 Q1733 1011.52 1729.36 1011.52 M1729.36 1007.81 Q1735.17 1007.81 1738.23 1012.42 Q1741.31 1017 1741.31 1025.75 Q1741.31 1034.48 1738.23 1039.09 Q1735.17 1043.67 1729.36 1043.67 Q1723.55 1043.67 1720.47 1039.09 Q1717.42 1034.48 1717.42 1025.75 Q1717.42 1017 1720.47 1012.42 Q1723.55 1007.81 1729.36 1007.81 Z" fill="#000000" fill-rule="nonzero" fill-opacity="1" /><path clip-path="url(#clip080)" d="M1749.52 1037.12 L1754.41 1037.12 L1754.41 1043 L1749.52 1043 L1749.52 1037.12 Z" fill="#000000" fill-rule="nonzero" fill-opacity="1" /><path clip-path="url(#clip080)" d="M1765.4 1039.06 L1773.04 1039.06 L1773.04 1012.7 L1764.73 1014.37 L1764.73 1010.11 L1773 1008.44 L1777.67 1008.44 L1777.67 1039.06 L1785.31 1039.06 L1785.31 1043 L1765.4 1043 L1765.4 1039.06 Z" fill="#000000" fill-rule="nonzero" fill-opacity="1" /><path clip-path="url(#clip080)" d="M1794.8 1008.44 L1813.16 1008.44 L1813.16 1012.37 L1799.08 1012.37 L1799.08 1020.85 Q1800.1 1020.5 1801.12 1020.34 Q1802.14 1020.15 1803.16 1020.15 Q1808.94 1020.15 1812.32 1023.32 Q1815.7 1026.5 1815.7 1031.91 Q1815.7 1037.49 1812.23 1040.59 Q1808.76 1043.67 1802.44 1043.67 Q1800.26 1043.67 1798 1043.3 Q1795.75 1042.93 1793.34 1042.19 L1793.34 1037.49 Q1795.43 1038.62 1797.65 1039.18 Q1799.87 1039.74 1802.35 1039.74 Q1806.35 1039.74 1808.69 1037.63 Q1811.03 1035.52 1811.03 1031.91 Q1811.03 1028.3 1808.69 1026.19 Q1806.35 1024.09 1802.35 1024.09 Q1800.47 1024.09 1798.6 1024.5 Q1796.75 1024.92 1794.8 1025.8 L1794.8 1008.44 Z" fill="#000000" fill-rule="nonzero" fill-opacity="1" /><path clip-path="url(#clip080)" d="M1825.06 1042.28 L1825.06 1038.02 Q1826.81 1038.86 1828.62 1039.3 Q1830.43 1039.74 1832.16 1039.74 Q1836.79 1039.74 1839.22 1036.63 Q1841.68 1033.51 1842.02 1027.17 Q1840.68 1029.16 1838.62 1030.22 Q1836.56 1031.29 1834.06 1031.29 Q1828.87 1031.29 1825.84 1028.16 Q1822.83 1025.01 1822.83 1019.57 Q1822.83 1014.25 1825.98 1011.03 Q1829.13 1007.81 1834.36 1007.81 Q1840.36 1007.81 1843.5 1012.42 Q1846.68 1017 1846.68 1025.75 Q1846.68 1033.93 1842.79 1038.81 Q1838.92 1043.67 1832.37 1043.67 Q1830.61 1043.67 1828.81 1043.32 Q1827 1042.98 1825.06 1042.28 M1834.36 1027.63 Q1837.51 1027.63 1839.34 1025.48 Q1841.19 1023.32 1841.19 1019.57 Q1841.19 1015.85 1839.34 1013.69 Q1837.51 1011.52 1834.36 1011.52 Q1831.21 1011.52 1829.36 1013.69 Q1827.53 1015.85 1827.53 1019.57 Q1827.53 1023.32 1829.36 1025.48 Q1831.21 1027.63 1834.36 1027.63 Z" fill="#000000" fill-rule="nonzero" fill-opacity="1" /></svg>
