<?xml version="1.0" encoding="utf-8"?>
<svg xmlns="http://www.w3.org/2000/svg" xmlns:xlink="http://www.w3.org/1999/xlink" width="500" height="320" viewBox="0 0 2000 1280">
<defs>
  <clipPath id="clip260">
    <rect x="0" y="0" width="2000" height="1280"/>
  </clipPath>
</defs>
<path clip-path="url(#clip260)" d="M0 1280 L2000 1280 L2000 0 L0 0  Z" fill="#ffffff" fill-rule="evenodd" fill-opacity="1"/>
<defs>
  <clipPath id="clip261">
    <rect x="400" y="0" width="1401" height="1280"/>
  </clipPath>
</defs>
<path clip-path="url(#clip260)" d="M269.619 1099.23 L1952.76 1099.23 L1952.76 107.256 L269.619 107.256  Z" fill="#ffffff" fill-rule="evenodd" fill-opacity="1"/>
<defs>
  <clipPath id="clip262">
    <rect x="269" y="107" width="1684" height="993"/>
  </clipPath>
</defs>
<polyline clip-path="url(#clip262)" style="stroke:#000000; stroke-linecap:round; stroke-linejoin:round; stroke-width:2; stroke-opacity:0.1; fill:none" points="989.694,1099.23 989.694,107.256 "/>
<polyline clip-path="url(#clip262)" style="stroke:#000000; stroke-linecap:round; stroke-linejoin:round; stroke-width:2; stroke-opacity:0.1; fill:none" points="1951.74,1099.23 1951.74,107.256 "/>
<polyline clip-path="url(#clip262)" style="stroke:#000000; stroke-linecap:round; stroke-linejoin:round; stroke-width:2; stroke-opacity:0.1; fill:none" points="269.619,990.76 1952.76,990.76 "/>
<polyline clip-path="url(#clip262)" style="stroke:#000000; stroke-linecap:round; stroke-linejoin:round; stroke-width:2; stroke-opacity:0.1; fill:none" points="269.619,634.331 1952.76,634.331 "/>
<polyline clip-path="url(#clip262)" style="stroke:#000000; stroke-linecap:round; stroke-linejoin:round; stroke-width:2; stroke-opacity:0.1; fill:none" points="269.619,277.902 1952.76,277.902 "/>
<polyline clip-path="url(#clip260)" style="stroke:#000000; stroke-linecap:round; stroke-linejoin:round; stroke-width:4; stroke-opacity:1; fill:none" points="269.619,1099.23 1952.76,1099.23 "/>
<polyline clip-path="url(#clip260)" style="stroke:#000000; stroke-linecap:round; stroke-linejoin:round; stroke-width:4; stroke-opacity:1; fill:none" points="989.694,1099.23 989.694,1080.33 "/>
<polyline clip-path="url(#clip260)" style="stroke:#000000; stroke-linecap:round; stroke-linejoin:round; stroke-width:4; stroke-opacity:1; fill:none" points="1951.74,1099.23 1951.74,1080.33 "/>
<path clip-path="url(#clip260)" d="M955.466 1170.15 L963.105 1170.15 L963.105 1143.79 L954.795 1145.45 L954.795 1141.19 L963.059 1139.53 L967.735 1139.53 L967.735 1170.15 L975.374 1170.15 L975.374 1174.09 L955.466 1174.09 L955.466 1170.15 Z" fill="#000000" fill-rule="nonzero" fill-opacity="1" /><path clip-path="url(#clip260)" d="M994.818 1142.61 Q991.207 1142.61 989.378 1146.17 Q987.573 1149.71 987.573 1156.84 Q987.573 1163.95 989.378 1167.51 Q991.207 1171.05 994.818 1171.05 Q998.452 1171.05 1000.26 1167.51 Q1002.09 1163.95 1002.09 1156.84 Q1002.09 1149.71 1000.26 1146.17 Q998.452 1142.61 994.818 1142.61 M994.818 1138.9 Q1000.63 1138.9 1003.68 1143.51 Q1006.76 1148.09 1006.76 1156.84 Q1006.76 1165.57 1003.68 1170.17 Q1000.63 1174.76 994.818 1174.76 Q989.008 1174.76 985.929 1170.17 Q982.874 1165.57 982.874 1156.84 Q982.874 1148.09 985.929 1143.51 Q989.008 1138.9 994.818 1138.9 Z" fill="#000000" fill-rule="nonzero" fill-opacity="1" /><path clip-path="url(#clip260)" d="M1011.33 1143.48 L1024.59 1143.48 L1024.59 1146.68 L1006.76 1146.68 L1006.76 1143.48 Q1008.93 1141.24 1012.65 1137.48 Q1016.39 1133.7 1017.35 1132.61 Q1019.18 1130.56 1019.89 1129.15 Q1020.62 1127.72 1020.62 1126.35 Q1020.62 1124.11 1019.04 1122.7 Q1017.48 1121.29 1014.96 1121.29 Q1013.18 1121.29 1011.18 1121.91 Q1009.21 1122.53 1006.95 1123.79 L1006.95 1119.95 Q1009.25 1119.03 1011.24 1118.56 Q1013.23 1118.09 1014.89 1118.09 Q1019.25 1118.09 1021.85 1120.27 Q1024.44 1122.45 1024.44 1126.1 Q1024.44 1127.83 1023.78 1129.39 Q1023.14 1130.93 1021.43 1133.04 Q1020.96 1133.59 1018.44 1136.2 Q1015.92 1138.8 1011.33 1143.48 Z" fill="#000000" fill-rule="nonzero" fill-opacity="1" /><path clip-path="url(#clip260)" d="M1916.19 1170.15 L1923.83 1170.15 L1923.83 1143.79 L1915.52 1145.45 L1915.52 1141.19 L1923.78 1139.53 L1928.46 1139.53 L1928.46 1170.15 L1936.1 1170.15 L1936.1 1174.09 L1916.19 1174.09 L1916.19 1170.15 Z" fill="#000000" fill-rule="nonzero" fill-opacity="1" /><path clip-path="url(#clip260)" d="M1955.54 1142.61 Q1951.93 1142.61 1950.1 1146.17 Q1948.3 1149.71 1948.3 1156.84 Q1948.3 1163.95 1950.1 1167.51 Q1951.93 1171.05 1955.54 1171.05 Q1959.18 1171.05 1960.98 1167.51 Q1962.81 1163.95 1962.81 1156.84 Q1962.81 1149.71 1960.98 1146.17 Q1959.18 1142.61 1955.54 1142.61 M1955.54 1138.9 Q1961.35 1138.9 1964.41 1143.51 Q1967.49 1148.09 1967.49 1156.84 Q1967.49 1165.57 1964.41 1170.17 Q1961.35 1174.76 1955.54 1174.76 Q1949.73 1174.76 1946.65 1170.17 Q1943.6 1165.57 1943.6 1156.84 Q1943.6 1148.09 1946.65 1143.51 Q1949.73 1138.9 1955.54 1138.9 Z" fill="#000000" fill-rule="nonzero" fill-opacity="1" /><path clip-path="url(#clip260)" d="M1980.16 1121.91 L1970.57 1136.9 L1980.16 1136.9 L1980.16 1121.91 M1979.17 1118.6 L1983.94 1118.6 L1983.94 1136.9 L1987.95 1136.9 L1987.95 1140.06 L1983.94 1140.06 L1983.94 1146.68 L1980.16 1146.68 L1980.16 1140.06 L1967.49 1140.06 L1967.49 1136.39 L1979.17 1118.6 Z" fill="#000000" fill-rule="nonzero" fill-opacity="1" /><g clip-path="url(#clip260)">
<text style="fill:#000000; fill-opacity:1; font-family:Arial,Helvetica Neue,Helvetica,sans-serif; font-size:66px; text-anchor:middle;" transform="rotate(0, 1111.19, 1259.05)" x="1111.19" y="1259.05">f-evaluations</text>
</g>
<polyline clip-path="url(#clip260)" style="stroke:#000000; stroke-linecap:round; stroke-linejoin:round; stroke-width:4; stroke-opacity:1; fill:none" points="269.619,1099.23 269.619,107.256 "/>
<polyline clip-path="url(#clip260)" style="stroke:#000000; stroke-linecap:round; stroke-linejoin:round; stroke-width:4; stroke-opacity:1; fill:none" points="269.619,990.76 288.517,990.76 "/>
<polyline clip-path="url(#clip260)" style="stroke:#000000; stroke-linecap:round; stroke-linejoin:round; stroke-width:4; stroke-opacity:1; fill:none" points="269.619,634.331 288.517,634.331 "/>
<polyline clip-path="url(#clip260)" style="stroke:#000000; stroke-linecap:round; stroke-linejoin:round; stroke-width:4; stroke-opacity:1; fill:none" points="269.619,277.902 288.517,277.902 "/>
<path clip-path="url(#clip260)" d="M113.675 1010.55 L121.314 1010.55 L121.314 984.187 L113.004 985.854 L113.004 981.595 L121.268 979.928 L125.944 979.928 L125.944 1010.55 L133.583 1010.55 L133.583 1014.49 L113.675 1014.49 L113.675 1010.55 Z" fill="#000000" fill-rule="nonzero" fill-opacity="1" /><path clip-path="url(#clip260)" d="M153.027 983.007 Q149.416 983.007 147.587 986.572 Q145.782 990.113 145.782 997.243 Q145.782 1004.35 147.587 1007.91 Q149.416 1011.46 153.027 1011.46 Q156.661 1011.46 158.467 1007.91 Q160.295 1004.35 160.295 997.243 Q160.295 990.113 158.467 986.572 Q156.661 983.007 153.027 983.007 M153.027 979.303 Q158.837 979.303 161.893 983.91 Q164.971 988.493 164.971 997.243 Q164.971 1005.97 161.893 1010.58 Q158.837 1015.16 153.027 1015.16 Q147.217 1015.16 144.138 1010.58 Q141.082 1005.97 141.082 997.243 Q141.082 988.493 144.138 983.91 Q147.217 979.303 153.027 979.303 Z" fill="#000000" fill-rule="nonzero" fill-opacity="1" /><path clip-path="url(#clip260)" d="M164.971 973.404 L189.083 973.404 L189.083 976.602 L164.971 976.602 L164.971 973.404 Z" fill="#000000" fill-rule="nonzero" fill-opacity="1" /><path clip-path="url(#clip260)" d="M197.941 983.88 L204.148 983.88 L204.148 962.458 L197.396 963.812 L197.396 960.352 L204.11 958.998 L207.909 958.998 L207.909 983.88 L214.116 983.88 L214.116 987.078 L197.941 987.078 L197.941 983.88 Z" fill="#000000" fill-rule="nonzero" fill-opacity="1" /><path clip-path="url(#clip260)" d="M229.914 961.499 Q226.98 961.499 225.495 964.396 Q224.028 967.273 224.028 973.066 Q224.028 978.84 225.495 981.736 Q226.98 984.614 229.914 984.614 Q232.867 984.614 234.334 981.736 Q235.82 978.84 235.82 973.066 Q235.82 967.273 234.334 964.396 Q232.867 961.499 229.914 961.499 M229.914 958.49 Q234.635 958.49 237.118 962.233 Q239.619 965.957 239.619 973.066 Q239.619 980.156 237.118 983.899 Q234.635 987.623 229.914 987.623 Q225.194 987.623 222.692 983.899 Q220.21 980.156 220.21 973.066 Q220.21 965.957 222.692 962.233 Q225.194 958.49 229.914 958.49 Z" fill="#000000" fill-rule="nonzero" fill-opacity="1" /><path clip-path="url(#clip260)" d="M138.99 654.124 L146.629 654.124 L146.629 627.758 L138.319 629.425 L138.319 625.166 L146.583 623.499 L151.259 623.499 L151.259 654.124 L158.898 654.124 L158.898 658.059 L138.99 658.059 L138.99 654.124 Z" fill="#000000" fill-rule="nonzero" fill-opacity="1" /><path clip-path="url(#clip260)" d="M178.342 626.578 Q174.731 626.578 172.902 630.142 Q171.097 633.684 171.097 640.814 Q171.097 647.92 172.902 651.485 Q174.731 655.027 178.342 655.027 Q181.976 655.027 183.782 651.485 Q185.611 647.92 185.611 640.814 Q185.611 633.684 183.782 630.142 Q181.976 626.578 178.342 626.578 M178.342 622.874 Q184.152 622.874 187.208 627.48 Q190.286 632.064 190.286 640.814 Q190.286 649.54 187.208 654.147 Q184.152 658.73 178.342 658.73 Q172.532 658.73 169.453 654.147 Q166.398 649.54 166.398 640.814 Q166.398 632.064 169.453 627.48 Q172.532 622.874 178.342 622.874 Z" fill="#000000" fill-rule="nonzero" fill-opacity="1" /><path clip-path="url(#clip260)" d="M190.286 616.975 L214.398 616.975 L214.398 620.173 L190.286 620.173 L190.286 616.975 Z" fill="#000000" fill-rule="nonzero" fill-opacity="1" /><path clip-path="url(#clip260)" d="M222.636 602.569 L237.55 602.569 L237.55 605.766 L226.115 605.766 L226.115 612.649 Q226.943 612.367 227.77 612.236 Q228.598 612.085 229.425 612.085 Q234.127 612.085 236.873 614.662 Q239.619 617.239 239.619 621.64 Q239.619 626.172 236.798 628.693 Q233.977 631.194 228.842 631.194 Q227.074 631.194 225.231 630.893 Q223.407 630.592 221.451 629.99 L221.451 626.172 Q223.144 627.094 224.949 627.545 Q226.755 627.997 228.767 627.997 Q232.021 627.997 233.921 626.285 Q235.82 624.574 235.82 621.64 Q235.82 618.706 233.921 616.994 Q232.021 615.283 228.767 615.283 Q227.244 615.283 225.72 615.621 Q224.216 615.96 222.636 616.674 L222.636 602.569 Z" fill="#000000" fill-rule="nonzero" fill-opacity="1" /><path clip-path="url(#clip260)" d="M168.914 297.695 L176.552 297.695 L176.552 271.329 L168.242 272.996 L168.242 268.736 L176.506 267.07 L181.182 267.07 L181.182 297.695 L188.821 297.695 L188.821 301.63 L168.914 301.63 L168.914 297.695 Z" fill="#000000" fill-rule="nonzero" fill-opacity="1" /><path clip-path="url(#clip260)" d="M208.265 270.148 Q204.654 270.148 202.825 273.713 Q201.02 277.255 201.02 284.385 Q201.02 291.491 202.825 295.056 Q204.654 298.597 208.265 298.597 Q211.9 298.597 213.705 295.056 Q215.534 291.491 215.534 284.385 Q215.534 277.255 213.705 273.713 Q211.9 270.148 208.265 270.148 M208.265 266.445 Q214.075 266.445 217.131 271.051 Q220.21 275.635 220.21 284.385 Q220.21 293.111 217.131 297.718 Q214.075 302.301 208.265 302.301 Q202.455 302.301 199.376 297.718 Q196.321 293.111 196.321 284.385 Q196.321 275.635 199.376 271.051 Q202.455 266.445 208.265 266.445 Z" fill="#000000" fill-rule="nonzero" fill-opacity="1" /><path clip-path="url(#clip260)" d="M229.914 248.641 Q226.98 248.641 225.495 251.537 Q224.028 254.415 224.028 260.208 Q224.028 265.982 225.495 268.878 Q226.98 271.756 229.914 271.756 Q232.867 271.756 234.334 268.878 Q235.82 265.982 235.82 260.208 Q235.82 254.415 234.334 251.537 Q232.867 248.641 229.914 248.641 M229.914 245.632 Q234.635 245.632 237.118 249.374 Q239.619 253.098 239.619 260.208 Q239.619 267.298 237.118 271.041 Q234.635 274.765 229.914 274.765 Q225.194 274.765 222.692 271.041 Q220.21 267.298 220.21 260.208 Q220.21 253.098 222.692 249.374 Q225.194 245.632 229.914 245.632 Z" fill="#000000" fill-rule="nonzero" fill-opacity="1" /><g clip-path="url(#clip260)">
<text style="fill:#000000; fill-opacity:1; font-family:Arial,Helvetica Neue,Helvetica,sans-serif; font-size:66px; text-anchor:middle;" transform="rotate(-90, 71.4418, 603.241)" x="71.4418" y="603.241">inf-norm error</text>
</g>
<g clip-path="url(#clip260)">
<text style="fill:#000000; fill-opacity:1; font-family:Arial,Helvetica Neue,Helvetica,sans-serif; font-size:66px; text-anchor:middle;" transform="rotate(0, 1111.19, 57.6)" x="1111.19" y="57.6">Convergence of RK methods</text>
</g>
<polyline clip-path="url(#clip262)" style="stroke:#009af9; stroke-linecap:round; stroke-linejoin:round; stroke-width:8; stroke-opacity:1; fill:none" points="317.255,260.242 546.761,298.586 798.276,393.294 1037.97,466.609 1279.3,538.297 1519.66,609.568 1760.32,680.902 "/>
<circle clip-path="url(#clip262)" cx="317.255" cy="260.242" r="10.8" fill="#009af9" fill-rule="evenodd" fill-opacity="1" stroke="#000000" stroke-opacity="1" stroke-width="2.56"/>
<circle clip-path="url(#clip262)" cx="546.761" cy="298.586" r="10.8" fill="#009af9" fill-rule="evenodd" fill-opacity="1" stroke="#000000" stroke-opacity="1" stroke-width="2.56"/>
<circle clip-path="url(#clip262)" cx="798.276" cy="393.294" r="10.8" fill="#009af9" fill-rule="evenodd" fill-opacity="1" stroke="#000000" stroke-opacity="1" stroke-width="2.56"/>
<circle clip-path="url(#clip262)" cx="1037.97" cy="466.609" r="10.8" fill="#009af9" fill-rule="evenodd" fill-opacity="1" stroke="#000000" stroke-opacity="1" stroke-width="2.56"/>
<circle clip-path="url(#clip262)" cx="1279.3" cy="538.297" r="10.8" fill="#009af9" fill-rule="evenodd" fill-opacity="1" stroke="#000000" stroke-opacity="1" stroke-width="2.56"/>
<circle clip-path="url(#clip262)" cx="1519.66" cy="609.568" r="10.8" fill="#009af9" fill-rule="evenodd" fill-opacity="1" stroke="#000000" stroke-opacity="1" stroke-width="2.56"/>
<circle clip-path="url(#clip262)" cx="1760.32" cy="680.902" r="10.8" fill="#009af9" fill-rule="evenodd" fill-opacity="1" stroke="#000000" stroke-opacity="1" stroke-width="2.56"/>
<polyline clip-path="url(#clip262)" style="stroke:#e26f46; stroke-linecap:round; stroke-linejoin:round; stroke-width:8; stroke-opacity:1; fill:none" points="462.057,284.021 691.562,285.125 943.078,498.181 1182.78,641 1424.1,785.373 1664.46,928.327 1905.12,1071.15 "/>
<circle clip-path="url(#clip262)" cx="462.057" cy="284.021" r="10.8" fill="#e26f46" fill-rule="evenodd" fill-opacity="1" stroke="#000000" stroke-opacity="1" stroke-width="2.56"/>
<circle clip-path="url(#clip262)" cx="691.562" cy="285.125" r="10.8" fill="#e26f46" fill-rule="evenodd" fill-opacity="1" stroke="#000000" stroke-opacity="1" stroke-width="2.56"/>
<circle clip-path="url(#clip262)" cx="943.078" cy="498.181" r="10.8" fill="#e26f46" fill-rule="evenodd" fill-opacity="1" stroke="#000000" stroke-opacity="1" stroke-width="2.56"/>
<circle clip-path="url(#clip262)" cx="1182.78" cy="641" r="10.8" fill="#e26f46" fill-rule="evenodd" fill-opacity="1" stroke="#000000" stroke-opacity="1" stroke-width="2.56"/>
<circle clip-path="url(#clip262)" cx="1424.1" cy="785.373" r="10.8" fill="#e26f46" fill-rule="evenodd" fill-opacity="1" stroke="#000000" stroke-opacity="1" stroke-width="2.56"/>
<circle clip-path="url(#clip262)" cx="1664.46" cy="928.327" r="10.8" fill="#e26f46" fill-rule="evenodd" fill-opacity="1" stroke="#000000" stroke-opacity="1" stroke-width="2.56"/>
<circle clip-path="url(#clip262)" cx="1905.12" cy="1071.15" r="10.8" fill="#e26f46" fill-rule="evenodd" fill-opacity="1" stroke="#000000" stroke-opacity="1" stroke-width="2.56"/>
<polyline clip-path="url(#clip262)" style="stroke:#3da44d; stroke-linecap:round; stroke-linejoin:round; stroke-width:8; stroke-opacity:1; fill:none" stroke-dasharray="32, 20" points="317.255,206.616 546.761,274.64 798.276,349.188 1037.97,420.233 1279.3,491.76 1519.66,563.001 1760.32,634.331 "/>
<polyline clip-path="url(#clip262)" style="stroke:#c271d2; stroke-linecap:round; stroke-linejoin:round; stroke-width:8; stroke-opacity:1; fill:none" stroke-dasharray="32, 20" points="462.057,135.331 691.562,271.378 943.078,420.474 1182.78,562.564 1424.1,705.617 1664.46,848.1 1905.12,990.76 "/>
<path clip-path="url(#clip260)" d="M325.724 1066.16 L648.862 1066.16 L648.862 806.961 L325.724 806.961  Z" fill="#ffffff" fill-rule="evenodd" fill-opacity="1"/>
<polyline clip-path="url(#clip260)" style="stroke:#000000; stroke-linecap:round; stroke-linejoin:round; stroke-width:4; stroke-opacity:1; fill:none" points="325.724,1066.16 648.862,1066.16 648.862,806.961 325.724,806.961 325.724,1066.16 "/>
<polyline clip-path="url(#clip260)" style="stroke:#009af9; stroke-linecap:round; stroke-linejoin:round; stroke-width:8; stroke-opacity:1; fill:none" points="344.425,858.801 456.634,858.801 "/>
<circle clip-path="url(#clip260)" cx="400.53" cy="858.801" r="15.5846" fill="#009af9" fill-rule="evenodd" fill-opacity="1" stroke="#000000" stroke-opacity="1" stroke-width="4.68114"/>
<path clip-path="url(#clip260)" d="M475.336 841.521 L480.012 841.521 L480.012 876.081 L475.336 876.081 L475.336 841.521 Z" fill="#000000" fill-rule="nonzero" fill-opacity="1" /><path clip-path="url(#clip260)" d="M489.317 841.521 L511.169 841.521 L511.169 845.456 L493.993 845.456 L493.993 855.688 L510.452 855.688 L510.452 859.623 L493.993 859.623 L493.993 872.146 L511.586 872.146 L511.586 876.081 L489.317 876.081 L489.317 841.521 Z" fill="#000000" fill-rule="nonzero" fill-opacity="1" /><path clip-path="url(#clip260)" d="M523.715 872.146 L540.035 872.146 L540.035 876.081 L518.09 876.081 L518.09 872.146 Q520.752 869.391 525.336 864.762 Q529.942 860.109 531.123 858.766 Q533.368 856.243 534.248 854.507 Q535.15 852.748 535.15 851.058 Q535.15 848.303 533.206 846.567 Q531.285 844.831 528.183 844.831 Q525.984 844.831 523.53 845.595 Q521.1 846.359 518.322 847.91 L518.322 843.188 Q521.146 842.053 523.6 841.475 Q526.053 840.896 528.09 840.896 Q533.461 840.896 536.655 843.581 Q539.85 846.266 539.85 850.757 Q539.85 852.887 539.039 854.808 Q538.252 856.706 536.146 859.299 Q535.567 859.97 532.465 863.187 Q529.363 866.382 523.715 872.146 Z" fill="#000000" fill-rule="nonzero" fill-opacity="1" /><polyline clip-path="url(#clip260)" style="stroke:#e26f46; stroke-linecap:round; stroke-linejoin:round; stroke-width:8; stroke-opacity:1; fill:none" points="344.425,910.641 456.634,910.641 "/>
<circle clip-path="url(#clip260)" cx="400.53" cy="910.641" r="15.5846" fill="#e26f46" fill-rule="evenodd" fill-opacity="1" stroke="#000000" stroke-opacity="1" stroke-width="4.68114"/>
<path clip-path="url(#clip260)" d="M491.725 911.717 Q493.229 912.227 494.641 913.893 Q496.077 915.56 497.512 918.477 L502.257 927.921 L497.234 927.921 L492.813 919.055 Q491.1 915.583 489.479 914.449 Q487.882 913.315 485.104 913.315 L480.012 913.315 L480.012 927.921 L475.336 927.921 L475.336 893.361 L485.891 893.361 Q491.817 893.361 494.734 895.838 Q497.651 898.315 497.651 903.315 Q497.651 906.578 496.123 908.731 Q494.618 910.884 491.725 911.717 M480.012 897.203 L480.012 909.472 L485.891 909.472 Q489.271 909.472 490.984 907.921 Q492.72 906.347 492.72 903.315 Q492.72 900.282 490.984 898.754 Q489.271 897.203 485.891 897.203 L480.012 897.203 Z" fill="#000000" fill-rule="nonzero" fill-opacity="1" /><path clip-path="url(#clip260)" d="M508.276 893.361 L512.952 893.361 L512.952 907.967 L528.461 893.361 L534.479 893.361 L517.326 909.472 L535.706 927.921 L529.549 927.921 L512.952 911.277 L512.952 927.921 L508.276 927.921 L508.276 893.361 Z" fill="#000000" fill-rule="nonzero" fill-opacity="1" /><path clip-path="url(#clip260)" d="M552.627 897.435 L540.822 915.884 L552.627 915.884 L552.627 897.435 M551.4 893.361 L557.28 893.361 L557.28 915.884 L562.21 915.884 L562.21 919.773 L557.28 919.773 L557.28 927.921 L552.627 927.921 L552.627 919.773 L537.025 919.773 L537.025 915.259 L551.4 893.361 Z" fill="#000000" fill-rule="nonzero" fill-opacity="1" /><polyline clip-path="url(#clip260)" style="stroke:#3da44d; stroke-linecap:round; stroke-linejoin:round; stroke-width:8; stroke-opacity:1; fill:none" stroke-dasharray="32, 20" points="344.425,962.481 456.634,962.481 "/>
<path clip-path="url(#clip260)" d="M508.502 953.874 Q508.502 957.223 507.308 960.549 Q506.136 963.852 504.075 966.569 Q502.014 969.286 499.391 971.394 Q496.768 973.502 493.699 974.673 Q490.631 975.844 487.633 975.844 Q482.316 975.844 478.826 972.354 Q475.336 968.864 475.336 963.032 Q475.336 958.957 477.163 954.905 Q478.99 950.829 481.894 947.808 Q484.799 944.763 488.616 942.865 Q492.458 940.968 496.252 940.968 Q501.639 940.968 505.059 944.552 Q508.502 948.112 508.502 953.874 M504.216 952 Q504.216 949.424 503.49 947.48 Q502.764 945.512 501.546 944.388 Q500.351 943.264 498.922 942.725 Q497.517 942.163 495.971 942.163 Q492.973 942.163 489.764 944.107 Q486.555 946.051 484.166 949.658 Q482.878 951.625 481.941 953.991 Q481.004 956.333 480.583 958.418 Q480.161 960.479 479.974 961.931 Q479.81 963.383 479.81 964.391 Q479.81 969.075 482.058 971.839 Q484.307 974.603 487.914 974.603 Q490.748 974.603 493.512 972.94 Q496.276 971.253 498.173 968.841 Q499.859 966.756 501.101 964.25 Q502.365 961.744 502.998 959.448 Q503.63 957.153 503.911 955.303 Q504.216 953.452 504.216 952 Z" fill="#000000" fill-rule="nonzero" fill-opacity="1" /><path clip-path="url(#clip260)" d="M514.838 962.798 Q514.838 954.694 517.859 948.159 Q519.148 945.418 520.951 943.123 Q522.755 940.828 523.949 939.82 Q525.144 938.813 525.472 938.813 Q525.94 938.813 525.964 939.282 Q525.964 939.516 525.331 940.102 Q517.602 947.971 517.625 962.798 Q517.625 977.671 525.144 985.237 Q525.964 986.056 525.964 986.314 Q525.964 986.782 525.472 986.782 Q525.144 986.782 523.996 985.822 Q522.848 984.862 521.068 982.66 Q519.288 980.458 518 977.765 Q514.838 971.23 514.838 962.798 Z" fill="#000000" fill-rule="nonzero" fill-opacity="1" /><path clip-path="url(#clip260)" d="M559.257 967.927 Q559.257 968.115 559.047 968.841 Q558.836 969.567 558.321 970.691 Q557.829 971.816 557.149 972.846 Q556.47 973.853 555.346 974.603 Q554.245 975.329 552.98 975.329 Q551.294 975.329 550.17 974.205 Q549.045 973.08 549.045 971.394 Q549.045 970.457 549.537 969.169 Q552.652 960.854 552.652 957.996 Q552.652 954.647 550.052 954.647 Q548.764 954.647 547.546 955.139 Q546.352 955.607 545.532 956.263 Q544.712 956.919 543.963 957.832 Q543.236 958.722 542.862 959.331 Q542.51 959.917 542.229 960.502 L541.62 962.892 Q541.48 963.547 540.801 966.1 L539.747 970.434 Q538.997 973.666 538.833 973.97 Q538.599 974.626 538.084 974.978 Q537.568 975.329 537.053 975.329 Q536.467 975.329 536.069 974.978 Q535.671 974.626 535.671 974.017 Q535.671 973.924 535.741 973.572 Q535.812 973.221 535.929 972.729 Q536.046 972.237 536.093 971.956 L538.88 960.877 Q539.395 958.863 539.512 958.231 Q539.653 957.575 539.653 956.849 Q539.653 954.647 538.154 954.647 Q536.936 954.647 536.139 956.099 Q535.343 957.551 534.664 960.362 Q534.453 961.135 534.313 961.299 Q534.195 961.463 533.844 961.463 Q533.258 961.439 533.258 960.971 Q533.258 960.854 533.446 960.081 Q533.633 959.308 533.985 958.207 Q534.359 957.083 534.711 956.333 Q535.015 955.771 535.179 955.513 Q535.367 955.232 535.812 954.694 Q536.28 954.132 536.889 953.874 Q537.521 953.593 538.294 953.593 Q540.028 953.593 541.292 954.717 Q542.557 955.818 542.721 957.762 Q545.836 953.593 550.193 953.593 Q552.769 953.593 554.245 954.951 Q555.721 956.31 555.721 958.722 Q555.721 959.285 555.604 960.011 Q555.51 960.713 555.276 961.603 Q555.065 962.493 554.877 963.173 Q554.69 963.852 554.315 964.953 Q553.941 966.03 553.777 966.499 Q553.613 966.967 553.214 968.068 Q552.84 969.145 552.793 969.262 Q551.926 971.441 551.926 972.682 Q551.926 973.502 552.184 973.877 Q552.465 974.251 553.074 974.251 Q554.713 974.251 555.931 972.635 Q557.173 970.996 557.969 968.326 Q558.157 967.74 558.25 967.599 Q558.367 967.459 558.695 967.459 Q559.257 967.459 559.257 967.927 Z" fill="#000000" fill-rule="nonzero" fill-opacity="1" /><path clip-path="url(#clip260)" d="M586.288 951.575 Q586.484 951.772 586.484 952.051 Q586.484 952.329 586.288 952.526 Q586.091 952.723 585.812 952.723 L564.793 952.723 Q564.514 952.723 564.317 952.526 Q564.121 952.329 564.121 952.051 Q564.121 951.772 564.317 951.575 Q564.514 951.378 564.793 951.378 L585.812 951.378 Q586.091 951.378 586.288 951.575 Z" fill="#000000" fill-rule="nonzero" fill-opacity="1" /><path clip-path="url(#clip260)" d="M589.991 960.445 Q589.991 959.838 590.04 959.658 Q590.105 959.478 590.368 959.199 L596.811 952.018 Q600.336 948.05 600.336 944.59 Q600.336 942.344 599.156 940.737 Q597.992 939.131 595.844 939.131 Q594.368 939.131 593.122 940.032 Q591.876 940.934 591.302 942.541 Q591.401 942.508 591.745 942.508 Q592.581 942.508 593.04 943.033 Q593.516 943.558 593.516 944.263 Q593.516 945.164 592.926 945.607 Q592.352 946.033 591.778 946.033 Q591.548 946.033 591.237 945.984 Q590.942 945.935 590.466 945.476 Q589.991 945 589.991 944.164 Q589.991 941.82 591.761 939.95 Q593.549 938.081 596.27 938.081 Q599.353 938.081 601.369 939.918 Q603.402 941.738 603.402 944.59 Q603.402 945.591 603.091 946.509 Q602.796 947.411 602.386 948.116 Q601.992 948.821 600.91 949.952 Q599.828 951.083 598.959 951.887 Q598.09 952.69 596.139 954.395 L592.581 957.855 L598.631 957.855 Q601.582 957.855 601.812 957.592 Q602.14 957.117 602.55 954.608 L603.402 954.608 L602.451 960.445 L589.991 960.445 Z" fill="#000000" fill-rule="nonzero" fill-opacity="1" /><path clip-path="url(#clip260)" d="M611.74 986.314 Q611.74 986.08 612.349 985.494 Q620.079 977.624 620.079 962.798 Q620.079 947.925 612.654 940.406 Q611.74 939.539 611.74 939.282 Q611.74 938.813 612.209 938.813 Q612.537 938.813 613.684 939.774 Q614.855 940.734 616.612 942.936 Q618.392 945.137 619.704 947.831 Q622.866 954.366 622.866 962.798 Q622.866 970.902 619.844 977.437 Q618.556 980.177 616.753 982.473 Q614.949 984.768 613.755 985.775 Q612.56 986.782 612.209 986.782 Q611.74 986.782 611.74 986.314 Z" fill="#000000" fill-rule="nonzero" fill-opacity="1" /><polyline clip-path="url(#clip260)" style="stroke:#c271d2; stroke-linecap:round; stroke-linejoin:round; stroke-width:8; stroke-opacity:1; fill:none" stroke-dasharray="32, 20" points="344.425,1014.32 456.634,1014.32 "/>
<path clip-path="url(#clip260)" d="M508.502 1005.84 Q508.502 1009.19 507.308 1012.52 Q506.136 1015.82 504.075 1018.54 Q502.014 1021.26 499.391 1023.36 Q496.768 1025.47 493.699 1026.64 Q490.631 1027.81 487.633 1027.81 Q482.316 1027.81 478.826 1024.33 Q475.336 1020.84 475.336 1015 Q475.336 1010.93 477.163 1006.88 Q478.99 1002.8 481.894 999.778 Q484.799 996.733 488.616 994.836 Q492.458 992.939 496.252 992.939 Q501.639 992.939 505.059 996.523 Q508.502 1000.08 508.502 1005.84 M504.216 1003.97 Q504.216 1001.39 503.49 999.45 Q502.764 997.483 501.546 996.359 Q500.351 995.234 498.922 994.696 Q497.517 994.133 495.971 994.133 Q492.973 994.133 489.764 996.078 Q486.555 998.022 484.166 1001.63 Q482.878 1003.6 481.941 1005.96 Q481.004 1008.3 480.583 1010.39 Q480.161 1012.45 479.974 1013.9 Q479.81 1015.35 479.81 1016.36 Q479.81 1021.05 482.058 1023.81 Q484.307 1026.57 487.914 1026.57 Q490.748 1026.57 493.512 1024.91 Q496.276 1023.22 498.173 1020.81 Q499.859 1018.73 501.101 1016.22 Q502.365 1013.71 502.998 1011.42 Q503.63 1009.12 503.911 1007.27 Q504.216 1005.42 504.216 1003.97 Z" fill="#000000" fill-rule="nonzero" fill-opacity="1" /><path clip-path="url(#clip260)" d="M514.838 1014.77 Q514.838 1006.66 517.859 1000.13 Q519.148 997.389 520.951 995.094 Q522.755 992.798 523.949 991.791 Q525.144 990.784 525.472 990.784 Q525.94 990.784 525.964 991.253 Q525.964 991.487 525.331 992.072 Q517.602 999.942 517.625 1014.77 Q517.625 1029.64 525.144 1037.21 Q525.964 1038.03 525.964 1038.28 Q525.964 1038.75 525.472 1038.75 Q525.144 1038.75 523.996 1037.79 Q522.848 1036.83 521.068 1034.63 Q519.288 1032.43 518 1029.74 Q514.838 1023.2 514.838 1014.77 Z" fill="#000000" fill-rule="nonzero" fill-opacity="1" /><path clip-path="url(#clip260)" d="M559.257 1019.9 Q559.257 1020.09 559.047 1020.81 Q558.836 1021.54 558.321 1022.66 Q557.829 1023.79 557.149 1024.82 Q556.47 1025.82 555.346 1026.57 Q554.245 1027.3 552.98 1027.3 Q551.294 1027.3 550.17 1026.18 Q549.045 1025.05 549.045 1023.36 Q549.045 1022.43 549.537 1021.14 Q552.652 1012.82 552.652 1009.97 Q552.652 1006.62 550.052 1006.62 Q548.764 1006.62 547.546 1007.11 Q546.352 1007.58 545.532 1008.23 Q544.712 1008.89 543.963 1009.8 Q543.236 1010.69 542.862 1011.3 Q542.51 1011.89 542.229 1012.47 L541.62 1014.86 Q541.48 1015.52 540.801 1018.07 L539.747 1022.4 Q538.997 1025.64 538.833 1025.94 Q538.599 1026.6 538.084 1026.95 Q537.568 1027.3 537.053 1027.3 Q536.467 1027.3 536.069 1026.95 Q535.671 1026.6 535.671 1025.99 Q535.671 1025.89 535.741 1025.54 Q535.812 1025.19 535.929 1024.7 Q536.046 1024.21 536.093 1023.93 L538.88 1012.85 Q539.395 1010.83 539.512 1010.2 Q539.653 1009.55 539.653 1008.82 Q539.653 1006.62 538.154 1006.62 Q536.936 1006.62 536.139 1008.07 Q535.343 1009.52 534.664 1012.33 Q534.453 1013.11 534.313 1013.27 Q534.195 1013.43 533.844 1013.43 Q533.258 1013.41 533.258 1012.94 Q533.258 1012.82 533.446 1012.05 Q533.633 1011.28 533.985 1010.18 Q534.359 1009.05 534.711 1008.3 Q535.015 1007.74 535.179 1007.48 Q535.367 1007.2 535.812 1006.66 Q536.28 1006.1 536.889 1005.84 Q537.521 1005.56 538.294 1005.56 Q540.028 1005.56 541.292 1006.69 Q542.557 1007.79 542.721 1009.73 Q545.836 1005.56 550.193 1005.56 Q552.769 1005.56 554.245 1006.92 Q555.721 1008.28 555.721 1010.69 Q555.721 1011.26 555.604 1011.98 Q555.51 1012.68 555.276 1013.57 Q555.065 1014.46 554.877 1015.14 Q554.69 1015.82 554.315 1016.92 Q553.941 1018 553.777 1018.47 Q553.613 1018.94 553.214 1020.04 Q552.84 1021.12 552.793 1021.23 Q551.926 1023.41 551.926 1024.65 Q551.926 1025.47 552.184 1025.85 Q552.465 1026.22 553.074 1026.22 Q554.713 1026.22 555.931 1024.61 Q557.173 1022.97 557.969 1020.3 Q558.157 1019.71 558.25 1019.57 Q558.367 1019.43 558.695 1019.43 Q559.257 1019.43 559.257 1019.9 Z" fill="#000000" fill-rule="nonzero" fill-opacity="1" /><path clip-path="url(#clip260)" d="M586.288 1003.66 Q586.484 1003.85 586.484 1004.13 Q586.484 1004.41 586.288 1004.61 Q586.091 1004.81 585.812 1004.81 L564.793 1004.81 Q564.514 1004.81 564.317 1004.61 Q564.121 1004.41 564.121 1004.13 Q564.121 1003.85 564.317 1003.66 Q564.514 1003.46 564.793 1003.46 L585.812 1003.46 Q586.091 1003.46 586.288 1003.66 Z" fill="#000000" fill-rule="nonzero" fill-opacity="1" /><path clip-path="url(#clip260)" d="M589.991 1006.99 L589.991 1005.95 L600.304 990.197 Q600.566 989.787 600.976 989.804 Q601.353 989.804 601.435 989.951 Q601.517 990.099 601.517 990.673 L601.517 1005.95 L604.878 1005.95 L604.878 1006.99 L601.517 1006.99 L601.517 1009.9 Q601.517 1010.87 601.91 1011.18 Q602.32 1011.5 604.058 1011.5 L604.763 1011.5 L604.763 1012.53 Q603.386 1012.43 600.205 1012.43 Q597.041 1012.43 595.664 1012.53 L595.664 1011.5 L596.369 1011.5 Q598.107 1011.5 598.516 1011.2 Q598.926 1010.89 598.926 1009.9 L598.926 1006.99 L589.991 1006.99 M590.942 1005.95 L599.123 1005.95 L599.123 993.427 L590.942 1005.95 Z" fill="#000000" fill-rule="nonzero" fill-opacity="1" /><path clip-path="url(#clip260)" d="M611.74 1038.28 Q611.74 1038.05 612.349 1037.47 Q620.079 1029.6 620.079 1014.77 Q620.079 999.895 612.654 992.377 Q611.74 991.51 611.74 991.253 Q611.74 990.784 612.209 990.784 Q612.537 990.784 613.684 991.744 Q614.855 992.705 616.612 994.906 Q618.392 997.108 619.704 999.802 Q622.866 1006.34 622.866 1014.77 Q622.866 1022.87 619.844 1029.41 Q618.556 1032.15 616.753 1034.44 Q614.949 1036.74 613.755 1037.75 Q612.56 1038.75 612.209 1038.75 Q611.74 1038.75 611.74 1038.28 Z" fill="#000000" fill-rule="nonzero" fill-opacity="1" /></svg>
