<?xml version="1.0" encoding="utf-8"?>
<svg xmlns="http://www.w3.org/2000/svg" xmlns:xlink="http://www.w3.org/1999/xlink" width="500" height="320" viewBox="0 0 2000 1280">
<defs>
  <clipPath id="clip450">
    <rect x="0" y="0" width="2000" height="1280"/>
  </clipPath>
</defs>
<path clip-path="url(#clip450)" d="M0 1280 L2000 1280 L2000 0 L0 0  Z" fill="#ffffff" fill-rule="evenodd" fill-opacity="1"/>
<defs>
  <clipPath id="clip451">
    <rect x="400" y="0" width="1401" height="1280"/>
  </clipPath>
</defs>
<path clip-path="url(#clip450)" d="M245.244 1111.02 L1952.76 1111.02 L1952.76 107.256 L245.244 107.256  Z" fill="#ffffff" fill-rule="evenodd" fill-opacity="1"/>
<defs>
  <clipPath id="clip452">
    <rect x="245" y="107" width="1709" height="1005"/>
  </clipPath>
</defs>
<polyline clip-path="url(#clip452)" style="stroke:#000000; stroke-linecap:round; stroke-linejoin:round; stroke-width:2; stroke-opacity:0.1; fill:none" points="293.57,1111.02 293.57,107.256 "/>
<polyline clip-path="url(#clip452)" style="stroke:#000000; stroke-linecap:round; stroke-linejoin:round; stroke-width:2; stroke-opacity:0.1; fill:none" points="553.386,1111.02 553.386,107.256 "/>
<polyline clip-path="url(#clip452)" style="stroke:#000000; stroke-linecap:round; stroke-linejoin:round; stroke-width:2; stroke-opacity:0.1; fill:none" points="813.202,1111.02 813.202,107.256 "/>
<polyline clip-path="url(#clip452)" style="stroke:#000000; stroke-linecap:round; stroke-linejoin:round; stroke-width:2; stroke-opacity:0.1; fill:none" points="1073.02,1111.02 1073.02,107.256 "/>
<polyline clip-path="url(#clip452)" style="stroke:#000000; stroke-linecap:round; stroke-linejoin:round; stroke-width:2; stroke-opacity:0.1; fill:none" points="1332.83,1111.02 1332.83,107.256 "/>
<polyline clip-path="url(#clip452)" style="stroke:#000000; stroke-linecap:round; stroke-linejoin:round; stroke-width:2; stroke-opacity:0.1; fill:none" points="1592.65,1111.02 1592.65,107.256 "/>
<polyline clip-path="url(#clip452)" style="stroke:#000000; stroke-linecap:round; stroke-linejoin:round; stroke-width:2; stroke-opacity:0.1; fill:none" points="1852.47,1111.02 1852.47,107.256 "/>
<polyline clip-path="url(#clip452)" style="stroke:#000000; stroke-linecap:round; stroke-linejoin:round; stroke-width:2; stroke-opacity:0.1; fill:none" points="245.244,1071.1 1952.76,1071.1 "/>
<polyline clip-path="url(#clip452)" style="stroke:#000000; stroke-linecap:round; stroke-linejoin:round; stroke-width:2; stroke-opacity:0.1; fill:none" points="245.244,570.034 1952.76,570.034 "/>
<polyline clip-path="url(#clip450)" style="stroke:#000000; stroke-linecap:round; stroke-linejoin:round; stroke-width:4; stroke-opacity:1; fill:none" points="245.244,1111.02 1952.76,1111.02 "/>
<polyline clip-path="url(#clip450)" style="stroke:#000000; stroke-linecap:round; stroke-linejoin:round; stroke-width:4; stroke-opacity:1; fill:none" points="293.57,1111.02 293.57,1092.12 "/>
<polyline clip-path="url(#clip450)" style="stroke:#000000; stroke-linecap:round; stroke-linejoin:round; stroke-width:4; stroke-opacity:1; fill:none" points="553.386,1111.02 553.386,1092.12 "/>
<polyline clip-path="url(#clip450)" style="stroke:#000000; stroke-linecap:round; stroke-linejoin:round; stroke-width:4; stroke-opacity:1; fill:none" points="813.202,1111.02 813.202,1092.12 "/>
<polyline clip-path="url(#clip450)" style="stroke:#000000; stroke-linecap:round; stroke-linejoin:round; stroke-width:4; stroke-opacity:1; fill:none" points="1073.02,1111.02 1073.02,1092.12 "/>
<polyline clip-path="url(#clip450)" style="stroke:#000000; stroke-linecap:round; stroke-linejoin:round; stroke-width:4; stroke-opacity:1; fill:none" points="1332.83,1111.02 1332.83,1092.12 "/>
<polyline clip-path="url(#clip450)" style="stroke:#000000; stroke-linecap:round; stroke-linejoin:round; stroke-width:4; stroke-opacity:1; fill:none" points="1592.65,1111.02 1592.65,1092.12 "/>
<polyline clip-path="url(#clip450)" style="stroke:#000000; stroke-linecap:round; stroke-linejoin:round; stroke-width:4; stroke-opacity:1; fill:none" points="1852.47,1111.02 1852.47,1092.12 "/>
<path clip-path="url(#clip450)" d="M293.57 1138.74 Q289.959 1138.74 288.13 1142.3 Q286.325 1145.84 286.325 1152.97 Q286.325 1160.08 288.13 1163.64 Q289.959 1167.19 293.57 1167.19 Q297.204 1167.19 299.01 1163.64 Q300.839 1160.08 300.839 1152.97 Q300.839 1145.84 299.01 1142.3 Q297.204 1138.74 293.57 1138.74 M293.57 1135.03 Q299.38 1135.03 302.436 1139.64 Q305.515 1144.22 305.515 1152.97 Q305.515 1161.7 302.436 1166.31 Q299.38 1170.89 293.57 1170.89 Q287.76 1170.89 284.681 1166.31 Q281.626 1161.7 281.626 1152.97 Q281.626 1144.22 284.681 1139.64 Q287.76 1135.03 293.57 1135.03 Z" fill="#000000" fill-rule="nonzero" fill-opacity="1" /><path clip-path="url(#clip450)" d="M528.074 1166.28 L535.713 1166.28 L535.713 1139.92 L527.403 1141.58 L527.403 1137.33 L535.666 1135.66 L540.342 1135.66 L540.342 1166.28 L547.981 1166.28 L547.981 1170.22 L528.074 1170.22 L528.074 1166.28 Z" fill="#000000" fill-rule="nonzero" fill-opacity="1" /><path clip-path="url(#clip450)" d="M567.426 1138.74 Q563.814 1138.74 561.986 1142.3 Q560.18 1145.84 560.18 1152.97 Q560.18 1160.08 561.986 1163.64 Q563.814 1167.19 567.426 1167.19 Q571.06 1167.19 572.865 1163.64 Q574.694 1160.08 574.694 1152.97 Q574.694 1145.84 572.865 1142.3 Q571.06 1138.74 567.426 1138.74 M567.426 1135.03 Q573.236 1135.03 576.291 1139.64 Q579.37 1144.22 579.37 1152.97 Q579.37 1161.7 576.291 1166.31 Q573.236 1170.89 567.426 1170.89 Q561.615 1170.89 558.537 1166.31 Q555.481 1161.7 555.481 1152.97 Q555.481 1144.22 558.537 1139.64 Q561.615 1135.03 567.426 1135.03 Z" fill="#000000" fill-rule="nonzero" fill-opacity="1" /><path clip-path="url(#clip450)" d="M791.976 1166.28 L808.295 1166.28 L808.295 1170.22 L786.351 1170.22 L786.351 1166.28 Q789.013 1163.53 793.596 1158.9 Q798.203 1154.25 799.383 1152.9 Q801.628 1150.38 802.508 1148.64 Q803.411 1146.89 803.411 1145.2 Q803.411 1142.44 801.466 1140.7 Q799.545 1138.97 796.443 1138.97 Q794.244 1138.97 791.791 1139.73 Q789.36 1140.5 786.582 1142.05 L786.582 1137.33 Q789.406 1136.19 791.86 1135.61 Q794.314 1135.03 796.351 1135.03 Q801.721 1135.03 804.915 1137.72 Q808.11 1140.4 808.11 1144.89 Q808.11 1147.02 807.3 1148.95 Q806.513 1150.84 804.406 1153.44 Q803.827 1154.11 800.726 1157.33 Q797.624 1160.52 791.976 1166.28 Z" fill="#000000" fill-rule="nonzero" fill-opacity="1" /><path clip-path="url(#clip450)" d="M828.11 1138.74 Q824.499 1138.74 822.67 1142.3 Q820.864 1145.84 820.864 1152.97 Q820.864 1160.08 822.67 1163.64 Q824.499 1167.19 828.11 1167.19 Q831.744 1167.19 833.55 1163.64 Q835.378 1160.08 835.378 1152.97 Q835.378 1145.84 833.55 1142.3 Q831.744 1138.74 828.11 1138.74 M828.11 1135.03 Q833.92 1135.03 836.975 1139.64 Q840.054 1144.22 840.054 1152.97 Q840.054 1161.7 836.975 1166.31 Q833.92 1170.89 828.11 1170.89 Q822.3 1170.89 819.221 1166.31 Q816.165 1161.7 816.165 1152.97 Q816.165 1144.22 819.221 1139.64 Q822.3 1135.03 828.11 1135.03 Z" fill="#000000" fill-rule="nonzero" fill-opacity="1" /><path clip-path="url(#clip450)" d="M1061.86 1151.58 Q1065.22 1152.3 1067.09 1154.57 Q1068.99 1156.84 1068.99 1160.17 Q1068.99 1165.29 1065.47 1168.09 Q1061.95 1170.89 1055.47 1170.89 Q1053.3 1170.89 1050.98 1170.45 Q1048.69 1170.03 1046.24 1169.18 L1046.24 1164.66 Q1048.18 1165.8 1050.5 1166.38 Q1052.81 1166.95 1055.33 1166.95 Q1059.73 1166.95 1062.02 1165.22 Q1064.34 1163.48 1064.34 1160.17 Q1064.34 1157.12 1062.19 1155.4 Q1060.06 1153.67 1056.24 1153.67 L1052.21 1153.67 L1052.21 1149.83 L1056.42 1149.83 Q1059.87 1149.83 1061.7 1148.46 Q1063.53 1147.07 1063.53 1144.48 Q1063.53 1141.82 1061.63 1140.4 Q1059.75 1138.97 1056.24 1138.97 Q1054.31 1138.97 1052.12 1139.39 Q1049.92 1139.8 1047.28 1140.68 L1047.28 1136.51 Q1049.94 1135.77 1052.25 1135.4 Q1054.59 1135.03 1056.65 1135.03 Q1061.98 1135.03 1065.08 1137.46 Q1068.18 1139.87 1068.18 1143.99 Q1068.18 1146.86 1066.54 1148.85 Q1064.89 1150.82 1061.86 1151.58 Z" fill="#000000" fill-rule="nonzero" fill-opacity="1" /><path clip-path="url(#clip450)" d="M1087.86 1138.74 Q1084.25 1138.74 1082.42 1142.3 Q1080.61 1145.84 1080.61 1152.97 Q1080.61 1160.08 1082.42 1163.64 Q1084.25 1167.19 1087.86 1167.19 Q1091.49 1167.19 1093.3 1163.64 Q1095.12 1160.08 1095.12 1152.97 Q1095.12 1145.84 1093.3 1142.3 Q1091.49 1138.74 1087.86 1138.74 M1087.86 1135.03 Q1093.67 1135.03 1096.72 1139.64 Q1099.8 1144.22 1099.8 1152.97 Q1099.8 1161.7 1096.72 1166.31 Q1093.67 1170.89 1087.86 1170.89 Q1082.05 1170.89 1078.97 1166.31 Q1075.91 1161.7 1075.91 1152.97 Q1075.91 1144.22 1078.97 1139.64 Q1082.05 1135.03 1087.86 1135.03 Z" fill="#000000" fill-rule="nonzero" fill-opacity="1" /><path clip-path="url(#clip450)" d="M1321.01 1139.73 L1309.2 1158.18 L1321.01 1158.18 L1321.01 1139.73 M1319.78 1135.66 L1325.66 1135.66 L1325.66 1158.18 L1330.59 1158.18 L1330.59 1162.07 L1325.66 1162.07 L1325.66 1170.22 L1321.01 1170.22 L1321.01 1162.07 L1305.4 1162.07 L1305.4 1157.56 L1319.78 1135.66 Z" fill="#000000" fill-rule="nonzero" fill-opacity="1" /><path clip-path="url(#clip450)" d="M1348.32 1138.74 Q1344.71 1138.74 1342.88 1142.3 Q1341.08 1145.84 1341.08 1152.97 Q1341.08 1160.08 1342.88 1163.64 Q1344.71 1167.19 1348.32 1167.19 Q1351.95 1167.19 1353.76 1163.64 Q1355.59 1160.08 1355.59 1152.97 Q1355.59 1145.84 1353.76 1142.3 Q1351.95 1138.74 1348.32 1138.74 M1348.32 1135.03 Q1354.13 1135.03 1357.19 1139.64 Q1360.27 1144.22 1360.27 1152.97 Q1360.27 1161.7 1357.19 1166.31 Q1354.13 1170.89 1348.32 1170.89 Q1342.51 1170.89 1339.43 1166.31 Q1336.38 1161.7 1336.38 1152.97 Q1336.38 1144.22 1339.43 1139.64 Q1342.51 1135.03 1348.32 1135.03 Z" fill="#000000" fill-rule="nonzero" fill-opacity="1" /><path clip-path="url(#clip450)" d="M1567.35 1135.66 L1585.71 1135.66 L1585.71 1139.59 L1571.63 1139.59 L1571.63 1148.07 Q1572.65 1147.72 1573.67 1147.56 Q1574.69 1147.37 1575.71 1147.37 Q1581.49 1147.37 1584.87 1150.54 Q1588.25 1153.71 1588.25 1159.13 Q1588.25 1164.71 1584.78 1167.81 Q1581.31 1170.89 1574.99 1170.89 Q1572.81 1170.89 1570.54 1170.52 Q1568.3 1170.15 1565.89 1169.41 L1565.89 1164.71 Q1567.97 1165.84 1570.2 1166.4 Q1572.42 1166.95 1574.9 1166.95 Q1578.9 1166.95 1581.24 1164.85 Q1583.58 1162.74 1583.58 1159.13 Q1583.58 1155.52 1581.24 1153.41 Q1578.9 1151.31 1574.9 1151.31 Q1573.02 1151.31 1571.15 1151.72 Q1569.29 1152.14 1567.35 1153.02 L1567.35 1135.66 Z" fill="#000000" fill-rule="nonzero" fill-opacity="1" /><path clip-path="url(#clip450)" d="M1607.47 1138.74 Q1603.85 1138.74 1602.03 1142.3 Q1600.22 1145.84 1600.22 1152.97 Q1600.22 1160.08 1602.03 1163.64 Q1603.85 1167.19 1607.47 1167.19 Q1611.1 1167.19 1612.91 1163.64 Q1614.73 1160.08 1614.73 1152.97 Q1614.73 1145.84 1612.91 1142.3 Q1611.1 1138.74 1607.47 1138.74 M1607.47 1135.03 Q1613.28 1135.03 1616.33 1139.64 Q1619.41 1144.22 1619.41 1152.97 Q1619.41 1161.7 1616.33 1166.31 Q1613.28 1170.89 1607.47 1170.89 Q1601.66 1170.89 1598.58 1166.31 Q1595.52 1161.7 1595.52 1152.97 Q1595.52 1144.22 1598.58 1139.64 Q1601.66 1135.03 1607.47 1135.03 Z" fill="#000000" fill-rule="nonzero" fill-opacity="1" /><path clip-path="url(#clip450)" d="M1837.87 1151.08 Q1834.72 1151.08 1832.87 1153.23 Q1831.04 1155.38 1831.04 1159.13 Q1831.04 1162.86 1832.87 1165.03 Q1834.72 1167.19 1837.87 1167.19 Q1841.02 1167.19 1842.85 1165.03 Q1844.7 1162.86 1844.7 1159.13 Q1844.7 1155.38 1842.85 1153.23 Q1841.02 1151.08 1837.87 1151.08 M1847.15 1136.42 L1847.15 1140.68 Q1845.4 1139.85 1843.59 1139.41 Q1841.81 1138.97 1840.05 1138.97 Q1835.42 1138.97 1832.96 1142.09 Q1830.53 1145.22 1830.19 1151.54 Q1831.55 1149.52 1833.61 1148.46 Q1835.67 1147.37 1838.15 1147.37 Q1843.36 1147.37 1846.37 1150.54 Q1849.4 1153.69 1849.4 1159.13 Q1849.4 1164.45 1846.25 1167.67 Q1843.1 1170.89 1837.87 1170.89 Q1831.88 1170.89 1828.71 1166.31 Q1825.53 1161.7 1825.53 1152.97 Q1825.53 1144.78 1829.42 1139.92 Q1833.31 1135.03 1839.86 1135.03 Q1841.62 1135.03 1843.4 1135.38 Q1845.21 1135.73 1847.15 1136.42 Z" fill="#000000" fill-rule="nonzero" fill-opacity="1" /><path clip-path="url(#clip450)" d="M1867.46 1138.74 Q1863.84 1138.74 1862.02 1142.3 Q1860.21 1145.84 1860.21 1152.97 Q1860.21 1160.08 1862.02 1163.64 Q1863.84 1167.19 1867.46 1167.19 Q1871.09 1167.19 1872.9 1163.64 Q1874.72 1160.08 1874.72 1152.97 Q1874.72 1145.84 1872.9 1142.3 Q1871.09 1138.74 1867.46 1138.74 M1867.46 1135.03 Q1873.27 1135.03 1876.32 1139.64 Q1879.4 1144.22 1879.4 1152.97 Q1879.4 1161.7 1876.32 1166.31 Q1873.27 1170.89 1867.46 1170.89 Q1861.65 1170.89 1858.57 1166.31 Q1855.51 1161.7 1855.51 1152.97 Q1855.51 1144.22 1858.57 1139.64 Q1861.65 1135.03 1867.46 1135.03 Z" fill="#000000" fill-rule="nonzero" fill-opacity="1" /><g clip-path="url(#clip450)">
<text style="fill:#000000; fill-opacity:1; font-family:Arial,Helvetica Neue,Helvetica,sans-serif; font-size:66px; text-anchor:middle;" transform="rotate(0, 1099, 1252.42)" x="1099" y="1252.42">Krylov dimension</text>
</g>
<polyline clip-path="url(#clip450)" style="stroke:#000000; stroke-linecap:round; stroke-linejoin:round; stroke-width:4; stroke-opacity:1; fill:none" points="245.244,1111.02 245.244,107.256 "/>
<polyline clip-path="url(#clip450)" style="stroke:#000000; stroke-linecap:round; stroke-linejoin:round; stroke-width:4; stroke-opacity:1; fill:none" points="245.244,1071.1 264.142,1071.1 "/>
<polyline clip-path="url(#clip450)" style="stroke:#000000; stroke-linecap:round; stroke-linejoin:round; stroke-width:4; stroke-opacity:1; fill:none" points="245.244,570.034 264.142,570.034 "/>
<path clip-path="url(#clip450)" d="M113.675 1090.89 L121.314 1090.89 L121.314 1064.53 L113.004 1066.19 L113.004 1061.93 L121.268 1060.27 L125.944 1060.27 L125.944 1090.89 L133.583 1090.89 L133.583 1094.83 L113.675 1094.83 L113.675 1090.89 Z" fill="#000000" fill-rule="nonzero" fill-opacity="1" /><path clip-path="url(#clip450)" d="M153.027 1063.35 Q149.416 1063.35 147.587 1066.91 Q145.782 1070.45 145.782 1077.58 Q145.782 1084.69 147.587 1088.25 Q149.416 1091.8 153.027 1091.8 Q156.661 1091.8 158.467 1088.25 Q160.295 1084.69 160.295 1077.58 Q160.295 1070.45 158.467 1066.91 Q156.661 1063.35 153.027 1063.35 M153.027 1059.64 Q158.837 1059.64 161.893 1064.25 Q164.971 1068.83 164.971 1077.58 Q164.971 1086.31 161.893 1090.92 Q158.837 1095.5 153.027 1095.5 Q147.217 1095.5 144.138 1090.92 Q141.082 1086.31 141.082 1077.58 Q141.082 1068.83 144.138 1064.25 Q147.217 1059.64 153.027 1059.64 Z" fill="#000000" fill-rule="nonzero" fill-opacity="1" /><path clip-path="url(#clip450)" d="M164.971 1053.74 L189.083 1053.74 L189.083 1056.94 L164.971 1056.94 L164.971 1053.74 Z" fill="#000000" fill-rule="nonzero" fill-opacity="1" /><path clip-path="url(#clip450)" d="M205.878 1051.86 Q203.32 1051.86 201.816 1053.61 Q200.33 1055.36 200.33 1058.41 Q200.33 1061.44 201.816 1063.2 Q203.32 1064.95 205.878 1064.95 Q208.436 1064.95 209.922 1063.2 Q211.426 1061.44 211.426 1058.41 Q211.426 1055.36 209.922 1053.61 Q208.436 1051.86 205.878 1051.86 M213.42 1039.96 L213.42 1043.42 Q211.991 1042.74 210.524 1042.38 Q209.075 1042.03 207.646 1042.03 Q203.885 1042.03 201.891 1044.57 Q199.916 1047.1 199.634 1052.24 Q200.744 1050.6 202.417 1049.74 Q204.091 1048.85 206.104 1048.85 Q210.336 1048.85 212.781 1051.43 Q215.244 1053.99 215.244 1058.41 Q215.244 1062.73 212.687 1065.35 Q210.129 1067.96 205.878 1067.96 Q201.007 1067.96 198.43 1064.24 Q195.854 1060.5 195.854 1053.41 Q195.854 1046.75 199.013 1042.8 Q202.173 1038.83 207.496 1038.83 Q208.925 1038.83 210.373 1039.11 Q211.84 1039.39 213.42 1039.96 Z" fill="#000000" fill-rule="nonzero" fill-opacity="1" /><path clip-path="url(#clip450)" d="M114.333 589.827 L121.972 589.827 L121.972 563.461 L113.662 565.128 L113.662 560.868 L121.926 559.202 L126.602 559.202 L126.602 589.827 L134.241 589.827 L134.241 593.762 L114.333 593.762 L114.333 589.827 Z" fill="#000000" fill-rule="nonzero" fill-opacity="1" /><path clip-path="url(#clip450)" d="M153.685 562.28 Q150.074 562.28 148.245 565.845 Q146.44 569.387 146.44 576.516 Q146.44 583.623 148.245 587.188 Q150.074 590.729 153.685 590.729 Q157.319 590.729 159.125 587.188 Q160.954 583.623 160.954 576.516 Q160.954 569.387 159.125 565.845 Q157.319 562.28 153.685 562.28 M153.685 558.577 Q159.495 558.577 162.551 563.183 Q165.629 567.766 165.629 576.516 Q165.629 585.243 162.551 589.85 Q159.495 594.433 153.685 594.433 Q147.875 594.433 144.796 589.85 Q141.741 585.243 141.741 576.516 Q141.741 567.766 144.796 563.183 Q147.875 558.577 153.685 558.577 Z" fill="#000000" fill-rule="nonzero" fill-opacity="1" /><path clip-path="url(#clip450)" d="M165.629 552.678 L189.741 552.678 L189.741 555.875 L165.629 555.875 L165.629 552.678 Z" fill="#000000" fill-rule="nonzero" fill-opacity="1" /><path clip-path="url(#clip450)" d="M209.452 551.211 Q212.179 551.794 213.702 553.637 Q215.244 555.48 215.244 558.189 Q215.244 562.345 212.386 564.621 Q209.527 566.897 204.261 566.897 Q202.493 566.897 200.612 566.539 Q198.75 566.201 196.756 565.505 L196.756 561.837 Q198.336 562.759 200.217 563.229 Q202.098 563.699 204.148 563.699 Q207.721 563.699 209.583 562.289 Q211.464 560.878 211.464 558.189 Q211.464 555.706 209.715 554.314 Q207.985 552.904 204.881 552.904 L201.609 552.904 L201.609 549.782 L205.032 549.782 Q207.834 549.782 209.32 548.672 Q210.806 547.544 210.806 545.437 Q210.806 543.274 209.264 542.127 Q207.74 540.961 204.881 540.961 Q203.32 540.961 201.534 541.299 Q199.747 541.638 197.603 542.353 L197.603 538.967 Q199.766 538.365 201.646 538.064 Q203.546 537.764 205.22 537.764 Q209.546 537.764 212.066 539.738 Q214.586 541.694 214.586 545.042 Q214.586 547.374 213.251 548.992 Q211.915 550.59 209.452 551.211 Z" fill="#000000" fill-rule="nonzero" fill-opacity="1" /><g clip-path="url(#clip450)">
<text style="fill:#000000; fill-opacity:1; font-family:Arial,Helvetica Neue,Helvetica,sans-serif; font-size:66px; text-anchor:middle;" transform="rotate(-90, 71.4418, 609.137)" x="71.4418" y="609.137">relative residual norm</text>
</g>
<g clip-path="url(#clip450)">
<text style="fill:#000000; fill-opacity:1; font-family:Arial,Helvetica Neue,Helvetica,sans-serif; font-size:66px; text-anchor:middle;" transform="rotate(0, 1099, 57.6)" x="1099" y="57.6">Convergence of MINRES and CG</text>
</g>
<polyline clip-path="url(#clip452)" style="stroke:#009af9; stroke-linecap:round; stroke-linejoin:round; stroke-width:8; stroke-opacity:1; fill:none" points="293.57,141.015 319.552,184.393 345.533,215.54 371.515,241.22 397.497,262.631 423.478,281.824 449.46,299.144 475.441,315.49 501.423,330.825 527.405,345.75 553.386,360.256 579.368,374.61 605.35,388.974 631.331,403.096 657.313,417.66 683.294,431.421 709.276,445.649 735.258,459.676 761.239,474.008 787.221,488.414 813.202,502.544 839.184,516.64 865.166,530.946 891.147,544.9 917.129,559.386 943.11,573.446 969.092,587.915 995.074,602.934 1021.06,617.333 1047.04,631.888 1073.02,646.573 1099,660.929 1124.98,675.522 1150.96,690.241 1176.94,705 1202.93,719.193 1228.91,733.889 1254.89,748.324 1280.87,762.729 1306.85,777.172 1332.83,791.522 1358.82,806.276 1384.8,820.385 1410.78,834.509 1436.76,849.162 1462.74,863.505 1488.72,878.048 1514.71,892.83 1540.69,907.834 1566.67,922.293 1592.65,936.916 1618.63,951.58 1644.61,966.278 1670.6,981.203 1696.58,995.27 1722.56,1010.15 1748.54,1024.55 1774.52,1039.13 1800.5,1053.86 1826.49,1068.09 1852.47,1082.61 "/>
<polyline clip-path="url(#clip452)" style="stroke:#e26f46; stroke-linecap:round; stroke-linejoin:round; stroke-width:8; stroke-opacity:1; fill:none" points="293.57,135.664 319.552,171.332 345.533,195.554 371.515,216.612 397.497,233.336 423.478,249.57 449.46,264.021 475.441,278.719 501.423,292.207 527.405,306.341 553.386,320.007 579.368,334.052 605.35,348.437 631.331,362.055 657.313,377.53 683.294,389.609 709.276,404.832 735.258,418.433 761.239,433.405 787.221,447.963 813.202,461.519 839.184,475.546 865.166,490.287 891.147,503.505 917.129,519.099 943.11,532.274 969.092,547.592 995.074,563.709 1021.06,576.867 1047.04,591.741 1073.02,606.687 1099,620.374 1124.98,635.45 1150.96,650.423 1176.94,665.261 1202.93,678.303 1228.91,694.025 1254.89,707.931 1280.87,722.277 1306.85,736.797 1332.83,750.955 1358.82,766.526 1384.8,779.316 1410.78,793.474 1436.76,809.211 1462.74,822.924 1488.72,837.876 1514.71,853.138 1540.69,868.578 1566.67,881.951 1592.65,896.904 1618.63,911.653 1644.61,926.417 1670.6,941.795 1696.58,954.114 1722.56,970.663 1748.54,984.084 1774.52,999.023 1800.5,1014.06 1826.49,1027.27 1852.47,1042.4 1878.45,1057.18 1904.43,1071.69 "/>
<path clip-path="url(#clip450)" d="M1570 296.235 L1895.84 296.235 L1895.84 140.715 L1570 140.715  Z" fill="#ffffff" fill-rule="evenodd" fill-opacity="1"/>
<polyline clip-path="url(#clip450)" style="stroke:#000000; stroke-linecap:round; stroke-linejoin:round; stroke-width:4; stroke-opacity:1; fill:none" points="1570,296.235 1895.84,296.235 1895.84,140.715 1570,140.715 1570,296.235 "/>
<polyline clip-path="url(#clip450)" style="stroke:#009af9; stroke-linecap:round; stroke-linejoin:round; stroke-width:8; stroke-opacity:1; fill:none" points="1588.97,192.555 1702.8,192.555 "/>
<path clip-path="url(#clip450)" d="M1742.12 188.886 Q1743.72 186.015 1745.94 184.65 Q1748.16 183.284 1751.17 183.284 Q1755.22 183.284 1757.42 186.131 Q1759.62 188.955 1759.62 194.187 L1759.62 209.835 L1755.34 209.835 L1755.34 194.325 Q1755.34 190.599 1754.02 188.793 Q1752.7 186.988 1749.99 186.988 Q1746.68 186.988 1744.76 189.187 Q1742.84 191.386 1742.84 195.182 L1742.84 209.835 L1738.56 209.835 L1738.56 194.325 Q1738.56 190.575 1737.24 188.793 Q1735.92 186.988 1733.16 186.988 Q1729.9 186.988 1727.98 189.21 Q1726.06 191.409 1726.06 195.182 L1726.06 209.835 L1721.77 209.835 L1721.77 183.909 L1726.06 183.909 L1726.06 187.937 Q1727.52 185.552 1729.55 184.418 Q1731.59 183.284 1734.39 183.284 Q1737.21 183.284 1739.18 184.719 Q1741.17 186.154 1742.12 188.886 Z" fill="#000000" fill-rule="nonzero" fill-opacity="1" /><path clip-path="url(#clip450)" d="M1768.12 183.909 L1772.38 183.909 L1772.38 209.835 L1768.12 209.835 L1768.12 183.909 M1768.12 173.816 L1772.38 173.816 L1772.38 179.21 L1768.12 179.21 L1768.12 173.816 Z" fill="#000000" fill-rule="nonzero" fill-opacity="1" /><path clip-path="url(#clip450)" d="M1802.84 194.187 L1802.84 209.835 L1798.58 209.835 L1798.58 194.325 Q1798.58 190.645 1797.14 188.816 Q1795.71 186.988 1792.84 186.988 Q1789.39 186.988 1787.4 189.187 Q1785.41 191.386 1785.41 195.182 L1785.41 209.835 L1781.13 209.835 L1781.13 183.909 L1785.41 183.909 L1785.41 187.937 Q1786.94 185.599 1789 184.441 Q1791.08 183.284 1793.79 183.284 Q1798.26 183.284 1800.55 186.062 Q1802.84 188.816 1802.84 194.187 Z" fill="#000000" fill-rule="nonzero" fill-opacity="1" /><path clip-path="url(#clip450)" d="M1826.36 187.89 Q1825.64 187.474 1824.78 187.288 Q1823.95 187.08 1822.93 187.08 Q1819.32 187.08 1817.38 189.441 Q1815.45 191.779 1815.45 196.177 L1815.45 209.835 L1811.17 209.835 L1811.17 183.909 L1815.45 183.909 L1815.45 187.937 Q1816.8 185.576 1818.95 184.441 Q1821.1 183.284 1824.18 183.284 Q1824.62 183.284 1825.15 183.353 Q1825.69 183.4 1826.33 183.515 L1826.36 187.89 Z" fill="#000000" fill-rule="nonzero" fill-opacity="1" /><path clip-path="url(#clip450)" d="M1851.96 195.807 L1851.96 197.89 L1832.38 197.89 Q1832.65 202.288 1835.01 204.603 Q1837.4 206.895 1841.64 206.895 Q1844.09 206.895 1846.38 206.293 Q1848.7 205.691 1850.96 204.487 L1850.96 208.515 Q1848.67 209.487 1846.26 209.997 Q1843.86 210.506 1841.38 210.506 Q1835.18 210.506 1831.54 206.895 Q1827.93 203.284 1827.93 197.126 Q1827.93 190.761 1831.36 187.034 Q1834.81 183.284 1840.64 183.284 Q1845.87 183.284 1848.9 186.663 Q1851.96 190.02 1851.96 195.807 M1847.7 194.557 Q1847.65 191.062 1845.73 188.978 Q1843.83 186.895 1840.69 186.895 Q1837.12 186.895 1834.97 188.909 Q1832.84 190.923 1832.51 194.58 L1847.7 194.557 Z" fill="#000000" fill-rule="nonzero" fill-opacity="1" /><path clip-path="url(#clip450)" d="M1875.48 184.673 L1875.48 188.7 Q1873.67 187.775 1871.73 187.312 Q1869.78 186.849 1867.7 186.849 Q1864.53 186.849 1862.93 187.821 Q1861.36 188.793 1861.36 190.738 Q1861.36 192.219 1862.49 193.075 Q1863.63 193.909 1867.05 194.673 L1868.51 194.997 Q1873.05 195.969 1874.95 197.751 Q1876.87 199.511 1876.87 202.682 Q1876.87 206.293 1874 208.399 Q1871.15 210.506 1866.15 210.506 Q1864.07 210.506 1861.8 210.089 Q1859.55 209.696 1857.05 208.886 L1857.05 204.487 Q1859.41 205.714 1861.7 206.339 Q1864 206.941 1866.24 206.941 Q1869.25 206.941 1870.87 205.923 Q1872.49 204.881 1872.49 203.006 Q1872.49 201.27 1871.31 200.344 Q1870.15 199.418 1866.2 198.562 L1864.71 198.214 Q1860.76 197.381 1859 195.668 Q1857.24 193.932 1857.24 190.923 Q1857.24 187.265 1859.83 185.275 Q1862.42 183.284 1867.19 183.284 Q1869.55 183.284 1871.64 183.631 Q1873.72 183.978 1875.48 184.673 Z" fill="#000000" fill-rule="nonzero" fill-opacity="1" /><polyline clip-path="url(#clip450)" style="stroke:#e26f46; stroke-linecap:round; stroke-linejoin:round; stroke-width:8; stroke-opacity:1; fill:none" points="1588.97,244.395 1702.8,244.395 "/>
<path clip-path="url(#clip450)" d="M1742.28 236.744 L1742.28 240.726 Q1740.48 239.73 1738.65 239.244 Q1736.84 238.735 1734.99 238.735 Q1730.85 238.735 1728.56 241.374 Q1726.27 243.99 1726.27 248.735 Q1726.27 253.48 1728.56 256.119 Q1730.85 258.735 1734.99 258.735 Q1736.84 258.735 1738.65 258.249 Q1740.48 257.739 1742.28 256.744 L1742.28 260.679 Q1740.5 261.513 1738.58 261.929 Q1736.68 262.346 1734.53 262.346 Q1728.67 262.346 1725.22 258.665 Q1721.77 254.985 1721.77 248.735 Q1721.77 242.392 1725.25 238.758 Q1728.74 235.124 1734.81 235.124 Q1736.77 235.124 1738.65 235.541 Q1740.52 235.934 1742.28 236.744 Z" fill="#000000" fill-rule="nonzero" fill-opacity="1" /><path clip-path="url(#clip450)" d="M1766.75 248.411 Q1766.75 243.781 1764.83 241.235 Q1762.93 238.689 1759.48 238.689 Q1756.06 238.689 1754.14 241.235 Q1752.24 243.781 1752.24 248.411 Q1752.24 253.017 1754.14 255.564 Q1756.06 258.11 1759.48 258.11 Q1762.93 258.11 1764.83 255.564 Q1766.75 253.017 1766.75 248.411 M1771.01 258.457 Q1771.01 265.077 1768.07 268.295 Q1765.13 271.536 1759.07 271.536 Q1756.82 271.536 1754.83 271.188 Q1752.84 270.864 1750.96 270.17 L1750.96 266.026 Q1752.84 267.045 1754.67 267.531 Q1756.5 268.017 1758.39 268.017 Q1762.58 268.017 1764.67 265.818 Q1766.75 263.642 1766.75 259.221 L1766.75 257.114 Q1765.43 259.406 1763.37 260.54 Q1761.31 261.675 1758.44 261.675 Q1753.67 261.675 1750.76 258.04 Q1747.84 254.406 1747.84 248.411 Q1747.84 242.392 1750.76 238.758 Q1753.67 235.124 1758.44 235.124 Q1761.31 235.124 1763.37 236.258 Q1765.43 237.392 1766.75 239.684 L1766.75 235.749 L1771.01 235.749 L1771.01 258.457 Z" fill="#000000" fill-rule="nonzero" fill-opacity="1" /></svg>
