<?xml version="1.0" encoding="utf-8"?>
<svg xmlns="http://www.w3.org/2000/svg" xmlns:xlink="http://www.w3.org/1999/xlink" width="500" height="320" viewBox="0 0 2000 1280">
<defs>
  <clipPath id="clip650">
    <rect x="0" y="0" width="2000" height="1280"/>
  </clipPath>
</defs>
<path clip-path="url(#clip650)" d="M0 1280 L2000 1280 L2000 0 L0 0  Z" fill="#ffffff" fill-rule="evenodd" fill-opacity="1"/>
<defs>
  <clipPath id="clip651">
    <rect x="400" y="0" width="1401" height="1280"/>
  </clipPath>
</defs>
<path clip-path="url(#clip650)" d="M245.244 1111.02 L1952.76 1111.02 L1952.76 107.256 L245.244 107.256  Z" fill="#ffffff" fill-rule="evenodd" fill-opacity="1"/>
<defs>
  <clipPath id="clip652">
    <rect x="245" y="107" width="1709" height="1005"/>
  </clipPath>
</defs>
<polyline clip-path="url(#clip652)" style="stroke:#000000; stroke-linecap:round; stroke-linejoin:round; stroke-width:2; stroke-opacity:0.1; fill:none" points="293.57,1111.02 293.57,107.256 "/>
<polyline clip-path="url(#clip652)" style="stroke:#000000; stroke-linecap:round; stroke-linejoin:round; stroke-width:2; stroke-opacity:0.1; fill:none" points="549.262,1111.02 549.262,107.256 "/>
<polyline clip-path="url(#clip652)" style="stroke:#000000; stroke-linecap:round; stroke-linejoin:round; stroke-width:2; stroke-opacity:0.1; fill:none" points="804.954,1111.02 804.954,107.256 "/>
<polyline clip-path="url(#clip652)" style="stroke:#000000; stroke-linecap:round; stroke-linejoin:round; stroke-width:2; stroke-opacity:0.1; fill:none" points="1060.65,1111.02 1060.65,107.256 "/>
<polyline clip-path="url(#clip652)" style="stroke:#000000; stroke-linecap:round; stroke-linejoin:round; stroke-width:2; stroke-opacity:0.1; fill:none" points="1316.34,1111.02 1316.34,107.256 "/>
<polyline clip-path="url(#clip652)" style="stroke:#000000; stroke-linecap:round; stroke-linejoin:round; stroke-width:2; stroke-opacity:0.1; fill:none" points="1572.03,1111.02 1572.03,107.256 "/>
<polyline clip-path="url(#clip652)" style="stroke:#000000; stroke-linecap:round; stroke-linejoin:round; stroke-width:2; stroke-opacity:0.1; fill:none" points="1827.72,1111.02 1827.72,107.256 "/>
<polyline clip-path="url(#clip652)" style="stroke:#000000; stroke-linecap:round; stroke-linejoin:round; stroke-width:2; stroke-opacity:0.1; fill:none" points="245.244,1074.05 1952.76,1074.05 "/>
<polyline clip-path="url(#clip652)" style="stroke:#000000; stroke-linecap:round; stroke-linejoin:round; stroke-width:2; stroke-opacity:0.1; fill:none" points="245.244,573.571 1952.76,573.571 "/>
<polyline clip-path="url(#clip650)" style="stroke:#000000; stroke-linecap:round; stroke-linejoin:round; stroke-width:4; stroke-opacity:1; fill:none" points="245.244,1111.02 1952.76,1111.02 "/>
<polyline clip-path="url(#clip650)" style="stroke:#000000; stroke-linecap:round; stroke-linejoin:round; stroke-width:4; stroke-opacity:1; fill:none" points="293.57,1111.02 293.57,1092.12 "/>
<polyline clip-path="url(#clip650)" style="stroke:#000000; stroke-linecap:round; stroke-linejoin:round; stroke-width:4; stroke-opacity:1; fill:none" points="549.262,1111.02 549.262,1092.12 "/>
<polyline clip-path="url(#clip650)" style="stroke:#000000; stroke-linecap:round; stroke-linejoin:round; stroke-width:4; stroke-opacity:1; fill:none" points="804.954,1111.02 804.954,1092.12 "/>
<polyline clip-path="url(#clip650)" style="stroke:#000000; stroke-linecap:round; stroke-linejoin:round; stroke-width:4; stroke-opacity:1; fill:none" points="1060.65,1111.02 1060.65,1092.12 "/>
<polyline clip-path="url(#clip650)" style="stroke:#000000; stroke-linecap:round; stroke-linejoin:round; stroke-width:4; stroke-opacity:1; fill:none" points="1316.34,1111.02 1316.34,1092.12 "/>
<polyline clip-path="url(#clip650)" style="stroke:#000000; stroke-linecap:round; stroke-linejoin:round; stroke-width:4; stroke-opacity:1; fill:none" points="1572.03,1111.02 1572.03,1092.12 "/>
<polyline clip-path="url(#clip650)" style="stroke:#000000; stroke-linecap:round; stroke-linejoin:round; stroke-width:4; stroke-opacity:1; fill:none" points="1827.72,1111.02 1827.72,1092.12 "/>
<path clip-path="url(#clip650)" d="M293.57 1138.74 Q289.959 1138.74 288.13 1142.3 Q286.325 1145.84 286.325 1152.97 Q286.325 1160.08 288.13 1163.64 Q289.959 1167.19 293.57 1167.19 Q297.204 1167.19 299.01 1163.64 Q300.839 1160.08 300.839 1152.97 Q300.839 1145.84 299.01 1142.3 Q297.204 1138.74 293.57 1138.74 M293.57 1135.03 Q299.38 1135.03 302.436 1139.64 Q305.515 1144.22 305.515 1152.97 Q305.515 1161.7 302.436 1166.31 Q299.38 1170.89 293.57 1170.89 Q287.76 1170.89 284.681 1166.31 Q281.626 1161.7 281.626 1152.97 Q281.626 1144.22 284.681 1139.64 Q287.76 1135.03 293.57 1135.03 Z" fill="#000000" fill-rule="nonzero" fill-opacity="1" /><path clip-path="url(#clip650)" d="M523.95 1166.28 L531.589 1166.28 L531.589 1139.92 L523.279 1141.58 L523.279 1137.33 L531.542 1135.66 L536.218 1135.66 L536.218 1166.28 L543.857 1166.28 L543.857 1170.22 L523.95 1170.22 L523.95 1166.28 Z" fill="#000000" fill-rule="nonzero" fill-opacity="1" /><path clip-path="url(#clip650)" d="M563.302 1138.74 Q559.69 1138.74 557.862 1142.3 Q556.056 1145.84 556.056 1152.97 Q556.056 1160.08 557.862 1163.64 Q559.69 1167.19 563.302 1167.19 Q566.936 1167.19 568.741 1163.64 Q570.57 1160.08 570.57 1152.97 Q570.57 1145.84 568.741 1142.3 Q566.936 1138.74 563.302 1138.74 M563.302 1135.03 Q569.112 1135.03 572.167 1139.64 Q575.246 1144.22 575.246 1152.97 Q575.246 1161.7 572.167 1166.31 Q569.112 1170.89 563.302 1170.89 Q557.491 1170.89 554.413 1166.31 Q551.357 1161.7 551.357 1152.97 Q551.357 1144.22 554.413 1139.64 Q557.491 1135.03 563.302 1135.03 Z" fill="#000000" fill-rule="nonzero" fill-opacity="1" /><path clip-path="url(#clip650)" d="M783.728 1166.28 L800.047 1166.28 L800.047 1170.22 L778.103 1170.22 L778.103 1166.28 Q780.765 1163.53 785.348 1158.9 Q789.954 1154.25 791.135 1152.9 Q793.38 1150.38 794.26 1148.64 Q795.163 1146.89 795.163 1145.2 Q795.163 1142.44 793.218 1140.7 Q791.297 1138.97 788.195 1138.97 Q785.996 1138.97 783.542 1139.73 Q781.112 1140.5 778.334 1142.05 L778.334 1137.33 Q781.158 1136.19 783.612 1135.61 Q786.066 1135.03 788.103 1135.03 Q793.473 1135.03 796.667 1137.72 Q799.862 1140.4 799.862 1144.89 Q799.862 1147.02 799.052 1148.95 Q798.265 1150.84 796.158 1153.44 Q795.579 1154.11 792.478 1157.33 Q789.376 1160.52 783.728 1166.28 Z" fill="#000000" fill-rule="nonzero" fill-opacity="1" /><path clip-path="url(#clip650)" d="M819.862 1138.74 Q816.251 1138.74 814.422 1142.3 Q812.616 1145.84 812.616 1152.97 Q812.616 1160.08 814.422 1163.64 Q816.251 1167.19 819.862 1167.19 Q823.496 1167.19 825.301 1163.64 Q827.13 1160.08 827.13 1152.97 Q827.13 1145.84 825.301 1142.3 Q823.496 1138.74 819.862 1138.74 M819.862 1135.03 Q825.672 1135.03 828.727 1139.64 Q831.806 1144.22 831.806 1152.97 Q831.806 1161.7 828.727 1166.31 Q825.672 1170.89 819.862 1170.89 Q814.051 1170.89 810.973 1166.31 Q807.917 1161.7 807.917 1152.97 Q807.917 1144.22 810.973 1139.64 Q814.051 1135.03 819.862 1135.03 Z" fill="#000000" fill-rule="nonzero" fill-opacity="1" /><path clip-path="url(#clip650)" d="M1049.49 1151.58 Q1052.85 1152.3 1054.72 1154.57 Q1056.62 1156.84 1056.62 1160.17 Q1056.62 1165.29 1053.1 1168.09 Q1049.58 1170.89 1043.1 1170.89 Q1040.92 1170.89 1038.61 1170.45 Q1036.32 1170.03 1033.86 1169.18 L1033.86 1164.66 Q1035.81 1165.8 1038.12 1166.38 Q1040.44 1166.95 1042.96 1166.95 Q1047.36 1166.95 1049.65 1165.22 Q1051.97 1163.48 1051.97 1160.17 Q1051.97 1157.12 1049.81 1155.4 Q1047.68 1153.67 1043.86 1153.67 L1039.84 1153.67 L1039.84 1149.83 L1044.05 1149.83 Q1047.5 1149.83 1049.33 1148.46 Q1051.16 1147.07 1051.16 1144.48 Q1051.16 1141.82 1049.26 1140.4 Q1047.38 1138.97 1043.86 1138.97 Q1041.94 1138.97 1039.74 1139.39 Q1037.54 1139.8 1034.91 1140.68 L1034.91 1136.51 Q1037.57 1135.77 1039.88 1135.4 Q1042.22 1135.03 1044.28 1135.03 Q1049.6 1135.03 1052.71 1137.46 Q1055.81 1139.87 1055.81 1143.99 Q1055.81 1146.86 1054.16 1148.85 Q1052.52 1150.82 1049.49 1151.58 Z" fill="#000000" fill-rule="nonzero" fill-opacity="1" /><path clip-path="url(#clip650)" d="M1075.48 1138.74 Q1071.87 1138.74 1070.04 1142.3 Q1068.24 1145.84 1068.24 1152.97 Q1068.24 1160.08 1070.04 1163.64 Q1071.87 1167.19 1075.48 1167.19 Q1079.12 1167.19 1080.92 1163.64 Q1082.75 1160.08 1082.75 1152.97 Q1082.75 1145.84 1080.92 1142.3 Q1079.12 1138.74 1075.48 1138.74 M1075.48 1135.03 Q1081.29 1135.03 1084.35 1139.64 Q1087.43 1144.22 1087.43 1152.97 Q1087.43 1161.7 1084.35 1166.31 Q1081.29 1170.89 1075.48 1170.89 Q1069.67 1170.89 1066.6 1166.31 Q1063.54 1161.7 1063.54 1152.97 Q1063.54 1144.22 1066.6 1139.64 Q1069.67 1135.03 1075.48 1135.03 Z" fill="#000000" fill-rule="nonzero" fill-opacity="1" /><path clip-path="url(#clip650)" d="M1304.51 1139.73 L1292.7 1158.18 L1304.51 1158.18 L1304.51 1139.73 M1303.28 1135.66 L1309.16 1135.66 L1309.16 1158.18 L1314.09 1158.18 L1314.09 1162.07 L1309.16 1162.07 L1309.16 1170.22 L1304.51 1170.22 L1304.51 1162.07 L1288.91 1162.07 L1288.91 1157.56 L1303.28 1135.66 Z" fill="#000000" fill-rule="nonzero" fill-opacity="1" /><path clip-path="url(#clip650)" d="M1331.82 1138.74 Q1328.21 1138.74 1326.38 1142.3 Q1324.58 1145.84 1324.58 1152.97 Q1324.58 1160.08 1326.38 1163.64 Q1328.21 1167.19 1331.82 1167.19 Q1335.46 1167.19 1337.26 1163.64 Q1339.09 1160.08 1339.09 1152.97 Q1339.09 1145.84 1337.26 1142.3 Q1335.46 1138.74 1331.82 1138.74 M1331.82 1135.03 Q1337.63 1135.03 1340.69 1139.64 Q1343.77 1144.22 1343.77 1152.97 Q1343.77 1161.7 1340.69 1166.31 Q1337.63 1170.89 1331.82 1170.89 Q1326.01 1170.89 1322.94 1166.31 Q1319.88 1161.7 1319.88 1152.97 Q1319.88 1144.22 1322.94 1139.64 Q1326.01 1135.03 1331.82 1135.03 Z" fill="#000000" fill-rule="nonzero" fill-opacity="1" /><path clip-path="url(#clip650)" d="M1546.73 1135.66 L1565.09 1135.66 L1565.09 1139.59 L1551.01 1139.59 L1551.01 1148.07 Q1552.03 1147.72 1553.05 1147.56 Q1554.07 1147.37 1555.09 1147.37 Q1560.87 1147.37 1564.25 1150.54 Q1567.63 1153.71 1567.63 1159.13 Q1567.63 1164.71 1564.16 1167.81 Q1560.69 1170.89 1554.37 1170.89 Q1552.19 1170.89 1549.92 1170.52 Q1547.68 1170.15 1545.27 1169.41 L1545.27 1164.71 Q1547.35 1165.84 1549.58 1166.4 Q1551.8 1166.95 1554.28 1166.95 Q1558.28 1166.95 1560.62 1164.85 Q1562.96 1162.74 1562.96 1159.13 Q1562.96 1155.52 1560.62 1153.41 Q1558.28 1151.31 1554.28 1151.31 Q1552.4 1151.31 1550.53 1151.72 Q1548.67 1152.14 1546.73 1153.02 L1546.73 1135.66 Z" fill="#000000" fill-rule="nonzero" fill-opacity="1" /><path clip-path="url(#clip650)" d="M1586.85 1138.74 Q1583.23 1138.74 1581.41 1142.3 Q1579.6 1145.84 1579.6 1152.97 Q1579.6 1160.08 1581.41 1163.64 Q1583.23 1167.19 1586.85 1167.19 Q1590.48 1167.19 1592.28 1163.64 Q1594.11 1160.08 1594.11 1152.97 Q1594.11 1145.84 1592.28 1142.3 Q1590.48 1138.74 1586.85 1138.74 M1586.85 1135.03 Q1592.66 1135.03 1595.71 1139.64 Q1598.79 1144.22 1598.79 1152.97 Q1598.79 1161.7 1595.71 1166.31 Q1592.66 1170.89 1586.85 1170.89 Q1581.04 1170.89 1577.96 1166.31 Q1574.9 1161.7 1574.9 1152.97 Q1574.9 1144.22 1577.96 1139.64 Q1581.04 1135.03 1586.85 1135.03 Z" fill="#000000" fill-rule="nonzero" fill-opacity="1" /><path clip-path="url(#clip650)" d="M1813.13 1151.08 Q1809.98 1151.08 1808.13 1153.23 Q1806.3 1155.38 1806.3 1159.13 Q1806.3 1162.86 1808.13 1165.03 Q1809.98 1167.19 1813.13 1167.19 Q1816.28 1167.19 1818.1 1165.03 Q1819.96 1162.86 1819.96 1159.13 Q1819.96 1155.38 1818.1 1153.23 Q1816.28 1151.08 1813.13 1151.08 M1822.41 1136.42 L1822.41 1140.68 Q1820.65 1139.85 1818.85 1139.41 Q1817.06 1138.97 1815.3 1138.97 Q1810.67 1138.97 1808.22 1142.09 Q1805.79 1145.22 1805.44 1151.54 Q1806.81 1149.52 1808.87 1148.46 Q1810.93 1147.37 1813.41 1147.37 Q1818.61 1147.37 1821.62 1150.54 Q1824.66 1153.69 1824.66 1159.13 Q1824.66 1164.45 1821.51 1167.67 Q1818.36 1170.89 1813.13 1170.89 Q1807.13 1170.89 1803.96 1166.31 Q1800.79 1161.7 1800.79 1152.97 Q1800.79 1144.78 1804.68 1139.92 Q1808.57 1135.03 1815.12 1135.03 Q1816.88 1135.03 1818.66 1135.38 Q1820.47 1135.73 1822.41 1136.42 Z" fill="#000000" fill-rule="nonzero" fill-opacity="1" /><path clip-path="url(#clip650)" d="M1842.71 1138.74 Q1839.1 1138.74 1837.27 1142.3 Q1835.47 1145.84 1835.47 1152.97 Q1835.47 1160.08 1837.27 1163.64 Q1839.1 1167.19 1842.71 1167.19 Q1846.35 1167.19 1848.15 1163.64 Q1849.98 1160.08 1849.98 1152.97 Q1849.98 1145.84 1848.15 1142.3 Q1846.35 1138.74 1842.71 1138.74 M1842.71 1135.03 Q1848.52 1135.03 1851.58 1139.64 Q1854.66 1144.22 1854.66 1152.97 Q1854.66 1161.7 1851.58 1166.31 Q1848.52 1170.89 1842.71 1170.89 Q1836.9 1170.89 1833.82 1166.31 Q1830.77 1161.7 1830.77 1152.97 Q1830.77 1144.22 1833.82 1139.64 Q1836.9 1135.03 1842.71 1135.03 Z" fill="#000000" fill-rule="nonzero" fill-opacity="1" /><g clip-path="url(#clip650)">
<text style="fill:#000000; fill-opacity:1; font-family:Arial,Helvetica Neue,Helvetica,sans-serif; font-size:66px; text-anchor:middle;" transform="rotate(0, 1099, 1252.42)" x="1099" y="1252.42">Krylov dimension</text>
</g>
<polyline clip-path="url(#clip650)" style="stroke:#000000; stroke-linecap:round; stroke-linejoin:round; stroke-width:4; stroke-opacity:1; fill:none" points="245.244,1111.02 245.244,107.256 "/>
<polyline clip-path="url(#clip650)" style="stroke:#000000; stroke-linecap:round; stroke-linejoin:round; stroke-width:4; stroke-opacity:1; fill:none" points="245.244,1074.05 264.142,1074.05 "/>
<polyline clip-path="url(#clip650)" style="stroke:#000000; stroke-linecap:round; stroke-linejoin:round; stroke-width:4; stroke-opacity:1; fill:none" points="245.244,573.571 264.142,573.571 "/>
<path clip-path="url(#clip650)" d="M113.675 1093.84 L121.314 1093.84 L121.314 1067.48 L113.004 1069.14 L113.004 1064.89 L121.268 1063.22 L125.944 1063.22 L125.944 1093.84 L133.583 1093.84 L133.583 1097.78 L113.675 1097.78 L113.675 1093.84 Z" fill="#000000" fill-rule="nonzero" fill-opacity="1" /><path clip-path="url(#clip650)" d="M153.027 1066.3 Q149.416 1066.3 147.587 1069.86 Q145.782 1073.4 145.782 1080.53 Q145.782 1087.64 147.587 1091.2 Q149.416 1094.75 153.027 1094.75 Q156.661 1094.75 158.467 1091.2 Q160.295 1087.64 160.295 1080.53 Q160.295 1073.4 158.467 1069.86 Q156.661 1066.3 153.027 1066.3 M153.027 1062.59 Q158.837 1062.59 161.893 1067.2 Q164.971 1071.78 164.971 1080.53 Q164.971 1089.26 161.893 1093.87 Q158.837 1098.45 153.027 1098.45 Q147.217 1098.45 144.138 1093.87 Q141.082 1089.26 141.082 1080.53 Q141.082 1071.78 144.138 1067.2 Q147.217 1062.59 153.027 1062.59 Z" fill="#000000" fill-rule="nonzero" fill-opacity="1" /><path clip-path="url(#clip650)" d="M164.971 1056.69 L189.083 1056.69 L189.083 1059.89 L164.971 1059.89 L164.971 1056.69 Z" fill="#000000" fill-rule="nonzero" fill-opacity="1" /><path clip-path="url(#clip650)" d="M205.878 1054.81 Q203.32 1054.81 201.816 1056.56 Q200.33 1058.31 200.33 1061.36 Q200.33 1064.39 201.816 1066.16 Q203.32 1067.9 205.878 1067.9 Q208.436 1067.9 209.922 1066.16 Q211.426 1064.39 211.426 1061.36 Q211.426 1058.31 209.922 1056.56 Q208.436 1054.81 205.878 1054.81 M213.42 1042.91 L213.42 1046.37 Q211.991 1045.69 210.524 1045.33 Q209.075 1044.98 207.646 1044.98 Q203.885 1044.98 201.891 1047.52 Q199.916 1050.06 199.634 1055.19 Q200.744 1053.55 202.417 1052.69 Q204.091 1051.8 206.104 1051.8 Q210.336 1051.8 212.781 1054.38 Q215.244 1056.94 215.244 1061.36 Q215.244 1065.68 212.687 1068.3 Q210.129 1070.91 205.878 1070.91 Q201.007 1070.91 198.43 1067.19 Q195.854 1063.45 195.854 1056.36 Q195.854 1049.7 199.013 1045.75 Q202.173 1041.78 207.496 1041.78 Q208.925 1041.78 210.373 1042.06 Q211.84 1042.34 213.42 1042.91 Z" fill="#000000" fill-rule="nonzero" fill-opacity="1" /><path clip-path="url(#clip650)" d="M114.333 593.363 L121.972 593.363 L121.972 566.997 L113.662 568.664 L113.662 564.405 L121.926 562.738 L126.602 562.738 L126.602 593.363 L134.241 593.363 L134.241 597.298 L114.333 597.298 L114.333 593.363 Z" fill="#000000" fill-rule="nonzero" fill-opacity="1" /><path clip-path="url(#clip650)" d="M153.685 565.817 Q150.074 565.817 148.245 569.382 Q146.44 572.923 146.44 580.053 Q146.44 587.159 148.245 590.724 Q150.074 594.266 153.685 594.266 Q157.319 594.266 159.125 590.724 Q160.954 587.159 160.954 580.053 Q160.954 572.923 159.125 569.382 Q157.319 565.817 153.685 565.817 M153.685 562.113 Q159.495 562.113 162.551 566.72 Q165.629 571.303 165.629 580.053 Q165.629 588.78 162.551 593.386 Q159.495 597.97 153.685 597.97 Q147.875 597.97 144.796 593.386 Q141.741 588.78 141.741 580.053 Q141.741 571.303 144.796 566.72 Q147.875 562.113 153.685 562.113 Z" fill="#000000" fill-rule="nonzero" fill-opacity="1" /><path clip-path="url(#clip650)" d="M165.629 556.215 L189.741 556.215 L189.741 559.412 L165.629 559.412 L165.629 556.215 Z" fill="#000000" fill-rule="nonzero" fill-opacity="1" /><path clip-path="url(#clip650)" d="M209.452 554.748 Q212.179 555.331 213.702 557.174 Q215.244 559.017 215.244 561.725 Q215.244 565.882 212.386 568.158 Q209.527 570.433 204.261 570.433 Q202.493 570.433 200.612 570.076 Q198.75 569.737 196.756 569.041 L196.756 565.374 Q198.336 566.296 200.217 566.766 Q202.098 567.236 204.148 567.236 Q207.721 567.236 209.583 565.825 Q211.464 564.415 211.464 561.725 Q211.464 559.243 209.715 557.851 Q207.985 556.44 204.881 556.44 L201.609 556.44 L201.609 553.318 L205.032 553.318 Q207.834 553.318 209.32 552.209 Q210.806 551.08 210.806 548.974 Q210.806 546.811 209.264 545.663 Q207.74 544.497 204.881 544.497 Q203.32 544.497 201.534 544.836 Q199.747 545.174 197.603 545.889 L197.603 542.504 Q199.766 541.902 201.646 541.601 Q203.546 541.3 205.22 541.3 Q209.546 541.3 212.066 543.275 Q214.586 545.231 214.586 548.579 Q214.586 550.911 213.251 552.528 Q211.915 554.127 209.452 554.748 Z" fill="#000000" fill-rule="nonzero" fill-opacity="1" /><g clip-path="url(#clip650)">
<text style="fill:#000000; fill-opacity:1; font-family:Arial,Helvetica Neue,Helvetica,sans-serif; font-size:66px; text-anchor:middle;" transform="rotate(-90, 71.4418, 609.137)" x="71.4418" y="609.137">relative residual norm</text>
</g>
<g clip-path="url(#clip650)">
<text style="fill:#000000; fill-opacity:1; font-family:Arial,Helvetica Neue,Helvetica,sans-serif; font-size:66px; text-anchor:middle;" transform="rotate(0, 1099, 57.6)" x="1099" y="57.6">Convergence of MINRES and CG</text>
</g>
<polyline clip-path="url(#clip652)" style="stroke:#009af9; stroke-linecap:round; stroke-linejoin:round; stroke-width:8; stroke-opacity:1; fill:none" points="293.57,141.591 319.139,184.474 344.709,216.24 370.278,241.032 395.847,262.238 421.416,281.169 446.985,298.756 472.555,315.018 498.124,330.559 523.693,345.127 549.262,359.43 574.831,373.796 600.401,388.262 625.97,402.252 651.539,416.881 677.108,430.771 702.677,445.364 728.247,459.564 753.816,473.275 779.385,487.356 804.954,501.518 830.523,516.046 856.093,530.784 881.662,544.963 907.231,559.098 932.8,574.118 958.37,588.765 983.939,603.078 1009.51,617.542 1035.08,631.789 1060.65,646.655 1086.22,660.886 1111.78,675.249 1137.35,689.617 1162.92,703.932 1188.49,718.499 1214.06,732.414 1239.63,746.97 1265.2,761.364 1290.77,776.144 1316.34,790.459 1341.91,805.036 1367.48,819.358 1393.05,833.95 1418.62,848.703 1444.18,863.158 1469.75,877.412 1495.32,892.233 1520.89,906.242 1546.46,920.715 1572.03,935.041 1597.6,949.647 1623.17,964.23 1648.74,979.276 1674.31,993.243 1699.88,1008.04 1725.45,1022.84 1751.01,1037.45 1776.58,1051.68 1802.15,1066.42 1827.72,1080.97 "/>
<polyline clip-path="url(#clip652)" style="stroke:#e26f46; stroke-linecap:round; stroke-linejoin:round; stroke-width:8; stroke-opacity:1; fill:none" points="293.57,135.664 319.139,171.234 344.709,196.752 370.278,215.602 395.847,232.751 421.416,248.606 446.985,264.139 472.555,278.176 498.124,292.409 523.693,305.085 549.262,318.851 574.831,333.344 600.401,348.014 625.97,361.016 651.539,376.962 677.108,389.324 702.677,405.372 728.247,418.77 753.816,431.438 779.385,446.313 804.954,460.643 830.523,475.925 856.093,491.085 881.662,504.124 907.231,518.167 932.8,534.975 958.37,548.884 983.939,562.517 1009.51,577.291 1035.08,591.091 1060.65,607.209 1086.22,620.156 1111.78,634.791 1137.35,649.169 1162.92,663.375 1188.49,678.459 1214.06,691.015 1239.63,706.905 1265.2,720.971 1290.77,736.528 1316.34,749.902 1341.91,765.015 1367.48,778.816 1393.05,793.958 1418.62,809.035 1444.18,822.888 1469.75,836.73 1495.32,852.698 1520.89,865.046 1546.46,880.482 1572.03,894.507 1597.6,909.684 1623.17,924.221 1648.74,940.182 1674.31,951.956 1699.88,968.444 1725.45,983.259 1751.01,997.492 1776.58,1010.96 1802.15,1026.73 1827.72,1040.89 1853.29,1055.81 1878.86,1069.83 1904.43,1082.61 "/>
<path clip-path="url(#clip650)" d="M1570 296.235 L1895.84 296.235 L1895.84 140.715 L1570 140.715  Z" fill="#ffffff" fill-rule="evenodd" fill-opacity="1"/>
<polyline clip-path="url(#clip650)" style="stroke:#000000; stroke-linecap:round; stroke-linejoin:round; stroke-width:4; stroke-opacity:1; fill:none" points="1570,296.235 1895.84,296.235 1895.84,140.715 1570,140.715 1570,296.235 "/>
<polyline clip-path="url(#clip650)" style="stroke:#009af9; stroke-linecap:round; stroke-linejoin:round; stroke-width:8; stroke-opacity:1; fill:none" points="1588.97,192.555 1702.8,192.555 "/>
<path clip-path="url(#clip650)" d="M1742.12 188.886 Q1743.72 186.015 1745.94 184.65 Q1748.16 183.284 1751.17 183.284 Q1755.22 183.284 1757.42 186.131 Q1759.62 188.955 1759.62 194.187 L1759.62 209.835 L1755.34 209.835 L1755.34 194.325 Q1755.34 190.599 1754.02 188.793 Q1752.7 186.988 1749.99 186.988 Q1746.68 186.988 1744.76 189.187 Q1742.84 191.386 1742.84 195.182 L1742.84 209.835 L1738.56 209.835 L1738.56 194.325 Q1738.56 190.575 1737.24 188.793 Q1735.92 186.988 1733.16 186.988 Q1729.9 186.988 1727.98 189.21 Q1726.06 191.409 1726.06 195.182 L1726.06 209.835 L1721.77 209.835 L1721.77 183.909 L1726.06 183.909 L1726.06 187.937 Q1727.52 185.552 1729.55 184.418 Q1731.59 183.284 1734.39 183.284 Q1737.21 183.284 1739.18 184.719 Q1741.17 186.154 1742.12 188.886 Z" fill="#000000" fill-rule="nonzero" fill-opacity="1" /><path clip-path="url(#clip650)" d="M1768.12 183.909 L1772.38 183.909 L1772.38 209.835 L1768.12 209.835 L1768.12 183.909 M1768.12 173.816 L1772.38 173.816 L1772.38 179.21 L1768.12 179.21 L1768.12 173.816 Z" fill="#000000" fill-rule="nonzero" fill-opacity="1" /><path clip-path="url(#clip650)" d="M1802.84 194.187 L1802.84 209.835 L1798.58 209.835 L1798.58 194.325 Q1798.58 190.645 1797.14 188.816 Q1795.71 186.988 1792.84 186.988 Q1789.39 186.988 1787.4 189.187 Q1785.41 191.386 1785.41 195.182 L1785.41 209.835 L1781.13 209.835 L1781.13 183.909 L1785.41 183.909 L1785.41 187.937 Q1786.94 185.599 1789 184.441 Q1791.08 183.284 1793.79 183.284 Q1798.26 183.284 1800.55 186.062 Q1802.84 188.816 1802.84 194.187 Z" fill="#000000" fill-rule="nonzero" fill-opacity="1" /><path clip-path="url(#clip650)" d="M1826.36 187.89 Q1825.64 187.474 1824.78 187.288 Q1823.95 187.08 1822.93 187.08 Q1819.32 187.08 1817.38 189.441 Q1815.45 191.779 1815.45 196.177 L1815.45 209.835 L1811.17 209.835 L1811.17 183.909 L1815.45 183.909 L1815.45 187.937 Q1816.8 185.576 1818.95 184.441 Q1821.1 183.284 1824.18 183.284 Q1824.62 183.284 1825.15 183.353 Q1825.69 183.4 1826.33 183.515 L1826.36 187.89 Z" fill="#000000" fill-rule="nonzero" fill-opacity="1" /><path clip-path="url(#clip650)" d="M1851.96 195.807 L1851.96 197.89 L1832.38 197.89 Q1832.65 202.288 1835.01 204.603 Q1837.4 206.895 1841.64 206.895 Q1844.09 206.895 1846.38 206.293 Q1848.7 205.691 1850.96 204.487 L1850.96 208.515 Q1848.67 209.487 1846.26 209.997 Q1843.86 210.506 1841.38 210.506 Q1835.18 210.506 1831.54 206.895 Q1827.93 203.284 1827.93 197.126 Q1827.93 190.761 1831.36 187.034 Q1834.81 183.284 1840.64 183.284 Q1845.87 183.284 1848.9 186.663 Q1851.96 190.02 1851.96 195.807 M1847.7 194.557 Q1847.65 191.062 1845.73 188.978 Q1843.83 186.895 1840.69 186.895 Q1837.12 186.895 1834.97 188.909 Q1832.84 190.923 1832.51 194.58 L1847.7 194.557 Z" fill="#000000" fill-rule="nonzero" fill-opacity="1" /><path clip-path="url(#clip650)" d="M1875.48 184.673 L1875.48 188.7 Q1873.67 187.775 1871.73 187.312 Q1869.78 186.849 1867.7 186.849 Q1864.53 186.849 1862.93 187.821 Q1861.36 188.793 1861.36 190.738 Q1861.36 192.219 1862.49 193.075 Q1863.63 193.909 1867.05 194.673 L1868.51 194.997 Q1873.05 195.969 1874.95 197.751 Q1876.87 199.511 1876.87 202.682 Q1876.87 206.293 1874 208.399 Q1871.15 210.506 1866.15 210.506 Q1864.07 210.506 1861.8 210.089 Q1859.55 209.696 1857.05 208.886 L1857.05 204.487 Q1859.41 205.714 1861.7 206.339 Q1864 206.941 1866.24 206.941 Q1869.25 206.941 1870.87 205.923 Q1872.49 204.881 1872.49 203.006 Q1872.49 201.27 1871.31 200.344 Q1870.15 199.418 1866.2 198.562 L1864.71 198.214 Q1860.76 197.381 1859 195.668 Q1857.24 193.932 1857.24 190.923 Q1857.24 187.265 1859.83 185.275 Q1862.42 183.284 1867.19 183.284 Q1869.55 183.284 1871.64 183.631 Q1873.72 183.978 1875.48 184.673 Z" fill="#000000" fill-rule="nonzero" fill-opacity="1" /><polyline clip-path="url(#clip650)" style="stroke:#e26f46; stroke-linecap:round; stroke-linejoin:round; stroke-width:8; stroke-opacity:1; fill:none" points="1588.97,244.395 1702.8,244.395 "/>
<path clip-path="url(#clip650)" d="M1742.28 236.744 L1742.28 240.726 Q1740.48 239.73 1738.65 239.244 Q1736.84 238.735 1734.99 238.735 Q1730.85 238.735 1728.56 241.374 Q1726.27 243.99 1726.27 248.735 Q1726.27 253.48 1728.56 256.119 Q1730.85 258.735 1734.99 258.735 Q1736.84 258.735 1738.65 258.249 Q1740.48 257.739 1742.28 256.744 L1742.28 260.679 Q1740.5 261.513 1738.58 261.929 Q1736.68 262.346 1734.53 262.346 Q1728.67 262.346 1725.22 258.665 Q1721.77 254.985 1721.77 248.735 Q1721.77 242.392 1725.25 238.758 Q1728.74 235.124 1734.81 235.124 Q1736.77 235.124 1738.65 235.541 Q1740.52 235.934 1742.28 236.744 Z" fill="#000000" fill-rule="nonzero" fill-opacity="1" /><path clip-path="url(#clip650)" d="M1766.75 248.411 Q1766.75 243.781 1764.83 241.235 Q1762.93 238.689 1759.48 238.689 Q1756.06 238.689 1754.14 241.235 Q1752.24 243.781 1752.24 248.411 Q1752.24 253.017 1754.14 255.564 Q1756.06 258.11 1759.48 258.11 Q1762.93 258.11 1764.83 255.564 Q1766.75 253.017 1766.75 248.411 M1771.01 258.457 Q1771.01 265.077 1768.07 268.295 Q1765.13 271.536 1759.07 271.536 Q1756.82 271.536 1754.83 271.188 Q1752.84 270.864 1750.96 270.17 L1750.96 266.026 Q1752.84 267.045 1754.67 267.531 Q1756.5 268.017 1758.39 268.017 Q1762.58 268.017 1764.67 265.818 Q1766.75 263.642 1766.75 259.221 L1766.75 257.114 Q1765.43 259.406 1763.37 260.54 Q1761.31 261.675 1758.44 261.675 Q1753.67 261.675 1750.76 258.04 Q1747.84 254.406 1747.84 248.411 Q1747.84 242.392 1750.76 238.758 Q1753.67 235.124 1758.44 235.124 Q1761.31 235.124 1763.37 236.258 Q1765.43 237.392 1766.75 239.684 L1766.75 235.749 L1771.01 235.749 L1771.01 258.457 Z" fill="#000000" fill-rule="nonzero" fill-opacity="1" /></svg>
