<?xml version="1.0" encoding="utf-8"?>
<svg xmlns="http://www.w3.org/2000/svg" xmlns:xlink="http://www.w3.org/1999/xlink" width="500" height="320" viewBox="0 0 2000 1280">
<defs>
  <clipPath id="clip980">
    <rect x="0" y="0" width="2000" height="1280"/>
  </clipPath>
</defs>
<path clip-path="url(#clip980)" d="M0 1280 L2000 1280 L2000 -2.66454e-14 L0 -2.66454e-14  Z" fill="#ffffff" fill-rule="evenodd" fill-opacity="1"/>
<defs>
  <clipPath id="clip981">
    <rect x="1205" y="107" width="749" height="1065"/>
  </clipPath>
</defs>
<path clip-path="url(#clip980)" d="M185.496 1171.03 L1952.76 1171.03 L1952.76 107.256 L185.496 107.256  Z" fill="#ffffff" fill-rule="evenodd" fill-opacity="1"/>
<defs>
  <clipPath id="clip982">
    <rect x="185" y="107" width="1768" height="1065"/>
  </clipPath>
</defs>
<polyline clip-path="url(#clip982)" style="stroke:#000000; stroke-linecap:round; stroke-linejoin:round; stroke-width:2; stroke-opacity:0.1; fill:none" points="235.513,1171.03 235.513,107.256 "/>
<polyline clip-path="url(#clip982)" style="stroke:#000000; stroke-linecap:round; stroke-linejoin:round; stroke-width:2; stroke-opacity:0.1; fill:none" points="654.414,1171.03 654.414,107.256 "/>
<polyline clip-path="url(#clip982)" style="stroke:#000000; stroke-linecap:round; stroke-linejoin:round; stroke-width:2; stroke-opacity:0.1; fill:none" points="1073.31,1171.03 1073.31,107.256 "/>
<polyline clip-path="url(#clip982)" style="stroke:#000000; stroke-linecap:round; stroke-linejoin:round; stroke-width:2; stroke-opacity:0.1; fill:none" points="1492.22,1171.03 1492.22,107.256 "/>
<polyline clip-path="url(#clip982)" style="stroke:#000000; stroke-linecap:round; stroke-linejoin:round; stroke-width:2; stroke-opacity:0.1; fill:none" points="1911.12,1171.03 1911.12,107.256 "/>
<polyline clip-path="url(#clip982)" style="stroke:#000000; stroke-linecap:round; stroke-linejoin:round; stroke-width:2; stroke-opacity:0.1; fill:none" points="185.496,1165.42 1952.76,1165.42 "/>
<polyline clip-path="url(#clip982)" style="stroke:#000000; stroke-linecap:round; stroke-linejoin:round; stroke-width:2; stroke-opacity:0.1; fill:none" points="185.496,908.405 1952.76,908.405 "/>
<polyline clip-path="url(#clip982)" style="stroke:#000000; stroke-linecap:round; stroke-linejoin:round; stroke-width:2; stroke-opacity:0.1; fill:none" points="185.496,651.391 1952.76,651.391 "/>
<polyline clip-path="url(#clip982)" style="stroke:#000000; stroke-linecap:round; stroke-linejoin:round; stroke-width:2; stroke-opacity:0.1; fill:none" points="185.496,394.377 1952.76,394.377 "/>
<polyline clip-path="url(#clip982)" style="stroke:#000000; stroke-linecap:round; stroke-linejoin:round; stroke-width:2; stroke-opacity:0.1; fill:none" points="185.496,137.363 1952.76,137.363 "/>
<polyline clip-path="url(#clip980)" style="stroke:#000000; stroke-linecap:round; stroke-linejoin:round; stroke-width:4; stroke-opacity:1; fill:none" points="185.496,1171.03 1952.76,1171.03 "/>
<polyline clip-path="url(#clip980)" style="stroke:#000000; stroke-linecap:round; stroke-linejoin:round; stroke-width:4; stroke-opacity:1; fill:none" points="235.513,1171.03 235.513,1152.13 "/>
<polyline clip-path="url(#clip980)" style="stroke:#000000; stroke-linecap:round; stroke-linejoin:round; stroke-width:4; stroke-opacity:1; fill:none" points="654.414,1171.03 654.414,1152.13 "/>
<polyline clip-path="url(#clip980)" style="stroke:#000000; stroke-linecap:round; stroke-linejoin:round; stroke-width:4; stroke-opacity:1; fill:none" points="1073.31,1171.03 1073.31,1152.13 "/>
<polyline clip-path="url(#clip980)" style="stroke:#000000; stroke-linecap:round; stroke-linejoin:round; stroke-width:4; stroke-opacity:1; fill:none" points="1492.22,1171.03 1492.22,1152.13 "/>
<polyline clip-path="url(#clip980)" style="stroke:#000000; stroke-linecap:round; stroke-linejoin:round; stroke-width:4; stroke-opacity:1; fill:none" points="1911.12,1171.03 1911.12,1152.13 "/>
<path clip-path="url(#clip980)" d="M235.513 1198.75 Q231.902 1198.75 230.073 1202.31 Q228.267 1205.86 228.267 1212.98 Q228.267 1220.09 230.073 1223.66 Q231.902 1227.2 235.513 1227.2 Q239.147 1227.2 240.952 1223.66 Q242.781 1220.09 242.781 1212.98 Q242.781 1205.86 240.952 1202.31 Q239.147 1198.75 235.513 1198.75 M235.513 1195.05 Q241.323 1195.05 244.378 1199.65 Q247.457 1204.24 247.457 1212.98 Q247.457 1221.71 244.378 1226.32 Q241.323 1230.9 235.513 1230.9 Q229.703 1230.9 226.624 1226.32 Q223.568 1221.71 223.568 1212.98 Q223.568 1204.24 226.624 1199.65 Q229.703 1195.05 235.513 1195.05 Z" fill="#000000" fill-rule="nonzero" fill-opacity="1" /><path clip-path="url(#clip980)" d="M629.113 1195.67 L647.469 1195.67 L647.469 1199.61 L633.395 1199.61 L633.395 1208.08 Q634.414 1207.73 635.432 1207.57 Q636.451 1207.38 637.469 1207.38 Q643.256 1207.38 646.636 1210.55 Q650.016 1213.73 650.016 1219.14 Q650.016 1224.72 646.543 1227.82 Q643.071 1230.9 636.752 1230.9 Q634.576 1230.9 632.307 1230.53 Q630.062 1230.16 627.655 1229.42 L627.655 1224.72 Q629.738 1225.86 631.96 1226.41 Q634.182 1226.97 636.659 1226.97 Q640.664 1226.97 643.002 1224.86 Q645.34 1222.75 645.34 1219.14 Q645.34 1215.53 643.002 1213.42 Q640.664 1211.32 636.659 1211.32 Q634.784 1211.32 632.909 1211.74 Q631.057 1212.15 629.113 1213.03 L629.113 1195.67 Z" fill="#000000" fill-rule="nonzero" fill-opacity="1" /><path clip-path="url(#clip980)" d="M669.229 1198.75 Q665.617 1198.75 663.789 1202.31 Q661.983 1205.86 661.983 1212.98 Q661.983 1220.09 663.789 1223.66 Q665.617 1227.2 669.229 1227.2 Q672.863 1227.2 674.668 1223.66 Q676.497 1220.09 676.497 1212.98 Q676.497 1205.86 674.668 1202.31 Q672.863 1198.75 669.229 1198.75 M669.229 1195.05 Q675.039 1195.05 678.094 1199.65 Q681.173 1204.24 681.173 1212.98 Q681.173 1221.71 678.094 1226.32 Q675.039 1230.9 669.229 1230.9 Q663.418 1230.9 660.34 1226.32 Q657.284 1221.71 657.284 1212.98 Q657.284 1204.24 660.34 1199.65 Q663.418 1195.05 669.229 1195.05 Z" fill="#000000" fill-rule="nonzero" fill-opacity="1" /><path clip-path="url(#clip980)" d="M1032.92 1226.3 L1040.56 1226.3 L1040.56 1199.93 L1032.25 1201.6 L1032.25 1197.34 L1040.51 1195.67 L1045.19 1195.67 L1045.19 1226.3 L1052.83 1226.3 L1052.83 1230.23 L1032.92 1230.23 L1032.92 1226.3 Z" fill="#000000" fill-rule="nonzero" fill-opacity="1" /><path clip-path="url(#clip980)" d="M1072.27 1198.75 Q1068.66 1198.75 1066.83 1202.31 Q1065.03 1205.86 1065.03 1212.98 Q1065.03 1220.09 1066.83 1223.66 Q1068.66 1227.2 1072.27 1227.2 Q1075.91 1227.2 1077.71 1223.66 Q1079.54 1220.09 1079.54 1212.98 Q1079.54 1205.86 1077.71 1202.31 Q1075.91 1198.75 1072.27 1198.75 M1072.27 1195.05 Q1078.08 1195.05 1081.14 1199.65 Q1084.22 1204.24 1084.22 1212.98 Q1084.22 1221.71 1081.14 1226.32 Q1078.08 1230.9 1072.27 1230.9 Q1066.46 1230.9 1063.38 1226.32 Q1060.33 1221.71 1060.33 1212.98 Q1060.33 1204.24 1063.38 1199.65 Q1066.46 1195.05 1072.27 1195.05 Z" fill="#000000" fill-rule="nonzero" fill-opacity="1" /><path clip-path="url(#clip980)" d="M1102.44 1198.75 Q1098.82 1198.75 1097 1202.31 Q1095.19 1205.86 1095.19 1212.98 Q1095.19 1220.09 1097 1223.66 Q1098.82 1227.2 1102.44 1227.2 Q1106.07 1227.2 1107.87 1223.66 Q1109.7 1220.09 1109.7 1212.98 Q1109.7 1205.86 1107.87 1202.31 Q1106.07 1198.75 1102.44 1198.75 M1102.44 1195.05 Q1108.25 1195.05 1111.3 1199.65 Q1114.38 1204.24 1114.38 1212.98 Q1114.38 1221.71 1111.3 1226.32 Q1108.25 1230.9 1102.44 1230.9 Q1096.62 1230.9 1093.55 1226.32 Q1090.49 1221.71 1090.49 1212.98 Q1090.49 1204.24 1093.55 1199.65 Q1096.62 1195.05 1102.44 1195.05 Z" fill="#000000" fill-rule="nonzero" fill-opacity="1" /><path clip-path="url(#clip980)" d="M1451.82 1226.3 L1459.46 1226.3 L1459.46 1199.93 L1451.15 1201.6 L1451.15 1197.34 L1459.42 1195.67 L1464.09 1195.67 L1464.09 1226.3 L1471.73 1226.3 L1471.73 1230.23 L1451.82 1230.23 L1451.82 1226.3 Z" fill="#000000" fill-rule="nonzero" fill-opacity="1" /><path clip-path="url(#clip980)" d="M1481.22 1195.67 L1499.58 1195.67 L1499.58 1199.61 L1485.5 1199.61 L1485.5 1208.08 Q1486.52 1207.73 1487.54 1207.57 Q1488.56 1207.38 1489.58 1207.38 Q1495.36 1207.38 1498.74 1210.55 Q1502.12 1213.73 1502.12 1219.14 Q1502.12 1224.72 1498.65 1227.82 Q1495.18 1230.9 1488.86 1230.9 Q1486.68 1230.9 1484.42 1230.53 Q1482.17 1230.16 1479.76 1229.42 L1479.76 1224.72 Q1481.85 1225.86 1484.07 1226.41 Q1486.29 1226.97 1488.77 1226.97 Q1492.77 1226.97 1495.11 1224.86 Q1497.45 1222.75 1497.45 1219.14 Q1497.45 1215.53 1495.11 1213.42 Q1492.77 1211.32 1488.77 1211.32 Q1486.89 1211.32 1485.02 1211.74 Q1483.17 1212.15 1481.22 1213.03 L1481.22 1195.67 Z" fill="#000000" fill-rule="nonzero" fill-opacity="1" /><path clip-path="url(#clip980)" d="M1521.34 1198.75 Q1517.73 1198.75 1515.9 1202.31 Q1514.09 1205.86 1514.09 1212.98 Q1514.09 1220.09 1515.9 1223.66 Q1517.73 1227.2 1521.34 1227.2 Q1524.97 1227.2 1526.78 1223.66 Q1528.6 1220.09 1528.6 1212.98 Q1528.6 1205.86 1526.78 1202.31 Q1524.97 1198.75 1521.34 1198.75 M1521.34 1195.05 Q1527.15 1195.05 1530.2 1199.65 Q1533.28 1204.24 1533.28 1212.98 Q1533.28 1221.71 1530.2 1226.32 Q1527.15 1230.9 1521.34 1230.9 Q1515.53 1230.9 1512.45 1226.32 Q1509.39 1221.71 1509.39 1212.98 Q1509.39 1204.24 1512.45 1199.65 Q1515.53 1195.05 1521.34 1195.05 Z" fill="#000000" fill-rule="nonzero" fill-opacity="1" /><path clip-path="url(#clip980)" d="M1874.81 1226.3 L1891.13 1226.3 L1891.13 1230.23 L1869.18 1230.23 L1869.18 1226.3 Q1871.85 1223.54 1876.43 1218.91 Q1881.04 1214.26 1882.22 1212.92 Q1884.46 1210.39 1885.34 1208.66 Q1886.24 1206.9 1886.24 1205.21 Q1886.24 1202.45 1884.3 1200.72 Q1882.38 1198.98 1879.28 1198.98 Q1877.08 1198.98 1874.62 1199.74 Q1872.19 1200.51 1869.42 1202.06 L1869.42 1197.34 Q1872.24 1196.2 1874.69 1195.62 Q1877.15 1195.05 1879.18 1195.05 Q1884.55 1195.05 1887.75 1197.73 Q1890.94 1200.42 1890.94 1204.91 Q1890.94 1207.04 1890.13 1208.96 Q1889.35 1210.86 1887.24 1213.45 Q1886.66 1214.12 1883.56 1217.34 Q1880.46 1220.53 1874.81 1226.3 Z" fill="#000000" fill-rule="nonzero" fill-opacity="1" /><path clip-path="url(#clip980)" d="M1910.94 1198.75 Q1907.33 1198.75 1905.5 1202.31 Q1903.7 1205.86 1903.7 1212.98 Q1903.7 1220.09 1905.5 1223.66 Q1907.33 1227.2 1910.94 1227.2 Q1914.58 1227.2 1916.38 1223.66 Q1918.21 1220.09 1918.21 1212.98 Q1918.21 1205.86 1916.38 1202.31 Q1914.58 1198.75 1910.94 1198.75 M1910.94 1195.05 Q1916.75 1195.05 1919.81 1199.65 Q1922.89 1204.24 1922.89 1212.98 Q1922.89 1221.71 1919.81 1226.32 Q1916.75 1230.9 1910.94 1230.9 Q1905.13 1230.9 1902.05 1226.32 Q1899 1221.71 1899 1212.98 Q1899 1204.24 1902.05 1199.65 Q1905.13 1195.05 1910.94 1195.05 Z" fill="#000000" fill-rule="nonzero" fill-opacity="1" /><path clip-path="url(#clip980)" d="M1941.11 1198.75 Q1937.49 1198.75 1935.67 1202.31 Q1933.86 1205.86 1933.86 1212.98 Q1933.86 1220.09 1935.67 1223.66 Q1937.49 1227.2 1941.11 1227.2 Q1944.74 1227.2 1946.55 1223.66 Q1948.37 1220.09 1948.37 1212.98 Q1948.37 1205.86 1946.55 1202.31 Q1944.74 1198.75 1941.11 1198.75 M1941.11 1195.05 Q1946.92 1195.05 1949.97 1199.65 Q1953.05 1204.24 1953.05 1212.98 Q1953.05 1221.71 1949.97 1226.32 Q1946.92 1230.9 1941.11 1230.9 Q1935.3 1230.9 1932.22 1226.32 Q1929.16 1221.71 1929.16 1212.98 Q1929.16 1204.24 1932.22 1199.65 Q1935.3 1195.05 1941.11 1195.05 Z" fill="#000000" fill-rule="nonzero" fill-opacity="1" /><polyline clip-path="url(#clip980)" style="stroke:#000000; stroke-linecap:round; stroke-linejoin:round; stroke-width:4; stroke-opacity:1; fill:none" points="185.496,1171.03 185.496,107.256 "/>
<polyline clip-path="url(#clip980)" style="stroke:#000000; stroke-linecap:round; stroke-linejoin:round; stroke-width:4; stroke-opacity:1; fill:none" points="185.496,1165.42 204.394,1165.42 "/>
<polyline clip-path="url(#clip980)" style="stroke:#000000; stroke-linecap:round; stroke-linejoin:round; stroke-width:4; stroke-opacity:1; fill:none" points="185.496,908.405 204.394,908.405 "/>
<polyline clip-path="url(#clip980)" style="stroke:#000000; stroke-linecap:round; stroke-linejoin:round; stroke-width:4; stroke-opacity:1; fill:none" points="185.496,651.391 204.394,651.391 "/>
<polyline clip-path="url(#clip980)" style="stroke:#000000; stroke-linecap:round; stroke-linejoin:round; stroke-width:4; stroke-opacity:1; fill:none" points="185.496,394.377 204.394,394.377 "/>
<polyline clip-path="url(#clip980)" style="stroke:#000000; stroke-linecap:round; stroke-linejoin:round; stroke-width:4; stroke-opacity:1; fill:none" points="185.496,137.363 204.394,137.363 "/>
<path clip-path="url(#clip980)" d="M53.6634 1185.21 L61.3023 1185.21 L61.3023 1158.85 L52.9921 1160.51 L52.9921 1156.25 L61.256 1154.59 L65.9319 1154.59 L65.9319 1185.21 L73.5707 1185.21 L73.5707 1189.15 L53.6634 1189.15 L53.6634 1185.21 Z" fill="#000000" fill-rule="nonzero" fill-opacity="1" /><path clip-path="url(#clip980)" d="M93.0151 1157.67 Q89.404 1157.67 87.5753 1161.23 Q85.7697 1164.77 85.7697 1171.9 Q85.7697 1179.01 87.5753 1182.57 Q89.404 1186.11 93.0151 1186.11 Q96.6493 1186.11 98.4548 1182.57 Q100.284 1179.01 100.284 1171.9 Q100.284 1164.77 98.4548 1161.23 Q96.6493 1157.67 93.0151 1157.67 M93.0151 1153.96 Q98.8252 1153.96 101.881 1158.57 Q104.959 1163.15 104.959 1171.9 Q104.959 1180.63 101.881 1185.23 Q98.8252 1189.82 93.0151 1189.82 Q87.2049 1189.82 84.1262 1185.23 Q81.0707 1180.63 81.0707 1171.9 Q81.0707 1163.15 84.1262 1158.57 Q87.2049 1153.96 93.0151 1153.96 Z" fill="#000000" fill-rule="nonzero" fill-opacity="1" /><path clip-path="url(#clip980)" d="M104.959 1148.06 L129.071 1148.06 L129.071 1151.26 L104.959 1151.26 L104.959 1148.06 Z" fill="#000000" fill-rule="nonzero" fill-opacity="1" /><path clip-path="url(#clip980)" d="M147.71 1136.97 L138.118 1151.96 L147.71 1151.96 L147.71 1136.97 M146.713 1133.66 L151.49 1133.66 L151.49 1151.96 L155.496 1151.96 L155.496 1155.12 L151.49 1155.12 L151.49 1161.74 L147.71 1161.74 L147.71 1155.12 L135.033 1155.12 L135.033 1151.45 L146.713 1133.66 Z" fill="#000000" fill-rule="nonzero" fill-opacity="1" /><path clip-path="url(#clip980)" d="M54.585 928.197 L62.2238 928.197 L62.2238 901.832 L53.9137 903.498 L53.9137 899.239 L62.1776 897.573 L66.8535 897.573 L66.8535 928.197 L74.4923 928.197 L74.4923 932.133 L54.585 932.133 L54.585 928.197 Z" fill="#000000" fill-rule="nonzero" fill-opacity="1" /><path clip-path="url(#clip980)" d="M93.9366 900.651 Q90.3255 900.651 88.4969 904.216 Q86.6913 907.758 86.6913 914.887 Q86.6913 921.994 88.4969 925.559 Q90.3255 929.1 93.9366 929.1 Q97.5709 929.1 99.3764 925.559 Q101.205 921.994 101.205 914.887 Q101.205 907.758 99.3764 904.216 Q97.5709 900.651 93.9366 900.651 M93.9366 896.948 Q99.7468 896.948 102.802 901.554 Q105.881 906.137 105.881 914.887 Q105.881 923.614 102.802 928.221 Q99.7468 932.804 93.9366 932.804 Q88.1265 932.804 85.0478 928.221 Q81.9923 923.614 81.9923 914.887 Q81.9923 906.137 85.0478 901.554 Q88.1265 896.948 93.9366 896.948 Z" fill="#000000" fill-rule="nonzero" fill-opacity="1" /><path clip-path="url(#clip980)" d="M105.881 891.049 L129.993 891.049 L129.993 894.246 L105.881 894.246 L105.881 891.049 Z" fill="#000000" fill-rule="nonzero" fill-opacity="1" /><path clip-path="url(#clip980)" d="M149.703 889.582 Q152.43 890.165 153.954 892.008 Q155.496 893.851 155.496 896.56 Q155.496 900.716 152.637 902.992 Q149.778 905.268 144.512 905.268 Q142.744 905.268 140.863 904.91 Q139.002 904.572 137.008 903.876 L137.008 900.208 Q138.588 901.13 140.469 901.6 Q142.349 902.07 144.399 902.07 Q147.973 902.07 149.835 900.66 Q151.716 899.249 151.716 896.56 Q151.716 894.077 149.966 892.685 Q148.236 891.275 145.133 891.275 L141.86 891.275 L141.86 888.153 L145.283 888.153 Q148.086 888.153 149.571 887.043 Q151.057 885.914 151.057 883.808 Q151.057 881.645 149.515 880.498 Q147.992 879.332 145.133 879.332 Q143.572 879.332 141.785 879.67 Q139.998 880.009 137.854 880.723 L137.854 877.338 Q140.017 876.736 141.898 876.435 Q143.797 876.134 145.471 876.134 Q149.797 876.134 152.317 878.109 Q154.838 880.065 154.838 883.413 Q154.838 885.745 153.502 887.363 Q152.167 888.961 149.703 889.582 Z" fill="#000000" fill-rule="nonzero" fill-opacity="1" /><path clip-path="url(#clip980)" d="M55.3561 671.183 L62.995 671.183 L62.995 644.818 L54.6848 646.484 L54.6848 642.225 L62.9487 640.558 L67.6246 640.558 L67.6246 671.183 L75.2634 671.183 L75.2634 675.118 L55.3561 675.118 L55.3561 671.183 Z" fill="#000000" fill-rule="nonzero" fill-opacity="1" /><path clip-path="url(#clip980)" d="M94.7078 643.637 Q91.0967 643.637 89.268 647.202 Q87.4624 650.744 87.4624 657.873 Q87.4624 664.98 89.268 668.544 Q91.0967 672.086 94.7078 672.086 Q98.342 672.086 100.148 668.544 Q101.976 664.98 101.976 657.873 Q101.976 650.744 100.148 647.202 Q98.342 643.637 94.7078 643.637 M94.7078 639.933 Q100.518 639.933 103.573 644.54 Q106.652 649.123 106.652 657.873 Q106.652 666.6 103.573 671.206 Q100.518 675.79 94.7078 675.79 Q88.8976 675.79 85.8189 671.206 Q82.7634 666.6 82.7634 657.873 Q82.7634 649.123 85.8189 644.54 Q88.8976 639.933 94.7078 639.933 Z" fill="#000000" fill-rule="nonzero" fill-opacity="1" /><path clip-path="url(#clip980)" d="M106.652 634.035 L130.764 634.035 L130.764 637.232 L106.652 637.232 L106.652 634.035 Z" fill="#000000" fill-rule="nonzero" fill-opacity="1" /><path clip-path="url(#clip980)" d="M142.236 644.511 L155.496 644.511 L155.496 647.708 L137.666 647.708 L137.666 644.511 Q139.829 642.273 143.553 638.511 Q147.296 634.731 148.255 633.64 Q150.079 631.59 150.794 630.179 Q151.527 628.75 151.527 627.377 Q151.527 625.139 149.948 623.728 Q148.387 622.318 145.866 622.318 Q144.08 622.318 142.086 622.938 Q140.111 623.559 137.854 624.819 L137.854 620.982 Q140.149 620.061 142.142 619.59 Q144.136 619.12 145.791 619.12 Q150.155 619.12 152.75 621.302 Q155.345 623.484 155.345 627.132 Q155.345 628.863 154.687 630.424 Q154.048 631.966 152.336 634.072 Q151.866 634.618 149.346 637.232 Q146.826 639.828 142.236 644.511 Z" fill="#000000" fill-rule="nonzero" fill-opacity="1" /><path clip-path="url(#clip980)" d="M55.0552 414.169 L62.694 414.169 L62.694 387.804 L54.3839 389.47 L54.3839 385.211 L62.6477 383.544 L67.3236 383.544 L67.3236 414.169 L74.9625 414.169 L74.9625 418.104 L55.0552 418.104 L55.0552 414.169 Z" fill="#000000" fill-rule="nonzero" fill-opacity="1" /><path clip-path="url(#clip980)" d="M94.4068 386.623 Q90.7957 386.623 88.967 390.188 Q87.1615 393.73 87.1615 400.859 Q87.1615 407.966 88.967 411.53 Q90.7957 415.072 94.4068 415.072 Q98.0411 415.072 99.8466 411.53 Q101.675 407.966 101.675 400.859 Q101.675 393.73 99.8466 390.188 Q98.0411 386.623 94.4068 386.623 M94.4068 382.919 Q100.217 382.919 103.273 387.526 Q106.351 392.109 106.351 400.859 Q106.351 409.586 103.273 414.192 Q100.217 418.776 94.4068 418.776 Q88.5967 418.776 85.518 414.192 Q82.4625 409.586 82.4625 400.859 Q82.4625 392.109 85.518 387.526 Q88.5967 382.919 94.4068 382.919 Z" fill="#000000" fill-rule="nonzero" fill-opacity="1" /><path clip-path="url(#clip980)" d="M106.351 377.021 L130.463 377.021 L130.463 380.218 L106.351 380.218 L106.351 377.021 Z" fill="#000000" fill-rule="nonzero" fill-opacity="1" /><path clip-path="url(#clip980)" d="M139.321 387.497 L145.528 387.497 L145.528 366.075 L138.776 367.429 L138.776 363.968 L145.49 362.614 L149.289 362.614 L149.289 387.497 L155.496 387.497 L155.496 390.694 L139.321 390.694 L139.321 387.497 Z" fill="#000000" fill-rule="nonzero" fill-opacity="1" /><path clip-path="url(#clip980)" d="M84.7903 157.155 L92.4291 157.155 L92.4291 130.79 L84.119 132.456 L84.119 128.197 L92.3828 126.53 L97.0587 126.53 L97.0587 157.155 L104.698 157.155 L104.698 161.09 L84.7903 161.09 L84.7903 157.155 Z" fill="#000000" fill-rule="nonzero" fill-opacity="1" /><path clip-path="url(#clip980)" d="M124.142 129.609 Q120.531 129.609 118.702 133.174 Q116.897 136.715 116.897 143.845 Q116.897 150.951 118.702 154.516 Q120.531 158.058 124.142 158.058 Q127.776 158.058 129.582 154.516 Q131.41 150.951 131.41 143.845 Q131.41 136.715 129.582 133.174 Q127.776 129.609 124.142 129.609 M124.142 125.905 Q129.952 125.905 133.008 130.512 Q136.086 135.095 136.086 143.845 Q136.086 152.572 133.008 157.178 Q129.952 161.762 124.142 161.762 Q118.332 161.762 115.253 157.178 Q112.198 152.572 112.198 143.845 Q112.198 135.095 115.253 130.512 Q118.332 125.905 124.142 125.905 Z" fill="#000000" fill-rule="nonzero" fill-opacity="1" /><path clip-path="url(#clip980)" d="M145.791 108.101 Q142.857 108.101 141.371 110.998 Q139.904 113.875 139.904 119.668 Q139.904 125.442 141.371 128.338 Q142.857 131.216 145.791 131.216 Q148.744 131.216 150.211 128.338 Q151.697 125.442 151.697 119.668 Q151.697 113.875 150.211 110.998 Q148.744 108.101 145.791 108.101 M145.791 105.092 Q150.512 105.092 152.994 108.835 Q155.496 112.559 155.496 119.668 Q155.496 126.759 152.994 130.501 Q150.512 134.225 145.791 134.225 Q141.07 134.225 138.569 130.501 Q136.086 126.759 136.086 119.668 Q136.086 112.559 138.569 108.835 Q141.07 105.092 145.791 105.092 Z" fill="#000000" fill-rule="nonzero" fill-opacity="1" /><g clip-path="url(#clip980)">
<text style="fill:#000000; fill-opacity:1; font-family:Arial,Helvetica Neue,Helvetica,sans-serif; font-size:66px; text-anchor:middle;" transform="rotate(0, 1069.13, 57.6)" x="1069.13" y="57.6">Diagonal preconditioning in CG</text>
</g>
<polyline clip-path="url(#clip982)" style="stroke:#009af9; stroke-linecap:round; stroke-linejoin:round; stroke-width:8; stroke-opacity:1; fill:none" points="235.513,137.363 243.891,176.33 252.269,255.053 260.647,292.099 269.025,292.055 277.403,295.746 285.781,319.272 294.159,350.141 302.537,372.551 310.915,378.148 319.293,377.491 327.671,386.44 336.049,400.618 344.427,410.474 352.805,416.057 361.183,415.394 369.561,414.616 377.939,420.255 386.317,425.941 394.695,425.825 403.073,424.591 411.451,424.89 419.829,426.773 428.207,427.305 436.585,428.405 444.963,432.243 453.341,432.471 461.719,434.079 470.097,434.139 478.475,437.551 486.853,436.554 495.231,441.451 503.609,442.825 511.987,445.979 520.365,449.649 528.743,452.61 537.122,459.02 545.5,465.216 553.878,471.242 562.256,476.67 570.634,483.835 579.012,489.315 587.39,495.744 595.768,500.639 604.146,504.207 612.524,510.432 620.902,514.636 629.28,515.445 637.658,519.256 646.036,520.914 654.414,521.373 662.792,519.576 671.17,520.306 679.548,518.362 687.926,517.54 696.304,519.311 704.682,517.672 713.06,518.392 721.438,519.003 729.816,523.078 738.194,523.808 746.572,527.389 754.95,529.577 763.328,535.237 771.706,540.427 780.084,543.171 788.462,548.505 796.84,550.83 805.218,552.402 813.596,555.015 821.974,557.297 830.352,557.197 838.73,557.833 847.108,561.401 855.486,562.664 863.864,566.969 872.242,567.439 880.62,569.501 888.998,571.78 897.376,575.359 905.754,579.17 914.133,579.575 922.511,580.633 930.889,582.394 939.267,583.923 947.645,587.254 956.023,589.549 964.401,591.294 972.779,594.451 981.157,598.05 989.535,600.87 997.913,605.355 1006.29,605.57 1014.67,611.625 1023.05,613.339 1031.42,613.837 1039.8,617.75 1048.18,616.025 1056.56,617.9 1064.94,617.723 1073.31,618.436 1081.69,618.5 1090.07,616.776 1098.45,619.129 1106.83,618.587 1115.21,619.784 1123.58,624.847 1131.96,629.205 1140.34,631.255 1148.72,632.999 1157.1,636.742 1165.47,638.024 1173.85,639.634 1182.23,643.693 1190.61,646.228 1198.99,647.808 1207.36,654.466 1215.74,660.343 1224.12,666.361 1232.5,672.102 1240.88,676.409 1249.25,680.434 1257.63,682.517 1266.01,688.472 1274.39,693.304 1282.77,699.696 1291.14,700.134 1299.52,706.522 1307.9,706.552 1316.28,709.538 1324.66,711.509 1333.03,710.245 1341.41,713.296 1349.79,715.031 1358.17,718.166 1366.55,722.75 1374.92,724.088 1383.3,727.082 1391.68,727.278 1400.06,730.638 1408.44,730.471 1416.81,732.401 1425.19,737.056 1433.57,738.363 1441.95,742.416 1450.33,746.738 1458.7,752.582 1467.08,757.72 1475.46,765.229 1483.84,770.968 1492.22,776.828 1500.59,781.665 1508.97,788.197 1517.35,794.131 1525.73,798.804 1534.11,805.214 1542.48,808.754 1550.86,811.185 1559.24,812.61 1567.62,817.673 1576,820.786 1584.37,825.994 1592.75,831.186 1601.13,834.888 1609.51,839.685 1617.89,846.724 1626.26,848.907 1634.64,857.912 1643.02,864.28 1651.4,871.527 1659.78,878.148 1668.15,886.255 1676.53,893.884 1684.91,898.192 1693.29,905.029 1701.67,912.142 1710.04,917.178 1718.42,923.394 1726.8,929.52 1735.18,934.079 1743.56,938.371 1751.93,943.821 1760.31,948.912 1768.69,954.269 1777.07,959.724 1785.45,965.303 1793.82,970.576 1802.2,976.079 1810.58,977.943 1818.96,981.436 1827.34,986.476 1835.71,987.524 1844.09,992.536 1852.47,997.023 1860.85,1002.58 1869.23,1007.09 1877.61,1012.29 1885.98,1020.67 1894.36,1026.18 1902.74,1031.63 "/>
<polyline clip-path="url(#clip982)" style="stroke:#e26f46; stroke-linecap:round; stroke-linejoin:round; stroke-width:8; stroke-opacity:1; fill:none" points="235.513,137.363 243.891,183.188 252.269,260.496 260.647,343.001 269.025,405.705 277.403,454.393 285.781,506.249 294.159,566.788 302.537,608.619 310.915,636.279 319.293,707.141 327.671,785.39 336.049,846.625 344.427,893.027 352.805,946.743 361.183,1003.57 369.561,1041.75 377.939,1086.41 386.317,1140.92 "/>
<path clip-path="url(#clip980)" d="M1369.58 298.235 L1893.85 298.235 L1893.85 142.715 L1369.58 142.715  Z" fill="#ffffff" fill-rule="evenodd" fill-opacity="1"/>
<polyline clip-path="url(#clip980)" style="stroke:#000000; stroke-linecap:round; stroke-linejoin:round; stroke-width:4; stroke-opacity:1; fill:none" points="1369.58,298.235 1893.85,298.235 1893.85,142.715 1369.58,142.715 1369.58,298.235 "/>
<polyline clip-path="url(#clip980)" style="stroke:#009af9; stroke-linecap:round; stroke-linejoin:round; stroke-width:8; stroke-opacity:1; fill:none" points="1389.21,194.555 1507.03,194.555 "/>
<path clip-path="url(#clip980)" d="M1530.95 207.946 L1530.95 221.696 L1526.67 221.696 L1526.67 185.909 L1530.95 185.909 L1530.95 189.844 Q1532.29 187.53 1534.33 186.418 Q1536.39 185.284 1539.24 185.284 Q1543.96 185.284 1546.9 189.034 Q1549.86 192.784 1549.86 198.895 Q1549.86 205.006 1546.9 208.756 Q1543.96 212.506 1539.24 212.506 Q1536.39 212.506 1534.33 211.395 Q1532.29 210.261 1530.95 207.946 M1545.44 198.895 Q1545.44 194.196 1543.5 191.534 Q1541.57 188.849 1538.19 188.849 Q1534.81 188.849 1532.87 191.534 Q1530.95 194.196 1530.95 198.895 Q1530.95 203.594 1532.87 206.28 Q1534.81 208.942 1538.19 208.942 Q1541.57 208.942 1543.5 206.28 Q1545.44 203.594 1545.44 198.895 Z" fill="#000000" fill-rule="nonzero" fill-opacity="1" /><path clip-path="url(#clip980)" d="M1556.92 175.817 L1561.18 175.817 L1561.18 211.835 L1556.92 211.835 L1556.92 175.817 Z" fill="#000000" fill-rule="nonzero" fill-opacity="1" /><path clip-path="url(#clip980)" d="M1581.87 198.803 Q1576.71 198.803 1574.72 199.983 Q1572.73 201.164 1572.73 204.011 Q1572.73 206.28 1574.21 207.622 Q1575.72 208.942 1578.29 208.942 Q1581.83 208.942 1583.96 206.442 Q1586.11 203.918 1586.11 199.752 L1586.11 198.803 L1581.87 198.803 M1590.37 197.043 L1590.37 211.835 L1586.11 211.835 L1586.11 207.9 Q1584.65 210.261 1582.48 211.395 Q1580.3 212.506 1577.15 212.506 Q1573.17 212.506 1570.81 210.284 Q1568.47 208.039 1568.47 204.289 Q1568.47 199.914 1571.39 197.692 Q1574.33 195.469 1580.14 195.469 L1586.11 195.469 L1586.11 195.053 Q1586.11 192.113 1584.17 190.516 Q1582.24 188.895 1578.75 188.895 Q1576.53 188.895 1574.42 189.428 Q1572.31 189.96 1570.37 191.025 L1570.37 187.09 Q1572.71 186.187 1574.91 185.747 Q1577.11 185.284 1579.19 185.284 Q1584.81 185.284 1587.59 188.201 Q1590.37 191.118 1590.37 197.043 Z" fill="#000000" fill-rule="nonzero" fill-opacity="1" /><path clip-path="url(#clip980)" d="M1599.14 185.909 L1603.4 185.909 L1603.4 211.835 L1599.14 211.835 L1599.14 185.909 M1599.14 175.817 L1603.4 175.817 L1603.4 181.21 L1599.14 181.21 L1599.14 175.817 Z" fill="#000000" fill-rule="nonzero" fill-opacity="1" /><path clip-path="url(#clip980)" d="M1633.87 196.187 L1633.87 211.835 L1629.61 211.835 L1629.61 196.326 Q1629.61 192.645 1628.17 190.817 Q1626.74 188.988 1623.87 188.988 Q1620.42 188.988 1618.43 191.187 Q1616.43 193.386 1616.43 197.182 L1616.43 211.835 L1612.15 211.835 L1612.15 185.909 L1616.43 185.909 L1616.43 189.937 Q1617.96 187.599 1620.02 186.442 Q1622.11 185.284 1624.81 185.284 Q1629.28 185.284 1631.57 188.062 Q1633.87 190.817 1633.87 196.187 Z" fill="#000000" fill-rule="nonzero" fill-opacity="1" /><polyline clip-path="url(#clip980)" style="stroke:#e26f46; stroke-linecap:round; stroke-linejoin:round; stroke-width:8; stroke-opacity:1; fill:none" points="1389.21,246.395 1507.03,246.395 "/>
<path clip-path="url(#clip980)" d="M1530.95 259.786 L1530.95 273.536 L1526.67 273.536 L1526.67 237.749 L1530.95 237.749 L1530.95 241.684 Q1532.29 239.37 1534.33 238.258 Q1536.39 237.124 1539.24 237.124 Q1543.96 237.124 1546.9 240.874 Q1549.86 244.624 1549.86 250.735 Q1549.86 256.846 1546.9 260.596 Q1543.96 264.346 1539.24 264.346 Q1536.39 264.346 1534.33 263.235 Q1532.29 262.101 1530.95 259.786 M1545.44 250.735 Q1545.44 246.036 1543.5 243.374 Q1541.57 240.689 1538.19 240.689 Q1534.81 240.689 1532.87 243.374 Q1530.95 246.036 1530.95 250.735 Q1530.95 255.434 1532.87 258.12 Q1534.81 260.782 1538.19 260.782 Q1541.57 260.782 1543.5 258.12 Q1545.44 255.434 1545.44 250.735 Z" fill="#000000" fill-rule="nonzero" fill-opacity="1" /><path clip-path="url(#clip980)" d="M1571.94 241.731 Q1571.23 241.314 1570.37 241.129 Q1569.54 240.921 1568.52 240.921 Q1564.91 240.921 1562.96 243.282 Q1561.04 245.62 1561.04 250.018 L1561.04 263.675 L1556.76 263.675 L1556.76 237.749 L1561.04 237.749 L1561.04 241.777 Q1562.38 239.416 1564.54 238.282 Q1566.69 237.124 1569.77 237.124 Q1570.21 237.124 1570.74 237.194 Q1571.27 237.24 1571.92 237.356 L1571.94 241.731 Z" fill="#000000" fill-rule="nonzero" fill-opacity="1" /><path clip-path="url(#clip980)" d="M1597.55 249.647 L1597.55 251.731 L1577.96 251.731 Q1578.24 256.129 1580.6 258.444 Q1582.99 260.735 1587.22 260.735 Q1589.68 260.735 1591.97 260.133 Q1594.28 259.532 1596.55 258.328 L1596.55 262.356 Q1594.26 263.328 1591.85 263.837 Q1589.44 264.346 1586.97 264.346 Q1580.76 264.346 1577.13 260.735 Q1573.52 257.124 1573.52 250.967 Q1573.52 244.601 1576.94 240.874 Q1580.39 237.124 1586.23 237.124 Q1591.46 237.124 1594.49 240.504 Q1597.55 243.86 1597.55 249.647 M1593.29 248.397 Q1593.24 244.902 1591.32 242.819 Q1589.42 240.735 1586.27 240.735 Q1582.71 240.735 1580.56 242.749 Q1578.43 244.763 1578.1 248.42 L1593.29 248.397 Z" fill="#000000" fill-rule="nonzero" fill-opacity="1" /><path clip-path="url(#clip980)" d="M1623.19 238.745 L1623.19 242.726 Q1621.39 241.731 1619.56 241.245 Q1617.75 240.735 1615.9 240.735 Q1611.76 240.735 1609.47 243.374 Q1607.18 245.99 1607.18 250.735 Q1607.18 255.481 1609.47 258.12 Q1611.76 260.735 1615.9 260.735 Q1617.75 260.735 1619.56 260.249 Q1621.39 259.74 1623.19 258.744 L1623.19 262.68 Q1621.41 263.513 1619.49 263.93 Q1617.59 264.346 1615.44 264.346 Q1609.58 264.346 1606.13 260.666 Q1602.68 256.985 1602.68 250.735 Q1602.68 244.393 1606.16 240.758 Q1609.65 237.124 1615.72 237.124 Q1617.68 237.124 1619.56 237.541 Q1621.43 237.934 1623.19 238.745 Z" fill="#000000" fill-rule="nonzero" fill-opacity="1" /><path clip-path="url(#clip980)" d="M1640.65 240.735 Q1637.22 240.735 1635.23 243.421 Q1633.24 246.083 1633.24 250.735 Q1633.24 255.388 1635.21 258.073 Q1637.2 260.735 1640.65 260.735 Q1644.05 260.735 1646.04 258.05 Q1648.03 255.365 1648.03 250.735 Q1648.03 246.129 1646.04 243.444 Q1644.05 240.735 1640.65 240.735 M1640.65 237.124 Q1646.2 237.124 1649.37 240.735 Q1652.55 244.346 1652.55 250.735 Q1652.55 257.101 1649.37 260.735 Q1646.2 264.346 1640.65 264.346 Q1635.07 264.346 1631.9 260.735 Q1628.75 257.101 1628.75 250.735 Q1628.75 244.346 1631.9 240.735 Q1635.07 237.124 1640.65 237.124 Z" fill="#000000" fill-rule="nonzero" fill-opacity="1" /><path clip-path="url(#clip980)" d="M1681.16 248.027 L1681.16 263.675 L1676.9 263.675 L1676.9 248.166 Q1676.9 244.485 1675.46 242.657 Q1674.03 240.828 1671.16 240.828 Q1667.71 240.828 1665.72 243.027 Q1663.73 245.226 1663.73 249.022 L1663.73 263.675 L1659.44 263.675 L1659.44 237.749 L1663.73 237.749 L1663.73 241.777 Q1665.25 239.439 1667.31 238.282 Q1669.4 237.124 1672.11 237.124 Q1676.57 237.124 1678.86 239.902 Q1681.16 242.657 1681.16 248.027 Z" fill="#000000" fill-rule="nonzero" fill-opacity="1" /><path clip-path="url(#clip980)" d="M1706.71 241.684 L1706.71 227.657 L1710.97 227.657 L1710.97 263.675 L1706.71 263.675 L1706.71 259.786 Q1705.37 262.101 1703.31 263.235 Q1701.27 264.346 1698.4 264.346 Q1693.7 264.346 1690.74 260.596 Q1687.8 256.846 1687.8 250.735 Q1687.8 244.624 1690.74 240.874 Q1693.7 237.124 1698.4 237.124 Q1701.27 237.124 1703.31 238.258 Q1705.37 239.37 1706.71 241.684 M1692.2 250.735 Q1692.2 255.434 1694.12 258.12 Q1696.06 260.782 1699.44 260.782 Q1702.82 260.782 1704.77 258.12 Q1706.71 255.434 1706.71 250.735 Q1706.71 246.036 1704.77 243.374 Q1702.82 240.689 1699.44 240.689 Q1696.06 240.689 1694.12 243.374 Q1692.2 246.036 1692.2 250.735 Z" fill="#000000" fill-rule="nonzero" fill-opacity="1" /><path clip-path="url(#clip980)" d="M1719.74 237.749 L1724 237.749 L1724 263.675 L1719.74 263.675 L1719.74 237.749 M1719.74 227.657 L1724 227.657 L1724 233.05 L1719.74 233.05 L1719.74 227.657 Z" fill="#000000" fill-rule="nonzero" fill-opacity="1" /><path clip-path="url(#clip980)" d="M1737.13 230.388 L1737.13 237.749 L1745.9 237.749 L1745.9 241.059 L1737.13 241.059 L1737.13 255.133 Q1737.13 258.305 1737.98 259.207 Q1738.86 260.11 1741.53 260.11 L1745.9 260.11 L1745.9 263.675 L1741.53 263.675 Q1736.6 263.675 1734.72 261.846 Q1732.85 259.994 1732.85 255.133 L1732.85 241.059 L1729.72 241.059 L1729.72 237.749 L1732.85 237.749 L1732.85 230.388 L1737.13 230.388 Z" fill="#000000" fill-rule="nonzero" fill-opacity="1" /><path clip-path="url(#clip980)" d="M1751.5 237.749 L1755.76 237.749 L1755.76 263.675 L1751.5 263.675 L1751.5 237.749 M1751.5 227.657 L1755.76 227.657 L1755.76 233.05 L1751.5 233.05 L1751.5 227.657 Z" fill="#000000" fill-rule="nonzero" fill-opacity="1" /><path clip-path="url(#clip980)" d="M1774.72 240.735 Q1771.29 240.735 1769.3 243.421 Q1767.31 246.083 1767.31 250.735 Q1767.31 255.388 1769.28 258.073 Q1771.27 260.735 1774.72 260.735 Q1778.12 260.735 1780.11 258.05 Q1782.11 255.365 1782.11 250.735 Q1782.11 246.129 1780.11 243.444 Q1778.12 240.735 1774.72 240.735 M1774.72 237.124 Q1780.28 237.124 1783.45 240.735 Q1786.62 244.346 1786.62 250.735 Q1786.62 257.101 1783.45 260.735 Q1780.28 264.346 1774.72 264.346 Q1769.14 264.346 1765.97 260.735 Q1762.82 257.101 1762.82 250.735 Q1762.82 244.346 1765.97 240.735 Q1769.14 237.124 1774.72 237.124 Z" fill="#000000" fill-rule="nonzero" fill-opacity="1" /><path clip-path="url(#clip980)" d="M1815.23 248.027 L1815.23 263.675 L1810.97 263.675 L1810.97 248.166 Q1810.97 244.485 1809.54 242.657 Q1808.1 240.828 1805.23 240.828 Q1801.78 240.828 1799.79 243.027 Q1797.8 245.226 1797.8 249.022 L1797.8 263.675 L1793.52 263.675 L1793.52 237.749 L1797.8 237.749 L1797.8 241.777 Q1799.33 239.439 1801.39 238.282 Q1803.47 237.124 1806.18 237.124 Q1810.65 237.124 1812.94 239.902 Q1815.23 242.657 1815.23 248.027 Z" fill="#000000" fill-rule="nonzero" fill-opacity="1" /><path clip-path="url(#clip980)" d="M1845.9 249.647 L1845.9 251.731 L1826.32 251.731 Q1826.6 256.129 1828.96 258.444 Q1831.34 260.735 1835.58 260.735 Q1838.03 260.735 1840.32 260.133 Q1842.64 259.532 1844.91 258.328 L1844.91 262.356 Q1842.61 263.328 1840.21 263.837 Q1837.8 264.346 1835.32 264.346 Q1829.12 264.346 1825.48 260.735 Q1821.87 257.124 1821.87 250.967 Q1821.87 244.601 1825.3 240.874 Q1828.75 237.124 1834.58 237.124 Q1839.81 237.124 1842.85 240.504 Q1845.9 243.86 1845.9 249.647 M1841.64 248.397 Q1841.6 244.902 1839.67 242.819 Q1837.78 240.735 1834.63 240.735 Q1831.06 240.735 1828.91 242.749 Q1826.78 244.763 1826.46 248.42 L1841.64 248.397 Z" fill="#000000" fill-rule="nonzero" fill-opacity="1" /><path clip-path="url(#clip980)" d="M1869.95 241.684 L1869.95 227.657 L1874.21 227.657 L1874.21 263.675 L1869.95 263.675 L1869.95 259.786 Q1868.61 262.101 1866.55 263.235 Q1864.51 264.346 1861.64 264.346 Q1856.94 264.346 1853.98 260.596 Q1851.04 256.846 1851.04 250.735 Q1851.04 244.624 1853.98 240.874 Q1856.94 237.124 1861.64 237.124 Q1864.51 237.124 1866.55 238.258 Q1868.61 239.37 1869.95 241.684 M1855.44 250.735 Q1855.44 255.434 1857.36 258.12 Q1859.3 260.782 1862.68 260.782 Q1866.06 260.782 1868.01 258.12 Q1869.95 255.434 1869.95 250.735 Q1869.95 246.036 1868.01 243.374 Q1866.06 240.689 1862.68 240.689 Q1859.3 240.689 1857.36 243.374 Q1855.44 246.036 1855.44 250.735 Z" fill="#000000" fill-rule="nonzero" fill-opacity="1" /></svg>
