<?xml version="1.0" encoding="utf-8"?>
<svg xmlns="http://www.w3.org/2000/svg" xmlns:xlink="http://www.w3.org/1999/xlink" width="500" height="320" viewBox="0 0 2000 1280">
<defs>
  <clipPath id="clip050">
    <rect x="0" y="0" width="2000" height="1280"/>
  </clipPath>
</defs>
<path clip-path="url(#clip050)" d="M0 1280 L2000 1280 L2000 0 L0 0  Z" fill="#ffffff" fill-rule="evenodd" fill-opacity="1"/>
<defs>
  <clipPath id="clip051">
    <rect x="400" y="0" width="1401" height="1280"/>
  </clipPath>
</defs>
<path clip-path="url(#clip050)" d="M245.244 1111.02 L1952.76 1111.02 L1952.76 107.256 L245.244 107.256  Z" fill="#ffffff" fill-rule="evenodd" fill-opacity="1"/>
<defs>
  <clipPath id="clip052">
    <rect x="245" y="107" width="1709" height="1005"/>
  </clipPath>
</defs>
<polyline clip-path="url(#clip052)" style="stroke:#000000; stroke-linecap:round; stroke-linejoin:round; stroke-width:2; stroke-opacity:0.1; fill:none" points="293.57,1111.02 293.57,107.256 "/>
<polyline clip-path="url(#clip052)" style="stroke:#000000; stroke-linecap:round; stroke-linejoin:round; stroke-width:2; stroke-opacity:0.1; fill:none" points="600.986,1111.02 600.986,107.256 "/>
<polyline clip-path="url(#clip052)" style="stroke:#000000; stroke-linecap:round; stroke-linejoin:round; stroke-width:2; stroke-opacity:0.1; fill:none" points="908.402,1111.02 908.402,107.256 "/>
<polyline clip-path="url(#clip052)" style="stroke:#000000; stroke-linecap:round; stroke-linejoin:round; stroke-width:2; stroke-opacity:0.1; fill:none" points="1215.82,1111.02 1215.82,107.256 "/>
<polyline clip-path="url(#clip052)" style="stroke:#000000; stroke-linecap:round; stroke-linejoin:round; stroke-width:2; stroke-opacity:0.1; fill:none" points="1523.23,1111.02 1523.23,107.256 "/>
<polyline clip-path="url(#clip052)" style="stroke:#000000; stroke-linecap:round; stroke-linejoin:round; stroke-width:2; stroke-opacity:0.1; fill:none" points="1830.65,1111.02 1830.65,107.256 "/>
<polyline clip-path="url(#clip052)" style="stroke:#000000; stroke-linecap:round; stroke-linejoin:round; stroke-width:2; stroke-opacity:0.1; fill:none" points="245.244,1080.15 1952.76,1080.15 "/>
<polyline clip-path="url(#clip052)" style="stroke:#000000; stroke-linecap:round; stroke-linejoin:round; stroke-width:2; stroke-opacity:0.1; fill:none" points="245.244,571.448 1952.76,571.448 "/>
<polyline clip-path="url(#clip050)" style="stroke:#000000; stroke-linecap:round; stroke-linejoin:round; stroke-width:4; stroke-opacity:1; fill:none" points="245.244,1111.02 1952.76,1111.02 "/>
<polyline clip-path="url(#clip050)" style="stroke:#000000; stroke-linecap:round; stroke-linejoin:round; stroke-width:4; stroke-opacity:1; fill:none" points="293.57,1111.02 293.57,1092.12 "/>
<polyline clip-path="url(#clip050)" style="stroke:#000000; stroke-linecap:round; stroke-linejoin:round; stroke-width:4; stroke-opacity:1; fill:none" points="600.986,1111.02 600.986,1092.12 "/>
<polyline clip-path="url(#clip050)" style="stroke:#000000; stroke-linecap:round; stroke-linejoin:round; stroke-width:4; stroke-opacity:1; fill:none" points="908.402,1111.02 908.402,1092.12 "/>
<polyline clip-path="url(#clip050)" style="stroke:#000000; stroke-linecap:round; stroke-linejoin:round; stroke-width:4; stroke-opacity:1; fill:none" points="1215.82,1111.02 1215.82,1092.12 "/>
<polyline clip-path="url(#clip050)" style="stroke:#000000; stroke-linecap:round; stroke-linejoin:round; stroke-width:4; stroke-opacity:1; fill:none" points="1523.23,1111.02 1523.23,1092.12 "/>
<polyline clip-path="url(#clip050)" style="stroke:#000000; stroke-linecap:round; stroke-linejoin:round; stroke-width:4; stroke-opacity:1; fill:none" points="1830.65,1111.02 1830.65,1092.12 "/>
<path clip-path="url(#clip050)" d="M293.57 1138.74 Q289.959 1138.74 288.13 1142.3 Q286.325 1145.84 286.325 1152.97 Q286.325 1160.08 288.13 1163.64 Q289.959 1167.19 293.57 1167.19 Q297.204 1167.19 299.01 1163.64 Q300.839 1160.08 300.839 1152.97 Q300.839 1145.84 299.01 1142.3 Q297.204 1138.74 293.57 1138.74 M293.57 1135.03 Q299.38 1135.03 302.436 1139.64 Q305.515 1144.22 305.515 1152.97 Q305.515 1161.7 302.436 1166.31 Q299.38 1170.89 293.57 1170.89 Q287.76 1170.89 284.681 1166.31 Q281.626 1161.7 281.626 1152.97 Q281.626 1144.22 284.681 1139.64 Q287.76 1135.03 293.57 1135.03 Z" fill="#000000" fill-rule="nonzero" fill-opacity="1" /><path clip-path="url(#clip050)" d="M575.685 1135.66 L594.042 1135.66 L594.042 1139.59 L579.968 1139.59 L579.968 1148.07 Q580.986 1147.72 582.005 1147.56 Q583.023 1147.37 584.042 1147.37 Q589.829 1147.37 593.208 1150.54 Q596.588 1153.71 596.588 1159.13 Q596.588 1164.71 593.116 1167.81 Q589.644 1170.89 583.324 1170.89 Q581.148 1170.89 578.88 1170.52 Q576.634 1170.15 574.227 1169.41 L574.227 1164.71 Q576.31 1165.84 578.533 1166.4 Q580.755 1166.95 583.232 1166.95 Q587.236 1166.95 589.574 1164.85 Q591.912 1162.74 591.912 1159.13 Q591.912 1155.52 589.574 1153.41 Q587.236 1151.31 583.232 1151.31 Q581.357 1151.31 579.482 1151.72 Q577.63 1152.14 575.685 1153.02 L575.685 1135.66 Z" fill="#000000" fill-rule="nonzero" fill-opacity="1" /><path clip-path="url(#clip050)" d="M615.801 1138.74 Q612.19 1138.74 610.361 1142.3 Q608.556 1145.84 608.556 1152.97 Q608.556 1160.08 610.361 1163.64 Q612.19 1167.19 615.801 1167.19 Q619.435 1167.19 621.241 1163.64 Q623.069 1160.08 623.069 1152.97 Q623.069 1145.84 621.241 1142.3 Q619.435 1138.74 615.801 1138.74 M615.801 1135.03 Q621.611 1135.03 624.667 1139.64 Q627.745 1144.22 627.745 1152.97 Q627.745 1161.7 624.667 1166.31 Q621.611 1170.89 615.801 1170.89 Q609.991 1170.89 606.912 1166.31 Q603.857 1161.7 603.857 1152.97 Q603.857 1144.22 606.912 1139.64 Q609.991 1135.03 615.801 1135.03 Z" fill="#000000" fill-rule="nonzero" fill-opacity="1" /><path clip-path="url(#clip050)" d="M868.009 1166.28 L875.648 1166.28 L875.648 1139.92 L867.338 1141.58 L867.338 1137.33 L875.601 1135.66 L880.277 1135.66 L880.277 1166.28 L887.916 1166.28 L887.916 1170.22 L868.009 1170.22 L868.009 1166.28 Z" fill="#000000" fill-rule="nonzero" fill-opacity="1" /><path clip-path="url(#clip050)" d="M907.361 1138.74 Q903.749 1138.74 901.921 1142.3 Q900.115 1145.84 900.115 1152.97 Q900.115 1160.08 901.921 1163.64 Q903.749 1167.19 907.361 1167.19 Q910.995 1167.19 912.8 1163.64 Q914.629 1160.08 914.629 1152.97 Q914.629 1145.84 912.8 1142.3 Q910.995 1138.74 907.361 1138.74 M907.361 1135.03 Q913.171 1135.03 916.226 1139.64 Q919.305 1144.22 919.305 1152.97 Q919.305 1161.7 916.226 1166.31 Q913.171 1170.89 907.361 1170.89 Q901.55 1170.89 898.472 1166.31 Q895.416 1161.7 895.416 1152.97 Q895.416 1144.22 898.472 1139.64 Q901.55 1135.03 907.361 1135.03 Z" fill="#000000" fill-rule="nonzero" fill-opacity="1" /><path clip-path="url(#clip050)" d="M937.522 1138.74 Q933.911 1138.74 932.083 1142.3 Q930.277 1145.84 930.277 1152.97 Q930.277 1160.08 932.083 1163.64 Q933.911 1167.19 937.522 1167.19 Q941.157 1167.19 942.962 1163.64 Q944.791 1160.08 944.791 1152.97 Q944.791 1145.84 942.962 1142.3 Q941.157 1138.74 937.522 1138.74 M937.522 1135.03 Q943.333 1135.03 946.388 1139.64 Q949.467 1144.22 949.467 1152.97 Q949.467 1161.7 946.388 1166.31 Q943.333 1170.89 937.522 1170.89 Q931.712 1170.89 928.634 1166.31 Q925.578 1161.7 925.578 1152.97 Q925.578 1144.22 928.634 1139.64 Q931.712 1135.03 937.522 1135.03 Z" fill="#000000" fill-rule="nonzero" fill-opacity="1" /><path clip-path="url(#clip050)" d="M1175.42 1166.28 L1183.06 1166.28 L1183.06 1139.92 L1174.75 1141.58 L1174.75 1137.33 L1183.02 1135.66 L1187.69 1135.66 L1187.69 1166.28 L1195.33 1166.28 L1195.33 1170.22 L1175.42 1170.22 L1175.42 1166.28 Z" fill="#000000" fill-rule="nonzero" fill-opacity="1" /><path clip-path="url(#clip050)" d="M1204.82 1135.66 L1223.18 1135.66 L1223.18 1139.59 L1209.11 1139.59 L1209.11 1148.07 Q1210.12 1147.72 1211.14 1147.56 Q1212.16 1147.37 1213.18 1147.37 Q1218.97 1147.37 1222.35 1150.54 Q1225.73 1153.71 1225.73 1159.13 Q1225.73 1164.71 1222.25 1167.81 Q1218.78 1170.89 1212.46 1170.89 Q1210.29 1170.89 1208.02 1170.52 Q1205.77 1170.15 1203.36 1169.41 L1203.36 1164.71 Q1205.45 1165.84 1207.67 1166.4 Q1209.89 1166.95 1212.37 1166.95 Q1216.37 1166.95 1218.71 1164.85 Q1221.05 1162.74 1221.05 1159.13 Q1221.05 1155.52 1218.71 1153.41 Q1216.37 1151.31 1212.37 1151.31 Q1210.49 1151.31 1208.62 1151.72 Q1206.77 1152.14 1204.82 1153.02 L1204.82 1135.66 Z" fill="#000000" fill-rule="nonzero" fill-opacity="1" /><path clip-path="url(#clip050)" d="M1244.94 1138.74 Q1241.33 1138.74 1239.5 1142.3 Q1237.69 1145.84 1237.69 1152.97 Q1237.69 1160.08 1239.5 1163.64 Q1241.33 1167.19 1244.94 1167.19 Q1248.57 1167.19 1250.38 1163.64 Q1252.21 1160.08 1252.21 1152.97 Q1252.21 1145.84 1250.38 1142.3 Q1248.57 1138.74 1244.94 1138.74 M1244.94 1135.03 Q1250.75 1135.03 1253.8 1139.64 Q1256.88 1144.22 1256.88 1152.97 Q1256.88 1161.7 1253.8 1166.31 Q1250.75 1170.89 1244.94 1170.89 Q1239.13 1170.89 1236.05 1166.31 Q1232.99 1161.7 1232.99 1152.97 Q1232.99 1144.22 1236.05 1139.64 Q1239.13 1135.03 1244.94 1135.03 Z" fill="#000000" fill-rule="nonzero" fill-opacity="1" /><path clip-path="url(#clip050)" d="M1486.93 1166.28 L1503.25 1166.28 L1503.25 1170.22 L1481.3 1170.22 L1481.3 1166.28 Q1483.96 1163.53 1488.55 1158.9 Q1493.15 1154.25 1494.33 1152.9 Q1496.58 1150.38 1497.46 1148.64 Q1498.36 1146.89 1498.36 1145.2 Q1498.36 1142.44 1496.42 1140.7 Q1494.5 1138.97 1491.39 1138.97 Q1489.2 1138.97 1486.74 1139.73 Q1484.31 1140.5 1481.53 1142.05 L1481.53 1137.33 Q1484.36 1136.19 1486.81 1135.61 Q1489.26 1135.03 1491.3 1135.03 Q1496.67 1135.03 1499.87 1137.72 Q1503.06 1140.4 1503.06 1144.89 Q1503.06 1147.02 1502.25 1148.95 Q1501.46 1150.84 1499.36 1153.44 Q1498.78 1154.11 1495.68 1157.33 Q1492.57 1160.52 1486.93 1166.28 Z" fill="#000000" fill-rule="nonzero" fill-opacity="1" /><path clip-path="url(#clip050)" d="M1523.06 1138.74 Q1519.45 1138.74 1517.62 1142.3 Q1515.82 1145.84 1515.82 1152.97 Q1515.82 1160.08 1517.62 1163.64 Q1519.45 1167.19 1523.06 1167.19 Q1526.69 1167.19 1528.5 1163.64 Q1530.33 1160.08 1530.33 1152.97 Q1530.33 1145.84 1528.5 1142.3 Q1526.69 1138.74 1523.06 1138.74 M1523.06 1135.03 Q1528.87 1135.03 1531.93 1139.64 Q1535.01 1144.22 1535.01 1152.97 Q1535.01 1161.7 1531.93 1166.31 Q1528.87 1170.89 1523.06 1170.89 Q1517.25 1170.89 1514.17 1166.31 Q1511.12 1161.7 1511.12 1152.97 Q1511.12 1144.22 1514.17 1139.64 Q1517.25 1135.03 1523.06 1135.03 Z" fill="#000000" fill-rule="nonzero" fill-opacity="1" /><path clip-path="url(#clip050)" d="M1553.22 1138.74 Q1549.61 1138.74 1547.78 1142.3 Q1545.98 1145.84 1545.98 1152.97 Q1545.98 1160.08 1547.78 1163.64 Q1549.61 1167.19 1553.22 1167.19 Q1556.86 1167.19 1558.66 1163.64 Q1560.49 1160.08 1560.49 1152.97 Q1560.49 1145.84 1558.66 1142.3 Q1556.86 1138.74 1553.22 1138.74 M1553.22 1135.03 Q1559.03 1135.03 1562.09 1139.64 Q1565.17 1144.22 1565.17 1152.97 Q1565.17 1161.7 1562.09 1166.31 Q1559.03 1170.89 1553.22 1170.89 Q1547.41 1170.89 1544.33 1166.31 Q1541.28 1161.7 1541.28 1152.97 Q1541.28 1144.22 1544.33 1139.64 Q1547.41 1135.03 1553.22 1135.03 Z" fill="#000000" fill-rule="nonzero" fill-opacity="1" /><path clip-path="url(#clip050)" d="M1794.34 1166.28 L1810.66 1166.28 L1810.66 1170.22 L1788.72 1170.22 L1788.72 1166.28 Q1791.38 1163.53 1795.96 1158.9 Q1800.57 1154.25 1801.75 1152.9 Q1804 1150.38 1804.87 1148.64 Q1805.78 1146.89 1805.78 1145.2 Q1805.78 1142.44 1803.83 1140.7 Q1801.91 1138.97 1798.81 1138.97 Q1796.61 1138.97 1794.16 1139.73 Q1791.73 1140.5 1788.95 1142.05 L1788.95 1137.33 Q1791.77 1136.19 1794.23 1135.61 Q1796.68 1135.03 1798.72 1135.03 Q1804.09 1135.03 1807.28 1137.72 Q1810.48 1140.4 1810.48 1144.89 Q1810.48 1147.02 1809.67 1148.95 Q1808.88 1150.84 1806.77 1153.44 Q1806.19 1154.11 1803.09 1157.33 Q1799.99 1160.52 1794.34 1166.28 Z" fill="#000000" fill-rule="nonzero" fill-opacity="1" /><path clip-path="url(#clip050)" d="M1820.52 1135.66 L1838.88 1135.66 L1838.88 1139.59 L1824.81 1139.59 L1824.81 1148.07 Q1825.82 1147.72 1826.84 1147.56 Q1827.86 1147.37 1828.88 1147.37 Q1834.67 1147.37 1838.05 1150.54 Q1841.43 1153.71 1841.43 1159.13 Q1841.43 1164.71 1837.95 1167.81 Q1834.48 1170.89 1828.16 1170.89 Q1825.99 1170.89 1823.72 1170.52 Q1821.47 1170.15 1819.06 1169.41 L1819.06 1164.71 Q1821.15 1165.84 1823.37 1166.4 Q1825.59 1166.95 1828.07 1166.95 Q1832.07 1166.95 1834.41 1164.85 Q1836.75 1162.74 1836.75 1159.13 Q1836.75 1155.52 1834.41 1153.41 Q1832.07 1151.31 1828.07 1151.31 Q1826.19 1151.31 1824.32 1151.72 Q1822.47 1152.14 1820.52 1153.02 L1820.52 1135.66 Z" fill="#000000" fill-rule="nonzero" fill-opacity="1" /><path clip-path="url(#clip050)" d="M1860.64 1138.74 Q1857.03 1138.74 1855.2 1142.3 Q1853.39 1145.84 1853.39 1152.97 Q1853.39 1160.08 1855.2 1163.64 Q1857.03 1167.19 1860.64 1167.19 Q1864.27 1167.19 1866.08 1163.64 Q1867.91 1160.08 1867.91 1152.97 Q1867.91 1145.84 1866.08 1142.3 Q1864.27 1138.74 1860.64 1138.74 M1860.64 1135.03 Q1866.45 1135.03 1869.5 1139.64 Q1872.58 1144.22 1872.58 1152.97 Q1872.58 1161.7 1869.5 1166.31 Q1866.45 1170.89 1860.64 1170.89 Q1854.83 1170.89 1851.75 1166.31 Q1848.69 1161.7 1848.69 1152.97 Q1848.69 1144.22 1851.75 1139.64 Q1854.83 1135.03 1860.64 1135.03 Z" fill="#000000" fill-rule="nonzero" fill-opacity="1" /><g clip-path="url(#clip050)">
<text style="fill:#000000; fill-opacity:1; font-family:Arial,Helvetica Neue,Helvetica,sans-serif; font-size:66px; text-anchor:middle;" transform="rotate(0, 1099, 1252.42)" x="1099" y="1252.42">Krylov dimension</text>
</g>
<polyline clip-path="url(#clip050)" style="stroke:#000000; stroke-linecap:round; stroke-linejoin:round; stroke-width:4; stroke-opacity:1; fill:none" points="245.244,1111.02 245.244,107.256 "/>
<polyline clip-path="url(#clip050)" style="stroke:#000000; stroke-linecap:round; stroke-linejoin:round; stroke-width:4; stroke-opacity:1; fill:none" points="245.244,1080.15 264.142,1080.15 "/>
<polyline clip-path="url(#clip050)" style="stroke:#000000; stroke-linecap:round; stroke-linejoin:round; stroke-width:4; stroke-opacity:1; fill:none" points="245.244,571.448 264.142,571.448 "/>
<path clip-path="url(#clip050)" d="M113.675 1099.94 L121.314 1099.94 L121.314 1073.58 L113.004 1075.24 L113.004 1070.98 L121.268 1069.32 L125.944 1069.32 L125.944 1099.94 L133.583 1099.94 L133.583 1103.88 L113.675 1103.88 L113.675 1099.94 Z" fill="#000000" fill-rule="nonzero" fill-opacity="1" /><path clip-path="url(#clip050)" d="M153.027 1072.4 Q149.416 1072.4 147.587 1075.96 Q145.782 1079.5 145.782 1086.63 Q145.782 1093.74 147.587 1097.3 Q149.416 1100.84 153.027 1100.84 Q156.661 1100.84 158.467 1097.3 Q160.295 1093.74 160.295 1086.63 Q160.295 1079.5 158.467 1075.96 Q156.661 1072.4 153.027 1072.4 M153.027 1068.69 Q158.837 1068.69 161.893 1073.3 Q164.971 1077.88 164.971 1086.63 Q164.971 1095.36 161.893 1099.97 Q158.837 1104.55 153.027 1104.55 Q147.217 1104.55 144.138 1099.97 Q141.082 1095.36 141.082 1086.63 Q141.082 1077.88 144.138 1073.3 Q147.217 1068.69 153.027 1068.69 Z" fill="#000000" fill-rule="nonzero" fill-opacity="1" /><path clip-path="url(#clip050)" d="M164.971 1062.79 L189.083 1062.79 L189.083 1065.99 L164.971 1065.99 L164.971 1062.79 Z" fill="#000000" fill-rule="nonzero" fill-opacity="1" /><path clip-path="url(#clip050)" d="M205.878 1060.91 Q203.32 1060.91 201.816 1062.66 Q200.33 1064.41 200.33 1067.46 Q200.33 1070.49 201.816 1072.25 Q203.32 1074 205.878 1074 Q208.436 1074 209.922 1072.25 Q211.426 1070.49 211.426 1067.46 Q211.426 1064.41 209.922 1062.66 Q208.436 1060.91 205.878 1060.91 M213.42 1049.01 L213.42 1052.47 Q211.991 1051.79 210.524 1051.43 Q209.075 1051.08 207.646 1051.08 Q203.885 1051.08 201.891 1053.62 Q199.916 1056.15 199.634 1061.29 Q200.744 1059.65 202.417 1058.79 Q204.091 1057.9 206.104 1057.9 Q210.336 1057.9 212.781 1060.48 Q215.244 1063.04 215.244 1067.46 Q215.244 1071.78 212.687 1074.4 Q210.129 1077.01 205.878 1077.01 Q201.007 1077.01 198.43 1073.29 Q195.854 1069.55 195.854 1062.46 Q195.854 1055.8 199.013 1051.85 Q202.173 1047.88 207.496 1047.88 Q208.925 1047.88 210.373 1048.16 Q211.84 1048.44 213.42 1049.01 Z" fill="#000000" fill-rule="nonzero" fill-opacity="1" /><path clip-path="url(#clip050)" d="M114.333 591.24 L121.972 591.24 L121.972 564.875 L113.662 566.541 L113.662 562.282 L121.926 560.615 L126.602 560.615 L126.602 591.24 L134.241 591.24 L134.241 595.175 L114.333 595.175 L114.333 591.24 Z" fill="#000000" fill-rule="nonzero" fill-opacity="1" /><path clip-path="url(#clip050)" d="M153.685 563.694 Q150.074 563.694 148.245 567.259 Q146.44 570.8 146.44 577.93 Q146.44 585.036 148.245 588.601 Q150.074 592.143 153.685 592.143 Q157.319 592.143 159.125 588.601 Q160.954 585.036 160.954 577.93 Q160.954 570.8 159.125 567.259 Q157.319 563.694 153.685 563.694 M153.685 559.99 Q159.495 559.99 162.551 564.597 Q165.629 569.18 165.629 577.93 Q165.629 586.657 162.551 591.263 Q159.495 595.847 153.685 595.847 Q147.875 595.847 144.796 591.263 Q141.741 586.657 141.741 577.93 Q141.741 569.18 144.796 564.597 Q147.875 559.99 153.685 559.99 Z" fill="#000000" fill-rule="nonzero" fill-opacity="1" /><path clip-path="url(#clip050)" d="M165.629 554.092 L189.741 554.092 L189.741 557.289 L165.629 557.289 L165.629 554.092 Z" fill="#000000" fill-rule="nonzero" fill-opacity="1" /><path clip-path="url(#clip050)" d="M209.452 552.625 Q212.179 553.208 213.702 555.051 Q215.244 556.894 215.244 559.602 Q215.244 563.759 212.386 566.035 Q209.527 568.31 204.261 568.31 Q202.493 568.31 200.612 567.953 Q198.75 567.614 196.756 566.919 L196.756 563.251 Q198.336 564.173 200.217 564.643 Q202.098 565.113 204.148 565.113 Q207.721 565.113 209.583 563.702 Q211.464 562.292 211.464 559.602 Q211.464 557.12 209.715 555.728 Q207.985 554.317 204.881 554.317 L201.609 554.317 L201.609 551.195 L205.032 551.195 Q207.834 551.195 209.32 550.086 Q210.806 548.957 210.806 546.851 Q210.806 544.688 209.264 543.541 Q207.74 542.374 204.881 542.374 Q203.32 542.374 201.534 542.713 Q199.747 543.052 197.603 543.766 L197.603 540.381 Q199.766 539.779 201.646 539.478 Q203.546 539.177 205.22 539.177 Q209.546 539.177 212.066 541.152 Q214.586 543.108 214.586 546.456 Q214.586 548.788 213.251 550.405 Q211.915 552.004 209.452 552.625 Z" fill="#000000" fill-rule="nonzero" fill-opacity="1" /><g clip-path="url(#clip050)">
<text style="fill:#000000; fill-opacity:1; font-family:Arial,Helvetica Neue,Helvetica,sans-serif; font-size:66px; text-anchor:middle;" transform="rotate(-90, 71.4418, 609.137)" x="71.4418" y="609.137">relative residual norm</text>
</g>
<g clip-path="url(#clip050)">
<text style="fill:#000000; fill-opacity:1; font-family:Arial,Helvetica Neue,Helvetica,sans-serif; font-size:66px; text-anchor:middle;" transform="rotate(0, 1099, 57.6)" x="1099" y="57.6">Convergence of MINRES and CG</text>
</g>
<polyline clip-path="url(#clip052)" style="stroke:#009af9; stroke-linecap:round; stroke-linejoin:round; stroke-width:8; stroke-opacity:1; fill:none" points="293.57,140.425 299.719,187.406 305.867,220.715 312.015,247.306 318.163,269.228 324.312,288.838 330.46,305.315 336.608,319.546 342.757,333.001 348.905,344.527 355.053,355.699 361.202,365.538 367.35,374.752 373.498,383.778 379.647,392.499 385.795,399.943 391.943,407.195 398.092,414.31 404.24,420.997 410.388,427.362 416.537,433.303 422.685,439.279 428.833,445.045 434.982,450.367 441.13,455.535 447.278,460.728 453.427,465.436 459.575,470.273 465.723,474.822 471.871,479.262 478.02,483.498 484.168,487.662 490.316,491.678 496.465,495.751 502.613,499.617 508.761,503.757 514.91,507.585 521.058,511.264 527.206,514.949 533.355,518.478 539.503,521.811 545.651,525.352 551.8,528.722 557.948,532.073 564.096,535.471 570.245,538.789 576.393,542.05 582.541,545.23 588.69,548.417 594.838,551.531 600.986,554.824 607.135,557.997 613.283,561.142 619.431,564.192 625.579,567.236 631.728,570.333 637.876,573.371 644.024,576.374 650.173,579.435 656.321,582.466 662.469,585.451 668.618,588.511 674.766,591.379 680.914,594.3 687.063,597.196 693.211,600.125 699.359,603.176 705.508,606.055 711.656,608.871 717.804,611.755 723.953,614.653 730.101,617.602 736.249,620.386 742.398,623.246 748.546,626.149 754.694,629.042 760.843,632.05 766.991,635.003 773.139,637.932 779.287,640.979 785.436,643.726 791.584,646.664 797.732,649.677 803.881,652.592 810.029,655.457 816.177,658.293 822.326,661.064 828.474,663.943 834.622,666.863 840.771,669.678 846.919,672.497 853.067,675.355 859.216,678.033 865.364,680.942 871.512,683.763 877.661,686.676 883.809,689.532 889.957,692.425 896.106,695.428 902.254,698.218 908.402,701.126 914.551,703.894 920.699,706.778 926.847,709.528 932.996,712.272 939.144,715.223 945.292,718.225 951.44,721.1 957.589,723.916 963.737,726.741 969.885,729.606 976.034,732.464 982.182,735.311 988.33,738.182 994.479,741.055 1000.63,743.837 1006.78,746.592 1012.92,749.564 1019.07,752.46 1025.22,755.375 1031.37,758.161 1037.52,761.04 1043.67,763.953 1049.81,766.815 1055.96,769.605 1062.11,772.5 1068.26,775.391 1074.41,778.315 1080.56,781.082 1086.7,783.956 1092.85,786.934 1099,789.736 1105.15,792.602 1111.3,795.51 1117.45,798.409 1123.59,801.281 1129.74,804.233 1135.89,807.254 1142.04,810.059 1148.19,812.962 1154.34,815.791 1160.48,818.809 1166.63,821.795 1172.78,824.778 1178.93,827.699 1185.08,830.695 1191.22,833.775 1197.37,836.653 1203.52,839.609 1209.67,842.633 1215.82,845.65 1221.97,848.625 1228.11,851.736 1234.26,854.602 1240.41,857.496 1246.56,860.557 1252.71,863.691 1258.86,866.615 1265,869.625 1271.15,872.652 1277.3,875.523 1283.45,878.371 1289.6,881.218 1295.75,884.326 1301.89,887.362 1308.04,890.354 1314.19,893.349 1320.34,896.44 1326.49,899.246 1332.64,902.326 1338.78,905.312 1344.93,908.365 1351.08,911.44 1357.23,914.408 1363.38,917.469 1369.53,920.351 1375.67,923.363 1381.82,926.342 1387.97,929.238 1394.12,932.109 1400.27,934.989 1406.42,937.93 1412.56,940.878 1418.71,943.802 1424.86,946.733 1431.01,949.726 1437.16,952.603 1443.31,955.7 1449.45,958.552 1455.6,961.612 1461.75,964.614 1467.9,967.596 1474.05,970.518 1480.2,973.465 1486.34,976.336 1492.49,979.279 1498.64,982.252 1504.79,985.195 1510.94,988.079 1517.09,991.031 1523.23,994.058 1529.38,996.972 1535.53,999.935 1541.68,1003.02 1547.83,1005.89 1553.98,1008.91 1560.12,1011.88 1566.27,1014.82 1572.42,1017.76 1578.57,1020.67 1584.72,1023.48 1590.87,1026.49 1597.01,1029.55 1603.16,1032.49 1609.31,1035.42 1615.46,1038.39 1621.61,1041.42 1627.76,1044.37 1633.9,1047.4 1640.05,1050.47 1646.2,1053.46 1652.35,1056.48 1658.5,1059.35 1664.65,1062.29 1670.79,1065.14 1676.94,1068.07 1683.09,1071.01 1689.24,1073.84 1695.39,1076.82 1701.54,1079.63 1707.68,1082.61 "/>
<polyline clip-path="url(#clip052)" style="stroke:#e26f46; stroke-linecap:round; stroke-linejoin:round; stroke-width:8; stroke-opacity:1; fill:none" points="293.57,135.664 299.719,175.353 305.867,201.616 312.015,222.823 318.163,239.713 324.312,256.27 330.46,267.774 336.608,277.657 342.757,289.41 348.905,296.148 355.053,306.338 361.202,312.135 367.35,319.232 373.498,327.588 379.647,335.187 385.795,337.421 391.943,343.8 398.092,350.284 404.24,354.892 410.388,359.596 416.537,363.202 422.685,369.381 428.833,373.929 434.982,376.52 441.13,380.681 447.278,386.032 453.427,387.374 459.575,393.143 465.723,395.573 471.871,399.172 478.02,401.773 484.168,405.35 490.316,408.097 496.465,412.663 502.613,414.716 508.761,421.238 514.91,422.329 521.058,424.633 527.206,428.368 533.355,430.376 539.503,431.71 545.651,437.374 551.8,438.997 557.948,442.161 564.096,446.048 570.245,448.519 576.393,451.171 582.541,453.471 588.69,456.735 594.838,459.039 600.986,464.286 607.135,466.156 613.283,469.002 619.431,470.948 625.579,473.937 631.728,477.646 637.876,479.989 644.024,482.597 650.173,486.333 656.321,489.012 662.469,491.453 668.618,495.396 674.766,495.965 680.914,499.548 687.063,502.127 693.211,505.457 699.359,509.95 705.508,510.793 711.656,512.808 717.804,516.549 723.953,519.614 730.101,523.176 736.249,523.917 742.398,527.746 748.546,531.162 754.694,533.942 760.843,538.326 766.991,540.636 773.139,543.257 779.287,547.718 785.436,546.786 791.584,552.105 797.732,556.014 803.881,557.758 810.029,560.019 816.177,562.485 822.326,564.428 828.474,568.679 834.622,572.087 840.771,573.609 846.919,576.476 853.067,579.818 859.216,580.207 865.364,586.03 871.512,587.762 877.661,591.83 883.809,593.967 889.957,597.319 896.106,601.646 902.254,601.836 908.402,606.21 914.551,607.226 920.699,611.571 926.847,612.623 932.996,615.298 939.144,620.829 945.292,624.424 951.44,625.785 957.589,627.851 963.737,630.807 969.885,634.157 976.034,636.93 982.182,639.638 988.33,642.813 994.479,645.705 1000.63,647.351 1006.78,649.762 1012.92,655.418 1019.07,657.391 1025.22,660.544 1031.37,661.72 1037.52,665.765 1043.67,669.098 1049.81,671.332 1055.96,673.222 1062.11,677.418 1068.26,680.264 1074.41,683.588 1080.56,684.414 1086.7,688.615 1092.85,692.854 1099,693.513 1105.15,697.161 1111.3,700.599 1117.45,703.376 1123.59,705.92 1129.74,709.841 1135.89,713.686 1142.04,713.869 1148.19,717.979 1154.34,719.895 1160.48,725.206 1166.63,727.806 1172.78,730.767 1178.93,732.937 1185.08,736.833 1191.22,740.884 1197.37,741.375 1203.52,745.26 1209.67,749.104 1215.82,752.034 1221.97,754.503 1228.11,759.212 1234.26,759.167 1240.41,762.397 1246.56,767.452 1252.71,771.423 1258.86,771.882 1265,775.926 1271.15,779.155 1277.3,780.15 1283.45,782.722 1289.6,785.541 1295.75,791.763 1301.89,793.965 1308.04,796.434 1314.19,799.477 1320.34,803.674 1326.49,803.072 1332.64,809.442 1338.78,811.324 1344.93,815.17 1351.08,818.491 1357.23,820.209 1363.38,824.36 1369.53,825.116 1375.67,829.688 1381.82,832.273 1387.97,834.185 1394.12,836.727 1400.27,839.736 1406.42,843.41 1412.56,846.434 1418.71,849.077 1424.86,852.1 1431.01,855.821 1437.16,857.313 1443.31,863.003 1449.45,862.949 1455.6,868.495 1461.75,870.806 1467.9,873.56 1474.05,875.765 1480.2,878.997 1486.34,880.918 1492.49,884.669 1498.64,887.917 1504.79,890.499 1510.94,892.61 1517.09,896.277 1523.23,899.698 1529.38,901.245 1535.53,904.238 1541.68,909.199 1547.83,909.127 1553.98,914.152 1560.12,917.571 1566.27,919.628 1572.42,923.85 1578.57,926.156 1584.72,928.482 1590.87,933.551 1597.01,936.985 1603.16,938.458 1609.31,940.958 1615.46,944.373 1621.61,947.949 1627.76,949.991 1633.9,953.978 1640.05,957.49 1646.2,959.475 1652.35,962.873 1658.5,964.057 1664.65,967.704 1670.79,969.462 1676.94,973.321 1683.09,976.391 1689.24,977.799 1695.39,982.552 1701.54,983.143 1707.68,988.306 1713.83,989.571 1719.98,994.092 1726.13,997.262 1732.28,998.698 1738.43,1004.13 1744.57,1006.94 1750.72,1009.55 1756.87,1013.19 1763.02,1016.72 1769.17,1018.48 1775.32,1022.75 1781.46,1022.58 1787.61,1028.46 1793.76,1030.84 1799.91,1032.54 1806.06,1035.53 1812.21,1037.92 1818.35,1043.37 1824.5,1045 1830.65,1046.56 1836.8,1049.93 1842.95,1050.99 1849.1,1055.91 1855.24,1058.28 1861.39,1062.94 1867.54,1063.1 1873.69,1067.69 1879.84,1069.91 1885.99,1075.31 1892.13,1078.36 1898.28,1079.68 1904.43,1081.8 "/>
<path clip-path="url(#clip050)" d="M1570 296.235 L1895.84 296.235 L1895.84 140.715 L1570 140.715  Z" fill="#ffffff" fill-rule="evenodd" fill-opacity="1"/>
<polyline clip-path="url(#clip050)" style="stroke:#000000; stroke-linecap:round; stroke-linejoin:round; stroke-width:4; stroke-opacity:1; fill:none" points="1570,296.235 1895.84,296.235 1895.84,140.715 1570,140.715 1570,296.235 "/>
<polyline clip-path="url(#clip050)" style="stroke:#009af9; stroke-linecap:round; stroke-linejoin:round; stroke-width:8; stroke-opacity:1; fill:none" points="1588.97,192.555 1702.8,192.555 "/>
<path clip-path="url(#clip050)" d="M1742.12 188.886 Q1743.72 186.015 1745.94 184.65 Q1748.16 183.284 1751.17 183.284 Q1755.22 183.284 1757.42 186.131 Q1759.62 188.955 1759.62 194.187 L1759.62 209.835 L1755.34 209.835 L1755.34 194.325 Q1755.34 190.599 1754.02 188.793 Q1752.7 186.988 1749.99 186.988 Q1746.68 186.988 1744.76 189.187 Q1742.84 191.386 1742.84 195.182 L1742.84 209.835 L1738.56 209.835 L1738.56 194.325 Q1738.56 190.575 1737.24 188.793 Q1735.92 186.988 1733.16 186.988 Q1729.9 186.988 1727.98 189.21 Q1726.06 191.409 1726.06 195.182 L1726.06 209.835 L1721.77 209.835 L1721.77 183.909 L1726.06 183.909 L1726.06 187.937 Q1727.52 185.552 1729.55 184.418 Q1731.59 183.284 1734.39 183.284 Q1737.21 183.284 1739.18 184.719 Q1741.17 186.154 1742.12 188.886 Z" fill="#000000" fill-rule="nonzero" fill-opacity="1" /><path clip-path="url(#clip050)" d="M1768.12 183.909 L1772.38 183.909 L1772.38 209.835 L1768.12 209.835 L1768.12 183.909 M1768.12 173.816 L1772.38 173.816 L1772.38 179.21 L1768.12 179.21 L1768.12 173.816 Z" fill="#000000" fill-rule="nonzero" fill-opacity="1" /><path clip-path="url(#clip050)" d="M1802.84 194.187 L1802.84 209.835 L1798.58 209.835 L1798.58 194.325 Q1798.58 190.645 1797.14 188.816 Q1795.71 186.988 1792.84 186.988 Q1789.39 186.988 1787.4 189.187 Q1785.41 191.386 1785.41 195.182 L1785.41 209.835 L1781.13 209.835 L1781.13 183.909 L1785.41 183.909 L1785.41 187.937 Q1786.94 185.599 1789 184.441 Q1791.08 183.284 1793.79 183.284 Q1798.26 183.284 1800.55 186.062 Q1802.84 188.816 1802.84 194.187 Z" fill="#000000" fill-rule="nonzero" fill-opacity="1" /><path clip-path="url(#clip050)" d="M1826.36 187.89 Q1825.64 187.474 1824.78 187.288 Q1823.95 187.08 1822.93 187.08 Q1819.32 187.08 1817.38 189.441 Q1815.45 191.779 1815.45 196.177 L1815.45 209.835 L1811.17 209.835 L1811.17 183.909 L1815.45 183.909 L1815.45 187.937 Q1816.8 185.576 1818.95 184.441 Q1821.1 183.284 1824.18 183.284 Q1824.62 183.284 1825.15 183.353 Q1825.69 183.4 1826.33 183.515 L1826.36 187.89 Z" fill="#000000" fill-rule="nonzero" fill-opacity="1" /><path clip-path="url(#clip050)" d="M1851.96 195.807 L1851.96 197.89 L1832.38 197.89 Q1832.65 202.288 1835.01 204.603 Q1837.4 206.895 1841.64 206.895 Q1844.09 206.895 1846.38 206.293 Q1848.7 205.691 1850.96 204.487 L1850.96 208.515 Q1848.67 209.487 1846.26 209.997 Q1843.86 210.506 1841.38 210.506 Q1835.18 210.506 1831.54 206.895 Q1827.93 203.284 1827.93 197.126 Q1827.93 190.761 1831.36 187.034 Q1834.81 183.284 1840.64 183.284 Q1845.87 183.284 1848.9 186.663 Q1851.96 190.02 1851.96 195.807 M1847.7 194.557 Q1847.65 191.062 1845.73 188.978 Q1843.83 186.895 1840.69 186.895 Q1837.12 186.895 1834.97 188.909 Q1832.84 190.923 1832.51 194.58 L1847.7 194.557 Z" fill="#000000" fill-rule="nonzero" fill-opacity="1" /><path clip-path="url(#clip050)" d="M1875.48 184.673 L1875.48 188.7 Q1873.67 187.775 1871.73 187.312 Q1869.78 186.849 1867.7 186.849 Q1864.53 186.849 1862.93 187.821 Q1861.36 188.793 1861.36 190.738 Q1861.36 192.219 1862.49 193.075 Q1863.63 193.909 1867.05 194.673 L1868.51 194.997 Q1873.05 195.969 1874.95 197.751 Q1876.87 199.511 1876.87 202.682 Q1876.87 206.293 1874 208.399 Q1871.15 210.506 1866.15 210.506 Q1864.07 210.506 1861.8 210.089 Q1859.55 209.696 1857.05 208.886 L1857.05 204.487 Q1859.41 205.714 1861.7 206.339 Q1864 206.941 1866.24 206.941 Q1869.25 206.941 1870.87 205.923 Q1872.49 204.881 1872.49 203.006 Q1872.49 201.27 1871.31 200.344 Q1870.15 199.418 1866.2 198.562 L1864.71 198.214 Q1860.76 197.381 1859 195.668 Q1857.24 193.932 1857.24 190.923 Q1857.24 187.265 1859.83 185.275 Q1862.42 183.284 1867.19 183.284 Q1869.55 183.284 1871.64 183.631 Q1873.72 183.978 1875.48 184.673 Z" fill="#000000" fill-rule="nonzero" fill-opacity="1" /><polyline clip-path="url(#clip050)" style="stroke:#e26f46; stroke-linecap:round; stroke-linejoin:round; stroke-width:8; stroke-opacity:1; fill:none" points="1588.97,244.395 1702.8,244.395 "/>
<path clip-path="url(#clip050)" d="M1742.28 236.744 L1742.28 240.726 Q1740.48 239.73 1738.65 239.244 Q1736.84 238.735 1734.99 238.735 Q1730.85 238.735 1728.56 241.374 Q1726.27 243.99 1726.27 248.735 Q1726.27 253.48 1728.56 256.119 Q1730.85 258.735 1734.99 258.735 Q1736.84 258.735 1738.65 258.249 Q1740.48 257.739 1742.28 256.744 L1742.28 260.679 Q1740.5 261.513 1738.58 261.929 Q1736.68 262.346 1734.53 262.346 Q1728.67 262.346 1725.22 258.665 Q1721.77 254.985 1721.77 248.735 Q1721.77 242.392 1725.25 238.758 Q1728.74 235.124 1734.81 235.124 Q1736.77 235.124 1738.65 235.541 Q1740.52 235.934 1742.28 236.744 Z" fill="#000000" fill-rule="nonzero" fill-opacity="1" /><path clip-path="url(#clip050)" d="M1766.75 248.411 Q1766.75 243.781 1764.83 241.235 Q1762.93 238.689 1759.48 238.689 Q1756.06 238.689 1754.14 241.235 Q1752.24 243.781 1752.24 248.411 Q1752.24 253.017 1754.14 255.564 Q1756.06 258.11 1759.48 258.11 Q1762.93 258.11 1764.83 255.564 Q1766.75 253.017 1766.75 248.411 M1771.01 258.457 Q1771.01 265.077 1768.07 268.295 Q1765.13 271.536 1759.07 271.536 Q1756.82 271.536 1754.83 271.188 Q1752.84 270.864 1750.96 270.17 L1750.96 266.026 Q1752.84 267.045 1754.67 267.531 Q1756.5 268.017 1758.39 268.017 Q1762.58 268.017 1764.67 265.818 Q1766.75 263.642 1766.75 259.221 L1766.75 257.114 Q1765.43 259.406 1763.37 260.54 Q1761.31 261.675 1758.44 261.675 Q1753.67 261.675 1750.76 258.04 Q1747.84 254.406 1747.84 248.411 Q1747.84 242.392 1750.76 238.758 Q1753.67 235.124 1758.44 235.124 Q1761.31 235.124 1763.37 236.258 Q1765.43 237.392 1766.75 239.684 L1766.75 235.749 L1771.01 235.749 L1771.01 258.457 Z" fill="#000000" fill-rule="nonzero" fill-opacity="1" /></svg>
