<?xml version="1.0" encoding="utf-8"?>
<svg xmlns="http://www.w3.org/2000/svg" xmlns:xlink="http://www.w3.org/1999/xlink" width="500" height="320" viewBox="0 0 2000 1280">
<defs>
  <clipPath id="clip540">
    <rect x="0" y="0" width="2000" height="1280"/>
  </clipPath>
</defs>
<path clip-path="url(#clip540)" d="M0 1280 L2000 1280 L2000 0 L0 0  Z" fill="#ffffff" fill-rule="evenodd" fill-opacity="1"/>
<defs>
  <clipPath id="clip541">
    <rect x="400" y="0" width="1401" height="1280"/>
  </clipPath>
</defs>
<path clip-path="url(#clip540)" d="M245.244 1111.02 L1952.76 1111.02 L1952.76 107.256 L245.244 107.256  Z" fill="#ffffff" fill-rule="evenodd" fill-opacity="1"/>
<defs>
  <clipPath id="clip542">
    <rect x="245" y="107" width="1709" height="1005"/>
  </clipPath>
</defs>
<polyline clip-path="url(#clip542)" style="stroke:#000000; stroke-linecap:round; stroke-linejoin:round; stroke-width:2; stroke-opacity:0.1; fill:none" points="293.57,1111.02 293.57,107.256 "/>
<polyline clip-path="url(#clip542)" style="stroke:#000000; stroke-linecap:round; stroke-linejoin:round; stroke-width:2; stroke-opacity:0.1; fill:none" points="600.986,1111.02 600.986,107.256 "/>
<polyline clip-path="url(#clip542)" style="stroke:#000000; stroke-linecap:round; stroke-linejoin:round; stroke-width:2; stroke-opacity:0.1; fill:none" points="908.402,1111.02 908.402,107.256 "/>
<polyline clip-path="url(#clip542)" style="stroke:#000000; stroke-linecap:round; stroke-linejoin:round; stroke-width:2; stroke-opacity:0.1; fill:none" points="1215.82,1111.02 1215.82,107.256 "/>
<polyline clip-path="url(#clip542)" style="stroke:#000000; stroke-linecap:round; stroke-linejoin:round; stroke-width:2; stroke-opacity:0.1; fill:none" points="1523.23,1111.02 1523.23,107.256 "/>
<polyline clip-path="url(#clip542)" style="stroke:#000000; stroke-linecap:round; stroke-linejoin:round; stroke-width:2; stroke-opacity:0.1; fill:none" points="1830.65,1111.02 1830.65,107.256 "/>
<polyline clip-path="url(#clip542)" style="stroke:#000000; stroke-linecap:round; stroke-linejoin:round; stroke-width:2; stroke-opacity:0.1; fill:none" points="245.244,1081.37 1952.76,1081.37 "/>
<polyline clip-path="url(#clip542)" style="stroke:#000000; stroke-linecap:round; stroke-linejoin:round; stroke-width:2; stroke-opacity:0.1; fill:none" points="245.244,573.463 1952.76,573.463 "/>
<polyline clip-path="url(#clip540)" style="stroke:#000000; stroke-linecap:round; stroke-linejoin:round; stroke-width:4; stroke-opacity:1; fill:none" points="245.244,1111.02 1952.76,1111.02 "/>
<polyline clip-path="url(#clip540)" style="stroke:#000000; stroke-linecap:round; stroke-linejoin:round; stroke-width:4; stroke-opacity:1; fill:none" points="293.57,1111.02 293.57,1092.12 "/>
<polyline clip-path="url(#clip540)" style="stroke:#000000; stroke-linecap:round; stroke-linejoin:round; stroke-width:4; stroke-opacity:1; fill:none" points="600.986,1111.02 600.986,1092.12 "/>
<polyline clip-path="url(#clip540)" style="stroke:#000000; stroke-linecap:round; stroke-linejoin:round; stroke-width:4; stroke-opacity:1; fill:none" points="908.402,1111.02 908.402,1092.12 "/>
<polyline clip-path="url(#clip540)" style="stroke:#000000; stroke-linecap:round; stroke-linejoin:round; stroke-width:4; stroke-opacity:1; fill:none" points="1215.82,1111.02 1215.82,1092.12 "/>
<polyline clip-path="url(#clip540)" style="stroke:#000000; stroke-linecap:round; stroke-linejoin:round; stroke-width:4; stroke-opacity:1; fill:none" points="1523.23,1111.02 1523.23,1092.12 "/>
<polyline clip-path="url(#clip540)" style="stroke:#000000; stroke-linecap:round; stroke-linejoin:round; stroke-width:4; stroke-opacity:1; fill:none" points="1830.65,1111.02 1830.65,1092.12 "/>
<path clip-path="url(#clip540)" d="M293.57 1138.74 Q289.959 1138.74 288.13 1142.3 Q286.325 1145.84 286.325 1152.97 Q286.325 1160.08 288.13 1163.64 Q289.959 1167.19 293.57 1167.19 Q297.204 1167.19 299.01 1163.64 Q300.839 1160.08 300.839 1152.97 Q300.839 1145.84 299.01 1142.3 Q297.204 1138.74 293.57 1138.74 M293.57 1135.03 Q299.38 1135.03 302.436 1139.64 Q305.515 1144.22 305.515 1152.97 Q305.515 1161.7 302.436 1166.31 Q299.38 1170.89 293.57 1170.89 Q287.76 1170.89 284.681 1166.31 Q281.626 1161.7 281.626 1152.97 Q281.626 1144.22 284.681 1139.64 Q287.76 1135.03 293.57 1135.03 Z" fill="#000000" fill-rule="nonzero" fill-opacity="1" /><path clip-path="url(#clip540)" d="M575.685 1135.66 L594.042 1135.66 L594.042 1139.59 L579.968 1139.59 L579.968 1148.07 Q580.986 1147.72 582.005 1147.56 Q583.023 1147.37 584.042 1147.37 Q589.829 1147.37 593.208 1150.54 Q596.588 1153.71 596.588 1159.13 Q596.588 1164.71 593.116 1167.81 Q589.644 1170.89 583.324 1170.89 Q581.148 1170.89 578.88 1170.52 Q576.634 1170.15 574.227 1169.41 L574.227 1164.71 Q576.31 1165.84 578.533 1166.4 Q580.755 1166.95 583.232 1166.95 Q587.236 1166.95 589.574 1164.85 Q591.912 1162.74 591.912 1159.13 Q591.912 1155.52 589.574 1153.41 Q587.236 1151.31 583.232 1151.31 Q581.357 1151.31 579.482 1151.72 Q577.63 1152.14 575.685 1153.02 L575.685 1135.66 Z" fill="#000000" fill-rule="nonzero" fill-opacity="1" /><path clip-path="url(#clip540)" d="M615.801 1138.74 Q612.19 1138.74 610.361 1142.3 Q608.556 1145.84 608.556 1152.97 Q608.556 1160.08 610.361 1163.64 Q612.19 1167.19 615.801 1167.19 Q619.435 1167.19 621.241 1163.64 Q623.069 1160.08 623.069 1152.97 Q623.069 1145.84 621.241 1142.3 Q619.435 1138.74 615.801 1138.74 M615.801 1135.03 Q621.611 1135.03 624.667 1139.64 Q627.745 1144.22 627.745 1152.97 Q627.745 1161.7 624.667 1166.31 Q621.611 1170.89 615.801 1170.89 Q609.991 1170.89 606.912 1166.31 Q603.857 1161.7 603.857 1152.97 Q603.857 1144.22 606.912 1139.64 Q609.991 1135.03 615.801 1135.03 Z" fill="#000000" fill-rule="nonzero" fill-opacity="1" /><path clip-path="url(#clip540)" d="M868.009 1166.28 L875.648 1166.28 L875.648 1139.92 L867.338 1141.58 L867.338 1137.33 L875.601 1135.66 L880.277 1135.66 L880.277 1166.28 L887.916 1166.28 L887.916 1170.22 L868.009 1170.22 L868.009 1166.28 Z" fill="#000000" fill-rule="nonzero" fill-opacity="1" /><path clip-path="url(#clip540)" d="M907.361 1138.74 Q903.749 1138.74 901.921 1142.3 Q900.115 1145.84 900.115 1152.97 Q900.115 1160.08 901.921 1163.64 Q903.749 1167.19 907.361 1167.19 Q910.995 1167.19 912.8 1163.64 Q914.629 1160.08 914.629 1152.97 Q914.629 1145.84 912.8 1142.3 Q910.995 1138.74 907.361 1138.74 M907.361 1135.03 Q913.171 1135.03 916.226 1139.64 Q919.305 1144.22 919.305 1152.97 Q919.305 1161.7 916.226 1166.31 Q913.171 1170.89 907.361 1170.89 Q901.55 1170.89 898.472 1166.31 Q895.416 1161.7 895.416 1152.97 Q895.416 1144.22 898.472 1139.64 Q901.55 1135.03 907.361 1135.03 Z" fill="#000000" fill-rule="nonzero" fill-opacity="1" /><path clip-path="url(#clip540)" d="M937.522 1138.74 Q933.911 1138.74 932.083 1142.3 Q930.277 1145.84 930.277 1152.97 Q930.277 1160.08 932.083 1163.64 Q933.911 1167.19 937.522 1167.19 Q941.157 1167.19 942.962 1163.64 Q944.791 1160.08 944.791 1152.97 Q944.791 1145.84 942.962 1142.3 Q941.157 1138.74 937.522 1138.74 M937.522 1135.03 Q943.333 1135.03 946.388 1139.64 Q949.467 1144.22 949.467 1152.97 Q949.467 1161.7 946.388 1166.31 Q943.333 1170.89 937.522 1170.89 Q931.712 1170.89 928.634 1166.31 Q925.578 1161.7 925.578 1152.97 Q925.578 1144.22 928.634 1139.64 Q931.712 1135.03 937.522 1135.03 Z" fill="#000000" fill-rule="nonzero" fill-opacity="1" /><path clip-path="url(#clip540)" d="M1175.42 1166.28 L1183.06 1166.28 L1183.06 1139.92 L1174.75 1141.58 L1174.75 1137.33 L1183.02 1135.66 L1187.69 1135.66 L1187.69 1166.28 L1195.33 1166.28 L1195.33 1170.22 L1175.42 1170.22 L1175.42 1166.28 Z" fill="#000000" fill-rule="nonzero" fill-opacity="1" /><path clip-path="url(#clip540)" d="M1204.82 1135.66 L1223.18 1135.66 L1223.18 1139.59 L1209.11 1139.59 L1209.11 1148.07 Q1210.12 1147.72 1211.14 1147.56 Q1212.16 1147.37 1213.18 1147.37 Q1218.97 1147.37 1222.35 1150.54 Q1225.73 1153.71 1225.73 1159.13 Q1225.73 1164.71 1222.25 1167.81 Q1218.78 1170.89 1212.46 1170.89 Q1210.29 1170.89 1208.02 1170.52 Q1205.77 1170.15 1203.36 1169.41 L1203.36 1164.71 Q1205.45 1165.84 1207.67 1166.4 Q1209.89 1166.95 1212.37 1166.95 Q1216.37 1166.95 1218.71 1164.85 Q1221.05 1162.74 1221.05 1159.13 Q1221.05 1155.52 1218.71 1153.41 Q1216.37 1151.31 1212.37 1151.31 Q1210.49 1151.31 1208.62 1151.72 Q1206.77 1152.14 1204.82 1153.02 L1204.82 1135.66 Z" fill="#000000" fill-rule="nonzero" fill-opacity="1" /><path clip-path="url(#clip540)" d="M1244.94 1138.74 Q1241.33 1138.74 1239.5 1142.3 Q1237.69 1145.84 1237.69 1152.97 Q1237.69 1160.08 1239.5 1163.64 Q1241.33 1167.19 1244.94 1167.19 Q1248.57 1167.19 1250.38 1163.64 Q1252.21 1160.08 1252.21 1152.97 Q1252.21 1145.84 1250.38 1142.3 Q1248.57 1138.74 1244.94 1138.74 M1244.94 1135.03 Q1250.75 1135.03 1253.8 1139.64 Q1256.88 1144.22 1256.88 1152.97 Q1256.88 1161.7 1253.8 1166.31 Q1250.75 1170.89 1244.94 1170.89 Q1239.13 1170.89 1236.05 1166.31 Q1232.99 1161.7 1232.99 1152.97 Q1232.99 1144.22 1236.05 1139.64 Q1239.13 1135.03 1244.94 1135.03 Z" fill="#000000" fill-rule="nonzero" fill-opacity="1" /><path clip-path="url(#clip540)" d="M1486.93 1166.28 L1503.25 1166.28 L1503.25 1170.22 L1481.3 1170.22 L1481.3 1166.28 Q1483.96 1163.53 1488.55 1158.9 Q1493.15 1154.25 1494.33 1152.9 Q1496.58 1150.38 1497.46 1148.64 Q1498.36 1146.89 1498.36 1145.2 Q1498.36 1142.44 1496.42 1140.7 Q1494.5 1138.97 1491.39 1138.97 Q1489.2 1138.97 1486.74 1139.73 Q1484.31 1140.5 1481.53 1142.05 L1481.53 1137.33 Q1484.36 1136.19 1486.81 1135.61 Q1489.26 1135.03 1491.3 1135.03 Q1496.67 1135.03 1499.87 1137.72 Q1503.06 1140.4 1503.06 1144.89 Q1503.06 1147.02 1502.25 1148.95 Q1501.46 1150.84 1499.36 1153.44 Q1498.78 1154.11 1495.68 1157.33 Q1492.57 1160.52 1486.93 1166.28 Z" fill="#000000" fill-rule="nonzero" fill-opacity="1" /><path clip-path="url(#clip540)" d="M1523.06 1138.74 Q1519.45 1138.74 1517.62 1142.3 Q1515.82 1145.84 1515.82 1152.97 Q1515.82 1160.08 1517.62 1163.64 Q1519.45 1167.19 1523.06 1167.19 Q1526.69 1167.19 1528.5 1163.64 Q1530.33 1160.08 1530.33 1152.97 Q1530.33 1145.84 1528.5 1142.3 Q1526.69 1138.74 1523.06 1138.74 M1523.06 1135.03 Q1528.87 1135.03 1531.93 1139.64 Q1535.01 1144.22 1535.01 1152.97 Q1535.01 1161.7 1531.93 1166.31 Q1528.87 1170.89 1523.06 1170.89 Q1517.25 1170.89 1514.17 1166.31 Q1511.12 1161.7 1511.12 1152.97 Q1511.12 1144.22 1514.17 1139.64 Q1517.25 1135.03 1523.06 1135.03 Z" fill="#000000" fill-rule="nonzero" fill-opacity="1" /><path clip-path="url(#clip540)" d="M1553.22 1138.74 Q1549.61 1138.74 1547.78 1142.3 Q1545.98 1145.84 1545.98 1152.97 Q1545.98 1160.08 1547.78 1163.64 Q1549.61 1167.19 1553.22 1167.19 Q1556.86 1167.19 1558.66 1163.64 Q1560.49 1160.08 1560.49 1152.97 Q1560.49 1145.84 1558.66 1142.3 Q1556.86 1138.74 1553.22 1138.74 M1553.22 1135.03 Q1559.03 1135.03 1562.09 1139.64 Q1565.17 1144.22 1565.17 1152.97 Q1565.17 1161.7 1562.09 1166.31 Q1559.03 1170.89 1553.22 1170.89 Q1547.41 1170.89 1544.33 1166.31 Q1541.28 1161.7 1541.28 1152.97 Q1541.28 1144.22 1544.33 1139.64 Q1547.41 1135.03 1553.22 1135.03 Z" fill="#000000" fill-rule="nonzero" fill-opacity="1" /><path clip-path="url(#clip540)" d="M1794.34 1166.28 L1810.66 1166.28 L1810.66 1170.22 L1788.72 1170.22 L1788.72 1166.28 Q1791.38 1163.53 1795.96 1158.9 Q1800.57 1154.25 1801.75 1152.9 Q1804 1150.38 1804.87 1148.64 Q1805.78 1146.89 1805.78 1145.2 Q1805.78 1142.44 1803.83 1140.7 Q1801.91 1138.97 1798.81 1138.97 Q1796.61 1138.97 1794.16 1139.73 Q1791.73 1140.5 1788.95 1142.05 L1788.95 1137.33 Q1791.77 1136.19 1794.23 1135.61 Q1796.68 1135.03 1798.72 1135.03 Q1804.09 1135.03 1807.28 1137.72 Q1810.48 1140.4 1810.48 1144.89 Q1810.48 1147.02 1809.67 1148.95 Q1808.88 1150.84 1806.77 1153.44 Q1806.19 1154.11 1803.09 1157.33 Q1799.99 1160.52 1794.34 1166.28 Z" fill="#000000" fill-rule="nonzero" fill-opacity="1" /><path clip-path="url(#clip540)" d="M1820.52 1135.66 L1838.88 1135.66 L1838.88 1139.59 L1824.81 1139.59 L1824.81 1148.07 Q1825.82 1147.72 1826.84 1147.56 Q1827.86 1147.37 1828.88 1147.37 Q1834.67 1147.37 1838.05 1150.54 Q1841.43 1153.71 1841.43 1159.13 Q1841.43 1164.71 1837.95 1167.81 Q1834.48 1170.89 1828.16 1170.89 Q1825.99 1170.89 1823.72 1170.52 Q1821.47 1170.15 1819.06 1169.41 L1819.06 1164.71 Q1821.15 1165.84 1823.37 1166.4 Q1825.59 1166.95 1828.07 1166.95 Q1832.07 1166.95 1834.41 1164.85 Q1836.75 1162.74 1836.75 1159.13 Q1836.75 1155.52 1834.41 1153.41 Q1832.07 1151.31 1828.07 1151.31 Q1826.19 1151.31 1824.32 1151.72 Q1822.47 1152.14 1820.52 1153.02 L1820.52 1135.66 Z" fill="#000000" fill-rule="nonzero" fill-opacity="1" /><path clip-path="url(#clip540)" d="M1860.64 1138.74 Q1857.03 1138.74 1855.2 1142.3 Q1853.39 1145.84 1853.39 1152.97 Q1853.39 1160.08 1855.2 1163.64 Q1857.03 1167.19 1860.64 1167.19 Q1864.27 1167.19 1866.08 1163.64 Q1867.91 1160.08 1867.91 1152.97 Q1867.91 1145.84 1866.08 1142.3 Q1864.27 1138.74 1860.64 1138.74 M1860.64 1135.03 Q1866.45 1135.03 1869.5 1139.64 Q1872.58 1144.22 1872.58 1152.97 Q1872.58 1161.7 1869.5 1166.31 Q1866.45 1170.89 1860.64 1170.89 Q1854.83 1170.89 1851.75 1166.31 Q1848.69 1161.7 1848.69 1152.97 Q1848.69 1144.22 1851.75 1139.64 Q1854.83 1135.03 1860.64 1135.03 Z" fill="#000000" fill-rule="nonzero" fill-opacity="1" /><g clip-path="url(#clip540)">
<text style="fill:#000000; fill-opacity:1; font-family:Arial,Helvetica Neue,Helvetica,sans-serif; font-size:66px; text-anchor:middle;" transform="rotate(0, 1099, 1252.42)" x="1099" y="1252.42">Krylov dimension</text>
</g>
<polyline clip-path="url(#clip540)" style="stroke:#000000; stroke-linecap:round; stroke-linejoin:round; stroke-width:4; stroke-opacity:1; fill:none" points="245.244,1111.02 245.244,107.256 "/>
<polyline clip-path="url(#clip540)" style="stroke:#000000; stroke-linecap:round; stroke-linejoin:round; stroke-width:4; stroke-opacity:1; fill:none" points="245.244,1081.37 264.142,1081.37 "/>
<polyline clip-path="url(#clip540)" style="stroke:#000000; stroke-linecap:round; stroke-linejoin:round; stroke-width:4; stroke-opacity:1; fill:none" points="245.244,573.463 264.142,573.463 "/>
<path clip-path="url(#clip540)" d="M113.675 1101.17 L121.314 1101.17 L121.314 1074.8 L113.004 1076.47 L113.004 1072.21 L121.268 1070.54 L125.944 1070.54 L125.944 1101.17 L133.583 1101.17 L133.583 1105.1 L113.675 1105.1 L113.675 1101.17 Z" fill="#000000" fill-rule="nonzero" fill-opacity="1" /><path clip-path="url(#clip540)" d="M153.027 1073.62 Q149.416 1073.62 147.587 1077.19 Q145.782 1080.73 145.782 1087.86 Q145.782 1094.96 147.587 1098.53 Q149.416 1102.07 153.027 1102.07 Q156.661 1102.07 158.467 1098.53 Q160.295 1094.96 160.295 1087.86 Q160.295 1080.73 158.467 1077.19 Q156.661 1073.62 153.027 1073.62 M153.027 1069.92 Q158.837 1069.92 161.893 1074.52 Q164.971 1079.11 164.971 1087.86 Q164.971 1096.58 161.893 1101.19 Q158.837 1105.77 153.027 1105.77 Q147.217 1105.77 144.138 1101.19 Q141.082 1096.58 141.082 1087.86 Q141.082 1079.11 144.138 1074.52 Q147.217 1069.92 153.027 1069.92 Z" fill="#000000" fill-rule="nonzero" fill-opacity="1" /><path clip-path="url(#clip540)" d="M164.971 1064.02 L189.083 1064.02 L189.083 1067.22 L164.971 1067.22 L164.971 1064.02 Z" fill="#000000" fill-rule="nonzero" fill-opacity="1" /><path clip-path="url(#clip540)" d="M205.878 1062.14 Q203.32 1062.14 201.816 1063.89 Q200.33 1065.64 200.33 1068.68 Q200.33 1071.71 201.816 1073.48 Q203.32 1075.23 205.878 1075.23 Q208.436 1075.23 209.922 1073.48 Q211.426 1071.71 211.426 1068.68 Q211.426 1065.64 209.922 1063.89 Q208.436 1062.14 205.878 1062.14 M213.42 1050.23 L213.42 1053.69 Q211.991 1053.02 210.524 1052.66 Q209.075 1052.3 207.646 1052.3 Q203.885 1052.3 201.891 1054.84 Q199.916 1057.38 199.634 1062.51 Q200.744 1060.88 202.417 1060.01 Q204.091 1059.13 206.104 1059.13 Q210.336 1059.13 212.781 1061.71 Q215.244 1064.26 215.244 1068.68 Q215.244 1073.01 212.687 1075.62 Q210.129 1078.24 205.878 1078.24 Q201.007 1078.24 198.43 1074.51 Q195.854 1070.77 195.854 1063.68 Q195.854 1057.02 199.013 1053.07 Q202.173 1049.1 207.496 1049.1 Q208.925 1049.1 210.373 1049.39 Q211.84 1049.67 213.42 1050.23 Z" fill="#000000" fill-rule="nonzero" fill-opacity="1" /><path clip-path="url(#clip540)" d="M114.333 593.255 L121.972 593.255 L121.972 566.889 L113.662 568.556 L113.662 564.297 L121.926 562.63 L126.602 562.63 L126.602 593.255 L134.241 593.255 L134.241 597.19 L114.333 597.19 L114.333 593.255 Z" fill="#000000" fill-rule="nonzero" fill-opacity="1" /><path clip-path="url(#clip540)" d="M153.685 565.709 Q150.074 565.709 148.245 569.274 Q146.44 572.815 146.44 579.945 Q146.44 587.051 148.245 590.616 Q150.074 594.158 153.685 594.158 Q157.319 594.158 159.125 590.616 Q160.954 587.051 160.954 579.945 Q160.954 572.815 159.125 569.274 Q157.319 565.709 153.685 565.709 M153.685 562.005 Q159.495 562.005 162.551 566.612 Q165.629 571.195 165.629 579.945 Q165.629 588.672 162.551 593.278 Q159.495 597.861 153.685 597.861 Q147.875 597.861 144.796 593.278 Q141.741 588.672 141.741 579.945 Q141.741 571.195 144.796 566.612 Q147.875 562.005 153.685 562.005 Z" fill="#000000" fill-rule="nonzero" fill-opacity="1" /><path clip-path="url(#clip540)" d="M165.629 556.106 L189.741 556.106 L189.741 559.304 L165.629 559.304 L165.629 556.106 Z" fill="#000000" fill-rule="nonzero" fill-opacity="1" /><path clip-path="url(#clip540)" d="M209.452 554.639 Q212.179 555.223 213.702 557.066 Q215.244 558.909 215.244 561.617 Q215.244 565.774 212.386 568.049 Q209.527 570.325 204.261 570.325 Q202.493 570.325 200.612 569.968 Q198.75 569.629 196.756 568.933 L196.756 565.266 Q198.336 566.187 200.217 566.658 Q202.098 567.128 204.148 567.128 Q207.721 567.128 209.583 565.717 Q211.464 564.307 211.464 561.617 Q211.464 559.135 209.715 557.743 Q207.985 556.332 204.881 556.332 L201.609 556.332 L201.609 553.21 L205.032 553.21 Q207.834 553.21 209.32 552.1 Q210.806 550.972 210.806 548.865 Q210.806 546.703 209.264 545.555 Q207.74 544.389 204.881 544.389 Q203.32 544.389 201.534 544.728 Q199.747 545.066 197.603 545.781 L197.603 542.396 Q199.766 541.794 201.646 541.493 Q203.546 541.192 205.22 541.192 Q209.546 541.192 212.066 543.167 Q214.586 545.123 214.586 548.471 Q214.586 550.803 213.251 552.42 Q211.915 554.019 209.452 554.639 Z" fill="#000000" fill-rule="nonzero" fill-opacity="1" /><g clip-path="url(#clip540)">
<text style="fill:#000000; fill-opacity:1; font-family:Arial,Helvetica Neue,Helvetica,sans-serif; font-size:66px; text-anchor:middle;" transform="rotate(-90, 71.4418, 609.137)" x="71.4418" y="609.137">relative residual norm</text>
</g>
<g clip-path="url(#clip540)">
<text style="fill:#000000; fill-opacity:1; font-family:Arial,Helvetica Neue,Helvetica,sans-serif; font-size:66px; text-anchor:middle;" transform="rotate(0, 1099, 57.6)" x="1099" y="57.6">Convergence of MINRES and CG</text>
</g>
<polyline clip-path="url(#clip542)" style="stroke:#009af9; stroke-linecap:round; stroke-linejoin:round; stroke-width:8; stroke-opacity:1; fill:none" points="293.57,140.755 299.719,188.44 305.867,221.851 312.015,248.813 318.163,271.246 324.312,289.935 330.46,306.602 336.608,321.32 342.757,334.202 348.905,345.933 355.053,357.171 361.202,367.559 367.35,376.693 373.498,385.536 379.647,393.611 385.795,401.617 391.943,408.383 398.092,415.362 404.24,421.828 410.388,427.993 416.537,434.213 422.685,439.957 428.833,445.607 434.982,450.996 441.13,456.222 447.278,461.167 453.427,465.914 459.575,470.724 465.723,475.145 471.871,479.637 478.02,484.087 484.168,488.365 490.316,492.353 496.465,496.333 502.613,500.139 508.761,503.975 514.91,507.715 521.058,511.377 527.206,515.112 533.355,518.827 539.503,522.301 545.651,525.758 551.8,529.391 557.948,532.742 564.096,536.082 570.245,539.5 576.393,542.72 582.541,545.941 588.69,549.145 594.838,552.28 600.986,555.576 607.135,558.619 613.283,561.702 619.431,564.702 625.579,567.711 631.728,570.751 637.876,573.827 644.024,576.874 650.173,579.963 656.321,582.844 662.469,585.744 668.618,588.649 674.766,591.548 680.914,594.599 687.063,597.528 693.211,600.45 699.359,603.247 705.508,606.13 711.656,609.036 717.804,612.06 723.953,614.907 730.101,617.944 736.249,620.887 742.398,623.782 748.546,626.774 754.694,629.654 760.843,632.562 766.991,635.433 773.139,638.453 779.287,641.298 785.436,644.177 791.584,647.001 797.732,649.972 803.881,652.796 810.029,655.656 816.177,658.485 822.326,661.364 828.474,664.389 834.622,667.285 840.771,670.16 846.919,672.976 853.067,675.899 859.216,678.691 865.364,681.598 871.512,684.485 877.661,687.404 883.809,690.145 889.957,692.926 896.106,695.933 902.254,698.748 908.402,701.719 914.551,704.677 920.699,707.523 926.847,710.284 932.996,713.258 939.144,715.98 945.292,718.863 951.44,721.826 957.589,724.626 963.737,727.605 969.885,730.392 976.034,733.24 982.182,736.281 988.33,739.144 994.479,742.042 1000.63,744.945 1006.78,748.004 1012.92,751.002 1019.07,753.8 1025.22,756.775 1031.37,759.561 1037.52,762.492 1043.67,765.521 1049.81,768.472 1055.96,771.4 1062.11,774.249 1068.26,777.17 1074.41,779.96 1080.56,782.965 1086.7,785.789 1092.85,788.665 1099,791.645 1105.15,794.703 1111.3,797.456 1117.45,800.391 1123.59,803.301 1129.74,806.248 1135.89,809.235 1142.04,812.077 1148.19,815.112 1154.34,817.959 1160.48,820.862 1166.63,823.738 1172.78,826.784 1178.93,829.743 1185.08,832.617 1191.22,835.581 1197.37,838.484 1203.52,841.358 1209.67,844.211 1215.82,847.15 1221.97,849.875 1228.11,853.04 1234.26,855.992 1240.41,858.952 1246.56,862.025 1252.71,864.891 1258.86,867.623 1265,870.56 1271.15,873.54 1277.3,876.377 1283.45,879.181 1289.6,882.117 1295.75,885.117 1301.89,888.045 1308.04,890.944 1314.19,893.957 1320.34,896.959 1326.49,899.931 1332.64,902.83 1338.78,905.889 1344.93,908.838 1351.08,911.948 1357.23,914.843 1363.38,917.73 1369.53,920.627 1375.67,923.739 1381.82,926.561 1387.97,929.378 1394.12,932.268 1400.27,935.266 1406.42,938.16 1412.56,941.22 1418.71,944.07 1424.86,946.963 1431.01,949.784 1437.16,952.805 1443.31,955.936 1449.45,958.925 1455.6,961.899 1461.75,964.632 1467.9,967.609 1474.05,970.711 1480.2,973.699 1486.34,976.525 1492.49,979.333 1498.64,982.309 1504.79,985.151 1510.94,988.112 1517.09,990.994 1523.23,993.875 1529.38,997.067 1535.53,1000.02 1541.68,1002.93 1547.83,1005.76 1553.98,1008.63 1560.12,1011.44 1566.27,1014.34 1572.42,1017.4 1578.57,1020.52 1584.72,1023.31 1590.87,1026.33 1597.01,1029.26 1603.16,1032.34 1609.31,1035.18 1615.46,1038.17 1621.61,1041.02 1627.76,1043.87 1633.9,1046.78 1640.05,1049.74 1646.2,1052.64 1652.35,1055.63 1658.5,1058.68 1664.65,1061.69 1670.79,1064.74 1676.94,1067.6 1683.09,1070.54 1689.24,1073.39 1695.39,1076.37 1701.54,1079.31 1707.68,1082.09 "/>
<polyline clip-path="url(#clip542)" style="stroke:#e26f46; stroke-linecap:round; stroke-linejoin:round; stroke-width:8; stroke-opacity:1; fill:none" points="293.57,135.664 299.719,176.702 305.867,202.887 312.015,224.752 318.163,242.438 324.312,256.111 330.46,269.5 336.608,280.551 342.757,289.395 348.905,298.229 355.053,308.12 361.202,316.024 367.35,321.028 373.498,328.819 379.647,333.921 385.795,341.649 391.943,342.825 398.092,350.838 404.24,354.747 410.388,359.309 416.537,365.826 422.685,368.878 428.833,373.964 434.982,377.743 441.13,381.918 447.278,384.964 453.427,388.315 459.575,393.575 465.723,395.079 471.871,400.128 478.02,404.259 484.168,407.162 490.316,408.714 496.465,412.633 502.613,414.872 508.761,418.981 514.91,421.838 521.058,424.769 527.206,429.192 533.355,432.711 539.503,433.844 545.651,437.137 551.8,442.493 557.948,443.025 564.096,446.244 570.245,450.473 576.393,451.599 582.541,454.822 588.69,457.846 594.838,460.222 600.986,465.266 607.135,465.502 613.283,469.053 619.431,471.089 625.579,474.196 631.728,477.597 637.876,481.094 644.024,483.815 650.173,487.372 656.321,487.794 662.469,490.939 668.618,493.896 674.766,496.723 680.914,501.567 687.063,503.069 693.211,505.907 699.359,507.157 705.508,511.099 711.656,514.306 717.804,518.717 723.953,519.445 730.101,524.758 736.249,526.588 742.398,528.91 748.546,533.067 754.694,534.596 760.843,537.843 766.991,540.267 773.139,545.074 779.287,545.8 785.436,549.107 791.584,551.256 797.732,556.006 803.881,557.042 810.029,560.354 816.177,562.8 822.326,566.288 828.474,571.069 834.622,572.421 840.771,575.035 846.919,577.126 853.067,581.367 859.216,582.538 865.364,586.871 871.512,589.505 877.661,592.826 883.809,593.338 889.957,596.628 896.106,602.394 902.254,602.881 908.402,607.764 914.551,610.56 920.699,612.051 926.847,613.735 932.996,619.335 939.144,618.918 945.292,623.848 951.44,627.762 957.589,628.573 963.737,633.746 969.885,634.172 976.034,637.788 982.182,643.143 988.33,643.881 994.479,647.204 1000.63,650.167 1006.78,655.067 1012.92,657.365 1019.07,657.716 1025.22,662.872 1031.37,663.319 1037.52,668.064 1043.67,672.244 1049.81,674.268 1055.96,676.928 1062.11,678.806 1068.26,682.614 1074.41,683.776 1080.56,689.408 1086.7,690.036 1092.85,693.563 1099,697.793 1105.15,701.756 1111.3,700.805 1117.45,706.003 1123.59,708.611 1129.74,711.999 1135.89,715.459 1142.04,716.56 1148.19,721.904 1154.34,722.492 1160.48,726.088 1166.63,728.631 1172.78,733.705 1178.93,735.636 1185.08,737.482 1191.22,741.536 1197.37,743.717 1203.52,746.223 1209.67,748.818 1215.82,752.805 1221.97,752.859 1228.11,761.312 1234.26,761.807 1240.41,764.867 1246.56,769.248 1252.71,769.669 1258.86,770.699 1265,776.189 1271.15,779.686 1277.3,780.79 1283.45,783.172 1289.6,787.749 1295.75,791.491 1301.89,793.572 1308.04,796.124 1314.19,800.495 1320.34,803.364 1326.49,805.979 1332.64,808.003 1338.78,812.955 1344.93,814.62 1351.08,819.598 1357.23,819.979 1363.38,822.751 1369.53,825.777 1375.67,831.418 1381.82,830.787 1387.97,833.529 1394.12,837.338 1400.27,841.618 1406.42,843.279 1412.56,848.302 1418.71,848.644 1424.86,852.065 1431.01,853.988 1437.16,859.437 1443.31,863.824 1449.45,865.186 1455.6,867.965 1461.75,867.724 1467.9,873.727 1474.05,878.267 1480.2,879.936 1486.34,880.798 1492.49,883.362 1498.64,888.385 1504.79,889.597 1510.94,893.964 1517.09,895.815 1523.23,898.724 1529.38,905.47 1535.53,905.543 1541.68,907.527 1547.83,909.267 1553.98,913.539 1560.12,915.536 1566.27,920.051 1572.42,924.74 1578.57,928.58 1584.72,927.317 1590.87,932.959 1597.01,934.831 1603.16,939.658 1609.31,939.606 1615.46,944.452 1621.61,945.609 1627.76,948.477 1633.9,952.122 1640.05,955.617 1646.2,957.846 1652.35,961.936 1658.5,965.663 1664.65,968.215 1670.79,971.915 1676.94,972.647 1683.09,976.516 1689.24,978.081 1695.39,983.112 1701.54,985.695 1707.68,987.454 1713.83,989.093 1719.98,994.627 1726.13,996.233 1732.28,1000.04 1738.43,1001.45 1744.57,1003.36 1750.72,1007.3 1756.87,1014.15 1763.02,1016.11 1769.17,1017.95 1775.32,1021.02 1781.46,1024.76 1787.61,1025.54 1793.76,1028.95 1799.91,1034.84 1806.06,1036.46 1812.21,1037.21 1818.35,1042.41 1824.5,1043.54 1830.65,1048.3 1836.8,1052.06 1842.95,1053.35 1849.1,1057.8 1855.24,1060.39 1861.39,1063.32 1867.54,1066.81 1873.69,1065.84 1879.84,1071.55 1885.99,1072.96 1892.13,1078.17 1898.28,1080.38 1904.43,1082.61 "/>
<path clip-path="url(#clip540)" d="M1570 296.235 L1895.84 296.235 L1895.84 140.715 L1570 140.715  Z" fill="#ffffff" fill-rule="evenodd" fill-opacity="1"/>
<polyline clip-path="url(#clip540)" style="stroke:#000000; stroke-linecap:round; stroke-linejoin:round; stroke-width:4; stroke-opacity:1; fill:none" points="1570,296.235 1895.84,296.235 1895.84,140.715 1570,140.715 1570,296.235 "/>
<polyline clip-path="url(#clip540)" style="stroke:#009af9; stroke-linecap:round; stroke-linejoin:round; stroke-width:8; stroke-opacity:1; fill:none" points="1588.97,192.555 1702.8,192.555 "/>
<path clip-path="url(#clip540)" d="M1742.12 188.886 Q1743.72 186.015 1745.94 184.65 Q1748.16 183.284 1751.17 183.284 Q1755.22 183.284 1757.42 186.131 Q1759.62 188.955 1759.62 194.187 L1759.62 209.835 L1755.34 209.835 L1755.34 194.325 Q1755.34 190.599 1754.02 188.793 Q1752.7 186.988 1749.99 186.988 Q1746.68 186.988 1744.76 189.187 Q1742.84 191.386 1742.84 195.182 L1742.84 209.835 L1738.56 209.835 L1738.56 194.325 Q1738.56 190.575 1737.24 188.793 Q1735.92 186.988 1733.16 186.988 Q1729.9 186.988 1727.98 189.21 Q1726.06 191.409 1726.06 195.182 L1726.06 209.835 L1721.77 209.835 L1721.77 183.909 L1726.06 183.909 L1726.06 187.937 Q1727.52 185.552 1729.55 184.418 Q1731.59 183.284 1734.39 183.284 Q1737.21 183.284 1739.18 184.719 Q1741.17 186.154 1742.12 188.886 Z" fill="#000000" fill-rule="nonzero" fill-opacity="1" /><path clip-path="url(#clip540)" d="M1768.12 183.909 L1772.38 183.909 L1772.38 209.835 L1768.12 209.835 L1768.12 183.909 M1768.12 173.816 L1772.38 173.816 L1772.38 179.21 L1768.12 179.21 L1768.12 173.816 Z" fill="#000000" fill-rule="nonzero" fill-opacity="1" /><path clip-path="url(#clip540)" d="M1802.84 194.187 L1802.84 209.835 L1798.58 209.835 L1798.58 194.325 Q1798.58 190.645 1797.14 188.816 Q1795.71 186.988 1792.84 186.988 Q1789.39 186.988 1787.4 189.187 Q1785.41 191.386 1785.41 195.182 L1785.41 209.835 L1781.13 209.835 L1781.13 183.909 L1785.41 183.909 L1785.41 187.937 Q1786.94 185.599 1789 184.441 Q1791.08 183.284 1793.79 183.284 Q1798.26 183.284 1800.55 186.062 Q1802.84 188.816 1802.84 194.187 Z" fill="#000000" fill-rule="nonzero" fill-opacity="1" /><path clip-path="url(#clip540)" d="M1826.36 187.89 Q1825.64 187.474 1824.78 187.288 Q1823.95 187.08 1822.93 187.08 Q1819.32 187.08 1817.38 189.441 Q1815.45 191.779 1815.45 196.177 L1815.45 209.835 L1811.17 209.835 L1811.17 183.909 L1815.45 183.909 L1815.45 187.937 Q1816.8 185.576 1818.95 184.441 Q1821.1 183.284 1824.18 183.284 Q1824.62 183.284 1825.15 183.353 Q1825.69 183.4 1826.33 183.515 L1826.36 187.89 Z" fill="#000000" fill-rule="nonzero" fill-opacity="1" /><path clip-path="url(#clip540)" d="M1851.96 195.807 L1851.96 197.89 L1832.38 197.89 Q1832.65 202.288 1835.01 204.603 Q1837.4 206.895 1841.64 206.895 Q1844.09 206.895 1846.38 206.293 Q1848.7 205.691 1850.96 204.487 L1850.96 208.515 Q1848.67 209.487 1846.26 209.997 Q1843.86 210.506 1841.38 210.506 Q1835.18 210.506 1831.54 206.895 Q1827.93 203.284 1827.93 197.126 Q1827.93 190.761 1831.36 187.034 Q1834.81 183.284 1840.64 183.284 Q1845.87 183.284 1848.9 186.663 Q1851.96 190.02 1851.96 195.807 M1847.7 194.557 Q1847.65 191.062 1845.73 188.978 Q1843.83 186.895 1840.69 186.895 Q1837.12 186.895 1834.97 188.909 Q1832.84 190.923 1832.51 194.58 L1847.7 194.557 Z" fill="#000000" fill-rule="nonzero" fill-opacity="1" /><path clip-path="url(#clip540)" d="M1875.48 184.673 L1875.48 188.7 Q1873.67 187.775 1871.73 187.312 Q1869.78 186.849 1867.7 186.849 Q1864.53 186.849 1862.93 187.821 Q1861.36 188.793 1861.36 190.738 Q1861.36 192.219 1862.49 193.075 Q1863.63 193.909 1867.05 194.673 L1868.51 194.997 Q1873.05 195.969 1874.95 197.751 Q1876.87 199.511 1876.87 202.682 Q1876.87 206.293 1874 208.399 Q1871.15 210.506 1866.15 210.506 Q1864.07 210.506 1861.8 210.089 Q1859.55 209.696 1857.05 208.886 L1857.05 204.487 Q1859.41 205.714 1861.7 206.339 Q1864 206.941 1866.24 206.941 Q1869.25 206.941 1870.87 205.923 Q1872.49 204.881 1872.49 203.006 Q1872.49 201.27 1871.31 200.344 Q1870.15 199.418 1866.2 198.562 L1864.71 198.214 Q1860.76 197.381 1859 195.668 Q1857.24 193.932 1857.24 190.923 Q1857.24 187.265 1859.83 185.275 Q1862.42 183.284 1867.19 183.284 Q1869.55 183.284 1871.64 183.631 Q1873.72 183.978 1875.48 184.673 Z" fill="#000000" fill-rule="nonzero" fill-opacity="1" /><polyline clip-path="url(#clip540)" style="stroke:#e26f46; stroke-linecap:round; stroke-linejoin:round; stroke-width:8; stroke-opacity:1; fill:none" points="1588.97,244.395 1702.8,244.395 "/>
<path clip-path="url(#clip540)" d="M1742.28 236.744 L1742.28 240.726 Q1740.48 239.73 1738.65 239.244 Q1736.84 238.735 1734.99 238.735 Q1730.85 238.735 1728.56 241.374 Q1726.27 243.99 1726.27 248.735 Q1726.27 253.48 1728.56 256.119 Q1730.85 258.735 1734.99 258.735 Q1736.84 258.735 1738.65 258.249 Q1740.48 257.739 1742.28 256.744 L1742.28 260.679 Q1740.5 261.513 1738.58 261.929 Q1736.68 262.346 1734.53 262.346 Q1728.67 262.346 1725.22 258.665 Q1721.77 254.985 1721.77 248.735 Q1721.77 242.392 1725.25 238.758 Q1728.74 235.124 1734.81 235.124 Q1736.77 235.124 1738.65 235.541 Q1740.52 235.934 1742.28 236.744 Z" fill="#000000" fill-rule="nonzero" fill-opacity="1" /><path clip-path="url(#clip540)" d="M1766.75 248.411 Q1766.75 243.781 1764.83 241.235 Q1762.93 238.689 1759.48 238.689 Q1756.06 238.689 1754.14 241.235 Q1752.24 243.781 1752.24 248.411 Q1752.24 253.017 1754.14 255.564 Q1756.06 258.11 1759.48 258.11 Q1762.93 258.11 1764.83 255.564 Q1766.75 253.017 1766.75 248.411 M1771.01 258.457 Q1771.01 265.077 1768.07 268.295 Q1765.13 271.536 1759.07 271.536 Q1756.82 271.536 1754.83 271.188 Q1752.84 270.864 1750.96 270.17 L1750.96 266.026 Q1752.84 267.045 1754.67 267.531 Q1756.5 268.017 1758.39 268.017 Q1762.58 268.017 1764.67 265.818 Q1766.75 263.642 1766.75 259.221 L1766.75 257.114 Q1765.43 259.406 1763.37 260.54 Q1761.31 261.675 1758.44 261.675 Q1753.67 261.675 1750.76 258.04 Q1747.84 254.406 1747.84 248.411 Q1747.84 242.392 1750.76 238.758 Q1753.67 235.124 1758.44 235.124 Q1761.31 235.124 1763.37 236.258 Q1765.43 237.392 1766.75 239.684 L1766.75 235.749 L1771.01 235.749 L1771.01 258.457 Z" fill="#000000" fill-rule="nonzero" fill-opacity="1" /></svg>
