<?xml version="1.0" encoding="utf-8"?>
<svg xmlns="http://www.w3.org/2000/svg" xmlns:xlink="http://www.w3.org/1999/xlink" width="500" height="320" viewBox="0 0 2000 1280">
<defs>
  <clipPath id="clip480">
    <rect x="0" y="0" width="2000" height="1280"/>
  </clipPath>
</defs>
<path clip-path="url(#clip480)" d="M0 1280 L2000 1280 L2000 -2.66454e-14 L0 -2.66454e-14  Z" fill="#ffffff" fill-rule="evenodd" fill-opacity="1"/>
<defs>
  <clipPath id="clip481">
    <rect x="400" y="0" width="1401" height="1280"/>
  </clipPath>
</defs>
<path clip-path="url(#clip480)" d="M152.112 1171.03 L1952.76 1171.03 L1952.76 47.2441 L152.112 47.2441  Z" fill="#ffffff" fill-rule="evenodd" fill-opacity="1"/>
<defs>
  <clipPath id="clip482">
    <rect x="152" y="47" width="1802" height="1125"/>
  </clipPath>
</defs>
<polyline clip-path="url(#clip482)" style="stroke:#000000; stroke-linecap:round; stroke-linejoin:round; stroke-width:2; stroke-opacity:0.1; fill:none" points="203.074,1171.03 203.074,47.2441 "/>
<polyline clip-path="url(#clip482)" style="stroke:#000000; stroke-linecap:round; stroke-linejoin:round; stroke-width:2; stroke-opacity:0.1; fill:none" points="627.754,1171.03 627.754,47.2441 "/>
<polyline clip-path="url(#clip482)" style="stroke:#000000; stroke-linecap:round; stroke-linejoin:round; stroke-width:2; stroke-opacity:0.1; fill:none" points="1052.43,1171.03 1052.43,47.2441 "/>
<polyline clip-path="url(#clip482)" style="stroke:#000000; stroke-linecap:round; stroke-linejoin:round; stroke-width:2; stroke-opacity:0.1; fill:none" points="1477.11,1171.03 1477.11,47.2441 "/>
<polyline clip-path="url(#clip482)" style="stroke:#000000; stroke-linecap:round; stroke-linejoin:round; stroke-width:2; stroke-opacity:0.1; fill:none" points="1901.79,1171.03 1901.79,47.2441 "/>
<polyline clip-path="url(#clip482)" style="stroke:#000000; stroke-linecap:round; stroke-linejoin:round; stroke-width:2; stroke-opacity:0.1; fill:none" points="152.112,1014.62 1952.76,1014.62 "/>
<polyline clip-path="url(#clip482)" style="stroke:#000000; stroke-linecap:round; stroke-linejoin:round; stroke-width:2; stroke-opacity:0.1; fill:none" points="152.112,785.949 1952.76,785.949 "/>
<polyline clip-path="url(#clip482)" style="stroke:#000000; stroke-linecap:round; stroke-linejoin:round; stroke-width:2; stroke-opacity:0.1; fill:none" points="152.112,557.275 1952.76,557.275 "/>
<polyline clip-path="url(#clip482)" style="stroke:#000000; stroke-linecap:round; stroke-linejoin:round; stroke-width:2; stroke-opacity:0.1; fill:none" points="152.112,328.6 1952.76,328.6 "/>
<polyline clip-path="url(#clip482)" style="stroke:#000000; stroke-linecap:round; stroke-linejoin:round; stroke-width:2; stroke-opacity:0.1; fill:none" points="152.112,99.9261 1952.76,99.9261 "/>
<polyline clip-path="url(#clip480)" style="stroke:#000000; stroke-linecap:round; stroke-linejoin:round; stroke-width:4; stroke-opacity:1; fill:none" points="152.112,1171.03 1952.76,1171.03 "/>
<polyline clip-path="url(#clip480)" style="stroke:#000000; stroke-linecap:round; stroke-linejoin:round; stroke-width:4; stroke-opacity:1; fill:none" points="203.074,1171.03 203.074,1152.13 "/>
<polyline clip-path="url(#clip480)" style="stroke:#000000; stroke-linecap:round; stroke-linejoin:round; stroke-width:4; stroke-opacity:1; fill:none" points="627.754,1171.03 627.754,1152.13 "/>
<polyline clip-path="url(#clip480)" style="stroke:#000000; stroke-linecap:round; stroke-linejoin:round; stroke-width:4; stroke-opacity:1; fill:none" points="1052.43,1171.03 1052.43,1152.13 "/>
<polyline clip-path="url(#clip480)" style="stroke:#000000; stroke-linecap:round; stroke-linejoin:round; stroke-width:4; stroke-opacity:1; fill:none" points="1477.11,1171.03 1477.11,1152.13 "/>
<polyline clip-path="url(#clip480)" style="stroke:#000000; stroke-linecap:round; stroke-linejoin:round; stroke-width:4; stroke-opacity:1; fill:none" points="1901.79,1171.03 1901.79,1152.13 "/>
<path clip-path="url(#clip480)" d="M149.602 1213.4 L179.278 1213.4 L179.278 1217.34 L149.602 1217.34 L149.602 1213.4 Z" fill="#000000" fill-rule="nonzero" fill-opacity="1" /><path clip-path="url(#clip480)" d="M190.18 1226.3 L197.819 1226.3 L197.819 1199.93 L189.509 1201.6 L189.509 1197.34 L197.773 1195.67 L202.449 1195.67 L202.449 1226.3 L210.088 1226.3 L210.088 1230.23 L190.18 1230.23 L190.18 1226.3 Z" fill="#000000" fill-rule="nonzero" fill-opacity="1" /><path clip-path="url(#clip480)" d="M219.532 1224.35 L224.416 1224.35 L224.416 1230.23 L219.532 1230.23 L219.532 1224.35 Z" fill="#000000" fill-rule="nonzero" fill-opacity="1" /><path clip-path="url(#clip480)" d="M244.601 1198.75 Q240.99 1198.75 239.162 1202.31 Q237.356 1205.86 237.356 1212.98 Q237.356 1220.09 239.162 1223.66 Q240.99 1227.2 244.601 1227.2 Q248.236 1227.2 250.041 1223.66 Q251.87 1220.09 251.87 1212.98 Q251.87 1205.86 250.041 1202.31 Q248.236 1198.75 244.601 1198.75 M244.601 1195.05 Q250.411 1195.05 253.467 1199.65 Q256.546 1204.24 256.546 1212.98 Q256.546 1221.71 253.467 1226.32 Q250.411 1230.9 244.601 1230.9 Q238.791 1230.9 235.712 1226.32 Q232.657 1221.71 232.657 1212.98 Q232.657 1204.24 235.712 1199.65 Q238.791 1195.05 244.601 1195.05 Z" fill="#000000" fill-rule="nonzero" fill-opacity="1" /><path clip-path="url(#clip480)" d="M574.78 1213.4 L604.455 1213.4 L604.455 1217.34 L574.78 1217.34 L574.78 1213.4 Z" fill="#000000" fill-rule="nonzero" fill-opacity="1" /><path clip-path="url(#clip480)" d="M624.548 1198.75 Q620.937 1198.75 619.108 1202.31 Q617.303 1205.86 617.303 1212.98 Q617.303 1220.09 619.108 1223.66 Q620.937 1227.2 624.548 1227.2 Q628.182 1227.2 629.988 1223.66 Q631.816 1220.09 631.816 1212.98 Q631.816 1205.86 629.988 1202.31 Q628.182 1198.75 624.548 1198.75 M624.548 1195.05 Q630.358 1195.05 633.414 1199.65 Q636.492 1204.24 636.492 1212.98 Q636.492 1221.71 633.414 1226.32 Q630.358 1230.9 624.548 1230.9 Q618.738 1230.9 615.659 1226.32 Q612.603 1221.71 612.603 1212.98 Q612.603 1204.24 615.659 1199.65 Q618.738 1195.05 624.548 1195.05 Z" fill="#000000" fill-rule="nonzero" fill-opacity="1" /><path clip-path="url(#clip480)" d="M644.71 1224.35 L649.594 1224.35 L649.594 1230.23 L644.71 1230.23 L644.71 1224.35 Z" fill="#000000" fill-rule="nonzero" fill-opacity="1" /><path clip-path="url(#clip480)" d="M659.825 1195.67 L678.182 1195.67 L678.182 1199.61 L664.108 1199.61 L664.108 1208.08 Q665.126 1207.73 666.145 1207.57 Q667.163 1207.38 668.182 1207.38 Q673.969 1207.38 677.349 1210.55 Q680.728 1213.73 680.728 1219.14 Q680.728 1224.72 677.256 1227.82 Q673.784 1230.9 667.464 1230.9 Q665.288 1230.9 663.02 1230.53 Q660.775 1230.16 658.367 1229.42 L658.367 1224.72 Q660.45 1225.86 662.673 1226.41 Q664.895 1226.97 667.372 1226.97 Q671.376 1226.97 673.714 1224.86 Q676.052 1222.75 676.052 1219.14 Q676.052 1215.53 673.714 1213.42 Q671.376 1211.32 667.372 1211.32 Q665.497 1211.32 663.622 1211.74 Q661.77 1212.15 659.825 1213.03 L659.825 1195.67 Z" fill="#000000" fill-rule="nonzero" fill-opacity="1" /><path clip-path="url(#clip480)" d="M1029.82 1198.75 Q1026.21 1198.75 1024.38 1202.31 Q1022.57 1205.86 1022.57 1212.98 Q1022.57 1220.09 1024.38 1223.66 Q1026.21 1227.2 1029.82 1227.2 Q1033.45 1227.2 1035.26 1223.66 Q1037.09 1220.09 1037.09 1212.98 Q1037.09 1205.86 1035.26 1202.31 Q1033.45 1198.75 1029.82 1198.75 M1029.82 1195.05 Q1035.63 1195.05 1038.68 1199.65 Q1041.76 1204.24 1041.76 1212.98 Q1041.76 1221.71 1038.68 1226.32 Q1035.63 1230.9 1029.82 1230.9 Q1024.01 1230.9 1020.93 1226.32 Q1017.87 1221.71 1017.87 1212.98 Q1017.87 1204.24 1020.93 1199.65 Q1024.01 1195.05 1029.82 1195.05 Z" fill="#000000" fill-rule="nonzero" fill-opacity="1" /><path clip-path="url(#clip480)" d="M1049.98 1224.35 L1054.86 1224.35 L1054.86 1230.23 L1049.98 1230.23 L1049.98 1224.35 Z" fill="#000000" fill-rule="nonzero" fill-opacity="1" /><path clip-path="url(#clip480)" d="M1075.05 1198.75 Q1071.44 1198.75 1069.61 1202.31 Q1067.8 1205.86 1067.8 1212.98 Q1067.8 1220.09 1069.61 1223.66 Q1071.44 1227.2 1075.05 1227.2 Q1078.68 1227.2 1080.49 1223.66 Q1082.32 1220.09 1082.32 1212.98 Q1082.32 1205.86 1080.49 1202.31 Q1078.68 1198.75 1075.05 1198.75 M1075.05 1195.05 Q1080.86 1195.05 1083.92 1199.65 Q1086.99 1204.24 1086.99 1212.98 Q1086.99 1221.71 1083.92 1226.32 Q1080.86 1230.9 1075.05 1230.9 Q1069.24 1230.9 1066.16 1226.32 Q1063.11 1221.71 1063.11 1212.98 Q1063.11 1204.24 1066.16 1199.65 Q1069.24 1195.05 1075.05 1195.05 Z" fill="#000000" fill-rule="nonzero" fill-opacity="1" /><path clip-path="url(#clip480)" d="M1455 1198.75 Q1451.39 1198.75 1449.56 1202.31 Q1447.75 1205.86 1447.75 1212.98 Q1447.75 1220.09 1449.56 1223.66 Q1451.39 1227.2 1455 1227.2 Q1458.63 1227.2 1460.44 1223.66 Q1462.26 1220.09 1462.26 1212.98 Q1462.26 1205.86 1460.44 1202.31 Q1458.63 1198.75 1455 1198.75 M1455 1195.05 Q1460.81 1195.05 1463.86 1199.65 Q1466.94 1204.24 1466.94 1212.98 Q1466.94 1221.71 1463.86 1226.32 Q1460.81 1230.9 1455 1230.9 Q1449.19 1230.9 1446.11 1226.32 Q1443.05 1221.71 1443.05 1212.98 Q1443.05 1204.24 1446.11 1199.65 Q1449.19 1195.05 1455 1195.05 Z" fill="#000000" fill-rule="nonzero" fill-opacity="1" /><path clip-path="url(#clip480)" d="M1475.16 1224.35 L1480.04 1224.35 L1480.04 1230.23 L1475.16 1230.23 L1475.16 1224.35 Z" fill="#000000" fill-rule="nonzero" fill-opacity="1" /><path clip-path="url(#clip480)" d="M1490.27 1195.67 L1508.63 1195.67 L1508.63 1199.61 L1494.56 1199.61 L1494.56 1208.08 Q1495.57 1207.73 1496.59 1207.57 Q1497.61 1207.38 1498.63 1207.38 Q1504.42 1207.38 1507.8 1210.55 Q1511.18 1213.73 1511.18 1219.14 Q1511.18 1224.72 1507.7 1227.82 Q1504.23 1230.9 1497.91 1230.9 Q1495.74 1230.9 1493.47 1230.53 Q1491.22 1230.16 1488.82 1229.42 L1488.82 1224.72 Q1490.9 1225.86 1493.12 1226.41 Q1495.34 1226.97 1497.82 1226.97 Q1501.82 1226.97 1504.16 1224.86 Q1506.5 1222.75 1506.5 1219.14 Q1506.5 1215.53 1504.16 1213.42 Q1501.82 1211.32 1497.82 1211.32 Q1495.95 1211.32 1494.07 1211.74 Q1492.22 1212.15 1490.27 1213.03 L1490.27 1195.67 Z" fill="#000000" fill-rule="nonzero" fill-opacity="1" /><path clip-path="url(#clip480)" d="M1868.95 1226.3 L1876.59 1226.3 L1876.59 1199.93 L1868.28 1201.6 L1868.28 1197.34 L1876.54 1195.67 L1881.22 1195.67 L1881.22 1226.3 L1888.85 1226.3 L1888.85 1230.23 L1868.95 1230.23 L1868.95 1226.3 Z" fill="#000000" fill-rule="nonzero" fill-opacity="1" /><path clip-path="url(#clip480)" d="M1898.3 1224.35 L1903.18 1224.35 L1903.18 1230.23 L1898.3 1230.23 L1898.3 1224.35 Z" fill="#000000" fill-rule="nonzero" fill-opacity="1" /><path clip-path="url(#clip480)" d="M1923.37 1198.75 Q1919.76 1198.75 1917.93 1202.31 Q1916.12 1205.86 1916.12 1212.98 Q1916.12 1220.09 1917.93 1223.66 Q1919.76 1227.2 1923.37 1227.2 Q1927 1227.2 1928.81 1223.66 Q1930.64 1220.09 1930.64 1212.98 Q1930.64 1205.86 1928.81 1202.31 Q1927 1198.75 1923.37 1198.75 M1923.37 1195.05 Q1929.18 1195.05 1932.23 1199.65 Q1935.31 1204.24 1935.31 1212.98 Q1935.31 1221.71 1932.23 1226.32 Q1929.18 1230.9 1923.37 1230.9 Q1917.56 1230.9 1914.48 1226.32 Q1911.42 1221.71 1911.42 1212.98 Q1911.42 1204.24 1914.48 1199.65 Q1917.56 1195.05 1923.37 1195.05 Z" fill="#000000" fill-rule="nonzero" fill-opacity="1" /><polyline clip-path="url(#clip480)" style="stroke:#000000; stroke-linecap:round; stroke-linejoin:round; stroke-width:4; stroke-opacity:1; fill:none" points="152.112,1171.03 152.112,47.2441 "/>
<polyline clip-path="url(#clip480)" style="stroke:#000000; stroke-linecap:round; stroke-linejoin:round; stroke-width:4; stroke-opacity:1; fill:none" points="152.112,1014.62 171.01,1014.62 "/>
<polyline clip-path="url(#clip480)" style="stroke:#000000; stroke-linecap:round; stroke-linejoin:round; stroke-width:4; stroke-opacity:1; fill:none" points="152.112,785.949 171.01,785.949 "/>
<polyline clip-path="url(#clip480)" style="stroke:#000000; stroke-linecap:round; stroke-linejoin:round; stroke-width:4; stroke-opacity:1; fill:none" points="152.112,557.275 171.01,557.275 "/>
<polyline clip-path="url(#clip480)" style="stroke:#000000; stroke-linecap:round; stroke-linejoin:round; stroke-width:4; stroke-opacity:1; fill:none" points="152.112,328.6 171.01,328.6 "/>
<polyline clip-path="url(#clip480)" style="stroke:#000000; stroke-linecap:round; stroke-linejoin:round; stroke-width:4; stroke-opacity:1; fill:none" points="152.112,99.9261 171.01,99.9261 "/>
<path clip-path="url(#clip480)" d="M64.9365 1000.42 Q61.3254 1000.42 59.4967 1003.99 Q57.6912 1007.53 57.6912 1014.66 Q57.6912 1021.76 59.4967 1025.33 Q61.3254 1028.87 64.9365 1028.87 Q68.5707 1028.87 70.3763 1025.33 Q72.205 1021.76 72.205 1014.66 Q72.205 1007.53 70.3763 1003.99 Q68.5707 1000.42 64.9365 1000.42 M64.9365 996.718 Q70.7467 996.718 73.8022 1001.32 Q76.8809 1005.91 76.8809 1014.66 Q76.8809 1023.38 73.8022 1027.99 Q70.7467 1032.57 64.9365 1032.57 Q59.1264 1032.57 56.0477 1027.99 Q52.9921 1023.38 52.9921 1014.66 Q52.9921 1005.91 56.0477 1001.32 Q59.1264 996.718 64.9365 996.718 Z" fill="#000000" fill-rule="nonzero" fill-opacity="1" /><path clip-path="url(#clip480)" d="M85.0984 1026.02 L89.9827 1026.02 L89.9827 1031.9 L85.0984 1031.9 L85.0984 1026.02 Z" fill="#000000" fill-rule="nonzero" fill-opacity="1" /><path clip-path="url(#clip480)" d="M110.168 1000.42 Q106.557 1000.42 104.728 1003.99 Q102.922 1007.53 102.922 1014.66 Q102.922 1021.76 104.728 1025.33 Q106.557 1028.87 110.168 1028.87 Q113.802 1028.87 115.608 1025.33 Q117.436 1021.76 117.436 1014.66 Q117.436 1007.53 115.608 1003.99 Q113.802 1000.42 110.168 1000.42 M110.168 996.718 Q115.978 996.718 119.033 1001.32 Q122.112 1005.91 122.112 1014.66 Q122.112 1023.38 119.033 1027.99 Q115.978 1032.57 110.168 1032.57 Q104.358 1032.57 101.279 1027.99 Q98.2234 1023.38 98.2234 1014.66 Q98.2234 1005.91 101.279 1001.32 Q104.358 996.718 110.168 996.718 Z" fill="#000000" fill-rule="nonzero" fill-opacity="1" /><path clip-path="url(#clip480)" d="M65.9319 771.748 Q62.3208 771.748 60.4921 775.312 Q58.6865 778.854 58.6865 785.984 Q58.6865 793.09 60.4921 796.655 Q62.3208 800.197 65.9319 800.197 Q69.5661 800.197 71.3717 796.655 Q73.2004 793.09 73.2004 785.984 Q73.2004 778.854 71.3717 775.312 Q69.5661 771.748 65.9319 771.748 M65.9319 768.044 Q71.742 768.044 74.7976 772.65 Q77.8763 777.234 77.8763 785.984 Q77.8763 794.71 74.7976 799.317 Q71.742 803.9 65.9319 803.9 Q60.1217 803.9 57.043 799.317 Q53.9875 794.71 53.9875 785.984 Q53.9875 777.234 57.043 772.65 Q60.1217 768.044 65.9319 768.044 Z" fill="#000000" fill-rule="nonzero" fill-opacity="1" /><path clip-path="url(#clip480)" d="M86.0938 797.349 L90.978 797.349 L90.978 803.229 L86.0938 803.229 L86.0938 797.349 Z" fill="#000000" fill-rule="nonzero" fill-opacity="1" /><path clip-path="url(#clip480)" d="M101.209 768.669 L119.566 768.669 L119.566 772.604 L105.492 772.604 L105.492 781.076 Q106.51 780.729 107.529 780.567 Q108.547 780.382 109.566 780.382 Q115.353 780.382 118.733 783.553 Q122.112 786.724 122.112 792.141 Q122.112 797.72 118.64 800.822 Q115.168 803.9 108.848 803.9 Q106.672 803.9 104.404 803.53 Q102.159 803.159 99.7511 802.419 L99.7511 797.72 Q101.834 798.854 104.057 799.409 Q106.279 799.965 108.756 799.965 Q112.76 799.965 115.098 797.859 Q117.436 795.752 117.436 792.141 Q117.436 788.53 115.098 786.423 Q112.76 784.317 108.756 784.317 Q106.881 784.317 105.006 784.734 Q103.154 785.15 101.209 786.03 L101.209 768.669 Z" fill="#000000" fill-rule="nonzero" fill-opacity="1" /><path clip-path="url(#clip480)" d="M55.7467 570.619 L63.3856 570.619 L63.3856 544.254 L55.0754 545.921 L55.0754 541.661 L63.3393 539.995 L68.0152 539.995 L68.0152 570.619 L75.654 570.619 L75.654 574.555 L55.7467 574.555 L55.7467 570.619 Z" fill="#000000" fill-rule="nonzero" fill-opacity="1" /><path clip-path="url(#clip480)" d="M85.0984 568.675 L89.9827 568.675 L89.9827 574.555 L85.0984 574.555 L85.0984 568.675 Z" fill="#000000" fill-rule="nonzero" fill-opacity="1" /><path clip-path="url(#clip480)" d="M110.168 543.073 Q106.557 543.073 104.728 546.638 Q102.922 550.18 102.922 557.309 Q102.922 564.416 104.728 567.981 Q106.557 571.522 110.168 571.522 Q113.802 571.522 115.608 567.981 Q117.436 564.416 117.436 557.309 Q117.436 550.18 115.608 546.638 Q113.802 543.073 110.168 543.073 M110.168 539.37 Q115.978 539.37 119.033 543.976 Q122.112 548.559 122.112 557.309 Q122.112 566.036 119.033 570.643 Q115.978 575.226 110.168 575.226 Q104.358 575.226 101.279 570.643 Q98.2234 566.036 98.2234 557.309 Q98.2234 548.559 101.279 543.976 Q104.358 539.37 110.168 539.37 Z" fill="#000000" fill-rule="nonzero" fill-opacity="1" /><path clip-path="url(#clip480)" d="M56.7421 341.945 L64.381 341.945 L64.381 315.58 L56.0708 317.246 L56.0708 312.987 L64.3347 311.32 L69.0106 311.32 L69.0106 341.945 L76.6494 341.945 L76.6494 345.88 L56.7421 345.88 L56.7421 341.945 Z" fill="#000000" fill-rule="nonzero" fill-opacity="1" /><path clip-path="url(#clip480)" d="M86.0938 340.001 L90.978 340.001 L90.978 345.88 L86.0938 345.88 L86.0938 340.001 Z" fill="#000000" fill-rule="nonzero" fill-opacity="1" /><path clip-path="url(#clip480)" d="M101.209 311.32 L119.566 311.32 L119.566 315.256 L105.492 315.256 L105.492 323.728 Q106.51 323.38 107.529 323.218 Q108.547 323.033 109.566 323.033 Q115.353 323.033 118.733 326.205 Q122.112 329.376 122.112 334.792 Q122.112 340.371 118.64 343.473 Q115.168 346.552 108.848 346.552 Q106.672 346.552 104.404 346.181 Q102.159 345.811 99.7511 345.07 L99.7511 340.371 Q101.834 341.505 104.057 342.061 Q106.279 342.616 108.756 342.616 Q112.76 342.616 115.098 340.51 Q117.436 338.404 117.436 334.792 Q117.436 331.181 115.098 329.075 Q112.76 326.968 108.756 326.968 Q106.881 326.968 105.006 327.385 Q103.154 327.802 101.209 328.681 L101.209 311.32 Z" fill="#000000" fill-rule="nonzero" fill-opacity="1" /><path clip-path="url(#clip480)" d="M58.9643 113.271 L75.2837 113.271 L75.2837 117.206 L53.3393 117.206 L53.3393 113.271 Q56.0014 110.516 60.5847 105.887 Q65.1911 101.234 66.3717 99.8914 Q68.617 97.3682 69.4967 95.6321 Q70.3994 93.8729 70.3994 92.1831 Q70.3994 89.4284 68.455 87.6923 Q66.5337 85.9562 63.4319 85.9562 Q61.2328 85.9562 58.7791 86.7201 Q56.3486 87.484 53.5708 89.0349 L53.5708 84.3127 Q56.3949 83.1785 58.8486 82.5998 Q61.3023 82.0211 63.3393 82.0211 Q68.7096 82.0211 71.9041 84.7062 Q75.0985 87.3914 75.0985 91.8821 Q75.0985 94.0118 74.2883 95.933 Q73.5013 97.8312 71.3948 100.424 Q70.8161 101.095 67.7143 104.313 Q64.6124 107.507 58.9643 113.271 Z" fill="#000000" fill-rule="nonzero" fill-opacity="1" /><path clip-path="url(#clip480)" d="M85.0984 111.326 L89.9827 111.326 L89.9827 117.206 L85.0984 117.206 L85.0984 111.326 Z" fill="#000000" fill-rule="nonzero" fill-opacity="1" /><path clip-path="url(#clip480)" d="M110.168 85.7248 Q106.557 85.7248 104.728 89.2896 Q102.922 92.8312 102.922 99.9608 Q102.922 107.067 104.728 110.632 Q106.557 114.174 110.168 114.174 Q113.802 114.174 115.608 110.632 Q117.436 107.067 117.436 99.9608 Q117.436 92.8312 115.608 89.2896 Q113.802 85.7248 110.168 85.7248 M110.168 82.0211 Q115.978 82.0211 119.033 86.6275 Q122.112 91.2108 122.112 99.9608 Q122.112 108.688 119.033 113.294 Q115.978 117.877 110.168 117.877 Q104.358 117.877 101.279 113.294 Q98.2234 108.688 98.2234 99.9608 Q98.2234 91.2108 101.279 86.6275 Q104.358 82.0211 110.168 82.0211 Z" fill="#000000" fill-rule="nonzero" fill-opacity="1" /><circle clip-path="url(#clip482)" cx="203.074" cy="1035.5" r="10.8" fill="#009af9" fill-rule="evenodd" fill-opacity="1" stroke="#000000" stroke-opacity="1" stroke-width="2.56"/>
<circle clip-path="url(#clip482)" cx="297.447" cy="1039.71" r="10.8" fill="#009af9" fill-rule="evenodd" fill-opacity="1" stroke="#000000" stroke-opacity="1" stroke-width="2.56"/>
<circle clip-path="url(#clip482)" cx="391.82" cy="1097.14" r="10.8" fill="#009af9" fill-rule="evenodd" fill-opacity="1" stroke="#000000" stroke-opacity="1" stroke-width="2.56"/>
<circle clip-path="url(#clip482)" cx="486.194" cy="1132.13" r="10.8" fill="#009af9" fill-rule="evenodd" fill-opacity="1" stroke="#000000" stroke-opacity="1" stroke-width="2.56"/>
<circle clip-path="url(#clip482)" cx="580.567" cy="1104.83" r="10.8" fill="#009af9" fill-rule="evenodd" fill-opacity="1" stroke="#000000" stroke-opacity="1" stroke-width="2.56"/>
<circle clip-path="url(#clip482)" cx="674.941" cy="1139.23" r="10.8" fill="#009af9" fill-rule="evenodd" fill-opacity="1" stroke="#000000" stroke-opacity="1" stroke-width="2.56"/>
<circle clip-path="url(#clip482)" cx="769.314" cy="1124.81" r="10.8" fill="#009af9" fill-rule="evenodd" fill-opacity="1" stroke="#000000" stroke-opacity="1" stroke-width="2.56"/>
<circle clip-path="url(#clip482)" cx="863.687" cy="1071.62" r="10.8" fill="#009af9" fill-rule="evenodd" fill-opacity="1" stroke="#000000" stroke-opacity="1" stroke-width="2.56"/>
<circle clip-path="url(#clip482)" cx="958.061" cy="1077.98" r="10.8" fill="#009af9" fill-rule="evenodd" fill-opacity="1" stroke="#000000" stroke-opacity="1" stroke-width="2.56"/>
<circle clip-path="url(#clip482)" cx="1052.43" cy="1014.62" r="10.8" fill="#009af9" fill-rule="evenodd" fill-opacity="1" stroke="#000000" stroke-opacity="1" stroke-width="2.56"/>
<circle clip-path="url(#clip482)" cx="1146.81" cy="939.976" r="10.8" fill="#009af9" fill-rule="evenodd" fill-opacity="1" stroke="#000000" stroke-opacity="1" stroke-width="2.56"/>
<circle clip-path="url(#clip482)" cx="1241.18" cy="912.457" r="10.8" fill="#009af9" fill-rule="evenodd" fill-opacity="1" stroke="#000000" stroke-opacity="1" stroke-width="2.56"/>
<circle clip-path="url(#clip482)" cx="1335.55" cy="802.801" r="10.8" fill="#009af9" fill-rule="evenodd" fill-opacity="1" stroke="#000000" stroke-opacity="1" stroke-width="2.56"/>
<circle clip-path="url(#clip482)" cx="1429.93" cy="709.34" r="10.8" fill="#009af9" fill-rule="evenodd" fill-opacity="1" stroke="#000000" stroke-opacity="1" stroke-width="2.56"/>
<circle clip-path="url(#clip482)" cx="1524.3" cy="642.099" r="10.8" fill="#009af9" fill-rule="evenodd" fill-opacity="1" stroke="#000000" stroke-opacity="1" stroke-width="2.56"/>
<circle clip-path="url(#clip482)" cx="1618.67" cy="490.589" r="10.8" fill="#009af9" fill-rule="evenodd" fill-opacity="1" stroke="#000000" stroke-opacity="1" stroke-width="2.56"/>
<circle clip-path="url(#clip482)" cx="1713.05" cy="378.768" r="10.8" fill="#009af9" fill-rule="evenodd" fill-opacity="1" stroke="#000000" stroke-opacity="1" stroke-width="2.56"/>
<circle clip-path="url(#clip482)" cx="1807.42" cy="266.808" r="10.8" fill="#009af9" fill-rule="evenodd" fill-opacity="1" stroke="#000000" stroke-opacity="1" stroke-width="2.56"/>
<circle clip-path="url(#clip482)" cx="1901.79" cy="79.0494" r="10.8" fill="#009af9" fill-rule="evenodd" fill-opacity="1" stroke="#000000" stroke-opacity="1" stroke-width="2.56"/>
<path clip-path="url(#clip480)" d="M912.472 188.384 L1192.4 188.384 L1192.4 84.7036 L912.472 84.7036  Z" fill="#ffffff" fill-rule="evenodd" fill-opacity="1"/>
<polyline clip-path="url(#clip480)" style="stroke:#000000; stroke-linecap:round; stroke-linejoin:round; stroke-width:4; stroke-opacity:1; fill:none" points="912.472,188.384 1192.4,188.384 1192.4,84.7036 912.472,84.7036 912.472,188.384 "/>
<circle clip-path="url(#clip480)" cx="992.5" cy="136.544" r="19.7486" fill="#009af9" fill-rule="evenodd" fill-opacity="1" stroke="#000000" stroke-opacity="1" stroke-width="4.68114"/>
<path clip-path="url(#clip480)" d="M1091.44 131.833 L1091.44 117.805 L1095.7 117.805 L1095.7 153.824 L1091.44 153.824 L1091.44 149.935 Q1090.1 152.25 1088.04 153.384 Q1086 154.495 1083.13 154.495 Q1078.43 154.495 1075.47 150.745 Q1072.53 146.995 1072.53 140.884 Q1072.53 134.773 1075.47 131.023 Q1078.43 127.273 1083.13 127.273 Q1086 127.273 1088.04 128.407 Q1090.1 129.518 1091.44 131.833 M1076.93 140.884 Q1076.93 145.583 1078.85 148.268 Q1080.79 150.93 1084.17 150.93 Q1087.55 150.93 1089.5 148.268 Q1091.44 145.583 1091.44 140.884 Q1091.44 136.185 1089.5 133.523 Q1087.55 130.838 1084.17 130.838 Q1080.79 130.838 1078.85 133.523 Q1076.93 136.185 1076.93 140.884 Z" fill="#000000" fill-rule="nonzero" fill-opacity="1" /><path clip-path="url(#clip480)" d="M1116.26 140.791 Q1111.09 140.791 1109.1 141.972 Q1107.11 143.152 1107.11 146 Q1107.11 148.268 1108.59 149.611 Q1110.1 150.93 1112.67 150.93 Q1116.21 150.93 1118.34 148.43 Q1120.49 145.907 1120.49 141.74 L1120.49 140.791 L1116.26 140.791 M1124.75 139.032 L1124.75 153.824 L1120.49 153.824 L1120.49 149.888 Q1119.03 152.25 1116.86 153.384 Q1114.68 154.495 1111.53 154.495 Q1107.55 154.495 1105.19 152.273 Q1102.85 150.027 1102.85 146.277 Q1102.85 141.902 1105.77 139.68 Q1108.71 137.458 1114.52 137.458 L1120.49 137.458 L1120.49 137.041 Q1120.49 134.102 1118.55 132.504 Q1116.63 130.884 1113.13 130.884 Q1110.91 130.884 1108.8 131.416 Q1106.7 131.949 1104.75 133.014 L1104.75 129.078 Q1107.09 128.176 1109.29 127.736 Q1111.49 127.273 1113.57 127.273 Q1119.2 127.273 1121.97 130.19 Q1124.75 133.106 1124.75 139.032 Z" fill="#000000" fill-rule="nonzero" fill-opacity="1" /><path clip-path="url(#clip480)" d="M1137.74 120.537 L1137.74 127.898 L1146.51 127.898 L1146.51 131.208 L1137.74 131.208 L1137.74 145.282 Q1137.74 148.453 1138.59 149.356 Q1139.47 150.259 1142.13 150.259 L1146.51 150.259 L1146.51 153.824 L1142.13 153.824 Q1137.2 153.824 1135.33 151.995 Q1133.45 150.143 1133.45 145.282 L1133.45 131.208 L1130.33 131.208 L1130.33 127.898 L1133.45 127.898 L1133.45 120.537 L1137.74 120.537 Z" fill="#000000" fill-rule="nonzero" fill-opacity="1" /><path clip-path="url(#clip480)" d="M1163.89 140.791 Q1158.73 140.791 1156.74 141.972 Q1154.75 143.152 1154.75 146 Q1154.75 148.268 1156.23 149.611 Q1157.74 150.93 1160.31 150.93 Q1163.85 150.93 1165.98 148.43 Q1168.13 145.907 1168.13 141.74 L1168.13 140.791 L1163.89 140.791 M1172.39 139.032 L1172.39 153.824 L1168.13 153.824 L1168.13 149.888 Q1166.67 152.25 1164.5 153.384 Q1162.32 154.495 1159.17 154.495 Q1155.19 154.495 1152.83 152.273 Q1150.49 150.027 1150.49 146.277 Q1150.49 141.902 1153.41 139.68 Q1156.35 137.458 1162.16 137.458 L1168.13 137.458 L1168.13 137.041 Q1168.13 134.102 1166.19 132.504 Q1164.26 130.884 1160.77 130.884 Q1158.55 130.884 1156.44 131.416 Q1154.33 131.949 1152.39 133.014 L1152.39 129.078 Q1154.73 128.176 1156.93 127.736 Q1159.13 127.273 1161.21 127.273 Q1166.83 127.273 1169.61 130.19 Q1172.39 133.106 1172.39 139.032 Z" fill="#000000" fill-rule="nonzero" fill-opacity="1" /></svg>
