<?xml version="1.0" encoding="utf-8"?>
<svg xmlns="http://www.w3.org/2000/svg" xmlns:xlink="http://www.w3.org/1999/xlink" width="500" height="320" viewBox="0 0 2000 1280">
<defs>
  <clipPath id="clip110">
    <rect x="0" y="0" width="2000" height="1280"/>
  </clipPath>
</defs>
<path clip-path="url(#clip110)" d="M0 1280 L2000 1280 L2000 0 L0 0  Z" fill="#ffffff" fill-rule="evenodd" fill-opacity="1"/>
<defs>
  <clipPath id="clip111">
    <rect x="400" y="0" width="1401" height="1280"/>
  </clipPath>
</defs>
<path clip-path="url(#clip110)" d="M245.244 1111.02 L1952.76 1111.02 L1952.76 107.256 L245.244 107.256  Z" fill="#ffffff" fill-rule="evenodd" fill-opacity="1"/>
<defs>
  <clipPath id="clip112">
    <rect x="245" y="107" width="1709" height="1005"/>
  </clipPath>
</defs>
<polyline clip-path="url(#clip112)" style="stroke:#000000; stroke-linecap:round; stroke-linejoin:round; stroke-width:2; stroke-opacity:0.1; fill:none" points="293.57,1111.02 293.57,107.256 "/>
<polyline clip-path="url(#clip112)" style="stroke:#000000; stroke-linecap:round; stroke-linejoin:round; stroke-width:2; stroke-opacity:0.1; fill:none" points="603.351,1111.02 603.351,107.256 "/>
<polyline clip-path="url(#clip112)" style="stroke:#000000; stroke-linecap:round; stroke-linejoin:round; stroke-width:2; stroke-opacity:0.1; fill:none" points="913.132,1111.02 913.132,107.256 "/>
<polyline clip-path="url(#clip112)" style="stroke:#000000; stroke-linecap:round; stroke-linejoin:round; stroke-width:2; stroke-opacity:0.1; fill:none" points="1222.91,1111.02 1222.91,107.256 "/>
<polyline clip-path="url(#clip112)" style="stroke:#000000; stroke-linecap:round; stroke-linejoin:round; stroke-width:2; stroke-opacity:0.1; fill:none" points="1532.69,1111.02 1532.69,107.256 "/>
<polyline clip-path="url(#clip112)" style="stroke:#000000; stroke-linecap:round; stroke-linejoin:round; stroke-width:2; stroke-opacity:0.1; fill:none" points="1842.47,1111.02 1842.47,107.256 "/>
<polyline clip-path="url(#clip112)" style="stroke:#000000; stroke-linecap:round; stroke-linejoin:round; stroke-width:2; stroke-opacity:0.1; fill:none" points="245.244,1080.03 1952.76,1080.03 "/>
<polyline clip-path="url(#clip112)" style="stroke:#000000; stroke-linecap:round; stroke-linejoin:round; stroke-width:2; stroke-opacity:0.1; fill:none" points="245.244,571.862 1952.76,571.862 "/>
<polyline clip-path="url(#clip110)" style="stroke:#000000; stroke-linecap:round; stroke-linejoin:round; stroke-width:4; stroke-opacity:1; fill:none" points="245.244,1111.02 1952.76,1111.02 "/>
<polyline clip-path="url(#clip110)" style="stroke:#000000; stroke-linecap:round; stroke-linejoin:round; stroke-width:4; stroke-opacity:1; fill:none" points="293.57,1111.02 293.57,1092.12 "/>
<polyline clip-path="url(#clip110)" style="stroke:#000000; stroke-linecap:round; stroke-linejoin:round; stroke-width:4; stroke-opacity:1; fill:none" points="603.351,1111.02 603.351,1092.12 "/>
<polyline clip-path="url(#clip110)" style="stroke:#000000; stroke-linecap:round; stroke-linejoin:round; stroke-width:4; stroke-opacity:1; fill:none" points="913.132,1111.02 913.132,1092.12 "/>
<polyline clip-path="url(#clip110)" style="stroke:#000000; stroke-linecap:round; stroke-linejoin:round; stroke-width:4; stroke-opacity:1; fill:none" points="1222.91,1111.02 1222.91,1092.12 "/>
<polyline clip-path="url(#clip110)" style="stroke:#000000; stroke-linecap:round; stroke-linejoin:round; stroke-width:4; stroke-opacity:1; fill:none" points="1532.69,1111.02 1532.69,1092.12 "/>
<polyline clip-path="url(#clip110)" style="stroke:#000000; stroke-linecap:round; stroke-linejoin:round; stroke-width:4; stroke-opacity:1; fill:none" points="1842.47,1111.02 1842.47,1092.12 "/>
<path clip-path="url(#clip110)" d="M293.57 1138.74 Q289.959 1138.74 288.13 1142.3 Q286.325 1145.84 286.325 1152.97 Q286.325 1160.08 288.13 1163.64 Q289.959 1167.19 293.57 1167.19 Q297.204 1167.19 299.01 1163.64 Q300.839 1160.08 300.839 1152.97 Q300.839 1145.84 299.01 1142.3 Q297.204 1138.74 293.57 1138.74 M293.57 1135.03 Q299.38 1135.03 302.436 1139.64 Q305.515 1144.22 305.515 1152.97 Q305.515 1161.7 302.436 1166.31 Q299.38 1170.89 293.57 1170.89 Q287.76 1170.89 284.681 1166.31 Q281.626 1161.7 281.626 1152.97 Q281.626 1144.22 284.681 1139.64 Q287.76 1135.03 293.57 1135.03 Z" fill="#000000" fill-rule="nonzero" fill-opacity="1" /><path clip-path="url(#clip110)" d="M578.05 1135.66 L596.407 1135.66 L596.407 1139.59 L582.333 1139.59 L582.333 1148.07 Q583.351 1147.72 584.37 1147.56 Q585.388 1147.37 586.407 1147.37 Q592.194 1147.37 595.573 1150.54 Q598.953 1153.71 598.953 1159.13 Q598.953 1164.71 595.481 1167.81 Q592.008 1170.89 585.689 1170.89 Q583.513 1170.89 581.245 1170.52 Q578.999 1170.15 576.592 1169.41 L576.592 1164.71 Q578.675 1165.84 580.897 1166.4 Q583.12 1166.95 585.596 1166.95 Q589.601 1166.95 591.939 1164.85 Q594.277 1162.74 594.277 1159.13 Q594.277 1155.52 591.939 1153.41 Q589.601 1151.31 585.596 1151.31 Q583.721 1151.31 581.846 1151.72 Q579.995 1152.14 578.05 1153.02 L578.05 1135.66 Z" fill="#000000" fill-rule="nonzero" fill-opacity="1" /><path clip-path="url(#clip110)" d="M618.166 1138.74 Q614.555 1138.74 612.726 1142.3 Q610.92 1145.84 610.92 1152.97 Q610.92 1160.08 612.726 1163.64 Q614.555 1167.19 618.166 1167.19 Q621.8 1167.19 623.605 1163.64 Q625.434 1160.08 625.434 1152.97 Q625.434 1145.84 623.605 1142.3 Q621.8 1138.74 618.166 1138.74 M618.166 1135.03 Q623.976 1135.03 627.031 1139.64 Q630.11 1144.22 630.11 1152.97 Q630.11 1161.7 627.031 1166.31 Q623.976 1170.89 618.166 1170.89 Q612.356 1170.89 609.277 1166.31 Q606.221 1161.7 606.221 1152.97 Q606.221 1144.22 609.277 1139.64 Q612.356 1135.03 618.166 1135.03 Z" fill="#000000" fill-rule="nonzero" fill-opacity="1" /><path clip-path="url(#clip110)" d="M872.738 1166.28 L880.377 1166.28 L880.377 1139.92 L872.067 1141.58 L872.067 1137.33 L880.331 1135.66 L885.007 1135.66 L885.007 1166.28 L892.646 1166.28 L892.646 1170.22 L872.738 1170.22 L872.738 1166.28 Z" fill="#000000" fill-rule="nonzero" fill-opacity="1" /><path clip-path="url(#clip110)" d="M912.09 1138.74 Q908.479 1138.74 906.65 1142.3 Q904.845 1145.84 904.845 1152.97 Q904.845 1160.08 906.65 1163.64 Q908.479 1167.19 912.09 1167.19 Q915.724 1167.19 917.53 1163.64 Q919.359 1160.08 919.359 1152.97 Q919.359 1145.84 917.53 1142.3 Q915.724 1138.74 912.09 1138.74 M912.09 1135.03 Q917.9 1135.03 920.956 1139.64 Q924.034 1144.22 924.034 1152.97 Q924.034 1161.7 920.956 1166.31 Q917.9 1170.89 912.09 1170.89 Q906.28 1170.89 903.201 1166.31 Q900.146 1161.7 900.146 1152.97 Q900.146 1144.22 903.201 1139.64 Q906.28 1135.03 912.09 1135.03 Z" fill="#000000" fill-rule="nonzero" fill-opacity="1" /><path clip-path="url(#clip110)" d="M942.252 1138.74 Q938.641 1138.74 936.812 1142.3 Q935.007 1145.84 935.007 1152.97 Q935.007 1160.08 936.812 1163.64 Q938.641 1167.19 942.252 1167.19 Q945.886 1167.19 947.692 1163.64 Q949.52 1160.08 949.52 1152.97 Q949.52 1145.84 947.692 1142.3 Q945.886 1138.74 942.252 1138.74 M942.252 1135.03 Q948.062 1135.03 951.118 1139.64 Q954.196 1144.22 954.196 1152.97 Q954.196 1161.7 951.118 1166.31 Q948.062 1170.89 942.252 1170.89 Q936.442 1170.89 933.363 1166.31 Q930.308 1161.7 930.308 1152.97 Q930.308 1144.22 933.363 1139.64 Q936.442 1135.03 942.252 1135.03 Z" fill="#000000" fill-rule="nonzero" fill-opacity="1" /><path clip-path="url(#clip110)" d="M1182.52 1166.28 L1190.16 1166.28 L1190.16 1139.92 L1181.85 1141.58 L1181.85 1137.33 L1190.11 1135.66 L1194.79 1135.66 L1194.79 1166.28 L1202.43 1166.28 L1202.43 1170.22 L1182.52 1170.22 L1182.52 1166.28 Z" fill="#000000" fill-rule="nonzero" fill-opacity="1" /><path clip-path="url(#clip110)" d="M1211.92 1135.66 L1230.27 1135.66 L1230.27 1139.59 L1216.2 1139.59 L1216.2 1148.07 Q1217.22 1147.72 1218.24 1147.56 Q1219.26 1147.37 1220.27 1147.37 Q1226.06 1147.37 1229.44 1150.54 Q1232.82 1153.71 1232.82 1159.13 Q1232.82 1164.71 1229.35 1167.81 Q1225.88 1170.89 1219.56 1170.89 Q1217.38 1170.89 1215.11 1170.52 Q1212.87 1170.15 1210.46 1169.41 L1210.46 1164.71 Q1212.54 1165.84 1214.76 1166.4 Q1216.99 1166.95 1219.46 1166.95 Q1223.47 1166.95 1225.81 1164.85 Q1228.14 1162.74 1228.14 1159.13 Q1228.14 1155.52 1225.81 1153.41 Q1223.47 1151.31 1219.46 1151.31 Q1217.59 1151.31 1215.71 1151.72 Q1213.86 1152.14 1211.92 1153.02 L1211.92 1135.66 Z" fill="#000000" fill-rule="nonzero" fill-opacity="1" /><path clip-path="url(#clip110)" d="M1252.03 1138.74 Q1248.42 1138.74 1246.59 1142.3 Q1244.79 1145.84 1244.79 1152.97 Q1244.79 1160.08 1246.59 1163.64 Q1248.42 1167.19 1252.03 1167.19 Q1255.67 1167.19 1257.47 1163.64 Q1259.3 1160.08 1259.3 1152.97 Q1259.3 1145.84 1257.47 1142.3 Q1255.67 1138.74 1252.03 1138.74 M1252.03 1135.03 Q1257.84 1135.03 1260.9 1139.64 Q1263.98 1144.22 1263.98 1152.97 Q1263.98 1161.7 1260.9 1166.31 Q1257.84 1170.89 1252.03 1170.89 Q1246.22 1170.89 1243.14 1166.31 Q1240.09 1161.7 1240.09 1152.97 Q1240.09 1144.22 1243.14 1139.64 Q1246.22 1135.03 1252.03 1135.03 Z" fill="#000000" fill-rule="nonzero" fill-opacity="1" /><path clip-path="url(#clip110)" d="M1496.39 1166.28 L1512.7 1166.28 L1512.7 1170.22 L1490.76 1170.22 L1490.76 1166.28 Q1493.42 1163.53 1498.01 1158.9 Q1502.61 1154.25 1503.79 1152.9 Q1506.04 1150.38 1506.92 1148.64 Q1507.82 1146.89 1507.82 1145.2 Q1507.82 1142.44 1505.88 1140.7 Q1503.95 1138.97 1500.85 1138.97 Q1498.65 1138.97 1496.2 1139.73 Q1493.77 1140.5 1490.99 1142.05 L1490.99 1137.33 Q1493.82 1136.19 1496.27 1135.61 Q1498.72 1135.03 1500.76 1135.03 Q1506.13 1135.03 1509.33 1137.72 Q1512.52 1140.4 1512.52 1144.89 Q1512.52 1147.02 1511.71 1148.95 Q1510.92 1150.84 1508.82 1153.44 Q1508.24 1154.11 1505.14 1157.33 Q1502.03 1160.52 1496.39 1166.28 Z" fill="#000000" fill-rule="nonzero" fill-opacity="1" /><path clip-path="url(#clip110)" d="M1532.52 1138.74 Q1528.91 1138.74 1527.08 1142.3 Q1525.27 1145.84 1525.27 1152.97 Q1525.27 1160.08 1527.08 1163.64 Q1528.91 1167.19 1532.52 1167.19 Q1536.15 1167.19 1537.96 1163.64 Q1539.79 1160.08 1539.79 1152.97 Q1539.79 1145.84 1537.96 1142.3 Q1536.15 1138.74 1532.52 1138.74 M1532.52 1135.03 Q1538.33 1135.03 1541.39 1139.64 Q1544.46 1144.22 1544.46 1152.97 Q1544.46 1161.7 1541.39 1166.31 Q1538.33 1170.89 1532.52 1170.89 Q1526.71 1170.89 1523.63 1166.31 Q1520.58 1161.7 1520.58 1152.97 Q1520.58 1144.22 1523.63 1139.64 Q1526.71 1135.03 1532.52 1135.03 Z" fill="#000000" fill-rule="nonzero" fill-opacity="1" /><path clip-path="url(#clip110)" d="M1562.68 1138.74 Q1559.07 1138.74 1557.24 1142.3 Q1555.44 1145.84 1555.44 1152.97 Q1555.44 1160.08 1557.24 1163.64 Q1559.07 1167.19 1562.68 1167.19 Q1566.32 1167.19 1568.12 1163.64 Q1569.95 1160.08 1569.95 1152.97 Q1569.95 1145.84 1568.12 1142.3 Q1566.32 1138.74 1562.68 1138.74 M1562.68 1135.03 Q1568.49 1135.03 1571.55 1139.64 Q1574.63 1144.22 1574.63 1152.97 Q1574.63 1161.7 1571.55 1166.31 Q1568.49 1170.89 1562.68 1170.89 Q1556.87 1170.89 1553.79 1166.31 Q1550.74 1161.7 1550.74 1152.97 Q1550.74 1144.22 1553.79 1139.64 Q1556.87 1135.03 1562.68 1135.03 Z" fill="#000000" fill-rule="nonzero" fill-opacity="1" /><path clip-path="url(#clip110)" d="M1806.17 1166.28 L1822.49 1166.28 L1822.49 1170.22 L1800.54 1170.22 L1800.54 1166.28 Q1803.2 1163.53 1807.79 1158.9 Q1812.39 1154.25 1813.57 1152.9 Q1815.82 1150.38 1816.7 1148.64 Q1817.6 1146.89 1817.6 1145.2 Q1817.6 1142.44 1815.66 1140.7 Q1813.74 1138.97 1810.63 1138.97 Q1808.43 1138.97 1805.98 1139.73 Q1803.55 1140.5 1800.77 1142.05 L1800.77 1137.33 Q1803.6 1136.19 1806.05 1135.61 Q1808.5 1135.03 1810.54 1135.03 Q1815.91 1135.03 1819.11 1137.72 Q1822.3 1140.4 1822.3 1144.89 Q1822.3 1147.02 1821.49 1148.95 Q1820.7 1150.84 1818.6 1153.44 Q1818.02 1154.11 1814.92 1157.33 Q1811.81 1160.52 1806.17 1166.28 Z" fill="#000000" fill-rule="nonzero" fill-opacity="1" /><path clip-path="url(#clip110)" d="M1832.35 1135.66 L1850.7 1135.66 L1850.7 1139.59 L1836.63 1139.59 L1836.63 1148.07 Q1837.65 1147.72 1838.67 1147.56 Q1839.68 1147.37 1840.7 1147.37 Q1846.49 1147.37 1849.87 1150.54 Q1853.25 1153.71 1853.25 1159.13 Q1853.25 1164.71 1849.78 1167.81 Q1846.3 1170.89 1839.99 1170.89 Q1837.81 1170.89 1835.54 1170.52 Q1833.3 1170.15 1830.89 1169.41 L1830.89 1164.71 Q1832.97 1165.84 1835.19 1166.4 Q1837.42 1166.95 1839.89 1166.95 Q1843.9 1166.95 1846.24 1164.85 Q1848.57 1162.74 1848.57 1159.13 Q1848.57 1155.52 1846.24 1153.41 Q1843.9 1151.31 1839.89 1151.31 Q1838.02 1151.31 1836.14 1151.72 Q1834.29 1152.14 1832.35 1153.02 L1832.35 1135.66 Z" fill="#000000" fill-rule="nonzero" fill-opacity="1" /><path clip-path="url(#clip110)" d="M1872.46 1138.74 Q1868.85 1138.74 1867.02 1142.3 Q1865.22 1145.84 1865.22 1152.97 Q1865.22 1160.08 1867.02 1163.64 Q1868.85 1167.19 1872.46 1167.19 Q1876.1 1167.19 1877.9 1163.64 Q1879.73 1160.08 1879.73 1152.97 Q1879.73 1145.84 1877.9 1142.3 Q1876.1 1138.74 1872.46 1138.74 M1872.46 1135.03 Q1878.27 1135.03 1881.33 1139.64 Q1884.41 1144.22 1884.41 1152.97 Q1884.41 1161.7 1881.33 1166.31 Q1878.27 1170.89 1872.46 1170.89 Q1866.65 1170.89 1863.57 1166.31 Q1860.52 1161.7 1860.52 1152.97 Q1860.52 1144.22 1863.57 1139.64 Q1866.65 1135.03 1872.46 1135.03 Z" fill="#000000" fill-rule="nonzero" fill-opacity="1" /><g clip-path="url(#clip110)">
<text style="fill:#000000; fill-opacity:1; font-family:Arial,Helvetica Neue,Helvetica,sans-serif; font-size:66px; text-anchor:middle;" transform="rotate(0, 1099, 1252.42)" x="1099" y="1252.42">Krylov dimension</text>
</g>
<polyline clip-path="url(#clip110)" style="stroke:#000000; stroke-linecap:round; stroke-linejoin:round; stroke-width:4; stroke-opacity:1; fill:none" points="245.244,1111.02 245.244,107.256 "/>
<polyline clip-path="url(#clip110)" style="stroke:#000000; stroke-linecap:round; stroke-linejoin:round; stroke-width:4; stroke-opacity:1; fill:none" points="245.244,1080.03 264.142,1080.03 "/>
<polyline clip-path="url(#clip110)" style="stroke:#000000; stroke-linecap:round; stroke-linejoin:round; stroke-width:4; stroke-opacity:1; fill:none" points="245.244,571.862 264.142,571.862 "/>
<path clip-path="url(#clip110)" d="M113.675 1099.82 L121.314 1099.82 L121.314 1073.45 L113.004 1075.12 L113.004 1070.86 L121.268 1069.2 L125.944 1069.2 L125.944 1099.82 L133.583 1099.82 L133.583 1103.76 L113.675 1103.76 L113.675 1099.82 Z" fill="#000000" fill-rule="nonzero" fill-opacity="1" /><path clip-path="url(#clip110)" d="M153.027 1072.27 Q149.416 1072.27 147.587 1075.84 Q145.782 1079.38 145.782 1086.51 Q145.782 1093.62 147.587 1097.18 Q149.416 1100.72 153.027 1100.72 Q156.661 1100.72 158.467 1097.18 Q160.295 1093.62 160.295 1086.51 Q160.295 1079.38 158.467 1075.84 Q156.661 1072.27 153.027 1072.27 M153.027 1068.57 Q158.837 1068.57 161.893 1073.18 Q164.971 1077.76 164.971 1086.51 Q164.971 1095.24 161.893 1099.84 Q158.837 1104.43 153.027 1104.43 Q147.217 1104.43 144.138 1099.84 Q141.082 1095.24 141.082 1086.51 Q141.082 1077.76 144.138 1073.18 Q147.217 1068.57 153.027 1068.57 Z" fill="#000000" fill-rule="nonzero" fill-opacity="1" /><path clip-path="url(#clip110)" d="M164.971 1062.67 L189.083 1062.67 L189.083 1065.87 L164.971 1065.87 L164.971 1062.67 Z" fill="#000000" fill-rule="nonzero" fill-opacity="1" /><path clip-path="url(#clip110)" d="M205.878 1060.79 Q203.32 1060.79 201.816 1062.54 Q200.33 1064.29 200.33 1067.34 Q200.33 1070.36 201.816 1072.13 Q203.32 1073.88 205.878 1073.88 Q208.436 1073.88 209.922 1072.13 Q211.426 1070.36 211.426 1067.34 Q211.426 1064.29 209.922 1062.54 Q208.436 1060.79 205.878 1060.79 M213.42 1048.89 L213.42 1052.35 Q211.991 1051.67 210.524 1051.31 Q209.075 1050.95 207.646 1050.95 Q203.885 1050.95 201.891 1053.49 Q199.916 1056.03 199.634 1061.17 Q200.744 1059.53 202.417 1058.67 Q204.091 1057.78 206.104 1057.78 Q210.336 1057.78 212.781 1060.36 Q215.244 1062.92 215.244 1067.34 Q215.244 1071.66 212.687 1074.28 Q210.129 1076.89 205.878 1076.89 Q201.007 1076.89 198.43 1073.17 Q195.854 1069.42 195.854 1062.33 Q195.854 1055.68 199.013 1051.73 Q202.173 1047.76 207.496 1047.76 Q208.925 1047.76 210.373 1048.04 Q211.84 1048.32 213.42 1048.89 Z" fill="#000000" fill-rule="nonzero" fill-opacity="1" /><path clip-path="url(#clip110)" d="M114.333 591.654 L121.972 591.654 L121.972 565.288 L113.662 566.955 L113.662 562.696 L121.926 561.029 L126.602 561.029 L126.602 591.654 L134.241 591.654 L134.241 595.589 L114.333 595.589 L114.333 591.654 Z" fill="#000000" fill-rule="nonzero" fill-opacity="1" /><path clip-path="url(#clip110)" d="M153.685 564.108 Q150.074 564.108 148.245 567.673 Q146.44 571.214 146.44 578.344 Q146.44 585.45 148.245 589.015 Q150.074 592.557 153.685 592.557 Q157.319 592.557 159.125 589.015 Q160.954 585.45 160.954 578.344 Q160.954 571.214 159.125 567.673 Q157.319 564.108 153.685 564.108 M153.685 560.404 Q159.495 560.404 162.551 565.011 Q165.629 569.594 165.629 578.344 Q165.629 587.071 162.551 591.677 Q159.495 596.26 153.685 596.26 Q147.875 596.26 144.796 591.677 Q141.741 587.071 141.741 578.344 Q141.741 569.594 144.796 565.011 Q147.875 560.404 153.685 560.404 Z" fill="#000000" fill-rule="nonzero" fill-opacity="1" /><path clip-path="url(#clip110)" d="M165.629 554.506 L189.741 554.506 L189.741 557.703 L165.629 557.703 L165.629 554.506 Z" fill="#000000" fill-rule="nonzero" fill-opacity="1" /><path clip-path="url(#clip110)" d="M209.452 553.039 Q212.179 553.622 213.702 555.465 Q215.244 557.308 215.244 560.016 Q215.244 564.173 212.386 566.448 Q209.527 568.724 204.261 568.724 Q202.493 568.724 200.612 568.367 Q198.75 568.028 196.756 567.332 L196.756 563.665 Q198.336 564.586 200.217 565.057 Q202.098 565.527 204.148 565.527 Q207.721 565.527 209.583 564.116 Q211.464 562.706 211.464 560.016 Q211.464 557.534 209.715 556.142 Q207.985 554.731 204.881 554.731 L201.609 554.731 L201.609 551.609 L205.032 551.609 Q207.834 551.609 209.32 550.499 Q210.806 549.371 210.806 547.265 Q210.806 545.102 209.264 543.954 Q207.74 542.788 204.881 542.788 Q203.32 542.788 201.534 543.127 Q199.747 543.465 197.603 544.18 L197.603 540.795 Q199.766 540.193 201.646 539.892 Q203.546 539.591 205.22 539.591 Q209.546 539.591 212.066 541.566 Q214.586 543.522 214.586 546.87 Q214.586 549.202 213.251 550.819 Q211.915 552.418 209.452 553.039 Z" fill="#000000" fill-rule="nonzero" fill-opacity="1" /><g clip-path="url(#clip110)">
<text style="fill:#000000; fill-opacity:1; font-family:Arial,Helvetica Neue,Helvetica,sans-serif; font-size:66px; text-anchor:middle;" transform="rotate(-90, 71.4418, 609.137)" x="71.4418" y="609.137">relative residual norm</text>
</g>
<g clip-path="url(#clip110)">
<text style="fill:#000000; fill-opacity:1; font-family:Arial,Helvetica Neue,Helvetica,sans-serif; font-size:66px; text-anchor:middle;" transform="rotate(0, 1099, 57.6)" x="1099" y="57.6">Convergence of MINRES and CG</text>
</g>
<polyline clip-path="url(#clip112)" style="stroke:#009af9; stroke-linecap:round; stroke-linejoin:round; stroke-width:8; stroke-opacity:1; fill:none" points="293.57,140.527 299.766,188.642 305.961,221.545 312.157,249.624 318.353,272.136 324.548,291.197 330.744,307.889 336.939,323.206 343.135,336.135 349.331,348.044 355.526,358.887 361.722,368.924 367.918,378.072 374.113,387.039 380.309,395.429 386.504,402.994 392.7,410.256 398.896,417.4 405.091,424.174 411.287,430.42 417.482,436.488 423.678,442.134 429.874,447.698 436.069,453.057 442.265,458.215 448.461,462.97 454.656,467.838 460.852,472.583 467.047,477.002 473.243,481.385 479.439,485.543 485.634,489.788 491.83,493.817 498.025,498.02 504.221,501.918 510.417,505.911 516.612,509.622 522.808,513.39 529.004,517.129 535.199,520.726 541.395,524.315 547.59,527.85 553.786,531.346 559.982,534.847 566.177,538.225 572.373,541.57 578.568,544.908 584.764,548.176 590.96,551.35 597.155,554.666 603.351,557.867 609.547,561.097 615.742,564.284 621.938,567.36 628.133,570.419 634.329,573.433 640.525,576.54 646.72,579.448 652.916,582.511 659.111,585.468 665.307,588.337 671.503,591.289 677.698,594.18 683.894,597.16 690.09,599.946 696.285,602.83 702.481,605.712 708.676,608.622 714.872,611.535 721.068,614.376 727.263,617.374 733.459,620.26 739.654,623.1 745.85,625.857 752.046,628.842 758.241,631.901 764.437,634.831 770.633,637.62 776.828,640.566 783.024,643.491 789.219,646.382 795.415,649.281 801.611,652.221 807.806,655.121 814.002,657.972 820.197,660.855 826.393,663.717 832.589,666.774 838.784,669.735 844.98,672.602 851.176,675.549 857.371,678.519 863.567,681.47 869.762,684.337 875.958,687.119 882.154,690.009 888.349,692.941 894.545,695.922 900.74,698.869 906.936,701.831 913.132,704.816 919.327,707.552 925.523,710.441 931.719,713.236 937.914,716.071 944.11,718.96 950.305,721.747 956.501,724.566 962.697,727.448 968.892,730.284 975.088,733.204 981.283,736.034 987.479,738.836 993.675,741.808 999.87,744.705 1006.07,747.601 1012.26,750.466 1018.46,753.487 1024.65,756.613 1030.85,759.603 1037.04,762.472 1043.24,765.54 1049.44,768.557 1055.63,771.494 1061.83,774.439 1068.02,777.485 1074.22,780.545 1080.41,783.462 1086.61,786.337 1092.8,789.12 1099,792.123 1105.2,794.942 1111.39,797.949 1117.59,800.746 1123.78,803.604 1129.98,806.432 1136.17,809.346 1142.37,812.264 1148.57,815.091 1154.76,818.016 1160.96,820.959 1167.15,824.009 1173.35,826.986 1179.54,829.779 1185.74,832.623 1191.93,835.562 1198.13,838.549 1204.33,841.463 1210.52,844.296 1216.72,847.139 1222.91,850.007 1229.11,852.943 1235.3,855.867 1241.5,858.717 1247.69,861.64 1253.89,864.543 1260.09,867.448 1266.28,870.276 1272.48,873.07 1278.67,875.892 1284.87,879.039 1291.06,881.925 1297.26,884.759 1303.46,887.775 1309.65,890.716 1315.85,893.676 1322.04,896.629 1328.24,899.625 1334.43,902.512 1340.63,905.636 1346.82,908.59 1353.02,911.456 1359.22,914.525 1365.41,917.438 1371.61,920.714 1377.8,923.796 1384,926.854 1390.19,929.859 1396.39,932.807 1402.59,935.906 1408.78,939.013 1414.98,942.041 1421.17,944.976 1427.37,947.798 1433.56,950.859 1439.76,953.592 1445.95,956.612 1452.15,959.646 1458.35,962.541 1464.54,965.484 1470.74,968.592 1476.93,971.495 1483.13,974.583 1489.32,977.593 1495.52,980.778 1501.72,983.69 1507.91,986.626 1514.11,989.776 1520.3,992.647 1526.5,995.584 1532.69,998.626 1538.89,1001.54 1545.08,1004.54 1551.28,1007.58 1557.48,1010.51 1563.67,1013.42 1569.87,1016.46 1576.06,1019.4 1582.26,1022.3 1588.45,1025.29 1594.65,1028.22 1600.84,1031.21 1607.04,1034.14 1613.24,1036.99 1619.43,1040.02 1625.63,1042.89 1631.82,1045.82 1638.02,1048.87 1644.21,1051.8 1650.41,1054.76 1656.61,1057.66 1662.8,1060.58 1669,1063.37 1675.19,1066.29 1681.39,1069.32 1687.58,1072.31 1693.78,1075.26 1699.97,1078.17 1706.17,1081.22 "/>
<polyline clip-path="url(#clip112)" style="stroke:#e26f46; stroke-linecap:round; stroke-linejoin:round; stroke-width:8; stroke-opacity:1; fill:none" points="293.57,135.664 299.766,177.05 305.961,202.213 312.157,226.543 318.353,243.393 324.548,257.898 330.744,270.798 336.939,283.589 343.135,291.402 349.331,300.768 355.526,308.671 361.722,316.249 367.918,322.41 374.113,330.732 380.309,336.947 386.504,341.107 392.7,347.013 398.896,353.609 405.091,358.603 411.287,362.122 417.482,367.219 423.678,370.413 429.874,375.481 436.069,379.56 442.265,383.403 448.461,385.374 454.656,391.038 460.852,394.912 467.047,396.87 473.243,400.965 479.439,403.297 485.634,408.262 491.83,410.477 498.025,416.156 504.221,417.422 510.417,422.258 516.612,423.415 522.808,427.717 529.004,431.178 535.199,433.433 541.395,436.938 547.59,439.934 553.786,443.055 559.982,446.598 566.177,448.724 572.373,451.723 578.568,454.985 584.764,457.51 590.96,459.651 597.155,464.518 603.351,466.469 609.547,470.017 615.742,472.742 621.938,474.557 628.133,477.429 634.329,479.915 640.525,484.091 646.72,484.663 652.916,489.574 659.111,491.271 665.307,493.077 671.503,497.038 677.698,499.196 683.894,503.237 690.09,503.656 696.285,507.755 702.481,510.604 708.676,513.872 714.872,516.814 721.068,518.762 727.263,523.67 733.459,525.215 739.654,527.476 745.85,529.19 752.046,534.989 758.241,538.903 764.437,540.312 770.633,541.37 776.828,546.239 783.024,548.91 789.219,551.396 795.415,554.388 801.611,557.835 807.806,560.233 814.002,562.495 820.197,565.766 826.393,568.376 832.589,573.76 838.784,575.592 844.98,577.312 851.176,581.246 857.371,584.476 863.567,587.214 869.762,589.051 875.958,590.771 882.154,595.01 888.349,598.441 894.545,602.016 900.74,604.566 906.936,607.696 913.132,610.96 919.327,610.613 925.523,615.421 931.719,617.06 937.914,620.39 944.11,623.941 950.305,625.465 956.501,628.68 962.697,632.35 968.892,634.624 975.088,638.571 981.283,640.29 987.479,642.732 993.675,647.805 999.87,649.78 1006.07,652.681 1012.26,655.157 1018.46,660.048 1024.65,664.38 1030.85,665.806 1037.04,667.212 1043.24,672.655 1049.44,675.075 1055.63,677.064 1061.83,680.105 1068.02,684.34 1074.22,687.564 1080.41,688.78 1086.61,691.159 1092.8,692.778 1099,698.475 1105.2,699.063 1111.39,704.356 1117.59,704.586 1123.78,708.216 1129.98,710.659 1136.17,714.638 1142.37,717.606 1148.57,719.304 1154.76,723.448 1160.96,726.598 1167.15,730.905 1173.35,733.04 1179.54,733.564 1185.74,737.056 1191.93,741.16 1198.13,744.711 1204.33,746.754 1210.52,748.587 1216.72,751.557 1222.91,754.742 1229.11,758.5 1235.3,761.271 1241.5,763.231 1247.69,767.033 1253.89,769.705 1260.09,772.631 1266.28,774.503 1272.48,776.874 1278.67,780.05 1284.87,787.043 1291.06,786.885 1297.26,789.064 1303.46,794.28 1309.65,796.327 1315.85,799.529 1322.04,802.39 1328.24,805.892 1334.43,807.472 1340.63,813.385 1346.82,814.359 1353.02,816.159 1359.22,821.654 1365.41,822.713 1371.61,830.133 1377.8,831.067 1384,833.852 1390.19,836.229 1396.39,838.513 1402.59,843.373 1408.78,846.571 1414.98,848.683 1421.17,850.526 1427.37,851.949 1433.56,857.893 1439.76,856.612 1445.95,863.16 1452.15,866.362 1458.35,867.605 1464.54,871.121 1470.74,876.163 1476.93,876.655 1483.13,881.917 1489.32,884.029 1495.52,889.202 1501.72,888.967 1507.91,892.175 1514.11,897.816 1520.3,897.417 1526.5,901.154 1532.69,905.437 1538.89,906.882 1545.08,910.748 1551.28,914.37 1557.48,916.061 1563.67,918.637 1569.87,923.337 1576.06,924.938 1582.26,927.483 1588.45,931.479 1594.65,933.761 1600.84,937.552 1607.04,939.94 1613.24,941.986 1619.43,947.449 1625.63,948.319 1631.82,953.217 1638.02,957.012 1644.21,956.743 1650.41,960.21 1656.61,961.963 1662.8,965.331 1669,966.608 1675.19,971.225 1681.39,975.812 1687.58,978.386 1693.78,980.981 1699.97,983.441 1706.17,988.009 1712.37,991.005 1718.56,994.103 1724.76,995.092 1730.95,999.594 1737.15,1000.82 1743.34,1004.73 1749.54,1006.69 1755.74,1010.36 1761.93,1014.29 1768.13,1015.85 1774.32,1018.6 1780.52,1023.11 1786.71,1025.89 1792.91,1029.04 1799.1,1032.2 1805.3,1033.8 1811.5,1036.72 1817.69,1040.73 1823.89,1046.94 1830.08,1046.77 1836.28,1049.17 1842.47,1052.74 1848.67,1055.9 1854.87,1057.08 1861.06,1059.6 1867.26,1065.32 1873.45,1066.66 1879.65,1071.3 1885.84,1071.95 1892.04,1077.04 1898.23,1078.27 1904.43,1082.61 "/>
<path clip-path="url(#clip110)" d="M1570 296.235 L1895.84 296.235 L1895.84 140.715 L1570 140.715  Z" fill="#ffffff" fill-rule="evenodd" fill-opacity="1"/>
<polyline clip-path="url(#clip110)" style="stroke:#000000; stroke-linecap:round; stroke-linejoin:round; stroke-width:4; stroke-opacity:1; fill:none" points="1570,296.235 1895.84,296.235 1895.84,140.715 1570,140.715 1570,296.235 "/>
<polyline clip-path="url(#clip110)" style="stroke:#009af9; stroke-linecap:round; stroke-linejoin:round; stroke-width:8; stroke-opacity:1; fill:none" points="1588.97,192.555 1702.8,192.555 "/>
<path clip-path="url(#clip110)" d="M1742.12 188.886 Q1743.72 186.015 1745.94 184.65 Q1748.16 183.284 1751.17 183.284 Q1755.22 183.284 1757.42 186.131 Q1759.62 188.955 1759.62 194.187 L1759.62 209.835 L1755.34 209.835 L1755.34 194.325 Q1755.34 190.599 1754.02 188.793 Q1752.7 186.988 1749.99 186.988 Q1746.68 186.988 1744.76 189.187 Q1742.84 191.386 1742.84 195.182 L1742.84 209.835 L1738.56 209.835 L1738.56 194.325 Q1738.56 190.575 1737.24 188.793 Q1735.92 186.988 1733.16 186.988 Q1729.9 186.988 1727.98 189.21 Q1726.06 191.409 1726.06 195.182 L1726.06 209.835 L1721.77 209.835 L1721.77 183.909 L1726.06 183.909 L1726.06 187.937 Q1727.52 185.552 1729.55 184.418 Q1731.59 183.284 1734.39 183.284 Q1737.21 183.284 1739.18 184.719 Q1741.17 186.154 1742.12 188.886 Z" fill="#000000" fill-rule="nonzero" fill-opacity="1" /><path clip-path="url(#clip110)" d="M1768.12 183.909 L1772.38 183.909 L1772.38 209.835 L1768.12 209.835 L1768.12 183.909 M1768.12 173.816 L1772.38 173.816 L1772.38 179.21 L1768.12 179.21 L1768.12 173.816 Z" fill="#000000" fill-rule="nonzero" fill-opacity="1" /><path clip-path="url(#clip110)" d="M1802.84 194.187 L1802.84 209.835 L1798.58 209.835 L1798.58 194.325 Q1798.58 190.645 1797.14 188.816 Q1795.71 186.988 1792.84 186.988 Q1789.39 186.988 1787.4 189.187 Q1785.41 191.386 1785.41 195.182 L1785.41 209.835 L1781.13 209.835 L1781.13 183.909 L1785.41 183.909 L1785.41 187.937 Q1786.94 185.599 1789 184.441 Q1791.08 183.284 1793.79 183.284 Q1798.26 183.284 1800.55 186.062 Q1802.84 188.816 1802.84 194.187 Z" fill="#000000" fill-rule="nonzero" fill-opacity="1" /><path clip-path="url(#clip110)" d="M1826.36 187.89 Q1825.64 187.474 1824.78 187.288 Q1823.95 187.08 1822.93 187.08 Q1819.32 187.08 1817.38 189.441 Q1815.45 191.779 1815.45 196.177 L1815.45 209.835 L1811.17 209.835 L1811.17 183.909 L1815.45 183.909 L1815.45 187.937 Q1816.8 185.576 1818.95 184.441 Q1821.1 183.284 1824.18 183.284 Q1824.62 183.284 1825.15 183.353 Q1825.69 183.4 1826.33 183.515 L1826.36 187.89 Z" fill="#000000" fill-rule="nonzero" fill-opacity="1" /><path clip-path="url(#clip110)" d="M1851.96 195.807 L1851.96 197.89 L1832.38 197.89 Q1832.65 202.288 1835.01 204.603 Q1837.4 206.895 1841.64 206.895 Q1844.09 206.895 1846.38 206.293 Q1848.7 205.691 1850.96 204.487 L1850.96 208.515 Q1848.67 209.487 1846.26 209.997 Q1843.86 210.506 1841.38 210.506 Q1835.18 210.506 1831.54 206.895 Q1827.93 203.284 1827.93 197.126 Q1827.93 190.761 1831.36 187.034 Q1834.81 183.284 1840.64 183.284 Q1845.87 183.284 1848.9 186.663 Q1851.96 190.02 1851.96 195.807 M1847.7 194.557 Q1847.65 191.062 1845.73 188.978 Q1843.83 186.895 1840.69 186.895 Q1837.12 186.895 1834.97 188.909 Q1832.84 190.923 1832.51 194.58 L1847.7 194.557 Z" fill="#000000" fill-rule="nonzero" fill-opacity="1" /><path clip-path="url(#clip110)" d="M1875.48 184.673 L1875.48 188.7 Q1873.67 187.775 1871.73 187.312 Q1869.78 186.849 1867.7 186.849 Q1864.53 186.849 1862.93 187.821 Q1861.36 188.793 1861.36 190.738 Q1861.36 192.219 1862.49 193.075 Q1863.63 193.909 1867.05 194.673 L1868.51 194.997 Q1873.05 195.969 1874.95 197.751 Q1876.87 199.511 1876.87 202.682 Q1876.87 206.293 1874 208.399 Q1871.15 210.506 1866.15 210.506 Q1864.07 210.506 1861.8 210.089 Q1859.55 209.696 1857.05 208.886 L1857.05 204.487 Q1859.41 205.714 1861.7 206.339 Q1864 206.941 1866.24 206.941 Q1869.25 206.941 1870.87 205.923 Q1872.49 204.881 1872.49 203.006 Q1872.49 201.27 1871.31 200.344 Q1870.15 199.418 1866.2 198.562 L1864.71 198.214 Q1860.76 197.381 1859 195.668 Q1857.24 193.932 1857.24 190.923 Q1857.24 187.265 1859.83 185.275 Q1862.42 183.284 1867.19 183.284 Q1869.55 183.284 1871.64 183.631 Q1873.72 183.978 1875.48 184.673 Z" fill="#000000" fill-rule="nonzero" fill-opacity="1" /><polyline clip-path="url(#clip110)" style="stroke:#e26f46; stroke-linecap:round; stroke-linejoin:round; stroke-width:8; stroke-opacity:1; fill:none" points="1588.97,244.395 1702.8,244.395 "/>
<path clip-path="url(#clip110)" d="M1742.28 236.744 L1742.28 240.726 Q1740.48 239.73 1738.65 239.244 Q1736.84 238.735 1734.99 238.735 Q1730.85 238.735 1728.56 241.374 Q1726.27 243.99 1726.27 248.735 Q1726.27 253.48 1728.56 256.119 Q1730.85 258.735 1734.99 258.735 Q1736.84 258.735 1738.65 258.249 Q1740.48 257.739 1742.28 256.744 L1742.28 260.679 Q1740.5 261.513 1738.58 261.929 Q1736.68 262.346 1734.53 262.346 Q1728.67 262.346 1725.22 258.665 Q1721.77 254.985 1721.77 248.735 Q1721.77 242.392 1725.25 238.758 Q1728.74 235.124 1734.81 235.124 Q1736.77 235.124 1738.65 235.541 Q1740.52 235.934 1742.28 236.744 Z" fill="#000000" fill-rule="nonzero" fill-opacity="1" /><path clip-path="url(#clip110)" d="M1766.75 248.411 Q1766.75 243.781 1764.83 241.235 Q1762.93 238.689 1759.48 238.689 Q1756.06 238.689 1754.14 241.235 Q1752.24 243.781 1752.24 248.411 Q1752.24 253.017 1754.14 255.564 Q1756.06 258.11 1759.48 258.11 Q1762.93 258.11 1764.83 255.564 Q1766.75 253.017 1766.75 248.411 M1771.01 258.457 Q1771.01 265.077 1768.07 268.295 Q1765.13 271.536 1759.07 271.536 Q1756.82 271.536 1754.83 271.188 Q1752.84 270.864 1750.96 270.17 L1750.96 266.026 Q1752.84 267.045 1754.67 267.531 Q1756.5 268.017 1758.39 268.017 Q1762.58 268.017 1764.67 265.818 Q1766.75 263.642 1766.75 259.221 L1766.75 257.114 Q1765.43 259.406 1763.37 260.54 Q1761.31 261.675 1758.44 261.675 Q1753.67 261.675 1750.76 258.04 Q1747.84 254.406 1747.84 248.411 Q1747.84 242.392 1750.76 238.758 Q1753.67 235.124 1758.44 235.124 Q1761.31 235.124 1763.37 236.258 Q1765.43 237.392 1766.75 239.684 L1766.75 235.749 L1771.01 235.749 L1771.01 258.457 Z" fill="#000000" fill-rule="nonzero" fill-opacity="1" /></svg>
