<?xml version="1.0" encoding="utf-8"?>
<svg xmlns="http://www.w3.org/2000/svg" xmlns:xlink="http://www.w3.org/1999/xlink" width="500" height="320" viewBox="0 0 2000 1280">
<defs>
  <clipPath id="clip010">
    <rect x="0" y="0" width="2000" height="1280"/>
  </clipPath>
</defs>
<path clip-path="url(#clip010)" d="M0 1280 L2000 1280 L2000 0 L0 0  Z" fill="#ffffff" fill-rule="evenodd" fill-opacity="1"/>
<defs>
  <clipPath id="clip011">
    <rect x="400" y="0" width="1401" height="1280"/>
  </clipPath>
</defs>
<path clip-path="url(#clip010)" d="M189.936 1171.03 L1952.76 1171.03 L1952.76 47.2441 L189.936 47.2441  Z" fill="#ffffff" fill-rule="evenodd" fill-opacity="1"/>
<defs>
  <clipPath id="clip012">
    <rect x="189" y="47" width="1764" height="1125"/>
  </clipPath>
</defs>
<polyline clip-path="url(#clip012)" style="stroke:#000000; stroke-linecap:round; stroke-linejoin:round; stroke-width:2; stroke-opacity:0.1; fill:none" points="239.827,1171.03 239.827,47.2441 "/>
<polyline clip-path="url(#clip012)" style="stroke:#000000; stroke-linecap:round; stroke-linejoin:round; stroke-width:2; stroke-opacity:0.1; fill:none" points="655.587,1171.03 655.587,47.2441 "/>
<polyline clip-path="url(#clip012)" style="stroke:#000000; stroke-linecap:round; stroke-linejoin:round; stroke-width:2; stroke-opacity:0.1; fill:none" points="1071.35,1171.03 1071.35,47.2441 "/>
<polyline clip-path="url(#clip012)" style="stroke:#000000; stroke-linecap:round; stroke-linejoin:round; stroke-width:2; stroke-opacity:0.1; fill:none" points="1487.11,1171.03 1487.11,47.2441 "/>
<polyline clip-path="url(#clip012)" style="stroke:#000000; stroke-linecap:round; stroke-linejoin:round; stroke-width:2; stroke-opacity:0.1; fill:none" points="1902.86,1171.03 1902.86,47.2441 "/>
<polyline clip-path="url(#clip012)" style="stroke:#000000; stroke-linecap:round; stroke-linejoin:round; stroke-width:2; stroke-opacity:0.1; fill:none" points="189.936,1139.28 1952.76,1139.28 "/>
<polyline clip-path="url(#clip012)" style="stroke:#000000; stroke-linecap:round; stroke-linejoin:round; stroke-width:2; stroke-opacity:0.1; fill:none" points="189.936,874.186 1952.76,874.186 "/>
<polyline clip-path="url(#clip012)" style="stroke:#000000; stroke-linecap:round; stroke-linejoin:round; stroke-width:2; stroke-opacity:0.1; fill:none" points="189.936,609.093 1952.76,609.093 "/>
<polyline clip-path="url(#clip012)" style="stroke:#000000; stroke-linecap:round; stroke-linejoin:round; stroke-width:2; stroke-opacity:0.1; fill:none" points="189.936,344 1952.76,344 "/>
<polyline clip-path="url(#clip012)" style="stroke:#000000; stroke-linecap:round; stroke-linejoin:round; stroke-width:2; stroke-opacity:0.1; fill:none" points="189.936,78.9071 1952.76,78.9071 "/>
<polyline clip-path="url(#clip010)" style="stroke:#000000; stroke-linecap:round; stroke-linejoin:round; stroke-width:4; stroke-opacity:1; fill:none" points="189.936,1171.03 1952.76,1171.03 "/>
<polyline clip-path="url(#clip010)" style="stroke:#000000; stroke-linecap:round; stroke-linejoin:round; stroke-width:4; stroke-opacity:1; fill:none" points="239.827,1171.03 239.827,1152.13 "/>
<polyline clip-path="url(#clip010)" style="stroke:#000000; stroke-linecap:round; stroke-linejoin:round; stroke-width:4; stroke-opacity:1; fill:none" points="655.587,1171.03 655.587,1152.13 "/>
<polyline clip-path="url(#clip010)" style="stroke:#000000; stroke-linecap:round; stroke-linejoin:round; stroke-width:4; stroke-opacity:1; fill:none" points="1071.35,1171.03 1071.35,1152.13 "/>
<polyline clip-path="url(#clip010)" style="stroke:#000000; stroke-linecap:round; stroke-linejoin:round; stroke-width:4; stroke-opacity:1; fill:none" points="1487.11,1171.03 1487.11,1152.13 "/>
<polyline clip-path="url(#clip010)" style="stroke:#000000; stroke-linecap:round; stroke-linejoin:round; stroke-width:4; stroke-opacity:1; fill:none" points="1902.86,1171.03 1902.86,1152.13 "/>
<path clip-path="url(#clip010)" d="M202.131 1198.75 Q198.519 1198.75 196.691 1202.31 Q194.885 1205.86 194.885 1212.98 Q194.885 1220.09 196.691 1223.66 Q198.519 1227.2 202.131 1227.2 Q205.765 1227.2 207.57 1223.66 Q209.399 1220.09 209.399 1212.98 Q209.399 1205.86 207.57 1202.31 Q205.765 1198.75 202.131 1198.75 M202.131 1195.05 Q207.941 1195.05 210.996 1199.65 Q214.075 1204.24 214.075 1212.98 Q214.075 1221.71 210.996 1226.32 Q207.941 1230.9 202.131 1230.9 Q196.32 1230.9 193.242 1226.32 Q190.186 1221.71 190.186 1212.98 Q190.186 1204.24 193.242 1199.65 Q196.32 1195.05 202.131 1195.05 Z" fill="#000000" fill-rule="nonzero" fill-opacity="1" /><path clip-path="url(#clip010)" d="M222.292 1224.35 L227.177 1224.35 L227.177 1230.23 L222.292 1230.23 L222.292 1224.35 Z" fill="#000000" fill-rule="nonzero" fill-opacity="1" /><path clip-path="url(#clip010)" d="M247.362 1198.75 Q243.751 1198.75 241.922 1202.31 Q240.116 1205.86 240.116 1212.98 Q240.116 1220.09 241.922 1223.66 Q243.751 1227.2 247.362 1227.2 Q250.996 1227.2 252.802 1223.66 Q254.63 1220.09 254.63 1212.98 Q254.63 1205.86 252.802 1202.31 Q250.996 1198.75 247.362 1198.75 M247.362 1195.05 Q253.172 1195.05 256.228 1199.65 Q259.306 1204.24 259.306 1212.98 Q259.306 1221.71 256.228 1226.32 Q253.172 1230.9 247.362 1230.9 Q241.552 1230.9 238.473 1226.32 Q235.417 1221.71 235.417 1212.98 Q235.417 1204.24 238.473 1199.65 Q241.552 1195.05 247.362 1195.05 Z" fill="#000000" fill-rule="nonzero" fill-opacity="1" /><path clip-path="url(#clip010)" d="M277.524 1198.75 Q273.913 1198.75 272.084 1202.31 Q270.278 1205.86 270.278 1212.98 Q270.278 1220.09 272.084 1223.66 Q273.913 1227.2 277.524 1227.2 Q281.158 1227.2 282.963 1223.66 Q284.792 1220.09 284.792 1212.98 Q284.792 1205.86 282.963 1202.31 Q281.158 1198.75 277.524 1198.75 M277.524 1195.05 Q283.334 1195.05 286.389 1199.65 Q289.468 1204.24 289.468 1212.98 Q289.468 1221.71 286.389 1226.32 Q283.334 1230.9 277.524 1230.9 Q271.714 1230.9 268.635 1226.32 Q265.579 1221.71 265.579 1212.98 Q265.579 1204.24 268.635 1199.65 Q271.714 1195.05 277.524 1195.05 Z" fill="#000000" fill-rule="nonzero" fill-opacity="1" /><path clip-path="url(#clip010)" d="M618.388 1198.75 Q614.777 1198.75 612.948 1202.31 Q611.142 1205.86 611.142 1212.98 Q611.142 1220.09 612.948 1223.66 Q614.777 1227.2 618.388 1227.2 Q622.022 1227.2 623.827 1223.66 Q625.656 1220.09 625.656 1212.98 Q625.656 1205.86 623.827 1202.31 Q622.022 1198.75 618.388 1198.75 M618.388 1195.05 Q624.198 1195.05 627.253 1199.65 Q630.332 1204.24 630.332 1212.98 Q630.332 1221.71 627.253 1226.32 Q624.198 1230.9 618.388 1230.9 Q612.578 1230.9 609.499 1226.32 Q606.443 1221.71 606.443 1212.98 Q606.443 1204.24 609.499 1199.65 Q612.578 1195.05 618.388 1195.05 Z" fill="#000000" fill-rule="nonzero" fill-opacity="1" /><path clip-path="url(#clip010)" d="M638.55 1224.35 L643.434 1224.35 L643.434 1230.23 L638.55 1230.23 L638.55 1224.35 Z" fill="#000000" fill-rule="nonzero" fill-opacity="1" /><path clip-path="url(#clip010)" d="M657.647 1226.3 L673.966 1226.3 L673.966 1230.23 L652.022 1230.23 L652.022 1226.3 Q654.684 1223.54 659.267 1218.91 Q663.874 1214.26 665.054 1212.92 Q667.299 1210.39 668.179 1208.66 Q669.082 1206.9 669.082 1205.21 Q669.082 1202.45 667.137 1200.72 Q665.216 1198.98 662.114 1198.98 Q659.915 1198.98 657.462 1199.74 Q655.031 1200.51 652.253 1202.06 L652.253 1197.34 Q655.077 1196.2 657.531 1195.62 Q659.985 1195.05 662.022 1195.05 Q667.392 1195.05 670.586 1197.73 Q673.781 1200.42 673.781 1204.91 Q673.781 1207.04 672.971 1208.96 Q672.184 1210.86 670.077 1213.45 Q669.499 1214.12 666.397 1217.34 Q663.295 1220.53 657.647 1226.3 Z" fill="#000000" fill-rule="nonzero" fill-opacity="1" /><path clip-path="url(#clip010)" d="M683.827 1195.67 L702.184 1195.67 L702.184 1199.61 L688.11 1199.61 L688.11 1208.08 Q689.128 1207.73 690.147 1207.57 Q691.165 1207.38 692.184 1207.38 Q697.971 1207.38 701.35 1210.55 Q704.73 1213.73 704.73 1219.14 Q704.73 1224.72 701.258 1227.82 Q697.785 1230.9 691.466 1230.9 Q689.29 1230.9 687.022 1230.53 Q684.776 1230.16 682.369 1229.42 L682.369 1224.72 Q684.452 1225.86 686.674 1226.41 Q688.897 1226.97 691.373 1226.97 Q695.378 1226.97 697.716 1224.86 Q700.054 1222.75 700.054 1219.14 Q700.054 1215.53 697.716 1213.42 Q695.378 1211.32 691.373 1211.32 Q689.498 1211.32 687.623 1211.74 Q685.772 1212.15 683.827 1213.03 L683.827 1195.67 Z" fill="#000000" fill-rule="nonzero" fill-opacity="1" /><path clip-path="url(#clip010)" d="M1033.65 1198.75 Q1030.04 1198.75 1028.21 1202.31 Q1026.4 1205.86 1026.4 1212.98 Q1026.4 1220.09 1028.21 1223.66 Q1030.04 1227.2 1033.65 1227.2 Q1037.28 1227.2 1039.09 1223.66 Q1040.92 1220.09 1040.92 1212.98 Q1040.92 1205.86 1039.09 1202.31 Q1037.28 1198.75 1033.65 1198.75 M1033.65 1195.05 Q1039.46 1195.05 1042.52 1199.65 Q1045.59 1204.24 1045.59 1212.98 Q1045.59 1221.71 1042.52 1226.32 Q1039.46 1230.9 1033.65 1230.9 Q1027.84 1230.9 1024.76 1226.32 Q1021.71 1221.71 1021.71 1212.98 Q1021.71 1204.24 1024.76 1199.65 Q1027.84 1195.05 1033.65 1195.05 Z" fill="#000000" fill-rule="nonzero" fill-opacity="1" /><path clip-path="url(#clip010)" d="M1053.81 1224.35 L1058.7 1224.35 L1058.7 1230.23 L1053.81 1230.23 L1053.81 1224.35 Z" fill="#000000" fill-rule="nonzero" fill-opacity="1" /><path clip-path="url(#clip010)" d="M1068.93 1195.67 L1087.28 1195.67 L1087.28 1199.61 L1073.21 1199.61 L1073.21 1208.08 Q1074.23 1207.73 1075.25 1207.57 Q1076.26 1207.38 1077.28 1207.38 Q1083.07 1207.38 1086.45 1210.55 Q1089.83 1213.73 1089.83 1219.14 Q1089.83 1224.72 1086.36 1227.82 Q1082.89 1230.9 1076.57 1230.9 Q1074.39 1230.9 1072.12 1230.53 Q1069.88 1230.16 1067.47 1229.42 L1067.47 1224.72 Q1069.55 1225.86 1071.77 1226.41 Q1074 1226.97 1076.47 1226.97 Q1080.48 1226.97 1082.82 1224.86 Q1085.15 1222.75 1085.15 1219.14 Q1085.15 1215.53 1082.82 1213.42 Q1080.48 1211.32 1076.47 1211.32 Q1074.6 1211.32 1072.72 1211.74 Q1070.87 1212.15 1068.93 1213.03 L1068.93 1195.67 Z" fill="#000000" fill-rule="nonzero" fill-opacity="1" /><path clip-path="url(#clip010)" d="M1109.04 1198.75 Q1105.43 1198.75 1103.6 1202.31 Q1101.8 1205.86 1101.8 1212.98 Q1101.8 1220.09 1103.6 1223.66 Q1105.43 1227.2 1109.04 1227.2 Q1112.68 1227.2 1114.48 1223.66 Q1116.31 1220.09 1116.31 1212.98 Q1116.31 1205.86 1114.48 1202.31 Q1112.68 1198.75 1109.04 1198.75 M1109.04 1195.05 Q1114.85 1195.05 1117.91 1199.65 Q1120.99 1204.24 1120.99 1212.98 Q1120.99 1221.71 1117.91 1226.32 Q1114.85 1230.9 1109.04 1230.9 Q1103.23 1230.9 1100.15 1226.32 Q1097.1 1221.71 1097.1 1212.98 Q1097.1 1204.24 1100.15 1199.65 Q1103.23 1195.05 1109.04 1195.05 Z" fill="#000000" fill-rule="nonzero" fill-opacity="1" /><path clip-path="url(#clip010)" d="M1449.91 1198.75 Q1446.3 1198.75 1444.47 1202.31 Q1442.66 1205.86 1442.66 1212.98 Q1442.66 1220.09 1444.47 1223.66 Q1446.3 1227.2 1449.91 1227.2 Q1453.54 1227.2 1455.35 1223.66 Q1457.17 1220.09 1457.17 1212.98 Q1457.17 1205.86 1455.35 1202.31 Q1453.54 1198.75 1449.91 1198.75 M1449.91 1195.05 Q1455.72 1195.05 1458.77 1199.65 Q1461.85 1204.24 1461.85 1212.98 Q1461.85 1221.71 1458.77 1226.32 Q1455.72 1230.9 1449.91 1230.9 Q1444.1 1230.9 1441.02 1226.32 Q1437.96 1221.71 1437.96 1212.98 Q1437.96 1204.24 1441.02 1199.65 Q1444.1 1195.05 1449.91 1195.05 Z" fill="#000000" fill-rule="nonzero" fill-opacity="1" /><path clip-path="url(#clip010)" d="M1470.07 1224.35 L1474.95 1224.35 L1474.95 1230.23 L1470.07 1230.23 L1470.07 1224.35 Z" fill="#000000" fill-rule="nonzero" fill-opacity="1" /><path clip-path="url(#clip010)" d="M1483.96 1195.67 L1506.18 1195.67 L1506.18 1197.66 L1493.63 1230.23 L1488.75 1230.23 L1500.55 1199.61 L1483.96 1199.61 L1483.96 1195.67 Z" fill="#000000" fill-rule="nonzero" fill-opacity="1" /><path clip-path="url(#clip010)" d="M1515.35 1195.67 L1533.7 1195.67 L1533.7 1199.61 L1519.63 1199.61 L1519.63 1208.08 Q1520.65 1207.73 1521.67 1207.57 Q1522.68 1207.38 1523.7 1207.38 Q1529.49 1207.38 1532.87 1210.55 Q1536.25 1213.73 1536.25 1219.14 Q1536.25 1224.72 1532.78 1227.82 Q1529.3 1230.9 1522.98 1230.9 Q1520.81 1230.9 1518.54 1230.53 Q1516.3 1230.16 1513.89 1229.42 L1513.89 1224.72 Q1515.97 1225.86 1518.19 1226.41 Q1520.42 1226.97 1522.89 1226.97 Q1526.9 1226.97 1529.23 1224.86 Q1531.57 1222.75 1531.57 1219.14 Q1531.57 1215.53 1529.23 1213.42 Q1526.9 1211.32 1522.89 1211.32 Q1521.02 1211.32 1519.14 1211.74 Q1517.29 1212.15 1515.35 1213.03 L1515.35 1195.67 Z" fill="#000000" fill-rule="nonzero" fill-opacity="1" /><path clip-path="url(#clip010)" d="M1854.94 1226.3 L1862.58 1226.3 L1862.58 1199.93 L1854.27 1201.6 L1854.27 1197.34 L1862.53 1195.67 L1867.21 1195.67 L1867.21 1226.3 L1874.84 1226.3 L1874.84 1230.23 L1854.94 1230.23 L1854.94 1226.3 Z" fill="#000000" fill-rule="nonzero" fill-opacity="1" /><path clip-path="url(#clip010)" d="M1884.29 1224.35 L1889.17 1224.35 L1889.17 1230.23 L1884.29 1230.23 L1884.29 1224.35 Z" fill="#000000" fill-rule="nonzero" fill-opacity="1" /><path clip-path="url(#clip010)" d="M1909.36 1198.75 Q1905.75 1198.75 1903.92 1202.31 Q1902.11 1205.86 1902.11 1212.98 Q1902.11 1220.09 1903.92 1223.66 Q1905.75 1227.2 1909.36 1227.2 Q1912.99 1227.2 1914.8 1223.66 Q1916.63 1220.09 1916.63 1212.98 Q1916.63 1205.86 1914.8 1202.31 Q1912.99 1198.75 1909.36 1198.75 M1909.36 1195.05 Q1915.17 1195.05 1918.22 1199.65 Q1921.3 1204.24 1921.3 1212.98 Q1921.3 1221.71 1918.22 1226.32 Q1915.17 1230.9 1909.36 1230.9 Q1903.55 1230.9 1900.47 1226.32 Q1897.41 1221.71 1897.41 1212.98 Q1897.41 1204.24 1900.47 1199.65 Q1903.55 1195.05 1909.36 1195.05 Z" fill="#000000" fill-rule="nonzero" fill-opacity="1" /><path clip-path="url(#clip010)" d="M1939.52 1198.75 Q1935.91 1198.75 1934.08 1202.31 Q1932.27 1205.86 1932.27 1212.98 Q1932.27 1220.09 1934.08 1223.66 Q1935.91 1227.2 1939.52 1227.2 Q1943.15 1227.2 1944.96 1223.66 Q1946.79 1220.09 1946.79 1212.98 Q1946.79 1205.86 1944.96 1202.31 Q1943.15 1198.75 1939.52 1198.75 M1939.52 1195.05 Q1945.33 1195.05 1948.39 1199.65 Q1951.46 1204.24 1951.46 1212.98 Q1951.46 1221.71 1948.39 1226.32 Q1945.33 1230.9 1939.52 1230.9 Q1933.71 1230.9 1930.63 1226.32 Q1927.58 1221.71 1927.58 1212.98 Q1927.58 1204.24 1930.63 1199.65 Q1933.71 1195.05 1939.52 1195.05 Z" fill="#000000" fill-rule="nonzero" fill-opacity="1" /><polyline clip-path="url(#clip010)" style="stroke:#000000; stroke-linecap:round; stroke-linejoin:round; stroke-width:4; stroke-opacity:1; fill:none" points="189.936,1171.03 189.936,47.2441 "/>
<polyline clip-path="url(#clip010)" style="stroke:#000000; stroke-linecap:round; stroke-linejoin:round; stroke-width:4; stroke-opacity:1; fill:none" points="189.936,1139.28 208.834,1139.28 "/>
<polyline clip-path="url(#clip010)" style="stroke:#000000; stroke-linecap:round; stroke-linejoin:round; stroke-width:4; stroke-opacity:1; fill:none" points="189.936,874.186 208.834,874.186 "/>
<polyline clip-path="url(#clip010)" style="stroke:#000000; stroke-linecap:round; stroke-linejoin:round; stroke-width:4; stroke-opacity:1; fill:none" points="189.936,609.093 208.834,609.093 "/>
<polyline clip-path="url(#clip010)" style="stroke:#000000; stroke-linecap:round; stroke-linejoin:round; stroke-width:4; stroke-opacity:1; fill:none" points="189.936,344 208.834,344 "/>
<polyline clip-path="url(#clip010)" style="stroke:#000000; stroke-linecap:round; stroke-linejoin:round; stroke-width:4; stroke-opacity:1; fill:none" points="189.936,78.9071 208.834,78.9071 "/>
<path clip-path="url(#clip010)" d="M52.9921 1139.73 L82.6679 1139.73 L82.6679 1143.67 L52.9921 1143.67 L52.9921 1139.73 Z" fill="#000000" fill-rule="nonzero" fill-opacity="1" /><path clip-path="url(#clip010)" d="M93.5706 1152.62 L101.209 1152.62 L101.209 1126.26 L92.8993 1127.93 L92.8993 1123.67 L101.163 1122 L105.839 1122 L105.839 1152.62 L113.478 1152.62 L113.478 1156.56 L93.5706 1156.56 L93.5706 1152.62 Z" fill="#000000" fill-rule="nonzero" fill-opacity="1" /><path clip-path="url(#clip010)" d="M122.922 1150.68 L127.807 1150.68 L127.807 1156.56 L122.922 1156.56 L122.922 1150.68 Z" fill="#000000" fill-rule="nonzero" fill-opacity="1" /><path clip-path="url(#clip010)" d="M147.992 1125.08 Q144.381 1125.08 142.552 1128.64 Q140.746 1132.18 140.746 1139.31 Q140.746 1146.42 142.552 1149.99 Q144.381 1153.53 147.992 1153.53 Q151.626 1153.53 153.431 1149.99 Q155.26 1146.42 155.26 1139.31 Q155.26 1132.18 153.431 1128.64 Q151.626 1125.08 147.992 1125.08 M147.992 1121.37 Q153.802 1121.37 156.857 1125.98 Q159.936 1130.56 159.936 1139.31 Q159.936 1148.04 156.857 1152.65 Q153.802 1157.23 147.992 1157.23 Q142.181 1157.23 139.103 1152.65 Q136.047 1148.04 136.047 1139.31 Q136.047 1130.56 139.103 1125.98 Q142.181 1121.37 147.992 1121.37 Z" fill="#000000" fill-rule="nonzero" fill-opacity="1" /><path clip-path="url(#clip010)" d="M53.9875 874.638 L83.6633 874.638 L83.6633 878.573 L53.9875 878.573 L53.9875 874.638 Z" fill="#000000" fill-rule="nonzero" fill-opacity="1" /><path clip-path="url(#clip010)" d="M103.756 859.985 Q100.145 859.985 98.316 863.55 Q96.5104 867.092 96.5104 874.221 Q96.5104 881.328 98.316 884.892 Q100.145 888.434 103.756 888.434 Q107.39 888.434 109.196 884.892 Q111.024 881.328 111.024 874.221 Q111.024 867.092 109.196 863.55 Q107.39 859.985 103.756 859.985 M103.756 856.281 Q109.566 856.281 112.621 860.888 Q115.7 865.471 115.7 874.221 Q115.7 882.948 112.621 887.554 Q109.566 892.138 103.756 892.138 Q97.9456 892.138 94.8669 887.554 Q91.8114 882.948 91.8114 874.221 Q91.8114 865.471 94.8669 860.888 Q97.9456 856.281 103.756 856.281 Z" fill="#000000" fill-rule="nonzero" fill-opacity="1" /><path clip-path="url(#clip010)" d="M123.918 885.587 L128.802 885.587 L128.802 891.466 L123.918 891.466 L123.918 885.587 Z" fill="#000000" fill-rule="nonzero" fill-opacity="1" /><path clip-path="url(#clip010)" d="M139.033 856.906 L157.39 856.906 L157.39 860.842 L143.316 860.842 L143.316 869.314 Q144.334 868.967 145.353 868.805 Q146.371 868.619 147.39 868.619 Q153.177 868.619 156.556 871.791 Q159.936 874.962 159.936 880.379 Q159.936 885.957 156.464 889.059 Q152.992 892.138 146.672 892.138 Q144.496 892.138 142.228 891.767 Q139.982 891.397 137.575 890.656 L137.575 885.957 Q139.658 887.091 141.881 887.647 Q144.103 888.203 146.58 888.203 Q150.584 888.203 152.922 886.096 Q155.26 883.99 155.26 880.379 Q155.26 876.767 152.922 874.661 Q150.584 872.554 146.58 872.554 Q144.705 872.554 142.83 872.971 Q140.978 873.388 139.033 874.267 L139.033 856.906 Z" fill="#000000" fill-rule="nonzero" fill-opacity="1" /><path clip-path="url(#clip010)" d="M102.76 594.892 Q99.1493 594.892 97.3206 598.457 Q95.515 601.998 95.515 609.128 Q95.515 616.234 97.3206 619.799 Q99.1493 623.341 102.76 623.341 Q106.395 623.341 108.2 619.799 Q110.029 616.234 110.029 609.128 Q110.029 601.998 108.2 598.457 Q106.395 594.892 102.76 594.892 M102.76 591.188 Q108.571 591.188 111.626 595.795 Q114.705 600.378 114.705 609.128 Q114.705 617.855 111.626 622.461 Q108.571 627.045 102.76 627.045 Q96.9502 627.045 93.8715 622.461 Q90.816 617.855 90.816 609.128 Q90.816 600.378 93.8715 595.795 Q96.9502 591.188 102.76 591.188 Z" fill="#000000" fill-rule="nonzero" fill-opacity="1" /><path clip-path="url(#clip010)" d="M122.922 620.494 L127.807 620.494 L127.807 626.373 L122.922 626.373 L122.922 620.494 Z" fill="#000000" fill-rule="nonzero" fill-opacity="1" /><path clip-path="url(#clip010)" d="M147.992 594.892 Q144.381 594.892 142.552 598.457 Q140.746 601.998 140.746 609.128 Q140.746 616.234 142.552 619.799 Q144.381 623.341 147.992 623.341 Q151.626 623.341 153.431 619.799 Q155.26 616.234 155.26 609.128 Q155.26 601.998 153.431 598.457 Q151.626 594.892 147.992 594.892 M147.992 591.188 Q153.802 591.188 156.857 595.795 Q159.936 600.378 159.936 609.128 Q159.936 617.855 156.857 622.461 Q153.802 627.045 147.992 627.045 Q142.181 627.045 139.103 622.461 Q136.047 617.855 136.047 609.128 Q136.047 600.378 139.103 595.795 Q142.181 591.188 147.992 591.188 Z" fill="#000000" fill-rule="nonzero" fill-opacity="1" /><path clip-path="url(#clip010)" d="M103.756 329.799 Q100.145 329.799 98.316 333.364 Q96.5104 336.905 96.5104 344.035 Q96.5104 351.141 98.316 354.706 Q100.145 358.248 103.756 358.248 Q107.39 358.248 109.196 354.706 Q111.024 351.141 111.024 344.035 Q111.024 336.905 109.196 333.364 Q107.39 329.799 103.756 329.799 M103.756 326.095 Q109.566 326.095 112.621 330.702 Q115.7 335.285 115.7 344.035 Q115.7 352.762 112.621 357.368 Q109.566 361.952 103.756 361.952 Q97.9456 361.952 94.8669 357.368 Q91.8114 352.762 91.8114 344.035 Q91.8114 335.285 94.8669 330.702 Q97.9456 326.095 103.756 326.095 Z" fill="#000000" fill-rule="nonzero" fill-opacity="1" /><path clip-path="url(#clip010)" d="M123.918 355.401 L128.802 355.401 L128.802 361.28 L123.918 361.28 L123.918 355.401 Z" fill="#000000" fill-rule="nonzero" fill-opacity="1" /><path clip-path="url(#clip010)" d="M139.033 326.72 L157.39 326.72 L157.39 330.655 L143.316 330.655 L143.316 339.128 Q144.334 338.78 145.353 338.618 Q146.371 338.433 147.39 338.433 Q153.177 338.433 156.556 341.604 Q159.936 344.776 159.936 350.192 Q159.936 355.771 156.464 358.873 Q152.992 361.952 146.672 361.952 Q144.496 361.952 142.228 361.581 Q139.982 361.211 137.575 360.47 L137.575 355.771 Q139.658 356.905 141.881 357.461 Q144.103 358.016 146.58 358.016 Q150.584 358.016 152.922 355.91 Q155.26 353.803 155.26 350.192 Q155.26 346.581 152.922 344.475 Q150.584 342.368 146.58 342.368 Q144.705 342.368 142.83 342.785 Q140.978 343.202 139.033 344.081 L139.033 326.72 Z" fill="#000000" fill-rule="nonzero" fill-opacity="1" /><path clip-path="url(#clip010)" d="M93.5706 92.252 L101.209 92.252 L101.209 65.8864 L92.8993 67.553 L92.8993 63.2938 L101.163 61.6271 L105.839 61.6271 L105.839 92.252 L113.478 92.252 L113.478 96.1871 L93.5706 96.1871 L93.5706 92.252 Z" fill="#000000" fill-rule="nonzero" fill-opacity="1" /><path clip-path="url(#clip010)" d="M122.922 90.3075 L127.807 90.3075 L127.807 96.1871 L122.922 96.1871 L122.922 90.3075 Z" fill="#000000" fill-rule="nonzero" fill-opacity="1" /><path clip-path="url(#clip010)" d="M147.992 64.7058 Q144.381 64.7058 142.552 68.2706 Q140.746 71.8123 140.746 78.9419 Q140.746 86.0483 142.552 89.6131 Q144.381 93.1547 147.992 93.1547 Q151.626 93.1547 153.431 89.6131 Q155.26 86.0483 155.26 78.9419 Q155.26 71.8123 153.431 68.2706 Q151.626 64.7058 147.992 64.7058 M147.992 61.0021 Q153.802 61.0021 156.857 65.6086 Q159.936 70.1919 159.936 78.9419 Q159.936 87.6687 156.857 92.2751 Q153.802 96.8584 147.992 96.8584 Q142.181 96.8584 139.103 92.2751 Q136.047 87.6687 136.047 78.9419 Q136.047 70.1919 139.103 65.6086 Q142.181 61.0021 147.992 61.0021 Z" fill="#000000" fill-rule="nonzero" fill-opacity="1" /><polyline clip-path="url(#clip012)" style="stroke:#009af9; stroke-linecap:round; stroke-linejoin:round; stroke-width:8; stroke-opacity:1; fill:none" points="239.827,162.957 248.411,160.008 256.996,157.078 307.274,140.373 357.551,124.707 380.941,117.885 404.33,111.422 435.68,103.41 467.03,96.2639 492.935,91.1134 518.84,86.7387 542.929,83.4484 567.019,80.9894 597.259,79.2093 627.499,79.0494 654.624,80.4383 681.75,83.424 712.799,88.9922 743.847,97.0762 767.056,104.903 790.265,114.367 805.108,121.323 819.95,129.015 834.792,137.468 849.635,146.708 876.728,165.682 903.821,187.496 919.239,201.227 934.657,215.94 950.075,231.654 965.493,248.385 989.937,277.025 1014.38,308.286 1029.57,329.031 1044.75,350.787 1059.93,373.546 1075.12,397.294 1098.38,435.537 1121.63,475.948 1138.03,505.662 1154.42,536.318 1170.82,567.842 1187.21,600.146 1211.72,649.651 1236.22,700.262 1264.08,758.55 1291.95,816.813 1319.55,873.53 1347.14,928.18 1362.32,956.925 1377.5,984.459 1392.68,1010.55 1407.87,1034.96 1419.46,1052.33 1431.06,1068.45 1442.65,1083.22 1454.25,1096.52 1461.56,1104.11 1468.88,1111.04 1476.2,1117.27 1483.51,1122.79 1498.14,1131.56 1512.78,1137.12 1519.54,1138.55 1526.31,1139.23 1533.08,1139.13 1539.84,1138.24 1546.61,1136.54 1553.38,1134.01 1560.14,1130.64 1566.91,1126.41 1573.89,1121.14 1580.87,1114.93 1587.85,1107.76 1594.82,1099.64 1601.8,1090.54 1608.78,1080.46 1615.76,1069.4 1622.74,1057.36 1629.81,1044.14 1636.89,1029.92 1643.96,1014.7 1651.03,998.488 1658.11,981.292 1665.18,963.129 1672.25,944.018 1679.33,923.982 1686.71,902.098 1694.1,879.266 1701.49,855.524 1708.87,830.912 1716.26,805.48 1723.65,779.278 1731.03,752.364 1738.42,724.8 1761.69,634.482 1784.97,540.844 1798.22,487.146 1811.47,433.913 1824.72,381.791 1837.97,331.465 1844.59,307.198 1851.22,283.65 1857.84,260.913 1864.47,239.082 1871.1,218.251 1877.72,198.512 1884.35,179.961 1890.97,162.689 1893.94,155.378 1896.92,148.352 1899.89,141.617 1902.86,135.184 "/>
<path clip-path="url(#clip010)" d="M248.697 1133.57 L613.519 1133.57 L613.519 1029.89 L248.697 1029.89  Z" fill="#ffffff" fill-rule="evenodd" fill-opacity="1"/>
<polyline clip-path="url(#clip010)" style="stroke:#000000; stroke-linecap:round; stroke-linejoin:round; stroke-width:4; stroke-opacity:1; fill:none" points="248.697,1133.57 613.519,1133.57 613.519,1029.89 248.697,1029.89 248.697,1133.57 "/>
<polyline clip-path="url(#clip010)" style="stroke:#009af9; stroke-linecap:round; stroke-linejoin:round; stroke-width:8; stroke-opacity:1; fill:none" points="268.284,1081.73 385.805,1081.73 "/>
<path clip-path="url(#clip010)" d="M421.896 1062.99 L421.896 1066.53 L417.822 1066.53 Q415.531 1066.53 414.628 1067.46 Q413.748 1068.39 413.748 1070.79 L413.748 1073.08 L420.762 1073.08 L420.762 1076.4 L413.748 1076.4 L413.748 1099.01 L409.466 1099.01 L409.466 1076.4 L405.392 1076.4 L405.392 1073.08 L409.466 1073.08 L409.466 1071.28 Q409.466 1066.95 411.48 1064.98 Q413.494 1062.99 417.869 1062.99 L421.896 1062.99 Z" fill="#000000" fill-rule="nonzero" fill-opacity="1" /><path clip-path="url(#clip010)" d="M425.021 1088.78 L425.021 1073.08 L429.281 1073.08 L429.281 1088.62 Q429.281 1092.3 430.716 1094.15 Q432.151 1095.98 435.021 1095.98 Q438.47 1095.98 440.461 1093.78 Q442.475 1091.58 442.475 1087.78 L442.475 1073.08 L446.734 1073.08 L446.734 1099.01 L442.475 1099.01 L442.475 1095.03 Q440.924 1097.39 438.864 1098.55 Q436.827 1099.68 434.118 1099.68 Q429.651 1099.68 427.336 1096.9 Q425.021 1094.13 425.021 1088.78 M435.739 1072.46 L435.739 1072.46 Z" fill="#000000" fill-rule="nonzero" fill-opacity="1" /><path clip-path="url(#clip010)" d="M477.058 1083.36 L477.058 1099.01 L472.799 1099.01 L472.799 1083.5 Q472.799 1079.82 471.364 1077.99 Q469.928 1076.16 467.058 1076.16 Q463.609 1076.16 461.618 1078.36 Q459.628 1080.56 459.628 1084.36 L459.628 1099.01 L455.345 1099.01 L455.345 1073.08 L459.628 1073.08 L459.628 1077.11 Q461.155 1074.77 463.216 1073.62 Q465.299 1072.46 468.007 1072.46 Q472.475 1072.46 474.766 1075.24 Q477.058 1077.99 477.058 1083.36 Z" fill="#000000" fill-rule="nonzero" fill-opacity="1" /><path clip-path="url(#clip010)" d="M504.211 1074.08 L504.211 1078.06 Q502.405 1077.07 500.576 1076.58 Q498.771 1076.07 496.919 1076.07 Q492.776 1076.07 490.484 1078.71 Q488.192 1081.33 488.192 1086.07 Q488.192 1090.82 490.484 1093.46 Q492.776 1096.07 496.919 1096.07 Q498.771 1096.07 500.576 1095.58 Q502.405 1095.08 504.211 1094.08 L504.211 1098.02 Q502.428 1098.85 500.507 1099.27 Q498.609 1099.68 496.456 1099.68 Q490.6 1099.68 487.151 1096 Q483.702 1092.32 483.702 1086.07 Q483.702 1079.73 487.174 1076.09 Q490.669 1072.46 496.734 1072.46 Q498.701 1072.46 500.576 1072.88 Q502.451 1073.27 504.211 1074.08 Z" fill="#000000" fill-rule="nonzero" fill-opacity="1" /><path clip-path="url(#clip010)" d="M515.831 1065.72 L515.831 1073.08 L524.604 1073.08 L524.604 1076.4 L515.831 1076.4 L515.831 1090.47 Q515.831 1093.64 516.687 1094.54 Q517.567 1095.45 520.229 1095.45 L524.604 1095.45 L524.604 1099.01 L520.229 1099.01 Q515.299 1099.01 513.424 1097.18 Q511.549 1095.33 511.549 1090.47 L511.549 1076.4 L508.424 1076.4 L508.424 1073.08 L511.549 1073.08 L511.549 1065.72 L515.831 1065.72 Z" fill="#000000" fill-rule="nonzero" fill-opacity="1" /><path clip-path="url(#clip010)" d="M530.206 1073.08 L534.465 1073.08 L534.465 1099.01 L530.206 1099.01 L530.206 1073.08 M530.206 1062.99 L534.465 1062.99 L534.465 1068.39 L530.206 1068.39 L530.206 1062.99 Z" fill="#000000" fill-rule="nonzero" fill-opacity="1" /><path clip-path="url(#clip010)" d="M553.423 1076.07 Q549.997 1076.07 548.007 1078.76 Q546.016 1081.42 546.016 1086.07 Q546.016 1090.72 547.984 1093.41 Q549.974 1096.07 553.423 1096.07 Q556.826 1096.07 558.817 1093.39 Q560.808 1090.7 560.808 1086.07 Q560.808 1081.46 558.817 1078.78 Q556.826 1076.07 553.423 1076.07 M553.423 1072.46 Q558.979 1072.46 562.15 1076.07 Q565.321 1079.68 565.321 1086.07 Q565.321 1092.44 562.15 1096.07 Q558.979 1099.68 553.423 1099.68 Q547.845 1099.68 544.673 1096.07 Q541.525 1092.44 541.525 1086.07 Q541.525 1079.68 544.673 1076.07 Q547.845 1072.46 553.423 1072.46 Z" fill="#000000" fill-rule="nonzero" fill-opacity="1" /><path clip-path="url(#clip010)" d="M593.932 1083.36 L593.932 1099.01 L589.673 1099.01 L589.673 1083.5 Q589.673 1079.82 588.238 1077.99 Q586.803 1076.16 583.932 1076.16 Q580.483 1076.16 578.493 1078.36 Q576.502 1080.56 576.502 1084.36 L576.502 1099.01 L572.22 1099.01 L572.22 1073.08 L576.502 1073.08 L576.502 1077.11 Q578.03 1074.77 580.09 1073.62 Q582.173 1072.46 584.882 1072.46 Q589.349 1072.46 591.641 1075.24 Q593.932 1077.99 593.932 1083.36 Z" fill="#000000" fill-rule="nonzero" fill-opacity="1" /></svg>
