<?xml version="1.0" encoding="utf-8"?>
<svg xmlns="http://www.w3.org/2000/svg" xmlns:xlink="http://www.w3.org/1999/xlink" width="500" height="320" viewBox="0 0 2000 1280">
<defs>
  <clipPath id="clip480">
    <rect x="0" y="0" width="2000" height="1280"/>
  </clipPath>
</defs>
<path clip-path="url(#clip480)" d="M0 1280 L2000 1280 L2000 0 L0 0  Z" fill="#ffffff" fill-rule="evenodd" fill-opacity="1"/>
<defs>
  <clipPath id="clip481">
    <rect x="400" y="0" width="1401" height="1280"/>
  </clipPath>
</defs>
<path clip-path="url(#clip480)" d="M212.124 1111.02 L1952.76 1111.02 L1952.76 107.256 L212.124 107.256  Z" fill="#ffffff" fill-rule="evenodd" fill-opacity="1"/>
<defs>
  <clipPath id="clip482">
    <rect x="212" y="107" width="1742" height="1005"/>
  </clipPath>
</defs>
<polyline clip-path="url(#clip482)" style="stroke:#000000; stroke-linecap:round; stroke-linejoin:round; stroke-width:2; stroke-opacity:0.1; fill:none" points="261.387,1111.02 261.387,107.256 "/>
<polyline clip-path="url(#clip482)" style="stroke:#000000; stroke-linecap:round; stroke-linejoin:round; stroke-width:2; stroke-opacity:0.1; fill:none" points="671.913,1111.02 671.913,107.256 "/>
<polyline clip-path="url(#clip482)" style="stroke:#000000; stroke-linecap:round; stroke-linejoin:round; stroke-width:2; stroke-opacity:0.1; fill:none" points="1082.44,1111.02 1082.44,107.256 "/>
<polyline clip-path="url(#clip482)" style="stroke:#000000; stroke-linecap:round; stroke-linejoin:round; stroke-width:2; stroke-opacity:0.1; fill:none" points="1492.97,1111.02 1492.97,107.256 "/>
<polyline clip-path="url(#clip482)" style="stroke:#000000; stroke-linecap:round; stroke-linejoin:round; stroke-width:2; stroke-opacity:0.1; fill:none" points="1903.49,1111.02 1903.49,107.256 "/>
<polyline clip-path="url(#clip482)" style="stroke:#000000; stroke-linecap:round; stroke-linejoin:round; stroke-width:2; stroke-opacity:0.1; fill:none" points="212.124,1108.59 1952.76,1108.59 "/>
<polyline clip-path="url(#clip482)" style="stroke:#000000; stroke-linecap:round; stroke-linejoin:round; stroke-width:2; stroke-opacity:0.1; fill:none" points="212.124,929.634 1952.76,929.634 "/>
<polyline clip-path="url(#clip482)" style="stroke:#000000; stroke-linecap:round; stroke-linejoin:round; stroke-width:2; stroke-opacity:0.1; fill:none" points="212.124,750.673 1952.76,750.673 "/>
<polyline clip-path="url(#clip482)" style="stroke:#000000; stroke-linecap:round; stroke-linejoin:round; stroke-width:2; stroke-opacity:0.1; fill:none" points="212.124,571.713 1952.76,571.713 "/>
<polyline clip-path="url(#clip482)" style="stroke:#000000; stroke-linecap:round; stroke-linejoin:round; stroke-width:2; stroke-opacity:0.1; fill:none" points="212.124,392.752 1952.76,392.752 "/>
<polyline clip-path="url(#clip482)" style="stroke:#000000; stroke-linecap:round; stroke-linejoin:round; stroke-width:2; stroke-opacity:0.1; fill:none" points="212.124,213.792 1952.76,213.792 "/>
<polyline clip-path="url(#clip480)" style="stroke:#000000; stroke-linecap:round; stroke-linejoin:round; stroke-width:4; stroke-opacity:1; fill:none" points="212.124,1111.02 1952.76,1111.02 "/>
<polyline clip-path="url(#clip480)" style="stroke:#000000; stroke-linecap:round; stroke-linejoin:round; stroke-width:4; stroke-opacity:1; fill:none" points="261.387,1111.02 261.387,1092.12 "/>
<polyline clip-path="url(#clip480)" style="stroke:#000000; stroke-linecap:round; stroke-linejoin:round; stroke-width:4; stroke-opacity:1; fill:none" points="671.913,1111.02 671.913,1092.12 "/>
<polyline clip-path="url(#clip480)" style="stroke:#000000; stroke-linecap:round; stroke-linejoin:round; stroke-width:4; stroke-opacity:1; fill:none" points="1082.44,1111.02 1082.44,1092.12 "/>
<polyline clip-path="url(#clip480)" style="stroke:#000000; stroke-linecap:round; stroke-linejoin:round; stroke-width:4; stroke-opacity:1; fill:none" points="1492.97,1111.02 1492.97,1092.12 "/>
<polyline clip-path="url(#clip480)" style="stroke:#000000; stroke-linecap:round; stroke-linejoin:round; stroke-width:4; stroke-opacity:1; fill:none" points="1903.49,1111.02 1903.49,1092.12 "/>
<path clip-path="url(#clip480)" d="M207.915 1153.39 L237.591 1153.39 L237.591 1157.33 L207.915 1157.33 L207.915 1153.39 Z" fill="#000000" fill-rule="nonzero" fill-opacity="1" /><path clip-path="url(#clip480)" d="M248.494 1166.28 L256.132 1166.28 L256.132 1139.92 L247.822 1141.58 L247.822 1137.33 L256.086 1135.66 L260.762 1135.66 L260.762 1166.28 L268.401 1166.28 L268.401 1170.22 L248.494 1170.22 L248.494 1166.28 Z" fill="#000000" fill-rule="nonzero" fill-opacity="1" /><path clip-path="url(#clip480)" d="M277.845 1164.34 L282.73 1164.34 L282.73 1170.22 L277.845 1170.22 L277.845 1164.34 Z" fill="#000000" fill-rule="nonzero" fill-opacity="1" /><path clip-path="url(#clip480)" d="M302.915 1138.74 Q299.304 1138.74 297.475 1142.3 Q295.669 1145.84 295.669 1152.97 Q295.669 1160.08 297.475 1163.64 Q299.304 1167.19 302.915 1167.19 Q306.549 1167.19 308.354 1163.64 Q310.183 1160.08 310.183 1152.97 Q310.183 1145.84 308.354 1142.3 Q306.549 1138.74 302.915 1138.74 M302.915 1135.03 Q308.725 1135.03 311.78 1139.64 Q314.859 1144.22 314.859 1152.97 Q314.859 1161.7 311.78 1166.31 Q308.725 1170.89 302.915 1170.89 Q297.104 1170.89 294.026 1166.31 Q290.97 1161.7 290.97 1152.97 Q290.97 1144.22 294.026 1139.64 Q297.104 1135.03 302.915 1135.03 Z" fill="#000000" fill-rule="nonzero" fill-opacity="1" /><path clip-path="url(#clip480)" d="M618.939 1153.39 L648.615 1153.39 L648.615 1157.33 L618.939 1157.33 L618.939 1153.39 Z" fill="#000000" fill-rule="nonzero" fill-opacity="1" /><path clip-path="url(#clip480)" d="M668.707 1138.74 Q665.096 1138.74 663.268 1142.3 Q661.462 1145.84 661.462 1152.97 Q661.462 1160.08 663.268 1163.64 Q665.096 1167.19 668.707 1167.19 Q672.342 1167.19 674.147 1163.64 Q675.976 1160.08 675.976 1152.97 Q675.976 1145.84 674.147 1142.3 Q672.342 1138.74 668.707 1138.74 M668.707 1135.03 Q674.518 1135.03 677.573 1139.64 Q680.652 1144.22 680.652 1152.97 Q680.652 1161.7 677.573 1166.31 Q674.518 1170.89 668.707 1170.89 Q662.897 1170.89 659.819 1166.31 Q656.763 1161.7 656.763 1152.97 Q656.763 1144.22 659.819 1139.64 Q662.897 1135.03 668.707 1135.03 Z" fill="#000000" fill-rule="nonzero" fill-opacity="1" /><path clip-path="url(#clip480)" d="M688.869 1164.34 L693.754 1164.34 L693.754 1170.22 L688.869 1170.22 L688.869 1164.34 Z" fill="#000000" fill-rule="nonzero" fill-opacity="1" /><path clip-path="url(#clip480)" d="M703.985 1135.66 L722.341 1135.66 L722.341 1139.59 L708.267 1139.59 L708.267 1148.07 Q709.286 1147.72 710.304 1147.56 Q711.323 1147.37 712.342 1147.37 Q718.129 1147.37 721.508 1150.54 Q724.888 1153.71 724.888 1159.13 Q724.888 1164.71 721.416 1167.81 Q717.943 1170.89 711.624 1170.89 Q709.448 1170.89 707.18 1170.52 Q704.934 1170.15 702.527 1169.41 L702.527 1164.71 Q704.61 1165.84 706.832 1166.4 Q709.055 1166.95 711.531 1166.95 Q715.536 1166.95 717.874 1164.85 Q720.212 1162.74 720.212 1159.13 Q720.212 1155.52 717.874 1153.41 Q715.536 1151.31 711.531 1151.31 Q709.656 1151.31 707.781 1151.72 Q705.93 1152.14 703.985 1153.02 L703.985 1135.66 Z" fill="#000000" fill-rule="nonzero" fill-opacity="1" /><path clip-path="url(#clip480)" d="M1059.82 1138.74 Q1056.21 1138.74 1054.38 1142.3 Q1052.58 1145.84 1052.58 1152.97 Q1052.58 1160.08 1054.38 1163.64 Q1056.21 1167.19 1059.82 1167.19 Q1063.46 1167.19 1065.26 1163.64 Q1067.09 1160.08 1067.09 1152.97 Q1067.09 1145.84 1065.26 1142.3 Q1063.46 1138.74 1059.82 1138.74 M1059.82 1135.03 Q1065.63 1135.03 1068.69 1139.64 Q1071.77 1144.22 1071.77 1152.97 Q1071.77 1161.7 1068.69 1166.31 Q1065.63 1170.89 1059.82 1170.89 Q1054.01 1170.89 1050.94 1166.31 Q1047.88 1161.7 1047.88 1152.97 Q1047.88 1144.22 1050.94 1139.64 Q1054.01 1135.03 1059.82 1135.03 Z" fill="#000000" fill-rule="nonzero" fill-opacity="1" /><path clip-path="url(#clip480)" d="M1079.99 1164.34 L1084.87 1164.34 L1084.87 1170.22 L1079.99 1170.22 L1079.99 1164.34 Z" fill="#000000" fill-rule="nonzero" fill-opacity="1" /><path clip-path="url(#clip480)" d="M1105.06 1138.74 Q1101.44 1138.74 1099.62 1142.3 Q1097.81 1145.84 1097.81 1152.97 Q1097.81 1160.08 1099.62 1163.64 Q1101.44 1167.19 1105.06 1167.19 Q1108.69 1167.19 1110.5 1163.64 Q1112.32 1160.08 1112.32 1152.97 Q1112.32 1145.84 1110.5 1142.3 Q1108.69 1138.74 1105.06 1138.74 M1105.06 1135.03 Q1110.87 1135.03 1113.92 1139.64 Q1117 1144.22 1117 1152.97 Q1117 1161.7 1113.92 1166.31 Q1110.87 1170.89 1105.06 1170.89 Q1099.25 1170.89 1096.17 1166.31 Q1093.11 1161.7 1093.11 1152.97 Q1093.11 1144.22 1096.17 1139.64 Q1099.25 1135.03 1105.06 1135.03 Z" fill="#000000" fill-rule="nonzero" fill-opacity="1" /><path clip-path="url(#clip480)" d="M1470.85 1138.74 Q1467.24 1138.74 1465.41 1142.3 Q1463.6 1145.84 1463.6 1152.97 Q1463.6 1160.08 1465.41 1163.64 Q1467.24 1167.19 1470.85 1167.19 Q1474.48 1167.19 1476.29 1163.64 Q1478.12 1160.08 1478.12 1152.97 Q1478.12 1145.84 1476.29 1142.3 Q1474.48 1138.74 1470.85 1138.74 M1470.85 1135.03 Q1476.66 1135.03 1479.71 1139.64 Q1482.79 1144.22 1482.79 1152.97 Q1482.79 1161.7 1479.71 1166.31 Q1476.66 1170.89 1470.85 1170.89 Q1465.04 1170.89 1461.96 1166.31 Q1458.9 1161.7 1458.9 1152.97 Q1458.9 1144.22 1461.96 1139.64 Q1465.04 1135.03 1470.85 1135.03 Z" fill="#000000" fill-rule="nonzero" fill-opacity="1" /><path clip-path="url(#clip480)" d="M1491.01 1164.34 L1495.89 1164.34 L1495.89 1170.22 L1491.01 1170.22 L1491.01 1164.34 Z" fill="#000000" fill-rule="nonzero" fill-opacity="1" /><path clip-path="url(#clip480)" d="M1506.13 1135.66 L1524.48 1135.66 L1524.48 1139.59 L1510.41 1139.59 L1510.41 1148.07 Q1511.43 1147.72 1512.45 1147.56 Q1513.46 1147.37 1514.48 1147.37 Q1520.27 1147.37 1523.65 1150.54 Q1527.03 1153.71 1527.03 1159.13 Q1527.03 1164.71 1523.56 1167.81 Q1520.08 1170.89 1513.76 1170.89 Q1511.59 1170.89 1509.32 1170.52 Q1507.08 1170.15 1504.67 1169.41 L1504.67 1164.71 Q1506.75 1165.84 1508.97 1166.4 Q1511.2 1166.95 1513.67 1166.95 Q1517.68 1166.95 1520.01 1164.85 Q1522.35 1162.74 1522.35 1159.13 Q1522.35 1155.52 1520.01 1153.41 Q1517.68 1151.31 1513.67 1151.31 Q1511.8 1151.31 1509.92 1151.72 Q1508.07 1152.14 1506.13 1153.02 L1506.13 1135.66 Z" fill="#000000" fill-rule="nonzero" fill-opacity="1" /><path clip-path="url(#clip480)" d="M1870.65 1166.28 L1878.28 1166.28 L1878.28 1139.92 L1869.97 1141.58 L1869.97 1137.33 L1878.24 1135.66 L1882.91 1135.66 L1882.91 1166.28 L1890.55 1166.28 L1890.55 1170.22 L1870.65 1170.22 L1870.65 1166.28 Z" fill="#000000" fill-rule="nonzero" fill-opacity="1" /><path clip-path="url(#clip480)" d="M1900 1164.34 L1904.88 1164.34 L1904.88 1170.22 L1900 1170.22 L1900 1164.34 Z" fill="#000000" fill-rule="nonzero" fill-opacity="1" /><path clip-path="url(#clip480)" d="M1925.07 1138.74 Q1921.46 1138.74 1919.63 1142.3 Q1917.82 1145.84 1917.82 1152.97 Q1917.82 1160.08 1919.63 1163.64 Q1921.46 1167.19 1925.07 1167.19 Q1928.7 1167.19 1930.51 1163.64 Q1932.34 1160.08 1932.34 1152.97 Q1932.34 1145.84 1930.51 1142.3 Q1928.7 1138.74 1925.07 1138.74 M1925.07 1135.03 Q1930.88 1135.03 1933.93 1139.64 Q1937.01 1144.22 1937.01 1152.97 Q1937.01 1161.7 1933.93 1166.31 Q1930.88 1170.89 1925.07 1170.89 Q1919.26 1170.89 1916.18 1166.31 Q1913.12 1161.7 1913.12 1152.97 Q1913.12 1144.22 1916.18 1139.64 Q1919.26 1135.03 1925.07 1135.03 Z" fill="#000000" fill-rule="nonzero" fill-opacity="1" /><g clip-path="url(#clip480)">
<text style="fill:#000000; fill-opacity:1; font-family:Arial,Helvetica Neue,Helvetica,sans-serif; font-size:66px; text-anchor:middle;" transform="rotate(0, 1082.44, 1252.42)" x="1082.44" y="1252.42">x</text>
</g>
<polyline clip-path="url(#clip480)" style="stroke:#000000; stroke-linecap:round; stroke-linejoin:round; stroke-width:4; stroke-opacity:1; fill:none" points="212.124,1111.02 212.124,107.256 "/>
<polyline clip-path="url(#clip480)" style="stroke:#000000; stroke-linecap:round; stroke-linejoin:round; stroke-width:4; stroke-opacity:1; fill:none" points="212.124,1108.59 231.022,1108.59 "/>
<polyline clip-path="url(#clip480)" style="stroke:#000000; stroke-linecap:round; stroke-linejoin:round; stroke-width:4; stroke-opacity:1; fill:none" points="212.124,929.634 231.022,929.634 "/>
<polyline clip-path="url(#clip480)" style="stroke:#000000; stroke-linecap:round; stroke-linejoin:round; stroke-width:4; stroke-opacity:1; fill:none" points="212.124,750.673 231.022,750.673 "/>
<polyline clip-path="url(#clip480)" style="stroke:#000000; stroke-linecap:round; stroke-linejoin:round; stroke-width:4; stroke-opacity:1; fill:none" points="212.124,571.713 231.022,571.713 "/>
<polyline clip-path="url(#clip480)" style="stroke:#000000; stroke-linecap:round; stroke-linejoin:round; stroke-width:4; stroke-opacity:1; fill:none" points="212.124,392.752 231.022,392.752 "/>
<polyline clip-path="url(#clip480)" style="stroke:#000000; stroke-linecap:round; stroke-linejoin:round; stroke-width:4; stroke-opacity:1; fill:none" points="212.124,213.792 231.022,213.792 "/>
<path clip-path="url(#clip480)" d="M124.948 1094.39 Q121.337 1094.39 119.509 1097.96 Q117.703 1101.5 117.703 1108.63 Q117.703 1115.74 119.509 1119.3 Q121.337 1122.84 124.948 1122.84 Q128.583 1122.84 130.388 1119.3 Q132.217 1115.74 132.217 1108.63 Q132.217 1101.5 130.388 1097.96 Q128.583 1094.39 124.948 1094.39 M124.948 1090.69 Q130.758 1090.69 133.814 1095.3 Q136.893 1099.88 136.893 1108.63 Q136.893 1117.36 133.814 1121.96 Q130.758 1126.55 124.948 1126.55 Q119.138 1126.55 116.059 1121.96 Q113.004 1117.36 113.004 1108.63 Q113.004 1099.88 116.059 1095.3 Q119.138 1090.69 124.948 1090.69 Z" fill="#000000" fill-rule="nonzero" fill-opacity="1" /><path clip-path="url(#clip480)" d="M145.11 1119.99 L149.994 1119.99 L149.994 1125.87 L145.11 1125.87 L145.11 1119.99 Z" fill="#000000" fill-rule="nonzero" fill-opacity="1" /><path clip-path="url(#clip480)" d="M170.18 1094.39 Q166.568 1094.39 164.74 1097.96 Q162.934 1101.5 162.934 1108.63 Q162.934 1115.74 164.74 1119.3 Q166.568 1122.84 170.18 1122.84 Q173.814 1122.84 175.619 1119.3 Q177.448 1115.74 177.448 1108.63 Q177.448 1101.5 175.619 1097.96 Q173.814 1094.39 170.18 1094.39 M170.18 1090.69 Q175.99 1090.69 179.045 1095.3 Q182.124 1099.88 182.124 1108.63 Q182.124 1117.36 179.045 1121.96 Q175.99 1126.55 170.18 1126.55 Q164.369 1126.55 161.291 1121.96 Q158.235 1117.36 158.235 1108.63 Q158.235 1099.88 161.291 1095.3 Q164.369 1090.69 170.18 1090.69 Z" fill="#000000" fill-rule="nonzero" fill-opacity="1" /><path clip-path="url(#clip480)" d="M125.944 915.433 Q122.333 915.433 120.504 918.997 Q118.698 922.539 118.698 929.669 Q118.698 936.775 120.504 940.34 Q122.333 943.882 125.944 943.882 Q129.578 943.882 131.383 940.34 Q133.212 936.775 133.212 929.669 Q133.212 922.539 131.383 918.997 Q129.578 915.433 125.944 915.433 M125.944 911.729 Q131.754 911.729 134.809 916.335 Q137.888 920.919 137.888 929.669 Q137.888 938.395 134.809 943.002 Q131.754 947.585 125.944 947.585 Q120.134 947.585 117.055 943.002 Q113.999 938.395 113.999 929.669 Q113.999 920.919 117.055 916.335 Q120.134 911.729 125.944 911.729 Z" fill="#000000" fill-rule="nonzero" fill-opacity="1" /><path clip-path="url(#clip480)" d="M146.106 941.034 L150.99 941.034 L150.99 946.914 L146.106 946.914 L146.106 941.034 Z" fill="#000000" fill-rule="nonzero" fill-opacity="1" /><path clip-path="url(#clip480)" d="M161.221 912.354 L179.578 912.354 L179.578 916.289 L165.504 916.289 L165.504 924.761 Q166.522 924.414 167.541 924.252 Q168.559 924.067 169.578 924.067 Q175.365 924.067 178.744 927.238 Q182.124 930.409 182.124 935.826 Q182.124 941.405 178.652 944.507 Q175.18 947.585 168.86 947.585 Q166.684 947.585 164.416 947.215 Q162.17 946.845 159.763 946.104 L159.763 941.405 Q161.846 942.539 164.068 943.095 Q166.291 943.65 168.768 943.65 Q172.772 943.65 175.11 941.544 Q177.448 939.437 177.448 935.826 Q177.448 932.215 175.11 930.109 Q172.772 928.002 168.768 928.002 Q166.893 928.002 165.018 928.419 Q163.166 928.835 161.221 929.715 L161.221 912.354 Z" fill="#000000" fill-rule="nonzero" fill-opacity="1" /><path clip-path="url(#clip480)" d="M115.759 764.018 L123.397 764.018 L123.397 737.653 L115.087 739.319 L115.087 735.06 L123.351 733.393 L128.027 733.393 L128.027 764.018 L135.666 764.018 L135.666 767.953 L115.759 767.953 L115.759 764.018 Z" fill="#000000" fill-rule="nonzero" fill-opacity="1" /><path clip-path="url(#clip480)" d="M145.11 762.074 L149.994 762.074 L149.994 767.953 L145.11 767.953 L145.11 762.074 Z" fill="#000000" fill-rule="nonzero" fill-opacity="1" /><path clip-path="url(#clip480)" d="M170.18 736.472 Q166.568 736.472 164.74 740.037 Q162.934 743.579 162.934 750.708 Q162.934 757.815 164.74 761.379 Q166.568 764.921 170.18 764.921 Q173.814 764.921 175.619 761.379 Q177.448 757.815 177.448 750.708 Q177.448 743.579 175.619 740.037 Q173.814 736.472 170.18 736.472 M170.18 732.768 Q175.99 732.768 179.045 737.375 Q182.124 741.958 182.124 750.708 Q182.124 759.435 179.045 764.041 Q175.99 768.625 170.18 768.625 Q164.369 768.625 161.291 764.041 Q158.235 759.435 158.235 750.708 Q158.235 741.958 161.291 737.375 Q164.369 732.768 170.18 732.768 Z" fill="#000000" fill-rule="nonzero" fill-opacity="1" /><path clip-path="url(#clip480)" d="M116.754 585.058 L124.393 585.058 L124.393 558.692 L116.083 560.359 L116.083 556.1 L124.346 554.433 L129.022 554.433 L129.022 585.058 L136.661 585.058 L136.661 588.993 L116.754 588.993 L116.754 585.058 Z" fill="#000000" fill-rule="nonzero" fill-opacity="1" /><path clip-path="url(#clip480)" d="M146.106 583.113 L150.99 583.113 L150.99 588.993 L146.106 588.993 L146.106 583.113 Z" fill="#000000" fill-rule="nonzero" fill-opacity="1" /><path clip-path="url(#clip480)" d="M161.221 554.433 L179.578 554.433 L179.578 558.368 L165.504 558.368 L165.504 566.84 Q166.522 566.493 167.541 566.331 Q168.559 566.146 169.578 566.146 Q175.365 566.146 178.744 569.317 Q182.124 572.488 182.124 577.905 Q182.124 583.484 178.652 586.586 Q175.18 589.664 168.86 589.664 Q166.684 589.664 164.416 589.294 Q162.17 588.923 159.763 588.183 L159.763 583.484 Q161.846 584.618 164.068 585.174 Q166.291 585.729 168.768 585.729 Q172.772 585.729 175.11 583.623 Q177.448 581.516 177.448 577.905 Q177.448 574.294 175.11 572.187 Q172.772 570.081 168.768 570.081 Q166.893 570.081 165.018 570.498 Q163.166 570.914 161.221 571.794 L161.221 554.433 Z" fill="#000000" fill-rule="nonzero" fill-opacity="1" /><path clip-path="url(#clip480)" d="M118.976 406.097 L135.295 406.097 L135.295 410.032 L113.351 410.032 L113.351 406.097 Q116.013 403.343 120.596 398.713 Q125.203 394.06 126.383 392.718 Q128.629 390.195 129.508 388.458 Q130.411 386.699 130.411 385.009 Q130.411 382.255 128.467 380.519 Q126.546 378.783 123.444 378.783 Q121.245 378.783 118.791 379.546 Q116.36 380.31 113.583 381.861 L113.583 377.139 Q116.407 376.005 118.86 375.426 Q121.314 374.847 123.351 374.847 Q128.721 374.847 131.916 377.533 Q135.11 380.218 135.11 384.708 Q135.11 386.838 134.3 388.759 Q133.513 390.658 131.407 393.25 Q130.828 393.921 127.726 397.139 Q124.624 400.333 118.976 406.097 Z" fill="#000000" fill-rule="nonzero" fill-opacity="1" /><path clip-path="url(#clip480)" d="M145.11 404.153 L149.994 404.153 L149.994 410.032 L145.11 410.032 L145.11 404.153 Z" fill="#000000" fill-rule="nonzero" fill-opacity="1" /><path clip-path="url(#clip480)" d="M170.18 378.551 Q166.568 378.551 164.74 382.116 Q162.934 385.658 162.934 392.787 Q162.934 399.894 164.74 403.458 Q166.568 407 170.18 407 Q173.814 407 175.619 403.458 Q177.448 399.894 177.448 392.787 Q177.448 385.658 175.619 382.116 Q173.814 378.551 170.18 378.551 M170.18 374.847 Q175.99 374.847 179.045 379.454 Q182.124 384.037 182.124 392.787 Q182.124 401.514 179.045 406.12 Q175.99 410.704 170.18 410.704 Q164.369 410.704 161.291 406.12 Q158.235 401.514 158.235 392.787 Q158.235 384.037 161.291 379.454 Q164.369 374.847 170.18 374.847 Z" fill="#000000" fill-rule="nonzero" fill-opacity="1" /><path clip-path="url(#clip480)" d="M119.971 227.137 L136.291 227.137 L136.291 231.072 L114.346 231.072 L114.346 227.137 Q117.009 224.382 121.592 219.753 Q126.198 215.1 127.379 213.757 Q129.624 211.234 130.504 209.498 Q131.407 207.739 131.407 206.049 Q131.407 203.294 129.462 201.558 Q127.541 199.822 124.439 199.822 Q122.24 199.822 119.786 200.586 Q117.356 201.35 114.578 202.901 L114.578 198.179 Q117.402 197.044 119.856 196.466 Q122.309 195.887 124.346 195.887 Q129.717 195.887 132.911 198.572 Q136.106 201.257 136.106 205.748 Q136.106 207.878 135.295 209.799 Q134.508 211.697 132.402 214.29 Q131.823 214.961 128.721 218.178 Q125.62 221.373 119.971 227.137 Z" fill="#000000" fill-rule="nonzero" fill-opacity="1" /><path clip-path="url(#clip480)" d="M146.106 225.192 L150.99 225.192 L150.99 231.072 L146.106 231.072 L146.106 225.192 Z" fill="#000000" fill-rule="nonzero" fill-opacity="1" /><path clip-path="url(#clip480)" d="M161.221 196.512 L179.578 196.512 L179.578 200.447 L165.504 200.447 L165.504 208.919 Q166.522 208.572 167.541 208.41 Q168.559 208.225 169.578 208.225 Q175.365 208.225 178.744 211.396 Q182.124 214.567 182.124 219.984 Q182.124 225.563 178.652 228.665 Q175.18 231.743 168.86 231.743 Q166.684 231.743 164.416 231.373 Q162.17 231.002 159.763 230.262 L159.763 225.563 Q161.846 226.697 164.068 227.252 Q166.291 227.808 168.768 227.808 Q172.772 227.808 175.11 225.702 Q177.448 223.595 177.448 219.984 Q177.448 216.373 175.11 214.266 Q172.772 212.16 168.768 212.16 Q166.893 212.16 165.018 212.577 Q163.166 212.993 161.221 213.873 L161.221 196.512 Z" fill="#000000" fill-rule="nonzero" fill-opacity="1" /><g clip-path="url(#clip480)">
<text style="fill:#000000; fill-opacity:1; font-family:Arial,Helvetica Neue,Helvetica,sans-serif; font-size:66px; text-anchor:middle;" transform="rotate(-90, 71.4418, 609.137)" x="71.4418" y="609.137">value</text>
</g>
<g clip-path="url(#clip480)">
<text style="fill:#000000; fill-opacity:1; font-family:Arial,Helvetica Neue,Helvetica,sans-serif; font-size:66px; text-anchor:middle;" transform="rotate(0, 1082.44, 57.6)" x="1082.44" y="57.6">Least-squares fit of exp(x)</text>
</g>
<polyline clip-path="url(#clip482)" style="stroke:#009af9; stroke-linecap:round; stroke-linejoin:round; stroke-width:8; stroke-opacity:1; fill:none" points="261.387,976.923 278.34,974.176 377.63,956.897 423.819,948.118 485.731,935.55 536.889,924.425 584.46,913.439 644.179,898.715 697.747,884.565 759.063,867.194 804.897,853.335 863.519,834.444 917.024,815.983 977.919,793.456 1026.19,774.373 1086.16,749.046 1132.09,728.36 1196.85,697.158 1245.24,672.18 1300.27,641.928 1354.77,609.901 1384.74,591.356 1414.72,572.121 1437.62,556.949 1460.52,541.347 1489.42,521.028 1518.31,499.98 1545.04,479.844 1571.77,459.04 1599.33,436.864 1626.89,413.931 1654.83,389.886 1682.77,365.009 1711.94,338.114 1741.12,310.245 1764.1,287.584 1787.08,264.279 1813.25,236.937 1839.41,208.709 1865.58,179.567 1891.75,149.481 1894.69,146.045 1897.62,142.597 1900.56,139.137 1903.49,135.664 "/>
<polyline clip-path="url(#clip482)" style="stroke:#e26f46; stroke-linecap:round; stroke-linejoin:round; stroke-width:8; stroke-opacity:1; fill:none" points="261.387,1078.78 278.34,1070.51 377.63,1022.11 423.819,999.592 485.731,969.411 536.889,944.472 584.46,921.281 644.179,892.169 697.747,866.055 759.063,836.163 804.897,813.82 863.519,785.242 917.024,759.159 977.919,729.473 1026.19,705.94 1086.16,676.704 1132.09,654.314 1196.85,622.747 1245.24,599.157 1300.27,572.331 1354.77,545.763 1414.72,516.534 1460.52,494.208 1518.31,466.034 1571.77,439.977 1626.89,413.103 1682.77,385.863 1741.12,357.42 1787.08,335.014 1891.75,283.987 1903.49,278.262 "/>
<polyline clip-path="url(#clip482)" style="stroke:#3da44d; stroke-linecap:round; stroke-linejoin:round; stroke-width:8; stroke-opacity:1; fill:none" points="261.387,1082.61 278.34,1074.44 377.63,1026.61 423.819,1004.36 485.731,974.536 536.889,949.892 584.46,926.975 644.179,898.206 697.747,872.401 759.063,842.863 804.897,820.783 863.519,792.543 917.024,766.768 977.919,737.432 1026.19,714.178 1086.16,685.287 1132.09,663.161 1196.85,631.967 1245.24,608.656 1300.27,582.146 1354.77,555.893 1414.72,527.009 1460.52,504.947 1518.31,477.106 1571.77,451.356 1626.89,424.8 1682.77,397.882 1741.12,369.775 1787.08,347.633 1891.75,297.21 1903.49,291.552 "/>
<path clip-path="url(#clip480)" d="M1183.36 1077.56 L1894.73 1077.56 L1894.73 870.2 L1183.36 870.2  Z" fill="#ffffff" fill-rule="evenodd" fill-opacity="1"/>
<polyline clip-path="url(#clip480)" style="stroke:#000000; stroke-linecap:round; stroke-linejoin:round; stroke-width:4; stroke-opacity:1; fill:none" points="1183.36,1077.56 1894.73,1077.56 1894.73,870.2 1183.36,870.2 1183.36,1077.56 "/>
<polyline clip-path="url(#clip480)" style="stroke:#009af9; stroke-linecap:round; stroke-linejoin:round; stroke-width:8; stroke-opacity:1; fill:none" points="1202.7,922.04 1318.74,922.04 "/>
<path clip-path="url(#clip480)" d="M1354.59 903.301 L1354.59 906.843 L1350.51 906.843 Q1348.22 906.843 1347.32 907.769 Q1346.44 908.695 1346.44 911.102 L1346.44 913.394 L1353.45 913.394 L1353.45 916.704 L1346.44 916.704 L1346.44 939.32 L1342.16 939.32 L1342.16 916.704 L1338.08 916.704 L1338.08 913.394 L1342.16 913.394 L1342.16 911.588 Q1342.16 907.26 1344.17 905.292 Q1346.18 903.301 1350.56 903.301 L1354.59 903.301 Z" fill="#000000" fill-rule="nonzero" fill-opacity="1" /><path clip-path="url(#clip480)" d="M1357.71 929.088 L1357.71 913.394 L1361.97 913.394 L1361.97 928.926 Q1361.97 932.607 1363.41 934.459 Q1364.84 936.287 1367.71 936.287 Q1371.16 936.287 1373.15 934.088 Q1375.17 931.889 1375.17 928.093 L1375.17 913.394 L1379.42 913.394 L1379.42 939.32 L1375.17 939.32 L1375.17 935.338 Q1373.61 937.699 1371.55 938.857 Q1369.52 939.991 1366.81 939.991 Q1362.34 939.991 1360.03 937.213 Q1357.71 934.436 1357.71 929.088 M1368.43 912.769 L1368.43 912.769 Z" fill="#000000" fill-rule="nonzero" fill-opacity="1" /><path clip-path="url(#clip480)" d="M1409.75 923.672 L1409.75 939.32 L1405.49 939.32 L1405.49 923.811 Q1405.49 920.13 1404.05 918.301 Q1402.62 916.473 1399.75 916.473 Q1396.3 916.473 1394.31 918.672 Q1392.32 920.871 1392.32 924.667 L1392.32 939.32 L1388.04 939.32 L1388.04 913.394 L1392.32 913.394 L1392.32 917.422 Q1393.85 915.084 1395.91 913.926 Q1397.99 912.769 1400.7 912.769 Q1405.17 912.769 1407.46 915.547 Q1409.75 918.301 1409.75 923.672 Z" fill="#000000" fill-rule="nonzero" fill-opacity="1" /><path clip-path="url(#clip480)" d="M1436.9 914.389 L1436.9 918.371 Q1435.1 917.375 1433.27 916.889 Q1431.46 916.38 1429.61 916.38 Q1425.47 916.38 1423.17 919.019 Q1420.88 921.635 1420.88 926.38 Q1420.88 931.125 1423.17 933.764 Q1425.47 936.38 1429.61 936.38 Q1431.46 936.38 1433.27 935.894 Q1435.1 935.385 1436.9 934.389 L1436.9 938.324 Q1435.12 939.158 1433.2 939.574 Q1431.3 939.991 1429.15 939.991 Q1423.29 939.991 1419.84 936.31 Q1416.39 932.63 1416.39 926.38 Q1416.39 920.037 1419.86 916.403 Q1423.36 912.769 1429.42 912.769 Q1431.39 912.769 1433.27 913.186 Q1435.14 913.579 1436.9 914.389 Z" fill="#000000" fill-rule="nonzero" fill-opacity="1" /><path clip-path="url(#clip480)" d="M1448.52 906.033 L1448.52 913.394 L1457.29 913.394 L1457.29 916.704 L1448.52 916.704 L1448.52 930.778 Q1448.52 933.949 1449.38 934.852 Q1450.26 935.755 1452.92 935.755 L1457.29 935.755 L1457.29 939.32 L1452.92 939.32 Q1447.99 939.32 1446.11 937.491 Q1444.24 935.639 1444.24 930.778 L1444.24 916.704 L1441.11 916.704 L1441.11 913.394 L1444.24 913.394 L1444.24 906.033 L1448.52 906.033 Z" fill="#000000" fill-rule="nonzero" fill-opacity="1" /><path clip-path="url(#clip480)" d="M1462.9 913.394 L1467.16 913.394 L1467.16 939.32 L1462.9 939.32 L1462.9 913.394 M1462.9 903.301 L1467.16 903.301 L1467.16 908.695 L1462.9 908.695 L1462.9 903.301 Z" fill="#000000" fill-rule="nonzero" fill-opacity="1" /><path clip-path="url(#clip480)" d="M1486.11 916.38 Q1482.69 916.38 1480.7 919.065 Q1478.71 921.727 1478.71 926.38 Q1478.71 931.033 1480.67 933.718 Q1482.67 936.38 1486.11 936.38 Q1489.52 936.38 1491.51 933.695 Q1493.5 931.01 1493.5 926.38 Q1493.5 921.774 1491.51 919.088 Q1489.52 916.38 1486.11 916.38 M1486.11 912.769 Q1491.67 912.769 1494.84 916.38 Q1498.01 919.991 1498.01 926.38 Q1498.01 932.746 1494.84 936.38 Q1491.67 939.991 1486.11 939.991 Q1480.54 939.991 1477.36 936.38 Q1474.22 932.746 1474.22 926.38 Q1474.22 919.991 1477.36 916.38 Q1480.54 912.769 1486.11 912.769 Z" fill="#000000" fill-rule="nonzero" fill-opacity="1" /><path clip-path="url(#clip480)" d="M1526.62 923.672 L1526.62 939.32 L1522.36 939.32 L1522.36 923.811 Q1522.36 920.13 1520.93 918.301 Q1519.49 916.473 1516.62 916.473 Q1513.17 916.473 1511.18 918.672 Q1509.19 920.871 1509.19 924.667 L1509.19 939.32 L1504.91 939.32 L1504.91 913.394 L1509.19 913.394 L1509.19 917.422 Q1510.72 915.084 1512.78 913.926 Q1514.86 912.769 1517.57 912.769 Q1522.04 912.769 1524.33 915.547 Q1526.62 918.301 1526.62 923.672 Z" fill="#000000" fill-rule="nonzero" fill-opacity="1" /><polyline clip-path="url(#clip480)" style="stroke:#e26f46; stroke-linecap:round; stroke-linejoin:round; stroke-width:8; stroke-opacity:1; fill:none" points="1202.7,973.88 1318.74,973.88 "/>
<path clip-path="url(#clip480)" d="M1338.08 955.141 L1342.34 955.141 L1342.34 991.16 L1338.08 991.16 L1338.08 955.141 Z" fill="#000000" fill-rule="nonzero" fill-opacity="1" /><path clip-path="url(#clip480)" d="M1351.25 965.234 L1355.51 965.234 L1355.51 991.16 L1351.25 991.16 L1351.25 965.234 M1351.25 955.141 L1355.51 955.141 L1355.51 960.535 L1351.25 960.535 L1351.25 955.141 Z" fill="#000000" fill-rule="nonzero" fill-opacity="1" /><path clip-path="url(#clip480)" d="M1385.98 975.512 L1385.98 991.16 L1381.72 991.16 L1381.72 975.651 Q1381.72 971.97 1380.28 970.141 Q1378.85 968.313 1375.98 968.313 Q1372.53 968.313 1370.54 970.512 Q1368.55 972.711 1368.55 976.507 L1368.55 991.16 L1364.26 991.16 L1364.26 965.234 L1368.55 965.234 L1368.55 969.262 Q1370.07 966.924 1372.13 965.766 Q1374.22 964.609 1376.92 964.609 Q1381.39 964.609 1383.68 967.387 Q1385.98 970.141 1385.98 975.512 Z" fill="#000000" fill-rule="nonzero" fill-opacity="1" /><path clip-path="url(#clip480)" d="M1416.65 977.132 L1416.65 979.215 L1397.06 979.215 Q1397.34 983.613 1399.7 985.928 Q1402.09 988.22 1406.32 988.22 Q1408.78 988.22 1411.07 987.618 Q1413.38 987.016 1415.65 985.813 L1415.65 989.84 Q1413.36 990.813 1410.95 991.322 Q1408.55 991.831 1406.07 991.831 Q1399.86 991.831 1396.23 988.22 Q1392.62 984.609 1392.62 978.451 Q1392.62 972.086 1396.05 968.359 Q1399.49 964.609 1405.33 964.609 Q1410.56 964.609 1413.59 967.989 Q1416.65 971.345 1416.65 977.132 M1412.39 975.882 Q1412.34 972.387 1410.42 970.303 Q1408.52 968.22 1405.37 968.22 Q1401.81 968.22 1399.66 970.234 Q1397.53 972.248 1397.2 975.905 L1412.39 975.882 Z" fill="#000000" fill-rule="nonzero" fill-opacity="1" /><path clip-path="url(#clip480)" d="M1435.42 978.127 Q1430.26 978.127 1428.27 979.308 Q1426.28 980.488 1426.28 983.336 Q1426.28 985.604 1427.76 986.947 Q1429.26 988.266 1431.83 988.266 Q1435.37 988.266 1437.5 985.766 Q1439.66 983.243 1439.66 979.076 L1439.66 978.127 L1435.42 978.127 M1443.92 976.368 L1443.92 991.16 L1439.66 991.16 L1439.66 987.225 Q1438.2 989.586 1436.02 990.72 Q1433.85 991.831 1430.7 991.831 Q1426.72 991.831 1424.36 989.609 Q1422.02 987.363 1422.02 983.613 Q1422.02 979.239 1424.93 977.016 Q1427.87 974.794 1433.68 974.794 L1439.66 974.794 L1439.66 974.377 Q1439.66 971.438 1437.71 969.84 Q1435.79 968.22 1432.3 968.22 Q1430.07 968.22 1427.97 968.752 Q1425.86 969.285 1423.92 970.35 L1423.92 966.414 Q1426.25 965.512 1428.45 965.072 Q1430.65 964.609 1432.73 964.609 Q1438.36 964.609 1441.14 967.526 Q1443.92 970.442 1443.92 976.368 Z" fill="#000000" fill-rule="nonzero" fill-opacity="1" /><path clip-path="url(#clip480)" d="M1467.71 969.215 Q1466.99 968.799 1466.14 968.614 Q1465.3 968.405 1464.29 968.405 Q1460.67 968.405 1458.73 970.766 Q1456.81 973.104 1456.81 977.502 L1456.81 991.16 L1452.53 991.16 L1452.53 965.234 L1456.81 965.234 L1456.81 969.262 Q1458.15 966.901 1460.3 965.766 Q1462.46 964.609 1465.54 964.609 Q1465.98 964.609 1466.51 964.678 Q1467.04 964.725 1467.69 964.84 L1467.71 969.215 Z" fill="#000000" fill-rule="nonzero" fill-opacity="1" /><path clip-path="url(#clip480)" d="M1500.37 955.141 L1500.37 958.683 L1496.3 958.683 Q1494.01 958.683 1493.1 959.609 Q1492.23 960.535 1492.23 962.942 L1492.23 965.234 L1499.24 965.234 L1499.24 968.544 L1492.23 968.544 L1492.23 991.16 L1487.94 991.16 L1487.94 968.544 L1483.87 968.544 L1483.87 965.234 L1487.94 965.234 L1487.94 963.428 Q1487.94 959.1 1489.96 957.132 Q1491.97 955.141 1496.35 955.141 L1500.37 955.141 Z" fill="#000000" fill-rule="nonzero" fill-opacity="1" /><path clip-path="url(#clip480)" d="M1503.94 965.234 L1508.2 965.234 L1508.2 991.16 L1503.94 991.16 L1503.94 965.234 M1503.94 955.141 L1508.2 955.141 L1508.2 960.535 L1503.94 960.535 L1503.94 955.141 Z" fill="#000000" fill-rule="nonzero" fill-opacity="1" /><path clip-path="url(#clip480)" d="M1521.32 957.873 L1521.32 965.234 L1530.1 965.234 L1530.1 968.544 L1521.32 968.544 L1521.32 982.618 Q1521.32 985.789 1522.18 986.692 Q1523.06 987.595 1525.72 987.595 L1530.1 987.595 L1530.1 991.16 L1525.72 991.16 Q1520.79 991.16 1518.91 989.331 Q1517.04 987.479 1517.04 982.618 L1517.04 968.544 L1513.91 968.544 L1513.91 965.234 L1517.04 965.234 L1517.04 957.873 L1521.32 957.873 Z" fill="#000000" fill-rule="nonzero" fill-opacity="1" /><path clip-path="url(#clip480)" d="M1563.89 955.141 L1563.89 958.683 L1559.82 958.683 Q1557.53 958.683 1556.62 959.609 Q1555.74 960.535 1555.74 962.942 L1555.74 965.234 L1562.76 965.234 L1562.76 968.544 L1555.74 968.544 L1555.74 991.16 L1551.46 991.16 L1551.46 968.544 L1547.39 968.544 L1547.39 965.234 L1551.46 965.234 L1551.46 963.428 Q1551.46 959.1 1553.47 957.132 Q1555.49 955.141 1559.86 955.141 L1563.89 955.141 Z" fill="#000000" fill-rule="nonzero" fill-opacity="1" /><path clip-path="url(#clip480)" d="M1577.5 968.22 Q1574.08 968.22 1572.09 970.905 Q1570.1 973.567 1570.1 978.22 Q1570.1 982.873 1572.06 985.558 Q1574.05 988.22 1577.5 988.22 Q1580.91 988.22 1582.9 985.535 Q1584.89 982.85 1584.89 978.22 Q1584.89 973.614 1582.9 970.928 Q1580.91 968.22 1577.5 968.22 M1577.5 964.609 Q1583.06 964.609 1586.23 968.22 Q1589.4 971.831 1589.4 978.22 Q1589.4 984.586 1586.23 988.22 Q1583.06 991.831 1577.5 991.831 Q1571.92 991.831 1568.75 988.22 Q1565.6 984.586 1565.6 978.22 Q1565.6 971.831 1568.75 968.22 Q1571.92 964.609 1577.5 964.609 Z" fill="#000000" fill-rule="nonzero" fill-opacity="1" /><path clip-path="url(#clip480)" d="M1611.48 969.215 Q1610.77 968.799 1609.91 968.614 Q1609.08 968.405 1608.06 968.405 Q1604.45 968.405 1602.5 970.766 Q1600.58 973.104 1600.58 977.502 L1600.58 991.16 L1596.3 991.16 L1596.3 965.234 L1600.58 965.234 L1600.58 969.262 Q1601.92 966.901 1604.08 965.766 Q1606.23 964.609 1609.31 964.609 Q1609.75 964.609 1610.28 964.678 Q1610.81 964.725 1611.46 964.84 L1611.48 969.215 Z" fill="#000000" fill-rule="nonzero" fill-opacity="1" /><path clip-path="url(#clip480)" d="M1632.43 987.225 L1640.07 987.225 L1640.07 960.859 L1631.76 962.526 L1631.76 958.266 L1640.03 956.6 L1644.7 956.6 L1644.7 987.225 L1652.34 987.225 L1652.34 991.16 L1632.43 991.16 L1632.43 987.225 Z" fill="#000000" fill-rule="nonzero" fill-opacity="1" /><path clip-path="url(#clip480)" d="M1661.83 956.6 L1680.19 956.6 L1680.19 960.535 L1666.11 960.535 L1666.11 969.007 Q1667.13 968.66 1668.15 968.498 Q1669.17 968.313 1670.19 968.313 Q1675.97 968.313 1679.35 971.484 Q1682.73 974.655 1682.73 980.072 Q1682.73 985.651 1679.26 988.752 Q1675.79 991.831 1669.47 991.831 Q1667.29 991.831 1665.03 991.461 Q1662.78 991.09 1660.37 990.35 L1660.37 985.651 Q1662.46 986.785 1664.68 987.34 Q1666.9 987.896 1669.38 987.896 Q1673.38 987.896 1675.72 985.789 Q1678.06 983.683 1678.06 980.072 Q1678.06 976.461 1675.72 974.354 Q1673.38 972.248 1669.38 972.248 Q1667.5 972.248 1665.63 972.664 Q1663.78 973.081 1661.83 973.961 L1661.83 956.6 Z" fill="#000000" fill-rule="nonzero" fill-opacity="1" /><path clip-path="url(#clip480)" d="M1710.53 987.271 L1710.53 1001.02 L1706.25 1001.02 L1706.25 965.234 L1710.53 965.234 L1710.53 969.169 Q1711.88 966.854 1713.91 965.743 Q1715.97 964.609 1718.82 964.609 Q1723.54 964.609 1726.48 968.359 Q1729.45 972.109 1729.45 978.22 Q1729.45 984.331 1726.48 988.081 Q1723.54 991.831 1718.82 991.831 Q1715.97 991.831 1713.91 990.72 Q1711.88 989.586 1710.53 987.271 M1725.02 978.22 Q1725.02 973.521 1723.08 970.859 Q1721.16 968.174 1717.78 968.174 Q1714.4 968.174 1712.46 970.859 Q1710.53 973.521 1710.53 978.22 Q1710.53 982.919 1712.46 985.604 Q1714.4 988.266 1717.78 988.266 Q1721.16 988.266 1723.08 985.604 Q1725.02 982.919 1725.02 978.22 Z" fill="#000000" fill-rule="nonzero" fill-opacity="1" /><path clip-path="url(#clip480)" d="M1746.55 968.22 Q1743.13 968.22 1741.14 970.905 Q1739.15 973.567 1739.15 978.22 Q1739.15 982.873 1741.11 985.558 Q1743.1 988.22 1746.55 988.22 Q1749.96 988.22 1751.95 985.535 Q1753.94 982.85 1753.94 978.22 Q1753.94 973.614 1751.95 970.928 Q1749.96 968.22 1746.55 968.22 M1746.55 964.609 Q1752.11 964.609 1755.28 968.22 Q1758.45 971.831 1758.45 978.22 Q1758.45 984.586 1755.28 988.22 Q1752.11 991.831 1746.55 991.831 Q1740.97 991.831 1737.8 988.22 Q1734.65 984.586 1734.65 978.22 Q1734.65 971.831 1737.8 968.22 Q1740.97 964.609 1746.55 964.609 Z" fill="#000000" fill-rule="nonzero" fill-opacity="1" /><path clip-path="url(#clip480)" d="M1765.51 965.234 L1769.77 965.234 L1769.77 991.16 L1765.51 991.16 L1765.51 965.234 M1765.51 955.141 L1769.77 955.141 L1769.77 960.535 L1765.51 960.535 L1765.51 955.141 Z" fill="#000000" fill-rule="nonzero" fill-opacity="1" /><path clip-path="url(#clip480)" d="M1800.23 975.512 L1800.23 991.16 L1795.97 991.16 L1795.97 975.651 Q1795.97 971.97 1794.54 970.141 Q1793.1 968.313 1790.23 968.313 Q1786.78 968.313 1784.79 970.512 Q1782.8 972.711 1782.8 976.507 L1782.8 991.16 L1778.52 991.16 L1778.52 965.234 L1782.8 965.234 L1782.8 969.262 Q1784.33 966.924 1786.39 965.766 Q1788.47 964.609 1791.18 964.609 Q1795.65 964.609 1797.94 967.387 Q1800.23 970.141 1800.23 975.512 Z" fill="#000000" fill-rule="nonzero" fill-opacity="1" /><path clip-path="url(#clip480)" d="M1812.94 957.873 L1812.94 965.234 L1821.71 965.234 L1821.71 968.544 L1812.94 968.544 L1812.94 982.618 Q1812.94 985.789 1813.8 986.692 Q1814.68 987.595 1817.34 987.595 L1821.71 987.595 L1821.71 991.16 L1817.34 991.16 Q1812.41 991.16 1810.53 989.331 Q1808.66 987.479 1808.66 982.618 L1808.66 968.544 L1805.53 968.544 L1805.53 965.234 L1808.66 965.234 L1808.66 957.873 L1812.94 957.873 Z" fill="#000000" fill-rule="nonzero" fill-opacity="1" /><path clip-path="url(#clip480)" d="M1843.84 965.998 L1843.84 970.026 Q1842.04 969.1 1840.09 968.637 Q1838.15 968.174 1836.07 968.174 Q1832.89 968.174 1831.3 969.146 Q1829.72 970.118 1829.72 972.063 Q1829.72 973.544 1830.86 974.401 Q1831.99 975.234 1835.42 975.998 L1836.88 976.322 Q1841.41 977.294 1843.31 979.076 Q1845.23 980.836 1845.23 984.007 Q1845.23 987.618 1842.36 989.725 Q1839.52 991.831 1834.52 991.831 Q1832.43 991.831 1830.16 991.414 Q1827.92 991.021 1825.42 990.211 L1825.42 985.813 Q1827.78 987.039 1830.07 987.664 Q1832.36 988.266 1834.61 988.266 Q1837.62 988.266 1839.24 987.248 Q1840.86 986.206 1840.86 984.331 Q1840.86 982.595 1839.68 981.669 Q1838.52 980.743 1834.56 979.887 L1833.08 979.539 Q1829.12 978.706 1827.36 976.993 Q1825.6 975.257 1825.6 972.248 Q1825.6 968.59 1828.2 966.6 Q1830.79 964.609 1835.56 964.609 Q1837.92 964.609 1840 964.956 Q1842.08 965.303 1843.84 965.998 Z" fill="#000000" fill-rule="nonzero" fill-opacity="1" /><polyline clip-path="url(#clip480)" style="stroke:#3da44d; stroke-linecap:round; stroke-linejoin:round; stroke-width:8; stroke-opacity:1; fill:none" points="1202.7,1025.72 1318.74,1025.72 "/>
<path clip-path="url(#clip480)" d="M1338.08 1006.98 L1342.34 1006.98 L1342.34 1043 L1338.08 1043 L1338.08 1006.98 Z" fill="#000000" fill-rule="nonzero" fill-opacity="1" /><path clip-path="url(#clip480)" d="M1351.25 1017.07 L1355.51 1017.07 L1355.51 1043 L1351.25 1043 L1351.25 1017.07 M1351.25 1006.98 L1355.51 1006.98 L1355.51 1012.37 L1351.25 1012.37 L1351.25 1006.98 Z" fill="#000000" fill-rule="nonzero" fill-opacity="1" /><path clip-path="url(#clip480)" d="M1385.98 1027.35 L1385.98 1043 L1381.72 1043 L1381.72 1027.49 Q1381.72 1023.81 1380.28 1021.98 Q1378.85 1020.15 1375.98 1020.15 Q1372.53 1020.15 1370.54 1022.35 Q1368.55 1024.55 1368.55 1028.35 L1368.55 1043 L1364.26 1043 L1364.26 1017.07 L1368.55 1017.07 L1368.55 1021.1 Q1370.07 1018.76 1372.13 1017.61 Q1374.22 1016.45 1376.92 1016.45 Q1381.39 1016.45 1383.68 1019.23 Q1385.98 1021.98 1385.98 1027.35 Z" fill="#000000" fill-rule="nonzero" fill-opacity="1" /><path clip-path="url(#clip480)" d="M1416.65 1028.97 L1416.65 1031.06 L1397.06 1031.06 Q1397.34 1035.45 1399.7 1037.77 Q1402.09 1040.06 1406.32 1040.06 Q1408.78 1040.06 1411.07 1039.46 Q1413.38 1038.86 1415.65 1037.65 L1415.65 1041.68 Q1413.36 1042.65 1410.95 1043.16 Q1408.55 1043.67 1406.07 1043.67 Q1399.86 1043.67 1396.23 1040.06 Q1392.62 1036.45 1392.62 1030.29 Q1392.62 1023.93 1396.05 1020.2 Q1399.49 1016.45 1405.33 1016.45 Q1410.56 1016.45 1413.59 1019.83 Q1416.65 1023.19 1416.65 1028.97 M1412.39 1027.72 Q1412.34 1024.23 1410.42 1022.14 Q1408.52 1020.06 1405.37 1020.06 Q1401.81 1020.06 1399.66 1022.07 Q1397.53 1024.09 1397.2 1027.75 L1412.39 1027.72 Z" fill="#000000" fill-rule="nonzero" fill-opacity="1" /><path clip-path="url(#clip480)" d="M1435.42 1029.97 Q1430.26 1029.97 1428.27 1031.15 Q1426.28 1032.33 1426.28 1035.18 Q1426.28 1037.44 1427.76 1038.79 Q1429.26 1040.11 1431.83 1040.11 Q1435.37 1040.11 1437.5 1037.61 Q1439.66 1035.08 1439.66 1030.92 L1439.66 1029.97 L1435.42 1029.97 M1443.92 1028.21 L1443.92 1043 L1439.66 1043 L1439.66 1039.06 Q1438.2 1041.43 1436.02 1042.56 Q1433.85 1043.67 1430.7 1043.67 Q1426.72 1043.67 1424.36 1041.45 Q1422.02 1039.2 1422.02 1035.45 Q1422.02 1031.08 1424.93 1028.86 Q1427.87 1026.63 1433.68 1026.63 L1439.66 1026.63 L1439.66 1026.22 Q1439.66 1023.28 1437.71 1021.68 Q1435.79 1020.06 1432.3 1020.06 Q1430.07 1020.06 1427.97 1020.59 Q1425.86 1021.12 1423.92 1022.19 L1423.92 1018.25 Q1426.25 1017.35 1428.45 1016.91 Q1430.65 1016.45 1432.73 1016.45 Q1438.36 1016.45 1441.14 1019.37 Q1443.92 1022.28 1443.92 1028.21 Z" fill="#000000" fill-rule="nonzero" fill-opacity="1" /><path clip-path="url(#clip480)" d="M1467.71 1021.06 Q1466.99 1020.64 1466.14 1020.45 Q1465.3 1020.25 1464.29 1020.25 Q1460.67 1020.25 1458.73 1022.61 Q1456.81 1024.94 1456.81 1029.34 L1456.81 1043 L1452.53 1043 L1452.53 1017.07 L1456.81 1017.07 L1456.81 1021.1 Q1458.15 1018.74 1460.3 1017.61 Q1462.46 1016.45 1465.54 1016.45 Q1465.98 1016.45 1466.51 1016.52 Q1467.04 1016.56 1467.69 1016.68 L1467.71 1021.06 Z" fill="#000000" fill-rule="nonzero" fill-opacity="1" /><path clip-path="url(#clip480)" d="M1500.37 1006.98 L1500.37 1010.52 L1496.3 1010.52 Q1494.01 1010.52 1493.1 1011.45 Q1492.23 1012.37 1492.23 1014.78 L1492.23 1017.07 L1499.24 1017.07 L1499.24 1020.38 L1492.23 1020.38 L1492.23 1043 L1487.94 1043 L1487.94 1020.38 L1483.87 1020.38 L1483.87 1017.07 L1487.94 1017.07 L1487.94 1015.27 Q1487.94 1010.94 1489.96 1008.97 Q1491.97 1006.98 1496.35 1006.98 L1500.37 1006.98 Z" fill="#000000" fill-rule="nonzero" fill-opacity="1" /><path clip-path="url(#clip480)" d="M1503.94 1017.07 L1508.2 1017.07 L1508.2 1043 L1503.94 1043 L1503.94 1017.07 M1503.94 1006.98 L1508.2 1006.98 L1508.2 1012.37 L1503.94 1012.37 L1503.94 1006.98 Z" fill="#000000" fill-rule="nonzero" fill-opacity="1" /><path clip-path="url(#clip480)" d="M1521.32 1009.71 L1521.32 1017.07 L1530.1 1017.07 L1530.1 1020.38 L1521.32 1020.38 L1521.32 1034.46 Q1521.32 1037.63 1522.18 1038.53 Q1523.06 1039.43 1525.72 1039.43 L1530.1 1039.43 L1530.1 1043 L1525.72 1043 Q1520.79 1043 1518.91 1041.17 Q1517.04 1039.32 1517.04 1034.46 L1517.04 1020.38 L1513.91 1020.38 L1513.91 1017.07 L1517.04 1017.07 L1517.04 1009.71 L1521.32 1009.71 Z" fill="#000000" fill-rule="nonzero" fill-opacity="1" /><path clip-path="url(#clip480)" d="M1563.89 1006.98 L1563.89 1010.52 L1559.82 1010.52 Q1557.53 1010.52 1556.62 1011.45 Q1555.74 1012.37 1555.74 1014.78 L1555.74 1017.07 L1562.76 1017.07 L1562.76 1020.38 L1555.74 1020.38 L1555.74 1043 L1551.46 1043 L1551.46 1020.38 L1547.39 1020.38 L1547.39 1017.07 L1551.46 1017.07 L1551.46 1015.27 Q1551.46 1010.94 1553.47 1008.97 Q1555.49 1006.98 1559.86 1006.98 L1563.89 1006.98 Z" fill="#000000" fill-rule="nonzero" fill-opacity="1" /><path clip-path="url(#clip480)" d="M1577.5 1020.06 Q1574.08 1020.06 1572.09 1022.75 Q1570.1 1025.41 1570.1 1030.06 Q1570.1 1034.71 1572.06 1037.4 Q1574.05 1040.06 1577.5 1040.06 Q1580.91 1040.06 1582.9 1037.37 Q1584.89 1034.69 1584.89 1030.06 Q1584.89 1025.45 1582.9 1022.77 Q1580.91 1020.06 1577.5 1020.06 M1577.5 1016.45 Q1583.06 1016.45 1586.23 1020.06 Q1589.4 1023.67 1589.4 1030.06 Q1589.4 1036.43 1586.23 1040.06 Q1583.06 1043.67 1577.5 1043.67 Q1571.92 1043.67 1568.75 1040.06 Q1565.6 1036.43 1565.6 1030.06 Q1565.6 1023.67 1568.75 1020.06 Q1571.92 1016.45 1577.5 1016.45 Z" fill="#000000" fill-rule="nonzero" fill-opacity="1" /><path clip-path="url(#clip480)" d="M1611.48 1021.06 Q1610.77 1020.64 1609.91 1020.45 Q1609.08 1020.25 1608.06 1020.25 Q1604.45 1020.25 1602.5 1022.61 Q1600.58 1024.94 1600.58 1029.34 L1600.58 1043 L1596.3 1043 L1596.3 1017.07 L1600.58 1017.07 L1600.58 1021.1 Q1601.92 1018.74 1604.08 1017.61 Q1606.23 1016.45 1609.31 1016.45 Q1609.75 1016.45 1610.28 1016.52 Q1610.81 1016.56 1611.46 1016.68 L1611.48 1021.06 Z" fill="#000000" fill-rule="nonzero" fill-opacity="1" /><path clip-path="url(#clip480)" d="M1632.43 1039.06 L1640.07 1039.06 L1640.07 1012.7 L1631.76 1014.37 L1631.76 1010.11 L1640.03 1008.44 L1644.7 1008.44 L1644.7 1039.06 L1652.34 1039.06 L1652.34 1043 L1632.43 1043 L1632.43 1039.06 Z" fill="#000000" fill-rule="nonzero" fill-opacity="1" /><path clip-path="url(#clip480)" d="M1661.83 1008.44 L1680.19 1008.44 L1680.19 1012.37 L1666.11 1012.37 L1666.11 1020.85 Q1667.13 1020.5 1668.15 1020.34 Q1669.17 1020.15 1670.19 1020.15 Q1675.97 1020.15 1679.35 1023.32 Q1682.73 1026.5 1682.73 1031.91 Q1682.73 1037.49 1679.26 1040.59 Q1675.79 1043.67 1669.47 1043.67 Q1667.29 1043.67 1665.03 1043.3 Q1662.78 1042.93 1660.37 1042.19 L1660.37 1037.49 Q1662.46 1038.62 1664.68 1039.18 Q1666.9 1039.74 1669.38 1039.74 Q1673.38 1039.74 1675.72 1037.63 Q1678.06 1035.52 1678.06 1031.91 Q1678.06 1028.3 1675.72 1026.19 Q1673.38 1024.09 1669.38 1024.09 Q1667.5 1024.09 1665.63 1024.5 Q1663.78 1024.92 1661.83 1025.8 L1661.83 1008.44 Z" fill="#000000" fill-rule="nonzero" fill-opacity="1" /><path clip-path="url(#clip480)" d="M1701.95 1011.52 Q1698.34 1011.52 1696.51 1015.08 Q1694.7 1018.62 1694.7 1025.75 Q1694.7 1032.86 1696.51 1036.43 Q1698.34 1039.97 1701.95 1039.97 Q1705.58 1039.97 1707.39 1036.43 Q1709.21 1032.86 1709.21 1025.75 Q1709.21 1018.62 1707.39 1015.08 Q1705.58 1011.52 1701.95 1011.52 M1701.95 1007.81 Q1707.76 1007.81 1710.81 1012.42 Q1713.89 1017 1713.89 1025.75 Q1713.89 1034.48 1710.81 1039.09 Q1707.76 1043.67 1701.95 1043.67 Q1696.14 1043.67 1693.06 1039.09 Q1690 1034.48 1690 1025.75 Q1690 1017 1693.06 1012.42 Q1696.14 1007.81 1701.95 1007.81 Z" fill="#000000" fill-rule="nonzero" fill-opacity="1" /><path clip-path="url(#clip480)" d="M1740.7 1039.11 L1740.7 1052.86 L1736.41 1052.86 L1736.41 1017.07 L1740.7 1017.07 L1740.7 1021.01 Q1742.04 1018.69 1744.08 1017.58 Q1746.14 1016.45 1748.98 1016.45 Q1753.71 1016.45 1756.65 1020.2 Q1759.61 1023.95 1759.61 1030.06 Q1759.61 1036.17 1756.65 1039.92 Q1753.71 1043.67 1748.98 1043.67 Q1746.14 1043.67 1744.08 1042.56 Q1742.04 1041.43 1740.7 1039.11 M1755.19 1030.06 Q1755.19 1025.36 1753.24 1022.7 Q1751.32 1020.01 1747.94 1020.01 Q1744.56 1020.01 1742.62 1022.7 Q1740.7 1025.36 1740.7 1030.06 Q1740.7 1034.76 1742.62 1037.44 Q1744.56 1040.11 1747.94 1040.11 Q1751.32 1040.11 1753.24 1037.44 Q1755.19 1034.76 1755.19 1030.06 Z" fill="#000000" fill-rule="nonzero" fill-opacity="1" /><path clip-path="url(#clip480)" d="M1776.71 1020.06 Q1773.29 1020.06 1771.3 1022.75 Q1769.31 1025.41 1769.31 1030.06 Q1769.31 1034.71 1771.27 1037.4 Q1773.27 1040.06 1776.71 1040.06 Q1780.12 1040.06 1782.11 1037.37 Q1784.1 1034.69 1784.1 1030.06 Q1784.1 1025.45 1782.11 1022.77 Q1780.12 1020.06 1776.71 1020.06 M1776.71 1016.45 Q1782.27 1016.45 1785.44 1020.06 Q1788.61 1023.67 1788.61 1030.06 Q1788.61 1036.43 1785.44 1040.06 Q1782.27 1043.67 1776.71 1043.67 Q1771.14 1043.67 1767.96 1040.06 Q1764.82 1036.43 1764.82 1030.06 Q1764.82 1023.67 1767.96 1020.06 Q1771.14 1016.45 1776.71 1016.45 Z" fill="#000000" fill-rule="nonzero" fill-opacity="1" /><path clip-path="url(#clip480)" d="M1795.67 1017.07 L1799.93 1017.07 L1799.93 1043 L1795.67 1043 L1795.67 1017.07 M1795.67 1006.98 L1799.93 1006.98 L1799.93 1012.37 L1795.67 1012.37 L1795.67 1006.98 Z" fill="#000000" fill-rule="nonzero" fill-opacity="1" /><path clip-path="url(#clip480)" d="M1830.39 1027.35 L1830.39 1043 L1826.14 1043 L1826.14 1027.49 Q1826.14 1023.81 1824.7 1021.98 Q1823.27 1020.15 1820.39 1020.15 Q1816.95 1020.15 1814.95 1022.35 Q1812.96 1024.55 1812.96 1028.35 L1812.96 1043 L1808.68 1043 L1808.68 1017.07 L1812.96 1017.07 L1812.96 1021.1 Q1814.49 1018.76 1816.55 1017.61 Q1818.64 1016.45 1821.34 1016.45 Q1825.81 1016.45 1828.1 1019.23 Q1830.39 1021.98 1830.39 1027.35 Z" fill="#000000" fill-rule="nonzero" fill-opacity="1" /><path clip-path="url(#clip480)" d="M1843.1 1009.71 L1843.1 1017.07 L1851.88 1017.07 L1851.88 1020.38 L1843.1 1020.38 L1843.1 1034.46 Q1843.1 1037.63 1843.96 1038.53 Q1844.84 1039.43 1847.5 1039.43 L1851.88 1039.43 L1851.88 1043 L1847.5 1043 Q1842.57 1043 1840.7 1041.17 Q1838.82 1039.32 1838.82 1034.46 L1838.82 1020.38 L1835.7 1020.38 L1835.7 1017.07 L1838.82 1017.07 L1838.82 1009.71 L1843.1 1009.71 Z" fill="#000000" fill-rule="nonzero" fill-opacity="1" /><path clip-path="url(#clip480)" d="M1874.01 1017.84 L1874.01 1021.87 Q1872.2 1020.94 1870.26 1020.48 Q1868.31 1020.01 1866.23 1020.01 Q1863.06 1020.01 1861.46 1020.99 Q1859.89 1021.96 1859.89 1023.9 Q1859.89 1025.38 1861.02 1026.24 Q1862.15 1027.07 1865.58 1027.84 L1867.04 1028.16 Q1871.58 1029.13 1873.47 1030.92 Q1875.39 1032.68 1875.39 1035.85 Q1875.39 1039.46 1872.52 1041.56 Q1869.68 1043.67 1864.68 1043.67 Q1862.59 1043.67 1860.33 1043.25 Q1858.08 1042.86 1855.58 1042.05 L1855.58 1037.65 Q1857.94 1038.88 1860.23 1039.5 Q1862.52 1040.11 1864.77 1040.11 Q1867.78 1040.11 1869.4 1039.09 Q1871.02 1038.05 1871.02 1036.17 Q1871.02 1034.43 1869.84 1033.51 Q1868.68 1032.58 1864.72 1031.73 L1863.24 1031.38 Q1859.28 1030.55 1857.52 1028.83 Q1855.76 1027.1 1855.76 1024.09 Q1855.76 1020.43 1858.36 1018.44 Q1860.95 1016.45 1865.72 1016.45 Q1868.08 1016.45 1870.16 1016.8 Q1872.25 1017.14 1874.01 1017.84 Z" fill="#000000" fill-rule="nonzero" fill-opacity="1" /></svg>
