<?xml version="1.0" encoding="utf-8"?>
<svg xmlns="http://www.w3.org/2000/svg" xmlns:xlink="http://www.w3.org/1999/xlink" width="500" height="320" viewBox="0 0 2000 1280">
<defs>
  <clipPath id="clip600">
    <rect x="0" y="0" width="2000" height="1280"/>
  </clipPath>
</defs>
<path clip-path="url(#clip600)" d="M0 1280 L2000 1280 L2000 0 L0 0  Z" fill="#ffffff" fill-rule="evenodd" fill-opacity="1"/>
<defs>
  <clipPath id="clip601">
    <rect x="400" y="0" width="1401" height="1280"/>
  </clipPath>
</defs>
<path clip-path="url(#clip600)" d="M212.124 1111.02 L1952.76 1111.02 L1952.76 47.2441 L212.124 47.2441  Z" fill="#ffffff" fill-rule="evenodd" fill-opacity="1"/>
<defs>
  <clipPath id="clip602">
    <rect x="212" y="47" width="1742" height="1065"/>
  </clipPath>
</defs>
<polyline clip-path="url(#clip602)" style="stroke:#000000; stroke-linecap:round; stroke-linejoin:round; stroke-width:2; stroke-opacity:0.1; fill:none" points="261.387,1111.02 261.387,47.2441 "/>
<polyline clip-path="url(#clip602)" style="stroke:#000000; stroke-linecap:round; stroke-linejoin:round; stroke-width:2; stroke-opacity:0.1; fill:none" points="535.071,1111.02 535.071,47.2441 "/>
<polyline clip-path="url(#clip602)" style="stroke:#000000; stroke-linecap:round; stroke-linejoin:round; stroke-width:2; stroke-opacity:0.1; fill:none" points="808.756,1111.02 808.756,47.2441 "/>
<polyline clip-path="url(#clip602)" style="stroke:#000000; stroke-linecap:round; stroke-linejoin:round; stroke-width:2; stroke-opacity:0.1; fill:none" points="1082.44,1111.02 1082.44,47.2441 "/>
<polyline clip-path="url(#clip602)" style="stroke:#000000; stroke-linecap:round; stroke-linejoin:round; stroke-width:2; stroke-opacity:0.1; fill:none" points="1356.12,1111.02 1356.12,47.2441 "/>
<polyline clip-path="url(#clip602)" style="stroke:#000000; stroke-linecap:round; stroke-linejoin:round; stroke-width:2; stroke-opacity:0.1; fill:none" points="1629.81,1111.02 1629.81,47.2441 "/>
<polyline clip-path="url(#clip602)" style="stroke:#000000; stroke-linecap:round; stroke-linejoin:round; stroke-width:2; stroke-opacity:0.1; fill:none" points="1903.49,1111.02 1903.49,47.2441 "/>
<polyline clip-path="url(#clip602)" style="stroke:#000000; stroke-linecap:round; stroke-linejoin:round; stroke-width:2; stroke-opacity:0.1; fill:none" points="212.124,1080.91 1952.76,1080.91 "/>
<polyline clip-path="url(#clip602)" style="stroke:#000000; stroke-linecap:round; stroke-linejoin:round; stroke-width:2; stroke-opacity:0.1; fill:none" points="212.124,824.26 1952.76,824.26 "/>
<polyline clip-path="url(#clip602)" style="stroke:#000000; stroke-linecap:round; stroke-linejoin:round; stroke-width:2; stroke-opacity:0.1; fill:none" points="212.124,567.608 1952.76,567.608 "/>
<polyline clip-path="url(#clip602)" style="stroke:#000000; stroke-linecap:round; stroke-linejoin:round; stroke-width:2; stroke-opacity:0.1; fill:none" points="212.124,310.956 1952.76,310.956 "/>
<polyline clip-path="url(#clip602)" style="stroke:#000000; stroke-linecap:round; stroke-linejoin:round; stroke-width:2; stroke-opacity:0.1; fill:none" points="212.124,54.3042 1952.76,54.3042 "/>
<polyline clip-path="url(#clip600)" style="stroke:#000000; stroke-linecap:round; stroke-linejoin:round; stroke-width:4; stroke-opacity:1; fill:none" points="212.124,1111.02 1952.76,1111.02 "/>
<polyline clip-path="url(#clip600)" style="stroke:#000000; stroke-linecap:round; stroke-linejoin:round; stroke-width:4; stroke-opacity:1; fill:none" points="261.387,1111.02 261.387,1092.12 "/>
<polyline clip-path="url(#clip600)" style="stroke:#000000; stroke-linecap:round; stroke-linejoin:round; stroke-width:4; stroke-opacity:1; fill:none" points="535.071,1111.02 535.071,1092.12 "/>
<polyline clip-path="url(#clip600)" style="stroke:#000000; stroke-linecap:round; stroke-linejoin:round; stroke-width:4; stroke-opacity:1; fill:none" points="808.756,1111.02 808.756,1092.12 "/>
<polyline clip-path="url(#clip600)" style="stroke:#000000; stroke-linecap:round; stroke-linejoin:round; stroke-width:4; stroke-opacity:1; fill:none" points="1082.44,1111.02 1082.44,1092.12 "/>
<polyline clip-path="url(#clip600)" style="stroke:#000000; stroke-linecap:round; stroke-linejoin:round; stroke-width:4; stroke-opacity:1; fill:none" points="1356.12,1111.02 1356.12,1092.12 "/>
<polyline clip-path="url(#clip600)" style="stroke:#000000; stroke-linecap:round; stroke-linejoin:round; stroke-width:4; stroke-opacity:1; fill:none" points="1629.81,1111.02 1629.81,1092.12 "/>
<polyline clip-path="url(#clip600)" style="stroke:#000000; stroke-linecap:round; stroke-linejoin:round; stroke-width:4; stroke-opacity:1; fill:none" points="1903.49,1111.02 1903.49,1092.12 "/>
<path clip-path="url(#clip600)" d="M261.387 1138.74 Q257.776 1138.74 255.947 1142.3 Q254.142 1145.84 254.142 1152.97 Q254.142 1160.08 255.947 1163.64 Q257.776 1167.19 261.387 1167.19 Q265.021 1167.19 266.827 1163.64 Q268.656 1160.08 268.656 1152.97 Q268.656 1145.84 266.827 1142.3 Q265.021 1138.74 261.387 1138.74 M261.387 1135.03 Q267.197 1135.03 270.253 1139.64 Q273.331 1144.22 273.331 1152.97 Q273.331 1161.7 270.253 1166.31 Q267.197 1170.89 261.387 1170.89 Q255.577 1170.89 252.498 1166.31 Q249.443 1161.7 249.443 1152.97 Q249.443 1144.22 252.498 1139.64 Q255.577 1135.03 261.387 1135.03 Z" fill="#000000" fill-rule="nonzero" fill-opacity="1" /><path clip-path="url(#clip600)" d="M525.453 1166.28 L533.092 1166.28 L533.092 1139.92 L524.782 1141.58 L524.782 1137.33 L533.046 1135.66 L537.722 1135.66 L537.722 1166.28 L545.361 1166.28 L545.361 1170.22 L525.453 1170.22 L525.453 1166.28 Z" fill="#000000" fill-rule="nonzero" fill-opacity="1" /><path clip-path="url(#clip600)" d="M803.408 1166.28 L819.728 1166.28 L819.728 1170.22 L797.783 1170.22 L797.783 1166.28 Q800.445 1163.53 805.029 1158.9 Q809.635 1154.25 810.816 1152.9 Q813.061 1150.38 813.941 1148.64 Q814.844 1146.89 814.844 1145.2 Q814.844 1142.44 812.899 1140.7 Q810.978 1138.97 807.876 1138.97 Q805.677 1138.97 803.223 1139.73 Q800.793 1140.5 798.015 1142.05 L798.015 1137.33 Q800.839 1136.19 803.293 1135.61 Q805.746 1135.03 807.783 1135.03 Q813.154 1135.03 816.348 1137.72 Q819.543 1140.4 819.543 1144.89 Q819.543 1147.02 818.732 1148.95 Q817.945 1150.84 815.839 1153.44 Q815.26 1154.11 812.158 1157.33 Q809.057 1160.52 803.408 1166.28 Z" fill="#000000" fill-rule="nonzero" fill-opacity="1" /><path clip-path="url(#clip600)" d="M1086.69 1151.58 Q1090.04 1152.3 1091.92 1154.57 Q1093.82 1156.84 1093.82 1160.17 Q1093.82 1165.29 1090.3 1168.09 Q1086.78 1170.89 1080.3 1170.89 Q1078.12 1170.89 1075.81 1170.45 Q1073.52 1170.03 1071.06 1169.18 L1071.06 1164.66 Q1073.01 1165.8 1075.32 1166.38 Q1077.64 1166.95 1080.16 1166.95 Q1084.56 1166.95 1086.85 1165.22 Q1089.16 1163.48 1089.16 1160.17 Q1089.16 1157.12 1087.01 1155.4 Q1084.88 1153.67 1081.06 1153.67 L1077.03 1153.67 L1077.03 1149.83 L1081.25 1149.83 Q1084.7 1149.83 1086.53 1148.46 Q1088.35 1147.07 1088.35 1144.48 Q1088.35 1141.82 1086.46 1140.4 Q1084.58 1138.97 1081.06 1138.97 Q1079.14 1138.97 1076.94 1139.39 Q1074.74 1139.8 1072.1 1140.68 L1072.1 1136.51 Q1074.77 1135.77 1077.08 1135.4 Q1079.42 1135.03 1081.48 1135.03 Q1086.8 1135.03 1089.91 1137.46 Q1093.01 1139.87 1093.01 1143.99 Q1093.01 1146.86 1091.36 1148.85 Q1089.72 1150.82 1086.69 1151.58 Z" fill="#000000" fill-rule="nonzero" fill-opacity="1" /><path clip-path="url(#clip600)" d="M1359.13 1139.73 L1347.33 1158.18 L1359.13 1158.18 L1359.13 1139.73 M1357.91 1135.66 L1363.79 1135.66 L1363.79 1158.18 L1368.72 1158.18 L1368.72 1162.07 L1363.79 1162.07 L1363.79 1170.22 L1359.13 1170.22 L1359.13 1162.07 L1343.53 1162.07 L1343.53 1157.56 L1357.91 1135.66 Z" fill="#000000" fill-rule="nonzero" fill-opacity="1" /><path clip-path="url(#clip600)" d="M1620.09 1135.66 L1638.44 1135.66 L1638.44 1139.59 L1624.37 1139.59 L1624.37 1148.07 Q1625.39 1147.72 1626.41 1147.56 Q1627.42 1147.37 1628.44 1147.37 Q1634.23 1147.37 1637.61 1150.54 Q1640.99 1153.71 1640.99 1159.13 Q1640.99 1164.71 1637.52 1167.81 Q1634.04 1170.89 1627.73 1170.89 Q1625.55 1170.89 1623.28 1170.52 Q1621.04 1170.15 1618.63 1169.41 L1618.63 1164.71 Q1620.71 1165.84 1622.93 1166.4 Q1625.16 1166.95 1627.63 1166.95 Q1631.64 1166.95 1633.98 1164.85 Q1636.31 1162.74 1636.31 1159.13 Q1636.31 1155.52 1633.98 1153.41 Q1631.64 1151.31 1627.63 1151.31 Q1625.76 1151.31 1623.88 1151.72 Q1622.03 1152.14 1620.09 1153.02 L1620.09 1135.66 Z" fill="#000000" fill-rule="nonzero" fill-opacity="1" /><path clip-path="url(#clip600)" d="M1903.9 1151.08 Q1900.75 1151.08 1898.9 1153.23 Q1897.07 1155.38 1897.07 1159.13 Q1897.07 1162.86 1898.9 1165.03 Q1900.75 1167.19 1903.9 1167.19 Q1907.05 1167.19 1908.87 1165.03 Q1910.73 1162.86 1910.73 1159.13 Q1910.73 1155.38 1908.87 1153.23 Q1907.05 1151.08 1903.9 1151.08 M1913.18 1136.42 L1913.18 1140.68 Q1911.42 1139.85 1909.62 1139.41 Q1907.83 1138.97 1906.07 1138.97 Q1901.44 1138.97 1898.99 1142.09 Q1896.56 1145.22 1896.21 1151.54 Q1897.58 1149.52 1899.64 1148.46 Q1901.7 1147.37 1904.18 1147.37 Q1909.38 1147.37 1912.39 1150.54 Q1915.43 1153.69 1915.43 1159.13 Q1915.43 1164.45 1912.28 1167.67 Q1909.13 1170.89 1903.9 1170.89 Q1897.9 1170.89 1894.73 1166.31 Q1891.56 1161.7 1891.56 1152.97 Q1891.56 1144.78 1895.45 1139.92 Q1899.34 1135.03 1905.89 1135.03 Q1907.65 1135.03 1909.43 1135.38 Q1911.24 1135.73 1913.18 1136.42 Z" fill="#000000" fill-rule="nonzero" fill-opacity="1" /><g clip-path="url(#clip600)">
<text style="fill:#000000; fill-opacity:1; font-family:Arial,Helvetica Neue,Helvetica,sans-serif; font-size:66px; text-anchor:middle;" transform="rotate(0, 1082.44, 1252.42)" x="1082.44" y="1252.42">s</text>
</g>
<polyline clip-path="url(#clip600)" style="stroke:#000000; stroke-linecap:round; stroke-linejoin:round; stroke-width:4; stroke-opacity:1; fill:none" points="212.124,1111.02 212.124,47.2441 "/>
<polyline clip-path="url(#clip600)" style="stroke:#000000; stroke-linecap:round; stroke-linejoin:round; stroke-width:4; stroke-opacity:1; fill:none" points="212.124,1080.91 231.022,1080.91 "/>
<polyline clip-path="url(#clip600)" style="stroke:#000000; stroke-linecap:round; stroke-linejoin:round; stroke-width:4; stroke-opacity:1; fill:none" points="212.124,824.26 231.022,824.26 "/>
<polyline clip-path="url(#clip600)" style="stroke:#000000; stroke-linecap:round; stroke-linejoin:round; stroke-width:4; stroke-opacity:1; fill:none" points="212.124,567.608 231.022,567.608 "/>
<polyline clip-path="url(#clip600)" style="stroke:#000000; stroke-linecap:round; stroke-linejoin:round; stroke-width:4; stroke-opacity:1; fill:none" points="212.124,310.956 231.022,310.956 "/>
<polyline clip-path="url(#clip600)" style="stroke:#000000; stroke-linecap:round; stroke-linejoin:round; stroke-width:4; stroke-opacity:1; fill:none" points="212.124,54.3042 231.022,54.3042 "/>
<path clip-path="url(#clip600)" d="M124.948 1066.71 Q121.337 1066.71 119.509 1070.28 Q117.703 1073.82 117.703 1080.95 Q117.703 1088.05 119.509 1091.62 Q121.337 1095.16 124.948 1095.16 Q128.583 1095.16 130.388 1091.62 Q132.217 1088.05 132.217 1080.95 Q132.217 1073.82 130.388 1070.28 Q128.583 1066.71 124.948 1066.71 M124.948 1063.01 Q130.758 1063.01 133.814 1067.61 Q136.893 1072.2 136.893 1080.95 Q136.893 1089.67 133.814 1094.28 Q130.758 1098.86 124.948 1098.86 Q119.138 1098.86 116.059 1094.28 Q113.004 1089.67 113.004 1080.95 Q113.004 1072.2 116.059 1067.61 Q119.138 1063.01 124.948 1063.01 Z" fill="#000000" fill-rule="nonzero" fill-opacity="1" /><path clip-path="url(#clip600)" d="M145.11 1092.31 L149.994 1092.31 L149.994 1098.19 L145.11 1098.19 L145.11 1092.31 Z" fill="#000000" fill-rule="nonzero" fill-opacity="1" /><path clip-path="url(#clip600)" d="M170.18 1066.71 Q166.568 1066.71 164.74 1070.28 Q162.934 1073.82 162.934 1080.95 Q162.934 1088.05 164.74 1091.62 Q166.568 1095.16 170.18 1095.16 Q173.814 1095.16 175.619 1091.62 Q177.448 1088.05 177.448 1080.95 Q177.448 1073.82 175.619 1070.28 Q173.814 1066.71 170.18 1066.71 M170.18 1063.01 Q175.99 1063.01 179.045 1067.61 Q182.124 1072.2 182.124 1080.95 Q182.124 1089.67 179.045 1094.28 Q175.99 1098.86 170.18 1098.86 Q164.369 1098.86 161.291 1094.28 Q158.235 1089.67 158.235 1080.95 Q158.235 1072.2 161.291 1067.61 Q164.369 1063.01 170.18 1063.01 Z" fill="#000000" fill-rule="nonzero" fill-opacity="1" /><path clip-path="url(#clip600)" d="M125.944 810.058 Q122.333 810.058 120.504 813.623 Q118.698 817.165 118.698 824.295 Q118.698 831.401 120.504 834.966 Q122.333 838.507 125.944 838.507 Q129.578 838.507 131.383 834.966 Q133.212 831.401 133.212 824.295 Q133.212 817.165 131.383 813.623 Q129.578 810.058 125.944 810.058 M125.944 806.355 Q131.754 806.355 134.809 810.961 Q137.888 815.545 137.888 824.295 Q137.888 833.021 134.809 837.628 Q131.754 842.211 125.944 842.211 Q120.134 842.211 117.055 837.628 Q113.999 833.021 113.999 824.295 Q113.999 815.545 117.055 810.961 Q120.134 806.355 125.944 806.355 Z" fill="#000000" fill-rule="nonzero" fill-opacity="1" /><path clip-path="url(#clip600)" d="M146.106 835.66 L150.99 835.66 L150.99 841.54 L146.106 841.54 L146.106 835.66 Z" fill="#000000" fill-rule="nonzero" fill-opacity="1" /><path clip-path="url(#clip600)" d="M161.221 806.98 L179.578 806.98 L179.578 810.915 L165.504 810.915 L165.504 819.387 Q166.522 819.04 167.541 818.878 Q168.559 818.693 169.578 818.693 Q175.365 818.693 178.744 821.864 Q182.124 825.035 182.124 830.452 Q182.124 836.031 178.652 839.132 Q175.18 842.211 168.86 842.211 Q166.684 842.211 164.416 841.841 Q162.17 841.47 159.763 840.73 L159.763 836.031 Q161.846 837.165 164.068 837.72 Q166.291 838.276 168.768 838.276 Q172.772 838.276 175.11 836.169 Q177.448 834.063 177.448 830.452 Q177.448 826.841 175.11 824.734 Q172.772 822.628 168.768 822.628 Q166.893 822.628 165.018 823.045 Q163.166 823.461 161.221 824.341 L161.221 806.98 Z" fill="#000000" fill-rule="nonzero" fill-opacity="1" /><path clip-path="url(#clip600)" d="M115.759 580.953 L123.397 580.953 L123.397 554.587 L115.087 556.254 L115.087 551.995 L123.351 550.328 L128.027 550.328 L128.027 580.953 L135.666 580.953 L135.666 584.888 L115.759 584.888 L115.759 580.953 Z" fill="#000000" fill-rule="nonzero" fill-opacity="1" /><path clip-path="url(#clip600)" d="M145.11 579.008 L149.994 579.008 L149.994 584.888 L145.11 584.888 L145.11 579.008 Z" fill="#000000" fill-rule="nonzero" fill-opacity="1" /><path clip-path="url(#clip600)" d="M170.18 553.407 Q166.568 553.407 164.74 556.971 Q162.934 560.513 162.934 567.643 Q162.934 574.749 164.74 578.314 Q166.568 581.856 170.18 581.856 Q173.814 581.856 175.619 578.314 Q177.448 574.749 177.448 567.643 Q177.448 560.513 175.619 556.971 Q173.814 553.407 170.18 553.407 M170.18 549.703 Q175.99 549.703 179.045 554.309 Q182.124 558.893 182.124 567.643 Q182.124 576.369 179.045 580.976 Q175.99 585.559 170.18 585.559 Q164.369 585.559 161.291 580.976 Q158.235 576.369 158.235 567.643 Q158.235 558.893 161.291 554.309 Q164.369 549.703 170.18 549.703 Z" fill="#000000" fill-rule="nonzero" fill-opacity="1" /><path clip-path="url(#clip600)" d="M116.754 324.301 L124.393 324.301 L124.393 297.935 L116.083 299.602 L116.083 295.343 L124.346 293.676 L129.022 293.676 L129.022 324.301 L136.661 324.301 L136.661 328.236 L116.754 328.236 L116.754 324.301 Z" fill="#000000" fill-rule="nonzero" fill-opacity="1" /><path clip-path="url(#clip600)" d="M146.106 322.356 L150.99 322.356 L150.99 328.236 L146.106 328.236 L146.106 322.356 Z" fill="#000000" fill-rule="nonzero" fill-opacity="1" /><path clip-path="url(#clip600)" d="M161.221 293.676 L179.578 293.676 L179.578 297.611 L165.504 297.611 L165.504 306.083 Q166.522 305.736 167.541 305.574 Q168.559 305.389 169.578 305.389 Q175.365 305.389 178.744 308.56 Q182.124 311.732 182.124 317.148 Q182.124 322.727 178.652 325.829 Q175.18 328.907 168.86 328.907 Q166.684 328.907 164.416 328.537 Q162.17 328.167 159.763 327.426 L159.763 322.727 Q161.846 323.861 164.068 324.417 Q166.291 324.972 168.768 324.972 Q172.772 324.972 175.11 322.866 Q177.448 320.759 177.448 317.148 Q177.448 313.537 175.11 311.431 Q172.772 309.324 168.768 309.324 Q166.893 309.324 165.018 309.741 Q163.166 310.157 161.221 311.037 L161.221 293.676 Z" fill="#000000" fill-rule="nonzero" fill-opacity="1" /><path clip-path="url(#clip600)" d="M118.976 67.6491 L135.295 67.6491 L135.295 71.5842 L113.351 71.5842 L113.351 67.6491 Q116.013 64.8944 120.596 60.2648 Q125.203 55.6121 126.383 54.2695 Q128.629 51.7464 129.508 50.0103 Q130.411 48.251 130.411 46.5612 Q130.411 43.8066 128.467 42.0705 Q126.546 40.3344 123.444 40.3344 Q121.245 40.3344 118.791 41.0983 Q116.36 41.8622 113.583 43.4131 L113.583 38.6909 Q116.407 37.5566 118.86 36.9779 Q121.314 36.3992 123.351 36.3992 Q128.721 36.3992 131.916 39.0844 Q135.11 41.7696 135.11 46.2603 Q135.11 48.3899 134.3 50.3112 Q133.513 52.2093 131.407 54.8019 Q130.828 55.4732 127.726 58.6908 Q124.624 61.8852 118.976 67.6491 Z" fill="#000000" fill-rule="nonzero" fill-opacity="1" /><path clip-path="url(#clip600)" d="M145.11 65.7046 L149.994 65.7046 L149.994 71.5842 L145.11 71.5842 L145.11 65.7046 Z" fill="#000000" fill-rule="nonzero" fill-opacity="1" /><path clip-path="url(#clip600)" d="M170.18 40.1029 Q166.568 40.1029 164.74 43.6677 Q162.934 47.2094 162.934 54.3389 Q162.934 61.4454 164.74 65.0102 Q166.568 68.5518 170.18 68.5518 Q173.814 68.5518 175.619 65.0102 Q177.448 61.4454 177.448 54.3389 Q177.448 47.2094 175.619 43.6677 Q173.814 40.1029 170.18 40.1029 M170.18 36.3992 Q175.99 36.3992 179.045 41.0057 Q182.124 45.589 182.124 54.3389 Q182.124 63.0658 179.045 67.6722 Q175.99 72.2555 170.18 72.2555 Q164.369 72.2555 161.291 67.6722 Q158.235 63.0658 158.235 54.3389 Q158.235 45.589 161.291 41.0057 Q164.369 36.3992 170.18 36.3992 Z" fill="#000000" fill-rule="nonzero" fill-opacity="1" /><g clip-path="url(#clip600)">
<text style="fill:#000000; fill-opacity:1; font-family:Arial,Helvetica Neue,Helvetica,sans-serif; font-size:66px; text-anchor:middle;" transform="rotate(-90, 71.4418, 579.131)" x="71.4418" y="579.131">v</text>
</g>
<circle clip-path="url(#clip602)" cx="275.071" cy="910.975" r="10.8" fill="#009af9" fill-rule="evenodd" fill-opacity="1" stroke="#000000" stroke-opacity="1" stroke-width="2.56"/>
<circle clip-path="url(#clip602)" cx="342.922" cy="634.369" r="10.8" fill="#009af9" fill-rule="evenodd" fill-opacity="1" stroke="#000000" stroke-opacity="1" stroke-width="2.56"/>
<circle clip-path="url(#clip602)" cx="410.773" cy="512.23" r="10.8" fill="#009af9" fill-rule="evenodd" fill-opacity="1" stroke="#000000" stroke-opacity="1" stroke-width="2.56"/>
<circle clip-path="url(#clip602)" cx="478.624" cy="458.552" r="10.8" fill="#009af9" fill-rule="evenodd" fill-opacity="1" stroke="#000000" stroke-opacity="1" stroke-width="2.56"/>
<circle clip-path="url(#clip602)" cx="546.475" cy="434.019" r="10.8" fill="#009af9" fill-rule="evenodd" fill-opacity="1" stroke="#000000" stroke-opacity="1" stroke-width="2.56"/>
<circle clip-path="url(#clip602)" cx="614.326" cy="413.567" r="10.8" fill="#009af9" fill-rule="evenodd" fill-opacity="1" stroke="#000000" stroke-opacity="1" stroke-width="2.56"/>
<circle clip-path="url(#clip602)" cx="682.177" cy="380.956" r="10.8" fill="#009af9" fill-rule="evenodd" fill-opacity="1" stroke="#000000" stroke-opacity="1" stroke-width="2.56"/>
<circle clip-path="url(#clip602)" cx="750.028" cy="329.674" r="10.8" fill="#009af9" fill-rule="evenodd" fill-opacity="1" stroke="#000000" stroke-opacity="1" stroke-width="2.56"/>
<circle clip-path="url(#clip602)" cx="817.878" cy="264.2" r="10.8" fill="#009af9" fill-rule="evenodd" fill-opacity="1" stroke="#000000" stroke-opacity="1" stroke-width="2.56"/>
<circle clip-path="url(#clip602)" cx="885.729" cy="198.665" r="10.8" fill="#009af9" fill-rule="evenodd" fill-opacity="1" stroke="#000000" stroke-opacity="1" stroke-width="2.56"/>
<circle clip-path="url(#clip602)" cx="953.58" cy="151.66" r="10.8" fill="#009af9" fill-rule="evenodd" fill-opacity="1" stroke="#000000" stroke-opacity="1" stroke-width="2.56"/>
<circle clip-path="url(#clip602)" cx="1021.43" cy="137.942" r="10.8" fill="#009af9" fill-rule="evenodd" fill-opacity="1" stroke="#000000" stroke-opacity="1" stroke-width="2.56"/>
<circle clip-path="url(#clip602)" cx="1089.28" cy="160.015" r="10.8" fill="#009af9" fill-rule="evenodd" fill-opacity="1" stroke="#000000" stroke-opacity="1" stroke-width="2.56"/>
<circle clip-path="url(#clip602)" cx="1157.13" cy="203.959" r="10.8" fill="#009af9" fill-rule="evenodd" fill-opacity="1" stroke="#000000" stroke-opacity="1" stroke-width="2.56"/>
<circle clip-path="url(#clip602)" cx="1224.98" cy="243.267" r="10.8" fill="#009af9" fill-rule="evenodd" fill-opacity="1" stroke="#000000" stroke-opacity="1" stroke-width="2.56"/>
<circle clip-path="url(#clip602)" cx="1292.83" cy="251.041" r="10.8" fill="#009af9" fill-rule="evenodd" fill-opacity="1" stroke="#000000" stroke-opacity="1" stroke-width="2.56"/>
<circle clip-path="url(#clip602)" cx="1360.69" cy="215.753" r="10.8" fill="#009af9" fill-rule="evenodd" fill-opacity="1" stroke="#000000" stroke-opacity="1" stroke-width="2.56"/>
<circle clip-path="url(#clip602)" cx="1428.54" cy="151.392" r="10.8" fill="#009af9" fill-rule="evenodd" fill-opacity="1" stroke="#000000" stroke-opacity="1" stroke-width="2.56"/>
<circle clip-path="url(#clip602)" cx="1496.39" cy="93.1985" r="10.8" fill="#009af9" fill-rule="evenodd" fill-opacity="1" stroke="#000000" stroke-opacity="1" stroke-width="2.56"/>
<circle clip-path="url(#clip602)" cx="1564.24" cy="77.3509" r="10.8" fill="#009af9" fill-rule="evenodd" fill-opacity="1" stroke="#000000" stroke-opacity="1" stroke-width="2.56"/>
<circle clip-path="url(#clip602)" cx="1632.09" cy="114.774" r="10.8" fill="#009af9" fill-rule="evenodd" fill-opacity="1" stroke="#000000" stroke-opacity="1" stroke-width="2.56"/>
<circle clip-path="url(#clip602)" cx="1699.94" cy="177.914" r="10.8" fill="#009af9" fill-rule="evenodd" fill-opacity="1" stroke="#000000" stroke-opacity="1" stroke-width="2.56"/>
<circle clip-path="url(#clip602)" cx="1767.79" cy="215.551" r="10.8" fill="#009af9" fill-rule="evenodd" fill-opacity="1" stroke="#000000" stroke-opacity="1" stroke-width="2.56"/>
<circle clip-path="url(#clip602)" cx="1835.64" cy="191.513" r="10.8" fill="#009af9" fill-rule="evenodd" fill-opacity="1" stroke="#000000" stroke-opacity="1" stroke-width="2.56"/>
<circle clip-path="url(#clip602)" cx="1903.49" cy="119.403" r="10.8" fill="#009af9" fill-rule="evenodd" fill-opacity="1" stroke="#000000" stroke-opacity="1" stroke-width="2.56"/>
<polyline clip-path="url(#clip602)" style="stroke:#e26f46; stroke-linecap:round; stroke-linejoin:round; stroke-width:8; stroke-opacity:1; fill:none" stroke-dasharray="32, 20" points="275.071,987.584 342.922,697.609 410.773,545.113 478.624,451.061 546.475,387.258 614.326,341.133 682.177,306.232 750.028,278.904 817.878,256.924 885.729,238.863 953.58,223.758 1021.43,210.939 1089.28,199.922 1157.13,190.354 1224.98,181.965 1292.83,174.551 1360.69,167.951 1428.54,162.037 1496.39,156.709 1564.24,151.883 1632.09,147.491 1699.94,143.478 1767.79,139.795 1835.64,136.405 1903.49,133.274 "/>
<polyline clip-path="url(#clip602)" style="stroke:#3da44d; stroke-linecap:round; stroke-linejoin:round; stroke-width:8; stroke-opacity:1; fill:none" points="261.387,1080.91 263.506,1064.51 265.625,1048.63 267.744,1033.25 269.863,1018.35 271.982,1003.9 274.102,989.89 276.221,976.291 278.34,963.087 281.443,944.435 284.545,926.546 287.648,909.374 290.751,892.878 296.957,861.758 303.162,832.907 309.368,806.086 315.573,781.087 321.779,757.731 327.985,735.862 334.19,715.342 340.396,696.049 346.602,677.877 352.807,660.73 359.013,644.526 365.218,629.187 371.424,614.646 377.63,600.843 383.403,588.614 389.177,576.937 394.951,565.775 400.724,555.094 412.272,535.056 423.819,516.609 439.297,494.065 454.775,473.689 470.253,455.184 485.731,438.302 498.52,425.431 511.31,413.43 524.099,402.214 536.889,391.708 560.674,373.839 584.46,357.854 614.32,340.023 644.179,324.275 670.963,311.636 697.747,300.196 728.405,288.364 759.063,277.691 781.98,270.372 804.897,263.552 863.519,248.052 917.024,235.929 977.919,224 1026.19,215.699 1086.16,206.557 1132.09,200.297 1196.85,192.391 1245.24,187.084 1300.27,181.583 1354.77,176.623 1414.72,171.654 1460.52,168.161 1518.31,164.083 1571.77,160.602 1626.89,157.273 1682.77,154.141 1741.12,151.103 1787.08,148.86 1891.75,144.191 1903.49,143.701 "/>
<polyline clip-path="url(#clip602)" style="stroke:#c271d2; stroke-linecap:round; stroke-linejoin:round; stroke-width:8; stroke-opacity:1; fill:none" points="261.387,1080.91 263.506,1050.15 265.625,1021.42 267.744,994.534 269.863,969.318 271.982,945.622 274.102,923.311 275.161,912.637 276.221,902.267 277.28,892.188 278.34,882.386 281.443,855.181 284.545,830.012 287.648,806.658 290.751,784.931 293.854,764.665 296.957,745.719 300.059,727.967 303.162,711.301 306.265,695.622 309.368,680.847 312.471,666.899 315.573,653.71 318.676,641.221 321.779,629.377 324.882,618.129 327.985,607.434 334.19,587.545 340.396,569.435 346.602,552.876 352.807,537.676 359.013,523.674 365.218,510.735 371.424,498.742 377.63,487.594 383.403,477.906 389.177,468.814 394.951,460.266 400.724,452.213 412.272,437.432 423.819,424.187 439.297,408.452 454.775,394.642 470.253,382.423 485.731,371.536 498.52,363.396 511.31,355.928 524.099,349.053 536.889,342.702 560.674,332.095 584.46,322.805 614.32,312.659 644.179,303.883 670.963,296.96 697.747,290.785 759.063,278.882 804.897,271.566 863.519,263.684 917.024,257.618 977.919,251.732 1026.19,247.684 1086.16,243.269 1132.09,240.274 1196.85,236.52 1245.24,234.019 1300.27,231.442 1354.77,229.133 1414.72,226.832 1460.52,225.222 1518.31,223.35 1571.77,221.76 1626.89,220.244 1682.77,218.823 1741.12,217.45 1787.08,216.439 1891.75,214.342 1903.49,214.122 "/>
<path clip-path="url(#clip600)" d="M1428.54 1075.56 L1894.73 1075.56 L1894.73 816.359 L1428.54 816.359  Z" fill="#ffffff" fill-rule="evenodd" fill-opacity="1"/>
<polyline clip-path="url(#clip600)" style="stroke:#000000; stroke-linecap:round; stroke-linejoin:round; stroke-width:4; stroke-opacity:1; fill:none" points="1428.54,1075.56 1894.73,1075.56 1894.73,816.359 1428.54,816.359 1428.54,1075.56 "/>
<circle clip-path="url(#clip600)" cx="1505.9" cy="868.199" r="19.7486" fill="#009af9" fill-rule="evenodd" fill-opacity="1" stroke="#000000" stroke-opacity="1" stroke-width="4.68114"/>
<path clip-path="url(#clip600)" d="M1604.98 869.831 L1604.98 885.479 L1600.72 885.479 L1600.72 869.97 Q1600.72 866.29 1599.28 864.461 Q1597.85 862.632 1594.98 862.632 Q1591.53 862.632 1589.54 864.831 Q1587.55 867.03 1587.55 870.827 L1587.55 885.479 L1583.27 885.479 L1583.27 859.554 L1587.55 859.554 L1587.55 863.581 Q1589.08 861.243 1591.14 860.086 Q1593.22 858.929 1595.93 858.929 Q1600.4 858.929 1602.69 861.706 Q1604.98 864.461 1604.98 869.831 Z" fill="#000000" fill-rule="nonzero" fill-opacity="1" /><path clip-path="url(#clip600)" d="M1623.52 862.54 Q1620.09 862.54 1618.1 865.225 Q1616.11 867.887 1616.11 872.54 Q1616.11 877.192 1618.08 879.878 Q1620.07 882.54 1623.52 882.54 Q1626.92 882.54 1628.91 879.854 Q1630.91 877.169 1630.91 872.54 Q1630.91 867.933 1628.91 865.248 Q1626.92 862.54 1623.52 862.54 M1623.52 858.929 Q1629.08 858.929 1632.25 862.54 Q1635.42 866.151 1635.42 872.54 Q1635.42 878.905 1632.25 882.54 Q1629.08 886.151 1623.52 886.151 Q1617.94 886.151 1614.77 882.54 Q1611.62 878.905 1611.62 872.54 Q1611.62 866.151 1614.77 862.54 Q1617.94 858.929 1623.52 858.929 Z" fill="#000000" fill-rule="nonzero" fill-opacity="1" /><path clip-path="url(#clip600)" d="M1642.48 859.554 L1646.74 859.554 L1646.74 885.479 L1642.48 885.479 L1642.48 859.554 M1642.48 849.461 L1646.74 849.461 L1646.74 854.855 L1642.48 854.855 L1642.48 849.461 Z" fill="#000000" fill-rule="nonzero" fill-opacity="1" /><path clip-path="url(#clip600)" d="M1672.18 860.317 L1672.18 864.345 Q1670.37 863.419 1668.43 862.956 Q1666.48 862.493 1664.4 862.493 Q1661.23 862.493 1659.63 863.466 Q1658.06 864.438 1658.06 866.382 Q1658.06 867.864 1659.19 868.72 Q1660.33 869.554 1663.75 870.317 L1665.21 870.641 Q1669.75 871.614 1671.65 873.396 Q1673.57 875.155 1673.57 878.327 Q1673.57 881.938 1670.7 884.044 Q1667.85 886.151 1662.85 886.151 Q1660.77 886.151 1658.5 885.734 Q1656.25 885.34 1653.75 884.53 L1653.75 880.132 Q1656.11 881.359 1658.4 881.984 Q1660.7 882.586 1662.94 882.586 Q1665.95 882.586 1667.57 881.567 Q1669.19 880.526 1669.19 878.651 Q1669.19 876.915 1668.01 875.989 Q1666.85 875.063 1662.9 874.206 L1661.41 873.859 Q1657.46 873.026 1655.7 871.313 Q1653.94 869.577 1653.94 866.567 Q1653.94 862.91 1656.53 860.919 Q1659.12 858.929 1663.89 858.929 Q1666.25 858.929 1668.34 859.276 Q1670.42 859.623 1672.18 860.317 Z" fill="#000000" fill-rule="nonzero" fill-opacity="1" /><path clip-path="url(#clip600)" d="M1691.14 887.887 Q1689.33 892.516 1687.62 893.928 Q1685.9 895.34 1683.03 895.34 L1679.63 895.34 L1679.63 891.776 L1682.13 891.776 Q1683.89 891.776 1684.86 890.942 Q1685.84 890.109 1687.02 887.007 L1687.78 885.063 L1677.29 859.554 L1681.81 859.554 L1689.91 879.831 L1698.01 859.554 L1702.53 859.554 L1691.14 887.887 Z" fill="#000000" fill-rule="nonzero" fill-opacity="1" /><path clip-path="url(#clip600)" d="M1740.53 863.489 L1740.53 849.461 L1744.79 849.461 L1744.79 885.479 L1740.53 885.479 L1740.53 881.59 Q1739.19 883.905 1737.13 885.04 Q1735.09 886.151 1732.22 886.151 Q1727.52 886.151 1724.56 882.401 Q1721.62 878.651 1721.62 872.54 Q1721.62 866.429 1724.56 862.679 Q1727.52 858.929 1732.22 858.929 Q1735.09 858.929 1737.13 860.063 Q1739.19 861.174 1740.53 863.489 M1726.02 872.54 Q1726.02 877.239 1727.94 879.924 Q1729.89 882.586 1733.27 882.586 Q1736.65 882.586 1738.59 879.924 Q1740.53 877.239 1740.53 872.54 Q1740.53 867.841 1738.59 865.179 Q1736.65 862.493 1733.27 862.493 Q1729.89 862.493 1727.94 865.179 Q1726.02 867.841 1726.02 872.54 Z" fill="#000000" fill-rule="nonzero" fill-opacity="1" /><path clip-path="url(#clip600)" d="M1765.35 872.447 Q1760.19 872.447 1758.2 873.628 Q1756.21 874.808 1756.21 877.655 Q1756.21 879.924 1757.69 881.266 Q1759.19 882.586 1761.76 882.586 Q1765.3 882.586 1767.43 880.086 Q1769.58 877.563 1769.58 873.396 L1769.58 872.447 L1765.35 872.447 M1773.84 870.688 L1773.84 885.479 L1769.58 885.479 L1769.58 881.544 Q1768.13 883.905 1765.95 885.04 Q1763.77 886.151 1760.63 886.151 Q1756.65 886.151 1754.28 883.928 Q1751.95 881.683 1751.95 877.933 Q1751.95 873.558 1754.86 871.336 Q1757.8 869.114 1763.61 869.114 L1769.58 869.114 L1769.58 868.697 Q1769.58 865.757 1767.64 864.16 Q1765.72 862.54 1762.22 862.54 Q1760 862.54 1757.9 863.072 Q1755.79 863.604 1753.84 864.669 L1753.84 860.734 Q1756.18 859.831 1758.38 859.392 Q1760.58 858.929 1762.66 858.929 Q1768.29 858.929 1771.07 861.845 Q1773.84 864.762 1773.84 870.688 Z" fill="#000000" fill-rule="nonzero" fill-opacity="1" /><path clip-path="url(#clip600)" d="M1786.83 852.192 L1786.83 859.554 L1795.6 859.554 L1795.6 862.864 L1786.83 862.864 L1786.83 876.938 Q1786.83 880.109 1787.69 881.012 Q1788.57 881.915 1791.23 881.915 L1795.6 881.915 L1795.6 885.479 L1791.23 885.479 Q1786.3 885.479 1784.42 883.651 Q1782.55 881.799 1782.55 876.938 L1782.55 862.864 L1779.42 862.864 L1779.42 859.554 L1782.55 859.554 L1782.55 852.192 L1786.83 852.192 Z" fill="#000000" fill-rule="nonzero" fill-opacity="1" /><path clip-path="url(#clip600)" d="M1812.99 872.447 Q1807.83 872.447 1805.83 873.628 Q1803.84 874.808 1803.84 877.655 Q1803.84 879.924 1805.33 881.266 Q1806.83 882.586 1809.4 882.586 Q1812.94 882.586 1815.07 880.086 Q1817.22 877.563 1817.22 873.396 L1817.22 872.447 L1812.99 872.447 M1821.48 870.688 L1821.48 885.479 L1817.22 885.479 L1817.22 881.544 Q1815.77 883.905 1813.59 885.04 Q1811.41 886.151 1808.27 886.151 Q1804.28 886.151 1801.92 883.928 Q1799.58 881.683 1799.58 877.933 Q1799.58 873.558 1802.5 871.336 Q1805.44 869.114 1811.25 869.114 L1817.22 869.114 L1817.22 868.697 Q1817.22 865.757 1815.28 864.16 Q1813.36 862.54 1809.86 862.54 Q1807.64 862.54 1805.53 863.072 Q1803.43 863.604 1801.48 864.669 L1801.48 860.734 Q1803.82 859.831 1806.02 859.392 Q1808.22 858.929 1810.3 858.929 Q1815.93 858.929 1818.7 861.845 Q1821.48 864.762 1821.48 870.688 Z" fill="#000000" fill-rule="nonzero" fill-opacity="1" /><polyline clip-path="url(#clip600)" style="stroke:#e26f46; stroke-linecap:round; stroke-linejoin:round; stroke-width:8; stroke-opacity:1; fill:none" stroke-dasharray="32, 20" points="1447.88,920.039 1563.93,920.039 "/>
<path clip-path="url(#clip600)" d="M1595.16 914.38 Q1591.74 914.38 1589.75 917.065 Q1587.76 919.727 1587.76 924.38 Q1587.76 929.032 1589.72 931.718 Q1591.72 934.38 1595.16 934.38 Q1598.57 934.38 1600.56 931.694 Q1602.55 929.009 1602.55 924.38 Q1602.55 919.773 1600.56 917.088 Q1598.57 914.38 1595.16 914.38 M1595.16 910.769 Q1600.72 910.769 1603.89 914.38 Q1607.06 917.991 1607.06 924.38 Q1607.06 930.745 1603.89 934.38 Q1600.72 937.991 1595.16 937.991 Q1589.59 937.991 1586.41 934.38 Q1583.27 930.745 1583.27 924.38 Q1583.27 917.991 1586.41 914.38 Q1589.59 910.769 1595.16 910.769 Z" fill="#000000" fill-rule="nonzero" fill-opacity="1" /><path clip-path="url(#clip600)" d="M1629.15 915.375 Q1628.43 914.958 1627.57 914.773 Q1626.74 914.565 1625.72 914.565 Q1622.11 914.565 1620.16 916.926 Q1618.24 919.264 1618.24 923.662 L1618.24 937.319 L1613.96 937.319 L1613.96 911.394 L1618.24 911.394 L1618.24 915.421 Q1619.59 913.06 1621.74 911.926 Q1623.89 910.769 1626.97 910.769 Q1627.41 910.769 1627.94 910.838 Q1628.47 910.884 1629.12 911 L1629.15 915.375 Z" fill="#000000" fill-rule="nonzero" fill-opacity="1" /><path clip-path="url(#clip600)" d="M1633.61 911.394 L1637.87 911.394 L1637.87 937.319 L1633.61 937.319 L1633.61 911.394 M1633.61 901.301 L1637.87 901.301 L1637.87 906.695 L1633.61 906.695 L1633.61 901.301 Z" fill="#000000" fill-rule="nonzero" fill-opacity="1" /><path clip-path="url(#clip600)" d="M1663.84 924.056 Q1663.84 919.426 1661.92 916.88 Q1660.03 914.333 1656.58 914.333 Q1653.15 914.333 1651.23 916.88 Q1649.33 919.426 1649.33 924.056 Q1649.33 928.662 1651.23 931.208 Q1653.15 933.755 1656.58 933.755 Q1660.03 933.755 1661.92 931.208 Q1663.84 928.662 1663.84 924.056 M1668.1 934.102 Q1668.1 940.722 1665.16 943.94 Q1662.22 947.18 1656.16 947.18 Q1653.91 947.18 1651.92 946.833 Q1649.93 946.509 1648.06 945.815 L1648.06 941.671 Q1649.93 942.69 1651.76 943.176 Q1653.59 943.662 1655.49 943.662 Q1659.68 943.662 1661.76 941.463 Q1663.84 939.287 1663.84 934.866 L1663.84 932.759 Q1662.53 935.051 1660.47 936.185 Q1658.4 937.319 1655.53 937.319 Q1650.77 937.319 1647.85 933.685 Q1644.93 930.051 1644.93 924.056 Q1644.93 918.037 1647.85 914.403 Q1650.77 910.769 1655.53 910.769 Q1658.4 910.769 1660.47 911.903 Q1662.53 913.037 1663.84 915.329 L1663.84 911.394 L1668.1 911.394 L1668.1 934.102 Z" fill="#000000" fill-rule="nonzero" fill-opacity="1" /><path clip-path="url(#clip600)" d="M1676.88 911.394 L1681.14 911.394 L1681.14 937.319 L1676.88 937.319 L1676.88 911.394 M1676.88 901.301 L1681.14 901.301 L1681.14 906.695 L1676.88 906.695 L1676.88 901.301 Z" fill="#000000" fill-rule="nonzero" fill-opacity="1" /><path clip-path="url(#clip600)" d="M1711.6 921.671 L1711.6 937.319 L1707.34 937.319 L1707.34 921.81 Q1707.34 918.13 1705.9 916.301 Q1704.47 914.472 1701.6 914.472 Q1698.15 914.472 1696.16 916.671 Q1694.17 918.87 1694.17 922.667 L1694.17 937.319 L1689.89 937.319 L1689.89 911.394 L1694.17 911.394 L1694.17 915.421 Q1695.7 913.083 1697.76 911.926 Q1699.84 910.769 1702.55 910.769 Q1707.02 910.769 1709.31 913.546 Q1711.6 916.301 1711.6 921.671 Z" fill="#000000" fill-rule="nonzero" fill-opacity="1" /><path clip-path="url(#clip600)" d="M1731.88 924.287 Q1726.71 924.287 1724.72 925.468 Q1722.73 926.648 1722.73 929.495 Q1722.73 931.764 1724.21 933.106 Q1725.72 934.426 1728.29 934.426 Q1731.83 934.426 1733.96 931.926 Q1736.11 929.403 1736.11 925.236 L1736.11 924.287 L1731.88 924.287 M1740.37 922.528 L1740.37 937.319 L1736.11 937.319 L1736.11 933.384 Q1734.65 935.745 1732.48 936.88 Q1730.3 937.991 1727.15 937.991 Q1723.17 937.991 1720.81 935.768 Q1718.47 933.523 1718.47 929.773 Q1718.47 925.398 1721.39 923.176 Q1724.33 920.954 1730.14 920.954 L1736.11 920.954 L1736.11 920.537 Q1736.11 917.597 1734.17 916 Q1732.25 914.38 1728.75 914.38 Q1726.53 914.38 1724.42 914.912 Q1722.32 915.444 1720.37 916.509 L1720.37 912.574 Q1722.71 911.671 1724.91 911.232 Q1727.11 910.769 1729.19 910.769 Q1734.82 910.769 1737.59 913.685 Q1740.37 916.602 1740.37 922.528 Z" fill="#000000" fill-rule="nonzero" fill-opacity="1" /><path clip-path="url(#clip600)" d="M1749.15 901.301 L1753.4 901.301 L1753.4 937.319 L1749.15 937.319 L1749.15 901.301 Z" fill="#000000" fill-rule="nonzero" fill-opacity="1" /><path clip-path="url(#clip600)" d="M1794.45 915.329 L1794.45 901.301 L1798.71 901.301 L1798.71 937.319 L1794.45 937.319 L1794.45 933.43 Q1793.1 935.745 1791.04 936.88 Q1789.01 937.991 1786.14 937.991 Q1781.44 937.991 1778.47 934.241 Q1775.53 930.491 1775.53 924.38 Q1775.53 918.269 1778.47 914.519 Q1781.44 910.769 1786.14 910.769 Q1789.01 910.769 1791.04 911.903 Q1793.1 913.014 1794.45 915.329 M1779.93 924.38 Q1779.93 929.079 1781.85 931.764 Q1783.8 934.426 1787.18 934.426 Q1790.56 934.426 1792.5 931.764 Q1794.45 929.079 1794.45 924.38 Q1794.45 919.681 1792.5 917.019 Q1790.56 914.333 1787.18 914.333 Q1783.8 914.333 1781.85 917.019 Q1779.93 919.681 1779.93 924.38 Z" fill="#000000" fill-rule="nonzero" fill-opacity="1" /><path clip-path="url(#clip600)" d="M1819.26 924.287 Q1814.1 924.287 1812.11 925.468 Q1810.12 926.648 1810.12 929.495 Q1810.12 931.764 1811.6 933.106 Q1813.1 934.426 1815.67 934.426 Q1819.21 934.426 1821.34 931.926 Q1823.5 929.403 1823.5 925.236 L1823.5 924.287 L1819.26 924.287 M1827.76 922.528 L1827.76 937.319 L1823.5 937.319 L1823.5 933.384 Q1822.04 935.745 1819.86 936.88 Q1817.69 937.991 1814.54 937.991 Q1810.56 937.991 1808.2 935.768 Q1805.86 933.523 1805.86 929.773 Q1805.86 925.398 1808.77 923.176 Q1811.71 920.954 1817.52 920.954 L1823.5 920.954 L1823.5 920.537 Q1823.5 917.597 1821.55 916 Q1819.63 914.38 1816.14 914.38 Q1813.91 914.38 1811.81 914.912 Q1809.7 915.444 1807.76 916.509 L1807.76 912.574 Q1810.09 911.671 1812.29 911.232 Q1814.49 910.769 1816.58 910.769 Q1822.2 910.769 1824.98 913.685 Q1827.76 916.602 1827.76 922.528 Z" fill="#000000" fill-rule="nonzero" fill-opacity="1" /><path clip-path="url(#clip600)" d="M1840.74 904.032 L1840.74 911.394 L1849.51 911.394 L1849.51 914.704 L1840.74 914.704 L1840.74 928.778 Q1840.74 931.949 1841.6 932.852 Q1842.48 933.755 1845.14 933.755 L1849.51 933.755 L1849.51 937.319 L1845.14 937.319 Q1840.21 937.319 1838.33 935.491 Q1836.46 933.639 1836.46 928.778 L1836.46 914.704 L1833.33 914.704 L1833.33 911.394 L1836.46 911.394 L1836.46 904.032 L1840.74 904.032 Z" fill="#000000" fill-rule="nonzero" fill-opacity="1" /><path clip-path="url(#clip600)" d="M1866.9 924.287 Q1861.74 924.287 1859.75 925.468 Q1857.76 926.648 1857.76 929.495 Q1857.76 931.764 1859.24 933.106 Q1860.74 934.426 1863.31 934.426 Q1866.85 934.426 1868.98 931.926 Q1871.14 929.403 1871.14 925.236 L1871.14 924.287 L1866.9 924.287 M1875.39 922.528 L1875.39 937.319 L1871.14 937.319 L1871.14 933.384 Q1869.68 935.745 1867.5 936.88 Q1865.33 937.991 1862.18 937.991 Q1858.2 937.991 1855.83 935.768 Q1853.5 933.523 1853.5 929.773 Q1853.5 925.398 1856.41 923.176 Q1859.35 920.954 1865.16 920.954 L1871.14 920.954 L1871.14 920.537 Q1871.14 917.597 1869.19 916 Q1867.27 914.38 1863.77 914.38 Q1861.55 914.38 1859.45 914.912 Q1857.34 915.444 1855.39 916.509 L1855.39 912.574 Q1857.73 911.671 1859.93 911.232 Q1862.13 910.769 1864.21 910.769 Q1869.84 910.769 1872.62 913.685 Q1875.39 916.602 1875.39 922.528 Z" fill="#000000" fill-rule="nonzero" fill-opacity="1" /><polyline clip-path="url(#clip600)" style="stroke:#3da44d; stroke-linecap:round; stroke-linejoin:round; stroke-width:8; stroke-opacity:1; fill:none" points="1447.88,971.879 1563.93,971.879 "/>
<path clip-path="url(#clip600)" d="M1604.98 973.511 L1604.98 989.159 L1600.72 989.159 L1600.72 973.65 Q1600.72 969.97 1599.28 968.141 Q1597.85 966.312 1594.98 966.312 Q1591.53 966.312 1589.54 968.511 Q1587.55 970.71 1587.55 974.507 L1587.55 989.159 L1583.27 989.159 L1583.27 963.234 L1587.55 963.234 L1587.55 967.261 Q1589.08 964.923 1591.14 963.766 Q1593.22 962.609 1595.93 962.609 Q1600.4 962.609 1602.69 965.386 Q1604.98 968.141 1604.98 973.511 Z" fill="#000000" fill-rule="nonzero" fill-opacity="1" /><path clip-path="url(#clip600)" d="M1623.52 966.22 Q1620.09 966.22 1618.1 968.905 Q1616.11 971.567 1616.11 976.22 Q1616.11 980.872 1618.08 983.558 Q1620.07 986.22 1623.52 986.22 Q1626.92 986.22 1628.91 983.534 Q1630.91 980.849 1630.91 976.22 Q1630.91 971.613 1628.91 968.928 Q1626.92 966.22 1623.52 966.22 M1623.52 962.609 Q1629.08 962.609 1632.25 966.22 Q1635.42 969.831 1635.42 976.22 Q1635.42 982.585 1632.25 986.22 Q1629.08 989.831 1623.52 989.831 Q1617.94 989.831 1614.77 986.22 Q1611.62 982.585 1611.62 976.22 Q1611.62 969.831 1614.77 966.22 Q1617.94 962.609 1623.52 962.609 Z" fill="#000000" fill-rule="nonzero" fill-opacity="1" /><path clip-path="url(#clip600)" d="M1664.03 973.511 L1664.03 989.159 L1659.77 989.159 L1659.77 973.65 Q1659.77 969.97 1658.34 968.141 Q1656.9 966.312 1654.03 966.312 Q1650.58 966.312 1648.59 968.511 Q1646.6 970.71 1646.6 974.507 L1646.6 989.159 L1642.32 989.159 L1642.32 963.234 L1646.6 963.234 L1646.6 967.261 Q1648.13 964.923 1650.19 963.766 Q1652.27 962.609 1654.98 962.609 Q1659.45 962.609 1661.74 965.386 Q1664.03 968.141 1664.03 973.511 Z" fill="#000000" fill-rule="nonzero" fill-opacity="1" /><path clip-path="url(#clip600)" d="M1672.53 953.141 L1676.78 953.141 L1676.78 989.159 L1672.53 989.159 L1672.53 953.141 Z" fill="#000000" fill-rule="nonzero" fill-opacity="1" /><path clip-path="url(#clip600)" d="M1685.7 963.234 L1689.96 963.234 L1689.96 989.159 L1685.7 989.159 L1685.7 963.234 M1685.7 953.141 L1689.96 953.141 L1689.96 958.535 L1685.7 958.535 L1685.7 953.141 Z" fill="#000000" fill-rule="nonzero" fill-opacity="1" /><path clip-path="url(#clip600)" d="M1720.42 973.511 L1720.42 989.159 L1716.16 989.159 L1716.16 973.65 Q1716.16 969.97 1714.72 968.141 Q1713.29 966.312 1710.42 966.312 Q1706.97 966.312 1704.98 968.511 Q1702.99 970.71 1702.99 974.507 L1702.99 989.159 L1698.71 989.159 L1698.71 963.234 L1702.99 963.234 L1702.99 967.261 Q1704.52 964.923 1706.58 963.766 Q1708.66 962.609 1711.37 962.609 Q1715.84 962.609 1718.13 965.386 Q1720.42 968.141 1720.42 973.511 Z" fill="#000000" fill-rule="nonzero" fill-opacity="1" /><path clip-path="url(#clip600)" d="M1751.09 975.132 L1751.09 977.215 L1731.51 977.215 Q1731.78 981.613 1734.15 983.928 Q1736.53 986.22 1740.77 986.22 Q1743.22 986.22 1745.51 985.618 Q1747.83 985.016 1750.09 983.812 L1750.09 987.84 Q1747.8 988.812 1745.4 989.321 Q1742.99 989.831 1740.51 989.831 Q1734.31 989.831 1730.67 986.22 Q1727.06 982.608 1727.06 976.451 Q1727.06 970.085 1730.49 966.359 Q1733.94 962.609 1739.77 962.609 Q1745 962.609 1748.03 965.988 Q1751.09 969.345 1751.09 975.132 M1746.83 973.882 Q1746.78 970.386 1744.86 968.303 Q1742.96 966.22 1739.82 966.22 Q1736.25 966.22 1734.1 968.234 Q1731.97 970.247 1731.65 973.905 L1746.83 973.882 Z" fill="#000000" fill-rule="nonzero" fill-opacity="1" /><path clip-path="url(#clip600)" d="M1769.86 976.127 Q1764.7 976.127 1762.71 977.308 Q1760.72 978.488 1760.72 981.335 Q1760.72 983.604 1762.2 984.946 Q1763.71 986.266 1766.27 986.266 Q1769.82 986.266 1771.95 983.766 Q1774.1 981.243 1774.1 977.076 L1774.1 976.127 L1769.86 976.127 M1778.36 974.368 L1778.36 989.159 L1774.1 989.159 L1774.1 985.224 Q1772.64 987.585 1770.46 988.72 Q1768.29 989.831 1765.14 989.831 Q1761.16 989.831 1758.8 987.608 Q1756.46 985.363 1756.46 981.613 Q1756.46 977.238 1759.38 975.016 Q1762.32 972.794 1768.13 972.794 L1774.1 972.794 L1774.1 972.377 Q1774.1 969.437 1772.15 967.84 Q1770.23 966.22 1766.74 966.22 Q1764.52 966.22 1762.41 966.752 Q1760.3 967.284 1758.36 968.349 L1758.36 964.414 Q1760.7 963.511 1762.9 963.072 Q1765.09 962.609 1767.18 962.609 Q1772.8 962.609 1775.58 965.525 Q1778.36 968.442 1778.36 974.368 Z" fill="#000000" fill-rule="nonzero" fill-opacity="1" /><path clip-path="url(#clip600)" d="M1802.15 967.215 Q1801.44 966.798 1800.58 966.613 Q1799.75 966.405 1798.73 966.405 Q1795.12 966.405 1793.17 968.766 Q1791.25 971.104 1791.25 975.502 L1791.25 989.159 L1786.97 989.159 L1786.97 963.234 L1791.25 963.234 L1791.25 967.261 Q1792.59 964.9 1794.75 963.766 Q1796.9 962.609 1799.98 962.609 Q1800.42 962.609 1800.95 962.678 Q1801.48 962.724 1802.13 962.84 L1802.15 967.215 Z" fill="#000000" fill-rule="nonzero" fill-opacity="1" /><path clip-path="url(#clip600)" d="M1834.82 953.141 L1834.82 956.683 L1830.74 956.683 Q1828.45 956.683 1827.55 957.609 Q1826.67 958.535 1826.67 960.942 L1826.67 963.234 L1833.68 963.234 L1833.68 966.544 L1826.67 966.544 L1826.67 989.159 L1822.39 989.159 L1822.39 966.544 L1818.31 966.544 L1818.31 963.234 L1822.39 963.234 L1822.39 961.428 Q1822.39 957.099 1824.4 955.132 Q1826.41 953.141 1830.79 953.141 L1834.82 953.141 Z" fill="#000000" fill-rule="nonzero" fill-opacity="1" /><path clip-path="url(#clip600)" d="M1838.38 963.234 L1842.64 963.234 L1842.64 989.159 L1838.38 989.159 L1838.38 963.234 M1838.38 953.141 L1842.64 953.141 L1842.64 958.535 L1838.38 958.535 L1838.38 953.141 Z" fill="#000000" fill-rule="nonzero" fill-opacity="1" /><path clip-path="url(#clip600)" d="M1855.76 955.872 L1855.76 963.234 L1864.54 963.234 L1864.54 966.544 L1855.76 966.544 L1855.76 980.618 Q1855.76 983.789 1856.62 984.692 Q1857.5 985.595 1860.16 985.595 L1864.54 985.595 L1864.54 989.159 L1860.16 989.159 Q1855.23 989.159 1853.36 987.331 Q1851.48 985.479 1851.48 980.618 L1851.48 966.544 L1848.36 966.544 L1848.36 963.234 L1851.48 963.234 L1851.48 955.872 L1855.76 955.872 Z" fill="#000000" fill-rule="nonzero" fill-opacity="1" /><polyline clip-path="url(#clip600)" style="stroke:#c271d2; stroke-linecap:round; stroke-linejoin:round; stroke-width:8; stroke-opacity:1; fill:none" points="1447.88,1023.72 1563.93,1023.72 "/>
<path clip-path="url(#clip600)" d="M1583.27 1004.98 L1587.53 1004.98 L1587.53 1041 L1583.27 1041 L1583.27 1004.98 Z" fill="#000000" fill-rule="nonzero" fill-opacity="1" /><path clip-path="url(#clip600)" d="M1596.44 1015.07 L1600.7 1015.07 L1600.7 1041 L1596.44 1041 L1596.44 1015.07 M1596.44 1004.98 L1600.7 1004.98 L1600.7 1010.37 L1596.44 1010.37 L1596.44 1004.98 Z" fill="#000000" fill-rule="nonzero" fill-opacity="1" /><path clip-path="url(#clip600)" d="M1631.16 1025.35 L1631.16 1041 L1626.9 1041 L1626.9 1025.49 Q1626.9 1021.81 1625.47 1019.98 Q1624.03 1018.15 1621.16 1018.15 Q1617.71 1018.15 1615.72 1020.35 Q1613.73 1022.55 1613.73 1026.35 L1613.73 1041 L1609.45 1041 L1609.45 1015.07 L1613.73 1015.07 L1613.73 1019.1 Q1615.26 1016.76 1617.32 1015.61 Q1619.4 1014.45 1622.11 1014.45 Q1626.58 1014.45 1628.87 1017.23 Q1631.16 1019.98 1631.16 1025.35 Z" fill="#000000" fill-rule="nonzero" fill-opacity="1" /><path clip-path="url(#clip600)" d="M1661.83 1026.97 L1661.83 1029.05 L1642.25 1029.05 Q1642.53 1033.45 1644.89 1035.77 Q1647.27 1038.06 1651.51 1038.06 Q1653.96 1038.06 1656.25 1037.46 Q1658.57 1036.86 1660.84 1035.65 L1660.84 1039.68 Q1658.54 1040.65 1656.14 1041.16 Q1653.73 1041.67 1651.25 1041.67 Q1645.05 1041.67 1641.41 1038.06 Q1637.8 1034.45 1637.8 1028.29 Q1637.8 1021.93 1641.23 1018.2 Q1644.68 1014.45 1650.51 1014.45 Q1655.74 1014.45 1658.78 1017.83 Q1661.83 1021.18 1661.83 1026.97 M1657.57 1025.72 Q1657.53 1022.23 1655.6 1020.14 Q1653.71 1018.06 1650.56 1018.06 Q1646.99 1018.06 1644.84 1020.07 Q1642.71 1022.09 1642.39 1025.74 L1657.57 1025.72 Z" fill="#000000" fill-rule="nonzero" fill-opacity="1" /><path clip-path="url(#clip600)" d="M1680.6 1027.97 Q1675.44 1027.97 1673.45 1029.15 Q1671.46 1030.33 1671.46 1033.18 Q1671.46 1035.44 1672.94 1036.79 Q1674.45 1038.11 1677.02 1038.11 Q1680.56 1038.11 1682.69 1035.61 Q1684.84 1033.08 1684.84 1028.92 L1684.84 1027.97 L1680.6 1027.97 M1689.1 1026.21 L1689.1 1041 L1684.84 1041 L1684.84 1037.06 Q1683.38 1039.43 1681.21 1040.56 Q1679.03 1041.67 1675.88 1041.67 Q1671.9 1041.67 1669.54 1039.45 Q1667.2 1037.2 1667.2 1033.45 Q1667.2 1029.08 1670.12 1026.86 Q1673.06 1024.63 1678.87 1024.63 L1684.84 1024.63 L1684.84 1024.22 Q1684.84 1021.28 1682.9 1019.68 Q1680.97 1018.06 1677.48 1018.06 Q1675.26 1018.06 1673.15 1018.59 Q1671.04 1019.12 1669.1 1020.19 L1669.1 1016.25 Q1671.44 1015.35 1673.64 1014.91 Q1675.84 1014.45 1677.92 1014.45 Q1683.54 1014.45 1686.32 1017.37 Q1689.1 1020.28 1689.1 1026.21 Z" fill="#000000" fill-rule="nonzero" fill-opacity="1" /><path clip-path="url(#clip600)" d="M1712.9 1019.06 Q1712.18 1018.64 1711.32 1018.45 Q1710.49 1018.24 1709.47 1018.24 Q1705.86 1018.24 1703.91 1020.61 Q1701.99 1022.94 1701.99 1027.34 L1701.99 1041 L1697.71 1041 L1697.71 1015.07 L1701.99 1015.07 L1701.99 1019.1 Q1703.34 1016.74 1705.49 1015.61 Q1707.64 1014.45 1710.72 1014.45 Q1711.16 1014.45 1711.69 1014.52 Q1712.22 1014.56 1712.87 1014.68 L1712.9 1019.06 Z" fill="#000000" fill-rule="nonzero" fill-opacity="1" /><path clip-path="url(#clip600)" d="M1717.36 1015.07 L1721.62 1015.07 L1721.62 1041 L1717.36 1041 L1717.36 1015.07 M1717.36 1004.98 L1721.62 1004.98 L1721.62 1010.37 L1717.36 1010.37 L1717.36 1004.98 Z" fill="#000000" fill-rule="nonzero" fill-opacity="1" /><path clip-path="url(#clip600)" d="M1728.68 1015.07 L1748.91 1015.07 L1748.91 1018.96 L1732.9 1037.6 L1748.91 1037.6 L1748.91 1041 L1728.1 1041 L1728.1 1037.11 L1744.12 1018.48 L1728.68 1018.48 L1728.68 1015.07 Z" fill="#000000" fill-rule="nonzero" fill-opacity="1" /><path clip-path="url(#clip600)" d="M1777.59 1026.97 L1777.59 1029.05 L1758.01 1029.05 Q1758.29 1033.45 1760.65 1035.77 Q1763.03 1038.06 1767.27 1038.06 Q1769.72 1038.06 1772.02 1037.46 Q1774.33 1036.86 1776.6 1035.65 L1776.6 1039.68 Q1774.31 1040.65 1771.9 1041.16 Q1769.49 1041.67 1767.02 1041.67 Q1760.81 1041.67 1757.18 1038.06 Q1753.57 1034.45 1753.57 1028.29 Q1753.57 1021.93 1756.99 1018.2 Q1760.44 1014.45 1766.27 1014.45 Q1771.51 1014.45 1774.54 1017.83 Q1777.59 1021.18 1777.59 1026.97 M1773.33 1025.72 Q1773.29 1022.23 1771.37 1020.14 Q1769.47 1018.06 1766.32 1018.06 Q1762.76 1018.06 1760.6 1020.07 Q1758.47 1022.09 1758.15 1025.74 L1773.33 1025.72 Z" fill="#000000" fill-rule="nonzero" fill-opacity="1" /><path clip-path="url(#clip600)" d="M1801.64 1019.01 L1801.64 1004.98 L1805.9 1004.98 L1805.9 1041 L1801.64 1041 L1801.64 1037.11 Q1800.3 1039.43 1798.24 1040.56 Q1796.21 1041.67 1793.33 1041.67 Q1788.64 1041.67 1785.67 1037.92 Q1782.73 1034.17 1782.73 1028.06 Q1782.73 1021.95 1785.67 1018.2 Q1788.64 1014.45 1793.33 1014.45 Q1796.21 1014.45 1798.24 1015.58 Q1800.3 1016.69 1801.64 1019.01 M1787.13 1028.06 Q1787.13 1032.76 1789.05 1035.44 Q1791 1038.11 1794.38 1038.11 Q1797.76 1038.11 1799.7 1035.44 Q1801.64 1032.76 1801.64 1028.06 Q1801.64 1023.36 1799.7 1020.7 Q1797.76 1018.01 1794.38 1018.01 Q1791 1018.01 1789.05 1020.7 Q1787.13 1023.36 1787.13 1028.06 Z" fill="#000000" fill-rule="nonzero" fill-opacity="1" /><path clip-path="url(#clip600)" d="M1842.87 1004.98 L1842.87 1008.52 L1838.8 1008.52 Q1836.51 1008.52 1835.6 1009.45 Q1834.72 1010.37 1834.72 1012.78 L1834.72 1015.07 L1841.74 1015.07 L1841.74 1018.38 L1834.72 1018.38 L1834.72 1041 L1830.44 1041 L1830.44 1018.38 L1826.37 1018.38 L1826.37 1015.07 L1830.44 1015.07 L1830.44 1013.27 Q1830.44 1008.94 1832.45 1006.97 Q1834.47 1004.98 1838.84 1004.98 L1842.87 1004.98 Z" fill="#000000" fill-rule="nonzero" fill-opacity="1" /><path clip-path="url(#clip600)" d="M1846.44 1015.07 L1850.7 1015.07 L1850.7 1041 L1846.44 1041 L1846.44 1015.07 M1846.44 1004.98 L1850.7 1004.98 L1850.7 1010.37 L1846.44 1010.37 L1846.44 1004.98 Z" fill="#000000" fill-rule="nonzero" fill-opacity="1" /><path clip-path="url(#clip600)" d="M1863.82 1007.71 L1863.82 1015.07 L1872.59 1015.07 L1872.59 1018.38 L1863.82 1018.38 L1863.82 1032.46 Q1863.82 1035.63 1864.68 1036.53 Q1865.56 1037.43 1868.22 1037.43 L1872.59 1037.43 L1872.59 1041 L1868.22 1041 Q1863.29 1041 1861.41 1039.17 Q1859.54 1037.32 1859.54 1032.46 L1859.54 1018.38 L1856.41 1018.38 L1856.41 1015.07 L1859.54 1015.07 L1859.54 1007.71 L1863.82 1007.71 Z" fill="#000000" fill-rule="nonzero" fill-opacity="1" /></svg>
