<?xml version="1.0" encoding="utf-8"?>
<svg xmlns="http://www.w3.org/2000/svg" xmlns:xlink="http://www.w3.org/1999/xlink" width="500" height="320" viewBox="0 0 2000 1280">
<defs>
  <clipPath id="clip630">
    <rect x="0" y="0" width="2000" height="1280"/>
  </clipPath>
</defs>
<path clip-path="url(#clip630)" d="M0 1280 L2000 1280 L2000 0 L0 0  Z" fill="#ffffff" fill-rule="evenodd" fill-opacity="1"/>
<defs>
  <clipPath id="clip631">
    <rect x="400" y="0" width="1401" height="1280"/>
  </clipPath>
</defs>
<path clip-path="url(#clip630)" d="M576.531 1111.02 L1580.29 1111.02 L1580.29 107.256 L576.531 107.256  Z" fill="#ffffff" fill-rule="evenodd" fill-opacity="1"/>
<defs>
  <clipPath id="clip632">
    <rect x="576" y="107" width="1005" height="1005"/>
  </clipPath>
</defs>
<polyline clip-path="url(#clip632)" style="stroke:#000000; stroke-linecap:round; stroke-linejoin:round; stroke-width:2; stroke-opacity:0.1; fill:none" points="576.531,1111.02 576.531,107.256 "/>
<polyline clip-path="url(#clip632)" style="stroke:#000000; stroke-linecap:round; stroke-linejoin:round; stroke-width:2; stroke-opacity:0.1; fill:none" points="743.825,1111.02 743.825,107.256 "/>
<polyline clip-path="url(#clip632)" style="stroke:#000000; stroke-linecap:round; stroke-linejoin:round; stroke-width:2; stroke-opacity:0.1; fill:none" points="911.118,1111.02 911.118,107.256 "/>
<polyline clip-path="url(#clip632)" style="stroke:#000000; stroke-linecap:round; stroke-linejoin:round; stroke-width:2; stroke-opacity:0.1; fill:none" points="1078.41,1111.02 1078.41,107.256 "/>
<polyline clip-path="url(#clip632)" style="stroke:#000000; stroke-linecap:round; stroke-linejoin:round; stroke-width:2; stroke-opacity:0.1; fill:none" points="1245.71,1111.02 1245.71,107.256 "/>
<polyline clip-path="url(#clip632)" style="stroke:#000000; stroke-linecap:round; stroke-linejoin:round; stroke-width:2; stroke-opacity:0.1; fill:none" points="1413,1111.02 1413,107.256 "/>
<polyline clip-path="url(#clip632)" style="stroke:#000000; stroke-linecap:round; stroke-linejoin:round; stroke-width:2; stroke-opacity:0.1; fill:none" points="1580.29,1111.02 1580.29,107.256 "/>
<polyline clip-path="url(#clip632)" style="stroke:#000000; stroke-linecap:round; stroke-linejoin:round; stroke-width:2; stroke-opacity:0.1; fill:none" points="576.531,1111.02 1580.29,1111.02 "/>
<polyline clip-path="url(#clip632)" style="stroke:#000000; stroke-linecap:round; stroke-linejoin:round; stroke-width:2; stroke-opacity:0.1; fill:none" points="576.531,943.725 1580.29,943.725 "/>
<polyline clip-path="url(#clip632)" style="stroke:#000000; stroke-linecap:round; stroke-linejoin:round; stroke-width:2; stroke-opacity:0.1; fill:none" points="576.531,776.431 1580.29,776.431 "/>
<polyline clip-path="url(#clip632)" style="stroke:#000000; stroke-linecap:round; stroke-linejoin:round; stroke-width:2; stroke-opacity:0.1; fill:none" points="576.531,609.137 1580.29,609.137 "/>
<polyline clip-path="url(#clip632)" style="stroke:#000000; stroke-linecap:round; stroke-linejoin:round; stroke-width:2; stroke-opacity:0.1; fill:none" points="576.531,441.843 1580.29,441.843 "/>
<polyline clip-path="url(#clip632)" style="stroke:#000000; stroke-linecap:round; stroke-linejoin:round; stroke-width:2; stroke-opacity:0.1; fill:none" points="576.531,274.55 1580.29,274.55 "/>
<polyline clip-path="url(#clip632)" style="stroke:#000000; stroke-linecap:round; stroke-linejoin:round; stroke-width:2; stroke-opacity:0.1; fill:none" points="576.531,107.256 1580.29,107.256 "/>
<polyline clip-path="url(#clip630)" style="stroke:#000000; stroke-linecap:round; stroke-linejoin:round; stroke-width:4; stroke-opacity:1; fill:none" points="576.531,609.137 1580.29,609.137 "/>
<polyline clip-path="url(#clip630)" style="stroke:#000000; stroke-linecap:round; stroke-linejoin:round; stroke-width:4; stroke-opacity:0; fill:none" points="576.531,609.137 576.531,609.137 "/>
<polyline clip-path="url(#clip630)" style="stroke:#000000; stroke-linecap:round; stroke-linejoin:round; stroke-width:4; stroke-opacity:0; fill:none" points="743.825,609.137 743.825,609.137 "/>
<polyline clip-path="url(#clip630)" style="stroke:#000000; stroke-linecap:round; stroke-linejoin:round; stroke-width:4; stroke-opacity:0; fill:none" points="911.118,609.137 911.118,609.137 "/>
<polyline clip-path="url(#clip630)" style="stroke:#000000; stroke-linecap:round; stroke-linejoin:round; stroke-width:4; stroke-opacity:0; fill:none" points="1078.41,609.137 1078.41,609.137 "/>
<polyline clip-path="url(#clip630)" style="stroke:#000000; stroke-linecap:round; stroke-linejoin:round; stroke-width:4; stroke-opacity:0; fill:none" points="1245.71,609.137 1245.71,609.137 "/>
<polyline clip-path="url(#clip630)" style="stroke:#000000; stroke-linecap:round; stroke-linejoin:round; stroke-width:4; stroke-opacity:0; fill:none" points="1413,609.137 1413,609.137 "/>
<polyline clip-path="url(#clip630)" style="stroke:#000000; stroke-linecap:round; stroke-linejoin:round; stroke-width:4; stroke-opacity:0; fill:none" points="1580.29,609.137 1580.29,609.137 "/>
<path clip-path="url(#clip630)" d="M545.431 1153.39 L575.107 1153.39 L575.107 1157.33 L545.431 1157.33 L545.431 1153.39 Z" fill="#000000" fill-rule="nonzero" fill-opacity="1" /><path clip-path="url(#clip630)" d="M598.047 1139.73 L586.241 1158.18 L598.047 1158.18 L598.047 1139.73 M596.82 1135.66 L602.7 1135.66 L602.7 1158.18 L607.63 1158.18 L607.63 1162.07 L602.7 1162.07 L602.7 1170.22 L598.047 1170.22 L598.047 1162.07 L582.445 1162.07 L582.445 1157.56 L596.82 1135.66 Z" fill="#000000" fill-rule="nonzero" fill-opacity="1" /><path clip-path="url(#clip630)" d="M713.292 1153.39 L742.968 1153.39 L742.968 1157.33 L713.292 1157.33 L713.292 1153.39 Z" fill="#000000" fill-rule="nonzero" fill-opacity="1" /><path clip-path="url(#clip630)" d="M767.227 1151.58 Q770.584 1152.3 772.459 1154.57 Q774.357 1156.84 774.357 1160.17 Q774.357 1165.29 770.838 1168.09 Q767.32 1170.89 760.838 1170.89 Q758.663 1170.89 756.348 1170.45 Q754.056 1170.03 751.602 1169.18 L751.602 1164.66 Q753.547 1165.8 755.862 1166.38 Q758.176 1166.95 760.7 1166.95 Q765.098 1166.95 767.389 1165.22 Q769.704 1163.48 769.704 1160.17 Q769.704 1157.12 767.551 1155.4 Q765.422 1153.67 761.602 1153.67 L757.575 1153.67 L757.575 1149.83 L761.787 1149.83 Q765.237 1149.83 767.065 1148.46 Q768.894 1147.07 768.894 1144.48 Q768.894 1141.82 766.996 1140.4 Q765.121 1138.97 761.602 1138.97 Q759.681 1138.97 757.482 1139.39 Q755.283 1139.8 752.644 1140.68 L752.644 1136.51 Q755.306 1135.77 757.621 1135.4 Q759.959 1135.03 762.019 1135.03 Q767.343 1135.03 770.445 1137.46 Q773.547 1139.87 773.547 1143.99 Q773.547 1146.86 771.903 1148.85 Q770.26 1150.82 767.227 1151.58 Z" fill="#000000" fill-rule="nonzero" fill-opacity="1" /><path clip-path="url(#clip630)" d="M881.061 1153.39 L910.736 1153.39 L910.736 1157.33 L881.061 1157.33 L881.061 1153.39 Z" fill="#000000" fill-rule="nonzero" fill-opacity="1" /><path clip-path="url(#clip630)" d="M924.857 1166.28 L941.176 1166.28 L941.176 1170.22 L919.232 1170.22 L919.232 1166.28 Q921.894 1163.53 926.477 1158.9 Q931.084 1154.25 932.264 1152.9 Q934.509 1150.38 935.389 1148.64 Q936.292 1146.89 936.292 1145.2 Q936.292 1142.44 934.347 1140.7 Q932.426 1138.97 929.324 1138.97 Q927.125 1138.97 924.672 1139.73 Q922.241 1140.5 919.463 1142.05 L919.463 1137.33 Q922.287 1136.19 924.741 1135.61 Q927.195 1135.03 929.232 1135.03 Q934.602 1135.03 937.796 1137.72 Q940.991 1140.4 940.991 1144.89 Q940.991 1147.02 940.181 1148.95 Q939.394 1150.84 937.287 1153.44 Q936.709 1154.11 933.607 1157.33 Q930.505 1160.52 924.857 1166.28 Z" fill="#000000" fill-rule="nonzero" fill-opacity="1" /><path clip-path="url(#clip630)" d="M1048.17 1153.39 L1077.85 1153.39 L1077.85 1157.33 L1048.17 1157.33 L1048.17 1153.39 Z" fill="#000000" fill-rule="nonzero" fill-opacity="1" /><path clip-path="url(#clip630)" d="M1088.75 1166.28 L1096.39 1166.28 L1096.39 1139.92 L1088.08 1141.58 L1088.08 1137.33 L1096.34 1135.66 L1101.02 1135.66 L1101.02 1166.28 L1108.66 1166.28 L1108.66 1170.22 L1088.75 1170.22 L1088.75 1166.28 Z" fill="#000000" fill-rule="nonzero" fill-opacity="1" /><path clip-path="url(#clip630)" d="M1245.71 1138.74 Q1242.09 1138.74 1240.27 1142.3 Q1238.46 1145.84 1238.46 1152.97 Q1238.46 1160.08 1240.27 1163.64 Q1242.09 1167.19 1245.71 1167.19 Q1249.34 1167.19 1251.15 1163.64 Q1252.97 1160.08 1252.97 1152.97 Q1252.97 1145.84 1251.15 1142.3 Q1249.34 1138.74 1245.71 1138.74 M1245.71 1135.03 Q1251.52 1135.03 1254.57 1139.64 Q1257.65 1144.22 1257.65 1152.97 Q1257.65 1161.7 1254.57 1166.31 Q1251.52 1170.89 1245.71 1170.89 Q1239.9 1170.89 1236.82 1166.31 Q1233.76 1161.7 1233.76 1152.97 Q1233.76 1144.22 1236.82 1139.64 Q1239.9 1135.03 1245.71 1135.03 Z" fill="#000000" fill-rule="nonzero" fill-opacity="1" /><path clip-path="url(#clip630)" d="M1403.38 1166.28 L1411.02 1166.28 L1411.02 1139.92 L1402.71 1141.58 L1402.71 1137.33 L1410.97 1135.66 L1415.65 1135.66 L1415.65 1166.28 L1423.29 1166.28 L1423.29 1170.22 L1403.38 1170.22 L1403.38 1166.28 Z" fill="#000000" fill-rule="nonzero" fill-opacity="1" /><path clip-path="url(#clip630)" d="M1574.95 1166.28 L1591.27 1166.28 L1591.27 1170.22 L1569.32 1170.22 L1569.32 1166.28 Q1571.98 1163.53 1576.57 1158.9 Q1581.17 1154.25 1582.35 1152.9 Q1584.6 1150.38 1585.48 1148.64 Q1586.38 1146.89 1586.38 1145.2 Q1586.38 1142.44 1584.44 1140.7 Q1582.52 1138.97 1579.41 1138.97 Q1577.21 1138.97 1574.76 1139.73 Q1572.33 1140.5 1569.55 1142.05 L1569.55 1137.33 Q1572.38 1136.19 1574.83 1135.61 Q1577.28 1135.03 1579.32 1135.03 Q1584.69 1135.03 1587.89 1137.72 Q1591.08 1140.4 1591.08 1144.89 Q1591.08 1147.02 1590.27 1148.95 Q1589.48 1150.84 1587.38 1153.44 Q1586.8 1154.11 1583.7 1157.33 Q1580.59 1160.52 1574.95 1166.28 Z" fill="#000000" fill-rule="nonzero" fill-opacity="1" /><g clip-path="url(#clip630)">
<text style="fill:#000000; fill-opacity:1; font-family:Arial,Helvetica Neue,Helvetica,sans-serif; font-size:66px; text-anchor:middle;" transform="rotate(0, 1078.41, 1252.42)" x="1078.41" y="1252.42">Re ζ</text>
</g>
<polyline clip-path="url(#clip630)" style="stroke:#000000; stroke-linecap:round; stroke-linejoin:round; stroke-width:4; stroke-opacity:1; fill:none" points="1245.71,1111.02 1245.71,107.256 "/>
<polyline clip-path="url(#clip630)" style="stroke:#000000; stroke-linecap:round; stroke-linejoin:round; stroke-width:4; stroke-opacity:0; fill:none" points="1245.71,1111.02 1245.71,1111.02 "/>
<polyline clip-path="url(#clip630)" style="stroke:#000000; stroke-linecap:round; stroke-linejoin:round; stroke-width:4; stroke-opacity:0; fill:none" points="1245.71,943.725 1245.71,943.725 "/>
<polyline clip-path="url(#clip630)" style="stroke:#000000; stroke-linecap:round; stroke-linejoin:round; stroke-width:4; stroke-opacity:0; fill:none" points="1245.71,776.431 1245.71,776.431 "/>
<polyline clip-path="url(#clip630)" style="stroke:#000000; stroke-linecap:round; stroke-linejoin:round; stroke-width:4; stroke-opacity:0; fill:none" points="1245.71,609.137 1245.71,609.137 "/>
<polyline clip-path="url(#clip630)" style="stroke:#000000; stroke-linecap:round; stroke-linejoin:round; stroke-width:4; stroke-opacity:0; fill:none" points="1245.71,441.843 1245.71,441.843 "/>
<polyline clip-path="url(#clip630)" style="stroke:#000000; stroke-linecap:round; stroke-linejoin:round; stroke-width:4; stroke-opacity:0; fill:none" points="1245.71,274.55 1245.71,274.55 "/>
<polyline clip-path="url(#clip630)" style="stroke:#000000; stroke-linecap:round; stroke-linejoin:round; stroke-width:4; stroke-opacity:0; fill:none" points="1245.71,107.256 1245.71,107.256 "/>
<path clip-path="url(#clip630)" d="M485.466 1111.47 L515.142 1111.47 L515.142 1115.41 L485.466 1115.41 L485.466 1111.47 Z" fill="#000000" fill-rule="nonzero" fill-opacity="1" /><path clip-path="url(#clip630)" d="M539.401 1109.66 Q542.758 1110.38 544.633 1112.65 Q546.531 1114.92 546.531 1118.25 Q546.531 1123.37 543.012 1126.17 Q539.494 1128.97 533.012 1128.97 Q530.836 1128.97 528.522 1128.53 Q526.23 1128.11 523.776 1127.26 L523.776 1122.74 Q525.721 1123.88 528.036 1124.46 Q530.35 1125.03 532.874 1125.03 Q537.272 1125.03 539.563 1123.3 Q541.878 1121.56 541.878 1118.25 Q541.878 1115.2 539.725 1113.48 Q537.596 1111.75 533.776 1111.75 L529.749 1111.75 L529.749 1107.91 L533.961 1107.91 Q537.411 1107.91 539.239 1106.54 Q541.068 1105.15 541.068 1102.56 Q541.068 1099.9 539.17 1098.48 Q537.295 1097.05 533.776 1097.05 Q531.855 1097.05 529.656 1097.47 Q527.457 1097.88 524.818 1098.76 L524.818 1094.59 Q527.48 1093.85 529.795 1093.48 Q532.133 1093.11 534.193 1093.11 Q539.517 1093.11 542.619 1095.54 Q545.721 1097.95 545.721 1102.07 Q545.721 1104.94 544.077 1106.93 Q542.434 1108.9 539.401 1109.66 Z" fill="#000000" fill-rule="nonzero" fill-opacity="1" /><path clip-path="url(#clip630)" d="M486.415 944.176 L516.091 944.176 L516.091 948.111 L486.415 948.111 L486.415 944.176 Z" fill="#000000" fill-rule="nonzero" fill-opacity="1" /><path clip-path="url(#clip630)" d="M530.211 957.07 L546.531 957.07 L546.531 961.005 L524.587 961.005 L524.587 957.07 Q527.249 954.315 531.832 949.685 Q536.438 945.033 537.619 943.69 Q539.864 941.167 540.744 939.431 Q541.647 937.672 541.647 935.982 Q541.647 933.227 539.702 931.491 Q537.781 929.755 534.679 929.755 Q532.48 929.755 530.026 930.519 Q527.596 931.283 524.818 932.834 L524.818 928.111 Q527.642 926.977 530.096 926.398 Q532.549 925.82 534.586 925.82 Q539.957 925.82 543.151 928.505 Q546.346 931.19 546.346 935.681 Q546.346 937.81 545.535 939.732 Q544.748 941.63 542.642 944.222 Q542.063 944.894 538.961 948.111 Q535.86 951.306 530.211 957.07 Z" fill="#000000" fill-rule="nonzero" fill-opacity="1" /><path clip-path="url(#clip630)" d="M486.045 776.882 L515.721 776.882 L515.721 780.818 L486.045 780.818 L486.045 776.882 Z" fill="#000000" fill-rule="nonzero" fill-opacity="1" /><path clip-path="url(#clip630)" d="M526.624 789.776 L534.262 789.776 L534.262 763.41 L525.952 765.077 L525.952 760.818 L534.216 759.151 L538.892 759.151 L538.892 789.776 L546.531 789.776 L546.531 793.711 L526.624 793.711 L526.624 789.776 Z" fill="#000000" fill-rule="nonzero" fill-opacity="1" /><path clip-path="url(#clip630)" d="M534.586 594.936 Q530.975 594.936 529.147 598.501 Q527.341 602.042 527.341 609.172 Q527.341 616.278 529.147 619.843 Q530.975 623.385 534.586 623.385 Q538.221 623.385 540.026 619.843 Q541.855 616.278 541.855 609.172 Q541.855 602.042 540.026 598.501 Q538.221 594.936 534.586 594.936 M534.586 591.232 Q540.397 591.232 543.452 595.839 Q546.531 600.422 546.531 609.172 Q546.531 617.899 543.452 622.505 Q540.397 627.088 534.586 627.088 Q528.776 627.088 525.698 622.505 Q522.642 617.899 522.642 609.172 Q522.642 600.422 525.698 595.839 Q528.776 591.232 534.586 591.232 Z" fill="#000000" fill-rule="nonzero" fill-opacity="1" /><path clip-path="url(#clip630)" d="M526.624 455.188 L534.262 455.188 L534.262 428.823 L525.952 430.489 L525.952 426.23 L534.216 424.563 L538.892 424.563 L538.892 455.188 L546.531 455.188 L546.531 459.123 L526.624 459.123 L526.624 455.188 Z" fill="#000000" fill-rule="nonzero" fill-opacity="1" /><path clip-path="url(#clip630)" d="M530.211 287.894 L546.531 287.894 L546.531 291.83 L524.587 291.83 L524.587 287.894 Q527.249 285.14 531.832 280.51 Q536.438 275.858 537.619 274.515 Q539.864 271.992 540.744 270.256 Q541.647 268.496 541.647 266.807 Q541.647 264.052 539.702 262.316 Q537.781 260.58 534.679 260.58 Q532.48 260.58 530.026 261.344 Q527.596 262.108 524.818 263.659 L524.818 258.936 Q527.642 257.802 530.096 257.223 Q532.549 256.645 534.586 256.645 Q539.957 256.645 543.151 259.33 Q546.346 262.015 546.346 266.506 Q546.346 268.635 545.535 270.557 Q544.748 272.455 542.642 275.047 Q542.063 275.719 538.961 278.936 Q535.86 282.131 530.211 287.894 Z" fill="#000000" fill-rule="nonzero" fill-opacity="1" /><path clip-path="url(#clip630)" d="M539.401 105.902 Q542.758 106.619 544.633 108.888 Q546.531 111.156 546.531 114.49 Q546.531 119.605 543.012 122.406 Q539.494 125.207 533.012 125.207 Q530.836 125.207 528.522 124.767 Q526.23 124.351 523.776 123.494 L523.776 118.98 Q525.721 120.115 528.036 120.693 Q530.35 121.272 532.874 121.272 Q537.272 121.272 539.563 119.536 Q541.878 117.8 541.878 114.49 Q541.878 111.434 539.725 109.721 Q537.596 107.985 533.776 107.985 L529.749 107.985 L529.749 104.142 L533.961 104.142 Q537.411 104.142 539.239 102.777 Q541.068 101.388 541.068 98.7953 Q541.068 96.1333 539.17 94.7212 Q537.295 93.286 533.776 93.286 Q531.855 93.286 529.656 93.7027 Q527.457 94.1194 524.818 94.999 L524.818 90.8324 Q527.48 90.0916 529.795 89.7213 Q532.133 89.3509 534.193 89.3509 Q539.517 89.3509 542.619 91.7814 Q545.721 94.1888 545.721 98.3092 Q545.721 101.18 544.077 103.17 Q542.434 105.138 539.401 105.902 Z" fill="#000000" fill-rule="nonzero" fill-opacity="1" /><g clip-path="url(#clip630)">
<text style="fill:#000000; fill-opacity:1; font-family:Arial,Helvetica Neue,Helvetica,sans-serif; font-size:66px; text-anchor:middle;" transform="rotate(-90, 443.904, 609.137)" x="443.904" y="609.137">Im ζ</text>
</g>
<g clip-path="url(#clip630)">
<text style="fill:#000000; fill-opacity:1; font-family:Arial,Helvetica Neue,Helvetica,sans-serif; font-size:66px; text-anchor:middle;" transform="rotate(0, 1078.41, 57.6)" x="1078.41" y="57.6">Stability region and ζ values</text>
</g>
<path clip-path="url(#clip632)" d="M241.943 1612.9 L2249.47 1612.9 L2249.47 -394.625 L241.943 -394.625 L241.943 1612.9  Z" fill="#ccccff" fill-rule="evenodd" fill-opacity="1"/>
<polyline clip-path="url(#clip632)" style="stroke:#000000; stroke-linecap:round; stroke-linejoin:round; stroke-width:8; stroke-opacity:1; fill:none" points="241.943,1612.9 2249.47,1612.9 2249.47,-394.625 241.943,-394.625 241.943,1612.9 "/>
<path clip-path="url(#clip632)" d="M1580.29 609.137 L1580.27 606.218 L1580.19 603.299 L1580.06 600.382 L1579.89 597.467 L1579.66 594.557 L1579.38 591.65 L1579.05 588.749 L1578.67 585.854 L1578.23 582.967 L1577.75 580.087 L1577.22 577.216 L1576.64 574.355 L1576.01 571.504 L1575.32 568.665 L1574.59 565.838 L1573.81 563.025 L1572.98 560.225 L1572.11 557.441 L1571.18 554.672 L1570.2 551.919 L1569.18 549.184 L1568.11 546.468 L1566.99 543.77 L1565.83 541.093 L1564.62 538.436 L1563.36 535.8 L1562.06 533.187 L1560.71 530.598 L1559.32 528.032 L1557.88 525.49 L1556.4 522.975 L1554.87 520.485 L1553.3 518.022 L1551.69 515.588 L1550.04 513.181 L1548.34 510.804 L1546.61 508.457 L1544.83 506.141 L1543.01 503.856 L1541.15 501.603 L1539.26 499.383 L1537.32 497.196 L1535.35 495.043 L1533.34 492.925 L1531.29 490.843 L1529.21 488.796 L1527.09 486.786 L1524.94 484.814 L1522.75 482.879 L1520.53 480.983 L1518.28 479.126 L1516 477.308 L1513.68 475.53 L1511.33 473.794 L1508.96 472.098 L1506.55 470.444 L1504.11 468.833 L1501.65 467.264 L1499.16 465.738 L1496.65 464.257 L1494.11 462.819 L1491.54 461.426 L1488.95 460.077 L1486.34 458.775 L1483.7 457.518 L1481.04 456.307 L1478.37 455.142 L1475.67 454.025 L1472.95 452.955 L1470.22 451.932 L1467.47 450.958 L1464.7 450.031 L1461.91 449.153 L1459.11 448.324 L1456.3 447.544 L1453.47 446.813 L1450.63 446.131 L1447.78 445.499 L1444.92 444.917 L1442.05 444.385 L1439.17 443.903 L1436.28 443.472 L1433.39 443.09 L1430.49 442.76 L1427.58 442.48 L1424.67 442.251 L1421.76 442.073 L1418.84 441.945 L1415.92 441.869 L1413 441.843 L1410.08 441.869 L1407.16 441.945 L1404.24 442.073 L1401.33 442.251 L1398.42 442.48 L1395.51 442.76 L1392.61 443.09 L1389.72 443.472 L1386.83 443.903 L1383.95 444.385 L1381.08 444.917 L1378.22 445.499 L1375.37 446.131 L1372.53 446.813 L1369.7 447.544 L1366.89 448.324 L1364.09 449.153 L1361.3 450.031 L1358.53 450.958 L1355.78 451.932 L1353.05 452.955 L1350.33 454.025 L1347.63 455.142 L1344.96 456.307 L1342.3 457.518 L1339.66 458.775 L1337.05 460.077 L1334.46 461.426 L1331.89 462.819 L1329.35 464.257 L1326.84 465.738 L1324.35 467.264 L1321.88 468.833 L1319.45 470.444 L1317.04 472.098 L1314.67 473.794 L1312.32 475.53 L1310 477.308 L1307.72 479.126 L1305.47 480.983 L1303.25 482.879 L1301.06 484.814 L1298.91 486.786 L1296.79 488.796 L1294.71 490.843 L1292.66 492.925 L1290.65 495.043 L1288.68 497.196 L1286.74 499.383 L1284.85 501.603 L1282.99 503.856 L1281.17 506.141 L1279.39 508.457 L1277.66 510.804 L1275.96 513.181 L1274.31 515.588 L1272.7 518.022 L1271.13 520.485 L1269.6 522.975 L1268.12 525.49 L1266.68 528.032 L1265.29 530.598 L1263.94 533.187 L1262.64 535.8 L1261.38 538.436 L1260.17 541.093 L1259 543.77 L1257.89 546.468 L1256.82 549.184 L1255.79 551.919 L1254.82 554.672 L1253.89 557.441 L1253.02 560.225 L1252.19 563.025 L1251.41 565.838 L1250.68 568.665 L1249.99 571.504 L1249.36 574.355 L1248.78 577.216 L1248.25 580.087 L1247.77 582.967 L1247.33 585.854 L1246.95 588.749 L1246.62 591.65 L1246.34 594.557 L1246.11 597.467 L1245.94 600.382 L1245.81 603.299 L1245.73 606.218 L1245.71 609.137 L1245.73 612.057 L1245.81 614.976 L1245.94 617.893 L1246.11 620.807 L1246.34 623.718 L1246.62 626.624 L1246.95 629.525 L1247.33 632.42 L1247.77 635.308 L1248.25 638.187 L1248.78 641.058 L1249.36 643.92 L1249.99 646.77 L1250.68 649.609 L1251.41 652.436 L1252.19 655.25 L1253.02 658.049 L1253.89 660.834 L1254.82 663.603 L1255.79 666.355 L1256.82 669.09 L1257.89 671.807 L1259 674.504 L1260.17 677.182 L1261.38 679.839 L1262.64 682.474 L1263.94 685.087 L1265.29 687.677 L1266.68 690.243 L1268.12 692.784 L1269.6 695.3 L1271.13 697.789 L1272.7 700.252 L1274.31 702.687 L1275.96 705.093 L1277.66 707.47 L1279.39 709.817 L1281.17 712.134 L1282.99 714.419 L1284.85 716.672 L1286.74 718.892 L1288.68 721.079 L1290.65 723.231 L1292.66 725.349 L1294.71 727.432 L1296.79 729.478 L1298.91 731.488 L1301.06 733.461 L1303.25 735.395 L1305.47 737.292 L1307.72 739.149 L1310 740.966 L1312.32 742.744 L1314.67 744.481 L1317.04 746.176 L1319.45 747.83 L1321.88 749.442 L1324.35 751.01 L1326.84 752.536 L1329.35 754.018 L1331.89 755.456 L1334.46 756.849 L1337.05 758.197 L1339.66 759.5 L1342.3 760.757 L1344.96 761.968 L1347.63 763.132 L1350.33 764.249 L1353.05 765.319 L1355.78 766.342 L1358.53 767.317 L1361.3 768.243 L1364.09 769.121 L1366.89 769.95 L1369.7 770.731 L1372.53 771.462 L1375.37 772.143 L1378.22 772.775 L1381.08 773.357 L1383.95 773.889 L1386.83 774.371 L1389.72 774.803 L1392.61 775.184 L1395.51 775.514 L1398.42 775.794 L1401.33 776.023 L1404.24 776.202 L1407.16 776.329 L1410.08 776.405 L1413 776.431 L1415.92 776.405 L1418.84 776.329 L1421.76 776.202 L1424.67 776.023 L1427.58 775.794 L1430.49 775.514 L1433.39 775.184 L1436.28 774.803 L1439.17 774.371 L1442.05 773.889 L1444.92 773.357 L1447.78 772.775 L1450.63 772.143 L1453.47 771.462 L1456.3 770.731 L1459.11 769.95 L1461.91 769.121 L1464.7 768.243 L1467.47 767.317 L1470.22 766.342 L1472.95 765.319 L1475.67 764.249 L1478.37 763.132 L1481.04 761.968 L1483.7 760.757 L1486.34 759.5 L1488.95 758.197 L1491.54 756.849 L1494.11 755.456 L1496.65 754.018 L1499.16 752.536 L1501.65 751.01 L1504.11 749.442 L1506.55 747.83 L1508.96 746.176 L1511.33 744.481 L1513.68 742.744 L1516 740.966 L1518.28 739.149 L1520.53 737.292 L1522.75 735.395 L1524.94 733.461 L1527.09 731.488 L1529.21 729.478 L1531.29 727.432 L1533.34 725.349 L1535.35 723.231 L1537.32 721.079 L1539.26 718.892 L1541.15 716.672 L1543.01 714.419 L1544.83 712.134 L1546.61 709.817 L1548.34 707.47 L1550.04 705.093 L1551.69 702.687 L1553.3 700.252 L1554.87 697.789 L1556.4 695.3 L1557.88 692.784 L1559.32 690.243 L1560.71 687.677 L1562.06 685.087 L1563.36 682.474 L1564.62 679.839 L1565.83 677.182 L1566.99 674.504 L1568.11 671.807 L1569.18 669.09 L1570.2 666.355 L1571.18 663.603 L1572.11 660.834 L1572.98 658.049 L1573.81 655.25 L1574.59 652.436 L1575.32 649.609 L1576.01 646.77 L1576.64 643.92 L1577.22 641.058 L1577.75 638.187 L1578.23 635.308 L1578.67 632.42 L1579.05 629.525 L1579.38 626.624 L1579.66 623.718 L1579.89 620.807 L1580.06 617.893 L1580.19 614.976 L1580.27 612.057 L1580.29 609.137 L1580.29 609.137  Z" fill="#ffffff" fill-rule="evenodd" fill-opacity="1"/>
<polyline clip-path="url(#clip632)" style="stroke:#000000; stroke-linecap:round; stroke-linejoin:round; stroke-width:8; stroke-opacity:1; fill:none" points="1580.29,609.137 1580.27,606.218 1580.19,603.299 1580.06,600.382 1579.89,597.467 1579.66,594.557 1579.38,591.65 1579.05,588.749 1578.67,585.854 1578.23,582.967 1577.75,580.087 1577.22,577.216 1576.64,574.355 1576.01,571.504 1575.32,568.665 1574.59,565.838 1573.81,563.025 1572.98,560.225 1572.11,557.441 1571.18,554.672 1570.2,551.919 1569.18,549.184 1568.11,546.468 1566.99,543.77 1565.83,541.093 1564.62,538.436 1563.36,535.8 1562.06,533.187 1560.71,530.598 1559.32,528.032 1557.88,525.49 1556.4,522.975 1554.87,520.485 1553.3,518.022 1551.69,515.588 1550.04,513.181 1548.34,510.804 1546.61,508.457 1544.83,506.141 1543.01,503.856 1541.15,501.603 1539.26,499.383 1537.32,497.196 1535.35,495.043 1533.34,492.925 1531.29,490.843 1529.21,488.796 1527.09,486.786 1524.94,484.814 1522.75,482.879 1520.53,480.983 1518.28,479.126 1516,477.308 1513.68,475.53 1511.33,473.794 1508.96,472.098 1506.55,470.444 1504.11,468.833 1501.65,467.264 1499.16,465.738 1496.65,464.257 1494.11,462.819 1491.54,461.426 1488.95,460.077 1486.34,458.775 1483.7,457.518 1481.04,456.307 1478.37,455.142 1475.67,454.025 1472.95,452.955 1470.22,451.932 1467.47,450.958 1464.7,450.031 1461.91,449.153 1459.11,448.324 1456.3,447.544 1453.47,446.813 1450.63,446.131 1447.78,445.499 1444.92,444.917 1442.05,444.385 1439.17,443.903 1436.28,443.472 1433.39,443.09 1430.49,442.76 1427.58,442.48 1424.67,442.251 1421.76,442.073 1418.84,441.945 1415.92,441.869 1413,441.843 1410.08,441.869 1407.16,441.945 1404.24,442.073 1401.33,442.251 1398.42,442.48 1395.51,442.76 1392.61,443.09 1389.72,443.472 1386.83,443.903 1383.95,444.385 1381.08,444.917 1378.22,445.499 1375.37,446.131 1372.53,446.813 1369.7,447.544 1366.89,448.324 1364.09,449.153 1361.3,450.031 1358.53,450.958 1355.78,451.932 1353.05,452.955 1350.33,454.025 1347.63,455.142 1344.96,456.307 1342.3,457.518 1339.66,458.775 1337.05,460.077 1334.46,461.426 1331.89,462.819 1329.35,464.257 1326.84,465.738 1324.35,467.264 1321.88,468.833 1319.45,470.444 1317.04,472.098 1314.67,473.794 1312.32,475.53 1310,477.308 1307.72,479.126 1305.47,480.983 1303.25,482.879 1301.06,484.814 1298.91,486.786 1296.79,488.796 1294.71,490.843 1292.66,492.925 1290.65,495.043 1288.68,497.196 1286.74,499.383 1284.85,501.603 1282.99,503.856 1281.17,506.141 1279.39,508.457 1277.66,510.804 1275.96,513.181 1274.31,515.588 1272.7,518.022 1271.13,520.485 1269.6,522.975 1268.12,525.49 1266.68,528.032 1265.29,530.598 1263.94,533.187 1262.64,535.8 1261.38,538.436 1260.17,541.093 1259,543.77 1257.89,546.468 1256.82,549.184 1255.79,551.919 1254.82,554.672 1253.89,557.441 1253.02,560.225 1252.19,563.025 1251.41,565.838 1250.68,568.665 1249.99,571.504 1249.36,574.355 1248.78,577.216 1248.25,580.087 1247.77,582.967 1247.33,585.854 1246.95,588.749 1246.62,591.65 1246.34,594.557 1246.11,597.467 1245.94,600.382 1245.81,603.299 1245.73,606.218 1245.71,609.137 1245.73,612.057 1245.81,614.976 1245.94,617.893 1246.11,620.807 1246.34,623.718 1246.62,626.624 1246.95,629.525 1247.33,632.42 1247.77,635.308 1248.25,638.187 1248.78,641.058 1249.36,643.92 1249.99,646.77 1250.68,649.609 1251.41,652.436 1252.19,655.25 1253.02,658.049 1253.89,660.834 1254.82,663.603 1255.79,666.355 1256.82,669.09 1257.89,671.807 1259,674.504 1260.17,677.182 1261.38,679.839 1262.64,682.474 1263.94,685.087 1265.29,687.677 1266.68,690.243 1268.12,692.784 1269.6,695.3 1271.13,697.789 1272.7,700.252 1274.31,702.687 1275.96,705.093 1277.66,707.47 1279.39,709.817 1281.17,712.134 1282.99,714.419 1284.85,716.672 1286.74,718.892 1288.68,721.079 1290.65,723.231 1292.66,725.349 1294.71,727.432 1296.79,729.478 1298.91,731.488 1301.06,733.461 1303.25,735.395 1305.47,737.292 1307.72,739.149 1310,740.966 1312.32,742.744 1314.67,744.481 1317.04,746.176 1319.45,747.83 1321.88,749.442 1324.35,751.01 1326.84,752.536 1329.35,754.018 1331.89,755.456 1334.46,756.849 1337.05,758.197 1339.66,759.5 1342.3,760.757 1344.96,761.968 1347.63,763.132 1350.33,764.249 1353.05,765.319 1355.78,766.342 1358.53,767.317 1361.3,768.243 1364.09,769.121 1366.89,769.95 1369.7,770.731 1372.53,771.462 1375.37,772.143 1378.22,772.775 1381.08,773.357 1383.95,773.889 1386.83,774.371 1389.72,774.803 1392.61,775.184 1395.51,775.514 1398.42,775.794 1401.33,776.023 1404.24,776.202 1407.16,776.329 1410.08,776.405 1413,776.431 1415.92,776.405 1418.84,776.329 1421.76,776.202 1424.67,776.023 1427.58,775.794 1430.49,775.514 1433.39,775.184 1436.28,774.803 1439.17,774.371 1442.05,773.889 1444.92,773.357 1447.78,772.775 1450.63,772.143 1453.47,771.462 1456.3,770.731 1459.11,769.95 1461.91,769.121 1464.7,768.243 1467.47,767.317 1470.22,766.342 1472.95,765.319 1475.67,764.249 1478.37,763.132 1481.04,761.968 1483.7,760.757 1486.34,759.5 1488.95,758.197 1491.54,756.849 1494.11,755.456 1496.65,754.018 1499.16,752.536 1501.65,751.01 1504.11,749.442 1506.55,747.83 1508.96,746.176 1511.33,744.481 1513.68,742.744 1516,740.966 1518.28,739.149 1520.53,737.292 1522.75,735.395 1524.94,733.461 1527.09,731.488 1529.21,729.478 1531.29,727.432 1533.34,725.349 1535.35,723.231 1537.32,721.079 1539.26,718.892 1541.15,716.672 1543.01,714.419 1544.83,712.134 1546.61,709.817 1548.34,707.47 1550.04,705.093 1551.69,702.687 1553.3,700.252 1554.87,697.789 1556.4,695.3 1557.88,692.784 1559.32,690.243 1560.71,687.677 1562.06,685.087 1563.36,682.474 1564.62,679.839 1565.83,677.182 1566.99,674.504 1568.11,671.807 1569.18,669.09 1570.2,666.355 1571.18,663.603 1572.11,660.834 1572.98,658.049 1573.81,655.25 1574.59,652.436 1575.32,649.609 1576.01,646.77 1576.64,643.92 1577.22,641.058 1577.75,638.187 1578.23,635.308 1578.67,632.42 1579.05,629.525 1579.38,626.624 1579.66,623.718 1579.89,620.807 1580.06,617.893 1580.19,614.976 1580.27,612.057 1580.29,609.137 "/>
<circle clip-path="url(#clip632)" cx="911.118" cy="609.137" r="10.8" fill="#3da44d" fill-rule="evenodd" fill-opacity="1" stroke="#000000" stroke-opacity="1" stroke-width="2.56"/>
<circle clip-path="url(#clip632)" cx="913.178" cy="609.137" r="10.8" fill="#3da44d" fill-rule="evenodd" fill-opacity="1" stroke="#000000" stroke-opacity="1" stroke-width="2.56"/>
<circle clip-path="url(#clip632)" cx="913.178" cy="609.137" r="10.8" fill="#3da44d" fill-rule="evenodd" fill-opacity="1" stroke="#000000" stroke-opacity="1" stroke-width="2.56"/>
<circle clip-path="url(#clip632)" cx="919.306" cy="609.137" r="10.8" fill="#3da44d" fill-rule="evenodd" fill-opacity="1" stroke="#000000" stroke-opacity="1" stroke-width="2.56"/>
<circle clip-path="url(#clip632)" cx="919.306" cy="609.137" r="10.8" fill="#3da44d" fill-rule="evenodd" fill-opacity="1" stroke="#000000" stroke-opacity="1" stroke-width="2.56"/>
<circle clip-path="url(#clip632)" cx="929.352" cy="609.137" r="10.8" fill="#3da44d" fill-rule="evenodd" fill-opacity="1" stroke="#000000" stroke-opacity="1" stroke-width="2.56"/>
<circle clip-path="url(#clip632)" cx="929.352" cy="609.137" r="10.8" fill="#3da44d" fill-rule="evenodd" fill-opacity="1" stroke="#000000" stroke-opacity="1" stroke-width="2.56"/>
<circle clip-path="url(#clip632)" cx="943.069" cy="609.137" r="10.8" fill="#3da44d" fill-rule="evenodd" fill-opacity="1" stroke="#000000" stroke-opacity="1" stroke-width="2.56"/>
<circle clip-path="url(#clip632)" cx="943.069" cy="609.137" r="10.8" fill="#3da44d" fill-rule="evenodd" fill-opacity="1" stroke="#000000" stroke-opacity="1" stroke-width="2.56"/>
<circle clip-path="url(#clip632)" cx="960.118" cy="609.137" r="10.8" fill="#3da44d" fill-rule="evenodd" fill-opacity="1" stroke="#000000" stroke-opacity="1" stroke-width="2.56"/>
<circle clip-path="url(#clip632)" cx="960.118" cy="609.137" r="10.8" fill="#3da44d" fill-rule="evenodd" fill-opacity="1" stroke="#000000" stroke-opacity="1" stroke-width="2.56"/>
<circle clip-path="url(#clip632)" cx="980.079" cy="609.137" r="10.8" fill="#3da44d" fill-rule="evenodd" fill-opacity="1" stroke="#000000" stroke-opacity="1" stroke-width="2.56"/>
<circle clip-path="url(#clip632)" cx="980.079" cy="609.137" r="10.8" fill="#3da44d" fill-rule="evenodd" fill-opacity="1" stroke="#000000" stroke-opacity="1" stroke-width="2.56"/>
<circle clip-path="url(#clip632)" cx="1002.46" cy="609.137" r="10.8" fill="#3da44d" fill-rule="evenodd" fill-opacity="1" stroke="#000000" stroke-opacity="1" stroke-width="2.56"/>
<circle clip-path="url(#clip632)" cx="1002.46" cy="609.137" r="10.8" fill="#3da44d" fill-rule="evenodd" fill-opacity="1" stroke="#000000" stroke-opacity="1" stroke-width="2.56"/>
<circle clip-path="url(#clip632)" cx="1026.72" cy="609.137" r="10.8" fill="#3da44d" fill-rule="evenodd" fill-opacity="1" stroke="#000000" stroke-opacity="1" stroke-width="2.56"/>
<circle clip-path="url(#clip632)" cx="1026.72" cy="609.137" r="10.8" fill="#3da44d" fill-rule="evenodd" fill-opacity="1" stroke="#000000" stroke-opacity="1" stroke-width="2.56"/>
<circle clip-path="url(#clip632)" cx="1052.24" cy="609.137" r="10.8" fill="#3da44d" fill-rule="evenodd" fill-opacity="1" stroke="#000000" stroke-opacity="1" stroke-width="2.56"/>
<circle clip-path="url(#clip632)" cx="1052.24" cy="609.137" r="10.8" fill="#3da44d" fill-rule="evenodd" fill-opacity="1" stroke="#000000" stroke-opacity="1" stroke-width="2.56"/>
<circle clip-path="url(#clip632)" cx="1078.41" cy="609.137" r="10.8" fill="#3da44d" fill-rule="evenodd" fill-opacity="1" stroke="#000000" stroke-opacity="1" stroke-width="2.56"/>
<circle clip-path="url(#clip632)" cx="1078.41" cy="609.137" r="10.8" fill="#3da44d" fill-rule="evenodd" fill-opacity="1" stroke="#000000" stroke-opacity="1" stroke-width="2.56"/>
<circle clip-path="url(#clip632)" cx="1104.58" cy="609.137" r="10.8" fill="#3da44d" fill-rule="evenodd" fill-opacity="1" stroke="#000000" stroke-opacity="1" stroke-width="2.56"/>
<circle clip-path="url(#clip632)" cx="1104.58" cy="609.137" r="10.8" fill="#3da44d" fill-rule="evenodd" fill-opacity="1" stroke="#000000" stroke-opacity="1" stroke-width="2.56"/>
<circle clip-path="url(#clip632)" cx="1130.11" cy="609.137" r="10.8" fill="#3da44d" fill-rule="evenodd" fill-opacity="1" stroke="#000000" stroke-opacity="1" stroke-width="2.56"/>
<circle clip-path="url(#clip632)" cx="1130.11" cy="609.137" r="10.8" fill="#3da44d" fill-rule="evenodd" fill-opacity="1" stroke="#000000" stroke-opacity="1" stroke-width="2.56"/>
<circle clip-path="url(#clip632)" cx="1154.36" cy="609.137" r="10.8" fill="#3da44d" fill-rule="evenodd" fill-opacity="1" stroke="#000000" stroke-opacity="1" stroke-width="2.56"/>
<circle clip-path="url(#clip632)" cx="1154.36" cy="609.137" r="10.8" fill="#3da44d" fill-rule="evenodd" fill-opacity="1" stroke="#000000" stroke-opacity="1" stroke-width="2.56"/>
<circle clip-path="url(#clip632)" cx="1176.74" cy="609.137" r="10.8" fill="#3da44d" fill-rule="evenodd" fill-opacity="1" stroke="#000000" stroke-opacity="1" stroke-width="2.56"/>
<circle clip-path="url(#clip632)" cx="1176.74" cy="609.137" r="10.8" fill="#3da44d" fill-rule="evenodd" fill-opacity="1" stroke="#000000" stroke-opacity="1" stroke-width="2.56"/>
<circle clip-path="url(#clip632)" cx="1196.71" cy="609.137" r="10.8" fill="#3da44d" fill-rule="evenodd" fill-opacity="1" stroke="#000000" stroke-opacity="1" stroke-width="2.56"/>
<circle clip-path="url(#clip632)" cx="1196.71" cy="609.137" r="10.8" fill="#3da44d" fill-rule="evenodd" fill-opacity="1" stroke="#000000" stroke-opacity="1" stroke-width="2.56"/>
<circle clip-path="url(#clip632)" cx="1213.76" cy="609.137" r="10.8" fill="#3da44d" fill-rule="evenodd" fill-opacity="1" stroke="#000000" stroke-opacity="1" stroke-width="2.56"/>
<circle clip-path="url(#clip632)" cx="1213.76" cy="609.137" r="10.8" fill="#3da44d" fill-rule="evenodd" fill-opacity="1" stroke="#000000" stroke-opacity="1" stroke-width="2.56"/>
<circle clip-path="url(#clip632)" cx="1227.47" cy="609.137" r="10.8" fill="#3da44d" fill-rule="evenodd" fill-opacity="1" stroke="#000000" stroke-opacity="1" stroke-width="2.56"/>
<circle clip-path="url(#clip632)" cx="1227.47" cy="609.137" r="10.8" fill="#3da44d" fill-rule="evenodd" fill-opacity="1" stroke="#000000" stroke-opacity="1" stroke-width="2.56"/>
<circle clip-path="url(#clip632)" cx="1237.52" cy="609.137" r="10.8" fill="#3da44d" fill-rule="evenodd" fill-opacity="1" stroke="#000000" stroke-opacity="1" stroke-width="2.56"/>
<circle clip-path="url(#clip632)" cx="1237.52" cy="609.137" r="10.8" fill="#3da44d" fill-rule="evenodd" fill-opacity="1" stroke="#000000" stroke-opacity="1" stroke-width="2.56"/>
<circle clip-path="url(#clip632)" cx="1243.65" cy="609.137" r="10.8" fill="#3da44d" fill-rule="evenodd" fill-opacity="1" stroke="#000000" stroke-opacity="1" stroke-width="2.56"/>
<circle clip-path="url(#clip632)" cx="1243.65" cy="609.137" r="10.8" fill="#3da44d" fill-rule="evenodd" fill-opacity="1" stroke="#000000" stroke-opacity="1" stroke-width="2.56"/>
<circle clip-path="url(#clip632)" cx="1245.71" cy="609.137" r="10.8" fill="#3da44d" fill-rule="evenodd" fill-opacity="1" stroke="#000000" stroke-opacity="1" stroke-width="2.56"/>
</svg>
