<?xml version="1.0" encoding="utf-8"?>
<svg xmlns="http://www.w3.org/2000/svg" xmlns:xlink="http://www.w3.org/1999/xlink" width="500" height="320" viewBox="0 0 2000 1280">
<defs>
  <clipPath id="clip440">
    <rect x="0" y="0" width="2000" height="1280"/>
  </clipPath>
</defs>
<path clip-path="url(#clip440)" d="M0 1280 L2000 1280 L2000 0 L0 0  Z" fill="#ffffff" fill-rule="evenodd" fill-opacity="1"/>
<defs>
  <clipPath id="clip441">
    <rect x="400" y="0" width="1401" height="1280"/>
  </clipPath>
</defs>
<path clip-path="url(#clip440)" d="M234.878 1111.02 L1952.76 1111.02 L1952.76 107.256 L234.878 107.256  Z" fill="#ffffff" fill-rule="evenodd" fill-opacity="1"/>
<defs>
  <clipPath id="clip442">
    <rect x="234" y="107" width="1719" height="1005"/>
  </clipPath>
</defs>
<polyline clip-path="url(#clip442)" style="stroke:#000000; stroke-linecap:round; stroke-linejoin:round; stroke-width:2; stroke-opacity:0.1; fill:none" points="384.788,1111.02 384.788,107.256 "/>
<polyline clip-path="url(#clip442)" style="stroke:#000000; stroke-linecap:round; stroke-linejoin:round; stroke-width:2; stroke-opacity:0.1; fill:none" points="891.237,1111.02 891.237,107.256 "/>
<polyline clip-path="url(#clip442)" style="stroke:#000000; stroke-linecap:round; stroke-linejoin:round; stroke-width:2; stroke-opacity:0.1; fill:none" points="1397.69,1111.02 1397.69,107.256 "/>
<polyline clip-path="url(#clip442)" style="stroke:#000000; stroke-linecap:round; stroke-linejoin:round; stroke-width:2; stroke-opacity:0.1; fill:none" points="1904.14,1111.02 1904.14,107.256 "/>
<polyline clip-path="url(#clip442)" style="stroke:#000000; stroke-linecap:round; stroke-linejoin:round; stroke-width:2; stroke-opacity:0.1; fill:none" points="234.878,988.974 1952.76,988.974 "/>
<polyline clip-path="url(#clip442)" style="stroke:#000000; stroke-linecap:round; stroke-linejoin:round; stroke-width:2; stroke-opacity:0.1; fill:none" points="234.878,862.362 1952.76,862.362 "/>
<polyline clip-path="url(#clip442)" style="stroke:#000000; stroke-linecap:round; stroke-linejoin:round; stroke-width:2; stroke-opacity:0.1; fill:none" points="234.878,735.75 1952.76,735.75 "/>
<polyline clip-path="url(#clip442)" style="stroke:#000000; stroke-linecap:round; stroke-linejoin:round; stroke-width:2; stroke-opacity:0.1; fill:none" points="234.878,609.137 1952.76,609.137 "/>
<polyline clip-path="url(#clip442)" style="stroke:#000000; stroke-linecap:round; stroke-linejoin:round; stroke-width:2; stroke-opacity:0.1; fill:none" points="234.878,482.525 1952.76,482.525 "/>
<polyline clip-path="url(#clip442)" style="stroke:#000000; stroke-linecap:round; stroke-linejoin:round; stroke-width:2; stroke-opacity:0.1; fill:none" points="234.878,355.912 1952.76,355.912 "/>
<polyline clip-path="url(#clip442)" style="stroke:#000000; stroke-linecap:round; stroke-linejoin:round; stroke-width:2; stroke-opacity:0.1; fill:none" points="234.878,229.3 1952.76,229.3 "/>
<polyline clip-path="url(#clip440)" style="stroke:#000000; stroke-linecap:round; stroke-linejoin:round; stroke-width:4; stroke-opacity:1; fill:none" points="234.878,1111.02 1952.76,1111.02 "/>
<polyline clip-path="url(#clip440)" style="stroke:#000000; stroke-linecap:round; stroke-linejoin:round; stroke-width:4; stroke-opacity:1; fill:none" points="384.788,1111.02 384.788,1092.12 "/>
<polyline clip-path="url(#clip440)" style="stroke:#000000; stroke-linecap:round; stroke-linejoin:round; stroke-width:4; stroke-opacity:1; fill:none" points="891.237,1111.02 891.237,1092.12 "/>
<polyline clip-path="url(#clip440)" style="stroke:#000000; stroke-linecap:round; stroke-linejoin:round; stroke-width:4; stroke-opacity:1; fill:none" points="1397.69,1111.02 1397.69,1092.12 "/>
<polyline clip-path="url(#clip440)" style="stroke:#000000; stroke-linecap:round; stroke-linejoin:round; stroke-width:4; stroke-opacity:1; fill:none" points="1904.14,1111.02 1904.14,1092.12 "/>
<path clip-path="url(#clip440)" d="M323.769 1153.39 L353.445 1153.39 L353.445 1157.33 L323.769 1157.33 L323.769 1153.39 Z" fill="#000000" fill-rule="nonzero" fill-opacity="1" /><path clip-path="url(#clip440)" d="M377.704 1151.58 Q381.061 1152.3 382.936 1154.57 Q384.834 1156.84 384.834 1160.17 Q384.834 1165.29 381.315 1168.09 Q377.797 1170.89 371.315 1170.89 Q369.139 1170.89 366.825 1170.45 Q364.533 1170.03 362.079 1169.18 L362.079 1164.66 Q364.024 1165.8 366.339 1166.38 Q368.653 1166.95 371.177 1166.95 Q375.575 1166.95 377.866 1165.22 Q380.181 1163.48 380.181 1160.17 Q380.181 1157.12 378.028 1155.4 Q375.899 1153.67 372.079 1153.67 L368.052 1153.67 L368.052 1149.83 L372.264 1149.83 Q375.714 1149.83 377.542 1148.46 Q379.371 1147.07 379.371 1144.48 Q379.371 1141.82 377.473 1140.4 Q375.598 1138.97 372.079 1138.97 Q370.158 1138.97 367.959 1139.39 Q365.76 1139.8 363.121 1140.68 L363.121 1136.51 Q365.783 1135.77 368.098 1135.4 Q370.436 1135.03 372.496 1135.03 Q377.82 1135.03 380.922 1137.46 Q384.024 1139.87 384.024 1143.99 Q384.024 1146.86 382.38 1148.85 Q380.737 1150.82 377.704 1151.58 Z" fill="#000000" fill-rule="nonzero" fill-opacity="1" /><path clip-path="url(#clip440)" d="M403.699 1138.74 Q400.088 1138.74 398.26 1142.3 Q396.454 1145.84 396.454 1152.97 Q396.454 1160.08 398.26 1163.64 Q400.088 1167.19 403.699 1167.19 Q407.334 1167.19 409.139 1163.64 Q410.968 1160.08 410.968 1152.97 Q410.968 1145.84 409.139 1142.3 Q407.334 1138.74 403.699 1138.74 M403.699 1135.03 Q409.51 1135.03 412.565 1139.64 Q415.644 1144.22 415.644 1152.97 Q415.644 1161.7 412.565 1166.31 Q409.51 1170.89 403.699 1170.89 Q397.889 1170.89 394.811 1166.31 Q391.755 1161.7 391.755 1152.97 Q391.755 1144.22 394.811 1139.64 Q397.889 1135.03 403.699 1135.03 Z" fill="#000000" fill-rule="nonzero" fill-opacity="1" /><path clip-path="url(#clip440)" d="M433.861 1138.74 Q430.25 1138.74 428.422 1142.3 Q426.616 1145.84 426.616 1152.97 Q426.616 1160.08 428.422 1163.64 Q430.25 1167.19 433.861 1167.19 Q437.496 1167.19 439.301 1163.64 Q441.13 1160.08 441.13 1152.97 Q441.13 1145.84 439.301 1142.3 Q437.496 1138.74 433.861 1138.74 M433.861 1135.03 Q439.672 1135.03 442.727 1139.64 Q445.806 1144.22 445.806 1152.97 Q445.806 1161.7 442.727 1166.31 Q439.672 1170.89 433.861 1170.89 Q428.051 1170.89 424.973 1166.31 Q421.917 1161.7 421.917 1152.97 Q421.917 1144.22 424.973 1139.64 Q428.051 1135.03 433.861 1135.03 Z" fill="#000000" fill-rule="nonzero" fill-opacity="1" /><path clip-path="url(#clip440)" d="M830.219 1153.39 L859.895 1153.39 L859.895 1157.33 L830.219 1157.33 L830.219 1153.39 Z" fill="#000000" fill-rule="nonzero" fill-opacity="1" /><path clip-path="url(#clip440)" d="M874.015 1166.28 L890.334 1166.28 L890.334 1170.22 L868.39 1170.22 L868.39 1166.28 Q871.052 1163.53 875.636 1158.9 Q880.242 1154.25 881.423 1152.9 Q883.668 1150.38 884.547 1148.64 Q885.45 1146.89 885.45 1145.2 Q885.45 1142.44 883.506 1140.7 Q881.585 1138.97 878.483 1138.97 Q876.284 1138.97 873.83 1139.73 Q871.399 1140.5 868.622 1142.05 L868.622 1137.33 Q871.446 1136.19 873.899 1135.61 Q876.353 1135.03 878.39 1135.03 Q883.76 1135.03 886.955 1137.72 Q890.149 1140.4 890.149 1144.89 Q890.149 1147.02 889.339 1148.95 Q888.552 1150.84 886.446 1153.44 Q885.867 1154.11 882.765 1157.33 Q879.663 1160.52 874.015 1166.28 Z" fill="#000000" fill-rule="nonzero" fill-opacity="1" /><path clip-path="url(#clip440)" d="M910.149 1138.74 Q906.538 1138.74 904.709 1142.3 Q902.904 1145.84 902.904 1152.97 Q902.904 1160.08 904.709 1163.64 Q906.538 1167.19 910.149 1167.19 Q913.783 1167.19 915.589 1163.64 Q917.418 1160.08 917.418 1152.97 Q917.418 1145.84 915.589 1142.3 Q913.783 1138.74 910.149 1138.74 M910.149 1135.03 Q915.959 1135.03 919.015 1139.64 Q922.094 1144.22 922.094 1152.97 Q922.094 1161.7 919.015 1166.31 Q915.959 1170.89 910.149 1170.89 Q904.339 1170.89 901.26 1166.31 Q898.205 1161.7 898.205 1152.97 Q898.205 1144.22 901.26 1139.64 Q904.339 1135.03 910.149 1135.03 Z" fill="#000000" fill-rule="nonzero" fill-opacity="1" /><path clip-path="url(#clip440)" d="M940.311 1138.74 Q936.7 1138.74 934.871 1142.3 Q933.066 1145.84 933.066 1152.97 Q933.066 1160.08 934.871 1163.64 Q936.7 1167.19 940.311 1167.19 Q943.945 1167.19 945.751 1163.64 Q947.58 1160.08 947.58 1152.97 Q947.58 1145.84 945.751 1142.3 Q943.945 1138.74 940.311 1138.74 M940.311 1135.03 Q946.121 1135.03 949.177 1139.64 Q952.255 1144.22 952.255 1152.97 Q952.255 1161.7 949.177 1166.31 Q946.121 1170.89 940.311 1170.89 Q934.501 1170.89 931.422 1166.31 Q928.367 1161.7 928.367 1152.97 Q928.367 1144.22 931.422 1139.64 Q934.501 1135.03 940.311 1135.03 Z" fill="#000000" fill-rule="nonzero" fill-opacity="1" /><path clip-path="url(#clip440)" d="M1336.67 1153.39 L1366.34 1153.39 L1366.34 1157.33 L1336.67 1157.33 L1336.67 1153.39 Z" fill="#000000" fill-rule="nonzero" fill-opacity="1" /><path clip-path="url(#clip440)" d="M1377.25 1166.28 L1384.89 1166.28 L1384.89 1139.92 L1376.58 1141.58 L1376.58 1137.33 L1384.84 1135.66 L1389.52 1135.66 L1389.52 1166.28 L1397.15 1166.28 L1397.15 1170.22 L1377.25 1170.22 L1377.25 1166.28 Z" fill="#000000" fill-rule="nonzero" fill-opacity="1" /><path clip-path="url(#clip440)" d="M1416.6 1138.74 Q1412.99 1138.74 1411.16 1142.3 Q1409.35 1145.84 1409.35 1152.97 Q1409.35 1160.08 1411.16 1163.64 Q1412.99 1167.19 1416.6 1167.19 Q1420.23 1167.19 1422.04 1163.64 Q1423.87 1160.08 1423.87 1152.97 Q1423.87 1145.84 1422.04 1142.3 Q1420.23 1138.74 1416.6 1138.74 M1416.6 1135.03 Q1422.41 1135.03 1425.46 1139.64 Q1428.54 1144.22 1428.54 1152.97 Q1428.54 1161.7 1425.46 1166.31 Q1422.41 1170.89 1416.6 1170.89 Q1410.79 1170.89 1407.71 1166.31 Q1404.65 1161.7 1404.65 1152.97 Q1404.65 1144.22 1407.71 1139.64 Q1410.79 1135.03 1416.6 1135.03 Z" fill="#000000" fill-rule="nonzero" fill-opacity="1" /><path clip-path="url(#clip440)" d="M1446.76 1138.74 Q1443.15 1138.74 1441.32 1142.3 Q1439.52 1145.84 1439.52 1152.97 Q1439.52 1160.08 1441.32 1163.64 Q1443.15 1167.19 1446.76 1167.19 Q1450.4 1167.19 1452.2 1163.64 Q1454.03 1160.08 1454.03 1152.97 Q1454.03 1145.84 1452.2 1142.3 Q1450.4 1138.74 1446.76 1138.74 M1446.76 1135.03 Q1452.57 1135.03 1455.63 1139.64 Q1458.71 1144.22 1458.71 1152.97 Q1458.71 1161.7 1455.63 1166.31 Q1452.57 1170.89 1446.76 1170.89 Q1440.95 1170.89 1437.87 1166.31 Q1434.82 1161.7 1434.82 1152.97 Q1434.82 1144.22 1437.87 1139.64 Q1440.95 1135.03 1446.76 1135.03 Z" fill="#000000" fill-rule="nonzero" fill-opacity="1" /><path clip-path="url(#clip440)" d="M1904.14 1138.74 Q1900.53 1138.74 1898.7 1142.3 Q1896.89 1145.84 1896.89 1152.97 Q1896.89 1160.08 1898.7 1163.64 Q1900.53 1167.19 1904.14 1167.19 Q1907.77 1167.19 1909.58 1163.64 Q1911.41 1160.08 1911.41 1152.97 Q1911.41 1145.84 1909.58 1142.3 Q1907.77 1138.74 1904.14 1138.74 M1904.14 1135.03 Q1909.95 1135.03 1913 1139.64 Q1916.08 1144.22 1916.08 1152.97 Q1916.08 1161.7 1913 1166.31 Q1909.95 1170.89 1904.14 1170.89 Q1898.33 1170.89 1895.25 1166.31 Q1892.19 1161.7 1892.19 1152.97 Q1892.19 1144.22 1895.25 1139.64 Q1898.33 1135.03 1904.14 1135.03 Z" fill="#000000" fill-rule="nonzero" fill-opacity="1" /><g clip-path="url(#clip440)">
<text style="fill:#000000; fill-opacity:1; font-family:Arial,Helvetica Neue,Helvetica,sans-serif; font-size:66px; text-anchor:middle;" transform="rotate(0, 1093.82, 1252.42)" x="1093.82" y="1252.42">Re λ</text>
</g>
<polyline clip-path="url(#clip440)" style="stroke:#000000; stroke-linecap:round; stroke-linejoin:round; stroke-width:4; stroke-opacity:1; fill:none" points="234.878,1111.02 234.878,107.256 "/>
<polyline clip-path="url(#clip440)" style="stroke:#000000; stroke-linecap:round; stroke-linejoin:round; stroke-width:4; stroke-opacity:1; fill:none" points="234.878,988.974 253.776,988.974 "/>
<polyline clip-path="url(#clip440)" style="stroke:#000000; stroke-linecap:round; stroke-linejoin:round; stroke-width:4; stroke-opacity:1; fill:none" points="234.878,862.362 253.776,862.362 "/>
<polyline clip-path="url(#clip440)" style="stroke:#000000; stroke-linecap:round; stroke-linejoin:round; stroke-width:4; stroke-opacity:1; fill:none" points="234.878,735.75 253.776,735.75 "/>
<polyline clip-path="url(#clip440)" style="stroke:#000000; stroke-linecap:round; stroke-linejoin:round; stroke-width:4; stroke-opacity:1; fill:none" points="234.878,609.137 253.776,609.137 "/>
<polyline clip-path="url(#clip440)" style="stroke:#000000; stroke-linecap:round; stroke-linejoin:round; stroke-width:4; stroke-opacity:1; fill:none" points="234.878,482.525 253.776,482.525 "/>
<polyline clip-path="url(#clip440)" style="stroke:#000000; stroke-linecap:round; stroke-linejoin:round; stroke-width:4; stroke-opacity:1; fill:none" points="234.878,355.912 253.776,355.912 "/>
<polyline clip-path="url(#clip440)" style="stroke:#000000; stroke-linecap:round; stroke-linejoin:round; stroke-width:4; stroke-opacity:1; fill:none" points="234.878,229.3 253.776,229.3 "/>
<path clip-path="url(#clip440)" d="M113.999 989.426 L143.675 989.426 L143.675 993.361 L113.999 993.361 L113.999 989.426 Z" fill="#000000" fill-rule="nonzero" fill-opacity="1" /><path clip-path="url(#clip440)" d="M152.587 971.694 L174.809 971.694 L174.809 973.685 L162.263 1006.25 L157.379 1006.25 L169.184 975.63 L152.587 975.63 L152.587 971.694 Z" fill="#000000" fill-rule="nonzero" fill-opacity="1" /><path clip-path="url(#clip440)" d="M183.976 971.694 L202.332 971.694 L202.332 975.63 L188.258 975.63 L188.258 984.102 Q189.277 983.755 190.295 983.593 Q191.314 983.407 192.332 983.407 Q198.119 983.407 201.499 986.579 Q204.878 989.75 204.878 995.167 Q204.878 1000.75 201.406 1003.85 Q197.934 1006.93 191.615 1006.93 Q189.439 1006.93 187.17 1006.56 Q184.925 1006.19 182.517 1005.44 L182.517 1000.75 Q184.601 1001.88 186.823 1002.44 Q189.045 1002.99 191.522 1002.99 Q195.527 1002.99 197.865 1000.88 Q200.203 998.778 200.203 995.167 Q200.203 991.555 197.865 989.449 Q195.527 987.343 191.522 987.343 Q189.647 987.343 187.772 987.759 Q185.92 988.176 183.976 989.056 L183.976 971.694 Z" fill="#000000" fill-rule="nonzero" fill-opacity="1" /><path clip-path="url(#clip440)" d="M113.004 862.813 L142.68 862.813 L142.68 866.749 L113.004 866.749 L113.004 862.813 Z" fill="#000000" fill-rule="nonzero" fill-opacity="1" /><path clip-path="url(#clip440)" d="M152.819 845.082 L171.175 845.082 L171.175 849.017 L157.101 849.017 L157.101 857.489 Q158.119 857.142 159.138 856.98 Q160.156 856.795 161.175 856.795 Q166.962 856.795 170.342 859.966 Q173.721 863.138 173.721 868.554 Q173.721 874.133 170.249 877.235 Q166.777 880.313 160.457 880.313 Q158.281 880.313 156.013 879.943 Q153.768 879.573 151.36 878.832 L151.36 874.133 Q153.444 875.267 155.666 875.823 Q157.888 876.378 160.365 876.378 Q164.369 876.378 166.707 874.272 Q169.045 872.165 169.045 868.554 Q169.045 864.943 166.707 862.837 Q164.369 860.73 160.365 860.73 Q158.49 860.73 156.615 861.147 Q154.763 861.563 152.819 862.443 L152.819 845.082 Z" fill="#000000" fill-rule="nonzero" fill-opacity="1" /><path clip-path="url(#clip440)" d="M192.934 848.161 Q189.323 848.161 187.494 851.726 Q185.689 855.267 185.689 862.397 Q185.689 869.503 187.494 873.068 Q189.323 876.61 192.934 876.61 Q196.568 876.61 198.374 873.068 Q200.203 869.503 200.203 862.397 Q200.203 855.267 198.374 851.726 Q196.568 848.161 192.934 848.161 M192.934 844.457 Q198.744 844.457 201.8 849.064 Q204.878 853.647 204.878 862.397 Q204.878 871.124 201.8 875.73 Q198.744 880.313 192.934 880.313 Q187.124 880.313 184.045 875.73 Q180.99 871.124 180.99 862.397 Q180.99 853.647 184.045 849.064 Q187.124 844.457 192.934 844.457 Z" fill="#000000" fill-rule="nonzero" fill-opacity="1" /><path clip-path="url(#clip440)" d="M113.999 736.201 L143.675 736.201 L143.675 740.136 L113.999 740.136 L113.999 736.201 Z" fill="#000000" fill-rule="nonzero" fill-opacity="1" /><path clip-path="url(#clip440)" d="M157.795 749.094 L174.115 749.094 L174.115 753.03 L152.17 753.03 L152.17 749.094 Q154.832 746.34 159.416 741.71 Q164.022 737.057 165.203 735.715 Q167.448 733.192 168.328 731.456 Q169.23 729.696 169.23 728.007 Q169.23 725.252 167.286 723.516 Q165.365 721.78 162.263 721.78 Q160.064 721.78 157.61 722.544 Q155.18 723.308 152.402 724.858 L152.402 720.136 Q155.226 719.002 157.68 718.423 Q160.133 717.845 162.17 717.845 Q167.541 717.845 170.735 720.53 Q173.93 723.215 173.93 727.706 Q173.93 729.835 173.119 731.757 Q172.332 733.655 170.226 736.247 Q169.647 736.919 166.545 740.136 Q163.443 743.331 157.795 749.094 Z" fill="#000000" fill-rule="nonzero" fill-opacity="1" /><path clip-path="url(#clip440)" d="M183.976 718.47 L202.332 718.47 L202.332 722.405 L188.258 722.405 L188.258 730.877 Q189.277 730.53 190.295 730.368 Q191.314 730.183 192.332 730.183 Q198.119 730.183 201.499 733.354 Q204.878 736.525 204.878 741.942 Q204.878 747.52 201.406 750.622 Q197.934 753.701 191.615 753.701 Q189.439 753.701 187.17 753.331 Q184.925 752.96 182.517 752.219 L182.517 747.52 Q184.601 748.655 186.823 749.21 Q189.045 749.766 191.522 749.766 Q195.527 749.766 197.865 747.659 Q200.203 745.553 200.203 741.942 Q200.203 738.331 197.865 736.224 Q195.527 734.118 191.522 734.118 Q189.647 734.118 187.772 734.534 Q185.92 734.951 183.976 735.831 L183.976 718.47 Z" fill="#000000" fill-rule="nonzero" fill-opacity="1" /><path clip-path="url(#clip440)" d="M192.934 594.936 Q189.323 594.936 187.494 598.501 Q185.689 602.042 185.689 609.172 Q185.689 616.278 187.494 619.843 Q189.323 623.385 192.934 623.385 Q196.568 623.385 198.374 619.843 Q200.203 616.278 200.203 609.172 Q200.203 602.042 198.374 598.501 Q196.568 594.936 192.934 594.936 M192.934 591.232 Q198.744 591.232 201.8 595.839 Q204.878 600.422 204.878 609.172 Q204.878 617.899 201.8 622.505 Q198.744 627.088 192.934 627.088 Q187.124 627.088 184.045 622.505 Q180.99 617.899 180.99 609.172 Q180.99 600.422 184.045 595.839 Q187.124 591.232 192.934 591.232 Z" fill="#000000" fill-rule="nonzero" fill-opacity="1" /><path clip-path="url(#clip440)" d="M157.795 495.87 L174.115 495.87 L174.115 499.805 L152.17 499.805 L152.17 495.87 Q154.832 493.115 159.416 488.485 Q164.022 483.833 165.203 482.49 Q167.448 479.967 168.328 478.231 Q169.23 476.472 169.23 474.782 Q169.23 472.027 167.286 470.291 Q165.365 468.555 162.263 468.555 Q160.064 468.555 157.61 469.319 Q155.18 470.083 152.402 471.634 L152.402 466.911 Q155.226 465.777 157.68 465.198 Q160.133 464.62 162.17 464.62 Q167.541 464.62 170.735 467.305 Q173.93 469.99 173.93 474.481 Q173.93 476.61 173.119 478.532 Q172.332 480.43 170.226 483.022 Q169.647 483.694 166.545 486.911 Q163.443 490.106 157.795 495.87 Z" fill="#000000" fill-rule="nonzero" fill-opacity="1" /><path clip-path="url(#clip440)" d="M183.976 465.245 L202.332 465.245 L202.332 469.18 L188.258 469.18 L188.258 477.652 Q189.277 477.305 190.295 477.143 Q191.314 476.958 192.332 476.958 Q198.119 476.958 201.499 480.129 Q204.878 483.3 204.878 488.717 Q204.878 494.296 201.406 497.397 Q197.934 500.476 191.615 500.476 Q189.439 500.476 187.17 500.106 Q184.925 499.735 182.517 498.995 L182.517 494.296 Q184.601 495.43 186.823 495.985 Q189.045 496.541 191.522 496.541 Q195.527 496.541 197.865 494.434 Q200.203 492.328 200.203 488.717 Q200.203 485.106 197.865 482.999 Q195.527 480.893 191.522 480.893 Q189.647 480.893 187.772 481.309 Q185.92 481.726 183.976 482.606 L183.976 465.245 Z" fill="#000000" fill-rule="nonzero" fill-opacity="1" /><path clip-path="url(#clip440)" d="M152.819 338.632 L171.175 338.632 L171.175 342.567 L157.101 342.567 L157.101 351.04 Q158.119 350.692 159.138 350.53 Q160.156 350.345 161.175 350.345 Q166.962 350.345 170.342 353.516 Q173.721 356.688 173.721 362.104 Q173.721 367.683 170.249 370.785 Q166.777 373.864 160.457 373.864 Q158.281 373.864 156.013 373.493 Q153.768 373.123 151.36 372.382 L151.36 367.683 Q153.444 368.817 155.666 369.373 Q157.888 369.928 160.365 369.928 Q164.369 369.928 166.707 367.822 Q169.045 365.716 169.045 362.104 Q169.045 358.493 166.707 356.387 Q164.369 354.28 160.365 354.28 Q158.49 354.28 156.615 354.697 Q154.763 355.114 152.819 355.993 L152.819 338.632 Z" fill="#000000" fill-rule="nonzero" fill-opacity="1" /><path clip-path="url(#clip440)" d="M192.934 341.711 Q189.323 341.711 187.494 345.276 Q185.689 348.817 185.689 355.947 Q185.689 363.053 187.494 366.618 Q189.323 370.16 192.934 370.16 Q196.568 370.16 198.374 366.618 Q200.203 363.053 200.203 355.947 Q200.203 348.817 198.374 345.276 Q196.568 341.711 192.934 341.711 M192.934 338.007 Q198.744 338.007 201.8 342.614 Q204.878 347.197 204.878 355.947 Q204.878 364.674 201.8 369.28 Q198.744 373.864 192.934 373.864 Q187.124 373.864 184.045 369.28 Q180.99 364.674 180.99 355.947 Q180.99 347.197 184.045 342.614 Q187.124 338.007 192.934 338.007 Z" fill="#000000" fill-rule="nonzero" fill-opacity="1" /><path clip-path="url(#clip440)" d="M152.587 212.02 L174.809 212.02 L174.809 214.011 L162.263 246.58 L157.379 246.58 L169.184 215.955 L152.587 215.955 L152.587 212.02 Z" fill="#000000" fill-rule="nonzero" fill-opacity="1" /><path clip-path="url(#clip440)" d="M183.976 212.02 L202.332 212.02 L202.332 215.955 L188.258 215.955 L188.258 224.427 Q189.277 224.08 190.295 223.918 Q191.314 223.733 192.332 223.733 Q198.119 223.733 201.499 226.904 Q204.878 230.075 204.878 235.492 Q204.878 241.071 201.406 244.172 Q197.934 247.251 191.615 247.251 Q189.439 247.251 187.17 246.881 Q184.925 246.51 182.517 245.77 L182.517 241.071 Q184.601 242.205 186.823 242.76 Q189.045 243.316 191.522 243.316 Q195.527 243.316 197.865 241.21 Q200.203 239.103 200.203 235.492 Q200.203 231.881 197.865 229.774 Q195.527 227.668 191.522 227.668 Q189.647 227.668 187.772 228.085 Q185.92 228.501 183.976 229.381 L183.976 212.02 Z" fill="#000000" fill-rule="nonzero" fill-opacity="1" /><g clip-path="url(#clip440)">
<text style="fill:#000000; fill-opacity:1; font-family:Arial,Helvetica Neue,Helvetica,sans-serif; font-size:66px; text-anchor:middle;" transform="rotate(-90, 71.4418, 609.137)" x="71.4418" y="609.137">Im λ</text>
</g>
<g clip-path="url(#clip440)">
<text style="fill:#000000; fill-opacity:1; font-family:Arial,Helvetica Neue,Helvetica,sans-serif; font-size:66px; text-anchor:middle;" transform="rotate(0, 1093.82, 57.6)" x="1093.82" y="57.6">Eigenvalues for advection-diffusion</text>
</g>
<path clip-path="url(#clip442)" d="M1871.72 621.137 L1863.24 617.621 L1859.72 609.137 L1863.24 600.653 L1871.72 597.137 L1880.21 600.653 L1883.72 609.137 L1880.21 617.621 Z" fill="#009af9" fill-rule="evenodd" fill-opacity="1" stroke="#000000" stroke-opacity="1" stroke-width="2.56"/>
<path clip-path="url(#clip442)" d="M1871.92 652.828 L1863.44 649.312 L1859.92 640.828 L1863.44 632.344 L1871.92 628.828 L1880.41 632.344 L1883.92 640.828 L1880.41 649.312 Z" fill="#009af9" fill-rule="evenodd" fill-opacity="1" stroke="#000000" stroke-opacity="1" stroke-width="2.56"/>
<path clip-path="url(#clip442)" d="M1871.92 589.447 L1863.44 585.931 L1859.92 577.447 L1863.44 568.963 L1871.92 565.447 L1880.41 568.963 L1883.92 577.447 L1880.41 585.931 Z" fill="#009af9" fill-rule="evenodd" fill-opacity="1" stroke="#000000" stroke-opacity="1" stroke-width="2.56"/>
<path clip-path="url(#clip442)" d="M1872.52 683.738 L1864.03 680.222 L1860.52 671.738 L1864.03 663.254 L1872.52 659.738 L1881 663.254 L1884.52 671.738 L1881 680.222 Z" fill="#009af9" fill-rule="evenodd" fill-opacity="1" stroke="#000000" stroke-opacity="1" stroke-width="2.56"/>
<path clip-path="url(#clip442)" d="M1872.52 558.537 L1864.03 555.021 L1860.52 546.537 L1864.03 538.053 L1872.52 534.537 L1881 538.053 L1884.52 546.537 L1881 555.021 Z" fill="#009af9" fill-rule="evenodd" fill-opacity="1" stroke="#000000" stroke-opacity="1" stroke-width="2.56"/>
<path clip-path="url(#clip442)" d="M1873.49 713.107 L1865.01 709.591 L1861.49 701.107 L1865.01 692.623 L1873.49 689.107 L1881.97 692.623 L1885.49 701.107 L1881.97 709.591 Z" fill="#009af9" fill-rule="evenodd" fill-opacity="1" stroke="#000000" stroke-opacity="1" stroke-width="2.56"/>
<path clip-path="url(#clip442)" d="M1873.49 529.168 L1865.01 525.652 L1861.49 517.168 L1865.01 508.684 L1873.49 505.168 L1881.97 508.684 L1885.49 517.168 L1881.97 525.652 Z" fill="#009af9" fill-rule="evenodd" fill-opacity="1" stroke="#000000" stroke-opacity="1" stroke-width="2.56"/>
<path clip-path="url(#clip442)" d="M1874.82 740.211 L1866.34 736.695 L1862.82 728.211 L1866.34 719.727 L1874.82 716.211 L1883.3 719.727 L1886.82 728.211 L1883.3 736.695 Z" fill="#009af9" fill-rule="evenodd" fill-opacity="1" stroke="#000000" stroke-opacity="1" stroke-width="2.56"/>
<path clip-path="url(#clip442)" d="M1874.82 502.064 L1866.34 498.548 L1862.82 490.064 L1866.34 481.58 L1874.82 478.064 L1883.3 481.58 L1886.82 490.064 L1883.3 498.548 Z" fill="#009af9" fill-rule="evenodd" fill-opacity="1" stroke="#000000" stroke-opacity="1" stroke-width="2.56"/>
<path clip-path="url(#clip442)" d="M1876.47 764.383 L1867.99 760.867 L1864.47 752.383 L1867.99 743.899 L1876.47 740.383 L1884.95 743.899 L1888.47 752.383 L1884.95 760.867 Z" fill="#009af9" fill-rule="evenodd" fill-opacity="1" stroke="#000000" stroke-opacity="1" stroke-width="2.56"/>
<path clip-path="url(#clip442)" d="M1876.47 477.892 L1867.99 474.376 L1864.47 465.892 L1867.99 457.408 L1876.47 453.892 L1884.95 457.408 L1888.47 465.892 L1884.95 474.376 Z" fill="#009af9" fill-rule="evenodd" fill-opacity="1" stroke="#000000" stroke-opacity="1" stroke-width="2.56"/>
<path clip-path="url(#clip442)" d="M1878.4 785.028 L1869.92 781.512 L1866.4 773.028 L1869.92 764.544 L1878.4 761.028 L1886.89 764.544 L1890.4 773.028 L1886.89 781.512 Z" fill="#009af9" fill-rule="evenodd" fill-opacity="1" stroke="#000000" stroke-opacity="1" stroke-width="2.56"/>
<path clip-path="url(#clip442)" d="M1878.4 457.247 L1869.92 453.731 L1866.4 445.247 L1869.92 436.763 L1878.4 433.247 L1886.89 436.763 L1890.4 445.247 L1886.89 453.731 Z" fill="#009af9" fill-rule="evenodd" fill-opacity="1" stroke="#000000" stroke-opacity="1" stroke-width="2.56"/>
<path clip-path="url(#clip442)" d="M1880.57 801.637 L1872.09 798.121 L1868.57 789.637 L1872.09 781.153 L1880.57 777.637 L1889.06 781.153 L1892.57 789.637 L1889.06 798.121 Z" fill="#009af9" fill-rule="evenodd" fill-opacity="1" stroke="#000000" stroke-opacity="1" stroke-width="2.56"/>
<path clip-path="url(#clip442)" d="M1880.57 440.637 L1872.09 437.121 L1868.57 428.637 L1872.09 420.153 L1880.57 416.637 L1889.06 420.153 L1892.57 428.637 L1889.06 437.121 Z" fill="#009af9" fill-rule="evenodd" fill-opacity="1" stroke="#000000" stroke-opacity="1" stroke-width="2.56"/>
<path clip-path="url(#clip442)" d="M1882.92 813.802 L1874.44 810.286 L1870.92 801.802 L1874.44 793.318 L1882.92 789.802 L1891.41 793.318 L1894.92 801.802 L1891.41 810.286 Z" fill="#009af9" fill-rule="evenodd" fill-opacity="1" stroke="#000000" stroke-opacity="1" stroke-width="2.56"/>
<path clip-path="url(#clip442)" d="M1882.92 428.472 L1874.44 424.956 L1870.92 416.472 L1874.44 407.988 L1882.92 404.472 L1891.41 407.988 L1894.92 416.472 L1891.41 424.956 Z" fill="#009af9" fill-rule="evenodd" fill-opacity="1" stroke="#000000" stroke-opacity="1" stroke-width="2.56"/>
<path clip-path="url(#clip442)" d="M1885.4 821.223 L1876.91 817.707 L1873.4 809.223 L1876.91 800.739 L1885.4 797.223 L1893.88 800.739 L1897.4 809.223 L1893.88 817.707 Z" fill="#009af9" fill-rule="evenodd" fill-opacity="1" stroke="#000000" stroke-opacity="1" stroke-width="2.56"/>
<path clip-path="url(#clip442)" d="M1885.4 421.051 L1876.91 417.535 L1873.4 409.051 L1876.91 400.567 L1885.4 397.051 L1893.88 400.567 L1897.4 409.051 L1893.88 417.535 Z" fill="#009af9" fill-rule="evenodd" fill-opacity="1" stroke="#000000" stroke-opacity="1" stroke-width="2.56"/>
<path clip-path="url(#clip442)" d="M1887.93 823.717 L1879.45 820.201 L1875.93 811.717 L1879.45 803.233 L1887.93 799.717 L1896.41 803.233 L1899.93 811.717 L1896.41 820.201 Z" fill="#009af9" fill-rule="evenodd" fill-opacity="1" stroke="#000000" stroke-opacity="1" stroke-width="2.56"/>
<path clip-path="url(#clip442)" d="M1887.93 418.557 L1879.45 415.041 L1875.93 406.557 L1879.45 398.073 L1887.93 394.557 L1896.41 398.073 L1899.93 406.557 L1896.41 415.041 Z" fill="#009af9" fill-rule="evenodd" fill-opacity="1" stroke="#000000" stroke-opacity="1" stroke-width="2.56"/>
<path clip-path="url(#clip442)" d="M1890.47 821.223 L1881.98 817.707 L1878.47 809.223 L1881.98 800.739 L1890.47 797.223 L1898.95 800.739 L1902.47 809.223 L1898.95 817.707 Z" fill="#009af9" fill-rule="evenodd" fill-opacity="1" stroke="#000000" stroke-opacity="1" stroke-width="2.56"/>
<path clip-path="url(#clip442)" d="M1890.47 421.051 L1881.98 417.535 L1878.47 409.051 L1881.98 400.567 L1890.47 397.051 L1898.95 400.567 L1902.47 409.051 L1898.95 417.535 Z" fill="#009af9" fill-rule="evenodd" fill-opacity="1" stroke="#000000" stroke-opacity="1" stroke-width="2.56"/>
<path clip-path="url(#clip442)" d="M1892.94 813.802 L1884.45 810.286 L1880.94 801.802 L1884.45 793.318 L1892.94 789.802 L1901.42 793.318 L1904.94 801.802 L1901.42 810.286 Z" fill="#009af9" fill-rule="evenodd" fill-opacity="1" stroke="#000000" stroke-opacity="1" stroke-width="2.56"/>
<path clip-path="url(#clip442)" d="M1892.94 428.472 L1884.45 424.956 L1880.94 416.472 L1884.45 407.988 L1892.94 404.472 L1901.42 407.988 L1904.94 416.472 L1901.42 424.956 Z" fill="#009af9" fill-rule="evenodd" fill-opacity="1" stroke="#000000" stroke-opacity="1" stroke-width="2.56"/>
<path clip-path="url(#clip442)" d="M1895.29 801.637 L1886.8 798.121 L1883.29 789.637 L1886.8 781.153 L1895.29 777.637 L1903.77 781.153 L1907.29 789.637 L1903.77 798.121 Z" fill="#009af9" fill-rule="evenodd" fill-opacity="1" stroke="#000000" stroke-opacity="1" stroke-width="2.56"/>
<path clip-path="url(#clip442)" d="M1895.29 440.637 L1886.8 437.121 L1883.29 428.637 L1886.8 420.153 L1895.29 416.637 L1903.77 420.153 L1907.29 428.637 L1903.77 437.121 Z" fill="#009af9" fill-rule="evenodd" fill-opacity="1" stroke="#000000" stroke-opacity="1" stroke-width="2.56"/>
<path clip-path="url(#clip442)" d="M1897.46 785.028 L1888.97 781.512 L1885.46 773.028 L1888.97 764.544 L1897.46 761.028 L1905.94 764.544 L1909.46 773.028 L1905.94 781.512 Z" fill="#009af9" fill-rule="evenodd" fill-opacity="1" stroke="#000000" stroke-opacity="1" stroke-width="2.56"/>
<path clip-path="url(#clip442)" d="M1897.46 457.247 L1888.97 453.731 L1885.46 445.247 L1888.97 436.763 L1897.46 433.247 L1905.94 436.763 L1909.46 445.247 L1905.94 453.731 Z" fill="#009af9" fill-rule="evenodd" fill-opacity="1" stroke="#000000" stroke-opacity="1" stroke-width="2.56"/>
<path clip-path="url(#clip442)" d="M1899.39 764.383 L1890.91 760.867 L1887.39 752.383 L1890.91 743.899 L1899.39 740.383 L1907.87 743.899 L1911.39 752.383 L1907.87 760.867 Z" fill="#009af9" fill-rule="evenodd" fill-opacity="1" stroke="#000000" stroke-opacity="1" stroke-width="2.56"/>
<path clip-path="url(#clip442)" d="M1899.39 477.892 L1890.91 474.376 L1887.39 465.892 L1890.91 457.408 L1899.39 453.892 L1907.87 457.408 L1911.39 465.892 L1907.87 474.376 Z" fill="#009af9" fill-rule="evenodd" fill-opacity="1" stroke="#000000" stroke-opacity="1" stroke-width="2.56"/>
<path clip-path="url(#clip442)" d="M1901.04 740.211 L1892.56 736.695 L1889.04 728.211 L1892.56 719.727 L1901.04 716.211 L1909.53 719.727 L1913.04 728.211 L1909.53 736.695 Z" fill="#009af9" fill-rule="evenodd" fill-opacity="1" stroke="#000000" stroke-opacity="1" stroke-width="2.56"/>
<path clip-path="url(#clip442)" d="M1901.04 502.064 L1892.56 498.548 L1889.04 490.064 L1892.56 481.58 L1901.04 478.064 L1909.53 481.58 L1913.04 490.064 L1909.53 498.548 Z" fill="#009af9" fill-rule="evenodd" fill-opacity="1" stroke="#000000" stroke-opacity="1" stroke-width="2.56"/>
<path clip-path="url(#clip442)" d="M1902.37 713.107 L1893.89 709.591 L1890.37 701.107 L1893.89 692.623 L1902.37 689.107 L1910.85 692.623 L1914.37 701.107 L1910.85 709.591 Z" fill="#009af9" fill-rule="evenodd" fill-opacity="1" stroke="#000000" stroke-opacity="1" stroke-width="2.56"/>
<path clip-path="url(#clip442)" d="M1902.37 529.168 L1893.89 525.652 L1890.37 517.168 L1893.89 508.684 L1902.37 505.168 L1910.85 508.684 L1914.37 517.168 L1910.85 525.652 Z" fill="#009af9" fill-rule="evenodd" fill-opacity="1" stroke="#000000" stroke-opacity="1" stroke-width="2.56"/>
<path clip-path="url(#clip442)" d="M1903.34 683.738 L1894.86 680.222 L1891.34 671.738 L1894.86 663.254 L1903.34 659.738 L1911.83 663.254 L1915.34 671.738 L1911.83 680.222 Z" fill="#009af9" fill-rule="evenodd" fill-opacity="1" stroke="#000000" stroke-opacity="1" stroke-width="2.56"/>
<path clip-path="url(#clip442)" d="M1903.34 558.537 L1894.86 555.021 L1891.34 546.537 L1894.86 538.053 L1903.34 534.537 L1911.83 538.053 L1915.34 546.537 L1911.83 555.021 Z" fill="#009af9" fill-rule="evenodd" fill-opacity="1" stroke="#000000" stroke-opacity="1" stroke-width="2.56"/>
<path clip-path="url(#clip442)" d="M1903.94 652.828 L1895.45 649.312 L1891.94 640.828 L1895.45 632.344 L1903.94 628.828 L1912.42 632.344 L1915.94 640.828 L1912.42 649.312 Z" fill="#009af9" fill-rule="evenodd" fill-opacity="1" stroke="#000000" stroke-opacity="1" stroke-width="2.56"/>
<path clip-path="url(#clip442)" d="M1903.94 589.447 L1895.45 585.931 L1891.94 577.447 L1895.45 568.963 L1903.94 565.447 L1912.42 568.963 L1915.94 577.447 L1912.42 585.931 Z" fill="#009af9" fill-rule="evenodd" fill-opacity="1" stroke="#000000" stroke-opacity="1" stroke-width="2.56"/>
<path clip-path="url(#clip442)" d="M1904.14 621.137 L1895.65 617.621 L1892.14 609.137 L1895.65 600.653 L1904.14 597.137 L1912.62 600.653 L1916.14 609.137 L1912.62 617.621 Z" fill="#009af9" fill-rule="evenodd" fill-opacity="1" stroke="#000000" stroke-opacity="1" stroke-width="2.56"/>
<path clip-path="url(#clip442)" d="M1580.01 621.137 L1571.52 617.621 L1568.01 609.137 L1571.52 600.653 L1580.01 597.137 L1588.49 600.653 L1592.01 609.137 L1588.49 617.621 Z" fill="#e26f46" fill-rule="evenodd" fill-opacity="1" stroke="#000000" stroke-opacity="1" stroke-width="2.56"/>
<path clip-path="url(#clip442)" d="M1582 652.828 L1573.52 649.312 L1570 640.828 L1573.52 632.344 L1582 628.828 L1590.49 632.344 L1594 640.828 L1590.49 649.312 Z" fill="#e26f46" fill-rule="evenodd" fill-opacity="1" stroke="#000000" stroke-opacity="1" stroke-width="2.56"/>
<path clip-path="url(#clip442)" d="M1582 589.447 L1573.52 585.931 L1570 577.447 L1573.52 568.963 L1582 565.447 L1590.49 568.963 L1594 577.447 L1590.49 585.931 Z" fill="#e26f46" fill-rule="evenodd" fill-opacity="1" stroke="#000000" stroke-opacity="1" stroke-width="2.56"/>
<path clip-path="url(#clip442)" d="M1587.94 683.738 L1579.46 680.222 L1575.94 671.738 L1579.46 663.254 L1587.94 659.738 L1596.42 663.254 L1599.94 671.738 L1596.42 680.222 Z" fill="#e26f46" fill-rule="evenodd" fill-opacity="1" stroke="#000000" stroke-opacity="1" stroke-width="2.56"/>
<path clip-path="url(#clip442)" d="M1587.94 558.537 L1579.46 555.021 L1575.94 546.537 L1579.46 538.053 L1587.94 534.537 L1596.42 538.053 L1599.94 546.537 L1596.42 555.021 Z" fill="#e26f46" fill-rule="evenodd" fill-opacity="1" stroke="#000000" stroke-opacity="1" stroke-width="2.56"/>
<path clip-path="url(#clip442)" d="M1597.67 713.107 L1589.19 709.591 L1585.67 701.107 L1589.19 692.623 L1597.67 689.107 L1606.16 692.623 L1609.67 701.107 L1606.16 709.591 Z" fill="#e26f46" fill-rule="evenodd" fill-opacity="1" stroke="#000000" stroke-opacity="1" stroke-width="2.56"/>
<path clip-path="url(#clip442)" d="M1597.67 529.168 L1589.19 525.652 L1585.67 517.168 L1589.19 508.684 L1597.67 505.168 L1606.16 508.684 L1609.67 517.168 L1606.16 525.652 Z" fill="#e26f46" fill-rule="evenodd" fill-opacity="1" stroke="#000000" stroke-opacity="1" stroke-width="2.56"/>
<path clip-path="url(#clip442)" d="M1610.96 740.211 L1602.48 736.695 L1598.96 728.211 L1602.48 719.727 L1610.96 716.211 L1619.44 719.727 L1622.96 728.211 L1619.44 736.695 Z" fill="#e26f46" fill-rule="evenodd" fill-opacity="1" stroke="#000000" stroke-opacity="1" stroke-width="2.56"/>
<path clip-path="url(#clip442)" d="M1610.96 502.064 L1602.48 498.548 L1598.96 490.064 L1602.48 481.58 L1610.96 478.064 L1619.44 481.58 L1622.96 490.064 L1619.44 498.548 Z" fill="#e26f46" fill-rule="evenodd" fill-opacity="1" stroke="#000000" stroke-opacity="1" stroke-width="2.56"/>
<path clip-path="url(#clip442)" d="M1627.48 764.383 L1618.99 760.867 L1615.48 752.383 L1618.99 743.899 L1627.48 740.383 L1635.96 743.899 L1639.48 752.383 L1635.96 760.867 Z" fill="#e26f46" fill-rule="evenodd" fill-opacity="1" stroke="#000000" stroke-opacity="1" stroke-width="2.56"/>
<path clip-path="url(#clip442)" d="M1627.48 477.892 L1618.99 474.376 L1615.48 465.892 L1618.99 457.408 L1627.48 453.892 L1635.96 457.408 L1639.48 465.892 L1635.96 474.376 Z" fill="#e26f46" fill-rule="evenodd" fill-opacity="1" stroke="#000000" stroke-opacity="1" stroke-width="2.56"/>
<path clip-path="url(#clip442)" d="M1646.81 785.028 L1638.33 781.512 L1634.81 773.028 L1638.33 764.544 L1646.81 761.028 L1655.3 764.544 L1658.81 773.028 L1655.3 781.512 Z" fill="#e26f46" fill-rule="evenodd" fill-opacity="1" stroke="#000000" stroke-opacity="1" stroke-width="2.56"/>
<path clip-path="url(#clip442)" d="M1646.81 457.247 L1638.33 453.731 L1634.81 445.247 L1638.33 436.763 L1646.81 433.247 L1655.3 436.763 L1658.81 445.247 L1655.3 453.731 Z" fill="#e26f46" fill-rule="evenodd" fill-opacity="1" stroke="#000000" stroke-opacity="1" stroke-width="2.56"/>
<path clip-path="url(#clip442)" d="M1668.5 801.637 L1660.01 798.121 L1656.5 789.637 L1660.01 781.153 L1668.5 777.637 L1676.98 781.153 L1680.5 789.637 L1676.98 798.121 Z" fill="#e26f46" fill-rule="evenodd" fill-opacity="1" stroke="#000000" stroke-opacity="1" stroke-width="2.56"/>
<path clip-path="url(#clip442)" d="M1668.5 440.637 L1660.01 437.121 L1656.5 428.637 L1660.01 420.153 L1668.5 416.637 L1676.98 420.153 L1680.5 428.637 L1676.98 437.121 Z" fill="#e26f46" fill-rule="evenodd" fill-opacity="1" stroke="#000000" stroke-opacity="1" stroke-width="2.56"/>
<path clip-path="url(#clip442)" d="M1691.99 813.802 L1683.51 810.286 L1679.99 801.802 L1683.51 793.318 L1691.99 789.802 L1700.48 793.318 L1703.99 801.802 L1700.48 810.286 Z" fill="#e26f46" fill-rule="evenodd" fill-opacity="1" stroke="#000000" stroke-opacity="1" stroke-width="2.56"/>
<path clip-path="url(#clip442)" d="M1691.99 428.472 L1683.51 424.956 L1679.99 416.472 L1683.51 407.988 L1691.99 404.472 L1700.48 407.988 L1703.99 416.472 L1700.48 424.956 Z" fill="#e26f46" fill-rule="evenodd" fill-opacity="1" stroke="#000000" stroke-opacity="1" stroke-width="2.56"/>
<path clip-path="url(#clip442)" d="M1716.72 821.223 L1708.24 817.707 L1704.72 809.223 L1708.24 800.739 L1716.72 797.223 L1725.2 800.739 L1728.72 809.223 L1725.2 817.707 Z" fill="#e26f46" fill-rule="evenodd" fill-opacity="1" stroke="#000000" stroke-opacity="1" stroke-width="2.56"/>
<path clip-path="url(#clip442)" d="M1716.72 421.051 L1708.24 417.535 L1704.72 409.051 L1708.24 400.567 L1716.72 397.051 L1725.2 400.567 L1728.72 409.051 L1725.2 417.535 Z" fill="#e26f46" fill-rule="evenodd" fill-opacity="1" stroke="#000000" stroke-opacity="1" stroke-width="2.56"/>
<path clip-path="url(#clip442)" d="M1742.07 823.717 L1733.59 820.201 L1730.07 811.717 L1733.59 803.233 L1742.07 799.717 L1750.56 803.233 L1754.07 811.717 L1750.56 820.201 Z" fill="#e26f46" fill-rule="evenodd" fill-opacity="1" stroke="#000000" stroke-opacity="1" stroke-width="2.56"/>
<path clip-path="url(#clip442)" d="M1742.07 418.557 L1733.59 415.041 L1730.07 406.557 L1733.59 398.073 L1742.07 394.557 L1750.56 398.073 L1754.07 406.557 L1750.56 415.041 Z" fill="#e26f46" fill-rule="evenodd" fill-opacity="1" stroke="#000000" stroke-opacity="1" stroke-width="2.56"/>
<path clip-path="url(#clip442)" d="M1767.43 821.223 L1758.94 817.707 L1755.43 809.223 L1758.94 800.739 L1767.43 797.223 L1775.91 800.739 L1779.43 809.223 L1775.91 817.707 Z" fill="#e26f46" fill-rule="evenodd" fill-opacity="1" stroke="#000000" stroke-opacity="1" stroke-width="2.56"/>
<path clip-path="url(#clip442)" d="M1767.43 421.051 L1758.94 417.535 L1755.43 409.051 L1758.94 400.567 L1767.43 397.051 L1775.91 400.567 L1779.43 409.051 L1775.91 417.535 Z" fill="#e26f46" fill-rule="evenodd" fill-opacity="1" stroke="#000000" stroke-opacity="1" stroke-width="2.56"/>
<path clip-path="url(#clip442)" d="M1792.15 813.802 L1783.67 810.286 L1780.15 801.802 L1783.67 793.318 L1792.15 789.802 L1800.64 793.318 L1804.15 801.802 L1800.64 810.286 Z" fill="#e26f46" fill-rule="evenodd" fill-opacity="1" stroke="#000000" stroke-opacity="1" stroke-width="2.56"/>
<path clip-path="url(#clip442)" d="M1792.15 428.472 L1783.67 424.956 L1780.15 416.472 L1783.67 407.988 L1792.15 404.472 L1800.64 407.988 L1804.15 416.472 L1800.64 424.956 Z" fill="#e26f46" fill-rule="evenodd" fill-opacity="1" stroke="#000000" stroke-opacity="1" stroke-width="2.56"/>
<path clip-path="url(#clip442)" d="M1815.65 801.637 L1807.16 798.121 L1803.65 789.637 L1807.16 781.153 L1815.65 777.637 L1824.13 781.153 L1827.65 789.637 L1824.13 798.121 Z" fill="#e26f46" fill-rule="evenodd" fill-opacity="1" stroke="#000000" stroke-opacity="1" stroke-width="2.56"/>
<path clip-path="url(#clip442)" d="M1815.65 440.637 L1807.16 437.121 L1803.65 428.637 L1807.16 420.153 L1815.65 416.637 L1824.13 420.153 L1827.65 428.637 L1824.13 437.121 Z" fill="#e26f46" fill-rule="evenodd" fill-opacity="1" stroke="#000000" stroke-opacity="1" stroke-width="2.56"/>
<path clip-path="url(#clip442)" d="M1837.33 785.028 L1828.85 781.512 L1825.33 773.028 L1828.85 764.544 L1837.33 761.028 L1845.82 764.544 L1849.33 773.028 L1845.82 781.512 Z" fill="#e26f46" fill-rule="evenodd" fill-opacity="1" stroke="#000000" stroke-opacity="1" stroke-width="2.56"/>
<path clip-path="url(#clip442)" d="M1837.33 457.247 L1828.85 453.731 L1825.33 445.247 L1828.85 436.763 L1837.33 433.247 L1845.82 436.763 L1849.33 445.247 L1845.82 453.731 Z" fill="#e26f46" fill-rule="evenodd" fill-opacity="1" stroke="#000000" stroke-opacity="1" stroke-width="2.56"/>
<path clip-path="url(#clip442)" d="M1856.67 764.383 L1848.19 760.867 L1844.67 752.383 L1848.19 743.899 L1856.67 740.383 L1865.15 743.899 L1868.67 752.383 L1865.15 760.867 Z" fill="#e26f46" fill-rule="evenodd" fill-opacity="1" stroke="#000000" stroke-opacity="1" stroke-width="2.56"/>
<path clip-path="url(#clip442)" d="M1856.67 477.892 L1848.19 474.376 L1844.67 465.892 L1848.19 457.408 L1856.67 453.892 L1865.15 457.408 L1868.67 465.892 L1865.15 474.376 Z" fill="#e26f46" fill-rule="evenodd" fill-opacity="1" stroke="#000000" stroke-opacity="1" stroke-width="2.56"/>
<path clip-path="url(#clip442)" d="M1873.19 740.211 L1864.7 736.695 L1861.19 728.211 L1864.7 719.727 L1873.19 716.211 L1881.67 719.727 L1885.19 728.211 L1881.67 736.695 Z" fill="#e26f46" fill-rule="evenodd" fill-opacity="1" stroke="#000000" stroke-opacity="1" stroke-width="2.56"/>
<path clip-path="url(#clip442)" d="M1873.19 502.064 L1864.7 498.548 L1861.19 490.064 L1864.7 481.58 L1873.19 478.064 L1881.67 481.58 L1885.19 490.064 L1881.67 498.548 Z" fill="#e26f46" fill-rule="evenodd" fill-opacity="1" stroke="#000000" stroke-opacity="1" stroke-width="2.56"/>
<path clip-path="url(#clip442)" d="M1886.47 713.107 L1877.99 709.591 L1874.47 701.107 L1877.99 692.623 L1886.47 689.107 L1894.96 692.623 L1898.47 701.107 L1894.96 709.591 Z" fill="#e26f46" fill-rule="evenodd" fill-opacity="1" stroke="#000000" stroke-opacity="1" stroke-width="2.56"/>
<path clip-path="url(#clip442)" d="M1886.47 529.168 L1877.99 525.652 L1874.47 517.168 L1877.99 508.684 L1886.47 505.168 L1894.96 508.684 L1898.47 517.168 L1894.96 525.652 Z" fill="#e26f46" fill-rule="evenodd" fill-opacity="1" stroke="#000000" stroke-opacity="1" stroke-width="2.56"/>
<path clip-path="url(#clip442)" d="M1896.2 683.738 L1887.72 680.222 L1884.2 671.738 L1887.72 663.254 L1896.2 659.738 L1904.69 663.254 L1908.2 671.738 L1904.69 680.222 Z" fill="#e26f46" fill-rule="evenodd" fill-opacity="1" stroke="#000000" stroke-opacity="1" stroke-width="2.56"/>
<path clip-path="url(#clip442)" d="M1896.2 558.537 L1887.72 555.021 L1884.2 546.537 L1887.72 538.053 L1896.2 534.537 L1904.69 538.053 L1908.2 546.537 L1904.69 555.021 Z" fill="#e26f46" fill-rule="evenodd" fill-opacity="1" stroke="#000000" stroke-opacity="1" stroke-width="2.56"/>
<path clip-path="url(#clip442)" d="M1902.14 652.828 L1893.66 649.312 L1890.14 640.828 L1893.66 632.344 L1902.14 628.828 L1910.63 632.344 L1914.14 640.828 L1910.63 649.312 Z" fill="#e26f46" fill-rule="evenodd" fill-opacity="1" stroke="#000000" stroke-opacity="1" stroke-width="2.56"/>
<path clip-path="url(#clip442)" d="M1902.14 589.447 L1893.66 585.931 L1890.14 577.447 L1893.66 568.963 L1902.14 565.447 L1910.63 568.963 L1914.14 577.447 L1910.63 585.931 Z" fill="#e26f46" fill-rule="evenodd" fill-opacity="1" stroke="#000000" stroke-opacity="1" stroke-width="2.56"/>
<path clip-path="url(#clip442)" d="M1904.14 621.137 L1895.65 617.621 L1892.14 609.137 L1895.65 600.653 L1904.14 597.137 L1912.62 600.653 L1916.14 609.137 L1912.62 617.621 Z" fill="#e26f46" fill-rule="evenodd" fill-opacity="1" stroke="#000000" stroke-opacity="1" stroke-width="2.56"/>
<path clip-path="url(#clip442)" d="M283.498 621.137 L275.014 617.621 L271.498 609.137 L275.014 600.653 L283.498 597.137 L291.982 600.653 L295.498 609.137 L291.982 617.621 Z" fill="#3da44d" fill-rule="evenodd" fill-opacity="1" stroke="#000000" stroke-opacity="1" stroke-width="2.56"/>
<path clip-path="url(#clip442)" d="M293.474 652.828 L284.99 649.312 L281.474 640.828 L284.99 632.344 L293.474 628.828 L301.958 632.344 L305.474 640.828 L301.958 649.312 Z" fill="#3da44d" fill-rule="evenodd" fill-opacity="1" stroke="#000000" stroke-opacity="1" stroke-width="2.56"/>
<path clip-path="url(#clip442)" d="M293.474 589.447 L284.99 585.931 L281.474 577.447 L284.99 568.963 L293.474 565.447 L301.958 568.963 L305.474 577.447 L301.958 585.931 Z" fill="#3da44d" fill-rule="evenodd" fill-opacity="1" stroke="#000000" stroke-opacity="1" stroke-width="2.56"/>
<path clip-path="url(#clip442)" d="M323.157 683.738 L314.673 680.222 L311.157 671.738 L314.673 663.254 L323.157 659.738 L331.641 663.254 L335.157 671.738 L331.641 680.222 Z" fill="#3da44d" fill-rule="evenodd" fill-opacity="1" stroke="#000000" stroke-opacity="1" stroke-width="2.56"/>
<path clip-path="url(#clip442)" d="M323.157 558.537 L314.673 555.021 L311.157 546.537 L314.673 538.053 L323.157 534.537 L331.641 538.053 L335.157 546.537 L331.641 555.021 Z" fill="#3da44d" fill-rule="evenodd" fill-opacity="1" stroke="#000000" stroke-opacity="1" stroke-width="2.56"/>
<path clip-path="url(#clip442)" d="M371.817 713.107 L363.333 709.591 L359.817 701.107 L363.333 692.623 L371.817 689.107 L380.301 692.623 L383.817 701.107 L380.301 709.591 Z" fill="#3da44d" fill-rule="evenodd" fill-opacity="1" stroke="#000000" stroke-opacity="1" stroke-width="2.56"/>
<path clip-path="url(#clip442)" d="M371.817 529.168 L363.333 525.652 L359.817 517.168 L363.333 508.684 L371.817 505.168 L380.301 508.684 L383.817 517.168 L380.301 525.652 Z" fill="#3da44d" fill-rule="evenodd" fill-opacity="1" stroke="#000000" stroke-opacity="1" stroke-width="2.56"/>
<path clip-path="url(#clip442)" d="M438.255 740.211 L429.771 736.695 L426.255 728.211 L429.771 719.727 L438.255 716.211 L446.739 719.727 L450.255 728.211 L446.739 736.695 Z" fill="#3da44d" fill-rule="evenodd" fill-opacity="1" stroke="#000000" stroke-opacity="1" stroke-width="2.56"/>
<path clip-path="url(#clip442)" d="M438.255 502.064 L429.771 498.548 L426.255 490.064 L429.771 481.58 L438.255 478.064 L446.739 481.58 L450.255 490.064 L446.739 498.548 Z" fill="#3da44d" fill-rule="evenodd" fill-opacity="1" stroke="#000000" stroke-opacity="1" stroke-width="2.56"/>
<path clip-path="url(#clip442)" d="M520.835 764.383 L512.351 760.867 L508.835 752.383 L512.351 743.899 L520.835 740.383 L529.319 743.899 L532.835 752.383 L529.319 760.867 Z" fill="#3da44d" fill-rule="evenodd" fill-opacity="1" stroke="#000000" stroke-opacity="1" stroke-width="2.56"/>
<path clip-path="url(#clip442)" d="M520.835 477.892 L512.351 474.376 L508.835 465.892 L512.351 457.408 L520.835 453.892 L529.319 457.408 L532.835 465.892 L529.319 474.376 Z" fill="#3da44d" fill-rule="evenodd" fill-opacity="1" stroke="#000000" stroke-opacity="1" stroke-width="2.56"/>
<path clip-path="url(#clip442)" d="M617.523 785.028 L609.039 781.512 L605.523 773.028 L609.039 764.544 L617.523 761.028 L626.007 764.544 L629.523 773.028 L626.007 781.512 Z" fill="#3da44d" fill-rule="evenodd" fill-opacity="1" stroke="#000000" stroke-opacity="1" stroke-width="2.56"/>
<path clip-path="url(#clip442)" d="M617.523 457.247 L609.039 453.731 L605.523 445.247 L609.039 436.763 L617.523 433.247 L626.007 436.763 L629.523 445.247 L626.007 453.731 Z" fill="#3da44d" fill-rule="evenodd" fill-opacity="1" stroke="#000000" stroke-opacity="1" stroke-width="2.56"/>
<path clip-path="url(#clip442)" d="M725.94 801.637 L717.456 798.121 L713.94 789.637 L717.456 781.153 L725.94 777.637 L734.424 781.153 L737.94 789.637 L734.424 798.121 Z" fill="#3da44d" fill-rule="evenodd" fill-opacity="1" stroke="#000000" stroke-opacity="1" stroke-width="2.56"/>
<path clip-path="url(#clip442)" d="M725.94 440.637 L717.456 437.121 L713.94 428.637 L717.456 420.153 L725.94 416.637 L734.424 420.153 L737.94 428.637 L734.424 437.121 Z" fill="#3da44d" fill-rule="evenodd" fill-opacity="1" stroke="#000000" stroke-opacity="1" stroke-width="2.56"/>
<path clip-path="url(#clip442)" d="M843.415 813.802 L834.931 810.286 L831.415 801.802 L834.931 793.318 L843.415 789.802 L851.899 793.318 L855.415 801.802 L851.899 810.286 Z" fill="#3da44d" fill-rule="evenodd" fill-opacity="1" stroke="#000000" stroke-opacity="1" stroke-width="2.56"/>
<path clip-path="url(#clip442)" d="M843.415 428.472 L834.931 424.956 L831.415 416.472 L834.931 407.988 L843.415 404.472 L851.899 407.988 L855.415 416.472 L851.899 424.956 Z" fill="#3da44d" fill-rule="evenodd" fill-opacity="1" stroke="#000000" stroke-opacity="1" stroke-width="2.56"/>
<path clip-path="url(#clip442)" d="M967.055 821.223 L958.571 817.707 L955.055 809.223 L958.571 800.739 L967.055 797.223 L975.539 800.739 L979.055 809.223 L975.539 817.707 Z" fill="#3da44d" fill-rule="evenodd" fill-opacity="1" stroke="#000000" stroke-opacity="1" stroke-width="2.56"/>
<path clip-path="url(#clip442)" d="M967.055 421.051 L958.571 417.535 L955.055 409.051 L958.571 400.567 L967.055 397.051 L975.539 400.567 L979.055 409.051 L975.539 417.535 Z" fill="#3da44d" fill-rule="evenodd" fill-opacity="1" stroke="#000000" stroke-opacity="1" stroke-width="2.56"/>
<path clip-path="url(#clip442)" d="M1093.82 823.717 L1085.33 820.201 L1081.82 811.717 L1085.33 803.233 L1093.82 799.717 L1102.3 803.233 L1105.82 811.717 L1102.3 820.201 Z" fill="#3da44d" fill-rule="evenodd" fill-opacity="1" stroke="#000000" stroke-opacity="1" stroke-width="2.56"/>
<path clip-path="url(#clip442)" d="M1093.82 418.557 L1085.33 415.041 L1081.82 406.557 L1085.33 398.073 L1093.82 394.557 L1102.3 398.073 L1105.82 406.557 L1102.3 415.041 Z" fill="#3da44d" fill-rule="evenodd" fill-opacity="1" stroke="#000000" stroke-opacity="1" stroke-width="2.56"/>
<path clip-path="url(#clip442)" d="M1220.58 821.223 L1212.1 817.707 L1208.58 809.223 L1212.1 800.739 L1220.58 797.223 L1229.06 800.739 L1232.58 809.223 L1229.06 817.707 Z" fill="#3da44d" fill-rule="evenodd" fill-opacity="1" stroke="#000000" stroke-opacity="1" stroke-width="2.56"/>
<path clip-path="url(#clip442)" d="M1220.58 421.051 L1212.1 417.535 L1208.58 409.051 L1212.1 400.567 L1220.58 397.051 L1229.06 400.567 L1232.58 409.051 L1229.06 417.535 Z" fill="#3da44d" fill-rule="evenodd" fill-opacity="1" stroke="#000000" stroke-opacity="1" stroke-width="2.56"/>
<path clip-path="url(#clip442)" d="M1344.22 813.802 L1335.74 810.286 L1332.22 801.802 L1335.74 793.318 L1344.22 789.802 L1352.7 793.318 L1356.22 801.802 L1352.7 810.286 Z" fill="#3da44d" fill-rule="evenodd" fill-opacity="1" stroke="#000000" stroke-opacity="1" stroke-width="2.56"/>
<path clip-path="url(#clip442)" d="M1344.22 428.472 L1335.74 424.956 L1332.22 416.472 L1335.74 407.988 L1344.22 404.472 L1352.7 407.988 L1356.22 416.472 L1352.7 424.956 Z" fill="#3da44d" fill-rule="evenodd" fill-opacity="1" stroke="#000000" stroke-opacity="1" stroke-width="2.56"/>
<path clip-path="url(#clip442)" d="M1461.69 801.637 L1453.21 798.121 L1449.69 789.637 L1453.21 781.153 L1461.69 777.637 L1470.18 781.153 L1473.69 789.637 L1470.18 798.121 Z" fill="#3da44d" fill-rule="evenodd" fill-opacity="1" stroke="#000000" stroke-opacity="1" stroke-width="2.56"/>
<path clip-path="url(#clip442)" d="M1461.69 440.637 L1453.21 437.121 L1449.69 428.637 L1453.21 420.153 L1461.69 416.637 L1470.18 420.153 L1473.69 428.637 L1470.18 437.121 Z" fill="#3da44d" fill-rule="evenodd" fill-opacity="1" stroke="#000000" stroke-opacity="1" stroke-width="2.56"/>
<path clip-path="url(#clip442)" d="M1570.11 785.028 L1561.63 781.512 L1558.11 773.028 L1561.63 764.544 L1570.11 761.028 L1578.6 764.544 L1582.11 773.028 L1578.6 781.512 Z" fill="#3da44d" fill-rule="evenodd" fill-opacity="1" stroke="#000000" stroke-opacity="1" stroke-width="2.56"/>
<path clip-path="url(#clip442)" d="M1570.11 457.247 L1561.63 453.731 L1558.11 445.247 L1561.63 436.763 L1570.11 433.247 L1578.6 436.763 L1582.11 445.247 L1578.6 453.731 Z" fill="#3da44d" fill-rule="evenodd" fill-opacity="1" stroke="#000000" stroke-opacity="1" stroke-width="2.56"/>
<path clip-path="url(#clip442)" d="M1666.8 764.383 L1658.32 760.867 L1654.8 752.383 L1658.32 743.899 L1666.8 740.383 L1675.28 743.899 L1678.8 752.383 L1675.28 760.867 Z" fill="#3da44d" fill-rule="evenodd" fill-opacity="1" stroke="#000000" stroke-opacity="1" stroke-width="2.56"/>
<path clip-path="url(#clip442)" d="M1666.8 477.892 L1658.32 474.376 L1654.8 465.892 L1658.32 457.408 L1666.8 453.892 L1675.28 457.408 L1678.8 465.892 L1675.28 474.376 Z" fill="#3da44d" fill-rule="evenodd" fill-opacity="1" stroke="#000000" stroke-opacity="1" stroke-width="2.56"/>
<path clip-path="url(#clip442)" d="M1749.38 740.211 L1740.9 736.695 L1737.38 728.211 L1740.9 719.727 L1749.38 716.211 L1757.86 719.727 L1761.38 728.211 L1757.86 736.695 Z" fill="#3da44d" fill-rule="evenodd" fill-opacity="1" stroke="#000000" stroke-opacity="1" stroke-width="2.56"/>
<path clip-path="url(#clip442)" d="M1749.38 502.064 L1740.9 498.548 L1737.38 490.064 L1740.9 481.58 L1749.38 478.064 L1757.86 481.58 L1761.38 490.064 L1757.86 498.548 Z" fill="#3da44d" fill-rule="evenodd" fill-opacity="1" stroke="#000000" stroke-opacity="1" stroke-width="2.56"/>
<path clip-path="url(#clip442)" d="M1815.82 713.107 L1807.33 709.591 L1803.82 701.107 L1807.33 692.623 L1815.82 689.107 L1824.3 692.623 L1827.82 701.107 L1824.3 709.591 Z" fill="#3da44d" fill-rule="evenodd" fill-opacity="1" stroke="#000000" stroke-opacity="1" stroke-width="2.56"/>
<path clip-path="url(#clip442)" d="M1815.82 529.168 L1807.33 525.652 L1803.82 517.168 L1807.33 508.684 L1815.82 505.168 L1824.3 508.684 L1827.82 517.168 L1824.3 525.652 Z" fill="#3da44d" fill-rule="evenodd" fill-opacity="1" stroke="#000000" stroke-opacity="1" stroke-width="2.56"/>
<path clip-path="url(#clip442)" d="M1864.48 683.738 L1855.99 680.222 L1852.48 671.738 L1855.99 663.254 L1864.48 659.738 L1872.96 663.254 L1876.48 671.738 L1872.96 680.222 Z" fill="#3da44d" fill-rule="evenodd" fill-opacity="1" stroke="#000000" stroke-opacity="1" stroke-width="2.56"/>
<path clip-path="url(#clip442)" d="M1864.48 558.537 L1855.99 555.021 L1852.48 546.537 L1855.99 538.053 L1864.48 534.537 L1872.96 538.053 L1876.48 546.537 L1872.96 555.021 Z" fill="#3da44d" fill-rule="evenodd" fill-opacity="1" stroke="#000000" stroke-opacity="1" stroke-width="2.56"/>
<path clip-path="url(#clip442)" d="M1894.16 652.828 L1885.68 649.312 L1882.16 640.828 L1885.68 632.344 L1894.16 628.828 L1902.64 632.344 L1906.16 640.828 L1902.64 649.312 Z" fill="#3da44d" fill-rule="evenodd" fill-opacity="1" stroke="#000000" stroke-opacity="1" stroke-width="2.56"/>
<path clip-path="url(#clip442)" d="M1894.16 589.447 L1885.68 585.931 L1882.16 577.447 L1885.68 568.963 L1894.16 565.447 L1902.64 568.963 L1906.16 577.447 L1902.64 585.931 Z" fill="#3da44d" fill-rule="evenodd" fill-opacity="1" stroke="#000000" stroke-opacity="1" stroke-width="2.56"/>
<path clip-path="url(#clip442)" d="M1904.14 621.137 L1895.65 617.621 L1892.14 609.137 L1895.65 600.653 L1904.14 597.137 L1912.62 600.653 L1916.14 609.137 L1912.62 617.621 Z" fill="#3da44d" fill-rule="evenodd" fill-opacity="1" stroke="#000000" stroke-opacity="1" stroke-width="2.56"/>
<path clip-path="url(#clip440)" d="M292.141 341.163 L684.46 341.163 L684.46 140.715 L292.141 140.715  Z" fill="#ffffff" fill-rule="evenodd" fill-opacity="1"/>
<polyline clip-path="url(#clip440)" style="stroke:#000000; stroke-linecap:round; stroke-linejoin:round; stroke-width:4; stroke-opacity:1; fill:none" points="292.141,341.163 684.46,341.163 684.46,140.715 292.141,140.715 292.141,341.163 "/>
<path clip-path="url(#clip440)" d="M368.491 212.769 L352.978 206.34 L346.548 190.827 L352.978 175.313 L368.491 168.884 L384.005 175.313 L390.434 190.827 L384.005 206.34 Z" fill="#009af9" fill-rule="evenodd" fill-opacity="1" stroke="#000000" stroke-opacity="1" stroke-width="4.68114"/>
<path clip-path="url(#clip440)" d="M450.906 190.496 Q448.313 189.941 446.925 188.436 Q445.536 186.955 445.536 184.802 Q445.536 181.538 448.175 179.709 Q450.79 177.904 455.327 177.904 Q457.087 177.904 459.054 178.182 Q461.022 178.459 463.29 179.015 L463.29 182.881 Q461.045 182.209 459.193 181.909 Q457.318 181.608 455.674 181.608 Q452.92 181.608 451.323 182.672 Q449.702 183.737 449.702 185.219 Q449.702 186.839 451.276 187.881 Q452.827 188.899 455.512 188.899 L459.1 188.899 L459.1 192.418 L455.674 192.418 Q452.503 192.418 450.837 193.598 Q449.031 194.895 449.031 196.932 Q449.031 199.015 450.975 200.311 Q452.943 201.607 456.438 201.607 Q458.591 201.607 460.559 201.191 Q462.526 200.751 464.17 199.895 L464.17 203.853 Q462.087 204.501 460.142 204.825 Q458.174 205.149 456.323 205.149 Q450.813 205.149 447.827 203.043 Q444.841 200.936 444.841 196.932 Q444.841 194.432 446.438 192.742 Q448.036 191.052 450.906 190.496 Z" fill="#000000" fill-rule="nonzero" fill-opacity="1" /><path clip-path="url(#clip440)" d="M484.262 182.95 L513.938 182.95 L513.938 186.839 L484.262 186.839 L484.262 182.95 M484.262 192.395 L513.938 192.395 L513.938 196.33 L484.262 196.33 L484.262 192.395 Z" fill="#000000" fill-rule="nonzero" fill-opacity="1" /><path clip-path="url(#clip440)" d="M549.1 172.997 Q545.489 172.997 543.66 176.561 Q541.855 180.103 541.855 187.233 Q541.855 194.339 543.66 197.904 Q545.489 201.445 549.1 201.445 Q552.734 201.445 554.54 197.904 Q556.368 194.339 556.368 187.233 Q556.368 180.103 554.54 176.561 Q552.734 172.997 549.1 172.997 M549.1 169.293 Q554.91 169.293 557.966 173.899 Q561.044 178.483 561.044 187.233 Q561.044 195.959 557.966 200.566 Q554.91 205.149 549.1 205.149 Q543.29 205.149 540.211 200.566 Q537.156 195.959 537.156 187.233 Q537.156 178.483 540.211 173.899 Q543.29 169.293 549.1 169.293 Z" fill="#000000" fill-rule="nonzero" fill-opacity="1" /><path clip-path="url(#clip440)" d="M569.262 198.598 L574.146 198.598 L574.146 204.478 L569.262 204.478 L569.262 198.598 Z" fill="#000000" fill-rule="nonzero" fill-opacity="1" /><path clip-path="url(#clip440)" d="M594.331 172.997 Q590.72 172.997 588.891 176.561 Q587.086 180.103 587.086 187.233 Q587.086 194.339 588.891 197.904 Q590.72 201.445 594.331 201.445 Q597.965 201.445 599.771 197.904 Q601.6 194.339 601.6 187.233 Q601.6 180.103 599.771 176.561 Q597.965 172.997 594.331 172.997 M594.331 169.293 Q600.141 169.293 603.197 173.899 Q606.276 178.483 606.276 187.233 Q606.276 195.959 603.197 200.566 Q600.141 205.149 594.331 205.149 Q588.521 205.149 585.442 200.566 Q582.387 195.959 582.387 187.233 Q582.387 178.483 585.442 173.899 Q588.521 169.293 594.331 169.293 Z" fill="#000000" fill-rule="nonzero" fill-opacity="1" /><path clip-path="url(#clip440)" d="M624.493 172.997 Q620.882 172.997 619.053 176.561 Q617.248 180.103 617.248 187.233 Q617.248 194.339 619.053 197.904 Q620.882 201.445 624.493 201.445 Q628.127 201.445 629.933 197.904 Q631.762 194.339 631.762 187.233 Q631.762 180.103 629.933 176.561 Q628.127 172.997 624.493 172.997 M624.493 169.293 Q630.303 169.293 633.359 173.899 Q636.437 178.483 636.437 187.233 Q636.437 195.959 633.359 200.566 Q630.303 205.149 624.493 205.149 Q618.683 205.149 615.604 200.566 Q612.549 195.959 612.549 187.233 Q612.549 178.483 615.604 173.899 Q618.683 169.293 624.493 169.293 Z" fill="#000000" fill-rule="nonzero" fill-opacity="1" /><path clip-path="url(#clip440)" d="M645.465 200.543 L653.104 200.543 L653.104 174.177 L644.794 175.844 L644.794 171.584 L653.058 169.918 L657.734 169.918 L657.734 200.543 L665.372 200.543 L665.372 204.478 L645.465 204.478 L645.465 200.543 Z" fill="#000000" fill-rule="nonzero" fill-opacity="1" /><path clip-path="url(#clip440)" d="M368.491 262.881 L352.978 256.452 L346.548 240.939 L352.978 225.425 L368.491 218.996 L384.005 225.425 L390.434 240.939 L384.005 256.452 Z" fill="#e26f46" fill-rule="evenodd" fill-opacity="1" stroke="#000000" stroke-opacity="1" stroke-width="4.68114"/>
<path clip-path="url(#clip440)" d="M450.906 240.608 Q448.313 240.053 446.925 238.548 Q445.536 237.067 445.536 234.914 Q445.536 231.65 448.175 229.821 Q450.79 228.016 455.327 228.016 Q457.087 228.016 459.054 228.294 Q461.022 228.571 463.29 229.127 L463.29 232.993 Q461.045 232.321 459.193 232.021 Q457.318 231.72 455.674 231.72 Q452.92 231.72 451.323 232.784 Q449.702 233.849 449.702 235.331 Q449.702 236.951 451.276 237.993 Q452.827 239.011 455.512 239.011 L459.1 239.011 L459.1 242.53 L455.674 242.53 Q452.503 242.53 450.837 243.71 Q449.031 245.007 449.031 247.044 Q449.031 249.127 450.975 250.423 Q452.943 251.719 456.438 251.719 Q458.591 251.719 460.559 251.303 Q462.526 250.863 464.17 250.007 L464.17 253.965 Q462.087 254.613 460.142 254.937 Q458.174 255.261 456.323 255.261 Q450.813 255.261 447.827 253.155 Q444.841 251.048 444.841 247.044 Q444.841 244.544 446.438 242.854 Q448.036 241.164 450.906 240.608 Z" fill="#000000" fill-rule="nonzero" fill-opacity="1" /><path clip-path="url(#clip440)" d="M484.262 233.062 L513.938 233.062 L513.938 236.951 L484.262 236.951 L484.262 233.062 M484.262 242.507 L513.938 242.507 L513.938 246.442 L484.262 246.442 L484.262 242.507 Z" fill="#000000" fill-rule="nonzero" fill-opacity="1" /><path clip-path="url(#clip440)" d="M549.1 223.109 Q545.489 223.109 543.66 226.673 Q541.855 230.215 541.855 237.345 Q541.855 244.451 543.66 248.016 Q545.489 251.557 549.1 251.557 Q552.734 251.557 554.54 248.016 Q556.368 244.451 556.368 237.345 Q556.368 230.215 554.54 226.673 Q552.734 223.109 549.1 223.109 M549.1 219.405 Q554.91 219.405 557.966 224.011 Q561.044 228.595 561.044 237.345 Q561.044 246.071 557.966 250.678 Q554.91 255.261 549.1 255.261 Q543.29 255.261 540.211 250.678 Q537.156 246.071 537.156 237.345 Q537.156 228.595 540.211 224.011 Q543.29 219.405 549.1 219.405 Z" fill="#000000" fill-rule="nonzero" fill-opacity="1" /><path clip-path="url(#clip440)" d="M569.262 248.71 L574.146 248.71 L574.146 254.59 L569.262 254.59 L569.262 248.71 Z" fill="#000000" fill-rule="nonzero" fill-opacity="1" /><path clip-path="url(#clip440)" d="M594.331 223.109 Q590.72 223.109 588.891 226.673 Q587.086 230.215 587.086 237.345 Q587.086 244.451 588.891 248.016 Q590.72 251.557 594.331 251.557 Q597.965 251.557 599.771 248.016 Q601.6 244.451 601.6 237.345 Q601.6 230.215 599.771 226.673 Q597.965 223.109 594.331 223.109 M594.331 219.405 Q600.141 219.405 603.197 224.011 Q606.276 228.595 606.276 237.345 Q606.276 246.071 603.197 250.678 Q600.141 255.261 594.331 255.261 Q588.521 255.261 585.442 250.678 Q582.387 246.071 582.387 237.345 Q582.387 228.595 585.442 224.011 Q588.521 219.405 594.331 219.405 Z" fill="#000000" fill-rule="nonzero" fill-opacity="1" /><path clip-path="url(#clip440)" d="M615.303 250.655 L622.942 250.655 L622.942 224.289 L614.632 225.956 L614.632 221.696 L622.896 220.03 L627.572 220.03 L627.572 250.655 L635.211 250.655 L635.211 254.59 L615.303 254.59 L615.303 250.655 Z" fill="#000000" fill-rule="nonzero" fill-opacity="1" /><path clip-path="url(#clip440)" d="M368.491 312.993 L352.978 306.564 L346.548 291.051 L352.978 275.537 L368.491 269.108 L384.005 275.537 L390.434 291.051 L384.005 306.564 Z" fill="#3da44d" fill-rule="evenodd" fill-opacity="1" stroke="#000000" stroke-opacity="1" stroke-width="4.68114"/>
<path clip-path="url(#clip440)" d="M450.906 290.72 Q448.313 290.165 446.925 288.66 Q445.536 287.179 445.536 285.026 Q445.536 281.762 448.175 279.933 Q450.79 278.128 455.327 278.128 Q457.087 278.128 459.054 278.406 Q461.022 278.683 463.29 279.239 L463.29 283.105 Q461.045 282.433 459.193 282.133 Q457.318 281.832 455.674 281.832 Q452.92 281.832 451.323 282.896 Q449.702 283.961 449.702 285.443 Q449.702 287.063 451.276 288.105 Q452.827 289.123 455.512 289.123 L459.1 289.123 L459.1 292.642 L455.674 292.642 Q452.503 292.642 450.837 293.822 Q449.031 295.119 449.031 297.156 Q449.031 299.239 450.975 300.535 Q452.943 301.831 456.438 301.831 Q458.591 301.831 460.559 301.415 Q462.526 300.975 464.17 300.119 L464.17 304.077 Q462.087 304.725 460.142 305.049 Q458.174 305.373 456.323 305.373 Q450.813 305.373 447.827 303.267 Q444.841 301.16 444.841 297.156 Q444.841 294.656 446.438 292.966 Q448.036 291.276 450.906 290.72 Z" fill="#000000" fill-rule="nonzero" fill-opacity="1" /><path clip-path="url(#clip440)" d="M484.262 283.174 L513.938 283.174 L513.938 287.063 L484.262 287.063 L484.262 283.174 M484.262 292.619 L513.938 292.619 L513.938 296.554 L484.262 296.554 L484.262 292.619 Z" fill="#000000" fill-rule="nonzero" fill-opacity="1" /><path clip-path="url(#clip440)" d="M549.1 273.221 Q545.489 273.221 543.66 276.785 Q541.855 280.327 541.855 287.457 Q541.855 294.563 543.66 298.128 Q545.489 301.669 549.1 301.669 Q552.734 301.669 554.54 298.128 Q556.368 294.563 556.368 287.457 Q556.368 280.327 554.54 276.785 Q552.734 273.221 549.1 273.221 M549.1 269.517 Q554.91 269.517 557.966 274.123 Q561.044 278.707 561.044 287.457 Q561.044 296.183 557.966 300.79 Q554.91 305.373 549.1 305.373 Q543.29 305.373 540.211 300.79 Q537.156 296.183 537.156 287.457 Q537.156 278.707 540.211 274.123 Q543.29 269.517 549.1 269.517 Z" fill="#000000" fill-rule="nonzero" fill-opacity="1" /><path clip-path="url(#clip440)" d="M569.262 298.822 L574.146 298.822 L574.146 304.702 L569.262 304.702 L569.262 298.822 Z" fill="#000000" fill-rule="nonzero" fill-opacity="1" /><path clip-path="url(#clip440)" d="M594.331 273.221 Q590.72 273.221 588.891 276.785 Q587.086 280.327 587.086 287.457 Q587.086 294.563 588.891 298.128 Q590.72 301.669 594.331 301.669 Q597.965 301.669 599.771 298.128 Q601.6 294.563 601.6 287.457 Q601.6 280.327 599.771 276.785 Q597.965 273.221 594.331 273.221 M594.331 269.517 Q600.141 269.517 603.197 274.123 Q606.276 278.707 606.276 287.457 Q606.276 296.183 603.197 300.79 Q600.141 305.373 594.331 305.373 Q588.521 305.373 585.442 300.79 Q582.387 296.183 582.387 287.457 Q582.387 278.707 585.442 274.123 Q588.521 269.517 594.331 269.517 Z" fill="#000000" fill-rule="nonzero" fill-opacity="1" /><path clip-path="url(#clip440)" d="M614.539 270.142 L632.896 270.142 L632.896 274.077 L618.822 274.077 L618.822 282.549 Q619.84 282.202 620.859 282.04 Q621.877 281.855 622.896 281.855 Q628.683 281.855 632.062 285.026 Q635.442 288.197 635.442 293.614 Q635.442 299.193 631.97 302.294 Q628.498 305.373 622.178 305.373 Q620.002 305.373 617.734 305.003 Q615.488 304.632 613.081 303.892 L613.081 299.193 Q615.164 300.327 617.387 300.882 Q619.609 301.438 622.086 301.438 Q626.09 301.438 628.428 299.331 Q630.766 297.225 630.766 293.614 Q630.766 290.003 628.428 287.896 Q626.09 285.79 622.086 285.79 Q620.211 285.79 618.336 286.207 Q616.484 286.623 614.539 287.503 L614.539 270.142 Z" fill="#000000" fill-rule="nonzero" fill-opacity="1" /></svg>
