<?xml version="1.0" encoding="utf-8"?>
<svg xmlns="http://www.w3.org/2000/svg" xmlns:xlink="http://www.w3.org/1999/xlink" width="500" height="320" viewBox="0 0 2000 1280">
<defs>
  <clipPath id="clip770">
    <rect x="0" y="0" width="2000" height="1280"/>
  </clipPath>
</defs>
<path clip-path="url(#clip770)" d="M0 1280 L2000 1280 L2000 0 L0 0  Z" fill="#ffffff" fill-rule="evenodd" fill-opacity="1"/>
<defs>
  <clipPath id="clip771">
    <rect x="400" y="0" width="1401" height="1280"/>
  </clipPath>
</defs>
<path clip-path="url(#clip770)" d="M245.244 1111.02 L1952.76 1111.02 L1952.76 107.256 L245.244 107.256  Z" fill="#ffffff" fill-rule="evenodd" fill-opacity="1"/>
<defs>
  <clipPath id="clip772">
    <rect x="245" y="107" width="1709" height="1005"/>
  </clipPath>
</defs>
<polyline clip-path="url(#clip772)" style="stroke:#000000; stroke-linecap:round; stroke-linejoin:round; stroke-width:2; stroke-opacity:0.1; fill:none" points="293.57,1111.02 293.57,107.256 "/>
<polyline clip-path="url(#clip772)" style="stroke:#000000; stroke-linecap:round; stroke-linejoin:round; stroke-width:2; stroke-opacity:0.1; fill:none" points="553.386,1111.02 553.386,107.256 "/>
<polyline clip-path="url(#clip772)" style="stroke:#000000; stroke-linecap:round; stroke-linejoin:round; stroke-width:2; stroke-opacity:0.1; fill:none" points="813.202,1111.02 813.202,107.256 "/>
<polyline clip-path="url(#clip772)" style="stroke:#000000; stroke-linecap:round; stroke-linejoin:round; stroke-width:2; stroke-opacity:0.1; fill:none" points="1073.02,1111.02 1073.02,107.256 "/>
<polyline clip-path="url(#clip772)" style="stroke:#000000; stroke-linecap:round; stroke-linejoin:round; stroke-width:2; stroke-opacity:0.1; fill:none" points="1332.83,1111.02 1332.83,107.256 "/>
<polyline clip-path="url(#clip772)" style="stroke:#000000; stroke-linecap:round; stroke-linejoin:round; stroke-width:2; stroke-opacity:0.1; fill:none" points="1592.65,1111.02 1592.65,107.256 "/>
<polyline clip-path="url(#clip772)" style="stroke:#000000; stroke-linecap:round; stroke-linejoin:round; stroke-width:2; stroke-opacity:0.1; fill:none" points="1852.47,1111.02 1852.47,107.256 "/>
<polyline clip-path="url(#clip772)" style="stroke:#000000; stroke-linecap:round; stroke-linejoin:round; stroke-width:2; stroke-opacity:0.1; fill:none" points="245.244,1069.36 1952.76,1069.36 "/>
<polyline clip-path="url(#clip772)" style="stroke:#000000; stroke-linecap:round; stroke-linejoin:round; stroke-width:2; stroke-opacity:0.1; fill:none" points="245.244,569.439 1952.76,569.439 "/>
<polyline clip-path="url(#clip770)" style="stroke:#000000; stroke-linecap:round; stroke-linejoin:round; stroke-width:4; stroke-opacity:1; fill:none" points="245.244,1111.02 1952.76,1111.02 "/>
<polyline clip-path="url(#clip770)" style="stroke:#000000; stroke-linecap:round; stroke-linejoin:round; stroke-width:4; stroke-opacity:1; fill:none" points="293.57,1111.02 293.57,1092.12 "/>
<polyline clip-path="url(#clip770)" style="stroke:#000000; stroke-linecap:round; stroke-linejoin:round; stroke-width:4; stroke-opacity:1; fill:none" points="553.386,1111.02 553.386,1092.12 "/>
<polyline clip-path="url(#clip770)" style="stroke:#000000; stroke-linecap:round; stroke-linejoin:round; stroke-width:4; stroke-opacity:1; fill:none" points="813.202,1111.02 813.202,1092.12 "/>
<polyline clip-path="url(#clip770)" style="stroke:#000000; stroke-linecap:round; stroke-linejoin:round; stroke-width:4; stroke-opacity:1; fill:none" points="1073.02,1111.02 1073.02,1092.12 "/>
<polyline clip-path="url(#clip770)" style="stroke:#000000; stroke-linecap:round; stroke-linejoin:round; stroke-width:4; stroke-opacity:1; fill:none" points="1332.83,1111.02 1332.83,1092.12 "/>
<polyline clip-path="url(#clip770)" style="stroke:#000000; stroke-linecap:round; stroke-linejoin:round; stroke-width:4; stroke-opacity:1; fill:none" points="1592.65,1111.02 1592.65,1092.12 "/>
<polyline clip-path="url(#clip770)" style="stroke:#000000; stroke-linecap:round; stroke-linejoin:round; stroke-width:4; stroke-opacity:1; fill:none" points="1852.47,1111.02 1852.47,1092.12 "/>
<path clip-path="url(#clip770)" d="M293.57 1138.74 Q289.959 1138.74 288.13 1142.3 Q286.325 1145.84 286.325 1152.97 Q286.325 1160.08 288.13 1163.64 Q289.959 1167.19 293.57 1167.19 Q297.204 1167.19 299.01 1163.64 Q300.839 1160.08 300.839 1152.97 Q300.839 1145.84 299.01 1142.3 Q297.204 1138.74 293.57 1138.74 M293.57 1135.03 Q299.38 1135.03 302.436 1139.64 Q305.515 1144.22 305.515 1152.97 Q305.515 1161.7 302.436 1166.31 Q299.38 1170.89 293.57 1170.89 Q287.76 1170.89 284.681 1166.31 Q281.626 1161.7 281.626 1152.97 Q281.626 1144.22 284.681 1139.64 Q287.76 1135.03 293.57 1135.03 Z" fill="#000000" fill-rule="nonzero" fill-opacity="1" /><path clip-path="url(#clip770)" d="M528.074 1166.28 L535.713 1166.28 L535.713 1139.92 L527.403 1141.58 L527.403 1137.33 L535.666 1135.66 L540.342 1135.66 L540.342 1166.28 L547.981 1166.28 L547.981 1170.22 L528.074 1170.22 L528.074 1166.28 Z" fill="#000000" fill-rule="nonzero" fill-opacity="1" /><path clip-path="url(#clip770)" d="M567.426 1138.74 Q563.814 1138.74 561.986 1142.3 Q560.18 1145.84 560.18 1152.97 Q560.18 1160.08 561.986 1163.64 Q563.814 1167.19 567.426 1167.19 Q571.06 1167.19 572.865 1163.64 Q574.694 1160.08 574.694 1152.97 Q574.694 1145.84 572.865 1142.3 Q571.06 1138.74 567.426 1138.74 M567.426 1135.03 Q573.236 1135.03 576.291 1139.64 Q579.37 1144.22 579.37 1152.97 Q579.37 1161.7 576.291 1166.31 Q573.236 1170.89 567.426 1170.89 Q561.615 1170.89 558.537 1166.31 Q555.481 1161.7 555.481 1152.97 Q555.481 1144.22 558.537 1139.64 Q561.615 1135.03 567.426 1135.03 Z" fill="#000000" fill-rule="nonzero" fill-opacity="1" /><path clip-path="url(#clip770)" d="M791.976 1166.28 L808.295 1166.28 L808.295 1170.22 L786.351 1170.22 L786.351 1166.28 Q789.013 1163.53 793.596 1158.9 Q798.203 1154.25 799.383 1152.9 Q801.628 1150.38 802.508 1148.64 Q803.411 1146.89 803.411 1145.2 Q803.411 1142.44 801.466 1140.7 Q799.545 1138.97 796.443 1138.97 Q794.244 1138.97 791.791 1139.73 Q789.36 1140.5 786.582 1142.05 L786.582 1137.33 Q789.406 1136.19 791.86 1135.61 Q794.314 1135.03 796.351 1135.03 Q801.721 1135.03 804.915 1137.72 Q808.11 1140.4 808.11 1144.89 Q808.11 1147.02 807.3 1148.95 Q806.513 1150.84 804.406 1153.44 Q803.827 1154.11 800.726 1157.33 Q797.624 1160.52 791.976 1166.28 Z" fill="#000000" fill-rule="nonzero" fill-opacity="1" /><path clip-path="url(#clip770)" d="M828.11 1138.74 Q824.499 1138.74 822.67 1142.3 Q820.864 1145.84 820.864 1152.97 Q820.864 1160.08 822.67 1163.64 Q824.499 1167.19 828.11 1167.19 Q831.744 1167.19 833.55 1163.64 Q835.378 1160.08 835.378 1152.97 Q835.378 1145.84 833.55 1142.3 Q831.744 1138.74 828.11 1138.74 M828.11 1135.03 Q833.92 1135.03 836.975 1139.64 Q840.054 1144.22 840.054 1152.97 Q840.054 1161.7 836.975 1166.31 Q833.92 1170.89 828.11 1170.89 Q822.3 1170.89 819.221 1166.31 Q816.165 1161.7 816.165 1152.97 Q816.165 1144.22 819.221 1139.64 Q822.3 1135.03 828.11 1135.03 Z" fill="#000000" fill-rule="nonzero" fill-opacity="1" /><path clip-path="url(#clip770)" d="M1061.86 1151.58 Q1065.22 1152.3 1067.09 1154.57 Q1068.99 1156.84 1068.99 1160.17 Q1068.99 1165.29 1065.47 1168.09 Q1061.95 1170.89 1055.47 1170.89 Q1053.3 1170.89 1050.98 1170.45 Q1048.69 1170.03 1046.24 1169.18 L1046.24 1164.66 Q1048.18 1165.8 1050.5 1166.38 Q1052.81 1166.95 1055.33 1166.95 Q1059.73 1166.95 1062.02 1165.22 Q1064.34 1163.48 1064.34 1160.17 Q1064.34 1157.12 1062.19 1155.4 Q1060.06 1153.67 1056.24 1153.67 L1052.21 1153.67 L1052.21 1149.83 L1056.42 1149.83 Q1059.87 1149.83 1061.7 1148.46 Q1063.53 1147.07 1063.53 1144.48 Q1063.53 1141.82 1061.63 1140.4 Q1059.75 1138.97 1056.24 1138.97 Q1054.31 1138.97 1052.12 1139.39 Q1049.92 1139.8 1047.28 1140.68 L1047.28 1136.51 Q1049.94 1135.77 1052.25 1135.4 Q1054.59 1135.03 1056.65 1135.03 Q1061.98 1135.03 1065.08 1137.46 Q1068.18 1139.87 1068.18 1143.99 Q1068.18 1146.86 1066.54 1148.85 Q1064.89 1150.82 1061.86 1151.58 Z" fill="#000000" fill-rule="nonzero" fill-opacity="1" /><path clip-path="url(#clip770)" d="M1087.86 1138.74 Q1084.25 1138.74 1082.42 1142.3 Q1080.61 1145.84 1080.61 1152.97 Q1080.61 1160.08 1082.42 1163.64 Q1084.25 1167.19 1087.86 1167.19 Q1091.49 1167.19 1093.3 1163.64 Q1095.12 1160.08 1095.12 1152.97 Q1095.12 1145.84 1093.3 1142.3 Q1091.49 1138.74 1087.86 1138.74 M1087.86 1135.03 Q1093.67 1135.03 1096.72 1139.64 Q1099.8 1144.22 1099.8 1152.97 Q1099.8 1161.7 1096.72 1166.31 Q1093.67 1170.89 1087.86 1170.89 Q1082.05 1170.89 1078.97 1166.31 Q1075.91 1161.7 1075.91 1152.97 Q1075.91 1144.22 1078.97 1139.64 Q1082.05 1135.03 1087.86 1135.03 Z" fill="#000000" fill-rule="nonzero" fill-opacity="1" /><path clip-path="url(#clip770)" d="M1321.01 1139.73 L1309.2 1158.18 L1321.01 1158.18 L1321.01 1139.73 M1319.78 1135.66 L1325.66 1135.66 L1325.66 1158.18 L1330.59 1158.18 L1330.59 1162.07 L1325.66 1162.07 L1325.66 1170.22 L1321.01 1170.22 L1321.01 1162.07 L1305.4 1162.07 L1305.4 1157.56 L1319.78 1135.66 Z" fill="#000000" fill-rule="nonzero" fill-opacity="1" /><path clip-path="url(#clip770)" d="M1348.32 1138.74 Q1344.71 1138.74 1342.88 1142.3 Q1341.08 1145.84 1341.08 1152.97 Q1341.08 1160.08 1342.88 1163.64 Q1344.71 1167.19 1348.32 1167.19 Q1351.95 1167.19 1353.76 1163.64 Q1355.59 1160.08 1355.59 1152.97 Q1355.59 1145.84 1353.76 1142.3 Q1351.95 1138.74 1348.32 1138.74 M1348.32 1135.03 Q1354.13 1135.03 1357.19 1139.64 Q1360.27 1144.22 1360.27 1152.97 Q1360.27 1161.7 1357.19 1166.31 Q1354.13 1170.89 1348.32 1170.89 Q1342.51 1170.89 1339.43 1166.31 Q1336.38 1161.7 1336.38 1152.97 Q1336.38 1144.22 1339.43 1139.64 Q1342.51 1135.03 1348.32 1135.03 Z" fill="#000000" fill-rule="nonzero" fill-opacity="1" /><path clip-path="url(#clip770)" d="M1567.35 1135.66 L1585.71 1135.66 L1585.71 1139.59 L1571.63 1139.59 L1571.63 1148.07 Q1572.65 1147.72 1573.67 1147.56 Q1574.69 1147.37 1575.71 1147.37 Q1581.49 1147.37 1584.87 1150.54 Q1588.25 1153.71 1588.25 1159.13 Q1588.25 1164.71 1584.78 1167.81 Q1581.31 1170.89 1574.99 1170.89 Q1572.81 1170.89 1570.54 1170.52 Q1568.3 1170.15 1565.89 1169.41 L1565.89 1164.71 Q1567.97 1165.84 1570.2 1166.4 Q1572.42 1166.95 1574.9 1166.95 Q1578.9 1166.95 1581.24 1164.85 Q1583.58 1162.74 1583.58 1159.13 Q1583.58 1155.52 1581.24 1153.41 Q1578.9 1151.31 1574.9 1151.31 Q1573.02 1151.31 1571.15 1151.72 Q1569.29 1152.14 1567.35 1153.02 L1567.35 1135.66 Z" fill="#000000" fill-rule="nonzero" fill-opacity="1" /><path clip-path="url(#clip770)" d="M1607.47 1138.74 Q1603.85 1138.74 1602.03 1142.3 Q1600.22 1145.84 1600.22 1152.97 Q1600.22 1160.08 1602.03 1163.64 Q1603.85 1167.19 1607.47 1167.19 Q1611.1 1167.19 1612.91 1163.64 Q1614.73 1160.08 1614.73 1152.97 Q1614.73 1145.84 1612.91 1142.3 Q1611.1 1138.74 1607.47 1138.74 M1607.47 1135.03 Q1613.28 1135.03 1616.33 1139.64 Q1619.41 1144.22 1619.41 1152.97 Q1619.41 1161.7 1616.33 1166.31 Q1613.28 1170.89 1607.47 1170.89 Q1601.66 1170.89 1598.58 1166.31 Q1595.52 1161.7 1595.52 1152.97 Q1595.52 1144.22 1598.58 1139.64 Q1601.66 1135.03 1607.47 1135.03 Z" fill="#000000" fill-rule="nonzero" fill-opacity="1" /><path clip-path="url(#clip770)" d="M1837.87 1151.08 Q1834.72 1151.08 1832.87 1153.23 Q1831.04 1155.38 1831.04 1159.13 Q1831.04 1162.86 1832.87 1165.03 Q1834.72 1167.19 1837.87 1167.19 Q1841.02 1167.19 1842.85 1165.03 Q1844.7 1162.86 1844.7 1159.13 Q1844.7 1155.38 1842.85 1153.23 Q1841.02 1151.08 1837.87 1151.08 M1847.15 1136.42 L1847.15 1140.68 Q1845.4 1139.85 1843.59 1139.41 Q1841.81 1138.97 1840.05 1138.97 Q1835.42 1138.97 1832.96 1142.09 Q1830.53 1145.22 1830.19 1151.54 Q1831.55 1149.52 1833.61 1148.46 Q1835.67 1147.37 1838.15 1147.37 Q1843.36 1147.37 1846.37 1150.54 Q1849.4 1153.69 1849.4 1159.13 Q1849.4 1164.45 1846.25 1167.67 Q1843.1 1170.89 1837.87 1170.89 Q1831.88 1170.89 1828.71 1166.31 Q1825.53 1161.7 1825.53 1152.97 Q1825.53 1144.78 1829.42 1139.92 Q1833.31 1135.03 1839.86 1135.03 Q1841.62 1135.03 1843.4 1135.38 Q1845.21 1135.73 1847.15 1136.42 Z" fill="#000000" fill-rule="nonzero" fill-opacity="1" /><path clip-path="url(#clip770)" d="M1867.46 1138.74 Q1863.84 1138.74 1862.02 1142.3 Q1860.21 1145.84 1860.21 1152.97 Q1860.21 1160.08 1862.02 1163.64 Q1863.84 1167.19 1867.46 1167.19 Q1871.09 1167.19 1872.9 1163.64 Q1874.72 1160.08 1874.72 1152.97 Q1874.72 1145.84 1872.9 1142.3 Q1871.09 1138.74 1867.46 1138.74 M1867.46 1135.03 Q1873.27 1135.03 1876.32 1139.64 Q1879.4 1144.22 1879.4 1152.97 Q1879.4 1161.7 1876.32 1166.31 Q1873.27 1170.89 1867.46 1170.89 Q1861.65 1170.89 1858.57 1166.31 Q1855.51 1161.7 1855.51 1152.97 Q1855.51 1144.22 1858.57 1139.64 Q1861.65 1135.03 1867.46 1135.03 Z" fill="#000000" fill-rule="nonzero" fill-opacity="1" /><g clip-path="url(#clip770)">
<text style="fill:#000000; fill-opacity:1; font-family:Arial,Helvetica Neue,Helvetica,sans-serif; font-size:66px; text-anchor:middle;" transform="rotate(0, 1099, 1252.42)" x="1099" y="1252.42">Krylov dimension</text>
</g>
<polyline clip-path="url(#clip770)" style="stroke:#000000; stroke-linecap:round; stroke-linejoin:round; stroke-width:4; stroke-opacity:1; fill:none" points="245.244,1111.02 245.244,107.256 "/>
<polyline clip-path="url(#clip770)" style="stroke:#000000; stroke-linecap:round; stroke-linejoin:round; stroke-width:4; stroke-opacity:1; fill:none" points="245.244,1069.36 264.142,1069.36 "/>
<polyline clip-path="url(#clip770)" style="stroke:#000000; stroke-linecap:round; stroke-linejoin:round; stroke-width:4; stroke-opacity:1; fill:none" points="245.244,569.439 264.142,569.439 "/>
<path clip-path="url(#clip770)" d="M113.675 1089.16 L121.314 1089.16 L121.314 1062.79 L113.004 1064.46 L113.004 1060.2 L121.268 1058.53 L125.944 1058.53 L125.944 1089.16 L133.583 1089.16 L133.583 1093.09 L113.675 1093.09 L113.675 1089.16 Z" fill="#000000" fill-rule="nonzero" fill-opacity="1" /><path clip-path="url(#clip770)" d="M153.027 1061.61 Q149.416 1061.61 147.587 1065.18 Q145.782 1068.72 145.782 1075.85 Q145.782 1082.95 147.587 1086.52 Q149.416 1090.06 153.027 1090.06 Q156.661 1090.06 158.467 1086.52 Q160.295 1082.95 160.295 1075.85 Q160.295 1068.72 158.467 1065.18 Q156.661 1061.61 153.027 1061.61 M153.027 1057.91 Q158.837 1057.91 161.893 1062.51 Q164.971 1067.1 164.971 1075.85 Q164.971 1084.57 161.893 1089.18 Q158.837 1093.76 153.027 1093.76 Q147.217 1093.76 144.138 1089.18 Q141.082 1084.57 141.082 1075.85 Q141.082 1067.1 144.138 1062.51 Q147.217 1057.91 153.027 1057.91 Z" fill="#000000" fill-rule="nonzero" fill-opacity="1" /><path clip-path="url(#clip770)" d="M164.971 1052.01 L189.083 1052.01 L189.083 1055.21 L164.971 1055.21 L164.971 1052.01 Z" fill="#000000" fill-rule="nonzero" fill-opacity="1" /><path clip-path="url(#clip770)" d="M205.878 1050.13 Q203.32 1050.13 201.816 1051.88 Q200.33 1053.63 200.33 1056.67 Q200.33 1059.7 201.816 1061.47 Q203.32 1063.22 205.878 1063.22 Q208.436 1063.22 209.922 1061.47 Q211.426 1059.7 211.426 1056.67 Q211.426 1053.63 209.922 1051.88 Q208.436 1050.13 205.878 1050.13 M213.42 1038.22 L213.42 1041.68 Q211.991 1041.01 210.524 1040.65 Q209.075 1040.29 207.646 1040.29 Q203.885 1040.29 201.891 1042.83 Q199.916 1045.37 199.634 1050.5 Q200.744 1048.87 202.417 1048 Q204.091 1047.12 206.104 1047.12 Q210.336 1047.12 212.781 1049.7 Q215.244 1052.25 215.244 1056.67 Q215.244 1061 212.687 1063.61 Q210.129 1066.23 205.878 1066.23 Q201.007 1066.23 198.43 1062.5 Q195.854 1058.76 195.854 1051.67 Q195.854 1045.01 199.013 1041.06 Q202.173 1037.09 207.496 1037.09 Q208.925 1037.09 210.373 1037.38 Q211.84 1037.66 213.42 1038.22 Z" fill="#000000" fill-rule="nonzero" fill-opacity="1" /><path clip-path="url(#clip770)" d="M114.333 589.232 L121.972 589.232 L121.972 562.866 L113.662 564.533 L113.662 560.274 L121.926 558.607 L126.602 558.607 L126.602 589.232 L134.241 589.232 L134.241 593.167 L114.333 593.167 L114.333 589.232 Z" fill="#000000" fill-rule="nonzero" fill-opacity="1" /><path clip-path="url(#clip770)" d="M153.685 561.686 Q150.074 561.686 148.245 565.25 Q146.44 568.792 146.44 575.922 Q146.44 583.028 148.245 586.593 Q150.074 590.135 153.685 590.135 Q157.319 590.135 159.125 586.593 Q160.954 583.028 160.954 575.922 Q160.954 568.792 159.125 565.25 Q157.319 561.686 153.685 561.686 M153.685 557.982 Q159.495 557.982 162.551 562.588 Q165.629 567.172 165.629 575.922 Q165.629 584.648 162.551 589.255 Q159.495 593.838 153.685 593.838 Q147.875 593.838 144.796 589.255 Q141.741 584.648 141.741 575.922 Q141.741 567.172 144.796 562.588 Q147.875 557.982 153.685 557.982 Z" fill="#000000" fill-rule="nonzero" fill-opacity="1" /><path clip-path="url(#clip770)" d="M165.629 552.083 L189.741 552.083 L189.741 555.281 L165.629 555.281 L165.629 552.083 Z" fill="#000000" fill-rule="nonzero" fill-opacity="1" /><path clip-path="url(#clip770)" d="M209.452 550.616 Q212.179 551.199 213.702 553.043 Q215.244 554.886 215.244 557.594 Q215.244 561.751 212.386 564.026 Q209.527 566.302 204.261 566.302 Q202.493 566.302 200.612 565.945 Q198.75 565.606 196.756 564.91 L196.756 561.243 Q198.336 562.164 200.217 562.634 Q202.098 563.105 204.148 563.105 Q207.721 563.105 209.583 561.694 Q211.464 560.284 211.464 557.594 Q211.464 555.111 209.715 553.72 Q207.985 552.309 204.881 552.309 L201.609 552.309 L201.609 549.187 L205.032 549.187 Q207.834 549.187 209.32 548.077 Q210.806 546.949 210.806 544.842 Q210.806 542.679 209.264 541.532 Q207.74 540.366 204.881 540.366 Q203.32 540.366 201.534 540.705 Q199.747 541.043 197.603 541.758 L197.603 538.372 Q199.766 537.771 201.646 537.47 Q203.546 537.169 205.22 537.169 Q209.546 537.169 212.066 539.144 Q214.586 541.1 214.586 544.447 Q214.586 546.78 213.251 548.397 Q211.915 549.996 209.452 550.616 Z" fill="#000000" fill-rule="nonzero" fill-opacity="1" /><g clip-path="url(#clip770)">
<text style="fill:#000000; fill-opacity:1; font-family:Arial,Helvetica Neue,Helvetica,sans-serif; font-size:66px; text-anchor:middle;" transform="rotate(-90, 71.4418, 609.137)" x="71.4418" y="609.137">relative residual norm</text>
</g>
<g clip-path="url(#clip770)">
<text style="fill:#000000; fill-opacity:1; font-family:Arial,Helvetica Neue,Helvetica,sans-serif; font-size:66px; text-anchor:middle;" transform="rotate(0, 1099, 57.6)" x="1099" y="57.6">Convergence of MINRES and CG</text>
</g>
<polyline clip-path="url(#clip772)" style="stroke:#009af9; stroke-linecap:round; stroke-linejoin:round; stroke-width:8; stroke-opacity:1; fill:none" points="293.57,141.058 319.552,184.673 345.533,217.213 371.515,241.955 397.497,263.433 423.478,283.093 449.46,300.336 475.441,317.035 501.423,332.215 527.405,346.969 553.386,361.855 579.368,375.976 605.35,390.271 631.331,404.235 657.313,418.196 683.294,432.013 709.276,446.279 735.258,460.579 761.239,474.688 787.221,489.295 813.202,503.394 839.184,518.111 865.166,532.58 891.147,546.831 917.129,561.246 943.11,575.771 969.092,590.333 995.074,604.699 1021.06,619.112 1047.04,633.538 1073.02,648.09 1099,662.525 1124.98,676.627 1150.96,691.16 1176.94,705.502 1202.93,719.963 1228.91,734.293 1254.89,748.428 1280.87,762.783 1306.85,777.525 1332.83,792.358 1358.82,806.884 1384.8,821.776 1410.78,836.086 1436.76,850.393 1462.74,864.422 1488.72,879.233 1514.71,893.714 1540.69,908.248 1566.67,922.446 1592.65,936.898 1618.63,951.318 1644.61,966.004 1670.6,980.428 1696.58,995.195 1722.56,1009.56 1748.54,1024.29 1774.52,1038.79 1800.5,1053.13 1826.49,1067.78 1852.47,1082.61 "/>
<polyline clip-path="url(#clip772)" style="stroke:#e26f46; stroke-linecap:round; stroke-linejoin:round; stroke-width:8; stroke-opacity:1; fill:none" points="293.57,135.664 319.552,171.787 345.533,198.311 371.515,216.53 397.497,234.346 423.478,251.63 449.46,265.234 475.441,281.023 501.423,293.454 527.405,307.378 553.386,322.527 579.368,335.093 605.35,349.751 631.331,363.022 657.313,376.975 683.294,390.487 709.276,405.698 735.258,420.068 761.239,433.78 787.221,449.412 813.202,462.465 839.184,478.446 865.166,492.417 891.147,506.218 917.129,520.973 943.11,535.721 969.092,550.357 995.074,564.326 1021.06,578.832 1047.04,593.287 1073.02,608.094 1099,622.293 1124.98,635.704 1150.96,651.127 1176.94,665.078 1202.93,679.783 1228.91,693.846 1254.89,707.574 1280.87,722.386 1306.85,737.909 1332.83,752.926 1358.82,766.836 1384.8,782.458 1410.78,795.595 1436.76,809.899 1462.74,823.347 1488.72,839.754 1514.71,853.575 1540.69,868.216 1566.67,881.723 1592.65,896.701 1618.63,911.054 1644.61,926.278 1670.6,940.173 1696.58,955.629 1722.56,969.199 1748.54,984.639 1774.52,998.686 1800.5,1012.7 1826.49,1027.98 1852.47,1043.17 1878.45,1056.98 1904.43,1070.75 "/>
<path clip-path="url(#clip770)" d="M1570 296.235 L1895.84 296.235 L1895.84 140.715 L1570 140.715  Z" fill="#ffffff" fill-rule="evenodd" fill-opacity="1"/>
<polyline clip-path="url(#clip770)" style="stroke:#000000; stroke-linecap:round; stroke-linejoin:round; stroke-width:4; stroke-opacity:1; fill:none" points="1570,296.235 1895.84,296.235 1895.84,140.715 1570,140.715 1570,296.235 "/>
<polyline clip-path="url(#clip770)" style="stroke:#009af9; stroke-linecap:round; stroke-linejoin:round; stroke-width:8; stroke-opacity:1; fill:none" points="1588.97,192.555 1702.8,192.555 "/>
<path clip-path="url(#clip770)" d="M1742.12 188.886 Q1743.72 186.015 1745.94 184.65 Q1748.16 183.284 1751.17 183.284 Q1755.22 183.284 1757.42 186.131 Q1759.62 188.955 1759.62 194.187 L1759.62 209.835 L1755.34 209.835 L1755.34 194.325 Q1755.34 190.599 1754.02 188.793 Q1752.7 186.988 1749.99 186.988 Q1746.68 186.988 1744.76 189.187 Q1742.84 191.386 1742.84 195.182 L1742.84 209.835 L1738.56 209.835 L1738.56 194.325 Q1738.56 190.575 1737.24 188.793 Q1735.92 186.988 1733.16 186.988 Q1729.9 186.988 1727.98 189.21 Q1726.06 191.409 1726.06 195.182 L1726.06 209.835 L1721.77 209.835 L1721.77 183.909 L1726.06 183.909 L1726.06 187.937 Q1727.52 185.552 1729.55 184.418 Q1731.59 183.284 1734.39 183.284 Q1737.21 183.284 1739.18 184.719 Q1741.17 186.154 1742.12 188.886 Z" fill="#000000" fill-rule="nonzero" fill-opacity="1" /><path clip-path="url(#clip770)" d="M1768.12 183.909 L1772.38 183.909 L1772.38 209.835 L1768.12 209.835 L1768.12 183.909 M1768.12 173.816 L1772.38 173.816 L1772.38 179.21 L1768.12 179.21 L1768.12 173.816 Z" fill="#000000" fill-rule="nonzero" fill-opacity="1" /><path clip-path="url(#clip770)" d="M1802.84 194.187 L1802.84 209.835 L1798.58 209.835 L1798.58 194.325 Q1798.58 190.645 1797.14 188.816 Q1795.71 186.988 1792.84 186.988 Q1789.39 186.988 1787.4 189.187 Q1785.41 191.386 1785.41 195.182 L1785.41 209.835 L1781.13 209.835 L1781.13 183.909 L1785.41 183.909 L1785.41 187.937 Q1786.94 185.599 1789 184.441 Q1791.08 183.284 1793.79 183.284 Q1798.26 183.284 1800.55 186.062 Q1802.84 188.816 1802.84 194.187 Z" fill="#000000" fill-rule="nonzero" fill-opacity="1" /><path clip-path="url(#clip770)" d="M1826.36 187.89 Q1825.64 187.474 1824.78 187.288 Q1823.95 187.08 1822.93 187.08 Q1819.32 187.08 1817.38 189.441 Q1815.45 191.779 1815.45 196.177 L1815.45 209.835 L1811.17 209.835 L1811.17 183.909 L1815.45 183.909 L1815.45 187.937 Q1816.8 185.576 1818.95 184.441 Q1821.1 183.284 1824.18 183.284 Q1824.62 183.284 1825.15 183.353 Q1825.69 183.4 1826.33 183.515 L1826.36 187.89 Z" fill="#000000" fill-rule="nonzero" fill-opacity="1" /><path clip-path="url(#clip770)" d="M1851.96 195.807 L1851.96 197.89 L1832.38 197.89 Q1832.65 202.288 1835.01 204.603 Q1837.4 206.895 1841.64 206.895 Q1844.09 206.895 1846.38 206.293 Q1848.7 205.691 1850.96 204.487 L1850.96 208.515 Q1848.67 209.487 1846.26 209.997 Q1843.86 210.506 1841.38 210.506 Q1835.18 210.506 1831.54 206.895 Q1827.93 203.284 1827.93 197.126 Q1827.93 190.761 1831.36 187.034 Q1834.81 183.284 1840.64 183.284 Q1845.87 183.284 1848.9 186.663 Q1851.96 190.02 1851.96 195.807 M1847.7 194.557 Q1847.65 191.062 1845.73 188.978 Q1843.83 186.895 1840.69 186.895 Q1837.12 186.895 1834.97 188.909 Q1832.84 190.923 1832.51 194.58 L1847.7 194.557 Z" fill="#000000" fill-rule="nonzero" fill-opacity="1" /><path clip-path="url(#clip770)" d="M1875.48 184.673 L1875.48 188.7 Q1873.67 187.775 1871.73 187.312 Q1869.78 186.849 1867.7 186.849 Q1864.53 186.849 1862.93 187.821 Q1861.36 188.793 1861.36 190.738 Q1861.36 192.219 1862.49 193.075 Q1863.63 193.909 1867.05 194.673 L1868.51 194.997 Q1873.05 195.969 1874.95 197.751 Q1876.87 199.511 1876.87 202.682 Q1876.87 206.293 1874 208.399 Q1871.15 210.506 1866.15 210.506 Q1864.07 210.506 1861.8 210.089 Q1859.55 209.696 1857.05 208.886 L1857.05 204.487 Q1859.41 205.714 1861.7 206.339 Q1864 206.941 1866.24 206.941 Q1869.25 206.941 1870.87 205.923 Q1872.49 204.881 1872.49 203.006 Q1872.49 201.27 1871.31 200.344 Q1870.15 199.418 1866.2 198.562 L1864.71 198.214 Q1860.76 197.381 1859 195.668 Q1857.24 193.932 1857.24 190.923 Q1857.24 187.265 1859.83 185.275 Q1862.42 183.284 1867.19 183.284 Q1869.55 183.284 1871.64 183.631 Q1873.72 183.978 1875.48 184.673 Z" fill="#000000" fill-rule="nonzero" fill-opacity="1" /><polyline clip-path="url(#clip770)" style="stroke:#e26f46; stroke-linecap:round; stroke-linejoin:round; stroke-width:8; stroke-opacity:1; fill:none" points="1588.97,244.395 1702.8,244.395 "/>
<path clip-path="url(#clip770)" d="M1742.28 236.744 L1742.28 240.726 Q1740.48 239.73 1738.65 239.244 Q1736.84 238.735 1734.99 238.735 Q1730.85 238.735 1728.56 241.374 Q1726.27 243.99 1726.27 248.735 Q1726.27 253.48 1728.56 256.119 Q1730.85 258.735 1734.99 258.735 Q1736.84 258.735 1738.65 258.249 Q1740.48 257.739 1742.28 256.744 L1742.28 260.679 Q1740.5 261.513 1738.58 261.929 Q1736.68 262.346 1734.53 262.346 Q1728.67 262.346 1725.22 258.665 Q1721.77 254.985 1721.77 248.735 Q1721.77 242.392 1725.25 238.758 Q1728.74 235.124 1734.81 235.124 Q1736.77 235.124 1738.65 235.541 Q1740.52 235.934 1742.28 236.744 Z" fill="#000000" fill-rule="nonzero" fill-opacity="1" /><path clip-path="url(#clip770)" d="M1766.75 248.411 Q1766.75 243.781 1764.83 241.235 Q1762.93 238.689 1759.48 238.689 Q1756.06 238.689 1754.14 241.235 Q1752.24 243.781 1752.24 248.411 Q1752.24 253.017 1754.14 255.564 Q1756.06 258.11 1759.48 258.11 Q1762.93 258.11 1764.83 255.564 Q1766.75 253.017 1766.75 248.411 M1771.01 258.457 Q1771.01 265.077 1768.07 268.295 Q1765.13 271.536 1759.07 271.536 Q1756.82 271.536 1754.83 271.188 Q1752.84 270.864 1750.96 270.17 L1750.96 266.026 Q1752.84 267.045 1754.67 267.531 Q1756.5 268.017 1758.39 268.017 Q1762.58 268.017 1764.67 265.818 Q1766.75 263.642 1766.75 259.221 L1766.75 257.114 Q1765.43 259.406 1763.37 260.54 Q1761.31 261.675 1758.44 261.675 Q1753.67 261.675 1750.76 258.04 Q1747.84 254.406 1747.84 248.411 Q1747.84 242.392 1750.76 238.758 Q1753.67 235.124 1758.44 235.124 Q1761.31 235.124 1763.37 236.258 Q1765.43 237.392 1766.75 239.684 L1766.75 235.749 L1771.01 235.749 L1771.01 258.457 Z" fill="#000000" fill-rule="nonzero" fill-opacity="1" /></svg>
