<?xml version="1.0" encoding="utf-8"?>
<svg xmlns="http://www.w3.org/2000/svg" xmlns:xlink="http://www.w3.org/1999/xlink" width="500" height="320" viewBox="0 0 2000 1280">
<defs>
  <clipPath id="clip870">
    <rect x="0" y="0" width="2000" height="1280"/>
  </clipPath>
</defs>
<path clip-path="url(#clip870)" d="M0 1280 L2000 1280 L2000 0 L0 0  Z" fill="#ffffff" fill-rule="evenodd" fill-opacity="1"/>
<defs>
  <clipPath id="clip871">
    <rect x="400" y="0" width="1401" height="1280"/>
  </clipPath>
</defs>
<path clip-path="url(#clip870)" d="M245.244 1111.02 L1952.76 1111.02 L1952.76 107.256 L245.244 107.256  Z" fill="#ffffff" fill-rule="evenodd" fill-opacity="1"/>
<defs>
  <clipPath id="clip872">
    <rect x="245" y="107" width="1709" height="1005"/>
  </clipPath>
</defs>
<polyline clip-path="url(#clip872)" style="stroke:#000000; stroke-linecap:round; stroke-linejoin:round; stroke-width:2; stroke-opacity:0.1; fill:none" points="293.57,1111.02 293.57,107.256 "/>
<polyline clip-path="url(#clip872)" style="stroke:#000000; stroke-linecap:round; stroke-linejoin:round; stroke-width:2; stroke-opacity:0.1; fill:none" points="603.351,1111.02 603.351,107.256 "/>
<polyline clip-path="url(#clip872)" style="stroke:#000000; stroke-linecap:round; stroke-linejoin:round; stroke-width:2; stroke-opacity:0.1; fill:none" points="913.132,1111.02 913.132,107.256 "/>
<polyline clip-path="url(#clip872)" style="stroke:#000000; stroke-linecap:round; stroke-linejoin:round; stroke-width:2; stroke-opacity:0.1; fill:none" points="1222.91,1111.02 1222.91,107.256 "/>
<polyline clip-path="url(#clip872)" style="stroke:#000000; stroke-linecap:round; stroke-linejoin:round; stroke-width:2; stroke-opacity:0.1; fill:none" points="1532.69,1111.02 1532.69,107.256 "/>
<polyline clip-path="url(#clip872)" style="stroke:#000000; stroke-linecap:round; stroke-linejoin:round; stroke-width:2; stroke-opacity:0.1; fill:none" points="1842.47,1111.02 1842.47,107.256 "/>
<polyline clip-path="url(#clip872)" style="stroke:#000000; stroke-linecap:round; stroke-linejoin:round; stroke-width:2; stroke-opacity:0.1; fill:none" points="245.244,1080.5 1952.76,1080.5 "/>
<polyline clip-path="url(#clip872)" style="stroke:#000000; stroke-linecap:round; stroke-linejoin:round; stroke-width:2; stroke-opacity:0.1; fill:none" points="245.244,571.233 1952.76,571.233 "/>
<polyline clip-path="url(#clip870)" style="stroke:#000000; stroke-linecap:round; stroke-linejoin:round; stroke-width:4; stroke-opacity:1; fill:none" points="245.244,1111.02 1952.76,1111.02 "/>
<polyline clip-path="url(#clip870)" style="stroke:#000000; stroke-linecap:round; stroke-linejoin:round; stroke-width:4; stroke-opacity:1; fill:none" points="293.57,1111.02 293.57,1092.12 "/>
<polyline clip-path="url(#clip870)" style="stroke:#000000; stroke-linecap:round; stroke-linejoin:round; stroke-width:4; stroke-opacity:1; fill:none" points="603.351,1111.02 603.351,1092.12 "/>
<polyline clip-path="url(#clip870)" style="stroke:#000000; stroke-linecap:round; stroke-linejoin:round; stroke-width:4; stroke-opacity:1; fill:none" points="913.132,1111.02 913.132,1092.12 "/>
<polyline clip-path="url(#clip870)" style="stroke:#000000; stroke-linecap:round; stroke-linejoin:round; stroke-width:4; stroke-opacity:1; fill:none" points="1222.91,1111.02 1222.91,1092.12 "/>
<polyline clip-path="url(#clip870)" style="stroke:#000000; stroke-linecap:round; stroke-linejoin:round; stroke-width:4; stroke-opacity:1; fill:none" points="1532.69,1111.02 1532.69,1092.12 "/>
<polyline clip-path="url(#clip870)" style="stroke:#000000; stroke-linecap:round; stroke-linejoin:round; stroke-width:4; stroke-opacity:1; fill:none" points="1842.47,1111.02 1842.47,1092.12 "/>
<path clip-path="url(#clip870)" d="M293.57 1138.74 Q289.959 1138.74 288.13 1142.3 Q286.325 1145.84 286.325 1152.97 Q286.325 1160.08 288.13 1163.64 Q289.959 1167.19 293.57 1167.19 Q297.204 1167.19 299.01 1163.64 Q300.839 1160.08 300.839 1152.97 Q300.839 1145.84 299.01 1142.3 Q297.204 1138.74 293.57 1138.74 M293.57 1135.03 Q299.38 1135.03 302.436 1139.64 Q305.515 1144.22 305.515 1152.97 Q305.515 1161.7 302.436 1166.31 Q299.38 1170.89 293.57 1170.89 Q287.76 1170.89 284.681 1166.31 Q281.626 1161.7 281.626 1152.97 Q281.626 1144.22 284.681 1139.64 Q287.76 1135.03 293.57 1135.03 Z" fill="#000000" fill-rule="nonzero" fill-opacity="1" /><path clip-path="url(#clip870)" d="M578.05 1135.66 L596.407 1135.66 L596.407 1139.59 L582.333 1139.59 L582.333 1148.07 Q583.351 1147.72 584.37 1147.56 Q585.388 1147.37 586.407 1147.37 Q592.194 1147.37 595.573 1150.54 Q598.953 1153.71 598.953 1159.13 Q598.953 1164.71 595.481 1167.81 Q592.008 1170.89 585.689 1170.89 Q583.513 1170.89 581.245 1170.52 Q578.999 1170.15 576.592 1169.41 L576.592 1164.71 Q578.675 1165.84 580.897 1166.4 Q583.12 1166.95 585.596 1166.95 Q589.601 1166.95 591.939 1164.85 Q594.277 1162.74 594.277 1159.13 Q594.277 1155.52 591.939 1153.41 Q589.601 1151.31 585.596 1151.31 Q583.721 1151.31 581.846 1151.72 Q579.995 1152.14 578.05 1153.02 L578.05 1135.66 Z" fill="#000000" fill-rule="nonzero" fill-opacity="1" /><path clip-path="url(#clip870)" d="M618.166 1138.74 Q614.555 1138.74 612.726 1142.3 Q610.92 1145.84 610.92 1152.97 Q610.92 1160.08 612.726 1163.64 Q614.555 1167.19 618.166 1167.19 Q621.8 1167.19 623.605 1163.64 Q625.434 1160.08 625.434 1152.97 Q625.434 1145.84 623.605 1142.3 Q621.8 1138.74 618.166 1138.74 M618.166 1135.03 Q623.976 1135.03 627.031 1139.64 Q630.11 1144.22 630.11 1152.97 Q630.11 1161.7 627.031 1166.31 Q623.976 1170.89 618.166 1170.89 Q612.356 1170.89 609.277 1166.31 Q606.221 1161.7 606.221 1152.97 Q606.221 1144.22 609.277 1139.64 Q612.356 1135.03 618.166 1135.03 Z" fill="#000000" fill-rule="nonzero" fill-opacity="1" /><path clip-path="url(#clip870)" d="M872.738 1166.28 L880.377 1166.28 L880.377 1139.92 L872.067 1141.58 L872.067 1137.33 L880.331 1135.66 L885.007 1135.66 L885.007 1166.28 L892.646 1166.28 L892.646 1170.22 L872.738 1170.22 L872.738 1166.28 Z" fill="#000000" fill-rule="nonzero" fill-opacity="1" /><path clip-path="url(#clip870)" d="M912.09 1138.74 Q908.479 1138.74 906.65 1142.3 Q904.845 1145.84 904.845 1152.97 Q904.845 1160.08 906.65 1163.64 Q908.479 1167.19 912.09 1167.19 Q915.724 1167.19 917.53 1163.64 Q919.359 1160.08 919.359 1152.97 Q919.359 1145.84 917.53 1142.3 Q915.724 1138.74 912.09 1138.74 M912.09 1135.03 Q917.9 1135.03 920.956 1139.64 Q924.034 1144.22 924.034 1152.97 Q924.034 1161.7 920.956 1166.31 Q917.9 1170.89 912.09 1170.89 Q906.28 1170.89 903.201 1166.31 Q900.146 1161.7 900.146 1152.97 Q900.146 1144.22 903.201 1139.64 Q906.28 1135.03 912.09 1135.03 Z" fill="#000000" fill-rule="nonzero" fill-opacity="1" /><path clip-path="url(#clip870)" d="M942.252 1138.74 Q938.641 1138.74 936.812 1142.3 Q935.007 1145.84 935.007 1152.97 Q935.007 1160.08 936.812 1163.64 Q938.641 1167.19 942.252 1167.19 Q945.886 1167.19 947.692 1163.64 Q949.52 1160.08 949.52 1152.97 Q949.52 1145.84 947.692 1142.3 Q945.886 1138.74 942.252 1138.74 M942.252 1135.03 Q948.062 1135.03 951.118 1139.64 Q954.196 1144.22 954.196 1152.97 Q954.196 1161.7 951.118 1166.31 Q948.062 1170.89 942.252 1170.89 Q936.442 1170.89 933.363 1166.31 Q930.308 1161.7 930.308 1152.97 Q930.308 1144.22 933.363 1139.64 Q936.442 1135.03 942.252 1135.03 Z" fill="#000000" fill-rule="nonzero" fill-opacity="1" /><path clip-path="url(#clip870)" d="M1182.52 1166.28 L1190.16 1166.28 L1190.16 1139.92 L1181.85 1141.58 L1181.85 1137.33 L1190.11 1135.66 L1194.79 1135.66 L1194.79 1166.28 L1202.43 1166.28 L1202.43 1170.22 L1182.52 1170.22 L1182.52 1166.28 Z" fill="#000000" fill-rule="nonzero" fill-opacity="1" /><path clip-path="url(#clip870)" d="M1211.92 1135.66 L1230.27 1135.66 L1230.27 1139.59 L1216.2 1139.59 L1216.2 1148.07 Q1217.22 1147.72 1218.24 1147.56 Q1219.26 1147.37 1220.27 1147.37 Q1226.06 1147.37 1229.44 1150.54 Q1232.82 1153.71 1232.82 1159.13 Q1232.82 1164.71 1229.35 1167.81 Q1225.88 1170.89 1219.56 1170.89 Q1217.38 1170.89 1215.11 1170.52 Q1212.87 1170.15 1210.46 1169.41 L1210.46 1164.71 Q1212.54 1165.84 1214.76 1166.4 Q1216.99 1166.95 1219.46 1166.95 Q1223.47 1166.95 1225.81 1164.85 Q1228.14 1162.74 1228.14 1159.13 Q1228.14 1155.52 1225.81 1153.41 Q1223.47 1151.31 1219.46 1151.31 Q1217.59 1151.31 1215.71 1151.72 Q1213.86 1152.14 1211.92 1153.02 L1211.92 1135.66 Z" fill="#000000" fill-rule="nonzero" fill-opacity="1" /><path clip-path="url(#clip870)" d="M1252.03 1138.74 Q1248.42 1138.74 1246.59 1142.3 Q1244.79 1145.84 1244.79 1152.97 Q1244.79 1160.08 1246.59 1163.64 Q1248.42 1167.19 1252.03 1167.19 Q1255.67 1167.19 1257.47 1163.64 Q1259.3 1160.08 1259.3 1152.97 Q1259.3 1145.84 1257.47 1142.3 Q1255.67 1138.74 1252.03 1138.74 M1252.03 1135.03 Q1257.84 1135.03 1260.9 1139.64 Q1263.98 1144.22 1263.98 1152.97 Q1263.98 1161.7 1260.9 1166.31 Q1257.84 1170.89 1252.03 1170.89 Q1246.22 1170.89 1243.14 1166.31 Q1240.09 1161.7 1240.09 1152.97 Q1240.09 1144.22 1243.14 1139.64 Q1246.22 1135.03 1252.03 1135.03 Z" fill="#000000" fill-rule="nonzero" fill-opacity="1" /><path clip-path="url(#clip870)" d="M1496.39 1166.28 L1512.7 1166.28 L1512.7 1170.22 L1490.76 1170.22 L1490.76 1166.28 Q1493.42 1163.53 1498.01 1158.9 Q1502.61 1154.25 1503.79 1152.9 Q1506.04 1150.38 1506.92 1148.64 Q1507.82 1146.89 1507.82 1145.2 Q1507.82 1142.44 1505.88 1140.7 Q1503.95 1138.97 1500.85 1138.97 Q1498.65 1138.97 1496.2 1139.73 Q1493.77 1140.5 1490.99 1142.05 L1490.99 1137.33 Q1493.82 1136.19 1496.27 1135.61 Q1498.72 1135.03 1500.76 1135.03 Q1506.13 1135.03 1509.33 1137.72 Q1512.52 1140.4 1512.52 1144.89 Q1512.52 1147.02 1511.71 1148.95 Q1510.92 1150.84 1508.82 1153.44 Q1508.24 1154.11 1505.14 1157.33 Q1502.03 1160.52 1496.39 1166.28 Z" fill="#000000" fill-rule="nonzero" fill-opacity="1" /><path clip-path="url(#clip870)" d="M1532.52 1138.74 Q1528.91 1138.74 1527.08 1142.3 Q1525.27 1145.84 1525.27 1152.97 Q1525.27 1160.08 1527.08 1163.64 Q1528.91 1167.19 1532.52 1167.19 Q1536.15 1167.19 1537.96 1163.64 Q1539.79 1160.08 1539.79 1152.97 Q1539.79 1145.84 1537.96 1142.3 Q1536.15 1138.74 1532.52 1138.74 M1532.52 1135.03 Q1538.33 1135.03 1541.39 1139.64 Q1544.46 1144.22 1544.46 1152.97 Q1544.46 1161.7 1541.39 1166.31 Q1538.33 1170.89 1532.52 1170.89 Q1526.71 1170.89 1523.63 1166.31 Q1520.58 1161.7 1520.58 1152.97 Q1520.58 1144.22 1523.63 1139.64 Q1526.71 1135.03 1532.52 1135.03 Z" fill="#000000" fill-rule="nonzero" fill-opacity="1" /><path clip-path="url(#clip870)" d="M1562.68 1138.74 Q1559.07 1138.74 1557.24 1142.3 Q1555.44 1145.84 1555.44 1152.97 Q1555.44 1160.08 1557.24 1163.64 Q1559.07 1167.19 1562.68 1167.19 Q1566.32 1167.19 1568.12 1163.64 Q1569.95 1160.08 1569.95 1152.97 Q1569.95 1145.84 1568.12 1142.3 Q1566.32 1138.74 1562.68 1138.74 M1562.68 1135.03 Q1568.49 1135.03 1571.55 1139.64 Q1574.63 1144.22 1574.63 1152.97 Q1574.63 1161.7 1571.55 1166.31 Q1568.49 1170.89 1562.68 1170.89 Q1556.87 1170.89 1553.79 1166.31 Q1550.74 1161.7 1550.74 1152.97 Q1550.74 1144.22 1553.79 1139.64 Q1556.87 1135.03 1562.68 1135.03 Z" fill="#000000" fill-rule="nonzero" fill-opacity="1" /><path clip-path="url(#clip870)" d="M1806.17 1166.28 L1822.49 1166.28 L1822.49 1170.22 L1800.54 1170.22 L1800.54 1166.28 Q1803.2 1163.53 1807.79 1158.9 Q1812.39 1154.25 1813.57 1152.9 Q1815.82 1150.38 1816.7 1148.64 Q1817.6 1146.89 1817.6 1145.2 Q1817.6 1142.44 1815.66 1140.7 Q1813.74 1138.97 1810.63 1138.97 Q1808.43 1138.97 1805.98 1139.73 Q1803.55 1140.5 1800.77 1142.05 L1800.77 1137.33 Q1803.6 1136.19 1806.05 1135.61 Q1808.5 1135.03 1810.54 1135.03 Q1815.91 1135.03 1819.11 1137.72 Q1822.3 1140.4 1822.3 1144.89 Q1822.3 1147.02 1821.49 1148.95 Q1820.7 1150.84 1818.6 1153.44 Q1818.02 1154.11 1814.92 1157.33 Q1811.81 1160.52 1806.17 1166.28 Z" fill="#000000" fill-rule="nonzero" fill-opacity="1" /><path clip-path="url(#clip870)" d="M1832.35 1135.66 L1850.7 1135.66 L1850.7 1139.59 L1836.63 1139.59 L1836.63 1148.07 Q1837.65 1147.72 1838.67 1147.56 Q1839.68 1147.37 1840.7 1147.37 Q1846.49 1147.37 1849.87 1150.54 Q1853.25 1153.71 1853.25 1159.13 Q1853.25 1164.71 1849.78 1167.81 Q1846.3 1170.89 1839.99 1170.89 Q1837.81 1170.89 1835.54 1170.52 Q1833.3 1170.15 1830.89 1169.41 L1830.89 1164.71 Q1832.97 1165.84 1835.19 1166.4 Q1837.42 1166.95 1839.89 1166.95 Q1843.9 1166.95 1846.24 1164.85 Q1848.57 1162.74 1848.57 1159.13 Q1848.57 1155.52 1846.24 1153.41 Q1843.9 1151.31 1839.89 1151.31 Q1838.02 1151.31 1836.14 1151.72 Q1834.29 1152.14 1832.35 1153.02 L1832.35 1135.66 Z" fill="#000000" fill-rule="nonzero" fill-opacity="1" /><path clip-path="url(#clip870)" d="M1872.46 1138.74 Q1868.85 1138.74 1867.02 1142.3 Q1865.22 1145.84 1865.22 1152.97 Q1865.22 1160.08 1867.02 1163.64 Q1868.85 1167.19 1872.46 1167.19 Q1876.1 1167.19 1877.9 1163.64 Q1879.73 1160.08 1879.73 1152.97 Q1879.73 1145.84 1877.9 1142.3 Q1876.1 1138.74 1872.46 1138.74 M1872.46 1135.03 Q1878.27 1135.03 1881.33 1139.64 Q1884.41 1144.22 1884.41 1152.97 Q1884.41 1161.7 1881.33 1166.31 Q1878.27 1170.89 1872.46 1170.89 Q1866.65 1170.89 1863.57 1166.31 Q1860.52 1161.7 1860.52 1152.97 Q1860.52 1144.22 1863.57 1139.64 Q1866.65 1135.03 1872.46 1135.03 Z" fill="#000000" fill-rule="nonzero" fill-opacity="1" /><g clip-path="url(#clip870)">
<text style="fill:#000000; fill-opacity:1; font-family:Arial,Helvetica Neue,Helvetica,sans-serif; font-size:66px; text-anchor:middle;" transform="rotate(0, 1099, 1252.42)" x="1099" y="1252.42">Krylov dimension</text>
</g>
<polyline clip-path="url(#clip870)" style="stroke:#000000; stroke-linecap:round; stroke-linejoin:round; stroke-width:4; stroke-opacity:1; fill:none" points="245.244,1111.02 245.244,107.256 "/>
<polyline clip-path="url(#clip870)" style="stroke:#000000; stroke-linecap:round; stroke-linejoin:round; stroke-width:4; stroke-opacity:1; fill:none" points="245.244,1080.5 264.142,1080.5 "/>
<polyline clip-path="url(#clip870)" style="stroke:#000000; stroke-linecap:round; stroke-linejoin:round; stroke-width:4; stroke-opacity:1; fill:none" points="245.244,571.233 264.142,571.233 "/>
<path clip-path="url(#clip870)" d="M113.675 1100.29 L121.314 1100.29 L121.314 1073.92 L113.004 1075.59 L113.004 1071.33 L121.268 1069.66 L125.944 1069.66 L125.944 1100.29 L133.583 1100.29 L133.583 1104.22 L113.675 1104.22 L113.675 1100.29 Z" fill="#000000" fill-rule="nonzero" fill-opacity="1" /><path clip-path="url(#clip870)" d="M153.027 1072.74 Q149.416 1072.74 147.587 1076.31 Q145.782 1079.85 145.782 1086.98 Q145.782 1094.08 147.587 1097.65 Q149.416 1101.19 153.027 1101.19 Q156.661 1101.19 158.467 1097.65 Q160.295 1094.08 160.295 1086.98 Q160.295 1079.85 158.467 1076.31 Q156.661 1072.74 153.027 1072.74 M153.027 1069.04 Q158.837 1069.04 161.893 1073.65 Q164.971 1078.23 164.971 1086.98 Q164.971 1095.71 161.893 1100.31 Q158.837 1104.89 153.027 1104.89 Q147.217 1104.89 144.138 1100.31 Q141.082 1095.71 141.082 1086.98 Q141.082 1078.23 144.138 1073.65 Q147.217 1069.04 153.027 1069.04 Z" fill="#000000" fill-rule="nonzero" fill-opacity="1" /><path clip-path="url(#clip870)" d="M164.971 1063.14 L189.083 1063.14 L189.083 1066.34 L164.971 1066.34 L164.971 1063.14 Z" fill="#000000" fill-rule="nonzero" fill-opacity="1" /><path clip-path="url(#clip870)" d="M205.878 1061.26 Q203.32 1061.26 201.816 1063.01 Q200.33 1064.76 200.33 1067.8 Q200.33 1070.83 201.816 1072.6 Q203.32 1074.35 205.878 1074.35 Q208.436 1074.35 209.922 1072.6 Q211.426 1070.83 211.426 1067.8 Q211.426 1064.76 209.922 1063.01 Q208.436 1061.26 205.878 1061.26 M213.42 1049.35 L213.42 1052.81 Q211.991 1052.14 210.524 1051.78 Q209.075 1051.42 207.646 1051.42 Q203.885 1051.42 201.891 1053.96 Q199.916 1056.5 199.634 1061.64 Q200.744 1060 202.417 1059.13 Q204.091 1058.25 206.104 1058.25 Q210.336 1058.25 212.781 1060.83 Q215.244 1063.38 215.244 1067.8 Q215.244 1072.13 212.687 1074.74 Q210.129 1077.36 205.878 1077.36 Q201.007 1077.36 198.43 1073.63 Q195.854 1069.89 195.854 1062.8 Q195.854 1056.14 199.013 1052.19 Q202.173 1048.23 207.496 1048.23 Q208.925 1048.23 210.373 1048.51 Q211.84 1048.79 213.42 1049.35 Z" fill="#000000" fill-rule="nonzero" fill-opacity="1" /><path clip-path="url(#clip870)" d="M114.333 591.026 L121.972 591.026 L121.972 564.66 L113.662 566.327 L113.662 562.068 L121.926 560.401 L126.602 560.401 L126.602 591.026 L134.241 591.026 L134.241 594.961 L114.333 594.961 L114.333 591.026 Z" fill="#000000" fill-rule="nonzero" fill-opacity="1" /><path clip-path="url(#clip870)" d="M153.685 563.48 Q150.074 563.48 148.245 567.044 Q146.44 570.586 146.44 577.716 Q146.44 584.822 148.245 588.387 Q150.074 591.929 153.685 591.929 Q157.319 591.929 159.125 588.387 Q160.954 584.822 160.954 577.716 Q160.954 570.586 159.125 567.044 Q157.319 563.48 153.685 563.48 M153.685 559.776 Q159.495 559.776 162.551 564.382 Q165.629 568.966 165.629 577.716 Q165.629 586.443 162.551 591.049 Q159.495 595.632 153.685 595.632 Q147.875 595.632 144.796 591.049 Q141.741 586.443 141.741 577.716 Q141.741 568.966 144.796 564.382 Q147.875 559.776 153.685 559.776 Z" fill="#000000" fill-rule="nonzero" fill-opacity="1" /><path clip-path="url(#clip870)" d="M165.629 553.877 L189.741 553.877 L189.741 557.075 L165.629 557.075 L165.629 553.877 Z" fill="#000000" fill-rule="nonzero" fill-opacity="1" /><path clip-path="url(#clip870)" d="M209.452 552.41 Q212.179 552.993 213.702 554.837 Q215.244 556.68 215.244 559.388 Q215.244 563.545 212.386 565.82 Q209.527 568.096 204.261 568.096 Q202.493 568.096 200.612 567.739 Q198.75 567.4 196.756 566.704 L196.756 563.037 Q198.336 563.958 200.217 564.429 Q202.098 564.899 204.148 564.899 Q207.721 564.899 209.583 563.488 Q211.464 562.078 211.464 559.388 Q211.464 556.905 209.715 555.514 Q207.985 554.103 204.881 554.103 L201.609 554.103 L201.609 550.981 L205.032 550.981 Q207.834 550.981 209.32 549.871 Q210.806 548.743 210.806 546.636 Q210.806 544.473 209.264 543.326 Q207.74 542.16 204.881 542.16 Q203.32 542.16 201.534 542.499 Q199.747 542.837 197.603 543.552 L197.603 540.166 Q199.766 539.565 201.646 539.264 Q203.546 538.963 205.22 538.963 Q209.546 538.963 212.066 540.938 Q214.586 542.894 214.586 546.241 Q214.586 548.574 213.251 550.191 Q211.915 551.79 209.452 552.41 Z" fill="#000000" fill-rule="nonzero" fill-opacity="1" /><g clip-path="url(#clip870)">
<text style="fill:#000000; fill-opacity:1; font-family:Arial,Helvetica Neue,Helvetica,sans-serif; font-size:66px; text-anchor:middle;" transform="rotate(-90, 71.4418, 609.137)" x="71.4418" y="609.137">relative residual norm</text>
</g>
<g clip-path="url(#clip870)">
<text style="fill:#000000; fill-opacity:1; font-family:Arial,Helvetica Neue,Helvetica,sans-serif; font-size:66px; text-anchor:middle;" transform="rotate(0, 1099, 57.6)" x="1099" y="57.6">Convergence of MINRES and CG</text>
</g>
<polyline clip-path="url(#clip872)" style="stroke:#009af9; stroke-linecap:round; stroke-linejoin:round; stroke-width:8; stroke-opacity:1; fill:none" points="293.57,140.347 299.766,187.259 305.961,221.423 312.157,248.244 318.353,269.899 324.548,288.546 330.744,304.947 336.939,319.556 343.135,332.838 349.331,344.741 355.526,356.534 361.722,366.724 367.918,375.708 374.113,384.308 380.309,392.154 386.504,399.874 392.7,407.474 398.896,414.687 405.091,421.322 411.287,427.671 417.482,433.647 423.678,439.48 429.874,444.872 436.069,450.427 442.265,455.53 448.461,460.31 454.656,465.097 460.852,469.812 467.047,474.256 473.243,478.867 479.439,483.042 485.634,487.151 491.83,491.312 498.025,495.044 504.221,499.043 510.417,503.047 516.612,506.892 522.808,510.651 529.004,514.239 535.199,517.837 541.395,521.558 547.59,525.021 553.786,528.408 559.982,532.034 566.177,535.227 572.373,538.602 578.568,541.99 584.764,545.268 590.96,548.394 597.155,551.455 603.351,554.712 609.547,557.831 615.742,561.023 621.938,563.971 628.133,566.949 634.329,569.915 640.525,573.001 646.72,576.117 652.916,579.035 659.111,582.214 665.307,585.319 671.503,588.462 677.698,591.421 683.894,594.303 690.09,597.306 696.285,600.312 702.481,603.295 708.676,606.197 714.872,609.218 721.068,612.013 727.263,614.847 733.459,617.772 739.654,620.643 745.85,623.667 752.046,626.66 758.241,629.67 764.437,632.588 770.633,635.544 776.828,638.284 783.024,641.159 789.219,644.018 795.415,646.97 801.611,649.832 807.806,652.799 814.002,655.629 820.197,658.541 826.393,661.387 832.589,664.193 838.784,667.071 844.98,670.078 851.176,673.012 857.371,675.797 863.567,678.634 869.762,681.574 875.958,684.422 882.154,687.248 888.349,690.129 894.545,693.001 900.74,695.905 906.936,698.734 913.132,701.718 919.327,704.493 925.523,707.472 931.719,710.348 937.914,713.245 944.11,716.127 950.305,718.939 956.501,721.746 962.697,724.607 968.892,727.52 975.088,730.547 981.283,733.466 987.479,736.419 993.675,739.248 999.87,742.036 1006.07,744.909 1012.26,747.73 1018.46,750.68 1024.65,753.584 1030.85,756.56 1037.04,759.516 1043.24,762.532 1049.44,765.359 1055.63,768.19 1061.83,771.153 1068.02,774.108 1074.22,777.166 1080.41,779.934 1086.61,782.786 1092.8,785.804 1099,788.707 1105.2,791.625 1111.39,794.526 1117.59,797.433 1123.78,800.336 1129.98,803.312 1136.17,806.356 1142.37,809.295 1148.57,812.358 1154.76,815.247 1160.96,818.274 1167.15,821.179 1173.35,824.113 1179.54,827.104 1185.74,829.978 1191.93,832.958 1198.13,836.02 1204.33,838.908 1210.52,841.901 1216.72,844.947 1222.91,847.91 1229.11,850.845 1235.3,853.816 1241.5,856.675 1247.69,859.662 1253.89,862.556 1260.09,865.548 1266.28,868.63 1272.48,871.655 1278.67,874.657 1284.87,877.876 1291.06,880.826 1297.26,883.719 1303.46,886.713 1309.65,889.511 1315.85,892.545 1322.04,895.577 1328.24,898.608 1334.43,901.529 1340.63,904.512 1346.82,907.626 1353.02,910.491 1359.22,913.573 1365.41,916.511 1371.61,919.578 1377.8,922.587 1384,925.508 1390.19,928.504 1396.39,931.455 1402.59,934.476 1408.78,937.37 1414.98,940.33 1421.17,943.259 1427.37,946.305 1433.56,949.307 1439.76,952.231 1445.95,955.275 1452.15,958.192 1458.35,961.203 1464.54,964.068 1470.74,967.16 1476.93,970.182 1483.13,973.008 1489.32,976.096 1495.52,978.879 1501.72,981.737 1507.91,984.781 1514.11,987.673 1520.3,990.657 1526.5,993.731 1532.69,996.796 1538.89,999.806 1545.08,1002.84 1551.28,1005.84 1557.48,1008.86 1563.67,1011.9 1569.87,1014.88 1576.06,1017.82 1582.26,1020.86 1588.45,1023.79 1594.65,1026.85 1600.84,1029.9 1607.04,1032.91 1613.24,1035.88 1619.43,1038.66 1625.63,1041.47 1631.82,1044.48 1638.02,1047.3 1644.21,1050.18 1650.41,1052.94 1656.61,1055.91 1662.8,1058.91 1669,1061.96 1675.19,1064.94 1681.39,1067.87 1687.58,1070.85 1693.78,1073.82 1699.97,1076.77 1706.17,1079.72 1712.37,1082.61 "/>
<polyline clip-path="url(#clip872)" style="stroke:#e26f46; stroke-linecap:round; stroke-linejoin:round; stroke-width:8; stroke-opacity:1; fill:none" points="293.57,135.664 299.766,175.145 305.961,202.85 312.157,223.921 318.353,239.993 324.548,254.494 330.744,267.198 336.939,278.375 343.135,288.771 349.331,297.279 355.526,308.785 361.722,314.353 367.918,319.27 374.113,326.441 380.309,331.268 386.504,338.456 392.7,345.534 398.896,351.007 405.091,354.846 411.287,359.703 417.482,363.635 423.678,368.644 429.874,371.351 436.069,377.921 442.265,380.124 448.461,382.649 454.656,387.484 460.852,391.675 467.047,394.068 473.243,399.96 479.439,400.689 485.634,404.243 491.83,408.841 498.025,408.77 504.221,415.187 510.417,419.239 516.612,421.665 522.808,424.628 529.004,426.589 535.199,430.286 541.395,435.177 547.59,436.122 553.786,438.736 559.982,444.745 566.177,443.479 572.373,448.798 578.568,452.324 584.764,454.431 590.96,455.889 597.155,458.217 603.351,463.649 609.547,465.252 615.742,469.254 621.938,469.39 628.133,472.728 634.329,475.55 640.525,480.046 646.72,483.493 652.916,484.099 659.111,490.306 665.307,492.578 671.503,496.144 677.698,496.971 683.894,498.918 690.09,503.39 696.285,506.418 702.481,509.14 708.676,511.053 714.872,515.51 721.068,515.542 727.263,518.872 733.459,522.917 739.654,525.126 745.85,529.992 752.046,532.615 758.241,535.831 764.437,537.641 770.633,541.07 776.828,541.107 783.024,545.693 789.219,548.353 795.415,552.436 801.611,554.204 807.806,558.459 814.002,559.595 820.197,563.527 826.393,565.564 832.589,567.87 838.784,571.641 844.98,576.195 851.176,578.261 857.371,579.209 863.567,582.699 869.762,586.9 875.958,588.617 882.154,591.175 888.349,594.739 894.545,597.487 900.74,600.799 906.936,602.69 913.132,607.577 919.327,607.765 925.523,613.263 931.719,614.896 937.914,618.051 944.11,620.751 950.305,622.684 956.501,625.435 962.697,628.963 968.892,632.512 975.088,636.908 981.283,638.536 987.479,641.902 993.675,643.216 999.87,645.478 1006.07,649.412 1012.26,651.591 1018.46,656.125 1024.65,658.474 1030.85,662.322 1037.04,665.026 1043.24,668.767 1049.44,669.295 1055.63,672.173 1061.83,676.754 1068.02,679.61 1074.22,683.884 1080.41,683.126 1086.61,687.042 1092.8,692.049 1099,693.58 1105.2,696.687 1111.39,699.38 1117.59,702.362 1123.78,705.209 1129.98,709.076 1136.17,712.903 1142.37,714.615 1148.57,719.125 1154.76,719.954 1160.96,724.634 1167.15,726.085 1173.35,729.356 1179.54,733.041 1185.74,734.508 1191.93,738.758 1198.13,742.776 1204.33,743.603 1210.52,747.866 1216.72,751.522 1222.91,753.507 1229.11,756.11 1235.3,759.521 1241.5,761.007 1247.69,765.555 1253.89,767.315 1260.09,771.498 1266.28,775.625 1272.48,777.983 1278.67,780.728 1284.87,786.406 1291.06,786.267 1297.26,788.482 1303.46,792.674 1309.65,793.086 1315.85,798.98 1322.04,801.994 1328.24,805.009 1334.43,806.625 1340.63,810.361 1346.82,814.982 1353.02,814.894 1359.22,820.568 1365.41,821.821 1371.61,826.393 1377.8,828.729 1384,830.608 1390.19,834.499 1396.39,836.91 1402.59,840.763 1408.78,842.142 1414.98,845.892 1421.17,848.456 1427.37,852.883 1433.56,855.371 1439.76,857.355 1445.95,861.835 1452.15,863.236 1458.35,867.371 1464.54,868.479 1470.74,874.274 1476.93,876.483 1483.13,876.921 1489.32,883.164 1495.52,882.26 1501.72,886.058 1507.91,891.342 1514.11,892.406 1520.3,896.511 1526.5,900.64 1532.69,903.592 1538.89,905.956 1545.08,909.231 1551.28,911.957 1557.48,915.124 1563.67,918.357 1569.87,920.784 1576.06,923.114 1582.26,927.408 1588.45,928.962 1594.65,933.722 1600.84,936.599 1607.04,939.179 1613.24,941.754 1619.43,942.221 1625.63,945.278 1631.82,950.683 1638.02,951.13 1644.21,954.662 1650.41,955.865 1656.61,961.495 1662.8,964.832 1669,968.576 1675.19,970.753 1681.39,973.117 1687.58,976.641 1693.78,979.443 1699.97,982.16 1706.17,985.193 1712.37,987.252 1718.56,990.518 1724.76,994.513 1730.95,998.332 1737.15,1000.65 1743.34,1002.59 1749.54,1004.44 1755.74,1006.09 1761.93,1011.77 1768.13,1013.51 1774.32,1019.32 1780.52,1020.42 1786.71,1024.24 1792.91,1025.96 1799.1,1030.18 1805.3,1031.66 1811.5,1033.75 1817.69,1039.04 1823.89,1041.9 1830.08,1044.81 1836.28,1047.99 1842.47,1051.29 1848.67,1054.36 1854.87,1055.21 1861.06,1059.91 1867.26,1058.93 1873.45,1064.29 1879.65,1067.84 1885.84,1072.04 1892.04,1073.91 1898.23,1077.35 1904.43,1080.7 "/>
<path clip-path="url(#clip870)" d="M1570 296.235 L1895.84 296.235 L1895.84 140.715 L1570 140.715  Z" fill="#ffffff" fill-rule="evenodd" fill-opacity="1"/>
<polyline clip-path="url(#clip870)" style="stroke:#000000; stroke-linecap:round; stroke-linejoin:round; stroke-width:4; stroke-opacity:1; fill:none" points="1570,296.235 1895.84,296.235 1895.84,140.715 1570,140.715 1570,296.235 "/>
<polyline clip-path="url(#clip870)" style="stroke:#009af9; stroke-linecap:round; stroke-linejoin:round; stroke-width:8; stroke-opacity:1; fill:none" points="1588.97,192.555 1702.8,192.555 "/>
<path clip-path="url(#clip870)" d="M1742.12 188.886 Q1743.72 186.015 1745.94 184.65 Q1748.16 183.284 1751.17 183.284 Q1755.22 183.284 1757.42 186.131 Q1759.62 188.955 1759.62 194.187 L1759.62 209.835 L1755.34 209.835 L1755.34 194.325 Q1755.34 190.599 1754.02 188.793 Q1752.7 186.988 1749.99 186.988 Q1746.68 186.988 1744.76 189.187 Q1742.84 191.386 1742.84 195.182 L1742.84 209.835 L1738.56 209.835 L1738.56 194.325 Q1738.56 190.575 1737.24 188.793 Q1735.92 186.988 1733.16 186.988 Q1729.9 186.988 1727.98 189.21 Q1726.06 191.409 1726.06 195.182 L1726.06 209.835 L1721.77 209.835 L1721.77 183.909 L1726.06 183.909 L1726.06 187.937 Q1727.52 185.552 1729.55 184.418 Q1731.59 183.284 1734.39 183.284 Q1737.21 183.284 1739.18 184.719 Q1741.17 186.154 1742.12 188.886 Z" fill="#000000" fill-rule="nonzero" fill-opacity="1" /><path clip-path="url(#clip870)" d="M1768.12 183.909 L1772.38 183.909 L1772.38 209.835 L1768.12 209.835 L1768.12 183.909 M1768.12 173.816 L1772.38 173.816 L1772.38 179.21 L1768.12 179.21 L1768.12 173.816 Z" fill="#000000" fill-rule="nonzero" fill-opacity="1" /><path clip-path="url(#clip870)" d="M1802.84 194.187 L1802.84 209.835 L1798.58 209.835 L1798.58 194.325 Q1798.58 190.645 1797.14 188.816 Q1795.71 186.988 1792.84 186.988 Q1789.39 186.988 1787.4 189.187 Q1785.41 191.386 1785.41 195.182 L1785.41 209.835 L1781.13 209.835 L1781.13 183.909 L1785.41 183.909 L1785.41 187.937 Q1786.94 185.599 1789 184.441 Q1791.08 183.284 1793.79 183.284 Q1798.26 183.284 1800.55 186.062 Q1802.84 188.816 1802.84 194.187 Z" fill="#000000" fill-rule="nonzero" fill-opacity="1" /><path clip-path="url(#clip870)" d="M1826.36 187.89 Q1825.64 187.474 1824.78 187.288 Q1823.95 187.08 1822.93 187.08 Q1819.32 187.08 1817.38 189.441 Q1815.45 191.779 1815.45 196.177 L1815.45 209.835 L1811.17 209.835 L1811.17 183.909 L1815.45 183.909 L1815.45 187.937 Q1816.8 185.576 1818.95 184.441 Q1821.1 183.284 1824.18 183.284 Q1824.62 183.284 1825.15 183.353 Q1825.69 183.4 1826.33 183.515 L1826.36 187.89 Z" fill="#000000" fill-rule="nonzero" fill-opacity="1" /><path clip-path="url(#clip870)" d="M1851.96 195.807 L1851.96 197.89 L1832.38 197.89 Q1832.65 202.288 1835.01 204.603 Q1837.4 206.895 1841.64 206.895 Q1844.09 206.895 1846.38 206.293 Q1848.7 205.691 1850.96 204.487 L1850.96 208.515 Q1848.67 209.487 1846.26 209.997 Q1843.86 210.506 1841.38 210.506 Q1835.18 210.506 1831.54 206.895 Q1827.93 203.284 1827.93 197.126 Q1827.93 190.761 1831.36 187.034 Q1834.81 183.284 1840.64 183.284 Q1845.87 183.284 1848.9 186.663 Q1851.96 190.02 1851.96 195.807 M1847.7 194.557 Q1847.65 191.062 1845.73 188.978 Q1843.83 186.895 1840.69 186.895 Q1837.12 186.895 1834.97 188.909 Q1832.84 190.923 1832.51 194.58 L1847.7 194.557 Z" fill="#000000" fill-rule="nonzero" fill-opacity="1" /><path clip-path="url(#clip870)" d="M1875.48 184.673 L1875.48 188.7 Q1873.67 187.775 1871.73 187.312 Q1869.78 186.849 1867.7 186.849 Q1864.53 186.849 1862.93 187.821 Q1861.36 188.793 1861.36 190.738 Q1861.36 192.219 1862.49 193.075 Q1863.63 193.909 1867.05 194.673 L1868.51 194.997 Q1873.05 195.969 1874.95 197.751 Q1876.87 199.511 1876.87 202.682 Q1876.87 206.293 1874 208.399 Q1871.15 210.506 1866.15 210.506 Q1864.07 210.506 1861.8 210.089 Q1859.55 209.696 1857.05 208.886 L1857.05 204.487 Q1859.41 205.714 1861.7 206.339 Q1864 206.941 1866.24 206.941 Q1869.25 206.941 1870.87 205.923 Q1872.49 204.881 1872.49 203.006 Q1872.49 201.27 1871.31 200.344 Q1870.15 199.418 1866.2 198.562 L1864.71 198.214 Q1860.76 197.381 1859 195.668 Q1857.24 193.932 1857.24 190.923 Q1857.24 187.265 1859.83 185.275 Q1862.42 183.284 1867.19 183.284 Q1869.55 183.284 1871.64 183.631 Q1873.72 183.978 1875.48 184.673 Z" fill="#000000" fill-rule="nonzero" fill-opacity="1" /><polyline clip-path="url(#clip870)" style="stroke:#e26f46; stroke-linecap:round; stroke-linejoin:round; stroke-width:8; stroke-opacity:1; fill:none" points="1588.97,244.395 1702.8,244.395 "/>
<path clip-path="url(#clip870)" d="M1742.28 236.744 L1742.28 240.726 Q1740.48 239.73 1738.65 239.244 Q1736.84 238.735 1734.99 238.735 Q1730.85 238.735 1728.56 241.374 Q1726.27 243.99 1726.27 248.735 Q1726.27 253.48 1728.56 256.119 Q1730.85 258.735 1734.99 258.735 Q1736.84 258.735 1738.65 258.249 Q1740.48 257.739 1742.28 256.744 L1742.28 260.679 Q1740.5 261.513 1738.58 261.929 Q1736.68 262.346 1734.53 262.346 Q1728.67 262.346 1725.22 258.665 Q1721.77 254.985 1721.77 248.735 Q1721.77 242.392 1725.25 238.758 Q1728.74 235.124 1734.81 235.124 Q1736.77 235.124 1738.65 235.541 Q1740.52 235.934 1742.28 236.744 Z" fill="#000000" fill-rule="nonzero" fill-opacity="1" /><path clip-path="url(#clip870)" d="M1766.75 248.411 Q1766.75 243.781 1764.83 241.235 Q1762.93 238.689 1759.48 238.689 Q1756.06 238.689 1754.14 241.235 Q1752.24 243.781 1752.24 248.411 Q1752.24 253.017 1754.14 255.564 Q1756.06 258.11 1759.48 258.11 Q1762.93 258.11 1764.83 255.564 Q1766.75 253.017 1766.75 248.411 M1771.01 258.457 Q1771.01 265.077 1768.07 268.295 Q1765.13 271.536 1759.07 271.536 Q1756.82 271.536 1754.83 271.188 Q1752.84 270.864 1750.96 270.17 L1750.96 266.026 Q1752.84 267.045 1754.67 267.531 Q1756.5 268.017 1758.39 268.017 Q1762.58 268.017 1764.67 265.818 Q1766.75 263.642 1766.75 259.221 L1766.75 257.114 Q1765.43 259.406 1763.37 260.54 Q1761.31 261.675 1758.44 261.675 Q1753.67 261.675 1750.76 258.04 Q1747.84 254.406 1747.84 248.411 Q1747.84 242.392 1750.76 238.758 Q1753.67 235.124 1758.44 235.124 Q1761.31 235.124 1763.37 236.258 Q1765.43 237.392 1766.75 239.684 L1766.75 235.749 L1771.01 235.749 L1771.01 258.457 Z" fill="#000000" fill-rule="nonzero" fill-opacity="1" /></svg>
