<?xml version="1.0" encoding="utf-8"?>
<svg xmlns="http://www.w3.org/2000/svg" xmlns:xlink="http://www.w3.org/1999/xlink" width="500" height="320" viewBox="0 0 2000 1280">
<defs>
  <clipPath id="clip950">
    <rect x="0" y="0" width="2000" height="1280"/>
  </clipPath>
</defs>
<path clip-path="url(#clip950)" d="M0 1280 L2000 1280 L2000 0 L0 0  Z" fill="#ffffff" fill-rule="evenodd" fill-opacity="1"/>
<defs>
  <clipPath id="clip951">
    <rect x="400" y="0" width="1401" height="1280"/>
  </clipPath>
</defs>
<path clip-path="url(#clip950)" d="M108.177 1171.03 L1952.76 1171.03 L1952.76 107.256 L108.177 107.256  Z" fill="#ffffff" fill-rule="evenodd" fill-opacity="1"/>
<defs>
  <clipPath id="clip952">
    <rect x="108" y="107" width="1846" height="1065"/>
  </clipPath>
</defs>
<polyline clip-path="url(#clip952)" style="stroke:#000000; stroke-linecap:round; stroke-linejoin:round; stroke-width:2; stroke-opacity:0.1; fill:none" points="156.242,1171.03 156.242,107.256 "/>
<polyline clip-path="url(#clip952)" style="stroke:#000000; stroke-linecap:round; stroke-linejoin:round; stroke-width:2; stroke-opacity:0.1; fill:none" points="528.686,1171.03 528.686,107.256 "/>
<polyline clip-path="url(#clip952)" style="stroke:#000000; stroke-linecap:round; stroke-linejoin:round; stroke-width:2; stroke-opacity:0.1; fill:none" points="901.13,1171.03 901.13,107.256 "/>
<polyline clip-path="url(#clip952)" style="stroke:#000000; stroke-linecap:round; stroke-linejoin:round; stroke-width:2; stroke-opacity:0.1; fill:none" points="1273.57,1171.03 1273.57,107.256 "/>
<polyline clip-path="url(#clip952)" style="stroke:#000000; stroke-linecap:round; stroke-linejoin:round; stroke-width:2; stroke-opacity:0.1; fill:none" points="1646.02,1171.03 1646.02,107.256 "/>
<polyline clip-path="url(#clip952)" style="stroke:#000000; stroke-linecap:round; stroke-linejoin:round; stroke-width:2; stroke-opacity:0.1; fill:none" points="108.177,1140.92 1952.76,1140.92 "/>
<polyline clip-path="url(#clip952)" style="stroke:#000000; stroke-linecap:round; stroke-linejoin:round; stroke-width:2; stroke-opacity:0.1; fill:none" points="108.177,954.701 1952.76,954.701 "/>
<polyline clip-path="url(#clip952)" style="stroke:#000000; stroke-linecap:round; stroke-linejoin:round; stroke-width:2; stroke-opacity:0.1; fill:none" points="108.177,768.479 1952.76,768.479 "/>
<polyline clip-path="url(#clip952)" style="stroke:#000000; stroke-linecap:round; stroke-linejoin:round; stroke-width:2; stroke-opacity:0.1; fill:none" points="108.177,582.257 1952.76,582.257 "/>
<polyline clip-path="url(#clip952)" style="stroke:#000000; stroke-linecap:round; stroke-linejoin:round; stroke-width:2; stroke-opacity:0.1; fill:none" points="108.177,396.035 1952.76,396.035 "/>
<polyline clip-path="url(#clip952)" style="stroke:#000000; stroke-linecap:round; stroke-linejoin:round; stroke-width:2; stroke-opacity:0.1; fill:none" points="108.177,209.814 1952.76,209.814 "/>
<polyline clip-path="url(#clip950)" style="stroke:#000000; stroke-linecap:round; stroke-linejoin:round; stroke-width:4; stroke-opacity:1; fill:none" points="108.177,1171.03 1952.76,1171.03 "/>
<polyline clip-path="url(#clip950)" style="stroke:#000000; stroke-linecap:round; stroke-linejoin:round; stroke-width:4; stroke-opacity:1; fill:none" points="156.242,1171.03 156.242,1152.13 "/>
<polyline clip-path="url(#clip950)" style="stroke:#000000; stroke-linecap:round; stroke-linejoin:round; stroke-width:4; stroke-opacity:1; fill:none" points="528.686,1171.03 528.686,1152.13 "/>
<polyline clip-path="url(#clip950)" style="stroke:#000000; stroke-linecap:round; stroke-linejoin:round; stroke-width:4; stroke-opacity:1; fill:none" points="901.13,1171.03 901.13,1152.13 "/>
<polyline clip-path="url(#clip950)" style="stroke:#000000; stroke-linecap:round; stroke-linejoin:round; stroke-width:4; stroke-opacity:1; fill:none" points="1273.57,1171.03 1273.57,1152.13 "/>
<polyline clip-path="url(#clip950)" style="stroke:#000000; stroke-linecap:round; stroke-linejoin:round; stroke-width:4; stroke-opacity:1; fill:none" points="1646.02,1171.03 1646.02,1152.13 "/>
<path clip-path="url(#clip950)" d="M126.184 1213.4 L155.86 1213.4 L155.86 1217.34 L126.184 1217.34 L126.184 1213.4 Z" fill="#000000" fill-rule="nonzero" fill-opacity="1" /><path clip-path="url(#clip950)" d="M169.981 1226.3 L186.3 1226.3 L186.3 1230.23 L164.356 1230.23 L164.356 1226.3 Q167.018 1223.54 171.601 1218.91 Q176.207 1214.26 177.388 1212.92 Q179.633 1210.39 180.513 1208.66 Q181.416 1206.9 181.416 1205.21 Q181.416 1202.45 179.471 1200.72 Q177.55 1198.98 174.448 1198.98 Q172.249 1198.98 169.795 1199.74 Q167.365 1200.51 164.587 1202.06 L164.587 1197.34 Q167.411 1196.2 169.865 1195.62 Q172.318 1195.05 174.356 1195.05 Q179.726 1195.05 182.92 1197.73 Q186.115 1200.42 186.115 1204.91 Q186.115 1207.04 185.305 1208.96 Q184.517 1210.86 182.411 1213.45 Q181.832 1214.12 178.73 1217.34 Q175.629 1220.53 169.981 1226.3 Z" fill="#000000" fill-rule="nonzero" fill-opacity="1" /><path clip-path="url(#clip950)" d="M528.686 1198.75 Q525.075 1198.75 523.246 1202.31 Q521.441 1205.86 521.441 1212.98 Q521.441 1220.09 523.246 1223.66 Q525.075 1227.2 528.686 1227.2 Q532.32 1227.2 534.126 1223.66 Q535.955 1220.09 535.955 1212.98 Q535.955 1205.86 534.126 1202.31 Q532.32 1198.75 528.686 1198.75 M528.686 1195.05 Q534.496 1195.05 537.552 1199.65 Q540.631 1204.24 540.631 1212.98 Q540.631 1221.71 537.552 1226.32 Q534.496 1230.9 528.686 1230.9 Q522.876 1230.9 519.797 1226.32 Q516.742 1221.71 516.742 1212.98 Q516.742 1204.24 519.797 1199.65 Q522.876 1195.05 528.686 1195.05 Z" fill="#000000" fill-rule="nonzero" fill-opacity="1" /><path clip-path="url(#clip950)" d="M895.783 1226.3 L912.102 1226.3 L912.102 1230.23 L890.158 1230.23 L890.158 1226.3 Q892.82 1223.54 897.403 1218.91 Q902.01 1214.26 903.19 1212.92 Q905.436 1210.39 906.315 1208.66 Q907.218 1206.9 907.218 1205.21 Q907.218 1202.45 905.274 1200.72 Q903.352 1198.98 900.251 1198.98 Q898.051 1198.98 895.598 1199.74 Q893.167 1200.51 890.389 1202.06 L890.389 1197.34 Q893.214 1196.2 895.667 1195.62 Q898.121 1195.05 900.158 1195.05 Q905.528 1195.05 908.723 1197.73 Q911.917 1200.42 911.917 1204.91 Q911.917 1207.04 911.107 1208.96 Q910.32 1210.86 908.213 1213.45 Q907.635 1214.12 904.533 1217.34 Q901.431 1220.53 895.783 1226.3 Z" fill="#000000" fill-rule="nonzero" fill-opacity="1" /><path clip-path="url(#clip950)" d="M1276.58 1199.74 L1264.78 1218.19 L1276.58 1218.19 L1276.58 1199.74 M1275.36 1195.67 L1281.24 1195.67 L1281.24 1218.19 L1286.17 1218.19 L1286.17 1222.08 L1281.24 1222.08 L1281.24 1230.23 L1276.58 1230.23 L1276.58 1222.08 L1260.98 1222.08 L1260.98 1217.57 L1275.36 1195.67 Z" fill="#000000" fill-rule="nonzero" fill-opacity="1" /><path clip-path="url(#clip950)" d="M1646.42 1211.09 Q1643.28 1211.09 1641.42 1213.24 Q1639.59 1215.39 1639.59 1219.14 Q1639.59 1222.87 1641.42 1225.05 Q1643.28 1227.2 1646.42 1227.2 Q1649.57 1227.2 1651.4 1225.05 Q1653.25 1222.87 1653.25 1219.14 Q1653.25 1215.39 1651.4 1213.24 Q1649.57 1211.09 1646.42 1211.09 M1655.71 1196.43 L1655.71 1200.69 Q1653.95 1199.86 1652.14 1199.42 Q1650.36 1198.98 1648.6 1198.98 Q1643.97 1198.98 1641.52 1202.11 Q1639.09 1205.23 1638.74 1211.55 Q1640.1 1209.54 1642.16 1208.47 Q1644.22 1207.38 1646.7 1207.38 Q1651.91 1207.38 1654.92 1210.55 Q1657.95 1213.7 1657.95 1219.14 Q1657.95 1224.47 1654.8 1227.68 Q1651.65 1230.9 1646.42 1230.9 Q1640.43 1230.9 1637.26 1226.32 Q1634.09 1221.71 1634.09 1212.98 Q1634.09 1204.79 1637.97 1199.93 Q1641.86 1195.05 1648.41 1195.05 Q1650.17 1195.05 1651.96 1195.39 Q1653.76 1195.74 1655.71 1196.43 Z" fill="#000000" fill-rule="nonzero" fill-opacity="1" /><polyline clip-path="url(#clip950)" style="stroke:#000000; stroke-linecap:round; stroke-linejoin:round; stroke-width:4; stroke-opacity:1; fill:none" points="108.177,1171.03 108.177,107.256 "/>
<polyline clip-path="url(#clip950)" style="stroke:#000000; stroke-linecap:round; stroke-linejoin:round; stroke-width:4; stroke-opacity:1; fill:none" points="108.177,1140.92 127.075,1140.92 "/>
<polyline clip-path="url(#clip950)" style="stroke:#000000; stroke-linecap:round; stroke-linejoin:round; stroke-width:4; stroke-opacity:1; fill:none" points="108.177,954.701 127.075,954.701 "/>
<polyline clip-path="url(#clip950)" style="stroke:#000000; stroke-linecap:round; stroke-linejoin:round; stroke-width:4; stroke-opacity:1; fill:none" points="108.177,768.479 127.075,768.479 "/>
<polyline clip-path="url(#clip950)" style="stroke:#000000; stroke-linecap:round; stroke-linejoin:round; stroke-width:4; stroke-opacity:1; fill:none" points="108.177,582.257 127.075,582.257 "/>
<polyline clip-path="url(#clip950)" style="stroke:#000000; stroke-linecap:round; stroke-linejoin:round; stroke-width:4; stroke-opacity:1; fill:none" points="108.177,396.035 127.075,396.035 "/>
<polyline clip-path="url(#clip950)" style="stroke:#000000; stroke-linecap:round; stroke-linejoin:round; stroke-width:4; stroke-opacity:1; fill:none" points="108.177,209.814 127.075,209.814 "/>
<path clip-path="url(#clip950)" d="M66.2328 1126.72 Q62.6217 1126.72 60.793 1130.29 Q58.9875 1133.83 58.9875 1140.96 Q58.9875 1148.06 60.793 1151.63 Q62.6217 1155.17 66.2328 1155.17 Q69.867 1155.17 71.6726 1151.63 Q73.5013 1148.06 73.5013 1140.96 Q73.5013 1133.83 71.6726 1130.29 Q69.867 1126.72 66.2328 1126.72 M66.2328 1123.02 Q72.0429 1123.02 75.0985 1127.62 Q78.1772 1132.21 78.1772 1140.96 Q78.1772 1149.68 75.0985 1154.29 Q72.0429 1158.87 66.2328 1158.87 Q60.4226 1158.87 57.344 1154.29 Q54.2884 1149.68 54.2884 1140.96 Q54.2884 1132.21 57.344 1127.62 Q60.4226 1123.02 66.2328 1123.02 Z" fill="#000000" fill-rule="nonzero" fill-opacity="1" /><path clip-path="url(#clip950)" d="M58.2699 968.046 L65.9087 968.046 L65.9087 941.681 L57.5986 943.347 L57.5986 939.088 L65.8624 937.421 L70.5383 937.421 L70.5383 968.046 L78.1772 968.046 L78.1772 971.981 L58.2699 971.981 L58.2699 968.046 Z" fill="#000000" fill-rule="nonzero" fill-opacity="1" /><path clip-path="url(#clip950)" d="M61.8578 781.824 L78.1772 781.824 L78.1772 785.759 L56.2328 785.759 L56.2328 781.824 Q58.8949 779.07 63.4782 774.44 Q68.0846 769.787 69.2652 768.445 Q71.5105 765.922 72.3902 764.186 Q73.2929 762.426 73.2929 760.736 Q73.2929 757.982 71.3485 756.246 Q69.4272 754.51 66.3254 754.51 Q64.1263 754.51 61.6726 755.274 Q59.2421 756.037 56.4643 757.588 L56.4643 752.866 Q59.2884 751.732 61.7421 751.153 Q64.1958 750.574 66.2328 750.574 Q71.6031 750.574 74.7976 753.26 Q77.992 755.945 77.992 760.436 Q77.992 762.565 77.1818 764.486 Q76.3948 766.385 74.2883 768.977 Q73.7096 769.648 70.6078 772.866 Q67.5059 776.06 61.8578 781.824 Z" fill="#000000" fill-rule="nonzero" fill-opacity="1" /><path clip-path="url(#clip950)" d="M71.0476 580.903 Q74.404 581.621 76.279 583.889 Q78.1772 586.158 78.1772 589.491 Q78.1772 594.607 74.6587 597.408 Q71.1402 600.209 64.6587 600.209 Q62.4828 600.209 60.168 599.769 Q57.8764 599.352 55.4227 598.496 L55.4227 593.982 Q57.3671 595.116 59.6819 595.695 Q61.9967 596.274 64.5198 596.274 Q68.918 596.274 71.2096 594.538 Q73.5244 592.801 73.5244 589.491 Q73.5244 586.436 71.3717 584.723 Q69.242 582.987 65.4226 582.987 L61.3949 582.987 L61.3949 579.144 L65.6078 579.144 Q69.0569 579.144 70.8855 577.778 Q72.7142 576.389 72.7142 573.797 Q72.7142 571.135 70.8161 569.723 Q68.9411 568.288 65.4226 568.288 Q63.5013 568.288 61.3023 568.704 Q59.1032 569.121 56.4643 570.001 L56.4643 565.834 Q59.1264 565.093 61.4412 564.723 Q63.7791 564.352 65.8393 564.352 Q71.1633 564.352 74.2652 566.783 Q77.367 569.19 77.367 573.311 Q77.367 576.181 75.7235 578.172 Q74.08 580.139 71.0476 580.903 Z" fill="#000000" fill-rule="nonzero" fill-opacity="1" /><path clip-path="url(#clip950)" d="M68.5939 382.83 L56.7884 401.279 L68.5939 401.279 L68.5939 382.83 M67.367 378.755 L73.2466 378.755 L73.2466 401.279 L78.1772 401.279 L78.1772 405.167 L73.2466 405.167 L73.2466 413.315 L68.5939 413.315 L68.5939 405.167 L52.9921 405.167 L52.9921 400.654 L67.367 378.755 Z" fill="#000000" fill-rule="nonzero" fill-opacity="1" /><path clip-path="url(#clip950)" d="M57.2745 192.534 L75.6309 192.534 L75.6309 196.469 L61.5569 196.469 L61.5569 204.941 Q62.5754 204.594 63.5939 204.432 Q64.6124 204.246 65.6309 204.246 Q71.418 204.246 74.7976 207.418 Q78.1772 210.589 78.1772 216.006 Q78.1772 221.584 74.705 224.686 Q71.2328 227.765 64.9134 227.765 Q62.7374 227.765 60.4689 227.394 Q58.2236 227.024 55.8162 226.283 L55.8162 221.584 Q57.8995 222.719 60.1217 223.274 Q62.3439 223.83 64.8208 223.83 Q68.8254 223.83 71.1633 221.723 Q73.5013 219.617 73.5013 216.006 Q73.5013 212.395 71.1633 210.288 Q68.8254 208.182 64.8208 208.182 Q62.9458 208.182 61.0708 208.598 Q59.2189 209.015 57.2745 209.895 L57.2745 192.534 Z" fill="#000000" fill-rule="nonzero" fill-opacity="1" /><g clip-path="url(#clip950)">
<text style="fill:#000000; fill-opacity:1; font-family:Arial,Helvetica Neue,Helvetica,sans-serif; font-size:66px; text-anchor:middle;" transform="rotate(0, 1030.47, 57.6)" x="1030.47" y="57.6">Function and its inverse</text>
</g>
<polyline clip-path="url(#clip952)" style="stroke:#009af9; stroke-linecap:round; stroke-linejoin:round; stroke-width:8; stroke-opacity:1; fill:none" points="528.686,954.701 532.531,954.661 555.051,952.744 565.527,950.805 579.569,947.071 591.172,942.94 601.962,938.192 615.507,930.914 627.657,923.052 641.564,912.391 651.959,903.186 665.255,889.764 677.39,875.791 691.202,857.743 702.151,841.701 715.753,819.485 726.17,800.646 733.514,786.36 740.857,771.204 746.344,759.289 751.832,746.854 758.073,732.06 764.313,716.549 770.494,700.458 776.674,683.615 783.473,664.186 790.273,643.782 795.467,627.517 800.66,610.646 807.214,588.462 813.768,565.249 819.83,542.831 825.892,519.471 832.143,494.36 838.395,468.177 844.732,440.507 851.068,411.661 857.685,380.24 864.302,347.442 869.514,320.605 874.726,292.858 880.661,260.123 886.596,226.135 892.532,190.855 898.467,154.24 899.132,150.047 899.798,145.836 900.464,141.608 901.13,137.363 "/>
<polyline clip-path="url(#clip952)" style="stroke:#e26f46; stroke-linecap:round; stroke-linejoin:round; stroke-width:8; stroke-opacity:1; fill:none" points="714.908,1140.92 719.015,1103.13 723.123,1088.22 727.23,1077.05 731.337,1067.81 735.444,1059.81 739.552,1052.68 743.659,1046.2 747.766,1040.25 751.873,1034.72 755.98,1029.55 760.088,1024.67 764.195,1020.06 768.302,1015.67 772.409,1011.49 776.517,1007.48 780.624,1003.64 784.731,999.941 788.838,996.378 792.946,992.936 797.053,989.607 801.16,986.381 805.267,983.252 809.374,980.212 813.482,977.255 817.589,974.377 821.696,971.572 825.803,968.836 829.911,966.165 834.018,963.555 838.125,961.004 842.232,958.508 846.34,956.064 850.447,953.671 854.554,951.325 858.661,949.024 862.768,946.767 866.876,944.551 870.983,942.375 875.09,940.237 879.197,938.135 883.305,936.069 887.412,934.036 891.519,932.036 895.626,930.068 899.734,928.129 903.841,926.22 907.948,924.339 912.055,922.486 916.162,920.658 920.27,918.856 924.377,917.079 928.484,915.326 932.591,913.596 936.699,911.888 940.806,910.202 944.913,908.538 949.02,906.894 953.127,905.27 957.235,903.666 961.342,902.08 965.449,900.513 969.556,898.964 973.664,897.433 977.771,895.918 981.878,894.42 985.985,892.939 990.093,891.473 994.2,890.023 998.307,888.588 1002.41,887.168 1006.52,885.762 1010.63,884.37 1014.74,882.992 1018.84,881.627 1022.95,880.276 1027.06,878.937 1031.16,877.611 1035.27,876.298 1039.38,874.996 1043.49,873.707 1047.59,872.429 1051.7,871.162 1055.81,869.907 1059.92,868.662 1064.02,867.428 1068.13,866.205 1072.24,864.992 1076.34,863.789 1080.45,862.597 1084.56,861.413 1088.67,860.24 1092.77,859.076 1096.88,857.921 1100.99,856.776 1105.1,855.639 1109.2,854.511 1113.31,853.391 1117.42,852.281 1121.52,851.178 1125.63,850.084 1129.74,848.998 1133.85,847.919 1137.95,846.849 1142.06,845.786 1146.17,844.731 1150.27,843.683 1154.38,842.643 1158.49,841.61 1162.6,840.584 1166.7,839.565 1170.81,838.553 1174.92,837.547 1179.03,836.549 1183.13,835.557 1187.24,834.571 1191.35,833.592 1195.45,832.62 1199.56,831.653 1203.67,830.693 1207.78,829.739 1211.88,828.79 1215.99,827.848 1220.1,826.911 1224.2,825.981 1228.31,825.055 1232.42,824.136 1236.53,823.222 1240.63,822.313 1244.74,821.41 1248.85,820.512 1252.96,819.62 1257.06,818.732 1261.17,817.85 1265.28,816.972 1269.38,816.1 1273.49,815.233 1277.6,814.37 1281.71,813.513 1285.81,812.66 1289.92,811.811 1294.03,810.968 1298.13,810.128 1302.24,809.294 1306.35,808.464 1310.46,807.638 1314.56,806.817 1318.67,806 1322.78,805.187 1326.89,804.379 1330.99,803.575 1335.1,802.774 1339.21,801.978 1343.31,801.186 1347.42,800.398 1351.53,799.614 1355.64,798.834 1359.74,798.058 1363.85,797.285 1367.96,796.517 1372.06,795.752 1376.17,794.99 1380.28,794.233 1384.39,793.479 1388.49,792.729 1392.6,791.982 1396.71,791.239 1400.82,790.499 1404.92,789.762 1409.03,789.029 1413.14,788.3 1417.24,787.574 1421.35,786.851 1425.46,786.131 1429.57,785.415 1433.67,784.702 1437.78,783.992 1441.89,783.285 1446,782.582 1450.1,781.881 1454.21,781.184 1458.32,780.489 1462.42,779.798 1466.53,779.109 1470.64,778.424 1474.75,777.741 1478.85,777.062 1482.96,776.385 1487.07,775.711 1491.17,775.04 1495.28,774.372 1499.39,773.706 1503.5,773.044 1507.6,772.384 1511.71,771.726 1515.82,771.072 1519.93,770.42 1524.03,769.77 1528.14,769.124 1532.25,768.479 "/>
<polyline clip-path="url(#clip952)" style="stroke:#000000; stroke-linecap:round; stroke-linejoin:round; stroke-width:4; stroke-opacity:1; fill:none" stroke-dasharray="16, 10" points="528.686,1140.92 539.047,1130.56 599.727,1069.88 627.955,1041.65 665.792,1003.82 697.057,972.553 726.13,943.48 762.627,906.983 795.365,874.245 832.837,836.772 860.848,808.761 896.675,772.935 929.374,740.236 966.589,703.02 996.091,673.519 1032.74,636.867 1060.81,608.797 1100.39,569.223 1129.96,539.651 1163.59,506.02 1196.9,472.713 1233.54,436.07 1261.53,408.082 1296.85,372.762 1329.51,340.095 1363.2,306.405 1397.35,272.256 1433.01,236.598 1461.1,208.508 1525.07,144.54 1532.25,137.363 "/>
<path clip-path="url(#clip950)" d="M169.663 298.235 L488.576 298.235 L488.576 142.715 L169.663 142.715  Z" fill="#ffffff" fill-rule="evenodd" fill-opacity="1"/>
<polyline clip-path="url(#clip950)" style="stroke:#000000; stroke-linecap:round; stroke-linejoin:round; stroke-width:4; stroke-opacity:1; fill:none" points="169.663,298.235 488.576,298.235 488.576,142.715 169.663,142.715 169.663,298.235 "/>
<polyline clip-path="url(#clip950)" style="stroke:#009af9; stroke-linecap:round; stroke-linejoin:round; stroke-width:8; stroke-opacity:1; fill:none" points="190.158,194.555 313.13,194.555 "/>
<path clip-path="url(#clip950)" d="M355.643 187.488 Q355.643 187.511 355.502 188.354 L350.162 209.645 Q349.881 210.77 349.085 211.894 Q348.312 213.042 347.07 214.025 Q345.852 215.033 343.978 215.642 Q342.128 216.274 339.997 216.274 Q336.6 216.274 335.101 215.548 Q333.626 214.845 333.626 213.346 Q333.626 212.035 334.445 211.285 Q335.265 210.559 336.202 210.559 Q337.092 210.559 337.561 211.074 Q338.029 211.589 338.029 212.245 Q338.029 212.971 337.537 213.697 Q337.045 214.447 336.062 214.728 Q337.631 215.22 339.903 215.22 Q344.705 215.22 346.766 210.137 Q346.813 210.067 346.813 210.044 L348.405 203.696 L348.335 203.649 Q347.937 204.118 347.304 204.656 Q346.695 205.172 345.384 205.804 Q344.072 206.437 342.784 206.437 Q340.09 206.437 338.24 204.375 Q336.413 202.291 336.413 198.848 Q336.413 196.341 337.42 193.835 Q338.451 191.306 340.043 189.455 Q341.66 187.581 343.721 186.41 Q345.805 185.239 347.82 185.239 Q349.225 185.239 350.42 186.082 Q351.614 186.902 352.27 188.261 Q352.387 187.136 353.019 186.668 Q353.675 186.2 354.237 186.2 Q354.87 186.2 355.245 186.551 Q355.643 186.879 355.643 187.488 M351.708 190.416 Q351.708 190.275 351.614 189.9 Q351.52 189.502 351.239 188.87 Q350.982 188.237 350.584 187.675 Q350.185 187.113 349.459 186.715 Q348.757 186.293 347.867 186.293 Q346.414 186.293 344.962 187.511 Q343.51 188.706 342.503 190.556 Q341.566 192.336 340.676 195.779 Q339.809 199.222 339.809 200.979 Q339.809 202.712 340.559 204.047 Q341.308 205.383 342.924 205.383 Q344.798 205.383 346.813 203.649 Q348.897 201.846 349.248 200.3 L351.567 191.142 Q351.708 190.58 351.708 190.416 Z" fill="#000000" fill-rule="nonzero" fill-opacity="1" /><path clip-path="url(#clip950)" d="M362.221 194.444 Q362.221 186.34 365.242 179.805 Q366.53 177.065 368.334 174.769 Q370.137 172.474 371.332 171.467 Q372.526 170.46 372.854 170.46 Q373.323 170.46 373.346 170.928 Q373.346 171.162 372.714 171.748 Q364.984 179.618 365.008 194.444 Q365.008 209.317 372.526 216.883 Q373.346 217.703 373.346 217.96 Q373.346 218.429 372.854 218.429 Q372.526 218.429 371.379 217.469 Q370.231 216.508 368.451 214.306 Q366.671 212.105 365.383 209.411 Q362.221 202.876 362.221 194.444 Z" fill="#000000" fill-rule="nonzero" fill-opacity="1" /><path clip-path="url(#clip950)" d="M400.884 188.401 Q400.884 189.713 400.064 190.462 Q399.245 191.189 398.308 191.189 Q397.418 191.189 396.949 190.673 Q396.481 190.158 396.481 189.502 Q396.481 188.612 397.136 187.839 Q397.792 187.066 398.776 186.902 Q397.816 186.293 396.387 186.293 Q395.45 186.293 394.63 186.785 Q393.834 187.277 393.342 187.909 Q392.874 188.542 392.452 189.455 Q392.054 190.345 391.89 190.884 Q391.749 191.399 391.632 191.961 L389.993 198.52 Q389.196 201.635 389.196 202.736 Q389.196 204.094 389.852 205.008 Q390.508 205.898 391.82 205.898 Q392.335 205.898 392.92 205.757 Q393.506 205.593 394.256 205.172 Q395.028 204.727 395.708 204.071 Q396.41 203.392 397.09 202.244 Q397.769 201.096 398.214 199.621 Q398.354 199.105 398.823 199.105 Q399.408 199.105 399.408 199.574 Q399.408 199.972 399.081 200.815 Q398.776 201.635 398.097 202.712 Q397.441 203.766 396.574 204.727 Q395.708 205.664 394.419 206.319 Q393.131 206.975 391.726 206.975 Q389.712 206.975 388.376 205.898 Q387.041 204.82 386.55 203.321 Q386.432 203.532 386.268 203.813 Q386.105 204.094 385.613 204.727 Q385.144 205.336 384.605 205.804 Q384.067 206.249 383.224 206.6 Q382.404 206.975 381.514 206.975 Q380.389 206.975 379.382 206.647 Q378.399 206.319 377.696 205.57 Q376.993 204.82 376.993 203.79 Q376.993 202.642 377.766 201.846 Q378.562 201.026 379.64 201.026 Q380.319 201.026 380.858 201.424 Q381.42 201.822 381.42 202.689 Q381.42 203.649 380.764 204.375 Q380.108 205.101 379.171 205.289 Q380.132 205.898 381.561 205.898 Q383.106 205.898 384.324 204.539 Q385.542 203.181 386.128 200.909 Q387.58 195.451 388.142 193.015 Q388.704 190.556 388.704 189.502 Q388.704 188.518 388.447 187.839 Q388.189 187.16 387.744 186.855 Q387.322 186.527 386.924 186.41 Q386.55 186.293 386.128 186.293 Q385.425 186.293 384.629 186.574 Q383.856 186.855 382.919 187.511 Q382.006 188.144 381.139 189.455 Q380.272 190.767 379.687 192.57 Q379.57 193.109 379.054 193.109 Q378.492 193.086 378.492 192.617 Q378.492 192.219 378.797 191.399 Q379.125 190.556 379.78 189.502 Q380.46 188.448 381.326 187.511 Q382.216 186.551 383.505 185.895 Q384.816 185.239 386.222 185.239 Q386.854 185.239 387.463 185.38 Q388.095 185.497 388.845 185.848 Q389.618 186.2 390.297 186.972 Q390.976 187.745 391.398 188.87 Q391.679 188.331 392.054 187.816 Q392.452 187.3 393.061 186.668 Q393.693 186.012 394.56 185.637 Q395.45 185.239 396.434 185.239 Q397.394 185.239 398.331 185.497 Q399.268 185.731 400.064 186.504 Q400.884 187.254 400.884 188.401 Z" fill="#000000" fill-rule="nonzero" fill-opacity="1" /><path clip-path="url(#clip950)" d="M405.504 217.96 Q405.504 217.726 406.113 217.141 Q413.842 209.271 413.842 194.444 Q413.842 179.571 406.418 172.052 Q405.504 171.186 405.504 170.928 Q405.504 170.46 405.972 170.46 Q406.3 170.46 407.448 171.42 Q408.619 172.38 410.376 174.582 Q412.156 176.784 413.468 179.477 Q416.63 186.012 416.63 194.444 Q416.63 202.548 413.608 209.083 Q412.32 211.824 410.516 214.119 Q408.713 216.414 407.518 217.422 Q406.324 218.429 405.972 218.429 Q405.504 218.429 405.504 217.96 Z" fill="#000000" fill-rule="nonzero" fill-opacity="1" /><polyline clip-path="url(#clip950)" style="stroke:#e26f46; stroke-linecap:round; stroke-linejoin:round; stroke-width:8; stroke-opacity:1; fill:none" points="190.158,246.395 313.13,246.395 "/>
<path clip-path="url(#clip950)" d="M355.643 239.756 Q355.643 239.779 355.502 240.622 L350.162 261.913 Q349.881 263.037 349.085 264.162 Q348.312 265.309 347.07 266.293 Q345.852 267.3 343.978 267.909 Q342.128 268.542 339.997 268.542 Q336.6 268.542 335.101 267.816 Q333.626 267.113 333.626 265.614 Q333.626 264.302 334.445 263.553 Q335.265 262.827 336.202 262.827 Q337.092 262.827 337.561 263.342 Q338.029 263.857 338.029 264.513 Q338.029 265.239 337.537 265.965 Q337.045 266.715 336.062 266.996 Q337.631 267.488 339.903 267.488 Q344.705 267.488 346.766 262.405 Q346.813 262.335 346.813 262.311 L348.405 255.964 L348.335 255.917 Q347.937 256.385 347.304 256.924 Q346.695 257.439 345.384 258.072 Q344.072 258.704 342.784 258.704 Q340.09 258.704 338.24 256.643 Q336.413 254.558 336.413 251.115 Q336.413 248.609 337.42 246.103 Q338.451 243.573 340.043 241.723 Q341.66 239.849 343.721 238.678 Q345.805 237.507 347.82 237.507 Q349.225 237.507 350.42 238.35 Q351.614 239.17 352.27 240.528 Q352.387 239.404 353.019 238.936 Q353.675 238.467 354.237 238.467 Q354.87 238.467 355.245 238.819 Q355.643 239.147 355.643 239.756 M351.708 242.683 Q351.708 242.543 351.614 242.168 Q351.52 241.77 351.239 241.137 Q350.982 240.505 350.584 239.943 Q350.185 239.381 349.459 238.983 Q348.757 238.561 347.867 238.561 Q346.414 238.561 344.962 239.779 Q343.51 240.973 342.503 242.824 Q341.566 244.604 340.676 248.047 Q339.809 251.49 339.809 253.247 Q339.809 254.98 340.559 256.315 Q341.308 257.65 342.924 257.65 Q344.798 257.65 346.813 255.917 Q348.897 254.113 349.248 252.568 L351.567 243.409 Q351.708 242.847 351.708 242.683 Z" fill="#000000" fill-rule="nonzero" fill-opacity="1" /><path clip-path="url(#clip950)" d="M382.71 235.489 Q382.906 235.686 382.906 235.965 Q382.906 236.243 382.71 236.44 Q382.513 236.637 382.234 236.637 L361.215 236.637 Q360.936 236.637 360.739 236.44 Q360.543 236.243 360.543 235.965 Q360.543 235.686 360.739 235.489 Q360.936 235.292 361.215 235.292 L382.234 235.292 Q382.513 235.292 382.71 235.489 Z" fill="#000000" fill-rule="nonzero" fill-opacity="1" /><path clip-path="url(#clip950)" d="M386.413 225.193 L386.413 224.143 Q390.446 224.143 392.528 221.995 Q393.102 221.995 393.2 222.127 Q393.299 222.258 393.299 222.864 L393.299 241.703 Q393.299 242.703 393.791 243.015 Q394.283 243.326 396.43 243.326 L397.496 243.326 L397.496 244.359 Q396.316 244.261 392.053 244.261 Q387.79 244.261 386.626 244.359 L386.626 243.326 L387.691 243.326 Q389.806 243.326 390.315 243.031 Q390.823 242.72 390.823 241.703 L390.823 224.307 Q389.069 225.193 386.413 225.193 Z" fill="#000000" fill-rule="nonzero" fill-opacity="1" /><path clip-path="url(#clip950)" d="M408.162 246.712 Q408.162 238.608 411.184 232.073 Q412.472 229.333 414.275 227.037 Q416.079 224.742 417.273 223.735 Q418.468 222.727 418.796 222.727 Q419.264 222.727 419.288 223.196 Q419.288 223.43 418.655 224.016 Q410.926 231.886 410.949 246.712 Q410.949 261.585 418.468 269.151 Q419.288 269.97 419.288 270.228 Q419.288 270.697 418.796 270.697 Q418.468 270.697 417.32 269.736 Q416.173 268.776 414.392 266.574 Q412.612 264.373 411.324 261.679 Q408.162 255.144 408.162 246.712 Z" fill="#000000" fill-rule="nonzero" fill-opacity="1" /><path clip-path="url(#clip950)" d="M445.069 239.334 Q445.069 239.662 444.858 240.435 L440.267 258.751 Q439.26 262.827 435.981 265.684 Q432.725 268.542 429.025 268.542 Q426.799 268.542 425.371 267.347 Q423.942 266.176 423.942 264.373 Q423.942 262.78 424.785 262.007 Q425.628 261.257 426.635 261.257 Q426.963 261.257 427.315 261.351 Q427.666 261.445 428.041 261.843 Q428.416 262.241 428.416 262.92 Q428.416 264.021 427.455 264.888 Q426.987 265.286 426.542 265.38 Q426.12 265.473 425.394 265.473 Q425.675 266.129 426.19 266.574 Q426.706 267.019 427.291 267.183 Q427.877 267.371 428.252 267.417 Q428.65 267.488 429.025 267.488 Q432.023 267.488 434.318 264.466 Q434.997 263.553 435.489 262.639 Q436.004 261.749 436.379 260.648 Q436.754 259.571 436.918 258.985 Q437.105 258.4 437.433 257.065 Q435.255 259.243 432.585 259.243 Q431.46 259.243 430.453 258.938 Q429.47 258.634 428.603 258.002 Q427.736 257.346 427.221 256.198 Q426.729 255.05 426.729 253.528 Q426.729 251.912 427.362 249.71 Q427.994 247.508 429.516 243.456 Q430.336 241.184 430.336 240.083 Q430.336 239.545 430.219 239.217 Q430.102 238.865 429.868 238.748 Q429.634 238.608 429.493 238.584 Q429.376 238.561 429.142 238.561 Q427.76 238.561 426.471 239.966 Q425.183 241.372 424.293 244.51 Q424.106 245.096 423.989 245.236 Q423.872 245.377 423.52 245.377 Q422.935 245.353 422.935 244.885 Q422.935 244.698 423.145 243.972 Q423.356 243.222 423.848 242.121 Q424.363 240.997 425.066 239.99 Q425.769 238.959 426.87 238.233 Q427.994 237.507 429.282 237.507 Q431.039 237.507 432.116 238.655 Q433.217 239.779 433.217 241.442 Q433.217 242.121 433.03 242.73 Q432.866 243.316 432.257 244.885 Q429.797 251.209 429.797 254.301 Q429.797 255.05 429.915 255.683 Q430.055 256.292 430.36 256.901 Q430.664 257.486 431.273 257.838 Q431.905 258.166 432.772 258.166 Q433.873 258.166 434.904 257.65 Q435.958 257.112 436.613 256.385 Q437.293 255.659 437.691 255.05 Q438.112 254.418 438.206 254.09 L440.361 245.471 L441.321 241.629 Q441.766 239.545 441.977 239.029 Q442.258 238.538 442.75 238.28 Q443.242 238.022 443.664 238.022 Q444.249 238.022 444.647 238.374 Q445.069 238.725 445.069 239.334 Z" fill="#000000" fill-rule="nonzero" fill-opacity="1" /><path clip-path="url(#clip950)" d="M449.66 270.228 Q449.66 269.994 450.269 269.408 Q457.998 261.538 457.998 246.712 Q457.998 231.839 450.573 224.32 Q449.66 223.453 449.66 223.196 Q449.66 222.727 450.128 222.727 Q450.456 222.727 451.604 223.688 Q452.775 224.648 454.532 226.85 Q456.312 229.051 457.624 231.745 Q460.786 238.28 460.786 246.712 Q460.786 254.816 457.764 261.351 Q456.476 264.091 454.672 266.387 Q452.869 268.682 451.674 269.689 Q450.48 270.697 450.128 270.697 Q449.66 270.697 449.66 270.228 Z" fill="#000000" fill-rule="nonzero" fill-opacity="1" /></svg>
