<?xml version="1.0" encoding="utf-8"?>
<svg xmlns="http://www.w3.org/2000/svg" xmlns:xlink="http://www.w3.org/1999/xlink" width="500" height="320" viewBox="0 0 2000 1280">
<defs>
  <clipPath id="clip190">
    <rect x="0" y="0" width="2000" height="1280"/>
  </clipPath>
</defs>
<path clip-path="url(#clip190)" d="M0 1280 L2000 1280 L2000 0 L0 0  Z" fill="#ffffff" fill-rule="evenodd" fill-opacity="1"/>
<defs>
  <clipPath id="clip191">
    <rect x="400" y="0" width="1401" height="1280"/>
  </clipPath>
</defs>
<path clip-path="url(#clip190)" d="M212.61 1111.02 L1952.76 1111.02 L1952.76 47.2441 L212.61 47.2441  Z" fill="#ffffff" fill-rule="evenodd" fill-opacity="1"/>
<defs>
  <clipPath id="clip192">
    <rect x="212" y="47" width="1741" height="1065"/>
  </clipPath>
</defs>
<polyline clip-path="url(#clip192)" style="stroke:#000000; stroke-linecap:round; stroke-linejoin:round; stroke-width:2; stroke-opacity:0.1; fill:none" points="444.265,1111.02 444.265,47.2441 "/>
<polyline clip-path="url(#clip192)" style="stroke:#000000; stroke-linecap:round; stroke-linejoin:round; stroke-width:2; stroke-opacity:0.1; fill:none" points="809.075,1111.02 809.075,47.2441 "/>
<polyline clip-path="url(#clip192)" style="stroke:#000000; stroke-linecap:round; stroke-linejoin:round; stroke-width:2; stroke-opacity:0.1; fill:none" points="1173.89,1111.02 1173.89,47.2441 "/>
<polyline clip-path="url(#clip192)" style="stroke:#000000; stroke-linecap:round; stroke-linejoin:round; stroke-width:2; stroke-opacity:0.1; fill:none" points="1538.7,1111.02 1538.7,47.2441 "/>
<polyline clip-path="url(#clip192)" style="stroke:#000000; stroke-linecap:round; stroke-linejoin:round; stroke-width:2; stroke-opacity:0.1; fill:none" points="1903.51,1111.02 1903.51,47.2441 "/>
<polyline clip-path="url(#clip192)" style="stroke:#000000; stroke-linecap:round; stroke-linejoin:round; stroke-width:2; stroke-opacity:0.1; fill:none" points="212.61,985.334 1952.76,985.334 "/>
<polyline clip-path="url(#clip192)" style="stroke:#000000; stroke-linecap:round; stroke-linejoin:round; stroke-width:2; stroke-opacity:0.1; fill:none" points="212.61,786.215 1952.76,786.215 "/>
<polyline clip-path="url(#clip192)" style="stroke:#000000; stroke-linecap:round; stroke-linejoin:round; stroke-width:2; stroke-opacity:0.1; fill:none" points="212.61,587.096 1952.76,587.096 "/>
<polyline clip-path="url(#clip192)" style="stroke:#000000; stroke-linecap:round; stroke-linejoin:round; stroke-width:2; stroke-opacity:0.1; fill:none" points="212.61,387.977 1952.76,387.977 "/>
<polyline clip-path="url(#clip192)" style="stroke:#000000; stroke-linecap:round; stroke-linejoin:round; stroke-width:2; stroke-opacity:0.1; fill:none" points="212.61,188.858 1952.76,188.858 "/>
<polyline clip-path="url(#clip190)" style="stroke:#000000; stroke-linecap:round; stroke-linejoin:round; stroke-width:4; stroke-opacity:1; fill:none" points="212.61,1111.02 1952.76,1111.02 "/>
<polyline clip-path="url(#clip190)" style="stroke:#000000; stroke-linecap:round; stroke-linejoin:round; stroke-width:4; stroke-opacity:1; fill:none" points="444.265,1111.02 444.265,1092.12 "/>
<polyline clip-path="url(#clip190)" style="stroke:#000000; stroke-linecap:round; stroke-linejoin:round; stroke-width:4; stroke-opacity:1; fill:none" points="809.075,1111.02 809.075,1092.12 "/>
<polyline clip-path="url(#clip190)" style="stroke:#000000; stroke-linecap:round; stroke-linejoin:round; stroke-width:4; stroke-opacity:1; fill:none" points="1173.89,1111.02 1173.89,1092.12 "/>
<polyline clip-path="url(#clip190)" style="stroke:#000000; stroke-linecap:round; stroke-linejoin:round; stroke-width:4; stroke-opacity:1; fill:none" points="1538.7,1111.02 1538.7,1092.12 "/>
<polyline clip-path="url(#clip190)" style="stroke:#000000; stroke-linecap:round; stroke-linejoin:round; stroke-width:4; stroke-opacity:1; fill:none" points="1903.51,1111.02 1903.51,1092.12 "/>
<path clip-path="url(#clip190)" d="M388.79 1166.28 L396.429 1166.28 L396.429 1139.92 L388.119 1141.58 L388.119 1137.33 L396.383 1135.66 L401.059 1135.66 L401.059 1166.28 L408.698 1166.28 L408.698 1170.22 L388.79 1170.22 L388.79 1166.28 Z" fill="#000000" fill-rule="nonzero" fill-opacity="1" /><path clip-path="url(#clip190)" d="M418.281 1169.5 L418.281 1165.24 Q420.04 1166.07 421.846 1166.51 Q423.651 1166.95 425.387 1166.95 Q430.017 1166.95 432.448 1163.85 Q434.901 1160.73 435.249 1154.39 Q433.906 1156.38 431.846 1157.44 Q429.786 1158.51 427.286 1158.51 Q422.1 1158.51 419.068 1155.38 Q416.059 1152.23 416.059 1146.79 Q416.059 1141.47 419.207 1138.25 Q422.355 1135.03 427.587 1135.03 Q433.582 1135.03 436.73 1139.64 Q439.901 1144.22 439.901 1152.97 Q439.901 1161.14 436.012 1166.03 Q432.147 1170.89 425.596 1170.89 Q423.837 1170.89 422.031 1170.54 Q420.225 1170.2 418.281 1169.5 M427.587 1154.85 Q430.735 1154.85 432.563 1152.7 Q434.415 1150.54 434.415 1146.79 Q434.415 1143.07 432.563 1140.91 Q430.735 1138.74 427.587 1138.74 Q424.438 1138.74 422.587 1140.91 Q420.758 1143.07 420.758 1146.79 Q420.758 1150.54 422.587 1152.7 Q424.438 1154.85 427.587 1154.85 Z" fill="#000000" fill-rule="nonzero" fill-opacity="1" /><path clip-path="url(#clip190)" d="M458.883 1151.08 Q455.735 1151.08 453.883 1153.23 Q452.054 1155.38 452.054 1159.13 Q452.054 1162.86 453.883 1165.03 Q455.735 1167.19 458.883 1167.19 Q462.031 1167.19 463.859 1165.03 Q465.711 1162.86 465.711 1159.13 Q465.711 1155.38 463.859 1153.23 Q462.031 1151.08 458.883 1151.08 M468.165 1136.42 L468.165 1140.68 Q466.406 1139.85 464.6 1139.41 Q462.818 1138.97 461.059 1138.97 Q456.429 1138.97 453.975 1142.09 Q451.545 1145.22 451.197 1151.54 Q452.563 1149.52 454.623 1148.46 Q456.684 1147.37 459.16 1147.37 Q464.369 1147.37 467.378 1150.54 Q470.41 1153.69 470.41 1159.13 Q470.41 1164.45 467.262 1167.67 Q464.114 1170.89 458.883 1170.89 Q452.887 1170.89 449.716 1166.31 Q446.545 1161.7 446.545 1152.97 Q446.545 1144.78 450.434 1139.92 Q454.322 1135.03 460.873 1135.03 Q462.633 1135.03 464.415 1135.38 Q466.221 1135.73 468.165 1136.42 Z" fill="#000000" fill-rule="nonzero" fill-opacity="1" /><path clip-path="url(#clip190)" d="M488.466 1138.74 Q484.855 1138.74 483.026 1142.3 Q481.22 1145.84 481.22 1152.97 Q481.22 1160.08 483.026 1163.64 Q484.855 1167.19 488.466 1167.19 Q492.1 1167.19 493.906 1163.64 Q495.734 1160.08 495.734 1152.97 Q495.734 1145.84 493.906 1142.3 Q492.1 1138.74 488.466 1138.74 M488.466 1135.03 Q494.276 1135.03 497.332 1139.64 Q500.41 1144.22 500.41 1152.97 Q500.41 1161.7 497.332 1166.31 Q494.276 1170.89 488.466 1170.89 Q482.656 1170.89 479.577 1166.31 Q476.521 1161.7 476.521 1152.97 Q476.521 1144.22 479.577 1139.64 Q482.656 1135.03 488.466 1135.03 Z" fill="#000000" fill-rule="nonzero" fill-opacity="1" /><path clip-path="url(#clip190)" d="M753.601 1166.28 L761.24 1166.28 L761.24 1139.92 L752.93 1141.58 L752.93 1137.33 L761.193 1135.66 L765.869 1135.66 L765.869 1166.28 L773.508 1166.28 L773.508 1170.22 L753.601 1170.22 L753.601 1166.28 Z" fill="#000000" fill-rule="nonzero" fill-opacity="1" /><path clip-path="url(#clip190)" d="M783.091 1169.5 L783.091 1165.24 Q784.851 1166.07 786.656 1166.51 Q788.462 1166.95 790.198 1166.95 Q794.828 1166.95 797.258 1163.85 Q799.712 1160.73 800.059 1154.39 Q798.716 1156.38 796.656 1157.44 Q794.596 1158.51 792.096 1158.51 Q786.911 1158.51 783.878 1155.38 Q780.869 1152.23 780.869 1146.79 Q780.869 1141.47 784.017 1138.25 Q787.166 1135.03 792.397 1135.03 Q798.392 1135.03 801.54 1139.64 Q804.712 1144.22 804.712 1152.97 Q804.712 1161.14 800.823 1166.03 Q796.957 1170.89 790.406 1170.89 Q788.647 1170.89 786.841 1170.54 Q785.036 1170.2 783.091 1169.5 M792.397 1154.85 Q795.545 1154.85 797.374 1152.7 Q799.226 1150.54 799.226 1146.79 Q799.226 1143.07 797.374 1140.91 Q795.545 1138.74 792.397 1138.74 Q789.249 1138.74 787.397 1140.91 Q785.568 1143.07 785.568 1146.79 Q785.568 1150.54 787.397 1152.7 Q789.249 1154.85 792.397 1154.85 Z" fill="#000000" fill-rule="nonzero" fill-opacity="1" /><path clip-path="url(#clip190)" d="M811.934 1135.66 L834.156 1135.66 L834.156 1137.65 L821.61 1170.22 L816.726 1170.22 L828.531 1139.59 L811.934 1139.59 L811.934 1135.66 Z" fill="#000000" fill-rule="nonzero" fill-opacity="1" /><path clip-path="url(#clip190)" d="M853.276 1138.74 Q849.665 1138.74 847.836 1142.3 Q846.031 1145.84 846.031 1152.97 Q846.031 1160.08 847.836 1163.64 Q849.665 1167.19 853.276 1167.19 Q856.911 1167.19 858.716 1163.64 Q860.545 1160.08 860.545 1152.97 Q860.545 1145.84 858.716 1142.3 Q856.911 1138.74 853.276 1138.74 M853.276 1135.03 Q859.086 1135.03 862.142 1139.64 Q865.221 1144.22 865.221 1152.97 Q865.221 1161.7 862.142 1166.31 Q859.086 1170.89 853.276 1170.89 Q847.466 1170.89 844.387 1166.31 Q841.332 1161.7 841.332 1152.97 Q841.332 1144.22 844.387 1139.64 Q847.466 1135.03 853.276 1135.03 Z" fill="#000000" fill-rule="nonzero" fill-opacity="1" /><path clip-path="url(#clip190)" d="M1118.41 1166.28 L1126.05 1166.28 L1126.05 1139.92 L1117.74 1141.58 L1117.74 1137.33 L1126 1135.66 L1130.68 1135.66 L1130.68 1166.28 L1138.32 1166.28 L1138.32 1170.22 L1118.41 1170.22 L1118.41 1166.28 Z" fill="#000000" fill-rule="nonzero" fill-opacity="1" /><path clip-path="url(#clip190)" d="M1147.9 1169.5 L1147.9 1165.24 Q1149.66 1166.07 1151.47 1166.51 Q1153.27 1166.95 1155.01 1166.95 Q1159.64 1166.95 1162.07 1163.85 Q1164.52 1160.73 1164.87 1154.39 Q1163.53 1156.38 1161.47 1157.44 Q1159.41 1158.51 1156.91 1158.51 Q1151.72 1158.51 1148.69 1155.38 Q1145.68 1152.23 1145.68 1146.79 Q1145.68 1141.47 1148.83 1138.25 Q1151.98 1135.03 1157.21 1135.03 Q1163.2 1135.03 1166.35 1139.64 Q1169.52 1144.22 1169.52 1152.97 Q1169.52 1161.14 1165.63 1166.03 Q1161.77 1170.89 1155.22 1170.89 Q1153.46 1170.89 1151.65 1170.54 Q1149.85 1170.2 1147.9 1169.5 M1157.21 1154.85 Q1160.36 1154.85 1162.18 1152.7 Q1164.04 1150.54 1164.04 1146.79 Q1164.04 1143.07 1162.18 1140.91 Q1160.36 1138.74 1157.21 1138.74 Q1154.06 1138.74 1152.21 1140.91 Q1150.38 1143.07 1150.38 1146.79 Q1150.38 1150.54 1152.21 1152.7 Q1154.06 1154.85 1157.21 1154.85 Z" fill="#000000" fill-rule="nonzero" fill-opacity="1" /><path clip-path="url(#clip190)" d="M1187.92 1153.81 Q1184.59 1153.81 1182.67 1155.59 Q1180.77 1157.37 1180.77 1160.5 Q1180.77 1163.62 1182.67 1165.4 Q1184.59 1167.19 1187.92 1167.19 Q1191.26 1167.19 1193.18 1165.4 Q1195.1 1163.6 1195.1 1160.5 Q1195.1 1157.37 1193.18 1155.59 Q1191.28 1153.81 1187.92 1153.81 M1183.25 1151.82 Q1180.24 1151.08 1178.55 1149.01 Q1176.88 1146.95 1176.88 1143.99 Q1176.88 1139.85 1179.82 1137.44 Q1182.79 1135.03 1187.92 1135.03 Q1193.09 1135.03 1196.03 1137.44 Q1198.97 1139.85 1198.97 1143.99 Q1198.97 1146.95 1197.28 1149.01 Q1195.61 1151.08 1192.62 1151.82 Q1196 1152.6 1197.88 1154.89 Q1199.78 1157.19 1199.78 1160.5 Q1199.78 1165.52 1196.7 1168.2 Q1193.64 1170.89 1187.92 1170.89 Q1182.21 1170.89 1179.13 1168.2 Q1176.07 1165.52 1176.07 1160.5 Q1176.07 1157.19 1177.97 1154.89 Q1179.87 1152.6 1183.25 1151.82 M1181.54 1144.43 Q1181.54 1147.12 1183.2 1148.62 Q1184.89 1150.13 1187.92 1150.13 Q1190.93 1150.13 1192.62 1148.62 Q1194.34 1147.12 1194.34 1144.43 Q1194.34 1141.75 1192.62 1140.24 Q1190.93 1138.74 1187.92 1138.74 Q1184.89 1138.74 1183.2 1140.24 Q1181.54 1141.75 1181.54 1144.43 Z" fill="#000000" fill-rule="nonzero" fill-opacity="1" /><path clip-path="url(#clip190)" d="M1218.09 1138.74 Q1214.48 1138.74 1212.65 1142.3 Q1210.84 1145.84 1210.84 1152.97 Q1210.84 1160.08 1212.65 1163.64 Q1214.48 1167.19 1218.09 1167.19 Q1221.72 1167.19 1223.53 1163.64 Q1225.36 1160.08 1225.36 1152.97 Q1225.36 1145.84 1223.53 1142.3 Q1221.72 1138.74 1218.09 1138.74 M1218.09 1135.03 Q1223.9 1135.03 1226.95 1139.64 Q1230.03 1144.22 1230.03 1152.97 Q1230.03 1161.7 1226.95 1166.31 Q1223.9 1170.89 1218.09 1170.89 Q1212.28 1170.89 1209.2 1166.31 Q1206.14 1161.7 1206.14 1152.97 Q1206.14 1144.22 1209.2 1139.64 Q1212.28 1135.03 1218.09 1135.03 Z" fill="#000000" fill-rule="nonzero" fill-opacity="1" /><path clip-path="url(#clip190)" d="M1483.22 1166.28 L1490.86 1166.28 L1490.86 1139.92 L1482.55 1141.58 L1482.55 1137.33 L1490.81 1135.66 L1495.49 1135.66 L1495.49 1166.28 L1503.13 1166.28 L1503.13 1170.22 L1483.22 1170.22 L1483.22 1166.28 Z" fill="#000000" fill-rule="nonzero" fill-opacity="1" /><path clip-path="url(#clip190)" d="M1512.71 1169.5 L1512.71 1165.24 Q1514.47 1166.07 1516.28 1166.51 Q1518.08 1166.95 1519.82 1166.95 Q1524.45 1166.95 1526.88 1163.85 Q1529.33 1160.73 1529.68 1154.39 Q1528.34 1156.38 1526.28 1157.44 Q1524.22 1158.51 1521.72 1158.51 Q1516.53 1158.51 1513.5 1155.38 Q1510.49 1152.23 1510.49 1146.79 Q1510.49 1141.47 1513.64 1138.25 Q1516.79 1135.03 1522.02 1135.03 Q1528.01 1135.03 1531.16 1139.64 Q1534.33 1144.22 1534.33 1152.97 Q1534.33 1161.14 1530.44 1166.03 Q1526.58 1170.89 1520.03 1170.89 Q1518.27 1170.89 1516.46 1170.54 Q1514.66 1170.2 1512.71 1169.5 M1522.02 1154.85 Q1525.17 1154.85 1526.99 1152.7 Q1528.85 1150.54 1528.85 1146.79 Q1528.85 1143.07 1526.99 1140.91 Q1525.17 1138.74 1522.02 1138.74 Q1518.87 1138.74 1517.02 1140.91 Q1515.19 1143.07 1515.19 1146.79 Q1515.19 1150.54 1517.02 1152.7 Q1518.87 1154.85 1522.02 1154.85 Z" fill="#000000" fill-rule="nonzero" fill-opacity="1" /><path clip-path="url(#clip190)" d="M1542.87 1169.5 L1542.87 1165.24 Q1544.63 1166.07 1546.44 1166.51 Q1548.24 1166.95 1549.98 1166.95 Q1554.61 1166.95 1557.04 1163.85 Q1559.49 1160.73 1559.84 1154.39 Q1558.5 1156.38 1556.44 1157.44 Q1554.38 1158.51 1551.88 1158.51 Q1546.69 1158.51 1543.66 1155.38 Q1540.65 1152.23 1540.65 1146.79 Q1540.65 1141.47 1543.8 1138.25 Q1546.95 1135.03 1552.18 1135.03 Q1558.18 1135.03 1561.32 1139.64 Q1564.49 1144.22 1564.49 1152.97 Q1564.49 1161.14 1560.61 1166.03 Q1556.74 1170.89 1550.19 1170.89 Q1548.43 1170.89 1546.62 1170.54 Q1544.82 1170.2 1542.87 1169.5 M1552.18 1154.85 Q1555.33 1154.85 1557.16 1152.7 Q1559.01 1150.54 1559.01 1146.79 Q1559.01 1143.07 1557.16 1140.91 Q1555.33 1138.74 1552.18 1138.74 Q1549.03 1138.74 1547.18 1140.91 Q1545.35 1143.07 1545.35 1146.79 Q1545.35 1150.54 1547.18 1152.7 Q1549.03 1154.85 1552.18 1154.85 Z" fill="#000000" fill-rule="nonzero" fill-opacity="1" /><path clip-path="url(#clip190)" d="M1582.9 1138.74 Q1579.29 1138.74 1577.46 1142.3 Q1575.65 1145.84 1575.65 1152.97 Q1575.65 1160.08 1577.46 1163.64 Q1579.29 1167.19 1582.9 1167.19 Q1586.53 1167.19 1588.34 1163.64 Q1590.17 1160.08 1590.17 1152.97 Q1590.17 1145.84 1588.34 1142.3 Q1586.53 1138.74 1582.9 1138.74 M1582.9 1135.03 Q1588.71 1135.03 1591.76 1139.64 Q1594.84 1144.22 1594.84 1152.97 Q1594.84 1161.7 1591.76 1166.31 Q1588.71 1170.89 1582.9 1170.89 Q1577.09 1170.89 1574.01 1166.31 Q1570.95 1161.7 1570.95 1152.97 Q1570.95 1144.22 1574.01 1139.64 Q1577.09 1135.03 1582.9 1135.03 Z" fill="#000000" fill-rule="nonzero" fill-opacity="1" /><path clip-path="url(#clip190)" d="M1852.12 1166.28 L1868.44 1166.28 L1868.44 1170.22 L1846.49 1170.22 L1846.49 1166.28 Q1849.15 1163.53 1853.74 1158.9 Q1858.34 1154.25 1859.53 1152.9 Q1861.77 1150.38 1862.65 1148.64 Q1863.55 1146.89 1863.55 1145.2 Q1863.55 1142.44 1861.61 1140.7 Q1859.69 1138.97 1856.59 1138.97 Q1854.39 1138.97 1851.93 1139.73 Q1849.5 1140.5 1846.72 1142.05 L1846.72 1137.33 Q1849.55 1136.19 1852 1135.61 Q1854.46 1135.03 1856.49 1135.03 Q1861.86 1135.03 1865.06 1137.72 Q1868.25 1140.4 1868.25 1144.89 Q1868.25 1147.02 1867.44 1148.95 Q1866.65 1150.84 1864.55 1153.44 Q1863.97 1154.11 1860.87 1157.33 Q1857.77 1160.52 1852.12 1166.28 Z" fill="#000000" fill-rule="nonzero" fill-opacity="1" /><path clip-path="url(#clip190)" d="M1888.25 1138.74 Q1884.64 1138.74 1882.81 1142.3 Q1881.01 1145.84 1881.01 1152.97 Q1881.01 1160.08 1882.81 1163.64 Q1884.64 1167.19 1888.25 1167.19 Q1891.89 1167.19 1893.69 1163.64 Q1895.52 1160.08 1895.52 1152.97 Q1895.52 1145.84 1893.69 1142.3 Q1891.89 1138.74 1888.25 1138.74 M1888.25 1135.03 Q1894.06 1135.03 1897.12 1139.64 Q1900.2 1144.22 1900.2 1152.97 Q1900.2 1161.7 1897.12 1166.31 Q1894.06 1170.89 1888.25 1170.89 Q1882.44 1170.89 1879.36 1166.31 Q1876.31 1161.7 1876.31 1152.97 Q1876.31 1144.22 1879.36 1139.64 Q1882.44 1135.03 1888.25 1135.03 Z" fill="#000000" fill-rule="nonzero" fill-opacity="1" /><path clip-path="url(#clip190)" d="M1918.41 1138.74 Q1914.8 1138.74 1912.97 1142.3 Q1911.17 1145.84 1911.17 1152.97 Q1911.17 1160.08 1912.97 1163.64 Q1914.8 1167.19 1918.41 1167.19 Q1922.05 1167.19 1923.85 1163.64 Q1925.68 1160.08 1925.68 1152.97 Q1925.68 1145.84 1923.85 1142.3 Q1922.05 1138.74 1918.41 1138.74 M1918.41 1135.03 Q1924.22 1135.03 1927.28 1139.64 Q1930.36 1144.22 1930.36 1152.97 Q1930.36 1161.7 1927.28 1166.31 Q1924.22 1170.89 1918.41 1170.89 Q1912.6 1170.89 1909.52 1166.31 Q1906.47 1161.7 1906.47 1152.97 Q1906.47 1144.22 1909.52 1139.64 Q1912.6 1135.03 1918.41 1135.03 Z" fill="#000000" fill-rule="nonzero" fill-opacity="1" /><path clip-path="url(#clip190)" d="M1948.58 1138.74 Q1944.96 1138.74 1943.14 1142.3 Q1941.33 1145.84 1941.33 1152.97 Q1941.33 1160.08 1943.14 1163.64 Q1944.96 1167.19 1948.58 1167.19 Q1952.21 1167.19 1954.02 1163.64 Q1955.84 1160.08 1955.84 1152.97 Q1955.84 1145.84 1954.02 1142.3 Q1952.21 1138.74 1948.58 1138.74 M1948.58 1135.03 Q1954.39 1135.03 1957.44 1139.64 Q1960.52 1144.22 1960.52 1152.97 Q1960.52 1161.7 1957.44 1166.31 Q1954.39 1170.89 1948.58 1170.89 Q1942.77 1170.89 1939.69 1166.31 Q1936.63 1161.7 1936.63 1152.97 Q1936.63 1144.22 1939.69 1139.64 Q1942.77 1135.03 1948.58 1135.03 Z" fill="#000000" fill-rule="nonzero" fill-opacity="1" /><g clip-path="url(#clip190)">
<text style="fill:#000000; fill-opacity:1; font-family:Arial,Helvetica Neue,Helvetica,sans-serif; font-size:66px; text-anchor:middle;" transform="rotate(0, 1082.68, 1252.42)" x="1082.68" y="1252.42">year</text>
</g>
<polyline clip-path="url(#clip190)" style="stroke:#000000; stroke-linecap:round; stroke-linejoin:round; stroke-width:4; stroke-opacity:1; fill:none" points="212.61,1111.02 212.61,47.2441 "/>
<polyline clip-path="url(#clip190)" style="stroke:#000000; stroke-linecap:round; stroke-linejoin:round; stroke-width:4; stroke-opacity:1; fill:none" points="212.61,985.334 231.508,985.334 "/>
<polyline clip-path="url(#clip190)" style="stroke:#000000; stroke-linecap:round; stroke-linejoin:round; stroke-width:4; stroke-opacity:1; fill:none" points="212.61,786.215 231.508,786.215 "/>
<polyline clip-path="url(#clip190)" style="stroke:#000000; stroke-linecap:round; stroke-linejoin:round; stroke-width:4; stroke-opacity:1; fill:none" points="212.61,587.096 231.508,587.096 "/>
<polyline clip-path="url(#clip190)" style="stroke:#000000; stroke-linecap:round; stroke-linejoin:round; stroke-width:4; stroke-opacity:1; fill:none" points="212.61,387.977 231.508,387.977 "/>
<polyline clip-path="url(#clip190)" style="stroke:#000000; stroke-linecap:round; stroke-linejoin:round; stroke-width:4; stroke-opacity:1; fill:none" points="212.61,188.858 231.508,188.858 "/>
<path clip-path="url(#clip190)" d="M125.434 971.133 Q121.823 971.133 119.995 974.698 Q118.189 978.24 118.189 985.369 Q118.189 992.476 119.995 996.04 Q121.823 999.582 125.434 999.582 Q129.069 999.582 130.874 996.04 Q132.703 992.476 132.703 985.369 Q132.703 978.24 130.874 974.698 Q129.069 971.133 125.434 971.133 M125.434 967.429 Q131.245 967.429 134.3 972.036 Q137.379 976.619 137.379 985.369 Q137.379 994.096 134.3 998.702 Q131.245 1003.29 125.434 1003.29 Q119.624 1003.29 116.546 998.702 Q113.49 994.096 113.49 985.369 Q113.49 976.619 116.546 972.036 Q119.624 967.429 125.434 967.429 Z" fill="#000000" fill-rule="nonzero" fill-opacity="1" /><path clip-path="url(#clip190)" d="M145.596 996.735 L150.481 996.735 L150.481 1002.61 L145.596 1002.61 L145.596 996.735 Z" fill="#000000" fill-rule="nonzero" fill-opacity="1" /><path clip-path="url(#clip190)" d="M170.666 971.133 Q167.055 971.133 165.226 974.698 Q163.42 978.24 163.42 985.369 Q163.42 992.476 165.226 996.04 Q167.055 999.582 170.666 999.582 Q174.3 999.582 176.105 996.04 Q177.934 992.476 177.934 985.369 Q177.934 978.24 176.105 974.698 Q174.3 971.133 170.666 971.133 M170.666 967.429 Q176.476 967.429 179.531 972.036 Q182.61 976.619 182.61 985.369 Q182.61 994.096 179.531 998.702 Q176.476 1003.29 170.666 1003.29 Q164.855 1003.29 161.777 998.702 Q158.721 994.096 158.721 985.369 Q158.721 976.619 161.777 972.036 Q164.855 967.429 170.666 967.429 Z" fill="#000000" fill-rule="nonzero" fill-opacity="1" /><path clip-path="url(#clip190)" d="M126.661 772.014 Q123.05 772.014 121.221 775.579 Q119.416 779.12 119.416 786.25 Q119.416 793.356 121.221 796.921 Q123.05 800.463 126.661 800.463 Q130.295 800.463 132.101 796.921 Q133.93 793.356 133.93 786.25 Q133.93 779.12 132.101 775.579 Q130.295 772.014 126.661 772.014 M126.661 768.31 Q132.471 768.31 135.527 772.917 Q138.606 777.5 138.606 786.25 Q138.606 794.977 135.527 799.583 Q132.471 804.167 126.661 804.167 Q120.851 804.167 117.772 799.583 Q114.717 794.977 114.717 786.25 Q114.717 777.5 117.772 772.917 Q120.851 768.31 126.661 768.31 Z" fill="#000000" fill-rule="nonzero" fill-opacity="1" /><path clip-path="url(#clip190)" d="M146.823 797.616 L151.707 797.616 L151.707 803.495 L146.823 803.495 L146.823 797.616 Z" fill="#000000" fill-rule="nonzero" fill-opacity="1" /><path clip-path="url(#clip190)" d="M162.703 799.56 L170.342 799.56 L170.342 773.194 L162.031 774.861 L162.031 770.602 L170.295 768.935 L174.971 768.935 L174.971 799.56 L182.61 799.56 L182.61 803.495 L162.703 803.495 L162.703 799.56 Z" fill="#000000" fill-rule="nonzero" fill-opacity="1" /><path clip-path="url(#clip190)" d="M127.032 572.895 Q123.421 572.895 121.592 576.46 Q119.786 580.001 119.786 587.131 Q119.786 594.237 121.592 597.802 Q123.421 601.344 127.032 601.344 Q130.666 601.344 132.471 597.802 Q134.3 594.237 134.3 587.131 Q134.3 580.001 132.471 576.46 Q130.666 572.895 127.032 572.895 M127.032 569.191 Q132.842 569.191 135.897 573.798 Q138.976 578.381 138.976 587.131 Q138.976 595.858 135.897 600.464 Q132.842 605.047 127.032 605.047 Q121.221 605.047 118.143 600.464 Q115.087 595.858 115.087 587.131 Q115.087 578.381 118.143 573.798 Q121.221 569.191 127.032 569.191 Z" fill="#000000" fill-rule="nonzero" fill-opacity="1" /><path clip-path="url(#clip190)" d="M147.194 598.496 L152.078 598.496 L152.078 604.376 L147.194 604.376 L147.194 598.496 Z" fill="#000000" fill-rule="nonzero" fill-opacity="1" /><path clip-path="url(#clip190)" d="M166.291 600.441 L182.61 600.441 L182.61 604.376 L160.666 604.376 L160.666 600.441 Q163.328 597.686 167.911 593.057 Q172.517 588.404 173.698 587.061 Q175.943 584.538 176.823 582.802 Q177.726 581.043 177.726 579.353 Q177.726 576.598 175.781 574.862 Q173.86 573.126 170.758 573.126 Q168.559 573.126 166.105 573.89 Q163.675 574.654 160.897 576.205 L160.897 571.483 Q163.721 570.348 166.175 569.77 Q168.629 569.191 170.666 569.191 Q176.036 569.191 179.23 571.876 Q182.425 574.561 182.425 579.052 Q182.425 581.182 181.615 583.103 Q180.828 585.001 178.721 587.594 Q178.142 588.265 175.041 591.483 Q171.939 594.677 166.291 600.441 Z" fill="#000000" fill-rule="nonzero" fill-opacity="1" /><path clip-path="url(#clip190)" d="M126.083 373.776 Q122.471 373.776 120.643 377.34 Q118.837 380.882 118.837 388.012 Q118.837 395.118 120.643 398.683 Q122.471 402.224 126.083 402.224 Q129.717 402.224 131.522 398.683 Q133.351 395.118 133.351 388.012 Q133.351 380.882 131.522 377.34 Q129.717 373.776 126.083 373.776 M126.083 370.072 Q131.893 370.072 134.948 374.678 Q138.027 379.262 138.027 388.012 Q138.027 396.738 134.948 401.345 Q131.893 405.928 126.083 405.928 Q120.272 405.928 117.194 401.345 Q114.138 396.738 114.138 388.012 Q114.138 379.262 117.194 374.678 Q120.272 370.072 126.083 370.072 Z" fill="#000000" fill-rule="nonzero" fill-opacity="1" /><path clip-path="url(#clip190)" d="M146.244 399.377 L151.129 399.377 L151.129 405.257 L146.244 405.257 L146.244 399.377 Z" fill="#000000" fill-rule="nonzero" fill-opacity="1" /><path clip-path="url(#clip190)" d="M175.48 386.623 Q178.837 387.34 180.712 389.609 Q182.61 391.877 182.61 395.211 Q182.61 400.326 179.092 403.127 Q175.573 405.928 169.092 405.928 Q166.916 405.928 164.601 405.488 Q162.309 405.072 159.856 404.215 L159.856 399.701 Q161.8 400.836 164.115 401.414 Q166.43 401.993 168.953 401.993 Q173.351 401.993 175.642 400.257 Q177.957 398.521 177.957 395.211 Q177.957 392.155 175.805 390.442 Q173.675 388.706 169.855 388.706 L165.828 388.706 L165.828 384.863 L170.041 384.863 Q173.49 384.863 175.318 383.498 Q177.147 382.109 177.147 379.516 Q177.147 376.854 175.249 375.442 Q173.374 374.007 169.855 374.007 Q167.934 374.007 165.735 374.424 Q163.536 374.84 160.897 375.72 L160.897 371.553 Q163.559 370.813 165.874 370.442 Q168.212 370.072 170.272 370.072 Q175.596 370.072 178.698 372.502 Q181.8 374.91 181.8 379.03 Q181.8 381.901 180.156 383.891 Q178.513 385.859 175.48 386.623 Z" fill="#000000" fill-rule="nonzero" fill-opacity="1" /><path clip-path="url(#clip190)" d="M124.948 174.656 Q121.337 174.656 119.509 178.221 Q117.703 181.763 117.703 188.892 Q117.703 195.999 119.509 199.564 Q121.337 203.105 124.948 203.105 Q128.583 203.105 130.388 199.564 Q132.217 195.999 132.217 188.892 Q132.217 181.763 130.388 178.221 Q128.583 174.656 124.948 174.656 M124.948 170.953 Q130.758 170.953 133.814 175.559 Q136.893 180.142 136.893 188.892 Q136.893 197.619 133.814 202.226 Q130.758 206.809 124.948 206.809 Q119.138 206.809 116.059 202.226 Q113.004 197.619 113.004 188.892 Q113.004 180.142 116.059 175.559 Q119.138 170.953 124.948 170.953 Z" fill="#000000" fill-rule="nonzero" fill-opacity="1" /><path clip-path="url(#clip190)" d="M145.11 200.258 L149.994 200.258 L149.994 206.138 L145.11 206.138 L145.11 200.258 Z" fill="#000000" fill-rule="nonzero" fill-opacity="1" /><path clip-path="url(#clip190)" d="M173.027 175.652 L161.221 194.101 L173.027 194.101 L173.027 175.652 M171.8 171.578 L177.679 171.578 L177.679 194.101 L182.61 194.101 L182.61 197.99 L177.679 197.99 L177.679 206.138 L173.027 206.138 L173.027 197.99 L157.425 197.99 L157.425 193.476 L171.8 171.578 Z" fill="#000000" fill-rule="nonzero" fill-opacity="1" /><g clip-path="url(#clip190)">
<text style="fill:#000000; fill-opacity:1; font-family:Arial,Helvetica Neue,Helvetica,sans-serif; font-size:66px; text-anchor:middle;" transform="rotate(-90, 71.4418, 579.131)" x="71.4418" y="579.131">anomaly (degrees C)</text>
</g>
<circle clip-path="url(#clip192)" cx="261.859" cy="1080.91" r="10.8" fill="#009af9" fill-rule="evenodd" fill-opacity="1" stroke="#000000" stroke-opacity="1" stroke-width="2.56"/>
<circle clip-path="url(#clip192)" cx="444.265" cy="1021.18" r="10.8" fill="#009af9" fill-rule="evenodd" fill-opacity="1" stroke="#000000" stroke-opacity="1" stroke-width="2.56"/>
<circle clip-path="url(#clip192)" cx="626.67" cy="1057.02" r="10.8" fill="#009af9" fill-rule="evenodd" fill-opacity="1" stroke="#000000" stroke-opacity="1" stroke-width="2.56"/>
<circle clip-path="url(#clip192)" cx="809.075" cy="1009.23" r="10.8" fill="#009af9" fill-rule="evenodd" fill-opacity="1" stroke="#000000" stroke-opacity="1" stroke-width="2.56"/>
<circle clip-path="url(#clip192)" cx="991.48" cy="993.299" r="10.8" fill="#009af9" fill-rule="evenodd" fill-opacity="1" stroke="#000000" stroke-opacity="1" stroke-width="2.56"/>
<circle clip-path="url(#clip192)" cx="1173.89" cy="750.374" r="10.8" fill="#009af9" fill-rule="evenodd" fill-opacity="1" stroke="#000000" stroke-opacity="1" stroke-width="2.56"/>
<circle clip-path="url(#clip192)" cx="1356.29" cy="567.184" r="10.8" fill="#009af9" fill-rule="evenodd" fill-opacity="1" stroke="#000000" stroke-opacity="1" stroke-width="2.56"/>
<circle clip-path="url(#clip192)" cx="1538.7" cy="324.259" r="10.8" fill="#009af9" fill-rule="evenodd" fill-opacity="1" stroke="#000000" stroke-opacity="1" stroke-width="2.56"/>
<circle clip-path="url(#clip192)" cx="1721.1" cy="320.276" r="10.8" fill="#009af9" fill-rule="evenodd" fill-opacity="1" stroke="#000000" stroke-opacity="1" stroke-width="2.56"/>
<circle clip-path="url(#clip192)" cx="1903.51" cy="77.3509" r="10.8" fill="#009af9" fill-rule="evenodd" fill-opacity="1" stroke="#000000" stroke-opacity="1" stroke-width="2.56"/>
<path clip-path="url(#clip190)" d="M1620.88 1075.56 L1894.75 1075.56 L1894.75 971.879 L1620.88 971.879  Z" fill="#ffffff" fill-rule="evenodd" fill-opacity="1"/>
<polyline clip-path="url(#clip190)" style="stroke:#000000; stroke-linecap:round; stroke-linejoin:round; stroke-width:4; stroke-opacity:1; fill:none" points="1620.88,1075.56 1894.75,1075.56 1894.75,971.879 1620.88,971.879 1620.88,1075.56 "/>
<circle clip-path="url(#clip190)" cx="1698.22" cy="1023.72" r="19.7486" fill="#009af9" fill-rule="evenodd" fill-opacity="1" stroke="#000000" stroke-opacity="1" stroke-width="4.68114"/>
<path clip-path="url(#clip190)" d="M1794.47 1019.01 L1794.47 1004.98 L1798.73 1004.98 L1798.73 1041 L1794.47 1041 L1794.47 1037.11 Q1793.12 1039.43 1791.06 1040.56 Q1789.03 1041.67 1786.16 1041.67 Q1781.46 1041.67 1778.5 1037.92 Q1775.56 1034.17 1775.56 1028.06 Q1775.56 1021.95 1778.5 1018.2 Q1781.46 1014.45 1786.16 1014.45 Q1789.03 1014.45 1791.06 1015.58 Q1793.12 1016.69 1794.47 1019.01 M1779.95 1028.06 Q1779.95 1032.76 1781.87 1035.44 Q1783.82 1038.11 1787.2 1038.11 Q1790.58 1038.11 1792.52 1035.44 Q1794.47 1032.76 1794.47 1028.06 Q1794.47 1023.36 1792.52 1020.7 Q1790.58 1018.01 1787.2 1018.01 Q1783.82 1018.01 1781.87 1020.7 Q1779.95 1023.36 1779.95 1028.06 Z" fill="#000000" fill-rule="nonzero" fill-opacity="1" /><path clip-path="url(#clip190)" d="M1819.28 1027.97 Q1814.12 1027.97 1812.13 1029.15 Q1810.14 1030.33 1810.14 1033.18 Q1810.14 1035.44 1811.62 1036.79 Q1813.12 1038.11 1815.69 1038.11 Q1819.24 1038.11 1821.37 1035.61 Q1823.52 1033.08 1823.52 1028.92 L1823.52 1027.97 L1819.28 1027.97 M1827.78 1026.21 L1827.78 1041 L1823.52 1041 L1823.52 1037.06 Q1822.06 1039.43 1819.88 1040.56 Q1817.71 1041.67 1814.56 1041.67 Q1810.58 1041.67 1808.22 1039.45 Q1805.88 1037.2 1805.88 1033.45 Q1805.88 1029.08 1808.8 1026.86 Q1811.74 1024.63 1817.55 1024.63 L1823.52 1024.63 L1823.52 1024.22 Q1823.52 1021.28 1821.57 1019.68 Q1819.65 1018.06 1816.16 1018.06 Q1813.93 1018.06 1811.83 1018.59 Q1809.72 1019.12 1807.78 1020.19 L1807.78 1016.25 Q1810.12 1015.35 1812.31 1014.91 Q1814.51 1014.45 1816.6 1014.45 Q1822.22 1014.45 1825 1017.37 Q1827.78 1020.28 1827.78 1026.21 Z" fill="#000000" fill-rule="nonzero" fill-opacity="1" /><path clip-path="url(#clip190)" d="M1840.76 1007.71 L1840.76 1015.07 L1849.54 1015.07 L1849.54 1018.38 L1840.76 1018.38 L1840.76 1032.46 Q1840.76 1035.63 1841.62 1036.53 Q1842.5 1037.43 1845.16 1037.43 L1849.54 1037.43 L1849.54 1041 L1845.16 1041 Q1840.23 1041 1838.36 1039.17 Q1836.48 1037.32 1836.48 1032.46 L1836.48 1018.38 L1833.36 1018.38 L1833.36 1015.07 L1836.48 1015.07 L1836.48 1007.71 L1840.76 1007.71 Z" fill="#000000" fill-rule="nonzero" fill-opacity="1" /><path clip-path="url(#clip190)" d="M1866.92 1027.97 Q1861.76 1027.97 1859.77 1029.15 Q1857.78 1030.33 1857.78 1033.18 Q1857.78 1035.44 1859.26 1036.79 Q1860.76 1038.11 1863.33 1038.11 Q1866.87 1038.11 1869 1035.61 Q1871.16 1033.08 1871.16 1028.92 L1871.16 1027.97 L1866.92 1027.97 M1875.42 1026.21 L1875.42 1041 L1871.16 1041 L1871.16 1037.06 Q1869.7 1039.43 1867.52 1040.56 Q1865.35 1041.67 1862.2 1041.67 Q1858.22 1041.67 1855.86 1039.45 Q1853.52 1037.2 1853.52 1033.45 Q1853.52 1029.08 1856.43 1026.86 Q1859.37 1024.63 1865.18 1024.63 L1871.16 1024.63 L1871.16 1024.22 Q1871.16 1021.28 1869.21 1019.68 Q1867.29 1018.06 1863.8 1018.06 Q1861.57 1018.06 1859.47 1018.59 Q1857.36 1019.12 1855.42 1020.19 L1855.42 1016.25 Q1857.75 1015.35 1859.95 1014.91 Q1862.15 1014.45 1864.24 1014.45 Q1869.86 1014.45 1872.64 1017.37 Q1875.42 1020.28 1875.42 1026.21 Z" fill="#000000" fill-rule="nonzero" fill-opacity="1" /></svg>
