<?xml version="1.0" encoding="utf-8"?>
<svg xmlns="http://www.w3.org/2000/svg" xmlns:xlink="http://www.w3.org/1999/xlink" width="500" height="320" viewBox="0 0 2000 1280">
<defs>
  <clipPath id="clip990">
    <rect x="0" y="0" width="2000" height="1280"/>
  </clipPath>
</defs>
<path clip-path="url(#clip990)" d="M0 1280 L2000 1280 L2000 0 L0 0  Z" fill="#ffffff" fill-rule="evenodd" fill-opacity="1"/>
<defs>
  <clipPath id="clip991">
    <rect x="400" y="0" width="1401" height="1280"/>
  </clipPath>
</defs>
<path clip-path="url(#clip990)" d="M234.878 1099.23 L1952.76 1099.23 L1952.76 107.256 L234.878 107.256  Z" fill="#ffffff" fill-rule="evenodd" fill-opacity="1"/>
<defs>
  <clipPath id="clip992">
    <rect x="234" y="107" width="1719" height="993"/>
  </clipPath>
</defs>
<polyline clip-path="url(#clip992)" style="stroke:#000000; stroke-linecap:round; stroke-linejoin:round; stroke-width:2; stroke-opacity:0.1; fill:none" points="508.929,1099.23 508.929,107.256 "/>
<polyline clip-path="url(#clip992)" style="stroke:#000000; stroke-linecap:round; stroke-linejoin:round; stroke-width:2; stroke-opacity:0.1; fill:none" points="801.373,1099.23 801.373,107.256 "/>
<polyline clip-path="url(#clip992)" style="stroke:#000000; stroke-linecap:round; stroke-linejoin:round; stroke-width:2; stroke-opacity:0.1; fill:none" points="1093.82,1099.23 1093.82,107.256 "/>
<polyline clip-path="url(#clip992)" style="stroke:#000000; stroke-linecap:round; stroke-linejoin:round; stroke-width:2; stroke-opacity:0.1; fill:none" points="1386.26,1099.23 1386.26,107.256 "/>
<polyline clip-path="url(#clip992)" style="stroke:#000000; stroke-linecap:round; stroke-linejoin:round; stroke-width:2; stroke-opacity:0.1; fill:none" points="1678.71,1099.23 1678.71,107.256 "/>
<polyline clip-path="url(#clip992)" style="stroke:#000000; stroke-linecap:round; stroke-linejoin:round; stroke-width:2; stroke-opacity:0.1; fill:none" points="234.878,1071.15 1952.76,1071.15 "/>
<polyline clip-path="url(#clip992)" style="stroke:#000000; stroke-linecap:round; stroke-linejoin:round; stroke-width:2; stroke-opacity:0.1; fill:none" points="234.878,837.197 1952.76,837.197 "/>
<polyline clip-path="url(#clip992)" style="stroke:#000000; stroke-linecap:round; stroke-linejoin:round; stroke-width:2; stroke-opacity:0.1; fill:none" points="234.878,603.241 1952.76,603.241 "/>
<polyline clip-path="url(#clip992)" style="stroke:#000000; stroke-linecap:round; stroke-linejoin:round; stroke-width:2; stroke-opacity:0.1; fill:none" points="234.878,369.286 1952.76,369.286 "/>
<polyline clip-path="url(#clip992)" style="stroke:#000000; stroke-linecap:round; stroke-linejoin:round; stroke-width:2; stroke-opacity:0.1; fill:none" points="234.878,135.331 1952.76,135.331 "/>
<polyline clip-path="url(#clip990)" style="stroke:#000000; stroke-linecap:round; stroke-linejoin:round; stroke-width:4; stroke-opacity:1; fill:none" points="234.878,603.241 1952.76,603.241 "/>
<polyline clip-path="url(#clip990)" style="stroke:#000000; stroke-linecap:round; stroke-linejoin:round; stroke-width:4; stroke-opacity:0; fill:none" points="508.929,603.241 508.929,603.241 "/>
<polyline clip-path="url(#clip990)" style="stroke:#000000; stroke-linecap:round; stroke-linejoin:round; stroke-width:4; stroke-opacity:0; fill:none" points="801.373,603.241 801.373,603.241 "/>
<polyline clip-path="url(#clip990)" style="stroke:#000000; stroke-linecap:round; stroke-linejoin:round; stroke-width:4; stroke-opacity:0; fill:none" points="1093.82,603.241 1093.82,603.241 "/>
<polyline clip-path="url(#clip990)" style="stroke:#000000; stroke-linecap:round; stroke-linejoin:round; stroke-width:4; stroke-opacity:0; fill:none" points="1386.26,603.241 1386.26,603.241 "/>
<polyline clip-path="url(#clip990)" style="stroke:#000000; stroke-linecap:round; stroke-linejoin:round; stroke-width:4; stroke-opacity:0; fill:none" points="1678.71,603.241 1678.71,603.241 "/>
<path clip-path="url(#clip990)" d="M462.992 1141.6 L492.667 1141.6 L492.667 1145.53 L462.992 1145.53 L462.992 1141.6 Z" fill="#000000" fill-rule="nonzero" fill-opacity="1" /><path clip-path="url(#clip990)" d="M502.806 1123.87 L521.162 1123.87 L521.162 1127.8 L507.088 1127.8 L507.088 1136.27 Q508.107 1135.93 509.126 1135.76 Q510.144 1135.58 511.163 1135.58 Q516.95 1135.58 520.329 1138.75 Q523.709 1141.92 523.709 1147.34 Q523.709 1152.92 520.237 1156.02 Q516.764 1159.1 510.445 1159.1 Q508.269 1159.1 506.001 1158.73 Q503.755 1158.36 501.348 1157.62 L501.348 1152.92 Q503.431 1154.05 505.653 1154.61 Q507.876 1155.16 510.352 1155.16 Q514.357 1155.16 516.695 1153.06 Q519.033 1150.95 519.033 1147.34 Q519.033 1143.73 516.695 1141.62 Q514.357 1139.51 510.352 1139.51 Q508.477 1139.51 506.602 1139.93 Q504.751 1140.35 502.806 1141.23 L502.806 1123.87 Z" fill="#000000" fill-rule="nonzero" fill-opacity="1" /><path clip-path="url(#clip990)" d="M542.922 1126.95 Q539.311 1126.95 537.482 1130.51 Q535.676 1134.05 535.676 1141.18 Q535.676 1148.29 537.482 1151.85 Q539.311 1155.39 542.922 1155.39 Q546.556 1155.39 548.361 1151.85 Q550.19 1148.29 550.19 1141.18 Q550.19 1134.05 548.361 1130.51 Q546.556 1126.95 542.922 1126.95 M542.922 1123.24 Q548.732 1123.24 551.787 1127.85 Q554.866 1132.43 554.866 1141.18 Q554.866 1149.91 551.787 1154.51 Q548.732 1159.1 542.922 1159.1 Q537.111 1159.1 534.033 1154.51 Q530.977 1149.91 530.977 1141.18 Q530.977 1132.43 534.033 1127.85 Q537.111 1123.24 542.922 1123.24 Z" fill="#000000" fill-rule="nonzero" fill-opacity="1" /><path clip-path="url(#clip990)" d="M755.933 1141.6 L785.609 1141.6 L785.609 1145.53 L755.933 1145.53 L755.933 1141.6 Z" fill="#000000" fill-rule="nonzero" fill-opacity="1" /><path clip-path="url(#clip990)" d="M799.729 1154.49 L816.049 1154.49 L816.049 1158.43 L794.104 1158.43 L794.104 1154.49 Q796.767 1151.74 801.35 1147.11 Q805.956 1142.45 807.137 1141.11 Q809.382 1138.59 810.262 1136.85 Q811.165 1135.09 811.165 1133.4 Q811.165 1130.65 809.22 1128.91 Q807.299 1127.18 804.197 1127.18 Q801.998 1127.18 799.544 1127.94 Q797.114 1128.7 794.336 1130.26 L794.336 1125.53 Q797.16 1124.4 799.614 1123.82 Q802.067 1123.24 804.104 1123.24 Q809.475 1123.24 812.669 1125.93 Q815.864 1128.61 815.864 1133.1 Q815.864 1135.23 815.053 1137.15 Q814.266 1139.05 812.16 1141.64 Q811.581 1142.32 808.479 1145.53 Q805.378 1148.73 799.729 1154.49 Z" fill="#000000" fill-rule="nonzero" fill-opacity="1" /><path clip-path="url(#clip990)" d="M825.91 1123.87 L844.266 1123.87 L844.266 1127.8 L830.192 1127.8 L830.192 1136.27 Q831.211 1135.93 832.229 1135.76 Q833.248 1135.58 834.266 1135.58 Q840.053 1135.58 843.433 1138.75 Q846.813 1141.92 846.813 1147.34 Q846.813 1152.92 843.34 1156.02 Q839.868 1159.1 833.549 1159.1 Q831.373 1159.1 829.104 1158.73 Q826.859 1158.36 824.452 1157.62 L824.452 1152.92 Q826.535 1154.05 828.757 1154.61 Q830.979 1155.16 833.456 1155.16 Q837.461 1155.16 839.799 1153.06 Q842.137 1150.95 842.137 1147.34 Q842.137 1143.73 839.799 1141.62 Q837.461 1139.51 833.456 1139.51 Q831.581 1139.51 829.706 1139.93 Q827.854 1140.35 825.91 1141.23 L825.91 1123.87 Z" fill="#000000" fill-rule="nonzero" fill-opacity="1" /><path clip-path="url(#clip990)" d="M1093.82 1126.95 Q1090.21 1126.95 1088.38 1130.51 Q1086.57 1134.05 1086.57 1141.18 Q1086.57 1148.29 1088.38 1151.85 Q1090.21 1155.39 1093.82 1155.39 Q1097.45 1155.39 1099.26 1151.85 Q1101.09 1148.29 1101.09 1141.18 Q1101.09 1134.05 1099.26 1130.51 Q1097.45 1126.95 1093.82 1126.95 M1093.82 1123.24 Q1099.63 1123.24 1102.68 1127.85 Q1105.76 1132.43 1105.76 1141.18 Q1105.76 1149.91 1102.68 1154.51 Q1099.63 1159.1 1093.82 1159.1 Q1088.01 1159.1 1084.93 1154.51 Q1081.87 1149.91 1081.87 1141.18 Q1081.87 1132.43 1084.93 1127.85 Q1088.01 1123.24 1093.82 1123.24 Z" fill="#000000" fill-rule="nonzero" fill-opacity="1" /><path clip-path="url(#clip990)" d="M1365.53 1154.49 L1381.85 1154.49 L1381.85 1158.43 L1359.91 1158.43 L1359.91 1154.49 Q1362.57 1151.74 1367.15 1147.11 Q1371.76 1142.45 1372.94 1141.11 Q1375.19 1138.59 1376.06 1136.85 Q1376.97 1135.09 1376.97 1133.4 Q1376.97 1130.65 1375.02 1128.91 Q1373.1 1127.18 1370 1127.18 Q1367.8 1127.18 1365.35 1127.94 Q1362.92 1128.7 1360.14 1130.26 L1360.14 1125.53 Q1362.96 1124.4 1365.42 1123.82 Q1367.87 1123.24 1369.91 1123.24 Q1375.28 1123.24 1378.47 1125.93 Q1381.67 1128.61 1381.67 1133.1 Q1381.67 1135.23 1380.86 1137.15 Q1380.07 1139.05 1377.96 1141.64 Q1377.38 1142.32 1374.28 1145.53 Q1371.18 1148.73 1365.53 1154.49 Z" fill="#000000" fill-rule="nonzero" fill-opacity="1" /><path clip-path="url(#clip990)" d="M1391.71 1123.87 L1410.07 1123.87 L1410.07 1127.8 L1396 1127.8 L1396 1136.27 Q1397.01 1135.93 1398.03 1135.76 Q1399.05 1135.58 1400.07 1135.58 Q1405.86 1135.58 1409.24 1138.75 Q1412.62 1141.92 1412.62 1147.34 Q1412.62 1152.92 1409.14 1156.02 Q1405.67 1159.1 1399.35 1159.1 Q1397.18 1159.1 1394.91 1158.73 Q1392.66 1158.36 1390.25 1157.62 L1390.25 1152.92 Q1392.34 1154.05 1394.56 1154.61 Q1396.78 1155.16 1399.26 1155.16 Q1403.26 1155.16 1405.6 1153.06 Q1407.94 1150.95 1407.94 1147.34 Q1407.94 1143.73 1405.6 1141.62 Q1403.26 1139.51 1399.26 1139.51 Q1397.38 1139.51 1395.51 1139.93 Q1393.66 1140.35 1391.71 1141.23 L1391.71 1123.87 Z" fill="#000000" fill-rule="nonzero" fill-opacity="1" /><path clip-path="url(#clip990)" d="M1653.4 1123.87 L1671.76 1123.87 L1671.76 1127.8 L1657.69 1127.8 L1657.69 1136.27 Q1658.71 1135.93 1659.72 1135.76 Q1660.74 1135.58 1661.76 1135.58 Q1667.55 1135.58 1670.93 1138.75 Q1674.31 1141.92 1674.31 1147.34 Q1674.31 1152.92 1670.84 1156.02 Q1667.36 1159.1 1661.04 1159.1 Q1658.87 1159.1 1656.6 1158.73 Q1654.35 1158.36 1651.95 1157.62 L1651.95 1152.92 Q1654.03 1154.05 1656.25 1154.61 Q1658.47 1155.16 1660.95 1155.16 Q1664.96 1155.16 1667.29 1153.06 Q1669.63 1150.95 1669.63 1147.34 Q1669.63 1143.73 1667.29 1141.62 Q1664.96 1139.51 1660.95 1139.51 Q1659.08 1139.51 1657.2 1139.93 Q1655.35 1140.35 1653.4 1141.23 L1653.4 1123.87 Z" fill="#000000" fill-rule="nonzero" fill-opacity="1" /><path clip-path="url(#clip990)" d="M1693.52 1126.95 Q1689.91 1126.95 1688.08 1130.51 Q1686.27 1134.05 1686.27 1141.18 Q1686.27 1148.29 1688.08 1151.85 Q1689.91 1155.39 1693.52 1155.39 Q1697.15 1155.39 1698.96 1151.85 Q1700.79 1148.29 1700.79 1141.18 Q1700.79 1134.05 1698.96 1130.51 Q1697.15 1126.95 1693.52 1126.95 M1693.52 1123.24 Q1699.33 1123.24 1702.39 1127.85 Q1705.46 1132.43 1705.46 1141.18 Q1705.46 1149.91 1702.39 1154.51 Q1699.33 1159.1 1693.52 1159.1 Q1687.71 1159.1 1684.63 1154.51 Q1681.58 1149.91 1681.58 1141.18 Q1681.58 1132.43 1684.63 1127.85 Q1687.71 1123.24 1693.52 1123.24 Z" fill="#000000" fill-rule="nonzero" fill-opacity="1" /><g clip-path="url(#clip990)">
<text style="fill:#000000; fill-opacity:1; font-family:Arial,Helvetica Neue,Helvetica,sans-serif; font-size:66px; text-anchor:middle;" transform="rotate(0, 1093.82, 1240.63)" x="1093.82" y="1240.63">Re λ</text>
</g>
<polyline clip-path="url(#clip990)" style="stroke:#000000; stroke-linecap:round; stroke-linejoin:round; stroke-width:4; stroke-opacity:1; fill:none" points="1093.82,1099.23 1093.82,107.256 "/>
<polyline clip-path="url(#clip990)" style="stroke:#000000; stroke-linecap:round; stroke-linejoin:round; stroke-width:4; stroke-opacity:0; fill:none" points="1093.82,1071.15 1093.82,1071.15 "/>
<polyline clip-path="url(#clip990)" style="stroke:#000000; stroke-linecap:round; stroke-linejoin:round; stroke-width:4; stroke-opacity:0; fill:none" points="1093.82,837.197 1093.82,837.197 "/>
<polyline clip-path="url(#clip990)" style="stroke:#000000; stroke-linecap:round; stroke-linejoin:round; stroke-width:4; stroke-opacity:0; fill:none" points="1093.82,603.241 1093.82,603.241 "/>
<polyline clip-path="url(#clip990)" style="stroke:#000000; stroke-linecap:round; stroke-linejoin:round; stroke-width:4; stroke-opacity:0; fill:none" points="1093.82,369.286 1093.82,369.286 "/>
<polyline clip-path="url(#clip990)" style="stroke:#000000; stroke-linecap:round; stroke-linejoin:round; stroke-width:4; stroke-opacity:0; fill:none" points="1093.82,135.331 1093.82,135.331 "/>
<path clip-path="url(#clip990)" d="M113.004 1071.6 L142.68 1071.6 L142.68 1075.54 L113.004 1075.54 L113.004 1071.6 Z" fill="#000000" fill-rule="nonzero" fill-opacity="1" /><path clip-path="url(#clip990)" d="M165.619 1057.95 L153.814 1076.39 L165.619 1076.39 L165.619 1057.95 M164.393 1053.87 L170.272 1053.87 L170.272 1076.39 L175.203 1076.39 L175.203 1080.28 L170.272 1080.28 L170.272 1088.43 L165.619 1088.43 L165.619 1080.28 L150.018 1080.28 L150.018 1075.77 L164.393 1053.87 Z" fill="#000000" fill-rule="nonzero" fill-opacity="1" /><path clip-path="url(#clip990)" d="M192.934 1056.95 Q189.323 1056.95 187.494 1060.52 Q185.689 1064.06 185.689 1071.19 Q185.689 1078.29 187.494 1081.86 Q189.323 1085.4 192.934 1085.4 Q196.568 1085.4 198.374 1081.86 Q200.203 1078.29 200.203 1071.19 Q200.203 1064.06 198.374 1060.52 Q196.568 1056.95 192.934 1056.95 M192.934 1053.25 Q198.744 1053.25 201.8 1057.85 Q204.878 1062.44 204.878 1071.19 Q204.878 1079.91 201.8 1084.52 Q198.744 1089.1 192.934 1089.1 Q187.124 1089.1 184.045 1084.52 Q180.99 1079.91 180.99 1071.19 Q180.99 1062.44 184.045 1057.85 Q187.124 1053.25 192.934 1053.25 Z" fill="#000000" fill-rule="nonzero" fill-opacity="1" /><path clip-path="url(#clip990)" d="M113.004 837.648 L142.68 837.648 L142.68 841.583 L113.004 841.583 L113.004 837.648 Z" fill="#000000" fill-rule="nonzero" fill-opacity="1" /><path clip-path="url(#clip990)" d="M156.8 850.541 L173.119 850.541 L173.119 854.477 L151.175 854.477 L151.175 850.541 Q153.837 847.787 158.42 843.157 Q163.027 838.504 164.207 837.162 Q166.453 834.639 167.332 832.903 Q168.235 831.143 168.235 829.454 Q168.235 826.699 166.291 824.963 Q164.369 823.227 161.268 823.227 Q159.068 823.227 156.615 823.991 Q154.184 824.755 151.406 826.305 L151.406 821.583 Q154.231 820.449 156.684 819.87 Q159.138 819.292 161.175 819.292 Q166.545 819.292 169.74 821.977 Q172.934 824.662 172.934 829.153 Q172.934 831.282 172.124 833.204 Q171.337 835.102 169.23 837.694 Q168.652 838.366 165.55 841.583 Q162.448 844.778 156.8 850.541 Z" fill="#000000" fill-rule="nonzero" fill-opacity="1" /><path clip-path="url(#clip990)" d="M192.934 822.995 Q189.323 822.995 187.494 826.56 Q185.689 830.102 185.689 837.231 Q185.689 844.338 187.494 847.903 Q189.323 851.444 192.934 851.444 Q196.568 851.444 198.374 847.903 Q200.203 844.338 200.203 837.231 Q200.203 830.102 198.374 826.56 Q196.568 822.995 192.934 822.995 M192.934 819.292 Q198.744 819.292 201.8 823.898 Q204.878 828.481 204.878 837.231 Q204.878 845.958 201.8 850.565 Q198.744 855.148 192.934 855.148 Q187.124 855.148 184.045 850.565 Q180.99 845.958 180.99 837.231 Q180.99 828.481 184.045 823.898 Q187.124 819.292 192.934 819.292 Z" fill="#000000" fill-rule="nonzero" fill-opacity="1" /><path clip-path="url(#clip990)" d="M192.934 589.04 Q189.323 589.04 187.494 592.605 Q185.689 596.146 185.689 603.276 Q185.689 610.382 187.494 613.947 Q189.323 617.489 192.934 617.489 Q196.568 617.489 198.374 613.947 Q200.203 610.382 200.203 603.276 Q200.203 596.146 198.374 592.605 Q196.568 589.04 192.934 589.04 M192.934 585.336 Q198.744 585.336 201.8 589.943 Q204.878 594.526 204.878 603.276 Q204.878 612.003 201.8 616.609 Q198.744 621.193 192.934 621.193 Q187.124 621.193 184.045 616.609 Q180.99 612.003 180.99 603.276 Q180.99 594.526 184.045 589.943 Q187.124 585.336 192.934 585.336 Z" fill="#000000" fill-rule="nonzero" fill-opacity="1" /><path clip-path="url(#clip990)" d="M156.8 382.631 L173.119 382.631 L173.119 386.566 L151.175 386.566 L151.175 382.631 Q153.837 379.876 158.42 375.247 Q163.027 370.594 164.207 369.251 Q166.453 366.728 167.332 364.992 Q168.235 363.233 168.235 361.543 Q168.235 358.788 166.291 357.052 Q164.369 355.316 161.268 355.316 Q159.068 355.316 156.615 356.08 Q154.184 356.844 151.406 358.395 L151.406 353.673 Q154.231 352.538 156.684 351.96 Q159.138 351.381 161.175 351.381 Q166.545 351.381 169.74 354.066 Q172.934 356.751 172.934 361.242 Q172.934 363.372 172.124 365.293 Q171.337 367.191 169.23 369.784 Q168.652 370.455 165.55 373.672 Q162.448 376.867 156.8 382.631 Z" fill="#000000" fill-rule="nonzero" fill-opacity="1" /><path clip-path="url(#clip990)" d="M192.934 355.085 Q189.323 355.085 187.494 358.649 Q185.689 362.191 185.689 369.321 Q185.689 376.427 187.494 379.992 Q189.323 383.533 192.934 383.533 Q196.568 383.533 198.374 379.992 Q200.203 376.427 200.203 369.321 Q200.203 362.191 198.374 358.649 Q196.568 355.085 192.934 355.085 M192.934 351.381 Q198.744 351.381 201.8 355.987 Q204.878 360.571 204.878 369.321 Q204.878 378.047 201.8 382.654 Q198.744 387.237 192.934 387.237 Q187.124 387.237 184.045 382.654 Q180.99 378.047 180.99 369.321 Q180.99 360.571 184.045 355.987 Q187.124 351.381 192.934 351.381 Z" fill="#000000" fill-rule="nonzero" fill-opacity="1" /><path clip-path="url(#clip990)" d="M165.619 122.125 L153.814 140.574 L165.619 140.574 L165.619 122.125 M164.393 118.051 L170.272 118.051 L170.272 140.574 L175.203 140.574 L175.203 144.462 L170.272 144.462 L170.272 152.611 L165.619 152.611 L165.619 144.462 L150.018 144.462 L150.018 139.949 L164.393 118.051 Z" fill="#000000" fill-rule="nonzero" fill-opacity="1" /><path clip-path="url(#clip990)" d="M192.934 121.129 Q189.323 121.129 187.494 124.694 Q185.689 128.236 185.689 135.365 Q185.689 142.472 187.494 146.036 Q189.323 149.578 192.934 149.578 Q196.568 149.578 198.374 146.036 Q200.203 142.472 200.203 135.365 Q200.203 128.236 198.374 124.694 Q196.568 121.129 192.934 121.129 M192.934 117.426 Q198.744 117.426 201.8 122.032 Q204.878 126.615 204.878 135.365 Q204.878 144.092 201.8 148.699 Q198.744 153.282 192.934 153.282 Q187.124 153.282 184.045 148.699 Q180.99 144.092 180.99 135.365 Q180.99 126.615 184.045 122.032 Q187.124 117.426 192.934 117.426 Z" fill="#000000" fill-rule="nonzero" fill-opacity="1" /><g clip-path="url(#clip990)">
<text style="fill:#000000; fill-opacity:1; font-family:Arial,Helvetica Neue,Helvetica,sans-serif; font-size:66px; text-anchor:middle;" transform="rotate(-90, 71.4418, 603.241)" x="71.4418" y="603.241">Im λ</text>
</g>
<g clip-path="url(#clip990)">
<text style="fill:#000000; fill-opacity:1; font-family:Arial,Helvetica Neue,Helvetica,sans-serif; font-size:66px; text-anchor:middle;" transform="rotate(0, 1093.82, 57.6)" x="1093.82" y="57.6">Eigenvalues for pure advection</text>
</g>
<circle clip-path="url(#clip992)" cx="1093.82" cy="981.789" r="10.8" fill="#009af9" fill-rule="evenodd" fill-opacity="1" stroke="#000000" stroke-opacity="1" stroke-width="2.56"/>
<circle clip-path="url(#clip992)" cx="1093.82" cy="224.694" r="10.8" fill="#009af9" fill-rule="evenodd" fill-opacity="1" stroke="#000000" stroke-opacity="1" stroke-width="2.56"/>
<circle clip-path="url(#clip992)" cx="1093.82" cy="981.789" r="10.8" fill="#009af9" fill-rule="evenodd" fill-opacity="1" stroke="#000000" stroke-opacity="1" stroke-width="2.56"/>
<circle clip-path="url(#clip992)" cx="1093.82" cy="224.694" r="10.8" fill="#009af9" fill-rule="evenodd" fill-opacity="1" stroke="#000000" stroke-opacity="1" stroke-width="2.56"/>
<circle clip-path="url(#clip992)" cx="1093.82" cy="934.104" r="10.8" fill="#009af9" fill-rule="evenodd" fill-opacity="1" stroke="#000000" stroke-opacity="1" stroke-width="2.56"/>
<circle clip-path="url(#clip992)" cx="1093.82" cy="272.378" r="10.8" fill="#009af9" fill-rule="evenodd" fill-opacity="1" stroke="#000000" stroke-opacity="1" stroke-width="2.56"/>
<circle clip-path="url(#clip992)" cx="1093.82" cy="934.104" r="10.8" fill="#009af9" fill-rule="evenodd" fill-opacity="1" stroke="#000000" stroke-opacity="1" stroke-width="2.56"/>
<circle clip-path="url(#clip992)" cx="1093.82" cy="272.378" r="10.8" fill="#009af9" fill-rule="evenodd" fill-opacity="1" stroke="#000000" stroke-opacity="1" stroke-width="2.56"/>
<circle clip-path="url(#clip992)" cx="1093.82" cy="878.272" r="10.8" fill="#009af9" fill-rule="evenodd" fill-opacity="1" stroke="#000000" stroke-opacity="1" stroke-width="2.56"/>
<circle clip-path="url(#clip992)" cx="1093.82" cy="328.21" r="10.8" fill="#009af9" fill-rule="evenodd" fill-opacity="1" stroke="#000000" stroke-opacity="1" stroke-width="2.56"/>
<circle clip-path="url(#clip992)" cx="1093.82" cy="815.668" r="10.8" fill="#009af9" fill-rule="evenodd" fill-opacity="1" stroke="#000000" stroke-opacity="1" stroke-width="2.56"/>
<circle clip-path="url(#clip992)" cx="1093.82" cy="390.814" r="10.8" fill="#009af9" fill-rule="evenodd" fill-opacity="1" stroke="#000000" stroke-opacity="1" stroke-width="2.56"/>
<circle clip-path="url(#clip992)" cx="1093.82" cy="815.668" r="10.8" fill="#009af9" fill-rule="evenodd" fill-opacity="1" stroke="#000000" stroke-opacity="1" stroke-width="2.56"/>
<circle clip-path="url(#clip992)" cx="1093.82" cy="390.814" r="10.8" fill="#009af9" fill-rule="evenodd" fill-opacity="1" stroke="#000000" stroke-opacity="1" stroke-width="2.56"/>
<circle clip-path="url(#clip992)" cx="1093.82" cy="603.241" r="10.8" fill="#009af9" fill-rule="evenodd" fill-opacity="1" stroke="#000000" stroke-opacity="1" stroke-width="2.56"/>
<circle clip-path="url(#clip992)" cx="1093.82" cy="603.241" r="10.8" fill="#009af9" fill-rule="evenodd" fill-opacity="1" stroke="#000000" stroke-opacity="1" stroke-width="2.56"/>
<circle clip-path="url(#clip992)" cx="1093.82" cy="676.439" r="10.8" fill="#009af9" fill-rule="evenodd" fill-opacity="1" stroke="#000000" stroke-opacity="1" stroke-width="2.56"/>
<circle clip-path="url(#clip992)" cx="1093.82" cy="530.044" r="10.8" fill="#009af9" fill-rule="evenodd" fill-opacity="1" stroke="#000000" stroke-opacity="1" stroke-width="2.56"/>
<circle clip-path="url(#clip992)" cx="1093.82" cy="1020.15" r="10.8" fill="#009af9" fill-rule="evenodd" fill-opacity="1" stroke="#000000" stroke-opacity="1" stroke-width="2.56"/>
<circle clip-path="url(#clip992)" cx="1093.82" cy="186.33" r="10.8" fill="#009af9" fill-rule="evenodd" fill-opacity="1" stroke="#000000" stroke-opacity="1" stroke-width="2.56"/>
<circle clip-path="url(#clip992)" cx="1093.82" cy="747.834" r="10.8" fill="#009af9" fill-rule="evenodd" fill-opacity="1" stroke="#000000" stroke-opacity="1" stroke-width="2.56"/>
<circle clip-path="url(#clip992)" cx="1093.82" cy="458.649" r="10.8" fill="#009af9" fill-rule="evenodd" fill-opacity="1" stroke="#000000" stroke-opacity="1" stroke-width="2.56"/>
<circle clip-path="url(#clip992)" cx="1093.82" cy="676.439" r="10.8" fill="#009af9" fill-rule="evenodd" fill-opacity="1" stroke="#000000" stroke-opacity="1" stroke-width="2.56"/>
<circle clip-path="url(#clip992)" cx="1093.82" cy="530.044" r="10.8" fill="#009af9" fill-rule="evenodd" fill-opacity="1" stroke="#000000" stroke-opacity="1" stroke-width="2.56"/>
<circle clip-path="url(#clip992)" cx="1093.82" cy="747.834" r="10.8" fill="#009af9" fill-rule="evenodd" fill-opacity="1" stroke="#000000" stroke-opacity="1" stroke-width="2.56"/>
<circle clip-path="url(#clip992)" cx="1093.82" cy="458.649" r="10.8" fill="#009af9" fill-rule="evenodd" fill-opacity="1" stroke="#000000" stroke-opacity="1" stroke-width="2.56"/>
<circle clip-path="url(#clip992)" cx="1093.82" cy="1065.39" r="10.8" fill="#009af9" fill-rule="evenodd" fill-opacity="1" stroke="#000000" stroke-opacity="1" stroke-width="2.56"/>
<circle clip-path="url(#clip992)" cx="1093.82" cy="141.091" r="10.8" fill="#009af9" fill-rule="evenodd" fill-opacity="1" stroke="#000000" stroke-opacity="1" stroke-width="2.56"/>
<circle clip-path="url(#clip992)" cx="1093.82" cy="1020.15" r="10.8" fill="#009af9" fill-rule="evenodd" fill-opacity="1" stroke="#000000" stroke-opacity="1" stroke-width="2.56"/>
<circle clip-path="url(#clip992)" cx="1093.82" cy="186.33" r="10.8" fill="#009af9" fill-rule="evenodd" fill-opacity="1" stroke="#000000" stroke-opacity="1" stroke-width="2.56"/>
<circle clip-path="url(#clip992)" cx="1093.82" cy="1071.15" r="10.8" fill="#009af9" fill-rule="evenodd" fill-opacity="1" stroke="#000000" stroke-opacity="1" stroke-width="2.56"/>
<circle clip-path="url(#clip992)" cx="1093.82" cy="135.331" r="10.8" fill="#009af9" fill-rule="evenodd" fill-opacity="1" stroke="#000000" stroke-opacity="1" stroke-width="2.56"/>
<circle clip-path="url(#clip992)" cx="1093.82" cy="878.272" r="10.8" fill="#009af9" fill-rule="evenodd" fill-opacity="1" stroke="#000000" stroke-opacity="1" stroke-width="2.56"/>
<circle clip-path="url(#clip992)" cx="1093.82" cy="328.21" r="10.8" fill="#009af9" fill-rule="evenodd" fill-opacity="1" stroke="#000000" stroke-opacity="1" stroke-width="2.56"/>
<circle clip-path="url(#clip992)" cx="1093.82" cy="1048.25" r="10.8" fill="#009af9" fill-rule="evenodd" fill-opacity="1" stroke="#000000" stroke-opacity="1" stroke-width="2.56"/>
<circle clip-path="url(#clip992)" cx="1093.82" cy="158.232" r="10.8" fill="#009af9" fill-rule="evenodd" fill-opacity="1" stroke="#000000" stroke-opacity="1" stroke-width="2.56"/>
<circle clip-path="url(#clip992)" cx="1093.82" cy="1048.25" r="10.8" fill="#009af9" fill-rule="evenodd" fill-opacity="1" stroke="#000000" stroke-opacity="1" stroke-width="2.56"/>
<circle clip-path="url(#clip992)" cx="1093.82" cy="158.232" r="10.8" fill="#009af9" fill-rule="evenodd" fill-opacity="1" stroke="#000000" stroke-opacity="1" stroke-width="2.56"/>
<circle clip-path="url(#clip992)" cx="1093.82" cy="1065.39" r="10.8" fill="#009af9" fill-rule="evenodd" fill-opacity="1" stroke="#000000" stroke-opacity="1" stroke-width="2.56"/>
<circle clip-path="url(#clip992)" cx="1093.82" cy="141.091" r="10.8" fill="#009af9" fill-rule="evenodd" fill-opacity="1" stroke="#000000" stroke-opacity="1" stroke-width="2.56"/>
</svg>
