<?xml version="1.0" encoding="utf-8"?>
<svg xmlns="http://www.w3.org/2000/svg" xmlns:xlink="http://www.w3.org/1999/xlink" width="500" height="320" viewBox="0 0 2000 1280">
<defs>
  <clipPath id="clip500">
    <rect x="0" y="0" width="2000" height="1280"/>
  </clipPath>
</defs>
<path clip-path="url(#clip500)" d="M0 1280 L2000 1280 L2000 0 L0 0  Z" fill="#ffffff" fill-rule="evenodd" fill-opacity="1"/>
<defs>
  <clipPath id="clip501">
    <rect x="400" y="0" width="1401" height="1280"/>
  </clipPath>
</defs>
<path clip-path="url(#clip500)" d="M182.274 1171.03 L1952.76 1171.03 L1952.76 47.2441 L182.274 47.2441  Z" fill="#ffffff" fill-rule="evenodd" fill-opacity="1"/>
<defs>
  <clipPath id="clip502">
    <rect x="182" y="47" width="1771" height="1125"/>
  </clipPath>
</defs>
<polyline clip-path="url(#clip502)" style="stroke:#000000; stroke-linecap:round; stroke-linejoin:round; stroke-width:2; stroke-opacity:0.1; fill:none" points="232.382,1171.03 232.382,47.2441 "/>
<polyline clip-path="url(#clip502)" style="stroke:#000000; stroke-linecap:round; stroke-linejoin:round; stroke-width:2; stroke-opacity:0.1; fill:none" points="649.948,1171.03 649.948,47.2441 "/>
<polyline clip-path="url(#clip502)" style="stroke:#000000; stroke-linecap:round; stroke-linejoin:round; stroke-width:2; stroke-opacity:0.1; fill:none" points="1067.51,1171.03 1067.51,47.2441 "/>
<polyline clip-path="url(#clip502)" style="stroke:#000000; stroke-linecap:round; stroke-linejoin:round; stroke-width:2; stroke-opacity:0.1; fill:none" points="1485.08,1171.03 1485.08,47.2441 "/>
<polyline clip-path="url(#clip502)" style="stroke:#000000; stroke-linecap:round; stroke-linejoin:round; stroke-width:2; stroke-opacity:0.1; fill:none" points="1902.65,1171.03 1902.65,47.2441 "/>
<polyline clip-path="url(#clip502)" style="stroke:#000000; stroke-linecap:round; stroke-linejoin:round; stroke-width:2; stroke-opacity:0.1; fill:none" points="182.274,1139.23 1952.76,1139.23 "/>
<polyline clip-path="url(#clip502)" style="stroke:#000000; stroke-linecap:round; stroke-linejoin:round; stroke-width:2; stroke-opacity:0.1; fill:none" points="182.274,874.181 1952.76,874.181 "/>
<polyline clip-path="url(#clip502)" style="stroke:#000000; stroke-linecap:round; stroke-linejoin:round; stroke-width:2; stroke-opacity:0.1; fill:none" points="182.274,609.137 1952.76,609.137 "/>
<polyline clip-path="url(#clip502)" style="stroke:#000000; stroke-linecap:round; stroke-linejoin:round; stroke-width:2; stroke-opacity:0.1; fill:none" points="182.274,344.093 1952.76,344.093 "/>
<polyline clip-path="url(#clip502)" style="stroke:#000000; stroke-linecap:round; stroke-linejoin:round; stroke-width:2; stroke-opacity:0.1; fill:none" points="182.274,79.0494 1952.76,79.0494 "/>
<polyline clip-path="url(#clip500)" style="stroke:#000000; stroke-linecap:round; stroke-linejoin:round; stroke-width:4; stroke-opacity:1; fill:none" points="182.274,1171.03 1952.76,1171.03 "/>
<polyline clip-path="url(#clip500)" style="stroke:#000000; stroke-linecap:round; stroke-linejoin:round; stroke-width:4; stroke-opacity:1; fill:none" points="232.382,1171.03 232.382,1152.13 "/>
<polyline clip-path="url(#clip500)" style="stroke:#000000; stroke-linecap:round; stroke-linejoin:round; stroke-width:4; stroke-opacity:1; fill:none" points="649.948,1171.03 649.948,1152.13 "/>
<polyline clip-path="url(#clip500)" style="stroke:#000000; stroke-linecap:round; stroke-linejoin:round; stroke-width:4; stroke-opacity:1; fill:none" points="1067.51,1171.03 1067.51,1152.13 "/>
<polyline clip-path="url(#clip500)" style="stroke:#000000; stroke-linecap:round; stroke-linejoin:round; stroke-width:4; stroke-opacity:1; fill:none" points="1485.08,1171.03 1485.08,1152.13 "/>
<polyline clip-path="url(#clip500)" style="stroke:#000000; stroke-linecap:round; stroke-linejoin:round; stroke-width:4; stroke-opacity:1; fill:none" points="1902.65,1171.03 1902.65,1152.13 "/>
<path clip-path="url(#clip500)" d="M178.91 1213.4 L208.586 1213.4 L208.586 1217.34 L178.91 1217.34 L178.91 1213.4 Z" fill="#000000" fill-rule="nonzero" fill-opacity="1" /><path clip-path="url(#clip500)" d="M219.489 1226.3 L227.127 1226.3 L227.127 1199.93 L218.817 1201.6 L218.817 1197.34 L227.081 1195.67 L231.757 1195.67 L231.757 1226.3 L239.396 1226.3 L239.396 1230.23 L219.489 1230.23 L219.489 1226.3 Z" fill="#000000" fill-rule="nonzero" fill-opacity="1" /><path clip-path="url(#clip500)" d="M248.84 1224.35 L253.724 1224.35 L253.724 1230.23 L248.84 1230.23 L248.84 1224.35 Z" fill="#000000" fill-rule="nonzero" fill-opacity="1" /><path clip-path="url(#clip500)" d="M273.91 1198.75 Q270.298 1198.75 268.47 1202.31 Q266.664 1205.86 266.664 1212.98 Q266.664 1220.09 268.47 1223.66 Q270.298 1227.2 273.91 1227.2 Q277.544 1227.2 279.349 1223.66 Q281.178 1220.09 281.178 1212.98 Q281.178 1205.86 279.349 1202.31 Q277.544 1198.75 273.91 1198.75 M273.91 1195.05 Q279.72 1195.05 282.775 1199.65 Q285.854 1204.24 285.854 1212.98 Q285.854 1221.71 282.775 1226.32 Q279.72 1230.9 273.91 1230.9 Q268.099 1230.9 265.021 1226.32 Q261.965 1221.71 261.965 1212.98 Q261.965 1204.24 265.021 1199.65 Q268.099 1195.05 273.91 1195.05 Z" fill="#000000" fill-rule="nonzero" fill-opacity="1" /><path clip-path="url(#clip500)" d="M596.974 1213.4 L626.65 1213.4 L626.65 1217.34 L596.974 1217.34 L596.974 1213.4 Z" fill="#000000" fill-rule="nonzero" fill-opacity="1" /><path clip-path="url(#clip500)" d="M646.742 1198.75 Q643.131 1198.75 641.303 1202.31 Q639.497 1205.86 639.497 1212.98 Q639.497 1220.09 641.303 1223.66 Q643.131 1227.2 646.742 1227.2 Q650.377 1227.2 652.182 1223.66 Q654.011 1220.09 654.011 1212.98 Q654.011 1205.86 652.182 1202.31 Q650.377 1198.75 646.742 1198.75 M646.742 1195.05 Q652.553 1195.05 655.608 1199.65 Q658.687 1204.24 658.687 1212.98 Q658.687 1221.71 655.608 1226.32 Q652.553 1230.9 646.742 1230.9 Q640.932 1230.9 637.854 1226.32 Q634.798 1221.71 634.798 1212.98 Q634.798 1204.24 637.854 1199.65 Q640.932 1195.05 646.742 1195.05 Z" fill="#000000" fill-rule="nonzero" fill-opacity="1" /><path clip-path="url(#clip500)" d="M666.904 1224.35 L671.789 1224.35 L671.789 1230.23 L666.904 1230.23 L666.904 1224.35 Z" fill="#000000" fill-rule="nonzero" fill-opacity="1" /><path clip-path="url(#clip500)" d="M682.02 1195.67 L700.376 1195.67 L700.376 1199.61 L686.302 1199.61 L686.302 1208.08 Q687.321 1207.73 688.339 1207.57 Q689.358 1207.38 690.376 1207.38 Q696.163 1207.38 699.543 1210.55 Q702.923 1213.73 702.923 1219.14 Q702.923 1224.72 699.451 1227.82 Q695.978 1230.9 689.659 1230.9 Q687.483 1230.9 685.214 1230.53 Q682.969 1230.16 680.562 1229.42 L680.562 1224.72 Q682.645 1225.86 684.867 1226.41 Q687.089 1226.97 689.566 1226.97 Q693.571 1226.97 695.909 1224.86 Q698.247 1222.75 698.247 1219.14 Q698.247 1215.53 695.909 1213.42 Q693.571 1211.32 689.566 1211.32 Q687.691 1211.32 685.816 1211.74 Q683.964 1212.15 682.02 1213.03 L682.02 1195.67 Z" fill="#000000" fill-rule="nonzero" fill-opacity="1" /><path clip-path="url(#clip500)" d="M1044.9 1198.75 Q1041.29 1198.75 1039.46 1202.31 Q1037.65 1205.86 1037.65 1212.98 Q1037.65 1220.09 1039.46 1223.66 Q1041.29 1227.2 1044.9 1227.2 Q1048.53 1227.2 1050.34 1223.66 Q1052.17 1220.09 1052.17 1212.98 Q1052.17 1205.86 1050.34 1202.31 Q1048.53 1198.75 1044.9 1198.75 M1044.9 1195.05 Q1050.71 1195.05 1053.77 1199.65 Q1056.84 1204.24 1056.84 1212.98 Q1056.84 1221.71 1053.77 1226.32 Q1050.71 1230.9 1044.9 1230.9 Q1039.09 1230.9 1036.01 1226.32 Q1032.95 1221.71 1032.95 1212.98 Q1032.95 1204.24 1036.01 1199.65 Q1039.09 1195.05 1044.9 1195.05 Z" fill="#000000" fill-rule="nonzero" fill-opacity="1" /><path clip-path="url(#clip500)" d="M1065.06 1224.35 L1069.95 1224.35 L1069.95 1230.23 L1065.06 1230.23 L1065.06 1224.35 Z" fill="#000000" fill-rule="nonzero" fill-opacity="1" /><path clip-path="url(#clip500)" d="M1090.13 1198.75 Q1086.52 1198.75 1084.69 1202.31 Q1082.89 1205.86 1082.89 1212.98 Q1082.89 1220.09 1084.69 1223.66 Q1086.52 1227.2 1090.13 1227.2 Q1093.76 1227.2 1095.57 1223.66 Q1097.4 1220.09 1097.4 1212.98 Q1097.4 1205.86 1095.57 1202.31 Q1093.76 1198.75 1090.13 1198.75 M1090.13 1195.05 Q1095.94 1195.05 1099 1199.65 Q1102.07 1204.24 1102.07 1212.98 Q1102.07 1221.71 1099 1226.32 Q1095.94 1230.9 1090.13 1230.9 Q1084.32 1230.9 1081.24 1226.32 Q1078.19 1221.71 1078.19 1212.98 Q1078.19 1204.24 1081.24 1199.65 Q1084.32 1195.05 1090.13 1195.05 Z" fill="#000000" fill-rule="nonzero" fill-opacity="1" /><path clip-path="url(#clip500)" d="M1462.96 1198.75 Q1459.35 1198.75 1457.52 1202.31 Q1455.72 1205.86 1455.72 1212.98 Q1455.72 1220.09 1457.52 1223.66 Q1459.35 1227.2 1462.96 1227.2 Q1466.6 1227.2 1468.4 1223.66 Q1470.23 1220.09 1470.23 1212.98 Q1470.23 1205.86 1468.4 1202.31 Q1466.6 1198.75 1462.96 1198.75 M1462.96 1195.05 Q1468.77 1195.05 1471.83 1199.65 Q1474.91 1204.24 1474.91 1212.98 Q1474.91 1221.71 1471.83 1226.32 Q1468.77 1230.9 1462.96 1230.9 Q1457.15 1230.9 1454.07 1226.32 Q1451.02 1221.71 1451.02 1212.98 Q1451.02 1204.24 1454.07 1199.65 Q1457.15 1195.05 1462.96 1195.05 Z" fill="#000000" fill-rule="nonzero" fill-opacity="1" /><path clip-path="url(#clip500)" d="M1483.13 1224.35 L1488.01 1224.35 L1488.01 1230.23 L1483.13 1230.23 L1483.13 1224.35 Z" fill="#000000" fill-rule="nonzero" fill-opacity="1" /><path clip-path="url(#clip500)" d="M1498.24 1195.67 L1516.6 1195.67 L1516.6 1199.61 L1502.52 1199.61 L1502.52 1208.08 Q1503.54 1207.73 1504.56 1207.57 Q1505.58 1207.38 1506.6 1207.38 Q1512.38 1207.38 1515.76 1210.55 Q1519.14 1213.73 1519.14 1219.14 Q1519.14 1224.72 1515.67 1227.82 Q1512.2 1230.9 1505.88 1230.9 Q1503.7 1230.9 1501.44 1230.53 Q1499.19 1230.16 1496.78 1229.42 L1496.78 1224.72 Q1498.87 1225.86 1501.09 1226.41 Q1503.31 1226.97 1505.79 1226.97 Q1509.79 1226.97 1512.13 1224.86 Q1514.47 1222.75 1514.47 1219.14 Q1514.47 1215.53 1512.13 1213.42 Q1509.79 1211.32 1505.79 1211.32 Q1503.91 1211.32 1502.04 1211.74 Q1500.19 1212.15 1498.24 1213.03 L1498.24 1195.67 Z" fill="#000000" fill-rule="nonzero" fill-opacity="1" /><path clip-path="url(#clip500)" d="M1869.8 1226.3 L1877.44 1226.3 L1877.44 1199.93 L1869.13 1201.6 L1869.13 1197.34 L1877.39 1195.67 L1882.07 1195.67 L1882.07 1226.3 L1889.71 1226.3 L1889.71 1230.23 L1869.8 1230.23 L1869.8 1226.3 Z" fill="#000000" fill-rule="nonzero" fill-opacity="1" /><path clip-path="url(#clip500)" d="M1899.15 1224.35 L1904.04 1224.35 L1904.04 1230.23 L1899.15 1230.23 L1899.15 1224.35 Z" fill="#000000" fill-rule="nonzero" fill-opacity="1" /><path clip-path="url(#clip500)" d="M1924.22 1198.75 Q1920.61 1198.75 1918.78 1202.31 Q1916.98 1205.86 1916.98 1212.98 Q1916.98 1220.09 1918.78 1223.66 Q1920.61 1227.2 1924.22 1227.2 Q1927.86 1227.2 1929.66 1223.66 Q1931.49 1220.09 1931.49 1212.98 Q1931.49 1205.86 1929.66 1202.31 Q1927.86 1198.75 1924.22 1198.75 M1924.22 1195.05 Q1930.03 1195.05 1933.09 1199.65 Q1936.17 1204.24 1936.17 1212.98 Q1936.17 1221.71 1933.09 1226.32 Q1930.03 1230.9 1924.22 1230.9 Q1918.41 1230.9 1915.33 1226.32 Q1912.28 1221.71 1912.28 1212.98 Q1912.28 1204.24 1915.33 1199.65 Q1918.41 1195.05 1924.22 1195.05 Z" fill="#000000" fill-rule="nonzero" fill-opacity="1" /><polyline clip-path="url(#clip500)" style="stroke:#000000; stroke-linecap:round; stroke-linejoin:round; stroke-width:4; stroke-opacity:1; fill:none" points="182.274,1171.03 182.274,47.2441 "/>
<polyline clip-path="url(#clip500)" style="stroke:#000000; stroke-linecap:round; stroke-linejoin:round; stroke-width:4; stroke-opacity:1; fill:none" points="182.274,1139.23 201.172,1139.23 "/>
<polyline clip-path="url(#clip500)" style="stroke:#000000; stroke-linecap:round; stroke-linejoin:round; stroke-width:4; stroke-opacity:1; fill:none" points="182.274,874.181 201.172,874.181 "/>
<polyline clip-path="url(#clip500)" style="stroke:#000000; stroke-linecap:round; stroke-linejoin:round; stroke-width:4; stroke-opacity:1; fill:none" points="182.274,609.137 201.172,609.137 "/>
<polyline clip-path="url(#clip500)" style="stroke:#000000; stroke-linecap:round; stroke-linejoin:round; stroke-width:4; stroke-opacity:1; fill:none" points="182.274,344.093 201.172,344.093 "/>
<polyline clip-path="url(#clip500)" style="stroke:#000000; stroke-linecap:round; stroke-linejoin:round; stroke-width:4; stroke-opacity:1; fill:none" points="182.274,79.0494 201.172,79.0494 "/>
<path clip-path="url(#clip500)" d="M64.9365 1125.02 Q61.3254 1125.02 59.4967 1128.59 Q57.6912 1132.13 57.6912 1139.26 Q57.6912 1146.37 59.4967 1149.93 Q61.3254 1153.47 64.9365 1153.47 Q68.5707 1153.47 70.3763 1149.93 Q72.205 1146.37 72.205 1139.26 Q72.205 1132.13 70.3763 1128.59 Q68.5707 1125.02 64.9365 1125.02 M64.9365 1121.32 Q70.7467 1121.32 73.8022 1125.93 Q76.8809 1130.51 76.8809 1139.26 Q76.8809 1147.99 73.8022 1152.59 Q70.7467 1157.18 64.9365 1157.18 Q59.1264 1157.18 56.0477 1152.59 Q52.9921 1147.99 52.9921 1139.26 Q52.9921 1130.51 56.0477 1125.93 Q59.1264 1121.32 64.9365 1121.32 Z" fill="#000000" fill-rule="nonzero" fill-opacity="1" /><path clip-path="url(#clip500)" d="M85.0984 1150.63 L89.9827 1150.63 L89.9827 1156.51 L85.0984 1156.51 L85.0984 1150.63 Z" fill="#000000" fill-rule="nonzero" fill-opacity="1" /><path clip-path="url(#clip500)" d="M110.168 1125.02 Q106.557 1125.02 104.728 1128.59 Q102.922 1132.13 102.922 1139.26 Q102.922 1146.37 104.728 1149.93 Q106.557 1153.47 110.168 1153.47 Q113.802 1153.47 115.608 1149.93 Q117.436 1146.37 117.436 1139.26 Q117.436 1132.13 115.608 1128.59 Q113.802 1125.02 110.168 1125.02 M110.168 1121.32 Q115.978 1121.32 119.033 1125.93 Q122.112 1130.51 122.112 1139.26 Q122.112 1147.99 119.033 1152.59 Q115.978 1157.18 110.168 1157.18 Q104.358 1157.18 101.279 1152.59 Q98.2234 1147.99 98.2234 1139.26 Q98.2234 1130.51 101.279 1125.93 Q104.358 1121.32 110.168 1121.32 Z" fill="#000000" fill-rule="nonzero" fill-opacity="1" /><path clip-path="url(#clip500)" d="M140.33 1125.02 Q136.719 1125.02 134.89 1128.59 Q133.084 1132.13 133.084 1139.26 Q133.084 1146.37 134.89 1149.93 Q136.719 1153.47 140.33 1153.47 Q143.964 1153.47 145.769 1149.93 Q147.598 1146.37 147.598 1139.26 Q147.598 1132.13 145.769 1128.59 Q143.964 1125.02 140.33 1125.02 M140.33 1121.32 Q146.14 1121.32 149.195 1125.93 Q152.274 1130.51 152.274 1139.26 Q152.274 1147.99 149.195 1152.59 Q146.14 1157.18 140.33 1157.18 Q134.519 1157.18 131.441 1152.59 Q128.385 1147.99 128.385 1139.26 Q128.385 1130.51 131.441 1125.93 Q134.519 1121.32 140.33 1121.32 Z" fill="#000000" fill-rule="nonzero" fill-opacity="1" /><path clip-path="url(#clip500)" d="M65.9319 859.98 Q62.3208 859.98 60.4921 863.545 Q58.6865 867.086 58.6865 874.216 Q58.6865 881.322 60.4921 884.887 Q62.3208 888.429 65.9319 888.429 Q69.5661 888.429 71.3717 884.887 Q73.2004 881.322 73.2004 874.216 Q73.2004 867.086 71.3717 863.545 Q69.5661 859.98 65.9319 859.98 M65.9319 856.276 Q71.742 856.276 74.7976 860.883 Q77.8763 865.466 77.8763 874.216 Q77.8763 882.943 74.7976 887.549 Q71.742 892.132 65.9319 892.132 Q60.1217 892.132 57.043 887.549 Q53.9875 882.943 53.9875 874.216 Q53.9875 865.466 57.043 860.883 Q60.1217 856.276 65.9319 856.276 Z" fill="#000000" fill-rule="nonzero" fill-opacity="1" /><path clip-path="url(#clip500)" d="M86.0938 885.581 L90.978 885.581 L90.978 891.461 L86.0938 891.461 L86.0938 885.581 Z" fill="#000000" fill-rule="nonzero" fill-opacity="1" /><path clip-path="url(#clip500)" d="M105.191 887.526 L121.51 887.526 L121.51 891.461 L99.566 891.461 L99.566 887.526 Q102.228 884.771 106.811 880.142 Q111.418 875.489 112.598 874.146 Q114.844 871.623 115.723 869.887 Q116.626 868.128 116.626 866.438 Q116.626 863.683 114.682 861.947 Q112.76 860.211 109.658 860.211 Q107.459 860.211 105.006 860.975 Q102.575 861.739 99.7974 863.29 L99.7974 858.568 Q102.621 857.433 105.075 856.855 Q107.529 856.276 109.566 856.276 Q114.936 856.276 118.131 858.961 Q121.325 861.646 121.325 866.137 Q121.325 868.267 120.515 870.188 Q119.728 872.086 117.621 874.679 Q117.043 875.35 113.941 878.568 Q110.839 881.762 105.191 887.526 Z" fill="#000000" fill-rule="nonzero" fill-opacity="1" /><path clip-path="url(#clip500)" d="M131.371 856.901 L149.728 856.901 L149.728 860.836 L135.654 860.836 L135.654 869.308 Q136.672 868.961 137.691 868.799 Q138.709 868.614 139.728 868.614 Q145.515 868.614 148.894 871.785 Q152.274 874.957 152.274 880.373 Q152.274 885.952 148.802 889.054 Q145.33 892.132 139.01 892.132 Q136.834 892.132 134.566 891.762 Q132.32 891.392 129.913 890.651 L129.913 885.952 Q131.996 887.086 134.219 887.642 Q136.441 888.197 138.918 888.197 Q142.922 888.197 145.26 886.091 Q147.598 883.984 147.598 880.373 Q147.598 876.762 145.26 874.656 Q142.922 872.549 138.918 872.549 Q137.043 872.549 135.168 872.966 Q133.316 873.382 131.371 874.262 L131.371 856.901 Z" fill="#000000" fill-rule="nonzero" fill-opacity="1" /><path clip-path="url(#clip500)" d="M64.9365 594.936 Q61.3254 594.936 59.4967 598.501 Q57.6912 602.042 57.6912 609.172 Q57.6912 616.278 59.4967 619.843 Q61.3254 623.385 64.9365 623.385 Q68.5707 623.385 70.3763 619.843 Q72.205 616.278 72.205 609.172 Q72.205 602.042 70.3763 598.501 Q68.5707 594.936 64.9365 594.936 M64.9365 591.232 Q70.7467 591.232 73.8022 595.839 Q76.8809 600.422 76.8809 609.172 Q76.8809 617.899 73.8022 622.505 Q70.7467 627.088 64.9365 627.088 Q59.1264 627.088 56.0477 622.505 Q52.9921 617.899 52.9921 609.172 Q52.9921 600.422 56.0477 595.839 Q59.1264 591.232 64.9365 591.232 Z" fill="#000000" fill-rule="nonzero" fill-opacity="1" /><path clip-path="url(#clip500)" d="M85.0984 620.538 L89.9827 620.538 L89.9827 626.417 L85.0984 626.417 L85.0984 620.538 Z" fill="#000000" fill-rule="nonzero" fill-opacity="1" /><path clip-path="url(#clip500)" d="M100.214 591.857 L118.57 591.857 L118.57 595.792 L104.496 595.792 L104.496 604.265 Q105.515 603.917 106.534 603.755 Q107.552 603.57 108.571 603.57 Q114.358 603.57 117.737 606.741 Q121.117 609.913 121.117 615.329 Q121.117 620.908 117.645 624.01 Q114.172 627.088 107.853 627.088 Q105.677 627.088 103.409 626.718 Q101.163 626.348 98.7558 625.607 L98.7558 620.908 Q100.839 622.042 103.061 622.598 Q105.284 623.153 107.76 623.153 Q111.765 623.153 114.103 621.047 Q116.441 618.94 116.441 615.329 Q116.441 611.718 114.103 609.612 Q111.765 607.505 107.76 607.505 Q105.885 607.505 104.01 607.922 Q102.159 608.339 100.214 609.218 L100.214 591.857 Z" fill="#000000" fill-rule="nonzero" fill-opacity="1" /><path clip-path="url(#clip500)" d="M140.33 594.936 Q136.719 594.936 134.89 598.501 Q133.084 602.042 133.084 609.172 Q133.084 616.278 134.89 619.843 Q136.719 623.385 140.33 623.385 Q143.964 623.385 145.769 619.843 Q147.598 616.278 147.598 609.172 Q147.598 602.042 145.769 598.501 Q143.964 594.936 140.33 594.936 M140.33 591.232 Q146.14 591.232 149.195 595.839 Q152.274 600.422 152.274 609.172 Q152.274 617.899 149.195 622.505 Q146.14 627.088 140.33 627.088 Q134.519 627.088 131.441 622.505 Q128.385 617.899 128.385 609.172 Q128.385 600.422 131.441 595.839 Q134.519 591.232 140.33 591.232 Z" fill="#000000" fill-rule="nonzero" fill-opacity="1" /><path clip-path="url(#clip500)" d="M65.9319 329.892 Q62.3208 329.892 60.4921 333.457 Q58.6865 336.998 58.6865 344.128 Q58.6865 351.234 60.4921 354.799 Q62.3208 358.341 65.9319 358.341 Q69.5661 358.341 71.3717 354.799 Q73.2004 351.234 73.2004 344.128 Q73.2004 336.998 71.3717 333.457 Q69.5661 329.892 65.9319 329.892 M65.9319 326.188 Q71.742 326.188 74.7976 330.795 Q77.8763 335.378 77.8763 344.128 Q77.8763 352.855 74.7976 357.461 Q71.742 362.045 65.9319 362.045 Q60.1217 362.045 57.043 357.461 Q53.9875 352.855 53.9875 344.128 Q53.9875 335.378 57.043 330.795 Q60.1217 326.188 65.9319 326.188 Z" fill="#000000" fill-rule="nonzero" fill-opacity="1" /><path clip-path="url(#clip500)" d="M86.0938 355.494 L90.978 355.494 L90.978 361.373 L86.0938 361.373 L86.0938 355.494 Z" fill="#000000" fill-rule="nonzero" fill-opacity="1" /><path clip-path="url(#clip500)" d="M99.9826 326.813 L122.205 326.813 L122.205 328.804 L109.658 361.373 L104.774 361.373 L116.58 330.748 L99.9826 330.748 L99.9826 326.813 Z" fill="#000000" fill-rule="nonzero" fill-opacity="1" /><path clip-path="url(#clip500)" d="M131.371 326.813 L149.728 326.813 L149.728 330.748 L135.654 330.748 L135.654 339.221 Q136.672 338.873 137.691 338.711 Q138.709 338.526 139.728 338.526 Q145.515 338.526 148.894 341.697 Q152.274 344.869 152.274 350.285 Q152.274 355.864 148.802 358.966 Q145.33 362.045 139.01 362.045 Q136.834 362.045 134.566 361.674 Q132.32 361.304 129.913 360.563 L129.913 355.864 Q131.996 356.998 134.219 357.554 Q136.441 358.109 138.918 358.109 Q142.922 358.109 145.26 356.003 Q147.598 353.896 147.598 350.285 Q147.598 346.674 145.26 344.568 Q142.922 342.461 138.918 342.461 Q137.043 342.461 135.168 342.878 Q133.316 343.295 131.371 344.174 L131.371 326.813 Z" fill="#000000" fill-rule="nonzero" fill-opacity="1" /><path clip-path="url(#clip500)" d="M55.7467 92.3942 L63.3856 92.3942 L63.3856 66.0286 L55.0754 67.6953 L55.0754 63.436 L63.3393 61.7694 L68.0152 61.7694 L68.0152 92.3942 L75.654 92.3942 L75.654 96.3294 L55.7467 96.3294 L55.7467 92.3942 Z" fill="#000000" fill-rule="nonzero" fill-opacity="1" /><path clip-path="url(#clip500)" d="M85.0984 90.4498 L89.9827 90.4498 L89.9827 96.3294 L85.0984 96.3294 L85.0984 90.4498 Z" fill="#000000" fill-rule="nonzero" fill-opacity="1" /><path clip-path="url(#clip500)" d="M110.168 64.8481 Q106.557 64.8481 104.728 68.4128 Q102.922 71.9545 102.922 79.0841 Q102.922 86.1905 104.728 89.7553 Q106.557 93.297 110.168 93.297 Q113.802 93.297 115.608 89.7553 Q117.436 86.1905 117.436 79.0841 Q117.436 71.9545 115.608 68.4128 Q113.802 64.8481 110.168 64.8481 M110.168 61.1444 Q115.978 61.1444 119.033 65.7508 Q122.112 70.3341 122.112 79.0841 Q122.112 87.8109 119.033 92.4173 Q115.978 97.0007 110.168 97.0007 Q104.358 97.0007 101.279 92.4173 Q98.2234 87.8109 98.2234 79.0841 Q98.2234 70.3341 101.279 65.7508 Q104.358 61.1444 110.168 61.1444 Z" fill="#000000" fill-rule="nonzero" fill-opacity="1" /><path clip-path="url(#clip500)" d="M140.33 64.8481 Q136.719 64.8481 134.89 68.4128 Q133.084 71.9545 133.084 79.0841 Q133.084 86.1905 134.89 89.7553 Q136.719 93.297 140.33 93.297 Q143.964 93.297 145.769 89.7553 Q147.598 86.1905 147.598 79.0841 Q147.598 71.9545 145.769 68.4128 Q143.964 64.8481 140.33 64.8481 M140.33 61.1444 Q146.14 61.1444 149.195 65.7508 Q152.274 70.3341 152.274 79.0841 Q152.274 87.8109 149.195 92.4173 Q146.14 97.0007 140.33 97.0007 Q134.519 97.0007 131.441 92.4173 Q128.385 87.8109 128.385 79.0841 Q128.385 70.3341 131.441 65.7508 Q134.519 61.1444 140.33 61.1444 Z" fill="#000000" fill-rule="nonzero" fill-opacity="1" /><circle clip-path="url(#clip502)" cx="232.382" cy="1139.23" r="10.8" fill="#009af9" fill-rule="evenodd" fill-opacity="1" stroke="#000000" stroke-opacity="1" stroke-width="2.56"/>
<circle clip-path="url(#clip502)" cx="325.175" cy="1139.23" r="10.8" fill="#009af9" fill-rule="evenodd" fill-opacity="1" stroke="#000000" stroke-opacity="1" stroke-width="2.56"/>
<circle clip-path="url(#clip502)" cx="417.967" cy="1139.23" r="10.8" fill="#009af9" fill-rule="evenodd" fill-opacity="1" stroke="#000000" stroke-opacity="1" stroke-width="2.56"/>
<circle clip-path="url(#clip502)" cx="510.76" cy="1139.23" r="10.8" fill="#009af9" fill-rule="evenodd" fill-opacity="1" stroke="#000000" stroke-opacity="1" stroke-width="2.56"/>
<circle clip-path="url(#clip502)" cx="603.552" cy="1139.23" r="10.8" fill="#009af9" fill-rule="evenodd" fill-opacity="1" stroke="#000000" stroke-opacity="1" stroke-width="2.56"/>
<circle clip-path="url(#clip502)" cx="696.345" cy="1139.23" r="10.8" fill="#009af9" fill-rule="evenodd" fill-opacity="1" stroke="#000000" stroke-opacity="1" stroke-width="2.56"/>
<circle clip-path="url(#clip502)" cx="789.137" cy="1139.23" r="10.8" fill="#009af9" fill-rule="evenodd" fill-opacity="1" stroke="#000000" stroke-opacity="1" stroke-width="2.56"/>
<circle clip-path="url(#clip502)" cx="881.93" cy="1139.23" r="10.8" fill="#009af9" fill-rule="evenodd" fill-opacity="1" stroke="#000000" stroke-opacity="1" stroke-width="2.56"/>
<circle clip-path="url(#clip502)" cx="974.722" cy="1139.23" r="10.8" fill="#009af9" fill-rule="evenodd" fill-opacity="1" stroke="#000000" stroke-opacity="1" stroke-width="2.56"/>
<circle clip-path="url(#clip502)" cx="1067.51" cy="79.0494" r="10.8" fill="#009af9" fill-rule="evenodd" fill-opacity="1" stroke="#000000" stroke-opacity="1" stroke-width="2.56"/>
<circle clip-path="url(#clip502)" cx="1160.31" cy="1139.23" r="10.8" fill="#009af9" fill-rule="evenodd" fill-opacity="1" stroke="#000000" stroke-opacity="1" stroke-width="2.56"/>
<circle clip-path="url(#clip502)" cx="1253.1" cy="1139.23" r="10.8" fill="#009af9" fill-rule="evenodd" fill-opacity="1" stroke="#000000" stroke-opacity="1" stroke-width="2.56"/>
<circle clip-path="url(#clip502)" cx="1345.89" cy="1139.23" r="10.8" fill="#009af9" fill-rule="evenodd" fill-opacity="1" stroke="#000000" stroke-opacity="1" stroke-width="2.56"/>
<circle clip-path="url(#clip502)" cx="1438.69" cy="1139.23" r="10.8" fill="#009af9" fill-rule="evenodd" fill-opacity="1" stroke="#000000" stroke-opacity="1" stroke-width="2.56"/>
<circle clip-path="url(#clip502)" cx="1531.48" cy="1139.23" r="10.8" fill="#009af9" fill-rule="evenodd" fill-opacity="1" stroke="#000000" stroke-opacity="1" stroke-width="2.56"/>
<circle clip-path="url(#clip502)" cx="1624.27" cy="1139.23" r="10.8" fill="#009af9" fill-rule="evenodd" fill-opacity="1" stroke="#000000" stroke-opacity="1" stroke-width="2.56"/>
<circle clip-path="url(#clip502)" cx="1717.06" cy="1139.23" r="10.8" fill="#009af9" fill-rule="evenodd" fill-opacity="1" stroke="#000000" stroke-opacity="1" stroke-width="2.56"/>
<circle clip-path="url(#clip502)" cx="1809.86" cy="1139.23" r="10.8" fill="#009af9" fill-rule="evenodd" fill-opacity="1" stroke="#000000" stroke-opacity="1" stroke-width="2.56"/>
<circle clip-path="url(#clip502)" cx="1902.65" cy="1139.23" r="10.8" fill="#009af9" fill-rule="evenodd" fill-opacity="1" stroke="#000000" stroke-opacity="1" stroke-width="2.56"/>
<path clip-path="url(#clip500)" d="M1616.83 188.384 L1893.74 188.384 L1893.74 84.7036 L1616.83 84.7036  Z" fill="#ffffff" fill-rule="evenodd" fill-opacity="1"/>
<polyline clip-path="url(#clip500)" style="stroke:#000000; stroke-linecap:round; stroke-linejoin:round; stroke-width:4; stroke-opacity:1; fill:none" points="1616.83,188.384 1893.74,188.384 1893.74,84.7036 1616.83,84.7036 1616.83,188.384 "/>
<circle clip-path="url(#clip500)" cx="1695.52" cy="136.544" r="19.7486" fill="#009af9" fill-rule="evenodd" fill-opacity="1" stroke="#000000" stroke-opacity="1" stroke-width="4.68114"/>
<path clip-path="url(#clip500)" d="M1793.12 131.833 L1793.12 117.805 L1797.38 117.805 L1797.38 153.824 L1793.12 153.824 L1793.12 149.935 Q1791.78 152.25 1789.72 153.384 Q1787.68 154.495 1784.81 154.495 Q1780.11 154.495 1777.15 150.745 Q1774.21 146.995 1774.21 140.884 Q1774.21 134.773 1777.15 131.023 Q1780.11 127.273 1784.81 127.273 Q1787.68 127.273 1789.72 128.407 Q1791.78 129.518 1793.12 131.833 M1778.61 140.884 Q1778.61 145.583 1780.53 148.268 Q1782.47 150.93 1785.85 150.93 Q1789.23 150.93 1791.17 148.268 Q1793.12 145.583 1793.12 140.884 Q1793.12 136.185 1791.17 133.523 Q1789.23 130.838 1785.85 130.838 Q1782.47 130.838 1780.53 133.523 Q1778.61 136.185 1778.61 140.884 Z" fill="#000000" fill-rule="nonzero" fill-opacity="1" /><path clip-path="url(#clip500)" d="M1817.93 140.791 Q1812.77 140.791 1810.78 141.972 Q1808.79 143.152 1808.79 146 Q1808.79 148.268 1810.27 149.611 Q1811.78 150.93 1814.35 150.93 Q1817.89 150.93 1820.02 148.43 Q1822.17 145.907 1822.17 141.74 L1822.17 140.791 L1817.93 140.791 M1826.43 139.032 L1826.43 153.824 L1822.17 153.824 L1822.17 149.888 Q1820.71 152.25 1818.54 153.384 Q1816.36 154.495 1813.21 154.495 Q1809.23 154.495 1806.87 152.273 Q1804.53 150.027 1804.53 146.277 Q1804.53 141.902 1807.45 139.68 Q1810.39 137.458 1816.2 137.458 L1822.17 137.458 L1822.17 137.041 Q1822.17 134.102 1820.23 132.504 Q1818.3 130.884 1814.81 130.884 Q1812.59 130.884 1810.48 131.416 Q1808.37 131.949 1806.43 133.014 L1806.43 129.078 Q1808.77 128.176 1810.97 127.736 Q1813.17 127.273 1815.25 127.273 Q1820.87 127.273 1823.65 130.19 Q1826.43 133.106 1826.43 139.032 Z" fill="#000000" fill-rule="nonzero" fill-opacity="1" /><path clip-path="url(#clip500)" d="M1839.42 120.537 L1839.42 127.898 L1848.19 127.898 L1848.19 131.208 L1839.42 131.208 L1839.42 145.282 Q1839.42 148.453 1840.27 149.356 Q1841.15 150.259 1843.81 150.259 L1848.19 150.259 L1848.19 153.824 L1843.81 153.824 Q1838.88 153.824 1837.01 151.995 Q1835.13 150.143 1835.13 145.282 L1835.13 131.208 L1832.01 131.208 L1832.01 127.898 L1835.13 127.898 L1835.13 120.537 L1839.42 120.537 Z" fill="#000000" fill-rule="nonzero" fill-opacity="1" /><path clip-path="url(#clip500)" d="M1865.57 140.791 Q1860.41 140.791 1858.42 141.972 Q1856.43 143.152 1856.43 146 Q1856.43 148.268 1857.91 149.611 Q1859.42 150.93 1861.98 150.93 Q1865.53 150.93 1867.66 148.43 Q1869.81 145.907 1869.81 141.74 L1869.81 140.791 L1865.57 140.791 M1874.07 139.032 L1874.07 153.824 L1869.81 153.824 L1869.81 149.888 Q1868.35 152.25 1866.17 153.384 Q1864 154.495 1860.85 154.495 Q1856.87 154.495 1854.51 152.273 Q1852.17 150.027 1852.17 146.277 Q1852.17 141.902 1855.09 139.68 Q1858.03 137.458 1863.84 137.458 L1869.81 137.458 L1869.81 137.041 Q1869.81 134.102 1867.86 132.504 Q1865.94 130.884 1862.45 130.884 Q1860.23 130.884 1858.12 131.416 Q1856.01 131.949 1854.07 133.014 L1854.07 129.078 Q1856.41 128.176 1858.6 127.736 Q1860.8 127.273 1862.89 127.273 Q1868.51 127.273 1871.29 130.19 Q1874.07 133.106 1874.07 139.032 Z" fill="#000000" fill-rule="nonzero" fill-opacity="1" /></svg>
