<?xml version="1.0" encoding="utf-8"?>
<svg xmlns="http://www.w3.org/2000/svg" xmlns:xlink="http://www.w3.org/1999/xlink" width="500" height="320" viewBox="0 0 2000 1280">
<defs>
  <clipPath id="clip030">
    <rect x="0" y="0" width="2000" height="1280"/>
  </clipPath>
</defs>
<path clip-path="url(#clip030)" d="M0 1280 L2000 1280 L2000 0 L0 0  Z" fill="#ffffff" fill-rule="evenodd" fill-opacity="1"/>
<defs>
  <clipPath id="clip031">
    <rect x="400" y="0" width="1401" height="1280"/>
  </clipPath>
</defs>
<path clip-path="url(#clip030)" d="M212.124 1111.02 L1952.76 1111.02 L1952.76 47.2441 L212.124 47.2441  Z" fill="#ffffff" fill-rule="evenodd" fill-opacity="1"/>
<defs>
  <clipPath id="clip032">
    <rect x="212" y="47" width="1742" height="1065"/>
  </clipPath>
</defs>
<polyline clip-path="url(#clip032)" style="stroke:#000000; stroke-linecap:round; stroke-linejoin:round; stroke-width:2; stroke-opacity:0.1; fill:none" points="261.387,1111.02 261.387,47.2441 "/>
<polyline clip-path="url(#clip032)" style="stroke:#000000; stroke-linecap:round; stroke-linejoin:round; stroke-width:2; stroke-opacity:0.1; fill:none" points="535.071,1111.02 535.071,47.2441 "/>
<polyline clip-path="url(#clip032)" style="stroke:#000000; stroke-linecap:round; stroke-linejoin:round; stroke-width:2; stroke-opacity:0.1; fill:none" points="808.756,1111.02 808.756,47.2441 "/>
<polyline clip-path="url(#clip032)" style="stroke:#000000; stroke-linecap:round; stroke-linejoin:round; stroke-width:2; stroke-opacity:0.1; fill:none" points="1082.44,1111.02 1082.44,47.2441 "/>
<polyline clip-path="url(#clip032)" style="stroke:#000000; stroke-linecap:round; stroke-linejoin:round; stroke-width:2; stroke-opacity:0.1; fill:none" points="1356.12,1111.02 1356.12,47.2441 "/>
<polyline clip-path="url(#clip032)" style="stroke:#000000; stroke-linecap:round; stroke-linejoin:round; stroke-width:2; stroke-opacity:0.1; fill:none" points="1629.81,1111.02 1629.81,47.2441 "/>
<polyline clip-path="url(#clip032)" style="stroke:#000000; stroke-linecap:round; stroke-linejoin:round; stroke-width:2; stroke-opacity:0.1; fill:none" points="1903.49,1111.02 1903.49,47.2441 "/>
<polyline clip-path="url(#clip032)" style="stroke:#000000; stroke-linecap:round; stroke-linejoin:round; stroke-width:2; stroke-opacity:0.1; fill:none" points="212.124,1080.91 1952.76,1080.91 "/>
<polyline clip-path="url(#clip032)" style="stroke:#000000; stroke-linecap:round; stroke-linejoin:round; stroke-width:2; stroke-opacity:0.1; fill:none" points="212.124,824.26 1952.76,824.26 "/>
<polyline clip-path="url(#clip032)" style="stroke:#000000; stroke-linecap:round; stroke-linejoin:round; stroke-width:2; stroke-opacity:0.1; fill:none" points="212.124,567.608 1952.76,567.608 "/>
<polyline clip-path="url(#clip032)" style="stroke:#000000; stroke-linecap:round; stroke-linejoin:round; stroke-width:2; stroke-opacity:0.1; fill:none" points="212.124,310.956 1952.76,310.956 "/>
<polyline clip-path="url(#clip032)" style="stroke:#000000; stroke-linecap:round; stroke-linejoin:round; stroke-width:2; stroke-opacity:0.1; fill:none" points="212.124,54.3042 1952.76,54.3042 "/>
<polyline clip-path="url(#clip030)" style="stroke:#000000; stroke-linecap:round; stroke-linejoin:round; stroke-width:4; stroke-opacity:1; fill:none" points="212.124,1111.02 1952.76,1111.02 "/>
<polyline clip-path="url(#clip030)" style="stroke:#000000; stroke-linecap:round; stroke-linejoin:round; stroke-width:4; stroke-opacity:1; fill:none" points="261.387,1111.02 261.387,1092.12 "/>
<polyline clip-path="url(#clip030)" style="stroke:#000000; stroke-linecap:round; stroke-linejoin:round; stroke-width:4; stroke-opacity:1; fill:none" points="535.071,1111.02 535.071,1092.12 "/>
<polyline clip-path="url(#clip030)" style="stroke:#000000; stroke-linecap:round; stroke-linejoin:round; stroke-width:4; stroke-opacity:1; fill:none" points="808.756,1111.02 808.756,1092.12 "/>
<polyline clip-path="url(#clip030)" style="stroke:#000000; stroke-linecap:round; stroke-linejoin:round; stroke-width:4; stroke-opacity:1; fill:none" points="1082.44,1111.02 1082.44,1092.12 "/>
<polyline clip-path="url(#clip030)" style="stroke:#000000; stroke-linecap:round; stroke-linejoin:round; stroke-width:4; stroke-opacity:1; fill:none" points="1356.12,1111.02 1356.12,1092.12 "/>
<polyline clip-path="url(#clip030)" style="stroke:#000000; stroke-linecap:round; stroke-linejoin:round; stroke-width:4; stroke-opacity:1; fill:none" points="1629.81,1111.02 1629.81,1092.12 "/>
<polyline clip-path="url(#clip030)" style="stroke:#000000; stroke-linecap:round; stroke-linejoin:round; stroke-width:4; stroke-opacity:1; fill:none" points="1903.49,1111.02 1903.49,1092.12 "/>
<path clip-path="url(#clip030)" d="M261.387 1138.74 Q257.776 1138.74 255.947 1142.3 Q254.142 1145.84 254.142 1152.97 Q254.142 1160.08 255.947 1163.64 Q257.776 1167.19 261.387 1167.19 Q265.021 1167.19 266.827 1163.64 Q268.656 1160.08 268.656 1152.97 Q268.656 1145.84 266.827 1142.3 Q265.021 1138.74 261.387 1138.74 M261.387 1135.03 Q267.197 1135.03 270.253 1139.64 Q273.331 1144.22 273.331 1152.97 Q273.331 1161.7 270.253 1166.31 Q267.197 1170.89 261.387 1170.89 Q255.577 1170.89 252.498 1166.31 Q249.443 1161.7 249.443 1152.97 Q249.443 1144.22 252.498 1139.64 Q255.577 1135.03 261.387 1135.03 Z" fill="#000000" fill-rule="nonzero" fill-opacity="1" /><path clip-path="url(#clip030)" d="M525.453 1166.28 L533.092 1166.28 L533.092 1139.92 L524.782 1141.58 L524.782 1137.33 L533.046 1135.66 L537.722 1135.66 L537.722 1166.28 L545.361 1166.28 L545.361 1170.22 L525.453 1170.22 L525.453 1166.28 Z" fill="#000000" fill-rule="nonzero" fill-opacity="1" /><path clip-path="url(#clip030)" d="M803.408 1166.28 L819.728 1166.28 L819.728 1170.22 L797.783 1170.22 L797.783 1166.28 Q800.445 1163.53 805.029 1158.9 Q809.635 1154.25 810.816 1152.9 Q813.061 1150.38 813.941 1148.64 Q814.844 1146.89 814.844 1145.2 Q814.844 1142.44 812.899 1140.7 Q810.978 1138.97 807.876 1138.97 Q805.677 1138.97 803.223 1139.73 Q800.793 1140.5 798.015 1142.05 L798.015 1137.33 Q800.839 1136.19 803.293 1135.61 Q805.746 1135.03 807.783 1135.03 Q813.154 1135.03 816.348 1137.72 Q819.543 1140.4 819.543 1144.89 Q819.543 1147.02 818.732 1148.95 Q817.945 1150.84 815.839 1153.44 Q815.26 1154.11 812.158 1157.33 Q809.057 1160.52 803.408 1166.28 Z" fill="#000000" fill-rule="nonzero" fill-opacity="1" /><path clip-path="url(#clip030)" d="M1086.69 1151.58 Q1090.04 1152.3 1091.92 1154.57 Q1093.82 1156.84 1093.82 1160.17 Q1093.82 1165.29 1090.3 1168.09 Q1086.78 1170.89 1080.3 1170.89 Q1078.12 1170.89 1075.81 1170.45 Q1073.52 1170.03 1071.06 1169.18 L1071.06 1164.66 Q1073.01 1165.8 1075.32 1166.38 Q1077.64 1166.95 1080.16 1166.95 Q1084.56 1166.95 1086.85 1165.22 Q1089.16 1163.48 1089.16 1160.17 Q1089.16 1157.12 1087.01 1155.4 Q1084.88 1153.67 1081.06 1153.67 L1077.03 1153.67 L1077.03 1149.83 L1081.25 1149.83 Q1084.7 1149.83 1086.53 1148.46 Q1088.35 1147.07 1088.35 1144.48 Q1088.35 1141.82 1086.46 1140.4 Q1084.58 1138.97 1081.06 1138.97 Q1079.14 1138.97 1076.94 1139.39 Q1074.74 1139.8 1072.1 1140.68 L1072.1 1136.51 Q1074.77 1135.77 1077.08 1135.4 Q1079.42 1135.03 1081.48 1135.03 Q1086.8 1135.03 1089.91 1137.46 Q1093.01 1139.87 1093.01 1143.99 Q1093.01 1146.86 1091.36 1148.85 Q1089.72 1150.82 1086.69 1151.58 Z" fill="#000000" fill-rule="nonzero" fill-opacity="1" /><path clip-path="url(#clip030)" d="M1359.13 1139.73 L1347.33 1158.18 L1359.13 1158.18 L1359.13 1139.73 M1357.91 1135.66 L1363.79 1135.66 L1363.79 1158.18 L1368.72 1158.18 L1368.72 1162.07 L1363.79 1162.07 L1363.79 1170.22 L1359.13 1170.22 L1359.13 1162.07 L1343.53 1162.07 L1343.53 1157.56 L1357.91 1135.66 Z" fill="#000000" fill-rule="nonzero" fill-opacity="1" /><path clip-path="url(#clip030)" d="M1620.09 1135.66 L1638.44 1135.66 L1638.44 1139.59 L1624.37 1139.59 L1624.37 1148.07 Q1625.39 1147.72 1626.41 1147.56 Q1627.42 1147.37 1628.44 1147.37 Q1634.23 1147.37 1637.61 1150.54 Q1640.99 1153.71 1640.99 1159.13 Q1640.99 1164.71 1637.52 1167.81 Q1634.04 1170.89 1627.73 1170.89 Q1625.55 1170.89 1623.28 1170.52 Q1621.04 1170.15 1618.63 1169.41 L1618.63 1164.71 Q1620.71 1165.84 1622.93 1166.4 Q1625.16 1166.95 1627.63 1166.95 Q1631.64 1166.95 1633.98 1164.85 Q1636.31 1162.74 1636.31 1159.13 Q1636.31 1155.52 1633.98 1153.41 Q1631.64 1151.31 1627.63 1151.31 Q1625.76 1151.31 1623.88 1151.72 Q1622.03 1152.14 1620.09 1153.02 L1620.09 1135.66 Z" fill="#000000" fill-rule="nonzero" fill-opacity="1" /><path clip-path="url(#clip030)" d="M1903.9 1151.08 Q1900.75 1151.08 1898.9 1153.23 Q1897.07 1155.38 1897.07 1159.13 Q1897.07 1162.86 1898.9 1165.03 Q1900.75 1167.19 1903.9 1167.19 Q1907.05 1167.19 1908.87 1165.03 Q1910.73 1162.86 1910.73 1159.13 Q1910.73 1155.38 1908.87 1153.23 Q1907.05 1151.08 1903.9 1151.08 M1913.18 1136.42 L1913.18 1140.68 Q1911.42 1139.85 1909.62 1139.41 Q1907.83 1138.97 1906.07 1138.97 Q1901.44 1138.97 1898.99 1142.09 Q1896.56 1145.22 1896.21 1151.54 Q1897.58 1149.52 1899.64 1148.46 Q1901.7 1147.37 1904.18 1147.37 Q1909.38 1147.37 1912.39 1150.54 Q1915.43 1153.69 1915.43 1159.13 Q1915.43 1164.45 1912.28 1167.67 Q1909.13 1170.89 1903.9 1170.89 Q1897.9 1170.89 1894.73 1166.31 Q1891.56 1161.7 1891.56 1152.97 Q1891.56 1144.78 1895.45 1139.92 Q1899.34 1135.03 1905.89 1135.03 Q1907.65 1135.03 1909.43 1135.38 Q1911.24 1135.73 1913.18 1136.42 Z" fill="#000000" fill-rule="nonzero" fill-opacity="1" /><g clip-path="url(#clip030)">
<text style="fill:#000000; fill-opacity:1; font-family:Arial,Helvetica Neue,Helvetica,sans-serif; font-size:66px; text-anchor:middle;" transform="rotate(0, 1082.44, 1252.42)" x="1082.44" y="1252.42">s</text>
</g>
<polyline clip-path="url(#clip030)" style="stroke:#000000; stroke-linecap:round; stroke-linejoin:round; stroke-width:4; stroke-opacity:1; fill:none" points="212.124,1111.02 212.124,47.2441 "/>
<polyline clip-path="url(#clip030)" style="stroke:#000000; stroke-linecap:round; stroke-linejoin:round; stroke-width:4; stroke-opacity:1; fill:none" points="212.124,1080.91 231.022,1080.91 "/>
<polyline clip-path="url(#clip030)" style="stroke:#000000; stroke-linecap:round; stroke-linejoin:round; stroke-width:4; stroke-opacity:1; fill:none" points="212.124,824.26 231.022,824.26 "/>
<polyline clip-path="url(#clip030)" style="stroke:#000000; stroke-linecap:round; stroke-linejoin:round; stroke-width:4; stroke-opacity:1; fill:none" points="212.124,567.608 231.022,567.608 "/>
<polyline clip-path="url(#clip030)" style="stroke:#000000; stroke-linecap:round; stroke-linejoin:round; stroke-width:4; stroke-opacity:1; fill:none" points="212.124,310.956 231.022,310.956 "/>
<polyline clip-path="url(#clip030)" style="stroke:#000000; stroke-linecap:round; stroke-linejoin:round; stroke-width:4; stroke-opacity:1; fill:none" points="212.124,54.3042 231.022,54.3042 "/>
<path clip-path="url(#clip030)" d="M124.948 1066.71 Q121.337 1066.71 119.509 1070.28 Q117.703 1073.82 117.703 1080.95 Q117.703 1088.05 119.509 1091.62 Q121.337 1095.16 124.948 1095.16 Q128.583 1095.16 130.388 1091.62 Q132.217 1088.05 132.217 1080.95 Q132.217 1073.82 130.388 1070.28 Q128.583 1066.71 124.948 1066.71 M124.948 1063.01 Q130.758 1063.01 133.814 1067.61 Q136.893 1072.2 136.893 1080.95 Q136.893 1089.67 133.814 1094.28 Q130.758 1098.86 124.948 1098.86 Q119.138 1098.86 116.059 1094.28 Q113.004 1089.67 113.004 1080.95 Q113.004 1072.2 116.059 1067.61 Q119.138 1063.01 124.948 1063.01 Z" fill="#000000" fill-rule="nonzero" fill-opacity="1" /><path clip-path="url(#clip030)" d="M145.11 1092.31 L149.994 1092.31 L149.994 1098.19 L145.11 1098.19 L145.11 1092.31 Z" fill="#000000" fill-rule="nonzero" fill-opacity="1" /><path clip-path="url(#clip030)" d="M170.18 1066.71 Q166.568 1066.71 164.74 1070.28 Q162.934 1073.82 162.934 1080.95 Q162.934 1088.05 164.74 1091.62 Q166.568 1095.16 170.18 1095.16 Q173.814 1095.16 175.619 1091.62 Q177.448 1088.05 177.448 1080.95 Q177.448 1073.82 175.619 1070.28 Q173.814 1066.71 170.18 1066.71 M170.18 1063.01 Q175.99 1063.01 179.045 1067.61 Q182.124 1072.2 182.124 1080.95 Q182.124 1089.67 179.045 1094.28 Q175.99 1098.86 170.18 1098.86 Q164.369 1098.86 161.291 1094.28 Q158.235 1089.67 158.235 1080.95 Q158.235 1072.2 161.291 1067.61 Q164.369 1063.01 170.18 1063.01 Z" fill="#000000" fill-rule="nonzero" fill-opacity="1" /><path clip-path="url(#clip030)" d="M125.944 810.058 Q122.333 810.058 120.504 813.623 Q118.698 817.165 118.698 824.295 Q118.698 831.401 120.504 834.966 Q122.333 838.507 125.944 838.507 Q129.578 838.507 131.383 834.966 Q133.212 831.401 133.212 824.295 Q133.212 817.165 131.383 813.623 Q129.578 810.058 125.944 810.058 M125.944 806.355 Q131.754 806.355 134.809 810.961 Q137.888 815.545 137.888 824.295 Q137.888 833.021 134.809 837.628 Q131.754 842.211 125.944 842.211 Q120.134 842.211 117.055 837.628 Q113.999 833.021 113.999 824.295 Q113.999 815.545 117.055 810.961 Q120.134 806.355 125.944 806.355 Z" fill="#000000" fill-rule="nonzero" fill-opacity="1" /><path clip-path="url(#clip030)" d="M146.106 835.66 L150.99 835.66 L150.99 841.54 L146.106 841.54 L146.106 835.66 Z" fill="#000000" fill-rule="nonzero" fill-opacity="1" /><path clip-path="url(#clip030)" d="M161.221 806.98 L179.578 806.98 L179.578 810.915 L165.504 810.915 L165.504 819.387 Q166.522 819.04 167.541 818.878 Q168.559 818.693 169.578 818.693 Q175.365 818.693 178.744 821.864 Q182.124 825.035 182.124 830.452 Q182.124 836.031 178.652 839.132 Q175.18 842.211 168.86 842.211 Q166.684 842.211 164.416 841.841 Q162.17 841.47 159.763 840.73 L159.763 836.031 Q161.846 837.165 164.068 837.72 Q166.291 838.276 168.768 838.276 Q172.772 838.276 175.11 836.169 Q177.448 834.063 177.448 830.452 Q177.448 826.841 175.11 824.734 Q172.772 822.628 168.768 822.628 Q166.893 822.628 165.018 823.045 Q163.166 823.461 161.221 824.341 L161.221 806.98 Z" fill="#000000" fill-rule="nonzero" fill-opacity="1" /><path clip-path="url(#clip030)" d="M115.759 580.953 L123.397 580.953 L123.397 554.587 L115.087 556.254 L115.087 551.995 L123.351 550.328 L128.027 550.328 L128.027 580.953 L135.666 580.953 L135.666 584.888 L115.759 584.888 L115.759 580.953 Z" fill="#000000" fill-rule="nonzero" fill-opacity="1" /><path clip-path="url(#clip030)" d="M145.11 579.008 L149.994 579.008 L149.994 584.888 L145.11 584.888 L145.11 579.008 Z" fill="#000000" fill-rule="nonzero" fill-opacity="1" /><path clip-path="url(#clip030)" d="M170.18 553.407 Q166.568 553.407 164.74 556.971 Q162.934 560.513 162.934 567.643 Q162.934 574.749 164.74 578.314 Q166.568 581.856 170.18 581.856 Q173.814 581.856 175.619 578.314 Q177.448 574.749 177.448 567.643 Q177.448 560.513 175.619 556.971 Q173.814 553.407 170.18 553.407 M170.18 549.703 Q175.99 549.703 179.045 554.309 Q182.124 558.893 182.124 567.643 Q182.124 576.369 179.045 580.976 Q175.99 585.559 170.18 585.559 Q164.369 585.559 161.291 580.976 Q158.235 576.369 158.235 567.643 Q158.235 558.893 161.291 554.309 Q164.369 549.703 170.18 549.703 Z" fill="#000000" fill-rule="nonzero" fill-opacity="1" /><path clip-path="url(#clip030)" d="M116.754 324.301 L124.393 324.301 L124.393 297.935 L116.083 299.602 L116.083 295.343 L124.346 293.676 L129.022 293.676 L129.022 324.301 L136.661 324.301 L136.661 328.236 L116.754 328.236 L116.754 324.301 Z" fill="#000000" fill-rule="nonzero" fill-opacity="1" /><path clip-path="url(#clip030)" d="M146.106 322.356 L150.99 322.356 L150.99 328.236 L146.106 328.236 L146.106 322.356 Z" fill="#000000" fill-rule="nonzero" fill-opacity="1" /><path clip-path="url(#clip030)" d="M161.221 293.676 L179.578 293.676 L179.578 297.611 L165.504 297.611 L165.504 306.083 Q166.522 305.736 167.541 305.574 Q168.559 305.389 169.578 305.389 Q175.365 305.389 178.744 308.56 Q182.124 311.732 182.124 317.148 Q182.124 322.727 178.652 325.829 Q175.18 328.907 168.86 328.907 Q166.684 328.907 164.416 328.537 Q162.17 328.167 159.763 327.426 L159.763 322.727 Q161.846 323.861 164.068 324.417 Q166.291 324.972 168.768 324.972 Q172.772 324.972 175.11 322.866 Q177.448 320.759 177.448 317.148 Q177.448 313.537 175.11 311.431 Q172.772 309.324 168.768 309.324 Q166.893 309.324 165.018 309.741 Q163.166 310.157 161.221 311.037 L161.221 293.676 Z" fill="#000000" fill-rule="nonzero" fill-opacity="1" /><path clip-path="url(#clip030)" d="M118.976 67.6491 L135.295 67.6491 L135.295 71.5842 L113.351 71.5842 L113.351 67.6491 Q116.013 64.8944 120.596 60.2648 Q125.203 55.6121 126.383 54.2695 Q128.629 51.7464 129.508 50.0103 Q130.411 48.251 130.411 46.5612 Q130.411 43.8066 128.467 42.0705 Q126.546 40.3344 123.444 40.3344 Q121.245 40.3344 118.791 41.0983 Q116.36 41.8622 113.583 43.4131 L113.583 38.6909 Q116.407 37.5566 118.86 36.9779 Q121.314 36.3992 123.351 36.3992 Q128.721 36.3992 131.916 39.0844 Q135.11 41.7696 135.11 46.2603 Q135.11 48.3899 134.3 50.3112 Q133.513 52.2093 131.407 54.8019 Q130.828 55.4732 127.726 58.6908 Q124.624 61.8852 118.976 67.6491 Z" fill="#000000" fill-rule="nonzero" fill-opacity="1" /><path clip-path="url(#clip030)" d="M145.11 65.7046 L149.994 65.7046 L149.994 71.5842 L145.11 71.5842 L145.11 65.7046 Z" fill="#000000" fill-rule="nonzero" fill-opacity="1" /><path clip-path="url(#clip030)" d="M170.18 40.1029 Q166.568 40.1029 164.74 43.6677 Q162.934 47.2094 162.934 54.3389 Q162.934 61.4454 164.74 65.0102 Q166.568 68.5518 170.18 68.5518 Q173.814 68.5518 175.619 65.0102 Q177.448 61.4454 177.448 54.3389 Q177.448 47.2094 175.619 43.6677 Q173.814 40.1029 170.18 40.1029 M170.18 36.3992 Q175.99 36.3992 179.045 41.0057 Q182.124 45.589 182.124 54.3389 Q182.124 63.0658 179.045 67.6722 Q175.99 72.2555 170.18 72.2555 Q164.369 72.2555 161.291 67.6722 Q158.235 63.0658 158.235 54.3389 Q158.235 45.589 161.291 41.0057 Q164.369 36.3992 170.18 36.3992 Z" fill="#000000" fill-rule="nonzero" fill-opacity="1" /><g clip-path="url(#clip030)">
<text style="fill:#000000; fill-opacity:1; font-family:Arial,Helvetica Neue,Helvetica,sans-serif; font-size:66px; text-anchor:middle;" transform="rotate(-90, 71.4418, 579.131)" x="71.4418" y="579.131">v</text>
</g>
<circle clip-path="url(#clip032)" cx="275.071" cy="910.975" r="10.8" fill="#009af9" fill-rule="evenodd" fill-opacity="1" stroke="#000000" stroke-opacity="1" stroke-width="2.56"/>
<circle clip-path="url(#clip032)" cx="342.922" cy="634.369" r="10.8" fill="#009af9" fill-rule="evenodd" fill-opacity="1" stroke="#000000" stroke-opacity="1" stroke-width="2.56"/>
<circle clip-path="url(#clip032)" cx="410.773" cy="512.23" r="10.8" fill="#009af9" fill-rule="evenodd" fill-opacity="1" stroke="#000000" stroke-opacity="1" stroke-width="2.56"/>
<circle clip-path="url(#clip032)" cx="478.624" cy="458.552" r="10.8" fill="#009af9" fill-rule="evenodd" fill-opacity="1" stroke="#000000" stroke-opacity="1" stroke-width="2.56"/>
<circle clip-path="url(#clip032)" cx="546.475" cy="434.019" r="10.8" fill="#009af9" fill-rule="evenodd" fill-opacity="1" stroke="#000000" stroke-opacity="1" stroke-width="2.56"/>
<circle clip-path="url(#clip032)" cx="614.326" cy="413.567" r="10.8" fill="#009af9" fill-rule="evenodd" fill-opacity="1" stroke="#000000" stroke-opacity="1" stroke-width="2.56"/>
<circle clip-path="url(#clip032)" cx="682.177" cy="380.956" r="10.8" fill="#009af9" fill-rule="evenodd" fill-opacity="1" stroke="#000000" stroke-opacity="1" stroke-width="2.56"/>
<circle clip-path="url(#clip032)" cx="750.028" cy="329.674" r="10.8" fill="#009af9" fill-rule="evenodd" fill-opacity="1" stroke="#000000" stroke-opacity="1" stroke-width="2.56"/>
<circle clip-path="url(#clip032)" cx="817.878" cy="264.2" r="10.8" fill="#009af9" fill-rule="evenodd" fill-opacity="1" stroke="#000000" stroke-opacity="1" stroke-width="2.56"/>
<circle clip-path="url(#clip032)" cx="885.729" cy="198.665" r="10.8" fill="#009af9" fill-rule="evenodd" fill-opacity="1" stroke="#000000" stroke-opacity="1" stroke-width="2.56"/>
<circle clip-path="url(#clip032)" cx="953.58" cy="151.66" r="10.8" fill="#009af9" fill-rule="evenodd" fill-opacity="1" stroke="#000000" stroke-opacity="1" stroke-width="2.56"/>
<circle clip-path="url(#clip032)" cx="1021.43" cy="137.942" r="10.8" fill="#009af9" fill-rule="evenodd" fill-opacity="1" stroke="#000000" stroke-opacity="1" stroke-width="2.56"/>
<circle clip-path="url(#clip032)" cx="1089.28" cy="160.015" r="10.8" fill="#009af9" fill-rule="evenodd" fill-opacity="1" stroke="#000000" stroke-opacity="1" stroke-width="2.56"/>
<circle clip-path="url(#clip032)" cx="1157.13" cy="203.959" r="10.8" fill="#009af9" fill-rule="evenodd" fill-opacity="1" stroke="#000000" stroke-opacity="1" stroke-width="2.56"/>
<circle clip-path="url(#clip032)" cx="1224.98" cy="243.267" r="10.8" fill="#009af9" fill-rule="evenodd" fill-opacity="1" stroke="#000000" stroke-opacity="1" stroke-width="2.56"/>
<circle clip-path="url(#clip032)" cx="1292.83" cy="251.041" r="10.8" fill="#009af9" fill-rule="evenodd" fill-opacity="1" stroke="#000000" stroke-opacity="1" stroke-width="2.56"/>
<circle clip-path="url(#clip032)" cx="1360.69" cy="215.753" r="10.8" fill="#009af9" fill-rule="evenodd" fill-opacity="1" stroke="#000000" stroke-opacity="1" stroke-width="2.56"/>
<circle clip-path="url(#clip032)" cx="1428.54" cy="151.392" r="10.8" fill="#009af9" fill-rule="evenodd" fill-opacity="1" stroke="#000000" stroke-opacity="1" stroke-width="2.56"/>
<circle clip-path="url(#clip032)" cx="1496.39" cy="93.1985" r="10.8" fill="#009af9" fill-rule="evenodd" fill-opacity="1" stroke="#000000" stroke-opacity="1" stroke-width="2.56"/>
<circle clip-path="url(#clip032)" cx="1564.24" cy="77.3509" r="10.8" fill="#009af9" fill-rule="evenodd" fill-opacity="1" stroke="#000000" stroke-opacity="1" stroke-width="2.56"/>
<circle clip-path="url(#clip032)" cx="1632.09" cy="114.774" r="10.8" fill="#009af9" fill-rule="evenodd" fill-opacity="1" stroke="#000000" stroke-opacity="1" stroke-width="2.56"/>
<circle clip-path="url(#clip032)" cx="1699.94" cy="177.914" r="10.8" fill="#009af9" fill-rule="evenodd" fill-opacity="1" stroke="#000000" stroke-opacity="1" stroke-width="2.56"/>
<circle clip-path="url(#clip032)" cx="1767.79" cy="215.551" r="10.8" fill="#009af9" fill-rule="evenodd" fill-opacity="1" stroke="#000000" stroke-opacity="1" stroke-width="2.56"/>
<circle clip-path="url(#clip032)" cx="1835.64" cy="191.513" r="10.8" fill="#009af9" fill-rule="evenodd" fill-opacity="1" stroke="#000000" stroke-opacity="1" stroke-width="2.56"/>
<circle clip-path="url(#clip032)" cx="1903.49" cy="119.403" r="10.8" fill="#009af9" fill-rule="evenodd" fill-opacity="1" stroke="#000000" stroke-opacity="1" stroke-width="2.56"/>
<polyline clip-path="url(#clip032)" style="stroke:#000000; stroke-linecap:round; stroke-linejoin:round; stroke-width:8; stroke-opacity:1; fill:none" stroke-dasharray="32, 20" points="275.071,987.584 342.922,697.609 410.773,545.113 478.624,451.061 546.475,387.258 614.326,341.133 682.177,306.232 750.028,278.904 817.878,256.924 885.729,238.863 953.58,223.758 1021.43,210.939 1089.28,199.922 1157.13,190.354 1224.98,181.965 1292.83,174.551 1360.69,167.951 1428.54,162.037 1496.39,156.709 1564.24,151.883 1632.09,147.491 1699.94,143.478 1767.79,139.795 1835.64,136.405 1903.49,133.274 "/>
<polyline clip-path="url(#clip032)" style="stroke:#3da44d; stroke-linecap:round; stroke-linejoin:round; stroke-width:8; stroke-opacity:1; fill:none" points="261.387,1080.91 263.506,1064.51 265.625,1048.63 267.744,1033.25 269.863,1018.35 271.982,1003.9 274.102,989.89 276.221,976.291 278.34,963.087 281.443,944.435 284.545,926.546 287.648,909.374 290.751,892.878 296.957,861.758 303.162,832.907 309.368,806.086 315.573,781.087 321.779,757.731 327.985,735.862 334.19,715.342 340.396,696.049 346.602,677.877 352.807,660.73 359.013,644.526 365.218,629.187 371.424,614.646 377.63,600.843 383.403,588.614 389.177,576.937 394.951,565.775 400.724,555.094 412.272,535.056 423.819,516.609 439.297,494.065 454.775,473.689 470.253,455.184 485.731,438.302 498.52,425.431 511.31,413.43 524.099,402.214 536.889,391.708 560.674,373.839 584.46,357.854 614.32,340.023 644.179,324.275 670.963,311.636 697.747,300.196 728.405,288.364 759.063,277.691 781.98,270.372 804.897,263.552 863.519,248.052 917.024,235.929 977.919,224 1026.19,215.699 1086.16,206.557 1132.09,200.297 1196.85,192.391 1245.24,187.084 1300.27,181.583 1354.77,176.623 1414.72,171.654 1460.52,168.161 1518.31,164.083 1571.77,160.602 1626.89,157.273 1682.77,154.141 1741.12,151.103 1787.08,148.86 1891.75,144.191 1903.49,143.701 "/>
<path clip-path="url(#clip030)" d="M1438.17 1075.56 L1894.73 1075.56 L1894.73 868.199 L1438.17 868.199  Z" fill="#ffffff" fill-rule="evenodd" fill-opacity="1"/>
<polyline clip-path="url(#clip030)" style="stroke:#000000; stroke-linecap:round; stroke-linejoin:round; stroke-width:4; stroke-opacity:1; fill:none" points="1438.17,1075.56 1894.73,1075.56 1894.73,868.199 1438.17,868.199 1438.17,1075.56 "/>
<circle clip-path="url(#clip030)" cx="1515.53" cy="920.039" r="19.7486" fill="#009af9" fill-rule="evenodd" fill-opacity="1" stroke="#000000" stroke-opacity="1" stroke-width="4.68114"/>
<path clip-path="url(#clip030)" d="M1614.61 921.671 L1614.61 937.319 L1610.35 937.319 L1610.35 921.81 Q1610.35 918.13 1608.91 916.301 Q1607.48 914.472 1604.61 914.472 Q1601.16 914.472 1599.17 916.671 Q1597.18 918.87 1597.18 922.667 L1597.18 937.319 L1592.9 937.319 L1592.9 911.394 L1597.18 911.394 L1597.18 915.421 Q1598.71 913.083 1600.77 911.926 Q1602.85 910.769 1605.56 910.769 Q1610.03 910.769 1612.32 913.546 Q1614.61 916.301 1614.61 921.671 Z" fill="#000000" fill-rule="nonzero" fill-opacity="1" /><path clip-path="url(#clip030)" d="M1633.15 914.38 Q1629.72 914.38 1627.73 917.065 Q1625.74 919.727 1625.74 924.38 Q1625.74 929.032 1627.71 931.718 Q1629.7 934.38 1633.15 934.38 Q1636.55 934.38 1638.54 931.694 Q1640.53 929.009 1640.53 924.38 Q1640.53 919.773 1638.54 917.088 Q1636.55 914.38 1633.15 914.38 M1633.15 910.769 Q1638.71 910.769 1641.88 914.38 Q1645.05 917.991 1645.05 924.38 Q1645.05 930.745 1641.88 934.38 Q1638.71 937.991 1633.15 937.991 Q1627.57 937.991 1624.4 934.38 Q1621.25 930.745 1621.25 924.38 Q1621.25 917.991 1624.4 914.38 Q1627.57 910.769 1633.15 910.769 Z" fill="#000000" fill-rule="nonzero" fill-opacity="1" /><path clip-path="url(#clip030)" d="M1652.11 911.394 L1656.37 911.394 L1656.37 937.319 L1652.11 937.319 L1652.11 911.394 M1652.11 901.301 L1656.37 901.301 L1656.37 906.695 L1652.11 906.695 L1652.11 901.301 Z" fill="#000000" fill-rule="nonzero" fill-opacity="1" /><path clip-path="url(#clip030)" d="M1681.81 912.157 L1681.81 916.185 Q1680 915.259 1678.06 914.796 Q1676.11 914.333 1674.03 914.333 Q1670.86 914.333 1669.26 915.306 Q1667.69 916.278 1667.69 918.222 Q1667.69 919.704 1668.82 920.56 Q1669.96 921.394 1673.38 922.157 L1674.84 922.481 Q1679.38 923.454 1681.28 925.236 Q1683.2 926.995 1683.2 930.167 Q1683.2 933.778 1680.33 935.884 Q1677.48 937.991 1672.48 937.991 Q1670.4 937.991 1668.13 937.574 Q1665.88 937.18 1663.38 936.37 L1663.38 931.972 Q1665.74 933.199 1668.03 933.824 Q1670.33 934.426 1672.57 934.426 Q1675.58 934.426 1677.2 933.407 Q1678.82 932.366 1678.82 930.491 Q1678.82 928.755 1677.64 927.829 Q1676.48 926.903 1672.53 926.046 L1671.04 925.699 Q1667.09 924.866 1665.33 923.153 Q1663.57 921.417 1663.57 918.407 Q1663.57 914.75 1666.16 912.759 Q1668.75 910.769 1673.52 910.769 Q1675.88 910.769 1677.96 911.116 Q1680.05 911.463 1681.81 912.157 Z" fill="#000000" fill-rule="nonzero" fill-opacity="1" /><path clip-path="url(#clip030)" d="M1700.77 939.727 Q1698.96 944.356 1697.25 945.768 Q1695.53 947.18 1692.66 947.18 L1689.26 947.18 L1689.26 943.616 L1691.76 943.616 Q1693.52 943.616 1694.49 942.782 Q1695.46 941.949 1696.65 938.847 L1697.41 936.903 L1686.92 911.394 L1691.44 911.394 L1699.54 931.671 L1707.64 911.394 L1712.15 911.394 L1700.77 939.727 Z" fill="#000000" fill-rule="nonzero" fill-opacity="1" /><path clip-path="url(#clip030)" d="M1750.16 915.329 L1750.16 901.301 L1754.42 901.301 L1754.42 937.319 L1750.16 937.319 L1750.16 933.43 Q1748.82 935.745 1746.76 936.88 Q1744.72 937.991 1741.85 937.991 Q1737.15 937.991 1734.19 934.241 Q1731.25 930.491 1731.25 924.38 Q1731.25 918.269 1734.19 914.519 Q1737.15 910.769 1741.85 910.769 Q1744.72 910.769 1746.76 911.903 Q1748.82 913.014 1750.16 915.329 M1735.65 924.38 Q1735.65 929.079 1737.57 931.764 Q1739.52 934.426 1742.9 934.426 Q1746.27 934.426 1748.22 931.764 Q1750.16 929.079 1750.16 924.38 Q1750.16 919.681 1748.22 917.019 Q1746.27 914.333 1742.9 914.333 Q1739.52 914.333 1737.57 917.019 Q1735.65 919.681 1735.65 924.38 Z" fill="#000000" fill-rule="nonzero" fill-opacity="1" /><path clip-path="url(#clip030)" d="M1774.98 924.287 Q1769.82 924.287 1767.83 925.468 Q1765.83 926.648 1765.83 929.495 Q1765.83 931.764 1767.32 933.106 Q1768.82 934.426 1771.39 934.426 Q1774.93 934.426 1777.06 931.926 Q1779.21 929.403 1779.21 925.236 L1779.21 924.287 L1774.98 924.287 M1783.47 922.528 L1783.47 937.319 L1779.21 937.319 L1779.21 933.384 Q1777.76 935.745 1775.58 936.88 Q1773.4 937.991 1770.26 937.991 Q1766.27 937.991 1763.91 935.768 Q1761.58 933.523 1761.58 929.773 Q1761.58 925.398 1764.49 923.176 Q1767.43 920.954 1773.24 920.954 L1779.21 920.954 L1779.21 920.537 Q1779.21 917.597 1777.27 916 Q1775.35 914.38 1771.85 914.38 Q1769.63 914.38 1767.52 914.912 Q1765.42 915.444 1763.47 916.509 L1763.47 912.574 Q1765.81 911.671 1768.01 911.232 Q1770.21 910.769 1772.29 910.769 Q1777.92 910.769 1780.7 913.685 Q1783.47 916.602 1783.47 922.528 Z" fill="#000000" fill-rule="nonzero" fill-opacity="1" /><path clip-path="url(#clip030)" d="M1796.46 904.032 L1796.46 911.394 L1805.23 911.394 L1805.23 914.704 L1796.46 914.704 L1796.46 928.778 Q1796.46 931.949 1797.32 932.852 Q1798.2 933.755 1800.86 933.755 L1805.23 933.755 L1805.23 937.319 L1800.86 937.319 Q1795.93 937.319 1794.05 935.491 Q1792.18 933.639 1792.18 928.778 L1792.18 914.704 L1789.05 914.704 L1789.05 911.394 L1792.18 911.394 L1792.18 904.032 L1796.46 904.032 Z" fill="#000000" fill-rule="nonzero" fill-opacity="1" /><path clip-path="url(#clip030)" d="M1822.62 924.287 Q1817.45 924.287 1815.46 925.468 Q1813.47 926.648 1813.47 929.495 Q1813.47 931.764 1814.95 933.106 Q1816.46 934.426 1819.03 934.426 Q1822.57 934.426 1824.7 931.926 Q1826.85 929.403 1826.85 925.236 L1826.85 924.287 L1822.62 924.287 M1831.11 922.528 L1831.11 937.319 L1826.85 937.319 L1826.85 933.384 Q1825.39 935.745 1823.22 936.88 Q1821.04 937.991 1817.89 937.991 Q1813.91 937.991 1811.55 935.768 Q1809.21 933.523 1809.21 929.773 Q1809.21 925.398 1812.13 923.176 Q1815.07 920.954 1820.88 920.954 L1826.85 920.954 L1826.85 920.537 Q1826.85 917.597 1824.91 916 Q1822.99 914.38 1819.49 914.38 Q1817.27 914.38 1815.16 914.912 Q1813.06 915.444 1811.11 916.509 L1811.11 912.574 Q1813.45 911.671 1815.65 911.232 Q1817.85 910.769 1819.93 910.769 Q1825.56 910.769 1828.33 913.685 Q1831.11 916.602 1831.11 922.528 Z" fill="#000000" fill-rule="nonzero" fill-opacity="1" /><polyline clip-path="url(#clip030)" style="stroke:#000000; stroke-linecap:round; stroke-linejoin:round; stroke-width:8; stroke-opacity:1; fill:none" stroke-dasharray="32, 20" points="1457.51,971.879 1573.56,971.879 "/>
<path clip-path="url(#clip030)" d="M1597.18 985.27 L1597.18 999.02 L1592.9 999.02 L1592.9 963.234 L1597.18 963.234 L1597.18 967.169 Q1598.52 964.854 1600.56 963.743 Q1602.62 962.609 1605.47 962.609 Q1610.19 962.609 1613.13 966.359 Q1616.09 970.109 1616.09 976.22 Q1616.09 982.331 1613.13 986.081 Q1610.19 989.831 1605.47 989.831 Q1602.62 989.831 1600.56 988.72 Q1598.52 987.585 1597.18 985.27 M1611.67 976.22 Q1611.67 971.521 1609.72 968.859 Q1607.8 966.173 1604.42 966.173 Q1601.04 966.173 1599.1 968.859 Q1597.18 971.521 1597.18 976.22 Q1597.18 980.919 1599.1 983.604 Q1601.04 986.266 1604.42 986.266 Q1607.8 986.266 1609.72 983.604 Q1611.67 980.919 1611.67 976.22 Z" fill="#000000" fill-rule="nonzero" fill-opacity="1" /><path clip-path="url(#clip030)" d="M1645.33 975.132 L1645.33 977.215 L1625.74 977.215 Q1626.02 981.613 1628.38 983.928 Q1630.77 986.22 1635 986.22 Q1637.46 986.22 1639.75 985.618 Q1642.06 985.016 1644.33 983.812 L1644.33 987.84 Q1642.04 988.812 1639.63 989.321 Q1637.22 989.831 1634.75 989.831 Q1628.54 989.831 1624.91 986.22 Q1621.3 982.608 1621.3 976.451 Q1621.3 970.085 1624.72 966.359 Q1628.17 962.609 1634.01 962.609 Q1639.24 962.609 1642.27 965.988 Q1645.33 969.345 1645.33 975.132 M1641.07 973.882 Q1641.02 970.386 1639.1 968.303 Q1637.2 966.22 1634.05 966.22 Q1630.49 966.22 1628.34 968.234 Q1626.21 970.247 1625.88 973.905 L1641.07 973.882 Z" fill="#000000" fill-rule="nonzero" fill-opacity="1" /><path clip-path="url(#clip030)" d="M1667.34 967.215 Q1666.62 966.798 1665.77 966.613 Q1664.93 966.405 1663.91 966.405 Q1660.3 966.405 1658.36 968.766 Q1656.44 971.104 1656.44 975.502 L1656.44 989.159 L1652.15 989.159 L1652.15 963.234 L1656.44 963.234 L1656.44 967.261 Q1657.78 964.9 1659.93 963.766 Q1662.09 962.609 1665.16 962.609 Q1665.6 962.609 1666.14 962.678 Q1666.67 962.724 1667.32 962.84 L1667.34 967.215 Z" fill="#000000" fill-rule="nonzero" fill-opacity="1" /><path clip-path="url(#clip030)" d="M1684.93 953.141 L1684.93 956.683 L1680.86 956.683 Q1678.57 956.683 1677.66 957.609 Q1676.78 958.535 1676.78 960.942 L1676.78 963.234 L1683.8 963.234 L1683.8 966.544 L1676.78 966.544 L1676.78 989.159 L1672.5 989.159 L1672.5 966.544 L1668.43 966.544 L1668.43 963.234 L1672.5 963.234 L1672.5 961.428 Q1672.5 957.099 1674.52 955.132 Q1676.53 953.141 1680.9 953.141 L1684.93 953.141 Z" fill="#000000" fill-rule="nonzero" fill-opacity="1" /><path clip-path="url(#clip030)" d="M1710.67 975.132 L1710.67 977.215 L1691.09 977.215 Q1691.37 981.613 1693.73 983.928 Q1696.11 986.22 1700.35 986.22 Q1702.8 986.22 1705.09 985.618 Q1707.41 985.016 1709.68 983.812 L1709.68 987.84 Q1707.39 988.812 1704.98 989.321 Q1702.57 989.831 1700.09 989.831 Q1693.89 989.831 1690.26 986.22 Q1686.65 982.608 1686.65 976.451 Q1686.65 970.085 1690.07 966.359 Q1693.52 962.609 1699.35 962.609 Q1704.59 962.609 1707.62 965.988 Q1710.67 969.345 1710.67 975.132 M1706.41 973.882 Q1706.37 970.386 1704.45 968.303 Q1702.55 966.22 1699.4 966.22 Q1695.84 966.22 1693.68 968.234 Q1691.55 970.247 1691.23 973.905 L1706.41 973.882 Z" fill="#000000" fill-rule="nonzero" fill-opacity="1" /><path clip-path="url(#clip030)" d="M1736.32 964.229 L1736.32 968.21 Q1734.52 967.215 1732.69 966.729 Q1730.88 966.22 1729.03 966.22 Q1724.89 966.22 1722.59 968.859 Q1720.3 971.474 1720.3 976.22 Q1720.3 980.965 1722.59 983.604 Q1724.89 986.22 1729.03 986.22 Q1730.88 986.22 1732.69 985.733 Q1734.52 985.224 1736.32 984.229 L1736.32 988.164 Q1734.54 988.997 1732.62 989.414 Q1730.72 989.831 1728.57 989.831 Q1722.71 989.831 1719.26 986.15 Q1715.81 982.47 1715.81 976.22 Q1715.81 969.877 1719.28 966.243 Q1722.78 962.609 1728.84 962.609 Q1730.81 962.609 1732.69 963.025 Q1734.56 963.419 1736.32 964.229 Z" fill="#000000" fill-rule="nonzero" fill-opacity="1" /><path clip-path="url(#clip030)" d="M1747.94 955.872 L1747.94 963.234 L1756.71 963.234 L1756.71 966.544 L1747.94 966.544 L1747.94 980.618 Q1747.94 983.789 1748.8 984.692 Q1749.68 985.595 1752.34 985.595 L1756.71 985.595 L1756.71 989.159 L1752.34 989.159 Q1747.41 989.159 1745.53 987.331 Q1743.66 985.479 1743.66 980.618 L1743.66 966.544 L1740.53 966.544 L1740.53 963.234 L1743.66 963.234 L1743.66 955.872 L1747.94 955.872 Z" fill="#000000" fill-rule="nonzero" fill-opacity="1" /><path clip-path="url(#clip030)" d="M1794.45 967.169 L1794.45 953.141 L1798.71 953.141 L1798.71 989.159 L1794.45 989.159 L1794.45 985.27 Q1793.1 987.585 1791.04 988.72 Q1789.01 989.831 1786.14 989.831 Q1781.44 989.831 1778.47 986.081 Q1775.53 982.331 1775.53 976.22 Q1775.53 970.109 1778.47 966.359 Q1781.44 962.609 1786.14 962.609 Q1789.01 962.609 1791.04 963.743 Q1793.1 964.854 1794.45 967.169 M1779.93 976.22 Q1779.93 980.919 1781.85 983.604 Q1783.8 986.266 1787.18 986.266 Q1790.56 986.266 1792.5 983.604 Q1794.45 980.919 1794.45 976.22 Q1794.45 971.521 1792.5 968.859 Q1790.56 966.173 1787.18 966.173 Q1783.8 966.173 1781.85 968.859 Q1779.93 971.521 1779.93 976.22 Z" fill="#000000" fill-rule="nonzero" fill-opacity="1" /><path clip-path="url(#clip030)" d="M1819.26 976.127 Q1814.1 976.127 1812.11 977.308 Q1810.12 978.488 1810.12 981.335 Q1810.12 983.604 1811.6 984.946 Q1813.1 986.266 1815.67 986.266 Q1819.21 986.266 1821.34 983.766 Q1823.5 981.243 1823.5 977.076 L1823.5 976.127 L1819.26 976.127 M1827.76 974.368 L1827.76 989.159 L1823.5 989.159 L1823.5 985.224 Q1822.04 987.585 1819.86 988.72 Q1817.69 989.831 1814.54 989.831 Q1810.56 989.831 1808.2 987.608 Q1805.86 985.363 1805.86 981.613 Q1805.86 977.238 1808.77 975.016 Q1811.71 972.794 1817.52 972.794 L1823.5 972.794 L1823.5 972.377 Q1823.5 969.437 1821.55 967.84 Q1819.63 966.22 1816.14 966.22 Q1813.91 966.22 1811.81 966.752 Q1809.7 967.284 1807.76 968.349 L1807.76 964.414 Q1810.09 963.511 1812.29 963.072 Q1814.49 962.609 1816.58 962.609 Q1822.2 962.609 1824.98 965.525 Q1827.76 968.442 1827.76 974.368 Z" fill="#000000" fill-rule="nonzero" fill-opacity="1" /><path clip-path="url(#clip030)" d="M1840.74 955.872 L1840.74 963.234 L1849.51 963.234 L1849.51 966.544 L1840.74 966.544 L1840.74 980.618 Q1840.74 983.789 1841.6 984.692 Q1842.48 985.595 1845.14 985.595 L1849.51 985.595 L1849.51 989.159 L1845.14 989.159 Q1840.21 989.159 1838.33 987.331 Q1836.46 985.479 1836.46 980.618 L1836.46 966.544 L1833.33 966.544 L1833.33 963.234 L1836.46 963.234 L1836.46 955.872 L1840.74 955.872 Z" fill="#000000" fill-rule="nonzero" fill-opacity="1" /><path clip-path="url(#clip030)" d="M1866.9 976.127 Q1861.74 976.127 1859.75 977.308 Q1857.76 978.488 1857.76 981.335 Q1857.76 983.604 1859.24 984.946 Q1860.74 986.266 1863.31 986.266 Q1866.85 986.266 1868.98 983.766 Q1871.14 981.243 1871.14 977.076 L1871.14 976.127 L1866.9 976.127 M1875.39 974.368 L1875.39 989.159 L1871.14 989.159 L1871.14 985.224 Q1869.68 987.585 1867.5 988.72 Q1865.33 989.831 1862.18 989.831 Q1858.2 989.831 1855.83 987.608 Q1853.5 985.363 1853.5 981.613 Q1853.5 977.238 1856.41 975.016 Q1859.35 972.794 1865.16 972.794 L1871.14 972.794 L1871.14 972.377 Q1871.14 969.437 1869.19 967.84 Q1867.27 966.22 1863.77 966.22 Q1861.55 966.22 1859.45 966.752 Q1857.34 967.284 1855.39 968.349 L1855.39 964.414 Q1857.73 963.511 1859.93 963.072 Q1862.13 962.609 1864.21 962.609 Q1869.84 962.609 1872.62 965.525 Q1875.39 968.442 1875.39 974.368 Z" fill="#000000" fill-rule="nonzero" fill-opacity="1" /><polyline clip-path="url(#clip030)" style="stroke:#3da44d; stroke-linecap:round; stroke-linejoin:round; stroke-width:8; stroke-opacity:1; fill:none" points="1457.51,1023.72 1573.56,1023.72 "/>
<path clip-path="url(#clip030)" d="M1614.61 1025.35 L1614.61 1041 L1610.35 1041 L1610.35 1025.49 Q1610.35 1021.81 1608.91 1019.98 Q1607.48 1018.15 1604.61 1018.15 Q1601.16 1018.15 1599.17 1020.35 Q1597.18 1022.55 1597.18 1026.35 L1597.18 1041 L1592.9 1041 L1592.9 1015.07 L1597.18 1015.07 L1597.18 1019.1 Q1598.71 1016.76 1600.77 1015.61 Q1602.85 1014.45 1605.56 1014.45 Q1610.03 1014.45 1612.32 1017.23 Q1614.61 1019.98 1614.61 1025.35 Z" fill="#000000" fill-rule="nonzero" fill-opacity="1" /><path clip-path="url(#clip030)" d="M1633.15 1018.06 Q1629.72 1018.06 1627.73 1020.74 Q1625.74 1023.41 1625.74 1028.06 Q1625.74 1032.71 1627.71 1035.4 Q1629.7 1038.06 1633.15 1038.06 Q1636.55 1038.06 1638.54 1035.37 Q1640.53 1032.69 1640.53 1028.06 Q1640.53 1023.45 1638.54 1020.77 Q1636.55 1018.06 1633.15 1018.06 M1633.15 1014.45 Q1638.71 1014.45 1641.88 1018.06 Q1645.05 1021.67 1645.05 1028.06 Q1645.05 1034.43 1641.88 1038.06 Q1638.71 1041.67 1633.15 1041.67 Q1627.57 1041.67 1624.4 1038.06 Q1621.25 1034.43 1621.25 1028.06 Q1621.25 1021.67 1624.4 1018.06 Q1627.57 1014.45 1633.15 1014.45 Z" fill="#000000" fill-rule="nonzero" fill-opacity="1" /><path clip-path="url(#clip030)" d="M1673.66 1025.35 L1673.66 1041 L1669.4 1041 L1669.4 1025.49 Q1669.4 1021.81 1667.97 1019.98 Q1666.53 1018.15 1663.66 1018.15 Q1660.21 1018.15 1658.22 1020.35 Q1656.23 1022.55 1656.23 1026.35 L1656.23 1041 L1651.95 1041 L1651.95 1015.07 L1656.23 1015.07 L1656.23 1019.1 Q1657.76 1016.76 1659.82 1015.61 Q1661.9 1014.45 1664.61 1014.45 Q1669.08 1014.45 1671.37 1017.23 Q1673.66 1019.98 1673.66 1025.35 Z" fill="#000000" fill-rule="nonzero" fill-opacity="1" /><path clip-path="url(#clip030)" d="M1682.15 1004.98 L1686.41 1004.98 L1686.41 1041 L1682.15 1041 L1682.15 1004.98 Z" fill="#000000" fill-rule="nonzero" fill-opacity="1" /><path clip-path="url(#clip030)" d="M1695.33 1015.07 L1699.59 1015.07 L1699.59 1041 L1695.33 1041 L1695.33 1015.07 M1695.33 1004.98 L1699.59 1004.98 L1699.59 1010.37 L1695.33 1010.37 L1695.33 1004.98 Z" fill="#000000" fill-rule="nonzero" fill-opacity="1" /><path clip-path="url(#clip030)" d="M1730.05 1025.35 L1730.05 1041 L1725.79 1041 L1725.79 1025.49 Q1725.79 1021.81 1724.35 1019.98 Q1722.92 1018.15 1720.05 1018.15 Q1716.6 1018.15 1714.61 1020.35 Q1712.62 1022.55 1712.62 1026.35 L1712.62 1041 L1708.34 1041 L1708.34 1015.07 L1712.62 1015.07 L1712.62 1019.1 Q1714.15 1016.76 1716.21 1015.61 Q1718.29 1014.45 1721 1014.45 Q1725.46 1014.45 1727.76 1017.23 Q1730.05 1019.98 1730.05 1025.35 Z" fill="#000000" fill-rule="nonzero" fill-opacity="1" /><path clip-path="url(#clip030)" d="M1760.72 1026.97 L1760.72 1029.05 L1741.14 1029.05 Q1741.41 1033.45 1743.77 1035.77 Q1746.16 1038.06 1750.4 1038.06 Q1752.85 1038.06 1755.14 1037.46 Q1757.46 1036.86 1759.72 1035.65 L1759.72 1039.68 Q1757.43 1040.65 1755.02 1041.16 Q1752.62 1041.67 1750.14 1041.67 Q1743.94 1041.67 1740.3 1038.06 Q1736.69 1034.45 1736.69 1028.29 Q1736.69 1021.93 1740.12 1018.2 Q1743.57 1014.45 1749.4 1014.45 Q1754.63 1014.45 1757.66 1017.83 Q1760.72 1021.18 1760.72 1026.97 M1756.46 1025.72 Q1756.41 1022.23 1754.49 1020.14 Q1752.59 1018.06 1749.45 1018.06 Q1745.88 1018.06 1743.73 1020.07 Q1741.6 1022.09 1741.27 1025.74 L1756.46 1025.72 Z" fill="#000000" fill-rule="nonzero" fill-opacity="1" /><path clip-path="url(#clip030)" d="M1779.49 1027.97 Q1774.33 1027.97 1772.34 1029.15 Q1770.35 1030.33 1770.35 1033.18 Q1770.35 1035.44 1771.83 1036.79 Q1773.33 1038.11 1775.9 1038.11 Q1779.45 1038.11 1781.58 1035.61 Q1783.73 1033.08 1783.73 1028.92 L1783.73 1027.97 L1779.49 1027.97 M1787.99 1026.21 L1787.99 1041 L1783.73 1041 L1783.73 1037.06 Q1782.27 1039.43 1780.09 1040.56 Q1777.92 1041.67 1774.77 1041.67 Q1770.79 1041.67 1768.43 1039.45 Q1766.09 1037.2 1766.09 1033.45 Q1766.09 1029.08 1769.01 1026.86 Q1771.95 1024.63 1777.76 1024.63 L1783.73 1024.63 L1783.73 1024.22 Q1783.73 1021.28 1781.78 1019.68 Q1779.86 1018.06 1776.37 1018.06 Q1774.15 1018.06 1772.04 1018.59 Q1769.93 1019.12 1767.99 1020.19 L1767.99 1016.25 Q1770.33 1015.35 1772.52 1014.91 Q1774.72 1014.45 1776.81 1014.45 Q1782.43 1014.45 1785.21 1017.37 Q1787.99 1020.28 1787.99 1026.21 Z" fill="#000000" fill-rule="nonzero" fill-opacity="1" /><path clip-path="url(#clip030)" d="M1811.78 1019.06 Q1811.07 1018.64 1810.21 1018.45 Q1809.38 1018.24 1808.36 1018.24 Q1804.75 1018.24 1802.8 1020.61 Q1800.88 1022.94 1800.88 1027.34 L1800.88 1041 L1796.6 1041 L1796.6 1015.07 L1800.88 1015.07 L1800.88 1019.1 Q1802.22 1016.74 1804.38 1015.61 Q1806.53 1014.45 1809.61 1014.45 Q1810.05 1014.45 1810.58 1014.52 Q1811.11 1014.56 1811.76 1014.68 L1811.78 1019.06 Z" fill="#000000" fill-rule="nonzero" fill-opacity="1" /><path clip-path="url(#clip030)" d="M1844.45 1004.98 L1844.45 1008.52 L1840.37 1008.52 Q1838.08 1008.52 1837.18 1009.45 Q1836.3 1010.37 1836.3 1012.78 L1836.3 1015.07 L1843.31 1015.07 L1843.31 1018.38 L1836.3 1018.38 L1836.3 1041 L1832.02 1041 L1832.02 1018.38 L1827.94 1018.38 L1827.94 1015.07 L1832.02 1015.07 L1832.02 1013.27 Q1832.02 1008.94 1834.03 1006.97 Q1836.04 1004.98 1840.42 1004.98 L1844.45 1004.98 Z" fill="#000000" fill-rule="nonzero" fill-opacity="1" /><path clip-path="url(#clip030)" d="M1848.01 1015.07 L1852.27 1015.07 L1852.27 1041 L1848.01 1041 L1848.01 1015.07 M1848.01 1004.98 L1852.27 1004.98 L1852.27 1010.37 L1848.01 1010.37 L1848.01 1004.98 Z" fill="#000000" fill-rule="nonzero" fill-opacity="1" /><path clip-path="url(#clip030)" d="M1865.39 1007.71 L1865.39 1015.07 L1874.17 1015.07 L1874.17 1018.38 L1865.39 1018.38 L1865.39 1032.46 Q1865.39 1035.63 1866.25 1036.53 Q1867.13 1037.43 1869.79 1037.43 L1874.17 1037.43 L1874.17 1041 L1869.79 1041 Q1864.86 1041 1862.99 1039.17 Q1861.11 1037.32 1861.11 1032.46 L1861.11 1018.38 L1857.99 1018.38 L1857.99 1015.07 L1861.11 1015.07 L1861.11 1007.71 L1865.39 1007.71 Z" fill="#000000" fill-rule="nonzero" fill-opacity="1" /></svg>
