<?xml version="1.0" encoding="utf-8"?>
<svg xmlns="http://www.w3.org/2000/svg" xmlns:xlink="http://www.w3.org/1999/xlink" width="500" height="320" viewBox="0 0 2000 1280">
<defs>
  <clipPath id="clip110">
    <rect x="0" y="0" width="2000" height="1280"/>
  </clipPath>
</defs>
<path clip-path="url(#clip110)" d="M0 1280 L2000 1280 L2000 0 L0 0  Z" fill="#ffffff" fill-rule="evenodd" fill-opacity="1"/>
<defs>
  <clipPath id="clip111">
    <rect x="400" y="0" width="1401" height="1280"/>
  </clipPath>
</defs>
<path clip-path="url(#clip110)" d="M212.124 1111.02 L1952.76 1111.02 L1952.76 47.2441 L212.124 47.2441  Z" fill="#ffffff" fill-rule="evenodd" fill-opacity="1"/>
<defs>
  <clipPath id="clip112">
    <rect x="212" y="47" width="1742" height="1065"/>
  </clipPath>
</defs>
<polyline clip-path="url(#clip112)" style="stroke:#000000; stroke-linecap:round; stroke-linejoin:round; stroke-width:2; stroke-opacity:0.1; fill:none" points="261.387,1111.02 261.387,47.2441 "/>
<polyline clip-path="url(#clip112)" style="stroke:#000000; stroke-linecap:round; stroke-linejoin:round; stroke-width:2; stroke-opacity:0.1; fill:none" points="535.071,1111.02 535.071,47.2441 "/>
<polyline clip-path="url(#clip112)" style="stroke:#000000; stroke-linecap:round; stroke-linejoin:round; stroke-width:2; stroke-opacity:0.1; fill:none" points="808.756,1111.02 808.756,47.2441 "/>
<polyline clip-path="url(#clip112)" style="stroke:#000000; stroke-linecap:round; stroke-linejoin:round; stroke-width:2; stroke-opacity:0.1; fill:none" points="1082.44,1111.02 1082.44,47.2441 "/>
<polyline clip-path="url(#clip112)" style="stroke:#000000; stroke-linecap:round; stroke-linejoin:round; stroke-width:2; stroke-opacity:0.1; fill:none" points="1356.12,1111.02 1356.12,47.2441 "/>
<polyline clip-path="url(#clip112)" style="stroke:#000000; stroke-linecap:round; stroke-linejoin:round; stroke-width:2; stroke-opacity:0.1; fill:none" points="1629.81,1111.02 1629.81,47.2441 "/>
<polyline clip-path="url(#clip112)" style="stroke:#000000; stroke-linecap:round; stroke-linejoin:round; stroke-width:2; stroke-opacity:0.1; fill:none" points="1903.49,1111.02 1903.49,47.2441 "/>
<polyline clip-path="url(#clip112)" style="stroke:#000000; stroke-linecap:round; stroke-linejoin:round; stroke-width:2; stroke-opacity:0.1; fill:none" points="212.124,1080.91 1952.76,1080.91 "/>
<polyline clip-path="url(#clip112)" style="stroke:#000000; stroke-linecap:round; stroke-linejoin:round; stroke-width:2; stroke-opacity:0.1; fill:none" points="212.124,824.26 1952.76,824.26 "/>
<polyline clip-path="url(#clip112)" style="stroke:#000000; stroke-linecap:round; stroke-linejoin:round; stroke-width:2; stroke-opacity:0.1; fill:none" points="212.124,567.608 1952.76,567.608 "/>
<polyline clip-path="url(#clip112)" style="stroke:#000000; stroke-linecap:round; stroke-linejoin:round; stroke-width:2; stroke-opacity:0.1; fill:none" points="212.124,310.956 1952.76,310.956 "/>
<polyline clip-path="url(#clip112)" style="stroke:#000000; stroke-linecap:round; stroke-linejoin:round; stroke-width:2; stroke-opacity:0.1; fill:none" points="212.124,54.3042 1952.76,54.3042 "/>
<polyline clip-path="url(#clip110)" style="stroke:#000000; stroke-linecap:round; stroke-linejoin:round; stroke-width:4; stroke-opacity:1; fill:none" points="212.124,1111.02 1952.76,1111.02 "/>
<polyline clip-path="url(#clip110)" style="stroke:#000000; stroke-linecap:round; stroke-linejoin:round; stroke-width:4; stroke-opacity:1; fill:none" points="261.387,1111.02 261.387,1092.12 "/>
<polyline clip-path="url(#clip110)" style="stroke:#000000; stroke-linecap:round; stroke-linejoin:round; stroke-width:4; stroke-opacity:1; fill:none" points="535.071,1111.02 535.071,1092.12 "/>
<polyline clip-path="url(#clip110)" style="stroke:#000000; stroke-linecap:round; stroke-linejoin:round; stroke-width:4; stroke-opacity:1; fill:none" points="808.756,1111.02 808.756,1092.12 "/>
<polyline clip-path="url(#clip110)" style="stroke:#000000; stroke-linecap:round; stroke-linejoin:round; stroke-width:4; stroke-opacity:1; fill:none" points="1082.44,1111.02 1082.44,1092.12 "/>
<polyline clip-path="url(#clip110)" style="stroke:#000000; stroke-linecap:round; stroke-linejoin:round; stroke-width:4; stroke-opacity:1; fill:none" points="1356.12,1111.02 1356.12,1092.12 "/>
<polyline clip-path="url(#clip110)" style="stroke:#000000; stroke-linecap:round; stroke-linejoin:round; stroke-width:4; stroke-opacity:1; fill:none" points="1629.81,1111.02 1629.81,1092.12 "/>
<polyline clip-path="url(#clip110)" style="stroke:#000000; stroke-linecap:round; stroke-linejoin:round; stroke-width:4; stroke-opacity:1; fill:none" points="1903.49,1111.02 1903.49,1092.12 "/>
<path clip-path="url(#clip110)" d="M261.387 1138.74 Q257.776 1138.74 255.947 1142.3 Q254.142 1145.84 254.142 1152.97 Q254.142 1160.08 255.947 1163.64 Q257.776 1167.19 261.387 1167.19 Q265.021 1167.19 266.827 1163.64 Q268.656 1160.08 268.656 1152.97 Q268.656 1145.84 266.827 1142.3 Q265.021 1138.74 261.387 1138.74 M261.387 1135.03 Q267.197 1135.03 270.253 1139.64 Q273.331 1144.22 273.331 1152.97 Q273.331 1161.7 270.253 1166.31 Q267.197 1170.89 261.387 1170.89 Q255.577 1170.89 252.498 1166.31 Q249.443 1161.7 249.443 1152.97 Q249.443 1144.22 252.498 1139.64 Q255.577 1135.03 261.387 1135.03 Z" fill="#000000" fill-rule="nonzero" fill-opacity="1" /><path clip-path="url(#clip110)" d="M525.453 1166.28 L533.092 1166.28 L533.092 1139.92 L524.782 1141.58 L524.782 1137.33 L533.046 1135.66 L537.722 1135.66 L537.722 1166.28 L545.361 1166.28 L545.361 1170.22 L525.453 1170.22 L525.453 1166.28 Z" fill="#000000" fill-rule="nonzero" fill-opacity="1" /><path clip-path="url(#clip110)" d="M803.408 1166.28 L819.728 1166.28 L819.728 1170.22 L797.783 1170.22 L797.783 1166.28 Q800.445 1163.53 805.029 1158.9 Q809.635 1154.25 810.816 1152.9 Q813.061 1150.38 813.941 1148.64 Q814.844 1146.89 814.844 1145.2 Q814.844 1142.44 812.899 1140.7 Q810.978 1138.97 807.876 1138.97 Q805.677 1138.97 803.223 1139.73 Q800.793 1140.5 798.015 1142.05 L798.015 1137.33 Q800.839 1136.19 803.293 1135.61 Q805.746 1135.03 807.783 1135.03 Q813.154 1135.03 816.348 1137.72 Q819.543 1140.4 819.543 1144.89 Q819.543 1147.02 818.732 1148.95 Q817.945 1150.84 815.839 1153.44 Q815.26 1154.11 812.158 1157.33 Q809.057 1160.52 803.408 1166.28 Z" fill="#000000" fill-rule="nonzero" fill-opacity="1" /><path clip-path="url(#clip110)" d="M1086.69 1151.58 Q1090.04 1152.3 1091.92 1154.57 Q1093.82 1156.84 1093.82 1160.17 Q1093.82 1165.29 1090.3 1168.09 Q1086.78 1170.89 1080.3 1170.89 Q1078.12 1170.89 1075.81 1170.45 Q1073.52 1170.03 1071.06 1169.18 L1071.06 1164.66 Q1073.01 1165.8 1075.32 1166.38 Q1077.64 1166.95 1080.16 1166.95 Q1084.56 1166.95 1086.85 1165.22 Q1089.16 1163.48 1089.16 1160.17 Q1089.16 1157.12 1087.01 1155.4 Q1084.88 1153.67 1081.06 1153.67 L1077.03 1153.67 L1077.03 1149.83 L1081.25 1149.83 Q1084.7 1149.83 1086.53 1148.46 Q1088.35 1147.07 1088.35 1144.48 Q1088.35 1141.82 1086.46 1140.4 Q1084.58 1138.97 1081.06 1138.97 Q1079.14 1138.97 1076.94 1139.39 Q1074.74 1139.8 1072.1 1140.68 L1072.1 1136.51 Q1074.77 1135.77 1077.08 1135.4 Q1079.42 1135.03 1081.48 1135.03 Q1086.8 1135.03 1089.91 1137.46 Q1093.01 1139.87 1093.01 1143.99 Q1093.01 1146.86 1091.36 1148.85 Q1089.72 1150.82 1086.69 1151.58 Z" fill="#000000" fill-rule="nonzero" fill-opacity="1" /><path clip-path="url(#clip110)" d="M1359.13 1139.73 L1347.33 1158.18 L1359.13 1158.18 L1359.13 1139.73 M1357.91 1135.66 L1363.79 1135.66 L1363.79 1158.18 L1368.72 1158.18 L1368.72 1162.07 L1363.79 1162.07 L1363.79 1170.22 L1359.13 1170.22 L1359.13 1162.07 L1343.53 1162.07 L1343.53 1157.56 L1357.91 1135.66 Z" fill="#000000" fill-rule="nonzero" fill-opacity="1" /><path clip-path="url(#clip110)" d="M1620.09 1135.66 L1638.44 1135.66 L1638.44 1139.59 L1624.37 1139.59 L1624.37 1148.07 Q1625.39 1147.72 1626.41 1147.56 Q1627.42 1147.37 1628.44 1147.37 Q1634.23 1147.37 1637.61 1150.54 Q1640.99 1153.71 1640.99 1159.13 Q1640.99 1164.71 1637.52 1167.81 Q1634.04 1170.89 1627.73 1170.89 Q1625.55 1170.89 1623.28 1170.52 Q1621.04 1170.15 1618.63 1169.41 L1618.63 1164.71 Q1620.71 1165.84 1622.93 1166.4 Q1625.16 1166.95 1627.63 1166.95 Q1631.64 1166.95 1633.98 1164.85 Q1636.31 1162.74 1636.31 1159.13 Q1636.31 1155.52 1633.98 1153.41 Q1631.64 1151.31 1627.63 1151.31 Q1625.76 1151.31 1623.88 1151.72 Q1622.03 1152.14 1620.09 1153.02 L1620.09 1135.66 Z" fill="#000000" fill-rule="nonzero" fill-opacity="1" /><path clip-path="url(#clip110)" d="M1903.9 1151.08 Q1900.75 1151.08 1898.9 1153.23 Q1897.07 1155.38 1897.07 1159.13 Q1897.07 1162.86 1898.9 1165.03 Q1900.75 1167.19 1903.9 1167.19 Q1907.05 1167.19 1908.87 1165.03 Q1910.73 1162.86 1910.73 1159.13 Q1910.73 1155.38 1908.87 1153.23 Q1907.05 1151.08 1903.9 1151.08 M1913.18 1136.42 L1913.18 1140.68 Q1911.42 1139.85 1909.62 1139.41 Q1907.83 1138.97 1906.07 1138.97 Q1901.44 1138.97 1898.99 1142.09 Q1896.56 1145.22 1896.21 1151.54 Q1897.58 1149.52 1899.64 1148.46 Q1901.7 1147.37 1904.18 1147.37 Q1909.38 1147.37 1912.39 1150.54 Q1915.43 1153.69 1915.43 1159.13 Q1915.43 1164.45 1912.28 1167.67 Q1909.13 1170.89 1903.9 1170.89 Q1897.9 1170.89 1894.73 1166.31 Q1891.56 1161.7 1891.56 1152.97 Q1891.56 1144.78 1895.45 1139.92 Q1899.34 1135.03 1905.89 1135.03 Q1907.65 1135.03 1909.43 1135.38 Q1911.24 1135.73 1913.18 1136.42 Z" fill="#000000" fill-rule="nonzero" fill-opacity="1" /><g clip-path="url(#clip110)">
<text style="fill:#000000; fill-opacity:1; font-family:Arial,Helvetica Neue,Helvetica,sans-serif; font-size:66px; text-anchor:middle;" transform="rotate(0, 1082.44, 1252.42)" x="1082.44" y="1252.42">s</text>
</g>
<polyline clip-path="url(#clip110)" style="stroke:#000000; stroke-linecap:round; stroke-linejoin:round; stroke-width:4; stroke-opacity:1; fill:none" points="212.124,1111.02 212.124,47.2441 "/>
<polyline clip-path="url(#clip110)" style="stroke:#000000; stroke-linecap:round; stroke-linejoin:round; stroke-width:4; stroke-opacity:1; fill:none" points="212.124,1080.91 231.022,1080.91 "/>
<polyline clip-path="url(#clip110)" style="stroke:#000000; stroke-linecap:round; stroke-linejoin:round; stroke-width:4; stroke-opacity:1; fill:none" points="212.124,824.26 231.022,824.26 "/>
<polyline clip-path="url(#clip110)" style="stroke:#000000; stroke-linecap:round; stroke-linejoin:round; stroke-width:4; stroke-opacity:1; fill:none" points="212.124,567.608 231.022,567.608 "/>
<polyline clip-path="url(#clip110)" style="stroke:#000000; stroke-linecap:round; stroke-linejoin:round; stroke-width:4; stroke-opacity:1; fill:none" points="212.124,310.956 231.022,310.956 "/>
<polyline clip-path="url(#clip110)" style="stroke:#000000; stroke-linecap:round; stroke-linejoin:round; stroke-width:4; stroke-opacity:1; fill:none" points="212.124,54.3042 231.022,54.3042 "/>
<path clip-path="url(#clip110)" d="M124.948 1066.71 Q121.337 1066.71 119.509 1070.28 Q117.703 1073.82 117.703 1080.95 Q117.703 1088.05 119.509 1091.62 Q121.337 1095.16 124.948 1095.16 Q128.583 1095.16 130.388 1091.62 Q132.217 1088.05 132.217 1080.95 Q132.217 1073.82 130.388 1070.28 Q128.583 1066.71 124.948 1066.71 M124.948 1063.01 Q130.758 1063.01 133.814 1067.61 Q136.893 1072.2 136.893 1080.95 Q136.893 1089.67 133.814 1094.28 Q130.758 1098.86 124.948 1098.86 Q119.138 1098.86 116.059 1094.28 Q113.004 1089.67 113.004 1080.95 Q113.004 1072.2 116.059 1067.61 Q119.138 1063.01 124.948 1063.01 Z" fill="#000000" fill-rule="nonzero" fill-opacity="1" /><path clip-path="url(#clip110)" d="M145.11 1092.31 L149.994 1092.31 L149.994 1098.19 L145.11 1098.19 L145.11 1092.31 Z" fill="#000000" fill-rule="nonzero" fill-opacity="1" /><path clip-path="url(#clip110)" d="M170.18 1066.71 Q166.568 1066.71 164.74 1070.28 Q162.934 1073.82 162.934 1080.95 Q162.934 1088.05 164.74 1091.62 Q166.568 1095.16 170.18 1095.16 Q173.814 1095.16 175.619 1091.62 Q177.448 1088.05 177.448 1080.95 Q177.448 1073.82 175.619 1070.28 Q173.814 1066.71 170.18 1066.71 M170.18 1063.01 Q175.99 1063.01 179.045 1067.61 Q182.124 1072.2 182.124 1080.95 Q182.124 1089.67 179.045 1094.28 Q175.99 1098.86 170.18 1098.86 Q164.369 1098.86 161.291 1094.28 Q158.235 1089.67 158.235 1080.95 Q158.235 1072.2 161.291 1067.61 Q164.369 1063.01 170.18 1063.01 Z" fill="#000000" fill-rule="nonzero" fill-opacity="1" /><path clip-path="url(#clip110)" d="M125.944 810.058 Q122.333 810.058 120.504 813.623 Q118.698 817.165 118.698 824.295 Q118.698 831.401 120.504 834.966 Q122.333 838.507 125.944 838.507 Q129.578 838.507 131.383 834.966 Q133.212 831.401 133.212 824.295 Q133.212 817.165 131.383 813.623 Q129.578 810.058 125.944 810.058 M125.944 806.355 Q131.754 806.355 134.809 810.961 Q137.888 815.545 137.888 824.295 Q137.888 833.021 134.809 837.628 Q131.754 842.211 125.944 842.211 Q120.134 842.211 117.055 837.628 Q113.999 833.021 113.999 824.295 Q113.999 815.545 117.055 810.961 Q120.134 806.355 125.944 806.355 Z" fill="#000000" fill-rule="nonzero" fill-opacity="1" /><path clip-path="url(#clip110)" d="M146.106 835.66 L150.99 835.66 L150.99 841.54 L146.106 841.54 L146.106 835.66 Z" fill="#000000" fill-rule="nonzero" fill-opacity="1" /><path clip-path="url(#clip110)" d="M161.221 806.98 L179.578 806.98 L179.578 810.915 L165.504 810.915 L165.504 819.387 Q166.522 819.04 167.541 818.878 Q168.559 818.693 169.578 818.693 Q175.365 818.693 178.744 821.864 Q182.124 825.035 182.124 830.452 Q182.124 836.031 178.652 839.132 Q175.18 842.211 168.86 842.211 Q166.684 842.211 164.416 841.841 Q162.17 841.47 159.763 840.73 L159.763 836.031 Q161.846 837.165 164.068 837.72 Q166.291 838.276 168.768 838.276 Q172.772 838.276 175.11 836.169 Q177.448 834.063 177.448 830.452 Q177.448 826.841 175.11 824.734 Q172.772 822.628 168.768 822.628 Q166.893 822.628 165.018 823.045 Q163.166 823.461 161.221 824.341 L161.221 806.98 Z" fill="#000000" fill-rule="nonzero" fill-opacity="1" /><path clip-path="url(#clip110)" d="M115.759 580.953 L123.397 580.953 L123.397 554.587 L115.087 556.254 L115.087 551.995 L123.351 550.328 L128.027 550.328 L128.027 580.953 L135.666 580.953 L135.666 584.888 L115.759 584.888 L115.759 580.953 Z" fill="#000000" fill-rule="nonzero" fill-opacity="1" /><path clip-path="url(#clip110)" d="M145.11 579.008 L149.994 579.008 L149.994 584.888 L145.11 584.888 L145.11 579.008 Z" fill="#000000" fill-rule="nonzero" fill-opacity="1" /><path clip-path="url(#clip110)" d="M170.18 553.407 Q166.568 553.407 164.74 556.971 Q162.934 560.513 162.934 567.643 Q162.934 574.749 164.74 578.314 Q166.568 581.856 170.18 581.856 Q173.814 581.856 175.619 578.314 Q177.448 574.749 177.448 567.643 Q177.448 560.513 175.619 556.971 Q173.814 553.407 170.18 553.407 M170.18 549.703 Q175.99 549.703 179.045 554.309 Q182.124 558.893 182.124 567.643 Q182.124 576.369 179.045 580.976 Q175.99 585.559 170.18 585.559 Q164.369 585.559 161.291 580.976 Q158.235 576.369 158.235 567.643 Q158.235 558.893 161.291 554.309 Q164.369 549.703 170.18 549.703 Z" fill="#000000" fill-rule="nonzero" fill-opacity="1" /><path clip-path="url(#clip110)" d="M116.754 324.301 L124.393 324.301 L124.393 297.935 L116.083 299.602 L116.083 295.343 L124.346 293.676 L129.022 293.676 L129.022 324.301 L136.661 324.301 L136.661 328.236 L116.754 328.236 L116.754 324.301 Z" fill="#000000" fill-rule="nonzero" fill-opacity="1" /><path clip-path="url(#clip110)" d="M146.106 322.356 L150.99 322.356 L150.99 328.236 L146.106 328.236 L146.106 322.356 Z" fill="#000000" fill-rule="nonzero" fill-opacity="1" /><path clip-path="url(#clip110)" d="M161.221 293.676 L179.578 293.676 L179.578 297.611 L165.504 297.611 L165.504 306.083 Q166.522 305.736 167.541 305.574 Q168.559 305.389 169.578 305.389 Q175.365 305.389 178.744 308.56 Q182.124 311.732 182.124 317.148 Q182.124 322.727 178.652 325.829 Q175.18 328.907 168.86 328.907 Q166.684 328.907 164.416 328.537 Q162.17 328.167 159.763 327.426 L159.763 322.727 Q161.846 323.861 164.068 324.417 Q166.291 324.972 168.768 324.972 Q172.772 324.972 175.11 322.866 Q177.448 320.759 177.448 317.148 Q177.448 313.537 175.11 311.431 Q172.772 309.324 168.768 309.324 Q166.893 309.324 165.018 309.741 Q163.166 310.157 161.221 311.037 L161.221 293.676 Z" fill="#000000" fill-rule="nonzero" fill-opacity="1" /><path clip-path="url(#clip110)" d="M118.976 67.6491 L135.295 67.6491 L135.295 71.5842 L113.351 71.5842 L113.351 67.6491 Q116.013 64.8944 120.596 60.2648 Q125.203 55.6121 126.383 54.2695 Q128.629 51.7464 129.508 50.0103 Q130.411 48.251 130.411 46.5612 Q130.411 43.8066 128.467 42.0705 Q126.546 40.3344 123.444 40.3344 Q121.245 40.3344 118.791 41.0983 Q116.36 41.8622 113.583 43.4131 L113.583 38.6909 Q116.407 37.5566 118.86 36.9779 Q121.314 36.3992 123.351 36.3992 Q128.721 36.3992 131.916 39.0844 Q135.11 41.7696 135.11 46.2603 Q135.11 48.3899 134.3 50.3112 Q133.513 52.2093 131.407 54.8019 Q130.828 55.4732 127.726 58.6908 Q124.624 61.8852 118.976 67.6491 Z" fill="#000000" fill-rule="nonzero" fill-opacity="1" /><path clip-path="url(#clip110)" d="M145.11 65.7046 L149.994 65.7046 L149.994 71.5842 L145.11 71.5842 L145.11 65.7046 Z" fill="#000000" fill-rule="nonzero" fill-opacity="1" /><path clip-path="url(#clip110)" d="M170.18 40.1029 Q166.568 40.1029 164.74 43.6677 Q162.934 47.2094 162.934 54.3389 Q162.934 61.4454 164.74 65.0102 Q166.568 68.5518 170.18 68.5518 Q173.814 68.5518 175.619 65.0102 Q177.448 61.4454 177.448 54.3389 Q177.448 47.2094 175.619 43.6677 Q173.814 40.1029 170.18 40.1029 M170.18 36.3992 Q175.99 36.3992 179.045 41.0057 Q182.124 45.589 182.124 54.3389 Q182.124 63.0658 179.045 67.6722 Q175.99 72.2555 170.18 72.2555 Q164.369 72.2555 161.291 67.6722 Q158.235 63.0658 158.235 54.3389 Q158.235 45.589 161.291 41.0057 Q164.369 36.3992 170.18 36.3992 Z" fill="#000000" fill-rule="nonzero" fill-opacity="1" /><g clip-path="url(#clip110)">
<text style="fill:#000000; fill-opacity:1; font-family:Arial,Helvetica Neue,Helvetica,sans-serif; font-size:66px; text-anchor:middle;" transform="rotate(-90, 71.4418, 579.131)" x="71.4418" y="579.131">v</text>
</g>
<circle clip-path="url(#clip112)" cx="275.071" cy="910.975" r="10.8" fill="#009af9" fill-rule="evenodd" fill-opacity="1" stroke="#000000" stroke-opacity="1" stroke-width="2.56"/>
<circle clip-path="url(#clip112)" cx="342.922" cy="634.369" r="10.8" fill="#009af9" fill-rule="evenodd" fill-opacity="1" stroke="#000000" stroke-opacity="1" stroke-width="2.56"/>
<circle clip-path="url(#clip112)" cx="410.773" cy="512.23" r="10.8" fill="#009af9" fill-rule="evenodd" fill-opacity="1" stroke="#000000" stroke-opacity="1" stroke-width="2.56"/>
<circle clip-path="url(#clip112)" cx="478.624" cy="458.552" r="10.8" fill="#009af9" fill-rule="evenodd" fill-opacity="1" stroke="#000000" stroke-opacity="1" stroke-width="2.56"/>
<circle clip-path="url(#clip112)" cx="546.475" cy="434.019" r="10.8" fill="#009af9" fill-rule="evenodd" fill-opacity="1" stroke="#000000" stroke-opacity="1" stroke-width="2.56"/>
<circle clip-path="url(#clip112)" cx="614.326" cy="413.567" r="10.8" fill="#009af9" fill-rule="evenodd" fill-opacity="1" stroke="#000000" stroke-opacity="1" stroke-width="2.56"/>
<circle clip-path="url(#clip112)" cx="682.177" cy="380.956" r="10.8" fill="#009af9" fill-rule="evenodd" fill-opacity="1" stroke="#000000" stroke-opacity="1" stroke-width="2.56"/>
<circle clip-path="url(#clip112)" cx="750.028" cy="329.674" r="10.8" fill="#009af9" fill-rule="evenodd" fill-opacity="1" stroke="#000000" stroke-opacity="1" stroke-width="2.56"/>
<circle clip-path="url(#clip112)" cx="817.878" cy="264.2" r="10.8" fill="#009af9" fill-rule="evenodd" fill-opacity="1" stroke="#000000" stroke-opacity="1" stroke-width="2.56"/>
<circle clip-path="url(#clip112)" cx="885.729" cy="198.665" r="10.8" fill="#009af9" fill-rule="evenodd" fill-opacity="1" stroke="#000000" stroke-opacity="1" stroke-width="2.56"/>
<circle clip-path="url(#clip112)" cx="953.58" cy="151.66" r="10.8" fill="#009af9" fill-rule="evenodd" fill-opacity="1" stroke="#000000" stroke-opacity="1" stroke-width="2.56"/>
<circle clip-path="url(#clip112)" cx="1021.43" cy="137.942" r="10.8" fill="#009af9" fill-rule="evenodd" fill-opacity="1" stroke="#000000" stroke-opacity="1" stroke-width="2.56"/>
<circle clip-path="url(#clip112)" cx="1089.28" cy="160.015" r="10.8" fill="#009af9" fill-rule="evenodd" fill-opacity="1" stroke="#000000" stroke-opacity="1" stroke-width="2.56"/>
<circle clip-path="url(#clip112)" cx="1157.13" cy="203.959" r="10.8" fill="#009af9" fill-rule="evenodd" fill-opacity="1" stroke="#000000" stroke-opacity="1" stroke-width="2.56"/>
<circle clip-path="url(#clip112)" cx="1224.98" cy="243.267" r="10.8" fill="#009af9" fill-rule="evenodd" fill-opacity="1" stroke="#000000" stroke-opacity="1" stroke-width="2.56"/>
<circle clip-path="url(#clip112)" cx="1292.83" cy="251.041" r="10.8" fill="#009af9" fill-rule="evenodd" fill-opacity="1" stroke="#000000" stroke-opacity="1" stroke-width="2.56"/>
<circle clip-path="url(#clip112)" cx="1360.69" cy="215.753" r="10.8" fill="#009af9" fill-rule="evenodd" fill-opacity="1" stroke="#000000" stroke-opacity="1" stroke-width="2.56"/>
<circle clip-path="url(#clip112)" cx="1428.54" cy="151.392" r="10.8" fill="#009af9" fill-rule="evenodd" fill-opacity="1" stroke="#000000" stroke-opacity="1" stroke-width="2.56"/>
<circle clip-path="url(#clip112)" cx="1496.39" cy="93.1985" r="10.8" fill="#009af9" fill-rule="evenodd" fill-opacity="1" stroke="#000000" stroke-opacity="1" stroke-width="2.56"/>
<circle clip-path="url(#clip112)" cx="1564.24" cy="77.3509" r="10.8" fill="#009af9" fill-rule="evenodd" fill-opacity="1" stroke="#000000" stroke-opacity="1" stroke-width="2.56"/>
<circle clip-path="url(#clip112)" cx="1632.09" cy="114.774" r="10.8" fill="#009af9" fill-rule="evenodd" fill-opacity="1" stroke="#000000" stroke-opacity="1" stroke-width="2.56"/>
<circle clip-path="url(#clip112)" cx="1699.94" cy="177.914" r="10.8" fill="#009af9" fill-rule="evenodd" fill-opacity="1" stroke="#000000" stroke-opacity="1" stroke-width="2.56"/>
<circle clip-path="url(#clip112)" cx="1767.79" cy="215.551" r="10.8" fill="#009af9" fill-rule="evenodd" fill-opacity="1" stroke="#000000" stroke-opacity="1" stroke-width="2.56"/>
<circle clip-path="url(#clip112)" cx="1835.64" cy="191.513" r="10.8" fill="#009af9" fill-rule="evenodd" fill-opacity="1" stroke="#000000" stroke-opacity="1" stroke-width="2.56"/>
<circle clip-path="url(#clip112)" cx="1903.49" cy="119.403" r="10.8" fill="#009af9" fill-rule="evenodd" fill-opacity="1" stroke="#000000" stroke-opacity="1" stroke-width="2.56"/>
<polyline clip-path="url(#clip112)" style="stroke:#000000; stroke-linecap:round; stroke-linejoin:round; stroke-width:8; stroke-opacity:1; fill:none" stroke-dasharray="32, 20" points="275.071,987.584 342.922,697.609 410.773,545.113 478.624,451.061 546.475,387.258 614.326,341.133 682.177,306.232 750.028,278.904 817.878,256.924 885.729,238.863 953.58,223.758 1021.43,210.939 1089.28,199.922 1157.13,190.354 1224.98,181.965 1292.83,174.551 1360.69,167.951 1428.54,162.037 1496.39,156.709 1564.24,151.883 1632.09,147.491 1699.94,143.478 1767.79,139.795 1835.64,136.405 1903.49,133.274 "/>
<polyline clip-path="url(#clip112)" style="stroke:#3da44d; stroke-linecap:round; stroke-linejoin:round; stroke-width:8; stroke-opacity:1; fill:none" points="261.387,1080.91 263.506,1064.51 265.625,1048.63 267.744,1033.25 269.863,1018.35 271.982,1003.9 274.102,989.89 276.221,976.291 278.34,963.087 281.443,944.435 284.545,926.546 287.648,909.374 290.751,892.878 296.957,861.758 303.162,832.907 309.368,806.086 315.573,781.087 321.779,757.731 327.985,735.862 334.19,715.342 340.396,696.049 346.602,677.877 352.807,660.73 359.013,644.526 365.218,629.187 371.424,614.646 377.63,600.843 383.403,588.614 389.177,576.937 394.951,565.775 400.724,555.094 412.272,535.056 423.819,516.609 439.297,494.065 454.775,473.689 470.253,455.184 485.731,438.302 498.52,425.431 511.31,413.43 524.099,402.214 536.889,391.708 560.674,373.839 584.46,357.854 614.32,340.023 644.179,324.275 670.963,311.636 697.747,300.196 728.405,288.364 759.063,277.691 781.98,270.372 804.897,263.552 863.519,248.052 917.024,235.929 977.919,224 1026.19,215.699 1086.16,206.557 1132.09,200.297 1196.85,192.391 1245.24,187.084 1300.27,181.583 1354.77,176.623 1414.72,171.654 1460.52,168.161 1518.31,164.083 1571.77,160.602 1626.89,157.273 1682.77,154.141 1741.12,151.103 1787.08,148.86 1891.75,144.191 1903.49,143.701 "/>
<polyline clip-path="url(#clip112)" style="stroke:#c271d2; stroke-linecap:round; stroke-linejoin:round; stroke-width:8; stroke-opacity:1; fill:none" points="261.387,1080.91 263.506,1050.15 265.625,1021.42 267.744,994.534 269.863,969.318 271.982,945.622 274.102,923.311 275.161,912.637 276.221,902.267 277.28,892.188 278.34,882.386 281.443,855.181 284.545,830.012 287.648,806.658 290.751,784.931 293.854,764.665 296.957,745.719 300.059,727.967 303.162,711.301 306.265,695.622 309.368,680.847 312.471,666.899 315.573,653.71 318.676,641.221 321.779,629.377 324.882,618.129 327.985,607.434 334.19,587.545 340.396,569.435 346.602,552.876 352.807,537.676 359.013,523.674 365.218,510.735 371.424,498.742 377.63,487.594 383.403,477.906 389.177,468.814 394.951,460.266 400.724,452.213 412.272,437.432 423.819,424.187 439.297,408.452 454.775,394.642 470.253,382.423 485.731,371.536 498.52,363.396 511.31,355.928 524.099,349.053 536.889,342.702 560.674,332.095 584.46,322.805 614.32,312.659 644.179,303.883 670.963,296.96 697.747,290.785 759.063,278.882 804.897,271.566 863.519,263.684 917.024,257.618 977.919,251.732 1026.19,247.684 1086.16,243.269 1132.09,240.274 1196.85,236.52 1245.24,234.019 1300.27,231.442 1354.77,229.133 1414.72,226.832 1460.52,225.222 1518.31,223.35 1571.77,221.76 1626.89,220.244 1682.77,218.823 1741.12,217.45 1787.08,216.439 1891.75,214.342 1903.49,214.122 "/>
<path clip-path="url(#clip110)" d="M1431.34 1075.56 L1894.73 1075.56 L1894.73 816.359 L1431.34 816.359  Z" fill="#ffffff" fill-rule="evenodd" fill-opacity="1"/>
<polyline clip-path="url(#clip110)" style="stroke:#000000; stroke-linecap:round; stroke-linejoin:round; stroke-width:4; stroke-opacity:1; fill:none" points="1431.34,1075.56 1894.73,1075.56 1894.73,816.359 1431.34,816.359 1431.34,1075.56 "/>
<circle clip-path="url(#clip110)" cx="1508.71" cy="868.199" r="19.7486" fill="#009af9" fill-rule="evenodd" fill-opacity="1" stroke="#000000" stroke-opacity="1" stroke-width="4.68114"/>
<path clip-path="url(#clip110)" d="M1607.78 869.831 L1607.78 885.479 L1603.52 885.479 L1603.52 869.97 Q1603.52 866.29 1602.09 864.461 Q1600.65 862.632 1597.78 862.632 Q1594.33 862.632 1592.34 864.831 Q1590.35 867.03 1590.35 870.827 L1590.35 885.479 L1586.07 885.479 L1586.07 859.554 L1590.35 859.554 L1590.35 863.581 Q1591.88 861.243 1593.94 860.086 Q1596.02 858.929 1598.73 858.929 Q1603.2 858.929 1605.49 861.706 Q1607.78 864.461 1607.78 869.831 Z" fill="#000000" fill-rule="nonzero" fill-opacity="1" /><path clip-path="url(#clip110)" d="M1626.32 862.54 Q1622.9 862.54 1620.91 865.225 Q1618.91 867.887 1618.91 872.54 Q1618.91 877.192 1620.88 879.878 Q1622.87 882.54 1626.32 882.54 Q1629.72 882.54 1631.72 879.854 Q1633.71 877.169 1633.71 872.54 Q1633.71 867.933 1631.72 865.248 Q1629.72 862.54 1626.32 862.54 M1626.32 858.929 Q1631.88 858.929 1635.05 862.54 Q1638.22 866.151 1638.22 872.54 Q1638.22 878.905 1635.05 882.54 Q1631.88 886.151 1626.32 886.151 Q1620.74 886.151 1617.57 882.54 Q1614.42 878.905 1614.42 872.54 Q1614.42 866.151 1617.57 862.54 Q1620.74 858.929 1626.32 858.929 Z" fill="#000000" fill-rule="nonzero" fill-opacity="1" /><path clip-path="url(#clip110)" d="M1645.28 859.554 L1649.54 859.554 L1649.54 885.479 L1645.28 885.479 L1645.28 859.554 M1645.28 849.461 L1649.54 849.461 L1649.54 854.855 L1645.28 854.855 L1645.28 849.461 Z" fill="#000000" fill-rule="nonzero" fill-opacity="1" /><path clip-path="url(#clip110)" d="M1674.98 860.317 L1674.98 864.345 Q1673.17 863.419 1671.23 862.956 Q1669.28 862.493 1667.2 862.493 Q1664.03 862.493 1662.43 863.466 Q1660.86 864.438 1660.86 866.382 Q1660.86 867.864 1661.99 868.72 Q1663.13 869.554 1666.55 870.317 L1668.01 870.641 Q1672.55 871.614 1674.45 873.396 Q1676.37 875.155 1676.37 878.327 Q1676.37 881.938 1673.5 884.044 Q1670.65 886.151 1665.65 886.151 Q1663.57 886.151 1661.3 885.734 Q1659.05 885.34 1656.55 884.53 L1656.55 880.132 Q1658.91 881.359 1661.21 881.984 Q1663.5 882.586 1665.74 882.586 Q1668.75 882.586 1670.37 881.567 Q1671.99 880.526 1671.99 878.651 Q1671.99 876.915 1670.81 875.989 Q1669.65 875.063 1665.7 874.206 L1664.22 873.859 Q1660.26 873.026 1658.5 871.313 Q1656.74 869.577 1656.74 866.567 Q1656.74 862.91 1659.33 860.919 Q1661.92 858.929 1666.69 858.929 Q1669.05 858.929 1671.14 859.276 Q1673.22 859.623 1674.98 860.317 Z" fill="#000000" fill-rule="nonzero" fill-opacity="1" /><path clip-path="url(#clip110)" d="M1693.94 887.887 Q1692.13 892.516 1690.42 893.928 Q1688.71 895.34 1685.84 895.34 L1682.43 895.34 L1682.43 891.776 L1684.93 891.776 Q1686.69 891.776 1687.66 890.942 Q1688.64 890.109 1689.82 887.007 L1690.58 885.063 L1680.09 859.554 L1684.61 859.554 L1692.71 879.831 L1700.81 859.554 L1705.33 859.554 L1693.94 887.887 Z" fill="#000000" fill-rule="nonzero" fill-opacity="1" /><path clip-path="url(#clip110)" d="M1743.34 863.489 L1743.34 849.461 L1747.59 849.461 L1747.59 885.479 L1743.34 885.479 L1743.34 881.59 Q1741.99 883.905 1739.93 885.04 Q1737.9 886.151 1735.02 886.151 Q1730.33 886.151 1727.36 882.401 Q1724.42 878.651 1724.42 872.54 Q1724.42 866.429 1727.36 862.679 Q1730.33 858.929 1735.02 858.929 Q1737.9 858.929 1739.93 860.063 Q1741.99 861.174 1743.34 863.489 M1728.82 872.54 Q1728.82 877.239 1730.74 879.924 Q1732.69 882.586 1736.07 882.586 Q1739.45 882.586 1741.39 879.924 Q1743.34 877.239 1743.34 872.54 Q1743.34 867.841 1741.39 865.179 Q1739.45 862.493 1736.07 862.493 Q1732.69 862.493 1730.74 865.179 Q1728.82 867.841 1728.82 872.54 Z" fill="#000000" fill-rule="nonzero" fill-opacity="1" /><path clip-path="url(#clip110)" d="M1768.15 872.447 Q1762.99 872.447 1761 873.628 Q1759.01 874.808 1759.01 877.655 Q1759.01 879.924 1760.49 881.266 Q1761.99 882.586 1764.56 882.586 Q1768.1 882.586 1770.23 880.086 Q1772.39 877.563 1772.39 873.396 L1772.39 872.447 L1768.15 872.447 M1776.65 870.688 L1776.65 885.479 L1772.39 885.479 L1772.39 881.544 Q1770.93 883.905 1768.75 885.04 Q1766.58 886.151 1763.43 886.151 Q1759.45 886.151 1757.08 883.928 Q1754.75 881.683 1754.75 877.933 Q1754.75 873.558 1757.66 871.336 Q1760.6 869.114 1766.41 869.114 L1772.39 869.114 L1772.39 868.697 Q1772.39 865.757 1770.44 864.16 Q1768.52 862.54 1765.02 862.54 Q1762.8 862.54 1760.7 863.072 Q1758.59 863.604 1756.65 864.669 L1756.65 860.734 Q1758.98 859.831 1761.18 859.392 Q1763.38 858.929 1765.46 858.929 Q1771.09 858.929 1773.87 861.845 Q1776.65 864.762 1776.65 870.688 Z" fill="#000000" fill-rule="nonzero" fill-opacity="1" /><path clip-path="url(#clip110)" d="M1789.63 852.192 L1789.63 859.554 L1798.4 859.554 L1798.4 862.864 L1789.63 862.864 L1789.63 876.938 Q1789.63 880.109 1790.49 881.012 Q1791.37 881.915 1794.03 881.915 L1798.4 881.915 L1798.4 885.479 L1794.03 885.479 Q1789.1 885.479 1787.22 883.651 Q1785.35 881.799 1785.35 876.938 L1785.35 862.864 L1782.22 862.864 L1782.22 859.554 L1785.35 859.554 L1785.35 852.192 L1789.63 852.192 Z" fill="#000000" fill-rule="nonzero" fill-opacity="1" /><path clip-path="url(#clip110)" d="M1815.79 872.447 Q1810.63 872.447 1808.64 873.628 Q1806.64 874.808 1806.64 877.655 Q1806.64 879.924 1808.13 881.266 Q1809.63 882.586 1812.2 882.586 Q1815.74 882.586 1817.87 880.086 Q1820.02 877.563 1820.02 873.396 L1820.02 872.447 L1815.79 872.447 M1824.28 870.688 L1824.28 885.479 L1820.02 885.479 L1820.02 881.544 Q1818.57 883.905 1816.39 885.04 Q1814.21 886.151 1811.07 886.151 Q1807.08 886.151 1804.72 883.928 Q1802.39 881.683 1802.39 877.933 Q1802.39 873.558 1805.3 871.336 Q1808.24 869.114 1814.05 869.114 L1820.02 869.114 L1820.02 868.697 Q1820.02 865.757 1818.08 864.16 Q1816.16 862.54 1812.66 862.54 Q1810.44 862.54 1808.33 863.072 Q1806.23 863.604 1804.28 864.669 L1804.28 860.734 Q1806.62 859.831 1808.82 859.392 Q1811.02 858.929 1813.1 858.929 Q1818.73 858.929 1821.51 861.845 Q1824.28 864.762 1824.28 870.688 Z" fill="#000000" fill-rule="nonzero" fill-opacity="1" /><polyline clip-path="url(#clip110)" style="stroke:#000000; stroke-linecap:round; stroke-linejoin:round; stroke-width:8; stroke-opacity:1; fill:none" stroke-dasharray="32, 20" points="1450.68,920.039 1566.73,920.039 "/>
<path clip-path="url(#clip110)" d="M1590.35 933.43 L1590.35 947.18 L1586.07 947.18 L1586.07 911.394 L1590.35 911.394 L1590.35 915.329 Q1591.69 913.014 1593.73 911.903 Q1595.79 910.769 1598.64 910.769 Q1603.36 910.769 1606.3 914.519 Q1609.26 918.269 1609.26 924.38 Q1609.26 930.491 1606.3 934.241 Q1603.36 937.991 1598.64 937.991 Q1595.79 937.991 1593.73 936.88 Q1591.69 935.745 1590.35 933.43 M1604.84 924.38 Q1604.84 919.681 1602.9 917.019 Q1600.97 914.333 1597.6 914.333 Q1594.22 914.333 1592.27 917.019 Q1590.35 919.681 1590.35 924.38 Q1590.35 929.079 1592.27 931.764 Q1594.22 934.426 1597.6 934.426 Q1600.97 934.426 1602.9 931.764 Q1604.84 929.079 1604.84 924.38 Z" fill="#000000" fill-rule="nonzero" fill-opacity="1" /><path clip-path="url(#clip110)" d="M1638.5 923.292 L1638.5 925.375 L1618.91 925.375 Q1619.19 929.773 1621.55 932.088 Q1623.94 934.38 1628.17 934.38 Q1630.63 934.38 1632.92 933.778 Q1635.23 933.176 1637.5 931.972 L1637.5 936 Q1635.21 936.972 1632.8 937.481 Q1630.4 937.991 1627.92 937.991 Q1621.72 937.991 1618.08 934.38 Q1614.47 930.768 1614.47 924.611 Q1614.47 918.245 1617.9 914.519 Q1621.34 910.769 1627.18 910.769 Q1632.41 910.769 1635.44 914.148 Q1638.5 917.505 1638.5 923.292 M1634.24 922.042 Q1634.19 918.546 1632.27 916.463 Q1630.37 914.38 1627.22 914.38 Q1623.66 914.38 1621.51 916.394 Q1619.38 918.407 1619.05 922.065 L1634.24 922.042 Z" fill="#000000" fill-rule="nonzero" fill-opacity="1" /><path clip-path="url(#clip110)" d="M1660.51 915.375 Q1659.79 914.958 1658.94 914.773 Q1658.1 914.565 1657.09 914.565 Q1653.47 914.565 1651.53 916.926 Q1649.61 919.264 1649.61 923.662 L1649.61 937.319 L1645.33 937.319 L1645.33 911.394 L1649.61 911.394 L1649.61 915.421 Q1650.95 913.06 1653.1 911.926 Q1655.26 910.769 1658.34 910.769 Q1658.78 910.769 1659.31 910.838 Q1659.84 910.884 1660.49 911 L1660.51 915.375 Z" fill="#000000" fill-rule="nonzero" fill-opacity="1" /><path clip-path="url(#clip110)" d="M1678.1 901.301 L1678.1 904.843 L1674.03 904.843 Q1671.74 904.843 1670.84 905.769 Q1669.96 906.695 1669.96 909.102 L1669.96 911.394 L1676.97 911.394 L1676.97 914.704 L1669.96 914.704 L1669.96 937.319 L1665.67 937.319 L1665.67 914.704 L1661.6 914.704 L1661.6 911.394 L1665.67 911.394 L1665.67 909.588 Q1665.67 905.259 1667.69 903.292 Q1669.7 901.301 1674.08 901.301 L1678.1 901.301 Z" fill="#000000" fill-rule="nonzero" fill-opacity="1" /><path clip-path="url(#clip110)" d="M1703.84 923.292 L1703.84 925.375 L1684.26 925.375 Q1684.54 929.773 1686.9 932.088 Q1689.28 934.38 1693.52 934.38 Q1695.97 934.38 1698.27 933.778 Q1700.58 933.176 1702.85 931.972 L1702.85 936 Q1700.56 936.972 1698.15 937.481 Q1695.74 937.991 1693.27 937.991 Q1687.06 937.991 1683.43 934.38 Q1679.82 930.768 1679.82 924.611 Q1679.82 918.245 1683.24 914.519 Q1686.69 910.769 1692.53 910.769 Q1697.76 910.769 1700.79 914.148 Q1703.84 917.505 1703.84 923.292 M1699.59 922.042 Q1699.54 918.546 1697.62 916.463 Q1695.72 914.38 1692.57 914.38 Q1689.01 914.38 1686.85 916.394 Q1684.72 918.407 1684.4 922.065 L1699.59 922.042 Z" fill="#000000" fill-rule="nonzero" fill-opacity="1" /><path clip-path="url(#clip110)" d="M1729.49 912.389 L1729.49 916.37 Q1727.69 915.375 1725.86 914.889 Q1724.05 914.38 1722.2 914.38 Q1718.06 914.38 1715.77 917.019 Q1713.47 919.634 1713.47 924.38 Q1713.47 929.125 1715.77 931.764 Q1718.06 934.38 1722.2 934.38 Q1724.05 934.38 1725.86 933.893 Q1727.69 933.384 1729.49 932.389 L1729.49 936.324 Q1727.71 937.157 1725.79 937.574 Q1723.89 937.991 1721.74 937.991 Q1715.88 937.991 1712.43 934.31 Q1708.98 930.63 1708.98 924.38 Q1708.98 918.037 1712.46 914.403 Q1715.95 910.769 1722.02 910.769 Q1723.98 910.769 1725.86 911.185 Q1727.73 911.579 1729.49 912.389 Z" fill="#000000" fill-rule="nonzero" fill-opacity="1" /><path clip-path="url(#clip110)" d="M1741.11 904.032 L1741.11 911.394 L1749.89 911.394 L1749.89 914.704 L1741.11 914.704 L1741.11 928.778 Q1741.11 931.949 1741.97 932.852 Q1742.85 933.755 1745.51 933.755 L1749.89 933.755 L1749.89 937.319 L1745.51 937.319 Q1740.58 937.319 1738.71 935.491 Q1736.83 933.639 1736.83 928.778 L1736.83 914.704 L1733.71 914.704 L1733.71 911.394 L1736.83 911.394 L1736.83 904.032 L1741.11 904.032 Z" fill="#000000" fill-rule="nonzero" fill-opacity="1" /><path clip-path="url(#clip110)" d="M1787.62 915.329 L1787.62 901.301 L1791.88 901.301 L1791.88 937.319 L1787.62 937.319 L1787.62 933.43 Q1786.27 935.745 1784.21 936.88 Q1782.18 937.991 1779.31 937.991 Q1774.61 937.991 1771.65 934.241 Q1768.71 930.491 1768.71 924.38 Q1768.71 918.269 1771.65 914.519 Q1774.61 910.769 1779.31 910.769 Q1782.18 910.769 1784.21 911.903 Q1786.27 913.014 1787.62 915.329 M1773.1 924.38 Q1773.1 929.079 1775.02 931.764 Q1776.97 934.426 1780.35 934.426 Q1783.73 934.426 1785.67 931.764 Q1787.62 929.079 1787.62 924.38 Q1787.62 919.681 1785.67 917.019 Q1783.73 914.333 1780.35 914.333 Q1776.97 914.333 1775.02 917.019 Q1773.1 919.681 1773.1 924.38 Z" fill="#000000" fill-rule="nonzero" fill-opacity="1" /><path clip-path="url(#clip110)" d="M1812.43 924.287 Q1807.27 924.287 1805.28 925.468 Q1803.29 926.648 1803.29 929.495 Q1803.29 931.764 1804.77 933.106 Q1806.27 934.426 1808.84 934.426 Q1812.39 934.426 1814.52 931.926 Q1816.67 929.403 1816.67 925.236 L1816.67 924.287 L1812.43 924.287 M1820.93 922.528 L1820.93 937.319 L1816.67 937.319 L1816.67 933.384 Q1815.21 935.745 1813.03 936.88 Q1810.86 937.991 1807.71 937.991 Q1803.73 937.991 1801.37 935.768 Q1799.03 933.523 1799.03 929.773 Q1799.03 925.398 1801.95 923.176 Q1804.89 920.954 1810.7 920.954 L1816.67 920.954 L1816.67 920.537 Q1816.67 917.597 1814.72 916 Q1812.8 914.38 1809.31 914.38 Q1807.08 914.38 1804.98 914.912 Q1802.87 915.444 1800.93 916.509 L1800.93 912.574 Q1803.27 911.671 1805.46 911.232 Q1807.66 910.769 1809.75 910.769 Q1815.37 910.769 1818.15 913.685 Q1820.93 916.602 1820.93 922.528 Z" fill="#000000" fill-rule="nonzero" fill-opacity="1" /><path clip-path="url(#clip110)" d="M1833.91 904.032 L1833.91 911.394 L1842.69 911.394 L1842.69 914.704 L1833.91 914.704 L1833.91 928.778 Q1833.91 931.949 1834.77 932.852 Q1835.65 933.755 1838.31 933.755 L1842.69 933.755 L1842.69 937.319 L1838.31 937.319 Q1833.38 937.319 1831.51 935.491 Q1829.63 933.639 1829.63 928.778 L1829.63 914.704 L1826.51 914.704 L1826.51 911.394 L1829.63 911.394 L1829.63 904.032 L1833.91 904.032 Z" fill="#000000" fill-rule="nonzero" fill-opacity="1" /><path clip-path="url(#clip110)" d="M1860.07 924.287 Q1854.91 924.287 1852.92 925.468 Q1850.93 926.648 1850.93 929.495 Q1850.93 931.764 1852.41 933.106 Q1853.91 934.426 1856.48 934.426 Q1860.02 934.426 1862.15 931.926 Q1864.31 929.403 1864.31 925.236 L1864.31 924.287 L1860.07 924.287 M1868.57 922.528 L1868.57 937.319 L1864.31 937.319 L1864.31 933.384 Q1862.85 935.745 1860.67 936.88 Q1858.5 937.991 1855.35 937.991 Q1851.37 937.991 1849.01 935.768 Q1846.67 933.523 1846.67 929.773 Q1846.67 925.398 1849.58 923.176 Q1852.52 920.954 1858.33 920.954 L1864.31 920.954 L1864.31 920.537 Q1864.31 917.597 1862.36 916 Q1860.44 914.38 1856.95 914.38 Q1854.72 914.38 1852.62 914.912 Q1850.51 915.444 1848.57 916.509 L1848.57 912.574 Q1850.9 911.671 1853.1 911.232 Q1855.3 910.769 1857.39 910.769 Q1863.01 910.769 1865.79 913.685 Q1868.57 916.602 1868.57 922.528 Z" fill="#000000" fill-rule="nonzero" fill-opacity="1" /><polyline clip-path="url(#clip110)" style="stroke:#3da44d; stroke-linecap:round; stroke-linejoin:round; stroke-width:8; stroke-opacity:1; fill:none" points="1450.68,971.879 1566.73,971.879 "/>
<path clip-path="url(#clip110)" d="M1607.78 973.511 L1607.78 989.159 L1603.52 989.159 L1603.52 973.65 Q1603.52 969.97 1602.09 968.141 Q1600.65 966.312 1597.78 966.312 Q1594.33 966.312 1592.34 968.511 Q1590.35 970.71 1590.35 974.507 L1590.35 989.159 L1586.07 989.159 L1586.07 963.234 L1590.35 963.234 L1590.35 967.261 Q1591.88 964.923 1593.94 963.766 Q1596.02 962.609 1598.73 962.609 Q1603.2 962.609 1605.49 965.386 Q1607.78 968.141 1607.78 973.511 Z" fill="#000000" fill-rule="nonzero" fill-opacity="1" /><path clip-path="url(#clip110)" d="M1626.32 966.22 Q1622.9 966.22 1620.91 968.905 Q1618.91 971.567 1618.91 976.22 Q1618.91 980.872 1620.88 983.558 Q1622.87 986.22 1626.32 986.22 Q1629.72 986.22 1631.72 983.534 Q1633.71 980.849 1633.71 976.22 Q1633.71 971.613 1631.72 968.928 Q1629.72 966.22 1626.32 966.22 M1626.32 962.609 Q1631.88 962.609 1635.05 966.22 Q1638.22 969.831 1638.22 976.22 Q1638.22 982.585 1635.05 986.22 Q1631.88 989.831 1626.32 989.831 Q1620.74 989.831 1617.57 986.22 Q1614.42 982.585 1614.42 976.22 Q1614.42 969.831 1617.57 966.22 Q1620.74 962.609 1626.32 962.609 Z" fill="#000000" fill-rule="nonzero" fill-opacity="1" /><path clip-path="url(#clip110)" d="M1666.83 973.511 L1666.83 989.159 L1662.57 989.159 L1662.57 973.65 Q1662.57 969.97 1661.14 968.141 Q1659.7 966.312 1656.83 966.312 Q1653.38 966.312 1651.39 968.511 Q1649.4 970.71 1649.4 974.507 L1649.4 989.159 L1645.12 989.159 L1645.12 963.234 L1649.4 963.234 L1649.4 967.261 Q1650.93 964.923 1652.99 963.766 Q1655.07 962.609 1657.78 962.609 Q1662.25 962.609 1664.54 965.386 Q1666.83 968.141 1666.83 973.511 Z" fill="#000000" fill-rule="nonzero" fill-opacity="1" /><path clip-path="url(#clip110)" d="M1675.33 953.141 L1679.59 953.141 L1679.59 989.159 L1675.33 989.159 L1675.33 953.141 Z" fill="#000000" fill-rule="nonzero" fill-opacity="1" /><path clip-path="url(#clip110)" d="M1688.5 963.234 L1692.76 963.234 L1692.76 989.159 L1688.5 989.159 L1688.5 963.234 M1688.5 953.141 L1692.76 953.141 L1692.76 958.535 L1688.5 958.535 L1688.5 953.141 Z" fill="#000000" fill-rule="nonzero" fill-opacity="1" /><path clip-path="url(#clip110)" d="M1723.22 973.511 L1723.22 989.159 L1718.96 989.159 L1718.96 973.65 Q1718.96 969.97 1717.52 968.141 Q1716.09 966.312 1713.22 966.312 Q1709.77 966.312 1707.78 968.511 Q1705.79 970.71 1705.79 974.507 L1705.79 989.159 L1701.51 989.159 L1701.51 963.234 L1705.79 963.234 L1705.79 967.261 Q1707.32 964.923 1709.38 963.766 Q1711.46 962.609 1714.17 962.609 Q1718.64 962.609 1720.93 965.386 Q1723.22 968.141 1723.22 973.511 Z" fill="#000000" fill-rule="nonzero" fill-opacity="1" /><path clip-path="url(#clip110)" d="M1753.89 975.132 L1753.89 977.215 L1734.31 977.215 Q1734.59 981.613 1736.95 983.928 Q1739.33 986.22 1743.57 986.22 Q1746.02 986.22 1748.31 985.618 Q1750.63 985.016 1752.9 983.812 L1752.9 987.84 Q1750.6 988.812 1748.2 989.321 Q1745.79 989.831 1743.31 989.831 Q1737.11 989.831 1733.47 986.22 Q1729.86 982.608 1729.86 976.451 Q1729.86 970.085 1733.29 966.359 Q1736.74 962.609 1742.57 962.609 Q1747.8 962.609 1750.83 965.988 Q1753.89 969.345 1753.89 975.132 M1749.63 973.882 Q1749.58 970.386 1747.66 968.303 Q1745.77 966.22 1742.62 966.22 Q1739.05 966.22 1736.9 968.234 Q1734.77 970.247 1734.45 973.905 L1749.63 973.882 Z" fill="#000000" fill-rule="nonzero" fill-opacity="1" /><path clip-path="url(#clip110)" d="M1772.66 976.127 Q1767.5 976.127 1765.51 977.308 Q1763.52 978.488 1763.52 981.335 Q1763.52 983.604 1765 984.946 Q1766.51 986.266 1769.08 986.266 Q1772.62 986.266 1774.75 983.766 Q1776.9 981.243 1776.9 977.076 L1776.9 976.127 L1772.66 976.127 M1781.16 974.368 L1781.16 989.159 L1776.9 989.159 L1776.9 985.224 Q1775.44 987.585 1773.27 988.72 Q1771.09 989.831 1767.94 989.831 Q1763.96 989.831 1761.6 987.608 Q1759.26 985.363 1759.26 981.613 Q1759.26 977.238 1762.18 975.016 Q1765.12 972.794 1770.93 972.794 L1776.9 972.794 L1776.9 972.377 Q1776.9 969.437 1774.96 967.84 Q1773.03 966.22 1769.54 966.22 Q1767.32 966.22 1765.21 966.752 Q1763.1 967.284 1761.16 968.349 L1761.16 964.414 Q1763.5 963.511 1765.7 963.072 Q1767.9 962.609 1769.98 962.609 Q1775.6 962.609 1778.38 965.525 Q1781.16 968.442 1781.16 974.368 Z" fill="#000000" fill-rule="nonzero" fill-opacity="1" /><path clip-path="url(#clip110)" d="M1804.96 967.215 Q1804.24 966.798 1803.38 966.613 Q1802.55 966.405 1801.53 966.405 Q1797.92 966.405 1795.97 968.766 Q1794.05 971.104 1794.05 975.502 L1794.05 989.159 L1789.77 989.159 L1789.77 963.234 L1794.05 963.234 L1794.05 967.261 Q1795.39 964.9 1797.55 963.766 Q1799.7 962.609 1802.78 962.609 Q1803.22 962.609 1803.75 962.678 Q1804.28 962.724 1804.93 962.84 L1804.96 967.215 Z" fill="#000000" fill-rule="nonzero" fill-opacity="1" /><path clip-path="url(#clip110)" d="M1837.62 953.141 L1837.62 956.683 L1833.54 956.683 Q1831.25 956.683 1830.35 957.609 Q1829.47 958.535 1829.47 960.942 L1829.47 963.234 L1836.48 963.234 L1836.48 966.544 L1829.47 966.544 L1829.47 989.159 L1825.19 989.159 L1825.19 966.544 L1821.11 966.544 L1821.11 963.234 L1825.19 963.234 L1825.19 961.428 Q1825.19 957.099 1827.2 955.132 Q1829.21 953.141 1833.59 953.141 L1837.62 953.141 Z" fill="#000000" fill-rule="nonzero" fill-opacity="1" /><path clip-path="url(#clip110)" d="M1841.18 963.234 L1845.44 963.234 L1845.44 989.159 L1841.18 989.159 L1841.18 963.234 M1841.18 953.141 L1845.44 953.141 L1845.44 958.535 L1841.18 958.535 L1841.18 953.141 Z" fill="#000000" fill-rule="nonzero" fill-opacity="1" /><path clip-path="url(#clip110)" d="M1858.57 955.872 L1858.57 963.234 L1867.34 963.234 L1867.34 966.544 L1858.57 966.544 L1858.57 980.618 Q1858.57 983.789 1859.42 984.692 Q1860.3 985.595 1862.96 985.595 L1867.34 985.595 L1867.34 989.159 L1862.96 989.159 Q1858.03 989.159 1856.16 987.331 Q1854.28 985.479 1854.28 980.618 L1854.28 966.544 L1851.16 966.544 L1851.16 963.234 L1854.28 963.234 L1854.28 955.872 L1858.57 955.872 Z" fill="#000000" fill-rule="nonzero" fill-opacity="1" /><polyline clip-path="url(#clip110)" style="stroke:#c271d2; stroke-linecap:round; stroke-linejoin:round; stroke-width:8; stroke-opacity:1; fill:none" points="1450.68,1023.72 1566.73,1023.72 "/>
<path clip-path="url(#clip110)" d="M1586.07 1004.98 L1590.33 1004.98 L1590.33 1041 L1586.07 1041 L1586.07 1004.98 Z" fill="#000000" fill-rule="nonzero" fill-opacity="1" /><path clip-path="url(#clip110)" d="M1599.24 1015.07 L1603.5 1015.07 L1603.5 1041 L1599.24 1041 L1599.24 1015.07 M1599.24 1004.98 L1603.5 1004.98 L1603.5 1010.37 L1599.24 1010.37 L1599.24 1004.98 Z" fill="#000000" fill-rule="nonzero" fill-opacity="1" /><path clip-path="url(#clip110)" d="M1633.96 1025.35 L1633.96 1041 L1629.7 1041 L1629.7 1025.49 Q1629.7 1021.81 1628.27 1019.98 Q1626.83 1018.15 1623.96 1018.15 Q1620.51 1018.15 1618.52 1020.35 Q1616.53 1022.55 1616.53 1026.35 L1616.53 1041 L1612.25 1041 L1612.25 1015.07 L1616.53 1015.07 L1616.53 1019.1 Q1618.06 1016.76 1620.12 1015.61 Q1622.2 1014.45 1624.91 1014.45 Q1629.38 1014.45 1631.67 1017.23 Q1633.96 1019.98 1633.96 1025.35 Z" fill="#000000" fill-rule="nonzero" fill-opacity="1" /><path clip-path="url(#clip110)" d="M1664.63 1026.97 L1664.63 1029.05 L1645.05 1029.05 Q1645.33 1033.45 1647.69 1035.77 Q1650.07 1038.06 1654.31 1038.06 Q1656.76 1038.06 1659.05 1037.46 Q1661.37 1036.86 1663.64 1035.65 L1663.64 1039.68 Q1661.34 1040.65 1658.94 1041.16 Q1656.53 1041.67 1654.05 1041.67 Q1647.85 1041.67 1644.22 1038.06 Q1640.6 1034.45 1640.6 1028.29 Q1640.6 1021.93 1644.03 1018.2 Q1647.48 1014.45 1653.31 1014.45 Q1658.54 1014.45 1661.58 1017.83 Q1664.63 1021.18 1664.63 1026.97 M1660.37 1025.72 Q1660.33 1022.23 1658.4 1020.14 Q1656.51 1018.06 1653.36 1018.06 Q1649.79 1018.06 1647.64 1020.07 Q1645.51 1022.09 1645.19 1025.74 L1660.37 1025.72 Z" fill="#000000" fill-rule="nonzero" fill-opacity="1" /><path clip-path="url(#clip110)" d="M1683.4 1027.97 Q1678.24 1027.97 1676.25 1029.15 Q1674.26 1030.33 1674.26 1033.18 Q1674.26 1035.44 1675.74 1036.79 Q1677.25 1038.11 1679.82 1038.11 Q1683.36 1038.11 1685.49 1035.61 Q1687.64 1033.08 1687.64 1028.92 L1687.64 1027.97 L1683.4 1027.97 M1691.9 1026.21 L1691.9 1041 L1687.64 1041 L1687.64 1037.06 Q1686.18 1039.43 1684.01 1040.56 Q1681.83 1041.67 1678.68 1041.67 Q1674.7 1041.67 1672.34 1039.45 Q1670 1037.2 1670 1033.45 Q1670 1029.08 1672.92 1026.86 Q1675.86 1024.63 1681.67 1024.63 L1687.64 1024.63 L1687.64 1024.22 Q1687.64 1021.28 1685.7 1019.68 Q1683.78 1018.06 1680.28 1018.06 Q1678.06 1018.06 1675.95 1018.59 Q1673.84 1019.12 1671.9 1020.19 L1671.9 1016.25 Q1674.24 1015.35 1676.44 1014.91 Q1678.64 1014.45 1680.72 1014.45 Q1686.34 1014.45 1689.12 1017.37 Q1691.9 1020.28 1691.9 1026.21 Z" fill="#000000" fill-rule="nonzero" fill-opacity="1" /><path clip-path="url(#clip110)" d="M1715.7 1019.06 Q1714.98 1018.64 1714.12 1018.45 Q1713.29 1018.24 1712.27 1018.24 Q1708.66 1018.24 1706.71 1020.61 Q1704.79 1022.94 1704.79 1027.34 L1704.79 1041 L1700.51 1041 L1700.51 1015.07 L1704.79 1015.07 L1704.79 1019.1 Q1706.14 1016.74 1708.29 1015.61 Q1710.44 1014.45 1713.52 1014.45 Q1713.96 1014.45 1714.49 1014.52 Q1715.02 1014.56 1715.67 1014.68 L1715.7 1019.06 Z" fill="#000000" fill-rule="nonzero" fill-opacity="1" /><path clip-path="url(#clip110)" d="M1720.16 1015.07 L1724.42 1015.07 L1724.42 1041 L1720.16 1041 L1720.16 1015.07 M1720.16 1004.98 L1724.42 1004.98 L1724.42 1010.37 L1720.16 1010.37 L1720.16 1004.98 Z" fill="#000000" fill-rule="nonzero" fill-opacity="1" /><path clip-path="url(#clip110)" d="M1731.48 1015.07 L1751.71 1015.07 L1751.71 1018.96 L1735.7 1037.6 L1751.71 1037.6 L1751.71 1041 L1730.9 1041 L1730.9 1037.11 L1746.92 1018.48 L1731.48 1018.48 L1731.48 1015.07 Z" fill="#000000" fill-rule="nonzero" fill-opacity="1" /><path clip-path="url(#clip110)" d="M1780.39 1026.97 L1780.39 1029.05 L1760.81 1029.05 Q1761.09 1033.45 1763.45 1035.77 Q1765.83 1038.06 1770.07 1038.06 Q1772.52 1038.06 1774.82 1037.46 Q1777.13 1036.86 1779.4 1035.65 L1779.4 1039.68 Q1777.11 1040.65 1774.7 1041.16 Q1772.29 1041.67 1769.82 1041.67 Q1763.61 1041.67 1759.98 1038.06 Q1756.37 1034.45 1756.37 1028.29 Q1756.37 1021.93 1759.79 1018.2 Q1763.24 1014.45 1769.08 1014.45 Q1774.31 1014.45 1777.34 1017.83 Q1780.39 1021.18 1780.39 1026.97 M1776.14 1025.72 Q1776.09 1022.23 1774.17 1020.14 Q1772.27 1018.06 1769.12 1018.06 Q1765.56 1018.06 1763.4 1020.07 Q1761.27 1022.09 1760.95 1025.74 L1776.14 1025.72 Z" fill="#000000" fill-rule="nonzero" fill-opacity="1" /><path clip-path="url(#clip110)" d="M1804.45 1019.01 L1804.45 1004.98 L1808.71 1004.98 L1808.71 1041 L1804.45 1041 L1804.45 1037.11 Q1803.1 1039.43 1801.04 1040.56 Q1799.01 1041.67 1796.14 1041.67 Q1791.44 1041.67 1788.47 1037.92 Q1785.53 1034.17 1785.53 1028.06 Q1785.53 1021.95 1788.47 1018.2 Q1791.44 1014.45 1796.14 1014.45 Q1799.01 1014.45 1801.04 1015.58 Q1803.1 1016.69 1804.45 1019.01 M1789.93 1028.06 Q1789.93 1032.76 1791.85 1035.44 Q1793.8 1038.11 1797.18 1038.11 Q1800.56 1038.11 1802.5 1035.44 Q1804.45 1032.76 1804.45 1028.06 Q1804.45 1023.36 1802.5 1020.7 Q1800.56 1018.01 1797.18 1018.01 Q1793.8 1018.01 1791.85 1020.7 Q1789.93 1023.36 1789.93 1028.06 Z" fill="#000000" fill-rule="nonzero" fill-opacity="1" /><path clip-path="url(#clip110)" d="M1845.67 1004.98 L1845.67 1008.52 L1841.6 1008.52 Q1839.31 1008.52 1838.4 1009.45 Q1837.52 1010.37 1837.52 1012.78 L1837.52 1015.07 L1844.54 1015.07 L1844.54 1018.38 L1837.52 1018.38 L1837.52 1041 L1833.24 1041 L1833.24 1018.38 L1829.17 1018.38 L1829.17 1015.07 L1833.24 1015.07 L1833.24 1013.27 Q1833.24 1008.94 1835.26 1006.97 Q1837.27 1004.98 1841.64 1004.98 L1845.67 1004.98 Z" fill="#000000" fill-rule="nonzero" fill-opacity="1" /><path clip-path="url(#clip110)" d="M1849.24 1015.07 L1853.5 1015.07 L1853.5 1041 L1849.24 1041 L1849.24 1015.07 M1849.24 1004.98 L1853.5 1004.98 L1853.5 1010.37 L1849.24 1010.37 L1849.24 1004.98 Z" fill="#000000" fill-rule="nonzero" fill-opacity="1" /><path clip-path="url(#clip110)" d="M1866.62 1007.71 L1866.62 1015.07 L1875.39 1015.07 L1875.39 1018.38 L1866.62 1018.38 L1866.62 1032.46 Q1866.62 1035.63 1867.48 1036.53 Q1868.36 1037.43 1871.02 1037.43 L1875.39 1037.43 L1875.39 1041 L1871.02 1041 Q1866.09 1041 1864.21 1039.17 Q1862.34 1037.32 1862.34 1032.46 L1862.34 1018.38 L1859.21 1018.38 L1859.21 1015.07 L1862.34 1015.07 L1862.34 1007.71 L1866.62 1007.71 Z" fill="#000000" fill-rule="nonzero" fill-opacity="1" /></svg>
