<?xml version="1.0" encoding="utf-8"?>
<svg xmlns="http://www.w3.org/2000/svg" xmlns:xlink="http://www.w3.org/1999/xlink" width="500" height="320" viewBox="0 0 2000 1280">
<defs>
  <clipPath id="clip980">
    <rect x="0" y="0" width="2000" height="1280"/>
  </clipPath>
</defs>
<path clip-path="url(#clip980)" d="M0 1280 L2000 1280 L2000 0 L0 0  Z" fill="#ffffff" fill-rule="evenodd" fill-opacity="1"/>
<defs>
  <clipPath id="clip981">
    <rect x="400" y="0" width="1401" height="1280"/>
  </clipPath>
</defs>
<path clip-path="url(#clip980)" d="M185.496 1171.03 L1952.76 1171.03 L1952.76 107.256 L185.496 107.256  Z" fill="#ffffff" fill-rule="evenodd" fill-opacity="1"/>
<defs>
  <clipPath id="clip982">
    <rect x="185" y="107" width="1768" height="1065"/>
  </clipPath>
</defs>
<polyline clip-path="url(#clip982)" style="stroke:#000000; stroke-linecap:round; stroke-linejoin:round; stroke-width:2; stroke-opacity:0.1; fill:none" points="235.513,1171.03 235.513,107.256 "/>
<polyline clip-path="url(#clip982)" style="stroke:#000000; stroke-linecap:round; stroke-linejoin:round; stroke-width:2; stroke-opacity:0.1; fill:none" points="535.374,1171.03 535.374,107.256 "/>
<polyline clip-path="url(#clip982)" style="stroke:#000000; stroke-linecap:round; stroke-linejoin:round; stroke-width:2; stroke-opacity:0.1; fill:none" points="835.234,1171.03 835.234,107.256 "/>
<polyline clip-path="url(#clip982)" style="stroke:#000000; stroke-linecap:round; stroke-linejoin:round; stroke-width:2; stroke-opacity:0.1; fill:none" points="1135.1,1171.03 1135.1,107.256 "/>
<polyline clip-path="url(#clip982)" style="stroke:#000000; stroke-linecap:round; stroke-linejoin:round; stroke-width:2; stroke-opacity:0.1; fill:none" points="1434.96,1171.03 1434.96,107.256 "/>
<polyline clip-path="url(#clip982)" style="stroke:#000000; stroke-linecap:round; stroke-linejoin:round; stroke-width:2; stroke-opacity:0.1; fill:none" points="1734.82,1171.03 1734.82,107.256 "/>
<polyline clip-path="url(#clip982)" style="stroke:#000000; stroke-linecap:round; stroke-linejoin:round; stroke-width:2; stroke-opacity:0.1; fill:none" points="185.496,1084.42 1952.76,1084.42 "/>
<polyline clip-path="url(#clip982)" style="stroke:#000000; stroke-linecap:round; stroke-linejoin:round; stroke-width:2; stroke-opacity:0.1; fill:none" points="185.496,847.658 1952.76,847.658 "/>
<polyline clip-path="url(#clip982)" style="stroke:#000000; stroke-linecap:round; stroke-linejoin:round; stroke-width:2; stroke-opacity:0.1; fill:none" points="185.496,610.893 1952.76,610.893 "/>
<polyline clip-path="url(#clip982)" style="stroke:#000000; stroke-linecap:round; stroke-linejoin:round; stroke-width:2; stroke-opacity:0.1; fill:none" points="185.496,374.128 1952.76,374.128 "/>
<polyline clip-path="url(#clip982)" style="stroke:#000000; stroke-linecap:round; stroke-linejoin:round; stroke-width:2; stroke-opacity:0.1; fill:none" points="185.496,137.363 1952.76,137.363 "/>
<polyline clip-path="url(#clip980)" style="stroke:#000000; stroke-linecap:round; stroke-linejoin:round; stroke-width:4; stroke-opacity:1; fill:none" points="185.496,1171.03 1952.76,1171.03 "/>
<polyline clip-path="url(#clip980)" style="stroke:#000000; stroke-linecap:round; stroke-linejoin:round; stroke-width:4; stroke-opacity:1; fill:none" points="235.513,1171.03 235.513,1152.13 "/>
<polyline clip-path="url(#clip980)" style="stroke:#000000; stroke-linecap:round; stroke-linejoin:round; stroke-width:4; stroke-opacity:1; fill:none" points="535.374,1171.03 535.374,1152.13 "/>
<polyline clip-path="url(#clip980)" style="stroke:#000000; stroke-linecap:round; stroke-linejoin:round; stroke-width:4; stroke-opacity:1; fill:none" points="835.234,1171.03 835.234,1152.13 "/>
<polyline clip-path="url(#clip980)" style="stroke:#000000; stroke-linecap:round; stroke-linejoin:round; stroke-width:4; stroke-opacity:1; fill:none" points="1135.1,1171.03 1135.1,1152.13 "/>
<polyline clip-path="url(#clip980)" style="stroke:#000000; stroke-linecap:round; stroke-linejoin:round; stroke-width:4; stroke-opacity:1; fill:none" points="1434.96,1171.03 1434.96,1152.13 "/>
<polyline clip-path="url(#clip980)" style="stroke:#000000; stroke-linecap:round; stroke-linejoin:round; stroke-width:4; stroke-opacity:1; fill:none" points="1734.82,1171.03 1734.82,1152.13 "/>
<path clip-path="url(#clip980)" d="M235.513 1198.75 Q231.902 1198.75 230.073 1202.31 Q228.267 1205.86 228.267 1212.98 Q228.267 1220.09 230.073 1223.66 Q231.902 1227.2 235.513 1227.2 Q239.147 1227.2 240.952 1223.66 Q242.781 1220.09 242.781 1212.98 Q242.781 1205.86 240.952 1202.31 Q239.147 1198.75 235.513 1198.75 M235.513 1195.05 Q241.323 1195.05 244.378 1199.65 Q247.457 1204.24 247.457 1212.98 Q247.457 1221.71 244.378 1226.32 Q241.323 1230.9 235.513 1230.9 Q229.703 1230.9 226.624 1226.32 Q223.568 1221.71 223.568 1212.98 Q223.568 1204.24 226.624 1199.65 Q229.703 1195.05 235.513 1195.05 Z" fill="#000000" fill-rule="nonzero" fill-opacity="1" /><path clip-path="url(#clip980)" d="M514.645 1226.3 L530.964 1226.3 L530.964 1230.23 L509.02 1230.23 L509.02 1226.3 Q511.682 1223.54 516.265 1218.91 Q520.871 1214.26 522.052 1212.92 Q524.297 1210.39 525.177 1208.66 Q526.08 1206.9 526.08 1205.21 Q526.08 1202.45 524.135 1200.72 Q522.214 1198.98 519.112 1198.98 Q516.913 1198.98 514.459 1199.74 Q512.029 1200.51 509.251 1202.06 L509.251 1197.34 Q512.075 1196.2 514.529 1195.62 Q516.982 1195.05 519.019 1195.05 Q524.39 1195.05 527.584 1197.73 Q530.779 1200.42 530.779 1204.91 Q530.779 1207.04 529.969 1208.96 Q529.181 1210.86 527.075 1213.45 Q526.496 1214.12 523.394 1217.34 Q520.293 1220.53 514.645 1226.3 Z" fill="#000000" fill-rule="nonzero" fill-opacity="1" /><path clip-path="url(#clip980)" d="M540.825 1195.67 L559.181 1195.67 L559.181 1199.61 L545.107 1199.61 L545.107 1208.08 Q546.126 1207.73 547.144 1207.57 Q548.163 1207.38 549.181 1207.38 Q554.968 1207.38 558.348 1210.55 Q561.728 1213.73 561.728 1219.14 Q561.728 1224.72 558.255 1227.82 Q554.783 1230.9 548.464 1230.9 Q546.288 1230.9 544.019 1230.53 Q541.774 1230.16 539.367 1229.42 L539.367 1224.72 Q541.45 1225.86 543.672 1226.41 Q545.894 1226.97 548.371 1226.97 Q552.376 1226.97 554.714 1224.86 Q557.052 1222.75 557.052 1219.14 Q557.052 1215.53 554.714 1213.42 Q552.376 1211.32 548.371 1211.32 Q546.496 1211.32 544.621 1211.74 Q542.769 1212.15 540.825 1213.03 L540.825 1195.67 Z" fill="#000000" fill-rule="nonzero" fill-opacity="1" /><path clip-path="url(#clip980)" d="M809.934 1195.67 L828.29 1195.67 L828.29 1199.61 L814.216 1199.61 L814.216 1208.08 Q815.235 1207.73 816.253 1207.57 Q817.272 1207.38 818.29 1207.38 Q824.077 1207.38 827.457 1210.55 Q830.836 1213.73 830.836 1219.14 Q830.836 1224.72 827.364 1227.82 Q823.892 1230.9 817.572 1230.9 Q815.397 1230.9 813.128 1230.53 Q810.883 1230.16 808.475 1229.42 L808.475 1224.72 Q810.559 1225.86 812.781 1226.41 Q815.003 1226.97 817.48 1226.97 Q821.485 1226.97 823.822 1224.86 Q826.16 1222.75 826.16 1219.14 Q826.16 1215.53 823.822 1213.42 Q821.485 1211.32 817.48 1211.32 Q815.605 1211.32 813.73 1211.74 Q811.878 1212.15 809.934 1213.03 L809.934 1195.67 Z" fill="#000000" fill-rule="nonzero" fill-opacity="1" /><path clip-path="url(#clip980)" d="M850.049 1198.75 Q846.438 1198.75 844.609 1202.31 Q842.804 1205.86 842.804 1212.98 Q842.804 1220.09 844.609 1223.66 Q846.438 1227.2 850.049 1227.2 Q853.683 1227.2 855.489 1223.66 Q857.318 1220.09 857.318 1212.98 Q857.318 1205.86 855.489 1202.31 Q853.683 1198.75 850.049 1198.75 M850.049 1195.05 Q855.859 1195.05 858.915 1199.65 Q861.994 1204.24 861.994 1212.98 Q861.994 1221.71 858.915 1226.32 Q855.859 1230.9 850.049 1230.9 Q844.239 1230.9 841.16 1226.32 Q838.105 1221.71 838.105 1212.98 Q838.105 1204.24 841.16 1199.65 Q844.239 1195.05 850.049 1195.05 Z" fill="#000000" fill-rule="nonzero" fill-opacity="1" /><path clip-path="url(#clip980)" d="M1108.95 1195.67 L1131.17 1195.67 L1131.17 1197.66 L1118.63 1230.23 L1113.74 1230.23 L1125.55 1199.61 L1108.95 1199.61 L1108.95 1195.67 Z" fill="#000000" fill-rule="nonzero" fill-opacity="1" /><path clip-path="url(#clip980)" d="M1140.34 1195.67 L1158.69 1195.67 L1158.69 1199.61 L1144.62 1199.61 L1144.62 1208.08 Q1145.64 1207.73 1146.66 1207.57 Q1147.68 1207.38 1148.69 1207.38 Q1154.48 1207.38 1157.86 1210.55 Q1161.24 1213.73 1161.24 1219.14 Q1161.24 1224.72 1157.77 1227.82 Q1154.3 1230.9 1147.98 1230.9 Q1145.8 1230.9 1143.53 1230.53 Q1141.29 1230.16 1138.88 1229.42 L1138.88 1224.72 Q1140.96 1225.86 1143.19 1226.41 Q1145.41 1226.97 1147.88 1226.97 Q1151.89 1226.97 1154.23 1224.86 Q1156.57 1222.75 1156.57 1219.14 Q1156.57 1215.53 1154.23 1213.42 Q1151.89 1211.32 1147.88 1211.32 Q1146.01 1211.32 1144.13 1211.74 Q1142.28 1212.15 1140.34 1213.03 L1140.34 1195.67 Z" fill="#000000" fill-rule="nonzero" fill-opacity="1" /><path clip-path="url(#clip980)" d="M1394.56 1226.3 L1402.2 1226.3 L1402.2 1199.93 L1393.89 1201.6 L1393.89 1197.34 L1402.16 1195.67 L1406.83 1195.67 L1406.83 1226.3 L1414.47 1226.3 L1414.47 1230.23 L1394.56 1230.23 L1394.56 1226.3 Z" fill="#000000" fill-rule="nonzero" fill-opacity="1" /><path clip-path="url(#clip980)" d="M1433.91 1198.75 Q1430.3 1198.75 1428.47 1202.31 Q1426.67 1205.86 1426.67 1212.98 Q1426.67 1220.09 1428.47 1223.66 Q1430.3 1227.2 1433.91 1227.2 Q1437.55 1227.2 1439.35 1223.66 Q1441.18 1220.09 1441.18 1212.98 Q1441.18 1205.86 1439.35 1202.31 Q1437.55 1198.75 1433.91 1198.75 M1433.91 1195.05 Q1439.72 1195.05 1442.78 1199.65 Q1445.86 1204.24 1445.86 1212.98 Q1445.86 1221.71 1442.78 1226.32 Q1439.72 1230.9 1433.91 1230.9 Q1428.1 1230.9 1425.03 1226.32 Q1421.97 1221.71 1421.97 1212.98 Q1421.97 1204.24 1425.03 1199.65 Q1428.1 1195.05 1433.91 1195.05 Z" fill="#000000" fill-rule="nonzero" fill-opacity="1" /><path clip-path="url(#clip980)" d="M1464.08 1198.75 Q1460.47 1198.75 1458.64 1202.31 Q1456.83 1205.86 1456.83 1212.98 Q1456.83 1220.09 1458.64 1223.66 Q1460.47 1227.2 1464.08 1227.2 Q1467.71 1227.2 1469.52 1223.66 Q1471.34 1220.09 1471.34 1212.98 Q1471.34 1205.86 1469.52 1202.31 Q1467.71 1198.75 1464.08 1198.75 M1464.08 1195.05 Q1469.89 1195.05 1472.94 1199.65 Q1476.02 1204.24 1476.02 1212.98 Q1476.02 1221.71 1472.94 1226.32 Q1469.89 1230.9 1464.08 1230.9 Q1458.27 1230.9 1455.19 1226.32 Q1452.13 1221.71 1452.13 1212.98 Q1452.13 1204.24 1455.19 1199.65 Q1458.27 1195.05 1464.08 1195.05 Z" fill="#000000" fill-rule="nonzero" fill-opacity="1" /><path clip-path="url(#clip980)" d="M1694.92 1226.3 L1702.56 1226.3 L1702.56 1199.93 L1694.25 1201.6 L1694.25 1197.34 L1702.51 1195.67 L1707.19 1195.67 L1707.19 1226.3 L1714.83 1226.3 L1714.83 1230.23 L1694.92 1230.23 L1694.92 1226.3 Z" fill="#000000" fill-rule="nonzero" fill-opacity="1" /><path clip-path="url(#clip980)" d="M1728.3 1226.3 L1744.62 1226.3 L1744.62 1230.23 L1722.68 1230.23 L1722.68 1226.3 Q1725.34 1223.54 1729.92 1218.91 Q1734.53 1214.26 1735.71 1212.92 Q1737.95 1210.39 1738.83 1208.66 Q1739.74 1206.9 1739.74 1205.21 Q1739.74 1202.45 1737.79 1200.72 Q1735.87 1198.98 1732.77 1198.98 Q1730.57 1198.98 1728.12 1199.74 Q1725.69 1200.51 1722.91 1202.06 L1722.91 1197.34 Q1725.73 1196.2 1728.19 1195.62 Q1730.64 1195.05 1732.68 1195.05 Q1738.05 1195.05 1741.24 1197.73 Q1744.44 1200.42 1744.44 1204.91 Q1744.44 1207.04 1743.62 1208.96 Q1742.84 1210.86 1740.73 1213.45 Q1740.15 1214.12 1737.05 1217.34 Q1733.95 1220.53 1728.3 1226.3 Z" fill="#000000" fill-rule="nonzero" fill-opacity="1" /><path clip-path="url(#clip980)" d="M1754.48 1195.67 L1772.84 1195.67 L1772.84 1199.61 L1758.76 1199.61 L1758.76 1208.08 Q1759.78 1207.73 1760.8 1207.57 Q1761.82 1207.38 1762.84 1207.38 Q1768.62 1207.38 1772 1210.55 Q1775.38 1213.73 1775.38 1219.14 Q1775.38 1224.72 1771.91 1227.82 Q1768.44 1230.9 1762.12 1230.9 Q1759.94 1230.9 1757.68 1230.53 Q1755.43 1230.16 1753.02 1229.42 L1753.02 1224.72 Q1755.11 1225.86 1757.33 1226.41 Q1759.55 1226.97 1762.03 1226.97 Q1766.03 1226.97 1768.37 1224.86 Q1770.71 1222.75 1770.71 1219.14 Q1770.71 1215.53 1768.37 1213.42 Q1766.03 1211.32 1762.03 1211.32 Q1760.15 1211.32 1758.28 1211.74 Q1756.43 1212.15 1754.48 1213.03 L1754.48 1195.67 Z" fill="#000000" fill-rule="nonzero" fill-opacity="1" /><polyline clip-path="url(#clip980)" style="stroke:#000000; stroke-linecap:round; stroke-linejoin:round; stroke-width:4; stroke-opacity:1; fill:none" points="185.496,1171.03 185.496,107.256 "/>
<polyline clip-path="url(#clip980)" style="stroke:#000000; stroke-linecap:round; stroke-linejoin:round; stroke-width:4; stroke-opacity:1; fill:none" points="185.496,1084.42 204.394,1084.42 "/>
<polyline clip-path="url(#clip980)" style="stroke:#000000; stroke-linecap:round; stroke-linejoin:round; stroke-width:4; stroke-opacity:1; fill:none" points="185.496,847.658 204.394,847.658 "/>
<polyline clip-path="url(#clip980)" style="stroke:#000000; stroke-linecap:round; stroke-linejoin:round; stroke-width:4; stroke-opacity:1; fill:none" points="185.496,610.893 204.394,610.893 "/>
<polyline clip-path="url(#clip980)" style="stroke:#000000; stroke-linecap:round; stroke-linejoin:round; stroke-width:4; stroke-opacity:1; fill:none" points="185.496,374.128 204.394,374.128 "/>
<polyline clip-path="url(#clip980)" style="stroke:#000000; stroke-linecap:round; stroke-linejoin:round; stroke-width:4; stroke-opacity:1; fill:none" points="185.496,137.363 204.394,137.363 "/>
<path clip-path="url(#clip980)" d="M53.6634 1104.22 L61.3023 1104.22 L61.3023 1077.85 L52.9921 1079.52 L52.9921 1075.26 L61.256 1073.59 L65.9319 1073.59 L65.9319 1104.22 L73.5707 1104.22 L73.5707 1108.15 L53.6634 1108.15 L53.6634 1104.22 Z" fill="#000000" fill-rule="nonzero" fill-opacity="1" /><path clip-path="url(#clip980)" d="M93.0151 1076.67 Q89.404 1076.67 87.5753 1080.23 Q85.7697 1083.78 85.7697 1090.91 Q85.7697 1098.01 87.5753 1101.58 Q89.404 1105.12 93.0151 1105.12 Q96.6493 1105.12 98.4548 1101.58 Q100.284 1098.01 100.284 1090.91 Q100.284 1083.78 98.4548 1080.23 Q96.6493 1076.67 93.0151 1076.67 M93.0151 1072.97 Q98.8252 1072.97 101.881 1077.57 Q104.959 1082.16 104.959 1090.91 Q104.959 1099.63 101.881 1104.24 Q98.8252 1108.82 93.0151 1108.82 Q87.2049 1108.82 84.1262 1104.24 Q81.0707 1099.63 81.0707 1090.91 Q81.0707 1082.16 84.1262 1077.57 Q87.2049 1072.97 93.0151 1072.97 Z" fill="#000000" fill-rule="nonzero" fill-opacity="1" /><path clip-path="url(#clip980)" d="M104.959 1067.07 L129.071 1067.07 L129.071 1070.26 L104.959 1070.26 L104.959 1067.07 Z" fill="#000000" fill-rule="nonzero" fill-opacity="1" /><path clip-path="url(#clip980)" d="M147.71 1055.97 L138.118 1070.96 L147.71 1070.96 L147.71 1055.97 M146.713 1052.66 L151.49 1052.66 L151.49 1070.96 L155.496 1070.96 L155.496 1074.12 L151.49 1074.12 L151.49 1080.74 L147.71 1080.74 L147.71 1074.12 L135.033 1074.12 L135.033 1070.45 L146.713 1052.66 Z" fill="#000000" fill-rule="nonzero" fill-opacity="1" /><path clip-path="url(#clip980)" d="M54.585 867.451 L62.2238 867.451 L62.2238 841.085 L53.9137 842.752 L53.9137 838.493 L62.1776 836.826 L66.8535 836.826 L66.8535 867.451 L74.4923 867.451 L74.4923 871.386 L54.585 871.386 L54.585 867.451 Z" fill="#000000" fill-rule="nonzero" fill-opacity="1" /><path clip-path="url(#clip980)" d="M93.9366 839.905 Q90.3255 839.905 88.4969 843.47 Q86.6913 847.011 86.6913 854.141 Q86.6913 861.247 88.4969 864.812 Q90.3255 868.354 93.9366 868.354 Q97.5709 868.354 99.3764 864.812 Q101.205 861.247 101.205 854.141 Q101.205 847.011 99.3764 843.47 Q97.5709 839.905 93.9366 839.905 M93.9366 836.201 Q99.7468 836.201 102.802 840.808 Q105.881 845.391 105.881 854.141 Q105.881 862.868 102.802 867.474 Q99.7468 872.057 93.9366 872.057 Q88.1265 872.057 85.0478 867.474 Q81.9923 862.868 81.9923 854.141 Q81.9923 845.391 85.0478 840.808 Q88.1265 836.201 93.9366 836.201 Z" fill="#000000" fill-rule="nonzero" fill-opacity="1" /><path clip-path="url(#clip980)" d="M105.881 830.302 L129.993 830.302 L129.993 833.5 L105.881 833.5 L105.881 830.302 Z" fill="#000000" fill-rule="nonzero" fill-opacity="1" /><path clip-path="url(#clip980)" d="M149.703 828.835 Q152.43 829.418 153.954 831.262 Q155.496 833.105 155.496 835.813 Q155.496 839.97 152.637 842.245 Q149.778 844.521 144.512 844.521 Q142.744 844.521 140.863 844.164 Q139.002 843.825 137.008 843.129 L137.008 839.462 Q138.588 840.383 140.469 840.854 Q142.349 841.324 144.399 841.324 Q147.973 841.324 149.835 839.913 Q151.716 838.503 151.716 835.813 Q151.716 833.33 149.966 831.939 Q148.236 830.528 145.133 830.528 L141.86 830.528 L141.86 827.406 L145.283 827.406 Q148.086 827.406 149.571 826.296 Q151.057 825.168 151.057 823.061 Q151.057 820.899 149.515 819.751 Q147.992 818.585 145.133 818.585 Q143.572 818.585 141.785 818.924 Q139.998 819.262 137.854 819.977 L137.854 816.592 Q140.017 815.99 141.898 815.689 Q143.797 815.388 145.471 815.388 Q149.797 815.388 152.317 817.363 Q154.838 819.319 154.838 822.666 Q154.838 824.999 153.502 826.616 Q152.167 828.215 149.703 828.835 Z" fill="#000000" fill-rule="nonzero" fill-opacity="1" /><path clip-path="url(#clip980)" d="M55.3561 630.686 L62.995 630.686 L62.995 604.32 L54.6848 605.987 L54.6848 601.727 L62.9487 600.061 L67.6246 600.061 L67.6246 630.686 L75.2634 630.686 L75.2634 634.621 L55.3561 634.621 L55.3561 630.686 Z" fill="#000000" fill-rule="nonzero" fill-opacity="1" /><path clip-path="url(#clip980)" d="M94.7078 603.139 Q91.0967 603.139 89.268 606.704 Q87.4624 610.246 87.4624 617.376 Q87.4624 624.482 89.268 628.047 Q91.0967 631.588 94.7078 631.588 Q98.342 631.588 100.148 628.047 Q101.976 624.482 101.976 617.376 Q101.976 610.246 100.148 606.704 Q98.342 603.139 94.7078 603.139 M94.7078 599.436 Q100.518 599.436 103.573 604.042 Q106.652 608.626 106.652 617.376 Q106.652 626.102 103.573 630.709 Q100.518 635.292 94.7078 635.292 Q88.8976 635.292 85.8189 630.709 Q82.7634 626.102 82.7634 617.376 Q82.7634 608.626 85.8189 604.042 Q88.8976 599.436 94.7078 599.436 Z" fill="#000000" fill-rule="nonzero" fill-opacity="1" /><path clip-path="url(#clip980)" d="M106.652 593.537 L130.764 593.537 L130.764 596.734 L106.652 596.734 L106.652 593.537 Z" fill="#000000" fill-rule="nonzero" fill-opacity="1" /><path clip-path="url(#clip980)" d="M142.236 604.013 L155.496 604.013 L155.496 607.21 L137.666 607.21 L137.666 604.013 Q139.829 601.775 143.553 598.013 Q147.296 594.233 148.255 593.142 Q150.079 591.092 150.794 589.682 Q151.527 588.252 151.527 586.879 Q151.527 584.641 149.948 583.23 Q148.387 581.82 145.866 581.82 Q144.08 581.82 142.086 582.441 Q140.111 583.061 137.854 584.321 L137.854 580.485 Q140.149 579.563 142.142 579.093 Q144.136 578.623 145.791 578.623 Q150.155 578.623 152.75 580.804 Q155.345 582.986 155.345 586.635 Q155.345 588.365 154.687 589.926 Q154.048 591.468 152.336 593.575 Q151.866 594.12 149.346 596.734 Q146.826 599.33 142.236 604.013 Z" fill="#000000" fill-rule="nonzero" fill-opacity="1" /><path clip-path="url(#clip980)" d="M55.0552 393.92 L62.694 393.92 L62.694 367.555 L54.3839 369.221 L54.3839 364.962 L62.6477 363.296 L67.3236 363.296 L67.3236 393.92 L74.9625 393.92 L74.9625 397.856 L55.0552 397.856 L55.0552 393.92 Z" fill="#000000" fill-rule="nonzero" fill-opacity="1" /><path clip-path="url(#clip980)" d="M94.4068 366.374 Q90.7957 366.374 88.967 369.939 Q87.1615 373.481 87.1615 380.61 Q87.1615 387.717 88.967 391.282 Q90.7957 394.823 94.4068 394.823 Q98.0411 394.823 99.8466 391.282 Q101.675 387.717 101.675 380.61 Q101.675 373.481 99.8466 369.939 Q98.0411 366.374 94.4068 366.374 M94.4068 362.671 Q100.217 362.671 103.273 367.277 Q106.351 371.86 106.351 380.61 Q106.351 389.337 103.273 393.944 Q100.217 398.527 94.4068 398.527 Q88.5967 398.527 85.518 393.944 Q82.4625 389.337 82.4625 380.61 Q82.4625 371.86 85.518 367.277 Q88.5967 362.671 94.4068 362.671 Z" fill="#000000" fill-rule="nonzero" fill-opacity="1" /><path clip-path="url(#clip980)" d="M106.351 356.772 L130.463 356.772 L130.463 359.969 L106.351 359.969 L106.351 356.772 Z" fill="#000000" fill-rule="nonzero" fill-opacity="1" /><path clip-path="url(#clip980)" d="M139.321 367.248 L145.528 367.248 L145.528 345.826 L138.776 347.18 L138.776 343.719 L145.49 342.365 L149.289 342.365 L149.289 367.248 L155.496 367.248 L155.496 370.445 L139.321 370.445 L139.321 367.248 Z" fill="#000000" fill-rule="nonzero" fill-opacity="1" /><path clip-path="url(#clip980)" d="M84.7903 157.155 L92.4291 157.155 L92.4291 130.79 L84.119 132.456 L84.119 128.197 L92.3828 126.53 L97.0587 126.53 L97.0587 157.155 L104.698 157.155 L104.698 161.09 L84.7903 161.09 L84.7903 157.155 Z" fill="#000000" fill-rule="nonzero" fill-opacity="1" /><path clip-path="url(#clip980)" d="M124.142 129.609 Q120.531 129.609 118.702 133.174 Q116.897 136.715 116.897 143.845 Q116.897 150.951 118.702 154.516 Q120.531 158.058 124.142 158.058 Q127.776 158.058 129.582 154.516 Q131.41 150.951 131.41 143.845 Q131.41 136.715 129.582 133.174 Q127.776 129.609 124.142 129.609 M124.142 125.905 Q129.952 125.905 133.008 130.512 Q136.086 135.095 136.086 143.845 Q136.086 152.572 133.008 157.178 Q129.952 161.762 124.142 161.762 Q118.332 161.762 115.253 157.178 Q112.198 152.572 112.198 143.845 Q112.198 135.095 115.253 130.512 Q118.332 125.905 124.142 125.905 Z" fill="#000000" fill-rule="nonzero" fill-opacity="1" /><path clip-path="url(#clip980)" d="M145.791 108.101 Q142.857 108.101 141.371 110.998 Q139.904 113.875 139.904 119.668 Q139.904 125.442 141.371 128.338 Q142.857 131.216 145.791 131.216 Q148.744 131.216 150.211 128.338 Q151.697 125.442 151.697 119.668 Q151.697 113.875 150.211 110.998 Q148.744 108.101 145.791 108.101 M145.791 105.092 Q150.512 105.092 152.994 108.835 Q155.496 112.559 155.496 119.668 Q155.496 126.759 152.994 130.501 Q150.512 134.225 145.791 134.225 Q141.07 134.225 138.569 130.501 Q136.086 126.759 136.086 119.668 Q136.086 112.559 138.569 108.835 Q141.07 105.092 145.791 105.092 Z" fill="#000000" fill-rule="nonzero" fill-opacity="1" /><g clip-path="url(#clip980)">
<text style="fill:#000000; fill-opacity:1; font-family:Arial,Helvetica Neue,Helvetica,sans-serif; font-size:66px; text-anchor:middle;" transform="rotate(0, 1069.13, 57.6)" x="1069.13" y="57.6">Diagonal preconditioning in CG</text>
</g>
<polyline clip-path="url(#clip982)" style="stroke:#009af9; stroke-linecap:round; stroke-linejoin:round; stroke-width:8; stroke-opacity:1; fill:none" points="235.513,137.363 247.507,176.573 259.502,250.763 271.496,282.92 283.49,284.234 295.485,287.441 307.479,314.505 319.474,345.139 331.468,363.593 343.463,368.559 355.457,372.994 367.451,383.851 379.446,399.69 391.44,411.838 403.435,417.346 415.429,423.058 427.424,428.734 439.418,436.565 451.413,446.654 463.407,454.147 475.401,457.363 487.396,461.642 499.39,467.315 511.385,470.764 523.379,473.746 535.374,475.39 547.368,478.999 559.362,479.439 571.357,483.782 583.351,487.549 595.346,492.874 607.34,497.662 619.335,504.393 631.329,508.449 643.323,514.169 655.318,520.729 667.312,526.039 679.307,529.727 691.301,536.615 703.296,541.259 715.29,547.454 727.285,551.738 739.279,556.309 751.273,562.536 763.268,567.29 775.262,572.314 787.257,578.187 799.251,583.48 811.246,589.205 823.24,593.634 835.234,600.092 847.229,603.222 859.223,605.949 871.218,609.336 883.212,610.799 895.207,614.599 907.201,616.508 919.195,617.413 931.19,620.882 943.184,622.193 955.179,626.367 967.173,629.12 979.168,632.462 991.162,635.272 1003.16,641.08 1015.15,643.922 1027.15,649.365 1039.14,655.18 1051.13,661.168 1063.13,667.089 1075.12,671.963 1087.12,678.381 1099.11,686.756 1111.11,694.289 1123.1,702.301 1135.1,707.84 1147.09,717.448 1159.08,723.735 1171.08,729.777 1183.07,736.243 1195.07,742.602 1207.06,748.002 1219.06,753.305 1231.05,760.118 1243.05,764.055 1255.04,770.743 1267.03,776.543 1279.03,780.963 1291.02,785.81 1303.02,792.374 1315.01,796.575 1327.01,802.153 1339,809.973 1351,813.727 1362.99,821.135 1374.98,826.399 1386.98,834.88 1398.97,841.174 1410.97,845.93 1422.96,852.434 1434.96,858.065 1446.95,863.529 1458.95,868.722 1470.94,874.837 1482.93,880.334 1494.93,886.903 1506.92,895.08 1518.92,900.885 1530.91,909.701 1542.91,918.556 1554.9,928.092 1566.89,935.247 1578.89,944.376 1590.88,953.568 1602.88,960.303 1614.87,969.164 1626.87,977.484 1638.86,985.11 1650.86,994.604 1662.85,1002.53 1674.84,1007.37 1686.84,1014.76 1698.83,1021.73 1710.83,1026.98 1722.82,1031.61 1734.82,1036.53 1746.81,1039.73 1758.81,1045.12 1770.8,1048.51 1782.79,1054.73 1794.79,1060.55 1806.78,1070.36 1818.78,1075.09 1830.77,1084.29 1842.77,1091.69 1854.76,1100.15 1866.76,1111.2 1878.75,1119.53 1890.74,1128.75 1902.74,1140.92 "/>
<polyline clip-path="url(#clip982)" style="stroke:#e26f46; stroke-linecap:round; stroke-linejoin:round; stroke-width:8; stroke-opacity:1; fill:none" points="235.513,137.363 247.507,193.405 259.502,270.342 271.496,335.141 283.49,387.523 295.485,439.655 307.479,490.193 319.474,535.182 331.468,572.851 343.463,609.023 355.457,670.972 367.451,735.174 379.446,792.19 391.44,838.979 403.435,888.559 415.429,937.542 427.424,974.483 439.418,1014.84 451.413,1068.41 "/>
<path clip-path="url(#clip980)" d="M1369.58 298.235 L1893.85 298.235 L1893.85 142.715 L1369.58 142.715  Z" fill="#ffffff" fill-rule="evenodd" fill-opacity="1"/>
<polyline clip-path="url(#clip980)" style="stroke:#000000; stroke-linecap:round; stroke-linejoin:round; stroke-width:4; stroke-opacity:1; fill:none" points="1369.58,298.235 1893.85,298.235 1893.85,142.715 1369.58,142.715 1369.58,298.235 "/>
<polyline clip-path="url(#clip980)" style="stroke:#009af9; stroke-linecap:round; stroke-linejoin:round; stroke-width:8; stroke-opacity:1; fill:none" points="1389.21,194.555 1507.03,194.555 "/>
<path clip-path="url(#clip980)" d="M1530.95 207.946 L1530.95 221.696 L1526.67 221.696 L1526.67 185.909 L1530.95 185.909 L1530.95 189.844 Q1532.29 187.53 1534.33 186.418 Q1536.39 185.284 1539.24 185.284 Q1543.96 185.284 1546.9 189.034 Q1549.86 192.784 1549.86 198.895 Q1549.86 205.006 1546.9 208.756 Q1543.96 212.506 1539.24 212.506 Q1536.39 212.506 1534.33 211.395 Q1532.29 210.261 1530.95 207.946 M1545.44 198.895 Q1545.44 194.196 1543.5 191.534 Q1541.57 188.849 1538.19 188.849 Q1534.81 188.849 1532.87 191.534 Q1530.95 194.196 1530.95 198.895 Q1530.95 203.594 1532.87 206.28 Q1534.81 208.942 1538.19 208.942 Q1541.57 208.942 1543.5 206.28 Q1545.44 203.594 1545.44 198.895 Z" fill="#000000" fill-rule="nonzero" fill-opacity="1" /><path clip-path="url(#clip980)" d="M1556.92 175.817 L1561.18 175.817 L1561.18 211.835 L1556.92 211.835 L1556.92 175.817 Z" fill="#000000" fill-rule="nonzero" fill-opacity="1" /><path clip-path="url(#clip980)" d="M1581.87 198.803 Q1576.71 198.803 1574.72 199.983 Q1572.73 201.164 1572.73 204.011 Q1572.73 206.28 1574.21 207.622 Q1575.72 208.942 1578.29 208.942 Q1581.83 208.942 1583.96 206.442 Q1586.11 203.918 1586.11 199.752 L1586.11 198.803 L1581.87 198.803 M1590.37 197.043 L1590.37 211.835 L1586.11 211.835 L1586.11 207.9 Q1584.65 210.261 1582.48 211.395 Q1580.3 212.506 1577.15 212.506 Q1573.17 212.506 1570.81 210.284 Q1568.47 208.039 1568.47 204.289 Q1568.47 199.914 1571.39 197.692 Q1574.33 195.469 1580.14 195.469 L1586.11 195.469 L1586.11 195.053 Q1586.11 192.113 1584.17 190.516 Q1582.24 188.895 1578.75 188.895 Q1576.53 188.895 1574.42 189.428 Q1572.31 189.96 1570.37 191.025 L1570.37 187.09 Q1572.71 186.187 1574.91 185.747 Q1577.11 185.284 1579.19 185.284 Q1584.81 185.284 1587.59 188.201 Q1590.37 191.118 1590.37 197.043 Z" fill="#000000" fill-rule="nonzero" fill-opacity="1" /><path clip-path="url(#clip980)" d="M1599.14 185.909 L1603.4 185.909 L1603.4 211.835 L1599.14 211.835 L1599.14 185.909 M1599.14 175.817 L1603.4 175.817 L1603.4 181.21 L1599.14 181.21 L1599.14 175.817 Z" fill="#000000" fill-rule="nonzero" fill-opacity="1" /><path clip-path="url(#clip980)" d="M1633.87 196.187 L1633.87 211.835 L1629.61 211.835 L1629.61 196.326 Q1629.61 192.645 1628.17 190.817 Q1626.74 188.988 1623.87 188.988 Q1620.42 188.988 1618.43 191.187 Q1616.43 193.386 1616.43 197.182 L1616.43 211.835 L1612.15 211.835 L1612.15 185.909 L1616.43 185.909 L1616.43 189.937 Q1617.96 187.599 1620.02 186.442 Q1622.11 185.284 1624.81 185.284 Q1629.28 185.284 1631.57 188.062 Q1633.87 190.817 1633.87 196.187 Z" fill="#000000" fill-rule="nonzero" fill-opacity="1" /><polyline clip-path="url(#clip980)" style="stroke:#e26f46; stroke-linecap:round; stroke-linejoin:round; stroke-width:8; stroke-opacity:1; fill:none" points="1389.21,246.395 1507.03,246.395 "/>
<path clip-path="url(#clip980)" d="M1530.95 259.786 L1530.95 273.536 L1526.67 273.536 L1526.67 237.749 L1530.95 237.749 L1530.95 241.684 Q1532.29 239.37 1534.33 238.258 Q1536.39 237.124 1539.24 237.124 Q1543.96 237.124 1546.9 240.874 Q1549.86 244.624 1549.86 250.735 Q1549.86 256.846 1546.9 260.596 Q1543.96 264.346 1539.24 264.346 Q1536.39 264.346 1534.33 263.235 Q1532.29 262.101 1530.95 259.786 M1545.44 250.735 Q1545.44 246.036 1543.5 243.374 Q1541.57 240.689 1538.19 240.689 Q1534.81 240.689 1532.87 243.374 Q1530.95 246.036 1530.95 250.735 Q1530.95 255.434 1532.87 258.12 Q1534.81 260.782 1538.19 260.782 Q1541.57 260.782 1543.5 258.12 Q1545.44 255.434 1545.44 250.735 Z" fill="#000000" fill-rule="nonzero" fill-opacity="1" /><path clip-path="url(#clip980)" d="M1571.94 241.731 Q1571.23 241.314 1570.37 241.129 Q1569.54 240.921 1568.52 240.921 Q1564.91 240.921 1562.96 243.282 Q1561.04 245.62 1561.04 250.018 L1561.04 263.675 L1556.76 263.675 L1556.76 237.749 L1561.04 237.749 L1561.04 241.777 Q1562.38 239.416 1564.54 238.282 Q1566.69 237.124 1569.77 237.124 Q1570.21 237.124 1570.74 237.194 Q1571.27 237.24 1571.92 237.356 L1571.94 241.731 Z" fill="#000000" fill-rule="nonzero" fill-opacity="1" /><path clip-path="url(#clip980)" d="M1597.55 249.647 L1597.55 251.731 L1577.96 251.731 Q1578.24 256.129 1580.6 258.444 Q1582.99 260.735 1587.22 260.735 Q1589.68 260.735 1591.97 260.133 Q1594.28 259.532 1596.55 258.328 L1596.55 262.356 Q1594.26 263.328 1591.85 263.837 Q1589.44 264.346 1586.97 264.346 Q1580.76 264.346 1577.13 260.735 Q1573.52 257.124 1573.52 250.967 Q1573.52 244.601 1576.94 240.874 Q1580.39 237.124 1586.23 237.124 Q1591.46 237.124 1594.49 240.504 Q1597.55 243.86 1597.55 249.647 M1593.29 248.397 Q1593.24 244.902 1591.32 242.819 Q1589.42 240.735 1586.27 240.735 Q1582.71 240.735 1580.56 242.749 Q1578.43 244.763 1578.1 248.42 L1593.29 248.397 Z" fill="#000000" fill-rule="nonzero" fill-opacity="1" /><path clip-path="url(#clip980)" d="M1623.19 238.745 L1623.19 242.726 Q1621.39 241.731 1619.56 241.245 Q1617.75 240.735 1615.9 240.735 Q1611.76 240.735 1609.47 243.374 Q1607.18 245.99 1607.18 250.735 Q1607.18 255.481 1609.47 258.12 Q1611.76 260.735 1615.9 260.735 Q1617.75 260.735 1619.56 260.249 Q1621.39 259.74 1623.19 258.744 L1623.19 262.68 Q1621.41 263.513 1619.49 263.93 Q1617.59 264.346 1615.44 264.346 Q1609.58 264.346 1606.13 260.666 Q1602.68 256.985 1602.68 250.735 Q1602.68 244.393 1606.16 240.758 Q1609.65 237.124 1615.72 237.124 Q1617.68 237.124 1619.56 237.541 Q1621.43 237.934 1623.19 238.745 Z" fill="#000000" fill-rule="nonzero" fill-opacity="1" /><path clip-path="url(#clip980)" d="M1640.65 240.735 Q1637.22 240.735 1635.23 243.421 Q1633.24 246.083 1633.24 250.735 Q1633.24 255.388 1635.21 258.073 Q1637.2 260.735 1640.65 260.735 Q1644.05 260.735 1646.04 258.05 Q1648.03 255.365 1648.03 250.735 Q1648.03 246.129 1646.04 243.444 Q1644.05 240.735 1640.65 240.735 M1640.65 237.124 Q1646.2 237.124 1649.37 240.735 Q1652.55 244.346 1652.55 250.735 Q1652.55 257.101 1649.37 260.735 Q1646.2 264.346 1640.65 264.346 Q1635.07 264.346 1631.9 260.735 Q1628.75 257.101 1628.75 250.735 Q1628.75 244.346 1631.9 240.735 Q1635.07 237.124 1640.65 237.124 Z" fill="#000000" fill-rule="nonzero" fill-opacity="1" /><path clip-path="url(#clip980)" d="M1681.16 248.027 L1681.16 263.675 L1676.9 263.675 L1676.9 248.166 Q1676.9 244.485 1675.46 242.657 Q1674.03 240.828 1671.16 240.828 Q1667.71 240.828 1665.72 243.027 Q1663.73 245.226 1663.73 249.022 L1663.73 263.675 L1659.44 263.675 L1659.44 237.749 L1663.73 237.749 L1663.73 241.777 Q1665.25 239.439 1667.31 238.282 Q1669.4 237.124 1672.11 237.124 Q1676.57 237.124 1678.86 239.902 Q1681.16 242.657 1681.16 248.027 Z" fill="#000000" fill-rule="nonzero" fill-opacity="1" /><path clip-path="url(#clip980)" d="M1706.71 241.684 L1706.71 227.657 L1710.97 227.657 L1710.97 263.675 L1706.71 263.675 L1706.71 259.786 Q1705.37 262.101 1703.31 263.235 Q1701.27 264.346 1698.4 264.346 Q1693.7 264.346 1690.74 260.596 Q1687.8 256.846 1687.8 250.735 Q1687.8 244.624 1690.74 240.874 Q1693.7 237.124 1698.4 237.124 Q1701.27 237.124 1703.31 238.258 Q1705.37 239.37 1706.71 241.684 M1692.2 250.735 Q1692.2 255.434 1694.12 258.12 Q1696.06 260.782 1699.44 260.782 Q1702.82 260.782 1704.77 258.12 Q1706.71 255.434 1706.71 250.735 Q1706.71 246.036 1704.77 243.374 Q1702.82 240.689 1699.44 240.689 Q1696.06 240.689 1694.12 243.374 Q1692.2 246.036 1692.2 250.735 Z" fill="#000000" fill-rule="nonzero" fill-opacity="1" /><path clip-path="url(#clip980)" d="M1719.74 237.749 L1724 237.749 L1724 263.675 L1719.74 263.675 L1719.74 237.749 M1719.74 227.657 L1724 227.657 L1724 233.05 L1719.74 233.05 L1719.74 227.657 Z" fill="#000000" fill-rule="nonzero" fill-opacity="1" /><path clip-path="url(#clip980)" d="M1737.13 230.388 L1737.13 237.749 L1745.9 237.749 L1745.9 241.059 L1737.13 241.059 L1737.13 255.133 Q1737.13 258.305 1737.98 259.207 Q1738.86 260.11 1741.53 260.11 L1745.9 260.11 L1745.9 263.675 L1741.53 263.675 Q1736.6 263.675 1734.72 261.846 Q1732.85 259.994 1732.85 255.133 L1732.85 241.059 L1729.72 241.059 L1729.72 237.749 L1732.85 237.749 L1732.85 230.388 L1737.13 230.388 Z" fill="#000000" fill-rule="nonzero" fill-opacity="1" /><path clip-path="url(#clip980)" d="M1751.5 237.749 L1755.76 237.749 L1755.76 263.675 L1751.5 263.675 L1751.5 237.749 M1751.5 227.657 L1755.76 227.657 L1755.76 233.05 L1751.5 233.05 L1751.5 227.657 Z" fill="#000000" fill-rule="nonzero" fill-opacity="1" /><path clip-path="url(#clip980)" d="M1774.72 240.735 Q1771.29 240.735 1769.3 243.421 Q1767.31 246.083 1767.31 250.735 Q1767.31 255.388 1769.28 258.073 Q1771.27 260.735 1774.72 260.735 Q1778.12 260.735 1780.11 258.05 Q1782.11 255.365 1782.11 250.735 Q1782.11 246.129 1780.11 243.444 Q1778.12 240.735 1774.72 240.735 M1774.72 237.124 Q1780.28 237.124 1783.45 240.735 Q1786.62 244.346 1786.62 250.735 Q1786.62 257.101 1783.45 260.735 Q1780.28 264.346 1774.72 264.346 Q1769.14 264.346 1765.97 260.735 Q1762.82 257.101 1762.82 250.735 Q1762.82 244.346 1765.97 240.735 Q1769.14 237.124 1774.72 237.124 Z" fill="#000000" fill-rule="nonzero" fill-opacity="1" /><path clip-path="url(#clip980)" d="M1815.23 248.027 L1815.23 263.675 L1810.97 263.675 L1810.97 248.166 Q1810.97 244.485 1809.54 242.657 Q1808.1 240.828 1805.23 240.828 Q1801.78 240.828 1799.79 243.027 Q1797.8 245.226 1797.8 249.022 L1797.8 263.675 L1793.52 263.675 L1793.52 237.749 L1797.8 237.749 L1797.8 241.777 Q1799.33 239.439 1801.39 238.282 Q1803.47 237.124 1806.18 237.124 Q1810.65 237.124 1812.94 239.902 Q1815.23 242.657 1815.23 248.027 Z" fill="#000000" fill-rule="nonzero" fill-opacity="1" /><path clip-path="url(#clip980)" d="M1845.9 249.647 L1845.9 251.731 L1826.32 251.731 Q1826.6 256.129 1828.96 258.444 Q1831.34 260.735 1835.58 260.735 Q1838.03 260.735 1840.32 260.133 Q1842.64 259.532 1844.91 258.328 L1844.91 262.356 Q1842.61 263.328 1840.21 263.837 Q1837.8 264.346 1835.32 264.346 Q1829.12 264.346 1825.48 260.735 Q1821.87 257.124 1821.87 250.967 Q1821.87 244.601 1825.3 240.874 Q1828.75 237.124 1834.58 237.124 Q1839.81 237.124 1842.85 240.504 Q1845.9 243.86 1845.9 249.647 M1841.64 248.397 Q1841.6 244.902 1839.67 242.819 Q1837.78 240.735 1834.63 240.735 Q1831.06 240.735 1828.91 242.749 Q1826.78 244.763 1826.46 248.42 L1841.64 248.397 Z" fill="#000000" fill-rule="nonzero" fill-opacity="1" /><path clip-path="url(#clip980)" d="M1869.95 241.684 L1869.95 227.657 L1874.21 227.657 L1874.21 263.675 L1869.95 263.675 L1869.95 259.786 Q1868.61 262.101 1866.55 263.235 Q1864.51 264.346 1861.64 264.346 Q1856.94 264.346 1853.98 260.596 Q1851.04 256.846 1851.04 250.735 Q1851.04 244.624 1853.98 240.874 Q1856.94 237.124 1861.64 237.124 Q1864.51 237.124 1866.55 238.258 Q1868.61 239.37 1869.95 241.684 M1855.44 250.735 Q1855.44 255.434 1857.36 258.12 Q1859.3 260.782 1862.68 260.782 Q1866.06 260.782 1868.01 258.12 Q1869.95 255.434 1869.95 250.735 Q1869.95 246.036 1868.01 243.374 Q1866.06 240.689 1862.68 240.689 Q1859.3 240.689 1857.36 243.374 Q1855.44 246.036 1855.44 250.735 Z" fill="#000000" fill-rule="nonzero" fill-opacity="1" /></svg>
