<?xml version="1.0" encoding="utf-8"?>
<svg xmlns="http://www.w3.org/2000/svg" xmlns:xlink="http://www.w3.org/1999/xlink" width="500" height="320" viewBox="0 0 2000 1280">
<defs>
  <clipPath id="clip830">
    <rect x="0" y="0" width="2000" height="1280"/>
  </clipPath>
</defs>
<path clip-path="url(#clip830)" d="M0 1280 L2000 1280 L2000 0 L0 0  Z" fill="#ffffff" fill-rule="evenodd" fill-opacity="1"/>
<defs>
  <clipPath id="clip831">
    <rect x="400" y="0" width="1401" height="1280"/>
  </clipPath>
</defs>
<path clip-path="url(#clip830)" d="M244.586 1099.23 L1952.76 1099.23 L1952.76 107.256 L244.586 107.256  Z" fill="#ffffff" fill-rule="evenodd" fill-opacity="1"/>
<defs>
  <clipPath id="clip832">
    <rect x="244" y="107" width="1709" height="993"/>
  </clipPath>
</defs>
<polyline clip-path="url(#clip832)" style="stroke:#000000; stroke-linecap:round; stroke-linejoin:round; stroke-width:2; stroke-opacity:0.1; fill:none" points="901.577,1099.23 901.577,107.256 "/>
<polyline clip-path="url(#clip832)" style="stroke:#000000; stroke-linecap:round; stroke-linejoin:round; stroke-width:2; stroke-opacity:0.1; fill:none" points="1666.32,1099.23 1666.32,107.256 "/>
<polyline clip-path="url(#clip832)" style="stroke:#000000; stroke-linecap:round; stroke-linejoin:round; stroke-width:2; stroke-opacity:0.1; fill:none" points="244.586,811.412 1952.76,811.412 "/>
<polyline clip-path="url(#clip832)" style="stroke:#000000; stroke-linecap:round; stroke-linejoin:round; stroke-width:2; stroke-opacity:0.1; fill:none" points="244.586,331.201 1952.76,331.201 "/>
<polyline clip-path="url(#clip830)" style="stroke:#000000; stroke-linecap:round; stroke-linejoin:round; stroke-width:4; stroke-opacity:1; fill:none" points="244.586,1099.23 1952.76,1099.23 "/>
<polyline clip-path="url(#clip830)" style="stroke:#000000; stroke-linecap:round; stroke-linejoin:round; stroke-width:4; stroke-opacity:1; fill:none" points="901.577,1099.23 901.577,1080.33 "/>
<polyline clip-path="url(#clip830)" style="stroke:#000000; stroke-linecap:round; stroke-linejoin:round; stroke-width:4; stroke-opacity:1; fill:none" points="1666.32,1099.23 1666.32,1080.33 "/>
<path clip-path="url(#clip830)" d="M867.35 1170.15 L874.988 1170.15 L874.988 1143.79 L866.678 1145.45 L866.678 1141.19 L874.942 1139.53 L879.618 1139.53 L879.618 1170.15 L887.257 1170.15 L887.257 1174.09 L867.35 1174.09 L867.35 1170.15 Z" fill="#000000" fill-rule="nonzero" fill-opacity="1" /><path clip-path="url(#clip830)" d="M906.701 1142.61 Q903.09 1142.61 901.261 1146.17 Q899.456 1149.71 899.456 1156.84 Q899.456 1163.95 901.261 1167.51 Q903.09 1171.05 906.701 1171.05 Q910.335 1171.05 912.141 1167.51 Q913.97 1163.95 913.97 1156.84 Q913.97 1149.71 912.141 1146.17 Q910.335 1142.61 906.701 1142.61 M906.701 1138.9 Q912.511 1138.9 915.567 1143.51 Q918.646 1148.09 918.646 1156.84 Q918.646 1165.57 915.567 1170.17 Q912.511 1174.76 906.701 1174.76 Q900.891 1174.76 897.812 1170.17 Q894.757 1165.57 894.757 1156.84 Q894.757 1148.09 897.812 1143.51 Q900.891 1138.9 906.701 1138.9 Z" fill="#000000" fill-rule="nonzero" fill-opacity="1" /><path clip-path="url(#clip830)" d="M923.216 1143.48 L936.475 1143.48 L936.475 1146.68 L918.646 1146.68 L918.646 1143.48 Q920.808 1141.24 924.532 1137.48 Q928.275 1133.7 929.234 1132.61 Q931.059 1130.56 931.773 1129.15 Q932.507 1127.72 932.507 1126.35 Q932.507 1124.11 930.927 1122.7 Q929.366 1121.29 926.846 1121.29 Q925.059 1121.29 923.065 1121.91 Q921.091 1122.53 918.834 1123.79 L918.834 1119.95 Q921.128 1119.03 923.122 1118.56 Q925.115 1118.09 926.771 1118.09 Q931.134 1118.09 933.729 1120.27 Q936.325 1122.45 936.325 1126.1 Q936.325 1127.83 935.667 1129.39 Q935.027 1130.93 933.316 1133.04 Q932.845 1133.59 930.325 1136.2 Q927.805 1138.8 923.216 1143.48 Z" fill="#000000" fill-rule="nonzero" fill-opacity="1" /><path clip-path="url(#clip830)" d="M1631.77 1170.15 L1639.41 1170.15 L1639.41 1143.79 L1631.1 1145.45 L1631.1 1141.19 L1639.36 1139.53 L1644.04 1139.53 L1644.04 1170.15 L1651.67 1170.15 L1651.67 1174.09 L1631.77 1174.09 L1631.77 1170.15 Z" fill="#000000" fill-rule="nonzero" fill-opacity="1" /><path clip-path="url(#clip830)" d="M1671.12 1142.61 Q1667.51 1142.61 1665.68 1146.17 Q1663.87 1149.71 1663.87 1156.84 Q1663.87 1163.95 1665.68 1167.51 Q1667.51 1171.05 1671.12 1171.05 Q1674.75 1171.05 1676.56 1167.51 Q1678.39 1163.95 1678.39 1156.84 Q1678.39 1149.71 1676.56 1146.17 Q1674.75 1142.61 1671.12 1142.61 M1671.12 1138.9 Q1676.93 1138.9 1679.98 1143.51 Q1683.06 1148.09 1683.06 1156.84 Q1683.06 1165.57 1679.98 1170.17 Q1676.93 1174.76 1671.12 1174.76 Q1665.31 1174.76 1662.23 1170.17 Q1659.17 1165.57 1659.17 1156.84 Q1659.17 1148.09 1662.23 1143.51 Q1665.31 1138.9 1671.12 1138.9 Z" fill="#000000" fill-rule="nonzero" fill-opacity="1" /><path clip-path="url(#clip830)" d="M1695.76 1131.54 Q1698.49 1132.12 1700.01 1133.96 Q1701.55 1135.81 1701.55 1138.51 Q1701.55 1142.67 1698.69 1144.95 Q1695.83 1147.22 1690.57 1147.22 Q1688.8 1147.22 1686.92 1146.86 Q1685.06 1146.53 1683.06 1145.83 L1683.06 1142.16 Q1684.64 1143.08 1686.52 1143.55 Q1688.4 1144.02 1690.45 1144.02 Q1694.03 1144.02 1695.89 1142.61 Q1697.77 1141.2 1697.77 1138.51 Q1697.77 1136.03 1696.02 1134.64 Q1694.29 1133.23 1691.19 1133.23 L1687.92 1133.23 L1687.92 1130.11 L1691.34 1130.11 Q1694.14 1130.11 1695.63 1129 Q1697.11 1127.87 1697.11 1125.76 Q1697.11 1123.6 1695.57 1122.45 Q1694.05 1121.29 1691.19 1121.29 Q1689.63 1121.29 1687.84 1121.62 Q1686.05 1121.96 1683.91 1122.68 L1683.91 1119.29 Q1686.07 1118.69 1687.95 1118.39 Q1689.85 1118.09 1691.53 1118.09 Q1695.85 1118.09 1698.37 1120.06 Q1700.89 1122.02 1700.89 1125.37 Q1700.89 1127.7 1699.56 1129.32 Q1698.22 1130.92 1695.76 1131.54 Z" fill="#000000" fill-rule="nonzero" fill-opacity="1" /><g clip-path="url(#clip830)">
<text style="fill:#000000; fill-opacity:1; font-family:Arial,Helvetica Neue,Helvetica,sans-serif; font-size:66px; text-anchor:middle;" transform="rotate(0, 1098.67, 1259.05)" x="1098.67" y="1259.05">n</text>
</g>
<polyline clip-path="url(#clip830)" style="stroke:#000000; stroke-linecap:round; stroke-linejoin:round; stroke-width:4; stroke-opacity:1; fill:none" points="244.586,1099.23 244.586,107.256 "/>
<polyline clip-path="url(#clip830)" style="stroke:#000000; stroke-linecap:round; stroke-linejoin:round; stroke-width:4; stroke-opacity:1; fill:none" points="244.586,811.412 263.484,811.412 "/>
<polyline clip-path="url(#clip830)" style="stroke:#000000; stroke-linecap:round; stroke-linejoin:round; stroke-width:4; stroke-opacity:1; fill:none" points="244.586,331.201 263.484,331.201 "/>
<path clip-path="url(#clip830)" d="M113.675 831.204 L121.314 831.204 L121.314 804.839 L113.004 806.506 L113.004 802.246 L121.268 800.58 L125.944 800.58 L125.944 831.204 L133.583 831.204 L133.583 835.14 L113.675 835.14 L113.675 831.204 Z" fill="#000000" fill-rule="nonzero" fill-opacity="1" /><path clip-path="url(#clip830)" d="M153.027 803.658 Q149.416 803.658 147.587 807.223 Q145.782 810.765 145.782 817.894 Q145.782 825.001 147.587 828.566 Q149.416 832.107 153.027 832.107 Q156.661 832.107 158.467 828.566 Q160.295 825.001 160.295 817.894 Q160.295 810.765 158.467 807.223 Q156.661 803.658 153.027 803.658 M153.027 799.955 Q158.837 799.955 161.893 804.561 Q164.971 809.144 164.971 817.894 Q164.971 826.621 161.893 831.228 Q158.837 835.811 153.027 835.811 Q147.217 835.811 144.138 831.228 Q141.082 826.621 141.082 817.894 Q141.082 809.144 144.138 804.561 Q147.217 799.955 153.027 799.955 Z" fill="#000000" fill-rule="nonzero" fill-opacity="1" /><path clip-path="url(#clip830)" d="M164.971 794.056 L189.083 794.056 L189.083 797.253 L164.971 797.253 L164.971 794.056 Z" fill="#000000" fill-rule="nonzero" fill-opacity="1" /><path clip-path="url(#clip830)" d="M208.793 792.589 Q211.52 793.172 213.044 795.015 Q214.586 796.858 214.586 799.567 Q214.586 803.723 211.727 805.999 Q208.869 808.275 203.602 808.275 Q201.834 808.275 199.954 807.917 Q198.092 807.579 196.098 806.883 L196.098 803.215 Q197.678 804.137 199.559 804.607 Q201.439 805.077 203.49 805.077 Q207.063 805.077 208.925 803.667 Q210.806 802.256 210.806 799.567 Q210.806 797.084 209.057 795.692 Q207.326 794.282 204.223 794.282 L200.95 794.282 L200.95 791.16 L204.374 791.16 Q207.176 791.16 208.662 790.05 Q210.147 788.921 210.147 786.815 Q210.147 784.652 208.605 783.505 Q207.082 782.339 204.223 782.339 Q202.662 782.339 200.875 782.677 Q199.089 783.016 196.944 783.731 L196.944 780.345 Q199.107 779.743 200.988 779.442 Q202.888 779.141 204.562 779.141 Q208.887 779.141 211.408 781.116 Q213.928 783.072 213.928 786.42 Q213.928 788.752 212.592 790.37 Q211.257 791.968 208.793 792.589 Z" fill="#000000" fill-rule="nonzero" fill-opacity="1" /><path clip-path="url(#clip830)" d="M143.88 350.993 L151.519 350.993 L151.519 324.627 L143.209 326.294 L143.209 322.035 L151.473 320.368 L156.149 320.368 L156.149 350.993 L163.788 350.993 L163.788 354.928 L143.88 354.928 L143.88 350.993 Z" fill="#000000" fill-rule="nonzero" fill-opacity="1" /><path clip-path="url(#clip830)" d="M183.232 323.447 Q179.621 323.447 177.792 327.012 Q175.987 330.553 175.987 337.683 Q175.987 344.789 177.792 348.354 Q179.621 351.896 183.232 351.896 Q186.866 351.896 188.672 348.354 Q190.501 344.789 190.501 337.683 Q190.501 330.553 188.672 327.012 Q186.866 323.447 183.232 323.447 M183.232 319.743 Q189.042 319.743 192.098 324.35 Q195.177 328.933 195.177 337.683 Q195.177 346.41 192.098 351.016 Q189.042 355.6 183.232 355.6 Q177.422 355.6 174.343 351.016 Q171.288 346.41 171.288 337.683 Q171.288 328.933 174.343 324.35 Q177.422 319.743 183.232 319.743 Z" fill="#000000" fill-rule="nonzero" fill-opacity="1" /><path clip-path="url(#clip830)" d="M204.881 301.939 Q201.947 301.939 200.461 304.836 Q198.994 307.713 198.994 313.506 Q198.994 319.28 200.461 322.176 Q201.947 325.054 204.881 325.054 Q207.834 325.054 209.301 322.176 Q210.787 319.28 210.787 313.506 Q210.787 307.713 209.301 304.836 Q207.834 301.939 204.881 301.939 M204.881 298.93 Q209.602 298.93 212.085 302.673 Q214.586 306.397 214.586 313.506 Q214.586 320.597 212.085 324.339 Q209.602 328.063 204.881 328.063 Q200.161 328.063 197.659 324.339 Q195.177 320.597 195.177 313.506 Q195.177 306.397 197.659 302.673 Q200.161 298.93 204.881 298.93 Z" fill="#000000" fill-rule="nonzero" fill-opacity="1" /><g clip-path="url(#clip830)">
<text style="fill:#000000; fill-opacity:1; font-family:Arial,Helvetica Neue,Helvetica,sans-serif; font-size:66px; text-anchor:middle;" transform="rotate(-90, 71.4418, 603.241)" x="71.4418" y="603.241">max error</text>
</g>
<g clip-path="url(#clip830)">
<text style="fill:#000000; fill-opacity:1; font-family:Arial,Helvetica Neue,Helvetica,sans-serif; font-size:66px; text-anchor:middle;" transform="rotate(0, 1098.67, 57.6)" x="1098.67" y="57.6">Convergence of finite differences</text>
</g>
<polyline clip-path="url(#clip832)" style="stroke:#009af9; stroke-linecap:round; stroke-linejoin:round; stroke-width:8; stroke-opacity:1; fill:none" points="292.931,350.716 413.461,384.85 523.142,422.109 636.372,464.193 753.354,509.917 870.254,556.919 983.565,603.201 1098.64,650.632 1213.78,698.356 1328.85,746.214 1443.99,794.205 1559.06,842.234 1674.2,890.338 1789.27,938.442 1904.41,986.595 "/>
<path clip-path="url(#clip832)" d="M292.931 362.716 L284.447 359.2 L280.931 350.716 L284.447 342.232 L292.931 338.716 L301.415 342.232 L304.931 350.716 L301.415 359.2 Z" fill="#009af9" fill-rule="evenodd" fill-opacity="1" stroke="#000000" stroke-opacity="1" stroke-width="2.56"/>
<path clip-path="url(#clip832)" d="M413.461 396.85 L404.977 393.334 L401.461 384.85 L404.977 376.366 L413.461 372.85 L421.945 376.366 L425.461 384.85 L421.945 393.334 Z" fill="#009af9" fill-rule="evenodd" fill-opacity="1" stroke="#000000" stroke-opacity="1" stroke-width="2.56"/>
<path clip-path="url(#clip832)" d="M523.142 434.109 L514.658 430.593 L511.142 422.109 L514.658 413.625 L523.142 410.109 L531.626 413.625 L535.142 422.109 L531.626 430.593 Z" fill="#009af9" fill-rule="evenodd" fill-opacity="1" stroke="#000000" stroke-opacity="1" stroke-width="2.56"/>
<path clip-path="url(#clip832)" d="M636.372 476.193 L627.888 472.677 L624.372 464.193 L627.888 455.709 L636.372 452.193 L644.856 455.709 L648.372 464.193 L644.856 472.677 Z" fill="#009af9" fill-rule="evenodd" fill-opacity="1" stroke="#000000" stroke-opacity="1" stroke-width="2.56"/>
<path clip-path="url(#clip832)" d="M753.354 521.917 L744.87 518.401 L741.354 509.917 L744.87 501.433 L753.354 497.917 L761.838 501.433 L765.354 509.917 L761.838 518.401 Z" fill="#009af9" fill-rule="evenodd" fill-opacity="1" stroke="#000000" stroke-opacity="1" stroke-width="2.56"/>
<path clip-path="url(#clip832)" d="M870.254 568.919 L861.77 565.403 L858.254 556.919 L861.77 548.435 L870.254 544.919 L878.738 548.435 L882.254 556.919 L878.738 565.403 Z" fill="#009af9" fill-rule="evenodd" fill-opacity="1" stroke="#000000" stroke-opacity="1" stroke-width="2.56"/>
<path clip-path="url(#clip832)" d="M983.565 615.201 L975.081 611.685 L971.565 603.201 L975.081 594.717 L983.565 591.201 L992.049 594.717 L995.565 603.201 L992.049 611.685 Z" fill="#009af9" fill-rule="evenodd" fill-opacity="1" stroke="#000000" stroke-opacity="1" stroke-width="2.56"/>
<path clip-path="url(#clip832)" d="M1098.64 662.632 L1090.15 659.116 L1086.64 650.632 L1090.15 642.148 L1098.64 638.632 L1107.12 642.148 L1110.64 650.632 L1107.12 659.116 Z" fill="#009af9" fill-rule="evenodd" fill-opacity="1" stroke="#000000" stroke-opacity="1" stroke-width="2.56"/>
<path clip-path="url(#clip832)" d="M1213.78 710.356 L1205.29 706.84 L1201.78 698.356 L1205.29 689.872 L1213.78 686.356 L1222.26 689.872 L1225.78 698.356 L1222.26 706.84 Z" fill="#009af9" fill-rule="evenodd" fill-opacity="1" stroke="#000000" stroke-opacity="1" stroke-width="2.56"/>
<path clip-path="url(#clip832)" d="M1328.85 758.214 L1320.36 754.698 L1316.85 746.214 L1320.36 737.73 L1328.85 734.214 L1337.33 737.73 L1340.85 746.214 L1337.33 754.698 Z" fill="#009af9" fill-rule="evenodd" fill-opacity="1" stroke="#000000" stroke-opacity="1" stroke-width="2.56"/>
<path clip-path="url(#clip832)" d="M1443.99 806.205 L1435.5 802.689 L1431.99 794.205 L1435.5 785.721 L1443.99 782.205 L1452.47 785.721 L1455.99 794.205 L1452.47 802.689 Z" fill="#009af9" fill-rule="evenodd" fill-opacity="1" stroke="#000000" stroke-opacity="1" stroke-width="2.56"/>
<path clip-path="url(#clip832)" d="M1559.06 854.234 L1550.57 850.718 L1547.06 842.234 L1550.57 833.75 L1559.06 830.234 L1567.54 833.75 L1571.06 842.234 L1567.54 850.718 Z" fill="#009af9" fill-rule="evenodd" fill-opacity="1" stroke="#000000" stroke-opacity="1" stroke-width="2.56"/>
<path clip-path="url(#clip832)" d="M1674.2 902.338 L1665.72 898.822 L1662.2 890.338 L1665.72 881.854 L1674.2 878.338 L1682.68 881.854 L1686.2 890.338 L1682.68 898.822 Z" fill="#009af9" fill-rule="evenodd" fill-opacity="1" stroke="#000000" stroke-opacity="1" stroke-width="2.56"/>
<path clip-path="url(#clip832)" d="M1789.27 950.442 L1780.79 946.926 L1777.27 938.442 L1780.79 929.958 L1789.27 926.442 L1797.75 929.958 L1801.27 938.442 L1797.75 946.926 Z" fill="#009af9" fill-rule="evenodd" fill-opacity="1" stroke="#000000" stroke-opacity="1" stroke-width="2.56"/>
<path clip-path="url(#clip832)" d="M1904.41 998.595 L1895.93 995.079 L1892.41 986.595 L1895.93 978.111 L1904.41 974.595 L1912.9 978.111 L1916.41 986.595 L1912.9 995.079 Z" fill="#009af9" fill-rule="evenodd" fill-opacity="1" stroke="#000000" stroke-opacity="1" stroke-width="2.56"/>
<polyline clip-path="url(#clip832)" style="stroke:#e26f46; stroke-linecap:round; stroke-linejoin:round; stroke-width:8; stroke-opacity:1; fill:none" points="292.931,135.331 413.461,177.771 523.142,224.592 636.372,277.608 753.354,334.683 870.254,392.246 983.565,447.533 1098.64,502.655 1213.78,556.601 1328.85,609.331 1443.99,661.048 1559.06,711.866 1674.2,762.028 1789.27,811.632 1904.41,860.871 "/>
<path clip-path="url(#clip832)" d="M292.931 147.331 L284.447 143.815 L280.931 135.331 L284.447 126.847 L292.931 123.331 L301.415 126.847 L304.931 135.331 L301.415 143.815 Z" fill="#e26f46" fill-rule="evenodd" fill-opacity="1" stroke="#000000" stroke-opacity="1" stroke-width="2.56"/>
<path clip-path="url(#clip832)" d="M413.461 189.771 L404.977 186.255 L401.461 177.771 L404.977 169.287 L413.461 165.771 L421.945 169.287 L425.461 177.771 L421.945 186.255 Z" fill="#e26f46" fill-rule="evenodd" fill-opacity="1" stroke="#000000" stroke-opacity="1" stroke-width="2.56"/>
<path clip-path="url(#clip832)" d="M523.142 236.592 L514.658 233.076 L511.142 224.592 L514.658 216.108 L523.142 212.592 L531.626 216.108 L535.142 224.592 L531.626 233.076 Z" fill="#e26f46" fill-rule="evenodd" fill-opacity="1" stroke="#000000" stroke-opacity="1" stroke-width="2.56"/>
<path clip-path="url(#clip832)" d="M636.372 289.608 L627.888 286.092 L624.372 277.608 L627.888 269.124 L636.372 265.608 L644.856 269.124 L648.372 277.608 L644.856 286.092 Z" fill="#e26f46" fill-rule="evenodd" fill-opacity="1" stroke="#000000" stroke-opacity="1" stroke-width="2.56"/>
<path clip-path="url(#clip832)" d="M753.354 346.683 L744.87 343.167 L741.354 334.683 L744.87 326.199 L753.354 322.683 L761.838 326.199 L765.354 334.683 L761.838 343.167 Z" fill="#e26f46" fill-rule="evenodd" fill-opacity="1" stroke="#000000" stroke-opacity="1" stroke-width="2.56"/>
<path clip-path="url(#clip832)" d="M870.254 404.246 L861.77 400.73 L858.254 392.246 L861.77 383.762 L870.254 380.246 L878.738 383.762 L882.254 392.246 L878.738 400.73 Z" fill="#e26f46" fill-rule="evenodd" fill-opacity="1" stroke="#000000" stroke-opacity="1" stroke-width="2.56"/>
<path clip-path="url(#clip832)" d="M983.565 459.533 L975.081 456.017 L971.565 447.533 L975.081 439.049 L983.565 435.533 L992.049 439.049 L995.565 447.533 L992.049 456.017 Z" fill="#e26f46" fill-rule="evenodd" fill-opacity="1" stroke="#000000" stroke-opacity="1" stroke-width="2.56"/>
<path clip-path="url(#clip832)" d="M1098.64 514.655 L1090.15 511.139 L1086.64 502.655 L1090.15 494.171 L1098.64 490.655 L1107.12 494.171 L1110.64 502.655 L1107.12 511.139 Z" fill="#e26f46" fill-rule="evenodd" fill-opacity="1" stroke="#000000" stroke-opacity="1" stroke-width="2.56"/>
<path clip-path="url(#clip832)" d="M1213.78 568.601 L1205.29 565.085 L1201.78 556.601 L1205.29 548.117 L1213.78 544.601 L1222.26 548.117 L1225.78 556.601 L1222.26 565.085 Z" fill="#e26f46" fill-rule="evenodd" fill-opacity="1" stroke="#000000" stroke-opacity="1" stroke-width="2.56"/>
<path clip-path="url(#clip832)" d="M1328.85 621.331 L1320.36 617.815 L1316.85 609.331 L1320.36 600.847 L1328.85 597.331 L1337.33 600.847 L1340.85 609.331 L1337.33 617.815 Z" fill="#e26f46" fill-rule="evenodd" fill-opacity="1" stroke="#000000" stroke-opacity="1" stroke-width="2.56"/>
<path clip-path="url(#clip832)" d="M1443.99 673.048 L1435.5 669.532 L1431.99 661.048 L1435.5 652.564 L1443.99 649.048 L1452.47 652.564 L1455.99 661.048 L1452.47 669.532 Z" fill="#e26f46" fill-rule="evenodd" fill-opacity="1" stroke="#000000" stroke-opacity="1" stroke-width="2.56"/>
<path clip-path="url(#clip832)" d="M1559.06 723.866 L1550.57 720.35 L1547.06 711.866 L1550.57 703.382 L1559.06 699.866 L1567.54 703.382 L1571.06 711.866 L1567.54 720.35 Z" fill="#e26f46" fill-rule="evenodd" fill-opacity="1" stroke="#000000" stroke-opacity="1" stroke-width="2.56"/>
<path clip-path="url(#clip832)" d="M1674.2 774.028 L1665.72 770.512 L1662.2 762.028 L1665.72 753.544 L1674.2 750.028 L1682.68 753.544 L1686.2 762.028 L1682.68 770.512 Z" fill="#e26f46" fill-rule="evenodd" fill-opacity="1" stroke="#000000" stroke-opacity="1" stroke-width="2.56"/>
<path clip-path="url(#clip832)" d="M1789.27 823.632 L1780.79 820.116 L1777.27 811.632 L1780.79 803.148 L1789.27 799.632 L1797.75 803.148 L1801.27 811.632 L1797.75 820.116 Z" fill="#e26f46" fill-rule="evenodd" fill-opacity="1" stroke="#000000" stroke-opacity="1" stroke-width="2.56"/>
<path clip-path="url(#clip832)" d="M1904.41 872.871 L1895.93 869.355 L1892.41 860.871 L1895.93 852.387 L1904.41 848.871 L1912.9 852.387 L1916.41 860.871 L1912.9 869.355 Z" fill="#e26f46" fill-rule="evenodd" fill-opacity="1" stroke="#000000" stroke-opacity="1" stroke-width="2.56"/>
<polyline clip-path="url(#clip832)" style="stroke:#000000; stroke-linecap:round; stroke-linejoin:round; stroke-width:8; stroke-opacity:1; fill:none" stroke-dasharray="32, 20" points="292.931,396.548 413.461,447.005 523.142,492.92 636.372,540.321 753.354,589.292 870.254,638.229 983.565,685.664 1098.64,733.835 1213.78,782.036 1328.85,830.207 1443.99,878.408 1559.06,926.579 1674.2,974.78 1789.27,1022.95 1904.41,1071.15 "/>
<path clip-path="url(#clip830)" d="M1496.69 347.682 L1895.82 347.682 L1895.82 140.322 L1496.69 140.322  Z" fill="#ffffff" fill-rule="evenodd" fill-opacity="1"/>
<polyline clip-path="url(#clip830)" style="stroke:#000000; stroke-linecap:round; stroke-linejoin:round; stroke-width:4; stroke-opacity:1; fill:none" points="1496.69,347.682 1895.82,347.682 1895.82,140.322 1496.69,140.322 1496.69,347.682 "/>
<polyline clip-path="url(#clip830)" style="stroke:#009af9; stroke-linecap:round; stroke-linejoin:round; stroke-width:8; stroke-opacity:1; fill:none" points="1515.67,192.162 1629.55,192.162 "/>
<path clip-path="url(#clip830)" d="M1572.61 209.735 L1560.18 204.586 L1555.04 192.162 L1560.18 179.737 L1572.61 174.588 L1585.03 179.737 L1590.18 192.162 L1585.03 204.586 Z" fill="#009af9" fill-rule="evenodd" fill-opacity="1" stroke="#000000" stroke-opacity="1" stroke-width="4.68114"/>
<path clip-path="url(#clip830)" d="M1672.44 173.641 Q1672.44 174.929 1671.62 175.725 Q1670.83 176.522 1669.82 176.522 Q1669.09 176.522 1668.55 176.077 Q1668.04 175.632 1668.04 174.859 Q1668.04 174.062 1668.65 173.219 Q1669.26 172.376 1670.64 172.259 Q1669.73 171.392 1668.27 171.392 Q1667.55 171.392 1666.94 171.861 Q1666.35 172.306 1666.02 173.032 Q1665.67 173.781 1664.88 178.021 Q1664.62 179.403 1664.39 180.738 Q1664.15 182.073 1663.87 183.478 L1667.85 183.478 Q1668.37 183.478 1668.58 183.502 Q1668.79 183.525 1668.95 183.642 Q1669.14 183.759 1669.14 184.017 Q1669.14 184.673 1668.84 184.837 Q1668.55 184.977 1667.71 184.977 L1663.59 184.977 L1660.71 200.178 Q1660.64 200.623 1660.33 202.029 Q1660.05 203.411 1659.37 205.683 Q1658.69 207.978 1658.01 209.337 Q1657.64 210.11 1657.15 210.836 Q1656.68 211.585 1656 212.335 Q1655.32 213.084 1654.43 213.529 Q1653.54 213.998 1652.6 213.998 Q1651.01 213.998 1649.77 213.108 Q1648.53 212.218 1648.53 210.695 Q1648.53 209.407 1649.32 208.611 Q1650.14 207.814 1651.15 207.814 Q1651.88 207.814 1652.39 208.259 Q1652.93 208.704 1652.93 209.477 Q1652.93 209.805 1652.81 210.18 Q1652.7 210.555 1652.44 210.976 Q1652.18 211.421 1651.62 211.726 Q1651.06 212.03 1650.28 212.077 Q1651.2 212.944 1652.6 212.944 Q1653.05 212.944 1653.45 212.756 Q1653.85 212.592 1654.17 212.171 Q1654.52 211.749 1654.78 211.328 Q1655.04 210.929 1655.3 210.156 Q1655.56 209.407 1655.72 208.845 Q1655.88 208.283 1656.09 207.275 Q1656.33 206.268 1656.45 205.659 Q1656.56 205.074 1656.77 203.926 L1660.36 184.977 L1657.19 184.977 Q1656.63 184.977 1656.4 184.954 Q1656.19 184.93 1656.02 184.813 Q1655.86 184.673 1655.86 184.392 Q1655.86 183.947 1656.05 183.759 Q1656.26 183.549 1656.49 183.525 Q1656.73 183.478 1657.29 183.478 L1660.61 183.478 Q1661.74 177.552 1662.18 175.96 Q1662.7 174.273 1663.5 173.102 Q1664.29 171.908 1665.18 171.345 Q1666.07 170.783 1666.8 170.572 Q1667.55 170.338 1668.27 170.338 Q1669.91 170.338 1671.18 171.228 Q1672.44 172.095 1672.44 173.641 Z" fill="#000000" fill-rule="nonzero" fill-opacity="1" /><path clip-path="url(#clip830)" d="M1675.6 172.306 Q1675.6 171.111 1676.33 170.619 Q1677.05 170.104 1677.83 170.104 Q1678.79 170.104 1679.4 170.69 Q1680.03 171.252 1680.03 172.306 Q1680.03 172.774 1679.98 173.032 L1678.39 187.507 L1677.29 187.507 L1675.65 173.032 Q1675.6 172.774 1675.6 172.306 Z" fill="#000000" fill-rule="nonzero" fill-opacity="1" /><polyline clip-path="url(#clip830)" style="stroke:#e26f46; stroke-linecap:round; stroke-linejoin:round; stroke-width:8; stroke-opacity:1; fill:none" points="1515.67,244.002 1629.55,244.002 "/>
<path clip-path="url(#clip830)" d="M1572.61 261.575 L1560.18 256.426 L1555.04 244.002 L1560.18 231.577 L1572.61 226.428 L1585.03 231.577 L1590.18 244.002 L1585.03 256.426 Z" fill="#e26f46" fill-rule="evenodd" fill-opacity="1" stroke="#000000" stroke-opacity="1" stroke-width="4.68114"/>
<path clip-path="url(#clip830)" d="M1672.44 225.481 Q1672.44 226.769 1671.62 227.565 Q1670.83 228.362 1669.82 228.362 Q1669.09 228.362 1668.55 227.917 Q1668.04 227.472 1668.04 226.699 Q1668.04 225.902 1668.65 225.059 Q1669.26 224.216 1670.64 224.099 Q1669.73 223.232 1668.27 223.232 Q1667.55 223.232 1666.94 223.701 Q1666.35 224.146 1666.02 224.872 Q1665.67 225.621 1664.88 229.861 Q1664.62 231.243 1664.39 232.578 Q1664.15 233.913 1663.87 235.318 L1667.85 235.318 Q1668.37 235.318 1668.58 235.342 Q1668.79 235.365 1668.95 235.482 Q1669.14 235.599 1669.14 235.857 Q1669.14 236.513 1668.84 236.677 Q1668.55 236.817 1667.71 236.817 L1663.59 236.817 L1660.71 252.018 Q1660.64 252.463 1660.33 253.869 Q1660.05 255.251 1659.37 257.523 Q1658.69 259.818 1658.01 261.177 Q1657.64 261.95 1657.15 262.676 Q1656.68 263.425 1656 264.175 Q1655.32 264.924 1654.43 265.369 Q1653.54 265.838 1652.6 265.838 Q1651.01 265.838 1649.77 264.948 Q1648.53 264.058 1648.53 262.535 Q1648.53 261.247 1649.32 260.451 Q1650.14 259.654 1651.15 259.654 Q1651.88 259.654 1652.39 260.099 Q1652.93 260.544 1652.93 261.317 Q1652.93 261.645 1652.81 262.02 Q1652.7 262.395 1652.44 262.816 Q1652.18 263.261 1651.62 263.566 Q1651.06 263.87 1650.28 263.917 Q1651.2 264.784 1652.6 264.784 Q1653.05 264.784 1653.45 264.596 Q1653.85 264.432 1654.17 264.011 Q1654.52 263.589 1654.78 263.168 Q1655.04 262.769 1655.3 261.996 Q1655.56 261.247 1655.72 260.685 Q1655.88 260.123 1656.09 259.115 Q1656.33 258.108 1656.45 257.499 Q1656.56 256.914 1656.77 255.766 L1660.36 236.817 L1657.19 236.817 Q1656.63 236.817 1656.4 236.794 Q1656.19 236.77 1656.02 236.653 Q1655.86 236.513 1655.86 236.232 Q1655.86 235.787 1656.05 235.599 Q1656.26 235.389 1656.49 235.365 Q1656.73 235.318 1657.29 235.318 L1660.61 235.318 Q1661.74 229.392 1662.18 227.8 Q1662.7 226.113 1663.5 224.942 Q1664.29 223.748 1665.18 223.185 Q1666.07 222.623 1666.8 222.412 Q1667.55 222.178 1668.27 222.178 Q1669.91 222.178 1671.18 223.068 Q1672.44 223.935 1672.44 225.481 Z" fill="#000000" fill-rule="nonzero" fill-opacity="1" /><path clip-path="url(#clip830)" d="M1675.6 224.146 Q1675.6 222.951 1676.33 222.459 Q1677.05 221.944 1677.83 221.944 Q1678.79 221.944 1679.4 222.53 Q1680.03 223.092 1680.03 224.146 Q1680.03 224.614 1679.98 224.872 L1678.39 239.347 L1677.29 239.347 L1675.65 224.872 Q1675.6 224.614 1675.6 224.146 Z" fill="#000000" fill-rule="nonzero" fill-opacity="1" /><path clip-path="url(#clip830)" d="M1688.8 224.146 Q1688.8 222.951 1689.53 222.459 Q1690.25 221.944 1691.03 221.944 Q1691.99 221.944 1692.6 222.53 Q1693.23 223.092 1693.23 224.146 Q1693.23 224.614 1693.18 224.872 L1691.59 239.347 L1690.49 239.347 L1688.85 224.872 Q1688.8 224.614 1688.8 224.146 Z" fill="#000000" fill-rule="nonzero" fill-opacity="1" /><polyline clip-path="url(#clip830)" style="stroke:#000000; stroke-linecap:round; stroke-linejoin:round; stroke-width:8; stroke-opacity:1; fill:none" stroke-dasharray="32, 20" points="1515.67,295.842 1629.55,295.842 "/>
<path clip-path="url(#clip830)" d="M1654.15 309.186 L1670.47 309.186 L1670.47 313.122 L1648.53 313.122 L1648.53 309.186 Q1651.19 306.432 1655.77 301.802 Q1660.38 297.149 1661.56 295.807 Q1663.81 293.284 1664.69 291.548 Q1665.59 289.788 1665.59 288.099 Q1665.59 285.344 1663.64 283.608 Q1661.72 281.872 1658.62 281.872 Q1656.42 281.872 1653.97 282.636 Q1651.54 283.4 1648.76 284.95 L1648.76 280.228 Q1651.58 279.094 1654.04 278.515 Q1656.49 277.937 1658.53 277.937 Q1663.9 277.937 1667.09 280.622 Q1670.29 283.307 1670.29 287.798 Q1670.29 289.927 1669.48 291.849 Q1668.69 293.747 1666.58 296.339 Q1666.01 297.011 1662.9 300.228 Q1659.8 303.423 1654.15 309.186 Z" fill="#000000" fill-rule="nonzero" fill-opacity="1" /><path clip-path="url(#clip830)" d="M1701.24 297.474 L1701.24 313.122 L1696.98 313.122 L1696.98 297.612 Q1696.98 293.932 1695.54 292.103 Q1694.11 290.274 1691.24 290.274 Q1687.79 290.274 1685.8 292.474 Q1683.81 294.673 1683.81 298.469 L1683.81 313.122 L1679.52 313.122 L1679.52 287.196 L1683.81 287.196 L1683.81 291.224 Q1685.33 288.886 1687.39 287.728 Q1689.48 286.571 1692.19 286.571 Q1696.65 286.571 1698.94 289.349 Q1701.24 292.103 1701.24 297.474 Z" fill="#000000" fill-rule="nonzero" fill-opacity="1" /><path clip-path="url(#clip830)" d="M1726.79 291.131 L1726.79 277.103 L1731.05 277.103 L1731.05 313.122 L1726.79 313.122 L1726.79 309.233 Q1725.45 311.548 1723.39 312.682 Q1721.35 313.793 1718.48 313.793 Q1713.78 313.793 1710.82 310.043 Q1707.88 306.293 1707.88 300.182 Q1707.88 294.071 1710.82 290.321 Q1713.78 286.571 1718.48 286.571 Q1721.35 286.571 1723.39 287.705 Q1725.45 288.816 1726.79 291.131 M1712.28 300.182 Q1712.28 304.881 1714.2 307.566 Q1716.14 310.228 1719.52 310.228 Q1722.9 310.228 1724.85 307.566 Q1726.79 304.881 1726.79 300.182 Q1726.79 295.483 1724.85 292.821 Q1722.9 290.136 1719.52 290.136 Q1716.14 290.136 1714.2 292.821 Q1712.28 295.483 1712.28 300.182 Z" fill="#000000" fill-rule="nonzero" fill-opacity="1" /><path clip-path="url(#clip830)" d="M1764.94 290.182 Q1761.51 290.182 1759.52 292.867 Q1757.53 295.529 1757.53 300.182 Q1757.53 304.835 1759.5 307.52 Q1761.49 310.182 1764.94 310.182 Q1768.34 310.182 1770.33 307.497 Q1772.32 304.811 1772.32 300.182 Q1772.32 295.575 1770.33 292.89 Q1768.34 290.182 1764.94 290.182 M1764.94 286.571 Q1770.5 286.571 1773.67 290.182 Q1776.84 293.793 1776.84 300.182 Q1776.84 306.548 1773.67 310.182 Q1770.5 313.793 1764.94 313.793 Q1759.36 313.793 1756.19 310.182 Q1753.04 306.548 1753.04 300.182 Q1753.04 293.793 1756.19 290.182 Q1759.36 286.571 1764.94 286.571 Z" fill="#000000" fill-rule="nonzero" fill-opacity="1" /><path clip-path="url(#clip830)" d="M1798.92 291.177 Q1798.2 290.761 1797.35 290.575 Q1796.51 290.367 1795.5 290.367 Q1791.88 290.367 1789.94 292.728 Q1788.02 295.066 1788.02 299.464 L1788.02 313.122 L1783.74 313.122 L1783.74 287.196 L1788.02 287.196 L1788.02 291.224 Q1789.36 288.862 1791.51 287.728 Q1793.67 286.571 1796.75 286.571 Q1797.18 286.571 1797.72 286.64 Q1798.25 286.687 1798.9 286.802 L1798.92 291.177 Z" fill="#000000" fill-rule="nonzero" fill-opacity="1" /><path clip-path="url(#clip830)" d="M1819.62 291.131 L1819.62 277.103 L1823.87 277.103 L1823.87 313.122 L1819.62 313.122 L1819.62 309.233 Q1818.27 311.548 1816.21 312.682 Q1814.18 313.793 1811.31 313.793 Q1806.61 313.793 1803.64 310.043 Q1800.7 306.293 1800.7 300.182 Q1800.7 294.071 1803.64 290.321 Q1806.61 286.571 1811.31 286.571 Q1814.18 286.571 1816.21 287.705 Q1818.27 288.816 1819.62 291.131 M1805.1 300.182 Q1805.1 304.881 1807.02 307.566 Q1808.97 310.228 1812.35 310.228 Q1815.73 310.228 1817.67 307.566 Q1819.62 304.881 1819.62 300.182 Q1819.62 295.483 1817.67 292.821 Q1815.73 290.136 1812.35 290.136 Q1808.97 290.136 1807.02 292.821 Q1805.1 295.483 1805.1 300.182 Z" fill="#000000" fill-rule="nonzero" fill-opacity="1" /><path clip-path="url(#clip830)" d="M1854.82 299.094 L1854.82 301.177 L1835.24 301.177 Q1835.52 305.575 1837.88 307.89 Q1840.26 310.182 1844.5 310.182 Q1846.95 310.182 1849.24 309.58 Q1851.56 308.978 1853.83 307.774 L1853.83 311.802 Q1851.54 312.774 1849.13 313.284 Q1846.72 313.793 1844.24 313.793 Q1838.04 313.793 1834.41 310.182 Q1830.8 306.571 1830.8 300.413 Q1830.8 294.048 1834.22 290.321 Q1837.67 286.571 1843.5 286.571 Q1848.74 286.571 1851.77 289.95 Q1854.82 293.307 1854.82 299.094 M1850.56 297.844 Q1850.52 294.349 1848.6 292.265 Q1846.7 290.182 1843.55 290.182 Q1839.99 290.182 1837.83 292.196 Q1835.7 294.21 1835.38 297.867 L1850.56 297.844 Z" fill="#000000" fill-rule="nonzero" fill-opacity="1" /><path clip-path="url(#clip830)" d="M1876.84 291.177 Q1876.12 290.761 1875.26 290.575 Q1874.43 290.367 1873.41 290.367 Q1869.8 290.367 1867.86 292.728 Q1865.93 295.066 1865.93 299.464 L1865.93 313.122 L1861.65 313.122 L1861.65 287.196 L1865.93 287.196 L1865.93 291.224 Q1867.28 288.862 1869.43 287.728 Q1871.58 286.571 1874.66 286.571 Q1875.1 286.571 1875.63 286.64 Q1876.17 286.687 1876.81 286.802 L1876.84 291.177 Z" fill="#000000" fill-rule="nonzero" fill-opacity="1" /></svg>
