<?xml version="1.0" encoding="utf-8"?>
<svg xmlns="http://www.w3.org/2000/svg" xmlns:xlink="http://www.w3.org/1999/xlink" width="500" height="320" viewBox="0 0 2000 1280">
<defs>
  <clipPath id="clip160">
    <rect x="0" y="0" width="2000" height="1280"/>
  </clipPath>
</defs>
<path clip-path="url(#clip160)" d="M0 1280 L2000 1280 L2000 0 L0 0  Z" fill="#ffffff" fill-rule="evenodd" fill-opacity="1"/>
<defs>
  <clipPath id="clip161">
    <rect x="400" y="0" width="1401" height="1280"/>
  </clipPath>
</defs>
<path clip-path="url(#clip160)" d="M269.619 1111.02 L1952.76 1111.02 L1952.76 107.256 L269.619 107.256  Z" fill="#ffffff" fill-rule="evenodd" fill-opacity="1"/>
<defs>
  <clipPath id="clip162">
    <rect x="269" y="107" width="1684" height="1005"/>
  </clipPath>
</defs>
<polyline clip-path="url(#clip162)" style="stroke:#000000; stroke-linecap:round; stroke-linejoin:round; stroke-width:2; stroke-opacity:0.1; fill:none" points="593.406,1111.02 593.406,107.256 "/>
<polyline clip-path="url(#clip162)" style="stroke:#000000; stroke-linecap:round; stroke-linejoin:round; stroke-width:2; stroke-opacity:0.1; fill:none" points="938.594,1111.02 938.594,107.256 "/>
<polyline clip-path="url(#clip162)" style="stroke:#000000; stroke-linecap:round; stroke-linejoin:round; stroke-width:2; stroke-opacity:0.1; fill:none" points="1283.78,1111.02 1283.78,107.256 "/>
<polyline clip-path="url(#clip162)" style="stroke:#000000; stroke-linecap:round; stroke-linejoin:round; stroke-width:2; stroke-opacity:0.1; fill:none" points="1628.97,1111.02 1628.97,107.256 "/>
<polyline clip-path="url(#clip162)" style="stroke:#000000; stroke-linecap:round; stroke-linejoin:round; stroke-width:2; stroke-opacity:0.1; fill:none" points="269.619,973.035 1952.76,973.035 "/>
<polyline clip-path="url(#clip162)" style="stroke:#000000; stroke-linecap:round; stroke-linejoin:round; stroke-width:2; stroke-opacity:0.1; fill:none" points="269.619,553.018 1952.76,553.018 "/>
<polyline clip-path="url(#clip162)" style="stroke:#000000; stroke-linecap:round; stroke-linejoin:round; stroke-width:2; stroke-opacity:0.1; fill:none" points="269.619,133.001 1952.76,133.001 "/>
<polyline clip-path="url(#clip160)" style="stroke:#000000; stroke-linecap:round; stroke-linejoin:round; stroke-width:4; stroke-opacity:1; fill:none" points="269.619,1111.02 1952.76,1111.02 "/>
<polyline clip-path="url(#clip160)" style="stroke:#000000; stroke-linecap:round; stroke-linejoin:round; stroke-width:4; stroke-opacity:1; fill:none" points="593.406,1111.02 593.406,1092.12 "/>
<polyline clip-path="url(#clip160)" style="stroke:#000000; stroke-linecap:round; stroke-linejoin:round; stroke-width:4; stroke-opacity:1; fill:none" points="938.594,1111.02 938.594,1092.12 "/>
<polyline clip-path="url(#clip160)" style="stroke:#000000; stroke-linecap:round; stroke-linejoin:round; stroke-width:4; stroke-opacity:1; fill:none" points="1283.78,1111.02 1283.78,1092.12 "/>
<polyline clip-path="url(#clip160)" style="stroke:#000000; stroke-linecap:round; stroke-linejoin:round; stroke-width:4; stroke-opacity:1; fill:none" points="1628.97,1111.02 1628.97,1092.12 "/>
<path clip-path="url(#clip160)" d="M583.683 1135.66 L602.04 1135.66 L602.04 1139.59 L587.966 1139.59 L587.966 1148.07 Q588.984 1147.72 590.003 1147.56 Q591.021 1147.37 592.04 1147.37 Q597.827 1147.37 601.206 1150.54 Q604.586 1153.71 604.586 1159.13 Q604.586 1164.71 601.114 1167.81 Q597.642 1170.89 591.322 1170.89 Q589.146 1170.89 586.878 1170.52 Q584.632 1170.15 582.225 1169.41 L582.225 1164.71 Q584.308 1165.84 586.531 1166.4 Q588.753 1166.95 591.23 1166.95 Q595.234 1166.95 597.572 1164.85 Q599.91 1162.74 599.91 1159.13 Q599.91 1155.52 597.572 1153.41 Q595.234 1151.31 591.23 1151.31 Q589.355 1151.31 587.48 1151.72 Q585.628 1152.14 583.683 1153.02 L583.683 1135.66 Z" fill="#000000" fill-rule="nonzero" fill-opacity="1" /><path clip-path="url(#clip160)" d="M913.281 1166.28 L920.92 1166.28 L920.92 1139.92 L912.61 1141.58 L912.61 1137.33 L920.874 1135.66 L925.55 1135.66 L925.55 1166.28 L933.189 1166.28 L933.189 1170.22 L913.281 1170.22 L913.281 1166.28 Z" fill="#000000" fill-rule="nonzero" fill-opacity="1" /><path clip-path="url(#clip160)" d="M952.633 1138.74 Q949.022 1138.74 947.193 1142.3 Q945.388 1145.84 945.388 1152.97 Q945.388 1160.08 947.193 1163.64 Q949.022 1167.19 952.633 1167.19 Q956.267 1167.19 958.073 1163.64 Q959.901 1160.08 959.901 1152.97 Q959.901 1145.84 958.073 1142.3 Q956.267 1138.74 952.633 1138.74 M952.633 1135.03 Q958.443 1135.03 961.499 1139.64 Q964.577 1144.22 964.577 1152.97 Q964.577 1161.7 961.499 1166.31 Q958.443 1170.89 952.633 1170.89 Q946.823 1170.89 943.744 1166.31 Q940.688 1161.7 940.688 1152.97 Q940.688 1144.22 943.744 1139.64 Q946.823 1135.03 952.633 1135.03 Z" fill="#000000" fill-rule="nonzero" fill-opacity="1" /><path clip-path="url(#clip160)" d="M1258.97 1166.28 L1266.61 1166.28 L1266.61 1139.92 L1258.3 1141.58 L1258.3 1137.33 L1266.56 1135.66 L1271.24 1135.66 L1271.24 1166.28 L1278.87 1166.28 L1278.87 1170.22 L1258.97 1170.22 L1258.97 1166.28 Z" fill="#000000" fill-rule="nonzero" fill-opacity="1" /><path clip-path="url(#clip160)" d="M1288.36 1135.66 L1306.72 1135.66 L1306.72 1139.59 L1292.65 1139.59 L1292.65 1148.07 Q1293.67 1147.72 1294.68 1147.56 Q1295.7 1147.37 1296.72 1147.37 Q1302.51 1147.37 1305.89 1150.54 Q1309.27 1153.71 1309.27 1159.13 Q1309.27 1164.71 1305.8 1167.81 Q1302.32 1170.89 1296 1170.89 Q1293.83 1170.89 1291.56 1170.52 Q1289.31 1170.15 1286.91 1169.41 L1286.91 1164.71 Q1288.99 1165.84 1291.21 1166.4 Q1293.43 1166.95 1295.91 1166.95 Q1299.92 1166.95 1302.25 1164.85 Q1304.59 1162.74 1304.59 1159.13 Q1304.59 1155.52 1302.25 1153.41 Q1299.92 1151.31 1295.91 1151.31 Q1294.04 1151.31 1292.16 1151.72 Q1290.31 1152.14 1288.36 1153.02 L1288.36 1135.66 Z" fill="#000000" fill-rule="nonzero" fill-opacity="1" /><path clip-path="url(#clip160)" d="M1607.74 1166.28 L1624.06 1166.28 L1624.06 1170.22 L1602.12 1170.22 L1602.12 1166.28 Q1604.78 1163.53 1609.36 1158.9 Q1613.97 1154.25 1615.15 1152.9 Q1617.4 1150.38 1618.28 1148.64 Q1619.18 1146.89 1619.18 1145.2 Q1619.18 1142.44 1617.23 1140.7 Q1615.31 1138.97 1612.21 1138.97 Q1610.01 1138.97 1607.56 1139.73 Q1605.13 1140.5 1602.35 1142.05 L1602.35 1137.33 Q1605.17 1136.19 1607.63 1135.61 Q1610.08 1135.03 1612.12 1135.03 Q1617.49 1135.03 1620.68 1137.72 Q1623.88 1140.4 1623.88 1144.89 Q1623.88 1147.02 1623.07 1148.95 Q1622.28 1150.84 1620.17 1153.44 Q1619.59 1154.11 1616.49 1157.33 Q1613.39 1160.52 1607.74 1166.28 Z" fill="#000000" fill-rule="nonzero" fill-opacity="1" /><path clip-path="url(#clip160)" d="M1643.88 1138.74 Q1640.27 1138.74 1638.44 1142.3 Q1636.63 1145.84 1636.63 1152.97 Q1636.63 1160.08 1638.44 1163.64 Q1640.27 1167.19 1643.88 1167.19 Q1647.51 1167.19 1649.32 1163.64 Q1651.15 1160.08 1651.15 1152.97 Q1651.15 1145.84 1649.32 1142.3 Q1647.51 1138.74 1643.88 1138.74 M1643.88 1135.03 Q1649.69 1135.03 1652.74 1139.64 Q1655.82 1144.22 1655.82 1152.97 Q1655.82 1161.7 1652.74 1166.31 Q1649.69 1170.89 1643.88 1170.89 Q1638.07 1170.89 1634.99 1166.31 Q1631.93 1161.7 1631.93 1152.97 Q1631.93 1144.22 1634.99 1139.64 Q1638.07 1135.03 1643.88 1135.03 Z" fill="#000000" fill-rule="nonzero" fill-opacity="1" /><g clip-path="url(#clip160)">
<text style="fill:#000000; fill-opacity:1; font-family:Arial,Helvetica Neue,Helvetica,sans-serif; font-size:66px; text-anchor:middle;" transform="rotate(0, 1111.19, 1252.42)" x="1111.19" y="1252.42">iteration</text>
</g>
<polyline clip-path="url(#clip160)" style="stroke:#000000; stroke-linecap:round; stroke-linejoin:round; stroke-width:4; stroke-opacity:1; fill:none" points="269.619,1111.02 269.619,107.256 "/>
<polyline clip-path="url(#clip160)" style="stroke:#000000; stroke-linecap:round; stroke-linejoin:round; stroke-width:4; stroke-opacity:1; fill:none" points="269.619,973.035 288.517,973.035 "/>
<polyline clip-path="url(#clip160)" style="stroke:#000000; stroke-linecap:round; stroke-linejoin:round; stroke-width:4; stroke-opacity:1; fill:none" points="269.619,553.018 288.517,553.018 "/>
<polyline clip-path="url(#clip160)" style="stroke:#000000; stroke-linecap:round; stroke-linejoin:round; stroke-width:4; stroke-opacity:1; fill:none" points="269.619,133.001 288.517,133.001 "/>
<path clip-path="url(#clip160)" d="M113.675 992.828 L121.314 992.828 L121.314 966.462 L113.004 968.129 L113.004 963.87 L121.268 962.203 L125.944 962.203 L125.944 992.828 L133.583 992.828 L133.583 996.763 L113.675 996.763 L113.675 992.828 Z" fill="#000000" fill-rule="nonzero" fill-opacity="1" /><path clip-path="url(#clip160)" d="M153.027 965.282 Q149.416 965.282 147.587 968.846 Q145.782 972.388 145.782 979.518 Q145.782 986.624 147.587 990.189 Q149.416 993.731 153.027 993.731 Q156.661 993.731 158.467 990.189 Q160.295 986.624 160.295 979.518 Q160.295 972.388 158.467 968.846 Q156.661 965.282 153.027 965.282 M153.027 961.578 Q158.837 961.578 161.893 966.184 Q164.971 970.768 164.971 979.518 Q164.971 988.245 161.893 992.851 Q158.837 997.434 153.027 997.434 Q147.217 997.434 144.138 992.851 Q141.082 988.245 141.082 979.518 Q141.082 970.768 144.138 966.184 Q147.217 961.578 153.027 961.578 Z" fill="#000000" fill-rule="nonzero" fill-opacity="1" /><path clip-path="url(#clip160)" d="M164.971 955.679 L189.083 955.679 L189.083 958.877 L164.971 958.877 L164.971 955.679 Z" fill="#000000" fill-rule="nonzero" fill-opacity="1" /><path clip-path="url(#clip160)" d="M197.941 966.155 L204.148 966.155 L204.148 944.733 L197.396 946.087 L197.396 942.627 L204.11 941.273 L207.909 941.273 L207.909 966.155 L214.116 966.155 L214.116 969.353 L197.941 969.353 L197.941 966.155 Z" fill="#000000" fill-rule="nonzero" fill-opacity="1" /><path clip-path="url(#clip160)" d="M229.914 943.774 Q226.98 943.774 225.495 946.67 Q224.028 949.548 224.028 955.341 Q224.028 961.115 225.495 964.011 Q226.98 966.889 229.914 966.889 Q232.867 966.889 234.334 964.011 Q235.82 961.115 235.82 955.341 Q235.82 949.548 234.334 946.67 Q232.867 943.774 229.914 943.774 M229.914 940.765 Q234.635 940.765 237.118 944.508 Q239.619 948.231 239.619 955.341 Q239.619 962.431 237.118 966.174 Q234.635 969.898 229.914 969.898 Q225.194 969.898 222.692 966.174 Q220.21 962.431 220.21 955.341 Q220.21 948.231 222.692 944.508 Q225.194 940.765 229.914 940.765 Z" fill="#000000" fill-rule="nonzero" fill-opacity="1" /><path clip-path="url(#clip160)" d="M138.99 572.81 L146.629 572.81 L146.629 546.445 L138.319 548.111 L138.319 543.852 L146.583 542.186 L151.259 542.186 L151.259 572.81 L158.898 572.81 L158.898 576.746 L138.99 576.746 L138.99 572.81 Z" fill="#000000" fill-rule="nonzero" fill-opacity="1" /><path clip-path="url(#clip160)" d="M178.342 545.264 Q174.731 545.264 172.902 548.829 Q171.097 552.371 171.097 559.5 Q171.097 566.607 172.902 570.172 Q174.731 573.713 178.342 573.713 Q181.976 573.713 183.782 570.172 Q185.611 566.607 185.611 559.5 Q185.611 552.371 183.782 548.829 Q181.976 545.264 178.342 545.264 M178.342 541.561 Q184.152 541.561 187.208 546.167 Q190.286 550.75 190.286 559.5 Q190.286 568.227 187.208 572.834 Q184.152 577.417 178.342 577.417 Q172.532 577.417 169.453 572.834 Q166.398 568.227 166.398 559.5 Q166.398 550.75 169.453 546.167 Q172.532 541.561 178.342 541.561 Z" fill="#000000" fill-rule="nonzero" fill-opacity="1" /><path clip-path="url(#clip160)" d="M190.286 535.662 L214.398 535.662 L214.398 538.859 L190.286 538.859 L190.286 535.662 Z" fill="#000000" fill-rule="nonzero" fill-opacity="1" /><path clip-path="url(#clip160)" d="M222.636 521.255 L237.55 521.255 L237.55 524.452 L226.115 524.452 L226.115 531.336 Q226.943 531.054 227.77 530.922 Q228.598 530.772 229.425 530.772 Q234.127 530.772 236.873 533.349 Q239.619 535.925 239.619 540.326 Q239.619 544.859 236.798 547.379 Q233.977 549.881 228.842 549.881 Q227.074 549.881 225.231 549.58 Q223.407 549.279 221.451 548.677 L221.451 544.859 Q223.144 545.781 224.949 546.232 Q226.755 546.683 228.767 546.683 Q232.021 546.683 233.921 544.972 Q235.82 543.26 235.82 540.326 Q235.82 537.392 233.921 535.681 Q232.021 533.969 228.767 533.969 Q227.244 533.969 225.72 534.308 Q224.216 534.646 222.636 535.361 L222.636 521.255 Z" fill="#000000" fill-rule="nonzero" fill-opacity="1" /><path clip-path="url(#clip160)" d="M168.914 152.793 L176.552 152.793 L176.552 126.427 L168.242 128.094 L168.242 123.835 L176.506 122.168 L181.182 122.168 L181.182 152.793 L188.821 152.793 L188.821 156.728 L168.914 156.728 L168.914 152.793 Z" fill="#000000" fill-rule="nonzero" fill-opacity="1" /><path clip-path="url(#clip160)" d="M208.265 125.247 Q204.654 125.247 202.825 128.812 Q201.02 132.353 201.02 139.483 Q201.02 146.589 202.825 150.154 Q204.654 153.696 208.265 153.696 Q211.9 153.696 213.705 150.154 Q215.534 146.589 215.534 139.483 Q215.534 132.353 213.705 128.812 Q211.9 125.247 208.265 125.247 M208.265 121.543 Q214.075 121.543 217.131 126.15 Q220.21 130.733 220.21 139.483 Q220.21 148.21 217.131 152.816 Q214.075 157.399 208.265 157.399 Q202.455 157.399 199.376 152.816 Q196.321 148.21 196.321 139.483 Q196.321 130.733 199.376 126.15 Q202.455 121.543 208.265 121.543 Z" fill="#000000" fill-rule="nonzero" fill-opacity="1" /><path clip-path="url(#clip160)" d="M229.914 103.739 Q226.98 103.739 225.495 106.636 Q224.028 109.513 224.028 115.306 Q224.028 121.08 225.495 123.976 Q226.98 126.854 229.914 126.854 Q232.867 126.854 234.334 123.976 Q235.82 121.08 235.82 115.306 Q235.82 109.513 234.334 106.636 Q232.867 103.739 229.914 103.739 M229.914 100.73 Q234.635 100.73 237.118 104.473 Q239.619 108.197 239.619 115.306 Q239.619 122.396 237.118 126.139 Q234.635 129.863 229.914 129.863 Q225.194 129.863 222.692 126.139 Q220.21 122.396 220.21 115.306 Q220.21 108.197 222.692 104.473 Q225.194 100.73 229.914 100.73 Z" fill="#000000" fill-rule="nonzero" fill-opacity="1" /><g clip-path="url(#clip160)">
<text style="fill:#000000; fill-opacity:1; font-family:Arial,Helvetica Neue,Helvetica,sans-serif; font-size:66px; text-anchor:middle;" transform="rotate(-90, 71.4418, 609.137)" x="71.4418" y="609.137">error</text>
</g>
<g clip-path="url(#clip160)">
<text style="fill:#000000; fill-opacity:1; font-family:Arial,Helvetica Neue,Helvetica,sans-serif; font-size:66px; text-anchor:middle;" transform="rotate(0, 1111.19, 57.6)" x="1111.19" y="57.6">Convergence of Gauss–Newton</text>
</g>
<polyline clip-path="url(#clip162)" style="stroke:#009af9; stroke-linecap:round; stroke-linejoin:round; stroke-width:8; stroke-opacity:1; fill:none" points="317.255,140.769 386.293,145.962 455.33,172.057 524.368,209.111 593.406,254.468 662.443,323.448 731.481,431.314 800.518,605.996 869.556,888.083 "/>
<polyline clip-path="url(#clip162)" style="stroke:#e26f46; stroke-linecap:round; stroke-linejoin:round; stroke-width:8; stroke-opacity:1; fill:none" points="317.255,140.365 386.293,145.528 455.33,171.391 524.368,207.821 593.406,252.138 662.443,319.171 731.481,423.647 800.518,521.792 869.556,522.164 938.594,522.164 1007.63,522.164 1076.67,522.164 1145.71,522.164 1214.74,522.164 1283.78,711.058 1352.82,736.014 1421.86,788.713 1490.89,788.867 1559.93,792.354 1628.97,871.726 1698.01,882.862 1767.04,882.744 1836.08,977.794 1905.12,1082.61 "/>
<polyline clip-path="url(#clip162)" style="stroke:#3da44d; stroke-linecap:round; stroke-linejoin:round; stroke-width:8; stroke-opacity:1; fill:none" points="317.255,135.664 386.293,140.444 455.33,163.445 524.368,192.771 593.406,225.301 662.443,269.931 731.481,331.58 800.518,358.133 869.556,358.359 938.594,471.226 1007.63,491.813 1076.67,605.772 1145.71,569.187 1214.74,587.969 1283.78,624.608 1352.82,624.998 1421.86,624.998 1490.89,736.842 1559.93,760.125 1628.97,747.175 1698.01,767.548 1767.04,841.852 1836.08,858.994 1905.12,903.062 "/>
<path clip-path="url(#clip160)" d="M1467.53 348.075 L1896.65 348.075 L1896.65 140.715 L1467.53 140.715  Z" fill="#ffffff" fill-rule="evenodd" fill-opacity="1"/>
<polyline clip-path="url(#clip160)" style="stroke:#000000; stroke-linecap:round; stroke-linejoin:round; stroke-width:4; stroke-opacity:1; fill:none" points="1467.53,348.075 1896.65,348.075 1896.65,140.715 1467.53,140.715 1467.53,348.075 "/>
<polyline clip-path="url(#clip160)" style="stroke:#009af9; stroke-linecap:round; stroke-linejoin:round; stroke-width:8; stroke-opacity:1; fill:none" points="1486.23,192.555 1598.44,192.555 "/>
<path clip-path="url(#clip160)" d="M1633.53 193.631 Q1635.03 194.14 1636.45 195.807 Q1637.88 197.474 1639.32 200.39 L1644.06 209.835 L1639.04 209.835 L1634.62 200.969 Q1632.9 197.497 1631.28 196.362 Q1629.69 195.228 1626.91 195.228 L1621.82 195.228 L1621.82 209.835 L1617.14 209.835 L1617.14 175.275 L1627.7 175.275 Q1633.62 175.275 1636.54 177.751 Q1639.46 180.228 1639.46 185.228 Q1639.46 188.492 1637.93 190.645 Q1636.42 192.798 1633.53 193.631 M1621.82 179.117 L1621.82 191.386 L1627.7 191.386 Q1631.08 191.386 1632.79 189.835 Q1634.53 188.261 1634.53 185.228 Q1634.53 182.196 1632.79 180.668 Q1631.08 179.117 1627.7 179.117 L1621.82 179.117 Z" fill="#000000" fill-rule="nonzero" fill-opacity="1" /><path clip-path="url(#clip160)" d="M1650.45 188.307 L1680.13 188.307 L1680.13 192.196 L1650.45 192.196 L1650.45 188.307 M1650.45 197.751 L1680.13 197.751 L1680.13 201.687 L1650.45 201.687 L1650.45 197.751 Z" fill="#000000" fill-rule="nonzero" fill-opacity="1" /><path clip-path="url(#clip160)" d="M1700.22 178.353 Q1696.61 178.353 1694.78 181.918 Q1692.97 185.46 1692.97 192.589 Q1692.97 199.696 1694.78 203.261 Q1696.61 206.802 1700.22 206.802 Q1703.85 206.802 1705.66 203.261 Q1707.49 199.696 1707.49 192.589 Q1707.49 185.46 1705.66 181.918 Q1703.85 178.353 1700.22 178.353 M1700.22 174.65 Q1706.03 174.65 1709.08 179.256 Q1712.16 183.839 1712.16 192.589 Q1712.16 201.316 1709.08 205.923 Q1706.03 210.506 1700.22 210.506 Q1694.41 210.506 1691.33 205.923 Q1688.27 201.316 1688.27 192.589 Q1688.27 183.839 1691.33 179.256 Q1694.41 174.65 1700.22 174.65 Z" fill="#000000" fill-rule="nonzero" fill-opacity="1" /><path clip-path="url(#clip160)" d="M1720.38 203.955 L1725.27 203.955 L1725.27 209.835 L1720.38 209.835 L1720.38 203.955 Z" fill="#000000" fill-rule="nonzero" fill-opacity="1" /><path clip-path="url(#clip160)" d="M1745.45 178.353 Q1741.84 178.353 1740.01 181.918 Q1738.21 185.46 1738.21 192.589 Q1738.21 199.696 1740.01 203.261 Q1741.84 206.802 1745.45 206.802 Q1749.08 206.802 1750.89 203.261 Q1752.72 199.696 1752.72 192.589 Q1752.72 185.46 1750.89 181.918 Q1749.08 178.353 1745.45 178.353 M1745.45 174.65 Q1751.26 174.65 1754.32 179.256 Q1757.39 183.839 1757.39 192.589 Q1757.39 201.316 1754.32 205.923 Q1751.26 210.506 1745.45 210.506 Q1739.64 210.506 1736.56 205.923 Q1733.51 201.316 1733.51 192.589 Q1733.51 183.839 1736.56 179.256 Q1739.64 174.65 1745.45 174.65 Z" fill="#000000" fill-rule="nonzero" fill-opacity="1" /><path clip-path="url(#clip160)" d="M1775.61 178.353 Q1772 178.353 1770.17 181.918 Q1768.37 185.46 1768.37 192.589 Q1768.37 199.696 1770.17 203.261 Q1772 206.802 1775.61 206.802 Q1779.25 206.802 1781.05 203.261 Q1782.88 199.696 1782.88 192.589 Q1782.88 185.46 1781.05 181.918 Q1779.25 178.353 1775.61 178.353 M1775.61 174.65 Q1781.42 174.65 1784.48 179.256 Q1787.56 183.839 1787.56 192.589 Q1787.56 201.316 1784.48 205.923 Q1781.42 210.506 1775.61 210.506 Q1769.8 210.506 1766.72 205.923 Q1763.67 201.316 1763.67 192.589 Q1763.67 183.839 1766.72 179.256 Q1769.8 174.65 1775.61 174.65 Z" fill="#000000" fill-rule="nonzero" fill-opacity="1" /><path clip-path="url(#clip160)" d="M1805.77 178.353 Q1802.16 178.353 1800.33 181.918 Q1798.53 185.46 1798.53 192.589 Q1798.53 199.696 1800.33 203.261 Q1802.16 206.802 1805.77 206.802 Q1809.41 206.802 1811.21 203.261 Q1813.04 199.696 1813.04 192.589 Q1813.04 185.46 1811.21 181.918 Q1809.41 178.353 1805.77 178.353 M1805.77 174.65 Q1811.58 174.65 1814.64 179.256 Q1817.72 183.839 1817.72 192.589 Q1817.72 201.316 1814.64 205.923 Q1811.58 210.506 1805.77 210.506 Q1799.96 210.506 1796.89 205.923 Q1793.83 201.316 1793.83 192.589 Q1793.83 183.839 1796.89 179.256 Q1799.96 174.65 1805.77 174.65 Z" fill="#000000" fill-rule="nonzero" fill-opacity="1" /><path clip-path="url(#clip160)" d="M1825.98 175.275 L1844.34 175.275 L1844.34 179.21 L1830.26 179.21 L1830.26 187.682 Q1831.28 187.335 1832.3 187.173 Q1833.32 186.988 1834.34 186.988 Q1840.13 186.988 1843.51 190.159 Q1846.89 193.33 1846.89 198.747 Q1846.89 204.325 1843.41 207.427 Q1839.94 210.506 1833.62 210.506 Q1831.45 210.506 1829.18 210.136 Q1826.93 209.765 1824.52 209.024 L1824.52 204.325 Q1826.61 205.46 1828.83 206.015 Q1831.05 206.571 1833.53 206.571 Q1837.53 206.571 1839.87 204.464 Q1842.21 202.358 1842.21 198.747 Q1842.21 195.136 1839.87 193.029 Q1837.53 190.923 1833.53 190.923 Q1831.65 190.923 1829.78 191.339 Q1827.93 191.756 1825.98 192.636 L1825.98 175.275 Z" fill="#000000" fill-rule="nonzero" fill-opacity="1" /><path clip-path="url(#clip160)" d="M1866.1 193.423 Q1862.76 193.423 1860.84 195.205 Q1858.95 196.987 1858.95 200.112 Q1858.95 203.237 1860.84 205.02 Q1862.76 206.802 1866.1 206.802 Q1869.43 206.802 1871.35 205.02 Q1873.27 203.214 1873.27 200.112 Q1873.27 196.987 1871.35 195.205 Q1869.45 193.423 1866.1 193.423 M1861.42 191.432 Q1858.41 190.691 1856.72 188.631 Q1855.06 186.571 1855.06 183.608 Q1855.06 179.464 1858 177.057 Q1860.96 174.65 1866.1 174.65 Q1871.26 174.65 1874.2 177.057 Q1877.14 179.464 1877.14 183.608 Q1877.14 186.571 1875.45 188.631 Q1873.78 190.691 1870.8 191.432 Q1874.18 192.219 1876.05 194.511 Q1877.95 196.802 1877.95 200.112 Q1877.95 205.136 1874.87 207.821 Q1871.82 210.506 1866.1 210.506 Q1860.38 210.506 1857.3 207.821 Q1854.25 205.136 1854.25 200.112 Q1854.25 196.802 1856.14 194.511 Q1858.04 192.219 1861.42 191.432 M1859.71 184.048 Q1859.71 186.733 1861.38 188.238 Q1863.07 189.742 1866.1 189.742 Q1869.11 189.742 1870.8 188.238 Q1872.51 186.733 1872.51 184.048 Q1872.51 181.363 1870.8 179.858 Q1869.11 178.353 1866.1 178.353 Q1863.07 178.353 1861.38 179.858 Q1859.71 181.363 1859.71 184.048 Z" fill="#000000" fill-rule="nonzero" fill-opacity="1" /><polyline clip-path="url(#clip160)" style="stroke:#e26f46; stroke-linecap:round; stroke-linejoin:round; stroke-width:8; stroke-opacity:1; fill:none" points="1486.23,244.395 1598.44,244.395 "/>
<path clip-path="url(#clip160)" d="M1633.53 245.471 Q1635.03 245.98 1636.45 247.647 Q1637.88 249.314 1639.32 252.23 L1644.06 261.675 L1639.04 261.675 L1634.62 252.809 Q1632.9 249.337 1631.28 248.202 Q1629.69 247.068 1626.91 247.068 L1621.82 247.068 L1621.82 261.675 L1617.14 261.675 L1617.14 227.115 L1627.7 227.115 Q1633.62 227.115 1636.54 229.591 Q1639.46 232.068 1639.46 237.068 Q1639.46 240.332 1637.93 242.485 Q1636.42 244.638 1633.53 245.471 M1621.82 230.957 L1621.82 243.226 L1627.7 243.226 Q1631.08 243.226 1632.79 241.675 Q1634.53 240.101 1634.53 237.068 Q1634.53 234.036 1632.79 232.508 Q1631.08 230.957 1627.7 230.957 L1621.82 230.957 Z" fill="#000000" fill-rule="nonzero" fill-opacity="1" /><path clip-path="url(#clip160)" d="M1650.45 240.147 L1680.13 240.147 L1680.13 244.036 L1650.45 244.036 L1650.45 240.147 M1650.45 249.591 L1680.13 249.591 L1680.13 253.527 L1650.45 253.527 L1650.45 249.591 Z" fill="#000000" fill-rule="nonzero" fill-opacity="1" /><path clip-path="url(#clip160)" d="M1700.22 230.193 Q1696.61 230.193 1694.78 233.758 Q1692.97 237.3 1692.97 244.429 Q1692.97 251.536 1694.78 255.101 Q1696.61 258.642 1700.22 258.642 Q1703.85 258.642 1705.66 255.101 Q1707.49 251.536 1707.49 244.429 Q1707.49 237.3 1705.66 233.758 Q1703.85 230.193 1700.22 230.193 M1700.22 226.49 Q1706.03 226.49 1709.08 231.096 Q1712.16 235.679 1712.16 244.429 Q1712.16 253.156 1709.08 257.763 Q1706.03 262.346 1700.22 262.346 Q1694.41 262.346 1691.33 257.763 Q1688.27 253.156 1688.27 244.429 Q1688.27 235.679 1691.33 231.096 Q1694.41 226.49 1700.22 226.49 Z" fill="#000000" fill-rule="nonzero" fill-opacity="1" /><path clip-path="url(#clip160)" d="M1720.38 255.795 L1725.27 255.795 L1725.27 261.675 L1720.38 261.675 L1720.38 255.795 Z" fill="#000000" fill-rule="nonzero" fill-opacity="1" /><path clip-path="url(#clip160)" d="M1745.45 230.193 Q1741.84 230.193 1740.01 233.758 Q1738.21 237.3 1738.21 244.429 Q1738.21 251.536 1740.01 255.101 Q1741.84 258.642 1745.45 258.642 Q1749.08 258.642 1750.89 255.101 Q1752.72 251.536 1752.72 244.429 Q1752.72 237.3 1750.89 233.758 Q1749.08 230.193 1745.45 230.193 M1745.45 226.49 Q1751.26 226.49 1754.32 231.096 Q1757.39 235.679 1757.39 244.429 Q1757.39 253.156 1754.32 257.763 Q1751.26 262.346 1745.45 262.346 Q1739.64 262.346 1736.56 257.763 Q1733.51 253.156 1733.51 244.429 Q1733.51 235.679 1736.56 231.096 Q1739.64 226.49 1745.45 226.49 Z" fill="#000000" fill-rule="nonzero" fill-opacity="1" /><path clip-path="url(#clip160)" d="M1775.61 230.193 Q1772 230.193 1770.17 233.758 Q1768.37 237.3 1768.37 244.429 Q1768.37 251.536 1770.17 255.101 Q1772 258.642 1775.61 258.642 Q1779.25 258.642 1781.05 255.101 Q1782.88 251.536 1782.88 244.429 Q1782.88 237.3 1781.05 233.758 Q1779.25 230.193 1775.61 230.193 M1775.61 226.49 Q1781.42 226.49 1784.48 231.096 Q1787.56 235.679 1787.56 244.429 Q1787.56 253.156 1784.48 257.763 Q1781.42 262.346 1775.61 262.346 Q1769.8 262.346 1766.72 257.763 Q1763.67 253.156 1763.67 244.429 Q1763.67 235.679 1766.72 231.096 Q1769.8 226.49 1775.61 226.49 Z" fill="#000000" fill-rule="nonzero" fill-opacity="1" /><path clip-path="url(#clip160)" d="M1795.82 227.115 L1814.18 227.115 L1814.18 231.05 L1800.1 231.05 L1800.1 239.522 Q1801.12 239.175 1802.14 239.013 Q1803.16 238.828 1804.18 238.828 Q1809.96 238.828 1813.34 241.999 Q1816.72 245.17 1816.72 250.587 Q1816.72 256.165 1813.25 259.267 Q1809.78 262.346 1803.46 262.346 Q1801.28 262.346 1799.02 261.976 Q1796.77 261.605 1794.36 260.864 L1794.36 256.165 Q1796.45 257.3 1798.67 257.855 Q1800.89 258.411 1803.37 258.411 Q1807.37 258.411 1809.71 256.304 Q1812.05 254.198 1812.05 250.587 Q1812.05 246.976 1809.71 244.869 Q1807.37 242.763 1803.37 242.763 Q1801.49 242.763 1799.62 243.179 Q1797.77 243.596 1795.82 244.476 L1795.82 227.115 Z" fill="#000000" fill-rule="nonzero" fill-opacity="1" /><path clip-path="url(#clip160)" d="M1835.94 245.263 Q1832.6 245.263 1830.68 247.045 Q1828.78 248.827 1828.78 251.952 Q1828.78 255.077 1830.68 256.86 Q1832.6 258.642 1835.94 258.642 Q1839.27 258.642 1841.19 256.86 Q1843.11 255.054 1843.11 251.952 Q1843.11 248.827 1841.19 247.045 Q1839.29 245.263 1835.94 245.263 M1831.26 243.272 Q1828.25 242.531 1826.56 240.471 Q1824.89 238.411 1824.89 235.448 Q1824.89 231.304 1827.83 228.897 Q1830.8 226.49 1835.94 226.49 Q1841.1 226.49 1844.04 228.897 Q1846.98 231.304 1846.98 235.448 Q1846.98 238.411 1845.29 240.471 Q1843.62 242.531 1840.64 243.272 Q1844.01 244.059 1845.89 246.351 Q1847.79 248.642 1847.79 251.952 Q1847.79 256.976 1844.71 259.661 Q1841.65 262.346 1835.94 262.346 Q1830.22 262.346 1827.14 259.661 Q1824.08 256.976 1824.08 251.952 Q1824.08 248.642 1825.98 246.351 Q1827.88 244.059 1831.26 243.272 M1829.55 235.888 Q1829.55 238.573 1831.21 240.078 Q1832.9 241.582 1835.94 241.582 Q1838.95 241.582 1840.64 240.078 Q1842.35 238.573 1842.35 235.888 Q1842.35 233.203 1840.64 231.698 Q1838.95 230.193 1835.94 230.193 Q1832.9 230.193 1831.21 231.698 Q1829.55 233.203 1829.55 235.888 Z" fill="#000000" fill-rule="nonzero" fill-opacity="1" /><polyline clip-path="url(#clip160)" style="stroke:#3da44d; stroke-linecap:round; stroke-linejoin:round; stroke-width:8; stroke-opacity:1; fill:none" points="1486.23,296.235 1598.44,296.235 "/>
<path clip-path="url(#clip160)" d="M1633.53 297.311 Q1635.03 297.82 1636.45 299.487 Q1637.88 301.154 1639.32 304.07 L1644.06 313.515 L1639.04 313.515 L1634.62 304.649 Q1632.9 301.177 1631.28 300.042 Q1629.69 298.908 1626.91 298.908 L1621.82 298.908 L1621.82 313.515 L1617.14 313.515 L1617.14 278.955 L1627.7 278.955 Q1633.62 278.955 1636.54 281.431 Q1639.46 283.908 1639.46 288.908 Q1639.46 292.172 1637.93 294.325 Q1636.42 296.478 1633.53 297.311 M1621.82 282.797 L1621.82 295.066 L1627.7 295.066 Q1631.08 295.066 1632.79 293.515 Q1634.53 291.941 1634.53 288.908 Q1634.53 285.876 1632.79 284.348 Q1631.08 282.797 1627.7 282.797 L1621.82 282.797 Z" fill="#000000" fill-rule="nonzero" fill-opacity="1" /><path clip-path="url(#clip160)" d="M1650.45 291.987 L1680.13 291.987 L1680.13 295.876 L1650.45 295.876 L1650.45 291.987 M1650.45 301.431 L1680.13 301.431 L1680.13 305.367 L1650.45 305.367 L1650.45 301.431 Z" fill="#000000" fill-rule="nonzero" fill-opacity="1" /><path clip-path="url(#clip160)" d="M1700.22 282.033 Q1696.61 282.033 1694.78 285.598 Q1692.97 289.14 1692.97 296.269 Q1692.97 303.376 1694.78 306.941 Q1696.61 310.482 1700.22 310.482 Q1703.85 310.482 1705.66 306.941 Q1707.49 303.376 1707.49 296.269 Q1707.49 289.14 1705.66 285.598 Q1703.85 282.033 1700.22 282.033 M1700.22 278.33 Q1706.03 278.33 1709.08 282.936 Q1712.16 287.519 1712.16 296.269 Q1712.16 304.996 1709.08 309.603 Q1706.03 314.186 1700.22 314.186 Q1694.41 314.186 1691.33 309.603 Q1688.27 304.996 1688.27 296.269 Q1688.27 287.519 1691.33 282.936 Q1694.41 278.33 1700.22 278.33 Z" fill="#000000" fill-rule="nonzero" fill-opacity="1" /><path clip-path="url(#clip160)" d="M1720.38 307.635 L1725.27 307.635 L1725.27 313.515 L1720.38 313.515 L1720.38 307.635 Z" fill="#000000" fill-rule="nonzero" fill-opacity="1" /><path clip-path="url(#clip160)" d="M1745.45 282.033 Q1741.84 282.033 1740.01 285.598 Q1738.21 289.14 1738.21 296.269 Q1738.21 303.376 1740.01 306.941 Q1741.84 310.482 1745.45 310.482 Q1749.08 310.482 1750.89 306.941 Q1752.72 303.376 1752.72 296.269 Q1752.72 289.14 1750.89 285.598 Q1749.08 282.033 1745.45 282.033 M1745.45 278.33 Q1751.26 278.33 1754.32 282.936 Q1757.39 287.519 1757.39 296.269 Q1757.39 304.996 1754.32 309.603 Q1751.26 314.186 1745.45 314.186 Q1739.64 314.186 1736.56 309.603 Q1733.51 304.996 1733.51 296.269 Q1733.51 287.519 1736.56 282.936 Q1739.64 278.33 1745.45 278.33 Z" fill="#000000" fill-rule="nonzero" fill-opacity="1" /><path clip-path="url(#clip160)" d="M1765.66 278.955 L1784.02 278.955 L1784.02 282.89 L1769.94 282.89 L1769.94 291.362 Q1770.96 291.015 1771.98 290.853 Q1773 290.668 1774.02 290.668 Q1779.8 290.668 1783.18 293.839 Q1786.56 297.01 1786.56 302.427 Q1786.56 308.005 1783.09 311.107 Q1779.62 314.186 1773.3 314.186 Q1771.12 314.186 1768.85 313.816 Q1766.61 313.445 1764.2 312.704 L1764.2 308.005 Q1766.28 309.14 1768.51 309.695 Q1770.73 310.251 1773.21 310.251 Q1777.21 310.251 1779.55 308.144 Q1781.89 306.038 1781.89 302.427 Q1781.89 298.816 1779.55 296.709 Q1777.21 294.603 1773.21 294.603 Q1771.33 294.603 1769.46 295.019 Q1767.6 295.436 1765.66 296.316 L1765.66 278.955 Z" fill="#000000" fill-rule="nonzero" fill-opacity="1" /><path clip-path="url(#clip160)" d="M1806.35 294.371 Q1803.2 294.371 1801.35 296.524 Q1799.52 298.677 1799.52 302.427 Q1799.52 306.154 1801.35 308.329 Q1803.2 310.482 1806.35 310.482 Q1809.5 310.482 1811.33 308.329 Q1813.18 306.154 1813.18 302.427 Q1813.18 298.677 1811.33 296.524 Q1809.5 294.371 1806.35 294.371 M1815.64 279.719 L1815.64 283.978 Q1813.88 283.144 1812.07 282.705 Q1810.29 282.265 1808.53 282.265 Q1803.9 282.265 1801.45 285.39 Q1799.02 288.515 1798.67 294.834 Q1800.03 292.82 1802.09 291.755 Q1804.15 290.668 1806.63 290.668 Q1811.84 290.668 1814.85 293.839 Q1817.88 296.987 1817.88 302.427 Q1817.88 307.751 1814.73 310.968 Q1811.58 314.186 1806.35 314.186 Q1800.36 314.186 1797.19 309.603 Q1794.02 304.996 1794.02 296.269 Q1794.02 288.075 1797.9 283.214 Q1801.79 278.33 1808.34 278.33 Q1810.1 278.33 1811.89 278.677 Q1813.69 279.024 1815.64 279.719 Z" fill="#000000" fill-rule="nonzero" fill-opacity="1" /></svg>
