<?xml version="1.0" encoding="utf-8"?>
<svg xmlns="http://www.w3.org/2000/svg" xmlns:xlink="http://www.w3.org/1999/xlink" width="500" height="320" viewBox="0 0 2000 1280">
<defs>
  <clipPath id="clip630">
    <rect x="0" y="0" width="2000" height="1280"/>
  </clipPath>
</defs>
<path clip-path="url(#clip630)" d="M0 1280 L2000 1280 L2000 0 L0 0  Z" fill="#ffffff" fill-rule="evenodd" fill-opacity="1"/>
<defs>
  <clipPath id="clip631">
    <rect x="400" y="0" width="1401" height="1280"/>
  </clipPath>
</defs>
<path clip-path="url(#clip630)" d="M245.244 1111.02 L1952.76 1111.02 L1952.76 107.256 L245.244 107.256  Z" fill="#ffffff" fill-rule="evenodd" fill-opacity="1"/>
<defs>
  <clipPath id="clip632">
    <rect x="245" y="107" width="1709" height="1005"/>
  </clipPath>
</defs>
<polyline clip-path="url(#clip632)" style="stroke:#000000; stroke-linecap:round; stroke-linejoin:round; stroke-width:2; stroke-opacity:0.1; fill:none" points="293.57,1111.02 293.57,107.256 "/>
<polyline clip-path="url(#clip632)" style="stroke:#000000; stroke-linecap:round; stroke-linejoin:round; stroke-width:2; stroke-opacity:0.1; fill:none" points="602.164,1111.02 602.164,107.256 "/>
<polyline clip-path="url(#clip632)" style="stroke:#000000; stroke-linecap:round; stroke-linejoin:round; stroke-width:2; stroke-opacity:0.1; fill:none" points="910.758,1111.02 910.758,107.256 "/>
<polyline clip-path="url(#clip632)" style="stroke:#000000; stroke-linecap:round; stroke-linejoin:round; stroke-width:2; stroke-opacity:0.1; fill:none" points="1219.35,1111.02 1219.35,107.256 "/>
<polyline clip-path="url(#clip632)" style="stroke:#000000; stroke-linecap:round; stroke-linejoin:round; stroke-width:2; stroke-opacity:0.1; fill:none" points="1527.95,1111.02 1527.95,107.256 "/>
<polyline clip-path="url(#clip632)" style="stroke:#000000; stroke-linecap:round; stroke-linejoin:round; stroke-width:2; stroke-opacity:0.1; fill:none" points="1836.54,1111.02 1836.54,107.256 "/>
<polyline clip-path="url(#clip632)" style="stroke:#000000; stroke-linecap:round; stroke-linejoin:round; stroke-width:2; stroke-opacity:0.1; fill:none" points="245.244,1079.97 1952.76,1079.97 "/>
<polyline clip-path="url(#clip632)" style="stroke:#000000; stroke-linecap:round; stroke-linejoin:round; stroke-width:2; stroke-opacity:0.1; fill:none" points="245.244,572.913 1952.76,572.913 "/>
<polyline clip-path="url(#clip630)" style="stroke:#000000; stroke-linecap:round; stroke-linejoin:round; stroke-width:4; stroke-opacity:1; fill:none" points="245.244,1111.02 1952.76,1111.02 "/>
<polyline clip-path="url(#clip630)" style="stroke:#000000; stroke-linecap:round; stroke-linejoin:round; stroke-width:4; stroke-opacity:1; fill:none" points="293.57,1111.02 293.57,1092.12 "/>
<polyline clip-path="url(#clip630)" style="stroke:#000000; stroke-linecap:round; stroke-linejoin:round; stroke-width:4; stroke-opacity:1; fill:none" points="602.164,1111.02 602.164,1092.12 "/>
<polyline clip-path="url(#clip630)" style="stroke:#000000; stroke-linecap:round; stroke-linejoin:round; stroke-width:4; stroke-opacity:1; fill:none" points="910.758,1111.02 910.758,1092.12 "/>
<polyline clip-path="url(#clip630)" style="stroke:#000000; stroke-linecap:round; stroke-linejoin:round; stroke-width:4; stroke-opacity:1; fill:none" points="1219.35,1111.02 1219.35,1092.12 "/>
<polyline clip-path="url(#clip630)" style="stroke:#000000; stroke-linecap:round; stroke-linejoin:round; stroke-width:4; stroke-opacity:1; fill:none" points="1527.95,1111.02 1527.95,1092.12 "/>
<polyline clip-path="url(#clip630)" style="stroke:#000000; stroke-linecap:round; stroke-linejoin:round; stroke-width:4; stroke-opacity:1; fill:none" points="1836.54,1111.02 1836.54,1092.12 "/>
<path clip-path="url(#clip630)" d="M293.57 1138.74 Q289.959 1138.74 288.13 1142.3 Q286.325 1145.84 286.325 1152.97 Q286.325 1160.08 288.13 1163.64 Q289.959 1167.19 293.57 1167.19 Q297.204 1167.19 299.01 1163.64 Q300.839 1160.08 300.839 1152.97 Q300.839 1145.84 299.01 1142.3 Q297.204 1138.74 293.57 1138.74 M293.57 1135.03 Q299.38 1135.03 302.436 1139.64 Q305.515 1144.22 305.515 1152.97 Q305.515 1161.7 302.436 1166.31 Q299.38 1170.89 293.57 1170.89 Q287.76 1170.89 284.681 1166.31 Q281.626 1161.7 281.626 1152.97 Q281.626 1144.22 284.681 1139.64 Q287.76 1135.03 293.57 1135.03 Z" fill="#000000" fill-rule="nonzero" fill-opacity="1" /><path clip-path="url(#clip630)" d="M576.863 1135.66 L595.22 1135.66 L595.22 1139.59 L581.146 1139.59 L581.146 1148.07 Q582.164 1147.72 583.183 1147.56 Q584.201 1147.37 585.22 1147.37 Q591.007 1147.37 594.386 1150.54 Q597.766 1153.71 597.766 1159.13 Q597.766 1164.71 594.294 1167.81 Q590.822 1170.89 584.502 1170.89 Q582.326 1170.89 580.058 1170.52 Q577.812 1170.15 575.405 1169.41 L575.405 1164.71 Q577.488 1165.84 579.71 1166.4 Q581.933 1166.95 584.41 1166.95 Q588.414 1166.95 590.752 1164.85 Q593.09 1162.74 593.09 1159.13 Q593.09 1155.52 590.752 1153.41 Q588.414 1151.31 584.41 1151.31 Q582.535 1151.31 580.66 1151.72 Q578.808 1152.14 576.863 1153.02 L576.863 1135.66 Z" fill="#000000" fill-rule="nonzero" fill-opacity="1" /><path clip-path="url(#clip630)" d="M616.979 1138.74 Q613.368 1138.74 611.539 1142.3 Q609.733 1145.84 609.733 1152.97 Q609.733 1160.08 611.539 1163.64 Q613.368 1167.19 616.979 1167.19 Q620.613 1167.19 622.419 1163.64 Q624.247 1160.08 624.247 1152.97 Q624.247 1145.84 622.419 1142.3 Q620.613 1138.74 616.979 1138.74 M616.979 1135.03 Q622.789 1135.03 625.844 1139.64 Q628.923 1144.22 628.923 1152.97 Q628.923 1161.7 625.844 1166.31 Q622.789 1170.89 616.979 1170.89 Q611.169 1170.89 608.09 1166.31 Q605.034 1161.7 605.034 1152.97 Q605.034 1144.22 608.09 1139.64 Q611.169 1135.03 616.979 1135.03 Z" fill="#000000" fill-rule="nonzero" fill-opacity="1" /><path clip-path="url(#clip630)" d="M870.365 1166.28 L878.003 1166.28 L878.003 1139.92 L869.693 1141.58 L869.693 1137.33 L877.957 1135.66 L882.633 1135.66 L882.633 1166.28 L890.272 1166.28 L890.272 1170.22 L870.365 1170.22 L870.365 1166.28 Z" fill="#000000" fill-rule="nonzero" fill-opacity="1" /><path clip-path="url(#clip630)" d="M909.716 1138.74 Q906.105 1138.74 904.276 1142.3 Q902.471 1145.84 902.471 1152.97 Q902.471 1160.08 904.276 1163.64 Q906.105 1167.19 909.716 1167.19 Q913.35 1167.19 915.156 1163.64 Q916.985 1160.08 916.985 1152.97 Q916.985 1145.84 915.156 1142.3 Q913.35 1138.74 909.716 1138.74 M909.716 1135.03 Q915.526 1135.03 918.582 1139.64 Q921.661 1144.22 921.661 1152.97 Q921.661 1161.7 918.582 1166.31 Q915.526 1170.89 909.716 1170.89 Q903.906 1170.89 900.827 1166.31 Q897.772 1161.7 897.772 1152.97 Q897.772 1144.22 900.827 1139.64 Q903.906 1135.03 909.716 1135.03 Z" fill="#000000" fill-rule="nonzero" fill-opacity="1" /><path clip-path="url(#clip630)" d="M939.878 1138.74 Q936.267 1138.74 934.438 1142.3 Q932.633 1145.84 932.633 1152.97 Q932.633 1160.08 934.438 1163.64 Q936.267 1167.19 939.878 1167.19 Q943.512 1167.19 945.318 1163.64 Q947.147 1160.08 947.147 1152.97 Q947.147 1145.84 945.318 1142.3 Q943.512 1138.74 939.878 1138.74 M939.878 1135.03 Q945.688 1135.03 948.744 1139.64 Q951.822 1144.22 951.822 1152.97 Q951.822 1161.7 948.744 1166.31 Q945.688 1170.89 939.878 1170.89 Q934.068 1170.89 930.989 1166.31 Q927.934 1161.7 927.934 1152.97 Q927.934 1144.22 930.989 1139.64 Q934.068 1135.03 939.878 1135.03 Z" fill="#000000" fill-rule="nonzero" fill-opacity="1" /><path clip-path="url(#clip630)" d="M1178.96 1166.28 L1186.6 1166.28 L1186.6 1139.92 L1178.29 1141.58 L1178.29 1137.33 L1186.55 1135.66 L1191.23 1135.66 L1191.23 1166.28 L1198.87 1166.28 L1198.87 1170.22 L1178.96 1170.22 L1178.96 1166.28 Z" fill="#000000" fill-rule="nonzero" fill-opacity="1" /><path clip-path="url(#clip630)" d="M1208.36 1135.66 L1226.71 1135.66 L1226.71 1139.59 L1212.64 1139.59 L1212.64 1148.07 Q1213.66 1147.72 1214.68 1147.56 Q1215.69 1147.37 1216.71 1147.37 Q1222.5 1147.37 1225.88 1150.54 Q1229.26 1153.71 1229.26 1159.13 Q1229.26 1164.71 1225.79 1167.81 Q1222.31 1170.89 1216 1170.89 Q1213.82 1170.89 1211.55 1170.52 Q1209.31 1170.15 1206.9 1169.41 L1206.9 1164.71 Q1208.98 1165.84 1211.2 1166.4 Q1213.43 1166.95 1215.9 1166.95 Q1219.91 1166.95 1222.25 1164.85 Q1224.58 1162.74 1224.58 1159.13 Q1224.58 1155.52 1222.25 1153.41 Q1219.91 1151.31 1215.9 1151.31 Q1214.03 1151.31 1212.15 1151.72 Q1210.3 1152.14 1208.36 1153.02 L1208.36 1135.66 Z" fill="#000000" fill-rule="nonzero" fill-opacity="1" /><path clip-path="url(#clip630)" d="M1248.47 1138.74 Q1244.86 1138.74 1243.03 1142.3 Q1241.23 1145.84 1241.23 1152.97 Q1241.23 1160.08 1243.03 1163.64 Q1244.86 1167.19 1248.47 1167.19 Q1252.11 1167.19 1253.91 1163.64 Q1255.74 1160.08 1255.74 1152.97 Q1255.74 1145.84 1253.91 1142.3 Q1252.11 1138.74 1248.47 1138.74 M1248.47 1135.03 Q1254.28 1135.03 1257.34 1139.64 Q1260.42 1144.22 1260.42 1152.97 Q1260.42 1161.7 1257.34 1166.31 Q1254.28 1170.89 1248.47 1170.89 Q1242.66 1170.89 1239.58 1166.31 Q1236.53 1161.7 1236.53 1152.97 Q1236.53 1144.22 1239.58 1139.64 Q1242.66 1135.03 1248.47 1135.03 Z" fill="#000000" fill-rule="nonzero" fill-opacity="1" /><path clip-path="url(#clip630)" d="M1491.64 1166.28 L1507.96 1166.28 L1507.96 1170.22 L1486.01 1170.22 L1486.01 1166.28 Q1488.67 1163.53 1493.26 1158.9 Q1497.86 1154.25 1499.05 1152.9 Q1501.29 1150.38 1502.17 1148.64 Q1503.07 1146.89 1503.07 1145.2 Q1503.07 1142.44 1501.13 1140.7 Q1499.21 1138.97 1496.11 1138.97 Q1493.91 1138.97 1491.45 1139.73 Q1489.02 1140.5 1486.24 1142.05 L1486.24 1137.33 Q1489.07 1136.19 1491.52 1135.61 Q1493.98 1135.03 1496.01 1135.03 Q1501.38 1135.03 1504.58 1137.72 Q1507.77 1140.4 1507.77 1144.89 Q1507.77 1147.02 1506.96 1148.95 Q1506.17 1150.84 1504.07 1153.44 Q1503.49 1154.11 1500.39 1157.33 Q1497.29 1160.52 1491.64 1166.28 Z" fill="#000000" fill-rule="nonzero" fill-opacity="1" /><path clip-path="url(#clip630)" d="M1527.77 1138.74 Q1524.16 1138.74 1522.33 1142.3 Q1520.53 1145.84 1520.53 1152.97 Q1520.53 1160.08 1522.33 1163.64 Q1524.16 1167.19 1527.77 1167.19 Q1531.41 1167.19 1533.21 1163.64 Q1535.04 1160.08 1535.04 1152.97 Q1535.04 1145.84 1533.21 1142.3 Q1531.41 1138.74 1527.77 1138.74 M1527.77 1135.03 Q1533.58 1135.03 1536.64 1139.64 Q1539.72 1144.22 1539.72 1152.97 Q1539.72 1161.7 1536.64 1166.31 Q1533.58 1170.89 1527.77 1170.89 Q1521.96 1170.89 1518.88 1166.31 Q1515.83 1161.7 1515.83 1152.97 Q1515.83 1144.22 1518.88 1139.64 Q1521.96 1135.03 1527.77 1135.03 Z" fill="#000000" fill-rule="nonzero" fill-opacity="1" /><path clip-path="url(#clip630)" d="M1557.93 1138.74 Q1554.32 1138.74 1552.49 1142.3 Q1550.69 1145.84 1550.69 1152.97 Q1550.69 1160.08 1552.49 1163.64 Q1554.32 1167.19 1557.93 1167.19 Q1561.57 1167.19 1563.37 1163.64 Q1565.2 1160.08 1565.2 1152.97 Q1565.2 1145.84 1563.37 1142.3 Q1561.57 1138.74 1557.93 1138.74 M1557.93 1135.03 Q1563.74 1135.03 1566.8 1139.64 Q1569.88 1144.22 1569.88 1152.97 Q1569.88 1161.7 1566.8 1166.31 Q1563.74 1170.89 1557.93 1170.89 Q1552.12 1170.89 1549.05 1166.31 Q1545.99 1161.7 1545.99 1152.97 Q1545.99 1144.22 1549.05 1139.64 Q1552.12 1135.03 1557.93 1135.03 Z" fill="#000000" fill-rule="nonzero" fill-opacity="1" /><path clip-path="url(#clip630)" d="M1800.23 1166.28 L1816.55 1166.28 L1816.55 1170.22 L1794.61 1170.22 L1794.61 1166.28 Q1797.27 1163.53 1801.85 1158.9 Q1806.46 1154.25 1807.64 1152.9 Q1809.88 1150.38 1810.76 1148.64 Q1811.67 1146.89 1811.67 1145.2 Q1811.67 1142.44 1809.72 1140.7 Q1807.8 1138.97 1804.7 1138.97 Q1802.5 1138.97 1800.05 1139.73 Q1797.62 1140.5 1794.84 1142.05 L1794.84 1137.33 Q1797.66 1136.19 1800.12 1135.61 Q1802.57 1135.03 1804.61 1135.03 Q1809.98 1135.03 1813.17 1137.72 Q1816.37 1140.4 1816.37 1144.89 Q1816.37 1147.02 1815.56 1148.95 Q1814.77 1150.84 1812.66 1153.44 Q1812.08 1154.11 1808.98 1157.33 Q1805.88 1160.52 1800.23 1166.28 Z" fill="#000000" fill-rule="nonzero" fill-opacity="1" /><path clip-path="url(#clip630)" d="M1826.41 1135.66 L1844.77 1135.66 L1844.77 1139.59 L1830.69 1139.59 L1830.69 1148.07 Q1831.71 1147.72 1832.73 1147.56 Q1833.75 1147.37 1834.77 1147.37 Q1840.56 1147.37 1843.94 1150.54 Q1847.31 1153.71 1847.31 1159.13 Q1847.31 1164.71 1843.84 1167.81 Q1840.37 1170.89 1834.05 1170.89 Q1831.88 1170.89 1829.61 1170.52 Q1827.36 1170.15 1824.95 1169.41 L1824.95 1164.71 Q1827.04 1165.84 1829.26 1166.4 Q1831.48 1166.95 1833.96 1166.95 Q1837.96 1166.95 1840.3 1164.85 Q1842.64 1162.74 1842.64 1159.13 Q1842.64 1155.52 1840.3 1153.41 Q1837.96 1151.31 1833.96 1151.31 Q1832.08 1151.31 1830.21 1151.72 Q1828.36 1152.14 1826.41 1153.02 L1826.41 1135.66 Z" fill="#000000" fill-rule="nonzero" fill-opacity="1" /><path clip-path="url(#clip630)" d="M1866.53 1138.74 Q1862.92 1138.74 1861.09 1142.3 Q1859.28 1145.84 1859.28 1152.97 Q1859.28 1160.08 1861.09 1163.64 Q1862.92 1167.19 1866.53 1167.19 Q1870.16 1167.19 1871.97 1163.64 Q1873.8 1160.08 1873.8 1152.97 Q1873.8 1145.84 1871.97 1142.3 Q1870.16 1138.74 1866.53 1138.74 M1866.53 1135.03 Q1872.34 1135.03 1875.39 1139.64 Q1878.47 1144.22 1878.47 1152.97 Q1878.47 1161.7 1875.39 1166.31 Q1872.34 1170.89 1866.53 1170.89 Q1860.72 1170.89 1857.64 1166.31 Q1854.58 1161.7 1854.58 1152.97 Q1854.58 1144.22 1857.64 1139.64 Q1860.72 1135.03 1866.53 1135.03 Z" fill="#000000" fill-rule="nonzero" fill-opacity="1" /><g clip-path="url(#clip630)">
<text style="fill:#000000; fill-opacity:1; font-family:Arial,Helvetica Neue,Helvetica,sans-serif; font-size:66px; text-anchor:middle;" transform="rotate(0, 1099, 1252.42)" x="1099" y="1252.42">Krylov dimension</text>
</g>
<polyline clip-path="url(#clip630)" style="stroke:#000000; stroke-linecap:round; stroke-linejoin:round; stroke-width:4; stroke-opacity:1; fill:none" points="245.244,1111.02 245.244,107.256 "/>
<polyline clip-path="url(#clip630)" style="stroke:#000000; stroke-linecap:round; stroke-linejoin:round; stroke-width:4; stroke-opacity:1; fill:none" points="245.244,1079.97 264.142,1079.97 "/>
<polyline clip-path="url(#clip630)" style="stroke:#000000; stroke-linecap:round; stroke-linejoin:round; stroke-width:4; stroke-opacity:1; fill:none" points="245.244,572.913 264.142,572.913 "/>
<path clip-path="url(#clip630)" d="M113.675 1099.76 L121.314 1099.76 L121.314 1073.39 L113.004 1075.06 L113.004 1070.8 L121.268 1069.14 L125.944 1069.14 L125.944 1099.76 L133.583 1099.76 L133.583 1103.7 L113.675 1103.7 L113.675 1099.76 Z" fill="#000000" fill-rule="nonzero" fill-opacity="1" /><path clip-path="url(#clip630)" d="M153.027 1072.21 Q149.416 1072.21 147.587 1075.78 Q145.782 1079.32 145.782 1086.45 Q145.782 1093.56 147.587 1097.12 Q149.416 1100.66 153.027 1100.66 Q156.661 1100.66 158.467 1097.12 Q160.295 1093.56 160.295 1086.45 Q160.295 1079.32 158.467 1075.78 Q156.661 1072.21 153.027 1072.21 M153.027 1068.51 Q158.837 1068.51 161.893 1073.12 Q164.971 1077.7 164.971 1086.45 Q164.971 1095.18 161.893 1099.78 Q158.837 1104.37 153.027 1104.37 Q147.217 1104.37 144.138 1099.78 Q141.082 1095.18 141.082 1086.45 Q141.082 1077.7 144.138 1073.12 Q147.217 1068.51 153.027 1068.51 Z" fill="#000000" fill-rule="nonzero" fill-opacity="1" /><path clip-path="url(#clip630)" d="M164.971 1062.61 L189.083 1062.61 L189.083 1065.81 L164.971 1065.81 L164.971 1062.61 Z" fill="#000000" fill-rule="nonzero" fill-opacity="1" /><path clip-path="url(#clip630)" d="M205.878 1060.73 Q203.32 1060.73 201.816 1062.48 Q200.33 1064.23 200.33 1067.28 Q200.33 1070.3 201.816 1072.07 Q203.32 1073.82 205.878 1073.82 Q208.436 1073.82 209.922 1072.07 Q211.426 1070.3 211.426 1067.28 Q211.426 1064.23 209.922 1062.48 Q208.436 1060.73 205.878 1060.73 M213.42 1048.83 L213.42 1052.29 Q211.991 1051.61 210.524 1051.25 Q209.075 1050.89 207.646 1050.89 Q203.885 1050.89 201.891 1053.43 Q199.916 1055.97 199.634 1061.11 Q200.744 1059.47 202.417 1058.61 Q204.091 1057.72 206.104 1057.72 Q210.336 1057.72 212.781 1060.3 Q215.244 1062.86 215.244 1067.28 Q215.244 1071.6 212.687 1074.22 Q210.129 1076.83 205.878 1076.83 Q201.007 1076.83 198.43 1073.11 Q195.854 1069.36 195.854 1062.27 Q195.854 1055.62 199.013 1051.67 Q202.173 1047.7 207.496 1047.7 Q208.925 1047.7 210.373 1047.98 Q211.84 1048.26 213.42 1048.83 Z" fill="#000000" fill-rule="nonzero" fill-opacity="1" /><path clip-path="url(#clip630)" d="M114.333 592.706 L121.972 592.706 L121.972 566.34 L113.662 568.007 L113.662 563.747 L121.926 562.081 L126.602 562.081 L126.602 592.706 L134.241 592.706 L134.241 596.641 L114.333 596.641 L114.333 592.706 Z" fill="#000000" fill-rule="nonzero" fill-opacity="1" /><path clip-path="url(#clip630)" d="M153.685 565.159 Q150.074 565.159 148.245 568.724 Q146.44 572.266 146.44 579.395 Q146.44 586.502 148.245 590.067 Q150.074 593.608 153.685 593.608 Q157.319 593.608 159.125 590.067 Q160.954 586.502 160.954 579.395 Q160.954 572.266 159.125 568.724 Q157.319 565.159 153.685 565.159 M153.685 561.456 Q159.495 561.456 162.551 566.062 Q165.629 570.645 165.629 579.395 Q165.629 588.122 162.551 592.729 Q159.495 597.312 153.685 597.312 Q147.875 597.312 144.796 592.729 Q141.741 588.122 141.741 579.395 Q141.741 570.645 144.796 566.062 Q147.875 561.456 153.685 561.456 Z" fill="#000000" fill-rule="nonzero" fill-opacity="1" /><path clip-path="url(#clip630)" d="M165.629 555.557 L189.741 555.557 L189.741 558.754 L165.629 558.754 L165.629 555.557 Z" fill="#000000" fill-rule="nonzero" fill-opacity="1" /><path clip-path="url(#clip630)" d="M209.452 554.09 Q212.179 554.673 213.702 556.516 Q215.244 558.359 215.244 561.068 Q215.244 565.224 212.386 567.5 Q209.527 569.776 204.261 569.776 Q202.493 569.776 200.612 569.418 Q198.75 569.08 196.756 568.384 L196.756 564.716 Q198.336 565.638 200.217 566.108 Q202.098 566.578 204.148 566.578 Q207.721 566.578 209.583 565.168 Q211.464 563.757 211.464 561.068 Q211.464 558.585 209.715 557.193 Q207.985 555.783 204.881 555.783 L201.609 555.783 L201.609 552.661 L205.032 552.661 Q207.834 552.661 209.32 551.551 Q210.806 550.423 210.806 548.316 Q210.806 546.153 209.264 545.006 Q207.74 543.84 204.881 543.84 Q203.32 543.84 201.534 544.178 Q199.747 544.517 197.603 545.232 L197.603 541.846 Q199.766 541.244 201.646 540.943 Q203.546 540.642 205.22 540.642 Q209.546 540.642 212.066 542.617 Q214.586 544.573 214.586 547.921 Q214.586 550.253 213.251 551.871 Q211.915 553.469 209.452 554.09 Z" fill="#000000" fill-rule="nonzero" fill-opacity="1" /><g clip-path="url(#clip630)">
<text style="fill:#000000; fill-opacity:1; font-family:Arial,Helvetica Neue,Helvetica,sans-serif; font-size:66px; text-anchor:middle;" transform="rotate(-90, 71.4418, 609.137)" x="71.4418" y="609.137">relative residual norm</text>
</g>
<g clip-path="url(#clip630)">
<text style="fill:#000000; fill-opacity:1; font-family:Arial,Helvetica Neue,Helvetica,sans-serif; font-size:66px; text-anchor:middle;" transform="rotate(0, 1099, 57.6)" x="1099" y="57.6">Convergence of MINRES and CG</text>
</g>
<polyline clip-path="url(#clip632)" style="stroke:#009af9; stroke-linecap:round; stroke-linejoin:round; stroke-width:8; stroke-opacity:1; fill:none" points="293.57,140.771 299.742,189.079 305.914,222.631 312.086,250.16 318.258,273.098 324.43,292.727 330.601,309.009 336.773,323.297 342.945,336.588 349.117,348.192 355.289,358.98 361.461,368.873 367.633,377.737 373.805,386.098 379.976,394.146 386.148,401.828 392.32,409.097 398.492,416.435 404.664,423.124 410.836,429.349 417.008,435.342 423.18,440.847 429.351,446.313 435.523,451.42 441.695,456.465 447.867,461.173 454.039,465.901 460.211,470.575 466.383,475.399 472.555,479.895 478.727,484.113 484.898,488.273 491.07,492.209 497.242,496.315 503.414,500.323 509.586,504.178 515.758,507.966 521.93,511.553 528.102,515.184 534.273,518.86 540.445,522.394 546.617,525.9 552.789,529.294 558.961,532.59 565.133,535.967 571.305,539.431 577.477,542.693 583.648,545.754 589.82,548.925 595.992,552.141 602.164,555.248 608.336,558.551 614.508,561.67 620.68,564.79 626.852,567.841 633.023,571.162 639.195,574.147 645.367,577.067 651.539,580.033 657.711,583.04 663.883,585.983 670.055,589.092 676.227,591.965 682.398,595.01 688.57,597.991 694.742,600.786 700.914,603.57 707.086,606.594 713.258,609.586 719.43,612.391 725.602,615.324 731.773,618.26 737.945,621.142 744.117,624.081 750.289,626.853 756.461,629.611 762.633,632.271 768.805,635.302 774.977,638.204 781.148,640.968 787.32,643.668 793.492,646.497 799.664,649.366 805.836,652.267 812.008,655.023 818.18,657.975 824.352,660.667 830.523,663.595 836.695,666.384 842.867,669.179 849.039,672.093 855.211,674.905 861.383,677.779 867.555,680.638 873.727,683.536 879.899,686.427 886.07,689.231 892.242,692.054 898.414,694.868 904.586,697.751 910.758,700.6 916.93,703.413 923.102,706.213 929.274,709.191 935.445,712.073 941.617,714.992 947.789,717.893 953.961,720.74 960.133,723.663 966.305,726.585 972.477,729.379 978.649,732.154 984.82,735.152 990.992,738.047 997.164,741.025 1003.34,743.908 1009.51,746.813 1015.68,749.524 1021.85,752.439 1028.02,755.507 1034.2,758.334 1040.37,761.321 1046.54,764.207 1052.71,767.229 1058.88,770.032 1065.05,772.964 1071.23,775.851 1077.4,778.766 1083.57,781.798 1089.74,784.771 1095.91,787.568 1102.09,790.404 1108.26,793.218 1114.43,796.115 1120.6,799.095 1126.77,802.036 1132.95,804.931 1139.12,807.804 1145.29,810.771 1151.46,813.644 1157.63,816.546 1163.8,819.307 1169.98,822.37 1176.15,825.243 1182.32,828.248 1188.49,831.145 1194.66,833.988 1200.84,836.893 1207.01,839.779 1213.18,842.675 1219.35,845.597 1225.52,848.529 1231.7,851.558 1237.87,854.402 1244.04,857.257 1250.21,860.235 1256.38,863.011 1262.55,866.055 1268.73,869.009 1274.9,872.027 1281.07,874.973 1287.24,877.918 1293.41,880.644 1299.59,883.613 1305.76,886.399 1311.93,889.341 1318.1,892.379 1324.27,895.226 1330.45,898.153 1336.62,901.099 1342.79,903.946 1348.96,906.97 1355.13,909.928 1361.3,913.03 1367.48,915.901 1373.65,918.762 1379.82,921.844 1385.99,924.768 1392.16,927.685 1398.34,930.547 1404.51,933.501 1410.68,936.64 1416.85,939.462 1423.02,942.319 1429.2,945.306 1435.37,948.371 1441.54,951.383 1447.71,954.318 1453.88,957.359 1460.05,960.305 1466.23,963.423 1472.4,966.331 1478.57,969.38 1484.74,972.259 1490.91,975.222 1497.09,978.209 1503.26,981.235 1509.43,984.125 1515.6,987.127 1521.77,990.141 1527.95,993.242 1534.12,996.368 1540.29,999.305 1546.46,1002.25 1552.63,1005.1 1558.8,1007.95 1564.98,1010.86 1571.15,1013.93 1577.32,1016.93 1583.49,1019.99 1589.66,1022.97 1595.84,1025.88 1602.01,1028.9 1608.18,1031.92 1614.35,1034.87 1620.52,1037.81 1626.7,1040.77 1632.87,1043.72 1639.04,1046.68 1645.21,1049.57 1651.38,1052.63 1657.56,1055.61 1663.73,1058.46 1669.9,1061.43 1676.07,1064.24 1682.24,1067.31 1688.41,1070.28 1694.59,1073.34 1700.76,1076.46 1706.93,1079.64 1713.1,1082.61 "/>
<polyline clip-path="url(#clip632)" style="stroke:#e26f46; stroke-linecap:round; stroke-linejoin:round; stroke-width:8; stroke-opacity:1; fill:none" points="293.57,135.664 299.742,177.622 305.914,203.831 312.086,226.697 318.258,244.973 324.43,260.381 330.601,271.337 336.773,281.759 342.945,292.863 349.117,300.282 355.289,308.782 361.461,315.921 367.633,321.248 373.805,327.704 379.976,334.502 386.148,340.658 392.32,346.091 398.492,353.748 404.664,357.347 410.836,361.165 417.008,365.875 423.18,368.495 429.351,373.728 435.523,376.514 441.695,381.136 447.867,383.471 454.039,388.351 460.211,392.624 466.383,398.539 472.555,400.61 478.727,402.621 484.898,406.299 491.07,408.321 497.242,413.888 503.414,417.062 509.586,419.561 515.758,422.74 521.93,424.419 528.102,428.478 534.273,432.589 540.445,434.741 546.617,437.975 552.789,440.226 558.961,442.5 565.133,446.73 571.305,451.087 577.477,452.232 583.648,453.061 589.82,457.484 595.992,461.184 602.164,463.083 608.336,468.537 614.508,469.63 620.68,472.771 626.852,475.04 633.023,481.332 639.195,480.573 645.367,482.725 651.539,486.225 657.711,489.729 663.883,491.902 670.055,496.957 676.227,497.035 682.398,502.139 688.57,504.361 694.742,504.892 700.914,507.532 707.086,513.48 713.258,516.09 719.43,516.619 725.602,521.14 731.773,524.094 737.945,526.323 744.117,529.963 750.289,530.661 756.461,533.251 762.633,534.619 768.805,542.264 774.977,543.644 781.148,544.679 787.32,546.542 793.492,551.034 799.664,554.393 805.836,557.687 812.008,558.627 818.18,564.011 824.352,563.447 830.523,569.334 836.695,570.418 842.867,573.277 849.039,577.665 855.211,579.233 861.383,582.867 867.555,585.54 873.727,588.912 879.899,591.733 886.07,593.438 892.242,596.517 898.414,599.205 904.586,602.952 910.758,605.387 916.93,607.744 923.102,610.371 929.274,615.541 935.445,617.26 941.617,620.623 947.789,623.307 953.961,625.496 960.133,629.352 966.305,632.263 972.477,633.461 978.649,636.002 984.82,641.733 990.992,643.392 997.164,647.363 1003.34,649.116 1009.51,652.274 1015.68,652.549 1021.85,658.036 1028.02,662.894 1034.2,662.842 1040.37,667.763 1046.54,669.44 1052.71,674.095 1058.88,674.237 1065.05,678.753 1071.23,681.106 1077.4,684.347 1083.57,688.774 1089.74,691.048 1095.91,691.709 1102.09,695.021 1108.26,697.557 1114.43,701.483 1120.6,705.464 1126.77,707.937 1132.95,710.272 1139.12,712.887 1145.29,716.986 1151.46,718.712 1157.63,721.972 1163.8,722.99 1169.98,729.7 1176.15,730.316 1182.32,734.904 1188.49,736.519 1194.66,738.694 1200.84,742.362 1207.01,745.007 1213.18,748.031 1219.35,751.272 1225.52,754.327 1231.7,758.5 1237.87,759.12 1244.04,762.11 1250.21,766.573 1256.38,766.874 1262.55,773.175 1268.73,775.066 1274.9,778.831 1281.07,780.941 1287.24,783.858 1293.41,783.866 1299.59,789.854 1305.76,790.393 1311.93,795.246 1318.1,799.422 1324.27,799.989 1330.45,803.888 1336.62,807.06 1342.79,808.702 1348.96,813.851 1355.13,816.033 1361.3,820.808 1367.48,820.942 1373.65,823.699 1379.82,829.395 1385.99,830.462 1392.16,833.291 1398.34,835.492 1404.51,839.564 1410.68,844.835 1416.85,843.907 1423.02,847.193 1429.2,851.751 1435.37,855.734 1441.54,858.117 1447.71,860.149 1453.88,864.435 1460.05,866.269 1466.23,871.379 1472.4,871.843 1478.57,876.552 1484.74,877.4 1490.91,881.389 1497.09,884.659 1503.26,888.14 1509.43,889.414 1515.6,893.748 1521.77,896.906 1527.95,901.001 1534.12,904.425 1540.29,905.155 1546.46,908.166 1552.63,909.862 1558.8,912.734 1564.98,916.474 1571.15,921.262 1577.32,923.552 1583.49,927.258 1589.66,929.395 1595.84,931.381 1602.01,935.707 1608.18,938.787 1614.35,940.956 1620.52,943.728 1626.7,946.955 1632.87,949.874 1639.04,953.004 1645.21,955.18 1651.38,960.287 1657.56,962.738 1663.73,964.011 1669.9,968.876 1676.07,969.931 1682.24,974.316 1688.41,975.846 1694.59,979.76 1700.76,983.767 1706.93,987.918 1713.1,988.664 1719.27,991.331 1725.45,993.196 1731.62,996.193 1737.79,1000.33 1743.96,1004.72 1750.13,1006.5 1756.31,1009.39 1762.48,1011.64 1768.65,1014.81 1774.82,1017.72 1780.99,1022.8 1787.16,1025.31 1793.34,1025.75 1799.51,1030.08 1805.68,1033.07 1811.85,1036.13 1818.02,1038.07 1824.2,1042.16 1830.37,1043.64 1836.54,1046.89 1842.71,1052.23 1848.88,1054.72 1855.06,1056.86 1861.23,1057.59 1867.4,1061.63 1873.57,1065.8 1879.74,1066.66 1885.91,1068.91 1892.09,1074.21 1898.26,1075.66 1904.43,1080.32 "/>
<path clip-path="url(#clip630)" d="M1570 296.235 L1895.84 296.235 L1895.84 140.715 L1570 140.715  Z" fill="#ffffff" fill-rule="evenodd" fill-opacity="1"/>
<polyline clip-path="url(#clip630)" style="stroke:#000000; stroke-linecap:round; stroke-linejoin:round; stroke-width:4; stroke-opacity:1; fill:none" points="1570,296.235 1895.84,296.235 1895.84,140.715 1570,140.715 1570,296.235 "/>
<polyline clip-path="url(#clip630)" style="stroke:#009af9; stroke-linecap:round; stroke-linejoin:round; stroke-width:8; stroke-opacity:1; fill:none" points="1588.97,192.555 1702.8,192.555 "/>
<path clip-path="url(#clip630)" d="M1742.12 188.886 Q1743.72 186.015 1745.94 184.65 Q1748.16 183.284 1751.17 183.284 Q1755.22 183.284 1757.42 186.131 Q1759.62 188.955 1759.62 194.187 L1759.62 209.835 L1755.34 209.835 L1755.34 194.325 Q1755.34 190.599 1754.02 188.793 Q1752.7 186.988 1749.99 186.988 Q1746.68 186.988 1744.76 189.187 Q1742.84 191.386 1742.84 195.182 L1742.84 209.835 L1738.56 209.835 L1738.56 194.325 Q1738.56 190.575 1737.24 188.793 Q1735.92 186.988 1733.16 186.988 Q1729.9 186.988 1727.98 189.21 Q1726.06 191.409 1726.06 195.182 L1726.06 209.835 L1721.77 209.835 L1721.77 183.909 L1726.06 183.909 L1726.06 187.937 Q1727.52 185.552 1729.55 184.418 Q1731.59 183.284 1734.39 183.284 Q1737.21 183.284 1739.18 184.719 Q1741.17 186.154 1742.12 188.886 Z" fill="#000000" fill-rule="nonzero" fill-opacity="1" /><path clip-path="url(#clip630)" d="M1768.12 183.909 L1772.38 183.909 L1772.38 209.835 L1768.12 209.835 L1768.12 183.909 M1768.12 173.816 L1772.38 173.816 L1772.38 179.21 L1768.12 179.21 L1768.12 173.816 Z" fill="#000000" fill-rule="nonzero" fill-opacity="1" /><path clip-path="url(#clip630)" d="M1802.84 194.187 L1802.84 209.835 L1798.58 209.835 L1798.58 194.325 Q1798.58 190.645 1797.14 188.816 Q1795.71 186.988 1792.84 186.988 Q1789.39 186.988 1787.4 189.187 Q1785.41 191.386 1785.41 195.182 L1785.41 209.835 L1781.13 209.835 L1781.13 183.909 L1785.41 183.909 L1785.41 187.937 Q1786.94 185.599 1789 184.441 Q1791.08 183.284 1793.79 183.284 Q1798.26 183.284 1800.55 186.062 Q1802.84 188.816 1802.84 194.187 Z" fill="#000000" fill-rule="nonzero" fill-opacity="1" /><path clip-path="url(#clip630)" d="M1826.36 187.89 Q1825.64 187.474 1824.78 187.288 Q1823.95 187.08 1822.93 187.08 Q1819.32 187.08 1817.38 189.441 Q1815.45 191.779 1815.45 196.177 L1815.45 209.835 L1811.17 209.835 L1811.17 183.909 L1815.45 183.909 L1815.45 187.937 Q1816.8 185.576 1818.95 184.441 Q1821.1 183.284 1824.18 183.284 Q1824.62 183.284 1825.15 183.353 Q1825.69 183.4 1826.33 183.515 L1826.36 187.89 Z" fill="#000000" fill-rule="nonzero" fill-opacity="1" /><path clip-path="url(#clip630)" d="M1851.96 195.807 L1851.96 197.89 L1832.38 197.89 Q1832.65 202.288 1835.01 204.603 Q1837.4 206.895 1841.64 206.895 Q1844.09 206.895 1846.38 206.293 Q1848.7 205.691 1850.96 204.487 L1850.96 208.515 Q1848.67 209.487 1846.26 209.997 Q1843.86 210.506 1841.38 210.506 Q1835.18 210.506 1831.54 206.895 Q1827.93 203.284 1827.93 197.126 Q1827.93 190.761 1831.36 187.034 Q1834.81 183.284 1840.64 183.284 Q1845.87 183.284 1848.9 186.663 Q1851.96 190.02 1851.96 195.807 M1847.7 194.557 Q1847.65 191.062 1845.73 188.978 Q1843.83 186.895 1840.69 186.895 Q1837.12 186.895 1834.97 188.909 Q1832.84 190.923 1832.51 194.58 L1847.7 194.557 Z" fill="#000000" fill-rule="nonzero" fill-opacity="1" /><path clip-path="url(#clip630)" d="M1875.48 184.673 L1875.48 188.7 Q1873.67 187.775 1871.73 187.312 Q1869.78 186.849 1867.7 186.849 Q1864.53 186.849 1862.93 187.821 Q1861.36 188.793 1861.36 190.738 Q1861.36 192.219 1862.49 193.075 Q1863.63 193.909 1867.05 194.673 L1868.51 194.997 Q1873.05 195.969 1874.95 197.751 Q1876.87 199.511 1876.87 202.682 Q1876.87 206.293 1874 208.399 Q1871.15 210.506 1866.15 210.506 Q1864.07 210.506 1861.8 210.089 Q1859.55 209.696 1857.05 208.886 L1857.05 204.487 Q1859.41 205.714 1861.7 206.339 Q1864 206.941 1866.24 206.941 Q1869.25 206.941 1870.87 205.923 Q1872.49 204.881 1872.49 203.006 Q1872.49 201.27 1871.31 200.344 Q1870.15 199.418 1866.2 198.562 L1864.71 198.214 Q1860.76 197.381 1859 195.668 Q1857.24 193.932 1857.24 190.923 Q1857.24 187.265 1859.83 185.275 Q1862.42 183.284 1867.19 183.284 Q1869.55 183.284 1871.64 183.631 Q1873.72 183.978 1875.48 184.673 Z" fill="#000000" fill-rule="nonzero" fill-opacity="1" /><polyline clip-path="url(#clip630)" style="stroke:#e26f46; stroke-linecap:round; stroke-linejoin:round; stroke-width:8; stroke-opacity:1; fill:none" points="1588.97,244.395 1702.8,244.395 "/>
<path clip-path="url(#clip630)" d="M1742.28 236.744 L1742.28 240.726 Q1740.48 239.73 1738.65 239.244 Q1736.84 238.735 1734.99 238.735 Q1730.85 238.735 1728.56 241.374 Q1726.27 243.99 1726.27 248.735 Q1726.27 253.48 1728.56 256.119 Q1730.85 258.735 1734.99 258.735 Q1736.84 258.735 1738.65 258.249 Q1740.48 257.739 1742.28 256.744 L1742.28 260.679 Q1740.5 261.513 1738.58 261.929 Q1736.68 262.346 1734.53 262.346 Q1728.67 262.346 1725.22 258.665 Q1721.77 254.985 1721.77 248.735 Q1721.77 242.392 1725.25 238.758 Q1728.74 235.124 1734.81 235.124 Q1736.77 235.124 1738.65 235.541 Q1740.52 235.934 1742.28 236.744 Z" fill="#000000" fill-rule="nonzero" fill-opacity="1" /><path clip-path="url(#clip630)" d="M1766.75 248.411 Q1766.75 243.781 1764.83 241.235 Q1762.93 238.689 1759.48 238.689 Q1756.06 238.689 1754.14 241.235 Q1752.24 243.781 1752.24 248.411 Q1752.24 253.017 1754.14 255.564 Q1756.06 258.11 1759.48 258.11 Q1762.93 258.11 1764.83 255.564 Q1766.75 253.017 1766.75 248.411 M1771.01 258.457 Q1771.01 265.077 1768.07 268.295 Q1765.13 271.536 1759.07 271.536 Q1756.82 271.536 1754.83 271.188 Q1752.84 270.864 1750.96 270.17 L1750.96 266.026 Q1752.84 267.045 1754.67 267.531 Q1756.5 268.017 1758.39 268.017 Q1762.58 268.017 1764.67 265.818 Q1766.75 263.642 1766.75 259.221 L1766.75 257.114 Q1765.43 259.406 1763.37 260.54 Q1761.31 261.675 1758.44 261.675 Q1753.67 261.675 1750.76 258.04 Q1747.84 254.406 1747.84 248.411 Q1747.84 242.392 1750.76 238.758 Q1753.67 235.124 1758.44 235.124 Q1761.31 235.124 1763.37 236.258 Q1765.43 237.392 1766.75 239.684 L1766.75 235.749 L1771.01 235.749 L1771.01 258.457 Z" fill="#000000" fill-rule="nonzero" fill-opacity="1" /></svg>
