<?xml version="1.0" encoding="utf-8"?>
<svg xmlns="http://www.w3.org/2000/svg" xmlns:xlink="http://www.w3.org/1999/xlink" width="500" height="320" viewBox="0 0 2000 1280">
<defs>
  <clipPath id="clip780">
    <rect x="0" y="0" width="2000" height="1280"/>
  </clipPath>
</defs>
<path clip-path="url(#clip780)" d="M0 1280 L2000 1280 L2000 0 L0 0  Z" fill="#ffffff" fill-rule="evenodd" fill-opacity="1"/>
<defs>
  <clipPath id="clip781">
    <rect x="400" y="0" width="1401" height="1280"/>
  </clipPath>
</defs>
<path clip-path="url(#clip780)" d="M245.244 1111.02 L1952.76 1111.02 L1952.76 107.256 L245.244 107.256  Z" fill="#ffffff" fill-rule="evenodd" fill-opacity="1"/>
<defs>
  <clipPath id="clip782">
    <rect x="245" y="107" width="1709" height="1005"/>
  </clipPath>
</defs>
<polyline clip-path="url(#clip782)" style="stroke:#000000; stroke-linecap:round; stroke-linejoin:round; stroke-width:2; stroke-opacity:0.1; fill:none" points="293.57,1111.02 293.57,107.256 "/>
<polyline clip-path="url(#clip782)" style="stroke:#000000; stroke-linecap:round; stroke-linejoin:round; stroke-width:2; stroke-opacity:0.1; fill:none" points="553.386,1111.02 553.386,107.256 "/>
<polyline clip-path="url(#clip782)" style="stroke:#000000; stroke-linecap:round; stroke-linejoin:round; stroke-width:2; stroke-opacity:0.1; fill:none" points="813.202,1111.02 813.202,107.256 "/>
<polyline clip-path="url(#clip782)" style="stroke:#000000; stroke-linecap:round; stroke-linejoin:round; stroke-width:2; stroke-opacity:0.1; fill:none" points="1073.02,1111.02 1073.02,107.256 "/>
<polyline clip-path="url(#clip782)" style="stroke:#000000; stroke-linecap:round; stroke-linejoin:round; stroke-width:2; stroke-opacity:0.1; fill:none" points="1332.83,1111.02 1332.83,107.256 "/>
<polyline clip-path="url(#clip782)" style="stroke:#000000; stroke-linecap:round; stroke-linejoin:round; stroke-width:2; stroke-opacity:0.1; fill:none" points="1592.65,1111.02 1592.65,107.256 "/>
<polyline clip-path="url(#clip782)" style="stroke:#000000; stroke-linecap:round; stroke-linejoin:round; stroke-width:2; stroke-opacity:0.1; fill:none" points="1852.47,1111.02 1852.47,107.256 "/>
<polyline clip-path="url(#clip782)" style="stroke:#000000; stroke-linecap:round; stroke-linejoin:round; stroke-width:2; stroke-opacity:0.1; fill:none" points="245.244,1070.14 1952.76,1070.14 "/>
<polyline clip-path="url(#clip782)" style="stroke:#000000; stroke-linecap:round; stroke-linejoin:round; stroke-width:2; stroke-opacity:0.1; fill:none" points="245.244,570.046 1952.76,570.046 "/>
<polyline clip-path="url(#clip780)" style="stroke:#000000; stroke-linecap:round; stroke-linejoin:round; stroke-width:4; stroke-opacity:1; fill:none" points="245.244,1111.02 1952.76,1111.02 "/>
<polyline clip-path="url(#clip780)" style="stroke:#000000; stroke-linecap:round; stroke-linejoin:round; stroke-width:4; stroke-opacity:1; fill:none" points="293.57,1111.02 293.57,1092.12 "/>
<polyline clip-path="url(#clip780)" style="stroke:#000000; stroke-linecap:round; stroke-linejoin:round; stroke-width:4; stroke-opacity:1; fill:none" points="553.386,1111.02 553.386,1092.12 "/>
<polyline clip-path="url(#clip780)" style="stroke:#000000; stroke-linecap:round; stroke-linejoin:round; stroke-width:4; stroke-opacity:1; fill:none" points="813.202,1111.02 813.202,1092.12 "/>
<polyline clip-path="url(#clip780)" style="stroke:#000000; stroke-linecap:round; stroke-linejoin:round; stroke-width:4; stroke-opacity:1; fill:none" points="1073.02,1111.02 1073.02,1092.12 "/>
<polyline clip-path="url(#clip780)" style="stroke:#000000; stroke-linecap:round; stroke-linejoin:round; stroke-width:4; stroke-opacity:1; fill:none" points="1332.83,1111.02 1332.83,1092.12 "/>
<polyline clip-path="url(#clip780)" style="stroke:#000000; stroke-linecap:round; stroke-linejoin:round; stroke-width:4; stroke-opacity:1; fill:none" points="1592.65,1111.02 1592.65,1092.12 "/>
<polyline clip-path="url(#clip780)" style="stroke:#000000; stroke-linecap:round; stroke-linejoin:round; stroke-width:4; stroke-opacity:1; fill:none" points="1852.47,1111.02 1852.47,1092.12 "/>
<path clip-path="url(#clip780)" d="M293.57 1138.74 Q289.959 1138.74 288.13 1142.3 Q286.325 1145.84 286.325 1152.97 Q286.325 1160.08 288.13 1163.64 Q289.959 1167.19 293.57 1167.19 Q297.204 1167.19 299.01 1163.64 Q300.839 1160.08 300.839 1152.97 Q300.839 1145.84 299.01 1142.3 Q297.204 1138.74 293.57 1138.74 M293.57 1135.03 Q299.38 1135.03 302.436 1139.64 Q305.515 1144.22 305.515 1152.97 Q305.515 1161.7 302.436 1166.31 Q299.38 1170.89 293.57 1170.89 Q287.76 1170.89 284.681 1166.31 Q281.626 1161.7 281.626 1152.97 Q281.626 1144.22 284.681 1139.64 Q287.76 1135.03 293.57 1135.03 Z" fill="#000000" fill-rule="nonzero" fill-opacity="1" /><path clip-path="url(#clip780)" d="M528.074 1166.28 L535.713 1166.28 L535.713 1139.92 L527.403 1141.58 L527.403 1137.33 L535.666 1135.66 L540.342 1135.66 L540.342 1166.28 L547.981 1166.28 L547.981 1170.22 L528.074 1170.22 L528.074 1166.28 Z" fill="#000000" fill-rule="nonzero" fill-opacity="1" /><path clip-path="url(#clip780)" d="M567.426 1138.74 Q563.814 1138.74 561.986 1142.3 Q560.18 1145.84 560.18 1152.97 Q560.18 1160.08 561.986 1163.64 Q563.814 1167.19 567.426 1167.19 Q571.06 1167.19 572.865 1163.64 Q574.694 1160.08 574.694 1152.97 Q574.694 1145.84 572.865 1142.3 Q571.06 1138.74 567.426 1138.74 M567.426 1135.03 Q573.236 1135.03 576.291 1139.64 Q579.37 1144.22 579.37 1152.97 Q579.37 1161.7 576.291 1166.31 Q573.236 1170.89 567.426 1170.89 Q561.615 1170.89 558.537 1166.31 Q555.481 1161.7 555.481 1152.97 Q555.481 1144.22 558.537 1139.64 Q561.615 1135.03 567.426 1135.03 Z" fill="#000000" fill-rule="nonzero" fill-opacity="1" /><path clip-path="url(#clip780)" d="M791.976 1166.28 L808.295 1166.28 L808.295 1170.22 L786.351 1170.22 L786.351 1166.28 Q789.013 1163.53 793.596 1158.9 Q798.203 1154.25 799.383 1152.9 Q801.628 1150.38 802.508 1148.64 Q803.411 1146.89 803.411 1145.2 Q803.411 1142.44 801.466 1140.7 Q799.545 1138.97 796.443 1138.97 Q794.244 1138.97 791.791 1139.73 Q789.36 1140.5 786.582 1142.05 L786.582 1137.33 Q789.406 1136.19 791.86 1135.61 Q794.314 1135.03 796.351 1135.03 Q801.721 1135.03 804.915 1137.72 Q808.11 1140.4 808.11 1144.89 Q808.11 1147.02 807.3 1148.95 Q806.513 1150.84 804.406 1153.44 Q803.827 1154.11 800.726 1157.33 Q797.624 1160.52 791.976 1166.28 Z" fill="#000000" fill-rule="nonzero" fill-opacity="1" /><path clip-path="url(#clip780)" d="M828.11 1138.74 Q824.499 1138.74 822.67 1142.3 Q820.864 1145.84 820.864 1152.97 Q820.864 1160.08 822.67 1163.64 Q824.499 1167.19 828.11 1167.19 Q831.744 1167.19 833.55 1163.64 Q835.378 1160.08 835.378 1152.97 Q835.378 1145.84 833.55 1142.3 Q831.744 1138.74 828.11 1138.74 M828.11 1135.03 Q833.92 1135.03 836.975 1139.64 Q840.054 1144.22 840.054 1152.97 Q840.054 1161.7 836.975 1166.31 Q833.92 1170.89 828.11 1170.89 Q822.3 1170.89 819.221 1166.31 Q816.165 1161.7 816.165 1152.97 Q816.165 1144.22 819.221 1139.64 Q822.3 1135.03 828.11 1135.03 Z" fill="#000000" fill-rule="nonzero" fill-opacity="1" /><path clip-path="url(#clip780)" d="M1061.86 1151.58 Q1065.22 1152.3 1067.09 1154.57 Q1068.99 1156.84 1068.99 1160.17 Q1068.99 1165.29 1065.47 1168.09 Q1061.95 1170.89 1055.47 1170.89 Q1053.3 1170.89 1050.98 1170.45 Q1048.69 1170.03 1046.24 1169.18 L1046.24 1164.66 Q1048.18 1165.8 1050.5 1166.38 Q1052.81 1166.95 1055.33 1166.95 Q1059.73 1166.95 1062.02 1165.22 Q1064.34 1163.48 1064.34 1160.17 Q1064.34 1157.12 1062.19 1155.4 Q1060.06 1153.67 1056.24 1153.67 L1052.21 1153.67 L1052.21 1149.83 L1056.42 1149.83 Q1059.87 1149.83 1061.7 1148.46 Q1063.53 1147.07 1063.53 1144.48 Q1063.53 1141.82 1061.63 1140.4 Q1059.75 1138.97 1056.24 1138.97 Q1054.31 1138.97 1052.12 1139.39 Q1049.92 1139.8 1047.28 1140.68 L1047.28 1136.51 Q1049.94 1135.77 1052.25 1135.4 Q1054.59 1135.03 1056.65 1135.03 Q1061.98 1135.03 1065.08 1137.46 Q1068.18 1139.87 1068.18 1143.99 Q1068.18 1146.86 1066.54 1148.85 Q1064.89 1150.82 1061.86 1151.58 Z" fill="#000000" fill-rule="nonzero" fill-opacity="1" /><path clip-path="url(#clip780)" d="M1087.86 1138.74 Q1084.25 1138.74 1082.42 1142.3 Q1080.61 1145.84 1080.61 1152.97 Q1080.61 1160.08 1082.42 1163.64 Q1084.25 1167.19 1087.86 1167.19 Q1091.49 1167.19 1093.3 1163.64 Q1095.12 1160.08 1095.12 1152.97 Q1095.12 1145.84 1093.3 1142.3 Q1091.49 1138.74 1087.86 1138.74 M1087.86 1135.03 Q1093.67 1135.03 1096.72 1139.64 Q1099.8 1144.22 1099.8 1152.97 Q1099.8 1161.7 1096.72 1166.31 Q1093.67 1170.89 1087.86 1170.89 Q1082.05 1170.89 1078.97 1166.31 Q1075.91 1161.7 1075.91 1152.97 Q1075.91 1144.22 1078.97 1139.64 Q1082.05 1135.03 1087.86 1135.03 Z" fill="#000000" fill-rule="nonzero" fill-opacity="1" /><path clip-path="url(#clip780)" d="M1321.01 1139.73 L1309.2 1158.18 L1321.01 1158.18 L1321.01 1139.73 M1319.78 1135.66 L1325.66 1135.66 L1325.66 1158.18 L1330.59 1158.18 L1330.59 1162.07 L1325.66 1162.07 L1325.66 1170.22 L1321.01 1170.22 L1321.01 1162.07 L1305.4 1162.07 L1305.4 1157.56 L1319.78 1135.66 Z" fill="#000000" fill-rule="nonzero" fill-opacity="1" /><path clip-path="url(#clip780)" d="M1348.32 1138.74 Q1344.71 1138.74 1342.88 1142.3 Q1341.08 1145.84 1341.08 1152.97 Q1341.08 1160.08 1342.88 1163.64 Q1344.71 1167.19 1348.32 1167.19 Q1351.95 1167.19 1353.76 1163.64 Q1355.59 1160.08 1355.59 1152.97 Q1355.59 1145.84 1353.76 1142.3 Q1351.95 1138.74 1348.32 1138.74 M1348.32 1135.03 Q1354.13 1135.03 1357.19 1139.64 Q1360.27 1144.22 1360.27 1152.97 Q1360.27 1161.7 1357.19 1166.31 Q1354.13 1170.89 1348.32 1170.89 Q1342.51 1170.89 1339.43 1166.31 Q1336.38 1161.7 1336.38 1152.97 Q1336.38 1144.22 1339.43 1139.64 Q1342.51 1135.03 1348.32 1135.03 Z" fill="#000000" fill-rule="nonzero" fill-opacity="1" /><path clip-path="url(#clip780)" d="M1567.35 1135.66 L1585.71 1135.66 L1585.71 1139.59 L1571.63 1139.59 L1571.63 1148.07 Q1572.65 1147.72 1573.67 1147.56 Q1574.69 1147.37 1575.71 1147.37 Q1581.49 1147.37 1584.87 1150.54 Q1588.25 1153.71 1588.25 1159.13 Q1588.25 1164.71 1584.78 1167.81 Q1581.31 1170.89 1574.99 1170.89 Q1572.81 1170.89 1570.54 1170.52 Q1568.3 1170.15 1565.89 1169.41 L1565.89 1164.71 Q1567.97 1165.84 1570.2 1166.4 Q1572.42 1166.95 1574.9 1166.95 Q1578.9 1166.95 1581.24 1164.85 Q1583.58 1162.74 1583.58 1159.13 Q1583.58 1155.52 1581.24 1153.41 Q1578.9 1151.31 1574.9 1151.31 Q1573.02 1151.31 1571.15 1151.72 Q1569.29 1152.14 1567.35 1153.02 L1567.35 1135.66 Z" fill="#000000" fill-rule="nonzero" fill-opacity="1" /><path clip-path="url(#clip780)" d="M1607.47 1138.74 Q1603.85 1138.74 1602.03 1142.3 Q1600.22 1145.84 1600.22 1152.97 Q1600.22 1160.08 1602.03 1163.64 Q1603.85 1167.19 1607.47 1167.19 Q1611.1 1167.19 1612.91 1163.64 Q1614.73 1160.08 1614.73 1152.97 Q1614.73 1145.84 1612.91 1142.3 Q1611.1 1138.74 1607.47 1138.74 M1607.47 1135.03 Q1613.28 1135.03 1616.33 1139.64 Q1619.41 1144.22 1619.41 1152.97 Q1619.41 1161.7 1616.33 1166.31 Q1613.28 1170.89 1607.47 1170.89 Q1601.66 1170.89 1598.58 1166.31 Q1595.52 1161.7 1595.52 1152.97 Q1595.52 1144.22 1598.58 1139.64 Q1601.66 1135.03 1607.47 1135.03 Z" fill="#000000" fill-rule="nonzero" fill-opacity="1" /><path clip-path="url(#clip780)" d="M1837.87 1151.08 Q1834.72 1151.08 1832.87 1153.23 Q1831.04 1155.38 1831.04 1159.13 Q1831.04 1162.86 1832.87 1165.03 Q1834.72 1167.19 1837.87 1167.19 Q1841.02 1167.19 1842.85 1165.03 Q1844.7 1162.86 1844.7 1159.13 Q1844.7 1155.38 1842.85 1153.23 Q1841.02 1151.08 1837.87 1151.08 M1847.15 1136.42 L1847.15 1140.68 Q1845.4 1139.85 1843.59 1139.41 Q1841.81 1138.97 1840.05 1138.97 Q1835.42 1138.97 1832.96 1142.09 Q1830.53 1145.22 1830.19 1151.54 Q1831.55 1149.52 1833.61 1148.46 Q1835.67 1147.37 1838.15 1147.37 Q1843.36 1147.37 1846.37 1150.54 Q1849.4 1153.69 1849.4 1159.13 Q1849.4 1164.45 1846.25 1167.67 Q1843.1 1170.89 1837.87 1170.89 Q1831.88 1170.89 1828.71 1166.31 Q1825.53 1161.7 1825.53 1152.97 Q1825.53 1144.78 1829.42 1139.92 Q1833.31 1135.03 1839.86 1135.03 Q1841.62 1135.03 1843.4 1135.38 Q1845.21 1135.73 1847.15 1136.42 Z" fill="#000000" fill-rule="nonzero" fill-opacity="1" /><path clip-path="url(#clip780)" d="M1867.46 1138.74 Q1863.84 1138.74 1862.02 1142.3 Q1860.21 1145.84 1860.21 1152.97 Q1860.21 1160.08 1862.02 1163.64 Q1863.84 1167.19 1867.46 1167.19 Q1871.09 1167.19 1872.9 1163.64 Q1874.72 1160.08 1874.72 1152.97 Q1874.72 1145.84 1872.9 1142.3 Q1871.09 1138.74 1867.46 1138.74 M1867.46 1135.03 Q1873.27 1135.03 1876.32 1139.64 Q1879.4 1144.22 1879.4 1152.97 Q1879.4 1161.7 1876.32 1166.31 Q1873.27 1170.89 1867.46 1170.89 Q1861.65 1170.89 1858.57 1166.31 Q1855.51 1161.7 1855.51 1152.97 Q1855.51 1144.22 1858.57 1139.64 Q1861.65 1135.03 1867.46 1135.03 Z" fill="#000000" fill-rule="nonzero" fill-opacity="1" /><g clip-path="url(#clip780)">
<text style="fill:#000000; fill-opacity:1; font-family:Arial,Helvetica Neue,Helvetica,sans-serif; font-size:66px; text-anchor:middle;" transform="rotate(0, 1099, 1252.42)" x="1099" y="1252.42">Krylov dimension</text>
</g>
<polyline clip-path="url(#clip780)" style="stroke:#000000; stroke-linecap:round; stroke-linejoin:round; stroke-width:4; stroke-opacity:1; fill:none" points="245.244,1111.02 245.244,107.256 "/>
<polyline clip-path="url(#clip780)" style="stroke:#000000; stroke-linecap:round; stroke-linejoin:round; stroke-width:4; stroke-opacity:1; fill:none" points="245.244,1070.14 264.142,1070.14 "/>
<polyline clip-path="url(#clip780)" style="stroke:#000000; stroke-linecap:round; stroke-linejoin:round; stroke-width:4; stroke-opacity:1; fill:none" points="245.244,570.046 264.142,570.046 "/>
<path clip-path="url(#clip780)" d="M113.675 1089.93 L121.314 1089.93 L121.314 1063.57 L113.004 1065.23 L113.004 1060.97 L121.268 1059.31 L125.944 1059.31 L125.944 1089.93 L133.583 1089.93 L133.583 1093.87 L113.675 1093.87 L113.675 1089.93 Z" fill="#000000" fill-rule="nonzero" fill-opacity="1" /><path clip-path="url(#clip780)" d="M153.027 1062.39 Q149.416 1062.39 147.587 1065.95 Q145.782 1069.49 145.782 1076.62 Q145.782 1083.73 147.587 1087.29 Q149.416 1090.83 153.027 1090.83 Q156.661 1090.83 158.467 1087.29 Q160.295 1083.73 160.295 1076.62 Q160.295 1069.49 158.467 1065.95 Q156.661 1062.39 153.027 1062.39 M153.027 1058.68 Q158.837 1058.68 161.893 1063.29 Q164.971 1067.87 164.971 1076.62 Q164.971 1085.35 161.893 1089.95 Q158.837 1094.54 153.027 1094.54 Q147.217 1094.54 144.138 1089.95 Q141.082 1085.35 141.082 1076.62 Q141.082 1067.87 144.138 1063.29 Q147.217 1058.68 153.027 1058.68 Z" fill="#000000" fill-rule="nonzero" fill-opacity="1" /><path clip-path="url(#clip780)" d="M164.971 1052.78 L189.083 1052.78 L189.083 1055.98 L164.971 1055.98 L164.971 1052.78 Z" fill="#000000" fill-rule="nonzero" fill-opacity="1" /><path clip-path="url(#clip780)" d="M205.878 1050.9 Q203.32 1050.9 201.816 1052.65 Q200.33 1054.4 200.33 1057.45 Q200.33 1060.48 201.816 1062.24 Q203.32 1063.99 205.878 1063.99 Q208.436 1063.99 209.922 1062.24 Q211.426 1060.48 211.426 1057.45 Q211.426 1054.4 209.922 1052.65 Q208.436 1050.9 205.878 1050.9 M213.42 1039 L213.42 1042.46 Q211.991 1041.78 210.524 1041.42 Q209.075 1041.07 207.646 1041.07 Q203.885 1041.07 201.891 1043.6 Q199.916 1046.14 199.634 1051.28 Q200.744 1049.64 202.417 1048.78 Q204.091 1047.89 206.104 1047.89 Q210.336 1047.89 212.781 1050.47 Q215.244 1053.03 215.244 1057.45 Q215.244 1061.77 212.687 1064.39 Q210.129 1067 205.878 1067 Q201.007 1067 198.43 1063.28 Q195.854 1059.53 195.854 1052.44 Q195.854 1045.79 199.013 1041.84 Q202.173 1037.87 207.496 1037.87 Q208.925 1037.87 210.373 1038.15 Q211.84 1038.43 213.42 1039 Z" fill="#000000" fill-rule="nonzero" fill-opacity="1" /><path clip-path="url(#clip780)" d="M114.333 589.839 L121.972 589.839 L121.972 563.473 L113.662 565.14 L113.662 560.88 L121.926 559.214 L126.602 559.214 L126.602 589.839 L134.241 589.839 L134.241 593.774 L114.333 593.774 L114.333 589.839 Z" fill="#000000" fill-rule="nonzero" fill-opacity="1" /><path clip-path="url(#clip780)" d="M153.685 562.292 Q150.074 562.292 148.245 565.857 Q146.44 569.399 146.44 576.528 Q146.44 583.635 148.245 587.2 Q150.074 590.741 153.685 590.741 Q157.319 590.741 159.125 587.2 Q160.954 583.635 160.954 576.528 Q160.954 569.399 159.125 565.857 Q157.319 562.292 153.685 562.292 M153.685 558.589 Q159.495 558.589 162.551 563.195 Q165.629 567.778 165.629 576.528 Q165.629 585.255 162.551 589.862 Q159.495 594.445 153.685 594.445 Q147.875 594.445 144.796 589.862 Q141.741 585.255 141.741 576.528 Q141.741 567.778 144.796 563.195 Q147.875 558.589 153.685 558.589 Z" fill="#000000" fill-rule="nonzero" fill-opacity="1" /><path clip-path="url(#clip780)" d="M165.629 552.69 L189.741 552.69 L189.741 555.887 L165.629 555.887 L165.629 552.69 Z" fill="#000000" fill-rule="nonzero" fill-opacity="1" /><path clip-path="url(#clip780)" d="M209.452 551.223 Q212.179 551.806 213.702 553.649 Q215.244 555.492 215.244 558.201 Q215.244 562.357 212.386 564.633 Q209.527 566.909 204.261 566.909 Q202.493 566.909 200.612 566.551 Q198.75 566.213 196.756 565.517 L196.756 561.849 Q198.336 562.771 200.217 563.241 Q202.098 563.711 204.148 563.711 Q207.721 563.711 209.583 562.301 Q211.464 560.89 211.464 558.201 Q211.464 555.718 209.715 554.326 Q207.985 552.916 204.881 552.916 L201.609 552.916 L201.609 549.794 L205.032 549.794 Q207.834 549.794 209.32 548.684 Q210.806 547.556 210.806 545.449 Q210.806 543.286 209.264 542.139 Q207.74 540.973 204.881 540.973 Q203.32 540.973 201.534 541.311 Q199.747 541.65 197.603 542.365 L197.603 538.979 Q199.766 538.377 201.646 538.076 Q203.546 537.776 205.22 537.776 Q209.546 537.776 212.066 539.75 Q214.586 541.706 214.586 545.054 Q214.586 547.386 213.251 549.004 Q211.915 550.602 209.452 551.223 Z" fill="#000000" fill-rule="nonzero" fill-opacity="1" /><g clip-path="url(#clip780)">
<text style="fill:#000000; fill-opacity:1; font-family:Arial,Helvetica Neue,Helvetica,sans-serif; font-size:66px; text-anchor:middle;" transform="rotate(-90, 71.4418, 609.137)" x="71.4418" y="609.137">relative residual norm</text>
</g>
<g clip-path="url(#clip780)">
<text style="fill:#000000; fill-opacity:1; font-family:Arial,Helvetica Neue,Helvetica,sans-serif; font-size:66px; text-anchor:middle;" transform="rotate(0, 1099, 57.6)" x="1099" y="57.6">Convergence of MINRES and CG</text>
</g>
<polyline clip-path="url(#clip782)" style="stroke:#009af9; stroke-linecap:round; stroke-linejoin:round; stroke-width:8; stroke-opacity:1; fill:none" points="293.57,141.124 319.552,184.9 345.533,216.654 371.515,242.112 397.497,263.152 423.478,282.632 449.46,300.182 475.441,316.321 501.423,331.759 527.405,346.9 553.386,361.48 579.368,375.755 605.35,389.521 631.331,403.746 657.313,417.607 683.294,431.885 709.276,446.008 735.258,460.04 761.239,473.796 787.221,488.383 813.202,502.527 839.184,517.171 865.166,531.319 891.147,545.918 917.129,560.374 943.11,575.036 969.092,589.136 995.074,604.026 1021.06,618.253 1047.04,632.426 1073.02,647.167 1099,661.464 1124.98,675.967 1150.96,690.082 1176.94,704.816 1202.93,718.853 1228.91,733.67 1254.89,748.298 1280.87,762.733 1306.85,776.845 1332.83,792.138 1358.82,806.479 1384.8,820.799 1410.78,835.389 1436.76,850.176 1462.74,864.702 1488.72,879.268 1514.71,893.886 1540.69,908.443 1566.67,922.287 1592.65,936.962 1618.63,951.845 1644.61,966.358 1670.6,980.53 1696.58,995.026 1722.56,1009.68 1748.54,1024.46 1774.52,1039.16 1800.5,1053.58 1826.49,1067.91 1852.47,1082.61 "/>
<polyline clip-path="url(#clip782)" style="stroke:#e26f46; stroke-linecap:round; stroke-linejoin:round; stroke-width:8; stroke-opacity:1; fill:none" points="293.57,135.664 319.552,172.073 345.533,197.189 371.515,217.386 397.497,233.499 423.478,250.9 449.46,265.554 475.441,279.311 501.423,293.468 527.405,308.043 553.386,321.519 579.368,335.17 605.35,347.858 631.331,363.059 657.313,376.15 683.294,391.307 709.276,405.105 735.258,418.946 761.239,432.114 787.221,448.435 813.202,461.669 839.184,477.337 865.166,490.472 891.147,505.994 917.129,520.161 943.11,535.238 969.092,548.186 995.074,564.682 1021.06,577.568 1047.04,591.63 1073.02,607.527 1099,620.924 1124.98,635.85 1150.96,649.164 1176.94,665.16 1202.93,677.771 1228.91,694.182 1254.89,708.431 1280.87,722.476 1306.85,735.921 1332.83,753.571 1358.82,766.032 1384.8,780.306 1410.78,795.446 1436.76,810.627 1462.74,824.632 1488.72,839.276 1514.71,854 1540.69,868.435 1566.67,880.794 1592.65,897.189 1618.63,912.486 1644.61,926.261 1670.6,939.731 1696.58,954.894 1722.56,969.873 1748.54,984.888 1774.52,999.431 1800.5,1013.3 1826.49,1027.44 1852.47,1042.89 1878.45,1057.1 1904.43,1072.46 "/>
<path clip-path="url(#clip780)" d="M1570 296.235 L1895.84 296.235 L1895.84 140.715 L1570 140.715  Z" fill="#ffffff" fill-rule="evenodd" fill-opacity="1"/>
<polyline clip-path="url(#clip780)" style="stroke:#000000; stroke-linecap:round; stroke-linejoin:round; stroke-width:4; stroke-opacity:1; fill:none" points="1570,296.235 1895.84,296.235 1895.84,140.715 1570,140.715 1570,296.235 "/>
<polyline clip-path="url(#clip780)" style="stroke:#009af9; stroke-linecap:round; stroke-linejoin:round; stroke-width:8; stroke-opacity:1; fill:none" points="1588.97,192.555 1702.8,192.555 "/>
<path clip-path="url(#clip780)" d="M1742.12 188.886 Q1743.72 186.015 1745.94 184.65 Q1748.16 183.284 1751.17 183.284 Q1755.22 183.284 1757.42 186.131 Q1759.62 188.955 1759.62 194.187 L1759.62 209.835 L1755.34 209.835 L1755.34 194.325 Q1755.34 190.599 1754.02 188.793 Q1752.7 186.988 1749.99 186.988 Q1746.68 186.988 1744.76 189.187 Q1742.84 191.386 1742.84 195.182 L1742.84 209.835 L1738.56 209.835 L1738.56 194.325 Q1738.56 190.575 1737.24 188.793 Q1735.92 186.988 1733.16 186.988 Q1729.9 186.988 1727.98 189.21 Q1726.06 191.409 1726.06 195.182 L1726.06 209.835 L1721.77 209.835 L1721.77 183.909 L1726.06 183.909 L1726.06 187.937 Q1727.52 185.552 1729.55 184.418 Q1731.59 183.284 1734.39 183.284 Q1737.21 183.284 1739.18 184.719 Q1741.17 186.154 1742.12 188.886 Z" fill="#000000" fill-rule="nonzero" fill-opacity="1" /><path clip-path="url(#clip780)" d="M1768.12 183.909 L1772.38 183.909 L1772.38 209.835 L1768.12 209.835 L1768.12 183.909 M1768.12 173.816 L1772.38 173.816 L1772.38 179.21 L1768.12 179.21 L1768.12 173.816 Z" fill="#000000" fill-rule="nonzero" fill-opacity="1" /><path clip-path="url(#clip780)" d="M1802.84 194.187 L1802.84 209.835 L1798.58 209.835 L1798.58 194.325 Q1798.58 190.645 1797.14 188.816 Q1795.71 186.988 1792.84 186.988 Q1789.39 186.988 1787.4 189.187 Q1785.41 191.386 1785.41 195.182 L1785.41 209.835 L1781.13 209.835 L1781.13 183.909 L1785.41 183.909 L1785.41 187.937 Q1786.94 185.599 1789 184.441 Q1791.08 183.284 1793.79 183.284 Q1798.26 183.284 1800.55 186.062 Q1802.84 188.816 1802.84 194.187 Z" fill="#000000" fill-rule="nonzero" fill-opacity="1" /><path clip-path="url(#clip780)" d="M1826.36 187.89 Q1825.64 187.474 1824.78 187.288 Q1823.95 187.08 1822.93 187.08 Q1819.32 187.08 1817.38 189.441 Q1815.45 191.779 1815.45 196.177 L1815.45 209.835 L1811.17 209.835 L1811.17 183.909 L1815.45 183.909 L1815.45 187.937 Q1816.8 185.576 1818.95 184.441 Q1821.1 183.284 1824.18 183.284 Q1824.62 183.284 1825.15 183.353 Q1825.69 183.4 1826.33 183.515 L1826.36 187.89 Z" fill="#000000" fill-rule="nonzero" fill-opacity="1" /><path clip-path="url(#clip780)" d="M1851.96 195.807 L1851.96 197.89 L1832.38 197.89 Q1832.65 202.288 1835.01 204.603 Q1837.4 206.895 1841.64 206.895 Q1844.09 206.895 1846.38 206.293 Q1848.7 205.691 1850.96 204.487 L1850.96 208.515 Q1848.67 209.487 1846.26 209.997 Q1843.86 210.506 1841.38 210.506 Q1835.18 210.506 1831.54 206.895 Q1827.93 203.284 1827.93 197.126 Q1827.93 190.761 1831.36 187.034 Q1834.81 183.284 1840.64 183.284 Q1845.87 183.284 1848.9 186.663 Q1851.96 190.02 1851.96 195.807 M1847.7 194.557 Q1847.65 191.062 1845.73 188.978 Q1843.83 186.895 1840.69 186.895 Q1837.12 186.895 1834.97 188.909 Q1832.84 190.923 1832.51 194.58 L1847.7 194.557 Z" fill="#000000" fill-rule="nonzero" fill-opacity="1" /><path clip-path="url(#clip780)" d="M1875.48 184.673 L1875.48 188.7 Q1873.67 187.775 1871.73 187.312 Q1869.78 186.849 1867.7 186.849 Q1864.53 186.849 1862.93 187.821 Q1861.36 188.793 1861.36 190.738 Q1861.36 192.219 1862.49 193.075 Q1863.63 193.909 1867.05 194.673 L1868.51 194.997 Q1873.05 195.969 1874.95 197.751 Q1876.87 199.511 1876.87 202.682 Q1876.87 206.293 1874 208.399 Q1871.15 210.506 1866.15 210.506 Q1864.07 210.506 1861.8 210.089 Q1859.55 209.696 1857.05 208.886 L1857.05 204.487 Q1859.41 205.714 1861.7 206.339 Q1864 206.941 1866.24 206.941 Q1869.25 206.941 1870.87 205.923 Q1872.49 204.881 1872.49 203.006 Q1872.49 201.27 1871.31 200.344 Q1870.15 199.418 1866.2 198.562 L1864.71 198.214 Q1860.76 197.381 1859 195.668 Q1857.24 193.932 1857.24 190.923 Q1857.24 187.265 1859.83 185.275 Q1862.42 183.284 1867.19 183.284 Q1869.55 183.284 1871.64 183.631 Q1873.72 183.978 1875.48 184.673 Z" fill="#000000" fill-rule="nonzero" fill-opacity="1" /><polyline clip-path="url(#clip780)" style="stroke:#e26f46; stroke-linecap:round; stroke-linejoin:round; stroke-width:8; stroke-opacity:1; fill:none" points="1588.97,244.395 1702.8,244.395 "/>
<path clip-path="url(#clip780)" d="M1742.28 236.744 L1742.28 240.726 Q1740.48 239.73 1738.65 239.244 Q1736.84 238.735 1734.99 238.735 Q1730.85 238.735 1728.56 241.374 Q1726.27 243.99 1726.27 248.735 Q1726.27 253.48 1728.56 256.119 Q1730.85 258.735 1734.99 258.735 Q1736.84 258.735 1738.65 258.249 Q1740.48 257.739 1742.28 256.744 L1742.28 260.679 Q1740.5 261.513 1738.58 261.929 Q1736.68 262.346 1734.53 262.346 Q1728.67 262.346 1725.22 258.665 Q1721.77 254.985 1721.77 248.735 Q1721.77 242.392 1725.25 238.758 Q1728.74 235.124 1734.81 235.124 Q1736.77 235.124 1738.65 235.541 Q1740.52 235.934 1742.28 236.744 Z" fill="#000000" fill-rule="nonzero" fill-opacity="1" /><path clip-path="url(#clip780)" d="M1766.75 248.411 Q1766.75 243.781 1764.83 241.235 Q1762.93 238.689 1759.48 238.689 Q1756.06 238.689 1754.14 241.235 Q1752.24 243.781 1752.24 248.411 Q1752.24 253.017 1754.14 255.564 Q1756.06 258.11 1759.48 258.11 Q1762.93 258.11 1764.83 255.564 Q1766.75 253.017 1766.75 248.411 M1771.01 258.457 Q1771.01 265.077 1768.07 268.295 Q1765.13 271.536 1759.07 271.536 Q1756.82 271.536 1754.83 271.188 Q1752.84 270.864 1750.96 270.17 L1750.96 266.026 Q1752.84 267.045 1754.67 267.531 Q1756.5 268.017 1758.39 268.017 Q1762.58 268.017 1764.67 265.818 Q1766.75 263.642 1766.75 259.221 L1766.75 257.114 Q1765.43 259.406 1763.37 260.54 Q1761.31 261.675 1758.44 261.675 Q1753.67 261.675 1750.76 258.04 Q1747.84 254.406 1747.84 248.411 Q1747.84 242.392 1750.76 238.758 Q1753.67 235.124 1758.44 235.124 Q1761.31 235.124 1763.37 236.258 Q1765.43 237.392 1766.75 239.684 L1766.75 235.749 L1771.01 235.749 L1771.01 258.457 Z" fill="#000000" fill-rule="nonzero" fill-opacity="1" /></svg>
