<?xml version="1.0" encoding="utf-8"?>
<svg xmlns="http://www.w3.org/2000/svg" xmlns:xlink="http://www.w3.org/1999/xlink" width="500" height="320" viewBox="0 0 2000 1280">
<defs>
  <clipPath id="clip320">
    <rect x="0" y="0" width="2000" height="1280"/>
  </clipPath>
</defs>
<path clip-path="url(#clip320)" d="M0 1280 L2000 1280 L2000 0 L0 0  Z" fill="#ffffff" fill-rule="evenodd" fill-opacity="1"/>
<defs>
  <clipPath id="clip321">
    <rect x="400" y="0" width="1401" height="1280"/>
  </clipPath>
</defs>
<path clip-path="url(#clip320)" d="M185.496 1171.03 L1952.76 1171.03 L1952.76 107.256 L185.496 107.256  Z" fill="#ffffff" fill-rule="evenodd" fill-opacity="1"/>
<defs>
  <clipPath id="clip322">
    <rect x="185" y="107" width="1768" height="1065"/>
  </clipPath>
</defs>
<polyline clip-path="url(#clip322)" style="stroke:#000000; stroke-linecap:round; stroke-linejoin:round; stroke-width:2; stroke-opacity:0.1; fill:none" points="235.513,1171.03 235.513,107.256 "/>
<polyline clip-path="url(#clip322)" style="stroke:#000000; stroke-linecap:round; stroke-linejoin:round; stroke-width:2; stroke-opacity:0.1; fill:none" points="488.123,1171.03 488.123,107.256 "/>
<polyline clip-path="url(#clip322)" style="stroke:#000000; stroke-linecap:round; stroke-linejoin:round; stroke-width:2; stroke-opacity:0.1; fill:none" points="740.733,1171.03 740.733,107.256 "/>
<polyline clip-path="url(#clip322)" style="stroke:#000000; stroke-linecap:round; stroke-linejoin:round; stroke-width:2; stroke-opacity:0.1; fill:none" points="993.343,1171.03 993.343,107.256 "/>
<polyline clip-path="url(#clip322)" style="stroke:#000000; stroke-linecap:round; stroke-linejoin:round; stroke-width:2; stroke-opacity:0.1; fill:none" points="1245.95,1171.03 1245.95,107.256 "/>
<polyline clip-path="url(#clip322)" style="stroke:#000000; stroke-linecap:round; stroke-linejoin:round; stroke-width:2; stroke-opacity:0.1; fill:none" points="1498.56,1171.03 1498.56,107.256 "/>
<polyline clip-path="url(#clip322)" style="stroke:#000000; stroke-linecap:round; stroke-linejoin:round; stroke-width:2; stroke-opacity:0.1; fill:none" points="1751.17,1171.03 1751.17,107.256 "/>
<polyline clip-path="url(#clip322)" style="stroke:#000000; stroke-linecap:round; stroke-linejoin:round; stroke-width:2; stroke-opacity:0.1; fill:none" points="185.496,1091.99 1952.76,1091.99 "/>
<polyline clip-path="url(#clip322)" style="stroke:#000000; stroke-linecap:round; stroke-linejoin:round; stroke-width:2; stroke-opacity:0.1; fill:none" points="185.496,853.333 1952.76,853.333 "/>
<polyline clip-path="url(#clip322)" style="stroke:#000000; stroke-linecap:round; stroke-linejoin:round; stroke-width:2; stroke-opacity:0.1; fill:none" points="185.496,614.676 1952.76,614.676 "/>
<polyline clip-path="url(#clip322)" style="stroke:#000000; stroke-linecap:round; stroke-linejoin:round; stroke-width:2; stroke-opacity:0.1; fill:none" points="185.496,376.019 1952.76,376.019 "/>
<polyline clip-path="url(#clip322)" style="stroke:#000000; stroke-linecap:round; stroke-linejoin:round; stroke-width:2; stroke-opacity:0.1; fill:none" points="185.496,137.363 1952.76,137.363 "/>
<polyline clip-path="url(#clip320)" style="stroke:#000000; stroke-linecap:round; stroke-linejoin:round; stroke-width:4; stroke-opacity:1; fill:none" points="185.496,1171.03 1952.76,1171.03 "/>
<polyline clip-path="url(#clip320)" style="stroke:#000000; stroke-linecap:round; stroke-linejoin:round; stroke-width:4; stroke-opacity:1; fill:none" points="235.513,1171.03 235.513,1152.13 "/>
<polyline clip-path="url(#clip320)" style="stroke:#000000; stroke-linecap:round; stroke-linejoin:round; stroke-width:4; stroke-opacity:1; fill:none" points="488.123,1171.03 488.123,1152.13 "/>
<polyline clip-path="url(#clip320)" style="stroke:#000000; stroke-linecap:round; stroke-linejoin:round; stroke-width:4; stroke-opacity:1; fill:none" points="740.733,1171.03 740.733,1152.13 "/>
<polyline clip-path="url(#clip320)" style="stroke:#000000; stroke-linecap:round; stroke-linejoin:round; stroke-width:4; stroke-opacity:1; fill:none" points="993.343,1171.03 993.343,1152.13 "/>
<polyline clip-path="url(#clip320)" style="stroke:#000000; stroke-linecap:round; stroke-linejoin:round; stroke-width:4; stroke-opacity:1; fill:none" points="1245.95,1171.03 1245.95,1152.13 "/>
<polyline clip-path="url(#clip320)" style="stroke:#000000; stroke-linecap:round; stroke-linejoin:round; stroke-width:4; stroke-opacity:1; fill:none" points="1498.56,1171.03 1498.56,1152.13 "/>
<polyline clip-path="url(#clip320)" style="stroke:#000000; stroke-linecap:round; stroke-linejoin:round; stroke-width:4; stroke-opacity:1; fill:none" points="1751.17,1171.03 1751.17,1152.13 "/>
<path clip-path="url(#clip320)" d="M235.513 1198.75 Q231.902 1198.75 230.073 1202.31 Q228.267 1205.86 228.267 1212.98 Q228.267 1220.09 230.073 1223.66 Q231.902 1227.2 235.513 1227.2 Q239.147 1227.2 240.952 1223.66 Q242.781 1220.09 242.781 1212.98 Q242.781 1205.86 240.952 1202.31 Q239.147 1198.75 235.513 1198.75 M235.513 1195.05 Q241.323 1195.05 244.378 1199.65 Q247.457 1204.24 247.457 1212.98 Q247.457 1221.71 244.378 1226.32 Q241.323 1230.9 235.513 1230.9 Q229.703 1230.9 226.624 1226.32 Q223.568 1221.71 223.568 1212.98 Q223.568 1204.24 226.624 1199.65 Q229.703 1195.05 235.513 1195.05 Z" fill="#000000" fill-rule="nonzero" fill-opacity="1" /><path clip-path="url(#clip320)" d="M466.896 1226.3 L483.215 1226.3 L483.215 1230.23 L461.271 1230.23 L461.271 1226.3 Q463.933 1223.54 468.516 1218.91 Q473.123 1214.26 474.303 1212.92 Q476.549 1210.39 477.428 1208.66 Q478.331 1206.9 478.331 1205.21 Q478.331 1202.45 476.387 1200.72 Q474.465 1198.98 471.364 1198.98 Q469.165 1198.98 466.711 1199.74 Q464.28 1200.51 461.503 1202.06 L461.503 1197.34 Q464.327 1196.2 466.78 1195.62 Q469.234 1195.05 471.271 1195.05 Q476.641 1195.05 479.836 1197.73 Q483.03 1200.42 483.03 1204.91 Q483.03 1207.04 482.22 1208.96 Q481.433 1210.86 479.327 1213.45 Q478.748 1214.12 475.646 1217.34 Q472.544 1220.53 466.896 1226.3 Z" fill="#000000" fill-rule="nonzero" fill-opacity="1" /><path clip-path="url(#clip320)" d="M503.03 1198.75 Q499.419 1198.75 497.59 1202.31 Q495.785 1205.86 495.785 1212.98 Q495.785 1220.09 497.59 1223.66 Q499.419 1227.2 503.03 1227.2 Q506.664 1227.2 508.47 1223.66 Q510.299 1220.09 510.299 1212.98 Q510.299 1205.86 508.47 1202.31 Q506.664 1198.75 503.03 1198.75 M503.03 1195.05 Q508.84 1195.05 511.896 1199.65 Q514.974 1204.24 514.974 1212.98 Q514.974 1221.71 511.896 1226.32 Q508.84 1230.9 503.03 1230.9 Q497.22 1230.9 494.141 1226.32 Q491.086 1221.71 491.086 1212.98 Q491.086 1204.24 494.141 1199.65 Q497.22 1195.05 503.03 1195.05 Z" fill="#000000" fill-rule="nonzero" fill-opacity="1" /><path clip-path="url(#clip320)" d="M728.904 1199.74 L717.099 1218.19 L728.904 1218.19 L728.904 1199.74 M727.677 1195.67 L733.557 1195.67 L733.557 1218.19 L738.487 1218.19 L738.487 1222.08 L733.557 1222.08 L733.557 1230.23 L728.904 1230.23 L728.904 1222.08 L713.302 1222.08 L713.302 1217.57 L727.677 1195.67 Z" fill="#000000" fill-rule="nonzero" fill-opacity="1" /><path clip-path="url(#clip320)" d="M756.219 1198.75 Q752.608 1198.75 750.779 1202.31 Q748.974 1205.86 748.974 1212.98 Q748.974 1220.09 750.779 1223.66 Q752.608 1227.2 756.219 1227.2 Q759.853 1227.2 761.659 1223.66 Q763.487 1220.09 763.487 1212.98 Q763.487 1205.86 761.659 1202.31 Q759.853 1198.75 756.219 1198.75 M756.219 1195.05 Q762.029 1195.05 765.085 1199.65 Q768.163 1204.24 768.163 1212.98 Q768.163 1221.71 765.085 1226.32 Q762.029 1230.9 756.219 1230.9 Q750.409 1230.9 747.33 1226.32 Q744.274 1221.71 744.274 1212.98 Q744.274 1204.24 747.33 1199.65 Q750.409 1195.05 756.219 1195.05 Z" fill="#000000" fill-rule="nonzero" fill-opacity="1" /><path clip-path="url(#clip320)" d="M978.748 1211.09 Q975.6 1211.09 973.748 1213.24 Q971.919 1215.39 971.919 1219.14 Q971.919 1222.87 973.748 1225.05 Q975.6 1227.2 978.748 1227.2 Q981.896 1227.2 983.725 1225.05 Q985.577 1222.87 985.577 1219.14 Q985.577 1215.39 983.725 1213.24 Q981.896 1211.09 978.748 1211.09 M988.03 1196.43 L988.03 1200.69 Q986.271 1199.86 984.466 1199.42 Q982.683 1198.98 980.924 1198.98 Q976.294 1198.98 973.841 1202.11 Q971.41 1205.23 971.063 1211.55 Q972.429 1209.54 974.489 1208.47 Q976.549 1207.38 979.026 1207.38 Q984.234 1207.38 987.243 1210.55 Q990.276 1213.7 990.276 1219.14 Q990.276 1224.47 987.128 1227.68 Q983.98 1230.9 978.748 1230.9 Q972.753 1230.9 969.581 1226.32 Q966.41 1221.71 966.41 1212.98 Q966.41 1204.79 970.299 1199.93 Q974.188 1195.05 980.739 1195.05 Q982.498 1195.05 984.28 1195.39 Q986.086 1195.74 988.03 1196.43 Z" fill="#000000" fill-rule="nonzero" fill-opacity="1" /><path clip-path="url(#clip320)" d="M1008.33 1198.75 Q1004.72 1198.75 1002.89 1202.31 Q1001.09 1205.86 1001.09 1212.98 Q1001.09 1220.09 1002.89 1223.66 Q1004.72 1227.2 1008.33 1227.2 Q1011.97 1227.2 1013.77 1223.66 Q1015.6 1220.09 1015.6 1212.98 Q1015.6 1205.86 1013.77 1202.31 Q1011.97 1198.75 1008.33 1198.75 M1008.33 1195.05 Q1014.14 1195.05 1017.2 1199.65 Q1020.28 1204.24 1020.28 1212.98 Q1020.28 1221.71 1017.2 1226.32 Q1014.14 1230.9 1008.33 1230.9 Q1002.52 1230.9 999.442 1226.32 Q996.387 1221.71 996.387 1212.98 Q996.387 1204.24 999.442 1199.65 Q1002.52 1195.05 1008.33 1195.05 Z" fill="#000000" fill-rule="nonzero" fill-opacity="1" /><path clip-path="url(#clip320)" d="M1230.83 1213.82 Q1227.49 1213.82 1225.57 1215.6 Q1223.67 1217.38 1223.67 1220.51 Q1223.67 1223.63 1225.57 1225.42 Q1227.49 1227.2 1230.83 1227.2 Q1234.16 1227.2 1236.08 1225.42 Q1238 1223.61 1238 1220.51 Q1238 1217.38 1236.08 1215.6 Q1234.18 1213.82 1230.83 1213.82 M1226.15 1211.83 Q1223.14 1211.09 1221.45 1209.03 Q1219.78 1206.97 1219.78 1204 Q1219.78 1199.86 1222.72 1197.45 Q1225.69 1195.05 1230.83 1195.05 Q1235.99 1195.05 1238.93 1197.45 Q1241.87 1199.86 1241.87 1204 Q1241.87 1206.97 1240.18 1209.03 Q1238.51 1211.09 1235.52 1211.83 Q1238.9 1212.61 1240.78 1214.91 Q1242.68 1217.2 1242.68 1220.51 Q1242.68 1225.53 1239.6 1228.22 Q1236.54 1230.9 1230.83 1230.9 Q1225.11 1230.9 1222.03 1228.22 Q1218.97 1225.53 1218.97 1220.51 Q1218.97 1217.2 1220.87 1214.91 Q1222.77 1212.61 1226.15 1211.83 M1224.44 1204.44 Q1224.44 1207.13 1226.1 1208.63 Q1227.79 1210.14 1230.83 1210.14 Q1233.83 1210.14 1235.52 1208.63 Q1237.24 1207.13 1237.24 1204.44 Q1237.24 1201.76 1235.52 1200.25 Q1233.83 1198.75 1230.83 1198.75 Q1227.79 1198.75 1226.1 1200.25 Q1224.44 1201.76 1224.44 1204.44 Z" fill="#000000" fill-rule="nonzero" fill-opacity="1" /><path clip-path="url(#clip320)" d="M1260.99 1198.75 Q1257.38 1198.75 1255.55 1202.31 Q1253.74 1205.86 1253.74 1212.98 Q1253.74 1220.09 1255.55 1223.66 Q1257.38 1227.2 1260.99 1227.2 Q1264.62 1227.2 1266.43 1223.66 Q1268.26 1220.09 1268.26 1212.98 Q1268.26 1205.86 1266.43 1202.31 Q1264.62 1198.75 1260.99 1198.75 M1260.99 1195.05 Q1266.8 1195.05 1269.85 1199.65 Q1272.93 1204.24 1272.93 1212.98 Q1272.93 1221.71 1269.85 1226.32 Q1266.8 1230.9 1260.99 1230.9 Q1255.18 1230.9 1252.1 1226.32 Q1249.04 1221.71 1249.04 1212.98 Q1249.04 1204.24 1252.1 1199.65 Q1255.18 1195.05 1260.99 1195.05 Z" fill="#000000" fill-rule="nonzero" fill-opacity="1" /><path clip-path="url(#clip320)" d="M1458.17 1226.3 L1465.81 1226.3 L1465.81 1199.93 L1457.5 1201.6 L1457.5 1197.34 L1465.76 1195.67 L1470.44 1195.67 L1470.44 1226.3 L1478.08 1226.3 L1478.08 1230.23 L1458.17 1230.23 L1458.17 1226.3 Z" fill="#000000" fill-rule="nonzero" fill-opacity="1" /><path clip-path="url(#clip320)" d="M1497.52 1198.75 Q1493.91 1198.75 1492.08 1202.31 Q1490.28 1205.86 1490.28 1212.98 Q1490.28 1220.09 1492.08 1223.66 Q1493.91 1227.2 1497.52 1227.2 Q1501.16 1227.2 1502.96 1223.66 Q1504.79 1220.09 1504.79 1212.98 Q1504.79 1205.86 1502.96 1202.31 Q1501.16 1198.75 1497.52 1198.75 M1497.52 1195.05 Q1503.33 1195.05 1506.39 1199.65 Q1509.47 1204.24 1509.47 1212.98 Q1509.47 1221.71 1506.39 1226.32 Q1503.33 1230.9 1497.52 1230.9 Q1491.71 1230.9 1488.63 1226.32 Q1485.58 1221.71 1485.58 1212.98 Q1485.58 1204.24 1488.63 1199.65 Q1491.71 1195.05 1497.52 1195.05 Z" fill="#000000" fill-rule="nonzero" fill-opacity="1" /><path clip-path="url(#clip320)" d="M1527.68 1198.75 Q1524.07 1198.75 1522.24 1202.31 Q1520.44 1205.86 1520.44 1212.98 Q1520.44 1220.09 1522.24 1223.66 Q1524.07 1227.2 1527.68 1227.2 Q1531.32 1227.2 1533.12 1223.66 Q1534.95 1220.09 1534.95 1212.98 Q1534.95 1205.86 1533.12 1202.31 Q1531.32 1198.75 1527.68 1198.75 M1527.68 1195.05 Q1533.49 1195.05 1536.55 1199.65 Q1539.63 1204.24 1539.63 1212.98 Q1539.63 1221.71 1536.55 1226.32 Q1533.49 1230.9 1527.68 1230.9 Q1521.87 1230.9 1518.79 1226.32 Q1515.74 1221.71 1515.74 1212.98 Q1515.74 1204.24 1518.79 1199.65 Q1521.87 1195.05 1527.68 1195.05 Z" fill="#000000" fill-rule="nonzero" fill-opacity="1" /><path clip-path="url(#clip320)" d="M1710.78 1226.3 L1718.42 1226.3 L1718.42 1199.93 L1710.11 1201.6 L1710.11 1197.34 L1718.37 1195.67 L1723.05 1195.67 L1723.05 1226.3 L1730.69 1226.3 L1730.69 1230.23 L1710.78 1230.23 L1710.78 1226.3 Z" fill="#000000" fill-rule="nonzero" fill-opacity="1" /><path clip-path="url(#clip320)" d="M1744.16 1226.3 L1760.48 1226.3 L1760.48 1230.23 L1738.53 1230.23 L1738.53 1226.3 Q1741.2 1223.54 1745.78 1218.91 Q1750.39 1214.26 1751.57 1212.92 Q1753.81 1210.39 1754.69 1208.66 Q1755.59 1206.9 1755.59 1205.21 Q1755.59 1202.45 1753.65 1200.72 Q1751.73 1198.98 1748.63 1198.98 Q1746.43 1198.98 1743.97 1199.74 Q1741.54 1200.51 1738.77 1202.06 L1738.77 1197.34 Q1741.59 1196.2 1744.04 1195.62 Q1746.5 1195.05 1748.53 1195.05 Q1753.9 1195.05 1757.1 1197.73 Q1760.29 1200.42 1760.29 1204.91 Q1760.29 1207.04 1759.48 1208.96 Q1758.7 1210.86 1756.59 1213.45 Q1756.01 1214.12 1752.91 1217.34 Q1749.81 1220.53 1744.16 1226.3 Z" fill="#000000" fill-rule="nonzero" fill-opacity="1" /><path clip-path="url(#clip320)" d="M1780.29 1198.75 Q1776.68 1198.75 1774.85 1202.31 Q1773.05 1205.86 1773.05 1212.98 Q1773.05 1220.09 1774.85 1223.66 Q1776.68 1227.2 1780.29 1227.2 Q1783.93 1227.2 1785.73 1223.66 Q1787.56 1220.09 1787.56 1212.98 Q1787.56 1205.86 1785.73 1202.31 Q1783.93 1198.75 1780.29 1198.75 M1780.29 1195.05 Q1786.1 1195.05 1789.16 1199.65 Q1792.24 1204.24 1792.24 1212.98 Q1792.24 1221.71 1789.16 1226.32 Q1786.1 1230.9 1780.29 1230.9 Q1774.48 1230.9 1771.4 1226.32 Q1768.35 1221.71 1768.35 1212.98 Q1768.35 1204.24 1771.4 1199.65 Q1774.48 1195.05 1780.29 1195.05 Z" fill="#000000" fill-rule="nonzero" fill-opacity="1" /><polyline clip-path="url(#clip320)" style="stroke:#000000; stroke-linecap:round; stroke-linejoin:round; stroke-width:4; stroke-opacity:1; fill:none" points="185.496,1171.03 185.496,107.256 "/>
<polyline clip-path="url(#clip320)" style="stroke:#000000; stroke-linecap:round; stroke-linejoin:round; stroke-width:4; stroke-opacity:1; fill:none" points="185.496,1091.99 204.394,1091.99 "/>
<polyline clip-path="url(#clip320)" style="stroke:#000000; stroke-linecap:round; stroke-linejoin:round; stroke-width:4; stroke-opacity:1; fill:none" points="185.496,853.333 204.394,853.333 "/>
<polyline clip-path="url(#clip320)" style="stroke:#000000; stroke-linecap:round; stroke-linejoin:round; stroke-width:4; stroke-opacity:1; fill:none" points="185.496,614.676 204.394,614.676 "/>
<polyline clip-path="url(#clip320)" style="stroke:#000000; stroke-linecap:round; stroke-linejoin:round; stroke-width:4; stroke-opacity:1; fill:none" points="185.496,376.019 204.394,376.019 "/>
<polyline clip-path="url(#clip320)" style="stroke:#000000; stroke-linecap:round; stroke-linejoin:round; stroke-width:4; stroke-opacity:1; fill:none" points="185.496,137.363 204.394,137.363 "/>
<path clip-path="url(#clip320)" d="M53.6634 1111.78 L61.3023 1111.78 L61.3023 1085.42 L52.9921 1087.08 L52.9921 1082.82 L61.256 1081.16 L65.9319 1081.16 L65.9319 1111.78 L73.5707 1111.78 L73.5707 1115.72 L53.6634 1115.72 L53.6634 1111.78 Z" fill="#000000" fill-rule="nonzero" fill-opacity="1" /><path clip-path="url(#clip320)" d="M93.0151 1084.24 Q89.404 1084.24 87.5753 1087.8 Q85.7697 1091.34 85.7697 1098.47 Q85.7697 1105.58 87.5753 1109.14 Q89.404 1112.68 93.0151 1112.68 Q96.6493 1112.68 98.4548 1109.14 Q100.284 1105.58 100.284 1098.47 Q100.284 1091.34 98.4548 1087.8 Q96.6493 1084.24 93.0151 1084.24 M93.0151 1080.53 Q98.8252 1080.53 101.881 1085.14 Q104.959 1089.72 104.959 1098.47 Q104.959 1107.2 101.881 1111.81 Q98.8252 1116.39 93.0151 1116.39 Q87.2049 1116.39 84.1262 1111.81 Q81.0707 1107.2 81.0707 1098.47 Q81.0707 1089.72 84.1262 1085.14 Q87.2049 1080.53 93.0151 1080.53 Z" fill="#000000" fill-rule="nonzero" fill-opacity="1" /><path clip-path="url(#clip320)" d="M104.959 1074.63 L129.071 1074.63 L129.071 1077.83 L104.959 1077.83 L104.959 1074.63 Z" fill="#000000" fill-rule="nonzero" fill-opacity="1" /><path clip-path="url(#clip320)" d="M147.71 1063.54 L138.118 1078.53 L147.71 1078.53 L147.71 1063.54 M146.713 1060.23 L151.49 1060.23 L151.49 1078.53 L155.496 1078.53 L155.496 1081.69 L151.49 1081.69 L151.49 1088.31 L147.71 1088.31 L147.71 1081.69 L135.033 1081.69 L135.033 1078.02 L146.713 1060.23 Z" fill="#000000" fill-rule="nonzero" fill-opacity="1" /><path clip-path="url(#clip320)" d="M54.585 873.125 L62.2238 873.125 L62.2238 846.76 L53.9137 848.426 L53.9137 844.167 L62.1776 842.5 L66.8535 842.5 L66.8535 873.125 L74.4923 873.125 L74.4923 877.06 L54.585 877.06 L54.585 873.125 Z" fill="#000000" fill-rule="nonzero" fill-opacity="1" /><path clip-path="url(#clip320)" d="M93.9366 845.579 Q90.3255 845.579 88.4969 849.144 Q86.6913 852.686 86.6913 859.815 Q86.6913 866.922 88.4969 870.486 Q90.3255 874.028 93.9366 874.028 Q97.5709 874.028 99.3764 870.486 Q101.205 866.922 101.205 859.815 Q101.205 852.686 99.3764 849.144 Q97.5709 845.579 93.9366 845.579 M93.9366 841.875 Q99.7468 841.875 102.802 846.482 Q105.881 851.065 105.881 859.815 Q105.881 868.542 102.802 873.148 Q99.7468 877.732 93.9366 877.732 Q88.1265 877.732 85.0478 873.148 Q81.9923 868.542 81.9923 859.815 Q81.9923 851.065 85.0478 846.482 Q88.1265 841.875 93.9366 841.875 Z" fill="#000000" fill-rule="nonzero" fill-opacity="1" /><path clip-path="url(#clip320)" d="M105.881 835.977 L129.993 835.977 L129.993 839.174 L105.881 839.174 L105.881 835.977 Z" fill="#000000" fill-rule="nonzero" fill-opacity="1" /><path clip-path="url(#clip320)" d="M149.703 834.51 Q152.43 835.093 153.954 836.936 Q155.496 838.779 155.496 841.487 Q155.496 845.644 152.637 847.92 Q149.778 850.195 144.512 850.195 Q142.744 850.195 140.863 849.838 Q139.002 849.5 137.008 848.804 L137.008 845.136 Q138.588 846.058 140.469 846.528 Q142.349 846.998 144.399 846.998 Q147.973 846.998 149.835 845.588 Q151.716 844.177 151.716 841.487 Q151.716 839.005 149.966 837.613 Q148.236 836.203 145.133 836.203 L141.86 836.203 L141.86 833.08 L145.283 833.08 Q148.086 833.08 149.571 831.971 Q151.057 830.842 151.057 828.736 Q151.057 826.573 149.515 825.426 Q147.992 824.26 145.133 824.26 Q143.572 824.26 141.785 824.598 Q139.998 824.937 137.854 825.651 L137.854 822.266 Q140.017 821.664 141.898 821.363 Q143.797 821.062 145.471 821.062 Q149.797 821.062 152.317 823.037 Q154.838 824.993 154.838 828.341 Q154.838 830.673 153.502 832.29 Q152.167 833.889 149.703 834.51 Z" fill="#000000" fill-rule="nonzero" fill-opacity="1" /><path clip-path="url(#clip320)" d="M55.3561 634.469 L62.995 634.469 L62.995 608.103 L54.6848 609.77 L54.6848 605.51 L62.9487 603.844 L67.6246 603.844 L67.6246 634.469 L75.2634 634.469 L75.2634 638.404 L55.3561 638.404 L55.3561 634.469 Z" fill="#000000" fill-rule="nonzero" fill-opacity="1" /><path clip-path="url(#clip320)" d="M94.7078 606.922 Q91.0967 606.922 89.268 610.487 Q87.4624 614.029 87.4624 621.158 Q87.4624 628.265 89.268 631.83 Q91.0967 635.371 94.7078 635.371 Q98.342 635.371 100.148 631.83 Q101.976 628.265 101.976 621.158 Q101.976 614.029 100.148 610.487 Q98.342 606.922 94.7078 606.922 M94.7078 603.219 Q100.518 603.219 103.573 607.825 Q106.652 612.409 106.652 621.158 Q106.652 629.885 103.573 634.492 Q100.518 639.075 94.7078 639.075 Q88.8976 639.075 85.8189 634.492 Q82.7634 629.885 82.7634 621.158 Q82.7634 612.409 85.8189 607.825 Q88.8976 603.219 94.7078 603.219 Z" fill="#000000" fill-rule="nonzero" fill-opacity="1" /><path clip-path="url(#clip320)" d="M106.652 597.32 L130.764 597.32 L130.764 600.517 L106.652 600.517 L106.652 597.32 Z" fill="#000000" fill-rule="nonzero" fill-opacity="1" /><path clip-path="url(#clip320)" d="M142.236 607.796 L155.496 607.796 L155.496 610.993 L137.666 610.993 L137.666 607.796 Q139.829 605.558 143.553 601.796 Q147.296 598.016 148.255 596.925 Q150.079 594.875 150.794 593.464 Q151.527 592.035 151.527 590.662 Q151.527 588.424 149.948 587.013 Q148.387 585.603 145.866 585.603 Q144.08 585.603 142.086 586.224 Q140.111 586.844 137.854 588.104 L137.854 584.267 Q140.149 583.346 142.142 582.876 Q144.136 582.406 145.791 582.406 Q150.155 582.406 152.75 584.587 Q155.345 586.769 155.345 590.418 Q155.345 592.148 154.687 593.709 Q154.048 595.251 152.336 597.358 Q151.866 597.903 149.346 600.517 Q146.826 603.113 142.236 607.796 Z" fill="#000000" fill-rule="nonzero" fill-opacity="1" /><path clip-path="url(#clip320)" d="M55.0552 395.812 L62.694 395.812 L62.694 369.446 L54.3839 371.113 L54.3839 366.854 L62.6477 365.187 L67.3236 365.187 L67.3236 395.812 L74.9625 395.812 L74.9625 399.747 L55.0552 399.747 L55.0552 395.812 Z" fill="#000000" fill-rule="nonzero" fill-opacity="1" /><path clip-path="url(#clip320)" d="M94.4068 368.266 Q90.7957 368.266 88.967 371.831 Q87.1615 375.372 87.1615 382.502 Q87.1615 389.608 88.967 393.173 Q90.7957 396.715 94.4068 396.715 Q98.0411 396.715 99.8466 393.173 Q101.675 389.608 101.675 382.502 Q101.675 375.372 99.8466 371.831 Q98.0411 368.266 94.4068 368.266 M94.4068 364.562 Q100.217 364.562 103.273 369.168 Q106.351 373.752 106.351 382.502 Q106.351 391.229 103.273 395.835 Q100.217 400.418 94.4068 400.418 Q88.5967 400.418 85.518 395.835 Q82.4625 391.229 82.4625 382.502 Q82.4625 373.752 85.518 369.168 Q88.5967 364.562 94.4068 364.562 Z" fill="#000000" fill-rule="nonzero" fill-opacity="1" /><path clip-path="url(#clip320)" d="M106.351 358.663 L130.463 358.663 L130.463 361.861 L106.351 361.861 L106.351 358.663 Z" fill="#000000" fill-rule="nonzero" fill-opacity="1" /><path clip-path="url(#clip320)" d="M139.321 369.139 L145.528 369.139 L145.528 347.717 L138.776 349.071 L138.776 345.611 L145.49 344.257 L149.289 344.257 L149.289 369.139 L155.496 369.139 L155.496 372.337 L139.321 372.337 L139.321 369.139 Z" fill="#000000" fill-rule="nonzero" fill-opacity="1" /><path clip-path="url(#clip320)" d="M84.7903 157.155 L92.4291 157.155 L92.4291 130.79 L84.119 132.456 L84.119 128.197 L92.3828 126.53 L97.0587 126.53 L97.0587 157.155 L104.698 157.155 L104.698 161.09 L84.7903 161.09 L84.7903 157.155 Z" fill="#000000" fill-rule="nonzero" fill-opacity="1" /><path clip-path="url(#clip320)" d="M124.142 129.609 Q120.531 129.609 118.702 133.174 Q116.897 136.715 116.897 143.845 Q116.897 150.951 118.702 154.516 Q120.531 158.058 124.142 158.058 Q127.776 158.058 129.582 154.516 Q131.41 150.951 131.41 143.845 Q131.41 136.715 129.582 133.174 Q127.776 129.609 124.142 129.609 M124.142 125.905 Q129.952 125.905 133.008 130.512 Q136.086 135.095 136.086 143.845 Q136.086 152.572 133.008 157.178 Q129.952 161.762 124.142 161.762 Q118.332 161.762 115.253 157.178 Q112.198 152.572 112.198 143.845 Q112.198 135.095 115.253 130.512 Q118.332 125.905 124.142 125.905 Z" fill="#000000" fill-rule="nonzero" fill-opacity="1" /><path clip-path="url(#clip320)" d="M145.791 108.101 Q142.857 108.101 141.371 110.998 Q139.904 113.875 139.904 119.668 Q139.904 125.442 141.371 128.338 Q142.857 131.216 145.791 131.216 Q148.744 131.216 150.211 128.338 Q151.697 125.442 151.697 119.668 Q151.697 113.875 150.211 110.998 Q148.744 108.101 145.791 108.101 M145.791 105.092 Q150.512 105.092 152.994 108.835 Q155.496 112.559 155.496 119.668 Q155.496 126.759 152.994 130.501 Q150.512 134.225 145.791 134.225 Q141.07 134.225 138.569 130.501 Q136.086 126.759 136.086 119.668 Q136.086 112.559 138.569 108.835 Q141.07 105.092 145.791 105.092 Z" fill="#000000" fill-rule="nonzero" fill-opacity="1" /><g clip-path="url(#clip320)">
<text style="fill:#000000; fill-opacity:1; font-family:Arial,Helvetica Neue,Helvetica,sans-serif; font-size:66px; text-anchor:middle;" transform="rotate(0, 1069.13, 57.6)" x="1069.13" y="57.6">Diagonal preconditioning in CG</text>
</g>
<polyline clip-path="url(#clip322)" style="stroke:#009af9; stroke-linecap:round; stroke-linejoin:round; stroke-width:8; stroke-opacity:1; fill:none" points="235.513,137.363 248.143,175.881 260.774,250.67 273.404,284.866 286.035,284.052 298.665,286.612 311.296,308.982 323.926,341.229 336.557,360.27 349.187,365.582 361.818,366.46 374.448,376.701 387.079,388.712 399.709,399.008 412.34,403.513 424.97,405.486 437.601,408.855 450.231,417.89 462.862,428.014 475.492,433.794 488.123,440.958 500.753,448.635 513.384,457.54 526.014,463.031 538.645,471.109 551.275,476.757 563.906,484.606 576.536,487.666 589.167,495.95 601.797,502.645 614.428,507.831 627.058,514.428 639.689,518.286 652.319,521.929 664.95,524.474 677.58,528.817 690.211,530.55 702.841,532.704 715.472,536.693 728.102,536.816 740.733,540.132 753.363,542.285 765.994,544.515 778.624,546.822 791.255,548.545 803.885,552.37 816.516,554.914 829.146,559.204 841.777,565.003 854.407,570.434 867.038,575.179 879.668,583.771 892.299,590.795 904.929,599.511 917.56,606.78 930.19,616.201 942.821,624.338 955.451,630.492 968.082,637.746 980.712,645.047 993.343,651.956 1005.97,657.14 1018.6,660.489 1031.23,667.743 1043.86,673.232 1056.5,678.887 1069.13,685.288 1081.76,689.026 1094.39,695.846 1107.02,702.692 1119.65,711.294 1132.28,715.957 1144.91,725.798 1157.54,731.393 1170.17,741.469 1182.8,750.69 1195.43,757.261 1208.06,767.397 1220.69,774.589 1233.32,784.217 1245.95,791.324 1258.58,798.635 1271.21,806.004 1283.84,812.057 1296.47,818.014 1309.11,824.588 1321.74,833.407 1334.37,842.949 1347,850.914 1359.63,859.737 1372.26,868.169 1384.89,873.369 1397.52,881.415 1410.15,887.788 1422.78,893.686 1435.41,899.356 1448.04,906.333 1460.67,913.001 1473.3,920.511 1485.93,927.111 1498.56,936.447 1511.19,943.438 1523.82,951.868 1536.45,959.086 1549.09,966.967 1561.72,973.817 1574.35,980.367 1586.98,986.531 1599.61,998.225 1612.24,1004.81 1624.87,1012.06 1637.5,1020.45 1650.13,1025.51 1662.76,1034.43 1675.39,1038.3 1688.02,1043.97 1700.65,1052.54 1713.28,1056.03 1725.91,1063.43 1738.54,1070.62 1751.17,1074.93 1763.8,1080.35 1776.43,1085.37 1789.06,1090.79 1801.7,1095.12 1814.33,1102.84 1826.96,1103.55 1839.59,1111.37 1852.22,1118.14 1864.85,1122.43 1877.48,1128.21 1890.11,1134.41 1902.74,1140.92 "/>
<polyline clip-path="url(#clip322)" style="stroke:#e26f46; stroke-linecap:round; stroke-linejoin:round; stroke-width:8; stroke-opacity:1; fill:none" points="235.513,137.363 248.143,201.955 260.774,278.074 273.404,336.746 286.035,389.198 298.665,444.955 311.296,494.799 323.926,543.444 336.557,577.109 349.187,612.583 361.818,679.493 374.448,744.812 387.079,797.186 399.709,843.136 412.34,899.371 424.97,943.921 437.601,980.463 450.231,1024.23 462.862,1078.73 "/>
<path clip-path="url(#clip320)" d="M1369.58 298.235 L1893.85 298.235 L1893.85 142.715 L1369.58 142.715  Z" fill="#ffffff" fill-rule="evenodd" fill-opacity="1"/>
<polyline clip-path="url(#clip320)" style="stroke:#000000; stroke-linecap:round; stroke-linejoin:round; stroke-width:4; stroke-opacity:1; fill:none" points="1369.58,298.235 1893.85,298.235 1893.85,142.715 1369.58,142.715 1369.58,298.235 "/>
<polyline clip-path="url(#clip320)" style="stroke:#009af9; stroke-linecap:round; stroke-linejoin:round; stroke-width:8; stroke-opacity:1; fill:none" points="1389.21,194.555 1507.03,194.555 "/>
<path clip-path="url(#clip320)" d="M1530.95 207.946 L1530.95 221.696 L1526.67 221.696 L1526.67 185.909 L1530.95 185.909 L1530.95 189.844 Q1532.29 187.53 1534.33 186.418 Q1536.39 185.284 1539.24 185.284 Q1543.96 185.284 1546.9 189.034 Q1549.86 192.784 1549.86 198.895 Q1549.86 205.006 1546.9 208.756 Q1543.96 212.506 1539.24 212.506 Q1536.39 212.506 1534.33 211.395 Q1532.29 210.261 1530.95 207.946 M1545.44 198.895 Q1545.44 194.196 1543.5 191.534 Q1541.57 188.849 1538.19 188.849 Q1534.81 188.849 1532.87 191.534 Q1530.95 194.196 1530.95 198.895 Q1530.95 203.594 1532.87 206.28 Q1534.81 208.942 1538.19 208.942 Q1541.57 208.942 1543.5 206.28 Q1545.44 203.594 1545.44 198.895 Z" fill="#000000" fill-rule="nonzero" fill-opacity="1" /><path clip-path="url(#clip320)" d="M1556.92 175.817 L1561.18 175.817 L1561.18 211.835 L1556.92 211.835 L1556.92 175.817 Z" fill="#000000" fill-rule="nonzero" fill-opacity="1" /><path clip-path="url(#clip320)" d="M1581.87 198.803 Q1576.71 198.803 1574.72 199.983 Q1572.73 201.164 1572.73 204.011 Q1572.73 206.28 1574.21 207.622 Q1575.72 208.942 1578.29 208.942 Q1581.83 208.942 1583.96 206.442 Q1586.11 203.918 1586.11 199.752 L1586.11 198.803 L1581.87 198.803 M1590.37 197.043 L1590.37 211.835 L1586.11 211.835 L1586.11 207.9 Q1584.65 210.261 1582.48 211.395 Q1580.3 212.506 1577.15 212.506 Q1573.17 212.506 1570.81 210.284 Q1568.47 208.039 1568.47 204.289 Q1568.47 199.914 1571.39 197.692 Q1574.33 195.469 1580.14 195.469 L1586.11 195.469 L1586.11 195.053 Q1586.11 192.113 1584.17 190.516 Q1582.24 188.895 1578.75 188.895 Q1576.53 188.895 1574.42 189.428 Q1572.31 189.96 1570.37 191.025 L1570.37 187.09 Q1572.71 186.187 1574.91 185.747 Q1577.11 185.284 1579.19 185.284 Q1584.81 185.284 1587.59 188.201 Q1590.37 191.118 1590.37 197.043 Z" fill="#000000" fill-rule="nonzero" fill-opacity="1" /><path clip-path="url(#clip320)" d="M1599.14 185.909 L1603.4 185.909 L1603.4 211.835 L1599.14 211.835 L1599.14 185.909 M1599.14 175.817 L1603.4 175.817 L1603.4 181.21 L1599.14 181.21 L1599.14 175.817 Z" fill="#000000" fill-rule="nonzero" fill-opacity="1" /><path clip-path="url(#clip320)" d="M1633.87 196.187 L1633.87 211.835 L1629.61 211.835 L1629.61 196.326 Q1629.61 192.645 1628.17 190.817 Q1626.74 188.988 1623.87 188.988 Q1620.42 188.988 1618.43 191.187 Q1616.43 193.386 1616.43 197.182 L1616.43 211.835 L1612.15 211.835 L1612.15 185.909 L1616.43 185.909 L1616.43 189.937 Q1617.96 187.599 1620.02 186.442 Q1622.11 185.284 1624.81 185.284 Q1629.28 185.284 1631.57 188.062 Q1633.87 190.817 1633.87 196.187 Z" fill="#000000" fill-rule="nonzero" fill-opacity="1" /><polyline clip-path="url(#clip320)" style="stroke:#e26f46; stroke-linecap:round; stroke-linejoin:round; stroke-width:8; stroke-opacity:1; fill:none" points="1389.21,246.395 1507.03,246.395 "/>
<path clip-path="url(#clip320)" d="M1530.95 259.786 L1530.95 273.536 L1526.67 273.536 L1526.67 237.749 L1530.95 237.749 L1530.95 241.684 Q1532.29 239.37 1534.33 238.258 Q1536.39 237.124 1539.24 237.124 Q1543.96 237.124 1546.9 240.874 Q1549.86 244.624 1549.86 250.735 Q1549.86 256.846 1546.9 260.596 Q1543.96 264.346 1539.24 264.346 Q1536.39 264.346 1534.33 263.235 Q1532.29 262.101 1530.95 259.786 M1545.44 250.735 Q1545.44 246.036 1543.5 243.374 Q1541.57 240.689 1538.19 240.689 Q1534.81 240.689 1532.87 243.374 Q1530.95 246.036 1530.95 250.735 Q1530.95 255.434 1532.87 258.12 Q1534.81 260.782 1538.19 260.782 Q1541.57 260.782 1543.5 258.12 Q1545.44 255.434 1545.44 250.735 Z" fill="#000000" fill-rule="nonzero" fill-opacity="1" /><path clip-path="url(#clip320)" d="M1571.94 241.731 Q1571.23 241.314 1570.37 241.129 Q1569.54 240.921 1568.52 240.921 Q1564.91 240.921 1562.96 243.282 Q1561.04 245.62 1561.04 250.018 L1561.04 263.675 L1556.76 263.675 L1556.76 237.749 L1561.04 237.749 L1561.04 241.777 Q1562.38 239.416 1564.54 238.282 Q1566.69 237.124 1569.77 237.124 Q1570.21 237.124 1570.74 237.194 Q1571.27 237.24 1571.92 237.356 L1571.94 241.731 Z" fill="#000000" fill-rule="nonzero" fill-opacity="1" /><path clip-path="url(#clip320)" d="M1597.55 249.647 L1597.55 251.731 L1577.96 251.731 Q1578.24 256.129 1580.6 258.444 Q1582.99 260.735 1587.22 260.735 Q1589.68 260.735 1591.97 260.133 Q1594.28 259.532 1596.55 258.328 L1596.55 262.356 Q1594.26 263.328 1591.85 263.837 Q1589.44 264.346 1586.97 264.346 Q1580.76 264.346 1577.13 260.735 Q1573.52 257.124 1573.52 250.967 Q1573.52 244.601 1576.94 240.874 Q1580.39 237.124 1586.23 237.124 Q1591.46 237.124 1594.49 240.504 Q1597.55 243.86 1597.55 249.647 M1593.29 248.397 Q1593.24 244.902 1591.32 242.819 Q1589.42 240.735 1586.27 240.735 Q1582.71 240.735 1580.56 242.749 Q1578.43 244.763 1578.1 248.42 L1593.29 248.397 Z" fill="#000000" fill-rule="nonzero" fill-opacity="1" /><path clip-path="url(#clip320)" d="M1623.19 238.745 L1623.19 242.726 Q1621.39 241.731 1619.56 241.245 Q1617.75 240.735 1615.9 240.735 Q1611.76 240.735 1609.47 243.374 Q1607.18 245.99 1607.18 250.735 Q1607.18 255.481 1609.47 258.12 Q1611.76 260.735 1615.9 260.735 Q1617.75 260.735 1619.56 260.249 Q1621.39 259.74 1623.19 258.744 L1623.19 262.68 Q1621.41 263.513 1619.49 263.93 Q1617.59 264.346 1615.44 264.346 Q1609.58 264.346 1606.13 260.666 Q1602.68 256.985 1602.68 250.735 Q1602.68 244.393 1606.16 240.758 Q1609.65 237.124 1615.72 237.124 Q1617.68 237.124 1619.56 237.541 Q1621.43 237.934 1623.19 238.745 Z" fill="#000000" fill-rule="nonzero" fill-opacity="1" /><path clip-path="url(#clip320)" d="M1640.65 240.735 Q1637.22 240.735 1635.23 243.421 Q1633.24 246.083 1633.24 250.735 Q1633.24 255.388 1635.21 258.073 Q1637.2 260.735 1640.65 260.735 Q1644.05 260.735 1646.04 258.05 Q1648.03 255.365 1648.03 250.735 Q1648.03 246.129 1646.04 243.444 Q1644.05 240.735 1640.65 240.735 M1640.65 237.124 Q1646.2 237.124 1649.37 240.735 Q1652.55 244.346 1652.55 250.735 Q1652.55 257.101 1649.37 260.735 Q1646.2 264.346 1640.65 264.346 Q1635.07 264.346 1631.9 260.735 Q1628.75 257.101 1628.75 250.735 Q1628.75 244.346 1631.9 240.735 Q1635.07 237.124 1640.65 237.124 Z" fill="#000000" fill-rule="nonzero" fill-opacity="1" /><path clip-path="url(#clip320)" d="M1681.16 248.027 L1681.16 263.675 L1676.9 263.675 L1676.9 248.166 Q1676.9 244.485 1675.46 242.657 Q1674.03 240.828 1671.16 240.828 Q1667.71 240.828 1665.72 243.027 Q1663.73 245.226 1663.73 249.022 L1663.73 263.675 L1659.44 263.675 L1659.44 237.749 L1663.73 237.749 L1663.73 241.777 Q1665.25 239.439 1667.31 238.282 Q1669.4 237.124 1672.11 237.124 Q1676.57 237.124 1678.86 239.902 Q1681.16 242.657 1681.16 248.027 Z" fill="#000000" fill-rule="nonzero" fill-opacity="1" /><path clip-path="url(#clip320)" d="M1706.71 241.684 L1706.71 227.657 L1710.97 227.657 L1710.97 263.675 L1706.71 263.675 L1706.71 259.786 Q1705.37 262.101 1703.31 263.235 Q1701.27 264.346 1698.4 264.346 Q1693.7 264.346 1690.74 260.596 Q1687.8 256.846 1687.8 250.735 Q1687.8 244.624 1690.74 240.874 Q1693.7 237.124 1698.4 237.124 Q1701.27 237.124 1703.31 238.258 Q1705.37 239.37 1706.71 241.684 M1692.2 250.735 Q1692.2 255.434 1694.12 258.12 Q1696.06 260.782 1699.44 260.782 Q1702.82 260.782 1704.77 258.12 Q1706.71 255.434 1706.71 250.735 Q1706.71 246.036 1704.77 243.374 Q1702.82 240.689 1699.44 240.689 Q1696.06 240.689 1694.12 243.374 Q1692.2 246.036 1692.2 250.735 Z" fill="#000000" fill-rule="nonzero" fill-opacity="1" /><path clip-path="url(#clip320)" d="M1719.74 237.749 L1724 237.749 L1724 263.675 L1719.74 263.675 L1719.74 237.749 M1719.74 227.657 L1724 227.657 L1724 233.05 L1719.74 233.05 L1719.74 227.657 Z" fill="#000000" fill-rule="nonzero" fill-opacity="1" /><path clip-path="url(#clip320)" d="M1737.13 230.388 L1737.13 237.749 L1745.9 237.749 L1745.9 241.059 L1737.13 241.059 L1737.13 255.133 Q1737.13 258.305 1737.98 259.207 Q1738.86 260.11 1741.53 260.11 L1745.9 260.11 L1745.9 263.675 L1741.53 263.675 Q1736.6 263.675 1734.72 261.846 Q1732.85 259.994 1732.85 255.133 L1732.85 241.059 L1729.72 241.059 L1729.72 237.749 L1732.85 237.749 L1732.85 230.388 L1737.13 230.388 Z" fill="#000000" fill-rule="nonzero" fill-opacity="1" /><path clip-path="url(#clip320)" d="M1751.5 237.749 L1755.76 237.749 L1755.76 263.675 L1751.5 263.675 L1751.5 237.749 M1751.5 227.657 L1755.76 227.657 L1755.76 233.05 L1751.5 233.05 L1751.5 227.657 Z" fill="#000000" fill-rule="nonzero" fill-opacity="1" /><path clip-path="url(#clip320)" d="M1774.72 240.735 Q1771.29 240.735 1769.3 243.421 Q1767.31 246.083 1767.31 250.735 Q1767.31 255.388 1769.28 258.073 Q1771.27 260.735 1774.72 260.735 Q1778.12 260.735 1780.11 258.05 Q1782.11 255.365 1782.11 250.735 Q1782.11 246.129 1780.11 243.444 Q1778.12 240.735 1774.72 240.735 M1774.72 237.124 Q1780.28 237.124 1783.45 240.735 Q1786.62 244.346 1786.62 250.735 Q1786.62 257.101 1783.45 260.735 Q1780.28 264.346 1774.72 264.346 Q1769.14 264.346 1765.97 260.735 Q1762.82 257.101 1762.82 250.735 Q1762.82 244.346 1765.97 240.735 Q1769.14 237.124 1774.72 237.124 Z" fill="#000000" fill-rule="nonzero" fill-opacity="1" /><path clip-path="url(#clip320)" d="M1815.23 248.027 L1815.23 263.675 L1810.97 263.675 L1810.97 248.166 Q1810.97 244.485 1809.54 242.657 Q1808.1 240.828 1805.23 240.828 Q1801.78 240.828 1799.79 243.027 Q1797.8 245.226 1797.8 249.022 L1797.8 263.675 L1793.52 263.675 L1793.52 237.749 L1797.8 237.749 L1797.8 241.777 Q1799.33 239.439 1801.39 238.282 Q1803.47 237.124 1806.18 237.124 Q1810.65 237.124 1812.94 239.902 Q1815.23 242.657 1815.23 248.027 Z" fill="#000000" fill-rule="nonzero" fill-opacity="1" /><path clip-path="url(#clip320)" d="M1845.9 249.647 L1845.9 251.731 L1826.32 251.731 Q1826.6 256.129 1828.96 258.444 Q1831.34 260.735 1835.58 260.735 Q1838.03 260.735 1840.32 260.133 Q1842.64 259.532 1844.91 258.328 L1844.91 262.356 Q1842.61 263.328 1840.21 263.837 Q1837.8 264.346 1835.32 264.346 Q1829.12 264.346 1825.48 260.735 Q1821.87 257.124 1821.87 250.967 Q1821.87 244.601 1825.3 240.874 Q1828.75 237.124 1834.58 237.124 Q1839.81 237.124 1842.85 240.504 Q1845.9 243.86 1845.9 249.647 M1841.64 248.397 Q1841.6 244.902 1839.67 242.819 Q1837.78 240.735 1834.63 240.735 Q1831.06 240.735 1828.91 242.749 Q1826.78 244.763 1826.46 248.42 L1841.64 248.397 Z" fill="#000000" fill-rule="nonzero" fill-opacity="1" /><path clip-path="url(#clip320)" d="M1869.95 241.684 L1869.95 227.657 L1874.21 227.657 L1874.21 263.675 L1869.95 263.675 L1869.95 259.786 Q1868.61 262.101 1866.55 263.235 Q1864.51 264.346 1861.64 264.346 Q1856.94 264.346 1853.98 260.596 Q1851.04 256.846 1851.04 250.735 Q1851.04 244.624 1853.98 240.874 Q1856.94 237.124 1861.64 237.124 Q1864.51 237.124 1866.55 238.258 Q1868.61 239.37 1869.95 241.684 M1855.44 250.735 Q1855.44 255.434 1857.36 258.12 Q1859.3 260.782 1862.68 260.782 Q1866.06 260.782 1868.01 258.12 Q1869.95 255.434 1869.95 250.735 Q1869.95 246.036 1868.01 243.374 Q1866.06 240.689 1862.68 240.689 Q1859.3 240.689 1857.36 243.374 Q1855.44 246.036 1855.44 250.735 Z" fill="#000000" fill-rule="nonzero" fill-opacity="1" /></svg>
