<?xml version="1.0" encoding="utf-8"?>
<svg xmlns="http://www.w3.org/2000/svg" xmlns:xlink="http://www.w3.org/1999/xlink" width="500" height="320" viewBox="0 0 2000 1280">
<defs>
  <clipPath id="clip190">
    <rect x="0" y="0" width="2000" height="1280"/>
  </clipPath>
</defs>
<path clip-path="url(#clip190)" d="M0 1280 L2000 1280 L2000 0 L0 0  Z" fill="#ffffff" fill-rule="evenodd" fill-opacity="1"/>
<defs>
  <clipPath id="clip191">
    <rect x="400" y="0" width="1401" height="1280"/>
  </clipPath>
</defs>
<path clip-path="url(#clip190)" d="M185.496 1171.03 L1952.76 1171.03 L1952.76 107.256 L185.496 107.256  Z" fill="#ffffff" fill-rule="evenodd" fill-opacity="1"/>
<defs>
  <clipPath id="clip192">
    <rect x="185" y="107" width="1768" height="1065"/>
  </clipPath>
</defs>
<polyline clip-path="url(#clip192)" style="stroke:#000000; stroke-linecap:round; stroke-linejoin:round; stroke-width:2; stroke-opacity:0.1; fill:none" points="235.513,1171.03 235.513,107.256 "/>
<polyline clip-path="url(#clip192)" style="stroke:#000000; stroke-linecap:round; stroke-linejoin:round; stroke-width:2; stroke-opacity:0.1; fill:none" points="783.942,1171.03 783.942,107.256 "/>
<polyline clip-path="url(#clip192)" style="stroke:#000000; stroke-linecap:round; stroke-linejoin:round; stroke-width:2; stroke-opacity:0.1; fill:none" points="1332.37,1171.03 1332.37,107.256 "/>
<polyline clip-path="url(#clip192)" style="stroke:#000000; stroke-linecap:round; stroke-linejoin:round; stroke-width:2; stroke-opacity:0.1; fill:none" points="1880.8,1171.03 1880.8,107.256 "/>
<polyline clip-path="url(#clip192)" style="stroke:#000000; stroke-linecap:round; stroke-linejoin:round; stroke-width:2; stroke-opacity:0.1; fill:none" points="185.496,1082.31 1952.76,1082.31 "/>
<polyline clip-path="url(#clip192)" style="stroke:#000000; stroke-linecap:round; stroke-linejoin:round; stroke-width:2; stroke-opacity:0.1; fill:none" points="185.496,846.075 1952.76,846.075 "/>
<polyline clip-path="url(#clip192)" style="stroke:#000000; stroke-linecap:round; stroke-linejoin:round; stroke-width:2; stroke-opacity:0.1; fill:none" points="185.496,609.838 1952.76,609.838 "/>
<polyline clip-path="url(#clip192)" style="stroke:#000000; stroke-linecap:round; stroke-linejoin:round; stroke-width:2; stroke-opacity:0.1; fill:none" points="185.496,373.6 1952.76,373.6 "/>
<polyline clip-path="url(#clip192)" style="stroke:#000000; stroke-linecap:round; stroke-linejoin:round; stroke-width:2; stroke-opacity:0.1; fill:none" points="185.496,137.363 1952.76,137.363 "/>
<polyline clip-path="url(#clip190)" style="stroke:#000000; stroke-linecap:round; stroke-linejoin:round; stroke-width:4; stroke-opacity:1; fill:none" points="185.496,1171.03 1952.76,1171.03 "/>
<polyline clip-path="url(#clip190)" style="stroke:#000000; stroke-linecap:round; stroke-linejoin:round; stroke-width:4; stroke-opacity:1; fill:none" points="235.513,1171.03 235.513,1152.13 "/>
<polyline clip-path="url(#clip190)" style="stroke:#000000; stroke-linecap:round; stroke-linejoin:round; stroke-width:4; stroke-opacity:1; fill:none" points="783.942,1171.03 783.942,1152.13 "/>
<polyline clip-path="url(#clip190)" style="stroke:#000000; stroke-linecap:round; stroke-linejoin:round; stroke-width:4; stroke-opacity:1; fill:none" points="1332.37,1171.03 1332.37,1152.13 "/>
<polyline clip-path="url(#clip190)" style="stroke:#000000; stroke-linecap:round; stroke-linejoin:round; stroke-width:4; stroke-opacity:1; fill:none" points="1880.8,1171.03 1880.8,1152.13 "/>
<path clip-path="url(#clip190)" d="M235.513 1198.75 Q231.902 1198.75 230.073 1202.31 Q228.267 1205.86 228.267 1212.98 Q228.267 1220.09 230.073 1223.66 Q231.902 1227.2 235.513 1227.2 Q239.147 1227.2 240.952 1223.66 Q242.781 1220.09 242.781 1212.98 Q242.781 1205.86 240.952 1202.31 Q239.147 1198.75 235.513 1198.75 M235.513 1195.05 Q241.323 1195.05 244.378 1199.65 Q247.457 1204.24 247.457 1212.98 Q247.457 1221.71 244.378 1226.32 Q241.323 1230.9 235.513 1230.9 Q229.703 1230.9 226.624 1226.32 Q223.568 1221.71 223.568 1212.98 Q223.568 1204.24 226.624 1199.65 Q229.703 1195.05 235.513 1195.05 Z" fill="#000000" fill-rule="nonzero" fill-opacity="1" /><path clip-path="url(#clip190)" d="M758.642 1195.67 L776.998 1195.67 L776.998 1199.61 L762.924 1199.61 L762.924 1208.08 Q763.943 1207.73 764.961 1207.57 Q765.98 1207.38 766.998 1207.38 Q772.785 1207.38 776.165 1210.55 Q779.544 1213.73 779.544 1219.14 Q779.544 1224.72 776.072 1227.82 Q772.6 1230.9 766.281 1230.9 Q764.105 1230.9 761.836 1230.53 Q759.591 1230.16 757.183 1229.42 L757.183 1224.72 Q759.267 1225.86 761.489 1226.41 Q763.711 1226.97 766.188 1226.97 Q770.193 1226.97 772.53 1224.86 Q774.868 1222.75 774.868 1219.14 Q774.868 1215.53 772.53 1213.42 Q770.193 1211.32 766.188 1211.32 Q764.313 1211.32 762.438 1211.74 Q760.586 1212.15 758.642 1213.03 L758.642 1195.67 Z" fill="#000000" fill-rule="nonzero" fill-opacity="1" /><path clip-path="url(#clip190)" d="M798.757 1198.75 Q795.146 1198.75 793.317 1202.31 Q791.512 1205.86 791.512 1212.98 Q791.512 1220.09 793.317 1223.66 Q795.146 1227.2 798.757 1227.2 Q802.391 1227.2 804.197 1223.66 Q806.026 1220.09 806.026 1212.98 Q806.026 1205.86 804.197 1202.31 Q802.391 1198.75 798.757 1198.75 M798.757 1195.05 Q804.567 1195.05 807.623 1199.65 Q810.702 1204.24 810.702 1212.98 Q810.702 1221.71 807.623 1226.32 Q804.567 1230.9 798.757 1230.9 Q792.947 1230.9 789.868 1226.32 Q786.813 1221.71 786.813 1212.98 Q786.813 1204.24 789.868 1199.65 Q792.947 1195.05 798.757 1195.05 Z" fill="#000000" fill-rule="nonzero" fill-opacity="1" /><path clip-path="url(#clip190)" d="M1291.98 1226.3 L1299.62 1226.3 L1299.62 1199.93 L1291.31 1201.6 L1291.31 1197.34 L1299.57 1195.67 L1304.25 1195.67 L1304.25 1226.3 L1311.89 1226.3 L1311.89 1230.23 L1291.98 1230.23 L1291.98 1226.3 Z" fill="#000000" fill-rule="nonzero" fill-opacity="1" /><path clip-path="url(#clip190)" d="M1331.33 1198.75 Q1327.72 1198.75 1325.89 1202.31 Q1324.09 1205.86 1324.09 1212.98 Q1324.09 1220.09 1325.89 1223.66 Q1327.72 1227.2 1331.33 1227.2 Q1334.96 1227.2 1336.77 1223.66 Q1338.6 1220.09 1338.6 1212.98 Q1338.6 1205.86 1336.77 1202.31 Q1334.96 1198.75 1331.33 1198.75 M1331.33 1195.05 Q1337.14 1195.05 1340.2 1199.65 Q1343.27 1204.24 1343.27 1212.98 Q1343.27 1221.71 1340.2 1226.32 Q1337.14 1230.9 1331.33 1230.9 Q1325.52 1230.9 1322.44 1226.32 Q1319.39 1221.71 1319.39 1212.98 Q1319.39 1204.24 1322.44 1199.65 Q1325.52 1195.05 1331.33 1195.05 Z" fill="#000000" fill-rule="nonzero" fill-opacity="1" /><path clip-path="url(#clip190)" d="M1361.49 1198.75 Q1357.88 1198.75 1356.05 1202.31 Q1354.25 1205.86 1354.25 1212.98 Q1354.25 1220.09 1356.05 1223.66 Q1357.88 1227.2 1361.49 1227.2 Q1365.13 1227.2 1366.93 1223.66 Q1368.76 1220.09 1368.76 1212.98 Q1368.76 1205.86 1366.93 1202.31 Q1365.13 1198.75 1361.49 1198.75 M1361.49 1195.05 Q1367.3 1195.05 1370.36 1199.65 Q1373.44 1204.24 1373.44 1212.98 Q1373.44 1221.71 1370.36 1226.32 Q1367.3 1230.9 1361.49 1230.9 Q1355.68 1230.9 1352.6 1226.32 Q1349.55 1221.71 1349.55 1212.98 Q1349.55 1204.24 1352.6 1199.65 Q1355.68 1195.05 1361.49 1195.05 Z" fill="#000000" fill-rule="nonzero" fill-opacity="1" /><path clip-path="url(#clip190)" d="M1840.41 1226.3 L1848.05 1226.3 L1848.05 1199.93 L1839.74 1201.6 L1839.74 1197.34 L1848 1195.67 L1852.68 1195.67 L1852.68 1226.3 L1860.32 1226.3 L1860.32 1230.23 L1840.41 1230.23 L1840.41 1226.3 Z" fill="#000000" fill-rule="nonzero" fill-opacity="1" /><path clip-path="url(#clip190)" d="M1869.81 1195.67 L1888.16 1195.67 L1888.16 1199.61 L1874.09 1199.61 L1874.09 1208.08 Q1875.11 1207.73 1876.13 1207.57 Q1877.14 1207.38 1878.16 1207.38 Q1883.95 1207.38 1887.33 1210.55 Q1890.71 1213.73 1890.71 1219.14 Q1890.71 1224.72 1887.24 1227.82 Q1883.76 1230.9 1877.45 1230.9 Q1875.27 1230.9 1873 1230.53 Q1870.76 1230.16 1868.35 1229.42 L1868.35 1224.72 Q1870.43 1225.86 1872.65 1226.41 Q1874.88 1226.97 1877.35 1226.97 Q1881.36 1226.97 1883.7 1224.86 Q1886.03 1222.75 1886.03 1219.14 Q1886.03 1215.53 1883.7 1213.42 Q1881.36 1211.32 1877.35 1211.32 Q1875.48 1211.32 1873.6 1211.74 Q1871.75 1212.15 1869.81 1213.03 L1869.81 1195.67 Z" fill="#000000" fill-rule="nonzero" fill-opacity="1" /><path clip-path="url(#clip190)" d="M1909.92 1198.75 Q1906.31 1198.75 1904.48 1202.31 Q1902.68 1205.86 1902.68 1212.98 Q1902.68 1220.09 1904.48 1223.66 Q1906.31 1227.2 1909.92 1227.2 Q1913.56 1227.2 1915.36 1223.66 Q1917.19 1220.09 1917.19 1212.98 Q1917.19 1205.86 1915.36 1202.31 Q1913.56 1198.75 1909.92 1198.75 M1909.92 1195.05 Q1915.73 1195.05 1918.79 1199.65 Q1921.87 1204.24 1921.87 1212.98 Q1921.87 1221.71 1918.79 1226.32 Q1915.73 1230.9 1909.92 1230.9 Q1904.11 1230.9 1901.03 1226.32 Q1897.98 1221.71 1897.98 1212.98 Q1897.98 1204.24 1901.03 1199.65 Q1904.11 1195.05 1909.92 1195.05 Z" fill="#000000" fill-rule="nonzero" fill-opacity="1" /><polyline clip-path="url(#clip190)" style="stroke:#000000; stroke-linecap:round; stroke-linejoin:round; stroke-width:4; stroke-opacity:1; fill:none" points="185.496,1171.03 185.496,107.256 "/>
<polyline clip-path="url(#clip190)" style="stroke:#000000; stroke-linecap:round; stroke-linejoin:round; stroke-width:4; stroke-opacity:1; fill:none" points="185.496,1082.31 204.394,1082.31 "/>
<polyline clip-path="url(#clip190)" style="stroke:#000000; stroke-linecap:round; stroke-linejoin:round; stroke-width:4; stroke-opacity:1; fill:none" points="185.496,846.075 204.394,846.075 "/>
<polyline clip-path="url(#clip190)" style="stroke:#000000; stroke-linecap:round; stroke-linejoin:round; stroke-width:4; stroke-opacity:1; fill:none" points="185.496,609.838 204.394,609.838 "/>
<polyline clip-path="url(#clip190)" style="stroke:#000000; stroke-linecap:round; stroke-linejoin:round; stroke-width:4; stroke-opacity:1; fill:none" points="185.496,373.6 204.394,373.6 "/>
<polyline clip-path="url(#clip190)" style="stroke:#000000; stroke-linecap:round; stroke-linejoin:round; stroke-width:4; stroke-opacity:1; fill:none" points="185.496,137.363 204.394,137.363 "/>
<path clip-path="url(#clip190)" d="M53.6634 1102.1 L61.3023 1102.1 L61.3023 1075.74 L52.9921 1077.41 L52.9921 1073.15 L61.256 1071.48 L65.9319 1071.48 L65.9319 1102.1 L73.5707 1102.1 L73.5707 1106.04 L53.6634 1106.04 L53.6634 1102.1 Z" fill="#000000" fill-rule="nonzero" fill-opacity="1" /><path clip-path="url(#clip190)" d="M93.0151 1074.56 Q89.404 1074.56 87.5753 1078.12 Q85.7697 1081.67 85.7697 1088.79 Q85.7697 1095.9 87.5753 1099.47 Q89.404 1103.01 93.0151 1103.01 Q96.6493 1103.01 98.4548 1099.47 Q100.284 1095.9 100.284 1088.79 Q100.284 1081.67 98.4548 1078.12 Q96.6493 1074.56 93.0151 1074.56 M93.0151 1070.85 Q98.8252 1070.85 101.881 1075.46 Q104.959 1080.04 104.959 1088.79 Q104.959 1097.52 101.881 1102.13 Q98.8252 1106.71 93.0151 1106.71 Q87.2049 1106.71 84.1262 1102.13 Q81.0707 1097.52 81.0707 1088.79 Q81.0707 1080.04 84.1262 1075.46 Q87.2049 1070.85 93.0151 1070.85 Z" fill="#000000" fill-rule="nonzero" fill-opacity="1" /><path clip-path="url(#clip190)" d="M104.959 1064.96 L129.071 1064.96 L129.071 1068.15 L104.959 1068.15 L104.959 1064.96 Z" fill="#000000" fill-rule="nonzero" fill-opacity="1" /><path clip-path="url(#clip190)" d="M147.71 1053.86 L138.118 1068.85 L147.71 1068.85 L147.71 1053.86 M146.713 1050.55 L151.49 1050.55 L151.49 1068.85 L155.496 1068.85 L155.496 1072.01 L151.49 1072.01 L151.49 1078.63 L147.71 1078.63 L147.71 1072.01 L135.033 1072.01 L135.033 1068.34 L146.713 1050.55 Z" fill="#000000" fill-rule="nonzero" fill-opacity="1" /><path clip-path="url(#clip190)" d="M54.585 865.867 L62.2238 865.867 L62.2238 839.502 L53.9137 841.168 L53.9137 836.909 L62.1776 835.243 L66.8535 835.243 L66.8535 865.867 L74.4923 865.867 L74.4923 869.803 L54.585 869.803 L54.585 865.867 Z" fill="#000000" fill-rule="nonzero" fill-opacity="1" /><path clip-path="url(#clip190)" d="M93.9366 838.321 Q90.3255 838.321 88.4969 841.886 Q86.6913 845.428 86.6913 852.557 Q86.6913 859.664 88.4969 863.228 Q90.3255 866.77 93.9366 866.77 Q97.5709 866.77 99.3764 863.228 Q101.205 859.664 101.205 852.557 Q101.205 845.428 99.3764 841.886 Q97.5709 838.321 93.9366 838.321 M93.9366 834.618 Q99.7468 834.618 102.802 839.224 Q105.881 843.807 105.881 852.557 Q105.881 861.284 102.802 865.891 Q99.7468 870.474 93.9366 870.474 Q88.1265 870.474 85.0478 865.891 Q81.9923 861.284 81.9923 852.557 Q81.9923 843.807 85.0478 839.224 Q88.1265 834.618 93.9366 834.618 Z" fill="#000000" fill-rule="nonzero" fill-opacity="1" /><path clip-path="url(#clip190)" d="M105.881 828.719 L129.993 828.719 L129.993 831.916 L105.881 831.916 L105.881 828.719 Z" fill="#000000" fill-rule="nonzero" fill-opacity="1" /><path clip-path="url(#clip190)" d="M149.703 827.252 Q152.43 827.835 153.954 829.678 Q155.496 831.521 155.496 834.23 Q155.496 838.386 152.637 840.662 Q149.778 842.938 144.512 842.938 Q142.744 842.938 140.863 842.58 Q139.002 842.242 137.008 841.546 L137.008 837.878 Q138.588 838.8 140.469 839.27 Q142.349 839.74 144.399 839.74 Q147.973 839.74 149.835 838.33 Q151.716 836.919 151.716 834.23 Q151.716 831.747 149.966 830.355 Q148.236 828.945 145.133 828.945 L141.86 828.945 L141.86 825.822 L145.283 825.822 Q148.086 825.822 149.571 824.713 Q151.057 823.584 151.057 821.478 Q151.057 819.315 149.515 818.168 Q147.992 817.002 145.133 817.002 Q143.572 817.002 141.785 817.34 Q139.998 817.679 137.854 818.393 L137.854 815.008 Q140.017 814.406 141.898 814.105 Q143.797 813.804 145.471 813.804 Q149.797 813.804 152.317 815.779 Q154.838 817.735 154.838 821.083 Q154.838 823.415 153.502 825.033 Q152.167 826.631 149.703 827.252 Z" fill="#000000" fill-rule="nonzero" fill-opacity="1" /><path clip-path="url(#clip190)" d="M55.3561 629.63 L62.995 629.63 L62.995 603.264 L54.6848 604.931 L54.6848 600.672 L62.9487 599.005 L67.6246 599.005 L67.6246 629.63 L75.2634 629.63 L75.2634 633.565 L55.3561 633.565 L55.3561 629.63 Z" fill="#000000" fill-rule="nonzero" fill-opacity="1" /><path clip-path="url(#clip190)" d="M94.7078 602.084 Q91.0967 602.084 89.268 605.649 Q87.4624 609.19 87.4624 616.32 Q87.4624 623.426 89.268 626.991 Q91.0967 630.533 94.7078 630.533 Q98.342 630.533 100.148 626.991 Q101.976 623.426 101.976 616.32 Q101.976 609.19 100.148 605.649 Q98.342 602.084 94.7078 602.084 M94.7078 598.38 Q100.518 598.38 103.573 602.987 Q106.652 607.57 106.652 616.32 Q106.652 625.047 103.573 629.653 Q100.518 634.236 94.7078 634.236 Q88.8976 634.236 85.8189 629.653 Q82.7634 625.047 82.7634 616.32 Q82.7634 607.57 85.8189 602.987 Q88.8976 598.38 94.7078 598.38 Z" fill="#000000" fill-rule="nonzero" fill-opacity="1" /><path clip-path="url(#clip190)" d="M106.652 592.481 L130.764 592.481 L130.764 595.679 L106.652 595.679 L106.652 592.481 Z" fill="#000000" fill-rule="nonzero" fill-opacity="1" /><path clip-path="url(#clip190)" d="M142.236 602.957 L155.496 602.957 L155.496 606.155 L137.666 606.155 L137.666 602.957 Q139.829 600.719 143.553 596.958 Q147.296 593.177 148.255 592.087 Q150.079 590.036 150.794 588.626 Q151.527 587.196 151.527 585.824 Q151.527 583.585 149.948 582.175 Q148.387 580.764 145.866 580.764 Q144.08 580.764 142.086 581.385 Q140.111 582.006 137.854 583.266 L137.854 579.429 Q140.149 578.507 142.142 578.037 Q144.136 577.567 145.791 577.567 Q150.155 577.567 152.75 579.749 Q155.345 581.93 155.345 585.579 Q155.345 587.309 154.687 588.87 Q154.048 590.413 152.336 592.519 Q151.866 593.065 149.346 595.679 Q146.826 598.274 142.236 602.957 Z" fill="#000000" fill-rule="nonzero" fill-opacity="1" /><path clip-path="url(#clip190)" d="M55.0552 393.393 L62.694 393.393 L62.694 367.027 L54.3839 368.694 L54.3839 364.434 L62.6477 362.768 L67.3236 362.768 L67.3236 393.393 L74.9625 393.393 L74.9625 397.328 L55.0552 397.328 L55.0552 393.393 Z" fill="#000000" fill-rule="nonzero" fill-opacity="1" /><path clip-path="url(#clip190)" d="M94.4068 365.846 Q90.7957 365.846 88.967 369.411 Q87.1615 372.953 87.1615 380.082 Q87.1615 387.189 88.967 390.754 Q90.7957 394.295 94.4068 394.295 Q98.0411 394.295 99.8466 390.754 Q101.675 387.189 101.675 380.082 Q101.675 372.953 99.8466 369.411 Q98.0411 365.846 94.4068 365.846 M94.4068 362.143 Q100.217 362.143 103.273 366.749 Q106.351 371.332 106.351 380.082 Q106.351 388.809 103.273 393.416 Q100.217 397.999 94.4068 397.999 Q88.5967 397.999 85.518 393.416 Q82.4625 388.809 82.4625 380.082 Q82.4625 371.332 85.518 366.749 Q88.5967 362.143 94.4068 362.143 Z" fill="#000000" fill-rule="nonzero" fill-opacity="1" /><path clip-path="url(#clip190)" d="M106.351 356.244 L130.463 356.244 L130.463 359.441 L106.351 359.441 L106.351 356.244 Z" fill="#000000" fill-rule="nonzero" fill-opacity="1" /><path clip-path="url(#clip190)" d="M139.321 366.72 L145.528 366.72 L145.528 345.298 L138.776 346.652 L138.776 343.191 L145.49 341.837 L149.289 341.837 L149.289 366.72 L155.496 366.72 L155.496 369.917 L139.321 369.917 L139.321 366.72 Z" fill="#000000" fill-rule="nonzero" fill-opacity="1" /><path clip-path="url(#clip190)" d="M84.7903 157.155 L92.4291 157.155 L92.4291 130.79 L84.119 132.456 L84.119 128.197 L92.3828 126.53 L97.0587 126.53 L97.0587 157.155 L104.698 157.155 L104.698 161.09 L84.7903 161.09 L84.7903 157.155 Z" fill="#000000" fill-rule="nonzero" fill-opacity="1" /><path clip-path="url(#clip190)" d="M124.142 129.609 Q120.531 129.609 118.702 133.174 Q116.897 136.715 116.897 143.845 Q116.897 150.951 118.702 154.516 Q120.531 158.058 124.142 158.058 Q127.776 158.058 129.582 154.516 Q131.41 150.951 131.41 143.845 Q131.41 136.715 129.582 133.174 Q127.776 129.609 124.142 129.609 M124.142 125.905 Q129.952 125.905 133.008 130.512 Q136.086 135.095 136.086 143.845 Q136.086 152.572 133.008 157.178 Q129.952 161.762 124.142 161.762 Q118.332 161.762 115.253 157.178 Q112.198 152.572 112.198 143.845 Q112.198 135.095 115.253 130.512 Q118.332 125.905 124.142 125.905 Z" fill="#000000" fill-rule="nonzero" fill-opacity="1" /><path clip-path="url(#clip190)" d="M145.791 108.101 Q142.857 108.101 141.371 110.998 Q139.904 113.875 139.904 119.668 Q139.904 125.442 141.371 128.338 Q142.857 131.216 145.791 131.216 Q148.744 131.216 150.211 128.338 Q151.697 125.442 151.697 119.668 Q151.697 113.875 150.211 110.998 Q148.744 108.101 145.791 108.101 M145.791 105.092 Q150.512 105.092 152.994 108.835 Q155.496 112.559 155.496 119.668 Q155.496 126.759 152.994 130.501 Q150.512 134.225 145.791 134.225 Q141.07 134.225 138.569 130.501 Q136.086 126.759 136.086 119.668 Q136.086 112.559 138.569 108.835 Q141.07 105.092 145.791 105.092 Z" fill="#000000" fill-rule="nonzero" fill-opacity="1" /><g clip-path="url(#clip190)">
<text style="fill:#000000; fill-opacity:1; font-family:Arial,Helvetica Neue,Helvetica,sans-serif; font-size:66px; text-anchor:middle;" transform="rotate(0, 1069.13, 57.6)" x="1069.13" y="57.6">Diagonal preconditioning in CG</text>
</g>
<polyline clip-path="url(#clip192)" style="stroke:#009af9; stroke-linecap:round; stroke-linejoin:round; stroke-width:8; stroke-opacity:1; fill:none" points="235.513,137.363 246.481,176.701 257.45,249.238 268.418,281.587 279.387,281.291 290.356,286.07 301.324,310.698 312.293,343.648 323.261,364.009 334.23,372.228 345.199,377.351 356.167,388.127 367.136,404.325 378.104,421.459 389.073,430.503 400.042,437.632 411.01,444.262 421.979,454.801 432.947,462.751 443.916,469.777 454.885,473.027 465.853,474.398 476.822,476.084 487.79,477.53 498.759,476.69 509.728,475.662 520.696,471.559 531.665,471.421 542.633,467.814 553.602,466.425 564.571,462.483 575.539,462.493 586.508,458.088 597.476,458.025 608.445,456.221 619.414,456.824 630.382,457.389 641.351,458.088 652.319,461.084 663.288,463.549 674.256,467.632 685.225,473.252 696.194,479.368 707.162,485.013 718.131,491.232 729.099,499.136 740.068,507.139 751.037,514.461 762.005,522.704 772.974,529.788 783.942,539.112 794.911,547.66 805.88,556.466 816.848,563.75 827.817,572.989 838.785,581.103 849.754,590.738 860.723,599.465 871.691,604.363 882.66,612.518 893.628,619.046 904.597,622.2 915.566,628.676 926.534,627.219 937.503,631.089 948.471,630.86 959.44,632.734 970.409,631.675 981.377,630.596 992.346,630.058 1003.31,626.002 1014.28,625.601 1025.25,623.335 1036.22,621.838 1047.19,621.086 1058.16,620.551 1069.13,617.641 1080.09,617.664 1091.06,617.407 1102.03,619.228 1113,622.691 1123.97,623.628 1134.94,630.374 1145.91,634.794 1156.87,640.025 1167.84,647.311 1178.81,654.427 1189.78,664.833 1200.75,671.762 1211.72,680.853 1222.69,691.781 1233.65,701.18 1244.62,710.763 1255.59,721.339 1266.56,732.835 1277.53,742.381 1288.5,753.244 1299.47,764.051 1310.43,772.338 1321.4,782.804 1332.37,788.618 1343.34,795.75 1354.31,800.582 1365.28,808.769 1376.25,816.439 1387.22,819.394 1398.18,825.502 1409.15,827.041 1420.12,828.923 1431.09,829.609 1442.06,830.531 1453.03,829.182 1464,827.879 1474.96,824.426 1485.93,819.836 1496.9,818.089 1507.87,812.987 1518.84,810.885 1529.81,807.303 1540.78,803.971 1551.74,801.663 1562.71,803.01 1573.68,805.916 1584.65,810.752 1595.62,815.095 1606.59,820.413 1617.56,829.389 1628.52,837.775 1639.49,844.454 1650.46,855.22 1661.43,863.368 1672.4,874.925 1683.37,885.087 1694.34,898.469 1705.3,910.771 1716.27,921.628 1727.24,932.79 1738.21,944.188 1749.18,954.366 1760.15,967.148 1771.12,979.273 1782.08,990.975 1793.05,1005.17 1804.02,1014.27 1814.99,1028.74 1825.96,1040 1836.93,1055.51 1847.9,1069.19 1858.86,1084.22 1869.83,1097.51 1880.8,1111.4 1891.77,1124.62 1902.74,1140.92 "/>
<polyline clip-path="url(#clip192)" style="stroke:#e26f46; stroke-linecap:round; stroke-linejoin:round; stroke-width:8; stroke-opacity:1; fill:none" points="235.513,137.363 246.481,195.014 257.45,264.886 268.418,334.051 279.387,386.736 290.356,440.696 301.324,483.01 312.293,535.704 323.261,575.048 334.23,605.226 345.199,668.71 356.167,736.159 367.136,793.375 378.104,835.742 389.073,884.756 400.042,938.338 411.01,972.637 421.979,1012.5 432.947,1066.82 "/>
<path clip-path="url(#clip190)" d="M1369.58 298.235 L1893.85 298.235 L1893.85 142.715 L1369.58 142.715  Z" fill="#ffffff" fill-rule="evenodd" fill-opacity="1"/>
<polyline clip-path="url(#clip190)" style="stroke:#000000; stroke-linecap:round; stroke-linejoin:round; stroke-width:4; stroke-opacity:1; fill:none" points="1369.58,298.235 1893.85,298.235 1893.85,142.715 1369.58,142.715 1369.58,298.235 "/>
<polyline clip-path="url(#clip190)" style="stroke:#009af9; stroke-linecap:round; stroke-linejoin:round; stroke-width:8; stroke-opacity:1; fill:none" points="1389.21,194.555 1507.03,194.555 "/>
<path clip-path="url(#clip190)" d="M1530.95 207.946 L1530.95 221.696 L1526.67 221.696 L1526.67 185.909 L1530.95 185.909 L1530.95 189.844 Q1532.29 187.53 1534.33 186.418 Q1536.39 185.284 1539.24 185.284 Q1543.96 185.284 1546.9 189.034 Q1549.86 192.784 1549.86 198.895 Q1549.86 205.006 1546.9 208.756 Q1543.96 212.506 1539.24 212.506 Q1536.39 212.506 1534.33 211.395 Q1532.29 210.261 1530.95 207.946 M1545.44 198.895 Q1545.44 194.196 1543.5 191.534 Q1541.57 188.849 1538.19 188.849 Q1534.81 188.849 1532.87 191.534 Q1530.95 194.196 1530.95 198.895 Q1530.95 203.594 1532.87 206.28 Q1534.81 208.942 1538.19 208.942 Q1541.57 208.942 1543.5 206.28 Q1545.44 203.594 1545.44 198.895 Z" fill="#000000" fill-rule="nonzero" fill-opacity="1" /><path clip-path="url(#clip190)" d="M1556.92 175.817 L1561.18 175.817 L1561.18 211.835 L1556.92 211.835 L1556.92 175.817 Z" fill="#000000" fill-rule="nonzero" fill-opacity="1" /><path clip-path="url(#clip190)" d="M1581.87 198.803 Q1576.71 198.803 1574.72 199.983 Q1572.73 201.164 1572.73 204.011 Q1572.73 206.28 1574.21 207.622 Q1575.72 208.942 1578.29 208.942 Q1581.83 208.942 1583.96 206.442 Q1586.11 203.918 1586.11 199.752 L1586.11 198.803 L1581.87 198.803 M1590.37 197.043 L1590.37 211.835 L1586.11 211.835 L1586.11 207.9 Q1584.65 210.261 1582.48 211.395 Q1580.3 212.506 1577.15 212.506 Q1573.17 212.506 1570.81 210.284 Q1568.47 208.039 1568.47 204.289 Q1568.47 199.914 1571.39 197.692 Q1574.33 195.469 1580.14 195.469 L1586.11 195.469 L1586.11 195.053 Q1586.11 192.113 1584.17 190.516 Q1582.24 188.895 1578.75 188.895 Q1576.53 188.895 1574.42 189.428 Q1572.31 189.96 1570.37 191.025 L1570.37 187.09 Q1572.71 186.187 1574.91 185.747 Q1577.11 185.284 1579.19 185.284 Q1584.81 185.284 1587.59 188.201 Q1590.37 191.118 1590.37 197.043 Z" fill="#000000" fill-rule="nonzero" fill-opacity="1" /><path clip-path="url(#clip190)" d="M1599.14 185.909 L1603.4 185.909 L1603.4 211.835 L1599.14 211.835 L1599.14 185.909 M1599.14 175.817 L1603.4 175.817 L1603.4 181.21 L1599.14 181.21 L1599.14 175.817 Z" fill="#000000" fill-rule="nonzero" fill-opacity="1" /><path clip-path="url(#clip190)" d="M1633.87 196.187 L1633.87 211.835 L1629.61 211.835 L1629.61 196.326 Q1629.61 192.645 1628.17 190.817 Q1626.74 188.988 1623.87 188.988 Q1620.42 188.988 1618.43 191.187 Q1616.43 193.386 1616.43 197.182 L1616.43 211.835 L1612.15 211.835 L1612.15 185.909 L1616.43 185.909 L1616.43 189.937 Q1617.96 187.599 1620.02 186.442 Q1622.11 185.284 1624.81 185.284 Q1629.28 185.284 1631.57 188.062 Q1633.87 190.817 1633.87 196.187 Z" fill="#000000" fill-rule="nonzero" fill-opacity="1" /><polyline clip-path="url(#clip190)" style="stroke:#e26f46; stroke-linecap:round; stroke-linejoin:round; stroke-width:8; stroke-opacity:1; fill:none" points="1389.21,246.395 1507.03,246.395 "/>
<path clip-path="url(#clip190)" d="M1530.95 259.786 L1530.95 273.536 L1526.67 273.536 L1526.67 237.749 L1530.95 237.749 L1530.95 241.684 Q1532.29 239.37 1534.33 238.258 Q1536.39 237.124 1539.24 237.124 Q1543.96 237.124 1546.9 240.874 Q1549.86 244.624 1549.86 250.735 Q1549.86 256.846 1546.9 260.596 Q1543.96 264.346 1539.24 264.346 Q1536.39 264.346 1534.33 263.235 Q1532.29 262.101 1530.95 259.786 M1545.44 250.735 Q1545.44 246.036 1543.5 243.374 Q1541.57 240.689 1538.19 240.689 Q1534.81 240.689 1532.87 243.374 Q1530.95 246.036 1530.95 250.735 Q1530.95 255.434 1532.87 258.12 Q1534.81 260.782 1538.19 260.782 Q1541.57 260.782 1543.5 258.12 Q1545.44 255.434 1545.44 250.735 Z" fill="#000000" fill-rule="nonzero" fill-opacity="1" /><path clip-path="url(#clip190)" d="M1571.94 241.731 Q1571.23 241.314 1570.37 241.129 Q1569.54 240.921 1568.52 240.921 Q1564.91 240.921 1562.96 243.282 Q1561.04 245.62 1561.04 250.018 L1561.04 263.675 L1556.76 263.675 L1556.76 237.749 L1561.04 237.749 L1561.04 241.777 Q1562.38 239.416 1564.54 238.282 Q1566.69 237.124 1569.77 237.124 Q1570.21 237.124 1570.74 237.194 Q1571.27 237.24 1571.92 237.356 L1571.94 241.731 Z" fill="#000000" fill-rule="nonzero" fill-opacity="1" /><path clip-path="url(#clip190)" d="M1597.55 249.647 L1597.55 251.731 L1577.96 251.731 Q1578.24 256.129 1580.6 258.444 Q1582.99 260.735 1587.22 260.735 Q1589.68 260.735 1591.97 260.133 Q1594.28 259.532 1596.55 258.328 L1596.55 262.356 Q1594.26 263.328 1591.85 263.837 Q1589.44 264.346 1586.97 264.346 Q1580.76 264.346 1577.13 260.735 Q1573.52 257.124 1573.52 250.967 Q1573.52 244.601 1576.94 240.874 Q1580.39 237.124 1586.23 237.124 Q1591.46 237.124 1594.49 240.504 Q1597.55 243.86 1597.55 249.647 M1593.29 248.397 Q1593.24 244.902 1591.32 242.819 Q1589.42 240.735 1586.27 240.735 Q1582.71 240.735 1580.56 242.749 Q1578.43 244.763 1578.1 248.42 L1593.29 248.397 Z" fill="#000000" fill-rule="nonzero" fill-opacity="1" /><path clip-path="url(#clip190)" d="M1623.19 238.745 L1623.19 242.726 Q1621.39 241.731 1619.56 241.245 Q1617.75 240.735 1615.9 240.735 Q1611.76 240.735 1609.47 243.374 Q1607.18 245.99 1607.18 250.735 Q1607.18 255.481 1609.47 258.12 Q1611.76 260.735 1615.9 260.735 Q1617.75 260.735 1619.56 260.249 Q1621.39 259.74 1623.19 258.744 L1623.19 262.68 Q1621.41 263.513 1619.49 263.93 Q1617.59 264.346 1615.44 264.346 Q1609.58 264.346 1606.13 260.666 Q1602.68 256.985 1602.68 250.735 Q1602.68 244.393 1606.16 240.758 Q1609.65 237.124 1615.72 237.124 Q1617.68 237.124 1619.56 237.541 Q1621.43 237.934 1623.19 238.745 Z" fill="#000000" fill-rule="nonzero" fill-opacity="1" /><path clip-path="url(#clip190)" d="M1640.65 240.735 Q1637.22 240.735 1635.23 243.421 Q1633.24 246.083 1633.24 250.735 Q1633.24 255.388 1635.21 258.073 Q1637.2 260.735 1640.65 260.735 Q1644.05 260.735 1646.04 258.05 Q1648.03 255.365 1648.03 250.735 Q1648.03 246.129 1646.04 243.444 Q1644.05 240.735 1640.65 240.735 M1640.65 237.124 Q1646.2 237.124 1649.37 240.735 Q1652.55 244.346 1652.55 250.735 Q1652.55 257.101 1649.37 260.735 Q1646.2 264.346 1640.65 264.346 Q1635.07 264.346 1631.9 260.735 Q1628.75 257.101 1628.75 250.735 Q1628.75 244.346 1631.9 240.735 Q1635.07 237.124 1640.65 237.124 Z" fill="#000000" fill-rule="nonzero" fill-opacity="1" /><path clip-path="url(#clip190)" d="M1681.16 248.027 L1681.16 263.675 L1676.9 263.675 L1676.9 248.166 Q1676.9 244.485 1675.46 242.657 Q1674.03 240.828 1671.16 240.828 Q1667.71 240.828 1665.72 243.027 Q1663.73 245.226 1663.73 249.022 L1663.73 263.675 L1659.44 263.675 L1659.44 237.749 L1663.73 237.749 L1663.73 241.777 Q1665.25 239.439 1667.31 238.282 Q1669.4 237.124 1672.11 237.124 Q1676.57 237.124 1678.86 239.902 Q1681.16 242.657 1681.16 248.027 Z" fill="#000000" fill-rule="nonzero" fill-opacity="1" /><path clip-path="url(#clip190)" d="M1706.71 241.684 L1706.71 227.657 L1710.97 227.657 L1710.97 263.675 L1706.71 263.675 L1706.71 259.786 Q1705.37 262.101 1703.31 263.235 Q1701.27 264.346 1698.4 264.346 Q1693.7 264.346 1690.74 260.596 Q1687.8 256.846 1687.8 250.735 Q1687.8 244.624 1690.74 240.874 Q1693.7 237.124 1698.4 237.124 Q1701.27 237.124 1703.31 238.258 Q1705.37 239.37 1706.71 241.684 M1692.2 250.735 Q1692.2 255.434 1694.12 258.12 Q1696.06 260.782 1699.44 260.782 Q1702.82 260.782 1704.77 258.12 Q1706.71 255.434 1706.71 250.735 Q1706.71 246.036 1704.77 243.374 Q1702.82 240.689 1699.44 240.689 Q1696.06 240.689 1694.12 243.374 Q1692.2 246.036 1692.2 250.735 Z" fill="#000000" fill-rule="nonzero" fill-opacity="1" /><path clip-path="url(#clip190)" d="M1719.74 237.749 L1724 237.749 L1724 263.675 L1719.74 263.675 L1719.74 237.749 M1719.74 227.657 L1724 227.657 L1724 233.05 L1719.74 233.05 L1719.74 227.657 Z" fill="#000000" fill-rule="nonzero" fill-opacity="1" /><path clip-path="url(#clip190)" d="M1737.13 230.388 L1737.13 237.749 L1745.9 237.749 L1745.9 241.059 L1737.13 241.059 L1737.13 255.133 Q1737.13 258.305 1737.98 259.207 Q1738.86 260.11 1741.53 260.11 L1745.9 260.11 L1745.9 263.675 L1741.53 263.675 Q1736.6 263.675 1734.72 261.846 Q1732.85 259.994 1732.85 255.133 L1732.85 241.059 L1729.72 241.059 L1729.72 237.749 L1732.85 237.749 L1732.85 230.388 L1737.13 230.388 Z" fill="#000000" fill-rule="nonzero" fill-opacity="1" /><path clip-path="url(#clip190)" d="M1751.5 237.749 L1755.76 237.749 L1755.76 263.675 L1751.5 263.675 L1751.5 237.749 M1751.5 227.657 L1755.76 227.657 L1755.76 233.05 L1751.5 233.05 L1751.5 227.657 Z" fill="#000000" fill-rule="nonzero" fill-opacity="1" /><path clip-path="url(#clip190)" d="M1774.72 240.735 Q1771.29 240.735 1769.3 243.421 Q1767.31 246.083 1767.31 250.735 Q1767.31 255.388 1769.28 258.073 Q1771.27 260.735 1774.72 260.735 Q1778.12 260.735 1780.11 258.05 Q1782.11 255.365 1782.11 250.735 Q1782.11 246.129 1780.11 243.444 Q1778.12 240.735 1774.72 240.735 M1774.72 237.124 Q1780.28 237.124 1783.45 240.735 Q1786.62 244.346 1786.62 250.735 Q1786.62 257.101 1783.45 260.735 Q1780.28 264.346 1774.72 264.346 Q1769.14 264.346 1765.97 260.735 Q1762.82 257.101 1762.82 250.735 Q1762.82 244.346 1765.97 240.735 Q1769.14 237.124 1774.72 237.124 Z" fill="#000000" fill-rule="nonzero" fill-opacity="1" /><path clip-path="url(#clip190)" d="M1815.23 248.027 L1815.23 263.675 L1810.97 263.675 L1810.97 248.166 Q1810.97 244.485 1809.54 242.657 Q1808.1 240.828 1805.23 240.828 Q1801.78 240.828 1799.79 243.027 Q1797.8 245.226 1797.8 249.022 L1797.8 263.675 L1793.52 263.675 L1793.52 237.749 L1797.8 237.749 L1797.8 241.777 Q1799.33 239.439 1801.39 238.282 Q1803.47 237.124 1806.18 237.124 Q1810.65 237.124 1812.94 239.902 Q1815.23 242.657 1815.23 248.027 Z" fill="#000000" fill-rule="nonzero" fill-opacity="1" /><path clip-path="url(#clip190)" d="M1845.9 249.647 L1845.9 251.731 L1826.32 251.731 Q1826.6 256.129 1828.96 258.444 Q1831.34 260.735 1835.58 260.735 Q1838.03 260.735 1840.32 260.133 Q1842.64 259.532 1844.91 258.328 L1844.91 262.356 Q1842.61 263.328 1840.21 263.837 Q1837.8 264.346 1835.32 264.346 Q1829.12 264.346 1825.48 260.735 Q1821.87 257.124 1821.87 250.967 Q1821.87 244.601 1825.3 240.874 Q1828.75 237.124 1834.58 237.124 Q1839.81 237.124 1842.85 240.504 Q1845.9 243.86 1845.9 249.647 M1841.64 248.397 Q1841.6 244.902 1839.67 242.819 Q1837.78 240.735 1834.63 240.735 Q1831.06 240.735 1828.91 242.749 Q1826.78 244.763 1826.46 248.42 L1841.64 248.397 Z" fill="#000000" fill-rule="nonzero" fill-opacity="1" /><path clip-path="url(#clip190)" d="M1869.95 241.684 L1869.95 227.657 L1874.21 227.657 L1874.21 263.675 L1869.95 263.675 L1869.95 259.786 Q1868.61 262.101 1866.55 263.235 Q1864.51 264.346 1861.64 264.346 Q1856.94 264.346 1853.98 260.596 Q1851.04 256.846 1851.04 250.735 Q1851.04 244.624 1853.98 240.874 Q1856.94 237.124 1861.64 237.124 Q1864.51 237.124 1866.55 238.258 Q1868.61 239.37 1869.95 241.684 M1855.44 250.735 Q1855.44 255.434 1857.36 258.12 Q1859.3 260.782 1862.68 260.782 Q1866.06 260.782 1868.01 258.12 Q1869.95 255.434 1869.95 250.735 Q1869.95 246.036 1868.01 243.374 Q1866.06 240.689 1862.68 240.689 Q1859.3 240.689 1857.36 243.374 Q1855.44 246.036 1855.44 250.735 Z" fill="#000000" fill-rule="nonzero" fill-opacity="1" /></svg>
