<?xml version="1.0" encoding="utf-8"?>
<svg xmlns="http://www.w3.org/2000/svg" xmlns:xlink="http://www.w3.org/1999/xlink" width="500" height="320" viewBox="0 0 2000 1280">
<defs>
  <clipPath id="clip800">
    <rect x="0" y="0" width="2000" height="1280"/>
  </clipPath>
</defs>
<path clip-path="url(#clip800)" d="M0 1280 L2000 1280 L2000 0 L0 0  Z" fill="#ffffff" fill-rule="evenodd" fill-opacity="1"/>
<defs>
  <clipPath id="clip801">
    <rect x="400" y="0" width="1401" height="1280"/>
  </clipPath>
</defs>
<path clip-path="url(#clip800)" d="M245.244 1111.02 L1952.76 1111.02 L1952.76 107.256 L245.244 107.256  Z" fill="#ffffff" fill-rule="evenodd" fill-opacity="1"/>
<defs>
  <clipPath id="clip802">
    <rect x="245" y="107" width="1709" height="1005"/>
  </clipPath>
</defs>
<polyline clip-path="url(#clip802)" style="stroke:#000000; stroke-linecap:round; stroke-linejoin:round; stroke-width:2; stroke-opacity:0.1; fill:none" points="293.57,1111.02 293.57,107.256 "/>
<polyline clip-path="url(#clip802)" style="stroke:#000000; stroke-linecap:round; stroke-linejoin:round; stroke-width:2; stroke-opacity:0.1; fill:none" points="604.547,1111.02 604.547,107.256 "/>
<polyline clip-path="url(#clip802)" style="stroke:#000000; stroke-linecap:round; stroke-linejoin:round; stroke-width:2; stroke-opacity:0.1; fill:none" points="915.524,1111.02 915.524,107.256 "/>
<polyline clip-path="url(#clip802)" style="stroke:#000000; stroke-linecap:round; stroke-linejoin:round; stroke-width:2; stroke-opacity:0.1; fill:none" points="1226.5,1111.02 1226.5,107.256 "/>
<polyline clip-path="url(#clip802)" style="stroke:#000000; stroke-linecap:round; stroke-linejoin:round; stroke-width:2; stroke-opacity:0.1; fill:none" points="1537.48,1111.02 1537.48,107.256 "/>
<polyline clip-path="url(#clip802)" style="stroke:#000000; stroke-linecap:round; stroke-linejoin:round; stroke-width:2; stroke-opacity:0.1; fill:none" points="1848.45,1111.02 1848.45,107.256 "/>
<polyline clip-path="url(#clip802)" style="stroke:#000000; stroke-linecap:round; stroke-linejoin:round; stroke-width:2; stroke-opacity:0.1; fill:none" points="245.244,1080.54 1952.76,1080.54 "/>
<polyline clip-path="url(#clip802)" style="stroke:#000000; stroke-linecap:round; stroke-linejoin:round; stroke-width:2; stroke-opacity:0.1; fill:none" points="245.244,570.749 1952.76,570.749 "/>
<polyline clip-path="url(#clip800)" style="stroke:#000000; stroke-linecap:round; stroke-linejoin:round; stroke-width:4; stroke-opacity:1; fill:none" points="245.244,1111.02 1952.76,1111.02 "/>
<polyline clip-path="url(#clip800)" style="stroke:#000000; stroke-linecap:round; stroke-linejoin:round; stroke-width:4; stroke-opacity:1; fill:none" points="293.57,1111.02 293.57,1092.12 "/>
<polyline clip-path="url(#clip800)" style="stroke:#000000; stroke-linecap:round; stroke-linejoin:round; stroke-width:4; stroke-opacity:1; fill:none" points="604.547,1111.02 604.547,1092.12 "/>
<polyline clip-path="url(#clip800)" style="stroke:#000000; stroke-linecap:round; stroke-linejoin:round; stroke-width:4; stroke-opacity:1; fill:none" points="915.524,1111.02 915.524,1092.12 "/>
<polyline clip-path="url(#clip800)" style="stroke:#000000; stroke-linecap:round; stroke-linejoin:round; stroke-width:4; stroke-opacity:1; fill:none" points="1226.5,1111.02 1226.5,1092.12 "/>
<polyline clip-path="url(#clip800)" style="stroke:#000000; stroke-linecap:round; stroke-linejoin:round; stroke-width:4; stroke-opacity:1; fill:none" points="1537.48,1111.02 1537.48,1092.12 "/>
<polyline clip-path="url(#clip800)" style="stroke:#000000; stroke-linecap:round; stroke-linejoin:round; stroke-width:4; stroke-opacity:1; fill:none" points="1848.45,1111.02 1848.45,1092.12 "/>
<path clip-path="url(#clip800)" d="M293.57 1138.74 Q289.959 1138.74 288.13 1142.3 Q286.325 1145.84 286.325 1152.97 Q286.325 1160.08 288.13 1163.64 Q289.959 1167.19 293.57 1167.19 Q297.204 1167.19 299.01 1163.64 Q300.839 1160.08 300.839 1152.97 Q300.839 1145.84 299.01 1142.3 Q297.204 1138.74 293.57 1138.74 M293.57 1135.03 Q299.38 1135.03 302.436 1139.64 Q305.515 1144.22 305.515 1152.97 Q305.515 1161.7 302.436 1166.31 Q299.38 1170.89 293.57 1170.89 Q287.76 1170.89 284.681 1166.31 Q281.626 1161.7 281.626 1152.97 Q281.626 1144.22 284.681 1139.64 Q287.76 1135.03 293.57 1135.03 Z" fill="#000000" fill-rule="nonzero" fill-opacity="1" /><path clip-path="url(#clip800)" d="M579.246 1135.66 L597.603 1135.66 L597.603 1139.59 L583.529 1139.59 L583.529 1148.07 Q584.547 1147.72 585.566 1147.56 Q586.584 1147.37 587.603 1147.37 Q593.39 1147.37 596.769 1150.54 Q600.149 1153.71 600.149 1159.13 Q600.149 1164.71 596.677 1167.81 Q593.204 1170.89 586.885 1170.89 Q584.709 1170.89 582.441 1170.52 Q580.195 1170.15 577.788 1169.41 L577.788 1164.71 Q579.871 1165.84 582.093 1166.4 Q584.316 1166.95 586.792 1166.95 Q590.797 1166.95 593.135 1164.85 Q595.473 1162.74 595.473 1159.13 Q595.473 1155.52 593.135 1153.41 Q590.797 1151.31 586.792 1151.31 Q584.917 1151.31 583.042 1151.72 Q581.191 1152.14 579.246 1153.02 L579.246 1135.66 Z" fill="#000000" fill-rule="nonzero" fill-opacity="1" /><path clip-path="url(#clip800)" d="M619.362 1138.74 Q615.751 1138.74 613.922 1142.3 Q612.116 1145.84 612.116 1152.97 Q612.116 1160.08 613.922 1163.64 Q615.751 1167.19 619.362 1167.19 Q622.996 1167.19 624.802 1163.64 Q626.63 1160.08 626.63 1152.97 Q626.63 1145.84 624.802 1142.3 Q622.996 1138.74 619.362 1138.74 M619.362 1135.03 Q625.172 1135.03 628.227 1139.64 Q631.306 1144.22 631.306 1152.97 Q631.306 1161.7 628.227 1166.31 Q625.172 1170.89 619.362 1170.89 Q613.552 1170.89 610.473 1166.31 Q607.417 1161.7 607.417 1152.97 Q607.417 1144.22 610.473 1139.64 Q613.552 1135.03 619.362 1135.03 Z" fill="#000000" fill-rule="nonzero" fill-opacity="1" /><path clip-path="url(#clip800)" d="M875.131 1166.28 L882.769 1166.28 L882.769 1139.92 L874.459 1141.58 L874.459 1137.33 L882.723 1135.66 L887.399 1135.66 L887.399 1166.28 L895.038 1166.28 L895.038 1170.22 L875.131 1170.22 L875.131 1166.28 Z" fill="#000000" fill-rule="nonzero" fill-opacity="1" /><path clip-path="url(#clip800)" d="M914.482 1138.74 Q910.871 1138.74 909.042 1142.3 Q907.237 1145.84 907.237 1152.97 Q907.237 1160.08 909.042 1163.64 Q910.871 1167.19 914.482 1167.19 Q918.116 1167.19 919.922 1163.64 Q921.751 1160.08 921.751 1152.97 Q921.751 1145.84 919.922 1142.3 Q918.116 1138.74 914.482 1138.74 M914.482 1135.03 Q920.292 1135.03 923.348 1139.64 Q926.427 1144.22 926.427 1152.97 Q926.427 1161.7 923.348 1166.31 Q920.292 1170.89 914.482 1170.89 Q908.672 1170.89 905.593 1166.31 Q902.538 1161.7 902.538 1152.97 Q902.538 1144.22 905.593 1139.64 Q908.672 1135.03 914.482 1135.03 Z" fill="#000000" fill-rule="nonzero" fill-opacity="1" /><path clip-path="url(#clip800)" d="M944.644 1138.74 Q941.033 1138.74 939.204 1142.3 Q937.399 1145.84 937.399 1152.97 Q937.399 1160.08 939.204 1163.64 Q941.033 1167.19 944.644 1167.19 Q948.278 1167.19 950.084 1163.64 Q951.913 1160.08 951.913 1152.97 Q951.913 1145.84 950.084 1142.3 Q948.278 1138.74 944.644 1138.74 M944.644 1135.03 Q950.454 1135.03 953.51 1139.64 Q956.588 1144.22 956.588 1152.97 Q956.588 1161.7 953.51 1166.31 Q950.454 1170.89 944.644 1170.89 Q938.834 1170.89 935.755 1166.31 Q932.7 1161.7 932.7 1152.97 Q932.7 1144.22 935.755 1139.64 Q938.834 1135.03 944.644 1135.03 Z" fill="#000000" fill-rule="nonzero" fill-opacity="1" /><path clip-path="url(#clip800)" d="M1186.11 1166.28 L1193.75 1166.28 L1193.75 1139.92 L1185.44 1141.58 L1185.44 1137.33 L1193.7 1135.66 L1198.38 1135.66 L1198.38 1166.28 L1206.01 1166.28 L1206.01 1170.22 L1186.11 1170.22 L1186.11 1166.28 Z" fill="#000000" fill-rule="nonzero" fill-opacity="1" /><path clip-path="url(#clip800)" d="M1215.51 1135.66 L1233.86 1135.66 L1233.86 1139.59 L1219.79 1139.59 L1219.79 1148.07 Q1220.81 1147.72 1221.82 1147.56 Q1222.84 1147.37 1223.86 1147.37 Q1229.65 1147.37 1233.03 1150.54 Q1236.41 1153.71 1236.41 1159.13 Q1236.41 1164.71 1232.94 1167.81 Q1229.46 1170.89 1223.14 1170.89 Q1220.97 1170.89 1218.7 1170.52 Q1216.45 1170.15 1214.05 1169.41 L1214.05 1164.71 Q1216.13 1165.84 1218.35 1166.4 Q1220.57 1166.95 1223.05 1166.95 Q1227.06 1166.95 1229.39 1164.85 Q1231.73 1162.74 1231.73 1159.13 Q1231.73 1155.52 1229.39 1153.41 Q1227.06 1151.31 1223.05 1151.31 Q1221.18 1151.31 1219.3 1151.72 Q1217.45 1152.14 1215.51 1153.02 L1215.51 1135.66 Z" fill="#000000" fill-rule="nonzero" fill-opacity="1" /><path clip-path="url(#clip800)" d="M1255.62 1138.74 Q1252.01 1138.74 1250.18 1142.3 Q1248.38 1145.84 1248.38 1152.97 Q1248.38 1160.08 1250.18 1163.64 Q1252.01 1167.19 1255.62 1167.19 Q1259.26 1167.19 1261.06 1163.64 Q1262.89 1160.08 1262.89 1152.97 Q1262.89 1145.84 1261.06 1142.3 Q1259.26 1138.74 1255.62 1138.74 M1255.62 1135.03 Q1261.43 1135.03 1264.49 1139.64 Q1267.57 1144.22 1267.57 1152.97 Q1267.57 1161.7 1264.49 1166.31 Q1261.43 1170.89 1255.62 1170.89 Q1249.81 1170.89 1246.73 1166.31 Q1243.68 1161.7 1243.68 1152.97 Q1243.68 1144.22 1246.73 1139.64 Q1249.81 1135.03 1255.62 1135.03 Z" fill="#000000" fill-rule="nonzero" fill-opacity="1" /><path clip-path="url(#clip800)" d="M1501.17 1166.28 L1517.49 1166.28 L1517.49 1170.22 L1495.54 1170.22 L1495.54 1166.28 Q1498.21 1163.53 1502.79 1158.9 Q1507.4 1154.25 1508.58 1152.9 Q1510.82 1150.38 1511.7 1148.64 Q1512.6 1146.89 1512.6 1145.2 Q1512.6 1142.44 1510.66 1140.7 Q1508.74 1138.97 1505.64 1138.97 Q1503.44 1138.97 1500.98 1139.73 Q1498.55 1140.5 1495.78 1142.05 L1495.78 1137.33 Q1498.6 1136.19 1501.05 1135.61 Q1503.51 1135.03 1505.54 1135.03 Q1510.92 1135.03 1514.11 1137.72 Q1517.3 1140.4 1517.3 1144.89 Q1517.3 1147.02 1516.49 1148.95 Q1515.71 1150.84 1513.6 1153.44 Q1513.02 1154.11 1509.92 1157.33 Q1506.82 1160.52 1501.17 1166.28 Z" fill="#000000" fill-rule="nonzero" fill-opacity="1" /><path clip-path="url(#clip800)" d="M1537.3 1138.74 Q1533.69 1138.74 1531.86 1142.3 Q1530.06 1145.84 1530.06 1152.97 Q1530.06 1160.08 1531.86 1163.64 Q1533.69 1167.19 1537.3 1167.19 Q1540.94 1167.19 1542.74 1163.64 Q1544.57 1160.08 1544.57 1152.97 Q1544.57 1145.84 1542.74 1142.3 Q1540.94 1138.74 1537.3 1138.74 M1537.3 1135.03 Q1543.11 1135.03 1546.17 1139.64 Q1549.25 1144.22 1549.25 1152.97 Q1549.25 1161.7 1546.17 1166.31 Q1543.11 1170.89 1537.3 1170.89 Q1531.49 1170.89 1528.42 1166.31 Q1525.36 1161.7 1525.36 1152.97 Q1525.36 1144.22 1528.42 1139.64 Q1531.49 1135.03 1537.3 1135.03 Z" fill="#000000" fill-rule="nonzero" fill-opacity="1" /><path clip-path="url(#clip800)" d="M1567.47 1138.74 Q1563.85 1138.74 1562.03 1142.3 Q1560.22 1145.84 1560.22 1152.97 Q1560.22 1160.08 1562.03 1163.64 Q1563.85 1167.19 1567.47 1167.19 Q1571.1 1167.19 1572.91 1163.64 Q1574.73 1160.08 1574.73 1152.97 Q1574.73 1145.84 1572.91 1142.3 Q1571.1 1138.74 1567.47 1138.74 M1567.47 1135.03 Q1573.28 1135.03 1576.33 1139.64 Q1579.41 1144.22 1579.41 1152.97 Q1579.41 1161.7 1576.33 1166.31 Q1573.28 1170.89 1567.47 1170.89 Q1561.66 1170.89 1558.58 1166.31 Q1555.52 1161.7 1555.52 1152.97 Q1555.52 1144.22 1558.58 1139.64 Q1561.66 1135.03 1567.47 1135.03 Z" fill="#000000" fill-rule="nonzero" fill-opacity="1" /><path clip-path="url(#clip800)" d="M1812.15 1166.28 L1828.47 1166.28 L1828.47 1170.22 L1806.52 1170.22 L1806.52 1166.28 Q1809.18 1163.53 1813.77 1158.9 Q1818.37 1154.25 1819.55 1152.9 Q1821.8 1150.38 1822.68 1148.64 Q1823.58 1146.89 1823.58 1145.2 Q1823.58 1142.44 1821.64 1140.7 Q1819.72 1138.97 1816.61 1138.97 Q1814.42 1138.97 1811.96 1139.73 Q1809.53 1140.5 1806.75 1142.05 L1806.75 1137.33 Q1809.58 1136.19 1812.03 1135.61 Q1814.48 1135.03 1816.52 1135.03 Q1821.89 1135.03 1825.09 1137.72 Q1828.28 1140.4 1828.28 1144.89 Q1828.28 1147.02 1827.47 1148.95 Q1826.68 1150.84 1824.58 1153.44 Q1824 1154.11 1820.9 1157.33 Q1817.79 1160.52 1812.15 1166.28 Z" fill="#000000" fill-rule="nonzero" fill-opacity="1" /><path clip-path="url(#clip800)" d="M1838.33 1135.66 L1856.68 1135.66 L1856.68 1139.59 L1842.61 1139.59 L1842.61 1148.07 Q1843.63 1147.72 1844.65 1147.56 Q1845.66 1147.37 1846.68 1147.37 Q1852.47 1147.37 1855.85 1150.54 Q1859.23 1153.71 1859.23 1159.13 Q1859.23 1164.71 1855.76 1167.81 Q1852.29 1170.89 1845.97 1170.89 Q1843.79 1170.89 1841.52 1170.52 Q1839.28 1170.15 1836.87 1169.41 L1836.87 1164.71 Q1838.95 1165.84 1841.17 1166.4 Q1843.4 1166.95 1845.87 1166.95 Q1849.88 1166.95 1852.22 1164.85 Q1854.55 1162.74 1854.55 1159.13 Q1854.55 1155.52 1852.22 1153.41 Q1849.88 1151.31 1845.87 1151.31 Q1844 1151.31 1842.12 1151.72 Q1840.27 1152.14 1838.33 1153.02 L1838.33 1135.66 Z" fill="#000000" fill-rule="nonzero" fill-opacity="1" /><path clip-path="url(#clip800)" d="M1878.44 1138.74 Q1874.83 1138.74 1873 1142.3 Q1871.2 1145.84 1871.2 1152.97 Q1871.2 1160.08 1873 1163.64 Q1874.83 1167.19 1878.44 1167.19 Q1882.08 1167.19 1883.88 1163.64 Q1885.71 1160.08 1885.71 1152.97 Q1885.71 1145.84 1883.88 1142.3 Q1882.08 1138.74 1878.44 1138.74 M1878.44 1135.03 Q1884.25 1135.03 1887.31 1139.64 Q1890.39 1144.22 1890.39 1152.97 Q1890.39 1161.7 1887.31 1166.31 Q1884.25 1170.89 1878.44 1170.89 Q1872.63 1170.89 1869.55 1166.31 Q1866.5 1161.7 1866.5 1152.97 Q1866.5 1144.22 1869.55 1139.64 Q1872.63 1135.03 1878.44 1135.03 Z" fill="#000000" fill-rule="nonzero" fill-opacity="1" /><g clip-path="url(#clip800)">
<text style="fill:#000000; fill-opacity:1; font-family:Arial,Helvetica Neue,Helvetica,sans-serif; font-size:66px; text-anchor:middle;" transform="rotate(0, 1099, 1252.42)" x="1099" y="1252.42">Krylov dimension</text>
</g>
<polyline clip-path="url(#clip800)" style="stroke:#000000; stroke-linecap:round; stroke-linejoin:round; stroke-width:4; stroke-opacity:1; fill:none" points="245.244,1111.02 245.244,107.256 "/>
<polyline clip-path="url(#clip800)" style="stroke:#000000; stroke-linecap:round; stroke-linejoin:round; stroke-width:4; stroke-opacity:1; fill:none" points="245.244,1080.54 264.142,1080.54 "/>
<polyline clip-path="url(#clip800)" style="stroke:#000000; stroke-linecap:round; stroke-linejoin:round; stroke-width:4; stroke-opacity:1; fill:none" points="245.244,570.749 264.142,570.749 "/>
<path clip-path="url(#clip800)" d="M113.675 1100.34 L121.314 1100.34 L121.314 1073.97 L113.004 1075.64 L113.004 1071.38 L121.268 1069.71 L125.944 1069.71 L125.944 1100.34 L133.583 1100.34 L133.583 1104.27 L113.675 1104.27 L113.675 1100.34 Z" fill="#000000" fill-rule="nonzero" fill-opacity="1" /><path clip-path="url(#clip800)" d="M153.027 1072.79 Q149.416 1072.79 147.587 1076.35 Q145.782 1079.9 145.782 1087.02 Q145.782 1094.13 147.587 1097.7 Q149.416 1101.24 153.027 1101.24 Q156.661 1101.24 158.467 1097.7 Q160.295 1094.13 160.295 1087.02 Q160.295 1079.9 158.467 1076.35 Q156.661 1072.79 153.027 1072.79 M153.027 1069.09 Q158.837 1069.09 161.893 1073.69 Q164.971 1078.27 164.971 1087.02 Q164.971 1095.75 161.893 1100.36 Q158.837 1104.94 153.027 1104.94 Q147.217 1104.94 144.138 1100.36 Q141.082 1095.75 141.082 1087.02 Q141.082 1078.27 144.138 1073.69 Q147.217 1069.09 153.027 1069.09 Z" fill="#000000" fill-rule="nonzero" fill-opacity="1" /><path clip-path="url(#clip800)" d="M164.971 1063.19 L189.083 1063.19 L189.083 1066.38 L164.971 1066.38 L164.971 1063.19 Z" fill="#000000" fill-rule="nonzero" fill-opacity="1" /><path clip-path="url(#clip800)" d="M205.878 1061.31 Q203.32 1061.31 201.816 1063.05 Q200.33 1064.8 200.33 1067.85 Q200.33 1070.88 201.816 1072.65 Q203.32 1074.4 205.878 1074.4 Q208.436 1074.4 209.922 1072.65 Q211.426 1070.88 211.426 1067.85 Q211.426 1064.8 209.922 1063.05 Q208.436 1061.31 205.878 1061.31 M213.42 1049.4 L213.42 1052.86 Q211.991 1052.18 210.524 1051.83 Q209.075 1051.47 207.646 1051.47 Q203.885 1051.47 201.891 1054.01 Q199.916 1056.55 199.634 1061.68 Q200.744 1060.05 202.417 1059.18 Q204.091 1058.3 206.104 1058.3 Q210.336 1058.3 212.781 1060.87 Q215.244 1063.43 215.244 1067.85 Q215.244 1072.18 212.687 1074.79 Q210.129 1077.41 205.878 1077.41 Q201.007 1077.41 198.43 1073.68 Q195.854 1069.94 195.854 1062.85 Q195.854 1056.19 199.013 1052.24 Q202.173 1048.27 207.496 1048.27 Q208.925 1048.27 210.373 1048.55 Q211.84 1048.84 213.42 1049.4 Z" fill="#000000" fill-rule="nonzero" fill-opacity="1" /><path clip-path="url(#clip800)" d="M114.333 590.542 L121.972 590.542 L121.972 564.176 L113.662 565.843 L113.662 561.584 L121.926 559.917 L126.602 559.917 L126.602 590.542 L134.241 590.542 L134.241 594.477 L114.333 594.477 L114.333 590.542 Z" fill="#000000" fill-rule="nonzero" fill-opacity="1" /><path clip-path="url(#clip800)" d="M153.685 562.996 Q150.074 562.996 148.245 566.56 Q146.44 570.102 146.44 577.232 Q146.44 584.338 148.245 587.903 Q150.074 591.445 153.685 591.445 Q157.319 591.445 159.125 587.903 Q160.954 584.338 160.954 577.232 Q160.954 570.102 159.125 566.56 Q157.319 562.996 153.685 562.996 M153.685 559.292 Q159.495 559.292 162.551 563.898 Q165.629 568.482 165.629 577.232 Q165.629 585.958 162.551 590.565 Q159.495 595.148 153.685 595.148 Q147.875 595.148 144.796 590.565 Q141.741 585.958 141.741 577.232 Q141.741 568.482 144.796 563.898 Q147.875 559.292 153.685 559.292 Z" fill="#000000" fill-rule="nonzero" fill-opacity="1" /><path clip-path="url(#clip800)" d="M165.629 553.393 L189.741 553.393 L189.741 556.591 L165.629 556.591 L165.629 553.393 Z" fill="#000000" fill-rule="nonzero" fill-opacity="1" /><path clip-path="url(#clip800)" d="M209.452 551.926 Q212.179 552.509 213.702 554.352 Q215.244 556.196 215.244 558.904 Q215.244 563.06 212.386 565.336 Q209.527 567.612 204.261 567.612 Q202.493 567.612 200.612 567.255 Q198.75 566.916 196.756 566.22 L196.756 562.553 Q198.336 563.474 200.217 563.944 Q202.098 564.415 204.148 564.415 Q207.721 564.415 209.583 563.004 Q211.464 561.593 211.464 558.904 Q211.464 556.421 209.715 555.03 Q207.985 553.619 204.881 553.619 L201.609 553.619 L201.609 550.497 L205.032 550.497 Q207.834 550.497 209.32 549.387 Q210.806 548.259 210.806 546.152 Q210.806 543.989 209.264 542.842 Q207.74 541.676 204.881 541.676 Q203.32 541.676 201.534 542.015 Q199.747 542.353 197.603 543.068 L197.603 539.682 Q199.766 539.081 201.646 538.78 Q203.546 538.479 205.22 538.479 Q209.546 538.479 212.066 540.454 Q214.586 542.41 214.586 545.757 Q214.586 548.089 213.251 549.707 Q211.915 551.306 209.452 551.926 Z" fill="#000000" fill-rule="nonzero" fill-opacity="1" /><g clip-path="url(#clip800)">
<text style="fill:#000000; fill-opacity:1; font-family:Arial,Helvetica Neue,Helvetica,sans-serif; font-size:66px; text-anchor:middle;" transform="rotate(-90, 71.4418, 609.137)" x="71.4418" y="609.137">relative residual norm</text>
</g>
<g clip-path="url(#clip800)">
<text style="fill:#000000; fill-opacity:1; font-family:Arial,Helvetica Neue,Helvetica,sans-serif; font-size:66px; text-anchor:middle;" transform="rotate(0, 1099, 57.6)" x="1099" y="57.6">Convergence of MINRES and CG</text>
</g>
<polyline clip-path="url(#clip802)" style="stroke:#009af9; stroke-linecap:round; stroke-linejoin:round; stroke-width:8; stroke-opacity:1; fill:none" points="293.57,140.241 299.79,187.835 306.009,223.637 312.229,250.29 318.448,272.161 324.668,291.482 330.887,307.879 337.107,322.718 343.326,335.783 349.546,348.333 355.766,358.868 361.985,368.861 368.205,378.343 374.424,387.266 380.644,395.339 386.863,403.199 393.083,410.469 399.302,417 405.522,423.392 411.741,429.671 417.961,435.715 424.18,441.498 430.4,446.943 436.62,452.397 442.839,457.774 449.059,462.827 455.278,467.686 461.498,472.38 467.717,477.106 473.937,481.751 480.156,486.149 486.376,490.528 492.595,494.509 498.815,498.499 505.034,502.1 511.254,505.923 517.474,509.627 523.693,513.368 529.913,517.101 536.132,520.708 542.352,524.208 548.571,527.741 554.791,531.141 561.01,534.489 567.23,537.81 573.449,541.139 579.669,544.37 585.888,547.698 592.108,550.989 598.327,554.175 604.547,557.461 610.767,560.62 616.986,563.887 623.206,567.046 629.425,570.108 635.645,573.223 641.864,576.515 648.084,579.389 654.303,582.492 660.523,585.546 666.742,588.536 672.962,591.549 679.181,594.533 685.401,597.685 691.621,600.673 697.84,603.55 704.06,606.379 710.279,609.307 716.499,612.201 722.718,615.152 728.938,618.066 735.157,621.028 741.377,623.754 747.596,626.589 753.816,629.416 760.035,632.148 766.255,635.105 772.474,638.047 778.694,640.894 784.914,643.836 791.133,646.791 797.353,649.666 803.572,652.442 809.792,655.167 816.011,657.95 822.231,660.696 828.45,663.466 834.67,666.318 840.889,669.247 847.109,672.074 853.328,675.058 859.548,677.889 865.768,680.81 871.987,683.765 878.207,686.658 884.426,689.548 890.646,692.435 896.865,695.421 903.085,698.354 909.304,701.197 915.524,704.011 921.743,706.823 927.963,709.718 934.182,712.743 940.402,715.639 946.622,718.651 952.841,721.529 959.061,724.463 965.28,727.405 971.5,730.302 977.719,733.146 983.939,736.107 990.158,738.968 996.378,741.784 1002.6,744.544 1008.82,747.396 1015.04,750.293 1021.26,753.117 1027.48,756.106 1033.7,758.934 1039.91,761.816 1046.13,764.813 1052.35,767.778 1058.57,770.707 1064.79,773.758 1071.01,776.697 1077.23,779.661 1083.45,782.422 1089.67,785.319 1095.89,788.319 1102.11,791.286 1108.33,794.151 1114.55,797.077 1120.77,800.054 1126.99,802.907 1133.21,805.848 1139.43,808.703 1145.65,811.71 1151.87,814.767 1158.09,817.839 1164.31,820.609 1170.52,823.577 1176.74,826.521 1182.96,829.537 1189.18,832.357 1195.4,835.338 1201.62,838.27 1207.84,841.198 1214.06,844.046 1220.28,846.883 1226.5,849.667 1232.72,852.568 1238.94,855.437 1245.16,858.348 1251.38,861.291 1257.6,864.265 1263.82,867.189 1270.04,870.209 1276.26,873.252 1282.48,876.229 1288.7,879.383 1294.92,882.292 1301.14,885.372 1307.35,888.354 1313.57,891.159 1319.79,894.116 1326.01,897.071 1332.23,900.029 1338.45,903.053 1344.67,905.891 1350.89,908.769 1357.11,911.734 1363.33,914.779 1369.55,917.609 1375.77,920.628 1381.99,923.285 1388.21,926.264 1394.43,929.212 1400.65,932.227 1406.87,935.281 1413.09,938.256 1419.31,941.277 1425.53,944.232 1431.75,947.156 1437.96,950.176 1444.18,952.998 1450.4,955.895 1456.62,958.953 1462.84,961.967 1469.06,964.753 1475.28,967.767 1481.5,970.722 1487.72,973.544 1493.94,976.526 1500.16,979.624 1506.38,982.421 1512.6,985.284 1518.82,988.344 1525.04,991.661 1531.26,994.801 1537.48,997.881 1543.7,1000.81 1549.92,1003.79 1556.14,1006.81 1562.36,1009.94 1568.58,1012.93 1574.79,1015.95 1581.01,1018.98 1587.23,1021.93 1593.45,1024.95 1599.67,1027.83 1605.89,1030.79 1612.11,1033.79 1618.33,1036.78 1624.55,1039.87 1630.77,1042.84 1636.99,1045.79 1643.21,1048.78 1649.43,1051.92 1655.65,1054.97 1661.87,1058.01 1668.09,1061.18 1674.31,1064.16 1680.53,1067.24 1686.75,1070.26 1692.97,1073.3 1699.19,1076.47 1705.4,1079.63 1711.62,1082.61 "/>
<polyline clip-path="url(#clip802)" style="stroke:#e26f46; stroke-linecap:round; stroke-linejoin:round; stroke-width:8; stroke-opacity:1; fill:none" points="293.57,135.664 299.79,175.952 306.009,206.058 312.229,225.759 318.448,242.464 324.668,258.367 330.887,270.053 337.107,281.932 343.326,291.13 349.546,302.439 355.766,307.47 361.985,315.774 368.205,323.563 374.424,330.514 380.644,335.296 386.863,342.279 393.083,346.952 399.302,349.881 405.522,355.552 411.741,361.226 417.961,365.978 424.18,370.253 430.4,373.647 436.62,379.155 442.839,384.049 449.059,386.96 455.278,390.476 461.498,393.973 467.717,398.928 473.937,402.986 480.156,405.484 486.376,409.708 492.595,410.375 498.815,414.439 505.034,414.451 511.254,420.37 517.474,422.964 523.693,427.05 529.913,430.713 536.132,433.109 542.352,435.56 548.571,439.418 554.791,441.467 561.01,444.273 567.23,447.31 573.449,450.724 579.669,452.897 585.888,457.274 592.108,460.16 598.327,462.219 604.547,466.583 610.767,468.356 616.986,472.803 623.206,474.785 629.425,476.738 635.645,480.452 641.864,485.701 648.084,483.777 654.303,489.589 660.523,492.09 666.742,494.326 672.962,497.6 679.181,500.25 685.401,505.348 691.621,506.425 697.84,507.974 704.06,510.213 710.279,514.341 716.499,516.843 722.718,520.466 728.938,522.94 735.157,526.483 741.377,526.262 747.596,530.485 753.816,533.224 760.035,534.727 766.255,540.498 772.474,543.26 778.694,544.949 784.914,549.043 791.133,552.172 797.353,554.05 803.572,555.605 809.792,557.661 816.011,561.193 822.231,563.462 828.45,566.542 834.67,570.425 840.889,574.303 847.109,575.879 853.328,580.773 859.548,581.732 865.768,585.769 871.987,589.143 878.207,591.27 884.426,594.138 890.646,596.973 896.865,601.164 903.085,603.455 909.304,605.2 915.524,607.642 921.743,610.437 927.963,614.367 934.182,618.939 940.402,620.288 946.622,624.695 952.841,625.975 959.061,629.577 965.28,632.617 971.5,634.975 977.719,637.156 983.939,641.552 990.158,643.18 996.378,645.45 1002.6,647.486 1008.82,651.513 1015.04,654.965 1021.26,656.873 1027.48,661.878 1033.7,662.755 1039.91,666.294 1046.13,670.68 1052.35,673.274 1058.57,675.763 1064.79,680.265 1071.01,681.872 1077.23,685.133 1083.45,685.388 1089.67,689.989 1095.89,694.226 1102.11,696.789 1108.33,698.432 1114.55,702.097 1120.77,705.689 1126.99,707.027 1133.21,711.057 1139.43,712.845 1145.65,717.696 1151.87,721.346 1158.09,724.579 1164.31,723.694 1170.52,729.102 1176.74,731.754 1182.96,735.633 1189.18,736.067 1195.4,741.02 1201.62,743.361 1207.84,746.246 1214.06,748.108 1220.28,750.799 1226.5,752.922 1232.72,757.293 1238.94,759.759 1245.16,763.179 1251.38,766.517 1257.6,769.864 1263.82,772.182 1270.04,776.356 1276.26,779.666 1282.48,781.853 1288.7,787.065 1294.92,787.106 1301.14,792.209 1307.35,794.041 1313.57,794.686 1319.79,799.515 1326.01,802.434 1332.23,805.444 1338.45,809.229 1344.67,809.834 1350.89,813.199 1357.11,817.226 1363.33,821.219 1369.55,821.44 1375.77,826.765 1381.99,824.868 1388.21,831.931 1394.43,834.488 1400.65,838.315 1406.87,841.813 1413.09,843.87 1419.31,847.429 1425.53,849.599 1431.75,852.159 1437.96,856.31 1444.18,856.741 1450.4,860.564 1456.62,865.533 1462.84,868.036 1469.06,868.029 1475.28,873.842 1481.5,876.088 1487.72,877.28 1493.94,882.221 1500.16,886.674 1506.38,885.841 1512.6,889.533 1518.82,894.948 1525.04,901.12 1531.26,902.318 1537.48,904.714 1543.7,905.858 1549.92,909.518 1556.14,912.885 1562.36,917.383 1568.58,918.701 1574.79,922.011 1581.01,925.157 1587.23,927.158 1593.45,931.015 1599.67,932.128 1605.89,936.043 1612.11,939.375 1618.33,942.332 1624.55,946.921 1630.77,948.592 1636.99,951.155 1643.21,954.775 1649.43,959.496 1655.65,961.48 1661.87,964.416 1668.09,969.127 1674.31,969.784 1680.53,974.148 1686.75,976.333 1692.97,979.674 1699.19,984.346 1705.4,987.421 1711.62,988.22 1717.84,992.726 1724.06,993.207 1730.28,997.941 1736.5,999.908 1742.72,1004.03 1748.94,1006.05 1755.16,1008.26 1761.38,1011.62 1767.6,1015.03 1773.82,1019.1 1780.04,1020.67 1786.26,1022.41 1792.48,1025.98 1798.7,1030.64 1804.92,1031.05 1811.14,1035.21 1817.36,1039.05 1823.58,1040.62 1829.8,1044.77 1836.02,1047.74 1842.23,1050.74 1848.45,1053.65 1854.67,1058.61 1860.89,1058.87 1867.11,1061.41 1873.33,1064.27 1879.55,1069.46 1885.77,1072.73 1891.99,1073.33 1898.21,1076.18 1904.43,1080.84 "/>
<path clip-path="url(#clip800)" d="M1570 296.235 L1895.84 296.235 L1895.84 140.715 L1570 140.715  Z" fill="#ffffff" fill-rule="evenodd" fill-opacity="1"/>
<polyline clip-path="url(#clip800)" style="stroke:#000000; stroke-linecap:round; stroke-linejoin:round; stroke-width:4; stroke-opacity:1; fill:none" points="1570,296.235 1895.84,296.235 1895.84,140.715 1570,140.715 1570,296.235 "/>
<polyline clip-path="url(#clip800)" style="stroke:#009af9; stroke-linecap:round; stroke-linejoin:round; stroke-width:8; stroke-opacity:1; fill:none" points="1588.97,192.555 1702.8,192.555 "/>
<path clip-path="url(#clip800)" d="M1742.12 188.886 Q1743.72 186.015 1745.94 184.65 Q1748.16 183.284 1751.17 183.284 Q1755.22 183.284 1757.42 186.131 Q1759.62 188.955 1759.62 194.187 L1759.62 209.835 L1755.34 209.835 L1755.34 194.325 Q1755.34 190.599 1754.02 188.793 Q1752.7 186.988 1749.99 186.988 Q1746.68 186.988 1744.76 189.187 Q1742.84 191.386 1742.84 195.182 L1742.84 209.835 L1738.56 209.835 L1738.56 194.325 Q1738.56 190.575 1737.24 188.793 Q1735.92 186.988 1733.16 186.988 Q1729.9 186.988 1727.98 189.21 Q1726.06 191.409 1726.06 195.182 L1726.06 209.835 L1721.77 209.835 L1721.77 183.909 L1726.06 183.909 L1726.06 187.937 Q1727.52 185.552 1729.55 184.418 Q1731.59 183.284 1734.39 183.284 Q1737.21 183.284 1739.18 184.719 Q1741.17 186.154 1742.12 188.886 Z" fill="#000000" fill-rule="nonzero" fill-opacity="1" /><path clip-path="url(#clip800)" d="M1768.12 183.909 L1772.38 183.909 L1772.38 209.835 L1768.12 209.835 L1768.12 183.909 M1768.12 173.816 L1772.38 173.816 L1772.38 179.21 L1768.12 179.21 L1768.12 173.816 Z" fill="#000000" fill-rule="nonzero" fill-opacity="1" /><path clip-path="url(#clip800)" d="M1802.84 194.187 L1802.84 209.835 L1798.58 209.835 L1798.58 194.325 Q1798.58 190.645 1797.14 188.816 Q1795.71 186.988 1792.84 186.988 Q1789.39 186.988 1787.4 189.187 Q1785.41 191.386 1785.41 195.182 L1785.41 209.835 L1781.13 209.835 L1781.13 183.909 L1785.41 183.909 L1785.41 187.937 Q1786.94 185.599 1789 184.441 Q1791.08 183.284 1793.79 183.284 Q1798.26 183.284 1800.55 186.062 Q1802.84 188.816 1802.84 194.187 Z" fill="#000000" fill-rule="nonzero" fill-opacity="1" /><path clip-path="url(#clip800)" d="M1826.36 187.89 Q1825.64 187.474 1824.78 187.288 Q1823.95 187.08 1822.93 187.08 Q1819.32 187.08 1817.38 189.441 Q1815.45 191.779 1815.45 196.177 L1815.45 209.835 L1811.17 209.835 L1811.17 183.909 L1815.45 183.909 L1815.45 187.937 Q1816.8 185.576 1818.95 184.441 Q1821.1 183.284 1824.18 183.284 Q1824.62 183.284 1825.15 183.353 Q1825.69 183.4 1826.33 183.515 L1826.36 187.89 Z" fill="#000000" fill-rule="nonzero" fill-opacity="1" /><path clip-path="url(#clip800)" d="M1851.96 195.807 L1851.96 197.89 L1832.38 197.89 Q1832.65 202.288 1835.01 204.603 Q1837.4 206.895 1841.64 206.895 Q1844.09 206.895 1846.38 206.293 Q1848.7 205.691 1850.96 204.487 L1850.96 208.515 Q1848.67 209.487 1846.26 209.997 Q1843.86 210.506 1841.38 210.506 Q1835.18 210.506 1831.54 206.895 Q1827.93 203.284 1827.93 197.126 Q1827.93 190.761 1831.36 187.034 Q1834.81 183.284 1840.64 183.284 Q1845.87 183.284 1848.9 186.663 Q1851.96 190.02 1851.96 195.807 M1847.7 194.557 Q1847.65 191.062 1845.73 188.978 Q1843.83 186.895 1840.69 186.895 Q1837.12 186.895 1834.97 188.909 Q1832.84 190.923 1832.51 194.58 L1847.7 194.557 Z" fill="#000000" fill-rule="nonzero" fill-opacity="1" /><path clip-path="url(#clip800)" d="M1875.48 184.673 L1875.48 188.7 Q1873.67 187.775 1871.73 187.312 Q1869.78 186.849 1867.7 186.849 Q1864.53 186.849 1862.93 187.821 Q1861.36 188.793 1861.36 190.738 Q1861.36 192.219 1862.49 193.075 Q1863.63 193.909 1867.05 194.673 L1868.51 194.997 Q1873.05 195.969 1874.95 197.751 Q1876.87 199.511 1876.87 202.682 Q1876.87 206.293 1874 208.399 Q1871.15 210.506 1866.15 210.506 Q1864.07 210.506 1861.8 210.089 Q1859.55 209.696 1857.05 208.886 L1857.05 204.487 Q1859.41 205.714 1861.7 206.339 Q1864 206.941 1866.24 206.941 Q1869.25 206.941 1870.87 205.923 Q1872.49 204.881 1872.49 203.006 Q1872.49 201.27 1871.31 200.344 Q1870.15 199.418 1866.2 198.562 L1864.71 198.214 Q1860.76 197.381 1859 195.668 Q1857.24 193.932 1857.24 190.923 Q1857.24 187.265 1859.83 185.275 Q1862.42 183.284 1867.19 183.284 Q1869.55 183.284 1871.64 183.631 Q1873.72 183.978 1875.48 184.673 Z" fill="#000000" fill-rule="nonzero" fill-opacity="1" /><polyline clip-path="url(#clip800)" style="stroke:#e26f46; stroke-linecap:round; stroke-linejoin:round; stroke-width:8; stroke-opacity:1; fill:none" points="1588.97,244.395 1702.8,244.395 "/>
<path clip-path="url(#clip800)" d="M1742.28 236.744 L1742.28 240.726 Q1740.48 239.73 1738.65 239.244 Q1736.84 238.735 1734.99 238.735 Q1730.85 238.735 1728.56 241.374 Q1726.27 243.99 1726.27 248.735 Q1726.27 253.48 1728.56 256.119 Q1730.85 258.735 1734.99 258.735 Q1736.84 258.735 1738.65 258.249 Q1740.48 257.739 1742.28 256.744 L1742.28 260.679 Q1740.5 261.513 1738.58 261.929 Q1736.68 262.346 1734.53 262.346 Q1728.67 262.346 1725.22 258.665 Q1721.77 254.985 1721.77 248.735 Q1721.77 242.392 1725.25 238.758 Q1728.74 235.124 1734.81 235.124 Q1736.77 235.124 1738.65 235.541 Q1740.52 235.934 1742.28 236.744 Z" fill="#000000" fill-rule="nonzero" fill-opacity="1" /><path clip-path="url(#clip800)" d="M1766.75 248.411 Q1766.75 243.781 1764.83 241.235 Q1762.93 238.689 1759.48 238.689 Q1756.06 238.689 1754.14 241.235 Q1752.24 243.781 1752.24 248.411 Q1752.24 253.017 1754.14 255.564 Q1756.06 258.11 1759.48 258.11 Q1762.93 258.11 1764.83 255.564 Q1766.75 253.017 1766.75 248.411 M1771.01 258.457 Q1771.01 265.077 1768.07 268.295 Q1765.13 271.536 1759.07 271.536 Q1756.82 271.536 1754.83 271.188 Q1752.84 270.864 1750.96 270.17 L1750.96 266.026 Q1752.84 267.045 1754.67 267.531 Q1756.5 268.017 1758.39 268.017 Q1762.58 268.017 1764.67 265.818 Q1766.75 263.642 1766.75 259.221 L1766.75 257.114 Q1765.43 259.406 1763.37 260.54 Q1761.31 261.675 1758.44 261.675 Q1753.67 261.675 1750.76 258.04 Q1747.84 254.406 1747.84 248.411 Q1747.84 242.392 1750.76 238.758 Q1753.67 235.124 1758.44 235.124 Q1761.31 235.124 1763.37 236.258 Q1765.43 237.392 1766.75 239.684 L1766.75 235.749 L1771.01 235.749 L1771.01 258.457 Z" fill="#000000" fill-rule="nonzero" fill-opacity="1" /></svg>
