<?xml version="1.0" encoding="utf-8"?>
<svg xmlns="http://www.w3.org/2000/svg" xmlns:xlink="http://www.w3.org/1999/xlink" width="500" height="320" viewBox="0 0 2000 1280">
<defs>
  <clipPath id="clip810">
    <rect x="0" y="0" width="2000" height="1280"/>
  </clipPath>
</defs>
<path clip-path="url(#clip810)" d="M0 1280 L2000 1280 L2000 -2.66454e-14 L0 -2.66454e-14  Z" fill="#ffffff" fill-rule="evenodd" fill-opacity="1"/>
<defs>
  <clipPath id="clip811">
    <rect x="400" y="0" width="1401" height="1280"/>
  </clipPath>
</defs>
<path clip-path="url(#clip810)" d="M248.721 1111.02 L1952.76 1111.02 L1952.76 47.2441 L248.721 47.2441  Z" fill="#ffffff" fill-rule="evenodd" fill-opacity="1"/>
<defs>
  <clipPath id="clip812">
    <rect x="248" y="47" width="1705" height="1065"/>
  </clipPath>
</defs>
<polyline clip-path="url(#clip812)" style="stroke:#000000; stroke-linecap:round; stroke-linejoin:round; stroke-width:2; stroke-opacity:0.1; fill:none" points="475.568,1111.02 475.568,47.2441 "/>
<polyline clip-path="url(#clip812)" style="stroke:#000000; stroke-linecap:round; stroke-linejoin:round; stroke-width:2; stroke-opacity:0.1; fill:none" points="832.808,1111.02 832.808,47.2441 "/>
<polyline clip-path="url(#clip812)" style="stroke:#000000; stroke-linecap:round; stroke-linejoin:round; stroke-width:2; stroke-opacity:0.1; fill:none" points="1190.05,1111.02 1190.05,47.2441 "/>
<polyline clip-path="url(#clip812)" style="stroke:#000000; stroke-linecap:round; stroke-linejoin:round; stroke-width:2; stroke-opacity:0.1; fill:none" points="1547.29,1111.02 1547.29,47.2441 "/>
<polyline clip-path="url(#clip812)" style="stroke:#000000; stroke-linecap:round; stroke-linejoin:round; stroke-width:2; stroke-opacity:0.1; fill:none" points="1904.53,1111.02 1904.53,47.2441 "/>
<polyline clip-path="url(#clip812)" style="stroke:#000000; stroke-linecap:round; stroke-linejoin:round; stroke-width:2; stroke-opacity:0.1; fill:none" points="248.721,1100.04 1952.76,1100.04 "/>
<polyline clip-path="url(#clip812)" style="stroke:#000000; stroke-linecap:round; stroke-linejoin:round; stroke-width:2; stroke-opacity:0.1; fill:none" points="248.721,944.138 1952.76,944.138 "/>
<polyline clip-path="url(#clip812)" style="stroke:#000000; stroke-linecap:round; stroke-linejoin:round; stroke-width:2; stroke-opacity:0.1; fill:none" points="248.721,788.241 1952.76,788.241 "/>
<polyline clip-path="url(#clip812)" style="stroke:#000000; stroke-linecap:round; stroke-linejoin:round; stroke-width:2; stroke-opacity:0.1; fill:none" points="248.721,632.344 1952.76,632.344 "/>
<polyline clip-path="url(#clip812)" style="stroke:#000000; stroke-linecap:round; stroke-linejoin:round; stroke-width:2; stroke-opacity:0.1; fill:none" points="248.721,476.447 1952.76,476.447 "/>
<polyline clip-path="url(#clip812)" style="stroke:#000000; stroke-linecap:round; stroke-linejoin:round; stroke-width:2; stroke-opacity:0.1; fill:none" points="248.721,320.55 1952.76,320.55 "/>
<polyline clip-path="url(#clip812)" style="stroke:#000000; stroke-linecap:round; stroke-linejoin:round; stroke-width:2; stroke-opacity:0.1; fill:none" points="248.721,164.653 1952.76,164.653 "/>
<polyline clip-path="url(#clip810)" style="stroke:#000000; stroke-linecap:round; stroke-linejoin:round; stroke-width:4; stroke-opacity:1; fill:none" points="248.721,1111.02 1952.76,1111.02 "/>
<polyline clip-path="url(#clip810)" style="stroke:#000000; stroke-linecap:round; stroke-linejoin:round; stroke-width:4; stroke-opacity:1; fill:none" points="475.568,1111.02 475.568,1092.12 "/>
<polyline clip-path="url(#clip810)" style="stroke:#000000; stroke-linecap:round; stroke-linejoin:round; stroke-width:4; stroke-opacity:1; fill:none" points="832.808,1111.02 832.808,1092.12 "/>
<polyline clip-path="url(#clip810)" style="stroke:#000000; stroke-linecap:round; stroke-linejoin:round; stroke-width:4; stroke-opacity:1; fill:none" points="1190.05,1111.02 1190.05,1092.12 "/>
<polyline clip-path="url(#clip810)" style="stroke:#000000; stroke-linecap:round; stroke-linejoin:round; stroke-width:4; stroke-opacity:1; fill:none" points="1547.29,1111.02 1547.29,1092.12 "/>
<polyline clip-path="url(#clip810)" style="stroke:#000000; stroke-linecap:round; stroke-linejoin:round; stroke-width:4; stroke-opacity:1; fill:none" points="1904.53,1111.02 1904.53,1092.12 "/>
<path clip-path="url(#clip810)" d="M420.094 1166.28 L427.733 1166.28 L427.733 1139.92 L419.423 1141.58 L419.423 1137.33 L427.687 1135.66 L432.363 1135.66 L432.363 1166.28 L440.001 1166.28 L440.001 1170.22 L420.094 1170.22 L420.094 1166.28 Z" fill="#000000" fill-rule="nonzero" fill-opacity="1" /><path clip-path="url(#clip810)" d="M449.585 1169.5 L449.585 1165.24 Q451.344 1166.07 453.149 1166.51 Q454.955 1166.95 456.691 1166.95 Q461.321 1166.95 463.751 1163.85 Q466.205 1160.73 466.552 1154.39 Q465.21 1156.38 463.149 1157.44 Q461.089 1158.51 458.589 1158.51 Q453.404 1158.51 450.372 1155.38 Q447.362 1152.23 447.362 1146.79 Q447.362 1141.47 450.511 1138.25 Q453.659 1135.03 458.89 1135.03 Q464.886 1135.03 468.034 1139.64 Q471.205 1144.22 471.205 1152.97 Q471.205 1161.14 467.316 1166.03 Q463.45 1170.89 456.899 1170.89 Q455.14 1170.89 453.335 1170.54 Q451.529 1170.2 449.585 1169.5 M458.89 1154.85 Q462.038 1154.85 463.867 1152.7 Q465.719 1150.54 465.719 1146.79 Q465.719 1143.07 463.867 1140.91 Q462.038 1138.74 458.89 1138.74 Q455.742 1138.74 453.89 1140.91 Q452.062 1143.07 452.062 1146.79 Q452.062 1150.54 453.89 1152.7 Q455.742 1154.85 458.89 1154.85 Z" fill="#000000" fill-rule="nonzero" fill-opacity="1" /><path clip-path="url(#clip810)" d="M490.186 1151.08 Q487.038 1151.08 485.186 1153.23 Q483.358 1155.38 483.358 1159.13 Q483.358 1162.86 485.186 1165.03 Q487.038 1167.19 490.186 1167.19 Q493.334 1167.19 495.163 1165.03 Q497.015 1162.86 497.015 1159.13 Q497.015 1155.38 495.163 1153.23 Q493.334 1151.08 490.186 1151.08 M499.469 1136.42 L499.469 1140.68 Q497.709 1139.85 495.904 1139.41 Q494.122 1138.97 492.362 1138.97 Q487.733 1138.97 485.279 1142.09 Q482.848 1145.22 482.501 1151.54 Q483.867 1149.52 485.927 1148.46 Q487.987 1147.37 490.464 1147.37 Q495.672 1147.37 498.682 1150.54 Q501.714 1153.69 501.714 1159.13 Q501.714 1164.45 498.566 1167.67 Q495.418 1170.89 490.186 1170.89 Q484.191 1170.89 481.02 1166.31 Q477.848 1161.7 477.848 1152.97 Q477.848 1144.78 481.737 1139.92 Q485.626 1135.03 492.177 1135.03 Q493.936 1135.03 495.719 1135.38 Q497.524 1135.73 499.469 1136.42 Z" fill="#000000" fill-rule="nonzero" fill-opacity="1" /><path clip-path="url(#clip810)" d="M519.77 1138.74 Q516.158 1138.74 514.33 1142.3 Q512.524 1145.84 512.524 1152.97 Q512.524 1160.08 514.33 1163.64 Q516.158 1167.19 519.77 1167.19 Q523.404 1167.19 525.209 1163.64 Q527.038 1160.08 527.038 1152.97 Q527.038 1145.84 525.209 1142.3 Q523.404 1138.74 519.77 1138.74 M519.77 1135.03 Q525.58 1135.03 528.635 1139.64 Q531.714 1144.22 531.714 1152.97 Q531.714 1161.7 528.635 1166.31 Q525.58 1170.89 519.77 1170.89 Q513.959 1170.89 510.881 1166.31 Q507.825 1161.7 507.825 1152.97 Q507.825 1144.22 510.881 1139.64 Q513.959 1135.03 519.77 1135.03 Z" fill="#000000" fill-rule="nonzero" fill-opacity="1" /><path clip-path="url(#clip810)" d="M777.334 1166.28 L784.973 1166.28 L784.973 1139.92 L776.663 1141.58 L776.663 1137.33 L784.927 1135.66 L789.603 1135.66 L789.603 1166.28 L797.241 1166.28 L797.241 1170.22 L777.334 1170.22 L777.334 1166.28 Z" fill="#000000" fill-rule="nonzero" fill-opacity="1" /><path clip-path="url(#clip810)" d="M806.825 1169.5 L806.825 1165.24 Q808.584 1166.07 810.39 1166.51 Q812.195 1166.95 813.931 1166.95 Q818.561 1166.95 820.991 1163.85 Q823.445 1160.73 823.792 1154.39 Q822.45 1156.38 820.389 1157.44 Q818.329 1158.51 815.829 1158.51 Q810.644 1158.51 807.612 1155.38 Q804.603 1152.23 804.603 1146.79 Q804.603 1141.47 807.751 1138.25 Q810.899 1135.03 816.13 1135.03 Q822.126 1135.03 825.274 1139.64 Q828.445 1144.22 828.445 1152.97 Q828.445 1161.14 824.556 1166.03 Q820.69 1170.89 814.14 1170.89 Q812.38 1170.89 810.575 1170.54 Q808.769 1170.2 806.825 1169.5 M816.13 1154.85 Q819.278 1154.85 821.107 1152.7 Q822.959 1150.54 822.959 1146.79 Q822.959 1143.07 821.107 1140.91 Q819.278 1138.74 816.13 1138.74 Q812.982 1138.74 811.13 1140.91 Q809.302 1143.07 809.302 1146.79 Q809.302 1150.54 811.13 1152.7 Q812.982 1154.85 816.13 1154.85 Z" fill="#000000" fill-rule="nonzero" fill-opacity="1" /><path clip-path="url(#clip810)" d="M835.667 1135.66 L857.889 1135.66 L857.889 1137.65 L845.343 1170.22 L840.459 1170.22 L852.264 1139.59 L835.667 1139.59 L835.667 1135.66 Z" fill="#000000" fill-rule="nonzero" fill-opacity="1" /><path clip-path="url(#clip810)" d="M877.01 1138.74 Q873.398 1138.74 871.57 1142.3 Q869.764 1145.84 869.764 1152.97 Q869.764 1160.08 871.57 1163.64 Q873.398 1167.19 877.01 1167.19 Q880.644 1167.19 882.449 1163.64 Q884.278 1160.08 884.278 1152.97 Q884.278 1145.84 882.449 1142.3 Q880.644 1138.74 877.01 1138.74 M877.01 1135.03 Q882.82 1135.03 885.875 1139.64 Q888.954 1144.22 888.954 1152.97 Q888.954 1161.7 885.875 1166.31 Q882.82 1170.89 877.01 1170.89 Q871.199 1170.89 868.121 1166.31 Q865.065 1161.7 865.065 1152.97 Q865.065 1144.22 868.121 1139.64 Q871.199 1135.03 877.01 1135.03 Z" fill="#000000" fill-rule="nonzero" fill-opacity="1" /><path clip-path="url(#clip810)" d="M1134.57 1166.28 L1142.21 1166.28 L1142.21 1139.92 L1133.9 1141.58 L1133.9 1137.33 L1142.17 1135.66 L1146.84 1135.66 L1146.84 1166.28 L1154.48 1166.28 L1154.48 1170.22 L1134.57 1170.22 L1134.57 1166.28 Z" fill="#000000" fill-rule="nonzero" fill-opacity="1" /><path clip-path="url(#clip810)" d="M1164.06 1169.5 L1164.06 1165.24 Q1165.82 1166.07 1167.63 1166.51 Q1169.44 1166.95 1171.17 1166.95 Q1175.8 1166.95 1178.23 1163.85 Q1180.69 1160.73 1181.03 1154.39 Q1179.69 1156.38 1177.63 1157.44 Q1175.57 1158.51 1173.07 1158.51 Q1167.88 1158.51 1164.85 1155.38 Q1161.84 1152.23 1161.84 1146.79 Q1161.84 1141.47 1164.99 1138.25 Q1168.14 1135.03 1173.37 1135.03 Q1179.37 1135.03 1182.51 1139.64 Q1185.69 1144.22 1185.69 1152.97 Q1185.69 1161.14 1181.8 1166.03 Q1177.93 1170.89 1171.38 1170.89 Q1169.62 1170.89 1167.81 1170.54 Q1166.01 1170.2 1164.06 1169.5 M1173.37 1154.85 Q1176.52 1154.85 1178.35 1152.7 Q1180.2 1150.54 1180.2 1146.79 Q1180.2 1143.07 1178.35 1140.91 Q1176.52 1138.74 1173.37 1138.74 Q1170.22 1138.74 1168.37 1140.91 Q1166.54 1143.07 1166.54 1146.79 Q1166.54 1150.54 1168.37 1152.7 Q1170.22 1154.85 1173.37 1154.85 Z" fill="#000000" fill-rule="nonzero" fill-opacity="1" /><path clip-path="url(#clip810)" d="M1204.09 1153.81 Q1200.75 1153.81 1198.83 1155.59 Q1196.93 1157.37 1196.93 1160.5 Q1196.93 1163.62 1198.83 1165.4 Q1200.75 1167.19 1204.09 1167.19 Q1207.42 1167.19 1209.34 1165.4 Q1211.26 1163.6 1211.26 1160.5 Q1211.26 1157.37 1209.34 1155.59 Q1207.44 1153.81 1204.09 1153.81 M1199.41 1151.82 Q1196.4 1151.08 1194.71 1149.01 Q1193.05 1146.95 1193.05 1143.99 Q1193.05 1139.85 1195.99 1137.44 Q1198.95 1135.03 1204.09 1135.03 Q1209.25 1135.03 1212.19 1137.44 Q1215.13 1139.85 1215.13 1143.99 Q1215.13 1146.95 1213.44 1149.01 Q1211.77 1151.08 1208.79 1151.82 Q1212.17 1152.6 1214.04 1154.89 Q1215.94 1157.19 1215.94 1160.5 Q1215.94 1165.52 1212.86 1168.2 Q1209.81 1170.89 1204.09 1170.89 Q1198.37 1170.89 1195.29 1168.2 Q1192.24 1165.52 1192.24 1160.5 Q1192.24 1157.19 1194.13 1154.89 Q1196.03 1152.6 1199.41 1151.82 M1197.7 1144.43 Q1197.7 1147.12 1199.37 1148.62 Q1201.06 1150.13 1204.09 1150.13 Q1207.1 1150.13 1208.79 1148.62 Q1210.5 1147.12 1210.5 1144.43 Q1210.5 1141.75 1208.79 1140.24 Q1207.1 1138.74 1204.09 1138.74 Q1201.06 1138.74 1199.37 1140.24 Q1197.7 1141.75 1197.7 1144.43 Z" fill="#000000" fill-rule="nonzero" fill-opacity="1" /><path clip-path="url(#clip810)" d="M1234.25 1138.74 Q1230.64 1138.74 1228.81 1142.3 Q1227 1145.84 1227 1152.97 Q1227 1160.08 1228.81 1163.64 Q1230.64 1167.19 1234.25 1167.19 Q1237.88 1167.19 1239.69 1163.64 Q1241.52 1160.08 1241.52 1152.97 Q1241.52 1145.84 1239.69 1142.3 Q1237.88 1138.74 1234.25 1138.74 M1234.25 1135.03 Q1240.06 1135.03 1243.12 1139.64 Q1246.19 1144.22 1246.19 1152.97 Q1246.19 1161.7 1243.12 1166.31 Q1240.06 1170.89 1234.25 1170.89 Q1228.44 1170.89 1225.36 1166.31 Q1222.31 1161.7 1222.31 1152.97 Q1222.31 1144.22 1225.36 1139.64 Q1228.44 1135.03 1234.25 1135.03 Z" fill="#000000" fill-rule="nonzero" fill-opacity="1" /><path clip-path="url(#clip810)" d="M1491.81 1166.28 L1499.45 1166.28 L1499.45 1139.92 L1491.14 1141.58 L1491.14 1137.33 L1499.41 1135.66 L1504.08 1135.66 L1504.08 1166.28 L1511.72 1166.28 L1511.72 1170.22 L1491.81 1170.22 L1491.81 1166.28 Z" fill="#000000" fill-rule="nonzero" fill-opacity="1" /><path clip-path="url(#clip810)" d="M1521.3 1169.5 L1521.3 1165.24 Q1523.06 1166.07 1524.87 1166.51 Q1526.68 1166.95 1528.41 1166.95 Q1533.04 1166.95 1535.47 1163.85 Q1537.93 1160.73 1538.27 1154.39 Q1536.93 1156.38 1534.87 1157.44 Q1532.81 1158.51 1530.31 1158.51 Q1525.12 1158.51 1522.09 1155.38 Q1519.08 1152.23 1519.08 1146.79 Q1519.08 1141.47 1522.23 1138.25 Q1525.38 1135.03 1530.61 1135.03 Q1536.61 1135.03 1539.75 1139.64 Q1542.93 1144.22 1542.93 1152.97 Q1542.93 1161.14 1539.04 1166.03 Q1535.17 1170.89 1528.62 1170.89 Q1526.86 1170.89 1525.05 1170.54 Q1523.25 1170.2 1521.3 1169.5 M1530.61 1154.85 Q1533.76 1154.85 1535.59 1152.7 Q1537.44 1150.54 1537.44 1146.79 Q1537.44 1143.07 1535.59 1140.91 Q1533.76 1138.74 1530.61 1138.74 Q1527.46 1138.74 1525.61 1140.91 Q1523.78 1143.07 1523.78 1146.79 Q1523.78 1150.54 1525.61 1152.7 Q1527.46 1154.85 1530.61 1154.85 Z" fill="#000000" fill-rule="nonzero" fill-opacity="1" /><path clip-path="url(#clip810)" d="M1551.47 1169.5 L1551.47 1165.24 Q1553.23 1166.07 1555.03 1166.51 Q1556.84 1166.95 1558.57 1166.95 Q1563.2 1166.95 1565.63 1163.85 Q1568.09 1160.73 1568.43 1154.39 Q1567.09 1156.38 1565.03 1157.44 Q1562.97 1158.51 1560.47 1158.51 Q1555.29 1158.51 1552.25 1155.38 Q1549.24 1152.23 1549.24 1146.79 Q1549.24 1141.47 1552.39 1138.25 Q1555.54 1135.03 1560.77 1135.03 Q1566.77 1135.03 1569.92 1139.64 Q1573.09 1144.22 1573.09 1152.97 Q1573.09 1161.14 1569.2 1166.03 Q1565.33 1170.89 1558.78 1170.89 Q1557.02 1170.89 1555.22 1170.54 Q1553.41 1170.2 1551.47 1169.5 M1560.77 1154.85 Q1563.92 1154.85 1565.75 1152.7 Q1567.6 1150.54 1567.6 1146.79 Q1567.6 1143.07 1565.75 1140.91 Q1563.92 1138.74 1560.77 1138.74 Q1557.62 1138.74 1555.77 1140.91 Q1553.94 1143.07 1553.94 1146.79 Q1553.94 1150.54 1555.77 1152.7 Q1557.62 1154.85 1560.77 1154.85 Z" fill="#000000" fill-rule="nonzero" fill-opacity="1" /><path clip-path="url(#clip810)" d="M1591.49 1138.74 Q1587.88 1138.74 1586.05 1142.3 Q1584.24 1145.84 1584.24 1152.97 Q1584.24 1160.08 1586.05 1163.64 Q1587.88 1167.19 1591.49 1167.19 Q1595.12 1167.19 1596.93 1163.64 Q1598.76 1160.08 1598.76 1152.97 Q1598.76 1145.84 1596.93 1142.3 Q1595.12 1138.74 1591.49 1138.74 M1591.49 1135.03 Q1597.3 1135.03 1600.36 1139.64 Q1603.43 1144.22 1603.43 1152.97 Q1603.43 1161.7 1600.36 1166.31 Q1597.3 1170.89 1591.49 1170.89 Q1585.68 1170.89 1582.6 1166.31 Q1579.55 1161.7 1579.55 1152.97 Q1579.55 1144.22 1582.6 1139.64 Q1585.68 1135.03 1591.49 1135.03 Z" fill="#000000" fill-rule="nonzero" fill-opacity="1" /><path clip-path="url(#clip810)" d="M1853.14 1166.28 L1869.46 1166.28 L1869.46 1170.22 L1847.51 1170.22 L1847.51 1166.28 Q1850.18 1163.53 1854.76 1158.9 Q1859.37 1154.25 1860.55 1152.9 Q1862.79 1150.38 1863.67 1148.64 Q1864.58 1146.89 1864.58 1145.2 Q1864.58 1142.44 1862.63 1140.7 Q1860.71 1138.97 1857.61 1138.97 Q1855.41 1138.97 1852.95 1139.73 Q1850.52 1140.5 1847.75 1142.05 L1847.75 1137.33 Q1850.57 1136.19 1853.02 1135.61 Q1855.48 1135.03 1857.51 1135.03 Q1862.89 1135.03 1866.08 1137.72 Q1869.27 1140.4 1869.27 1144.89 Q1869.27 1147.02 1868.46 1148.95 Q1867.68 1150.84 1865.57 1153.44 Q1864.99 1154.11 1861.89 1157.33 Q1858.79 1160.52 1853.14 1166.28 Z" fill="#000000" fill-rule="nonzero" fill-opacity="1" /><path clip-path="url(#clip810)" d="M1889.27 1138.74 Q1885.66 1138.74 1883.83 1142.3 Q1882.03 1145.84 1882.03 1152.97 Q1882.03 1160.08 1883.83 1163.64 Q1885.66 1167.19 1889.27 1167.19 Q1892.91 1167.19 1894.71 1163.64 Q1896.54 1160.08 1896.54 1152.97 Q1896.54 1145.84 1894.71 1142.3 Q1892.91 1138.74 1889.27 1138.74 M1889.27 1135.03 Q1895.08 1135.03 1898.14 1139.64 Q1901.22 1144.22 1901.22 1152.97 Q1901.22 1161.7 1898.14 1166.31 Q1895.08 1170.89 1889.27 1170.89 Q1883.46 1170.89 1880.39 1166.31 Q1877.33 1161.7 1877.33 1152.97 Q1877.33 1144.22 1880.39 1139.64 Q1883.46 1135.03 1889.27 1135.03 Z" fill="#000000" fill-rule="nonzero" fill-opacity="1" /><path clip-path="url(#clip810)" d="M1919.44 1138.74 Q1915.82 1138.74 1914 1142.3 Q1912.19 1145.84 1912.19 1152.97 Q1912.19 1160.08 1914 1163.64 Q1915.82 1167.19 1919.44 1167.19 Q1923.07 1167.19 1924.88 1163.64 Q1926.7 1160.08 1926.7 1152.97 Q1926.7 1145.84 1924.88 1142.3 Q1923.07 1138.74 1919.44 1138.74 M1919.44 1135.03 Q1925.25 1135.03 1928.3 1139.64 Q1931.38 1144.22 1931.38 1152.97 Q1931.38 1161.7 1928.3 1166.31 Q1925.25 1170.89 1919.44 1170.89 Q1913.63 1170.89 1910.55 1166.31 Q1907.49 1161.7 1907.49 1152.97 Q1907.49 1144.22 1910.55 1139.64 Q1913.63 1135.03 1919.44 1135.03 Z" fill="#000000" fill-rule="nonzero" fill-opacity="1" /><path clip-path="url(#clip810)" d="M1949.6 1138.74 Q1945.99 1138.74 1944.16 1142.3 Q1942.35 1145.84 1942.35 1152.97 Q1942.35 1160.08 1944.16 1163.64 Q1945.99 1167.19 1949.6 1167.19 Q1953.23 1167.19 1955.04 1163.64 Q1956.87 1160.08 1956.87 1152.97 Q1956.87 1145.84 1955.04 1142.3 Q1953.23 1138.74 1949.6 1138.74 M1949.6 1135.03 Q1955.41 1135.03 1958.46 1139.64 Q1961.54 1144.22 1961.54 1152.97 Q1961.54 1161.7 1958.46 1166.31 Q1955.41 1170.89 1949.6 1170.89 Q1943.79 1170.89 1940.71 1166.31 Q1937.65 1161.7 1937.65 1152.97 Q1937.65 1144.22 1940.71 1139.64 Q1943.79 1135.03 1949.6 1135.03 Z" fill="#000000" fill-rule="nonzero" fill-opacity="1" /><g clip-path="url(#clip810)">
<text style="fill:#000000; fill-opacity:1; font-family:Arial,Helvetica Neue,Helvetica,sans-serif; font-size:66px; text-anchor:middle;" transform="rotate(0, 1100.74, 1252.42)" x="1100.74" y="1252.42">year</text>
</g>
<polyline clip-path="url(#clip810)" style="stroke:#000000; stroke-linecap:round; stroke-linejoin:round; stroke-width:4; stroke-opacity:1; fill:none" points="248.721,1111.02 248.721,47.2441 "/>
<polyline clip-path="url(#clip810)" style="stroke:#000000; stroke-linecap:round; stroke-linejoin:round; stroke-width:4; stroke-opacity:1; fill:none" points="248.721,1100.04 267.619,1100.04 "/>
<polyline clip-path="url(#clip810)" style="stroke:#000000; stroke-linecap:round; stroke-linejoin:round; stroke-width:4; stroke-opacity:1; fill:none" points="248.721,944.138 267.619,944.138 "/>
<polyline clip-path="url(#clip810)" style="stroke:#000000; stroke-linecap:round; stroke-linejoin:round; stroke-width:4; stroke-opacity:1; fill:none" points="248.721,788.241 267.619,788.241 "/>
<polyline clip-path="url(#clip810)" style="stroke:#000000; stroke-linecap:round; stroke-linejoin:round; stroke-width:4; stroke-opacity:1; fill:none" points="248.721,632.344 267.619,632.344 "/>
<polyline clip-path="url(#clip810)" style="stroke:#000000; stroke-linecap:round; stroke-linejoin:round; stroke-width:4; stroke-opacity:1; fill:none" points="248.721,476.447 267.619,476.447 "/>
<polyline clip-path="url(#clip810)" style="stroke:#000000; stroke-linecap:round; stroke-linejoin:round; stroke-width:4; stroke-opacity:1; fill:none" points="248.721,320.55 267.619,320.55 "/>
<polyline clip-path="url(#clip810)" style="stroke:#000000; stroke-linecap:round; stroke-linejoin:round; stroke-width:4; stroke-opacity:1; fill:none" points="248.721,164.653 267.619,164.653 "/>
<path clip-path="url(#clip810)" d="M113.374 1100.49 L143.05 1100.49 L143.05 1104.42 L113.374 1104.42 L113.374 1100.49 Z" fill="#000000" fill-rule="nonzero" fill-opacity="1" /><path clip-path="url(#clip810)" d="M163.143 1085.83 Q159.531 1085.83 157.703 1089.4 Q155.897 1092.94 155.897 1100.07 Q155.897 1107.18 157.703 1110.74 Q159.531 1114.28 163.143 1114.28 Q166.777 1114.28 168.582 1110.74 Q170.411 1107.18 170.411 1100.07 Q170.411 1092.94 168.582 1089.4 Q166.777 1085.83 163.143 1085.83 M163.143 1082.13 Q168.953 1082.13 172.008 1086.74 Q175.087 1091.32 175.087 1100.07 Q175.087 1108.8 172.008 1113.4 Q168.953 1117.99 163.143 1117.99 Q157.332 1117.99 154.254 1113.4 Q151.198 1108.8 151.198 1100.07 Q151.198 1091.32 154.254 1086.74 Q157.332 1082.13 163.143 1082.13 Z" fill="#000000" fill-rule="nonzero" fill-opacity="1" /><path clip-path="url(#clip810)" d="M183.304 1111.44 L188.189 1111.44 L188.189 1117.32 L183.304 1117.32 L183.304 1111.44 Z" fill="#000000" fill-rule="nonzero" fill-opacity="1" /><path clip-path="url(#clip810)" d="M202.402 1113.38 L218.721 1113.38 L218.721 1117.32 L196.777 1117.32 L196.777 1113.38 Q199.439 1110.63 204.022 1106 Q208.628 1101.34 209.809 1100 Q212.054 1097.48 212.934 1095.74 Q213.837 1093.98 213.837 1092.29 Q213.837 1089.54 211.892 1087.8 Q209.971 1086.07 206.869 1086.07 Q204.67 1086.07 202.216 1086.83 Q199.786 1087.59 197.008 1089.14 L197.008 1084.42 Q199.832 1083.29 202.286 1082.71 Q204.74 1082.13 206.777 1082.13 Q212.147 1082.13 215.341 1084.82 Q218.536 1087.5 218.536 1091.99 Q218.536 1094.12 217.726 1096.04 Q216.939 1097.94 214.832 1100.53 Q214.253 1101.2 211.152 1104.42 Q208.05 1107.62 202.402 1113.38 Z" fill="#000000" fill-rule="nonzero" fill-opacity="1" /><path clip-path="url(#clip810)" d="M113.004 944.589 L142.68 944.589 L142.68 948.525 L113.004 948.525 L113.004 944.589 Z" fill="#000000" fill-rule="nonzero" fill-opacity="1" /><path clip-path="url(#clip810)" d="M162.772 929.937 Q159.161 929.937 157.332 933.502 Q155.527 937.043 155.527 944.173 Q155.527 951.279 157.332 954.844 Q159.161 958.386 162.772 958.386 Q166.406 958.386 168.212 954.844 Q170.041 951.279 170.041 944.173 Q170.041 937.043 168.212 933.502 Q166.406 929.937 162.772 929.937 M162.772 926.233 Q168.582 926.233 171.638 930.84 Q174.717 935.423 174.717 944.173 Q174.717 952.9 171.638 957.506 Q168.582 962.089 162.772 962.089 Q156.962 962.089 153.883 957.506 Q150.828 952.9 150.828 944.173 Q150.828 935.423 153.883 930.84 Q156.962 926.233 162.772 926.233 Z" fill="#000000" fill-rule="nonzero" fill-opacity="1" /><path clip-path="url(#clip810)" d="M182.934 955.538 L187.818 955.538 L187.818 961.418 L182.934 961.418 L182.934 955.538 Z" fill="#000000" fill-rule="nonzero" fill-opacity="1" /><path clip-path="url(#clip810)" d="M198.814 957.483 L206.452 957.483 L206.452 931.117 L198.142 932.784 L198.142 928.525 L206.406 926.858 L211.082 926.858 L211.082 957.483 L218.721 957.483 L218.721 961.418 L198.814 961.418 L198.814 957.483 Z" fill="#000000" fill-rule="nonzero" fill-opacity="1" /><path clip-path="url(#clip810)" d="M161.545 774.04 Q157.934 774.04 156.106 777.605 Q154.3 781.146 154.3 788.276 Q154.3 795.382 156.106 798.947 Q157.934 802.489 161.545 802.489 Q165.18 802.489 166.985 798.947 Q168.814 795.382 168.814 788.276 Q168.814 781.146 166.985 777.605 Q165.18 774.04 161.545 774.04 M161.545 770.336 Q167.355 770.336 170.411 774.943 Q173.49 779.526 173.49 788.276 Q173.49 797.003 170.411 801.609 Q167.355 806.192 161.545 806.192 Q155.735 806.192 152.656 801.609 Q149.601 797.003 149.601 788.276 Q149.601 779.526 152.656 774.943 Q155.735 770.336 161.545 770.336 Z" fill="#000000" fill-rule="nonzero" fill-opacity="1" /><path clip-path="url(#clip810)" d="M181.707 799.641 L186.591 799.641 L186.591 805.521 L181.707 805.521 L181.707 799.641 Z" fill="#000000" fill-rule="nonzero" fill-opacity="1" /><path clip-path="url(#clip810)" d="M206.777 774.04 Q203.165 774.04 201.337 777.605 Q199.531 781.146 199.531 788.276 Q199.531 795.382 201.337 798.947 Q203.165 802.489 206.777 802.489 Q210.411 802.489 212.216 798.947 Q214.045 795.382 214.045 788.276 Q214.045 781.146 212.216 777.605 Q210.411 774.04 206.777 774.04 M206.777 770.336 Q212.587 770.336 215.642 774.943 Q218.721 779.526 218.721 788.276 Q218.721 797.003 215.642 801.609 Q212.587 806.192 206.777 806.192 Q200.966 806.192 197.888 801.609 Q194.832 797.003 194.832 788.276 Q194.832 779.526 197.888 774.943 Q200.966 770.336 206.777 770.336 Z" fill="#000000" fill-rule="nonzero" fill-opacity="1" /><path clip-path="url(#clip810)" d="M162.772 618.143 Q159.161 618.143 157.332 621.708 Q155.527 625.249 155.527 632.379 Q155.527 639.485 157.332 643.05 Q159.161 646.592 162.772 646.592 Q166.406 646.592 168.212 643.05 Q170.041 639.485 170.041 632.379 Q170.041 625.249 168.212 621.708 Q166.406 618.143 162.772 618.143 M162.772 614.439 Q168.582 614.439 171.638 619.046 Q174.717 623.629 174.717 632.379 Q174.717 641.106 171.638 645.712 Q168.582 650.295 162.772 650.295 Q156.962 650.295 153.883 645.712 Q150.828 641.106 150.828 632.379 Q150.828 623.629 153.883 619.046 Q156.962 614.439 162.772 614.439 Z" fill="#000000" fill-rule="nonzero" fill-opacity="1" /><path clip-path="url(#clip810)" d="M182.934 643.745 L187.818 643.745 L187.818 649.624 L182.934 649.624 L182.934 643.745 Z" fill="#000000" fill-rule="nonzero" fill-opacity="1" /><path clip-path="url(#clip810)" d="M198.814 645.689 L206.452 645.689 L206.452 619.323 L198.142 620.99 L198.142 616.731 L206.406 615.064 L211.082 615.064 L211.082 645.689 L218.721 645.689 L218.721 649.624 L198.814 649.624 L198.814 645.689 Z" fill="#000000" fill-rule="nonzero" fill-opacity="1" /><path clip-path="url(#clip810)" d="M163.143 462.246 Q159.531 462.246 157.703 465.811 Q155.897 469.352 155.897 476.482 Q155.897 483.588 157.703 487.153 Q159.531 490.695 163.143 490.695 Q166.777 490.695 168.582 487.153 Q170.411 483.588 170.411 476.482 Q170.411 469.352 168.582 465.811 Q166.777 462.246 163.143 462.246 M163.143 458.542 Q168.953 458.542 172.008 463.149 Q175.087 467.732 175.087 476.482 Q175.087 485.209 172.008 489.815 Q168.953 494.398 163.143 494.398 Q157.332 494.398 154.254 489.815 Q151.198 485.209 151.198 476.482 Q151.198 467.732 154.254 463.149 Q157.332 458.542 163.143 458.542 Z" fill="#000000" fill-rule="nonzero" fill-opacity="1" /><path clip-path="url(#clip810)" d="M183.304 487.848 L188.189 487.848 L188.189 493.727 L183.304 493.727 L183.304 487.848 Z" fill="#000000" fill-rule="nonzero" fill-opacity="1" /><path clip-path="url(#clip810)" d="M202.402 489.792 L218.721 489.792 L218.721 493.727 L196.777 493.727 L196.777 489.792 Q199.439 487.037 204.022 482.408 Q208.628 477.755 209.809 476.412 Q212.054 473.889 212.934 472.153 Q213.837 470.394 213.837 468.704 Q213.837 465.95 211.892 464.213 Q209.971 462.477 206.869 462.477 Q204.67 462.477 202.216 463.241 Q199.786 464.005 197.008 465.556 L197.008 460.834 Q199.832 459.7 202.286 459.121 Q204.74 458.542 206.777 458.542 Q212.147 458.542 215.341 461.227 Q218.536 463.912 218.536 468.403 Q218.536 470.533 217.726 472.454 Q216.939 474.352 214.832 476.945 Q214.253 477.616 211.152 480.834 Q208.05 484.028 202.402 489.792 Z" fill="#000000" fill-rule="nonzero" fill-opacity="1" /><path clip-path="url(#clip810)" d="M162.193 306.349 Q158.582 306.349 156.754 309.914 Q154.948 313.455 154.948 320.585 Q154.948 327.691 156.754 331.256 Q158.582 334.798 162.193 334.798 Q165.828 334.798 167.633 331.256 Q169.462 327.691 169.462 320.585 Q169.462 313.455 167.633 309.914 Q165.828 306.349 162.193 306.349 M162.193 302.645 Q168.004 302.645 171.059 307.252 Q174.138 311.835 174.138 320.585 Q174.138 329.312 171.059 333.918 Q168.004 338.501 162.193 338.501 Q156.383 338.501 153.305 333.918 Q150.249 329.312 150.249 320.585 Q150.249 311.835 153.305 307.252 Q156.383 302.645 162.193 302.645 Z" fill="#000000" fill-rule="nonzero" fill-opacity="1" /><path clip-path="url(#clip810)" d="M182.355 331.951 L187.24 331.951 L187.24 337.83 L182.355 337.83 L182.355 331.951 Z" fill="#000000" fill-rule="nonzero" fill-opacity="1" /><path clip-path="url(#clip810)" d="M211.591 319.196 Q214.948 319.914 216.823 322.182 Q218.721 324.451 218.721 327.784 Q218.721 332.9 215.202 335.701 Q211.684 338.501 205.202 338.501 Q203.027 338.501 200.712 338.062 Q198.42 337.645 195.966 336.789 L195.966 332.275 Q197.911 333.409 200.226 333.988 Q202.54 334.566 205.064 334.566 Q209.462 334.566 211.753 332.83 Q214.068 331.094 214.068 327.784 Q214.068 324.728 211.915 323.015 Q209.786 321.279 205.966 321.279 L201.939 321.279 L201.939 317.437 L206.152 317.437 Q209.601 317.437 211.429 316.071 Q213.258 314.682 213.258 312.09 Q213.258 309.428 211.36 308.016 Q209.485 306.58 205.966 306.58 Q204.045 306.58 201.846 306.997 Q199.647 307.414 197.008 308.293 L197.008 304.127 Q199.67 303.386 201.985 303.016 Q204.323 302.645 206.383 302.645 Q211.707 302.645 214.809 305.076 Q217.911 307.483 217.911 311.603 Q217.911 314.474 216.267 316.465 Q214.624 318.432 211.591 319.196 Z" fill="#000000" fill-rule="nonzero" fill-opacity="1" /><path clip-path="url(#clip810)" d="M161.059 150.452 Q157.448 150.452 155.619 154.017 Q153.814 157.558 153.814 164.688 Q153.814 171.794 155.619 175.359 Q157.448 178.901 161.059 178.901 Q164.693 178.901 166.499 175.359 Q168.328 171.794 168.328 164.688 Q168.328 157.558 166.499 154.017 Q164.693 150.452 161.059 150.452 M161.059 146.748 Q166.869 146.748 169.925 151.355 Q173.004 155.938 173.004 164.688 Q173.004 173.415 169.925 178.021 Q166.869 182.605 161.059 182.605 Q155.249 182.605 152.17 178.021 Q149.115 173.415 149.115 164.688 Q149.115 155.938 152.17 151.355 Q155.249 146.748 161.059 146.748 Z" fill="#000000" fill-rule="nonzero" fill-opacity="1" /><path clip-path="url(#clip810)" d="M181.221 176.054 L186.105 176.054 L186.105 181.933 L181.221 181.933 L181.221 176.054 Z" fill="#000000" fill-rule="nonzero" fill-opacity="1" /><path clip-path="url(#clip810)" d="M209.138 151.447 L197.332 169.896 L209.138 169.896 L209.138 151.447 M207.911 147.373 L213.79 147.373 L213.79 169.896 L218.721 169.896 L218.721 173.785 L213.79 173.785 L213.79 181.933 L209.138 181.933 L209.138 173.785 L193.536 173.785 L193.536 169.271 L207.911 147.373 Z" fill="#000000" fill-rule="nonzero" fill-opacity="1" /><g clip-path="url(#clip810)">
<text style="fill:#000000; fill-opacity:1; font-family:Arial,Helvetica Neue,Helvetica,sans-serif; font-size:66px; text-anchor:middle;" transform="rotate(-90, 71.4418, 579.131)" x="71.4418" y="579.131">anomaly (degrees C)</text>
</g>
<circle clip-path="url(#clip812)" cx="296.948" cy="863.072" r="10.8" fill="#009af9" fill-rule="evenodd" fill-opacity="1" stroke="#000000" stroke-opacity="1" stroke-width="2.56"/>
<circle clip-path="url(#clip812)" cx="475.568" cy="816.303" r="10.8" fill="#009af9" fill-rule="evenodd" fill-opacity="1" stroke="#000000" stroke-opacity="1" stroke-width="2.56"/>
<circle clip-path="url(#clip812)" cx="654.188" cy="844.364" r="10.8" fill="#009af9" fill-rule="evenodd" fill-opacity="1" stroke="#000000" stroke-opacity="1" stroke-width="2.56"/>
<circle clip-path="url(#clip812)" cx="832.808" cy="806.949" r="10.8" fill="#009af9" fill-rule="evenodd" fill-opacity="1" stroke="#000000" stroke-opacity="1" stroke-width="2.56"/>
<circle clip-path="url(#clip812)" cx="1011.43" cy="794.477" r="10.8" fill="#009af9" fill-rule="evenodd" fill-opacity="1" stroke="#000000" stroke-opacity="1" stroke-width="2.56"/>
<circle clip-path="url(#clip812)" cx="1190.05" cy="604.283" r="10.8" fill="#009af9" fill-rule="evenodd" fill-opacity="1" stroke="#000000" stroke-opacity="1" stroke-width="2.56"/>
<circle clip-path="url(#clip812)" cx="1368.67" cy="460.857" r="10.8" fill="#009af9" fill-rule="evenodd" fill-opacity="1" stroke="#000000" stroke-opacity="1" stroke-width="2.56"/>
<circle clip-path="url(#clip812)" cx="1547.29" cy="270.663" r="10.8" fill="#009af9" fill-rule="evenodd" fill-opacity="1" stroke="#000000" stroke-opacity="1" stroke-width="2.56"/>
<circle clip-path="url(#clip812)" cx="1725.91" cy="267.545" r="10.8" fill="#009af9" fill-rule="evenodd" fill-opacity="1" stroke="#000000" stroke-opacity="1" stroke-width="2.56"/>
<circle clip-path="url(#clip812)" cx="1904.53" cy="77.3509" r="10.8" fill="#009af9" fill-rule="evenodd" fill-opacity="1" stroke="#000000" stroke-opacity="1" stroke-width="2.56"/>
<polyline clip-path="url(#clip812)" style="stroke:#e26f46; stroke-linecap:round; stroke-linejoin:round; stroke-width:8; stroke-opacity:1; fill:none" points="296.948,1080.91 313.545,1072.46 410.747,1022.96 455.965,999.927 516.575,969.059 566.657,943.553 613.229,919.835 671.692,890.061 724.134,863.353 784.161,832.782 829.031,809.931 886.421,780.703 938.8,754.027 998.415,723.666 1045.67,699.599 1104.38,669.698 1149.35,646.798 1212.74,614.513 1260.11,590.388 1313.99,562.951 1367.34,535.78 1426.04,505.886 1470.87,483.052 1527.45,454.238 1579.78,427.588 1633.74,400.104 1688.45,372.245 1745.57,343.154 1790.56,320.239 1893.03,268.053 1904.53,262.197 "/>
<path clip-path="url(#clip810)" d="M1533.54 1075.56 L1895.95 1075.56 L1895.95 920.039 L1533.54 920.039  Z" fill="#ffffff" fill-rule="evenodd" fill-opacity="1"/>
<polyline clip-path="url(#clip810)" style="stroke:#000000; stroke-linecap:round; stroke-linejoin:round; stroke-width:4; stroke-opacity:1; fill:none" points="1533.54,1075.56 1895.95,1075.56 1895.95,920.039 1533.54,920.039 1533.54,1075.56 "/>
<circle clip-path="url(#clip810)" cx="1609.27" cy="971.879" r="19.7486" fill="#009af9" fill-rule="evenodd" fill-opacity="1" stroke="#000000" stroke-opacity="1" stroke-width="4.68114"/>
<path clip-path="url(#clip810)" d="M1703.92 967.169 L1703.92 953.141 L1708.18 953.141 L1708.18 989.159 L1703.92 989.159 L1703.92 985.27 Q1702.58 987.585 1700.52 988.72 Q1698.48 989.831 1695.61 989.831 Q1690.91 989.831 1687.95 986.081 Q1685.01 982.331 1685.01 976.22 Q1685.01 970.109 1687.95 966.359 Q1690.91 962.609 1695.61 962.609 Q1698.48 962.609 1700.52 963.743 Q1702.58 964.854 1703.92 967.169 M1689.41 976.22 Q1689.41 980.919 1691.33 983.604 Q1693.27 986.266 1696.65 986.266 Q1700.03 986.266 1701.98 983.604 Q1703.92 980.919 1703.92 976.22 Q1703.92 971.521 1701.98 968.859 Q1700.03 966.173 1696.65 966.173 Q1693.27 966.173 1691.33 968.859 Q1689.41 971.521 1689.41 976.22 Z" fill="#000000" fill-rule="nonzero" fill-opacity="1" /><path clip-path="url(#clip810)" d="M1728.73 976.127 Q1723.57 976.127 1721.58 977.308 Q1719.59 978.488 1719.59 981.335 Q1719.59 983.604 1721.07 984.946 Q1722.58 986.266 1725.15 986.266 Q1728.69 986.266 1730.82 983.766 Q1732.97 981.243 1732.97 977.076 L1732.97 976.127 L1728.73 976.127 M1737.23 974.368 L1737.23 989.159 L1732.97 989.159 L1732.97 985.224 Q1731.51 987.585 1729.34 988.72 Q1727.16 989.831 1724.01 989.831 Q1720.03 989.831 1717.67 987.608 Q1715.33 985.363 1715.33 981.613 Q1715.33 977.238 1718.25 975.016 Q1721.19 972.794 1727 972.794 L1732.97 972.794 L1732.97 972.377 Q1732.97 969.437 1731.03 967.84 Q1729.11 966.22 1725.61 966.22 Q1723.39 966.22 1721.28 966.752 Q1719.17 967.284 1717.23 968.349 L1717.23 964.414 Q1719.57 963.511 1721.77 963.072 Q1723.97 962.609 1726.05 962.609 Q1731.67 962.609 1734.45 965.525 Q1737.23 968.442 1737.23 974.368 Z" fill="#000000" fill-rule="nonzero" fill-opacity="1" /><path clip-path="url(#clip810)" d="M1750.22 955.872 L1750.22 963.234 L1758.99 963.234 L1758.99 966.544 L1750.22 966.544 L1750.22 980.618 Q1750.22 983.789 1751.07 984.692 Q1751.95 985.595 1754.61 985.595 L1758.99 985.595 L1758.99 989.159 L1754.61 989.159 Q1749.68 989.159 1747.81 987.331 Q1745.93 985.479 1745.93 980.618 L1745.93 966.544 L1742.81 966.544 L1742.81 963.234 L1745.93 963.234 L1745.93 955.872 L1750.22 955.872 Z" fill="#000000" fill-rule="nonzero" fill-opacity="1" /><path clip-path="url(#clip810)" d="M1776.37 976.127 Q1771.21 976.127 1769.22 977.308 Q1767.23 978.488 1767.23 981.335 Q1767.23 983.604 1768.71 984.946 Q1770.22 986.266 1772.79 986.266 Q1776.33 986.266 1778.46 983.766 Q1780.61 981.243 1780.61 977.076 L1780.61 976.127 L1776.37 976.127 M1784.87 974.368 L1784.87 989.159 L1780.61 989.159 L1780.61 985.224 Q1779.15 987.585 1776.98 988.72 Q1774.8 989.831 1771.65 989.831 Q1767.67 989.831 1765.31 987.608 Q1762.97 985.363 1762.97 981.613 Q1762.97 977.238 1765.89 975.016 Q1768.83 972.794 1774.64 972.794 L1780.61 972.794 L1780.61 972.377 Q1780.61 969.437 1778.67 967.84 Q1776.74 966.22 1773.25 966.22 Q1771.03 966.22 1768.92 966.752 Q1766.81 967.284 1764.87 968.349 L1764.87 964.414 Q1767.21 963.511 1769.41 963.072 Q1771.6 962.609 1773.69 962.609 Q1779.31 962.609 1782.09 965.525 Q1784.87 968.442 1784.87 974.368 Z" fill="#000000" fill-rule="nonzero" fill-opacity="1" /><polyline clip-path="url(#clip810)" style="stroke:#e26f46; stroke-linecap:round; stroke-linejoin:round; stroke-width:8; stroke-opacity:1; fill:none" points="1552.47,1023.72 1666.07,1023.72 "/>
<path clip-path="url(#clip810)" d="M1685.01 1004.98 L1689.27 1004.98 L1689.27 1041 L1685.01 1041 L1685.01 1004.98 Z" fill="#000000" fill-rule="nonzero" fill-opacity="1" /><path clip-path="url(#clip810)" d="M1698.18 1015.07 L1702.44 1015.07 L1702.44 1041 L1698.18 1041 L1698.18 1015.07 M1698.18 1004.98 L1702.44 1004.98 L1702.44 1010.37 L1698.18 1010.37 L1698.18 1004.98 Z" fill="#000000" fill-rule="nonzero" fill-opacity="1" /><path clip-path="url(#clip810)" d="M1732.9 1025.35 L1732.9 1041 L1728.64 1041 L1728.64 1025.49 Q1728.64 1021.81 1727.21 1019.98 Q1725.77 1018.15 1722.9 1018.15 Q1719.45 1018.15 1717.46 1020.35 Q1715.47 1022.55 1715.47 1026.35 L1715.47 1041 L1711.19 1041 L1711.19 1015.07 L1715.47 1015.07 L1715.47 1019.1 Q1717 1016.76 1719.06 1015.61 Q1721.14 1014.45 1723.85 1014.45 Q1728.32 1014.45 1730.61 1017.23 Q1732.9 1019.98 1732.9 1025.35 Z" fill="#000000" fill-rule="nonzero" fill-opacity="1" /><path clip-path="url(#clip810)" d="M1763.57 1026.97 L1763.57 1029.05 L1743.99 1029.05 Q1744.27 1033.45 1746.63 1035.77 Q1749.01 1038.06 1753.25 1038.06 Q1755.7 1038.06 1757.99 1037.46 Q1760.31 1036.86 1762.58 1035.65 L1762.58 1039.68 Q1760.29 1040.65 1757.88 1041.16 Q1755.47 1041.67 1752.99 1041.67 Q1746.79 1041.67 1743.16 1038.06 Q1739.54 1034.45 1739.54 1028.29 Q1739.54 1021.93 1742.97 1018.2 Q1746.42 1014.45 1752.25 1014.45 Q1757.48 1014.45 1760.52 1017.83 Q1763.57 1021.18 1763.57 1026.97 M1759.31 1025.72 Q1759.27 1022.23 1757.35 1020.14 Q1755.45 1018.06 1752.3 1018.06 Q1748.73 1018.06 1746.58 1020.07 Q1744.45 1022.09 1744.13 1025.74 L1759.31 1025.72 Z" fill="#000000" fill-rule="nonzero" fill-opacity="1" /><path clip-path="url(#clip810)" d="M1782.35 1027.97 Q1777.18 1027.97 1775.19 1029.15 Q1773.2 1030.33 1773.2 1033.18 Q1773.2 1035.44 1774.68 1036.79 Q1776.19 1038.11 1778.76 1038.11 Q1782.3 1038.11 1784.43 1035.61 Q1786.58 1033.08 1786.58 1028.92 L1786.58 1027.97 L1782.35 1027.97 M1790.84 1026.21 L1790.84 1041 L1786.58 1041 L1786.58 1037.06 Q1785.12 1039.43 1782.95 1040.56 Q1780.77 1041.67 1777.62 1041.67 Q1773.64 1041.67 1771.28 1039.45 Q1768.94 1037.2 1768.94 1033.45 Q1768.94 1029.08 1771.86 1026.86 Q1774.8 1024.63 1780.61 1024.63 L1786.58 1024.63 L1786.58 1024.22 Q1786.58 1021.28 1784.64 1019.68 Q1782.72 1018.06 1779.22 1018.06 Q1777 1018.06 1774.89 1018.59 Q1772.79 1019.12 1770.84 1020.19 L1770.84 1016.25 Q1773.18 1015.35 1775.38 1014.91 Q1777.58 1014.45 1779.66 1014.45 Q1785.29 1014.45 1788.06 1017.37 Q1790.84 1020.28 1790.84 1026.21 Z" fill="#000000" fill-rule="nonzero" fill-opacity="1" /><path clip-path="url(#clip810)" d="M1814.64 1019.06 Q1813.92 1018.64 1813.06 1018.45 Q1812.23 1018.24 1811.21 1018.24 Q1807.6 1018.24 1805.66 1020.61 Q1803.73 1022.94 1803.73 1027.34 L1803.73 1041 L1799.45 1041 L1799.45 1015.07 L1803.73 1015.07 L1803.73 1019.1 Q1805.08 1016.74 1807.23 1015.61 Q1809.38 1014.45 1812.46 1014.45 Q1812.9 1014.45 1813.43 1014.52 Q1813.97 1014.56 1814.61 1014.68 L1814.64 1019.06 Z" fill="#000000" fill-rule="nonzero" fill-opacity="1" /><path clip-path="url(#clip810)" d="M1847.3 1004.98 L1847.3 1008.52 L1843.22 1008.52 Q1840.93 1008.52 1840.03 1009.45 Q1839.15 1010.37 1839.15 1012.78 L1839.15 1015.07 L1846.16 1015.07 L1846.16 1018.38 L1839.15 1018.38 L1839.15 1041 L1834.87 1041 L1834.87 1018.38 L1830.79 1018.38 L1830.79 1015.07 L1834.87 1015.07 L1834.87 1013.27 Q1834.87 1008.94 1836.88 1006.97 Q1838.9 1004.98 1843.27 1004.98 L1847.3 1004.98 Z" fill="#000000" fill-rule="nonzero" fill-opacity="1" /><path clip-path="url(#clip810)" d="M1850.86 1015.07 L1855.12 1015.07 L1855.12 1041 L1850.86 1041 L1850.86 1015.07 M1850.86 1004.98 L1855.12 1004.98 L1855.12 1010.37 L1850.86 1010.37 L1850.86 1004.98 Z" fill="#000000" fill-rule="nonzero" fill-opacity="1" /><path clip-path="url(#clip810)" d="M1868.25 1007.71 L1868.25 1015.07 L1877.02 1015.07 L1877.02 1018.38 L1868.25 1018.38 L1868.25 1032.46 Q1868.25 1035.63 1869.1 1036.53 Q1869.98 1037.43 1872.65 1037.43 L1877.02 1037.43 L1877.02 1041 L1872.65 1041 Q1867.72 1041 1865.84 1039.17 Q1863.97 1037.32 1863.97 1032.46 L1863.97 1018.38 L1860.84 1018.38 L1860.84 1015.07 L1863.97 1015.07 L1863.97 1007.71 L1868.25 1007.71 Z" fill="#000000" fill-rule="nonzero" fill-opacity="1" /></svg>
