<?xml version="1.0" encoding="utf-8"?>
<svg xmlns="http://www.w3.org/2000/svg" xmlns:xlink="http://www.w3.org/1999/xlink" width="500" height="320" viewBox="0 0 2000 1280">
<defs>
  <clipPath id="clip650">
    <rect x="0" y="0" width="2000" height="1280"/>
  </clipPath>
</defs>
<path clip-path="url(#clip650)" d="M0 1280 L2000 1280 L2000 0 L0 0  Z" fill="#ffffff" fill-rule="evenodd" fill-opacity="1"/>
<defs>
  <clipPath id="clip651">
    <rect x="400" y="0" width="1401" height="1280"/>
  </clipPath>
</defs>
<path clip-path="url(#clip650)" d="M269.619 1099.23 L1952.76 1099.23 L1952.76 107.256 L269.619 107.256  Z" fill="#ffffff" fill-rule="evenodd" fill-opacity="1"/>
<defs>
  <clipPath id="clip652">
    <rect x="269" y="107" width="1684" height="993"/>
  </clipPath>
</defs>
<polyline clip-path="url(#clip652)" style="stroke:#000000; stroke-linecap:round; stroke-linejoin:round; stroke-width:2; stroke-opacity:0.1; fill:none" points="379.667,1099.23 379.667,107.256 "/>
<polyline clip-path="url(#clip652)" style="stroke:#000000; stroke-linecap:round; stroke-linejoin:round; stroke-width:2; stroke-opacity:0.1; fill:none" points="1023.68,1099.23 1023.68,107.256 "/>
<polyline clip-path="url(#clip652)" style="stroke:#000000; stroke-linecap:round; stroke-linejoin:round; stroke-width:2; stroke-opacity:0.1; fill:none" points="1667.7,1099.23 1667.7,107.256 "/>
<polyline clip-path="url(#clip652)" style="stroke:#000000; stroke-linecap:round; stroke-linejoin:round; stroke-width:2; stroke-opacity:0.1; fill:none" points="269.619,727.238 1952.76,727.238 "/>
<polyline clip-path="url(#clip652)" style="stroke:#000000; stroke-linecap:round; stroke-linejoin:round; stroke-width:2; stroke-opacity:0.1; fill:none" points="269.619,107.256 1952.76,107.256 "/>
<polyline clip-path="url(#clip650)" style="stroke:#000000; stroke-linecap:round; stroke-linejoin:round; stroke-width:4; stroke-opacity:1; fill:none" points="269.619,1099.23 1952.76,1099.23 "/>
<polyline clip-path="url(#clip650)" style="stroke:#000000; stroke-linecap:round; stroke-linejoin:round; stroke-width:4; stroke-opacity:1; fill:none" points="379.667,1099.23 379.667,1080.33 "/>
<polyline clip-path="url(#clip650)" style="stroke:#000000; stroke-linecap:round; stroke-linejoin:round; stroke-width:4; stroke-opacity:1; fill:none" points="1023.68,1099.23 1023.68,1080.33 "/>
<polyline clip-path="url(#clip650)" style="stroke:#000000; stroke-linecap:round; stroke-linejoin:round; stroke-width:4; stroke-opacity:1; fill:none" points="1667.7,1099.23 1667.7,1080.33 "/>
<path clip-path="url(#clip650)" d="M345.994 1170.15 L353.633 1170.15 L353.633 1143.79 L345.323 1145.45 L345.323 1141.19 L353.587 1139.53 L358.263 1139.53 L358.263 1170.15 L365.902 1170.15 L365.902 1174.09 L345.994 1174.09 L345.994 1170.15 Z" fill="#000000" fill-rule="nonzero" fill-opacity="1" /><path clip-path="url(#clip650)" d="M385.346 1142.61 Q381.735 1142.61 379.906 1146.17 Q378.101 1149.71 378.101 1156.84 Q378.101 1163.95 379.906 1167.51 Q381.735 1171.05 385.346 1171.05 Q388.98 1171.05 390.786 1167.51 Q392.614 1163.95 392.614 1156.84 Q392.614 1149.71 390.786 1146.17 Q388.98 1142.61 385.346 1142.61 M385.346 1138.9 Q391.156 1138.9 394.212 1143.51 Q397.29 1148.09 397.29 1156.84 Q397.29 1165.57 394.212 1170.17 Q391.156 1174.76 385.346 1174.76 Q379.536 1174.76 376.457 1170.17 Q373.402 1165.57 373.402 1156.84 Q373.402 1148.09 376.457 1143.51 Q379.536 1138.9 385.346 1138.9 Z" fill="#000000" fill-rule="nonzero" fill-opacity="1" /><path clip-path="url(#clip650)" d="M397.836 1143.48 L404.042 1143.48 L404.042 1122.06 L397.29 1123.41 L397.29 1119.95 L404.005 1118.6 L407.804 1118.6 L407.804 1143.48 L414.01 1143.48 L414.01 1146.68 L397.836 1146.68 L397.836 1143.48 Z" fill="#000000" fill-rule="nonzero" fill-opacity="1" /><path clip-path="url(#clip650)" d="M989.455 1170.15 L997.094 1170.15 L997.094 1143.79 L988.784 1145.45 L988.784 1141.19 L997.048 1139.53 L1001.72 1139.53 L1001.72 1170.15 L1009.36 1170.15 L1009.36 1174.09 L989.455 1174.09 L989.455 1170.15 Z" fill="#000000" fill-rule="nonzero" fill-opacity="1" /><path clip-path="url(#clip650)" d="M1028.81 1142.61 Q1025.2 1142.61 1023.37 1146.17 Q1021.56 1149.71 1021.56 1156.84 Q1021.56 1163.95 1023.37 1167.51 Q1025.2 1171.05 1028.81 1171.05 Q1032.44 1171.05 1034.25 1167.51 Q1036.08 1163.95 1036.08 1156.84 Q1036.08 1149.71 1034.25 1146.17 Q1032.44 1142.61 1028.81 1142.61 M1028.81 1138.9 Q1034.62 1138.9 1037.67 1143.51 Q1040.75 1148.09 1040.75 1156.84 Q1040.75 1165.57 1037.67 1170.17 Q1034.62 1174.76 1028.81 1174.76 Q1023 1174.76 1019.92 1170.17 Q1016.86 1165.57 1016.86 1156.84 Q1016.86 1148.09 1019.92 1143.51 Q1023 1138.9 1028.81 1138.9 Z" fill="#000000" fill-rule="nonzero" fill-opacity="1" /><path clip-path="url(#clip650)" d="M1045.32 1143.48 L1058.58 1143.48 L1058.58 1146.68 L1040.75 1146.68 L1040.75 1143.48 Q1042.91 1141.24 1046.64 1137.48 Q1050.38 1133.7 1051.34 1132.61 Q1053.16 1130.56 1053.88 1129.15 Q1054.61 1127.72 1054.61 1126.35 Q1054.61 1124.11 1053.03 1122.7 Q1051.47 1121.29 1048.95 1121.29 Q1047.16 1121.29 1045.17 1121.91 Q1043.2 1122.53 1040.94 1123.79 L1040.94 1119.95 Q1043.23 1119.03 1045.23 1118.56 Q1047.22 1118.09 1048.88 1118.09 Q1053.24 1118.09 1055.83 1120.27 Q1058.43 1122.45 1058.43 1126.1 Q1058.43 1127.83 1057.77 1129.39 Q1057.13 1130.93 1055.42 1133.04 Q1054.95 1133.59 1052.43 1136.2 Q1049.91 1138.8 1045.32 1143.48 Z" fill="#000000" fill-rule="nonzero" fill-opacity="1" /><path clip-path="url(#clip650)" d="M1633.14 1170.15 L1640.78 1170.15 L1640.78 1143.79 L1632.47 1145.45 L1632.47 1141.19 L1640.73 1139.53 L1645.41 1139.53 L1645.41 1170.15 L1653.05 1170.15 L1653.05 1174.09 L1633.14 1174.09 L1633.14 1170.15 Z" fill="#000000" fill-rule="nonzero" fill-opacity="1" /><path clip-path="url(#clip650)" d="M1672.49 1142.61 Q1668.88 1142.61 1667.05 1146.17 Q1665.25 1149.71 1665.25 1156.84 Q1665.25 1163.95 1667.05 1167.51 Q1668.88 1171.05 1672.49 1171.05 Q1676.13 1171.05 1677.93 1167.51 Q1679.76 1163.95 1679.76 1156.84 Q1679.76 1149.71 1677.93 1146.17 Q1676.13 1142.61 1672.49 1142.61 M1672.49 1138.9 Q1678.3 1138.9 1681.36 1143.51 Q1684.44 1148.09 1684.44 1156.84 Q1684.44 1165.57 1681.36 1170.17 Q1678.3 1174.76 1672.49 1174.76 Q1666.68 1174.76 1663.6 1170.17 Q1660.55 1165.57 1660.55 1156.84 Q1660.55 1148.09 1663.6 1143.51 Q1666.68 1138.9 1672.49 1138.9 Z" fill="#000000" fill-rule="nonzero" fill-opacity="1" /><path clip-path="url(#clip650)" d="M1697.13 1131.54 Q1699.86 1132.12 1701.38 1133.96 Q1702.93 1135.81 1702.93 1138.51 Q1702.93 1142.67 1700.07 1144.95 Q1697.21 1147.22 1691.94 1147.22 Q1690.17 1147.22 1688.29 1146.86 Q1686.43 1146.53 1684.44 1145.83 L1684.44 1142.16 Q1686.02 1143.08 1687.9 1143.55 Q1689.78 1144.02 1691.83 1144.02 Q1695.4 1144.02 1697.26 1142.61 Q1699.15 1141.2 1699.15 1138.51 Q1699.15 1136.03 1697.4 1134.64 Q1695.67 1133.23 1692.56 1133.23 L1689.29 1133.23 L1689.29 1130.11 L1692.71 1130.11 Q1695.52 1130.11 1697 1129 Q1698.49 1127.87 1698.49 1125.76 Q1698.49 1123.6 1696.94 1122.45 Q1695.42 1121.29 1692.56 1121.29 Q1691 1121.29 1689.21 1121.62 Q1687.43 1121.96 1685.28 1122.68 L1685.28 1119.29 Q1687.45 1118.69 1689.33 1118.39 Q1691.23 1118.09 1692.9 1118.09 Q1697.23 1118.09 1699.75 1120.06 Q1702.27 1122.02 1702.27 1125.37 Q1702.27 1127.7 1700.93 1129.32 Q1699.6 1130.92 1697.13 1131.54 Z" fill="#000000" fill-rule="nonzero" fill-opacity="1" /><g clip-path="url(#clip650)">
<text style="fill:#000000; fill-opacity:1; font-family:Arial,Helvetica Neue,Helvetica,sans-serif; font-size:66px; text-anchor:middle;" transform="rotate(0, 1111.19, 1259.05)" x="1111.19" y="1259.05">number of nodes</text>
</g>
<polyline clip-path="url(#clip650)" style="stroke:#000000; stroke-linecap:round; stroke-linejoin:round; stroke-width:4; stroke-opacity:1; fill:none" points="269.619,1099.23 269.619,107.256 "/>
<polyline clip-path="url(#clip650)" style="stroke:#000000; stroke-linecap:round; stroke-linejoin:round; stroke-width:4; stroke-opacity:1; fill:none" points="269.619,727.238 288.517,727.238 "/>
<polyline clip-path="url(#clip650)" style="stroke:#000000; stroke-linecap:round; stroke-linejoin:round; stroke-width:4; stroke-opacity:1; fill:none" points="269.619,107.256 288.517,107.256 "/>
<path clip-path="url(#clip650)" d="M113.675 747.03 L121.314 747.03 L121.314 720.664 L113.004 722.331 L113.004 718.072 L121.268 716.405 L125.944 716.405 L125.944 747.03 L133.583 747.03 L133.583 750.965 L113.675 750.965 L113.675 747.03 Z" fill="#000000" fill-rule="nonzero" fill-opacity="1" /><path clip-path="url(#clip650)" d="M153.027 719.484 Q149.416 719.484 147.587 723.049 Q145.782 726.59 145.782 733.72 Q145.782 740.826 147.587 744.391 Q149.416 747.933 153.027 747.933 Q156.661 747.933 158.467 744.391 Q160.295 740.826 160.295 733.72 Q160.295 726.59 158.467 723.049 Q156.661 719.484 153.027 719.484 M153.027 715.78 Q158.837 715.78 161.893 720.387 Q164.971 724.97 164.971 733.72 Q164.971 742.447 161.893 747.053 Q158.837 751.636 153.027 751.636 Q147.217 751.636 144.138 747.053 Q141.082 742.447 141.082 733.72 Q141.082 724.97 144.138 720.387 Q147.217 715.78 153.027 715.78 Z" fill="#000000" fill-rule="nonzero" fill-opacity="1" /><path clip-path="url(#clip650)" d="M164.971 709.882 L189.083 709.882 L189.083 713.079 L164.971 713.079 L164.971 709.882 Z" fill="#000000" fill-rule="nonzero" fill-opacity="1" /><path clip-path="url(#clip650)" d="M197.941 720.357 L204.148 720.357 L204.148 698.935 L197.396 700.29 L197.396 696.829 L204.11 695.475 L207.909 695.475 L207.909 720.357 L214.116 720.357 L214.116 723.555 L197.941 723.555 L197.941 720.357 Z" fill="#000000" fill-rule="nonzero" fill-opacity="1" /><path clip-path="url(#clip650)" d="M229.914 697.976 Q226.98 697.976 225.495 700.873 Q224.028 703.75 224.028 709.543 Q224.028 715.317 225.495 718.213 Q226.98 721.091 229.914 721.091 Q232.867 721.091 234.334 718.213 Q235.82 715.317 235.82 709.543 Q235.82 703.75 234.334 700.873 Q232.867 697.976 229.914 697.976 M229.914 694.967 Q234.635 694.967 237.118 698.71 Q239.619 702.434 239.619 709.543 Q239.619 716.634 237.118 720.376 Q234.635 724.1 229.914 724.1 Q225.194 724.1 222.692 720.376 Q220.21 716.634 220.21 709.543 Q220.21 702.434 222.692 698.71 Q225.194 694.967 229.914 694.967 Z" fill="#000000" fill-rule="nonzero" fill-opacity="1" /><path clip-path="url(#clip650)" d="M168.914 127.048 L176.552 127.048 L176.552 100.683 L168.242 102.349 L168.242 98.0901 L176.506 96.4235 L181.182 96.4235 L181.182 127.048 L188.821 127.048 L188.821 130.983 L168.914 130.983 L168.914 127.048 Z" fill="#000000" fill-rule="nonzero" fill-opacity="1" /><path clip-path="url(#clip650)" d="M208.265 99.5022 Q204.654 99.5022 202.825 103.067 Q201.02 106.609 201.02 113.738 Q201.02 120.845 202.825 124.409 Q204.654 127.951 208.265 127.951 Q211.9 127.951 213.705 124.409 Q215.534 120.845 215.534 113.738 Q215.534 106.609 213.705 103.067 Q211.9 99.5022 208.265 99.5022 M208.265 95.7985 Q214.075 95.7985 217.131 100.405 Q220.21 104.988 220.21 113.738 Q220.21 122.465 217.131 127.071 Q214.075 131.655 208.265 131.655 Q202.455 131.655 199.376 127.071 Q196.321 122.465 196.321 113.738 Q196.321 104.988 199.376 100.405 Q202.455 95.7985 208.265 95.7985 Z" fill="#000000" fill-rule="nonzero" fill-opacity="1" /><path clip-path="url(#clip650)" d="M229.914 77.9945 Q226.98 77.9945 225.495 80.8909 Q224.028 83.7685 224.028 89.5613 Q224.028 95.3353 225.495 98.2317 Q226.98 101.109 229.914 101.109 Q232.867 101.109 234.334 98.2317 Q235.82 95.3353 235.82 89.5613 Q235.82 83.7685 234.334 80.8909 Q232.867 77.9945 229.914 77.9945 M229.914 74.9853 Q234.635 74.9853 237.118 78.728 Q239.619 82.452 239.619 89.5613 Q239.619 96.6518 237.118 100.395 Q234.635 104.119 229.914 104.119 Q225.194 104.119 222.692 100.395 Q220.21 96.6518 220.21 89.5613 Q220.21 82.452 222.692 78.728 Q225.194 74.9853 229.914 74.9853 Z" fill="#000000" fill-rule="nonzero" fill-opacity="1" /><g clip-path="url(#clip650)">
<text style="fill:#000000; fill-opacity:1; font-family:Arial,Helvetica Neue,Helvetica,sans-serif; font-size:66px; text-anchor:middle;" transform="rotate(-90, 71.4418, 603.241)" x="71.4418" y="603.241">error</text>
</g>
<g clip-path="url(#clip650)">
<text style="fill:#000000; fill-opacity:1; font-family:Arial,Helvetica Neue,Helvetica,sans-serif; font-size:66px; text-anchor:middle;" transform="rotate(0, 1111.19, 57.6)" x="1111.19" y="57.6">Spectral vs 4th order</text>
</g>
<polyline clip-path="url(#clip652)" style="stroke:#009af9; stroke-linecap:round; stroke-linejoin:round; stroke-width:8; stroke-opacity:1; fill:none" points="317.255,200.757 430.661,254.594 511.123,307.912 573.535,361.077 624.529,414.083 667.644,466.817 704.991,519.036 737.934,570.293 767.403,619.845 794.06,666.688 818.397,709.936 840.784,749.393 861.512,785.701 880.808,819.84 898.859,852.64 915.816,884.617 931.802,916.091 946.924,947.21 961.271,978.762 974.917,1007.67 987.928,1048.17 1000.36,1077.75 "/>
<path clip-path="url(#clip652)" d="M317.255 212.757 L308.771 209.241 L305.255 200.757 L308.771 192.273 L317.255 188.757 L325.739 192.273 L329.255 200.757 L325.739 209.241 Z" fill="#009af9" fill-rule="evenodd" fill-opacity="1" stroke="#000000" stroke-opacity="1" stroke-width="2.56"/>
<path clip-path="url(#clip652)" d="M430.661 266.594 L422.177 263.078 L418.661 254.594 L422.177 246.11 L430.661 242.594 L439.145 246.11 L442.661 254.594 L439.145 263.078 Z" fill="#009af9" fill-rule="evenodd" fill-opacity="1" stroke="#000000" stroke-opacity="1" stroke-width="2.56"/>
<path clip-path="url(#clip652)" d="M511.123 319.912 L502.639 316.396 L499.123 307.912 L502.639 299.428 L511.123 295.912 L519.607 299.428 L523.123 307.912 L519.607 316.396 Z" fill="#009af9" fill-rule="evenodd" fill-opacity="1" stroke="#000000" stroke-opacity="1" stroke-width="2.56"/>
<path clip-path="url(#clip652)" d="M573.535 373.077 L565.051 369.561 L561.535 361.077 L565.051 352.593 L573.535 349.077 L582.019 352.593 L585.535 361.077 L582.019 369.561 Z" fill="#009af9" fill-rule="evenodd" fill-opacity="1" stroke="#000000" stroke-opacity="1" stroke-width="2.56"/>
<path clip-path="url(#clip652)" d="M624.529 426.083 L616.045 422.567 L612.529 414.083 L616.045 405.599 L624.529 402.083 L633.013 405.599 L636.529 414.083 L633.013 422.567 Z" fill="#009af9" fill-rule="evenodd" fill-opacity="1" stroke="#000000" stroke-opacity="1" stroke-width="2.56"/>
<path clip-path="url(#clip652)" d="M667.644 478.817 L659.16 475.301 L655.644 466.817 L659.16 458.333 L667.644 454.817 L676.128 458.333 L679.644 466.817 L676.128 475.301 Z" fill="#009af9" fill-rule="evenodd" fill-opacity="1" stroke="#000000" stroke-opacity="1" stroke-width="2.56"/>
<path clip-path="url(#clip652)" d="M704.991 531.036 L696.507 527.52 L692.991 519.036 L696.507 510.552 L704.991 507.036 L713.475 510.552 L716.991 519.036 L713.475 527.52 Z" fill="#009af9" fill-rule="evenodd" fill-opacity="1" stroke="#000000" stroke-opacity="1" stroke-width="2.56"/>
<path clip-path="url(#clip652)" d="M737.934 582.293 L729.45 578.777 L725.934 570.293 L729.45 561.809 L737.934 558.293 L746.418 561.809 L749.934 570.293 L746.418 578.777 Z" fill="#009af9" fill-rule="evenodd" fill-opacity="1" stroke="#000000" stroke-opacity="1" stroke-width="2.56"/>
<path clip-path="url(#clip652)" d="M767.403 631.845 L758.919 628.329 L755.403 619.845 L758.919 611.361 L767.403 607.845 L775.887 611.361 L779.403 619.845 L775.887 628.329 Z" fill="#009af9" fill-rule="evenodd" fill-opacity="1" stroke="#000000" stroke-opacity="1" stroke-width="2.56"/>
<path clip-path="url(#clip652)" d="M794.06 678.688 L785.576 675.172 L782.06 666.688 L785.576 658.204 L794.06 654.688 L802.544 658.204 L806.06 666.688 L802.544 675.172 Z" fill="#009af9" fill-rule="evenodd" fill-opacity="1" stroke="#000000" stroke-opacity="1" stroke-width="2.56"/>
<path clip-path="url(#clip652)" d="M818.397 721.936 L809.913 718.42 L806.397 709.936 L809.913 701.452 L818.397 697.936 L826.881 701.452 L830.397 709.936 L826.881 718.42 Z" fill="#009af9" fill-rule="evenodd" fill-opacity="1" stroke="#000000" stroke-opacity="1" stroke-width="2.56"/>
<path clip-path="url(#clip652)" d="M840.784 761.393 L832.3 757.877 L828.784 749.393 L832.3 740.909 L840.784 737.393 L849.268 740.909 L852.784 749.393 L849.268 757.877 Z" fill="#009af9" fill-rule="evenodd" fill-opacity="1" stroke="#000000" stroke-opacity="1" stroke-width="2.56"/>
<path clip-path="url(#clip652)" d="M861.512 797.701 L853.028 794.185 L849.512 785.701 L853.028 777.217 L861.512 773.701 L869.996 777.217 L873.512 785.701 L869.996 794.185 Z" fill="#009af9" fill-rule="evenodd" fill-opacity="1" stroke="#000000" stroke-opacity="1" stroke-width="2.56"/>
<path clip-path="url(#clip652)" d="M880.808 831.84 L872.324 828.324 L868.808 819.84 L872.324 811.356 L880.808 807.84 L889.292 811.356 L892.808 819.84 L889.292 828.324 Z" fill="#009af9" fill-rule="evenodd" fill-opacity="1" stroke="#000000" stroke-opacity="1" stroke-width="2.56"/>
<path clip-path="url(#clip652)" d="M898.859 864.64 L890.375 861.124 L886.859 852.64 L890.375 844.156 L898.859 840.64 L907.343 844.156 L910.859 852.64 L907.343 861.124 Z" fill="#009af9" fill-rule="evenodd" fill-opacity="1" stroke="#000000" stroke-opacity="1" stroke-width="2.56"/>
<path clip-path="url(#clip652)" d="M915.816 896.617 L907.332 893.101 L903.816 884.617 L907.332 876.133 L915.816 872.617 L924.3 876.133 L927.816 884.617 L924.3 893.101 Z" fill="#009af9" fill-rule="evenodd" fill-opacity="1" stroke="#000000" stroke-opacity="1" stroke-width="2.56"/>
<path clip-path="url(#clip652)" d="M931.802 928.091 L923.318 924.575 L919.802 916.091 L923.318 907.607 L931.802 904.091 L940.286 907.607 L943.802 916.091 L940.286 924.575 Z" fill="#009af9" fill-rule="evenodd" fill-opacity="1" stroke="#000000" stroke-opacity="1" stroke-width="2.56"/>
<path clip-path="url(#clip652)" d="M946.924 959.21 L938.44 955.694 L934.924 947.21 L938.44 938.726 L946.924 935.21 L955.408 938.726 L958.924 947.21 L955.408 955.694 Z" fill="#009af9" fill-rule="evenodd" fill-opacity="1" stroke="#000000" stroke-opacity="1" stroke-width="2.56"/>
<path clip-path="url(#clip652)" d="M961.271 990.762 L952.787 987.246 L949.271 978.762 L952.787 970.278 L961.271 966.762 L969.755 970.278 L973.271 978.762 L969.755 987.246 Z" fill="#009af9" fill-rule="evenodd" fill-opacity="1" stroke="#000000" stroke-opacity="1" stroke-width="2.56"/>
<path clip-path="url(#clip652)" d="M974.917 1019.67 L966.433 1016.15 L962.917 1007.67 L966.433 999.185 L974.917 995.669 L983.401 999.185 L986.917 1007.67 L983.401 1016.15 Z" fill="#009af9" fill-rule="evenodd" fill-opacity="1" stroke="#000000" stroke-opacity="1" stroke-width="2.56"/>
<path clip-path="url(#clip652)" d="M987.928 1060.17 L979.444 1056.65 L975.928 1048.17 L979.444 1039.68 L987.928 1036.17 L996.412 1039.68 L999.928 1048.17 L996.412 1056.65 Z" fill="#009af9" fill-rule="evenodd" fill-opacity="1" stroke="#000000" stroke-opacity="1" stroke-width="2.56"/>
<path clip-path="url(#clip652)" d="M1000.36 1089.75 L991.877 1086.23 L988.361 1077.75 L991.877 1069.26 L1000.36 1065.75 L1008.85 1069.26 L1012.36 1077.75 L1008.85 1086.23 Z" fill="#009af9" fill-rule="evenodd" fill-opacity="1" stroke="#000000" stroke-opacity="1" stroke-width="2.56"/>
<polyline clip-path="url(#clip652)" style="stroke:#e26f46; stroke-linecap:round; stroke-linejoin:round; stroke-width:8; stroke-opacity:1; fill:none" points="317.255,208.956 430.661,261.861 511.123,315.087 573.535,368.367 624.529,421.658 667.644,474.954 704.991,528.252 737.934,581.551 767.403,634.852 794.06,688.154 818.397,741.455 840.784,794.759 861.512,848.1 880.808,900.843 898.859,951.804 915.816,1008.69 931.802,1034.41 946.924,1018.59 961.271,1066.83 974.917,1044.02 987.928,1059.08 1000.36,1017.13 1012.26,1031.85 "/>
<path clip-path="url(#clip652)" d="M317.255 220.956 L308.771 217.44 L305.255 208.956 L308.771 200.472 L317.255 196.956 L325.739 200.472 L329.255 208.956 L325.739 217.44 Z" fill="#e26f46" fill-rule="evenodd" fill-opacity="1" stroke="#000000" stroke-opacity="1" stroke-width="2.56"/>
<path clip-path="url(#clip652)" d="M430.661 273.861 L422.177 270.345 L418.661 261.861 L422.177 253.377 L430.661 249.861 L439.145 253.377 L442.661 261.861 L439.145 270.345 Z" fill="#e26f46" fill-rule="evenodd" fill-opacity="1" stroke="#000000" stroke-opacity="1" stroke-width="2.56"/>
<path clip-path="url(#clip652)" d="M511.123 327.087 L502.639 323.571 L499.123 315.087 L502.639 306.603 L511.123 303.087 L519.607 306.603 L523.123 315.087 L519.607 323.571 Z" fill="#e26f46" fill-rule="evenodd" fill-opacity="1" stroke="#000000" stroke-opacity="1" stroke-width="2.56"/>
<path clip-path="url(#clip652)" d="M573.535 380.367 L565.051 376.851 L561.535 368.367 L565.051 359.883 L573.535 356.367 L582.019 359.883 L585.535 368.367 L582.019 376.851 Z" fill="#e26f46" fill-rule="evenodd" fill-opacity="1" stroke="#000000" stroke-opacity="1" stroke-width="2.56"/>
<path clip-path="url(#clip652)" d="M624.529 433.658 L616.045 430.142 L612.529 421.658 L616.045 413.174 L624.529 409.658 L633.013 413.174 L636.529 421.658 L633.013 430.142 Z" fill="#e26f46" fill-rule="evenodd" fill-opacity="1" stroke="#000000" stroke-opacity="1" stroke-width="2.56"/>
<path clip-path="url(#clip652)" d="M667.644 486.954 L659.16 483.438 L655.644 474.954 L659.16 466.47 L667.644 462.954 L676.128 466.47 L679.644 474.954 L676.128 483.438 Z" fill="#e26f46" fill-rule="evenodd" fill-opacity="1" stroke="#000000" stroke-opacity="1" stroke-width="2.56"/>
<path clip-path="url(#clip652)" d="M704.991 540.252 L696.507 536.736 L692.991 528.252 L696.507 519.768 L704.991 516.252 L713.475 519.768 L716.991 528.252 L713.475 536.736 Z" fill="#e26f46" fill-rule="evenodd" fill-opacity="1" stroke="#000000" stroke-opacity="1" stroke-width="2.56"/>
<path clip-path="url(#clip652)" d="M737.934 593.551 L729.45 590.035 L725.934 581.551 L729.45 573.067 L737.934 569.551 L746.418 573.067 L749.934 581.551 L746.418 590.035 Z" fill="#e26f46" fill-rule="evenodd" fill-opacity="1" stroke="#000000" stroke-opacity="1" stroke-width="2.56"/>
<path clip-path="url(#clip652)" d="M767.403 646.852 L758.919 643.336 L755.403 634.852 L758.919 626.368 L767.403 622.852 L775.887 626.368 L779.403 634.852 L775.887 643.336 Z" fill="#e26f46" fill-rule="evenodd" fill-opacity="1" stroke="#000000" stroke-opacity="1" stroke-width="2.56"/>
<path clip-path="url(#clip652)" d="M794.06 700.154 L785.576 696.638 L782.06 688.154 L785.576 679.67 L794.06 676.154 L802.544 679.67 L806.06 688.154 L802.544 696.638 Z" fill="#e26f46" fill-rule="evenodd" fill-opacity="1" stroke="#000000" stroke-opacity="1" stroke-width="2.56"/>
<path clip-path="url(#clip652)" d="M818.397 753.455 L809.913 749.939 L806.397 741.455 L809.913 732.971 L818.397 729.455 L826.881 732.971 L830.397 741.455 L826.881 749.939 Z" fill="#e26f46" fill-rule="evenodd" fill-opacity="1" stroke="#000000" stroke-opacity="1" stroke-width="2.56"/>
<path clip-path="url(#clip652)" d="M840.784 806.759 L832.3 803.243 L828.784 794.759 L832.3 786.275 L840.784 782.759 L849.268 786.275 L852.784 794.759 L849.268 803.243 Z" fill="#e26f46" fill-rule="evenodd" fill-opacity="1" stroke="#000000" stroke-opacity="1" stroke-width="2.56"/>
<path clip-path="url(#clip652)" d="M861.512 860.1 L853.028 856.584 L849.512 848.1 L853.028 839.616 L861.512 836.1 L869.996 839.616 L873.512 848.1 L869.996 856.584 Z" fill="#e26f46" fill-rule="evenodd" fill-opacity="1" stroke="#000000" stroke-opacity="1" stroke-width="2.56"/>
<path clip-path="url(#clip652)" d="M880.808 912.843 L872.324 909.327 L868.808 900.843 L872.324 892.359 L880.808 888.843 L889.292 892.359 L892.808 900.843 L889.292 909.327 Z" fill="#e26f46" fill-rule="evenodd" fill-opacity="1" stroke="#000000" stroke-opacity="1" stroke-width="2.56"/>
<path clip-path="url(#clip652)" d="M898.859 963.804 L890.375 960.288 L886.859 951.804 L890.375 943.32 L898.859 939.804 L907.343 943.32 L910.859 951.804 L907.343 960.288 Z" fill="#e26f46" fill-rule="evenodd" fill-opacity="1" stroke="#000000" stroke-opacity="1" stroke-width="2.56"/>
<path clip-path="url(#clip652)" d="M915.816 1020.69 L907.332 1017.17 L903.816 1008.69 L907.332 1000.2 L915.816 996.686 L924.3 1000.2 L927.816 1008.69 L924.3 1017.17 Z" fill="#e26f46" fill-rule="evenodd" fill-opacity="1" stroke="#000000" stroke-opacity="1" stroke-width="2.56"/>
<path clip-path="url(#clip652)" d="M931.802 1046.41 L923.318 1042.9 L919.802 1034.41 L923.318 1025.93 L931.802 1022.41 L940.286 1025.93 L943.802 1034.41 L940.286 1042.9 Z" fill="#e26f46" fill-rule="evenodd" fill-opacity="1" stroke="#000000" stroke-opacity="1" stroke-width="2.56"/>
<path clip-path="url(#clip652)" d="M946.924 1030.59 L938.44 1027.07 L934.924 1018.59 L938.44 1010.1 L946.924 1006.59 L955.408 1010.1 L958.924 1018.59 L955.408 1027.07 Z" fill="#e26f46" fill-rule="evenodd" fill-opacity="1" stroke="#000000" stroke-opacity="1" stroke-width="2.56"/>
<path clip-path="url(#clip652)" d="M961.271 1078.83 L952.787 1075.31 L949.271 1066.83 L952.787 1058.35 L961.271 1054.83 L969.755 1058.35 L973.271 1066.83 L969.755 1075.31 Z" fill="#e26f46" fill-rule="evenodd" fill-opacity="1" stroke="#000000" stroke-opacity="1" stroke-width="2.56"/>
<path clip-path="url(#clip652)" d="M974.917 1056.02 L966.433 1052.5 L962.917 1044.02 L966.433 1035.53 L974.917 1032.02 L983.401 1035.53 L986.917 1044.02 L983.401 1052.5 Z" fill="#e26f46" fill-rule="evenodd" fill-opacity="1" stroke="#000000" stroke-opacity="1" stroke-width="2.56"/>
<path clip-path="url(#clip652)" d="M987.928 1071.08 L979.444 1067.57 L975.928 1059.08 L979.444 1050.6 L987.928 1047.08 L996.412 1050.6 L999.928 1059.08 L996.412 1067.57 Z" fill="#e26f46" fill-rule="evenodd" fill-opacity="1" stroke="#000000" stroke-opacity="1" stroke-width="2.56"/>
<path clip-path="url(#clip652)" d="M1000.36 1029.13 L991.877 1025.61 L988.361 1017.13 L991.877 1008.65 L1000.36 1005.13 L1008.85 1008.65 L1012.36 1017.13 L1008.85 1025.61 Z" fill="#e26f46" fill-rule="evenodd" fill-opacity="1" stroke="#000000" stroke-opacity="1" stroke-width="2.56"/>
<path clip-path="url(#clip652)" d="M1012.26 1043.85 L1003.78 1040.33 L1000.26 1031.85 L1003.78 1023.36 L1012.26 1019.85 L1020.75 1023.36 L1024.26 1031.85 L1020.75 1040.33 Z" fill="#e26f46" fill-rule="evenodd" fill-opacity="1" stroke="#000000" stroke-opacity="1" stroke-width="2.56"/>
<polyline clip-path="url(#clip652)" style="stroke:#3da44d; stroke-linecap:round; stroke-linejoin:round; stroke-width:8; stroke-opacity:1; fill:none" points="350.198,212.898 635.946,386.985 866.462,479.465 1127.61,578.45 1370.05,726.191 1658.89,790.44 1905.12,874.549 "/>
<path clip-path="url(#clip652)" d="M350.198 224.898 L341.714 221.382 L338.198 212.898 L341.714 204.414 L350.198 200.898 L358.682 204.414 L362.198 212.898 L358.682 221.382 Z" fill="#3da44d" fill-rule="evenodd" fill-opacity="1" stroke="#000000" stroke-opacity="1" stroke-width="2.56"/>
<path clip-path="url(#clip652)" d="M635.946 398.985 L627.462 395.469 L623.946 386.985 L627.462 378.501 L635.946 374.985 L644.43 378.501 L647.946 386.985 L644.43 395.469 Z" fill="#3da44d" fill-rule="evenodd" fill-opacity="1" stroke="#000000" stroke-opacity="1" stroke-width="2.56"/>
<path clip-path="url(#clip652)" d="M866.462 491.465 L857.978 487.949 L854.462 479.465 L857.978 470.981 L866.462 467.465 L874.946 470.981 L878.462 479.465 L874.946 487.949 Z" fill="#3da44d" fill-rule="evenodd" fill-opacity="1" stroke="#000000" stroke-opacity="1" stroke-width="2.56"/>
<path clip-path="url(#clip652)" d="M1127.61 590.45 L1119.12 586.934 L1115.61 578.45 L1119.12 569.966 L1127.61 566.45 L1136.09 569.966 L1139.61 578.45 L1136.09 586.934 Z" fill="#3da44d" fill-rule="evenodd" fill-opacity="1" stroke="#000000" stroke-opacity="1" stroke-width="2.56"/>
<path clip-path="url(#clip652)" d="M1370.05 738.191 L1361.56 734.675 L1358.05 726.191 L1361.56 717.707 L1370.05 714.191 L1378.53 717.707 L1382.05 726.191 L1378.53 734.675 Z" fill="#3da44d" fill-rule="evenodd" fill-opacity="1" stroke="#000000" stroke-opacity="1" stroke-width="2.56"/>
<path clip-path="url(#clip652)" d="M1658.89 802.44 L1650.41 798.924 L1646.89 790.44 L1650.41 781.956 L1658.89 778.44 L1667.37 781.956 L1670.89 790.44 L1667.37 798.924 Z" fill="#3da44d" fill-rule="evenodd" fill-opacity="1" stroke="#000000" stroke-opacity="1" stroke-width="2.56"/>
<path clip-path="url(#clip652)" d="M1905.12 886.549 L1896.64 883.033 L1893.12 874.549 L1896.64 866.065 L1905.12 862.549 L1913.6 866.065 L1917.12 874.549 L1913.6 883.033 Z" fill="#3da44d" fill-rule="evenodd" fill-opacity="1" stroke="#000000" stroke-opacity="1" stroke-width="2.56"/>
<polyline clip-path="url(#clip652)" style="stroke:#c271d2; stroke-linecap:round; stroke-linejoin:round; stroke-width:8; stroke-opacity:1; fill:none" stroke-dasharray="32, 20" points="350.198,343.901 635.946,453.935 866.462,542.7 1127.61,643.259 1370.05,736.616 1658.89,847.842 1905.12,942.659 "/>
<path clip-path="url(#clip650)" d="M1510.38 399.522 L1896.65 399.522 L1896.65 140.322 L1510.38 140.322  Z" fill="#ffffff" fill-rule="evenodd" fill-opacity="1"/>
<polyline clip-path="url(#clip650)" style="stroke:#000000; stroke-linecap:round; stroke-linejoin:round; stroke-width:4; stroke-opacity:1; fill:none" points="1510.38,399.522 1896.65,399.522 1896.65,140.322 1510.38,140.322 1510.38,399.522 "/>
<polyline clip-path="url(#clip650)" style="stroke:#009af9; stroke-linecap:round; stroke-linejoin:round; stroke-width:8; stroke-opacity:1; fill:none" points="1529.08,192.162 1641.29,192.162 "/>
<path clip-path="url(#clip650)" d="M1585.18 209.478 L1572.94 204.404 L1567.87 192.162 L1572.94 179.919 L1585.18 174.845 L1597.42 179.919 L1602.5 192.162 L1597.42 204.404 Z" fill="#009af9" fill-rule="evenodd" fill-opacity="1" stroke="#000000" stroke-opacity="1" stroke-width="4.68114"/>
<path clip-path="url(#clip650)" d="M1687.86 177.544 L1687.86 182.474 Q1685.5 180.275 1682.81 179.187 Q1680.15 178.099 1677.14 178.099 Q1671.21 178.099 1668.07 181.733 Q1664.92 185.344 1664.92 192.196 Q1664.92 199.025 1668.07 202.659 Q1671.21 206.27 1677.14 206.27 Q1680.15 206.27 1682.81 205.182 Q1685.5 204.094 1687.86 201.895 L1687.86 206.78 Q1685.4 208.446 1682.65 209.28 Q1679.92 210.113 1676.86 210.113 Q1669.02 210.113 1664.5 205.321 Q1659.99 200.506 1659.99 192.196 Q1659.99 183.863 1664.5 179.071 Q1669.02 174.257 1676.86 174.257 Q1679.96 174.257 1682.7 175.09 Q1685.45 175.9 1687.86 177.544 Z" fill="#000000" fill-rule="nonzero" fill-opacity="1" /><path clip-path="url(#clip650)" d="M1720.96 177.544 L1720.96 182.474 Q1718.6 180.275 1715.91 179.187 Q1713.25 178.099 1710.24 178.099 Q1704.32 178.099 1701.17 181.733 Q1698.02 185.344 1698.02 192.196 Q1698.02 199.025 1701.17 202.659 Q1704.32 206.27 1710.24 206.27 Q1713.25 206.27 1715.91 205.182 Q1718.6 204.094 1720.96 201.895 L1720.96 206.78 Q1718.51 208.446 1715.75 209.28 Q1713.02 210.113 1709.96 210.113 Q1702.12 210.113 1697.6 205.321 Q1693.09 200.506 1693.09 192.196 Q1693.09 183.863 1697.6 179.071 Q1702.12 174.257 1709.96 174.257 Q1713.07 174.257 1715.8 175.09 Q1718.55 175.9 1720.96 177.544 Z" fill="#000000" fill-rule="nonzero" fill-opacity="1" /><polyline clip-path="url(#clip650)" style="stroke:#e26f46; stroke-linecap:round; stroke-linejoin:round; stroke-width:8; stroke-opacity:1; fill:none" points="1529.08,244.002 1641.29,244.002 "/>
<path clip-path="url(#clip650)" d="M1585.18 261.318 L1572.94 256.244 L1567.87 244.002 L1572.94 231.759 L1585.18 226.685 L1597.42 231.759 L1602.5 244.002 L1597.42 256.244 Z" fill="#e26f46" fill-rule="evenodd" fill-opacity="1" stroke="#000000" stroke-opacity="1" stroke-width="4.68114"/>
<path clip-path="url(#clip650)" d="M1685.54 256.351 L1685.54 247.069 L1677.9 247.069 L1677.9 243.226 L1690.17 243.226 L1690.17 258.064 Q1687.46 259.985 1684.2 260.981 Q1680.94 261.953 1677.23 261.953 Q1669.13 261.953 1664.55 257.231 Q1659.99 252.485 1659.99 244.036 Q1659.99 235.564 1664.55 230.842 Q1669.13 226.097 1677.23 226.097 Q1680.61 226.097 1683.65 226.93 Q1686.7 227.763 1689.27 229.384 L1689.27 234.36 Q1686.68 232.161 1683.76 231.05 Q1680.84 229.939 1677.63 229.939 Q1671.28 229.939 1668.09 233.481 Q1664.92 237.022 1664.92 244.036 Q1664.92 251.027 1668.09 254.569 Q1671.28 258.11 1677.63 258.11 Q1680.1 258.11 1682.05 257.694 Q1683.99 257.254 1685.54 256.351 Z" fill="#000000" fill-rule="nonzero" fill-opacity="1" /><path clip-path="url(#clip650)" d="M1698.71 226.722 L1703.39 226.722 L1703.39 257.346 L1720.22 257.346 L1720.22 261.282 L1698.71 261.282 L1698.71 226.722 Z" fill="#000000" fill-rule="nonzero" fill-opacity="1" /><polyline clip-path="url(#clip650)" style="stroke:#3da44d; stroke-linecap:round; stroke-linejoin:round; stroke-width:8; stroke-opacity:1; fill:none" points="1529.08,295.842 1641.29,295.842 "/>
<path clip-path="url(#clip650)" d="M1585.18 313.158 L1572.94 308.084 L1567.87 295.842 L1572.94 283.599 L1585.18 278.525 L1597.42 283.599 L1602.5 295.842 L1597.42 308.084 Z" fill="#3da44d" fill-rule="evenodd" fill-opacity="1" stroke="#000000" stroke-opacity="1" stroke-width="4.68114"/>
<path clip-path="url(#clip650)" d="M1659.99 287.196 L1664.25 287.196 L1664.25 313.122 L1659.99 313.122 L1659.99 287.196 M1659.99 277.103 L1664.25 277.103 L1664.25 282.497 L1659.99 282.497 L1659.99 277.103 Z" fill="#000000" fill-rule="nonzero" fill-opacity="1" /><path clip-path="url(#clip650)" d="M1694.71 297.474 L1694.71 313.122 L1690.45 313.122 L1690.45 297.612 Q1690.45 293.932 1689.02 292.103 Q1687.58 290.274 1684.71 290.274 Q1681.26 290.274 1679.27 292.474 Q1677.28 294.673 1677.28 298.469 L1677.28 313.122 L1673 313.122 L1673 287.196 L1677.28 287.196 L1677.28 291.224 Q1678.81 288.886 1680.87 287.728 Q1682.95 286.571 1685.66 286.571 Q1690.13 286.571 1692.42 289.349 Q1694.71 292.103 1694.71 297.474 Z" fill="#000000" fill-rule="nonzero" fill-opacity="1" /><path clip-path="url(#clip650)" d="M1707.42 279.835 L1707.42 287.196 L1716.19 287.196 L1716.19 290.506 L1707.42 290.506 L1707.42 304.58 Q1707.42 307.751 1708.27 308.654 Q1709.15 309.557 1711.82 309.557 L1716.19 309.557 L1716.19 313.122 L1711.82 313.122 Q1706.89 313.122 1705.01 311.293 Q1703.14 309.441 1703.14 304.58 L1703.14 290.506 L1700.01 290.506 L1700.01 287.196 L1703.14 287.196 L1703.14 279.835 L1707.42 279.835 Z" fill="#000000" fill-rule="nonzero" fill-opacity="1" /><path clip-path="url(#clip650)" d="M1733.58 300.089 Q1728.41 300.089 1726.42 301.27 Q1724.43 302.45 1724.43 305.298 Q1724.43 307.566 1725.91 308.909 Q1727.42 310.228 1729.99 310.228 Q1733.53 310.228 1735.66 307.728 Q1737.81 305.205 1737.81 301.038 L1737.81 300.089 L1733.58 300.089 M1742.07 298.33 L1742.07 313.122 L1737.81 313.122 L1737.81 309.186 Q1736.35 311.548 1734.18 312.682 Q1732 313.793 1728.85 313.793 Q1724.87 313.793 1722.51 311.571 Q1720.17 309.325 1720.17 305.575 Q1720.17 301.2 1723.09 298.978 Q1726.03 296.756 1731.84 296.756 L1737.81 296.756 L1737.81 296.339 Q1737.81 293.399 1735.87 291.802 Q1733.95 290.182 1730.45 290.182 Q1728.23 290.182 1726.12 290.714 Q1724.02 291.247 1722.07 292.311 L1722.07 288.376 Q1724.41 287.474 1726.61 287.034 Q1728.81 286.571 1730.89 286.571 Q1736.52 286.571 1739.29 289.487 Q1742.07 292.404 1742.07 298.33 Z" fill="#000000" fill-rule="nonzero" fill-opacity="1" /><path clip-path="url(#clip650)" d="M1767.9 291.131 L1767.9 277.103 L1772.16 277.103 L1772.16 313.122 L1767.9 313.122 L1767.9 309.233 Q1766.56 311.548 1764.5 312.682 Q1762.46 313.793 1759.59 313.793 Q1754.89 313.793 1751.93 310.043 Q1748.99 306.293 1748.99 300.182 Q1748.99 294.071 1751.93 290.321 Q1754.89 286.571 1759.59 286.571 Q1762.46 286.571 1764.5 287.705 Q1766.56 288.816 1767.9 291.131 M1753.39 300.182 Q1753.39 304.881 1755.31 307.566 Q1757.26 310.228 1760.64 310.228 Q1764.02 310.228 1765.96 307.566 Q1767.9 304.881 1767.9 300.182 Q1767.9 295.483 1765.96 292.821 Q1764.02 290.136 1760.64 290.136 Q1757.26 290.136 1755.31 292.821 Q1753.39 295.483 1753.39 300.182 Z" fill="#000000" fill-rule="nonzero" fill-opacity="1" /><path clip-path="url(#clip650)" d="M1792.72 300.089 Q1787.56 300.089 1785.57 301.27 Q1783.58 302.45 1783.58 305.298 Q1783.58 307.566 1785.06 308.909 Q1786.56 310.228 1789.13 310.228 Q1792.67 310.228 1794.8 307.728 Q1796.95 305.205 1796.95 301.038 L1796.95 300.089 L1792.72 300.089 M1801.21 298.33 L1801.21 313.122 L1796.95 313.122 L1796.95 309.186 Q1795.5 311.548 1793.32 312.682 Q1791.14 313.793 1788 313.793 Q1784.02 313.793 1781.65 311.571 Q1779.32 309.325 1779.32 305.575 Q1779.32 301.2 1782.23 298.978 Q1785.17 296.756 1790.98 296.756 L1796.95 296.756 L1796.95 296.339 Q1796.95 293.399 1795.01 291.802 Q1793.09 290.182 1789.59 290.182 Q1787.37 290.182 1785.27 290.714 Q1783.16 291.247 1781.21 292.311 L1781.21 288.376 Q1783.55 287.474 1785.75 287.034 Q1787.95 286.571 1790.03 286.571 Q1795.66 286.571 1798.44 289.487 Q1801.21 292.404 1801.21 298.33 Z" fill="#000000" fill-rule="nonzero" fill-opacity="1" /><path clip-path="url(#clip650)" d="M1814.11 309.233 L1814.11 322.983 L1809.83 322.983 L1809.83 287.196 L1814.11 287.196 L1814.11 291.131 Q1815.45 288.816 1817.49 287.705 Q1819.55 286.571 1822.39 286.571 Q1827.12 286.571 1830.06 290.321 Q1833.02 294.071 1833.02 300.182 Q1833.02 306.293 1830.06 310.043 Q1827.12 313.793 1822.39 313.793 Q1819.55 313.793 1817.49 312.682 Q1815.45 311.548 1814.11 309.233 M1828.6 300.182 Q1828.6 295.483 1826.65 292.821 Q1824.73 290.136 1821.35 290.136 Q1817.97 290.136 1816.03 292.821 Q1814.11 295.483 1814.11 300.182 Q1814.11 304.881 1816.03 307.566 Q1817.97 310.228 1821.35 310.228 Q1824.73 310.228 1826.65 307.566 Q1828.6 304.881 1828.6 300.182 Z" fill="#000000" fill-rule="nonzero" fill-opacity="1" /><path clip-path="url(#clip650)" d="M1844.29 279.835 L1844.29 287.196 L1853.07 287.196 L1853.07 290.506 L1844.29 290.506 L1844.29 304.58 Q1844.29 307.751 1845.15 308.654 Q1846.03 309.557 1848.69 309.557 L1853.07 309.557 L1853.07 313.122 L1848.69 313.122 Q1843.76 313.122 1841.89 311.293 Q1840.01 309.441 1840.01 304.58 L1840.01 290.506 L1836.89 290.506 L1836.89 287.196 L1840.01 287.196 L1840.01 279.835 L1844.29 279.835 Z" fill="#000000" fill-rule="nonzero" fill-opacity="1" /><polyline clip-path="url(#clip650)" style="stroke:#c271d2; stroke-linecap:round; stroke-linejoin:round; stroke-width:8; stroke-opacity:1; fill:none" stroke-dasharray="32, 20" points="1529.08,347.682 1641.29,347.682 "/>
<path clip-path="url(#clip650)" d="M1675.59 334.476 L1663.78 352.925 L1675.59 352.925 L1675.59 334.476 M1674.36 330.402 L1680.24 330.402 L1680.24 352.925 L1685.17 352.925 L1685.17 356.813 L1680.24 356.813 L1680.24 364.962 L1675.59 364.962 L1675.59 356.813 L1659.99 356.813 L1659.99 352.3 L1674.36 330.402 Z" fill="#000000" fill-rule="nonzero" fill-opacity="1" /><path clip-path="url(#clip650)" d="M1696.52 331.675 L1696.52 339.036 L1705.29 339.036 L1705.29 342.346 L1696.52 342.346 L1696.52 356.42 Q1696.52 359.591 1697.37 360.494 Q1698.25 361.397 1700.91 361.397 L1705.29 361.397 L1705.29 364.962 L1700.91 364.962 Q1695.98 364.962 1694.11 363.133 Q1692.23 361.281 1692.23 356.42 L1692.23 342.346 L1689.11 342.346 L1689.11 339.036 L1692.23 339.036 L1692.23 331.675 L1696.52 331.675 Z" fill="#000000" fill-rule="nonzero" fill-opacity="1" /><path clip-path="url(#clip650)" d="M1732.44 349.314 L1732.44 364.962 L1728.18 364.962 L1728.18 349.452 Q1728.18 345.772 1726.75 343.943 Q1725.31 342.114 1722.44 342.114 Q1718.99 342.114 1717 344.314 Q1715.01 346.513 1715.01 350.309 L1715.01 364.962 L1710.73 364.962 L1710.73 328.943 L1715.01 328.943 L1715.01 343.064 Q1716.54 340.726 1718.6 339.568 Q1720.68 338.411 1723.39 338.411 Q1727.86 338.411 1730.15 341.189 Q1732.44 343.943 1732.44 349.314 Z" fill="#000000" fill-rule="nonzero" fill-opacity="1" /><path clip-path="url(#clip650)" d="M1766.05 342.022 Q1762.63 342.022 1760.64 344.707 Q1758.64 347.369 1758.64 352.022 Q1758.64 356.675 1760.61 359.36 Q1762.6 362.022 1766.05 362.022 Q1769.46 362.022 1771.45 359.337 Q1773.44 356.651 1773.44 352.022 Q1773.44 347.415 1771.45 344.73 Q1769.46 342.022 1766.05 342.022 M1766.05 338.411 Q1771.61 338.411 1774.78 342.022 Q1777.95 345.633 1777.95 352.022 Q1777.95 358.388 1774.78 362.022 Q1771.61 365.633 1766.05 365.633 Q1760.47 365.633 1757.3 362.022 Q1754.15 358.388 1754.15 352.022 Q1754.15 345.633 1757.3 342.022 Q1760.47 338.411 1766.05 338.411 Z" fill="#000000" fill-rule="nonzero" fill-opacity="1" /><path clip-path="url(#clip650)" d="M1800.03 343.017 Q1799.32 342.601 1798.46 342.415 Q1797.63 342.207 1796.61 342.207 Q1793 342.207 1791.05 344.568 Q1789.13 346.906 1789.13 351.304 L1789.13 364.962 L1784.85 364.962 L1784.85 339.036 L1789.13 339.036 L1789.13 343.064 Q1790.47 340.702 1792.63 339.568 Q1794.78 338.411 1797.86 338.411 Q1798.3 338.411 1798.83 338.48 Q1799.36 338.527 1800.01 338.642 L1800.03 343.017 Z" fill="#000000" fill-rule="nonzero" fill-opacity="1" /><path clip-path="url(#clip650)" d="M1820.73 342.971 L1820.73 328.943 L1824.99 328.943 L1824.99 364.962 L1820.73 364.962 L1820.73 361.073 Q1819.39 363.388 1817.33 364.522 Q1815.29 365.633 1812.42 365.633 Q1807.72 365.633 1804.76 361.883 Q1801.82 358.133 1801.82 352.022 Q1801.82 345.911 1804.76 342.161 Q1807.72 338.411 1812.42 338.411 Q1815.29 338.411 1817.33 339.545 Q1819.39 340.656 1820.73 342.971 M1806.21 352.022 Q1806.21 356.721 1808.14 359.406 Q1810.08 362.068 1813.46 362.068 Q1816.84 362.068 1818.78 359.406 Q1820.73 356.721 1820.73 352.022 Q1820.73 347.323 1818.78 344.661 Q1816.84 341.976 1813.46 341.976 Q1810.08 341.976 1808.14 344.661 Q1806.21 347.323 1806.21 352.022 Z" fill="#000000" fill-rule="nonzero" fill-opacity="1" /><path clip-path="url(#clip650)" d="M1855.94 350.934 L1855.94 353.017 L1836.35 353.017 Q1836.63 357.415 1838.99 359.73 Q1841.38 362.022 1845.61 362.022 Q1848.07 362.022 1850.36 361.42 Q1852.67 360.818 1854.94 359.614 L1854.94 363.642 Q1852.65 364.614 1850.24 365.124 Q1847.83 365.633 1845.36 365.633 Q1839.15 365.633 1835.52 362.022 Q1831.91 358.411 1831.91 352.253 Q1831.91 345.888 1835.33 342.161 Q1838.78 338.411 1844.62 338.411 Q1849.85 338.411 1852.88 341.79 Q1855.94 345.147 1855.94 350.934 M1851.68 349.684 Q1851.63 346.189 1849.71 344.105 Q1847.81 342.022 1844.66 342.022 Q1841.1 342.022 1838.95 344.036 Q1836.82 346.05 1836.49 349.707 L1851.68 349.684 Z" fill="#000000" fill-rule="nonzero" fill-opacity="1" /><path clip-path="url(#clip650)" d="M1877.95 343.017 Q1877.23 342.601 1876.38 342.415 Q1875.54 342.207 1874.52 342.207 Q1870.91 342.207 1868.97 344.568 Q1867.05 346.906 1867.05 351.304 L1867.05 364.962 L1862.76 364.962 L1862.76 339.036 L1867.05 339.036 L1867.05 343.064 Q1868.39 340.702 1870.54 339.568 Q1872.7 338.411 1875.77 338.411 Q1876.21 338.411 1876.75 338.48 Q1877.28 338.527 1877.93 338.642 L1877.95 343.017 Z" fill="#000000" fill-rule="nonzero" fill-opacity="1" /></svg>
