<?xml version="1.0" encoding="utf-8"?>
<svg xmlns="http://www.w3.org/2000/svg" xmlns:xlink="http://www.w3.org/1999/xlink" width="500" height="320" viewBox="0 0 2000 1280">
<defs>
  <clipPath id="clip660">
    <rect x="0" y="0" width="2000" height="1280"/>
  </clipPath>
</defs>
<path clip-path="url(#clip660)" d="M0 1280 L2000 1280 L2000 0 L0 0  Z" fill="#ffffff" fill-rule="evenodd" fill-opacity="1"/>
<defs>
  <clipPath id="clip661">
    <rect x="400" y="0" width="1401" height="1280"/>
  </clipPath>
</defs>
<path clip-path="url(#clip660)" d="M185.496 1171.03 L1952.76 1171.03 L1952.76 107.256 L185.496 107.256  Z" fill="#ffffff" fill-rule="evenodd" fill-opacity="1"/>
<defs>
  <clipPath id="clip662">
    <rect x="185" y="107" width="1768" height="1065"/>
  </clipPath>
</defs>
<polyline clip-path="url(#clip662)" style="stroke:#000000; stroke-linecap:round; stroke-linejoin:round; stroke-width:2; stroke-opacity:0.1; fill:none" points="235.513,1171.03 235.513,107.256 "/>
<polyline clip-path="url(#clip662)" style="stroke:#000000; stroke-linecap:round; stroke-linejoin:round; stroke-width:2; stroke-opacity:0.1; fill:none" points="591.758,1171.03 591.758,107.256 "/>
<polyline clip-path="url(#clip662)" style="stroke:#000000; stroke-linecap:round; stroke-linejoin:round; stroke-width:2; stroke-opacity:0.1; fill:none" points="948.003,1171.03 948.003,107.256 "/>
<polyline clip-path="url(#clip662)" style="stroke:#000000; stroke-linecap:round; stroke-linejoin:round; stroke-width:2; stroke-opacity:0.1; fill:none" points="1304.25,1171.03 1304.25,107.256 "/>
<polyline clip-path="url(#clip662)" style="stroke:#000000; stroke-linecap:round; stroke-linejoin:round; stroke-width:2; stroke-opacity:0.1; fill:none" points="1660.49,1171.03 1660.49,107.256 "/>
<polyline clip-path="url(#clip662)" style="stroke:#000000; stroke-linecap:round; stroke-linejoin:round; stroke-width:2; stroke-opacity:0.1; fill:none" points="185.496,1091.12 1952.76,1091.12 "/>
<polyline clip-path="url(#clip662)" style="stroke:#000000; stroke-linecap:round; stroke-linejoin:round; stroke-width:2; stroke-opacity:0.1; fill:none" points="185.496,852.678 1952.76,852.678 "/>
<polyline clip-path="url(#clip662)" style="stroke:#000000; stroke-linecap:round; stroke-linejoin:round; stroke-width:2; stroke-opacity:0.1; fill:none" points="185.496,614.24 1952.76,614.24 "/>
<polyline clip-path="url(#clip662)" style="stroke:#000000; stroke-linecap:round; stroke-linejoin:round; stroke-width:2; stroke-opacity:0.1; fill:none" points="185.496,375.801 1952.76,375.801 "/>
<polyline clip-path="url(#clip662)" style="stroke:#000000; stroke-linecap:round; stroke-linejoin:round; stroke-width:2; stroke-opacity:0.1; fill:none" points="185.496,137.363 1952.76,137.363 "/>
<polyline clip-path="url(#clip660)" style="stroke:#000000; stroke-linecap:round; stroke-linejoin:round; stroke-width:4; stroke-opacity:1; fill:none" points="185.496,1171.03 1952.76,1171.03 "/>
<polyline clip-path="url(#clip660)" style="stroke:#000000; stroke-linecap:round; stroke-linejoin:round; stroke-width:4; stroke-opacity:1; fill:none" points="235.513,1171.03 235.513,1152.13 "/>
<polyline clip-path="url(#clip660)" style="stroke:#000000; stroke-linecap:round; stroke-linejoin:round; stroke-width:4; stroke-opacity:1; fill:none" points="591.758,1171.03 591.758,1152.13 "/>
<polyline clip-path="url(#clip660)" style="stroke:#000000; stroke-linecap:round; stroke-linejoin:round; stroke-width:4; stroke-opacity:1; fill:none" points="948.003,1171.03 948.003,1152.13 "/>
<polyline clip-path="url(#clip660)" style="stroke:#000000; stroke-linecap:round; stroke-linejoin:round; stroke-width:4; stroke-opacity:1; fill:none" points="1304.25,1171.03 1304.25,1152.13 "/>
<polyline clip-path="url(#clip660)" style="stroke:#000000; stroke-linecap:round; stroke-linejoin:round; stroke-width:4; stroke-opacity:1; fill:none" points="1660.49,1171.03 1660.49,1152.13 "/>
<path clip-path="url(#clip660)" d="M235.513 1198.75 Q231.902 1198.75 230.073 1202.31 Q228.267 1205.86 228.267 1212.98 Q228.267 1220.09 230.073 1223.66 Q231.902 1227.2 235.513 1227.2 Q239.147 1227.2 240.952 1223.66 Q242.781 1220.09 242.781 1212.98 Q242.781 1205.86 240.952 1202.31 Q239.147 1198.75 235.513 1198.75 M235.513 1195.05 Q241.323 1195.05 244.378 1199.65 Q247.457 1204.24 247.457 1212.98 Q247.457 1221.71 244.378 1226.32 Q241.323 1230.9 235.513 1230.9 Q229.703 1230.9 226.624 1226.32 Q223.568 1221.71 223.568 1212.98 Q223.568 1204.24 226.624 1199.65 Q229.703 1195.05 235.513 1195.05 Z" fill="#000000" fill-rule="nonzero" fill-opacity="1" /><path clip-path="url(#clip660)" d="M571.029 1226.3 L587.348 1226.3 L587.348 1230.23 L565.404 1230.23 L565.404 1226.3 Q568.066 1223.54 572.649 1218.91 Q577.255 1214.26 578.436 1212.92 Q580.681 1210.39 581.561 1208.66 Q582.464 1206.9 582.464 1205.21 Q582.464 1202.45 580.519 1200.72 Q578.598 1198.98 575.496 1198.98 Q573.297 1198.98 570.843 1199.74 Q568.413 1200.51 565.635 1202.06 L565.635 1197.34 Q568.459 1196.2 570.913 1195.62 Q573.367 1195.05 575.404 1195.05 Q580.774 1195.05 583.968 1197.73 Q587.163 1200.42 587.163 1204.91 Q587.163 1207.04 586.353 1208.96 Q585.566 1210.86 583.459 1213.45 Q582.88 1214.12 579.779 1217.34 Q576.677 1220.53 571.029 1226.3 Z" fill="#000000" fill-rule="nonzero" fill-opacity="1" /><path clip-path="url(#clip660)" d="M597.209 1195.67 L615.565 1195.67 L615.565 1199.61 L601.491 1199.61 L601.491 1208.08 Q602.51 1207.73 603.528 1207.57 Q604.547 1207.38 605.565 1207.38 Q611.352 1207.38 614.732 1210.55 Q618.112 1213.73 618.112 1219.14 Q618.112 1224.72 614.639 1227.82 Q611.167 1230.9 604.848 1230.9 Q602.672 1230.9 600.403 1230.53 Q598.158 1230.16 595.751 1229.42 L595.751 1224.72 Q597.834 1225.86 600.056 1226.41 Q602.278 1226.97 604.755 1226.97 Q608.76 1226.97 611.098 1224.86 Q613.436 1222.75 613.436 1219.14 Q613.436 1215.53 611.098 1213.42 Q608.76 1211.32 604.755 1211.32 Q602.88 1211.32 601.005 1211.74 Q599.153 1212.15 597.209 1213.03 L597.209 1195.67 Z" fill="#000000" fill-rule="nonzero" fill-opacity="1" /><path clip-path="url(#clip660)" d="M922.702 1195.67 L941.058 1195.67 L941.058 1199.61 L926.984 1199.61 L926.984 1208.08 Q928.003 1207.73 929.021 1207.57 Q930.04 1207.38 931.058 1207.38 Q936.845 1207.38 940.225 1210.55 Q943.605 1213.73 943.605 1219.14 Q943.605 1224.72 940.132 1227.82 Q936.66 1230.9 930.341 1230.9 Q928.165 1230.9 925.896 1230.53 Q923.651 1230.16 921.244 1229.42 L921.244 1224.72 Q923.327 1225.86 925.549 1226.41 Q927.771 1226.97 930.248 1226.97 Q934.253 1226.97 936.591 1224.86 Q938.929 1222.75 938.929 1219.14 Q938.929 1215.53 936.591 1213.42 Q934.253 1211.32 930.248 1211.32 Q928.373 1211.32 926.498 1211.74 Q924.646 1212.15 922.702 1213.03 L922.702 1195.67 Z" fill="#000000" fill-rule="nonzero" fill-opacity="1" /><path clip-path="url(#clip660)" d="M962.817 1198.75 Q959.206 1198.75 957.378 1202.31 Q955.572 1205.86 955.572 1212.98 Q955.572 1220.09 957.378 1223.66 Q959.206 1227.2 962.817 1227.2 Q966.452 1227.2 968.257 1223.66 Q970.086 1220.09 970.086 1212.98 Q970.086 1205.86 968.257 1202.31 Q966.452 1198.75 962.817 1198.75 M962.817 1195.05 Q968.628 1195.05 971.683 1199.65 Q974.762 1204.24 974.762 1212.98 Q974.762 1221.71 971.683 1226.32 Q968.628 1230.9 962.817 1230.9 Q957.007 1230.9 953.929 1226.32 Q950.873 1221.71 950.873 1212.98 Q950.873 1204.24 953.929 1199.65 Q957.007 1195.05 962.817 1195.05 Z" fill="#000000" fill-rule="nonzero" fill-opacity="1" /><path clip-path="url(#clip660)" d="M1278.1 1195.67 L1300.32 1195.67 L1300.32 1197.66 L1287.78 1230.23 L1282.89 1230.23 L1294.7 1199.61 L1278.1 1199.61 L1278.1 1195.67 Z" fill="#000000" fill-rule="nonzero" fill-opacity="1" /><path clip-path="url(#clip660)" d="M1309.49 1195.67 L1327.85 1195.67 L1327.85 1199.61 L1313.77 1199.61 L1313.77 1208.08 Q1314.79 1207.73 1315.81 1207.57 Q1316.83 1207.38 1317.85 1207.38 Q1323.63 1207.38 1327.01 1210.55 Q1330.39 1213.73 1330.39 1219.14 Q1330.39 1224.72 1326.92 1227.82 Q1323.45 1230.9 1317.13 1230.9 Q1314.95 1230.9 1312.69 1230.53 Q1310.44 1230.16 1308.03 1229.42 L1308.03 1224.72 Q1310.12 1225.86 1312.34 1226.41 Q1314.56 1226.97 1317.04 1226.97 Q1321.04 1226.97 1323.38 1224.86 Q1325.72 1222.75 1325.72 1219.14 Q1325.72 1215.53 1323.38 1213.42 Q1321.04 1211.32 1317.04 1211.32 Q1315.16 1211.32 1313.29 1211.74 Q1311.44 1212.15 1309.49 1213.03 L1309.49 1195.67 Z" fill="#000000" fill-rule="nonzero" fill-opacity="1" /><path clip-path="url(#clip660)" d="M1620.1 1226.3 L1627.74 1226.3 L1627.74 1199.93 L1619.43 1201.6 L1619.43 1197.34 L1627.69 1195.67 L1632.37 1195.67 L1632.37 1226.3 L1640.01 1226.3 L1640.01 1230.23 L1620.1 1230.23 L1620.1 1226.3 Z" fill="#000000" fill-rule="nonzero" fill-opacity="1" /><path clip-path="url(#clip660)" d="M1659.45 1198.75 Q1655.84 1198.75 1654.01 1202.31 Q1652.21 1205.86 1652.21 1212.98 Q1652.21 1220.09 1654.01 1223.66 Q1655.84 1227.2 1659.45 1227.2 Q1663.09 1227.2 1664.89 1223.66 Q1666.72 1220.09 1666.72 1212.98 Q1666.72 1205.86 1664.89 1202.31 Q1663.09 1198.75 1659.45 1198.75 M1659.45 1195.05 Q1665.26 1195.05 1668.32 1199.65 Q1671.4 1204.24 1671.4 1212.98 Q1671.4 1221.71 1668.32 1226.32 Q1665.26 1230.9 1659.45 1230.9 Q1653.64 1230.9 1650.56 1226.32 Q1647.51 1221.71 1647.51 1212.98 Q1647.51 1204.24 1650.56 1199.65 Q1653.64 1195.05 1659.45 1195.05 Z" fill="#000000" fill-rule="nonzero" fill-opacity="1" /><path clip-path="url(#clip660)" d="M1689.61 1198.75 Q1686 1198.75 1684.17 1202.31 Q1682.37 1205.86 1682.37 1212.98 Q1682.37 1220.09 1684.17 1223.66 Q1686 1227.2 1689.61 1227.2 Q1693.25 1227.2 1695.05 1223.66 Q1696.88 1220.09 1696.88 1212.98 Q1696.88 1205.86 1695.05 1202.31 Q1693.25 1198.75 1689.61 1198.75 M1689.61 1195.05 Q1695.42 1195.05 1698.48 1199.65 Q1701.56 1204.24 1701.56 1212.98 Q1701.56 1221.71 1698.48 1226.32 Q1695.42 1230.9 1689.61 1230.9 Q1683.8 1230.9 1680.72 1226.32 Q1677.67 1221.71 1677.67 1212.98 Q1677.67 1204.24 1680.72 1199.65 Q1683.8 1195.05 1689.61 1195.05 Z" fill="#000000" fill-rule="nonzero" fill-opacity="1" /><polyline clip-path="url(#clip660)" style="stroke:#000000; stroke-linecap:round; stroke-linejoin:round; stroke-width:4; stroke-opacity:1; fill:none" points="185.496,1171.03 185.496,107.256 "/>
<polyline clip-path="url(#clip660)" style="stroke:#000000; stroke-linecap:round; stroke-linejoin:round; stroke-width:4; stroke-opacity:1; fill:none" points="185.496,1091.12 204.394,1091.12 "/>
<polyline clip-path="url(#clip660)" style="stroke:#000000; stroke-linecap:round; stroke-linejoin:round; stroke-width:4; stroke-opacity:1; fill:none" points="185.496,852.678 204.394,852.678 "/>
<polyline clip-path="url(#clip660)" style="stroke:#000000; stroke-linecap:round; stroke-linejoin:round; stroke-width:4; stroke-opacity:1; fill:none" points="185.496,614.24 204.394,614.24 "/>
<polyline clip-path="url(#clip660)" style="stroke:#000000; stroke-linecap:round; stroke-linejoin:round; stroke-width:4; stroke-opacity:1; fill:none" points="185.496,375.801 204.394,375.801 "/>
<polyline clip-path="url(#clip660)" style="stroke:#000000; stroke-linecap:round; stroke-linejoin:round; stroke-width:4; stroke-opacity:1; fill:none" points="185.496,137.363 204.394,137.363 "/>
<path clip-path="url(#clip660)" d="M53.6634 1110.91 L61.3023 1110.91 L61.3023 1084.54 L52.9921 1086.21 L52.9921 1081.95 L61.256 1080.28 L65.9319 1080.28 L65.9319 1110.91 L73.5707 1110.91 L73.5707 1114.84 L53.6634 1114.84 L53.6634 1110.91 Z" fill="#000000" fill-rule="nonzero" fill-opacity="1" /><path clip-path="url(#clip660)" d="M93.0151 1083.36 Q89.404 1083.36 87.5753 1086.93 Q85.7697 1090.47 85.7697 1097.6 Q85.7697 1104.71 87.5753 1108.27 Q89.404 1111.81 93.0151 1111.81 Q96.6493 1111.81 98.4548 1108.27 Q100.284 1104.71 100.284 1097.6 Q100.284 1090.47 98.4548 1086.93 Q96.6493 1083.36 93.0151 1083.36 M93.0151 1079.66 Q98.8252 1079.66 101.881 1084.27 Q104.959 1088.85 104.959 1097.6 Q104.959 1106.33 101.881 1110.93 Q98.8252 1115.52 93.0151 1115.52 Q87.2049 1115.52 84.1262 1110.93 Q81.0707 1106.33 81.0707 1097.6 Q81.0707 1088.85 84.1262 1084.27 Q87.2049 1079.66 93.0151 1079.66 Z" fill="#000000" fill-rule="nonzero" fill-opacity="1" /><path clip-path="url(#clip660)" d="M104.959 1073.76 L129.071 1073.76 L129.071 1076.96 L104.959 1076.96 L104.959 1073.76 Z" fill="#000000" fill-rule="nonzero" fill-opacity="1" /><path clip-path="url(#clip660)" d="M147.71 1062.66 L138.118 1077.65 L147.71 1077.65 L147.71 1062.66 M146.713 1059.35 L151.49 1059.35 L151.49 1077.65 L155.496 1077.65 L155.496 1080.81 L151.49 1080.81 L151.49 1087.43 L147.71 1087.43 L147.71 1080.81 L135.033 1080.81 L135.033 1077.15 L146.713 1059.35 Z" fill="#000000" fill-rule="nonzero" fill-opacity="1" /><path clip-path="url(#clip660)" d="M54.585 872.471 L62.2238 872.471 L62.2238 846.105 L53.9137 847.772 L53.9137 843.513 L62.1776 841.846 L66.8535 841.846 L66.8535 872.471 L74.4923 872.471 L74.4923 876.406 L54.585 876.406 L54.585 872.471 Z" fill="#000000" fill-rule="nonzero" fill-opacity="1" /><path clip-path="url(#clip660)" d="M93.9366 844.925 Q90.3255 844.925 88.4969 848.489 Q86.6913 852.031 86.6913 859.161 Q86.6913 866.267 88.4969 869.832 Q90.3255 873.374 93.9366 873.374 Q97.5709 873.374 99.3764 869.832 Q101.205 866.267 101.205 859.161 Q101.205 852.031 99.3764 848.489 Q97.5709 844.925 93.9366 844.925 M93.9366 841.221 Q99.7468 841.221 102.802 845.827 Q105.881 850.411 105.881 859.161 Q105.881 867.887 102.802 872.494 Q99.7468 877.077 93.9366 877.077 Q88.1265 877.077 85.0478 872.494 Q81.9923 867.887 81.9923 859.161 Q81.9923 850.411 85.0478 845.827 Q88.1265 841.221 93.9366 841.221 Z" fill="#000000" fill-rule="nonzero" fill-opacity="1" /><path clip-path="url(#clip660)" d="M105.881 835.322 L129.993 835.322 L129.993 838.52 L105.881 838.52 L105.881 835.322 Z" fill="#000000" fill-rule="nonzero" fill-opacity="1" /><path clip-path="url(#clip660)" d="M149.703 833.855 Q152.43 834.438 153.954 836.282 Q155.496 838.125 155.496 840.833 Q155.496 844.99 152.637 847.265 Q149.778 849.541 144.512 849.541 Q142.744 849.541 140.863 849.184 Q139.002 848.845 137.008 848.149 L137.008 844.482 Q138.588 845.403 140.469 845.873 Q142.349 846.344 144.399 846.344 Q147.973 846.344 149.835 844.933 Q151.716 843.523 151.716 840.833 Q151.716 838.35 149.966 836.959 Q148.236 835.548 145.133 835.548 L141.86 835.548 L141.86 832.426 L145.283 832.426 Q148.086 832.426 149.571 831.316 Q151.057 830.188 151.057 828.081 Q151.057 825.918 149.515 824.771 Q147.992 823.605 145.133 823.605 Q143.572 823.605 141.785 823.944 Q139.998 824.282 137.854 824.997 L137.854 821.611 Q140.017 821.01 141.898 820.709 Q143.797 820.408 145.471 820.408 Q149.797 820.408 152.317 822.383 Q154.838 824.339 154.838 827.686 Q154.838 830.019 153.502 831.636 Q152.167 833.235 149.703 833.855 Z" fill="#000000" fill-rule="nonzero" fill-opacity="1" /><path clip-path="url(#clip660)" d="M55.3561 634.032 L62.995 634.032 L62.995 607.667 L54.6848 609.333 L54.6848 605.074 L62.9487 603.407 L67.6246 603.407 L67.6246 634.032 L75.2634 634.032 L75.2634 637.967 L55.3561 637.967 L55.3561 634.032 Z" fill="#000000" fill-rule="nonzero" fill-opacity="1" /><path clip-path="url(#clip660)" d="M94.7078 606.486 Q91.0967 606.486 89.268 610.051 Q87.4624 613.593 87.4624 620.722 Q87.4624 627.829 89.268 631.393 Q91.0967 634.935 94.7078 634.935 Q98.342 634.935 100.148 631.393 Q101.976 627.829 101.976 620.722 Q101.976 613.593 100.148 610.051 Q98.342 606.486 94.7078 606.486 M94.7078 602.782 Q100.518 602.782 103.573 607.389 Q106.652 611.972 106.652 620.722 Q106.652 629.449 103.573 634.055 Q100.518 638.639 94.7078 638.639 Q88.8976 638.639 85.8189 634.055 Q82.7634 629.449 82.7634 620.722 Q82.7634 611.972 85.8189 607.389 Q88.8976 602.782 94.7078 602.782 Z" fill="#000000" fill-rule="nonzero" fill-opacity="1" /><path clip-path="url(#clip660)" d="M106.652 596.884 L130.764 596.884 L130.764 600.081 L106.652 600.081 L106.652 596.884 Z" fill="#000000" fill-rule="nonzero" fill-opacity="1" /><path clip-path="url(#clip660)" d="M142.236 607.36 L155.496 607.36 L155.496 610.557 L137.666 610.557 L137.666 607.36 Q139.829 605.122 143.553 601.36 Q147.296 597.58 148.255 596.489 Q150.079 594.439 150.794 593.028 Q151.527 591.599 151.527 590.226 Q151.527 587.988 149.948 586.577 Q148.387 585.167 145.866 585.167 Q144.08 585.167 142.086 585.787 Q140.111 586.408 137.854 587.668 L137.854 583.831 Q140.149 582.91 142.142 582.439 Q144.136 581.969 145.791 581.969 Q150.155 581.969 152.75 584.151 Q155.345 586.333 155.345 589.981 Q155.345 591.712 154.687 593.273 Q154.048 594.815 152.336 596.921 Q151.866 597.467 149.346 600.081 Q146.826 602.677 142.236 607.36 Z" fill="#000000" fill-rule="nonzero" fill-opacity="1" /><path clip-path="url(#clip660)" d="M55.0552 395.594 L62.694 395.594 L62.694 369.228 L54.3839 370.895 L54.3839 366.636 L62.6477 364.969 L67.3236 364.969 L67.3236 395.594 L74.9625 395.594 L74.9625 399.529 L55.0552 399.529 L55.0552 395.594 Z" fill="#000000" fill-rule="nonzero" fill-opacity="1" /><path clip-path="url(#clip660)" d="M94.4068 368.048 Q90.7957 368.048 88.967 371.612 Q87.1615 375.154 87.1615 382.284 Q87.1615 389.39 88.967 392.955 Q90.7957 396.496 94.4068 396.496 Q98.0411 396.496 99.8466 392.955 Q101.675 389.39 101.675 382.284 Q101.675 375.154 99.8466 371.612 Q98.0411 368.048 94.4068 368.048 M94.4068 364.344 Q100.217 364.344 103.273 368.95 Q106.351 373.534 106.351 382.284 Q106.351 391.01 103.273 395.617 Q100.217 400.2 94.4068 400.2 Q88.5967 400.2 85.518 395.617 Q82.4625 391.01 82.4625 382.284 Q82.4625 373.534 85.518 368.95 Q88.5967 364.344 94.4068 364.344 Z" fill="#000000" fill-rule="nonzero" fill-opacity="1" /><path clip-path="url(#clip660)" d="M106.351 358.445 L130.463 358.445 L130.463 361.643 L106.351 361.643 L106.351 358.445 Z" fill="#000000" fill-rule="nonzero" fill-opacity="1" /><path clip-path="url(#clip660)" d="M139.321 368.921 L145.528 368.921 L145.528 347.499 L138.776 348.853 L138.776 345.393 L145.49 344.038 L149.289 344.038 L149.289 368.921 L155.496 368.921 L155.496 372.118 L139.321 372.118 L139.321 368.921 Z" fill="#000000" fill-rule="nonzero" fill-opacity="1" /><path clip-path="url(#clip660)" d="M84.7903 157.155 L92.4291 157.155 L92.4291 130.79 L84.119 132.456 L84.119 128.197 L92.3828 126.53 L97.0587 126.53 L97.0587 157.155 L104.698 157.155 L104.698 161.09 L84.7903 161.09 L84.7903 157.155 Z" fill="#000000" fill-rule="nonzero" fill-opacity="1" /><path clip-path="url(#clip660)" d="M124.142 129.609 Q120.531 129.609 118.702 133.174 Q116.897 136.715 116.897 143.845 Q116.897 150.951 118.702 154.516 Q120.531 158.058 124.142 158.058 Q127.776 158.058 129.582 154.516 Q131.41 150.951 131.41 143.845 Q131.41 136.715 129.582 133.174 Q127.776 129.609 124.142 129.609 M124.142 125.905 Q129.952 125.905 133.008 130.512 Q136.086 135.095 136.086 143.845 Q136.086 152.572 133.008 157.178 Q129.952 161.762 124.142 161.762 Q118.332 161.762 115.253 157.178 Q112.198 152.572 112.198 143.845 Q112.198 135.095 115.253 130.512 Q118.332 125.905 124.142 125.905 Z" fill="#000000" fill-rule="nonzero" fill-opacity="1" /><path clip-path="url(#clip660)" d="M145.791 108.101 Q142.857 108.101 141.371 110.998 Q139.904 113.875 139.904 119.668 Q139.904 125.442 141.371 128.338 Q142.857 131.216 145.791 131.216 Q148.744 131.216 150.211 128.338 Q151.697 125.442 151.697 119.668 Q151.697 113.875 150.211 110.998 Q148.744 108.101 145.791 108.101 M145.791 105.092 Q150.512 105.092 152.994 108.835 Q155.496 112.559 155.496 119.668 Q155.496 126.759 152.994 130.501 Q150.512 134.225 145.791 134.225 Q141.07 134.225 138.569 130.501 Q136.086 126.759 136.086 119.668 Q136.086 112.559 138.569 108.835 Q141.07 105.092 145.791 105.092 Z" fill="#000000" fill-rule="nonzero" fill-opacity="1" /><g clip-path="url(#clip660)">
<text style="fill:#000000; fill-opacity:1; font-family:Arial,Helvetica Neue,Helvetica,sans-serif; font-size:66px; text-anchor:middle;" transform="rotate(0, 1069.13, 57.6)" x="1069.13" y="57.6">Diagonal preconditioning in CG</text>
</g>
<polyline clip-path="url(#clip662)" style="stroke:#009af9; stroke-linecap:round; stroke-linejoin:round; stroke-width:8; stroke-opacity:1; fill:none" points="235.513,137.363 249.763,174.693 264.012,251.759 278.262,283.297 292.512,282.649 306.762,288.445 321.011,313.656 335.261,344.389 349.511,364.462 363.761,373.869 378.011,376.294 392.26,388.08 406.51,405.366 420.76,416.933 435.01,422.837 449.26,427.146 463.509,433.242 477.759,442.345 492.009,452.34 506.259,458.9 520.509,461.897 534.758,466.732 549.008,473.608 563.258,479.027 577.508,484.088 591.758,490.208 606.007,494.91 620.257,502.533 634.507,509.1 648.757,512.311 663.007,519.792 677.256,523.48 691.506,528.977 705.756,533.538 720.006,537.44 734.256,541.74 748.505,546.673 762.755,552.677 777.005,555.394 791.255,560.896 805.505,562.311 819.754,566.671 834.004,568.272 848.254,570.154 862.504,573.109 876.754,574.106 891.003,576.519 905.253,580.328 919.503,582.142 933.753,585.834 948.003,587.94 962.252,592.368 976.502,597.629 990.752,601.561 1005,607.081 1019.25,612.271 1033.5,616.701 1047.75,622.418 1062,627.831 1076.25,632.937 1090.5,637.286 1104.75,640.637 1119,646.988 1133.25,651.743 1147.5,656.908 1161.75,661.72 1176,668.205 1190.25,670.88 1204.5,676.959 1218.75,680.35 1233,684.264 1247.25,689.108 1261.5,693.105 1275.75,699.291 1290,706.235 1304.25,713.945 1318.5,720.594 1332.75,731.157 1347,737.61 1361.25,748.956 1375.5,756.49 1389.75,766.272 1404,774.557 1418.25,783.753 1432.5,794.895 1446.75,802.881 1461,814.241 1475.25,824.63 1489.49,837.287 1503.74,847.791 1517.99,858.945 1532.24,868.935 1546.49,882.167 1560.74,891.693 1574.99,904.738 1589.24,915.599 1603.49,923.623 1617.74,931.524 1631.99,942.045 1646.24,949.349 1660.49,958.363 1674.74,966.796 1688.99,977.543 1703.24,987.304 1717.49,997.778 1731.74,1010.7 1745.99,1021.05 1760.24,1033.59 1774.49,1044.34 1788.74,1056.27 1802.99,1068.12 1817.24,1076.93 1831.49,1087.18 1845.74,1097.95 1859.99,1108.99 1874.24,1119.6 1888.49,1130.41 1902.74,1140.92 "/>
<polyline clip-path="url(#clip662)" style="stroke:#e26f46; stroke-linecap:round; stroke-linejoin:round; stroke-width:8; stroke-opacity:1; fill:none" points="235.513,137.363 249.763,196.996 264.012,277.479 278.262,337.375 292.512,391.205 306.762,447.139 321.011,493.561 335.261,542.09 349.511,576.865 363.761,616.611 378.011,680.197 392.26,741.648 406.51,799.586 420.76,845.704 435.01,894.97 449.26,942.652 463.509,982.661 477.759,1022.94 492.009,1076.89 "/>
<path clip-path="url(#clip660)" d="M1369.58 298.235 L1893.85 298.235 L1893.85 142.715 L1369.58 142.715  Z" fill="#ffffff" fill-rule="evenodd" fill-opacity="1"/>
<polyline clip-path="url(#clip660)" style="stroke:#000000; stroke-linecap:round; stroke-linejoin:round; stroke-width:4; stroke-opacity:1; fill:none" points="1369.58,298.235 1893.85,298.235 1893.85,142.715 1369.58,142.715 1369.58,298.235 "/>
<polyline clip-path="url(#clip660)" style="stroke:#009af9; stroke-linecap:round; stroke-linejoin:round; stroke-width:8; stroke-opacity:1; fill:none" points="1389.21,194.555 1507.03,194.555 "/>
<path clip-path="url(#clip660)" d="M1530.95 207.946 L1530.95 221.696 L1526.67 221.696 L1526.67 185.909 L1530.95 185.909 L1530.95 189.844 Q1532.29 187.53 1534.33 186.418 Q1536.39 185.284 1539.24 185.284 Q1543.96 185.284 1546.9 189.034 Q1549.86 192.784 1549.86 198.895 Q1549.86 205.006 1546.9 208.756 Q1543.96 212.506 1539.24 212.506 Q1536.39 212.506 1534.33 211.395 Q1532.29 210.261 1530.95 207.946 M1545.44 198.895 Q1545.44 194.196 1543.5 191.534 Q1541.57 188.849 1538.19 188.849 Q1534.81 188.849 1532.87 191.534 Q1530.95 194.196 1530.95 198.895 Q1530.95 203.594 1532.87 206.28 Q1534.81 208.942 1538.19 208.942 Q1541.57 208.942 1543.5 206.28 Q1545.44 203.594 1545.44 198.895 Z" fill="#000000" fill-rule="nonzero" fill-opacity="1" /><path clip-path="url(#clip660)" d="M1556.92 175.817 L1561.18 175.817 L1561.18 211.835 L1556.92 211.835 L1556.92 175.817 Z" fill="#000000" fill-rule="nonzero" fill-opacity="1" /><path clip-path="url(#clip660)" d="M1581.87 198.803 Q1576.71 198.803 1574.72 199.983 Q1572.73 201.164 1572.73 204.011 Q1572.73 206.28 1574.21 207.622 Q1575.72 208.942 1578.29 208.942 Q1581.83 208.942 1583.96 206.442 Q1586.11 203.918 1586.11 199.752 L1586.11 198.803 L1581.87 198.803 M1590.37 197.043 L1590.37 211.835 L1586.11 211.835 L1586.11 207.9 Q1584.65 210.261 1582.48 211.395 Q1580.3 212.506 1577.15 212.506 Q1573.17 212.506 1570.81 210.284 Q1568.47 208.039 1568.47 204.289 Q1568.47 199.914 1571.39 197.692 Q1574.33 195.469 1580.14 195.469 L1586.11 195.469 L1586.11 195.053 Q1586.11 192.113 1584.17 190.516 Q1582.24 188.895 1578.75 188.895 Q1576.53 188.895 1574.42 189.428 Q1572.31 189.96 1570.37 191.025 L1570.37 187.09 Q1572.71 186.187 1574.91 185.747 Q1577.11 185.284 1579.19 185.284 Q1584.81 185.284 1587.59 188.201 Q1590.37 191.118 1590.37 197.043 Z" fill="#000000" fill-rule="nonzero" fill-opacity="1" /><path clip-path="url(#clip660)" d="M1599.14 185.909 L1603.4 185.909 L1603.4 211.835 L1599.14 211.835 L1599.14 185.909 M1599.14 175.817 L1603.4 175.817 L1603.4 181.21 L1599.14 181.21 L1599.14 175.817 Z" fill="#000000" fill-rule="nonzero" fill-opacity="1" /><path clip-path="url(#clip660)" d="M1633.87 196.187 L1633.87 211.835 L1629.61 211.835 L1629.61 196.326 Q1629.61 192.645 1628.17 190.817 Q1626.74 188.988 1623.87 188.988 Q1620.42 188.988 1618.43 191.187 Q1616.43 193.386 1616.43 197.182 L1616.43 211.835 L1612.15 211.835 L1612.15 185.909 L1616.43 185.909 L1616.43 189.937 Q1617.96 187.599 1620.02 186.442 Q1622.11 185.284 1624.81 185.284 Q1629.28 185.284 1631.57 188.062 Q1633.87 190.817 1633.87 196.187 Z" fill="#000000" fill-rule="nonzero" fill-opacity="1" /><polyline clip-path="url(#clip660)" style="stroke:#e26f46; stroke-linecap:round; stroke-linejoin:round; stroke-width:8; stroke-opacity:1; fill:none" points="1389.21,246.395 1507.03,246.395 "/>
<path clip-path="url(#clip660)" d="M1530.95 259.786 L1530.95 273.536 L1526.67 273.536 L1526.67 237.749 L1530.95 237.749 L1530.95 241.684 Q1532.29 239.37 1534.33 238.258 Q1536.39 237.124 1539.24 237.124 Q1543.96 237.124 1546.9 240.874 Q1549.86 244.624 1549.86 250.735 Q1549.86 256.846 1546.9 260.596 Q1543.96 264.346 1539.24 264.346 Q1536.39 264.346 1534.33 263.235 Q1532.29 262.101 1530.95 259.786 M1545.44 250.735 Q1545.44 246.036 1543.5 243.374 Q1541.57 240.689 1538.19 240.689 Q1534.81 240.689 1532.87 243.374 Q1530.95 246.036 1530.95 250.735 Q1530.95 255.434 1532.87 258.12 Q1534.81 260.782 1538.19 260.782 Q1541.57 260.782 1543.5 258.12 Q1545.44 255.434 1545.44 250.735 Z" fill="#000000" fill-rule="nonzero" fill-opacity="1" /><path clip-path="url(#clip660)" d="M1571.94 241.731 Q1571.23 241.314 1570.37 241.129 Q1569.54 240.921 1568.52 240.921 Q1564.91 240.921 1562.96 243.282 Q1561.04 245.62 1561.04 250.018 L1561.04 263.675 L1556.76 263.675 L1556.76 237.749 L1561.04 237.749 L1561.04 241.777 Q1562.38 239.416 1564.54 238.282 Q1566.69 237.124 1569.77 237.124 Q1570.21 237.124 1570.74 237.194 Q1571.27 237.24 1571.92 237.356 L1571.94 241.731 Z" fill="#000000" fill-rule="nonzero" fill-opacity="1" /><path clip-path="url(#clip660)" d="M1597.55 249.647 L1597.55 251.731 L1577.96 251.731 Q1578.24 256.129 1580.6 258.444 Q1582.99 260.735 1587.22 260.735 Q1589.68 260.735 1591.97 260.133 Q1594.28 259.532 1596.55 258.328 L1596.55 262.356 Q1594.26 263.328 1591.85 263.837 Q1589.44 264.346 1586.97 264.346 Q1580.76 264.346 1577.13 260.735 Q1573.52 257.124 1573.52 250.967 Q1573.52 244.601 1576.94 240.874 Q1580.39 237.124 1586.23 237.124 Q1591.46 237.124 1594.49 240.504 Q1597.55 243.86 1597.55 249.647 M1593.29 248.397 Q1593.24 244.902 1591.32 242.819 Q1589.42 240.735 1586.27 240.735 Q1582.71 240.735 1580.56 242.749 Q1578.43 244.763 1578.1 248.42 L1593.29 248.397 Z" fill="#000000" fill-rule="nonzero" fill-opacity="1" /><path clip-path="url(#clip660)" d="M1623.19 238.745 L1623.19 242.726 Q1621.39 241.731 1619.56 241.245 Q1617.75 240.735 1615.9 240.735 Q1611.76 240.735 1609.47 243.374 Q1607.18 245.99 1607.18 250.735 Q1607.18 255.481 1609.47 258.12 Q1611.76 260.735 1615.9 260.735 Q1617.75 260.735 1619.56 260.249 Q1621.39 259.74 1623.19 258.744 L1623.19 262.68 Q1621.41 263.513 1619.49 263.93 Q1617.59 264.346 1615.44 264.346 Q1609.58 264.346 1606.13 260.666 Q1602.68 256.985 1602.68 250.735 Q1602.68 244.393 1606.16 240.758 Q1609.65 237.124 1615.72 237.124 Q1617.68 237.124 1619.56 237.541 Q1621.43 237.934 1623.19 238.745 Z" fill="#000000" fill-rule="nonzero" fill-opacity="1" /><path clip-path="url(#clip660)" d="M1640.65 240.735 Q1637.22 240.735 1635.23 243.421 Q1633.24 246.083 1633.24 250.735 Q1633.24 255.388 1635.21 258.073 Q1637.2 260.735 1640.65 260.735 Q1644.05 260.735 1646.04 258.05 Q1648.03 255.365 1648.03 250.735 Q1648.03 246.129 1646.04 243.444 Q1644.05 240.735 1640.65 240.735 M1640.65 237.124 Q1646.2 237.124 1649.37 240.735 Q1652.55 244.346 1652.55 250.735 Q1652.55 257.101 1649.37 260.735 Q1646.2 264.346 1640.65 264.346 Q1635.07 264.346 1631.9 260.735 Q1628.75 257.101 1628.75 250.735 Q1628.75 244.346 1631.9 240.735 Q1635.07 237.124 1640.65 237.124 Z" fill="#000000" fill-rule="nonzero" fill-opacity="1" /><path clip-path="url(#clip660)" d="M1681.16 248.027 L1681.16 263.675 L1676.9 263.675 L1676.9 248.166 Q1676.9 244.485 1675.46 242.657 Q1674.03 240.828 1671.16 240.828 Q1667.71 240.828 1665.72 243.027 Q1663.73 245.226 1663.73 249.022 L1663.73 263.675 L1659.44 263.675 L1659.44 237.749 L1663.73 237.749 L1663.73 241.777 Q1665.25 239.439 1667.31 238.282 Q1669.4 237.124 1672.11 237.124 Q1676.57 237.124 1678.86 239.902 Q1681.16 242.657 1681.16 248.027 Z" fill="#000000" fill-rule="nonzero" fill-opacity="1" /><path clip-path="url(#clip660)" d="M1706.71 241.684 L1706.71 227.657 L1710.97 227.657 L1710.97 263.675 L1706.71 263.675 L1706.71 259.786 Q1705.37 262.101 1703.31 263.235 Q1701.27 264.346 1698.4 264.346 Q1693.7 264.346 1690.74 260.596 Q1687.8 256.846 1687.8 250.735 Q1687.8 244.624 1690.74 240.874 Q1693.7 237.124 1698.4 237.124 Q1701.27 237.124 1703.31 238.258 Q1705.37 239.37 1706.71 241.684 M1692.2 250.735 Q1692.2 255.434 1694.12 258.12 Q1696.06 260.782 1699.44 260.782 Q1702.82 260.782 1704.77 258.12 Q1706.71 255.434 1706.71 250.735 Q1706.71 246.036 1704.77 243.374 Q1702.82 240.689 1699.44 240.689 Q1696.06 240.689 1694.12 243.374 Q1692.2 246.036 1692.2 250.735 Z" fill="#000000" fill-rule="nonzero" fill-opacity="1" /><path clip-path="url(#clip660)" d="M1719.74 237.749 L1724 237.749 L1724 263.675 L1719.74 263.675 L1719.74 237.749 M1719.74 227.657 L1724 227.657 L1724 233.05 L1719.74 233.05 L1719.74 227.657 Z" fill="#000000" fill-rule="nonzero" fill-opacity="1" /><path clip-path="url(#clip660)" d="M1737.13 230.388 L1737.13 237.749 L1745.9 237.749 L1745.9 241.059 L1737.13 241.059 L1737.13 255.133 Q1737.13 258.305 1737.98 259.207 Q1738.86 260.11 1741.53 260.11 L1745.9 260.11 L1745.9 263.675 L1741.53 263.675 Q1736.6 263.675 1734.72 261.846 Q1732.85 259.994 1732.85 255.133 L1732.85 241.059 L1729.72 241.059 L1729.72 237.749 L1732.85 237.749 L1732.85 230.388 L1737.13 230.388 Z" fill="#000000" fill-rule="nonzero" fill-opacity="1" /><path clip-path="url(#clip660)" d="M1751.5 237.749 L1755.76 237.749 L1755.76 263.675 L1751.5 263.675 L1751.5 237.749 M1751.5 227.657 L1755.76 227.657 L1755.76 233.05 L1751.5 233.05 L1751.5 227.657 Z" fill="#000000" fill-rule="nonzero" fill-opacity="1" /><path clip-path="url(#clip660)" d="M1774.72 240.735 Q1771.29 240.735 1769.3 243.421 Q1767.31 246.083 1767.31 250.735 Q1767.31 255.388 1769.28 258.073 Q1771.27 260.735 1774.72 260.735 Q1778.12 260.735 1780.11 258.05 Q1782.11 255.365 1782.11 250.735 Q1782.11 246.129 1780.11 243.444 Q1778.12 240.735 1774.72 240.735 M1774.72 237.124 Q1780.28 237.124 1783.45 240.735 Q1786.62 244.346 1786.62 250.735 Q1786.62 257.101 1783.45 260.735 Q1780.28 264.346 1774.72 264.346 Q1769.14 264.346 1765.97 260.735 Q1762.82 257.101 1762.82 250.735 Q1762.82 244.346 1765.97 240.735 Q1769.14 237.124 1774.72 237.124 Z" fill="#000000" fill-rule="nonzero" fill-opacity="1" /><path clip-path="url(#clip660)" d="M1815.23 248.027 L1815.23 263.675 L1810.97 263.675 L1810.97 248.166 Q1810.97 244.485 1809.54 242.657 Q1808.1 240.828 1805.23 240.828 Q1801.78 240.828 1799.79 243.027 Q1797.8 245.226 1797.8 249.022 L1797.8 263.675 L1793.52 263.675 L1793.52 237.749 L1797.8 237.749 L1797.8 241.777 Q1799.33 239.439 1801.39 238.282 Q1803.47 237.124 1806.18 237.124 Q1810.65 237.124 1812.94 239.902 Q1815.23 242.657 1815.23 248.027 Z" fill="#000000" fill-rule="nonzero" fill-opacity="1" /><path clip-path="url(#clip660)" d="M1845.9 249.647 L1845.9 251.731 L1826.32 251.731 Q1826.6 256.129 1828.96 258.444 Q1831.34 260.735 1835.58 260.735 Q1838.03 260.735 1840.32 260.133 Q1842.64 259.532 1844.91 258.328 L1844.91 262.356 Q1842.61 263.328 1840.21 263.837 Q1837.8 264.346 1835.32 264.346 Q1829.12 264.346 1825.48 260.735 Q1821.87 257.124 1821.87 250.967 Q1821.87 244.601 1825.3 240.874 Q1828.75 237.124 1834.58 237.124 Q1839.81 237.124 1842.85 240.504 Q1845.9 243.86 1845.9 249.647 M1841.64 248.397 Q1841.6 244.902 1839.67 242.819 Q1837.78 240.735 1834.63 240.735 Q1831.06 240.735 1828.91 242.749 Q1826.78 244.763 1826.46 248.42 L1841.64 248.397 Z" fill="#000000" fill-rule="nonzero" fill-opacity="1" /><path clip-path="url(#clip660)" d="M1869.95 241.684 L1869.95 227.657 L1874.21 227.657 L1874.21 263.675 L1869.95 263.675 L1869.95 259.786 Q1868.61 262.101 1866.55 263.235 Q1864.51 264.346 1861.64 264.346 Q1856.94 264.346 1853.98 260.596 Q1851.04 256.846 1851.04 250.735 Q1851.04 244.624 1853.98 240.874 Q1856.94 237.124 1861.64 237.124 Q1864.51 237.124 1866.55 238.258 Q1868.61 239.37 1869.95 241.684 M1855.44 250.735 Q1855.44 255.434 1857.36 258.12 Q1859.3 260.782 1862.68 260.782 Q1866.06 260.782 1868.01 258.12 Q1869.95 255.434 1869.95 250.735 Q1869.95 246.036 1868.01 243.374 Q1866.06 240.689 1862.68 240.689 Q1859.3 240.689 1857.36 243.374 Q1855.44 246.036 1855.44 250.735 Z" fill="#000000" fill-rule="nonzero" fill-opacity="1" /></svg>
