<?xml version="1.0" encoding="utf-8"?>
<svg xmlns="http://www.w3.org/2000/svg" xmlns:xlink="http://www.w3.org/1999/xlink" width="500" height="320" viewBox="0 0 2000 1280">
<defs>
  <clipPath id="clip750">
    <rect x="0" y="0" width="2000" height="1280"/>
  </clipPath>
</defs>
<path clip-path="url(#clip750)" d="M0 1280 L2000 1280 L2000 -2.66454e-14 L0 -2.66454e-14  Z" fill="#ffffff" fill-rule="evenodd" fill-opacity="1"/>
<defs>
  <clipPath id="clip751">
    <rect x="185" y="107" width="1768" height="1065"/>
  </clipPath>
</defs>
<path clip-path="url(#clip750)" d="M244.586 1111.02 L1952.76 1111.02 L1952.76 107.256 L244.586 107.256  Z" fill="#ffffff" fill-rule="evenodd" fill-opacity="1"/>
<defs>
  <clipPath id="clip752">
    <rect x="244" y="107" width="1709" height="1005"/>
  </clipPath>
</defs>
<polyline clip-path="url(#clip752)" style="stroke:#000000; stroke-linecap:round; stroke-linejoin:round; stroke-width:2; stroke-opacity:0.1; fill:none" points="292.931,1111.02 292.931,107.256 "/>
<polyline clip-path="url(#clip752)" style="stroke:#000000; stroke-linecap:round; stroke-linejoin:round; stroke-width:2; stroke-opacity:0.1; fill:none" points="695.801,1111.02 695.801,107.256 "/>
<polyline clip-path="url(#clip752)" style="stroke:#000000; stroke-linecap:round; stroke-linejoin:round; stroke-width:2; stroke-opacity:0.1; fill:none" points="1098.67,1111.02 1098.67,107.256 "/>
<polyline clip-path="url(#clip752)" style="stroke:#000000; stroke-linecap:round; stroke-linejoin:round; stroke-width:2; stroke-opacity:0.1; fill:none" points="1501.54,1111.02 1501.54,107.256 "/>
<polyline clip-path="url(#clip752)" style="stroke:#000000; stroke-linecap:round; stroke-linejoin:round; stroke-width:2; stroke-opacity:0.1; fill:none" points="1904.41,1111.02 1904.41,107.256 "/>
<polyline clip-path="url(#clip752)" style="stroke:#000000; stroke-linecap:round; stroke-linejoin:round; stroke-width:2; stroke-opacity:0.1; fill:none" points="244.586,669.565 1952.76,669.565 "/>
<polyline clip-path="url(#clip752)" style="stroke:#000000; stroke-linecap:round; stroke-linejoin:round; stroke-width:2; stroke-opacity:0.1; fill:none" points="244.586,135.664 1952.76,135.664 "/>
<polyline clip-path="url(#clip750)" style="stroke:#000000; stroke-linecap:round; stroke-linejoin:round; stroke-width:4; stroke-opacity:1; fill:none" points="244.586,1111.02 1952.76,1111.02 "/>
<polyline clip-path="url(#clip750)" style="stroke:#000000; stroke-linecap:round; stroke-linejoin:round; stroke-width:4; stroke-opacity:1; fill:none" points="292.931,1111.02 292.931,1092.12 "/>
<polyline clip-path="url(#clip750)" style="stroke:#000000; stroke-linecap:round; stroke-linejoin:round; stroke-width:4; stroke-opacity:1; fill:none" points="695.801,1111.02 695.801,1092.12 "/>
<polyline clip-path="url(#clip750)" style="stroke:#000000; stroke-linecap:round; stroke-linejoin:round; stroke-width:4; stroke-opacity:1; fill:none" points="1098.67,1111.02 1098.67,1092.12 "/>
<polyline clip-path="url(#clip750)" style="stroke:#000000; stroke-linecap:round; stroke-linejoin:round; stroke-width:4; stroke-opacity:1; fill:none" points="1501.54,1111.02 1501.54,1092.12 "/>
<polyline clip-path="url(#clip750)" style="stroke:#000000; stroke-linecap:round; stroke-linejoin:round; stroke-width:4; stroke-opacity:1; fill:none" points="1904.41,1111.02 1904.41,1092.12 "/>
<path clip-path="url(#clip750)" d="M292.931 1138.74 Q289.319 1138.74 287.491 1142.3 Q285.685 1145.84 285.685 1152.97 Q285.685 1160.08 287.491 1163.64 Q289.319 1167.19 292.931 1167.19 Q296.565 1167.19 298.37 1163.64 Q300.199 1160.08 300.199 1152.97 Q300.199 1145.84 298.37 1142.3 Q296.565 1138.74 292.931 1138.74 M292.931 1135.03 Q298.741 1135.03 301.796 1139.64 Q304.875 1144.22 304.875 1152.97 Q304.875 1161.7 301.796 1166.31 Q298.741 1170.89 292.931 1170.89 Q287.12 1170.89 284.042 1166.31 Q280.986 1161.7 280.986 1152.97 Q280.986 1144.22 284.042 1139.64 Q287.12 1135.03 292.931 1135.03 Z" fill="#000000" fill-rule="nonzero" fill-opacity="1" /><path clip-path="url(#clip750)" d="M670.488 1166.28 L678.127 1166.28 L678.127 1139.92 L669.817 1141.58 L669.817 1137.33 L678.081 1135.66 L682.757 1135.66 L682.757 1166.28 L690.396 1166.28 L690.396 1170.22 L670.488 1170.22 L670.488 1166.28 Z" fill="#000000" fill-rule="nonzero" fill-opacity="1" /><path clip-path="url(#clip750)" d="M709.84 1138.74 Q706.229 1138.74 704.4 1142.3 Q702.595 1145.84 702.595 1152.97 Q702.595 1160.08 704.4 1163.64 Q706.229 1167.19 709.84 1167.19 Q713.474 1167.19 715.28 1163.64 Q717.109 1160.08 717.109 1152.97 Q717.109 1145.84 715.28 1142.3 Q713.474 1138.74 709.84 1138.74 M709.84 1135.03 Q715.65 1135.03 718.706 1139.64 Q721.784 1144.22 721.784 1152.97 Q721.784 1161.7 718.706 1166.31 Q715.65 1170.89 709.84 1170.89 Q704.03 1170.89 700.951 1166.31 Q697.896 1161.7 697.896 1152.97 Q697.896 1144.22 700.951 1139.64 Q704.03 1135.03 709.84 1135.03 Z" fill="#000000" fill-rule="nonzero" fill-opacity="1" /><path clip-path="url(#clip750)" d="M1077.44 1166.28 L1093.76 1166.28 L1093.76 1170.22 L1071.82 1170.22 L1071.82 1166.28 Q1074.48 1163.53 1079.06 1158.9 Q1083.67 1154.25 1084.85 1152.9 Q1087.1 1150.38 1087.98 1148.64 Q1088.88 1146.89 1088.88 1145.2 Q1088.88 1142.44 1086.93 1140.7 Q1085.01 1138.97 1081.91 1138.97 Q1079.71 1138.97 1077.26 1139.73 Q1074.83 1140.5 1072.05 1142.05 L1072.05 1137.33 Q1074.87 1136.19 1077.33 1135.61 Q1079.78 1135.03 1081.82 1135.03 Q1087.19 1135.03 1090.38 1137.72 Q1093.58 1140.4 1093.58 1144.89 Q1093.58 1147.02 1092.77 1148.95 Q1091.98 1150.84 1089.87 1153.44 Q1089.3 1154.11 1086.19 1157.33 Q1083.09 1160.52 1077.44 1166.28 Z" fill="#000000" fill-rule="nonzero" fill-opacity="1" /><path clip-path="url(#clip750)" d="M1113.58 1138.74 Q1109.97 1138.74 1108.14 1142.3 Q1106.33 1145.84 1106.33 1152.97 Q1106.33 1160.08 1108.14 1163.64 Q1109.97 1167.19 1113.58 1167.19 Q1117.21 1167.19 1119.02 1163.64 Q1120.85 1160.08 1120.85 1152.97 Q1120.85 1145.84 1119.02 1142.3 Q1117.21 1138.74 1113.58 1138.74 M1113.58 1135.03 Q1119.39 1135.03 1122.44 1139.64 Q1125.52 1144.22 1125.52 1152.97 Q1125.52 1161.7 1122.44 1166.31 Q1119.39 1170.89 1113.58 1170.89 Q1107.77 1170.89 1104.69 1166.31 Q1101.63 1161.7 1101.63 1152.97 Q1101.63 1144.22 1104.69 1139.64 Q1107.77 1135.03 1113.58 1135.03 Z" fill="#000000" fill-rule="nonzero" fill-opacity="1" /><path clip-path="url(#clip750)" d="M1490.38 1151.58 Q1493.74 1152.3 1495.62 1154.57 Q1497.51 1156.84 1497.51 1160.17 Q1497.51 1165.29 1493.99 1168.09 Q1490.48 1170.89 1484 1170.89 Q1481.82 1170.89 1479.5 1170.45 Q1477.21 1170.03 1474.76 1169.18 L1474.76 1164.66 Q1476.7 1165.8 1479.02 1166.38 Q1481.33 1166.95 1483.86 1166.95 Q1488.25 1166.95 1490.55 1165.22 Q1492.86 1163.48 1492.86 1160.17 Q1492.86 1157.12 1490.71 1155.4 Q1488.58 1153.67 1484.76 1153.67 L1480.73 1153.67 L1480.73 1149.83 L1484.94 1149.83 Q1488.39 1149.83 1490.22 1148.46 Q1492.05 1147.07 1492.05 1144.48 Q1492.05 1141.82 1490.15 1140.4 Q1488.28 1138.97 1484.76 1138.97 Q1482.84 1138.97 1480.64 1139.39 Q1478.44 1139.8 1475.8 1140.68 L1475.8 1136.51 Q1478.46 1135.77 1480.78 1135.4 Q1483.12 1135.03 1485.18 1135.03 Q1490.5 1135.03 1493.6 1137.46 Q1496.7 1139.87 1496.7 1143.99 Q1496.7 1146.86 1495.06 1148.85 Q1493.42 1150.82 1490.38 1151.58 Z" fill="#000000" fill-rule="nonzero" fill-opacity="1" /><path clip-path="url(#clip750)" d="M1516.38 1138.74 Q1512.77 1138.74 1510.94 1142.3 Q1509.13 1145.84 1509.13 1152.97 Q1509.13 1160.08 1510.94 1163.64 Q1512.77 1167.19 1516.38 1167.19 Q1520.01 1167.19 1521.82 1163.64 Q1523.65 1160.08 1523.65 1152.97 Q1523.65 1145.84 1521.82 1142.3 Q1520.01 1138.74 1516.38 1138.74 M1516.38 1135.03 Q1522.19 1135.03 1525.24 1139.64 Q1528.32 1144.22 1528.32 1152.97 Q1528.32 1161.7 1525.24 1166.31 Q1522.19 1170.89 1516.38 1170.89 Q1510.57 1170.89 1507.49 1166.31 Q1504.43 1161.7 1504.43 1152.97 Q1504.43 1144.22 1507.49 1139.64 Q1510.57 1135.03 1516.38 1135.03 Z" fill="#000000" fill-rule="nonzero" fill-opacity="1" /><path clip-path="url(#clip750)" d="M1892.58 1139.73 L1880.78 1158.18 L1892.58 1158.18 L1892.58 1139.73 M1891.36 1135.66 L1897.24 1135.66 L1897.24 1158.18 L1902.17 1158.18 L1902.17 1162.07 L1897.24 1162.07 L1897.24 1170.22 L1892.58 1170.22 L1892.58 1162.07 L1876.98 1162.07 L1876.98 1157.56 L1891.36 1135.66 Z" fill="#000000" fill-rule="nonzero" fill-opacity="1" /><path clip-path="url(#clip750)" d="M1919.9 1138.74 Q1916.29 1138.74 1914.46 1142.3 Q1912.65 1145.84 1912.65 1152.97 Q1912.65 1160.08 1914.46 1163.64 Q1916.29 1167.19 1919.9 1167.19 Q1923.53 1167.19 1925.34 1163.64 Q1927.17 1160.08 1927.17 1152.97 Q1927.17 1145.84 1925.34 1142.3 Q1923.53 1138.74 1919.9 1138.74 M1919.9 1135.03 Q1925.71 1135.03 1928.76 1139.64 Q1931.84 1144.22 1931.84 1152.97 Q1931.84 1161.7 1928.76 1166.31 Q1925.71 1170.89 1919.9 1170.89 Q1914.09 1170.89 1911.01 1166.31 Q1907.95 1161.7 1907.95 1152.97 Q1907.95 1144.22 1911.01 1139.64 Q1914.09 1135.03 1919.9 1135.03 Z" fill="#000000" fill-rule="nonzero" fill-opacity="1" /><g clip-path="url(#clip750)">
<text style="fill:#000000; fill-opacity:1; font-family:Arial,Helvetica Neue,Helvetica,sans-serif; font-size:66px; text-anchor:middle;" transform="rotate(0, 1098.67, 1252.42)" x="1098.67" y="1252.42">iteration number</text>
</g>
<polyline clip-path="url(#clip750)" style="stroke:#000000; stroke-linecap:round; stroke-linejoin:round; stroke-width:4; stroke-opacity:1; fill:none" points="244.586,1111.02 244.586,107.256 "/>
<polyline clip-path="url(#clip750)" style="stroke:#000000; stroke-linecap:round; stroke-linejoin:round; stroke-width:4; stroke-opacity:1; fill:none" points="244.586,669.565 263.484,669.565 "/>
<polyline clip-path="url(#clip750)" style="stroke:#000000; stroke-linecap:round; stroke-linejoin:round; stroke-width:4; stroke-opacity:1; fill:none" points="244.586,135.664 263.484,135.664 "/>
<path clip-path="url(#clip750)" d="M113.675 689.357 L121.314 689.357 L121.314 662.991 L113.004 664.658 L113.004 660.399 L121.268 658.732 L125.944 658.732 L125.944 689.357 L133.583 689.357 L133.583 693.292 L113.675 693.292 L113.675 689.357 Z" fill="#000000" fill-rule="nonzero" fill-opacity="1" /><path clip-path="url(#clip750)" d="M153.027 661.811 Q149.416 661.811 147.587 665.376 Q145.782 668.917 145.782 676.047 Q145.782 683.153 147.587 686.718 Q149.416 690.26 153.027 690.26 Q156.661 690.26 158.467 686.718 Q160.295 683.153 160.295 676.047 Q160.295 668.917 158.467 665.376 Q156.661 661.811 153.027 661.811 M153.027 658.107 Q158.837 658.107 161.893 662.714 Q164.971 667.297 164.971 676.047 Q164.971 684.774 161.893 689.38 Q158.837 693.963 153.027 693.963 Q147.217 693.963 144.138 689.38 Q141.082 684.774 141.082 676.047 Q141.082 667.297 144.138 662.714 Q147.217 658.107 153.027 658.107 Z" fill="#000000" fill-rule="nonzero" fill-opacity="1" /><path clip-path="url(#clip750)" d="M164.971 652.209 L189.083 652.209 L189.083 655.406 L164.971 655.406 L164.971 652.209 Z" fill="#000000" fill-rule="nonzero" fill-opacity="1" /><path clip-path="url(#clip750)" d="M208.793 650.742 Q211.52 651.325 213.044 653.168 Q214.586 655.011 214.586 657.719 Q214.586 661.876 211.727 664.151 Q208.869 666.427 203.602 666.427 Q201.834 666.427 199.954 666.07 Q198.092 665.731 196.098 665.035 L196.098 661.368 Q197.678 662.289 199.559 662.76 Q201.439 663.23 203.49 663.23 Q207.063 663.23 208.925 661.819 Q210.806 660.409 210.806 657.719 Q210.806 655.237 209.057 653.845 Q207.326 652.434 204.223 652.434 L200.95 652.434 L200.95 649.312 L204.374 649.312 Q207.176 649.312 208.662 648.202 Q210.147 647.074 210.147 644.968 Q210.147 642.805 208.605 641.657 Q207.082 640.491 204.223 640.491 Q202.662 640.491 200.875 640.83 Q199.089 641.168 196.944 641.883 L196.944 638.498 Q199.107 637.896 200.988 637.595 Q202.888 637.294 204.562 637.294 Q208.887 637.294 211.408 639.269 Q213.928 641.225 213.928 644.573 Q213.928 646.905 212.592 648.522 Q211.257 650.121 208.793 650.742 Z" fill="#000000" fill-rule="nonzero" fill-opacity="1" /><path clip-path="url(#clip750)" d="M143.88 155.457 L151.519 155.457 L151.519 129.091 L143.209 130.758 L143.209 126.499 L151.473 124.832 L156.149 124.832 L156.149 155.457 L163.788 155.457 L163.788 159.392 L143.88 159.392 L143.88 155.457 Z" fill="#000000" fill-rule="nonzero" fill-opacity="1" /><path clip-path="url(#clip750)" d="M183.232 127.911 Q179.621 127.911 177.792 131.475 Q175.987 135.017 175.987 142.147 Q175.987 149.253 177.792 152.818 Q179.621 156.359 183.232 156.359 Q186.866 156.359 188.672 152.818 Q190.501 149.253 190.501 142.147 Q190.501 135.017 188.672 131.475 Q186.866 127.911 183.232 127.911 M183.232 124.207 Q189.042 124.207 192.098 128.813 Q195.177 133.397 195.177 142.147 Q195.177 150.873 192.098 155.48 Q189.042 160.063 183.232 160.063 Q177.422 160.063 174.343 155.48 Q171.288 150.873 171.288 142.147 Q171.288 133.397 174.343 128.813 Q177.422 124.207 183.232 124.207 Z" fill="#000000" fill-rule="nonzero" fill-opacity="1" /><path clip-path="url(#clip750)" d="M204.881 106.403 Q201.947 106.403 200.461 109.299 Q198.994 112.177 198.994 117.97 Q198.994 123.744 200.461 126.64 Q201.947 129.518 204.881 129.518 Q207.834 129.518 209.301 126.64 Q210.787 123.744 210.787 117.97 Q210.787 112.177 209.301 109.299 Q207.834 106.403 204.881 106.403 M204.881 103.394 Q209.602 103.394 212.085 107.136 Q214.586 110.86 214.586 117.97 Q214.586 125.06 212.085 128.803 Q209.602 132.527 204.881 132.527 Q200.161 132.527 197.659 128.803 Q195.177 125.06 195.177 117.97 Q195.177 110.86 197.659 107.136 Q200.161 103.394 204.881 103.394 Z" fill="#000000" fill-rule="nonzero" fill-opacity="1" /><g clip-path="url(#clip750)">
<text style="fill:#000000; fill-opacity:1; font-family:Arial,Helvetica Neue,Helvetica,sans-serif; font-size:66px; text-anchor:middle;" transform="rotate(-90, 71.4418, 609.137)" x="71.4418" y="609.137">residual norm</text>
</g>
<g clip-path="url(#clip750)">
<text style="fill:#000000; fill-opacity:1; font-family:Arial,Helvetica Neue,Helvetica,sans-serif; font-size:66px; text-anchor:middle;" transform="rotate(0, 1098.67, 57.6)" x="1098.67" y="57.6">Incomplete LU preconditioning</text>
</g>
<polyline clip-path="url(#clip752)" style="stroke:#009af9; stroke-linecap:round; stroke-linejoin:round; stroke-width:8; stroke-opacity:1; fill:none" points="292.931,135.664 333.218,137.241 373.505,137.728 413.792,137.918 454.079,138.003 494.366,138.044 534.653,138.066 574.94,138.078 615.227,138.086 655.514,138.092 695.801,138.096 736.088,138.1 776.375,138.103 816.662,138.106 856.949,138.109 897.236,138.112 937.523,138.115 977.81,138.117 1018.1,138.12 1058.38,138.123 1098.67,138.123 1138.96,138.123 1179.25,138.123 1219.53,138.123 1259.82,138.123 1300.11,138.123 1340.39,138.123 1380.68,138.123 1420.97,138.123 1461.25,138.123 1501.54,138.123 1541.83,138.124 1582.12,138.124 1622.4,138.124 1662.69,138.126 1702.98,138.128 1743.26,138.13 1783.55,138.134 1823.84,138.139 1864.12,138.142 1904.41,138.142 "/>
<polyline clip-path="url(#clip752)" style="stroke:#e26f46; stroke-linecap:round; stroke-linejoin:round; stroke-width:8; stroke-opacity:1; fill:none" points="292.931,135.664 333.218,151.804 373.505,180.007 413.792,229.587 454.079,253.394 494.366,294.218 534.653,343.015 574.94,400.67 615.227,467.107 655.514,524.049 695.801,576.919 736.088,626.297 776.375,690.23 816.662,755.855 856.949,812.437 897.236,885.285 937.523,985.004 977.81,1082.61 "/>
<polyline clip-path="url(#clip752)" style="stroke:#3da44d; stroke-linecap:round; stroke-linejoin:round; stroke-width:8; stroke-opacity:1; fill:none" points="292.931,135.664 333.218,201.158 373.505,261.338 413.792,304.847 454.079,366.115 494.366,449.685 534.653,533.733 574.94,612.858 615.227,675.975 655.514,762.8 695.801,861.2 736.088,950.169 776.375,1072.3 "/>
<polyline clip-path="url(#clip752)" style="stroke:#c271d2; stroke-linecap:round; stroke-linejoin:round; stroke-width:8; stroke-opacity:1; fill:none" points="292.931,135.664 333.218,247.479 373.505,390.64 413.792,544.184 454.079,649.115 494.366,803.266 534.653,991.195 "/>
<polyline clip-path="url(#clip752)" style="stroke:#ac8d18; stroke-linecap:round; stroke-linejoin:round; stroke-width:8; stroke-opacity:1; fill:none" points="292.931,135.664 333.218,278.127 373.505,503.079 413.792,675.773 454.079,880.808 "/>
<path clip-path="url(#clip750)" d="M1183.2 1077.56 L1895.82 1077.56 L1895.82 766.52 L1183.2 766.52  Z" fill="#ffffff" fill-rule="evenodd" fill-opacity="1"/>
<polyline clip-path="url(#clip750)" style="stroke:#000000; stroke-linecap:round; stroke-linejoin:round; stroke-width:4; stroke-opacity:1; fill:none" points="1183.2,1077.56 1895.82,1077.56 1895.82,766.52 1183.2,766.52 1183.2,1077.56 "/>
<polyline clip-path="url(#clip750)" style="stroke:#009af9; stroke-linecap:round; stroke-linejoin:round; stroke-width:8; stroke-opacity:1; fill:none" points="1202.18,818.36 1316.05,818.36 "/>
<path clip-path="url(#clip750)" d="M1356.75 819.992 L1356.75 835.64 L1352.49 835.64 L1352.49 820.131 Q1352.49 816.45 1351.05 814.621 Q1349.62 812.793 1346.75 812.793 Q1343.3 812.793 1341.31 814.992 Q1339.32 817.191 1339.32 820.987 L1339.32 835.64 L1335.03 835.64 L1335.03 809.714 L1339.32 809.714 L1339.32 813.742 Q1340.84 811.404 1342.9 810.246 Q1344.99 809.089 1347.7 809.089 Q1352.16 809.089 1354.46 811.867 Q1356.75 814.621 1356.75 819.992 Z" fill="#000000" fill-rule="nonzero" fill-opacity="1" /><path clip-path="url(#clip750)" d="M1375.29 812.7 Q1371.86 812.7 1369.87 815.385 Q1367.88 818.047 1367.88 822.7 Q1367.88 827.353 1369.85 830.038 Q1371.84 832.7 1375.29 832.7 Q1378.69 832.7 1380.68 830.015 Q1382.67 827.33 1382.67 822.7 Q1382.67 818.094 1380.68 815.408 Q1378.69 812.7 1375.29 812.7 M1375.29 809.089 Q1380.84 809.089 1384.02 812.7 Q1387.19 816.311 1387.19 822.7 Q1387.19 829.066 1384.02 832.7 Q1380.84 836.311 1375.29 836.311 Q1369.71 836.311 1366.54 832.7 Q1363.39 829.066 1363.39 822.7 Q1363.39 816.311 1366.54 812.7 Q1369.71 809.089 1375.29 809.089 Z" fill="#000000" fill-rule="nonzero" fill-opacity="1" /><path clip-path="url(#clip750)" d="M1413.44 831.751 L1413.44 845.501 L1409.15 845.501 L1409.15 809.714 L1413.44 809.714 L1413.44 813.649 Q1414.78 811.334 1416.82 810.223 Q1418.88 809.089 1421.72 809.089 Q1426.45 809.089 1429.39 812.839 Q1432.35 816.589 1432.35 822.7 Q1432.35 828.811 1429.39 832.561 Q1426.45 836.311 1421.72 836.311 Q1418.88 836.311 1416.82 835.2 Q1414.78 834.066 1413.44 831.751 M1427.93 822.7 Q1427.93 818.001 1425.98 815.339 Q1424.06 812.654 1420.68 812.654 Q1417.3 812.654 1415.36 815.339 Q1413.44 818.001 1413.44 822.7 Q1413.44 827.399 1415.36 830.084 Q1417.3 832.746 1420.68 832.746 Q1424.06 832.746 1425.98 830.084 Q1427.93 827.399 1427.93 822.7 Z" fill="#000000" fill-rule="nonzero" fill-opacity="1" /><path clip-path="url(#clip750)" d="M1454.43 813.695 Q1453.71 813.279 1452.86 813.094 Q1452.02 812.885 1451.01 812.885 Q1447.4 812.885 1445.45 815.246 Q1443.53 817.584 1443.53 821.982 L1443.53 835.64 L1439.25 835.64 L1439.25 809.714 L1443.53 809.714 L1443.53 813.742 Q1444.87 811.381 1447.02 810.246 Q1449.18 809.089 1452.26 809.089 Q1452.7 809.089 1453.23 809.158 Q1453.76 809.205 1454.41 809.32 L1454.43 813.695 Z" fill="#000000" fill-rule="nonzero" fill-opacity="1" /><path clip-path="url(#clip750)" d="M1480.03 821.612 L1480.03 823.695 L1460.45 823.695 Q1460.73 828.093 1463.09 830.408 Q1465.47 832.7 1469.71 832.7 Q1472.16 832.7 1474.46 832.098 Q1476.77 831.496 1479.04 830.293 L1479.04 834.32 Q1476.75 835.293 1474.34 835.802 Q1471.93 836.311 1469.46 836.311 Q1463.25 836.311 1459.62 832.7 Q1456.01 829.089 1456.01 822.931 Q1456.01 816.566 1459.43 812.839 Q1462.88 809.089 1468.71 809.089 Q1473.95 809.089 1476.98 812.469 Q1480.03 815.825 1480.03 821.612 M1475.77 820.362 Q1475.73 816.867 1473.81 814.783 Q1471.91 812.7 1468.76 812.7 Q1465.2 812.7 1463.04 814.714 Q1460.91 816.728 1460.59 820.385 L1475.77 820.362 Z" fill="#000000" fill-rule="nonzero" fill-opacity="1" /><path clip-path="url(#clip750)" d="M1505.68 810.709 L1505.68 814.691 Q1503.88 813.695 1502.05 813.209 Q1500.24 812.7 1498.39 812.7 Q1494.25 812.7 1491.96 815.339 Q1489.66 817.955 1489.66 822.7 Q1489.66 827.445 1491.96 830.084 Q1494.25 832.7 1498.39 832.7 Q1500.24 832.7 1502.05 832.214 Q1503.88 831.705 1505.68 830.709 L1505.68 834.644 Q1503.9 835.478 1501.98 835.894 Q1500.08 836.311 1497.93 836.311 Q1492.07 836.311 1488.62 832.63 Q1485.17 828.95 1485.17 822.7 Q1485.17 816.357 1488.64 812.723 Q1492.14 809.089 1498.21 809.089 Q1500.17 809.089 1502.05 809.506 Q1503.92 809.899 1505.68 810.709 Z" fill="#000000" fill-rule="nonzero" fill-opacity="1" /><path clip-path="url(#clip750)" d="M1523.14 812.7 Q1519.71 812.7 1517.72 815.385 Q1515.73 818.047 1515.73 822.7 Q1515.73 827.353 1517.7 830.038 Q1519.69 832.7 1523.14 832.7 Q1526.54 832.7 1528.53 830.015 Q1530.52 827.33 1530.52 822.7 Q1530.52 818.094 1528.53 815.408 Q1526.54 812.7 1523.14 812.7 M1523.14 809.089 Q1528.69 809.089 1531.86 812.7 Q1535.03 816.311 1535.03 822.7 Q1535.03 829.066 1531.86 832.7 Q1528.69 836.311 1523.14 836.311 Q1517.56 836.311 1514.39 832.7 Q1511.24 829.066 1511.24 822.7 Q1511.24 816.311 1514.39 812.7 Q1517.56 809.089 1523.14 809.089 Z" fill="#000000" fill-rule="nonzero" fill-opacity="1" /><path clip-path="url(#clip750)" d="M1563.64 819.992 L1563.64 835.64 L1559.39 835.64 L1559.39 820.131 Q1559.39 816.45 1557.95 814.621 Q1556.51 812.793 1553.64 812.793 Q1550.2 812.793 1548.2 814.992 Q1546.21 817.191 1546.21 820.987 L1546.21 835.64 L1541.93 835.64 L1541.93 809.714 L1546.21 809.714 L1546.21 813.742 Q1547.74 811.404 1549.8 810.246 Q1551.89 809.089 1554.59 809.089 Q1559.06 809.089 1561.35 811.867 Q1563.64 814.621 1563.64 819.992 Z" fill="#000000" fill-rule="nonzero" fill-opacity="1" /><path clip-path="url(#clip750)" d="M1589.2 813.649 L1589.2 799.621 L1593.46 799.621 L1593.46 835.64 L1589.2 835.64 L1589.2 831.751 Q1587.86 834.066 1585.8 835.2 Q1583.76 836.311 1580.89 836.311 Q1576.19 836.311 1573.23 832.561 Q1570.29 828.811 1570.29 822.7 Q1570.29 816.589 1573.23 812.839 Q1576.19 809.089 1580.89 809.089 Q1583.76 809.089 1585.8 810.223 Q1587.86 811.334 1589.2 813.649 M1574.69 822.7 Q1574.69 827.399 1576.61 830.084 Q1578.55 832.746 1581.93 832.746 Q1585.31 832.746 1587.26 830.084 Q1589.2 827.399 1589.2 822.7 Q1589.2 818.001 1587.26 815.339 Q1585.31 812.654 1581.93 812.654 Q1578.55 812.654 1576.61 815.339 Q1574.69 818.001 1574.69 822.7 Z" fill="#000000" fill-rule="nonzero" fill-opacity="1" /><path clip-path="url(#clip750)" d="M1602.23 809.714 L1606.49 809.714 L1606.49 835.64 L1602.23 835.64 L1602.23 809.714 M1602.23 799.621 L1606.49 799.621 L1606.49 805.015 L1602.23 805.015 L1602.23 799.621 Z" fill="#000000" fill-rule="nonzero" fill-opacity="1" /><path clip-path="url(#clip750)" d="M1619.62 802.353 L1619.62 809.714 L1628.39 809.714 L1628.39 813.024 L1619.62 813.024 L1619.62 827.098 Q1619.62 830.269 1620.47 831.172 Q1621.35 832.075 1624.01 832.075 L1628.39 832.075 L1628.39 835.64 L1624.01 835.64 Q1619.08 835.64 1617.21 833.811 Q1615.33 831.959 1615.33 827.098 L1615.33 813.024 L1612.21 813.024 L1612.21 809.714 L1615.33 809.714 L1615.33 802.353 L1619.62 802.353 Z" fill="#000000" fill-rule="nonzero" fill-opacity="1" /><path clip-path="url(#clip750)" d="M1633.99 809.714 L1638.25 809.714 L1638.25 835.64 L1633.99 835.64 L1633.99 809.714 M1633.99 799.621 L1638.25 799.621 L1638.25 805.015 L1633.99 805.015 L1633.99 799.621 Z" fill="#000000" fill-rule="nonzero" fill-opacity="1" /><path clip-path="url(#clip750)" d="M1657.21 812.7 Q1653.78 812.7 1651.79 815.385 Q1649.8 818.047 1649.8 822.7 Q1649.8 827.353 1651.77 830.038 Q1653.76 832.7 1657.21 832.7 Q1660.61 832.7 1662.6 830.015 Q1664.59 827.33 1664.59 822.7 Q1664.59 818.094 1662.6 815.408 Q1660.61 812.7 1657.21 812.7 M1657.21 809.089 Q1662.76 809.089 1665.94 812.7 Q1669.11 816.311 1669.11 822.7 Q1669.11 829.066 1665.94 832.7 Q1662.76 836.311 1657.21 836.311 Q1651.63 836.311 1648.46 832.7 Q1645.31 829.066 1645.31 822.7 Q1645.31 816.311 1648.46 812.7 Q1651.63 809.089 1657.21 809.089 Z" fill="#000000" fill-rule="nonzero" fill-opacity="1" /><path clip-path="url(#clip750)" d="M1697.72 819.992 L1697.72 835.64 L1693.46 835.64 L1693.46 820.131 Q1693.46 816.45 1692.02 814.621 Q1690.59 812.793 1687.72 812.793 Q1684.27 812.793 1682.28 814.992 Q1680.29 817.191 1680.29 820.987 L1680.29 835.64 L1676 835.64 L1676 809.714 L1680.29 809.714 L1680.29 813.742 Q1681.82 811.404 1683.88 810.246 Q1685.96 809.089 1688.67 809.089 Q1693.13 809.089 1695.43 811.867 Q1697.72 814.621 1697.72 819.992 Z" fill="#000000" fill-rule="nonzero" fill-opacity="1" /><path clip-path="url(#clip750)" d="M1706.21 809.714 L1710.47 809.714 L1710.47 835.64 L1706.21 835.64 L1706.21 809.714 M1706.21 799.621 L1710.47 799.621 L1710.47 805.015 L1706.21 805.015 L1706.21 799.621 Z" fill="#000000" fill-rule="nonzero" fill-opacity="1" /><path clip-path="url(#clip750)" d="M1740.94 819.992 L1740.94 835.64 L1736.68 835.64 L1736.68 820.131 Q1736.68 816.45 1735.24 814.621 Q1733.81 812.793 1730.94 812.793 Q1727.49 812.793 1725.5 814.992 Q1723.5 817.191 1723.5 820.987 L1723.5 835.64 L1719.22 835.64 L1719.22 809.714 L1723.5 809.714 L1723.5 813.742 Q1725.03 811.404 1727.09 810.246 Q1729.18 809.089 1731.88 809.089 Q1736.35 809.089 1738.64 811.867 Q1740.94 814.621 1740.94 819.992 Z" fill="#000000" fill-rule="nonzero" fill-opacity="1" /><path clip-path="url(#clip750)" d="M1766.49 822.376 Q1766.49 817.746 1764.57 815.2 Q1762.67 812.654 1759.22 812.654 Q1755.8 812.654 1753.87 815.2 Q1751.98 817.746 1751.98 822.376 Q1751.98 826.982 1753.87 829.529 Q1755.8 832.075 1759.22 832.075 Q1762.67 832.075 1764.57 829.529 Q1766.49 826.982 1766.49 822.376 M1770.75 832.422 Q1770.75 839.042 1767.81 842.26 Q1764.87 845.501 1758.81 845.501 Q1756.56 845.501 1754.57 845.154 Q1752.58 844.829 1750.7 844.135 L1750.7 839.992 Q1752.58 841.01 1754.41 841.496 Q1756.24 841.982 1758.13 841.982 Q1762.32 841.982 1764.41 839.783 Q1766.49 837.607 1766.49 833.186 L1766.49 831.08 Q1765.17 833.371 1763.11 834.505 Q1761.05 835.64 1758.18 835.64 Q1753.41 835.64 1750.5 832.005 Q1747.58 828.371 1747.58 822.376 Q1747.58 816.357 1750.5 812.723 Q1753.41 809.089 1758.18 809.089 Q1761.05 809.089 1763.11 810.223 Q1765.17 811.357 1766.49 813.649 L1766.49 809.714 L1770.75 809.714 L1770.75 832.422 Z" fill="#000000" fill-rule="nonzero" fill-opacity="1" /><polyline clip-path="url(#clip750)" style="stroke:#e26f46; stroke-linecap:round; stroke-linejoin:round; stroke-width:8; stroke-opacity:1; fill:none" points="1202.18,870.2 1316.05,870.2 "/>
<path clip-path="url(#clip750)" d="M1349.9 882.758 Q1350.73 883.869 1353.23 883.869 L1355.29 883.869 L1355.29 887.48 L1352.72 887.48 Q1348.55 887.48 1346.65 885.258 Q1344.76 882.989 1344.76 878.082 L1344.76 865.813 L1335.03 865.813 L1335.03 861.554 L1358.95 861.554 L1358.95 865.813 L1349.11 865.813 L1349.11 878.336 Q1349.11 881.693 1349.9 882.758 Z" fill="#000000" fill-rule="nonzero" fill-opacity="1" /><path clip-path="url(#clip750)" d="M1381.35 865.952 L1411.03 865.952 L1411.03 869.841 L1381.35 869.841 L1381.35 865.952 M1381.35 875.396 L1411.03 875.396 L1411.03 879.332 L1381.35 879.332 L1381.35 875.396 Z" fill="#000000" fill-rule="nonzero" fill-opacity="1" /><path clip-path="url(#clip750)" d="M1440.22 883.545 L1456.54 883.545 L1456.54 887.48 L1434.59 887.48 L1434.59 883.545 Q1437.26 880.79 1441.84 876.16 Q1446.45 871.508 1447.63 870.165 Q1449.87 867.642 1450.75 865.906 Q1451.65 864.147 1451.65 862.457 Q1451.65 859.702 1449.71 857.966 Q1447.79 856.23 1444.69 856.23 Q1442.49 856.23 1440.03 856.994 Q1437.6 857.758 1434.83 859.309 L1434.83 854.586 Q1437.65 853.452 1440.1 852.873 Q1442.56 852.295 1444.59 852.295 Q1449.96 852.295 1453.16 854.98 Q1456.35 857.665 1456.35 862.156 Q1456.35 864.285 1455.54 866.207 Q1454.76 868.105 1452.65 870.697 Q1452.07 871.369 1448.97 874.586 Q1445.87 877.781 1440.22 883.545 Z" fill="#000000" fill-rule="nonzero" fill-opacity="1" /><path clip-path="url(#clip750)" d="M1466.35 881.6 L1471.24 881.6 L1471.24 887.48 L1466.35 887.48 L1466.35 881.6 Z" fill="#000000" fill-rule="nonzero" fill-opacity="1" /><path clip-path="url(#clip750)" d="M1491.42 855.998 Q1487.81 855.998 1485.98 859.563 Q1484.18 863.105 1484.18 870.234 Q1484.18 877.341 1485.98 880.906 Q1487.81 884.447 1491.42 884.447 Q1495.06 884.447 1496.86 880.906 Q1498.69 877.341 1498.69 870.234 Q1498.69 863.105 1496.86 859.563 Q1495.06 855.998 1491.42 855.998 M1491.42 852.295 Q1497.23 852.295 1500.29 856.901 Q1503.37 861.485 1503.37 870.234 Q1503.37 878.961 1500.29 883.568 Q1497.23 888.151 1491.42 888.151 Q1485.61 888.151 1482.53 883.568 Q1479.48 878.961 1479.48 870.234 Q1479.48 861.485 1482.53 856.901 Q1485.61 852.295 1491.42 852.295 Z" fill="#000000" fill-rule="nonzero" fill-opacity="1" /><path clip-path="url(#clip750)" d="M1512.07 881.6 L1516.95 881.6 L1516.95 885.582 L1513.16 892.989 L1510.17 892.989 L1512.07 885.582 L1512.07 881.6 Z" fill="#000000" fill-rule="nonzero" fill-opacity="1" /><path clip-path="url(#clip750)" d="M1545.33 854.193 L1545.33 861.554 L1554.11 861.554 L1554.11 864.864 L1545.33 864.864 L1545.33 878.938 Q1545.33 882.109 1546.19 883.012 Q1547.07 883.915 1549.73 883.915 L1554.11 883.915 L1554.11 887.48 L1549.73 887.48 Q1544.8 887.48 1542.93 885.651 Q1541.05 883.799 1541.05 878.938 L1541.05 864.864 L1537.93 864.864 L1537.93 861.554 L1541.05 861.554 L1541.05 854.193 L1545.33 854.193 Z" fill="#000000" fill-rule="nonzero" fill-opacity="1" /><path clip-path="url(#clip750)" d="M1559.71 861.554 L1563.97 861.554 L1563.97 887.48 L1559.71 887.48 L1559.71 861.554 M1559.71 851.461 L1563.97 851.461 L1563.97 856.855 L1559.71 856.855 L1559.71 851.461 Z" fill="#000000" fill-rule="nonzero" fill-opacity="1" /><path clip-path="url(#clip750)" d="M1593.07 866.531 Q1594.66 863.66 1596.89 862.295 Q1599.11 860.929 1602.12 860.929 Q1606.17 860.929 1608.37 863.776 Q1610.57 866.6 1610.57 871.832 L1610.57 887.48 L1606.28 887.48 L1606.28 871.971 Q1606.28 868.244 1604.96 866.438 Q1603.64 864.633 1600.94 864.633 Q1597.63 864.633 1595.7 866.832 Q1593.78 869.031 1593.78 872.827 L1593.78 887.48 L1589.5 887.48 L1589.5 871.971 Q1589.5 868.221 1588.18 866.438 Q1586.86 864.633 1584.11 864.633 Q1580.84 864.633 1578.92 866.855 Q1577 869.054 1577 872.827 L1577 887.48 L1572.72 887.48 L1572.72 861.554 L1577 861.554 L1577 865.582 Q1578.46 863.197 1580.5 862.063 Q1582.53 860.929 1585.33 860.929 Q1588.16 860.929 1590.13 862.364 Q1592.12 863.799 1593.07 866.531 Z" fill="#000000" fill-rule="nonzero" fill-opacity="1" /><path clip-path="url(#clip750)" d="M1641.24 873.452 L1641.24 875.535 L1621.65 875.535 Q1621.93 879.933 1624.29 882.248 Q1626.68 884.54 1630.91 884.54 Q1633.37 884.54 1635.66 883.938 Q1637.97 883.336 1640.24 882.133 L1640.24 886.16 Q1637.95 887.133 1635.54 887.642 Q1633.13 888.151 1630.66 888.151 Q1624.45 888.151 1620.82 884.54 Q1617.21 880.929 1617.21 874.771 Q1617.21 868.406 1620.63 864.679 Q1624.08 860.929 1629.92 860.929 Q1635.15 860.929 1638.18 864.309 Q1641.24 867.665 1641.24 873.452 M1636.98 872.202 Q1636.93 868.707 1635.01 866.623 Q1633.11 864.54 1629.96 864.54 Q1626.4 864.54 1624.25 866.554 Q1622.12 868.568 1621.79 872.225 L1636.98 872.202 Z" fill="#000000" fill-rule="nonzero" fill-opacity="1" /><path clip-path="url(#clip750)" d="M1663.85 865.952 L1693.53 865.952 L1693.53 869.841 L1663.85 869.841 L1663.85 865.952 M1663.85 875.396 L1693.53 875.396 L1693.53 879.332 L1663.85 879.332 L1663.85 875.396 Z" fill="#000000" fill-rule="nonzero" fill-opacity="1" /><path clip-path="url(#clip750)" d="M1719.5 883.545 L1727.14 883.545 L1727.14 857.179 L1718.83 858.846 L1718.83 854.586 L1727.09 852.92 L1731.77 852.92 L1731.77 883.545 L1739.41 883.545 L1739.41 887.48 L1719.5 887.48 L1719.5 883.545 Z" fill="#000000" fill-rule="nonzero" fill-opacity="1" /><path clip-path="url(#clip750)" d="M1761.7 856.994 L1749.89 875.443 L1761.7 875.443 L1761.7 856.994 M1760.47 852.92 L1766.35 852.92 L1766.35 875.443 L1771.28 875.443 L1771.28 879.332 L1766.35 879.332 L1766.35 887.48 L1761.7 887.48 L1761.7 879.332 L1746.1 879.332 L1746.1 874.818 L1760.47 852.92 Z" fill="#000000" fill-rule="nonzero" fill-opacity="1" /><path clip-path="url(#clip750)" d="M1779.01 881.6 L1783.9 881.6 L1783.9 887.48 L1779.01 887.48 L1779.01 881.6 Z" fill="#000000" fill-rule="nonzero" fill-opacity="1" /><path clip-path="url(#clip750)" d="M1798.11 883.545 L1814.43 883.545 L1814.43 887.48 L1792.49 887.48 L1792.49 883.545 Q1795.15 880.79 1799.73 876.16 Q1804.34 871.508 1805.52 870.165 Q1807.76 867.642 1808.64 865.906 Q1809.55 864.147 1809.55 862.457 Q1809.55 859.702 1807.6 857.966 Q1805.68 856.23 1802.58 856.23 Q1800.38 856.23 1797.93 856.994 Q1795.5 857.758 1792.72 859.309 L1792.72 854.586 Q1795.54 853.452 1798 852.873 Q1800.45 852.295 1802.49 852.295 Q1807.86 852.295 1811.05 854.98 Q1814.24 857.665 1814.24 862.156 Q1814.24 864.285 1813.43 866.207 Q1812.65 868.105 1810.54 870.697 Q1809.96 871.369 1806.86 874.586 Q1803.76 877.781 1798.11 883.545 Z" fill="#000000" fill-rule="nonzero" fill-opacity="1" /><path clip-path="url(#clip750)" d="M1834.24 871.068 Q1830.91 871.068 1828.99 872.85 Q1827.09 874.633 1827.09 877.758 Q1827.09 880.883 1828.99 882.665 Q1830.91 884.447 1834.24 884.447 Q1837.58 884.447 1839.5 882.665 Q1841.42 880.859 1841.42 877.758 Q1841.42 874.633 1839.5 872.85 Q1837.6 871.068 1834.24 871.068 M1829.57 869.077 Q1826.56 868.336 1824.87 866.276 Q1823.2 864.216 1823.2 861.253 Q1823.2 857.11 1826.14 854.702 Q1829.11 852.295 1834.24 852.295 Q1839.41 852.295 1842.35 854.702 Q1845.29 857.11 1845.29 861.253 Q1845.29 864.216 1843.6 866.276 Q1841.93 868.336 1838.94 869.077 Q1842.32 869.864 1844.2 872.156 Q1846.1 874.447 1846.1 877.758 Q1846.1 882.781 1843.02 885.466 Q1839.96 888.151 1834.24 888.151 Q1828.53 888.151 1825.45 885.466 Q1822.39 882.781 1822.39 877.758 Q1822.39 874.447 1824.29 872.156 Q1826.19 869.864 1829.57 869.077 M1827.86 861.693 Q1827.86 864.378 1829.52 865.883 Q1831.21 867.387 1834.24 867.387 Q1837.25 867.387 1838.94 865.883 Q1840.66 864.378 1840.66 861.693 Q1840.66 859.008 1838.94 857.503 Q1837.25 855.998 1834.24 855.998 Q1831.21 855.998 1829.52 857.503 Q1827.86 859.008 1827.86 861.693 Z" fill="#000000" fill-rule="nonzero" fill-opacity="1" /><path clip-path="url(#clip750)" d="M1867.25 856.994 L1855.45 875.443 L1867.25 875.443 L1867.25 856.994 M1866.03 852.92 L1871.91 852.92 L1871.91 875.443 L1876.84 875.443 L1876.84 879.332 L1871.91 879.332 L1871.91 887.48 L1867.25 887.48 L1867.25 879.332 L1851.65 879.332 L1851.65 874.818 L1866.03 852.92 Z" fill="#000000" fill-rule="nonzero" fill-opacity="1" /><polyline clip-path="url(#clip750)" style="stroke:#3da44d; stroke-linecap:round; stroke-linejoin:round; stroke-width:8; stroke-opacity:1; fill:none" points="1202.18,922.04 1316.05,922.04 "/>
<path clip-path="url(#clip750)" d="M1349.9 934.598 Q1350.73 935.709 1353.23 935.709 L1355.29 935.709 L1355.29 939.32 L1352.72 939.32 Q1348.55 939.32 1346.65 937.098 Q1344.76 934.829 1344.76 929.922 L1344.76 917.653 L1335.03 917.653 L1335.03 913.394 L1358.95 913.394 L1358.95 917.653 L1349.11 917.653 L1349.11 930.176 Q1349.11 933.533 1349.9 934.598 Z" fill="#000000" fill-rule="nonzero" fill-opacity="1" /><path clip-path="url(#clip750)" d="M1381.35 917.792 L1411.03 917.792 L1411.03 921.681 L1381.35 921.681 L1381.35 917.792 M1381.35 927.236 L1411.03 927.236 L1411.03 931.172 L1381.35 931.172 L1381.35 927.236 Z" fill="#000000" fill-rule="nonzero" fill-opacity="1" /><path clip-path="url(#clip750)" d="M1437 935.385 L1444.64 935.385 L1444.64 909.019 L1436.33 910.686 L1436.33 906.426 L1444.59 904.76 L1449.27 904.76 L1449.27 935.385 L1456.91 935.385 L1456.91 939.32 L1437 939.32 L1437 935.385 Z" fill="#000000" fill-rule="nonzero" fill-opacity="1" /><path clip-path="url(#clip750)" d="M1466.35 933.44 L1471.24 933.44 L1471.24 939.32 L1466.35 939.32 L1466.35 933.44 Z" fill="#000000" fill-rule="nonzero" fill-opacity="1" /><path clip-path="url(#clip750)" d="M1491.42 907.838 Q1487.81 907.838 1485.98 911.403 Q1484.18 914.945 1484.18 922.074 Q1484.18 929.181 1485.98 932.746 Q1487.81 936.287 1491.42 936.287 Q1495.06 936.287 1496.86 932.746 Q1498.69 929.181 1498.69 922.074 Q1498.69 914.945 1496.86 911.403 Q1495.06 907.838 1491.42 907.838 M1491.42 904.135 Q1497.23 904.135 1500.29 908.741 Q1503.37 913.325 1503.37 922.074 Q1503.37 930.801 1500.29 935.408 Q1497.23 939.991 1491.42 939.991 Q1485.61 939.991 1482.53 935.408 Q1479.48 930.801 1479.48 922.074 Q1479.48 913.325 1482.53 908.741 Q1485.61 904.135 1491.42 904.135 Z" fill="#000000" fill-rule="nonzero" fill-opacity="1" /><path clip-path="url(#clip750)" d="M1512.07 933.44 L1516.95 933.44 L1516.95 937.422 L1513.16 944.829 L1510.17 944.829 L1512.07 937.422 L1512.07 933.44 Z" fill="#000000" fill-rule="nonzero" fill-opacity="1" /><path clip-path="url(#clip750)" d="M1545.33 906.033 L1545.33 913.394 L1554.11 913.394 L1554.11 916.704 L1545.33 916.704 L1545.33 930.778 Q1545.33 933.949 1546.19 934.852 Q1547.07 935.755 1549.73 935.755 L1554.11 935.755 L1554.11 939.32 L1549.73 939.32 Q1544.8 939.32 1542.93 937.491 Q1541.05 935.639 1541.05 930.778 L1541.05 916.704 L1537.93 916.704 L1537.93 913.394 L1541.05 913.394 L1541.05 906.033 L1545.33 906.033 Z" fill="#000000" fill-rule="nonzero" fill-opacity="1" /><path clip-path="url(#clip750)" d="M1559.71 913.394 L1563.97 913.394 L1563.97 939.32 L1559.71 939.32 L1559.71 913.394 M1559.71 903.301 L1563.97 903.301 L1563.97 908.695 L1559.71 908.695 L1559.71 903.301 Z" fill="#000000" fill-rule="nonzero" fill-opacity="1" /><path clip-path="url(#clip750)" d="M1593.07 918.371 Q1594.66 915.5 1596.89 914.135 Q1599.11 912.769 1602.12 912.769 Q1606.17 912.769 1608.37 915.616 Q1610.57 918.44 1610.57 923.672 L1610.57 939.32 L1606.28 939.32 L1606.28 923.811 Q1606.28 920.084 1604.96 918.278 Q1603.64 916.473 1600.94 916.473 Q1597.63 916.473 1595.7 918.672 Q1593.78 920.871 1593.78 924.667 L1593.78 939.32 L1589.5 939.32 L1589.5 923.811 Q1589.5 920.061 1588.18 918.278 Q1586.86 916.473 1584.11 916.473 Q1580.84 916.473 1578.92 918.695 Q1577 920.894 1577 924.667 L1577 939.32 L1572.72 939.32 L1572.72 913.394 L1577 913.394 L1577 917.422 Q1578.46 915.037 1580.5 913.903 Q1582.53 912.769 1585.33 912.769 Q1588.16 912.769 1590.13 914.204 Q1592.12 915.639 1593.07 918.371 Z" fill="#000000" fill-rule="nonzero" fill-opacity="1" /><path clip-path="url(#clip750)" d="M1641.24 925.292 L1641.24 927.375 L1621.65 927.375 Q1621.93 931.773 1624.29 934.088 Q1626.68 936.38 1630.91 936.38 Q1633.37 936.38 1635.66 935.778 Q1637.97 935.176 1640.24 933.973 L1640.24 938 Q1637.95 938.973 1635.54 939.482 Q1633.13 939.991 1630.66 939.991 Q1624.45 939.991 1620.82 936.38 Q1617.21 932.769 1617.21 926.611 Q1617.21 920.246 1620.63 916.519 Q1624.08 912.769 1629.92 912.769 Q1635.15 912.769 1638.18 916.149 Q1641.24 919.505 1641.24 925.292 M1636.98 924.042 Q1636.93 920.547 1635.01 918.463 Q1633.11 916.38 1629.96 916.38 Q1626.4 916.38 1624.25 918.394 Q1622.12 920.408 1621.79 924.065 L1636.98 924.042 Z" fill="#000000" fill-rule="nonzero" fill-opacity="1" /><path clip-path="url(#clip750)" d="M1663.85 917.792 L1693.53 917.792 L1693.53 921.681 L1663.85 921.681 L1663.85 917.792 M1663.85 927.236 L1693.53 927.236 L1693.53 931.172 L1663.85 931.172 L1663.85 927.236 Z" fill="#000000" fill-rule="nonzero" fill-opacity="1" /><path clip-path="url(#clip750)" d="M1717.51 904.76 L1739.73 904.76 L1739.73 906.75 L1727.19 939.32 L1722.3 939.32 L1734.11 908.695 L1717.51 908.695 L1717.51 904.76 Z" fill="#000000" fill-rule="nonzero" fill-opacity="1" /><path clip-path="url(#clip750)" d="M1748.85 933.44 L1753.74 933.44 L1753.74 939.32 L1748.85 939.32 L1748.85 933.44 Z" fill="#000000" fill-rule="nonzero" fill-opacity="1" /><path clip-path="url(#clip750)" d="M1763.97 904.76 L1782.32 904.76 L1782.32 908.695 L1768.25 908.695 L1768.25 917.167 Q1769.27 916.82 1770.29 916.658 Q1771.31 916.473 1772.32 916.473 Q1778.11 916.473 1781.49 919.644 Q1784.87 922.815 1784.87 928.232 Q1784.87 933.811 1781.4 936.912 Q1777.93 939.991 1771.61 939.991 Q1769.43 939.991 1767.16 939.621 Q1764.92 939.25 1762.51 938.51 L1762.51 933.811 Q1764.59 934.945 1766.81 935.5 Q1769.04 936.056 1771.51 936.056 Q1775.52 936.056 1777.86 933.949 Q1780.19 931.843 1780.19 928.232 Q1780.19 924.621 1777.86 922.514 Q1775.52 920.408 1771.51 920.408 Q1769.64 920.408 1767.76 920.824 Q1765.91 921.241 1763.97 922.121 L1763.97 904.76 Z" fill="#000000" fill-rule="nonzero" fill-opacity="1" /><path clip-path="url(#clip750)" d="M1804.66 920.176 Q1801.51 920.176 1799.66 922.329 Q1797.83 924.482 1797.83 928.232 Q1797.83 931.959 1799.66 934.135 Q1801.51 936.287 1804.66 936.287 Q1807.81 936.287 1809.64 934.135 Q1811.49 931.959 1811.49 928.232 Q1811.49 924.482 1809.64 922.329 Q1807.81 920.176 1804.66 920.176 M1813.94 905.524 L1813.94 909.783 Q1812.18 908.95 1810.38 908.51 Q1808.6 908.07 1806.84 908.07 Q1802.21 908.07 1799.75 911.195 Q1797.32 914.32 1796.98 920.639 Q1798.34 918.625 1800.4 917.561 Q1802.46 916.473 1804.94 916.473 Q1810.15 916.473 1813.16 919.644 Q1816.19 922.792 1816.19 928.232 Q1816.19 933.556 1813.04 936.773 Q1809.89 939.991 1804.66 939.991 Q1798.67 939.991 1795.5 935.408 Q1792.32 930.801 1792.32 922.074 Q1792.32 913.88 1796.21 909.019 Q1800.1 904.135 1806.65 904.135 Q1808.41 904.135 1810.19 904.482 Q1812 904.829 1813.94 905.524 Z" fill="#000000" fill-rule="nonzero" fill-opacity="1" /><path clip-path="url(#clip750)" d="M1828.27 935.385 L1844.59 935.385 L1844.59 939.32 L1822.65 939.32 L1822.65 935.385 Q1825.31 932.63 1829.89 928 Q1834.5 923.348 1835.68 922.005 Q1837.93 919.482 1838.81 917.746 Q1839.71 915.987 1839.71 914.297 Q1839.71 911.542 1837.76 909.806 Q1835.84 908.07 1832.74 908.07 Q1830.54 908.07 1828.09 908.834 Q1825.66 909.598 1822.88 911.149 L1822.88 906.426 Q1825.7 905.292 1828.16 904.713 Q1830.61 904.135 1832.65 904.135 Q1838.02 904.135 1841.21 906.82 Q1844.41 909.505 1844.41 913.996 Q1844.41 916.125 1843.6 918.047 Q1842.81 919.945 1840.7 922.537 Q1840.12 923.209 1837.02 926.426 Q1833.92 929.621 1828.27 935.385 Z" fill="#000000" fill-rule="nonzero" fill-opacity="1" /><polyline clip-path="url(#clip750)" style="stroke:#c271d2; stroke-linecap:round; stroke-linejoin:round; stroke-width:8; stroke-opacity:1; fill:none" points="1202.18,973.88 1316.05,973.88 "/>
<path clip-path="url(#clip750)" d="M1349.9 986.438 Q1350.73 987.549 1353.23 987.549 L1355.29 987.549 L1355.29 991.16 L1352.72 991.16 Q1348.55 991.16 1346.65 988.938 Q1344.76 986.669 1344.76 981.762 L1344.76 969.493 L1335.03 969.493 L1335.03 965.234 L1358.95 965.234 L1358.95 969.493 L1349.11 969.493 L1349.11 982.016 Q1349.11 985.373 1349.9 986.438 Z" fill="#000000" fill-rule="nonzero" fill-opacity="1" /><path clip-path="url(#clip750)" d="M1381.35 969.632 L1411.03 969.632 L1411.03 973.521 L1381.35 973.521 L1381.35 969.632 M1381.35 979.076 L1411.03 979.076 L1411.03 983.012 L1381.35 983.012 L1381.35 979.076 Z" fill="#000000" fill-rule="nonzero" fill-opacity="1" /><path clip-path="url(#clip750)" d="M1446.19 959.678 Q1442.58 959.678 1440.75 963.243 Q1438.95 966.785 1438.95 973.914 Q1438.95 981.021 1440.75 984.586 Q1442.58 988.127 1446.19 988.127 Q1449.83 988.127 1451.63 984.586 Q1453.46 981.021 1453.46 973.914 Q1453.46 966.785 1451.63 963.243 Q1449.83 959.678 1446.19 959.678 M1446.19 955.975 Q1452 955.975 1455.06 960.581 Q1458.14 965.165 1458.14 973.914 Q1458.14 982.641 1455.06 987.248 Q1452 991.831 1446.19 991.831 Q1440.38 991.831 1437.3 987.248 Q1434.25 982.641 1434.25 973.914 Q1434.25 965.165 1437.3 960.581 Q1440.38 955.975 1446.19 955.975 Z" fill="#000000" fill-rule="nonzero" fill-opacity="1" /><path clip-path="url(#clip750)" d="M1466.35 985.28 L1471.24 985.28 L1471.24 991.16 L1466.35 991.16 L1466.35 985.28 Z" fill="#000000" fill-rule="nonzero" fill-opacity="1" /><path clip-path="url(#clip750)" d="M1485.45 987.225 L1501.77 987.225 L1501.77 991.16 L1479.83 991.16 L1479.83 987.225 Q1482.49 984.47 1487.07 979.84 Q1491.68 975.188 1492.86 973.845 Q1495.1 971.322 1495.98 969.586 Q1496.89 967.827 1496.89 966.137 Q1496.89 963.382 1494.94 961.646 Q1493.02 959.91 1489.92 959.91 Q1487.72 959.91 1485.27 960.674 Q1482.83 961.438 1480.06 962.989 L1480.06 958.266 Q1482.88 957.132 1485.33 956.553 Q1487.79 955.975 1489.83 955.975 Q1495.2 955.975 1498.39 958.66 Q1501.58 961.345 1501.58 965.836 Q1501.58 967.965 1500.77 969.887 Q1499.99 971.785 1497.88 974.377 Q1497.3 975.049 1494.2 978.266 Q1491.1 981.461 1485.45 987.225 Z" fill="#000000" fill-rule="nonzero" fill-opacity="1" /><path clip-path="url(#clip750)" d="M1511.63 956.6 L1529.99 956.6 L1529.99 960.535 L1515.91 960.535 L1515.91 969.007 Q1516.93 968.66 1517.95 968.498 Q1518.97 968.313 1519.99 968.313 Q1525.77 968.313 1529.15 971.484 Q1532.53 974.655 1532.53 980.072 Q1532.53 985.651 1529.06 988.752 Q1525.59 991.831 1519.27 991.831 Q1517.09 991.831 1514.83 991.461 Q1512.58 991.09 1510.17 990.35 L1510.17 985.651 Q1512.26 986.785 1514.48 987.34 Q1516.7 987.896 1519.18 987.896 Q1523.18 987.896 1525.52 985.789 Q1527.86 983.683 1527.86 980.072 Q1527.86 976.461 1525.52 974.354 Q1523.18 972.248 1519.18 972.248 Q1517.3 972.248 1515.43 972.664 Q1513.58 973.081 1511.63 973.961 L1511.63 956.6 Z" fill="#000000" fill-rule="nonzero" fill-opacity="1" /><path clip-path="url(#clip750)" d="M1542.23 985.28 L1547.12 985.28 L1547.12 989.262 L1543.32 996.669 L1540.33 996.669 L1542.23 989.262 L1542.23 985.28 Z" fill="#000000" fill-rule="nonzero" fill-opacity="1" /><path clip-path="url(#clip750)" d="M1575.5 957.873 L1575.5 965.234 L1584.27 965.234 L1584.27 968.544 L1575.5 968.544 L1575.5 982.618 Q1575.5 985.789 1576.35 986.692 Q1577.23 987.595 1579.89 987.595 L1584.27 987.595 L1584.27 991.16 L1579.89 991.16 Q1574.96 991.16 1573.09 989.331 Q1571.21 987.479 1571.21 982.618 L1571.21 968.544 L1568.09 968.544 L1568.09 965.234 L1571.21 965.234 L1571.21 957.873 L1575.5 957.873 Z" fill="#000000" fill-rule="nonzero" fill-opacity="1" /><path clip-path="url(#clip750)" d="M1589.87 965.234 L1594.13 965.234 L1594.13 991.16 L1589.87 991.16 L1589.87 965.234 M1589.87 955.141 L1594.13 955.141 L1594.13 960.535 L1589.87 960.535 L1589.87 955.141 Z" fill="#000000" fill-rule="nonzero" fill-opacity="1" /><path clip-path="url(#clip750)" d="M1623.23 970.211 Q1624.82 967.34 1627.05 965.975 Q1629.27 964.609 1632.28 964.609 Q1636.33 964.609 1638.53 967.456 Q1640.73 970.28 1640.73 975.512 L1640.73 991.16 L1636.45 991.16 L1636.45 975.651 Q1636.45 971.924 1635.13 970.118 Q1633.81 968.313 1631.1 968.313 Q1627.79 968.313 1625.87 970.512 Q1623.95 972.711 1623.95 976.507 L1623.95 991.16 L1619.66 991.16 L1619.66 975.651 Q1619.66 971.901 1618.34 970.118 Q1617.02 968.313 1614.27 968.313 Q1611.01 968.313 1609.08 970.535 Q1607.16 972.734 1607.16 976.507 L1607.16 991.16 L1602.88 991.16 L1602.88 965.234 L1607.16 965.234 L1607.16 969.262 Q1608.62 966.877 1610.66 965.743 Q1612.7 964.609 1615.5 964.609 Q1618.32 964.609 1620.29 966.044 Q1622.28 967.479 1623.23 970.211 Z" fill="#000000" fill-rule="nonzero" fill-opacity="1" /><path clip-path="url(#clip750)" d="M1671.4 977.132 L1671.4 979.215 L1651.82 979.215 Q1652.09 983.613 1654.45 985.928 Q1656.84 988.22 1661.07 988.22 Q1663.53 988.22 1665.82 987.618 Q1668.13 987.016 1670.4 985.813 L1670.4 989.84 Q1668.11 990.813 1665.7 991.322 Q1663.3 991.831 1660.82 991.831 Q1654.62 991.831 1650.98 988.22 Q1647.37 984.609 1647.37 978.451 Q1647.37 972.086 1650.8 968.359 Q1654.25 964.609 1660.08 964.609 Q1665.31 964.609 1668.34 967.989 Q1671.4 971.345 1671.4 977.132 M1667.14 975.882 Q1667.09 972.387 1665.17 970.303 Q1663.27 968.22 1660.13 968.22 Q1656.56 968.22 1654.41 970.234 Q1652.28 972.248 1651.95 975.905 L1667.14 975.882 Z" fill="#000000" fill-rule="nonzero" fill-opacity="1" /><path clip-path="url(#clip750)" d="M1694.01 969.632 L1723.69 969.632 L1723.69 973.521 L1694.01 973.521 L1694.01 969.632 M1694.01 979.076 L1723.69 979.076 L1723.69 983.012 L1694.01 983.012 L1694.01 979.076 Z" fill="#000000" fill-rule="nonzero" fill-opacity="1" /><path clip-path="url(#clip750)" d="M1752.88 987.225 L1769.2 987.225 L1769.2 991.16 L1747.25 991.16 L1747.25 987.225 Q1749.92 984.47 1754.5 979.84 Q1759.11 975.188 1760.29 973.845 Q1762.53 971.322 1763.41 969.586 Q1764.31 967.827 1764.31 966.137 Q1764.31 963.382 1762.37 961.646 Q1760.45 959.91 1757.35 959.91 Q1755.15 959.91 1752.69 960.674 Q1750.26 961.438 1747.49 962.989 L1747.49 958.266 Q1750.31 957.132 1752.76 956.553 Q1755.22 955.975 1757.25 955.975 Q1762.62 955.975 1765.82 958.66 Q1769.01 961.345 1769.01 965.836 Q1769.01 967.965 1768.2 969.887 Q1767.42 971.785 1765.31 974.377 Q1764.73 975.049 1761.63 978.266 Q1758.53 981.461 1752.88 987.225 Z" fill="#000000" fill-rule="nonzero" fill-opacity="1" /><path clip-path="url(#clip750)" d="M1779.01 985.28 L1783.9 985.28 L1783.9 991.16 L1779.01 991.16 L1779.01 985.28 Z" fill="#000000" fill-rule="nonzero" fill-opacity="1" /><path clip-path="url(#clip750)" d="M1792.9 956.6 L1815.12 956.6 L1815.12 958.59 L1802.58 991.16 L1797.69 991.16 L1809.5 960.535 L1792.9 960.535 L1792.9 956.6 Z" fill="#000000" fill-rule="nonzero" fill-opacity="1" /><path clip-path="url(#clip750)" d="M1838.41 972.526 Q1841.77 973.243 1843.64 975.512 Q1845.54 977.78 1845.54 981.113 Q1845.54 986.229 1842.02 989.03 Q1838.5 991.831 1832.02 991.831 Q1829.85 991.831 1827.53 991.391 Q1825.24 990.975 1822.79 990.118 L1822.79 985.604 Q1824.73 986.738 1827.05 987.317 Q1829.36 987.896 1831.88 987.896 Q1836.28 987.896 1838.57 986.16 Q1840.89 984.424 1840.89 981.113 Q1840.89 978.058 1838.74 976.345 Q1836.61 974.609 1832.79 974.609 L1828.76 974.609 L1828.76 970.766 L1832.97 970.766 Q1836.42 970.766 1838.25 969.401 Q1840.08 968.012 1840.08 965.419 Q1840.08 962.757 1838.18 961.345 Q1836.31 959.91 1832.79 959.91 Q1830.87 959.91 1828.67 960.327 Q1826.47 960.743 1823.83 961.623 L1823.83 957.456 Q1826.49 956.715 1828.81 956.345 Q1831.14 955.975 1833.2 955.975 Q1838.53 955.975 1841.63 958.405 Q1844.73 960.813 1844.73 964.933 Q1844.73 967.803 1843.09 969.794 Q1841.44 971.762 1838.41 972.526 Z" fill="#000000" fill-rule="nonzero" fill-opacity="1" /><path clip-path="url(#clip750)" d="M1854.55 990.442 L1854.55 986.183 Q1856.3 987.016 1858.11 987.456 Q1859.92 987.896 1861.65 987.896 Q1866.28 987.896 1868.71 984.794 Q1871.17 981.669 1871.51 975.326 Q1870.17 977.317 1868.11 978.382 Q1866.05 979.447 1863.55 979.447 Q1858.37 979.447 1855.33 976.322 Q1852.32 973.174 1852.32 967.734 Q1852.32 962.41 1855.47 959.192 Q1858.62 955.975 1863.85 955.975 Q1869.85 955.975 1872.99 960.581 Q1876.17 965.165 1876.17 973.914 Q1876.17 982.086 1872.28 986.97 Q1868.41 991.831 1861.86 991.831 Q1860.1 991.831 1858.3 991.484 Q1856.49 991.137 1854.55 990.442 M1863.85 975.789 Q1867 975.789 1868.83 973.637 Q1870.68 971.484 1870.68 967.734 Q1870.68 964.007 1868.83 961.854 Q1867 959.678 1863.85 959.678 Q1860.7 959.678 1858.85 961.854 Q1857.02 964.007 1857.02 967.734 Q1857.02 971.484 1858.85 973.637 Q1860.7 975.789 1863.85 975.789 Z" fill="#000000" fill-rule="nonzero" fill-opacity="1" /><polyline clip-path="url(#clip750)" style="stroke:#ac8d18; stroke-linecap:round; stroke-linejoin:round; stroke-width:8; stroke-opacity:1; fill:none" points="1202.18,1025.72 1316.05,1025.72 "/>
<path clip-path="url(#clip750)" d="M1349.9 1038.28 Q1350.73 1039.39 1353.23 1039.39 L1355.29 1039.39 L1355.29 1043 L1352.72 1043 Q1348.55 1043 1346.65 1040.78 Q1344.76 1038.51 1344.76 1033.6 L1344.76 1021.33 L1335.03 1021.33 L1335.03 1017.07 L1358.95 1017.07 L1358.95 1021.33 L1349.11 1021.33 L1349.11 1033.86 Q1349.11 1037.21 1349.9 1038.28 Z" fill="#000000" fill-rule="nonzero" fill-opacity="1" /><path clip-path="url(#clip750)" d="M1381.35 1021.47 L1411.03 1021.47 L1411.03 1025.36 L1381.35 1025.36 L1381.35 1021.47 M1381.35 1030.92 L1411.03 1030.92 L1411.03 1034.85 L1381.35 1034.85 L1381.35 1030.92 Z" fill="#000000" fill-rule="nonzero" fill-opacity="1" /><path clip-path="url(#clip750)" d="M1446.19 1011.52 Q1442.58 1011.52 1440.75 1015.08 Q1438.95 1018.62 1438.95 1025.75 Q1438.95 1032.86 1440.75 1036.43 Q1442.58 1039.97 1446.19 1039.97 Q1449.83 1039.97 1451.63 1036.43 Q1453.46 1032.86 1453.46 1025.75 Q1453.46 1018.62 1451.63 1015.08 Q1449.83 1011.52 1446.19 1011.52 M1446.19 1007.81 Q1452 1007.81 1455.06 1012.42 Q1458.14 1017 1458.14 1025.75 Q1458.14 1034.48 1455.06 1039.09 Q1452 1043.67 1446.19 1043.67 Q1440.38 1043.67 1437.3 1039.09 Q1434.25 1034.48 1434.25 1025.75 Q1434.25 1017 1437.3 1012.42 Q1440.38 1007.81 1446.19 1007.81 Z" fill="#000000" fill-rule="nonzero" fill-opacity="1" /><path clip-path="url(#clip750)" d="M1466.35 1037.12 L1471.24 1037.12 L1471.24 1043 L1466.35 1043 L1466.35 1037.12 Z" fill="#000000" fill-rule="nonzero" fill-opacity="1" /><path clip-path="url(#clip750)" d="M1482.23 1039.06 L1489.87 1039.06 L1489.87 1012.7 L1481.56 1014.37 L1481.56 1010.11 L1489.83 1008.44 L1494.5 1008.44 L1494.5 1039.06 L1502.14 1039.06 L1502.14 1043 L1482.23 1043 L1482.23 1039.06 Z" fill="#000000" fill-rule="nonzero" fill-opacity="1" /><path clip-path="url(#clip750)" d="M1512.07 1037.12 L1516.95 1037.12 L1516.95 1041.1 L1513.16 1048.51 L1510.17 1048.51 L1512.07 1041.1 L1512.07 1037.12 Z" fill="#000000" fill-rule="nonzero" fill-opacity="1" /><path clip-path="url(#clip750)" d="M1545.33 1009.71 L1545.33 1017.07 L1554.11 1017.07 L1554.11 1020.38 L1545.33 1020.38 L1545.33 1034.46 Q1545.33 1037.63 1546.19 1038.53 Q1547.07 1039.43 1549.73 1039.43 L1554.11 1039.43 L1554.11 1043 L1549.73 1043 Q1544.8 1043 1542.93 1041.17 Q1541.05 1039.32 1541.05 1034.46 L1541.05 1020.38 L1537.93 1020.38 L1537.93 1017.07 L1541.05 1017.07 L1541.05 1009.71 L1545.33 1009.71 Z" fill="#000000" fill-rule="nonzero" fill-opacity="1" /><path clip-path="url(#clip750)" d="M1559.71 1017.07 L1563.97 1017.07 L1563.97 1043 L1559.71 1043 L1559.71 1017.07 M1559.71 1006.98 L1563.97 1006.98 L1563.97 1012.37 L1559.71 1012.37 L1559.71 1006.98 Z" fill="#000000" fill-rule="nonzero" fill-opacity="1" /><path clip-path="url(#clip750)" d="M1593.07 1022.05 Q1594.66 1019.18 1596.89 1017.81 Q1599.11 1016.45 1602.12 1016.45 Q1606.17 1016.45 1608.37 1019.3 Q1610.57 1022.12 1610.57 1027.35 L1610.57 1043 L1606.28 1043 L1606.28 1027.49 Q1606.28 1023.76 1604.96 1021.96 Q1603.64 1020.15 1600.94 1020.15 Q1597.63 1020.15 1595.7 1022.35 Q1593.78 1024.55 1593.78 1028.35 L1593.78 1043 L1589.5 1043 L1589.5 1027.49 Q1589.5 1023.74 1588.18 1021.96 Q1586.86 1020.15 1584.11 1020.15 Q1580.84 1020.15 1578.92 1022.37 Q1577 1024.57 1577 1028.35 L1577 1043 L1572.72 1043 L1572.72 1017.07 L1577 1017.07 L1577 1021.1 Q1578.46 1018.72 1580.5 1017.58 Q1582.53 1016.45 1585.33 1016.45 Q1588.16 1016.45 1590.13 1017.88 Q1592.12 1019.32 1593.07 1022.05 Z" fill="#000000" fill-rule="nonzero" fill-opacity="1" /><path clip-path="url(#clip750)" d="M1641.24 1028.97 L1641.24 1031.06 L1621.65 1031.06 Q1621.93 1035.45 1624.29 1037.77 Q1626.68 1040.06 1630.91 1040.06 Q1633.37 1040.06 1635.66 1039.46 Q1637.97 1038.86 1640.24 1037.65 L1640.24 1041.68 Q1637.95 1042.65 1635.54 1043.16 Q1633.13 1043.67 1630.66 1043.67 Q1624.45 1043.67 1620.82 1040.06 Q1617.21 1036.45 1617.21 1030.29 Q1617.21 1023.93 1620.63 1020.2 Q1624.08 1016.45 1629.92 1016.45 Q1635.15 1016.45 1638.18 1019.83 Q1641.24 1023.19 1641.24 1028.97 M1636.98 1027.72 Q1636.93 1024.23 1635.01 1022.14 Q1633.11 1020.06 1629.96 1020.06 Q1626.4 1020.06 1624.25 1022.07 Q1622.12 1024.09 1621.79 1027.75 L1636.98 1027.72 Z" fill="#000000" fill-rule="nonzero" fill-opacity="1" /><path clip-path="url(#clip750)" d="M1663.85 1021.47 L1693.53 1021.47 L1693.53 1025.36 L1663.85 1025.36 L1663.85 1021.47 M1663.85 1030.92 L1693.53 1030.92 L1693.53 1034.85 L1663.85 1034.85 L1663.85 1030.92 Z" fill="#000000" fill-rule="nonzero" fill-opacity="1" /><path clip-path="url(#clip750)" d="M1719.5 1039.06 L1727.14 1039.06 L1727.14 1012.7 L1718.83 1014.37 L1718.83 1010.11 L1727.09 1008.44 L1731.77 1008.44 L1731.77 1039.06 L1739.41 1039.06 L1739.41 1043 L1719.5 1043 L1719.5 1039.06 Z" fill="#000000" fill-rule="nonzero" fill-opacity="1" /><path clip-path="url(#clip750)" d="M1748.85 1037.12 L1753.74 1037.12 L1753.74 1043 L1748.85 1043 L1748.85 1037.12 Z" fill="#000000" fill-rule="nonzero" fill-opacity="1" /><path clip-path="url(#clip750)" d="M1776.77 1012.51 L1764.96 1030.96 L1776.77 1030.96 L1776.77 1012.51 M1775.54 1008.44 L1781.42 1008.44 L1781.42 1030.96 L1786.35 1030.96 L1786.35 1034.85 L1781.42 1034.85 L1781.42 1043 L1776.77 1043 L1776.77 1034.85 L1761.17 1034.85 L1761.17 1030.34 L1775.54 1008.44 Z" fill="#000000" fill-rule="nonzero" fill-opacity="1" /><path clip-path="url(#clip750)" d="M1804.08 1011.52 Q1800.47 1011.52 1798.64 1015.08 Q1796.84 1018.62 1796.84 1025.75 Q1796.84 1032.86 1798.64 1036.43 Q1800.47 1039.97 1804.08 1039.97 Q1807.72 1039.97 1809.52 1036.43 Q1811.35 1032.86 1811.35 1025.75 Q1811.35 1018.62 1809.52 1015.08 Q1807.72 1011.52 1804.08 1011.52 M1804.08 1007.81 Q1809.89 1007.81 1812.95 1012.42 Q1816.03 1017 1816.03 1025.75 Q1816.03 1034.48 1812.95 1039.09 Q1809.89 1043.67 1804.08 1043.67 Q1798.27 1043.67 1795.19 1039.09 Q1792.14 1034.48 1792.14 1025.75 Q1792.14 1017 1795.19 1012.42 Q1798.27 1007.81 1804.08 1007.81 Z" fill="#000000" fill-rule="nonzero" fill-opacity="1" /><path clip-path="url(#clip750)" d="M1828.27 1039.06 L1844.59 1039.06 L1844.59 1043 L1822.65 1043 L1822.65 1039.06 Q1825.31 1036.31 1829.89 1031.68 Q1834.5 1027.03 1835.68 1025.69 Q1837.93 1023.16 1838.81 1021.43 Q1839.71 1019.67 1839.71 1017.98 Q1839.71 1015.22 1837.76 1013.49 Q1835.84 1011.75 1832.74 1011.75 Q1830.54 1011.75 1828.09 1012.51 Q1825.66 1013.28 1822.88 1014.83 L1822.88 1010.11 Q1825.7 1008.97 1828.16 1008.39 Q1830.61 1007.81 1832.65 1007.81 Q1838.02 1007.81 1841.21 1010.5 Q1844.41 1013.19 1844.41 1017.68 Q1844.41 1019.81 1843.6 1021.73 Q1842.81 1023.62 1840.7 1026.22 Q1840.12 1026.89 1837.02 1030.11 Q1833.92 1033.3 1828.27 1039.06 Z" fill="#000000" fill-rule="nonzero" fill-opacity="1" /></svg>
