<?xml version="1.0" encoding="utf-8"?>
<svg xmlns="http://www.w3.org/2000/svg" xmlns:xlink="http://www.w3.org/1999/xlink" width="500" height="320" viewBox="0 0 2000 1280">
<defs>
  <clipPath id="clip900">
    <rect x="0" y="0" width="2000" height="1280"/>
  </clipPath>
</defs>
<path clip-path="url(#clip900)" d="M0 1280 L2000 1280 L2000 -2.66454e-14 L0 -2.66454e-14  Z" fill="#ffffff" fill-rule="evenodd" fill-opacity="1"/>
<defs>
  <clipPath id="clip901">
    <rect x="400" y="0" width="1401" height="1280"/>
  </clipPath>
</defs>
<path clip-path="url(#clip900)" d="M599.471 1111.02 L1603.23 1111.02 L1603.23 107.256 L599.471 107.256  Z" fill="#ffffff" fill-rule="evenodd" fill-opacity="1"/>
<defs>
  <clipPath id="clip902">
    <rect x="599" y="107" width="1005" height="1005"/>
  </clipPath>
</defs>
<polyline clip-path="url(#clip902)" style="stroke:#000000; stroke-linecap:round; stroke-linejoin:round; stroke-width:2; stroke-opacity:0.1; fill:none" points="599.471,1111.02 599.471,107.256 "/>
<polyline clip-path="url(#clip902)" style="stroke:#000000; stroke-linecap:round; stroke-linejoin:round; stroke-width:2; stroke-opacity:0.1; fill:none" points="850.411,1111.02 850.411,107.256 "/>
<polyline clip-path="url(#clip902)" style="stroke:#000000; stroke-linecap:round; stroke-linejoin:round; stroke-width:2; stroke-opacity:0.1; fill:none" points="1101.35,1111.02 1101.35,107.256 "/>
<polyline clip-path="url(#clip902)" style="stroke:#000000; stroke-linecap:round; stroke-linejoin:round; stroke-width:2; stroke-opacity:0.1; fill:none" points="1352.29,1111.02 1352.29,107.256 "/>
<polyline clip-path="url(#clip902)" style="stroke:#000000; stroke-linecap:round; stroke-linejoin:round; stroke-width:2; stroke-opacity:0.1; fill:none" points="1603.23,1111.02 1603.23,107.256 "/>
<polyline clip-path="url(#clip902)" style="stroke:#000000; stroke-linecap:round; stroke-linejoin:round; stroke-width:2; stroke-opacity:0.1; fill:none" points="599.471,1111.02 1603.23,1111.02 "/>
<polyline clip-path="url(#clip902)" style="stroke:#000000; stroke-linecap:round; stroke-linejoin:round; stroke-width:2; stroke-opacity:0.1; fill:none" points="599.471,860.078 1603.23,860.078 "/>
<polyline clip-path="url(#clip902)" style="stroke:#000000; stroke-linecap:round; stroke-linejoin:round; stroke-width:2; stroke-opacity:0.1; fill:none" points="599.471,609.137 1603.23,609.137 "/>
<polyline clip-path="url(#clip902)" style="stroke:#000000; stroke-linecap:round; stroke-linejoin:round; stroke-width:2; stroke-opacity:0.1; fill:none" points="599.471,358.197 1603.23,358.197 "/>
<polyline clip-path="url(#clip902)" style="stroke:#000000; stroke-linecap:round; stroke-linejoin:round; stroke-width:2; stroke-opacity:0.1; fill:none" points="599.471,107.256 1603.23,107.256 "/>
<polyline clip-path="url(#clip900)" style="stroke:#000000; stroke-linecap:round; stroke-linejoin:round; stroke-width:4; stroke-opacity:1; fill:none" points="599.471,609.137 1603.23,609.137 "/>
<polyline clip-path="url(#clip900)" style="stroke:#000000; stroke-linecap:round; stroke-linejoin:round; stroke-width:4; stroke-opacity:0; fill:none" points="599.471,609.137 599.471,609.137 "/>
<polyline clip-path="url(#clip900)" style="stroke:#000000; stroke-linecap:round; stroke-linejoin:round; stroke-width:4; stroke-opacity:0; fill:none" points="850.411,609.137 850.411,609.137 "/>
<polyline clip-path="url(#clip900)" style="stroke:#000000; stroke-linecap:round; stroke-linejoin:round; stroke-width:4; stroke-opacity:0; fill:none" points="1101.35,609.137 1101.35,609.137 "/>
<polyline clip-path="url(#clip900)" style="stroke:#000000; stroke-linecap:round; stroke-linejoin:round; stroke-width:4; stroke-opacity:0; fill:none" points="1352.29,609.137 1352.29,609.137 "/>
<polyline clip-path="url(#clip900)" style="stroke:#000000; stroke-linecap:round; stroke-linejoin:round; stroke-width:4; stroke-opacity:0; fill:none" points="1603.23,609.137 1603.23,609.137 "/>
<path clip-path="url(#clip900)" d="M545.999 1153.39 L575.674 1153.39 L575.674 1157.33 L545.999 1157.33 L545.999 1153.39 Z" fill="#000000" fill-rule="nonzero" fill-opacity="1" /><path clip-path="url(#clip900)" d="M585.813 1135.66 L604.17 1135.66 L604.17 1139.59 L590.096 1139.59 L590.096 1148.07 Q591.114 1147.72 592.133 1147.56 Q593.151 1147.37 594.17 1147.37 Q599.957 1147.37 603.336 1150.54 Q606.716 1153.71 606.716 1159.13 Q606.716 1164.71 603.244 1167.81 Q599.771 1170.89 593.452 1170.89 Q591.276 1170.89 589.008 1170.52 Q586.762 1170.15 584.355 1169.41 L584.355 1164.71 Q586.438 1165.84 588.66 1166.4 Q590.883 1166.95 593.359 1166.95 Q597.364 1166.95 599.702 1164.85 Q602.04 1162.74 602.04 1159.13 Q602.04 1155.52 599.702 1153.41 Q597.364 1151.31 593.359 1151.31 Q591.484 1151.31 589.609 1151.72 Q587.758 1152.14 585.813 1153.02 L585.813 1135.66 Z" fill="#000000" fill-rule="nonzero" fill-opacity="1" /><path clip-path="url(#clip900)" d="M615.929 1164.34 L620.813 1164.34 L620.813 1170.22 L615.929 1170.22 L615.929 1164.34 Z" fill="#000000" fill-rule="nonzero" fill-opacity="1" /><path clip-path="url(#clip900)" d="M640.998 1138.74 Q637.387 1138.74 635.558 1142.3 Q633.753 1145.84 633.753 1152.97 Q633.753 1160.08 635.558 1163.64 Q637.387 1167.19 640.998 1167.19 Q644.632 1167.19 646.438 1163.64 Q648.267 1160.08 648.267 1152.97 Q648.267 1145.84 646.438 1142.3 Q644.632 1138.74 640.998 1138.74 M640.998 1135.03 Q646.808 1135.03 649.864 1139.64 Q652.942 1144.22 652.942 1152.97 Q652.942 1161.7 649.864 1166.31 Q646.808 1170.89 640.998 1170.89 Q635.188 1170.89 632.109 1166.31 Q629.054 1161.7 629.054 1152.97 Q629.054 1144.22 632.109 1139.64 Q635.188 1135.03 640.998 1135.03 Z" fill="#000000" fill-rule="nonzero" fill-opacity="1" /><path clip-path="url(#clip900)" d="M797.437 1153.39 L827.113 1153.39 L827.113 1157.33 L797.437 1157.33 L797.437 1153.39 Z" fill="#000000" fill-rule="nonzero" fill-opacity="1" /><path clip-path="url(#clip900)" d="M841.233 1166.28 L857.552 1166.28 L857.552 1170.22 L835.608 1170.22 L835.608 1166.28 Q838.27 1163.53 842.853 1158.9 Q847.46 1154.25 848.64 1152.9 Q850.886 1150.38 851.765 1148.64 Q852.668 1146.89 852.668 1145.2 Q852.668 1142.44 850.724 1140.7 Q848.802 1138.97 845.701 1138.97 Q843.502 1138.97 841.048 1139.73 Q838.617 1140.5 835.84 1142.05 L835.84 1137.33 Q838.664 1136.19 841.117 1135.61 Q843.571 1135.03 845.608 1135.03 Q850.978 1135.03 854.173 1137.72 Q857.367 1140.4 857.367 1144.89 Q857.367 1147.02 856.557 1148.95 Q855.77 1150.84 853.663 1153.44 Q853.085 1154.11 849.983 1157.33 Q846.881 1160.52 841.233 1166.28 Z" fill="#000000" fill-rule="nonzero" fill-opacity="1" /><path clip-path="url(#clip900)" d="M867.367 1164.34 L872.251 1164.34 L872.251 1170.22 L867.367 1170.22 L867.367 1164.34 Z" fill="#000000" fill-rule="nonzero" fill-opacity="1" /><path clip-path="url(#clip900)" d="M882.483 1135.66 L900.839 1135.66 L900.839 1139.59 L886.765 1139.59 L886.765 1148.07 Q887.784 1147.72 888.802 1147.56 Q889.821 1147.37 890.839 1147.37 Q896.626 1147.37 900.006 1150.54 Q903.385 1153.71 903.385 1159.13 Q903.385 1164.71 899.913 1167.81 Q896.441 1170.89 890.122 1170.89 Q887.946 1170.89 885.677 1170.52 Q883.432 1170.15 881.024 1169.41 L881.024 1164.71 Q883.108 1165.84 885.33 1166.4 Q887.552 1166.95 890.029 1166.95 Q894.034 1166.95 896.372 1164.85 Q898.71 1162.74 898.71 1159.13 Q898.71 1155.52 896.372 1153.41 Q894.034 1151.31 890.029 1151.31 Q888.154 1151.31 886.279 1151.72 Q884.427 1152.14 882.483 1153.02 L882.483 1135.66 Z" fill="#000000" fill-rule="nonzero" fill-opacity="1" /><path clip-path="url(#clip900)" d="M1078.74 1138.74 Q1075.13 1138.74 1073.3 1142.3 Q1071.49 1145.84 1071.49 1152.97 Q1071.49 1160.08 1073.3 1163.64 Q1075.13 1167.19 1078.74 1167.19 Q1082.37 1167.19 1084.18 1163.64 Q1086 1160.08 1086 1152.97 Q1086 1145.84 1084.18 1142.3 Q1082.37 1138.74 1078.74 1138.74 M1078.74 1135.03 Q1084.55 1135.03 1087.6 1139.64 Q1090.68 1144.22 1090.68 1152.97 Q1090.68 1161.7 1087.6 1166.31 Q1084.55 1170.89 1078.74 1170.89 Q1072.93 1170.89 1069.85 1166.31 Q1066.79 1161.7 1066.79 1152.97 Q1066.79 1144.22 1069.85 1139.64 Q1072.93 1135.03 1078.74 1135.03 Z" fill="#000000" fill-rule="nonzero" fill-opacity="1" /><path clip-path="url(#clip900)" d="M1098.9 1164.34 L1103.78 1164.34 L1103.78 1170.22 L1098.9 1170.22 L1098.9 1164.34 Z" fill="#000000" fill-rule="nonzero" fill-opacity="1" /><path clip-path="url(#clip900)" d="M1123.97 1138.74 Q1120.36 1138.74 1118.53 1142.3 Q1116.72 1145.84 1116.72 1152.97 Q1116.72 1160.08 1118.53 1163.64 Q1120.36 1167.19 1123.97 1167.19 Q1127.6 1167.19 1129.41 1163.64 Q1131.24 1160.08 1131.24 1152.97 Q1131.24 1145.84 1129.41 1142.3 Q1127.6 1138.74 1123.97 1138.74 M1123.97 1135.03 Q1129.78 1135.03 1132.83 1139.64 Q1135.91 1144.22 1135.91 1152.97 Q1135.91 1161.7 1132.83 1166.31 Q1129.78 1170.89 1123.97 1170.89 Q1118.16 1170.89 1115.08 1166.31 Q1112.02 1161.7 1112.02 1152.97 Q1112.02 1144.22 1115.08 1139.64 Q1118.16 1135.03 1123.97 1135.03 Z" fill="#000000" fill-rule="nonzero" fill-opacity="1" /><path clip-path="url(#clip900)" d="M1324.03 1166.28 L1340.35 1166.28 L1340.35 1170.22 L1318.4 1170.22 L1318.4 1166.28 Q1321.07 1163.53 1325.65 1158.9 Q1330.26 1154.25 1331.44 1152.9 Q1333.68 1150.38 1334.56 1148.64 Q1335.46 1146.89 1335.46 1145.2 Q1335.46 1142.44 1333.52 1140.7 Q1331.6 1138.97 1328.5 1138.97 Q1326.3 1138.97 1323.84 1139.73 Q1321.41 1140.5 1318.64 1142.05 L1318.64 1137.33 Q1321.46 1136.19 1323.91 1135.61 Q1326.37 1135.03 1328.4 1135.03 Q1333.77 1135.03 1336.97 1137.72 Q1340.16 1140.4 1340.16 1144.89 Q1340.16 1147.02 1339.35 1148.95 Q1338.57 1150.84 1336.46 1153.44 Q1335.88 1154.11 1332.78 1157.33 Q1329.68 1160.52 1324.03 1166.28 Z" fill="#000000" fill-rule="nonzero" fill-opacity="1" /><path clip-path="url(#clip900)" d="M1350.16 1164.34 L1355.05 1164.34 L1355.05 1170.22 L1350.16 1170.22 L1350.16 1164.34 Z" fill="#000000" fill-rule="nonzero" fill-opacity="1" /><path clip-path="url(#clip900)" d="M1365.28 1135.66 L1383.63 1135.66 L1383.63 1139.59 L1369.56 1139.59 L1369.56 1148.07 Q1370.58 1147.72 1371.6 1147.56 Q1372.62 1147.37 1373.63 1147.37 Q1379.42 1147.37 1382.8 1150.54 Q1386.18 1153.71 1386.18 1159.13 Q1386.18 1164.71 1382.71 1167.81 Q1379.24 1170.89 1372.92 1170.89 Q1370.74 1170.89 1368.47 1170.52 Q1366.23 1170.15 1363.82 1169.41 L1363.82 1164.71 Q1365.9 1165.84 1368.13 1166.4 Q1370.35 1166.95 1372.82 1166.95 Q1376.83 1166.95 1379.17 1164.85 Q1381.51 1162.74 1381.51 1159.13 Q1381.51 1155.52 1379.17 1153.41 Q1376.83 1151.31 1372.82 1151.31 Q1370.95 1151.31 1369.07 1151.72 Q1367.22 1152.14 1365.28 1153.02 L1365.28 1135.66 Z" fill="#000000" fill-rule="nonzero" fill-opacity="1" /><path clip-path="url(#clip900)" d="M1570.4 1135.66 L1588.75 1135.66 L1588.75 1139.59 L1574.68 1139.59 L1574.68 1148.07 Q1575.7 1147.72 1576.72 1147.56 Q1577.74 1147.37 1578.75 1147.37 Q1584.54 1147.37 1587.92 1150.54 Q1591.3 1153.71 1591.3 1159.13 Q1591.3 1164.71 1587.83 1167.81 Q1584.36 1170.89 1578.04 1170.89 Q1575.86 1170.89 1573.59 1170.52 Q1571.35 1170.15 1568.94 1169.41 L1568.94 1164.71 Q1571.02 1165.84 1573.24 1166.4 Q1575.47 1166.95 1577.94 1166.95 Q1581.95 1166.95 1584.29 1164.85 Q1586.62 1162.74 1586.62 1159.13 Q1586.62 1155.52 1584.29 1153.41 Q1581.95 1151.31 1577.94 1151.31 Q1576.07 1151.31 1574.19 1151.72 Q1572.34 1152.14 1570.4 1153.02 L1570.4 1135.66 Z" fill="#000000" fill-rule="nonzero" fill-opacity="1" /><path clip-path="url(#clip900)" d="M1600.51 1164.34 L1605.4 1164.34 L1605.4 1170.22 L1600.51 1170.22 L1600.51 1164.34 Z" fill="#000000" fill-rule="nonzero" fill-opacity="1" /><path clip-path="url(#clip900)" d="M1625.58 1138.74 Q1621.97 1138.74 1620.14 1142.3 Q1618.34 1145.84 1618.34 1152.97 Q1618.34 1160.08 1620.14 1163.64 Q1621.97 1167.19 1625.58 1167.19 Q1629.22 1167.19 1631.02 1163.64 Q1632.85 1160.08 1632.85 1152.97 Q1632.85 1145.84 1631.02 1142.3 Q1629.22 1138.74 1625.58 1138.74 M1625.58 1135.03 Q1631.39 1135.03 1634.45 1139.64 Q1637.53 1144.22 1637.53 1152.97 Q1637.53 1161.7 1634.45 1166.31 Q1631.39 1170.89 1625.58 1170.89 Q1619.77 1170.89 1616.69 1166.31 Q1613.64 1161.7 1613.64 1152.97 Q1613.64 1144.22 1616.69 1139.64 Q1619.77 1135.03 1625.58 1135.03 Z" fill="#000000" fill-rule="nonzero" fill-opacity="1" /><g clip-path="url(#clip900)">
<text style="fill:#000000; fill-opacity:1; font-family:Arial,Helvetica Neue,Helvetica,sans-serif; font-size:66px; text-anchor:middle;" transform="rotate(0, 1101.35, 1252.42)" x="1101.35" y="1252.42">Re ζ</text>
</g>
<polyline clip-path="url(#clip900)" style="stroke:#000000; stroke-linecap:round; stroke-linejoin:round; stroke-width:4; stroke-opacity:1; fill:none" points="1101.35,1111.02 1101.35,107.256 "/>
<polyline clip-path="url(#clip900)" style="stroke:#000000; stroke-linecap:round; stroke-linejoin:round; stroke-width:4; stroke-opacity:0; fill:none" points="1101.35,1111.02 1101.35,1111.02 "/>
<polyline clip-path="url(#clip900)" style="stroke:#000000; stroke-linecap:round; stroke-linejoin:round; stroke-width:4; stroke-opacity:0; fill:none" points="1101.35,860.078 1101.35,860.078 "/>
<polyline clip-path="url(#clip900)" style="stroke:#000000; stroke-linecap:round; stroke-linejoin:round; stroke-width:4; stroke-opacity:0; fill:none" points="1101.35,609.137 1101.35,609.137 "/>
<polyline clip-path="url(#clip900)" style="stroke:#000000; stroke-linecap:round; stroke-linejoin:round; stroke-width:4; stroke-opacity:0; fill:none" points="1101.35,358.197 1101.35,358.197 "/>
<polyline clip-path="url(#clip900)" style="stroke:#000000; stroke-linecap:round; stroke-linejoin:round; stroke-width:4; stroke-opacity:0; fill:none" points="1101.35,107.256 1101.35,107.256 "/>
<path clip-path="url(#clip900)" d="M462.527 1111.47 L492.202 1111.47 L492.202 1115.41 L462.527 1115.41 L462.527 1111.47 Z" fill="#000000" fill-rule="nonzero" fill-opacity="1" /><path clip-path="url(#clip900)" d="M502.341 1093.74 L520.698 1093.74 L520.698 1097.67 L506.624 1097.67 L506.624 1106.15 Q507.642 1105.8 508.661 1105.64 Q509.679 1105.45 510.698 1105.45 Q516.485 1105.45 519.864 1108.62 Q523.244 1111.79 523.244 1117.21 Q523.244 1122.79 519.772 1125.89 Q516.3 1128.97 509.98 1128.97 Q507.804 1128.97 505.536 1128.6 Q503.29 1128.23 500.883 1127.49 L500.883 1122.79 Q502.966 1123.92 505.188 1124.48 Q507.411 1125.03 509.888 1125.03 Q513.892 1125.03 516.23 1122.93 Q518.568 1120.82 518.568 1117.21 Q518.568 1113.6 516.23 1111.49 Q513.892 1109.39 509.888 1109.39 Q508.013 1109.39 506.138 1109.8 Q504.286 1110.22 502.341 1111.1 L502.341 1093.74 Z" fill="#000000" fill-rule="nonzero" fill-opacity="1" /><path clip-path="url(#clip900)" d="M532.457 1122.42 L537.341 1122.42 L537.341 1128.3 L532.457 1128.3 L532.457 1122.42 Z" fill="#000000" fill-rule="nonzero" fill-opacity="1" /><path clip-path="url(#clip900)" d="M557.526 1096.82 Q553.915 1096.82 552.086 1100.38 Q550.281 1103.92 550.281 1111.05 Q550.281 1118.16 552.086 1121.72 Q553.915 1125.27 557.526 1125.27 Q561.16 1125.27 562.966 1121.72 Q564.795 1118.16 564.795 1111.05 Q564.795 1103.92 562.966 1100.38 Q561.16 1096.82 557.526 1096.82 M557.526 1093.11 Q563.336 1093.11 566.392 1097.72 Q569.471 1102.3 569.471 1111.05 Q569.471 1119.78 566.392 1124.39 Q563.336 1128.97 557.526 1128.97 Q551.716 1128.97 548.637 1124.39 Q545.582 1119.78 545.582 1111.05 Q545.582 1102.3 548.637 1097.72 Q551.716 1093.11 557.526 1093.11 Z" fill="#000000" fill-rule="nonzero" fill-opacity="1" /><path clip-path="url(#clip900)" d="M463.522 860.529 L493.198 860.529 L493.198 864.464 L463.522 864.464 L463.522 860.529 Z" fill="#000000" fill-rule="nonzero" fill-opacity="1" /><path clip-path="url(#clip900)" d="M507.318 873.423 L523.637 873.423 L523.637 877.358 L501.693 877.358 L501.693 873.423 Q504.355 870.668 508.938 866.038 Q513.545 861.386 514.725 860.043 Q516.971 857.52 517.85 855.784 Q518.753 854.025 518.753 852.335 Q518.753 849.58 516.809 847.844 Q514.888 846.108 511.786 846.108 Q509.587 846.108 507.133 846.872 Q504.702 847.636 501.925 849.187 L501.925 844.464 Q504.749 843.33 507.202 842.752 Q509.656 842.173 511.693 842.173 Q517.063 842.173 520.258 844.858 Q523.452 847.543 523.452 852.034 Q523.452 854.164 522.642 856.085 Q521.855 857.983 519.749 860.576 Q519.17 861.247 516.068 864.464 Q512.966 867.659 507.318 873.423 Z" fill="#000000" fill-rule="nonzero" fill-opacity="1" /><path clip-path="url(#clip900)" d="M533.452 871.478 L538.336 871.478 L538.336 877.358 L533.452 877.358 L533.452 871.478 Z" fill="#000000" fill-rule="nonzero" fill-opacity="1" /><path clip-path="url(#clip900)" d="M548.568 842.798 L566.924 842.798 L566.924 846.733 L552.85 846.733 L552.85 855.205 Q553.869 854.858 554.887 854.696 Q555.906 854.511 556.924 854.511 Q562.711 854.511 566.091 857.682 Q569.471 860.853 569.471 866.27 Q569.471 871.849 565.998 874.95 Q562.526 878.029 556.207 878.029 Q554.031 878.029 551.762 877.659 Q549.517 877.288 547.11 876.548 L547.11 871.849 Q549.193 872.983 551.415 873.538 Q553.637 874.094 556.114 874.094 Q560.119 874.094 562.457 871.987 Q564.795 869.881 564.795 866.27 Q564.795 862.659 562.457 860.552 Q560.119 858.446 556.114 858.446 Q554.239 858.446 552.364 858.863 Q550.512 859.279 548.568 860.159 L548.568 842.798 Z" fill="#000000" fill-rule="nonzero" fill-opacity="1" /><path clip-path="url(#clip900)" d="M512.295 594.936 Q508.684 594.936 506.855 598.501 Q505.05 602.042 505.05 609.172 Q505.05 616.278 506.855 619.843 Q508.684 623.385 512.295 623.385 Q515.929 623.385 517.735 619.843 Q519.563 616.278 519.563 609.172 Q519.563 602.042 517.735 598.501 Q515.929 594.936 512.295 594.936 M512.295 591.232 Q518.105 591.232 521.161 595.839 Q524.239 600.422 524.239 609.172 Q524.239 617.899 521.161 622.505 Q518.105 627.088 512.295 627.088 Q506.485 627.088 503.406 622.505 Q500.351 617.899 500.351 609.172 Q500.351 600.422 503.406 595.839 Q506.485 591.232 512.295 591.232 Z" fill="#000000" fill-rule="nonzero" fill-opacity="1" /><path clip-path="url(#clip900)" d="M532.457 620.538 L537.341 620.538 L537.341 626.417 L532.457 626.417 L532.457 620.538 Z" fill="#000000" fill-rule="nonzero" fill-opacity="1" /><path clip-path="url(#clip900)" d="M557.526 594.936 Q553.915 594.936 552.086 598.501 Q550.281 602.042 550.281 609.172 Q550.281 616.278 552.086 619.843 Q553.915 623.385 557.526 623.385 Q561.16 623.385 562.966 619.843 Q564.795 616.278 564.795 609.172 Q564.795 602.042 562.966 598.501 Q561.16 594.936 557.526 594.936 M557.526 591.232 Q563.336 591.232 566.392 595.839 Q569.471 600.422 569.471 609.172 Q569.471 617.899 566.392 622.505 Q563.336 627.088 557.526 627.088 Q551.716 627.088 548.637 622.505 Q545.582 617.899 545.582 609.172 Q545.582 600.422 548.637 595.839 Q551.716 591.232 557.526 591.232 Z" fill="#000000" fill-rule="nonzero" fill-opacity="1" /><path clip-path="url(#clip900)" d="M507.318 371.541 L523.637 371.541 L523.637 375.477 L501.693 375.477 L501.693 371.541 Q504.355 368.787 508.938 364.157 Q513.545 359.504 514.725 358.162 Q516.971 355.639 517.85 353.903 Q518.753 352.143 518.753 350.454 Q518.753 347.699 516.809 345.963 Q514.888 344.227 511.786 344.227 Q509.587 344.227 507.133 344.991 Q504.702 345.754 501.925 347.305 L501.925 342.583 Q504.749 341.449 507.202 340.87 Q509.656 340.292 511.693 340.292 Q517.063 340.292 520.258 342.977 Q523.452 345.662 523.452 350.153 Q523.452 352.282 522.642 354.203 Q521.855 356.102 519.749 358.694 Q519.17 359.366 516.068 362.583 Q512.966 365.778 507.318 371.541 Z" fill="#000000" fill-rule="nonzero" fill-opacity="1" /><path clip-path="url(#clip900)" d="M533.452 369.597 L538.336 369.597 L538.336 375.477 L533.452 375.477 L533.452 369.597 Z" fill="#000000" fill-rule="nonzero" fill-opacity="1" /><path clip-path="url(#clip900)" d="M548.568 340.917 L566.924 340.917 L566.924 344.852 L552.85 344.852 L552.85 353.324 Q553.869 352.977 554.887 352.815 Q555.906 352.629 556.924 352.629 Q562.711 352.629 566.091 355.801 Q569.471 358.972 569.471 364.389 Q569.471 369.967 565.998 373.069 Q562.526 376.148 556.207 376.148 Q554.031 376.148 551.762 375.777 Q549.517 375.407 547.11 374.666 L547.11 369.967 Q549.193 371.102 551.415 371.657 Q553.637 372.213 556.114 372.213 Q560.119 372.213 562.457 370.106 Q564.795 368 564.795 364.389 Q564.795 360.778 562.457 358.671 Q560.119 356.565 556.114 356.565 Q554.239 356.565 552.364 356.981 Q550.512 357.398 548.568 358.278 L548.568 340.917 Z" fill="#000000" fill-rule="nonzero" fill-opacity="1" /><path clip-path="url(#clip900)" d="M502.341 89.9759 L520.698 89.9759 L520.698 93.911 L506.624 93.911 L506.624 102.383 Q507.642 102.036 508.661 101.874 Q509.679 101.689 510.698 101.689 Q516.485 101.689 519.864 104.86 Q523.244 108.031 523.244 113.448 Q523.244 119.027 519.772 122.128 Q516.3 125.207 509.98 125.207 Q507.804 125.207 505.536 124.837 Q503.29 124.466 500.883 123.726 L500.883 119.027 Q502.966 120.161 505.188 120.716 Q507.411 121.272 509.888 121.272 Q513.892 121.272 516.23 119.166 Q518.568 117.059 518.568 113.448 Q518.568 109.837 516.23 107.73 Q513.892 105.624 509.888 105.624 Q508.013 105.624 506.138 106.041 Q504.286 106.457 502.341 107.337 L502.341 89.9759 Z" fill="#000000" fill-rule="nonzero" fill-opacity="1" /><path clip-path="url(#clip900)" d="M532.457 118.656 L537.341 118.656 L537.341 124.536 L532.457 124.536 L532.457 118.656 Z" fill="#000000" fill-rule="nonzero" fill-opacity="1" /><path clip-path="url(#clip900)" d="M557.526 93.0546 Q553.915 93.0546 552.086 96.6194 Q550.281 100.161 550.281 107.291 Q550.281 114.397 552.086 117.962 Q553.915 121.503 557.526 121.503 Q561.16 121.503 562.966 117.962 Q564.795 114.397 564.795 107.291 Q564.795 100.161 562.966 96.6194 Q561.16 93.0546 557.526 93.0546 M557.526 89.3509 Q563.336 89.3509 566.392 93.9573 Q569.471 98.5406 569.471 107.291 Q569.471 116.017 566.392 120.624 Q563.336 125.207 557.526 125.207 Q551.716 125.207 548.637 120.624 Q545.582 116.017 545.582 107.291 Q545.582 98.5406 548.637 93.9573 Q551.716 89.3509 557.526 89.3509 Z" fill="#000000" fill-rule="nonzero" fill-opacity="1" /><g clip-path="url(#clip900)">
<text style="fill:#000000; fill-opacity:1; font-family:Arial,Helvetica Neue,Helvetica,sans-serif; font-size:66px; text-anchor:middle;" transform="rotate(-90, 420.965, 609.137)" x="420.965" y="609.137">Im ζ</text>
</g>
<g clip-path="url(#clip900)">
<text style="fill:#000000; fill-opacity:1; font-family:Arial,Helvetica Neue,Helvetica,sans-serif; font-size:66px; text-anchor:middle;" transform="rotate(0, 1101.35, 57.6)" x="1101.35" y="57.6">Backward Euler for advection</text>
</g>
<path clip-path="url(#clip902)" d="M499.094 1211.39 L1703.61 1211.39 L1703.61 6.87962 L499.094 6.87962 L499.094 1211.39  Z" fill="#ccccff" fill-rule="evenodd" fill-opacity="1"/>
<polyline clip-path="url(#clip902)" style="stroke:#000000; stroke-linecap:round; stroke-linejoin:round; stroke-width:8; stroke-opacity:1; fill:none" points="499.094,1211.39 1703.61,1211.39 1703.61,6.87962 499.094,6.87962 499.094,1211.39 "/>
<path clip-path="url(#clip902)" d="M1302.1 609.137 L1302.09 607.385 L1302.04 605.634 L1301.97 603.884 L1301.86 602.135 L1301.72 600.389 L1301.55 598.645 L1301.36 596.904 L1301.13 595.168 L1300.87 593.435 L1300.58 591.707 L1300.26 589.984 L1299.91 588.268 L1299.53 586.557 L1299.12 584.854 L1298.68 583.158 L1298.22 581.47 L1297.72 579.79 L1297.19 578.119 L1296.64 576.458 L1296.05 574.806 L1295.44 573.166 L1294.8 571.536 L1294.12 569.917 L1293.43 568.31 L1292.7 566.716 L1291.95 565.135 L1291.16 563.567 L1290.36 562.013 L1289.52 560.474 L1288.66 558.949 L1287.77 557.44 L1286.85 555.946 L1285.91 554.468 L1284.94 553.007 L1283.95 551.564 L1282.93 550.137 L1281.89 548.729 L1280.83 547.339 L1279.74 545.968 L1278.62 544.617 L1277.48 543.284 L1276.32 541.972 L1275.14 540.681 L1273.93 539.41 L1272.7 538.16 L1271.46 536.933 L1270.18 535.727 L1268.89 534.543 L1267.58 533.382 L1266.25 532.245 L1264.9 531.13 L1263.53 530.04 L1262.14 528.973 L1260.73 527.931 L1259.3 526.914 L1257.86 525.921 L1256.4 524.955 L1254.92 524.013 L1253.43 523.098 L1251.92 522.209 L1250.39 521.346 L1248.85 520.51 L1247.3 519.701 L1245.73 518.92 L1244.15 518.165 L1242.55 517.439 L1240.95 516.74 L1239.33 516.07 L1237.7 515.428 L1236.06 514.814 L1234.41 514.23 L1232.75 513.674 L1231.08 513.147 L1229.4 512.649 L1227.71 512.181 L1226.01 511.743 L1224.31 511.334 L1222.6 510.954 L1220.88 510.605 L1219.16 510.286 L1217.43 509.997 L1215.7 509.738 L1213.96 509.509 L1212.22 509.311 L1210.48 509.143 L1208.73 509.005 L1206.98 508.898 L1205.23 508.822 L1203.48 508.776 L1201.73 508.761 L1199.98 508.776 L1198.23 508.822 L1196.47 508.898 L1194.73 509.005 L1192.98 509.143 L1191.24 509.311 L1189.5 509.509 L1187.76 509.738 L1186.03 509.997 L1184.3 510.286 L1182.58 510.605 L1180.86 510.954 L1179.15 511.334 L1177.44 511.743 L1175.75 512.181 L1174.06 512.649 L1172.38 513.147 L1170.71 513.674 L1169.05 514.23 L1167.4 514.814 L1165.76 515.428 L1164.13 516.07 L1162.51 516.74 L1160.9 517.439 L1159.31 518.165 L1157.73 518.92 L1156.16 519.701 L1154.6 520.51 L1153.06 521.346 L1151.54 522.209 L1150.03 523.098 L1148.54 524.013 L1147.06 524.955 L1145.6 525.921 L1144.15 526.914 L1142.73 527.931 L1141.32 528.973 L1139.93 530.04 L1138.56 531.13 L1137.21 532.245 L1135.88 533.382 L1134.56 534.543 L1133.27 535.727 L1132 536.933 L1130.75 538.16 L1129.52 539.41 L1128.32 540.681 L1127.13 541.972 L1125.97 543.284 L1124.84 544.617 L1123.72 545.968 L1122.63 547.339 L1121.56 548.729 L1120.52 550.137 L1119.5 551.564 L1118.51 553.007 L1117.55 554.468 L1116.6 555.946 L1115.69 557.44 L1114.8 558.949 L1113.94 560.474 L1113.1 562.013 L1112.29 563.567 L1111.51 565.135 L1110.76 566.716 L1110.03 568.31 L1109.33 569.917 L1108.66 571.536 L1108.02 573.166 L1107.41 574.806 L1106.82 576.458 L1106.26 578.119 L1105.74 579.79 L1105.24 581.47 L1104.77 583.158 L1104.33 584.854 L1103.92 586.557 L1103.55 588.268 L1103.2 589.984 L1102.88 591.707 L1102.59 593.435 L1102.33 595.168 L1102.1 596.904 L1101.9 598.645 L1101.73 600.389 L1101.6 602.135 L1101.49 603.884 L1101.41 605.634 L1101.37 607.385 L1101.35 609.137 L1101.37 610.889 L1101.41 612.64 L1101.49 614.39 L1101.6 616.139 L1101.73 617.886 L1101.9 619.629 L1102.1 621.37 L1102.33 623.107 L1102.59 624.839 L1102.88 626.567 L1103.2 628.29 L1103.55 630.007 L1103.92 631.717 L1104.33 633.42 L1104.77 635.116 L1105.24 636.805 L1105.74 638.484 L1106.26 640.155 L1106.82 641.816 L1107.41 643.468 L1108.02 645.109 L1108.66 646.739 L1109.33 648.357 L1110.03 649.964 L1110.76 651.558 L1111.51 653.139 L1112.29 654.707 L1113.1 656.261 L1113.94 657.801 L1114.8 659.325 L1115.69 660.835 L1116.6 662.328 L1117.55 663.806 L1118.51 665.267 L1119.5 666.711 L1120.52 668.137 L1121.56 669.545 L1122.63 670.935 L1123.72 672.306 L1124.84 673.658 L1125.97 674.99 L1127.13 676.302 L1128.32 677.594 L1129.52 678.864 L1130.75 680.114 L1132 681.342 L1133.27 682.548 L1134.56 683.731 L1135.88 684.892 L1137.21 686.03 L1138.56 687.144 L1139.93 688.235 L1141.32 689.301 L1142.73 690.343 L1144.15 691.361 L1145.6 692.353 L1147.06 693.32 L1148.54 694.261 L1150.03 695.176 L1151.54 696.066 L1153.06 696.928 L1154.6 697.764 L1156.16 698.573 L1157.73 699.355 L1159.31 700.109 L1160.9 700.835 L1162.51 701.534 L1164.13 702.204 L1165.76 702.846 L1167.4 703.46 L1169.05 704.045 L1170.71 704.601 L1172.38 705.127 L1174.06 705.625 L1175.75 706.093 L1177.44 706.532 L1179.15 706.941 L1180.86 707.32 L1182.58 707.669 L1184.3 707.989 L1186.03 708.278 L1187.76 708.537 L1189.5 708.765 L1191.24 708.964 L1192.98 709.131 L1194.73 709.269 L1196.47 709.376 L1198.23 709.452 L1199.98 709.498 L1201.73 709.513 L1203.48 709.498 L1205.23 709.452 L1206.98 709.376 L1208.73 709.269 L1210.48 709.131 L1212.22 708.964 L1213.96 708.765 L1215.7 708.537 L1217.43 708.278 L1219.16 707.989 L1220.88 707.669 L1222.6 707.32 L1224.31 706.941 L1226.01 706.532 L1227.71 706.093 L1229.4 705.625 L1231.08 705.127 L1232.75 704.601 L1234.41 704.045 L1236.06 703.46 L1237.7 702.846 L1239.33 702.204 L1240.95 701.534 L1242.55 700.835 L1244.15 700.109 L1245.73 699.355 L1247.3 698.573 L1248.85 697.764 L1250.39 696.928 L1251.92 696.066 L1253.43 695.176 L1254.92 694.261 L1256.4 693.32 L1257.86 692.353 L1259.3 691.361 L1260.73 690.343 L1262.14 689.301 L1263.53 688.235 L1264.9 687.144 L1266.25 686.03 L1267.58 684.892 L1268.89 683.731 L1270.18 682.548 L1271.46 681.342 L1272.7 680.114 L1273.93 678.864 L1275.14 677.594 L1276.32 676.302 L1277.48 674.99 L1278.62 673.658 L1279.74 672.306 L1280.83 670.935 L1281.89 669.545 L1282.93 668.137 L1283.95 666.711 L1284.94 665.267 L1285.91 663.806 L1286.85 662.328 L1287.77 660.835 L1288.66 659.325 L1289.52 657.801 L1290.36 656.261 L1291.16 654.707 L1291.95 653.139 L1292.7 651.558 L1293.43 649.964 L1294.12 648.357 L1294.8 646.739 L1295.44 645.109 L1296.05 643.468 L1296.64 641.816 L1297.19 640.155 L1297.72 638.484 L1298.22 636.805 L1298.68 635.116 L1299.12 633.42 L1299.53 631.717 L1299.91 630.007 L1300.26 628.29 L1300.58 626.567 L1300.87 624.839 L1301.13 623.107 L1301.36 621.37 L1301.55 619.629 L1301.72 617.886 L1301.86 616.139 L1301.97 614.39 L1302.04 612.64 L1302.09 610.889 L1302.1 609.137 L1302.1 609.137  Z" fill="#ffffff" fill-rule="evenodd" fill-opacity="1"/>
<polyline clip-path="url(#clip902)" style="stroke:#000000; stroke-linecap:round; stroke-linejoin:round; stroke-width:8; stroke-opacity:1; fill:none" points="1302.1,609.137 1302.09,607.385 1302.04,605.634 1301.97,603.884 1301.86,602.135 1301.72,600.389 1301.55,598.645 1301.36,596.904 1301.13,595.168 1300.87,593.435 1300.58,591.707 1300.26,589.984 1299.91,588.268 1299.53,586.557 1299.12,584.854 1298.68,583.158 1298.22,581.47 1297.72,579.79 1297.19,578.119 1296.64,576.458 1296.05,574.806 1295.44,573.166 1294.8,571.536 1294.12,569.917 1293.43,568.31 1292.7,566.716 1291.95,565.135 1291.16,563.567 1290.36,562.013 1289.52,560.474 1288.66,558.949 1287.77,557.44 1286.85,555.946 1285.91,554.468 1284.94,553.007 1283.95,551.564 1282.93,550.137 1281.89,548.729 1280.83,547.339 1279.74,545.968 1278.62,544.617 1277.48,543.284 1276.32,541.972 1275.14,540.681 1273.93,539.41 1272.7,538.16 1271.46,536.933 1270.18,535.727 1268.89,534.543 1267.58,533.382 1266.25,532.245 1264.9,531.13 1263.53,530.04 1262.14,528.973 1260.73,527.931 1259.3,526.914 1257.86,525.921 1256.4,524.955 1254.92,524.013 1253.43,523.098 1251.92,522.209 1250.39,521.346 1248.85,520.51 1247.3,519.701 1245.73,518.92 1244.15,518.165 1242.55,517.439 1240.95,516.74 1239.33,516.07 1237.7,515.428 1236.06,514.814 1234.41,514.23 1232.75,513.674 1231.08,513.147 1229.4,512.649 1227.71,512.181 1226.01,511.743 1224.31,511.334 1222.6,510.954 1220.88,510.605 1219.16,510.286 1217.43,509.997 1215.7,509.738 1213.96,509.509 1212.22,509.311 1210.48,509.143 1208.73,509.005 1206.98,508.898 1205.23,508.822 1203.48,508.776 1201.73,508.761 1199.98,508.776 1198.23,508.822 1196.47,508.898 1194.73,509.005 1192.98,509.143 1191.24,509.311 1189.5,509.509 1187.76,509.738 1186.03,509.997 1184.3,510.286 1182.58,510.605 1180.86,510.954 1179.15,511.334 1177.44,511.743 1175.75,512.181 1174.06,512.649 1172.38,513.147 1170.71,513.674 1169.05,514.23 1167.4,514.814 1165.76,515.428 1164.13,516.07 1162.51,516.74 1160.9,517.439 1159.31,518.165 1157.73,518.92 1156.16,519.701 1154.6,520.51 1153.06,521.346 1151.54,522.209 1150.03,523.098 1148.54,524.013 1147.06,524.955 1145.6,525.921 1144.15,526.914 1142.73,527.931 1141.32,528.973 1139.93,530.04 1138.56,531.13 1137.21,532.245 1135.88,533.382 1134.56,534.543 1133.27,535.727 1132,536.933 1130.75,538.16 1129.52,539.41 1128.32,540.681 1127.13,541.972 1125.97,543.284 1124.84,544.617 1123.72,545.968 1122.63,547.339 1121.56,548.729 1120.52,550.137 1119.5,551.564 1118.51,553.007 1117.55,554.468 1116.6,555.946 1115.69,557.44 1114.8,558.949 1113.94,560.474 1113.1,562.013 1112.29,563.567 1111.51,565.135 1110.76,566.716 1110.03,568.31 1109.33,569.917 1108.66,571.536 1108.02,573.166 1107.41,574.806 1106.82,576.458 1106.26,578.119 1105.74,579.79 1105.24,581.47 1104.77,583.158 1104.33,584.854 1103.92,586.557 1103.55,588.268 1103.2,589.984 1102.88,591.707 1102.59,593.435 1102.33,595.168 1102.1,596.904 1101.9,598.645 1101.73,600.389 1101.6,602.135 1101.49,603.884 1101.41,605.634 1101.37,607.385 1101.35,609.137 1101.37,610.889 1101.41,612.64 1101.49,614.39 1101.6,616.139 1101.73,617.886 1101.9,619.629 1102.1,621.37 1102.33,623.107 1102.59,624.839 1102.88,626.567 1103.2,628.29 1103.55,630.007 1103.92,631.717 1104.33,633.42 1104.77,635.116 1105.24,636.805 1105.74,638.484 1106.26,640.155 1106.82,641.816 1107.41,643.468 1108.02,645.109 1108.66,646.739 1109.33,648.357 1110.03,649.964 1110.76,651.558 1111.51,653.139 1112.29,654.707 1113.1,656.261 1113.94,657.801 1114.8,659.325 1115.69,660.835 1116.6,662.328 1117.55,663.806 1118.51,665.267 1119.5,666.711 1120.52,668.137 1121.56,669.545 1122.63,670.935 1123.72,672.306 1124.84,673.658 1125.97,674.99 1127.13,676.302 1128.32,677.594 1129.52,678.864 1130.75,680.114 1132,681.342 1133.27,682.548 1134.56,683.731 1135.88,684.892 1137.21,686.03 1138.56,687.144 1139.93,688.235 1141.32,689.301 1142.73,690.343 1144.15,691.361 1145.6,692.353 1147.06,693.32 1148.54,694.261 1150.03,695.176 1151.54,696.066 1153.06,696.928 1154.6,697.764 1156.16,698.573 1157.73,699.355 1159.31,700.109 1160.9,700.835 1162.51,701.534 1164.13,702.204 1165.76,702.846 1167.4,703.46 1169.05,704.045 1170.71,704.601 1172.38,705.127 1174.06,705.625 1175.75,706.093 1177.44,706.532 1179.15,706.941 1180.86,707.32 1182.58,707.669 1184.3,707.989 1186.03,708.278 1187.76,708.537 1189.5,708.765 1191.24,708.964 1192.98,709.131 1194.73,709.269 1196.47,709.376 1198.23,709.452 1199.98,709.498 1201.73,709.513 1203.48,709.498 1205.23,709.452 1206.98,709.376 1208.73,709.269 1210.48,709.131 1212.22,708.964 1213.96,708.765 1215.7,708.537 1217.43,708.278 1219.16,707.989 1220.88,707.669 1222.6,707.32 1224.31,706.941 1226.01,706.532 1227.71,706.093 1229.4,705.625 1231.08,705.127 1232.75,704.601 1234.41,704.045 1236.06,703.46 1237.7,702.846 1239.33,702.204 1240.95,701.534 1242.55,700.835 1244.15,700.109 1245.73,699.355 1247.3,698.573 1248.85,697.764 1250.39,696.928 1251.92,696.066 1253.43,695.176 1254.92,694.261 1256.4,693.32 1257.86,692.353 1259.3,691.361 1260.73,690.343 1262.14,689.301 1263.53,688.235 1264.9,687.144 1266.25,686.03 1267.58,684.892 1268.89,683.731 1270.18,682.548 1271.46,681.342 1272.7,680.114 1273.93,678.864 1275.14,677.594 1276.32,676.302 1277.48,674.99 1278.62,673.658 1279.74,672.306 1280.83,670.935 1281.89,669.545 1282.93,668.137 1283.95,666.711 1284.94,665.267 1285.91,663.806 1286.85,662.328 1287.77,660.835 1288.66,659.325 1289.52,657.801 1290.36,656.261 1291.16,654.707 1291.95,653.139 1292.7,651.558 1293.43,649.964 1294.12,648.357 1294.8,646.739 1295.44,645.109 1296.05,643.468 1296.64,641.816 1297.19,640.155 1297.72,638.484 1298.22,636.805 1298.68,635.116 1299.12,633.42 1299.53,631.717 1299.91,630.007 1300.26,628.29 1300.58,626.567 1300.87,624.839 1301.13,623.107 1301.36,621.37 1301.55,619.629 1301.72,617.886 1301.86,616.139 1301.97,614.39 1302.04,612.64 1302.09,610.889 1302.1,609.137 "/>
<circle clip-path="url(#clip902)" cx="1101.35" cy="933.962" r="10.8" fill="#3da44d" fill-rule="evenodd" fill-opacity="1" stroke="#000000" stroke-opacity="1" stroke-width="2.56"/>
<circle clip-path="url(#clip902)" cx="1101.35" cy="284.313" r="10.8" fill="#3da44d" fill-rule="evenodd" fill-opacity="1" stroke="#000000" stroke-opacity="1" stroke-width="2.56"/>
<circle clip-path="url(#clip902)" cx="1101.35" cy="933.962" r="10.8" fill="#3da44d" fill-rule="evenodd" fill-opacity="1" stroke="#000000" stroke-opacity="1" stroke-width="2.56"/>
<circle clip-path="url(#clip902)" cx="1101.35" cy="284.313" r="10.8" fill="#3da44d" fill-rule="evenodd" fill-opacity="1" stroke="#000000" stroke-opacity="1" stroke-width="2.56"/>
<circle clip-path="url(#clip902)" cx="1101.35" cy="893.044" r="10.8" fill="#3da44d" fill-rule="evenodd" fill-opacity="1" stroke="#000000" stroke-opacity="1" stroke-width="2.56"/>
<circle clip-path="url(#clip902)" cx="1101.35" cy="325.23" r="10.8" fill="#3da44d" fill-rule="evenodd" fill-opacity="1" stroke="#000000" stroke-opacity="1" stroke-width="2.56"/>
<circle clip-path="url(#clip902)" cx="1101.35" cy="893.044" r="10.8" fill="#3da44d" fill-rule="evenodd" fill-opacity="1" stroke="#000000" stroke-opacity="1" stroke-width="2.56"/>
<circle clip-path="url(#clip902)" cx="1101.35" cy="325.23" r="10.8" fill="#3da44d" fill-rule="evenodd" fill-opacity="1" stroke="#000000" stroke-opacity="1" stroke-width="2.56"/>
<circle clip-path="url(#clip902)" cx="1101.35" cy="845.136" r="10.8" fill="#3da44d" fill-rule="evenodd" fill-opacity="1" stroke="#000000" stroke-opacity="1" stroke-width="2.56"/>
<circle clip-path="url(#clip902)" cx="1101.35" cy="373.138" r="10.8" fill="#3da44d" fill-rule="evenodd" fill-opacity="1" stroke="#000000" stroke-opacity="1" stroke-width="2.56"/>
<circle clip-path="url(#clip902)" cx="1101.35" cy="791.417" r="10.8" fill="#3da44d" fill-rule="evenodd" fill-opacity="1" stroke="#000000" stroke-opacity="1" stroke-width="2.56"/>
<circle clip-path="url(#clip902)" cx="1101.35" cy="426.858" r="10.8" fill="#3da44d" fill-rule="evenodd" fill-opacity="1" stroke="#000000" stroke-opacity="1" stroke-width="2.56"/>
<circle clip-path="url(#clip902)" cx="1101.35" cy="791.417" r="10.8" fill="#3da44d" fill-rule="evenodd" fill-opacity="1" stroke="#000000" stroke-opacity="1" stroke-width="2.56"/>
<circle clip-path="url(#clip902)" cx="1101.35" cy="426.858" r="10.8" fill="#3da44d" fill-rule="evenodd" fill-opacity="1" stroke="#000000" stroke-opacity="1" stroke-width="2.56"/>
<circle clip-path="url(#clip902)" cx="1101.35" cy="609.137" r="10.8" fill="#3da44d" fill-rule="evenodd" fill-opacity="1" stroke="#000000" stroke-opacity="1" stroke-width="2.56"/>
<circle clip-path="url(#clip902)" cx="1101.35" cy="609.137" r="10.8" fill="#3da44d" fill-rule="evenodd" fill-opacity="1" stroke="#000000" stroke-opacity="1" stroke-width="2.56"/>
<circle clip-path="url(#clip902)" cx="1101.35" cy="671.946" r="10.8" fill="#3da44d" fill-rule="evenodd" fill-opacity="1" stroke="#000000" stroke-opacity="1" stroke-width="2.56"/>
<circle clip-path="url(#clip902)" cx="1101.35" cy="546.328" r="10.8" fill="#3da44d" fill-rule="evenodd" fill-opacity="1" stroke="#000000" stroke-opacity="1" stroke-width="2.56"/>
<circle clip-path="url(#clip902)" cx="1101.35" cy="966.881" r="10.8" fill="#3da44d" fill-rule="evenodd" fill-opacity="1" stroke="#000000" stroke-opacity="1" stroke-width="2.56"/>
<circle clip-path="url(#clip902)" cx="1101.35" cy="251.394" r="10.8" fill="#3da44d" fill-rule="evenodd" fill-opacity="1" stroke="#000000" stroke-opacity="1" stroke-width="2.56"/>
<circle clip-path="url(#clip902)" cx="1101.35" cy="733.209" r="10.8" fill="#3da44d" fill-rule="evenodd" fill-opacity="1" stroke="#000000" stroke-opacity="1" stroke-width="2.56"/>
<circle clip-path="url(#clip902)" cx="1101.35" cy="485.065" r="10.8" fill="#3da44d" fill-rule="evenodd" fill-opacity="1" stroke="#000000" stroke-opacity="1" stroke-width="2.56"/>
<circle clip-path="url(#clip902)" cx="1101.35" cy="671.946" r="10.8" fill="#3da44d" fill-rule="evenodd" fill-opacity="1" stroke="#000000" stroke-opacity="1" stroke-width="2.56"/>
<circle clip-path="url(#clip902)" cx="1101.35" cy="546.328" r="10.8" fill="#3da44d" fill-rule="evenodd" fill-opacity="1" stroke="#000000" stroke-opacity="1" stroke-width="2.56"/>
<circle clip-path="url(#clip902)" cx="1101.35" cy="733.209" r="10.8" fill="#3da44d" fill-rule="evenodd" fill-opacity="1" stroke="#000000" stroke-opacity="1" stroke-width="2.56"/>
<circle clip-path="url(#clip902)" cx="1101.35" cy="485.065" r="10.8" fill="#3da44d" fill-rule="evenodd" fill-opacity="1" stroke="#000000" stroke-opacity="1" stroke-width="2.56"/>
<circle clip-path="url(#clip902)" cx="1101.35" cy="1005.7" r="10.8" fill="#3da44d" fill-rule="evenodd" fill-opacity="1" stroke="#000000" stroke-opacity="1" stroke-width="2.56"/>
<circle clip-path="url(#clip902)" cx="1101.35" cy="212.575" r="10.8" fill="#3da44d" fill-rule="evenodd" fill-opacity="1" stroke="#000000" stroke-opacity="1" stroke-width="2.56"/>
<circle clip-path="url(#clip902)" cx="1101.35" cy="966.881" r="10.8" fill="#3da44d" fill-rule="evenodd" fill-opacity="1" stroke="#000000" stroke-opacity="1" stroke-width="2.56"/>
<circle clip-path="url(#clip902)" cx="1101.35" cy="251.394" r="10.8" fill="#3da44d" fill-rule="evenodd" fill-opacity="1" stroke="#000000" stroke-opacity="1" stroke-width="2.56"/>
<circle clip-path="url(#clip902)" cx="1101.35" cy="1010.64" r="10.8" fill="#3da44d" fill-rule="evenodd" fill-opacity="1" stroke="#000000" stroke-opacity="1" stroke-width="2.56"/>
<circle clip-path="url(#clip902)" cx="1101.35" cy="207.632" r="10.8" fill="#3da44d" fill-rule="evenodd" fill-opacity="1" stroke="#000000" stroke-opacity="1" stroke-width="2.56"/>
<circle clip-path="url(#clip902)" cx="1101.35" cy="845.136" r="10.8" fill="#3da44d" fill-rule="evenodd" fill-opacity="1" stroke="#000000" stroke-opacity="1" stroke-width="2.56"/>
<circle clip-path="url(#clip902)" cx="1101.35" cy="373.138" r="10.8" fill="#3da44d" fill-rule="evenodd" fill-opacity="1" stroke="#000000" stroke-opacity="1" stroke-width="2.56"/>
<circle clip-path="url(#clip902)" cx="1101.35" cy="990.991" r="10.8" fill="#3da44d" fill-rule="evenodd" fill-opacity="1" stroke="#000000" stroke-opacity="1" stroke-width="2.56"/>
<circle clip-path="url(#clip902)" cx="1101.35" cy="227.283" r="10.8" fill="#3da44d" fill-rule="evenodd" fill-opacity="1" stroke="#000000" stroke-opacity="1" stroke-width="2.56"/>
<circle clip-path="url(#clip902)" cx="1101.35" cy="990.991" r="10.8" fill="#3da44d" fill-rule="evenodd" fill-opacity="1" stroke="#000000" stroke-opacity="1" stroke-width="2.56"/>
<circle clip-path="url(#clip902)" cx="1101.35" cy="227.283" r="10.8" fill="#3da44d" fill-rule="evenodd" fill-opacity="1" stroke="#000000" stroke-opacity="1" stroke-width="2.56"/>
<circle clip-path="url(#clip902)" cx="1101.35" cy="1005.7" r="10.8" fill="#3da44d" fill-rule="evenodd" fill-opacity="1" stroke="#000000" stroke-opacity="1" stroke-width="2.56"/>
<circle clip-path="url(#clip902)" cx="1101.35" cy="212.575" r="10.8" fill="#3da44d" fill-rule="evenodd" fill-opacity="1" stroke="#000000" stroke-opacity="1" stroke-width="2.56"/>
</svg>
