<?xml version="1.0" encoding="utf-8"?>
<svg xmlns="http://www.w3.org/2000/svg" xmlns:xlink="http://www.w3.org/1999/xlink" width="500" height="320" viewBox="0 0 2000 1280">
<defs>
  <clipPath id="clip950">
    <rect x="0" y="0" width="2000" height="1280"/>
  </clipPath>
</defs>
<path clip-path="url(#clip950)" d="M0 1280 L2000 1280 L2000 0 L0 0  Z" fill="#ffffff" fill-rule="evenodd" fill-opacity="1"/>
<defs>
  <clipPath id="clip951">
    <rect x="400" y="0" width="1401" height="1280"/>
  </clipPath>
</defs>
<path clip-path="url(#clip950)" d="M212.61 1111.02 L1952.76 1111.02 L1952.76 47.2441 L212.61 47.2441  Z" fill="#ffffff" fill-rule="evenodd" fill-opacity="1"/>
<defs>
  <clipPath id="clip952">
    <rect x="212" y="47" width="1741" height="1065"/>
  </clipPath>
</defs>
<polyline clip-path="url(#clip952)" style="stroke:#000000; stroke-linecap:round; stroke-linejoin:round; stroke-width:2; stroke-opacity:0.1; fill:none" points="444.265,1111.02 444.265,47.2441 "/>
<polyline clip-path="url(#clip952)" style="stroke:#000000; stroke-linecap:round; stroke-linejoin:round; stroke-width:2; stroke-opacity:0.1; fill:none" points="809.075,1111.02 809.075,47.2441 "/>
<polyline clip-path="url(#clip952)" style="stroke:#000000; stroke-linecap:round; stroke-linejoin:round; stroke-width:2; stroke-opacity:0.1; fill:none" points="1173.89,1111.02 1173.89,47.2441 "/>
<polyline clip-path="url(#clip952)" style="stroke:#000000; stroke-linecap:round; stroke-linejoin:round; stroke-width:2; stroke-opacity:0.1; fill:none" points="1538.7,1111.02 1538.7,47.2441 "/>
<polyline clip-path="url(#clip952)" style="stroke:#000000; stroke-linecap:round; stroke-linejoin:round; stroke-width:2; stroke-opacity:0.1; fill:none" points="1903.51,1111.02 1903.51,47.2441 "/>
<polyline clip-path="url(#clip952)" style="stroke:#000000; stroke-linecap:round; stroke-linejoin:round; stroke-width:2; stroke-opacity:0.1; fill:none" points="212.61,940.054 1952.76,940.054 "/>
<polyline clip-path="url(#clip952)" style="stroke:#000000; stroke-linecap:round; stroke-linejoin:round; stroke-width:2; stroke-opacity:0.1; fill:none" points="212.61,750.865 1952.76,750.865 "/>
<polyline clip-path="url(#clip952)" style="stroke:#000000; stroke-linecap:round; stroke-linejoin:round; stroke-width:2; stroke-opacity:0.1; fill:none" points="212.61,561.676 1952.76,561.676 "/>
<polyline clip-path="url(#clip952)" style="stroke:#000000; stroke-linecap:round; stroke-linejoin:round; stroke-width:2; stroke-opacity:0.1; fill:none" points="212.61,372.486 1952.76,372.486 "/>
<polyline clip-path="url(#clip952)" style="stroke:#000000; stroke-linecap:round; stroke-linejoin:round; stroke-width:2; stroke-opacity:0.1; fill:none" points="212.61,183.297 1952.76,183.297 "/>
<polyline clip-path="url(#clip950)" style="stroke:#000000; stroke-linecap:round; stroke-linejoin:round; stroke-width:4; stroke-opacity:1; fill:none" points="212.61,1111.02 1952.76,1111.02 "/>
<polyline clip-path="url(#clip950)" style="stroke:#000000; stroke-linecap:round; stroke-linejoin:round; stroke-width:4; stroke-opacity:1; fill:none" points="444.265,1111.02 444.265,1092.12 "/>
<polyline clip-path="url(#clip950)" style="stroke:#000000; stroke-linecap:round; stroke-linejoin:round; stroke-width:4; stroke-opacity:1; fill:none" points="809.075,1111.02 809.075,1092.12 "/>
<polyline clip-path="url(#clip950)" style="stroke:#000000; stroke-linecap:round; stroke-linejoin:round; stroke-width:4; stroke-opacity:1; fill:none" points="1173.89,1111.02 1173.89,1092.12 "/>
<polyline clip-path="url(#clip950)" style="stroke:#000000; stroke-linecap:round; stroke-linejoin:round; stroke-width:4; stroke-opacity:1; fill:none" points="1538.7,1111.02 1538.7,1092.12 "/>
<polyline clip-path="url(#clip950)" style="stroke:#000000; stroke-linecap:round; stroke-linejoin:round; stroke-width:4; stroke-opacity:1; fill:none" points="1903.51,1111.02 1903.51,1092.12 "/>
<path clip-path="url(#clip950)" d="M388.79 1166.28 L396.429 1166.28 L396.429 1139.92 L388.119 1141.58 L388.119 1137.33 L396.383 1135.66 L401.059 1135.66 L401.059 1166.28 L408.698 1166.28 L408.698 1170.22 L388.79 1170.22 L388.79 1166.28 Z" fill="#000000" fill-rule="nonzero" fill-opacity="1" /><path clip-path="url(#clip950)" d="M418.281 1169.5 L418.281 1165.24 Q420.04 1166.07 421.846 1166.51 Q423.651 1166.95 425.387 1166.95 Q430.017 1166.95 432.448 1163.85 Q434.901 1160.73 435.249 1154.39 Q433.906 1156.38 431.846 1157.44 Q429.786 1158.51 427.286 1158.51 Q422.1 1158.51 419.068 1155.38 Q416.059 1152.23 416.059 1146.79 Q416.059 1141.47 419.207 1138.25 Q422.355 1135.03 427.587 1135.03 Q433.582 1135.03 436.73 1139.64 Q439.901 1144.22 439.901 1152.97 Q439.901 1161.14 436.012 1166.03 Q432.147 1170.89 425.596 1170.89 Q423.837 1170.89 422.031 1170.54 Q420.225 1170.2 418.281 1169.5 M427.587 1154.85 Q430.735 1154.85 432.563 1152.7 Q434.415 1150.54 434.415 1146.79 Q434.415 1143.07 432.563 1140.91 Q430.735 1138.74 427.587 1138.74 Q424.438 1138.74 422.587 1140.91 Q420.758 1143.07 420.758 1146.79 Q420.758 1150.54 422.587 1152.7 Q424.438 1154.85 427.587 1154.85 Z" fill="#000000" fill-rule="nonzero" fill-opacity="1" /><path clip-path="url(#clip950)" d="M458.883 1151.08 Q455.735 1151.08 453.883 1153.23 Q452.054 1155.38 452.054 1159.13 Q452.054 1162.86 453.883 1165.03 Q455.735 1167.19 458.883 1167.19 Q462.031 1167.19 463.859 1165.03 Q465.711 1162.86 465.711 1159.13 Q465.711 1155.38 463.859 1153.23 Q462.031 1151.08 458.883 1151.08 M468.165 1136.42 L468.165 1140.68 Q466.406 1139.85 464.6 1139.41 Q462.818 1138.97 461.059 1138.97 Q456.429 1138.97 453.975 1142.09 Q451.545 1145.22 451.197 1151.54 Q452.563 1149.52 454.623 1148.46 Q456.684 1147.37 459.16 1147.37 Q464.369 1147.37 467.378 1150.54 Q470.41 1153.69 470.41 1159.13 Q470.41 1164.45 467.262 1167.67 Q464.114 1170.89 458.883 1170.89 Q452.887 1170.89 449.716 1166.31 Q446.545 1161.7 446.545 1152.97 Q446.545 1144.78 450.434 1139.92 Q454.322 1135.03 460.873 1135.03 Q462.633 1135.03 464.415 1135.38 Q466.221 1135.73 468.165 1136.42 Z" fill="#000000" fill-rule="nonzero" fill-opacity="1" /><path clip-path="url(#clip950)" d="M488.466 1138.74 Q484.855 1138.74 483.026 1142.3 Q481.22 1145.84 481.22 1152.97 Q481.22 1160.08 483.026 1163.64 Q484.855 1167.19 488.466 1167.19 Q492.1 1167.19 493.906 1163.64 Q495.734 1160.08 495.734 1152.97 Q495.734 1145.84 493.906 1142.3 Q492.1 1138.74 488.466 1138.74 M488.466 1135.03 Q494.276 1135.03 497.332 1139.64 Q500.41 1144.22 500.41 1152.97 Q500.41 1161.7 497.332 1166.31 Q494.276 1170.89 488.466 1170.89 Q482.656 1170.89 479.577 1166.31 Q476.521 1161.7 476.521 1152.97 Q476.521 1144.22 479.577 1139.64 Q482.656 1135.03 488.466 1135.03 Z" fill="#000000" fill-rule="nonzero" fill-opacity="1" /><path clip-path="url(#clip950)" d="M753.601 1166.28 L761.24 1166.28 L761.24 1139.92 L752.93 1141.58 L752.93 1137.33 L761.193 1135.66 L765.869 1135.66 L765.869 1166.28 L773.508 1166.28 L773.508 1170.22 L753.601 1170.22 L753.601 1166.28 Z" fill="#000000" fill-rule="nonzero" fill-opacity="1" /><path clip-path="url(#clip950)" d="M783.091 1169.5 L783.091 1165.24 Q784.851 1166.07 786.656 1166.51 Q788.462 1166.95 790.198 1166.95 Q794.828 1166.95 797.258 1163.85 Q799.712 1160.73 800.059 1154.39 Q798.716 1156.38 796.656 1157.44 Q794.596 1158.51 792.096 1158.51 Q786.911 1158.51 783.878 1155.38 Q780.869 1152.23 780.869 1146.79 Q780.869 1141.47 784.017 1138.25 Q787.166 1135.03 792.397 1135.03 Q798.392 1135.03 801.54 1139.64 Q804.712 1144.22 804.712 1152.97 Q804.712 1161.14 800.823 1166.03 Q796.957 1170.89 790.406 1170.89 Q788.647 1170.89 786.841 1170.54 Q785.036 1170.2 783.091 1169.5 M792.397 1154.85 Q795.545 1154.85 797.374 1152.7 Q799.226 1150.54 799.226 1146.79 Q799.226 1143.07 797.374 1140.91 Q795.545 1138.74 792.397 1138.74 Q789.249 1138.74 787.397 1140.91 Q785.568 1143.07 785.568 1146.79 Q785.568 1150.54 787.397 1152.7 Q789.249 1154.85 792.397 1154.85 Z" fill="#000000" fill-rule="nonzero" fill-opacity="1" /><path clip-path="url(#clip950)" d="M811.934 1135.66 L834.156 1135.66 L834.156 1137.65 L821.61 1170.22 L816.726 1170.22 L828.531 1139.59 L811.934 1139.59 L811.934 1135.66 Z" fill="#000000" fill-rule="nonzero" fill-opacity="1" /><path clip-path="url(#clip950)" d="M853.276 1138.74 Q849.665 1138.74 847.836 1142.3 Q846.031 1145.84 846.031 1152.97 Q846.031 1160.08 847.836 1163.64 Q849.665 1167.19 853.276 1167.19 Q856.911 1167.19 858.716 1163.64 Q860.545 1160.08 860.545 1152.97 Q860.545 1145.84 858.716 1142.3 Q856.911 1138.74 853.276 1138.74 M853.276 1135.03 Q859.086 1135.03 862.142 1139.64 Q865.221 1144.22 865.221 1152.97 Q865.221 1161.7 862.142 1166.31 Q859.086 1170.89 853.276 1170.89 Q847.466 1170.89 844.387 1166.31 Q841.332 1161.7 841.332 1152.97 Q841.332 1144.22 844.387 1139.64 Q847.466 1135.03 853.276 1135.03 Z" fill="#000000" fill-rule="nonzero" fill-opacity="1" /><path clip-path="url(#clip950)" d="M1118.41 1166.28 L1126.05 1166.28 L1126.05 1139.92 L1117.74 1141.58 L1117.74 1137.33 L1126 1135.66 L1130.68 1135.66 L1130.68 1166.28 L1138.32 1166.28 L1138.32 1170.22 L1118.41 1170.22 L1118.41 1166.28 Z" fill="#000000" fill-rule="nonzero" fill-opacity="1" /><path clip-path="url(#clip950)" d="M1147.9 1169.5 L1147.9 1165.24 Q1149.66 1166.07 1151.47 1166.51 Q1153.27 1166.95 1155.01 1166.95 Q1159.64 1166.95 1162.07 1163.85 Q1164.52 1160.73 1164.87 1154.39 Q1163.53 1156.38 1161.47 1157.44 Q1159.41 1158.51 1156.91 1158.51 Q1151.72 1158.51 1148.69 1155.38 Q1145.68 1152.23 1145.68 1146.79 Q1145.68 1141.47 1148.83 1138.25 Q1151.98 1135.03 1157.21 1135.03 Q1163.2 1135.03 1166.35 1139.64 Q1169.52 1144.22 1169.52 1152.97 Q1169.52 1161.14 1165.63 1166.03 Q1161.77 1170.89 1155.22 1170.89 Q1153.46 1170.89 1151.65 1170.54 Q1149.85 1170.2 1147.9 1169.5 M1157.21 1154.85 Q1160.36 1154.85 1162.18 1152.7 Q1164.04 1150.54 1164.04 1146.79 Q1164.04 1143.07 1162.18 1140.91 Q1160.36 1138.74 1157.21 1138.74 Q1154.06 1138.74 1152.21 1140.91 Q1150.38 1143.07 1150.38 1146.79 Q1150.38 1150.54 1152.21 1152.7 Q1154.06 1154.85 1157.21 1154.85 Z" fill="#000000" fill-rule="nonzero" fill-opacity="1" /><path clip-path="url(#clip950)" d="M1187.92 1153.81 Q1184.59 1153.81 1182.67 1155.59 Q1180.77 1157.37 1180.77 1160.5 Q1180.77 1163.62 1182.67 1165.4 Q1184.59 1167.19 1187.92 1167.19 Q1191.26 1167.19 1193.18 1165.4 Q1195.1 1163.6 1195.1 1160.5 Q1195.1 1157.37 1193.18 1155.59 Q1191.28 1153.81 1187.92 1153.81 M1183.25 1151.82 Q1180.24 1151.08 1178.55 1149.01 Q1176.88 1146.95 1176.88 1143.99 Q1176.88 1139.85 1179.82 1137.44 Q1182.79 1135.03 1187.92 1135.03 Q1193.09 1135.03 1196.03 1137.44 Q1198.97 1139.85 1198.97 1143.99 Q1198.97 1146.95 1197.28 1149.01 Q1195.61 1151.08 1192.62 1151.82 Q1196 1152.6 1197.88 1154.89 Q1199.78 1157.19 1199.78 1160.5 Q1199.78 1165.52 1196.7 1168.2 Q1193.64 1170.89 1187.92 1170.89 Q1182.21 1170.89 1179.13 1168.2 Q1176.07 1165.52 1176.07 1160.5 Q1176.07 1157.19 1177.97 1154.89 Q1179.87 1152.6 1183.25 1151.82 M1181.54 1144.43 Q1181.54 1147.12 1183.2 1148.62 Q1184.89 1150.13 1187.92 1150.13 Q1190.93 1150.13 1192.62 1148.62 Q1194.34 1147.12 1194.34 1144.43 Q1194.34 1141.75 1192.62 1140.24 Q1190.93 1138.74 1187.92 1138.74 Q1184.89 1138.74 1183.2 1140.24 Q1181.54 1141.75 1181.54 1144.43 Z" fill="#000000" fill-rule="nonzero" fill-opacity="1" /><path clip-path="url(#clip950)" d="M1218.09 1138.74 Q1214.48 1138.74 1212.65 1142.3 Q1210.84 1145.84 1210.84 1152.97 Q1210.84 1160.08 1212.65 1163.64 Q1214.48 1167.19 1218.09 1167.19 Q1221.72 1167.19 1223.53 1163.64 Q1225.36 1160.08 1225.36 1152.97 Q1225.36 1145.84 1223.53 1142.3 Q1221.72 1138.74 1218.09 1138.74 M1218.09 1135.03 Q1223.9 1135.03 1226.95 1139.64 Q1230.03 1144.22 1230.03 1152.97 Q1230.03 1161.7 1226.95 1166.31 Q1223.9 1170.89 1218.09 1170.89 Q1212.28 1170.89 1209.2 1166.31 Q1206.14 1161.7 1206.14 1152.97 Q1206.14 1144.22 1209.2 1139.64 Q1212.28 1135.03 1218.09 1135.03 Z" fill="#000000" fill-rule="nonzero" fill-opacity="1" /><path clip-path="url(#clip950)" d="M1483.22 1166.28 L1490.86 1166.28 L1490.86 1139.92 L1482.55 1141.58 L1482.55 1137.33 L1490.81 1135.66 L1495.49 1135.66 L1495.49 1166.28 L1503.13 1166.28 L1503.13 1170.22 L1483.22 1170.22 L1483.22 1166.28 Z" fill="#000000" fill-rule="nonzero" fill-opacity="1" /><path clip-path="url(#clip950)" d="M1512.71 1169.5 L1512.71 1165.24 Q1514.47 1166.07 1516.28 1166.51 Q1518.08 1166.95 1519.82 1166.95 Q1524.45 1166.95 1526.88 1163.85 Q1529.33 1160.73 1529.68 1154.39 Q1528.34 1156.38 1526.28 1157.44 Q1524.22 1158.51 1521.72 1158.51 Q1516.53 1158.51 1513.5 1155.38 Q1510.49 1152.23 1510.49 1146.79 Q1510.49 1141.47 1513.64 1138.25 Q1516.79 1135.03 1522.02 1135.03 Q1528.01 1135.03 1531.16 1139.64 Q1534.33 1144.22 1534.33 1152.97 Q1534.33 1161.14 1530.44 1166.03 Q1526.58 1170.89 1520.03 1170.89 Q1518.27 1170.89 1516.46 1170.54 Q1514.66 1170.2 1512.71 1169.5 M1522.02 1154.85 Q1525.17 1154.85 1526.99 1152.7 Q1528.85 1150.54 1528.85 1146.79 Q1528.85 1143.07 1526.99 1140.91 Q1525.17 1138.74 1522.02 1138.74 Q1518.87 1138.74 1517.02 1140.91 Q1515.19 1143.07 1515.19 1146.79 Q1515.19 1150.54 1517.02 1152.7 Q1518.87 1154.85 1522.02 1154.85 Z" fill="#000000" fill-rule="nonzero" fill-opacity="1" /><path clip-path="url(#clip950)" d="M1542.87 1169.5 L1542.87 1165.24 Q1544.63 1166.07 1546.44 1166.51 Q1548.24 1166.95 1549.98 1166.95 Q1554.61 1166.95 1557.04 1163.85 Q1559.49 1160.73 1559.84 1154.39 Q1558.5 1156.38 1556.44 1157.44 Q1554.38 1158.51 1551.88 1158.51 Q1546.69 1158.51 1543.66 1155.38 Q1540.65 1152.23 1540.65 1146.79 Q1540.65 1141.47 1543.8 1138.25 Q1546.95 1135.03 1552.18 1135.03 Q1558.18 1135.03 1561.32 1139.64 Q1564.49 1144.22 1564.49 1152.97 Q1564.49 1161.14 1560.61 1166.03 Q1556.74 1170.89 1550.19 1170.89 Q1548.43 1170.89 1546.62 1170.54 Q1544.82 1170.2 1542.87 1169.5 M1552.18 1154.85 Q1555.33 1154.85 1557.16 1152.7 Q1559.01 1150.54 1559.01 1146.79 Q1559.01 1143.07 1557.16 1140.91 Q1555.33 1138.74 1552.18 1138.74 Q1549.03 1138.74 1547.18 1140.91 Q1545.35 1143.07 1545.35 1146.79 Q1545.35 1150.54 1547.18 1152.7 Q1549.03 1154.85 1552.18 1154.85 Z" fill="#000000" fill-rule="nonzero" fill-opacity="1" /><path clip-path="url(#clip950)" d="M1582.9 1138.74 Q1579.29 1138.74 1577.46 1142.3 Q1575.65 1145.84 1575.65 1152.97 Q1575.65 1160.08 1577.46 1163.64 Q1579.29 1167.19 1582.9 1167.19 Q1586.53 1167.19 1588.34 1163.64 Q1590.17 1160.08 1590.17 1152.97 Q1590.17 1145.84 1588.34 1142.3 Q1586.53 1138.74 1582.9 1138.74 M1582.9 1135.03 Q1588.71 1135.03 1591.76 1139.64 Q1594.84 1144.22 1594.84 1152.97 Q1594.84 1161.7 1591.76 1166.31 Q1588.71 1170.89 1582.9 1170.89 Q1577.09 1170.89 1574.01 1166.31 Q1570.95 1161.7 1570.95 1152.97 Q1570.95 1144.22 1574.01 1139.64 Q1577.09 1135.03 1582.9 1135.03 Z" fill="#000000" fill-rule="nonzero" fill-opacity="1" /><path clip-path="url(#clip950)" d="M1852.12 1166.28 L1868.44 1166.28 L1868.44 1170.22 L1846.49 1170.22 L1846.49 1166.28 Q1849.15 1163.53 1853.74 1158.9 Q1858.34 1154.25 1859.53 1152.9 Q1861.77 1150.38 1862.65 1148.64 Q1863.55 1146.89 1863.55 1145.2 Q1863.55 1142.44 1861.61 1140.7 Q1859.69 1138.97 1856.59 1138.97 Q1854.39 1138.97 1851.93 1139.73 Q1849.5 1140.5 1846.72 1142.05 L1846.72 1137.33 Q1849.55 1136.19 1852 1135.61 Q1854.46 1135.03 1856.49 1135.03 Q1861.86 1135.03 1865.06 1137.72 Q1868.25 1140.4 1868.25 1144.89 Q1868.25 1147.02 1867.44 1148.95 Q1866.65 1150.84 1864.55 1153.44 Q1863.97 1154.11 1860.87 1157.33 Q1857.77 1160.52 1852.12 1166.28 Z" fill="#000000" fill-rule="nonzero" fill-opacity="1" /><path clip-path="url(#clip950)" d="M1888.25 1138.74 Q1884.64 1138.74 1882.81 1142.3 Q1881.01 1145.84 1881.01 1152.97 Q1881.01 1160.08 1882.81 1163.64 Q1884.64 1167.19 1888.25 1167.19 Q1891.89 1167.19 1893.69 1163.64 Q1895.52 1160.08 1895.52 1152.97 Q1895.52 1145.84 1893.69 1142.3 Q1891.89 1138.74 1888.25 1138.74 M1888.25 1135.03 Q1894.06 1135.03 1897.12 1139.64 Q1900.2 1144.22 1900.2 1152.97 Q1900.2 1161.7 1897.12 1166.31 Q1894.06 1170.89 1888.25 1170.89 Q1882.44 1170.89 1879.36 1166.31 Q1876.31 1161.7 1876.31 1152.97 Q1876.31 1144.22 1879.36 1139.64 Q1882.44 1135.03 1888.25 1135.03 Z" fill="#000000" fill-rule="nonzero" fill-opacity="1" /><path clip-path="url(#clip950)" d="M1918.41 1138.74 Q1914.8 1138.74 1912.97 1142.3 Q1911.17 1145.84 1911.17 1152.97 Q1911.17 1160.08 1912.97 1163.64 Q1914.8 1167.19 1918.41 1167.19 Q1922.05 1167.19 1923.85 1163.64 Q1925.68 1160.08 1925.68 1152.97 Q1925.68 1145.84 1923.85 1142.3 Q1922.05 1138.74 1918.41 1138.74 M1918.41 1135.03 Q1924.22 1135.03 1927.28 1139.64 Q1930.36 1144.22 1930.36 1152.97 Q1930.36 1161.7 1927.28 1166.31 Q1924.22 1170.89 1918.41 1170.89 Q1912.6 1170.89 1909.52 1166.31 Q1906.47 1161.7 1906.47 1152.97 Q1906.47 1144.22 1909.52 1139.64 Q1912.6 1135.03 1918.41 1135.03 Z" fill="#000000" fill-rule="nonzero" fill-opacity="1" /><path clip-path="url(#clip950)" d="M1948.58 1138.74 Q1944.96 1138.74 1943.14 1142.3 Q1941.33 1145.84 1941.33 1152.97 Q1941.33 1160.08 1943.14 1163.64 Q1944.96 1167.19 1948.58 1167.19 Q1952.21 1167.19 1954.02 1163.64 Q1955.84 1160.08 1955.84 1152.97 Q1955.84 1145.84 1954.02 1142.3 Q1952.21 1138.74 1948.58 1138.74 M1948.58 1135.03 Q1954.39 1135.03 1957.44 1139.64 Q1960.52 1144.22 1960.52 1152.97 Q1960.52 1161.7 1957.44 1166.31 Q1954.39 1170.89 1948.58 1170.89 Q1942.77 1170.89 1939.69 1166.31 Q1936.63 1161.7 1936.63 1152.97 Q1936.63 1144.22 1939.69 1139.64 Q1942.77 1135.03 1948.58 1135.03 Z" fill="#000000" fill-rule="nonzero" fill-opacity="1" /><g clip-path="url(#clip950)">
<text style="fill:#000000; fill-opacity:1; font-family:Arial,Helvetica Neue,Helvetica,sans-serif; font-size:66px; text-anchor:middle;" transform="rotate(0, 1082.68, 1252.42)" x="1082.68" y="1252.42">year</text>
</g>
<polyline clip-path="url(#clip950)" style="stroke:#000000; stroke-linecap:round; stroke-linejoin:round; stroke-width:4; stroke-opacity:1; fill:none" points="212.61,1111.02 212.61,47.2441 "/>
<polyline clip-path="url(#clip950)" style="stroke:#000000; stroke-linecap:round; stroke-linejoin:round; stroke-width:4; stroke-opacity:1; fill:none" points="212.61,940.054 231.508,940.054 "/>
<polyline clip-path="url(#clip950)" style="stroke:#000000; stroke-linecap:round; stroke-linejoin:round; stroke-width:4; stroke-opacity:1; fill:none" points="212.61,750.865 231.508,750.865 "/>
<polyline clip-path="url(#clip950)" style="stroke:#000000; stroke-linecap:round; stroke-linejoin:round; stroke-width:4; stroke-opacity:1; fill:none" points="212.61,561.676 231.508,561.676 "/>
<polyline clip-path="url(#clip950)" style="stroke:#000000; stroke-linecap:round; stroke-linejoin:round; stroke-width:4; stroke-opacity:1; fill:none" points="212.61,372.486 231.508,372.486 "/>
<polyline clip-path="url(#clip950)" style="stroke:#000000; stroke-linecap:round; stroke-linejoin:round; stroke-width:4; stroke-opacity:1; fill:none" points="212.61,183.297 231.508,183.297 "/>
<path clip-path="url(#clip950)" d="M125.434 925.853 Q121.823 925.853 119.995 929.418 Q118.189 932.959 118.189 940.089 Q118.189 947.195 119.995 950.76 Q121.823 954.302 125.434 954.302 Q129.069 954.302 130.874 950.76 Q132.703 947.195 132.703 940.089 Q132.703 932.959 130.874 929.418 Q129.069 925.853 125.434 925.853 M125.434 922.149 Q131.245 922.149 134.3 926.756 Q137.379 931.339 137.379 940.089 Q137.379 948.816 134.3 953.422 Q131.245 958.006 125.434 958.006 Q119.624 958.006 116.546 953.422 Q113.49 948.816 113.49 940.089 Q113.49 931.339 116.546 926.756 Q119.624 922.149 125.434 922.149 Z" fill="#000000" fill-rule="nonzero" fill-opacity="1" /><path clip-path="url(#clip950)" d="M145.596 951.455 L150.481 951.455 L150.481 957.334 L145.596 957.334 L145.596 951.455 Z" fill="#000000" fill-rule="nonzero" fill-opacity="1" /><path clip-path="url(#clip950)" d="M170.666 925.853 Q167.055 925.853 165.226 929.418 Q163.42 932.959 163.42 940.089 Q163.42 947.195 165.226 950.76 Q167.055 954.302 170.666 954.302 Q174.3 954.302 176.105 950.76 Q177.934 947.195 177.934 940.089 Q177.934 932.959 176.105 929.418 Q174.3 925.853 170.666 925.853 M170.666 922.149 Q176.476 922.149 179.531 926.756 Q182.61 931.339 182.61 940.089 Q182.61 948.816 179.531 953.422 Q176.476 958.006 170.666 958.006 Q164.855 958.006 161.777 953.422 Q158.721 948.816 158.721 940.089 Q158.721 931.339 161.777 926.756 Q164.855 922.149 170.666 922.149 Z" fill="#000000" fill-rule="nonzero" fill-opacity="1" /><path clip-path="url(#clip950)" d="M126.661 736.664 Q123.05 736.664 121.221 740.228 Q119.416 743.77 119.416 750.9 Q119.416 758.006 121.221 761.571 Q123.05 765.113 126.661 765.113 Q130.295 765.113 132.101 761.571 Q133.93 758.006 133.93 750.9 Q133.93 743.77 132.101 740.228 Q130.295 736.664 126.661 736.664 M126.661 732.96 Q132.471 732.96 135.527 737.566 Q138.606 742.15 138.606 750.9 Q138.606 759.626 135.527 764.233 Q132.471 768.816 126.661 768.816 Q120.851 768.816 117.772 764.233 Q114.717 759.626 114.717 750.9 Q114.717 742.15 117.772 737.566 Q120.851 732.96 126.661 732.96 Z" fill="#000000" fill-rule="nonzero" fill-opacity="1" /><path clip-path="url(#clip950)" d="M146.823 762.265 L151.707 762.265 L151.707 768.145 L146.823 768.145 L146.823 762.265 Z" fill="#000000" fill-rule="nonzero" fill-opacity="1" /><path clip-path="url(#clip950)" d="M162.703 764.21 L170.342 764.21 L170.342 737.844 L162.031 739.511 L162.031 735.252 L170.295 733.585 L174.971 733.585 L174.971 764.21 L182.61 764.21 L182.61 768.145 L162.703 768.145 L162.703 764.21 Z" fill="#000000" fill-rule="nonzero" fill-opacity="1" /><path clip-path="url(#clip950)" d="M127.032 547.474 Q123.421 547.474 121.592 551.039 Q119.786 554.581 119.786 561.71 Q119.786 568.817 121.592 572.382 Q123.421 575.923 127.032 575.923 Q130.666 575.923 132.471 572.382 Q134.3 568.817 134.3 561.71 Q134.3 554.581 132.471 551.039 Q130.666 547.474 127.032 547.474 M127.032 543.771 Q132.842 543.771 135.897 548.377 Q138.976 552.96 138.976 561.71 Q138.976 570.437 135.897 575.044 Q132.842 579.627 127.032 579.627 Q121.221 579.627 118.143 575.044 Q115.087 570.437 115.087 561.71 Q115.087 552.96 118.143 548.377 Q121.221 543.771 127.032 543.771 Z" fill="#000000" fill-rule="nonzero" fill-opacity="1" /><path clip-path="url(#clip950)" d="M147.194 573.076 L152.078 573.076 L152.078 578.956 L147.194 578.956 L147.194 573.076 Z" fill="#000000" fill-rule="nonzero" fill-opacity="1" /><path clip-path="url(#clip950)" d="M166.291 575.02 L182.61 575.02 L182.61 578.956 L160.666 578.956 L160.666 575.02 Q163.328 572.266 167.911 567.636 Q172.517 562.983 173.698 561.641 Q175.943 559.118 176.823 557.382 Q177.726 555.622 177.726 553.933 Q177.726 551.178 175.781 549.442 Q173.86 547.706 170.758 547.706 Q168.559 547.706 166.105 548.47 Q163.675 549.234 160.897 550.784 L160.897 546.062 Q163.721 544.928 166.175 544.349 Q168.629 543.771 170.666 543.771 Q176.036 543.771 179.23 546.456 Q182.425 549.141 182.425 553.632 Q182.425 555.761 181.615 557.683 Q180.828 559.581 178.721 562.173 Q178.142 562.845 175.041 566.062 Q171.939 569.257 166.291 575.02 Z" fill="#000000" fill-rule="nonzero" fill-opacity="1" /><path clip-path="url(#clip950)" d="M126.083 358.285 Q122.471 358.285 120.643 361.85 Q118.837 365.391 118.837 372.521 Q118.837 379.627 120.643 383.192 Q122.471 386.734 126.083 386.734 Q129.717 386.734 131.522 383.192 Q133.351 379.627 133.351 372.521 Q133.351 365.391 131.522 361.85 Q129.717 358.285 126.083 358.285 M126.083 354.581 Q131.893 354.581 134.948 359.188 Q138.027 363.771 138.027 372.521 Q138.027 381.248 134.948 385.854 Q131.893 390.438 126.083 390.438 Q120.272 390.438 117.194 385.854 Q114.138 381.248 114.138 372.521 Q114.138 363.771 117.194 359.188 Q120.272 354.581 126.083 354.581 Z" fill="#000000" fill-rule="nonzero" fill-opacity="1" /><path clip-path="url(#clip950)" d="M146.244 383.887 L151.129 383.887 L151.129 389.766 L146.244 389.766 L146.244 383.887 Z" fill="#000000" fill-rule="nonzero" fill-opacity="1" /><path clip-path="url(#clip950)" d="M175.48 371.132 Q178.837 371.85 180.712 374.118 Q182.61 376.387 182.61 379.72 Q182.61 384.836 179.092 387.637 Q175.573 390.438 169.092 390.438 Q166.916 390.438 164.601 389.998 Q162.309 389.581 159.856 388.725 L159.856 384.211 Q161.8 385.345 164.115 385.924 Q166.43 386.502 168.953 386.502 Q173.351 386.502 175.642 384.766 Q177.957 383.03 177.957 379.72 Q177.957 376.664 175.805 374.952 Q173.675 373.215 169.855 373.215 L165.828 373.215 L165.828 369.373 L170.041 369.373 Q173.49 369.373 175.318 368.007 Q177.147 366.618 177.147 364.026 Q177.147 361.364 175.249 359.952 Q173.374 358.516 169.855 358.516 Q167.934 358.516 165.735 358.933 Q163.536 359.35 160.897 360.229 L160.897 356.063 Q163.559 355.322 165.874 354.952 Q168.212 354.581 170.272 354.581 Q175.596 354.581 178.698 357.012 Q181.8 359.419 181.8 363.54 Q181.8 366.41 180.156 368.401 Q178.513 370.368 175.48 371.132 Z" fill="#000000" fill-rule="nonzero" fill-opacity="1" /><path clip-path="url(#clip950)" d="M124.948 169.096 Q121.337 169.096 119.509 172.66 Q117.703 176.202 117.703 183.332 Q117.703 190.438 119.509 194.003 Q121.337 197.545 124.948 197.545 Q128.583 197.545 130.388 194.003 Q132.217 190.438 132.217 183.332 Q132.217 176.202 130.388 172.66 Q128.583 169.096 124.948 169.096 M124.948 165.392 Q130.758 165.392 133.814 169.998 Q136.893 174.582 136.893 183.332 Q136.893 192.058 133.814 196.665 Q130.758 201.248 124.948 201.248 Q119.138 201.248 116.059 196.665 Q113.004 192.058 113.004 183.332 Q113.004 174.582 116.059 169.998 Q119.138 165.392 124.948 165.392 Z" fill="#000000" fill-rule="nonzero" fill-opacity="1" /><path clip-path="url(#clip950)" d="M145.11 194.697 L149.994 194.697 L149.994 200.577 L145.11 200.577 L145.11 194.697 Z" fill="#000000" fill-rule="nonzero" fill-opacity="1" /><path clip-path="url(#clip950)" d="M173.027 170.091 L161.221 188.54 L173.027 188.54 L173.027 170.091 M171.8 166.017 L177.679 166.017 L177.679 188.54 L182.61 188.54 L182.61 192.429 L177.679 192.429 L177.679 200.577 L173.027 200.577 L173.027 192.429 L157.425 192.429 L157.425 187.915 L171.8 166.017 Z" fill="#000000" fill-rule="nonzero" fill-opacity="1" /><g clip-path="url(#clip950)">
<text style="fill:#000000; fill-opacity:1; font-family:Arial,Helvetica Neue,Helvetica,sans-serif; font-size:66px; text-anchor:middle;" transform="rotate(-90, 71.4418, 579.131)" x="71.4418" y="579.131">anomaly (degrees C)</text>
</g>
<circle clip-path="url(#clip952)" cx="261.859" cy="1030.87" r="10.8" fill="#009af9" fill-rule="evenodd" fill-opacity="1" stroke="#000000" stroke-opacity="1" stroke-width="2.56"/>
<circle clip-path="url(#clip952)" cx="444.265" cy="974.108" r="10.8" fill="#009af9" fill-rule="evenodd" fill-opacity="1" stroke="#000000" stroke-opacity="1" stroke-width="2.56"/>
<circle clip-path="url(#clip952)" cx="626.67" cy="1008.16" r="10.8" fill="#009af9" fill-rule="evenodd" fill-opacity="1" stroke="#000000" stroke-opacity="1" stroke-width="2.56"/>
<circle clip-path="url(#clip952)" cx="809.075" cy="962.757" r="10.8" fill="#009af9" fill-rule="evenodd" fill-opacity="1" stroke="#000000" stroke-opacity="1" stroke-width="2.56"/>
<circle clip-path="url(#clip952)" cx="991.48" cy="947.622" r="10.8" fill="#009af9" fill-rule="evenodd" fill-opacity="1" stroke="#000000" stroke-opacity="1" stroke-width="2.56"/>
<circle clip-path="url(#clip952)" cx="1173.89" cy="716.811" r="10.8" fill="#009af9" fill-rule="evenodd" fill-opacity="1" stroke="#000000" stroke-opacity="1" stroke-width="2.56"/>
<circle clip-path="url(#clip952)" cx="1356.29" cy="542.757" r="10.8" fill="#009af9" fill-rule="evenodd" fill-opacity="1" stroke="#000000" stroke-opacity="1" stroke-width="2.56"/>
<circle clip-path="url(#clip952)" cx="1538.7" cy="311.946" r="10.8" fill="#009af9" fill-rule="evenodd" fill-opacity="1" stroke="#000000" stroke-opacity="1" stroke-width="2.56"/>
<circle clip-path="url(#clip952)" cx="1721.1" cy="308.162" r="10.8" fill="#009af9" fill-rule="evenodd" fill-opacity="1" stroke="#000000" stroke-opacity="1" stroke-width="2.56"/>
<circle clip-path="url(#clip952)" cx="1903.51" cy="77.3509" r="10.8" fill="#009af9" fill-rule="evenodd" fill-opacity="1" stroke="#000000" stroke-opacity="1" stroke-width="2.56"/>
<polyline clip-path="url(#clip952)" style="stroke:#e26f46; stroke-linecap:round; stroke-linejoin:round; stroke-width:8; stroke-opacity:1; fill:none" points="261.859,1030.87 263.978,991.853 266.096,955.086 268.215,920.487 270.333,887.98 272.452,857.491 274.57,828.95 275.63,815.387 276.689,802.285 277.748,789.636 278.807,777.43 280.358,760.342 281.909,744.162 283.46,728.865 285.011,714.427 286.562,700.824 288.113,688.031 289.664,676.027 291.215,664.787 292.766,654.29 294.317,644.514 295.868,635.436 297.419,627.038 300.521,612.192 303.623,599.818 306.725,589.759 309.827,581.869 312.929,576.006 316.031,572.034 319.133,569.822 322.235,569.246 325.336,570.186 328.438,572.528 331.54,576.163 334.642,580.985 337.744,586.896 340.846,593.801 343.948,601.608 347.05,610.231 350.152,619.589 353.254,629.602 359.458,651.302 365.662,674.783 371.866,699.551 378.07,725.166 389.614,773.778 401.158,821.889 406.93,845.23 412.702,867.869 418.474,889.664 424.246,910.499 431.983,936.753 439.72,960.929 447.457,982.899 455.193,1002.58 462.93,1019.95 470.667,1034.99 478.404,1047.74 486.14,1058.26 492.533,1065.33 498.926,1070.99 505.319,1075.31 511.712,1078.35 518.105,1080.19 524.498,1080.91 530.891,1080.6 537.284,1079.33 549.174,1074.74 561.063,1067.71 572.953,1058.78 584.842,1048.49 614.694,1019.75 644.545,991.899 657.933,980.989 671.321,971.48 684.71,963.565 698.098,957.356 713.423,952.389 728.747,949.653 744.072,949 759.397,950.191 782.307,954.736 805.218,961.496 834.521,971.212 863.823,979.49 877.196,982.071 890.568,983.597 903.941,983.884 917.313,982.777 932.533,979.669 947.752,974.478 962.972,967.137 978.191,957.64 990.256,948.61 1002.32,938.305 1014.39,926.791 1026.45,914.155 1041.44,897.046 1056.43,878.586 1071.42,859.023 1086.41,838.621 1109.36,806.373 1132.32,773.785 1148.51,751.109 1164.69,729.012 1180.88,707.738 1197.06,687.486 1209.15,673.104 1221.25,659.408 1233.34,646.413 1245.44,634.116 1259.19,620.943 1272.94,608.568 1286.7,596.888 1300.45,585.769 1327.69,564.757 1354.93,543.827 1369.92,531.755 1384.9,518.935 1399.89,505.11 1414.87,490.052 1426.32,477.603 1437.77,464.265 1449.21,450.003 1460.66,434.805 1475.1,414.328 1489.55,392.514 1503.99,369.575 1518.44,345.821 1545.15,301.22 1571.87,258.923 1578.76,248.947 1585.65,239.527 1592.54,230.761 1599.43,222.746 1606.32,215.586 1613.21,209.383 1620.09,204.242 1626.98,200.269 1633.97,197.538 1640.95,196.219 1647.93,196.414 1654.91,198.22 1661.9,201.729 1668.88,207.024 1675.86,214.177 1682.85,223.25 1690.14,234.822 1697.43,248.571 1704.72,264.508 1712.01,282.616 1719.3,302.849 1726.59,325.127 1733.88,349.332 1741.18,375.301 1752.66,419.273 1764.15,465.996 1775.64,513.996 1787.12,561.358 1793.66,587.133 1800.2,611.398 1803.47,622.782 1806.74,633.559 1810.01,643.646 1813.29,652.951 1816.56,661.381 1819.83,668.835 1823.1,675.208 1826.37,680.39 1829.64,684.265 1832.91,686.711 1836.18,687.599 1839.45,686.798 1842.72,684.165 1845.99,679.555 1849.26,672.813 1852.53,663.781 1854.16,658.353 1855.8,652.289 1857.43,645.566 1859.07,638.163 1860.7,630.056 1862.34,621.221 1863.97,611.634 1865.61,601.271 1867.24,590.107 1868.88,578.116 1870.51,565.273 1872.15,551.549 1873.78,536.919 1875.42,521.354 1877.05,504.827 1878.69,487.308 1880.32,468.767 1881.96,449.176 1883.59,428.503 1885.23,406.717 1886.86,383.786 1888.5,359.678 1890.13,334.359 1891.77,307.797 1892.5,295.463 1893.23,282.868 1893.97,270.009 1894.7,256.884 1896.17,229.818 1897.64,201.646 1899.1,172.341 1900.57,141.875 1902.04,110.221 1903.51,77.3509 "/>
<path clip-path="url(#clip950)" d="M1465.92 1075.56 L1894.75 1075.56 L1894.75 920.039 L1465.92 920.039  Z" fill="#ffffff" fill-rule="evenodd" fill-opacity="1"/>
<polyline clip-path="url(#clip950)" style="stroke:#000000; stroke-linecap:round; stroke-linejoin:round; stroke-width:4; stroke-opacity:1; fill:none" points="1465.92,1075.56 1894.75,1075.56 1894.75,920.039 1465.92,920.039 1465.92,1075.56 "/>
<circle clip-path="url(#clip950)" cx="1543.26" cy="971.879" r="19.7486" fill="#009af9" fill-rule="evenodd" fill-opacity="1" stroke="#000000" stroke-opacity="1" stroke-width="4.68114"/>
<path clip-path="url(#clip950)" d="M1639.51 967.169 L1639.51 953.141 L1643.77 953.141 L1643.77 989.159 L1639.51 989.159 L1639.51 985.27 Q1638.17 987.585 1636.11 988.72 Q1634.07 989.831 1631.2 989.831 Q1626.51 989.831 1623.54 986.081 Q1620.6 982.331 1620.6 976.22 Q1620.6 970.109 1623.54 966.359 Q1626.51 962.609 1631.2 962.609 Q1634.07 962.609 1636.11 963.743 Q1638.17 964.854 1639.51 967.169 M1625 976.22 Q1625 980.919 1626.92 983.604 Q1628.87 986.266 1632.25 986.266 Q1635.63 986.266 1637.57 983.604 Q1639.51 980.919 1639.51 976.22 Q1639.51 971.521 1637.57 968.859 Q1635.63 966.173 1632.25 966.173 Q1628.87 966.173 1626.92 968.859 Q1625 971.521 1625 976.22 Z" fill="#000000" fill-rule="nonzero" fill-opacity="1" /><path clip-path="url(#clip950)" d="M1664.33 976.127 Q1659.17 976.127 1657.18 977.308 Q1655.19 978.488 1655.19 981.335 Q1655.19 983.604 1656.67 984.946 Q1658.17 986.266 1660.74 986.266 Q1664.28 986.266 1666.41 983.766 Q1668.57 981.243 1668.57 977.076 L1668.57 976.127 L1664.33 976.127 M1672.82 974.368 L1672.82 989.159 L1668.57 989.159 L1668.57 985.224 Q1667.11 987.585 1664.93 988.72 Q1662.76 989.831 1659.61 989.831 Q1655.63 989.831 1653.26 987.608 Q1650.93 985.363 1650.93 981.613 Q1650.93 977.238 1653.84 975.016 Q1656.78 972.794 1662.59 972.794 L1668.57 972.794 L1668.57 972.377 Q1668.57 969.437 1666.62 967.84 Q1664.7 966.22 1661.2 966.22 Q1658.98 966.22 1656.88 966.752 Q1654.77 967.284 1652.82 968.349 L1652.82 964.414 Q1655.16 963.511 1657.36 963.072 Q1659.56 962.609 1661.64 962.609 Q1667.27 962.609 1670.05 965.525 Q1672.82 968.442 1672.82 974.368 Z" fill="#000000" fill-rule="nonzero" fill-opacity="1" /><path clip-path="url(#clip950)" d="M1685.81 955.872 L1685.81 963.234 L1694.58 963.234 L1694.58 966.544 L1685.81 966.544 L1685.81 980.618 Q1685.81 983.789 1686.67 984.692 Q1687.55 985.595 1690.21 985.595 L1694.58 985.595 L1694.58 989.159 L1690.21 989.159 Q1685.28 989.159 1683.4 987.331 Q1681.53 985.479 1681.53 980.618 L1681.53 966.544 L1678.4 966.544 L1678.4 963.234 L1681.53 963.234 L1681.53 955.872 L1685.81 955.872 Z" fill="#000000" fill-rule="nonzero" fill-opacity="1" /><path clip-path="url(#clip950)" d="M1711.97 976.127 Q1706.81 976.127 1704.82 977.308 Q1702.82 978.488 1702.82 981.335 Q1702.82 983.604 1704.31 984.946 Q1705.81 986.266 1708.38 986.266 Q1711.92 986.266 1714.05 983.766 Q1716.2 981.243 1716.2 977.076 L1716.2 976.127 L1711.97 976.127 M1720.46 974.368 L1720.46 989.159 L1716.2 989.159 L1716.2 985.224 Q1714.75 987.585 1712.57 988.72 Q1710.39 989.831 1707.25 989.831 Q1703.26 989.831 1700.9 987.608 Q1698.57 985.363 1698.57 981.613 Q1698.57 977.238 1701.48 975.016 Q1704.42 972.794 1710.23 972.794 L1716.2 972.794 L1716.2 972.377 Q1716.2 969.437 1714.26 967.84 Q1712.34 966.22 1708.84 966.22 Q1706.62 966.22 1704.51 966.752 Q1702.41 967.284 1700.46 968.349 L1700.46 964.414 Q1702.8 963.511 1705 963.072 Q1707.2 962.609 1709.28 962.609 Q1714.91 962.609 1717.69 965.525 Q1720.46 968.442 1720.46 974.368 Z" fill="#000000" fill-rule="nonzero" fill-opacity="1" /><polyline clip-path="url(#clip950)" style="stroke:#e26f46; stroke-linecap:round; stroke-linejoin:round; stroke-width:8; stroke-opacity:1; fill:none" points="1485.26,1023.72 1601.27,1023.72 "/>
<path clip-path="url(#clip950)" d="M1620.6 1015.07 L1624.86 1015.07 L1624.86 1041 L1620.6 1041 L1620.6 1015.07 M1620.6 1004.98 L1624.86 1004.98 L1624.86 1010.37 L1620.6 1010.37 L1620.6 1004.98 Z" fill="#000000" fill-rule="nonzero" fill-opacity="1" /><path clip-path="url(#clip950)" d="M1655.32 1025.35 L1655.32 1041 L1651.07 1041 L1651.07 1025.49 Q1651.07 1021.81 1649.63 1019.98 Q1648.2 1018.15 1645.32 1018.15 Q1641.88 1018.15 1639.88 1020.35 Q1637.89 1022.55 1637.89 1026.35 L1637.89 1041 L1633.61 1041 L1633.61 1015.07 L1637.89 1015.07 L1637.89 1019.1 Q1639.42 1016.76 1641.48 1015.61 Q1643.57 1014.45 1646.27 1014.45 Q1650.74 1014.45 1653.03 1017.23 Q1655.32 1019.98 1655.32 1025.35 Z" fill="#000000" fill-rule="nonzero" fill-opacity="1" /><path clip-path="url(#clip950)" d="M1668.03 1007.71 L1668.03 1015.07 L1676.81 1015.07 L1676.81 1018.38 L1668.03 1018.38 L1668.03 1032.46 Q1668.03 1035.63 1668.89 1036.53 Q1669.77 1037.43 1672.43 1037.43 L1676.81 1037.43 L1676.81 1041 L1672.43 1041 Q1667.5 1041 1665.63 1039.17 Q1663.75 1037.32 1663.75 1032.46 L1663.75 1018.38 L1660.63 1018.38 L1660.63 1015.07 L1663.75 1015.07 L1663.75 1007.71 L1668.03 1007.71 Z" fill="#000000" fill-rule="nonzero" fill-opacity="1" /><path clip-path="url(#clip950)" d="M1704.58 1026.97 L1704.58 1029.05 L1685 1029.05 Q1685.28 1033.45 1687.64 1035.77 Q1690.02 1038.06 1694.26 1038.06 Q1696.71 1038.06 1699 1037.46 Q1701.32 1036.86 1703.59 1035.65 L1703.59 1039.68 Q1701.3 1040.65 1698.89 1041.16 Q1696.48 1041.67 1694.01 1041.67 Q1687.8 1041.67 1684.17 1038.06 Q1680.56 1034.45 1680.56 1028.29 Q1680.56 1021.93 1683.98 1018.2 Q1687.43 1014.45 1693.26 1014.45 Q1698.5 1014.45 1701.53 1017.83 Q1704.58 1021.18 1704.58 1026.97 M1700.32 1025.72 Q1700.28 1022.23 1698.36 1020.14 Q1696.46 1018.06 1693.31 1018.06 Q1689.75 1018.06 1687.59 1020.07 Q1685.46 1022.09 1685.14 1025.74 L1700.32 1025.72 Z" fill="#000000" fill-rule="nonzero" fill-opacity="1" /><path clip-path="url(#clip950)" d="M1726.6 1019.06 Q1725.88 1018.64 1725.02 1018.45 Q1724.19 1018.24 1723.17 1018.24 Q1719.56 1018.24 1717.62 1020.61 Q1715.69 1022.94 1715.69 1027.34 L1715.69 1041 L1711.41 1041 L1711.41 1015.07 L1715.69 1015.07 L1715.69 1019.1 Q1717.04 1016.74 1719.19 1015.61 Q1721.34 1014.45 1724.42 1014.45 Q1724.86 1014.45 1725.39 1014.52 Q1725.93 1014.56 1726.57 1014.68 L1726.6 1019.06 Z" fill="#000000" fill-rule="nonzero" fill-opacity="1" /><path clip-path="url(#clip950)" d="M1735.19 1037.11 L1735.19 1050.86 L1730.9 1050.86 L1730.9 1015.07 L1735.19 1015.07 L1735.19 1019.01 Q1736.53 1016.69 1738.56 1015.58 Q1740.63 1014.45 1743.47 1014.45 Q1748.19 1014.45 1751.13 1018.2 Q1754.1 1021.95 1754.1 1028.06 Q1754.1 1034.17 1751.13 1037.92 Q1748.19 1041.67 1743.47 1041.67 Q1740.63 1041.67 1738.56 1040.56 Q1736.53 1039.43 1735.19 1037.11 M1749.68 1028.06 Q1749.68 1023.36 1747.73 1020.7 Q1745.81 1018.01 1742.43 1018.01 Q1739.05 1018.01 1737.11 1020.7 Q1735.19 1023.36 1735.19 1028.06 Q1735.19 1032.76 1737.11 1035.44 Q1739.05 1038.11 1742.43 1038.11 Q1745.81 1038.11 1747.73 1035.44 Q1749.68 1032.76 1749.68 1028.06 Z" fill="#000000" fill-rule="nonzero" fill-opacity="1" /><path clip-path="url(#clip950)" d="M1771.2 1018.06 Q1767.78 1018.06 1765.79 1020.74 Q1763.8 1023.41 1763.8 1028.06 Q1763.8 1032.71 1765.76 1035.4 Q1767.75 1038.06 1771.2 1038.06 Q1774.61 1038.06 1776.6 1035.37 Q1778.59 1032.69 1778.59 1028.06 Q1778.59 1023.45 1776.6 1020.77 Q1774.61 1018.06 1771.2 1018.06 M1771.2 1014.45 Q1776.76 1014.45 1779.93 1018.06 Q1783.1 1021.67 1783.1 1028.06 Q1783.1 1034.43 1779.93 1038.06 Q1776.76 1041.67 1771.2 1041.67 Q1765.63 1041.67 1762.45 1038.06 Q1759.31 1034.43 1759.31 1028.06 Q1759.31 1021.67 1762.45 1018.06 Q1765.63 1014.45 1771.2 1014.45 Z" fill="#000000" fill-rule="nonzero" fill-opacity="1" /><path clip-path="url(#clip950)" d="M1790.16 1004.98 L1794.42 1004.98 L1794.42 1041 L1790.16 1041 L1790.16 1004.98 Z" fill="#000000" fill-rule="nonzero" fill-opacity="1" /><path clip-path="url(#clip950)" d="M1815.12 1027.97 Q1809.95 1027.97 1807.96 1029.15 Q1805.97 1030.33 1805.97 1033.18 Q1805.97 1035.44 1807.45 1036.79 Q1808.96 1038.11 1811.53 1038.11 Q1815.07 1038.11 1817.2 1035.61 Q1819.35 1033.08 1819.35 1028.92 L1819.35 1027.97 L1815.12 1027.97 M1823.61 1026.21 L1823.61 1041 L1819.35 1041 L1819.35 1037.06 Q1817.89 1039.43 1815.72 1040.56 Q1813.54 1041.67 1810.39 1041.67 Q1806.41 1041.67 1804.05 1039.45 Q1801.71 1037.2 1801.71 1033.45 Q1801.71 1029.08 1804.63 1026.86 Q1807.57 1024.63 1813.38 1024.63 L1819.35 1024.63 L1819.35 1024.22 Q1819.35 1021.28 1817.41 1019.68 Q1815.49 1018.06 1811.99 1018.06 Q1809.77 1018.06 1807.66 1018.59 Q1805.56 1019.12 1803.61 1020.19 L1803.61 1016.25 Q1805.95 1015.35 1808.15 1014.91 Q1810.35 1014.45 1812.43 1014.45 Q1818.06 1014.45 1820.83 1017.37 Q1823.61 1020.28 1823.61 1026.21 Z" fill="#000000" fill-rule="nonzero" fill-opacity="1" /><path clip-path="url(#clip950)" d="M1853.93 1025.35 L1853.93 1041 L1849.68 1041 L1849.68 1025.49 Q1849.68 1021.81 1848.24 1019.98 Q1846.81 1018.15 1843.93 1018.15 Q1840.49 1018.15 1838.49 1020.35 Q1836.5 1022.55 1836.5 1026.35 L1836.5 1041 L1832.22 1041 L1832.22 1015.07 L1836.5 1015.07 L1836.5 1019.1 Q1838.03 1016.76 1840.09 1015.61 Q1842.18 1014.45 1844.88 1014.45 Q1849.35 1014.45 1851.64 1017.23 Q1853.93 1019.98 1853.93 1025.35 Z" fill="#000000" fill-rule="nonzero" fill-opacity="1" /><path clip-path="url(#clip950)" d="M1866.64 1007.71 L1866.64 1015.07 L1875.42 1015.07 L1875.42 1018.38 L1866.64 1018.38 L1866.64 1032.46 Q1866.64 1035.63 1867.5 1036.53 Q1868.38 1037.43 1871.04 1037.43 L1875.42 1037.43 L1875.42 1041 L1871.04 1041 Q1866.11 1041 1864.24 1039.17 Q1862.36 1037.32 1862.36 1032.46 L1862.36 1018.38 L1859.24 1018.38 L1859.24 1015.07 L1862.36 1015.07 L1862.36 1007.71 L1866.64 1007.71 Z" fill="#000000" fill-rule="nonzero" fill-opacity="1" /></svg>
