<?xml version="1.0" encoding="utf-8"?>
<svg xmlns="http://www.w3.org/2000/svg" xmlns:xlink="http://www.w3.org/1999/xlink" width="500" height="320" viewBox="0 0 2000 1280">
<defs>
  <clipPath id="clip170">
    <rect x="0" y="0" width="2000" height="1280"/>
  </clipPath>
</defs>
<path clip-path="url(#clip170)" d="M0 1280 L2000 1280 L2000 0 L0 0  Z" fill="#ffffff" fill-rule="evenodd" fill-opacity="1"/>
<defs>
  <clipPath id="clip171">
    <rect x="400" y="0" width="1401" height="1280"/>
  </clipPath>
</defs>
<path clip-path="url(#clip170)" d="M295.202 853.47 L1952.76 853.47 L1952.76 364.804 L295.202 364.804  Z" fill="#ffffff" fill-rule="evenodd" fill-opacity="1"/>
<defs>
  <clipPath id="clip172">
    <rect x="295" y="364" width="1659" height="490"/>
  </clipPath>
</defs>
<polyline clip-path="url(#clip172)" style="stroke:#000000; stroke-linecap:round; stroke-linejoin:round; stroke-width:2; stroke-opacity:0.1; fill:none" points="439.847,853.47 439.847,364.804 "/>
<polyline clip-path="url(#clip172)" style="stroke:#000000; stroke-linecap:round; stroke-linejoin:round; stroke-width:2; stroke-opacity:0.1; fill:none" points="684.18,853.47 684.18,364.804 "/>
<polyline clip-path="url(#clip172)" style="stroke:#000000; stroke-linecap:round; stroke-linejoin:round; stroke-width:2; stroke-opacity:0.1; fill:none" points="928.513,853.47 928.513,364.804 "/>
<polyline clip-path="url(#clip172)" style="stroke:#000000; stroke-linecap:round; stroke-linejoin:round; stroke-width:2; stroke-opacity:0.1; fill:none" points="1172.85,853.47 1172.85,364.804 "/>
<polyline clip-path="url(#clip172)" style="stroke:#000000; stroke-linecap:round; stroke-linejoin:round; stroke-width:2; stroke-opacity:0.1; fill:none" points="1417.18,853.47 1417.18,364.804 "/>
<polyline clip-path="url(#clip172)" style="stroke:#000000; stroke-linecap:round; stroke-linejoin:round; stroke-width:2; stroke-opacity:0.1; fill:none" points="1661.51,853.47 1661.51,364.804 "/>
<polyline clip-path="url(#clip172)" style="stroke:#000000; stroke-linecap:round; stroke-linejoin:round; stroke-width:2; stroke-opacity:0.1; fill:none" points="1905.84,853.47 1905.84,364.804 "/>
<polyline clip-path="url(#clip172)" style="stroke:#000000; stroke-linecap:round; stroke-linejoin:round; stroke-width:2; stroke-opacity:0.1; fill:none" points="295.202,853.47 1952.76,853.47 "/>
<polyline clip-path="url(#clip172)" style="stroke:#000000; stroke-linecap:round; stroke-linejoin:round; stroke-width:2; stroke-opacity:0.1; fill:none" points="295.202,731.304 1952.76,731.304 "/>
<polyline clip-path="url(#clip172)" style="stroke:#000000; stroke-linecap:round; stroke-linejoin:round; stroke-width:2; stroke-opacity:0.1; fill:none" points="295.202,609.137 1952.76,609.137 "/>
<polyline clip-path="url(#clip172)" style="stroke:#000000; stroke-linecap:round; stroke-linejoin:round; stroke-width:2; stroke-opacity:0.1; fill:none" points="295.202,486.971 1952.76,486.971 "/>
<polyline clip-path="url(#clip172)" style="stroke:#000000; stroke-linecap:round; stroke-linejoin:round; stroke-width:2; stroke-opacity:0.1; fill:none" points="295.202,364.804 1952.76,364.804 "/>
<polyline clip-path="url(#clip170)" style="stroke:#000000; stroke-linecap:round; stroke-linejoin:round; stroke-width:4; stroke-opacity:1; fill:none" points="295.202,609.137 1952.76,609.137 "/>
<polyline clip-path="url(#clip170)" style="stroke:#000000; stroke-linecap:round; stroke-linejoin:round; stroke-width:4; stroke-opacity:0; fill:none" points="439.847,609.137 439.847,609.137 "/>
<polyline clip-path="url(#clip170)" style="stroke:#000000; stroke-linecap:round; stroke-linejoin:round; stroke-width:4; stroke-opacity:0; fill:none" points="684.18,609.137 684.18,609.137 "/>
<polyline clip-path="url(#clip170)" style="stroke:#000000; stroke-linecap:round; stroke-linejoin:round; stroke-width:4; stroke-opacity:0; fill:none" points="928.513,609.137 928.513,609.137 "/>
<polyline clip-path="url(#clip170)" style="stroke:#000000; stroke-linecap:round; stroke-linejoin:round; stroke-width:4; stroke-opacity:0; fill:none" points="1172.85,609.137 1172.85,609.137 "/>
<polyline clip-path="url(#clip170)" style="stroke:#000000; stroke-linecap:round; stroke-linejoin:round; stroke-width:4; stroke-opacity:0; fill:none" points="1417.18,609.137 1417.18,609.137 "/>
<polyline clip-path="url(#clip170)" style="stroke:#000000; stroke-linecap:round; stroke-linejoin:round; stroke-width:4; stroke-opacity:0; fill:none" points="1661.51,609.137 1661.51,609.137 "/>
<polyline clip-path="url(#clip170)" style="stroke:#000000; stroke-linecap:round; stroke-linejoin:round; stroke-width:4; stroke-opacity:0; fill:none" points="1905.84,609.137 1905.84,609.137 "/>
<path clip-path="url(#clip170)" d="M363.748 895.841 L393.424 895.841 L393.424 899.777 L363.748 899.777 L363.748 895.841 Z" fill="#000000" fill-rule="nonzero" fill-opacity="1" /><path clip-path="url(#clip170)" d="M414.095 893.527 Q410.947 893.527 409.095 895.679 Q407.266 897.832 407.266 901.582 Q407.266 905.309 409.095 907.485 Q410.947 909.638 414.095 909.638 Q417.243 909.638 419.072 907.485 Q420.924 905.309 420.924 901.582 Q420.924 897.832 419.072 895.679 Q417.243 893.527 414.095 893.527 M423.377 878.874 L423.377 883.133 Q421.618 882.3 419.813 881.86 Q418.03 881.42 416.271 881.42 Q411.641 881.42 409.188 884.545 Q406.757 887.67 406.41 893.99 Q407.776 891.976 409.836 890.911 Q411.896 889.823 414.373 889.823 Q419.581 889.823 422.59 892.994 Q425.623 896.142 425.623 901.582 Q425.623 906.906 422.475 910.124 Q419.326 913.341 414.095 913.341 Q408.1 913.341 404.928 908.758 Q401.757 904.152 401.757 895.425 Q401.757 887.23 405.646 882.369 Q409.535 877.485 416.086 877.485 Q417.845 877.485 419.627 877.832 Q421.433 878.179 423.377 878.874 Z" fill="#000000" fill-rule="nonzero" fill-opacity="1" /><path clip-path="url(#clip170)" d="M443.678 881.189 Q440.067 881.189 438.238 884.753 Q436.433 888.295 436.433 895.425 Q436.433 902.531 438.238 906.096 Q440.067 909.638 443.678 909.638 Q447.312 909.638 449.118 906.096 Q450.947 902.531 450.947 895.425 Q450.947 888.295 449.118 884.753 Q447.312 881.189 443.678 881.189 M443.678 877.485 Q449.488 877.485 452.544 882.091 Q455.623 886.675 455.623 895.425 Q455.623 904.152 452.544 908.758 Q449.488 913.341 443.678 913.341 Q437.868 913.341 434.789 908.758 Q431.734 904.152 431.734 895.425 Q431.734 886.675 434.789 882.091 Q437.868 877.485 443.678 877.485 Z" fill="#000000" fill-rule="nonzero" fill-opacity="1" /><path clip-path="url(#clip170)" d="M473.84 881.189 Q470.229 881.189 468.4 884.753 Q466.595 888.295 466.595 895.425 Q466.595 902.531 468.4 906.096 Q470.229 909.638 473.84 909.638 Q477.474 909.638 479.28 906.096 Q481.109 902.531 481.109 895.425 Q481.109 888.295 479.28 884.753 Q477.474 881.189 473.84 881.189 M473.84 877.485 Q479.65 877.485 482.706 882.091 Q485.784 886.675 485.784 895.425 Q485.784 904.152 482.706 908.758 Q479.65 913.341 473.84 913.341 Q468.03 913.341 464.951 908.758 Q461.896 904.152 461.896 895.425 Q461.896 886.675 464.951 882.091 Q468.03 877.485 473.84 877.485 Z" fill="#000000" fill-rule="nonzero" fill-opacity="1" /><path clip-path="url(#clip170)" d="M504.002 881.189 Q500.391 881.189 498.562 884.753 Q496.757 888.295 496.757 895.425 Q496.757 902.531 498.562 906.096 Q500.391 909.638 504.002 909.638 Q507.636 909.638 509.442 906.096 Q511.27 902.531 511.27 895.425 Q511.27 888.295 509.442 884.753 Q507.636 881.189 504.002 881.189 M504.002 877.485 Q509.812 877.485 512.868 882.091 Q515.946 886.675 515.946 895.425 Q515.946 904.152 512.868 908.758 Q509.812 913.341 504.002 913.341 Q498.192 913.341 495.113 908.758 Q492.058 904.152 492.058 895.425 Q492.058 886.675 495.113 882.091 Q498.192 877.485 504.002 877.485 Z" fill="#000000" fill-rule="nonzero" fill-opacity="1" /><path clip-path="url(#clip170)" d="M608.081 895.841 L637.757 895.841 L637.757 899.777 L608.081 899.777 L608.081 895.841 Z" fill="#000000" fill-rule="nonzero" fill-opacity="1" /><path clip-path="url(#clip170)" d="M647.895 878.11 L666.252 878.11 L666.252 882.045 L652.178 882.045 L652.178 890.517 Q653.196 890.17 654.215 890.008 Q655.233 889.823 656.252 889.823 Q662.039 889.823 665.419 892.994 Q668.798 896.165 668.798 901.582 Q668.798 907.161 665.326 910.263 Q661.854 913.341 655.534 913.341 Q653.358 913.341 651.09 912.971 Q648.845 912.601 646.437 911.86 L646.437 907.161 Q648.52 908.295 650.743 908.851 Q652.965 909.406 655.442 909.406 Q659.446 909.406 661.784 907.3 Q664.122 905.193 664.122 901.582 Q664.122 897.971 661.784 895.865 Q659.446 893.758 655.442 893.758 Q653.567 893.758 651.692 894.175 Q649.84 894.591 647.895 895.471 L647.895 878.11 Z" fill="#000000" fill-rule="nonzero" fill-opacity="1" /><path clip-path="url(#clip170)" d="M688.011 881.189 Q684.4 881.189 682.571 884.753 Q680.766 888.295 680.766 895.425 Q680.766 902.531 682.571 906.096 Q684.4 909.638 688.011 909.638 Q691.645 909.638 693.451 906.096 Q695.279 902.531 695.279 895.425 Q695.279 888.295 693.451 884.753 Q691.645 881.189 688.011 881.189 M688.011 877.485 Q693.821 877.485 696.877 882.091 Q699.955 886.675 699.955 895.425 Q699.955 904.152 696.877 908.758 Q693.821 913.341 688.011 913.341 Q682.201 913.341 679.122 908.758 Q676.067 904.152 676.067 895.425 Q676.067 886.675 679.122 882.091 Q682.201 877.485 688.011 877.485 Z" fill="#000000" fill-rule="nonzero" fill-opacity="1" /><path clip-path="url(#clip170)" d="M718.173 881.189 Q714.562 881.189 712.733 884.753 Q710.928 888.295 710.928 895.425 Q710.928 902.531 712.733 906.096 Q714.562 909.638 718.173 909.638 Q721.807 909.638 723.613 906.096 Q725.441 902.531 725.441 895.425 Q725.441 888.295 723.613 884.753 Q721.807 881.189 718.173 881.189 M718.173 877.485 Q723.983 877.485 727.039 882.091 Q730.117 886.675 730.117 895.425 Q730.117 904.152 727.039 908.758 Q723.983 913.341 718.173 913.341 Q712.363 913.341 709.284 908.758 Q706.228 904.152 706.228 895.425 Q706.228 886.675 709.284 882.091 Q712.363 877.485 718.173 877.485 Z" fill="#000000" fill-rule="nonzero" fill-opacity="1" /><path clip-path="url(#clip170)" d="M748.335 881.189 Q744.724 881.189 742.895 884.753 Q741.089 888.295 741.089 895.425 Q741.089 902.531 742.895 906.096 Q744.724 909.638 748.335 909.638 Q751.969 909.638 753.775 906.096 Q755.603 902.531 755.603 895.425 Q755.603 888.295 753.775 884.753 Q751.969 881.189 748.335 881.189 M748.335 877.485 Q754.145 877.485 757.2 882.091 Q760.279 886.675 760.279 895.425 Q760.279 904.152 757.2 908.758 Q754.145 913.341 748.335 913.341 Q742.525 913.341 739.446 908.758 Q736.39 904.152 736.39 895.425 Q736.39 886.675 739.446 882.091 Q742.525 877.485 748.335 877.485 Z" fill="#000000" fill-rule="nonzero" fill-opacity="1" /><path clip-path="url(#clip170)" d="M852.414 895.841 L882.089 895.841 L882.089 899.777 L852.414 899.777 L852.414 895.841 Z" fill="#000000" fill-rule="nonzero" fill-opacity="1" /><path clip-path="url(#clip170)" d="M905.029 882.184 L893.224 900.633 L905.029 900.633 L905.029 882.184 M903.802 878.11 L909.682 878.11 L909.682 900.633 L914.612 900.633 L914.612 904.522 L909.682 904.522 L909.682 912.67 L905.029 912.67 L905.029 904.522 L889.427 904.522 L889.427 900.008 L903.802 878.11 Z" fill="#000000" fill-rule="nonzero" fill-opacity="1" /><path clip-path="url(#clip170)" d="M932.344 881.189 Q928.733 881.189 926.904 884.753 Q925.098 888.295 925.098 895.425 Q925.098 902.531 926.904 906.096 Q928.733 909.638 932.344 909.638 Q935.978 909.638 937.784 906.096 Q939.612 902.531 939.612 895.425 Q939.612 888.295 937.784 884.753 Q935.978 881.189 932.344 881.189 M932.344 877.485 Q938.154 877.485 941.209 882.091 Q944.288 886.675 944.288 895.425 Q944.288 904.152 941.209 908.758 Q938.154 913.341 932.344 913.341 Q926.534 913.341 923.455 908.758 Q920.399 904.152 920.399 895.425 Q920.399 886.675 923.455 882.091 Q926.534 877.485 932.344 877.485 Z" fill="#000000" fill-rule="nonzero" fill-opacity="1" /><path clip-path="url(#clip170)" d="M962.506 881.189 Q958.895 881.189 957.066 884.753 Q955.26 888.295 955.26 895.425 Q955.26 902.531 957.066 906.096 Q958.895 909.638 962.506 909.638 Q966.14 909.638 967.945 906.096 Q969.774 902.531 969.774 895.425 Q969.774 888.295 967.945 884.753 Q966.14 881.189 962.506 881.189 M962.506 877.485 Q968.316 877.485 971.371 882.091 Q974.45 886.675 974.45 895.425 Q974.45 904.152 971.371 908.758 Q968.316 913.341 962.506 913.341 Q956.696 913.341 953.617 908.758 Q950.561 904.152 950.561 895.425 Q950.561 886.675 953.617 882.091 Q956.696 877.485 962.506 877.485 Z" fill="#000000" fill-rule="nonzero" fill-opacity="1" /><path clip-path="url(#clip170)" d="M992.668 881.189 Q989.056 881.189 987.228 884.753 Q985.422 888.295 985.422 895.425 Q985.422 902.531 987.228 906.096 Q989.056 909.638 992.668 909.638 Q996.302 909.638 998.107 906.096 Q999.936 902.531 999.936 895.425 Q999.936 888.295 998.107 884.753 Q996.302 881.189 992.668 881.189 M992.668 877.485 Q998.478 877.485 1001.53 882.091 Q1004.61 886.675 1004.61 895.425 Q1004.61 904.152 1001.53 908.758 Q998.478 913.341 992.668 913.341 Q986.857 913.341 983.779 908.758 Q980.723 904.152 980.723 895.425 Q980.723 886.675 983.779 882.091 Q986.857 877.485 992.668 877.485 Z" fill="#000000" fill-rule="nonzero" fill-opacity="1" /><path clip-path="url(#clip170)" d="M1096.75 895.841 L1126.42 895.841 L1126.42 899.777 L1096.75 899.777 L1096.75 895.841 Z" fill="#000000" fill-rule="nonzero" fill-opacity="1" /><path clip-path="url(#clip170)" d="M1150.68 894.036 Q1154.04 894.753 1155.91 897.022 Q1157.81 899.29 1157.81 902.624 Q1157.81 907.739 1154.29 910.54 Q1150.77 913.341 1144.29 913.341 Q1142.12 913.341 1139.8 912.901 Q1137.51 912.485 1135.06 911.628 L1135.06 907.114 Q1137 908.249 1139.32 908.827 Q1141.63 909.406 1144.15 909.406 Q1148.55 909.406 1150.84 907.67 Q1153.16 905.934 1153.16 902.624 Q1153.16 899.568 1151.01 897.855 Q1148.88 896.119 1145.06 896.119 L1141.03 896.119 L1141.03 892.277 L1145.24 892.277 Q1148.69 892.277 1150.52 890.911 Q1152.35 889.522 1152.35 886.929 Q1152.35 884.267 1150.45 882.855 Q1148.57 881.42 1145.06 881.42 Q1143.14 881.42 1140.94 881.837 Q1138.74 882.253 1136.1 883.133 L1136.1 878.966 Q1138.76 878.226 1141.07 877.855 Q1143.41 877.485 1145.47 877.485 Q1150.8 877.485 1153.9 879.916 Q1157 882.323 1157 886.443 Q1157 889.314 1155.36 891.304 Q1153.71 893.272 1150.68 894.036 Z" fill="#000000" fill-rule="nonzero" fill-opacity="1" /><path clip-path="url(#clip170)" d="M1176.68 881.189 Q1173.07 881.189 1171.24 884.753 Q1169.43 888.295 1169.43 895.425 Q1169.43 902.531 1171.24 906.096 Q1173.07 909.638 1176.68 909.638 Q1180.31 909.638 1182.12 906.096 Q1183.95 902.531 1183.95 895.425 Q1183.95 888.295 1182.12 884.753 Q1180.31 881.189 1176.68 881.189 M1176.68 877.485 Q1182.49 877.485 1185.54 882.091 Q1188.62 886.675 1188.62 895.425 Q1188.62 904.152 1185.54 908.758 Q1182.49 913.341 1176.68 913.341 Q1170.87 913.341 1167.79 908.758 Q1164.73 904.152 1164.73 895.425 Q1164.73 886.675 1167.79 882.091 Q1170.87 877.485 1176.68 877.485 Z" fill="#000000" fill-rule="nonzero" fill-opacity="1" /><path clip-path="url(#clip170)" d="M1206.84 881.189 Q1203.23 881.189 1201.4 884.753 Q1199.59 888.295 1199.59 895.425 Q1199.59 902.531 1201.4 906.096 Q1203.23 909.638 1206.84 909.638 Q1210.47 909.638 1212.28 906.096 Q1214.11 902.531 1214.11 895.425 Q1214.11 888.295 1212.28 884.753 Q1210.47 881.189 1206.84 881.189 M1206.84 877.485 Q1212.65 877.485 1215.7 882.091 Q1218.78 886.675 1218.78 895.425 Q1218.78 904.152 1215.7 908.758 Q1212.65 913.341 1206.84 913.341 Q1201.03 913.341 1197.95 908.758 Q1194.89 904.152 1194.89 895.425 Q1194.89 886.675 1197.95 882.091 Q1201.03 877.485 1206.84 877.485 Z" fill="#000000" fill-rule="nonzero" fill-opacity="1" /><path clip-path="url(#clip170)" d="M1237 881.189 Q1233.39 881.189 1231.56 884.753 Q1229.76 888.295 1229.76 895.425 Q1229.76 902.531 1231.56 906.096 Q1233.39 909.638 1237 909.638 Q1240.63 909.638 1242.44 906.096 Q1244.27 902.531 1244.27 895.425 Q1244.27 888.295 1242.44 884.753 Q1240.63 881.189 1237 881.189 M1237 877.485 Q1242.81 877.485 1245.87 882.091 Q1248.94 886.675 1248.94 895.425 Q1248.94 904.152 1245.87 908.758 Q1242.81 913.341 1237 913.341 Q1231.19 913.341 1228.11 908.758 Q1225.06 904.152 1225.06 895.425 Q1225.06 886.675 1228.11 882.091 Q1231.19 877.485 1237 877.485 Z" fill="#000000" fill-rule="nonzero" fill-opacity="1" /><path clip-path="url(#clip170)" d="M1341.08 895.841 L1370.76 895.841 L1370.76 899.777 L1341.08 899.777 L1341.08 895.841 Z" fill="#000000" fill-rule="nonzero" fill-opacity="1" /><path clip-path="url(#clip170)" d="M1384.88 908.735 L1401.19 908.735 L1401.19 912.67 L1379.25 912.67 L1379.25 908.735 Q1381.91 905.98 1386.5 901.351 Q1391.1 896.698 1392.28 895.355 Q1394.53 892.832 1395.41 891.096 Q1396.31 889.337 1396.31 887.647 Q1396.31 884.892 1394.37 883.156 Q1392.44 881.42 1389.34 881.42 Q1387.14 881.42 1384.69 882.184 Q1382.26 882.948 1379.48 884.499 L1379.48 879.777 Q1382.31 878.642 1384.76 878.064 Q1387.21 877.485 1389.25 877.485 Q1394.62 877.485 1397.82 880.17 Q1401.01 882.855 1401.01 887.346 Q1401.01 889.476 1400.2 891.397 Q1399.41 893.295 1397.31 895.888 Q1396.73 896.559 1393.63 899.777 Q1390.52 902.971 1384.88 908.735 Z" fill="#000000" fill-rule="nonzero" fill-opacity="1" /><path clip-path="url(#clip170)" d="M1421.01 881.189 Q1417.4 881.189 1415.57 884.753 Q1413.76 888.295 1413.76 895.425 Q1413.76 902.531 1415.57 906.096 Q1417.4 909.638 1421.01 909.638 Q1424.64 909.638 1426.45 906.096 Q1428.28 902.531 1428.28 895.425 Q1428.28 888.295 1426.45 884.753 Q1424.64 881.189 1421.01 881.189 M1421.01 877.485 Q1426.82 877.485 1429.88 882.091 Q1432.95 886.675 1432.95 895.425 Q1432.95 904.152 1429.88 908.758 Q1426.82 913.341 1421.01 913.341 Q1415.2 913.341 1412.12 908.758 Q1409.07 904.152 1409.07 895.425 Q1409.07 886.675 1412.12 882.091 Q1415.2 877.485 1421.01 877.485 Z" fill="#000000" fill-rule="nonzero" fill-opacity="1" /><path clip-path="url(#clip170)" d="M1451.17 881.189 Q1447.56 881.189 1445.73 884.753 Q1443.93 888.295 1443.93 895.425 Q1443.93 902.531 1445.73 906.096 Q1447.56 909.638 1451.17 909.638 Q1454.81 909.638 1456.61 906.096 Q1458.44 902.531 1458.44 895.425 Q1458.44 888.295 1456.61 884.753 Q1454.81 881.189 1451.17 881.189 M1451.17 877.485 Q1456.98 877.485 1460.04 882.091 Q1463.12 886.675 1463.12 895.425 Q1463.12 904.152 1460.04 908.758 Q1456.98 913.341 1451.17 913.341 Q1445.36 913.341 1442.28 908.758 Q1439.23 904.152 1439.23 895.425 Q1439.23 886.675 1442.28 882.091 Q1445.36 877.485 1451.17 877.485 Z" fill="#000000" fill-rule="nonzero" fill-opacity="1" /><path clip-path="url(#clip170)" d="M1481.33 881.189 Q1477.72 881.189 1475.89 884.753 Q1474.09 888.295 1474.09 895.425 Q1474.09 902.531 1475.89 906.096 Q1477.72 909.638 1481.33 909.638 Q1484.97 909.638 1486.77 906.096 Q1488.6 902.531 1488.6 895.425 Q1488.6 888.295 1486.77 884.753 Q1484.97 881.189 1481.33 881.189 M1481.33 877.485 Q1487.14 877.485 1490.2 882.091 Q1493.28 886.675 1493.28 895.425 Q1493.28 904.152 1490.2 908.758 Q1487.14 913.341 1481.33 913.341 Q1475.52 913.341 1472.44 908.758 Q1469.39 904.152 1469.39 895.425 Q1469.39 886.675 1472.44 882.091 Q1475.52 877.485 1481.33 877.485 Z" fill="#000000" fill-rule="nonzero" fill-opacity="1" /><path clip-path="url(#clip170)" d="M1585.41 895.841 L1615.09 895.841 L1615.09 899.777 L1585.41 899.777 L1585.41 895.841 Z" fill="#000000" fill-rule="nonzero" fill-opacity="1" /><path clip-path="url(#clip170)" d="M1625.99 908.735 L1633.63 908.735 L1633.63 882.369 L1625.32 884.036 L1625.32 879.777 L1633.58 878.11 L1638.26 878.11 L1638.26 908.735 L1645.9 908.735 L1645.9 912.67 L1625.99 912.67 L1625.99 908.735 Z" fill="#000000" fill-rule="nonzero" fill-opacity="1" /><path clip-path="url(#clip170)" d="M1665.34 881.189 Q1661.73 881.189 1659.9 884.753 Q1658.1 888.295 1658.1 895.425 Q1658.1 902.531 1659.9 906.096 Q1661.73 909.638 1665.34 909.638 Q1668.98 909.638 1670.78 906.096 Q1672.61 902.531 1672.61 895.425 Q1672.61 888.295 1670.78 884.753 Q1668.98 881.189 1665.34 881.189 M1665.34 877.485 Q1671.15 877.485 1674.21 882.091 Q1677.29 886.675 1677.29 895.425 Q1677.29 904.152 1674.21 908.758 Q1671.15 913.341 1665.34 913.341 Q1659.53 913.341 1656.45 908.758 Q1653.4 904.152 1653.4 895.425 Q1653.4 886.675 1656.45 882.091 Q1659.53 877.485 1665.34 877.485 Z" fill="#000000" fill-rule="nonzero" fill-opacity="1" /><path clip-path="url(#clip170)" d="M1695.5 881.189 Q1691.89 881.189 1690.06 884.753 Q1688.26 888.295 1688.26 895.425 Q1688.26 902.531 1690.06 906.096 Q1691.89 909.638 1695.5 909.638 Q1699.14 909.638 1700.94 906.096 Q1702.77 902.531 1702.77 895.425 Q1702.77 888.295 1700.94 884.753 Q1699.14 881.189 1695.5 881.189 M1695.5 877.485 Q1701.31 877.485 1704.37 882.091 Q1707.45 886.675 1707.45 895.425 Q1707.45 904.152 1704.37 908.758 Q1701.31 913.341 1695.5 913.341 Q1689.69 913.341 1686.62 908.758 Q1683.56 904.152 1683.56 895.425 Q1683.56 886.675 1686.62 882.091 Q1689.69 877.485 1695.5 877.485 Z" fill="#000000" fill-rule="nonzero" fill-opacity="1" /><path clip-path="url(#clip170)" d="M1725.67 881.189 Q1722.05 881.189 1720.23 884.753 Q1718.42 888.295 1718.42 895.425 Q1718.42 902.531 1720.23 906.096 Q1722.05 909.638 1725.67 909.638 Q1729.3 909.638 1731.11 906.096 Q1732.93 902.531 1732.93 895.425 Q1732.93 888.295 1731.11 884.753 Q1729.3 881.189 1725.67 881.189 M1725.67 877.485 Q1731.48 877.485 1734.53 882.091 Q1737.61 886.675 1737.61 895.425 Q1737.61 904.152 1734.53 908.758 Q1731.48 913.341 1725.67 913.341 Q1719.86 913.341 1716.78 908.758 Q1713.72 904.152 1713.72 895.425 Q1713.72 886.675 1716.78 882.091 Q1719.86 877.485 1725.67 877.485 Z" fill="#000000" fill-rule="nonzero" fill-opacity="1" /><path clip-path="url(#clip170)" d="M1905.84 881.189 Q1902.23 881.189 1900.4 884.753 Q1898.6 888.295 1898.6 895.425 Q1898.6 902.531 1900.4 906.096 Q1902.23 909.638 1905.84 909.638 Q1909.48 909.638 1911.28 906.096 Q1913.11 902.531 1913.11 895.425 Q1913.11 888.295 1911.28 884.753 Q1909.48 881.189 1905.84 881.189 M1905.84 877.485 Q1911.65 877.485 1914.71 882.091 Q1917.79 886.675 1917.79 895.425 Q1917.79 904.152 1914.71 908.758 Q1911.65 913.341 1905.84 913.341 Q1900.03 913.341 1896.96 908.758 Q1893.9 904.152 1893.9 895.425 Q1893.9 886.675 1896.96 882.091 Q1900.03 877.485 1905.84 877.485 Z" fill="#000000" fill-rule="nonzero" fill-opacity="1" /><g clip-path="url(#clip170)">
<text style="fill:#000000; fill-opacity:1; font-family:Arial,Helvetica Neue,Helvetica,sans-serif; font-size:66px; text-anchor:middle;" transform="rotate(0, 1123.98, 994.872)" x="1123.98" y="994.872">Re λ</text>
</g>
<polyline clip-path="url(#clip170)" style="stroke:#000000; stroke-linecap:round; stroke-linejoin:round; stroke-width:4; stroke-opacity:1; fill:none" points="1905.84,853.47 1905.84,364.804 "/>
<polyline clip-path="url(#clip170)" style="stroke:#000000; stroke-linecap:round; stroke-linejoin:round; stroke-width:4; stroke-opacity:0; fill:none" points="1905.84,853.47 1905.84,853.47 "/>
<polyline clip-path="url(#clip170)" style="stroke:#000000; stroke-linecap:round; stroke-linejoin:round; stroke-width:4; stroke-opacity:0; fill:none" points="1905.84,731.304 1905.84,731.304 "/>
<polyline clip-path="url(#clip170)" style="stroke:#000000; stroke-linecap:round; stroke-linejoin:round; stroke-width:4; stroke-opacity:0; fill:none" points="1905.84,609.137 1905.84,609.137 "/>
<polyline clip-path="url(#clip170)" style="stroke:#000000; stroke-linecap:round; stroke-linejoin:round; stroke-width:4; stroke-opacity:0; fill:none" points="1905.84,486.971 1905.84,486.971 "/>
<polyline clip-path="url(#clip170)" style="stroke:#000000; stroke-linecap:round; stroke-linejoin:round; stroke-width:4; stroke-opacity:0; fill:none" points="1905.84,364.804 1905.84,364.804 "/>
<path clip-path="url(#clip170)" d="M113.004 853.921 L142.68 853.921 L142.68 857.857 L113.004 857.857 L113.004 853.921 Z" fill="#000000" fill-rule="nonzero" fill-opacity="1" /><path clip-path="url(#clip170)" d="M153.582 866.815 L161.221 866.815 L161.221 840.449 L152.911 842.116 L152.911 837.857 L161.175 836.19 L165.851 836.19 L165.851 866.815 L173.49 866.815 L173.49 870.75 L153.582 870.75 L153.582 866.815 Z" fill="#000000" fill-rule="nonzero" fill-opacity="1" /><path clip-path="url(#clip170)" d="M192.934 839.269 Q189.323 839.269 187.494 842.833 Q185.689 846.375 185.689 853.505 Q185.689 860.611 187.494 864.176 Q189.323 867.718 192.934 867.718 Q196.568 867.718 198.374 864.176 Q200.203 860.611 200.203 853.505 Q200.203 846.375 198.374 842.833 Q196.568 839.269 192.934 839.269 M192.934 835.565 Q198.744 835.565 201.8 840.171 Q204.878 844.755 204.878 853.505 Q204.878 862.232 201.8 866.838 Q198.744 871.421 192.934 871.421 Q187.124 871.421 184.045 866.838 Q180.99 862.232 180.99 853.505 Q180.99 844.755 184.045 840.171 Q187.124 835.565 192.934 835.565 Z" fill="#000000" fill-rule="nonzero" fill-opacity="1" /><path clip-path="url(#clip170)" d="M223.096 839.269 Q219.485 839.269 217.656 842.833 Q215.851 846.375 215.851 853.505 Q215.851 860.611 217.656 864.176 Q219.485 867.718 223.096 867.718 Q226.73 867.718 228.536 864.176 Q230.364 860.611 230.364 853.505 Q230.364 846.375 228.536 842.833 Q226.73 839.269 223.096 839.269 M223.096 835.565 Q228.906 835.565 231.962 840.171 Q235.04 844.755 235.04 853.505 Q235.04 862.232 231.962 866.838 Q228.906 871.421 223.096 871.421 Q217.286 871.421 214.207 866.838 Q211.152 862.232 211.152 853.505 Q211.152 844.755 214.207 840.171 Q217.286 835.565 223.096 835.565 Z" fill="#000000" fill-rule="nonzero" fill-opacity="1" /><path clip-path="url(#clip170)" d="M253.258 839.269 Q249.647 839.269 247.818 842.833 Q246.012 846.375 246.012 853.505 Q246.012 860.611 247.818 864.176 Q249.647 867.718 253.258 867.718 Q256.892 867.718 258.698 864.176 Q260.526 860.611 260.526 853.505 Q260.526 846.375 258.698 842.833 Q256.892 839.269 253.258 839.269 M253.258 835.565 Q259.068 835.565 262.123 840.171 Q265.202 844.755 265.202 853.505 Q265.202 862.232 262.123 866.838 Q259.068 871.421 253.258 871.421 Q247.448 871.421 244.369 866.838 Q241.313 862.232 241.313 853.505 Q241.313 844.755 244.369 840.171 Q247.448 835.565 253.258 835.565 Z" fill="#000000" fill-rule="nonzero" fill-opacity="1" /><path clip-path="url(#clip170)" d="M143.166 731.755 L172.842 731.755 L172.842 735.69 L143.166 735.69 L143.166 731.755 Z" fill="#000000" fill-rule="nonzero" fill-opacity="1" /><path clip-path="url(#clip170)" d="M182.98 714.024 L201.337 714.024 L201.337 717.959 L187.263 717.959 L187.263 726.431 Q188.281 726.084 189.3 725.922 Q190.318 725.736 191.337 725.736 Q197.124 725.736 200.503 728.908 Q203.883 732.079 203.883 737.496 Q203.883 743.074 200.411 746.176 Q196.939 749.255 190.619 749.255 Q188.443 749.255 186.175 748.885 Q183.929 748.514 181.522 747.773 L181.522 743.074 Q183.605 744.209 185.828 744.764 Q188.05 745.32 190.527 745.32 Q194.531 745.32 196.869 743.213 Q199.207 741.107 199.207 737.496 Q199.207 733.885 196.869 731.778 Q194.531 729.672 190.527 729.672 Q188.652 729.672 186.777 730.088 Q184.925 730.505 182.98 731.385 L182.98 714.024 Z" fill="#000000" fill-rule="nonzero" fill-opacity="1" /><path clip-path="url(#clip170)" d="M223.096 717.102 Q219.485 717.102 217.656 720.667 Q215.851 724.209 215.851 731.338 Q215.851 738.445 217.656 742.01 Q219.485 745.551 223.096 745.551 Q226.73 745.551 228.536 742.01 Q230.364 738.445 230.364 731.338 Q230.364 724.209 228.536 720.667 Q226.73 717.102 223.096 717.102 M223.096 713.399 Q228.906 713.399 231.962 718.005 Q235.04 722.588 235.04 731.338 Q235.04 740.065 231.962 744.672 Q228.906 749.255 223.096 749.255 Q217.286 749.255 214.207 744.672 Q211.152 740.065 211.152 731.338 Q211.152 722.588 214.207 718.005 Q217.286 713.399 223.096 713.399 Z" fill="#000000" fill-rule="nonzero" fill-opacity="1" /><path clip-path="url(#clip170)" d="M253.258 717.102 Q249.647 717.102 247.818 720.667 Q246.012 724.209 246.012 731.338 Q246.012 738.445 247.818 742.01 Q249.647 745.551 253.258 745.551 Q256.892 745.551 258.698 742.01 Q260.526 738.445 260.526 731.338 Q260.526 724.209 258.698 720.667 Q256.892 717.102 253.258 717.102 M253.258 713.399 Q259.068 713.399 262.123 718.005 Q265.202 722.588 265.202 731.338 Q265.202 740.065 262.123 744.672 Q259.068 749.255 253.258 749.255 Q247.448 749.255 244.369 744.672 Q241.313 740.065 241.313 731.338 Q241.313 722.588 244.369 718.005 Q247.448 713.399 253.258 713.399 Z" fill="#000000" fill-rule="nonzero" fill-opacity="1" /><path clip-path="url(#clip170)" d="M253.258 594.936 Q249.647 594.936 247.818 598.501 Q246.012 602.042 246.012 609.172 Q246.012 616.278 247.818 619.843 Q249.647 623.385 253.258 623.385 Q256.892 623.385 258.698 619.843 Q260.526 616.278 260.526 609.172 Q260.526 602.042 258.698 598.501 Q256.892 594.936 253.258 594.936 M253.258 591.232 Q259.068 591.232 262.123 595.839 Q265.202 600.422 265.202 609.172 Q265.202 617.899 262.123 622.505 Q259.068 627.088 253.258 627.088 Q247.448 627.088 244.369 622.505 Q241.313 617.899 241.313 609.172 Q241.313 600.422 244.369 595.839 Q247.448 591.232 253.258 591.232 Z" fill="#000000" fill-rule="nonzero" fill-opacity="1" /><path clip-path="url(#clip170)" d="M182.98 469.691 L201.337 469.691 L201.337 473.626 L187.263 473.626 L187.263 482.098 Q188.281 481.751 189.3 481.589 Q190.318 481.404 191.337 481.404 Q197.124 481.404 200.503 484.575 Q203.883 487.746 203.883 493.163 Q203.883 498.742 200.411 501.843 Q196.939 504.922 190.619 504.922 Q188.443 504.922 186.175 504.552 Q183.929 504.181 181.522 503.441 L181.522 498.742 Q183.605 499.876 185.828 500.431 Q188.05 500.987 190.527 500.987 Q194.531 500.987 196.869 498.88 Q199.207 496.774 199.207 493.163 Q199.207 489.552 196.869 487.445 Q194.531 485.339 190.527 485.339 Q188.652 485.339 186.777 485.756 Q184.925 486.172 182.98 487.052 L182.98 469.691 Z" fill="#000000" fill-rule="nonzero" fill-opacity="1" /><path clip-path="url(#clip170)" d="M223.096 472.769 Q219.485 472.769 217.656 476.334 Q215.851 479.876 215.851 487.006 Q215.851 494.112 217.656 497.677 Q219.485 501.218 223.096 501.218 Q226.73 501.218 228.536 497.677 Q230.364 494.112 230.364 487.006 Q230.364 479.876 228.536 476.334 Q226.73 472.769 223.096 472.769 M223.096 469.066 Q228.906 469.066 231.962 473.672 Q235.04 478.256 235.04 487.006 Q235.04 495.732 231.962 500.339 Q228.906 504.922 223.096 504.922 Q217.286 504.922 214.207 500.339 Q211.152 495.732 211.152 487.006 Q211.152 478.256 214.207 473.672 Q217.286 469.066 223.096 469.066 Z" fill="#000000" fill-rule="nonzero" fill-opacity="1" /><path clip-path="url(#clip170)" d="M253.258 472.769 Q249.647 472.769 247.818 476.334 Q246.012 479.876 246.012 487.006 Q246.012 494.112 247.818 497.677 Q249.647 501.218 253.258 501.218 Q256.892 501.218 258.698 497.677 Q260.526 494.112 260.526 487.006 Q260.526 479.876 258.698 476.334 Q256.892 472.769 253.258 472.769 M253.258 469.066 Q259.068 469.066 262.123 473.672 Q265.202 478.256 265.202 487.006 Q265.202 495.732 262.123 500.339 Q259.068 504.922 253.258 504.922 Q247.448 504.922 244.369 500.339 Q241.313 495.732 241.313 487.006 Q241.313 478.256 244.369 473.672 Q247.448 469.066 253.258 469.066 Z" fill="#000000" fill-rule="nonzero" fill-opacity="1" /><path clip-path="url(#clip170)" d="M153.582 378.149 L161.221 378.149 L161.221 351.784 L152.911 353.45 L152.911 349.191 L161.175 347.524 L165.851 347.524 L165.851 378.149 L173.49 378.149 L173.49 382.084 L153.582 382.084 L153.582 378.149 Z" fill="#000000" fill-rule="nonzero" fill-opacity="1" /><path clip-path="url(#clip170)" d="M192.934 350.603 Q189.323 350.603 187.494 354.168 Q185.689 357.71 185.689 364.839 Q185.689 371.946 187.494 375.51 Q189.323 379.052 192.934 379.052 Q196.568 379.052 198.374 375.51 Q200.203 371.946 200.203 364.839 Q200.203 357.71 198.374 354.168 Q196.568 350.603 192.934 350.603 M192.934 346.899 Q198.744 346.899 201.8 351.506 Q204.878 356.089 204.878 364.839 Q204.878 373.566 201.8 378.172 Q198.744 382.756 192.934 382.756 Q187.124 382.756 184.045 378.172 Q180.99 373.566 180.99 364.839 Q180.99 356.089 184.045 351.506 Q187.124 346.899 192.934 346.899 Z" fill="#000000" fill-rule="nonzero" fill-opacity="1" /><path clip-path="url(#clip170)" d="M223.096 350.603 Q219.485 350.603 217.656 354.168 Q215.851 357.71 215.851 364.839 Q215.851 371.946 217.656 375.51 Q219.485 379.052 223.096 379.052 Q226.73 379.052 228.536 375.51 Q230.364 371.946 230.364 364.839 Q230.364 357.71 228.536 354.168 Q226.73 350.603 223.096 350.603 M223.096 346.899 Q228.906 346.899 231.962 351.506 Q235.04 356.089 235.04 364.839 Q235.04 373.566 231.962 378.172 Q228.906 382.756 223.096 382.756 Q217.286 382.756 214.207 378.172 Q211.152 373.566 211.152 364.839 Q211.152 356.089 214.207 351.506 Q217.286 346.899 223.096 346.899 Z" fill="#000000" fill-rule="nonzero" fill-opacity="1" /><path clip-path="url(#clip170)" d="M253.258 350.603 Q249.647 350.603 247.818 354.168 Q246.012 357.71 246.012 364.839 Q246.012 371.946 247.818 375.51 Q249.647 379.052 253.258 379.052 Q256.892 379.052 258.698 375.51 Q260.526 371.946 260.526 364.839 Q260.526 357.71 258.698 354.168 Q256.892 350.603 253.258 350.603 M253.258 346.899 Q259.068 346.899 262.123 351.506 Q265.202 356.089 265.202 364.839 Q265.202 373.566 262.123 378.172 Q259.068 382.756 253.258 382.756 Q247.448 382.756 244.369 378.172 Q241.313 373.566 241.313 364.839 Q241.313 356.089 244.369 351.506 Q247.448 346.899 253.258 346.899 Z" fill="#000000" fill-rule="nonzero" fill-opacity="1" /><g clip-path="url(#clip170)">
<text style="fill:#000000; fill-opacity:1; font-family:Arial,Helvetica Neue,Helvetica,sans-serif; font-size:66px; text-anchor:middle;" transform="rotate(-90, 71.4418, 609.137)" x="71.4418" y="609.137">Im λ</text>
</g>
<g clip-path="url(#clip170)">
<text style="fill:#000000; fill-opacity:1; font-family:Arial,Helvetica Neue,Helvetica,sans-serif; font-size:66px; text-anchor:middle;" transform="rotate(0, 1123.98, 57.6)" x="1123.98" y="57.6">Eigenvalues</text>
</g>
<circle clip-path="url(#clip172)" cx="342.114" cy="609.137" r="10.8" fill="#009af9" fill-rule="evenodd" fill-opacity="1" stroke="#000000" stroke-opacity="1" stroke-width="2.56"/>
<circle clip-path="url(#clip172)" cx="351.74" cy="609.137" r="10.8" fill="#009af9" fill-rule="evenodd" fill-opacity="1" stroke="#000000" stroke-opacity="1" stroke-width="2.56"/>
<circle clip-path="url(#clip172)" cx="351.74" cy="609.137" r="10.8" fill="#009af9" fill-rule="evenodd" fill-opacity="1" stroke="#000000" stroke-opacity="1" stroke-width="2.56"/>
<circle clip-path="url(#clip172)" cx="380.381" cy="609.137" r="10.8" fill="#009af9" fill-rule="evenodd" fill-opacity="1" stroke="#000000" stroke-opacity="1" stroke-width="2.56"/>
<circle clip-path="url(#clip172)" cx="380.381" cy="609.137" r="10.8" fill="#009af9" fill-rule="evenodd" fill-opacity="1" stroke="#000000" stroke-opacity="1" stroke-width="2.56"/>
<circle clip-path="url(#clip172)" cx="427.332" cy="609.137" r="10.8" fill="#009af9" fill-rule="evenodd" fill-opacity="1" stroke="#000000" stroke-opacity="1" stroke-width="2.56"/>
<circle clip-path="url(#clip172)" cx="427.332" cy="609.137" r="10.8" fill="#009af9" fill-rule="evenodd" fill-opacity="1" stroke="#000000" stroke-opacity="1" stroke-width="2.56"/>
<circle clip-path="url(#clip172)" cx="491.437" cy="609.137" r="10.8" fill="#009af9" fill-rule="evenodd" fill-opacity="1" stroke="#000000" stroke-opacity="1" stroke-width="2.56"/>
<circle clip-path="url(#clip172)" cx="491.437" cy="609.137" r="10.8" fill="#009af9" fill-rule="evenodd" fill-opacity="1" stroke="#000000" stroke-opacity="1" stroke-width="2.56"/>
<circle clip-path="url(#clip172)" cx="571.117" cy="609.137" r="10.8" fill="#009af9" fill-rule="evenodd" fill-opacity="1" stroke="#000000" stroke-opacity="1" stroke-width="2.56"/>
<circle clip-path="url(#clip172)" cx="571.117" cy="609.137" r="10.8" fill="#009af9" fill-rule="evenodd" fill-opacity="1" stroke="#000000" stroke-opacity="1" stroke-width="2.56"/>
<circle clip-path="url(#clip172)" cx="664.41" cy="609.137" r="10.8" fill="#009af9" fill-rule="evenodd" fill-opacity="1" stroke="#000000" stroke-opacity="1" stroke-width="2.56"/>
<circle clip-path="url(#clip172)" cx="664.41" cy="609.137" r="10.8" fill="#009af9" fill-rule="evenodd" fill-opacity="1" stroke="#000000" stroke-opacity="1" stroke-width="2.56"/>
<circle clip-path="url(#clip172)" cx="769.02" cy="609.137" r="10.8" fill="#009af9" fill-rule="evenodd" fill-opacity="1" stroke="#000000" stroke-opacity="1" stroke-width="2.56"/>
<circle clip-path="url(#clip172)" cx="769.02" cy="609.137" r="10.8" fill="#009af9" fill-rule="evenodd" fill-opacity="1" stroke="#000000" stroke-opacity="1" stroke-width="2.56"/>
<circle clip-path="url(#clip172)" cx="882.369" cy="609.137" r="10.8" fill="#009af9" fill-rule="evenodd" fill-opacity="1" stroke="#000000" stroke-opacity="1" stroke-width="2.56"/>
<circle clip-path="url(#clip172)" cx="882.369" cy="609.137" r="10.8" fill="#009af9" fill-rule="evenodd" fill-opacity="1" stroke="#000000" stroke-opacity="1" stroke-width="2.56"/>
<circle clip-path="url(#clip172)" cx="1001.67" cy="609.137" r="10.8" fill="#009af9" fill-rule="evenodd" fill-opacity="1" stroke="#000000" stroke-opacity="1" stroke-width="2.56"/>
<circle clip-path="url(#clip172)" cx="1001.67" cy="609.137" r="10.8" fill="#009af9" fill-rule="evenodd" fill-opacity="1" stroke="#000000" stroke-opacity="1" stroke-width="2.56"/>
<circle clip-path="url(#clip172)" cx="1123.98" cy="609.137" r="10.8" fill="#009af9" fill-rule="evenodd" fill-opacity="1" stroke="#000000" stroke-opacity="1" stroke-width="2.56"/>
<circle clip-path="url(#clip172)" cx="1123.98" cy="609.137" r="10.8" fill="#009af9" fill-rule="evenodd" fill-opacity="1" stroke="#000000" stroke-opacity="1" stroke-width="2.56"/>
<circle clip-path="url(#clip172)" cx="1246.29" cy="609.137" r="10.8" fill="#009af9" fill-rule="evenodd" fill-opacity="1" stroke="#000000" stroke-opacity="1" stroke-width="2.56"/>
<circle clip-path="url(#clip172)" cx="1246.29" cy="609.137" r="10.8" fill="#009af9" fill-rule="evenodd" fill-opacity="1" stroke="#000000" stroke-opacity="1" stroke-width="2.56"/>
<circle clip-path="url(#clip172)" cx="1365.59" cy="609.137" r="10.8" fill="#009af9" fill-rule="evenodd" fill-opacity="1" stroke="#000000" stroke-opacity="1" stroke-width="2.56"/>
<circle clip-path="url(#clip172)" cx="1365.59" cy="609.137" r="10.8" fill="#009af9" fill-rule="evenodd" fill-opacity="1" stroke="#000000" stroke-opacity="1" stroke-width="2.56"/>
<circle clip-path="url(#clip172)" cx="1478.94" cy="609.137" r="10.8" fill="#009af9" fill-rule="evenodd" fill-opacity="1" stroke="#000000" stroke-opacity="1" stroke-width="2.56"/>
<circle clip-path="url(#clip172)" cx="1478.94" cy="609.137" r="10.8" fill="#009af9" fill-rule="evenodd" fill-opacity="1" stroke="#000000" stroke-opacity="1" stroke-width="2.56"/>
<circle clip-path="url(#clip172)" cx="1583.55" cy="609.137" r="10.8" fill="#009af9" fill-rule="evenodd" fill-opacity="1" stroke="#000000" stroke-opacity="1" stroke-width="2.56"/>
<circle clip-path="url(#clip172)" cx="1583.55" cy="609.137" r="10.8" fill="#009af9" fill-rule="evenodd" fill-opacity="1" stroke="#000000" stroke-opacity="1" stroke-width="2.56"/>
<circle clip-path="url(#clip172)" cx="1676.84" cy="609.137" r="10.8" fill="#009af9" fill-rule="evenodd" fill-opacity="1" stroke="#000000" stroke-opacity="1" stroke-width="2.56"/>
<circle clip-path="url(#clip172)" cx="1676.84" cy="609.137" r="10.8" fill="#009af9" fill-rule="evenodd" fill-opacity="1" stroke="#000000" stroke-opacity="1" stroke-width="2.56"/>
<circle clip-path="url(#clip172)" cx="1756.52" cy="609.137" r="10.8" fill="#009af9" fill-rule="evenodd" fill-opacity="1" stroke="#000000" stroke-opacity="1" stroke-width="2.56"/>
<circle clip-path="url(#clip172)" cx="1756.52" cy="609.137" r="10.8" fill="#009af9" fill-rule="evenodd" fill-opacity="1" stroke="#000000" stroke-opacity="1" stroke-width="2.56"/>
<circle clip-path="url(#clip172)" cx="1820.63" cy="609.137" r="10.8" fill="#009af9" fill-rule="evenodd" fill-opacity="1" stroke="#000000" stroke-opacity="1" stroke-width="2.56"/>
<circle clip-path="url(#clip172)" cx="1820.63" cy="609.137" r="10.8" fill="#009af9" fill-rule="evenodd" fill-opacity="1" stroke="#000000" stroke-opacity="1" stroke-width="2.56"/>
<circle clip-path="url(#clip172)" cx="1867.58" cy="609.137" r="10.8" fill="#009af9" fill-rule="evenodd" fill-opacity="1" stroke="#000000" stroke-opacity="1" stroke-width="2.56"/>
<circle clip-path="url(#clip172)" cx="1867.58" cy="609.137" r="10.8" fill="#009af9" fill-rule="evenodd" fill-opacity="1" stroke="#000000" stroke-opacity="1" stroke-width="2.56"/>
<circle clip-path="url(#clip172)" cx="1896.22" cy="609.137" r="10.8" fill="#009af9" fill-rule="evenodd" fill-opacity="1" stroke="#000000" stroke-opacity="1" stroke-width="2.56"/>
<circle clip-path="url(#clip172)" cx="1896.22" cy="609.137" r="10.8" fill="#009af9" fill-rule="evenodd" fill-opacity="1" stroke="#000000" stroke-opacity="1" stroke-width="2.56"/>
<circle clip-path="url(#clip172)" cx="1905.84" cy="609.137" r="10.8" fill="#009af9" fill-rule="evenodd" fill-opacity="1" stroke="#000000" stroke-opacity="1" stroke-width="2.56"/>
</svg>
