<?xml version="1.0" encoding="utf-8"?>
<svg xmlns="http://www.w3.org/2000/svg" xmlns:xlink="http://www.w3.org/1999/xlink" width="500" height="320" viewBox="0 0 2000 1280">
<defs>
  <clipPath id="clip670">
    <rect x="0" y="0" width="2000" height="1280"/>
  </clipPath>
</defs>
<path clip-path="url(#clip670)" d="M0 1280 L2000 1280 L2000 0 L0 0  Z" fill="#ffffff" fill-rule="evenodd" fill-opacity="1"/>
<defs>
  <clipPath id="clip671">
    <rect x="400" y="0" width="1401" height="1280"/>
  </clipPath>
</defs>
<path clip-path="url(#clip670)" d="M185.496 1171.03 L1952.76 1171.03 L1952.76 107.256 L185.496 107.256  Z" fill="#ffffff" fill-rule="evenodd" fill-opacity="1"/>
<defs>
  <clipPath id="clip672">
    <rect x="185" y="107" width="1768" height="1065"/>
  </clipPath>
</defs>
<polyline clip-path="url(#clip672)" style="stroke:#000000; stroke-linecap:round; stroke-linejoin:round; stroke-width:2; stroke-opacity:0.1; fill:none" points="235.513,1171.03 235.513,107.256 "/>
<polyline clip-path="url(#clip672)" style="stroke:#000000; stroke-linecap:round; stroke-linejoin:round; stroke-width:2; stroke-opacity:0.1; fill:none" points="663.007,1171.03 663.007,107.256 "/>
<polyline clip-path="url(#clip672)" style="stroke:#000000; stroke-linecap:round; stroke-linejoin:round; stroke-width:2; stroke-opacity:0.1; fill:none" points="1090.5,1171.03 1090.5,107.256 "/>
<polyline clip-path="url(#clip672)" style="stroke:#000000; stroke-linecap:round; stroke-linejoin:round; stroke-width:2; stroke-opacity:0.1; fill:none" points="1517.99,1171.03 1517.99,107.256 "/>
<polyline clip-path="url(#clip672)" style="stroke:#000000; stroke-linecap:round; stroke-linejoin:round; stroke-width:2; stroke-opacity:0.1; fill:none" points="1945.49,1171.03 1945.49,107.256 "/>
<polyline clip-path="url(#clip672)" style="stroke:#000000; stroke-linecap:round; stroke-linejoin:round; stroke-width:2; stroke-opacity:0.1; fill:none" points="185.496,1086.91 1952.76,1086.91 "/>
<polyline clip-path="url(#clip672)" style="stroke:#000000; stroke-linecap:round; stroke-linejoin:round; stroke-width:2; stroke-opacity:0.1; fill:none" points="185.496,849.523 1952.76,849.523 "/>
<polyline clip-path="url(#clip672)" style="stroke:#000000; stroke-linecap:round; stroke-linejoin:round; stroke-width:2; stroke-opacity:0.1; fill:none" points="185.496,612.136 1952.76,612.136 "/>
<polyline clip-path="url(#clip672)" style="stroke:#000000; stroke-linecap:round; stroke-linejoin:round; stroke-width:2; stroke-opacity:0.1; fill:none" points="185.496,374.749 1952.76,374.749 "/>
<polyline clip-path="url(#clip672)" style="stroke:#000000; stroke-linecap:round; stroke-linejoin:round; stroke-width:2; stroke-opacity:0.1; fill:none" points="185.496,137.363 1952.76,137.363 "/>
<polyline clip-path="url(#clip670)" style="stroke:#000000; stroke-linecap:round; stroke-linejoin:round; stroke-width:4; stroke-opacity:1; fill:none" points="185.496,1171.03 1952.76,1171.03 "/>
<polyline clip-path="url(#clip670)" style="stroke:#000000; stroke-linecap:round; stroke-linejoin:round; stroke-width:4; stroke-opacity:1; fill:none" points="235.513,1171.03 235.513,1152.13 "/>
<polyline clip-path="url(#clip670)" style="stroke:#000000; stroke-linecap:round; stroke-linejoin:round; stroke-width:4; stroke-opacity:1; fill:none" points="663.007,1171.03 663.007,1152.13 "/>
<polyline clip-path="url(#clip670)" style="stroke:#000000; stroke-linecap:round; stroke-linejoin:round; stroke-width:4; stroke-opacity:1; fill:none" points="1090.5,1171.03 1090.5,1152.13 "/>
<polyline clip-path="url(#clip670)" style="stroke:#000000; stroke-linecap:round; stroke-linejoin:round; stroke-width:4; stroke-opacity:1; fill:none" points="1517.99,1171.03 1517.99,1152.13 "/>
<polyline clip-path="url(#clip670)" style="stroke:#000000; stroke-linecap:round; stroke-linejoin:round; stroke-width:4; stroke-opacity:1; fill:none" points="1945.49,1171.03 1945.49,1152.13 "/>
<path clip-path="url(#clip670)" d="M235.513 1198.75 Q231.902 1198.75 230.073 1202.31 Q228.267 1205.86 228.267 1212.98 Q228.267 1220.09 230.073 1223.66 Q231.902 1227.2 235.513 1227.2 Q239.147 1227.2 240.952 1223.66 Q242.781 1220.09 242.781 1212.98 Q242.781 1205.86 240.952 1202.31 Q239.147 1198.75 235.513 1198.75 M235.513 1195.05 Q241.323 1195.05 244.378 1199.65 Q247.457 1204.24 247.457 1212.98 Q247.457 1221.71 244.378 1226.32 Q241.323 1230.9 235.513 1230.9 Q229.703 1230.9 226.624 1226.32 Q223.568 1221.71 223.568 1212.98 Q223.568 1204.24 226.624 1199.65 Q229.703 1195.05 235.513 1195.05 Z" fill="#000000" fill-rule="nonzero" fill-opacity="1" /><path clip-path="url(#clip670)" d="M637.706 1195.67 L656.062 1195.67 L656.062 1199.61 L641.988 1199.61 L641.988 1208.08 Q643.007 1207.73 644.025 1207.57 Q645.044 1207.38 646.062 1207.38 Q651.849 1207.38 655.229 1210.55 Q658.609 1213.73 658.609 1219.14 Q658.609 1224.72 655.136 1227.82 Q651.664 1230.9 645.345 1230.9 Q643.169 1230.9 640.9 1230.53 Q638.655 1230.16 636.248 1229.42 L636.248 1224.72 Q638.331 1225.86 640.553 1226.41 Q642.775 1226.97 645.252 1226.97 Q649.257 1226.97 651.595 1224.86 Q653.933 1222.75 653.933 1219.14 Q653.933 1215.53 651.595 1213.42 Q649.257 1211.32 645.252 1211.32 Q643.377 1211.32 641.502 1211.74 Q639.65 1212.15 637.706 1213.03 L637.706 1195.67 Z" fill="#000000" fill-rule="nonzero" fill-opacity="1" /><path clip-path="url(#clip670)" d="M677.821 1198.75 Q674.21 1198.75 672.382 1202.31 Q670.576 1205.86 670.576 1212.98 Q670.576 1220.09 672.382 1223.66 Q674.21 1227.2 677.821 1227.2 Q681.456 1227.2 683.261 1223.66 Q685.09 1220.09 685.09 1212.98 Q685.09 1205.86 683.261 1202.31 Q681.456 1198.75 677.821 1198.75 M677.821 1195.05 Q683.632 1195.05 686.687 1199.65 Q689.766 1204.24 689.766 1212.98 Q689.766 1221.71 686.687 1226.32 Q683.632 1230.9 677.821 1230.9 Q672.011 1230.9 668.933 1226.32 Q665.877 1221.71 665.877 1212.98 Q665.877 1204.24 668.933 1199.65 Q672.011 1195.05 677.821 1195.05 Z" fill="#000000" fill-rule="nonzero" fill-opacity="1" /><path clip-path="url(#clip670)" d="M1050.11 1226.3 L1057.75 1226.3 L1057.75 1199.93 L1049.44 1201.6 L1049.44 1197.34 L1057.7 1195.67 L1062.38 1195.67 L1062.38 1226.3 L1070.01 1226.3 L1070.01 1230.23 L1050.11 1230.23 L1050.11 1226.3 Z" fill="#000000" fill-rule="nonzero" fill-opacity="1" /><path clip-path="url(#clip670)" d="M1089.46 1198.75 Q1085.85 1198.75 1084.02 1202.31 Q1082.21 1205.86 1082.21 1212.98 Q1082.21 1220.09 1084.02 1223.66 Q1085.85 1227.2 1089.46 1227.2 Q1093.09 1227.2 1094.9 1223.66 Q1096.73 1220.09 1096.73 1212.98 Q1096.73 1205.86 1094.9 1202.31 Q1093.09 1198.75 1089.46 1198.75 M1089.46 1195.05 Q1095.27 1195.05 1098.32 1199.65 Q1101.4 1204.24 1101.4 1212.98 Q1101.4 1221.71 1098.32 1226.32 Q1095.27 1230.9 1089.46 1230.9 Q1083.65 1230.9 1080.57 1226.32 Q1077.51 1221.71 1077.51 1212.98 Q1077.51 1204.24 1080.57 1199.65 Q1083.65 1195.05 1089.46 1195.05 Z" fill="#000000" fill-rule="nonzero" fill-opacity="1" /><path clip-path="url(#clip670)" d="M1119.62 1198.75 Q1116.01 1198.75 1114.18 1202.31 Q1112.38 1205.86 1112.38 1212.98 Q1112.38 1220.09 1114.18 1223.66 Q1116.01 1227.2 1119.62 1227.2 Q1123.26 1227.2 1125.06 1223.66 Q1126.89 1220.09 1126.89 1212.98 Q1126.89 1205.86 1125.06 1202.31 Q1123.26 1198.75 1119.62 1198.75 M1119.62 1195.05 Q1125.43 1195.05 1128.49 1199.65 Q1131.57 1204.24 1131.57 1212.98 Q1131.57 1221.71 1128.49 1226.32 Q1125.43 1230.9 1119.62 1230.9 Q1113.81 1230.9 1110.73 1226.32 Q1107.68 1221.71 1107.68 1212.98 Q1107.68 1204.24 1110.73 1199.65 Q1113.81 1195.05 1119.62 1195.05 Z" fill="#000000" fill-rule="nonzero" fill-opacity="1" /><path clip-path="url(#clip670)" d="M1477.6 1226.3 L1485.24 1226.3 L1485.24 1199.93 L1476.93 1201.6 L1476.93 1197.34 L1485.19 1195.67 L1489.87 1195.67 L1489.87 1226.3 L1497.51 1226.3 L1497.51 1230.23 L1477.6 1230.23 L1477.6 1226.3 Z" fill="#000000" fill-rule="nonzero" fill-opacity="1" /><path clip-path="url(#clip670)" d="M1507 1195.67 L1525.36 1195.67 L1525.36 1199.61 L1511.28 1199.61 L1511.28 1208.08 Q1512.3 1207.73 1513.32 1207.57 Q1514.34 1207.38 1515.36 1207.38 Q1521.14 1207.38 1524.52 1210.55 Q1527.9 1213.73 1527.9 1219.14 Q1527.9 1224.72 1524.43 1227.82 Q1520.96 1230.9 1514.64 1230.9 Q1512.46 1230.9 1510.19 1230.53 Q1507.95 1230.16 1505.54 1229.42 L1505.54 1224.72 Q1507.62 1225.86 1509.85 1226.41 Q1512.07 1226.97 1514.55 1226.97 Q1518.55 1226.97 1520.89 1224.86 Q1523.23 1222.75 1523.23 1219.14 Q1523.23 1215.53 1520.89 1213.42 Q1518.55 1211.32 1514.55 1211.32 Q1512.67 1211.32 1510.8 1211.74 Q1508.94 1212.15 1507 1213.03 L1507 1195.67 Z" fill="#000000" fill-rule="nonzero" fill-opacity="1" /><path clip-path="url(#clip670)" d="M1547.11 1198.75 Q1543.5 1198.75 1541.67 1202.31 Q1539.87 1205.86 1539.87 1212.98 Q1539.87 1220.09 1541.67 1223.66 Q1543.5 1227.2 1547.11 1227.2 Q1550.75 1227.2 1552.55 1223.66 Q1554.38 1220.09 1554.38 1212.98 Q1554.38 1205.86 1552.55 1202.31 Q1550.75 1198.75 1547.11 1198.75 M1547.11 1195.05 Q1552.92 1195.05 1555.98 1199.65 Q1559.06 1204.24 1559.06 1212.98 Q1559.06 1221.71 1555.98 1226.32 Q1552.92 1230.9 1547.11 1230.9 Q1541.3 1230.9 1538.23 1226.32 Q1535.17 1221.71 1535.17 1212.98 Q1535.17 1204.24 1538.23 1199.65 Q1541.3 1195.05 1547.11 1195.05 Z" fill="#000000" fill-rule="nonzero" fill-opacity="1" /><path clip-path="url(#clip670)" d="M1909.18 1226.3 L1925.5 1226.3 L1925.5 1230.23 L1903.56 1230.23 L1903.56 1226.3 Q1906.22 1223.54 1910.8 1218.91 Q1915.41 1214.26 1916.59 1212.92 Q1918.83 1210.39 1919.71 1208.66 Q1920.62 1206.9 1920.62 1205.21 Q1920.62 1202.45 1918.67 1200.72 Q1916.75 1198.98 1913.65 1198.98 Q1911.45 1198.98 1909 1199.74 Q1906.57 1200.51 1903.79 1202.06 L1903.79 1197.34 Q1906.61 1196.2 1909.07 1195.62 Q1911.52 1195.05 1913.56 1195.05 Q1918.93 1195.05 1922.12 1197.73 Q1925.32 1200.42 1925.32 1204.91 Q1925.32 1207.04 1924.5 1208.96 Q1923.72 1210.86 1921.61 1213.45 Q1921.03 1214.12 1917.93 1217.34 Q1914.83 1220.53 1909.18 1226.3 Z" fill="#000000" fill-rule="nonzero" fill-opacity="1" /><path clip-path="url(#clip670)" d="M1945.31 1198.75 Q1941.7 1198.75 1939.88 1202.31 Q1938.07 1205.86 1938.07 1212.98 Q1938.07 1220.09 1939.88 1223.66 Q1941.7 1227.2 1945.31 1227.2 Q1948.95 1227.2 1950.75 1223.66 Q1952.58 1220.09 1952.58 1212.98 Q1952.58 1205.86 1950.75 1202.31 Q1948.95 1198.75 1945.31 1198.75 M1945.31 1195.05 Q1951.13 1195.05 1954.18 1199.65 Q1957.26 1204.24 1957.26 1212.98 Q1957.26 1221.71 1954.18 1226.32 Q1951.13 1230.9 1945.31 1230.9 Q1939.5 1230.9 1936.43 1226.32 Q1933.37 1221.71 1933.37 1212.98 Q1933.37 1204.24 1936.43 1199.65 Q1939.5 1195.05 1945.31 1195.05 Z" fill="#000000" fill-rule="nonzero" fill-opacity="1" /><path clip-path="url(#clip670)" d="M1975.48 1198.75 Q1971.87 1198.75 1970.04 1202.31 Q1968.23 1205.86 1968.23 1212.98 Q1968.23 1220.09 1970.04 1223.66 Q1971.87 1227.2 1975.48 1227.2 Q1979.11 1227.2 1980.92 1223.66 Q1982.75 1220.09 1982.75 1212.98 Q1982.75 1205.86 1980.92 1202.31 Q1979.11 1198.75 1975.48 1198.75 M1975.48 1195.05 Q1981.29 1195.05 1984.34 1199.65 Q1987.42 1204.24 1987.42 1212.98 Q1987.42 1221.71 1984.34 1226.32 Q1981.29 1230.9 1975.48 1230.9 Q1969.67 1230.9 1966.59 1226.32 Q1963.53 1221.71 1963.53 1212.98 Q1963.53 1204.24 1966.59 1199.65 Q1969.67 1195.05 1975.48 1195.05 Z" fill="#000000" fill-rule="nonzero" fill-opacity="1" /><polyline clip-path="url(#clip670)" style="stroke:#000000; stroke-linecap:round; stroke-linejoin:round; stroke-width:4; stroke-opacity:1; fill:none" points="185.496,1171.03 185.496,107.256 "/>
<polyline clip-path="url(#clip670)" style="stroke:#000000; stroke-linecap:round; stroke-linejoin:round; stroke-width:4; stroke-opacity:1; fill:none" points="185.496,1086.91 204.394,1086.91 "/>
<polyline clip-path="url(#clip670)" style="stroke:#000000; stroke-linecap:round; stroke-linejoin:round; stroke-width:4; stroke-opacity:1; fill:none" points="185.496,849.523 204.394,849.523 "/>
<polyline clip-path="url(#clip670)" style="stroke:#000000; stroke-linecap:round; stroke-linejoin:round; stroke-width:4; stroke-opacity:1; fill:none" points="185.496,612.136 204.394,612.136 "/>
<polyline clip-path="url(#clip670)" style="stroke:#000000; stroke-linecap:round; stroke-linejoin:round; stroke-width:4; stroke-opacity:1; fill:none" points="185.496,374.749 204.394,374.749 "/>
<polyline clip-path="url(#clip670)" style="stroke:#000000; stroke-linecap:round; stroke-linejoin:round; stroke-width:4; stroke-opacity:1; fill:none" points="185.496,137.363 204.394,137.363 "/>
<path clip-path="url(#clip670)" d="M53.6634 1106.7 L61.3023 1106.7 L61.3023 1080.34 L52.9921 1082 L52.9921 1077.74 L61.256 1076.08 L65.9319 1076.08 L65.9319 1106.7 L73.5707 1106.7 L73.5707 1110.64 L53.6634 1110.64 L53.6634 1106.7 Z" fill="#000000" fill-rule="nonzero" fill-opacity="1" /><path clip-path="url(#clip670)" d="M93.0151 1079.16 Q89.404 1079.16 87.5753 1082.72 Q85.7697 1086.26 85.7697 1093.39 Q85.7697 1100.5 87.5753 1104.06 Q89.404 1107.6 93.0151 1107.6 Q96.6493 1107.6 98.4548 1104.06 Q100.284 1100.5 100.284 1093.39 Q100.284 1086.26 98.4548 1082.72 Q96.6493 1079.16 93.0151 1079.16 M93.0151 1075.45 Q98.8252 1075.45 101.881 1080.06 Q104.959 1084.64 104.959 1093.39 Q104.959 1102.12 101.881 1106.72 Q98.8252 1111.31 93.0151 1111.31 Q87.2049 1111.31 84.1262 1106.72 Q81.0707 1102.12 81.0707 1093.39 Q81.0707 1084.64 84.1262 1080.06 Q87.2049 1075.45 93.0151 1075.45 Z" fill="#000000" fill-rule="nonzero" fill-opacity="1" /><path clip-path="url(#clip670)" d="M104.959 1069.55 L129.071 1069.55 L129.071 1072.75 L104.959 1072.75 L104.959 1069.55 Z" fill="#000000" fill-rule="nonzero" fill-opacity="1" /><path clip-path="url(#clip670)" d="M147.71 1058.46 L138.118 1073.45 L147.71 1073.45 L147.71 1058.46 M146.713 1055.15 L151.49 1055.15 L151.49 1073.45 L155.496 1073.45 L155.496 1076.61 L151.49 1076.61 L151.49 1083.23 L147.71 1083.23 L147.71 1076.61 L135.033 1076.61 L135.033 1072.94 L146.713 1055.15 Z" fill="#000000" fill-rule="nonzero" fill-opacity="1" /><path clip-path="url(#clip670)" d="M54.585 869.315 L62.2238 869.315 L62.2238 842.949 L53.9137 844.616 L53.9137 840.357 L62.1776 838.69 L66.8535 838.69 L66.8535 869.315 L74.4923 869.315 L74.4923 873.25 L54.585 873.25 L54.585 869.315 Z" fill="#000000" fill-rule="nonzero" fill-opacity="1" /><path clip-path="url(#clip670)" d="M93.9366 841.769 Q90.3255 841.769 88.4969 845.334 Q86.6913 848.875 86.6913 856.005 Q86.6913 863.111 88.4969 866.676 Q90.3255 870.218 93.9366 870.218 Q97.5709 870.218 99.3764 866.676 Q101.205 863.111 101.205 856.005 Q101.205 848.875 99.3764 845.334 Q97.5709 841.769 93.9366 841.769 M93.9366 838.065 Q99.7468 838.065 102.802 842.672 Q105.881 847.255 105.881 856.005 Q105.881 864.732 102.802 869.338 Q99.7468 873.921 93.9366 873.921 Q88.1265 873.921 85.0478 869.338 Q81.9923 864.732 81.9923 856.005 Q81.9923 847.255 85.0478 842.672 Q88.1265 838.065 93.9366 838.065 Z" fill="#000000" fill-rule="nonzero" fill-opacity="1" /><path clip-path="url(#clip670)" d="M105.881 832.166 L129.993 832.166 L129.993 835.364 L105.881 835.364 L105.881 832.166 Z" fill="#000000" fill-rule="nonzero" fill-opacity="1" /><path clip-path="url(#clip670)" d="M149.703 830.699 Q152.43 831.283 153.954 833.126 Q155.496 834.969 155.496 837.677 Q155.496 841.834 152.637 844.109 Q149.778 846.385 144.512 846.385 Q142.744 846.385 140.863 846.028 Q139.002 845.689 137.008 844.993 L137.008 841.326 Q138.588 842.247 140.469 842.718 Q142.349 843.188 144.399 843.188 Q147.973 843.188 149.835 841.777 Q151.716 840.367 151.716 837.677 Q151.716 835.195 149.966 833.803 Q148.236 832.392 145.133 832.392 L141.86 832.392 L141.86 829.27 L145.283 829.27 Q148.086 829.27 149.571 828.16 Q151.057 827.032 151.057 824.925 Q151.057 822.763 149.515 821.615 Q147.992 820.449 145.133 820.449 Q143.572 820.449 141.785 820.788 Q139.998 821.126 137.854 821.841 L137.854 818.456 Q140.017 817.854 141.898 817.553 Q143.797 817.252 145.471 817.252 Q149.797 817.252 152.317 819.227 Q154.838 821.183 154.838 824.531 Q154.838 826.863 153.502 828.48 Q152.167 830.079 149.703 830.699 Z" fill="#000000" fill-rule="nonzero" fill-opacity="1" /><path clip-path="url(#clip670)" d="M55.3561 631.928 L62.995 631.928 L62.995 605.563 L54.6848 607.229 L54.6848 602.97 L62.9487 601.304 L67.6246 601.304 L67.6246 631.928 L75.2634 631.928 L75.2634 635.864 L55.3561 635.864 L55.3561 631.928 Z" fill="#000000" fill-rule="nonzero" fill-opacity="1" /><path clip-path="url(#clip670)" d="M94.7078 604.382 Q91.0967 604.382 89.268 607.947 Q87.4624 611.489 87.4624 618.618 Q87.4624 625.725 89.268 629.289 Q91.0967 632.831 94.7078 632.831 Q98.342 632.831 100.148 629.289 Q101.976 625.725 101.976 618.618 Q101.976 611.489 100.148 607.947 Q98.342 604.382 94.7078 604.382 M94.7078 600.679 Q100.518 600.679 103.573 605.285 Q106.652 609.868 106.652 618.618 Q106.652 627.345 103.573 631.952 Q100.518 636.535 94.7078 636.535 Q88.8976 636.535 85.8189 631.952 Q82.7634 627.345 82.7634 618.618 Q82.7634 609.868 85.8189 605.285 Q88.8976 600.679 94.7078 600.679 Z" fill="#000000" fill-rule="nonzero" fill-opacity="1" /><path clip-path="url(#clip670)" d="M106.652 594.78 L130.764 594.78 L130.764 597.977 L106.652 597.977 L106.652 594.78 Z" fill="#000000" fill-rule="nonzero" fill-opacity="1" /><path clip-path="url(#clip670)" d="M142.236 605.256 L155.496 605.256 L155.496 608.453 L137.666 608.453 L137.666 605.256 Q139.829 603.018 143.553 599.256 Q147.296 595.476 148.255 594.385 Q150.079 592.335 150.794 590.924 Q151.527 589.495 151.527 588.122 Q151.527 585.884 149.948 584.473 Q148.387 583.063 145.866 583.063 Q144.08 583.063 142.086 583.683 Q140.111 584.304 137.854 585.564 L137.854 581.727 Q140.149 580.806 142.142 580.336 Q144.136 579.865 145.791 579.865 Q150.155 579.865 152.75 582.047 Q155.345 584.229 155.345 587.877 Q155.345 589.608 154.687 591.169 Q154.048 592.711 152.336 594.817 Q151.866 595.363 149.346 597.977 Q146.826 600.573 142.236 605.256 Z" fill="#000000" fill-rule="nonzero" fill-opacity="1" /><path clip-path="url(#clip670)" d="M55.0552 394.542 L62.694 394.542 L62.694 368.176 L54.3839 369.843 L54.3839 365.584 L62.6477 363.917 L67.3236 363.917 L67.3236 394.542 L74.9625 394.542 L74.9625 398.477 L55.0552 398.477 L55.0552 394.542 Z" fill="#000000" fill-rule="nonzero" fill-opacity="1" /><path clip-path="url(#clip670)" d="M94.4068 366.996 Q90.7957 366.996 88.967 370.56 Q87.1615 374.102 87.1615 381.232 Q87.1615 388.338 88.967 391.903 Q90.7957 395.445 94.4068 395.445 Q98.0411 395.445 99.8466 391.903 Q101.675 388.338 101.675 381.232 Q101.675 374.102 99.8466 370.56 Q98.0411 366.996 94.4068 366.996 M94.4068 363.292 Q100.217 363.292 103.273 367.898 Q106.351 372.482 106.351 381.232 Q106.351 389.958 103.273 394.565 Q100.217 399.148 94.4068 399.148 Q88.5967 399.148 85.518 394.565 Q82.4625 389.958 82.4625 381.232 Q82.4625 372.482 85.518 367.898 Q88.5967 363.292 94.4068 363.292 Z" fill="#000000" fill-rule="nonzero" fill-opacity="1" /><path clip-path="url(#clip670)" d="M106.351 357.393 L130.463 357.393 L130.463 360.591 L106.351 360.591 L106.351 357.393 Z" fill="#000000" fill-rule="nonzero" fill-opacity="1" /><path clip-path="url(#clip670)" d="M139.321 367.869 L145.528 367.869 L145.528 346.447 L138.776 347.801 L138.776 344.341 L145.49 342.987 L149.289 342.987 L149.289 367.869 L155.496 367.869 L155.496 371.067 L139.321 371.067 L139.321 367.869 Z" fill="#000000" fill-rule="nonzero" fill-opacity="1" /><path clip-path="url(#clip670)" d="M84.7903 157.155 L92.4291 157.155 L92.4291 130.79 L84.119 132.456 L84.119 128.197 L92.3828 126.53 L97.0587 126.53 L97.0587 157.155 L104.698 157.155 L104.698 161.09 L84.7903 161.09 L84.7903 157.155 Z" fill="#000000" fill-rule="nonzero" fill-opacity="1" /><path clip-path="url(#clip670)" d="M124.142 129.609 Q120.531 129.609 118.702 133.174 Q116.897 136.715 116.897 143.845 Q116.897 150.951 118.702 154.516 Q120.531 158.058 124.142 158.058 Q127.776 158.058 129.582 154.516 Q131.41 150.951 131.41 143.845 Q131.41 136.715 129.582 133.174 Q127.776 129.609 124.142 129.609 M124.142 125.905 Q129.952 125.905 133.008 130.512 Q136.086 135.095 136.086 143.845 Q136.086 152.572 133.008 157.178 Q129.952 161.762 124.142 161.762 Q118.332 161.762 115.253 157.178 Q112.198 152.572 112.198 143.845 Q112.198 135.095 115.253 130.512 Q118.332 125.905 124.142 125.905 Z" fill="#000000" fill-rule="nonzero" fill-opacity="1" /><path clip-path="url(#clip670)" d="M145.791 108.101 Q142.857 108.101 141.371 110.998 Q139.904 113.875 139.904 119.668 Q139.904 125.442 141.371 128.338 Q142.857 131.216 145.791 131.216 Q148.744 131.216 150.211 128.338 Q151.697 125.442 151.697 119.668 Q151.697 113.875 150.211 110.998 Q148.744 108.101 145.791 108.101 M145.791 105.092 Q150.512 105.092 152.994 108.835 Q155.496 112.559 155.496 119.668 Q155.496 126.759 152.994 130.501 Q150.512 134.225 145.791 134.225 Q141.07 134.225 138.569 130.501 Q136.086 126.759 136.086 119.668 Q136.086 112.559 138.569 108.835 Q141.07 105.092 145.791 105.092 Z" fill="#000000" fill-rule="nonzero" fill-opacity="1" /><g clip-path="url(#clip670)">
<text style="fill:#000000; fill-opacity:1; font-family:Arial,Helvetica Neue,Helvetica,sans-serif; font-size:66px; text-anchor:middle;" transform="rotate(0, 1069.13, 57.6)" x="1069.13" y="57.6">Diagonal preconditioning in CG</text>
</g>
<polyline clip-path="url(#clip672)" style="stroke:#009af9; stroke-linecap:round; stroke-linejoin:round; stroke-width:8; stroke-opacity:1; fill:none" points="235.513,137.363 244.063,174.248 252.612,249.77 261.162,283.147 269.712,283.5 278.262,285.182 286.812,309.834 295.362,339.548 303.912,360.977 312.462,367.154 321.011,368.804 329.561,378.953 338.111,394.76 346.661,405.2 355.211,410.214 363.761,414.777 372.311,418.009 380.861,425.97 389.411,431.869 397.96,435.184 406.51,438.09 415.06,439.136 423.61,442.282 432.16,447.395 440.71,449.275 449.26,450.189 457.81,456.072 466.359,456.49 474.909,461.26 483.459,463.993 492.009,466.286 500.559,468.341 509.109,471.269 517.659,474.189 526.209,477.343 534.758,478.859 543.308,480.943 551.858,482.734 560.408,486.047 568.958,485.97 577.508,489.082 586.058,489.693 594.608,489.986 603.158,489.204 611.707,489.863 620.257,492.051 628.807,490.422 637.357,493.551 645.907,495.021 654.457,497.381 663.007,501.388 671.557,505.101 680.106,507.136 688.656,511.309 697.206,514.608 705.756,518.206 714.306,523.428 722.856,523.634 731.406,529.705 739.956,533.546 748.505,536.337 757.055,539.105 765.605,545.257 774.155,548.982 782.705,552.961 791.255,555.378 799.805,558.656 808.355,562.514 816.904,566.002 825.454,570.209 834.004,575.15 842.554,578.93 851.104,584.498 859.654,586.944 868.204,590.443 876.754,593.985 885.304,594.627 893.853,596.752 902.403,597.699 910.953,598.755 919.503,600.797 928.053,598.204 936.603,599.027 945.153,603.376 953.703,607.378 962.252,612.152 970.802,618.055 979.352,622.94 987.902,626.832 996.452,632.739 1005,638.647 1013.55,641.345 1022.1,647.806 1030.65,652.541 1039.2,659.561 1047.75,660.181 1056.3,663.863 1064.85,668.986 1073.4,670.084 1081.95,673.852 1090.5,678.284 1099.05,681.152 1107.6,685.844 1116.15,690.263 1124.7,692.999 1133.25,696.761 1141.8,700.71 1150.35,703.853 1158.9,708.343 1167.45,711.27 1176,711.668 1184.55,717.73 1193.1,720.297 1201.65,724.016 1210.2,725.361 1218.75,729.38 1227.3,731.431 1235.85,735.147 1244.4,737.745 1252.95,741.295 1261.5,742.509 1270.05,742.793 1278.6,745.406 1287.15,745.881 1295.7,748.321 1304.25,749.667 1312.8,751.937 1321.35,754.684 1329.9,758.501 1338.45,761.317 1347,766.477 1355.55,770.059 1364.1,776.229 1372.65,778.913 1381.2,784.114 1389.75,789.316 1398.3,793.9 1406.85,797.073 1415.4,800.917 1423.95,804.966 1432.5,809.86 1441.05,814.834 1449.6,818.684 1458.15,822.081 1466.7,827.005 1475.25,831.498 1483.8,837.334 1492.34,844.485 1500.89,847.204 1509.44,850.219 1517.99,855.165 1526.54,859.217 1535.09,865.45 1543.64,870.121 1552.19,874.588 1560.74,877.975 1569.29,883.293 1577.84,888.123 1586.39,890.751 1594.94,895.466 1603.49,897.196 1612.04,902.266 1620.59,905.223 1629.14,907.819 1637.69,913.064 1646.24,917.466 1654.79,923.568 1663.34,928.175 1671.89,934.954 1680.44,940.877 1688.99,947.174 1697.54,954.357 1706.09,961.417 1714.64,969.822 1723.19,975.265 1731.74,979.618 1740.29,985.945 1748.84,992.079 1757.39,997.047 1765.94,1004.14 1774.49,1009.39 1783.04,1014.27 1791.59,1020.44 1800.14,1028.36 1808.69,1034.18 1817.24,1043.51 1825.79,1052.69 1834.34,1061.87 1842.89,1074.49 1851.44,1083.2 1859.99,1090.78 1868.54,1100.83 1877.09,1111.36 1885.64,1120.85 1894.19,1130.41 1902.74,1140.92 "/>
<polyline clip-path="url(#clip672)" style="stroke:#e26f46; stroke-linecap:round; stroke-linejoin:round; stroke-width:8; stroke-opacity:1; fill:none" points="235.513,137.363 244.063,187.075 252.612,263.681 261.162,334.67 269.712,391.828 278.262,439.218 286.812,483.042 295.362,537.37 303.912,576.921 312.462,606.838 321.011,669.518 329.561,736.678 338.111,793.694 346.661,837.448 355.211,887.98 363.761,938.026 372.311,974.937 380.861,1011.62 389.411,1068.51 "/>
<path clip-path="url(#clip670)" d="M1369.58 298.235 L1893.85 298.235 L1893.85 142.715 L1369.58 142.715  Z" fill="#ffffff" fill-rule="evenodd" fill-opacity="1"/>
<polyline clip-path="url(#clip670)" style="stroke:#000000; stroke-linecap:round; stroke-linejoin:round; stroke-width:4; stroke-opacity:1; fill:none" points="1369.58,298.235 1893.85,298.235 1893.85,142.715 1369.58,142.715 1369.58,298.235 "/>
<polyline clip-path="url(#clip670)" style="stroke:#009af9; stroke-linecap:round; stroke-linejoin:round; stroke-width:8; stroke-opacity:1; fill:none" points="1389.21,194.555 1507.03,194.555 "/>
<path clip-path="url(#clip670)" d="M1530.95 207.946 L1530.95 221.696 L1526.67 221.696 L1526.67 185.909 L1530.95 185.909 L1530.95 189.844 Q1532.29 187.53 1534.33 186.418 Q1536.39 185.284 1539.24 185.284 Q1543.96 185.284 1546.9 189.034 Q1549.86 192.784 1549.86 198.895 Q1549.86 205.006 1546.9 208.756 Q1543.96 212.506 1539.24 212.506 Q1536.39 212.506 1534.33 211.395 Q1532.29 210.261 1530.95 207.946 M1545.44 198.895 Q1545.44 194.196 1543.5 191.534 Q1541.57 188.849 1538.19 188.849 Q1534.81 188.849 1532.87 191.534 Q1530.95 194.196 1530.95 198.895 Q1530.95 203.594 1532.87 206.28 Q1534.81 208.942 1538.19 208.942 Q1541.57 208.942 1543.5 206.28 Q1545.44 203.594 1545.44 198.895 Z" fill="#000000" fill-rule="nonzero" fill-opacity="1" /><path clip-path="url(#clip670)" d="M1556.92 175.817 L1561.18 175.817 L1561.18 211.835 L1556.92 211.835 L1556.92 175.817 Z" fill="#000000" fill-rule="nonzero" fill-opacity="1" /><path clip-path="url(#clip670)" d="M1581.87 198.803 Q1576.71 198.803 1574.72 199.983 Q1572.73 201.164 1572.73 204.011 Q1572.73 206.28 1574.21 207.622 Q1575.72 208.942 1578.29 208.942 Q1581.83 208.942 1583.96 206.442 Q1586.11 203.918 1586.11 199.752 L1586.11 198.803 L1581.87 198.803 M1590.37 197.043 L1590.37 211.835 L1586.11 211.835 L1586.11 207.9 Q1584.65 210.261 1582.48 211.395 Q1580.3 212.506 1577.15 212.506 Q1573.17 212.506 1570.81 210.284 Q1568.47 208.039 1568.47 204.289 Q1568.47 199.914 1571.39 197.692 Q1574.33 195.469 1580.14 195.469 L1586.11 195.469 L1586.11 195.053 Q1586.11 192.113 1584.17 190.516 Q1582.24 188.895 1578.75 188.895 Q1576.53 188.895 1574.42 189.428 Q1572.31 189.96 1570.37 191.025 L1570.37 187.09 Q1572.71 186.187 1574.91 185.747 Q1577.11 185.284 1579.19 185.284 Q1584.81 185.284 1587.59 188.201 Q1590.37 191.118 1590.37 197.043 Z" fill="#000000" fill-rule="nonzero" fill-opacity="1" /><path clip-path="url(#clip670)" d="M1599.14 185.909 L1603.4 185.909 L1603.4 211.835 L1599.14 211.835 L1599.14 185.909 M1599.14 175.817 L1603.4 175.817 L1603.4 181.21 L1599.14 181.21 L1599.14 175.817 Z" fill="#000000" fill-rule="nonzero" fill-opacity="1" /><path clip-path="url(#clip670)" d="M1633.87 196.187 L1633.87 211.835 L1629.61 211.835 L1629.61 196.326 Q1629.61 192.645 1628.17 190.817 Q1626.74 188.988 1623.87 188.988 Q1620.42 188.988 1618.43 191.187 Q1616.43 193.386 1616.43 197.182 L1616.43 211.835 L1612.15 211.835 L1612.15 185.909 L1616.43 185.909 L1616.43 189.937 Q1617.96 187.599 1620.02 186.442 Q1622.11 185.284 1624.81 185.284 Q1629.28 185.284 1631.57 188.062 Q1633.87 190.817 1633.87 196.187 Z" fill="#000000" fill-rule="nonzero" fill-opacity="1" /><polyline clip-path="url(#clip670)" style="stroke:#e26f46; stroke-linecap:round; stroke-linejoin:round; stroke-width:8; stroke-opacity:1; fill:none" points="1389.21,246.395 1507.03,246.395 "/>
<path clip-path="url(#clip670)" d="M1530.95 259.786 L1530.95 273.536 L1526.67 273.536 L1526.67 237.749 L1530.95 237.749 L1530.95 241.684 Q1532.29 239.37 1534.33 238.258 Q1536.39 237.124 1539.24 237.124 Q1543.96 237.124 1546.9 240.874 Q1549.86 244.624 1549.86 250.735 Q1549.86 256.846 1546.9 260.596 Q1543.96 264.346 1539.24 264.346 Q1536.39 264.346 1534.33 263.235 Q1532.29 262.101 1530.95 259.786 M1545.44 250.735 Q1545.44 246.036 1543.5 243.374 Q1541.57 240.689 1538.19 240.689 Q1534.81 240.689 1532.87 243.374 Q1530.95 246.036 1530.95 250.735 Q1530.95 255.434 1532.87 258.12 Q1534.81 260.782 1538.19 260.782 Q1541.57 260.782 1543.5 258.12 Q1545.44 255.434 1545.44 250.735 Z" fill="#000000" fill-rule="nonzero" fill-opacity="1" /><path clip-path="url(#clip670)" d="M1571.94 241.731 Q1571.23 241.314 1570.37 241.129 Q1569.54 240.921 1568.52 240.921 Q1564.91 240.921 1562.96 243.282 Q1561.04 245.62 1561.04 250.018 L1561.04 263.675 L1556.76 263.675 L1556.76 237.749 L1561.04 237.749 L1561.04 241.777 Q1562.38 239.416 1564.54 238.282 Q1566.69 237.124 1569.77 237.124 Q1570.21 237.124 1570.74 237.194 Q1571.27 237.24 1571.92 237.356 L1571.94 241.731 Z" fill="#000000" fill-rule="nonzero" fill-opacity="1" /><path clip-path="url(#clip670)" d="M1597.55 249.647 L1597.55 251.731 L1577.96 251.731 Q1578.24 256.129 1580.6 258.444 Q1582.99 260.735 1587.22 260.735 Q1589.68 260.735 1591.97 260.133 Q1594.28 259.532 1596.55 258.328 L1596.55 262.356 Q1594.26 263.328 1591.85 263.837 Q1589.44 264.346 1586.97 264.346 Q1580.76 264.346 1577.13 260.735 Q1573.52 257.124 1573.52 250.967 Q1573.52 244.601 1576.94 240.874 Q1580.39 237.124 1586.23 237.124 Q1591.46 237.124 1594.49 240.504 Q1597.55 243.86 1597.55 249.647 M1593.29 248.397 Q1593.24 244.902 1591.32 242.819 Q1589.42 240.735 1586.27 240.735 Q1582.71 240.735 1580.56 242.749 Q1578.43 244.763 1578.1 248.42 L1593.29 248.397 Z" fill="#000000" fill-rule="nonzero" fill-opacity="1" /><path clip-path="url(#clip670)" d="M1623.19 238.745 L1623.19 242.726 Q1621.39 241.731 1619.56 241.245 Q1617.75 240.735 1615.9 240.735 Q1611.76 240.735 1609.47 243.374 Q1607.18 245.99 1607.18 250.735 Q1607.18 255.481 1609.47 258.12 Q1611.76 260.735 1615.9 260.735 Q1617.75 260.735 1619.56 260.249 Q1621.39 259.74 1623.19 258.744 L1623.19 262.68 Q1621.41 263.513 1619.49 263.93 Q1617.59 264.346 1615.44 264.346 Q1609.58 264.346 1606.13 260.666 Q1602.68 256.985 1602.68 250.735 Q1602.68 244.393 1606.16 240.758 Q1609.65 237.124 1615.72 237.124 Q1617.68 237.124 1619.56 237.541 Q1621.43 237.934 1623.19 238.745 Z" fill="#000000" fill-rule="nonzero" fill-opacity="1" /><path clip-path="url(#clip670)" d="M1640.65 240.735 Q1637.22 240.735 1635.23 243.421 Q1633.24 246.083 1633.24 250.735 Q1633.24 255.388 1635.21 258.073 Q1637.2 260.735 1640.65 260.735 Q1644.05 260.735 1646.04 258.05 Q1648.03 255.365 1648.03 250.735 Q1648.03 246.129 1646.04 243.444 Q1644.05 240.735 1640.65 240.735 M1640.65 237.124 Q1646.2 237.124 1649.37 240.735 Q1652.55 244.346 1652.55 250.735 Q1652.55 257.101 1649.37 260.735 Q1646.2 264.346 1640.65 264.346 Q1635.07 264.346 1631.9 260.735 Q1628.75 257.101 1628.75 250.735 Q1628.75 244.346 1631.9 240.735 Q1635.07 237.124 1640.65 237.124 Z" fill="#000000" fill-rule="nonzero" fill-opacity="1" /><path clip-path="url(#clip670)" d="M1681.16 248.027 L1681.16 263.675 L1676.9 263.675 L1676.9 248.166 Q1676.9 244.485 1675.46 242.657 Q1674.03 240.828 1671.16 240.828 Q1667.71 240.828 1665.72 243.027 Q1663.73 245.226 1663.73 249.022 L1663.73 263.675 L1659.44 263.675 L1659.44 237.749 L1663.73 237.749 L1663.73 241.777 Q1665.25 239.439 1667.31 238.282 Q1669.4 237.124 1672.11 237.124 Q1676.57 237.124 1678.86 239.902 Q1681.16 242.657 1681.16 248.027 Z" fill="#000000" fill-rule="nonzero" fill-opacity="1" /><path clip-path="url(#clip670)" d="M1706.71 241.684 L1706.71 227.657 L1710.97 227.657 L1710.97 263.675 L1706.71 263.675 L1706.71 259.786 Q1705.37 262.101 1703.31 263.235 Q1701.27 264.346 1698.4 264.346 Q1693.7 264.346 1690.74 260.596 Q1687.8 256.846 1687.8 250.735 Q1687.8 244.624 1690.74 240.874 Q1693.7 237.124 1698.4 237.124 Q1701.27 237.124 1703.31 238.258 Q1705.37 239.37 1706.71 241.684 M1692.2 250.735 Q1692.2 255.434 1694.12 258.12 Q1696.06 260.782 1699.44 260.782 Q1702.82 260.782 1704.77 258.12 Q1706.71 255.434 1706.71 250.735 Q1706.71 246.036 1704.77 243.374 Q1702.82 240.689 1699.44 240.689 Q1696.06 240.689 1694.12 243.374 Q1692.2 246.036 1692.2 250.735 Z" fill="#000000" fill-rule="nonzero" fill-opacity="1" /><path clip-path="url(#clip670)" d="M1719.74 237.749 L1724 237.749 L1724 263.675 L1719.74 263.675 L1719.74 237.749 M1719.74 227.657 L1724 227.657 L1724 233.05 L1719.74 233.05 L1719.74 227.657 Z" fill="#000000" fill-rule="nonzero" fill-opacity="1" /><path clip-path="url(#clip670)" d="M1737.13 230.388 L1737.13 237.749 L1745.9 237.749 L1745.9 241.059 L1737.13 241.059 L1737.13 255.133 Q1737.13 258.305 1737.98 259.207 Q1738.86 260.11 1741.53 260.11 L1745.9 260.11 L1745.9 263.675 L1741.53 263.675 Q1736.6 263.675 1734.72 261.846 Q1732.85 259.994 1732.85 255.133 L1732.85 241.059 L1729.72 241.059 L1729.72 237.749 L1732.85 237.749 L1732.85 230.388 L1737.13 230.388 Z" fill="#000000" fill-rule="nonzero" fill-opacity="1" /><path clip-path="url(#clip670)" d="M1751.5 237.749 L1755.76 237.749 L1755.76 263.675 L1751.5 263.675 L1751.5 237.749 M1751.5 227.657 L1755.76 227.657 L1755.76 233.05 L1751.5 233.05 L1751.5 227.657 Z" fill="#000000" fill-rule="nonzero" fill-opacity="1" /><path clip-path="url(#clip670)" d="M1774.72 240.735 Q1771.29 240.735 1769.3 243.421 Q1767.31 246.083 1767.31 250.735 Q1767.31 255.388 1769.28 258.073 Q1771.27 260.735 1774.72 260.735 Q1778.12 260.735 1780.11 258.05 Q1782.11 255.365 1782.11 250.735 Q1782.11 246.129 1780.11 243.444 Q1778.12 240.735 1774.72 240.735 M1774.72 237.124 Q1780.28 237.124 1783.45 240.735 Q1786.62 244.346 1786.62 250.735 Q1786.62 257.101 1783.45 260.735 Q1780.28 264.346 1774.72 264.346 Q1769.14 264.346 1765.97 260.735 Q1762.82 257.101 1762.82 250.735 Q1762.82 244.346 1765.97 240.735 Q1769.14 237.124 1774.72 237.124 Z" fill="#000000" fill-rule="nonzero" fill-opacity="1" /><path clip-path="url(#clip670)" d="M1815.23 248.027 L1815.23 263.675 L1810.97 263.675 L1810.97 248.166 Q1810.97 244.485 1809.54 242.657 Q1808.1 240.828 1805.23 240.828 Q1801.78 240.828 1799.79 243.027 Q1797.8 245.226 1797.8 249.022 L1797.8 263.675 L1793.52 263.675 L1793.52 237.749 L1797.8 237.749 L1797.8 241.777 Q1799.33 239.439 1801.39 238.282 Q1803.47 237.124 1806.18 237.124 Q1810.65 237.124 1812.94 239.902 Q1815.23 242.657 1815.23 248.027 Z" fill="#000000" fill-rule="nonzero" fill-opacity="1" /><path clip-path="url(#clip670)" d="M1845.9 249.647 L1845.9 251.731 L1826.32 251.731 Q1826.6 256.129 1828.96 258.444 Q1831.34 260.735 1835.58 260.735 Q1838.03 260.735 1840.32 260.133 Q1842.64 259.532 1844.91 258.328 L1844.91 262.356 Q1842.61 263.328 1840.21 263.837 Q1837.8 264.346 1835.32 264.346 Q1829.12 264.346 1825.48 260.735 Q1821.87 257.124 1821.87 250.967 Q1821.87 244.601 1825.3 240.874 Q1828.75 237.124 1834.58 237.124 Q1839.81 237.124 1842.85 240.504 Q1845.9 243.86 1845.9 249.647 M1841.64 248.397 Q1841.6 244.902 1839.67 242.819 Q1837.78 240.735 1834.63 240.735 Q1831.06 240.735 1828.91 242.749 Q1826.78 244.763 1826.46 248.42 L1841.64 248.397 Z" fill="#000000" fill-rule="nonzero" fill-opacity="1" /><path clip-path="url(#clip670)" d="M1869.95 241.684 L1869.95 227.657 L1874.21 227.657 L1874.21 263.675 L1869.95 263.675 L1869.95 259.786 Q1868.61 262.101 1866.55 263.235 Q1864.51 264.346 1861.64 264.346 Q1856.94 264.346 1853.98 260.596 Q1851.04 256.846 1851.04 250.735 Q1851.04 244.624 1853.98 240.874 Q1856.94 237.124 1861.64 237.124 Q1864.51 237.124 1866.55 238.258 Q1868.61 239.37 1869.95 241.684 M1855.44 250.735 Q1855.44 255.434 1857.36 258.12 Q1859.3 260.782 1862.68 260.782 Q1866.06 260.782 1868.01 258.12 Q1869.95 255.434 1869.95 250.735 Q1869.95 246.036 1868.01 243.374 Q1866.06 240.689 1862.68 240.689 Q1859.3 240.689 1857.36 243.374 Q1855.44 246.036 1855.44 250.735 Z" fill="#000000" fill-rule="nonzero" fill-opacity="1" /></svg>
