<?xml version="1.0" encoding="utf-8"?>
<svg xmlns="http://www.w3.org/2000/svg" xmlns:xlink="http://www.w3.org/1999/xlink" width="500" height="320" viewBox="0 0 2000 1280">
<defs>
  <clipPath id="clip090">
    <rect x="0" y="0" width="2000" height="1280"/>
  </clipPath>
</defs>
<path clip-path="url(#clip090)" d="M0 1280 L2000 1280 L2000 0 L0 0  Z" fill="#ffffff" fill-rule="evenodd" fill-opacity="1"/>
<defs>
  <clipPath id="clip091">
    <rect x="400" y="0" width="1401" height="1280"/>
  </clipPath>
</defs>
<path clip-path="url(#clip090)" d="M245.244 1111.02 L1952.76 1111.02 L1952.76 107.256 L245.244 107.256  Z" fill="#ffffff" fill-rule="evenodd" fill-opacity="1"/>
<defs>
  <clipPath id="clip092">
    <rect x="245" y="107" width="1709" height="1005"/>
  </clipPath>
</defs>
<polyline clip-path="url(#clip092)" style="stroke:#000000; stroke-linecap:round; stroke-linejoin:round; stroke-width:2; stroke-opacity:0.1; fill:none" points="293.57,1111.02 293.57,107.256 "/>
<polyline clip-path="url(#clip092)" style="stroke:#000000; stroke-linecap:round; stroke-linejoin:round; stroke-width:2; stroke-opacity:0.1; fill:none" points="604.547,1111.02 604.547,107.256 "/>
<polyline clip-path="url(#clip092)" style="stroke:#000000; stroke-linecap:round; stroke-linejoin:round; stroke-width:2; stroke-opacity:0.1; fill:none" points="915.524,1111.02 915.524,107.256 "/>
<polyline clip-path="url(#clip092)" style="stroke:#000000; stroke-linecap:round; stroke-linejoin:round; stroke-width:2; stroke-opacity:0.1; fill:none" points="1226.5,1111.02 1226.5,107.256 "/>
<polyline clip-path="url(#clip092)" style="stroke:#000000; stroke-linecap:round; stroke-linejoin:round; stroke-width:2; stroke-opacity:0.1; fill:none" points="1537.48,1111.02 1537.48,107.256 "/>
<polyline clip-path="url(#clip092)" style="stroke:#000000; stroke-linecap:round; stroke-linejoin:round; stroke-width:2; stroke-opacity:0.1; fill:none" points="1848.45,1111.02 1848.45,107.256 "/>
<polyline clip-path="url(#clip092)" style="stroke:#000000; stroke-linecap:round; stroke-linejoin:round; stroke-width:2; stroke-opacity:0.1; fill:none" points="245.244,1080.58 1952.76,1080.58 "/>
<polyline clip-path="url(#clip092)" style="stroke:#000000; stroke-linecap:round; stroke-linejoin:round; stroke-width:2; stroke-opacity:0.1; fill:none" points="245.244,572.723 1952.76,572.723 "/>
<polyline clip-path="url(#clip090)" style="stroke:#000000; stroke-linecap:round; stroke-linejoin:round; stroke-width:4; stroke-opacity:1; fill:none" points="245.244,1111.02 1952.76,1111.02 "/>
<polyline clip-path="url(#clip090)" style="stroke:#000000; stroke-linecap:round; stroke-linejoin:round; stroke-width:4; stroke-opacity:1; fill:none" points="293.57,1111.02 293.57,1092.12 "/>
<polyline clip-path="url(#clip090)" style="stroke:#000000; stroke-linecap:round; stroke-linejoin:round; stroke-width:4; stroke-opacity:1; fill:none" points="604.547,1111.02 604.547,1092.12 "/>
<polyline clip-path="url(#clip090)" style="stroke:#000000; stroke-linecap:round; stroke-linejoin:round; stroke-width:4; stroke-opacity:1; fill:none" points="915.524,1111.02 915.524,1092.12 "/>
<polyline clip-path="url(#clip090)" style="stroke:#000000; stroke-linecap:round; stroke-linejoin:round; stroke-width:4; stroke-opacity:1; fill:none" points="1226.5,1111.02 1226.5,1092.12 "/>
<polyline clip-path="url(#clip090)" style="stroke:#000000; stroke-linecap:round; stroke-linejoin:round; stroke-width:4; stroke-opacity:1; fill:none" points="1537.48,1111.02 1537.48,1092.12 "/>
<polyline clip-path="url(#clip090)" style="stroke:#000000; stroke-linecap:round; stroke-linejoin:round; stroke-width:4; stroke-opacity:1; fill:none" points="1848.45,1111.02 1848.45,1092.12 "/>
<path clip-path="url(#clip090)" d="M293.57 1138.74 Q289.959 1138.74 288.13 1142.3 Q286.325 1145.84 286.325 1152.97 Q286.325 1160.08 288.13 1163.64 Q289.959 1167.19 293.57 1167.19 Q297.204 1167.19 299.01 1163.64 Q300.839 1160.08 300.839 1152.97 Q300.839 1145.84 299.01 1142.3 Q297.204 1138.74 293.57 1138.74 M293.57 1135.03 Q299.38 1135.03 302.436 1139.64 Q305.515 1144.22 305.515 1152.97 Q305.515 1161.7 302.436 1166.31 Q299.38 1170.89 293.57 1170.89 Q287.76 1170.89 284.681 1166.31 Q281.626 1161.7 281.626 1152.97 Q281.626 1144.22 284.681 1139.64 Q287.76 1135.03 293.57 1135.03 Z" fill="#000000" fill-rule="nonzero" fill-opacity="1" /><path clip-path="url(#clip090)" d="M579.246 1135.66 L597.603 1135.66 L597.603 1139.59 L583.529 1139.59 L583.529 1148.07 Q584.547 1147.72 585.566 1147.56 Q586.584 1147.37 587.603 1147.37 Q593.39 1147.37 596.769 1150.54 Q600.149 1153.71 600.149 1159.13 Q600.149 1164.71 596.677 1167.81 Q593.204 1170.89 586.885 1170.89 Q584.709 1170.89 582.441 1170.52 Q580.195 1170.15 577.788 1169.41 L577.788 1164.71 Q579.871 1165.84 582.093 1166.4 Q584.316 1166.95 586.792 1166.95 Q590.797 1166.95 593.135 1164.85 Q595.473 1162.74 595.473 1159.13 Q595.473 1155.52 593.135 1153.41 Q590.797 1151.31 586.792 1151.31 Q584.917 1151.31 583.042 1151.72 Q581.191 1152.14 579.246 1153.02 L579.246 1135.66 Z" fill="#000000" fill-rule="nonzero" fill-opacity="1" /><path clip-path="url(#clip090)" d="M619.362 1138.74 Q615.751 1138.74 613.922 1142.3 Q612.116 1145.84 612.116 1152.97 Q612.116 1160.08 613.922 1163.64 Q615.751 1167.19 619.362 1167.19 Q622.996 1167.19 624.802 1163.64 Q626.63 1160.08 626.63 1152.97 Q626.63 1145.84 624.802 1142.3 Q622.996 1138.74 619.362 1138.74 M619.362 1135.03 Q625.172 1135.03 628.227 1139.64 Q631.306 1144.22 631.306 1152.97 Q631.306 1161.7 628.227 1166.31 Q625.172 1170.89 619.362 1170.89 Q613.552 1170.89 610.473 1166.31 Q607.417 1161.7 607.417 1152.97 Q607.417 1144.22 610.473 1139.64 Q613.552 1135.03 619.362 1135.03 Z" fill="#000000" fill-rule="nonzero" fill-opacity="1" /><path clip-path="url(#clip090)" d="M875.131 1166.28 L882.769 1166.28 L882.769 1139.92 L874.459 1141.58 L874.459 1137.33 L882.723 1135.66 L887.399 1135.66 L887.399 1166.28 L895.038 1166.28 L895.038 1170.22 L875.131 1170.22 L875.131 1166.28 Z" fill="#000000" fill-rule="nonzero" fill-opacity="1" /><path clip-path="url(#clip090)" d="M914.482 1138.74 Q910.871 1138.74 909.042 1142.3 Q907.237 1145.84 907.237 1152.97 Q907.237 1160.08 909.042 1163.64 Q910.871 1167.19 914.482 1167.19 Q918.116 1167.19 919.922 1163.64 Q921.751 1160.08 921.751 1152.97 Q921.751 1145.84 919.922 1142.3 Q918.116 1138.74 914.482 1138.74 M914.482 1135.03 Q920.292 1135.03 923.348 1139.64 Q926.427 1144.22 926.427 1152.97 Q926.427 1161.7 923.348 1166.31 Q920.292 1170.89 914.482 1170.89 Q908.672 1170.89 905.593 1166.31 Q902.538 1161.7 902.538 1152.97 Q902.538 1144.22 905.593 1139.64 Q908.672 1135.03 914.482 1135.03 Z" fill="#000000" fill-rule="nonzero" fill-opacity="1" /><path clip-path="url(#clip090)" d="M944.644 1138.74 Q941.033 1138.74 939.204 1142.3 Q937.399 1145.84 937.399 1152.97 Q937.399 1160.08 939.204 1163.64 Q941.033 1167.19 944.644 1167.19 Q948.278 1167.19 950.084 1163.64 Q951.913 1160.08 951.913 1152.97 Q951.913 1145.84 950.084 1142.3 Q948.278 1138.74 944.644 1138.74 M944.644 1135.03 Q950.454 1135.03 953.51 1139.64 Q956.588 1144.22 956.588 1152.97 Q956.588 1161.7 953.51 1166.31 Q950.454 1170.89 944.644 1170.89 Q938.834 1170.89 935.755 1166.31 Q932.7 1161.7 932.7 1152.97 Q932.7 1144.22 935.755 1139.64 Q938.834 1135.03 944.644 1135.03 Z" fill="#000000" fill-rule="nonzero" fill-opacity="1" /><path clip-path="url(#clip090)" d="M1186.11 1166.28 L1193.75 1166.28 L1193.75 1139.92 L1185.44 1141.58 L1185.44 1137.33 L1193.7 1135.66 L1198.38 1135.66 L1198.38 1166.28 L1206.01 1166.28 L1206.01 1170.22 L1186.11 1170.22 L1186.11 1166.28 Z" fill="#000000" fill-rule="nonzero" fill-opacity="1" /><path clip-path="url(#clip090)" d="M1215.51 1135.66 L1233.86 1135.66 L1233.86 1139.59 L1219.79 1139.59 L1219.79 1148.07 Q1220.81 1147.72 1221.82 1147.56 Q1222.84 1147.37 1223.86 1147.37 Q1229.65 1147.37 1233.03 1150.54 Q1236.41 1153.71 1236.41 1159.13 Q1236.41 1164.71 1232.94 1167.81 Q1229.46 1170.89 1223.14 1170.89 Q1220.97 1170.89 1218.7 1170.52 Q1216.45 1170.15 1214.05 1169.41 L1214.05 1164.71 Q1216.13 1165.84 1218.35 1166.4 Q1220.57 1166.95 1223.05 1166.95 Q1227.06 1166.95 1229.39 1164.85 Q1231.73 1162.74 1231.73 1159.13 Q1231.73 1155.52 1229.39 1153.41 Q1227.06 1151.31 1223.05 1151.31 Q1221.18 1151.31 1219.3 1151.72 Q1217.45 1152.14 1215.51 1153.02 L1215.51 1135.66 Z" fill="#000000" fill-rule="nonzero" fill-opacity="1" /><path clip-path="url(#clip090)" d="M1255.62 1138.74 Q1252.01 1138.74 1250.18 1142.3 Q1248.38 1145.84 1248.38 1152.97 Q1248.38 1160.08 1250.18 1163.64 Q1252.01 1167.19 1255.62 1167.19 Q1259.26 1167.19 1261.06 1163.64 Q1262.89 1160.08 1262.89 1152.97 Q1262.89 1145.84 1261.06 1142.3 Q1259.26 1138.74 1255.62 1138.74 M1255.62 1135.03 Q1261.43 1135.03 1264.49 1139.64 Q1267.57 1144.22 1267.57 1152.97 Q1267.57 1161.7 1264.49 1166.31 Q1261.43 1170.89 1255.62 1170.89 Q1249.81 1170.89 1246.73 1166.31 Q1243.68 1161.7 1243.68 1152.97 Q1243.68 1144.22 1246.73 1139.64 Q1249.81 1135.03 1255.62 1135.03 Z" fill="#000000" fill-rule="nonzero" fill-opacity="1" /><path clip-path="url(#clip090)" d="M1501.17 1166.28 L1517.49 1166.28 L1517.49 1170.22 L1495.54 1170.22 L1495.54 1166.28 Q1498.21 1163.53 1502.79 1158.9 Q1507.4 1154.25 1508.58 1152.9 Q1510.82 1150.38 1511.7 1148.64 Q1512.6 1146.89 1512.6 1145.2 Q1512.6 1142.44 1510.66 1140.7 Q1508.74 1138.97 1505.64 1138.97 Q1503.44 1138.97 1500.98 1139.73 Q1498.55 1140.5 1495.78 1142.05 L1495.78 1137.33 Q1498.6 1136.19 1501.05 1135.61 Q1503.51 1135.03 1505.54 1135.03 Q1510.92 1135.03 1514.11 1137.72 Q1517.3 1140.4 1517.3 1144.89 Q1517.3 1147.02 1516.49 1148.95 Q1515.71 1150.84 1513.6 1153.44 Q1513.02 1154.11 1509.92 1157.33 Q1506.82 1160.52 1501.17 1166.28 Z" fill="#000000" fill-rule="nonzero" fill-opacity="1" /><path clip-path="url(#clip090)" d="M1537.3 1138.74 Q1533.69 1138.74 1531.86 1142.3 Q1530.06 1145.84 1530.06 1152.97 Q1530.06 1160.08 1531.86 1163.64 Q1533.69 1167.19 1537.3 1167.19 Q1540.94 1167.19 1542.74 1163.64 Q1544.57 1160.08 1544.57 1152.97 Q1544.57 1145.84 1542.74 1142.3 Q1540.94 1138.74 1537.3 1138.74 M1537.3 1135.03 Q1543.11 1135.03 1546.17 1139.64 Q1549.25 1144.22 1549.25 1152.97 Q1549.25 1161.7 1546.17 1166.31 Q1543.11 1170.89 1537.3 1170.89 Q1531.49 1170.89 1528.42 1166.31 Q1525.36 1161.7 1525.36 1152.97 Q1525.36 1144.22 1528.42 1139.64 Q1531.49 1135.03 1537.3 1135.03 Z" fill="#000000" fill-rule="nonzero" fill-opacity="1" /><path clip-path="url(#clip090)" d="M1567.47 1138.74 Q1563.85 1138.74 1562.03 1142.3 Q1560.22 1145.84 1560.22 1152.97 Q1560.22 1160.08 1562.03 1163.64 Q1563.85 1167.19 1567.47 1167.19 Q1571.1 1167.19 1572.91 1163.64 Q1574.73 1160.08 1574.73 1152.97 Q1574.73 1145.84 1572.91 1142.3 Q1571.1 1138.74 1567.47 1138.74 M1567.47 1135.03 Q1573.28 1135.03 1576.33 1139.64 Q1579.41 1144.22 1579.41 1152.97 Q1579.41 1161.7 1576.33 1166.31 Q1573.28 1170.89 1567.47 1170.89 Q1561.66 1170.89 1558.58 1166.31 Q1555.52 1161.7 1555.52 1152.97 Q1555.52 1144.22 1558.58 1139.64 Q1561.66 1135.03 1567.47 1135.03 Z" fill="#000000" fill-rule="nonzero" fill-opacity="1" /><path clip-path="url(#clip090)" d="M1812.15 1166.28 L1828.47 1166.28 L1828.47 1170.22 L1806.52 1170.22 L1806.52 1166.28 Q1809.18 1163.53 1813.77 1158.9 Q1818.37 1154.25 1819.55 1152.9 Q1821.8 1150.38 1822.68 1148.64 Q1823.58 1146.89 1823.58 1145.2 Q1823.58 1142.44 1821.64 1140.7 Q1819.72 1138.97 1816.61 1138.97 Q1814.42 1138.97 1811.96 1139.73 Q1809.53 1140.5 1806.75 1142.05 L1806.75 1137.33 Q1809.58 1136.19 1812.03 1135.61 Q1814.48 1135.03 1816.52 1135.03 Q1821.89 1135.03 1825.09 1137.72 Q1828.28 1140.4 1828.28 1144.89 Q1828.28 1147.02 1827.47 1148.95 Q1826.68 1150.84 1824.58 1153.44 Q1824 1154.11 1820.9 1157.33 Q1817.79 1160.52 1812.15 1166.28 Z" fill="#000000" fill-rule="nonzero" fill-opacity="1" /><path clip-path="url(#clip090)" d="M1838.33 1135.66 L1856.68 1135.66 L1856.68 1139.59 L1842.61 1139.59 L1842.61 1148.07 Q1843.63 1147.72 1844.65 1147.56 Q1845.66 1147.37 1846.68 1147.37 Q1852.47 1147.37 1855.85 1150.54 Q1859.23 1153.71 1859.23 1159.13 Q1859.23 1164.71 1855.76 1167.81 Q1852.29 1170.89 1845.97 1170.89 Q1843.79 1170.89 1841.52 1170.52 Q1839.28 1170.15 1836.87 1169.41 L1836.87 1164.71 Q1838.95 1165.84 1841.17 1166.4 Q1843.4 1166.95 1845.87 1166.95 Q1849.88 1166.95 1852.22 1164.85 Q1854.55 1162.74 1854.55 1159.13 Q1854.55 1155.52 1852.22 1153.41 Q1849.88 1151.31 1845.87 1151.31 Q1844 1151.31 1842.12 1151.72 Q1840.27 1152.14 1838.33 1153.02 L1838.33 1135.66 Z" fill="#000000" fill-rule="nonzero" fill-opacity="1" /><path clip-path="url(#clip090)" d="M1878.44 1138.74 Q1874.83 1138.74 1873 1142.3 Q1871.2 1145.84 1871.2 1152.97 Q1871.2 1160.08 1873 1163.64 Q1874.83 1167.19 1878.44 1167.19 Q1882.08 1167.19 1883.88 1163.64 Q1885.71 1160.08 1885.71 1152.97 Q1885.71 1145.84 1883.88 1142.3 Q1882.08 1138.74 1878.44 1138.74 M1878.44 1135.03 Q1884.25 1135.03 1887.31 1139.64 Q1890.39 1144.22 1890.39 1152.97 Q1890.39 1161.7 1887.31 1166.31 Q1884.25 1170.89 1878.44 1170.89 Q1872.63 1170.89 1869.55 1166.31 Q1866.5 1161.7 1866.5 1152.97 Q1866.5 1144.22 1869.55 1139.64 Q1872.63 1135.03 1878.44 1135.03 Z" fill="#000000" fill-rule="nonzero" fill-opacity="1" /><g clip-path="url(#clip090)">
<text style="fill:#000000; fill-opacity:1; font-family:Arial,Helvetica Neue,Helvetica,sans-serif; font-size:66px; text-anchor:middle;" transform="rotate(0, 1099, 1252.42)" x="1099" y="1252.42">Krylov dimension</text>
</g>
<polyline clip-path="url(#clip090)" style="stroke:#000000; stroke-linecap:round; stroke-linejoin:round; stroke-width:4; stroke-opacity:1; fill:none" points="245.244,1111.02 245.244,107.256 "/>
<polyline clip-path="url(#clip090)" style="stroke:#000000; stroke-linecap:round; stroke-linejoin:round; stroke-width:4; stroke-opacity:1; fill:none" points="245.244,1080.58 264.142,1080.58 "/>
<polyline clip-path="url(#clip090)" style="stroke:#000000; stroke-linecap:round; stroke-linejoin:round; stroke-width:4; stroke-opacity:1; fill:none" points="245.244,572.723 264.142,572.723 "/>
<path clip-path="url(#clip090)" d="M113.675 1100.38 L121.314 1100.38 L121.314 1074.01 L113.004 1075.68 L113.004 1071.42 L121.268 1069.75 L125.944 1069.75 L125.944 1100.38 L133.583 1100.38 L133.583 1104.31 L113.675 1104.31 L113.675 1100.38 Z" fill="#000000" fill-rule="nonzero" fill-opacity="1" /><path clip-path="url(#clip090)" d="M153.027 1072.83 Q149.416 1072.83 147.587 1076.4 Q145.782 1079.94 145.782 1087.07 Q145.782 1094.17 147.587 1097.74 Q149.416 1101.28 153.027 1101.28 Q156.661 1101.28 158.467 1097.74 Q160.295 1094.17 160.295 1087.07 Q160.295 1079.94 158.467 1076.4 Q156.661 1072.83 153.027 1072.83 M153.027 1069.13 Q158.837 1069.13 161.893 1073.73 Q164.971 1078.32 164.971 1087.07 Q164.971 1095.79 161.893 1100.4 Q158.837 1104.98 153.027 1104.98 Q147.217 1104.98 144.138 1100.4 Q141.082 1095.79 141.082 1087.07 Q141.082 1078.32 144.138 1073.73 Q147.217 1069.13 153.027 1069.13 Z" fill="#000000" fill-rule="nonzero" fill-opacity="1" /><path clip-path="url(#clip090)" d="M164.971 1063.23 L189.083 1063.23 L189.083 1066.43 L164.971 1066.43 L164.971 1063.23 Z" fill="#000000" fill-rule="nonzero" fill-opacity="1" /><path clip-path="url(#clip090)" d="M205.878 1061.35 Q203.32 1061.35 201.816 1063.1 Q200.33 1064.85 200.33 1067.89 Q200.33 1070.92 201.816 1072.69 Q203.32 1074.44 205.878 1074.44 Q208.436 1074.44 209.922 1072.69 Q211.426 1070.92 211.426 1067.89 Q211.426 1064.85 209.922 1063.1 Q208.436 1061.35 205.878 1061.35 M213.42 1049.44 L213.42 1052.9 Q211.991 1052.23 210.524 1051.87 Q209.075 1051.51 207.646 1051.51 Q203.885 1051.51 201.891 1054.05 Q199.916 1056.59 199.634 1061.72 Q200.744 1060.09 202.417 1059.22 Q204.091 1058.34 206.104 1058.34 Q210.336 1058.34 212.781 1060.91 Q215.244 1063.47 215.244 1067.89 Q215.244 1072.22 212.687 1074.83 Q210.129 1077.45 205.878 1077.45 Q201.007 1077.45 198.43 1073.72 Q195.854 1069.98 195.854 1062.89 Q195.854 1056.23 199.013 1052.28 Q202.173 1048.31 207.496 1048.31 Q208.925 1048.31 210.373 1048.6 Q211.84 1048.88 213.42 1049.44 Z" fill="#000000" fill-rule="nonzero" fill-opacity="1" /><path clip-path="url(#clip090)" d="M114.333 592.516 L121.972 592.516 L121.972 566.15 L113.662 567.817 L113.662 563.557 L121.926 561.891 L126.602 561.891 L126.602 592.516 L134.241 592.516 L134.241 596.451 L114.333 596.451 L114.333 592.516 Z" fill="#000000" fill-rule="nonzero" fill-opacity="1" /><path clip-path="url(#clip090)" d="M153.685 564.97 Q150.074 564.97 148.245 568.534 Q146.44 572.076 146.44 579.206 Q146.44 586.312 148.245 589.877 Q150.074 593.418 153.685 593.418 Q157.319 593.418 159.125 589.877 Q160.954 586.312 160.954 579.206 Q160.954 572.076 159.125 568.534 Q157.319 564.97 153.685 564.97 M153.685 561.266 Q159.495 561.266 162.551 565.872 Q165.629 570.456 165.629 579.206 Q165.629 587.932 162.551 592.539 Q159.495 597.122 153.685 597.122 Q147.875 597.122 144.796 592.539 Q141.741 587.932 141.741 579.206 Q141.741 570.456 144.796 565.872 Q147.875 561.266 153.685 561.266 Z" fill="#000000" fill-rule="nonzero" fill-opacity="1" /><path clip-path="url(#clip090)" d="M165.629 555.367 L189.741 555.367 L189.741 558.565 L165.629 558.565 L165.629 555.367 Z" fill="#000000" fill-rule="nonzero" fill-opacity="1" /><path clip-path="url(#clip090)" d="M209.452 553.9 Q212.179 554.483 213.702 556.326 Q215.244 558.17 215.244 560.878 Q215.244 565.034 212.386 567.31 Q209.527 569.586 204.261 569.586 Q202.493 569.586 200.612 569.229 Q198.75 568.89 196.756 568.194 L196.756 564.527 Q198.336 565.448 200.217 565.918 Q202.098 566.389 204.148 566.389 Q207.721 566.389 209.583 564.978 Q211.464 563.567 211.464 560.878 Q211.464 558.395 209.715 557.003 Q207.985 555.593 204.881 555.593 L201.609 555.593 L201.609 552.471 L205.032 552.471 Q207.834 552.471 209.32 551.361 Q210.806 550.233 210.806 548.126 Q210.806 545.963 209.264 544.816 Q207.74 543.65 204.881 543.65 Q203.32 543.65 201.534 543.988 Q199.747 544.327 197.603 545.042 L197.603 541.656 Q199.766 541.054 201.646 540.754 Q203.546 540.453 205.22 540.453 Q209.546 540.453 212.066 542.427 Q214.586 544.383 214.586 547.731 Q214.586 550.063 213.251 551.681 Q211.915 553.28 209.452 553.9 Z" fill="#000000" fill-rule="nonzero" fill-opacity="1" /><g clip-path="url(#clip090)">
<text style="fill:#000000; fill-opacity:1; font-family:Arial,Helvetica Neue,Helvetica,sans-serif; font-size:66px; text-anchor:middle;" transform="rotate(-90, 71.4418, 609.137)" x="71.4418" y="609.137">relative residual norm</text>
</g>
<g clip-path="url(#clip090)">
<text style="fill:#000000; fill-opacity:1; font-family:Arial,Helvetica Neue,Helvetica,sans-serif; font-size:66px; text-anchor:middle;" transform="rotate(0, 1099, 57.6)" x="1099" y="57.6">Convergence of MINRES and CG</text>
</g>
<polyline clip-path="url(#clip092)" style="stroke:#009af9; stroke-linecap:round; stroke-linejoin:round; stroke-width:8; stroke-opacity:1; fill:none" points="293.57,140.665 299.79,189.85 306.009,225.052 312.229,252.929 318.448,275.648 324.668,294.634 330.887,311.392 337.107,326.727 343.326,339.94 349.546,351.982 355.766,362.616 361.985,372.644 368.205,381.855 374.424,390.234 380.644,398.761 386.863,406.714 393.083,413.422 399.302,420.156 405.522,426.959 411.741,433.106 417.961,439.084 424.18,444.751 430.4,450.028 436.62,455.431 442.839,460.699 449.059,465.588 455.278,470.365 461.498,475.389 467.717,480.096 473.937,484.494 480.156,488.864 486.376,492.929 492.595,497.049 498.815,501.187 505.034,505.078 511.254,509.068 517.474,512.904 523.693,516.669 529.913,520.241 536.132,523.753 542.352,527.226 548.571,530.776 554.791,534.118 561.01,537.513 567.23,540.735 573.449,544.077 579.669,547.366 585.888,550.48 592.108,553.698 598.327,556.954 604.547,560.015 610.767,563.19 616.986,566.299 623.206,569.363 629.425,572.474 635.645,575.464 641.864,578.371 648.084,581.347 654.303,584.333 660.523,587.273 666.742,590.29 672.962,593.305 679.181,596.13 685.401,599.132 691.621,602.12 697.84,605.03 704.06,608.077 710.279,611.135 716.499,614.009 722.718,617.047 728.938,619.94 735.157,622.945 741.377,625.895 747.596,628.788 753.816,631.622 760.035,634.519 766.255,637.431 772.474,640.353 778.694,643.284 784.914,646.105 791.133,649.043 797.353,651.868 803.572,654.6 809.792,657.554 816.011,660.246 822.231,662.926 828.45,665.723 834.67,668.595 840.889,671.54 847.109,674.465 853.328,677.308 859.548,680.071 865.768,682.945 871.987,685.721 878.207,688.55 884.426,691.489 890.646,694.293 896.865,697.053 903.085,699.823 909.304,702.842 915.524,705.806 921.743,708.787 927.963,711.581 934.182,714.447 940.402,717.337 946.622,720.248 952.841,723.035 959.061,725.947 965.28,728.79 971.5,731.832 977.719,734.738 983.939,737.877 990.158,740.765 996.378,743.884 1002.6,746.846 1008.82,749.841 1015.04,752.832 1021.26,755.75 1027.48,758.639 1033.7,761.73 1039.91,764.582 1046.13,767.539 1052.35,770.451 1058.57,773.364 1064.79,776.316 1071.01,779.223 1077.23,782.211 1083.45,784.969 1089.67,787.8 1095.89,790.676 1102.11,793.599 1108.33,796.466 1114.55,799.32 1120.77,802.271 1126.99,805.107 1133.21,807.953 1139.43,810.793 1145.65,813.848 1151.87,816.937 1158.09,819.723 1164.31,822.502 1170.52,825.586 1176.74,828.62 1182.96,831.566 1189.18,834.557 1195.4,837.497 1201.62,840.444 1207.84,843.428 1214.06,846.505 1220.28,849.315 1226.5,852.309 1232.72,855.154 1238.94,858.042 1245.16,861.106 1251.38,864.047 1257.6,866.883 1263.82,869.654 1270.04,872.559 1276.26,875.599 1282.48,878.514 1288.7,881.484 1294.92,884.479 1301.14,887.574 1307.35,890.652 1313.57,893.622 1319.79,896.709 1326.01,899.569 1332.23,902.516 1338.45,905.517 1344.67,908.38 1350.89,911.298 1357.11,914.24 1363.33,917.186 1369.55,920.271 1375.77,923.378 1381.99,926.342 1388.21,929.427 1394.43,932.48 1400.65,935.404 1406.87,938.292 1413.09,941.387 1419.31,944.382 1425.53,947.317 1431.75,950.336 1437.96,953.248 1444.18,956.11 1450.4,958.929 1456.62,961.928 1462.84,964.891 1469.06,967.766 1475.28,970.765 1481.5,973.631 1487.72,976.418 1493.94,979.498 1500.16,982.301 1506.38,985.221 1512.6,988.142 1518.82,991.05 1525.04,994.009 1531.26,996.803 1537.48,999.711 1543.7,1002.84 1549.92,1005.83 1556.14,1008.85 1562.36,1012.07 1568.58,1014.95 1574.79,1017.85 1581.01,1020.75 1587.23,1023.78 1593.45,1026.72 1599.67,1029.55 1605.89,1032.54 1612.11,1035.6 1618.33,1038.67 1624.55,1041.78 1630.77,1044.69 1636.99,1047.66 1643.21,1050.71 1649.43,1053.59 1655.65,1056.34 1661.87,1059.27 1668.09,1062.19 1674.31,1065.09 1680.53,1068.08 1686.75,1071 1692.97,1073.92 1699.19,1076.73 1705.4,1079.67 1711.62,1082.61 "/>
<polyline clip-path="url(#clip092)" style="stroke:#e26f46; stroke-linecap:round; stroke-linejoin:round; stroke-width:8; stroke-opacity:1; fill:none" points="293.57,135.664 299.79,178.664 306.009,207.253 312.229,229.699 318.448,247.181 324.668,261.261 330.887,274.452 337.107,287.189 343.326,295.918 349.546,305.098 355.766,311.831 361.985,319.992 368.205,326.471 374.424,331.768 380.644,340.865 386.863,346.533 393.083,347.584 399.302,354.453 405.522,361.595 411.741,364.33 417.961,369.368 424.18,373.222 430.4,376.067 436.62,382.274 442.839,386.681 449.059,389.007 455.278,392.987 461.498,399.749 467.717,402.208 473.937,404.268 480.156,408.414 486.376,409.968 492.595,414.555 498.815,418.847 505.034,420.597 511.254,425.456 517.474,427.925 523.693,431.045 529.913,432.772 536.132,435.685 542.352,438.771 548.571,443.085 554.791,444.317 561.01,448.261 567.23,449.644 573.449,454.274 579.669,457.009 585.888,458.183 592.108,462.564 598.327,466.239 604.547,467.121 610.767,471.585 616.986,473.953 623.206,476.504 629.425,480.145 635.645,481.752 641.864,483.649 648.084,487.463 654.303,490.563 660.523,492.956 666.742,496.882 672.962,499.88 679.181,500.411 685.401,505.543 691.621,508.372 697.84,510.351 704.06,515.032 710.279,518.205 716.499,518.893 722.718,523.887 728.938,525.044 735.157,529.399 741.377,531.699 747.596,533.907 753.816,536.012 760.035,539.671 766.255,542.783 772.474,545.812 778.694,548.864 784.914,550.323 791.133,554.705 797.353,556.141 803.572,557.686 809.792,563.41 816.011,562.815 822.231,565.335 828.45,569.646 834.67,573.447 840.889,577.288 847.109,579.958 853.328,581.816 859.548,583.549 865.768,587.833 871.987,589.368 878.207,592.877 884.426,597.167 890.646,598.296 896.865,600.504 903.085,603.397 909.304,609.46 915.524,611.773 921.743,614.962 927.963,615.468 934.182,619.225 940.402,622.419 946.622,625.574 952.841,626.839 959.061,631.294 965.28,633.285 971.5,638.717 977.719,640.01 983.939,645.871 990.158,645.82 996.378,651.654 1002.6,652.793 1008.82,656.177 1015.04,659.124 1021.26,661.165 1027.48,663.704 1033.7,669.178 1039.91,669.197 1046.13,673.423 1052.35,675.794 1058.57,678.719 1064.79,682.148 1071.01,684.507 1077.23,688.47 1083.45,688.39 1089.67,692.143 1095.89,695.582 1102.11,699.086 1108.33,701.25 1114.55,703.957 1120.77,708.086 1126.99,709.524 1133.21,712.487 1139.43,715.253 1145.65,720.878 1151.87,724.363 1158.09,723.511 1164.31,726.187 1170.52,732.968 1176.74,735.414 1182.96,737.314 1189.18,740.847 1195.4,743.179 1201.62,746.22 1207.84,749.631 1214.06,753.791 1220.28,753.407 1226.5,758.63 1232.72,759.675 1238.94,763.094 1245.16,768.25 1251.38,769.737 1257.6,771.305 1263.82,773.238 1270.04,777.819 1276.26,782.466 1282.48,783.895 1288.7,787.527 1294.92,790.808 1301.14,795.074 1307.35,797.954 1313.57,799.663 1319.79,804.117 1326.01,804.275 1332.23,808.285 1338.45,811.927 1344.67,813.118 1350.89,816.719 1357.11,819.944 1363.33,822.948 1369.55,827.65 1375.77,831.01 1381.99,832.314 1388.21,836.802 1394.43,839.493 1400.65,840.9 1406.87,843.347 1413.09,848.878 1419.31,850.726 1425.53,852.937 1431.75,856.954 1437.96,858.593 1444.18,860.844 1450.4,863.126 1456.62,868.316 1462.84,870.843 1469.06,872.66 1475.28,877.154 1481.5,878.411 1487.72,880.218 1493.94,886.818 1500.16,886.299 1506.38,890.66 1512.6,893.605 1518.82,896.345 1525.04,899.911 1531.26,900.684 1537.48,905.013 1543.7,910.684 1549.92,912.116 1556.14,915.547 1562.36,920.925 1568.58,919.839 1574.79,923.145 1581.01,925.936 1587.23,930.469 1593.45,932.481 1599.67,933.851 1605.89,938.734 1612.11,942.683 1618.33,945.785 1624.55,949.307 1630.77,949.487 1636.99,953.009 1643.21,956.326 1649.43,956.986 1655.65,959.706 1661.87,964.603 1668.09,967.082 1674.31,969.413 1680.53,974.196 1686.75,976.283 1692.97,979.487 1699.19,981.394 1705.4,986.255 1711.62,988.991 1717.84,990.753 1724.06,994.385 1730.28,998.932 1736.5,1000.67 1742.72,1004.4 1748.94,1008.06 1755.16,1008.68 1761.38,1010.9 1767.6,1014.11 1773.82,1015.79 1780.04,1020.71 1786.26,1023.82 1792.48,1027.22 1798.7,1030.64 1804.92,1032.7 1811.14,1036.98 1817.36,1038.97 1823.58,1042.97 1829.8,1045.68 1836.02,1047.94 1842.23,1049.31 1848.45,1051.77 1854.67,1057.57 1860.89,1060.27 1867.11,1062.49 1873.33,1065.31 1879.55,1068.77 1885.77,1072.75 1891.99,1073.76 1898.21,1077.33 1904.43,1080.95 "/>
<path clip-path="url(#clip090)" d="M1570 296.235 L1895.84 296.235 L1895.84 140.715 L1570 140.715  Z" fill="#ffffff" fill-rule="evenodd" fill-opacity="1"/>
<polyline clip-path="url(#clip090)" style="stroke:#000000; stroke-linecap:round; stroke-linejoin:round; stroke-width:4; stroke-opacity:1; fill:none" points="1570,296.235 1895.84,296.235 1895.84,140.715 1570,140.715 1570,296.235 "/>
<polyline clip-path="url(#clip090)" style="stroke:#009af9; stroke-linecap:round; stroke-linejoin:round; stroke-width:8; stroke-opacity:1; fill:none" points="1588.97,192.555 1702.8,192.555 "/>
<path clip-path="url(#clip090)" d="M1742.12 188.886 Q1743.72 186.015 1745.94 184.65 Q1748.16 183.284 1751.17 183.284 Q1755.22 183.284 1757.42 186.131 Q1759.62 188.955 1759.62 194.187 L1759.62 209.835 L1755.34 209.835 L1755.34 194.325 Q1755.34 190.599 1754.02 188.793 Q1752.7 186.988 1749.99 186.988 Q1746.68 186.988 1744.76 189.187 Q1742.84 191.386 1742.84 195.182 L1742.84 209.835 L1738.56 209.835 L1738.56 194.325 Q1738.56 190.575 1737.24 188.793 Q1735.92 186.988 1733.16 186.988 Q1729.9 186.988 1727.98 189.21 Q1726.06 191.409 1726.06 195.182 L1726.06 209.835 L1721.77 209.835 L1721.77 183.909 L1726.06 183.909 L1726.06 187.937 Q1727.52 185.552 1729.55 184.418 Q1731.59 183.284 1734.39 183.284 Q1737.21 183.284 1739.18 184.719 Q1741.17 186.154 1742.12 188.886 Z" fill="#000000" fill-rule="nonzero" fill-opacity="1" /><path clip-path="url(#clip090)" d="M1768.12 183.909 L1772.38 183.909 L1772.38 209.835 L1768.12 209.835 L1768.12 183.909 M1768.12 173.816 L1772.38 173.816 L1772.38 179.21 L1768.12 179.21 L1768.12 173.816 Z" fill="#000000" fill-rule="nonzero" fill-opacity="1" /><path clip-path="url(#clip090)" d="M1802.84 194.187 L1802.84 209.835 L1798.58 209.835 L1798.58 194.325 Q1798.58 190.645 1797.14 188.816 Q1795.71 186.988 1792.84 186.988 Q1789.39 186.988 1787.4 189.187 Q1785.41 191.386 1785.41 195.182 L1785.41 209.835 L1781.13 209.835 L1781.13 183.909 L1785.41 183.909 L1785.41 187.937 Q1786.94 185.599 1789 184.441 Q1791.08 183.284 1793.79 183.284 Q1798.26 183.284 1800.55 186.062 Q1802.84 188.816 1802.84 194.187 Z" fill="#000000" fill-rule="nonzero" fill-opacity="1" /><path clip-path="url(#clip090)" d="M1826.36 187.89 Q1825.64 187.474 1824.78 187.288 Q1823.95 187.08 1822.93 187.08 Q1819.32 187.08 1817.38 189.441 Q1815.45 191.779 1815.45 196.177 L1815.45 209.835 L1811.17 209.835 L1811.17 183.909 L1815.45 183.909 L1815.45 187.937 Q1816.8 185.576 1818.95 184.441 Q1821.1 183.284 1824.18 183.284 Q1824.62 183.284 1825.15 183.353 Q1825.69 183.4 1826.33 183.515 L1826.36 187.89 Z" fill="#000000" fill-rule="nonzero" fill-opacity="1" /><path clip-path="url(#clip090)" d="M1851.96 195.807 L1851.96 197.89 L1832.38 197.89 Q1832.65 202.288 1835.01 204.603 Q1837.4 206.895 1841.64 206.895 Q1844.09 206.895 1846.38 206.293 Q1848.7 205.691 1850.96 204.487 L1850.96 208.515 Q1848.67 209.487 1846.26 209.997 Q1843.86 210.506 1841.38 210.506 Q1835.18 210.506 1831.54 206.895 Q1827.93 203.284 1827.93 197.126 Q1827.93 190.761 1831.36 187.034 Q1834.81 183.284 1840.64 183.284 Q1845.87 183.284 1848.9 186.663 Q1851.96 190.02 1851.96 195.807 M1847.7 194.557 Q1847.65 191.062 1845.73 188.978 Q1843.83 186.895 1840.69 186.895 Q1837.12 186.895 1834.97 188.909 Q1832.84 190.923 1832.51 194.58 L1847.7 194.557 Z" fill="#000000" fill-rule="nonzero" fill-opacity="1" /><path clip-path="url(#clip090)" d="M1875.48 184.673 L1875.48 188.7 Q1873.67 187.775 1871.73 187.312 Q1869.78 186.849 1867.7 186.849 Q1864.53 186.849 1862.93 187.821 Q1861.36 188.793 1861.36 190.738 Q1861.36 192.219 1862.49 193.075 Q1863.63 193.909 1867.05 194.673 L1868.51 194.997 Q1873.05 195.969 1874.95 197.751 Q1876.87 199.511 1876.87 202.682 Q1876.87 206.293 1874 208.399 Q1871.15 210.506 1866.15 210.506 Q1864.07 210.506 1861.8 210.089 Q1859.55 209.696 1857.05 208.886 L1857.05 204.487 Q1859.41 205.714 1861.7 206.339 Q1864 206.941 1866.24 206.941 Q1869.25 206.941 1870.87 205.923 Q1872.49 204.881 1872.49 203.006 Q1872.49 201.27 1871.31 200.344 Q1870.15 199.418 1866.2 198.562 L1864.71 198.214 Q1860.76 197.381 1859 195.668 Q1857.24 193.932 1857.24 190.923 Q1857.24 187.265 1859.83 185.275 Q1862.42 183.284 1867.19 183.284 Q1869.55 183.284 1871.64 183.631 Q1873.72 183.978 1875.48 184.673 Z" fill="#000000" fill-rule="nonzero" fill-opacity="1" /><polyline clip-path="url(#clip090)" style="stroke:#e26f46; stroke-linecap:round; stroke-linejoin:round; stroke-width:8; stroke-opacity:1; fill:none" points="1588.97,244.395 1702.8,244.395 "/>
<path clip-path="url(#clip090)" d="M1742.28 236.744 L1742.28 240.726 Q1740.48 239.73 1738.65 239.244 Q1736.84 238.735 1734.99 238.735 Q1730.85 238.735 1728.56 241.374 Q1726.27 243.99 1726.27 248.735 Q1726.27 253.48 1728.56 256.119 Q1730.85 258.735 1734.99 258.735 Q1736.84 258.735 1738.65 258.249 Q1740.48 257.739 1742.28 256.744 L1742.28 260.679 Q1740.5 261.513 1738.58 261.929 Q1736.68 262.346 1734.53 262.346 Q1728.67 262.346 1725.22 258.665 Q1721.77 254.985 1721.77 248.735 Q1721.77 242.392 1725.25 238.758 Q1728.74 235.124 1734.81 235.124 Q1736.77 235.124 1738.65 235.541 Q1740.52 235.934 1742.28 236.744 Z" fill="#000000" fill-rule="nonzero" fill-opacity="1" /><path clip-path="url(#clip090)" d="M1766.75 248.411 Q1766.75 243.781 1764.83 241.235 Q1762.93 238.689 1759.48 238.689 Q1756.06 238.689 1754.14 241.235 Q1752.24 243.781 1752.24 248.411 Q1752.24 253.017 1754.14 255.564 Q1756.06 258.11 1759.48 258.11 Q1762.93 258.11 1764.83 255.564 Q1766.75 253.017 1766.75 248.411 M1771.01 258.457 Q1771.01 265.077 1768.07 268.295 Q1765.13 271.536 1759.07 271.536 Q1756.82 271.536 1754.83 271.188 Q1752.84 270.864 1750.96 270.17 L1750.96 266.026 Q1752.84 267.045 1754.67 267.531 Q1756.5 268.017 1758.39 268.017 Q1762.58 268.017 1764.67 265.818 Q1766.75 263.642 1766.75 259.221 L1766.75 257.114 Q1765.43 259.406 1763.37 260.54 Q1761.31 261.675 1758.44 261.675 Q1753.67 261.675 1750.76 258.04 Q1747.84 254.406 1747.84 248.411 Q1747.84 242.392 1750.76 238.758 Q1753.67 235.124 1758.44 235.124 Q1761.31 235.124 1763.37 236.258 Q1765.43 237.392 1766.75 239.684 L1766.75 235.749 L1771.01 235.749 L1771.01 258.457 Z" fill="#000000" fill-rule="nonzero" fill-opacity="1" /></svg>
