<?xml version="1.0" encoding="utf-8"?>
<svg xmlns="http://www.w3.org/2000/svg" xmlns:xlink="http://www.w3.org/1999/xlink" width="500" height="320" viewBox="0 0 2000 1280">
<defs>
  <clipPath id="clip650">
    <rect x="0" y="0" width="2000" height="1280"/>
  </clipPath>
</defs>
<path clip-path="url(#clip650)" d="M0 1280 L2000 1280 L2000 0 L0 0  Z" fill="#ffffff" fill-rule="evenodd" fill-opacity="1"/>
<defs>
  <clipPath id="clip651">
    <rect x="400" y="0" width="1401" height="1280"/>
  </clipPath>
</defs>
<path clip-path="url(#clip650)" d="M244.586 1111.02 L1952.76 1111.02 L1952.76 107.256 L244.586 107.256  Z" fill="#ffffff" fill-rule="evenodd" fill-opacity="1"/>
<defs>
  <clipPath id="clip652">
    <rect x="244" y="107" width="1709" height="1005"/>
  </clipPath>
</defs>
<polyline clip-path="url(#clip652)" style="stroke:#000000; stroke-linecap:round; stroke-linejoin:round; stroke-width:2; stroke-opacity:0.1; fill:none" points="292.931,1111.02 292.931,107.256 "/>
<polyline clip-path="url(#clip652)" style="stroke:#000000; stroke-linecap:round; stroke-linejoin:round; stroke-width:2; stroke-opacity:0.1; fill:none" points="695.801,1111.02 695.801,107.256 "/>
<polyline clip-path="url(#clip652)" style="stroke:#000000; stroke-linecap:round; stroke-linejoin:round; stroke-width:2; stroke-opacity:0.1; fill:none" points="1098.67,1111.02 1098.67,107.256 "/>
<polyline clip-path="url(#clip652)" style="stroke:#000000; stroke-linecap:round; stroke-linejoin:round; stroke-width:2; stroke-opacity:0.1; fill:none" points="1501.54,1111.02 1501.54,107.256 "/>
<polyline clip-path="url(#clip652)" style="stroke:#000000; stroke-linecap:round; stroke-linejoin:round; stroke-width:2; stroke-opacity:0.1; fill:none" points="1904.41,1111.02 1904.41,107.256 "/>
<polyline clip-path="url(#clip652)" style="stroke:#000000; stroke-linecap:round; stroke-linejoin:round; stroke-width:2; stroke-opacity:0.1; fill:none" points="244.586,671.019 1952.76,671.019 "/>
<polyline clip-path="url(#clip652)" style="stroke:#000000; stroke-linecap:round; stroke-linejoin:round; stroke-width:2; stroke-opacity:0.1; fill:none" points="244.586,135.664 1952.76,135.664 "/>
<polyline clip-path="url(#clip650)" style="stroke:#000000; stroke-linecap:round; stroke-linejoin:round; stroke-width:4; stroke-opacity:1; fill:none" points="244.586,1111.02 1952.76,1111.02 "/>
<polyline clip-path="url(#clip650)" style="stroke:#000000; stroke-linecap:round; stroke-linejoin:round; stroke-width:4; stroke-opacity:1; fill:none" points="292.931,1111.02 292.931,1092.12 "/>
<polyline clip-path="url(#clip650)" style="stroke:#000000; stroke-linecap:round; stroke-linejoin:round; stroke-width:4; stroke-opacity:1; fill:none" points="695.801,1111.02 695.801,1092.12 "/>
<polyline clip-path="url(#clip650)" style="stroke:#000000; stroke-linecap:round; stroke-linejoin:round; stroke-width:4; stroke-opacity:1; fill:none" points="1098.67,1111.02 1098.67,1092.12 "/>
<polyline clip-path="url(#clip650)" style="stroke:#000000; stroke-linecap:round; stroke-linejoin:round; stroke-width:4; stroke-opacity:1; fill:none" points="1501.54,1111.02 1501.54,1092.12 "/>
<polyline clip-path="url(#clip650)" style="stroke:#000000; stroke-linecap:round; stroke-linejoin:round; stroke-width:4; stroke-opacity:1; fill:none" points="1904.41,1111.02 1904.41,1092.12 "/>
<path clip-path="url(#clip650)" d="M292.931 1138.74 Q289.319 1138.74 287.491 1142.3 Q285.685 1145.84 285.685 1152.97 Q285.685 1160.08 287.491 1163.64 Q289.319 1167.19 292.931 1167.19 Q296.565 1167.19 298.37 1163.64 Q300.199 1160.08 300.199 1152.97 Q300.199 1145.84 298.37 1142.3 Q296.565 1138.74 292.931 1138.74 M292.931 1135.03 Q298.741 1135.03 301.796 1139.64 Q304.875 1144.22 304.875 1152.97 Q304.875 1161.7 301.796 1166.31 Q298.741 1170.89 292.931 1170.89 Q287.12 1170.89 284.042 1166.31 Q280.986 1161.7 280.986 1152.97 Q280.986 1144.22 284.042 1139.64 Q287.12 1135.03 292.931 1135.03 Z" fill="#000000" fill-rule="nonzero" fill-opacity="1" /><path clip-path="url(#clip650)" d="M670.488 1166.28 L678.127 1166.28 L678.127 1139.92 L669.817 1141.58 L669.817 1137.33 L678.081 1135.66 L682.757 1135.66 L682.757 1166.28 L690.396 1166.28 L690.396 1170.22 L670.488 1170.22 L670.488 1166.28 Z" fill="#000000" fill-rule="nonzero" fill-opacity="1" /><path clip-path="url(#clip650)" d="M709.84 1138.74 Q706.229 1138.74 704.4 1142.3 Q702.595 1145.84 702.595 1152.97 Q702.595 1160.08 704.4 1163.64 Q706.229 1167.19 709.84 1167.19 Q713.474 1167.19 715.28 1163.64 Q717.109 1160.08 717.109 1152.97 Q717.109 1145.84 715.28 1142.3 Q713.474 1138.74 709.84 1138.74 M709.84 1135.03 Q715.65 1135.03 718.706 1139.64 Q721.784 1144.22 721.784 1152.97 Q721.784 1161.7 718.706 1166.31 Q715.65 1170.89 709.84 1170.89 Q704.03 1170.89 700.951 1166.31 Q697.896 1161.7 697.896 1152.97 Q697.896 1144.22 700.951 1139.64 Q704.03 1135.03 709.84 1135.03 Z" fill="#000000" fill-rule="nonzero" fill-opacity="1" /><path clip-path="url(#clip650)" d="M1077.44 1166.28 L1093.76 1166.28 L1093.76 1170.22 L1071.82 1170.22 L1071.82 1166.28 Q1074.48 1163.53 1079.06 1158.9 Q1083.67 1154.25 1084.85 1152.9 Q1087.1 1150.38 1087.98 1148.64 Q1088.88 1146.89 1088.88 1145.2 Q1088.88 1142.44 1086.93 1140.7 Q1085.01 1138.97 1081.91 1138.97 Q1079.71 1138.97 1077.26 1139.73 Q1074.83 1140.5 1072.05 1142.05 L1072.05 1137.33 Q1074.87 1136.19 1077.33 1135.61 Q1079.78 1135.03 1081.82 1135.03 Q1087.19 1135.03 1090.38 1137.72 Q1093.58 1140.4 1093.58 1144.89 Q1093.58 1147.02 1092.77 1148.95 Q1091.98 1150.84 1089.87 1153.44 Q1089.3 1154.11 1086.19 1157.33 Q1083.09 1160.52 1077.44 1166.28 Z" fill="#000000" fill-rule="nonzero" fill-opacity="1" /><path clip-path="url(#clip650)" d="M1113.58 1138.74 Q1109.97 1138.74 1108.14 1142.3 Q1106.33 1145.84 1106.33 1152.97 Q1106.33 1160.08 1108.14 1163.64 Q1109.97 1167.19 1113.58 1167.19 Q1117.21 1167.19 1119.02 1163.64 Q1120.85 1160.08 1120.85 1152.97 Q1120.85 1145.84 1119.02 1142.3 Q1117.21 1138.74 1113.58 1138.74 M1113.58 1135.03 Q1119.39 1135.03 1122.44 1139.64 Q1125.52 1144.22 1125.52 1152.97 Q1125.52 1161.7 1122.44 1166.31 Q1119.39 1170.89 1113.58 1170.89 Q1107.77 1170.89 1104.69 1166.31 Q1101.63 1161.7 1101.63 1152.97 Q1101.63 1144.22 1104.69 1139.64 Q1107.77 1135.03 1113.58 1135.03 Z" fill="#000000" fill-rule="nonzero" fill-opacity="1" /><path clip-path="url(#clip650)" d="M1490.38 1151.58 Q1493.74 1152.3 1495.62 1154.57 Q1497.51 1156.84 1497.51 1160.17 Q1497.51 1165.29 1493.99 1168.09 Q1490.48 1170.89 1484 1170.89 Q1481.82 1170.89 1479.5 1170.45 Q1477.21 1170.03 1474.76 1169.18 L1474.76 1164.66 Q1476.7 1165.8 1479.02 1166.38 Q1481.33 1166.95 1483.86 1166.95 Q1488.25 1166.95 1490.55 1165.22 Q1492.86 1163.48 1492.86 1160.17 Q1492.86 1157.12 1490.71 1155.4 Q1488.58 1153.67 1484.76 1153.67 L1480.73 1153.67 L1480.73 1149.83 L1484.94 1149.83 Q1488.39 1149.83 1490.22 1148.46 Q1492.05 1147.07 1492.05 1144.48 Q1492.05 1141.82 1490.15 1140.4 Q1488.28 1138.97 1484.76 1138.97 Q1482.84 1138.97 1480.64 1139.39 Q1478.44 1139.8 1475.8 1140.68 L1475.8 1136.51 Q1478.46 1135.77 1480.78 1135.4 Q1483.12 1135.03 1485.18 1135.03 Q1490.5 1135.03 1493.6 1137.46 Q1496.7 1139.87 1496.7 1143.99 Q1496.7 1146.86 1495.06 1148.85 Q1493.42 1150.82 1490.38 1151.58 Z" fill="#000000" fill-rule="nonzero" fill-opacity="1" /><path clip-path="url(#clip650)" d="M1516.38 1138.74 Q1512.77 1138.74 1510.94 1142.3 Q1509.13 1145.84 1509.13 1152.97 Q1509.13 1160.08 1510.94 1163.64 Q1512.77 1167.19 1516.38 1167.19 Q1520.01 1167.19 1521.82 1163.64 Q1523.65 1160.08 1523.65 1152.97 Q1523.65 1145.84 1521.82 1142.3 Q1520.01 1138.74 1516.38 1138.74 M1516.38 1135.03 Q1522.19 1135.03 1525.24 1139.64 Q1528.32 1144.22 1528.32 1152.97 Q1528.32 1161.7 1525.24 1166.31 Q1522.19 1170.89 1516.38 1170.89 Q1510.57 1170.89 1507.49 1166.31 Q1504.43 1161.7 1504.43 1152.97 Q1504.43 1144.22 1507.49 1139.64 Q1510.57 1135.03 1516.38 1135.03 Z" fill="#000000" fill-rule="nonzero" fill-opacity="1" /><path clip-path="url(#clip650)" d="M1892.58 1139.73 L1880.78 1158.18 L1892.58 1158.18 L1892.58 1139.73 M1891.36 1135.66 L1897.24 1135.66 L1897.24 1158.18 L1902.17 1158.18 L1902.17 1162.07 L1897.24 1162.07 L1897.24 1170.22 L1892.58 1170.22 L1892.58 1162.07 L1876.98 1162.07 L1876.98 1157.56 L1891.36 1135.66 Z" fill="#000000" fill-rule="nonzero" fill-opacity="1" /><path clip-path="url(#clip650)" d="M1919.9 1138.74 Q1916.29 1138.74 1914.46 1142.3 Q1912.65 1145.84 1912.65 1152.97 Q1912.65 1160.08 1914.46 1163.64 Q1916.29 1167.19 1919.9 1167.19 Q1923.53 1167.19 1925.34 1163.64 Q1927.17 1160.08 1927.17 1152.97 Q1927.17 1145.84 1925.34 1142.3 Q1923.53 1138.74 1919.9 1138.74 M1919.9 1135.03 Q1925.71 1135.03 1928.76 1139.64 Q1931.84 1144.22 1931.84 1152.97 Q1931.84 1161.7 1928.76 1166.31 Q1925.71 1170.89 1919.9 1170.89 Q1914.09 1170.89 1911.01 1166.31 Q1907.95 1161.7 1907.95 1152.97 Q1907.95 1144.22 1911.01 1139.64 Q1914.09 1135.03 1919.9 1135.03 Z" fill="#000000" fill-rule="nonzero" fill-opacity="1" /><g clip-path="url(#clip650)">
<text style="fill:#000000; fill-opacity:1; font-family:Arial,Helvetica Neue,Helvetica,sans-serif; font-size:66px; text-anchor:middle;" transform="rotate(0, 1098.67, 1252.42)" x="1098.67" y="1252.42">iteration number</text>
</g>
<polyline clip-path="url(#clip650)" style="stroke:#000000; stroke-linecap:round; stroke-linejoin:round; stroke-width:4; stroke-opacity:1; fill:none" points="244.586,1111.02 244.586,107.256 "/>
<polyline clip-path="url(#clip650)" style="stroke:#000000; stroke-linecap:round; stroke-linejoin:round; stroke-width:4; stroke-opacity:1; fill:none" points="244.586,671.019 263.484,671.019 "/>
<polyline clip-path="url(#clip650)" style="stroke:#000000; stroke-linecap:round; stroke-linejoin:round; stroke-width:4; stroke-opacity:1; fill:none" points="244.586,135.664 263.484,135.664 "/>
<path clip-path="url(#clip650)" d="M113.675 690.811 L121.314 690.811 L121.314 664.446 L113.004 666.112 L113.004 661.853 L121.268 660.186 L125.944 660.186 L125.944 690.811 L133.583 690.811 L133.583 694.746 L113.675 694.746 L113.675 690.811 Z" fill="#000000" fill-rule="nonzero" fill-opacity="1" /><path clip-path="url(#clip650)" d="M153.027 663.265 Q149.416 663.265 147.587 666.83 Q145.782 670.372 145.782 677.501 Q145.782 684.608 147.587 688.172 Q149.416 691.714 153.027 691.714 Q156.661 691.714 158.467 688.172 Q160.295 684.608 160.295 677.501 Q160.295 670.372 158.467 666.83 Q156.661 663.265 153.027 663.265 M153.027 659.561 Q158.837 659.561 161.893 664.168 Q164.971 668.751 164.971 677.501 Q164.971 686.228 161.893 690.834 Q158.837 695.418 153.027 695.418 Q147.217 695.418 144.138 690.834 Q141.082 686.228 141.082 677.501 Q141.082 668.751 144.138 664.168 Q147.217 659.561 153.027 659.561 Z" fill="#000000" fill-rule="nonzero" fill-opacity="1" /><path clip-path="url(#clip650)" d="M164.971 653.663 L189.083 653.663 L189.083 656.86 L164.971 656.86 L164.971 653.663 Z" fill="#000000" fill-rule="nonzero" fill-opacity="1" /><path clip-path="url(#clip650)" d="M208.793 652.196 Q211.52 652.779 213.044 654.622 Q214.586 656.465 214.586 659.173 Q214.586 663.33 211.727 665.606 Q208.869 667.881 203.602 667.881 Q201.834 667.881 199.954 667.524 Q198.092 667.186 196.098 666.49 L196.098 662.822 Q197.678 663.744 199.559 664.214 Q201.439 664.684 203.49 664.684 Q207.063 664.684 208.925 663.274 Q210.806 661.863 210.806 659.173 Q210.806 656.691 209.057 655.299 Q207.326 653.889 204.223 653.889 L200.95 653.889 L200.95 650.766 L204.374 650.766 Q207.176 650.766 208.662 649.657 Q210.147 648.528 210.147 646.422 Q210.147 644.259 208.605 643.112 Q207.082 641.946 204.223 641.946 Q202.662 641.946 200.875 642.284 Q199.089 642.623 196.944 643.337 L196.944 639.952 Q199.107 639.35 200.988 639.049 Q202.888 638.748 204.562 638.748 Q208.887 638.748 211.408 640.723 Q213.928 642.679 213.928 646.027 Q213.928 648.359 212.592 649.976 Q211.257 651.575 208.793 652.196 Z" fill="#000000" fill-rule="nonzero" fill-opacity="1" /><path clip-path="url(#clip650)" d="M143.88 155.457 L151.519 155.457 L151.519 129.091 L143.209 130.758 L143.209 126.499 L151.473 124.832 L156.149 124.832 L156.149 155.457 L163.788 155.457 L163.788 159.392 L143.88 159.392 L143.88 155.457 Z" fill="#000000" fill-rule="nonzero" fill-opacity="1" /><path clip-path="url(#clip650)" d="M183.232 127.911 Q179.621 127.911 177.792 131.475 Q175.987 135.017 175.987 142.147 Q175.987 149.253 177.792 152.818 Q179.621 156.359 183.232 156.359 Q186.866 156.359 188.672 152.818 Q190.501 149.253 190.501 142.147 Q190.501 135.017 188.672 131.475 Q186.866 127.911 183.232 127.911 M183.232 124.207 Q189.042 124.207 192.098 128.813 Q195.177 133.397 195.177 142.147 Q195.177 150.873 192.098 155.48 Q189.042 160.063 183.232 160.063 Q177.422 160.063 174.343 155.48 Q171.288 150.873 171.288 142.147 Q171.288 133.397 174.343 128.813 Q177.422 124.207 183.232 124.207 Z" fill="#000000" fill-rule="nonzero" fill-opacity="1" /><path clip-path="url(#clip650)" d="M204.881 106.403 Q201.947 106.403 200.461 109.299 Q198.994 112.177 198.994 117.97 Q198.994 123.744 200.461 126.64 Q201.947 129.518 204.881 129.518 Q207.834 129.518 209.301 126.64 Q210.787 123.744 210.787 117.97 Q210.787 112.177 209.301 109.299 Q207.834 106.403 204.881 106.403 M204.881 103.394 Q209.602 103.394 212.085 107.136 Q214.586 110.86 214.586 117.97 Q214.586 125.06 212.085 128.803 Q209.602 132.527 204.881 132.527 Q200.161 132.527 197.659 128.803 Q195.177 125.06 195.177 117.97 Q195.177 110.86 197.659 107.136 Q200.161 103.394 204.881 103.394 Z" fill="#000000" fill-rule="nonzero" fill-opacity="1" /><g clip-path="url(#clip650)">
<text style="fill:#000000; fill-opacity:1; font-family:Arial,Helvetica Neue,Helvetica,sans-serif; font-size:66px; text-anchor:middle;" transform="rotate(-90, 71.4418, 609.137)" x="71.4418" y="609.137">residual norm</text>
</g>
<g clip-path="url(#clip650)">
<text style="fill:#000000; fill-opacity:1; font-family:Arial,Helvetica Neue,Helvetica,sans-serif; font-size:66px; text-anchor:middle;" transform="rotate(0, 1098.67, 57.6)" x="1098.67" y="57.6">Incomplete LU preconditioning</text>
</g>
<polyline clip-path="url(#clip652)" style="stroke:#009af9; stroke-linecap:round; stroke-linejoin:round; stroke-width:8; stroke-opacity:1; fill:none" points="292.931,135.664 333.218,137.21 373.505,137.687 413.792,137.873 454.079,137.955 494.366,137.995 534.653,138.015 574.94,138.027 615.227,138.035 655.514,138.041 695.801,138.047 736.088,138.052 776.375,138.056 816.662,138.06 856.949,138.064 897.236,138.068 937.523,138.072 977.81,138.076 1018.1,138.08 1058.38,138.084 1098.67,138.084 1138.96,138.084 1179.25,138.084 1219.53,138.084 1259.82,138.084 1300.11,138.084 1340.39,138.085 1380.68,138.085 1420.97,138.085 1461.25,138.085 1501.54,138.085 1541.83,138.085 1582.12,138.085 1622.4,138.086 1662.69,138.088 1702.98,138.09 1743.26,138.094 1783.55,138.1 1823.84,138.106 1864.12,138.112 1904.41,138.112 "/>
<polyline clip-path="url(#clip652)" style="stroke:#e26f46; stroke-linecap:round; stroke-linejoin:round; stroke-width:8; stroke-opacity:1; fill:none" points="292.931,135.664 333.218,151.682 373.505,180.163 413.792,229.707 454.079,253.493 494.366,294.953 534.653,344.242 574.94,401.107 615.227,468.213 655.514,524.346 695.801,577.387 736.088,627.275 776.375,691.073 816.662,756.891 856.949,812.729 897.236,884.134 937.523,984.28 977.81,1082.61 "/>
<polyline clip-path="url(#clip652)" style="stroke:#3da44d; stroke-linecap:round; stroke-linejoin:round; stroke-width:8; stroke-opacity:1; fill:none" points="292.931,135.664 333.218,201.263 373.505,261.309 413.792,305.467 454.079,367 494.366,451.205 534.653,534.682 574.94,613.643 615.227,677.621 655.514,763.924 695.801,861.598 736.088,950.708 776.375,1072.24 "/>
<polyline clip-path="url(#clip652)" style="stroke:#c271d2; stroke-linecap:round; stroke-linejoin:round; stroke-width:8; stroke-opacity:1; fill:none" points="292.931,135.664 333.218,247.554 373.505,391.729 413.792,545.487 454.079,650.053 494.366,804.539 534.653,992.392 "/>
<polyline clip-path="url(#clip652)" style="stroke:#ac8d18; stroke-linecap:round; stroke-linejoin:round; stroke-width:8; stroke-opacity:1; fill:none" points="292.931,135.664 333.218,278.803 373.505,504.666 413.792,677.591 454.079,883.154 "/>
<path clip-path="url(#clip650)" d="M1184.33 1077.56 L1895.82 1077.56 L1895.82 766.52 L1184.33 766.52  Z" fill="#ffffff" fill-rule="evenodd" fill-opacity="1"/>
<polyline clip-path="url(#clip650)" style="stroke:#000000; stroke-linecap:round; stroke-linejoin:round; stroke-width:4; stroke-opacity:1; fill:none" points="1184.33,1077.56 1895.82,1077.56 1895.82,766.52 1184.33,766.52 1184.33,1077.56 "/>
<polyline clip-path="url(#clip650)" style="stroke:#009af9; stroke-linecap:round; stroke-linejoin:round; stroke-width:8; stroke-opacity:1; fill:none" points="1203.31,818.36 1317.19,818.36 "/>
<path clip-path="url(#clip650)" d="M1357.88 819.992 L1357.88 835.64 L1353.62 835.64 L1353.62 820.131 Q1353.62 816.45 1352.19 814.621 Q1350.75 812.793 1347.88 812.793 Q1344.43 812.793 1342.44 814.992 Q1340.45 817.191 1340.45 820.987 L1340.45 835.64 L1336.17 835.64 L1336.17 809.714 L1340.45 809.714 L1340.45 813.742 Q1341.98 811.404 1344.04 810.246 Q1346.12 809.089 1348.83 809.089 Q1353.3 809.089 1355.59 811.867 Q1357.88 814.621 1357.88 819.992 Z" fill="#000000" fill-rule="nonzero" fill-opacity="1" /><path clip-path="url(#clip650)" d="M1376.42 812.7 Q1373 812.7 1371.01 815.385 Q1369.02 818.047 1369.02 822.7 Q1369.02 827.353 1370.98 830.038 Q1372.97 832.7 1376.42 832.7 Q1379.83 832.7 1381.82 830.015 Q1383.81 827.33 1383.81 822.7 Q1383.81 818.094 1381.82 815.408 Q1379.83 812.7 1376.42 812.7 M1376.42 809.089 Q1381.98 809.089 1385.15 812.7 Q1388.32 816.311 1388.32 822.7 Q1388.32 829.066 1385.15 832.7 Q1381.98 836.311 1376.42 836.311 Q1370.84 836.311 1367.67 832.7 Q1364.53 829.066 1364.53 822.7 Q1364.53 816.311 1367.67 812.7 Q1370.84 809.089 1376.42 809.089 Z" fill="#000000" fill-rule="nonzero" fill-opacity="1" /><path clip-path="url(#clip650)" d="M1414.57 831.751 L1414.57 845.501 L1410.29 845.501 L1410.29 809.714 L1414.57 809.714 L1414.57 813.649 Q1415.91 811.334 1417.95 810.223 Q1420.01 809.089 1422.86 809.089 Q1427.58 809.089 1430.52 812.839 Q1433.48 816.589 1433.48 822.7 Q1433.48 828.811 1430.52 832.561 Q1427.58 836.311 1422.86 836.311 Q1420.01 836.311 1417.95 835.2 Q1415.91 834.066 1414.57 831.751 M1429.06 822.7 Q1429.06 818.001 1427.12 815.339 Q1425.2 812.654 1421.82 812.654 Q1418.44 812.654 1416.49 815.339 Q1414.57 818.001 1414.57 822.7 Q1414.57 827.399 1416.49 830.084 Q1418.44 832.746 1421.82 832.746 Q1425.2 832.746 1427.12 830.084 Q1429.06 827.399 1429.06 822.7 Z" fill="#000000" fill-rule="nonzero" fill-opacity="1" /><path clip-path="url(#clip650)" d="M1455.57 813.695 Q1454.85 813.279 1453.99 813.094 Q1453.16 812.885 1452.14 812.885 Q1448.53 812.885 1446.58 815.246 Q1444.66 817.584 1444.66 821.982 L1444.66 835.64 L1440.38 835.64 L1440.38 809.714 L1444.66 809.714 L1444.66 813.742 Q1446.01 811.381 1448.16 810.246 Q1450.31 809.089 1453.39 809.089 Q1453.83 809.089 1454.36 809.158 Q1454.9 809.205 1455.54 809.32 L1455.57 813.695 Z" fill="#000000" fill-rule="nonzero" fill-opacity="1" /><path clip-path="url(#clip650)" d="M1481.17 821.612 L1481.17 823.695 L1461.58 823.695 Q1461.86 828.093 1464.22 830.408 Q1466.61 832.7 1470.84 832.7 Q1473.3 832.7 1475.59 832.098 Q1477.9 831.496 1480.17 830.293 L1480.17 834.32 Q1477.88 835.293 1475.47 835.802 Q1473.07 836.311 1470.59 836.311 Q1464.39 836.311 1460.75 832.7 Q1457.14 829.089 1457.14 822.931 Q1457.14 816.566 1460.57 812.839 Q1464.02 809.089 1469.85 809.089 Q1475.08 809.089 1478.11 812.469 Q1481.17 815.825 1481.17 821.612 M1476.91 820.362 Q1476.86 816.867 1474.94 814.783 Q1473.04 812.7 1469.89 812.7 Q1466.33 812.7 1464.18 814.714 Q1462.05 816.728 1461.72 820.385 L1476.91 820.362 Z" fill="#000000" fill-rule="nonzero" fill-opacity="1" /><path clip-path="url(#clip650)" d="M1506.82 810.709 L1506.82 814.691 Q1505.01 813.695 1503.18 813.209 Q1501.38 812.7 1499.52 812.7 Q1495.38 812.7 1493.09 815.339 Q1490.8 817.955 1490.8 822.7 Q1490.8 827.445 1493.09 830.084 Q1495.38 832.7 1499.52 832.7 Q1501.38 832.7 1503.18 832.214 Q1505.01 831.705 1506.82 830.709 L1506.82 834.644 Q1505.03 835.478 1503.11 835.894 Q1501.21 836.311 1499.06 836.311 Q1493.21 836.311 1489.76 832.63 Q1486.31 828.95 1486.31 822.7 Q1486.31 816.357 1489.78 812.723 Q1493.27 809.089 1499.34 809.089 Q1501.31 809.089 1503.18 809.506 Q1505.06 809.899 1506.82 810.709 Z" fill="#000000" fill-rule="nonzero" fill-opacity="1" /><path clip-path="url(#clip650)" d="M1524.27 812.7 Q1520.84 812.7 1518.85 815.385 Q1516.86 818.047 1516.86 822.7 Q1516.86 827.353 1518.83 830.038 Q1520.82 832.7 1524.27 832.7 Q1527.67 832.7 1529.66 830.015 Q1531.65 827.33 1531.65 822.7 Q1531.65 818.094 1529.66 815.408 Q1527.67 812.7 1524.27 812.7 M1524.27 809.089 Q1529.83 809.089 1533 812.7 Q1536.17 816.311 1536.17 822.7 Q1536.17 829.066 1533 832.7 Q1529.83 836.311 1524.27 836.311 Q1518.69 836.311 1515.52 832.7 Q1512.37 829.066 1512.37 822.7 Q1512.37 816.311 1515.52 812.7 Q1518.69 809.089 1524.27 809.089 Z" fill="#000000" fill-rule="nonzero" fill-opacity="1" /><path clip-path="url(#clip650)" d="M1564.78 819.992 L1564.78 835.64 L1560.52 835.64 L1560.52 820.131 Q1560.52 816.45 1559.08 814.621 Q1557.65 812.793 1554.78 812.793 Q1551.33 812.793 1549.34 814.992 Q1547.35 817.191 1547.35 820.987 L1547.35 835.64 L1543.07 835.64 L1543.07 809.714 L1547.35 809.714 L1547.35 813.742 Q1548.88 811.404 1550.94 810.246 Q1553.02 809.089 1555.73 809.089 Q1560.2 809.089 1562.49 811.867 Q1564.78 814.621 1564.78 819.992 Z" fill="#000000" fill-rule="nonzero" fill-opacity="1" /><path clip-path="url(#clip650)" d="M1590.33 813.649 L1590.33 799.621 L1594.59 799.621 L1594.59 835.64 L1590.33 835.64 L1590.33 831.751 Q1588.99 834.066 1586.93 835.2 Q1584.89 836.311 1582.02 836.311 Q1577.32 836.311 1574.36 832.561 Q1571.42 828.811 1571.42 822.7 Q1571.42 816.589 1574.36 812.839 Q1577.32 809.089 1582.02 809.089 Q1584.89 809.089 1586.93 810.223 Q1588.99 811.334 1590.33 813.649 M1575.82 822.7 Q1575.82 827.399 1577.74 830.084 Q1579.69 832.746 1583.07 832.746 Q1586.45 832.746 1588.39 830.084 Q1590.33 827.399 1590.33 822.7 Q1590.33 818.001 1588.39 815.339 Q1586.45 812.654 1583.07 812.654 Q1579.69 812.654 1577.74 815.339 Q1575.82 818.001 1575.82 822.7 Z" fill="#000000" fill-rule="nonzero" fill-opacity="1" /><path clip-path="url(#clip650)" d="M1603.37 809.714 L1607.63 809.714 L1607.63 835.64 L1603.37 835.64 L1603.37 809.714 M1603.37 799.621 L1607.63 799.621 L1607.63 805.015 L1603.37 805.015 L1603.37 799.621 Z" fill="#000000" fill-rule="nonzero" fill-opacity="1" /><path clip-path="url(#clip650)" d="M1620.75 802.353 L1620.75 809.714 L1629.52 809.714 L1629.52 813.024 L1620.75 813.024 L1620.75 827.098 Q1620.75 830.269 1621.61 831.172 Q1622.49 832.075 1625.15 832.075 L1629.52 832.075 L1629.52 835.64 L1625.15 835.64 Q1620.22 835.64 1618.34 833.811 Q1616.47 831.959 1616.47 827.098 L1616.47 813.024 L1613.34 813.024 L1613.34 809.714 L1616.47 809.714 L1616.47 802.353 L1620.75 802.353 Z" fill="#000000" fill-rule="nonzero" fill-opacity="1" /><path clip-path="url(#clip650)" d="M1635.13 809.714 L1639.38 809.714 L1639.38 835.64 L1635.13 835.64 L1635.13 809.714 M1635.13 799.621 L1639.38 799.621 L1639.38 805.015 L1635.13 805.015 L1635.13 799.621 Z" fill="#000000" fill-rule="nonzero" fill-opacity="1" /><path clip-path="url(#clip650)" d="M1658.34 812.7 Q1654.92 812.7 1652.93 815.385 Q1650.94 818.047 1650.94 822.7 Q1650.94 827.353 1652.9 830.038 Q1654.89 832.7 1658.34 832.7 Q1661.75 832.7 1663.74 830.015 Q1665.73 827.33 1665.73 822.7 Q1665.73 818.094 1663.74 815.408 Q1661.75 812.7 1658.34 812.7 M1658.34 809.089 Q1663.9 809.089 1667.07 812.7 Q1670.24 816.311 1670.24 822.7 Q1670.24 829.066 1667.07 832.7 Q1663.9 836.311 1658.34 836.311 Q1652.76 836.311 1649.59 832.7 Q1646.44 829.066 1646.44 822.7 Q1646.44 816.311 1649.59 812.7 Q1652.76 809.089 1658.34 809.089 Z" fill="#000000" fill-rule="nonzero" fill-opacity="1" /><path clip-path="url(#clip650)" d="M1698.85 819.992 L1698.85 835.64 L1694.59 835.64 L1694.59 820.131 Q1694.59 816.45 1693.16 814.621 Q1691.72 812.793 1688.85 812.793 Q1685.4 812.793 1683.41 814.992 Q1681.42 817.191 1681.42 820.987 L1681.42 835.64 L1677.14 835.64 L1677.14 809.714 L1681.42 809.714 L1681.42 813.742 Q1682.95 811.404 1685.01 810.246 Q1687.09 809.089 1689.8 809.089 Q1694.27 809.089 1696.56 811.867 Q1698.85 814.621 1698.85 819.992 Z" fill="#000000" fill-rule="nonzero" fill-opacity="1" /><path clip-path="url(#clip650)" d="M1707.35 809.714 L1711.61 809.714 L1711.61 835.64 L1707.35 835.64 L1707.35 809.714 M1707.35 799.621 L1711.61 799.621 L1711.61 805.015 L1707.35 805.015 L1707.35 799.621 Z" fill="#000000" fill-rule="nonzero" fill-opacity="1" /><path clip-path="url(#clip650)" d="M1742.07 819.992 L1742.07 835.64 L1737.81 835.64 L1737.81 820.131 Q1737.81 816.45 1736.38 814.621 Q1734.94 812.793 1732.07 812.793 Q1728.62 812.793 1726.63 814.992 Q1724.64 817.191 1724.64 820.987 L1724.64 835.64 L1720.36 835.64 L1720.36 809.714 L1724.64 809.714 L1724.64 813.742 Q1726.17 811.404 1728.23 810.246 Q1730.31 809.089 1733.02 809.089 Q1737.49 809.089 1739.78 811.867 Q1742.07 814.621 1742.07 819.992 Z" fill="#000000" fill-rule="nonzero" fill-opacity="1" /><path clip-path="url(#clip650)" d="M1767.62 822.376 Q1767.62 817.746 1765.7 815.2 Q1763.81 812.654 1760.36 812.654 Q1756.93 812.654 1755.01 815.2 Q1753.11 817.746 1753.11 822.376 Q1753.11 826.982 1755.01 829.529 Q1756.93 832.075 1760.36 832.075 Q1763.81 832.075 1765.7 829.529 Q1767.62 826.982 1767.62 822.376 M1771.88 832.422 Q1771.88 839.042 1768.94 842.26 Q1766 845.501 1759.94 845.501 Q1757.69 845.501 1755.7 845.154 Q1753.71 844.829 1751.84 844.135 L1751.84 839.992 Q1753.71 841.01 1755.54 841.496 Q1757.37 841.982 1759.27 841.982 Q1763.46 841.982 1765.54 839.783 Q1767.62 837.607 1767.62 833.186 L1767.62 831.08 Q1766.31 833.371 1764.25 834.505 Q1762.19 835.64 1759.31 835.64 Q1754.55 835.64 1751.63 832.005 Q1748.71 828.371 1748.71 822.376 Q1748.71 816.357 1751.63 812.723 Q1754.55 809.089 1759.31 809.089 Q1762.19 809.089 1764.25 810.223 Q1766.31 811.357 1767.62 813.649 L1767.62 809.714 L1771.88 809.714 L1771.88 832.422 Z" fill="#000000" fill-rule="nonzero" fill-opacity="1" /><polyline clip-path="url(#clip650)" style="stroke:#e26f46; stroke-linecap:round; stroke-linejoin:round; stroke-width:8; stroke-opacity:1; fill:none" points="1203.31,870.2 1317.19,870.2 "/>
<path clip-path="url(#clip650)" d="M1351.03 882.758 Q1351.86 883.869 1354.36 883.869 L1356.42 883.869 L1356.42 887.48 L1353.85 887.48 Q1349.69 887.48 1347.79 885.258 Q1345.89 882.989 1345.89 878.082 L1345.89 865.813 L1336.17 865.813 L1336.17 861.554 L1360.08 861.554 L1360.08 865.813 L1350.24 865.813 L1350.24 878.336 Q1350.24 881.693 1351.03 882.758 Z" fill="#000000" fill-rule="nonzero" fill-opacity="1" /><path clip-path="url(#clip650)" d="M1382.49 865.952 L1412.16 865.952 L1412.16 869.841 L1382.49 869.841 L1382.49 865.952 M1382.49 875.396 L1412.16 875.396 L1412.16 879.332 L1382.49 879.332 L1382.49 875.396 Z" fill="#000000" fill-rule="nonzero" fill-opacity="1" /><path clip-path="url(#clip650)" d="M1441.35 883.545 L1457.67 883.545 L1457.67 887.48 L1435.73 887.48 L1435.73 883.545 Q1438.39 880.79 1442.97 876.16 Q1447.58 871.508 1448.76 870.165 Q1451.01 867.642 1451.89 865.906 Q1452.79 864.147 1452.79 862.457 Q1452.79 859.702 1450.84 857.966 Q1448.92 856.23 1445.82 856.23 Q1443.62 856.23 1441.17 856.994 Q1438.74 857.758 1435.96 859.309 L1435.96 854.586 Q1438.78 853.452 1441.24 852.873 Q1443.69 852.295 1445.73 852.295 Q1451.1 852.295 1454.29 854.98 Q1457.49 857.665 1457.49 862.156 Q1457.49 864.285 1456.68 866.207 Q1455.89 868.105 1453.78 870.697 Q1453.21 871.369 1450.1 874.586 Q1447 877.781 1441.35 883.545 Z" fill="#000000" fill-rule="nonzero" fill-opacity="1" /><path clip-path="url(#clip650)" d="M1467.49 881.6 L1472.37 881.6 L1472.37 887.48 L1467.49 887.48 L1467.49 881.6 Z" fill="#000000" fill-rule="nonzero" fill-opacity="1" /><path clip-path="url(#clip650)" d="M1492.56 855.998 Q1488.95 855.998 1487.12 859.563 Q1485.31 863.105 1485.31 870.234 Q1485.31 877.341 1487.12 880.906 Q1488.95 884.447 1492.56 884.447 Q1496.19 884.447 1498 880.906 Q1499.83 877.341 1499.83 870.234 Q1499.83 863.105 1498 859.563 Q1496.19 855.998 1492.56 855.998 M1492.56 852.295 Q1498.37 852.295 1501.42 856.901 Q1504.5 861.485 1504.5 870.234 Q1504.5 878.961 1501.42 883.568 Q1498.37 888.151 1492.56 888.151 Q1486.75 888.151 1483.67 883.568 Q1480.61 878.961 1480.61 870.234 Q1480.61 861.485 1483.67 856.901 Q1486.75 852.295 1492.56 852.295 Z" fill="#000000" fill-rule="nonzero" fill-opacity="1" /><path clip-path="url(#clip650)" d="M1513.2 881.6 L1518.09 881.6 L1518.09 885.582 L1514.29 892.989 L1511.31 892.989 L1513.2 885.582 L1513.2 881.6 Z" fill="#000000" fill-rule="nonzero" fill-opacity="1" /><path clip-path="url(#clip650)" d="M1546.47 854.193 L1546.47 861.554 L1555.24 861.554 L1555.24 864.864 L1546.47 864.864 L1546.47 878.938 Q1546.47 882.109 1547.33 883.012 Q1548.2 883.915 1550.87 883.915 L1555.24 883.915 L1555.24 887.48 L1550.87 887.48 Q1545.94 887.48 1544.06 885.651 Q1542.19 883.799 1542.19 878.938 L1542.19 864.864 L1539.06 864.864 L1539.06 861.554 L1542.19 861.554 L1542.19 854.193 L1546.47 854.193 Z" fill="#000000" fill-rule="nonzero" fill-opacity="1" /><path clip-path="url(#clip650)" d="M1560.84 861.554 L1565.1 861.554 L1565.1 887.48 L1560.84 887.48 L1560.84 861.554 M1560.84 851.461 L1565.1 851.461 L1565.1 856.855 L1560.84 856.855 L1560.84 851.461 Z" fill="#000000" fill-rule="nonzero" fill-opacity="1" /><path clip-path="url(#clip650)" d="M1594.2 866.531 Q1595.8 863.66 1598.02 862.295 Q1600.24 860.929 1603.25 860.929 Q1607.3 860.929 1609.5 863.776 Q1611.7 866.6 1611.7 871.832 L1611.7 887.48 L1607.42 887.48 L1607.42 871.971 Q1607.42 868.244 1606.1 866.438 Q1604.78 864.633 1602.07 864.633 Q1598.76 864.633 1596.84 866.832 Q1594.92 869.031 1594.92 872.827 L1594.92 887.48 L1590.64 887.48 L1590.64 871.971 Q1590.64 868.221 1589.32 866.438 Q1588 864.633 1585.24 864.633 Q1581.98 864.633 1580.06 866.855 Q1578.14 869.054 1578.14 872.827 L1578.14 887.48 L1573.85 887.48 L1573.85 861.554 L1578.14 861.554 L1578.14 865.582 Q1579.59 863.197 1581.63 862.063 Q1583.67 860.929 1586.47 860.929 Q1589.29 860.929 1591.26 862.364 Q1593.25 863.799 1594.2 866.531 Z" fill="#000000" fill-rule="nonzero" fill-opacity="1" /><path clip-path="url(#clip650)" d="M1642.37 873.452 L1642.37 875.535 L1622.79 875.535 Q1623.07 879.933 1625.43 882.248 Q1627.81 884.54 1632.05 884.54 Q1634.5 884.54 1636.79 883.938 Q1639.11 883.336 1641.38 882.133 L1641.38 886.16 Q1639.08 887.133 1636.68 887.642 Q1634.27 888.151 1631.79 888.151 Q1625.59 888.151 1621.95 884.54 Q1618.34 880.929 1618.34 874.771 Q1618.34 868.406 1621.77 864.679 Q1625.22 860.929 1631.05 860.929 Q1636.28 860.929 1639.32 864.309 Q1642.37 867.665 1642.37 873.452 M1638.11 872.202 Q1638.07 868.707 1636.14 866.623 Q1634.25 864.54 1631.1 864.54 Q1627.53 864.54 1625.38 866.554 Q1623.25 868.568 1622.93 872.225 L1638.11 872.202 Z" fill="#000000" fill-rule="nonzero" fill-opacity="1" /><path clip-path="url(#clip650)" d="M1664.99 865.952 L1694.66 865.952 L1694.66 869.841 L1664.99 869.841 L1664.99 865.952 M1664.99 875.396 L1694.66 875.396 L1694.66 879.332 L1664.99 879.332 L1664.99 875.396 Z" fill="#000000" fill-rule="nonzero" fill-opacity="1" /><path clip-path="url(#clip650)" d="M1719.96 886.762 L1719.96 882.503 Q1721.72 883.336 1723.53 883.776 Q1725.33 884.216 1727.07 884.216 Q1731.7 884.216 1734.13 881.114 Q1736.58 877.989 1736.93 871.646 Q1735.59 873.637 1733.53 874.702 Q1731.47 875.767 1728.97 875.767 Q1723.78 875.767 1720.75 872.642 Q1717.74 869.494 1717.74 864.054 Q1717.74 858.73 1720.89 855.512 Q1724.04 852.295 1729.27 852.295 Q1735.26 852.295 1738.41 856.901 Q1741.58 861.485 1741.58 870.234 Q1741.58 878.406 1737.69 883.29 Q1733.83 888.151 1727.28 888.151 Q1725.52 888.151 1723.71 887.804 Q1721.91 887.457 1719.96 886.762 M1729.27 872.109 Q1732.42 872.109 1734.25 869.957 Q1736.1 867.804 1736.1 864.054 Q1736.1 860.327 1734.25 858.174 Q1732.42 855.998 1729.27 855.998 Q1726.12 855.998 1724.27 858.174 Q1722.44 860.327 1722.44 864.054 Q1722.44 867.804 1724.27 869.957 Q1726.12 872.109 1729.27 872.109 Z" fill="#000000" fill-rule="nonzero" fill-opacity="1" /><path clip-path="url(#clip650)" d="M1749.99 881.6 L1754.87 881.6 L1754.87 887.48 L1749.99 887.48 L1749.99 881.6 Z" fill="#000000" fill-rule="nonzero" fill-opacity="1" /><path clip-path="url(#clip650)" d="M1765.87 883.545 L1773.5 883.545 L1773.5 857.179 L1765.19 858.846 L1765.19 854.586 L1773.46 852.92 L1778.13 852.92 L1778.13 883.545 L1785.77 883.545 L1785.77 887.48 L1765.87 887.48 L1765.87 883.545 Z" fill="#000000" fill-rule="nonzero" fill-opacity="1" /><path clip-path="url(#clip650)" d="M1795.26 852.92 L1813.62 852.92 L1813.62 856.855 L1799.55 856.855 L1799.55 865.327 Q1800.56 864.98 1801.58 864.818 Q1802.6 864.633 1803.62 864.633 Q1809.41 864.633 1812.79 867.804 Q1816.17 870.975 1816.17 876.392 Q1816.17 881.971 1812.69 885.072 Q1809.22 888.151 1802.9 888.151 Q1800.73 888.151 1798.46 887.781 Q1796.21 887.41 1793.81 886.67 L1793.81 881.971 Q1795.89 883.105 1798.11 883.66 Q1800.33 884.216 1802.81 884.216 Q1806.81 884.216 1809.15 882.109 Q1811.49 880.003 1811.49 876.392 Q1811.49 872.781 1809.15 870.674 Q1806.81 868.568 1802.81 868.568 Q1800.93 868.568 1799.06 868.984 Q1797.21 869.401 1795.26 870.281 L1795.26 852.92 Z" fill="#000000" fill-rule="nonzero" fill-opacity="1" /><path clip-path="url(#clip650)" d="M1824.2 852.92 L1846.42 852.92 L1846.42 854.91 L1833.87 887.48 L1828.99 887.48 L1840.8 856.855 L1824.2 856.855 L1824.2 852.92 Z" fill="#000000" fill-rule="nonzero" fill-opacity="1" /><polyline clip-path="url(#clip650)" style="stroke:#3da44d; stroke-linecap:round; stroke-linejoin:round; stroke-width:8; stroke-opacity:1; fill:none" points="1203.31,922.04 1317.19,922.04 "/>
<path clip-path="url(#clip650)" d="M1351.03 934.598 Q1351.86 935.709 1354.36 935.709 L1356.42 935.709 L1356.42 939.32 L1353.85 939.32 Q1349.69 939.32 1347.79 937.098 Q1345.89 934.829 1345.89 929.922 L1345.89 917.653 L1336.17 917.653 L1336.17 913.394 L1360.08 913.394 L1360.08 917.653 L1350.24 917.653 L1350.24 930.176 Q1350.24 933.533 1351.03 934.598 Z" fill="#000000" fill-rule="nonzero" fill-opacity="1" /><path clip-path="url(#clip650)" d="M1382.49 917.792 L1412.16 917.792 L1412.16 921.681 L1382.49 921.681 L1382.49 917.792 M1382.49 927.236 L1412.16 927.236 L1412.16 931.172 L1382.49 931.172 L1382.49 927.236 Z" fill="#000000" fill-rule="nonzero" fill-opacity="1" /><path clip-path="url(#clip650)" d="M1438.14 935.385 L1445.77 935.385 L1445.77 909.019 L1437.46 910.686 L1437.46 906.426 L1445.73 904.76 L1450.4 904.76 L1450.4 935.385 L1458.04 935.385 L1458.04 939.32 L1438.14 939.32 L1438.14 935.385 Z" fill="#000000" fill-rule="nonzero" fill-opacity="1" /><path clip-path="url(#clip650)" d="M1467.49 933.44 L1472.37 933.44 L1472.37 939.32 L1467.49 939.32 L1467.49 933.44 Z" fill="#000000" fill-rule="nonzero" fill-opacity="1" /><path clip-path="url(#clip650)" d="M1492.56 907.838 Q1488.95 907.838 1487.12 911.403 Q1485.31 914.945 1485.31 922.074 Q1485.31 929.181 1487.12 932.746 Q1488.95 936.287 1492.56 936.287 Q1496.19 936.287 1498 932.746 Q1499.83 929.181 1499.83 922.074 Q1499.83 914.945 1498 911.403 Q1496.19 907.838 1492.56 907.838 M1492.56 904.135 Q1498.37 904.135 1501.42 908.741 Q1504.5 913.325 1504.5 922.074 Q1504.5 930.801 1501.42 935.408 Q1498.37 939.991 1492.56 939.991 Q1486.75 939.991 1483.67 935.408 Q1480.61 930.801 1480.61 922.074 Q1480.61 913.325 1483.67 908.741 Q1486.75 904.135 1492.56 904.135 Z" fill="#000000" fill-rule="nonzero" fill-opacity="1" /><path clip-path="url(#clip650)" d="M1513.2 933.44 L1518.09 933.44 L1518.09 937.422 L1514.29 944.829 L1511.31 944.829 L1513.2 937.422 L1513.2 933.44 Z" fill="#000000" fill-rule="nonzero" fill-opacity="1" /><path clip-path="url(#clip650)" d="M1546.47 906.033 L1546.47 913.394 L1555.24 913.394 L1555.24 916.704 L1546.47 916.704 L1546.47 930.778 Q1546.47 933.949 1547.33 934.852 Q1548.2 935.755 1550.87 935.755 L1555.24 935.755 L1555.24 939.32 L1550.87 939.32 Q1545.94 939.32 1544.06 937.491 Q1542.19 935.639 1542.19 930.778 L1542.19 916.704 L1539.06 916.704 L1539.06 913.394 L1542.19 913.394 L1542.19 906.033 L1546.47 906.033 Z" fill="#000000" fill-rule="nonzero" fill-opacity="1" /><path clip-path="url(#clip650)" d="M1560.84 913.394 L1565.1 913.394 L1565.1 939.32 L1560.84 939.32 L1560.84 913.394 M1560.84 903.301 L1565.1 903.301 L1565.1 908.695 L1560.84 908.695 L1560.84 903.301 Z" fill="#000000" fill-rule="nonzero" fill-opacity="1" /><path clip-path="url(#clip650)" d="M1594.2 918.371 Q1595.8 915.5 1598.02 914.135 Q1600.24 912.769 1603.25 912.769 Q1607.3 912.769 1609.5 915.616 Q1611.7 918.44 1611.7 923.672 L1611.7 939.32 L1607.42 939.32 L1607.42 923.811 Q1607.42 920.084 1606.1 918.278 Q1604.78 916.473 1602.07 916.473 Q1598.76 916.473 1596.84 918.672 Q1594.92 920.871 1594.92 924.667 L1594.92 939.32 L1590.64 939.32 L1590.64 923.811 Q1590.64 920.061 1589.32 918.278 Q1588 916.473 1585.24 916.473 Q1581.98 916.473 1580.06 918.695 Q1578.14 920.894 1578.14 924.667 L1578.14 939.32 L1573.85 939.32 L1573.85 913.394 L1578.14 913.394 L1578.14 917.422 Q1579.59 915.037 1581.63 913.903 Q1583.67 912.769 1586.47 912.769 Q1589.29 912.769 1591.26 914.204 Q1593.25 915.639 1594.2 918.371 Z" fill="#000000" fill-rule="nonzero" fill-opacity="1" /><path clip-path="url(#clip650)" d="M1642.37 925.292 L1642.37 927.375 L1622.79 927.375 Q1623.07 931.773 1625.43 934.088 Q1627.81 936.38 1632.05 936.38 Q1634.5 936.38 1636.79 935.778 Q1639.11 935.176 1641.38 933.973 L1641.38 938 Q1639.08 938.973 1636.68 939.482 Q1634.27 939.991 1631.79 939.991 Q1625.59 939.991 1621.95 936.38 Q1618.34 932.769 1618.34 926.611 Q1618.34 920.246 1621.77 916.519 Q1625.22 912.769 1631.05 912.769 Q1636.28 912.769 1639.32 916.149 Q1642.37 919.505 1642.37 925.292 M1638.11 924.042 Q1638.07 920.547 1636.14 918.463 Q1634.25 916.38 1631.1 916.38 Q1627.53 916.38 1625.38 918.394 Q1623.25 920.408 1622.93 924.065 L1638.11 924.042 Z" fill="#000000" fill-rule="nonzero" fill-opacity="1" /><path clip-path="url(#clip650)" d="M1664.99 917.792 L1694.66 917.792 L1694.66 921.681 L1664.99 921.681 L1664.99 917.792 M1664.99 927.236 L1694.66 927.236 L1694.66 931.172 L1664.99 931.172 L1664.99 927.236 Z" fill="#000000" fill-rule="nonzero" fill-opacity="1" /><path clip-path="url(#clip650)" d="M1719.87 904.76 L1738.23 904.76 L1738.23 908.695 L1724.15 908.695 L1724.15 917.167 Q1725.17 916.82 1726.19 916.658 Q1727.21 916.473 1728.23 916.473 Q1734.01 916.473 1737.39 919.644 Q1740.77 922.815 1740.77 928.232 Q1740.77 933.811 1737.3 936.912 Q1733.83 939.991 1727.51 939.991 Q1725.33 939.991 1723.06 939.621 Q1720.82 939.25 1718.41 938.51 L1718.41 933.811 Q1720.5 934.945 1722.72 935.5 Q1724.94 936.056 1727.42 936.056 Q1731.42 936.056 1733.76 933.949 Q1736.1 931.843 1736.1 928.232 Q1736.1 924.621 1733.76 922.514 Q1731.42 920.408 1727.42 920.408 Q1725.54 920.408 1723.67 920.824 Q1721.81 921.241 1719.87 922.121 L1719.87 904.76 Z" fill="#000000" fill-rule="nonzero" fill-opacity="1" /><path clip-path="url(#clip650)" d="M1749.99 933.44 L1754.87 933.44 L1754.87 939.32 L1749.99 939.32 L1749.99 933.44 Z" fill="#000000" fill-rule="nonzero" fill-opacity="1" /><path clip-path="url(#clip650)" d="M1765.19 938.602 L1765.19 934.343 Q1766.95 935.176 1768.76 935.616 Q1770.56 936.056 1772.3 936.056 Q1776.93 936.056 1779.36 932.954 Q1781.81 929.829 1782.16 923.486 Q1780.82 925.477 1778.76 926.542 Q1776.7 927.607 1774.2 927.607 Q1769.01 927.607 1765.98 924.482 Q1762.97 921.334 1762.97 915.894 Q1762.97 910.57 1766.12 907.352 Q1769.27 904.135 1774.5 904.135 Q1780.5 904.135 1783.64 908.741 Q1786.81 913.325 1786.81 922.074 Q1786.81 930.246 1782.93 935.13 Q1779.06 939.991 1772.51 939.991 Q1770.75 939.991 1768.94 939.644 Q1767.14 939.297 1765.19 938.602 M1774.5 923.949 Q1777.65 923.949 1779.48 921.797 Q1781.33 919.644 1781.33 915.894 Q1781.33 912.167 1779.48 910.014 Q1777.65 907.838 1774.5 907.838 Q1771.35 907.838 1769.5 910.014 Q1767.67 912.167 1767.67 915.894 Q1767.67 919.644 1769.5 921.797 Q1771.35 923.949 1774.5 923.949 Z" fill="#000000" fill-rule="nonzero" fill-opacity="1" /><path clip-path="url(#clip650)" d="M1795.36 938.602 L1795.36 934.343 Q1797.12 935.176 1798.92 935.616 Q1800.73 936.056 1802.46 936.056 Q1807.09 936.056 1809.52 932.954 Q1811.98 929.829 1812.32 923.486 Q1810.98 925.477 1808.92 926.542 Q1806.86 927.607 1804.36 927.607 Q1799.18 927.607 1796.14 924.482 Q1793.13 921.334 1793.13 915.894 Q1793.13 910.57 1796.28 907.352 Q1799.43 904.135 1804.66 904.135 Q1810.66 904.135 1813.81 908.741 Q1816.98 913.325 1816.98 922.074 Q1816.98 930.246 1813.09 935.13 Q1809.22 939.991 1802.67 939.991 Q1800.91 939.991 1799.11 939.644 Q1797.3 939.297 1795.36 938.602 M1804.66 923.949 Q1807.81 923.949 1809.64 921.797 Q1811.49 919.644 1811.49 915.894 Q1811.49 912.167 1809.64 910.014 Q1807.81 907.838 1804.66 907.838 Q1801.51 907.838 1799.66 910.014 Q1797.83 912.167 1797.83 915.894 Q1797.83 919.644 1799.66 921.797 Q1801.51 923.949 1804.66 923.949 Z" fill="#000000" fill-rule="nonzero" fill-opacity="1" /><path clip-path="url(#clip650)" d="M1825.52 938.602 L1825.52 934.343 Q1827.28 935.176 1829.08 935.616 Q1830.89 936.056 1832.62 936.056 Q1837.25 936.056 1839.68 932.954 Q1842.14 929.829 1842.49 923.486 Q1841.14 925.477 1839.08 926.542 Q1837.02 927.607 1834.52 927.607 Q1829.34 927.607 1826.31 924.482 Q1823.3 921.334 1823.3 915.894 Q1823.3 910.57 1826.44 907.352 Q1829.59 904.135 1834.82 904.135 Q1840.82 904.135 1843.97 908.741 Q1847.14 913.325 1847.14 922.074 Q1847.14 930.246 1843.25 935.13 Q1839.38 939.991 1832.83 939.991 Q1831.07 939.991 1829.27 939.644 Q1827.46 939.297 1825.52 938.602 M1834.82 923.949 Q1837.97 923.949 1839.8 921.797 Q1841.65 919.644 1841.65 915.894 Q1841.65 912.167 1839.8 910.014 Q1837.97 907.838 1834.82 907.838 Q1831.68 907.838 1829.82 910.014 Q1827.99 912.167 1827.99 915.894 Q1827.99 919.644 1829.82 921.797 Q1831.68 923.949 1834.82 923.949 Z" fill="#000000" fill-rule="nonzero" fill-opacity="1" /><polyline clip-path="url(#clip650)" style="stroke:#c271d2; stroke-linecap:round; stroke-linejoin:round; stroke-width:8; stroke-opacity:1; fill:none" points="1203.31,973.88 1317.19,973.88 "/>
<path clip-path="url(#clip650)" d="M1351.03 986.438 Q1351.86 987.549 1354.36 987.549 L1356.42 987.549 L1356.42 991.16 L1353.85 991.16 Q1349.69 991.16 1347.79 988.938 Q1345.89 986.669 1345.89 981.762 L1345.89 969.493 L1336.17 969.493 L1336.17 965.234 L1360.08 965.234 L1360.08 969.493 L1350.24 969.493 L1350.24 982.016 Q1350.24 985.373 1351.03 986.438 Z" fill="#000000" fill-rule="nonzero" fill-opacity="1" /><path clip-path="url(#clip650)" d="M1382.49 969.632 L1412.16 969.632 L1412.16 973.521 L1382.49 973.521 L1382.49 969.632 M1382.49 979.076 L1412.16 979.076 L1412.16 983.012 L1382.49 983.012 L1382.49 979.076 Z" fill="#000000" fill-rule="nonzero" fill-opacity="1" /><path clip-path="url(#clip650)" d="M1447.33 959.678 Q1443.71 959.678 1441.89 963.243 Q1440.08 966.785 1440.08 973.914 Q1440.08 981.021 1441.89 984.586 Q1443.71 988.127 1447.33 988.127 Q1450.96 988.127 1452.77 984.586 Q1454.59 981.021 1454.59 973.914 Q1454.59 966.785 1452.77 963.243 Q1450.96 959.678 1447.33 959.678 M1447.33 955.975 Q1453.14 955.975 1456.19 960.581 Q1459.27 965.165 1459.27 973.914 Q1459.27 982.641 1456.19 987.248 Q1453.14 991.831 1447.33 991.831 Q1441.52 991.831 1438.44 987.248 Q1435.38 982.641 1435.38 973.914 Q1435.38 965.165 1438.44 960.581 Q1441.52 955.975 1447.33 955.975 Z" fill="#000000" fill-rule="nonzero" fill-opacity="1" /><path clip-path="url(#clip650)" d="M1467.49 985.28 L1472.37 985.28 L1472.37 991.16 L1467.49 991.16 L1467.49 985.28 Z" fill="#000000" fill-rule="nonzero" fill-opacity="1" /><path clip-path="url(#clip650)" d="M1486.58 987.225 L1502.9 987.225 L1502.9 991.16 L1480.96 991.16 L1480.96 987.225 Q1483.62 984.47 1488.21 979.84 Q1492.81 975.188 1493.99 973.845 Q1496.24 971.322 1497.12 969.586 Q1498.02 967.827 1498.02 966.137 Q1498.02 963.382 1496.08 961.646 Q1494.15 959.91 1491.05 959.91 Q1488.85 959.91 1486.4 960.674 Q1483.97 961.438 1481.19 962.989 L1481.19 958.266 Q1484.02 957.132 1486.47 956.553 Q1488.92 955.975 1490.96 955.975 Q1496.33 955.975 1499.52 958.66 Q1502.72 961.345 1502.72 965.836 Q1502.72 967.965 1501.91 969.887 Q1501.12 971.785 1499.02 974.377 Q1498.44 975.049 1495.33 978.266 Q1492.23 981.461 1486.58 987.225 Z" fill="#000000" fill-rule="nonzero" fill-opacity="1" /><path clip-path="url(#clip650)" d="M1512.77 956.6 L1531.12 956.6 L1531.12 960.535 L1517.05 960.535 L1517.05 969.007 Q1518.07 968.66 1519.08 968.498 Q1520.1 968.313 1521.12 968.313 Q1526.91 968.313 1530.29 971.484 Q1533.67 974.655 1533.67 980.072 Q1533.67 985.651 1530.2 988.752 Q1526.72 991.831 1520.4 991.831 Q1518.23 991.831 1515.96 991.461 Q1513.71 991.09 1511.31 990.35 L1511.31 985.651 Q1513.39 986.785 1515.61 987.34 Q1517.83 987.896 1520.31 987.896 Q1524.32 987.896 1526.65 985.789 Q1528.99 983.683 1528.99 980.072 Q1528.99 976.461 1526.65 974.354 Q1524.32 972.248 1520.31 972.248 Q1518.44 972.248 1516.56 972.664 Q1514.71 973.081 1512.77 973.961 L1512.77 956.6 Z" fill="#000000" fill-rule="nonzero" fill-opacity="1" /><path clip-path="url(#clip650)" d="M1543.37 985.28 L1548.25 985.28 L1548.25 989.262 L1544.45 996.669 L1541.47 996.669 L1543.37 989.262 L1543.37 985.28 Z" fill="#000000" fill-rule="nonzero" fill-opacity="1" /><path clip-path="url(#clip650)" d="M1576.63 957.873 L1576.63 965.234 L1585.4 965.234 L1585.4 968.544 L1576.63 968.544 L1576.63 982.618 Q1576.63 985.789 1577.49 986.692 Q1578.37 987.595 1581.03 987.595 L1585.4 987.595 L1585.4 991.16 L1581.03 991.16 Q1576.1 991.16 1574.22 989.331 Q1572.35 987.479 1572.35 982.618 L1572.35 968.544 L1569.22 968.544 L1569.22 965.234 L1572.35 965.234 L1572.35 957.873 L1576.63 957.873 Z" fill="#000000" fill-rule="nonzero" fill-opacity="1" /><path clip-path="url(#clip650)" d="M1591.01 965.234 L1595.26 965.234 L1595.26 991.16 L1591.01 991.16 L1591.01 965.234 M1591.01 955.141 L1595.26 955.141 L1595.26 960.535 L1591.01 960.535 L1591.01 955.141 Z" fill="#000000" fill-rule="nonzero" fill-opacity="1" /><path clip-path="url(#clip650)" d="M1624.36 970.211 Q1625.96 967.34 1628.18 965.975 Q1630.4 964.609 1633.41 964.609 Q1637.46 964.609 1639.66 967.456 Q1641.86 970.28 1641.86 975.512 L1641.86 991.16 L1637.58 991.16 L1637.58 975.651 Q1637.58 971.924 1636.26 970.118 Q1634.94 968.313 1632.23 968.313 Q1628.92 968.313 1627 970.512 Q1625.08 972.711 1625.08 976.507 L1625.08 991.16 L1620.8 991.16 L1620.8 975.651 Q1620.8 971.901 1619.48 970.118 Q1618.16 968.313 1615.4 968.313 Q1612.14 968.313 1610.22 970.535 Q1608.3 972.734 1608.3 976.507 L1608.3 991.16 L1604.01 991.16 L1604.01 965.234 L1608.3 965.234 L1608.3 969.262 Q1609.76 966.877 1611.79 965.743 Q1613.83 964.609 1616.63 964.609 Q1619.45 964.609 1621.42 966.044 Q1623.41 967.479 1624.36 970.211 Z" fill="#000000" fill-rule="nonzero" fill-opacity="1" /><path clip-path="url(#clip650)" d="M1672.53 977.132 L1672.53 979.215 L1652.95 979.215 Q1653.23 983.613 1655.59 985.928 Q1657.97 988.22 1662.21 988.22 Q1664.66 988.22 1666.95 987.618 Q1669.27 987.016 1671.54 985.813 L1671.54 989.84 Q1669.25 990.813 1666.84 991.322 Q1664.43 991.831 1661.95 991.831 Q1655.75 991.831 1652.12 988.22 Q1648.51 984.609 1648.51 978.451 Q1648.51 972.086 1651.93 968.359 Q1655.38 964.609 1661.21 964.609 Q1666.44 964.609 1669.48 967.989 Q1672.53 971.345 1672.53 977.132 M1668.27 975.882 Q1668.23 972.387 1666.31 970.303 Q1664.41 968.22 1661.26 968.22 Q1657.69 968.22 1655.54 970.234 Q1653.41 972.248 1653.09 975.905 L1668.27 975.882 Z" fill="#000000" fill-rule="nonzero" fill-opacity="1" /><path clip-path="url(#clip650)" d="M1695.15 969.632 L1724.82 969.632 L1724.82 973.521 L1695.15 973.521 L1695.15 969.632 M1695.15 979.076 L1724.82 979.076 L1724.82 983.012 L1695.15 983.012 L1695.15 979.076 Z" fill="#000000" fill-rule="nonzero" fill-opacity="1" /><path clip-path="url(#clip650)" d="M1764.15 972.526 Q1767.51 973.243 1769.38 975.512 Q1771.28 977.78 1771.28 981.113 Q1771.28 986.229 1767.76 989.03 Q1764.25 991.831 1757.76 991.831 Q1755.59 991.831 1753.27 991.391 Q1750.98 990.975 1748.53 990.118 L1748.53 985.604 Q1750.47 986.738 1752.79 987.317 Q1755.1 987.896 1757.62 987.896 Q1762.02 987.896 1764.31 986.16 Q1766.63 984.424 1766.63 981.113 Q1766.63 978.058 1764.48 976.345 Q1762.35 974.609 1758.53 974.609 L1754.5 974.609 L1754.5 970.766 L1758.71 970.766 Q1762.16 970.766 1763.99 969.401 Q1765.82 968.012 1765.82 965.419 Q1765.82 962.757 1763.92 961.345 Q1762.05 959.91 1758.53 959.91 Q1756.61 959.91 1754.41 960.327 Q1752.21 960.743 1749.57 961.623 L1749.57 957.456 Q1752.23 956.715 1754.55 956.345 Q1756.88 955.975 1758.94 955.975 Q1764.27 955.975 1767.37 958.405 Q1770.47 960.813 1770.47 964.933 Q1770.47 967.803 1768.83 969.794 Q1767.19 971.762 1764.15 972.526 Z" fill="#000000" fill-rule="nonzero" fill-opacity="1" /><path clip-path="url(#clip650)" d="M1780.15 985.28 L1785.03 985.28 L1785.03 991.16 L1780.15 991.16 L1780.15 985.28 Z" fill="#000000" fill-rule="nonzero" fill-opacity="1" /><path clip-path="url(#clip650)" d="M1799.25 987.225 L1815.56 987.225 L1815.56 991.16 L1793.62 991.16 L1793.62 987.225 Q1796.28 984.47 1800.87 979.84 Q1805.47 975.188 1806.65 973.845 Q1808.9 971.322 1809.78 969.586 Q1810.68 967.827 1810.68 966.137 Q1810.68 963.382 1808.74 961.646 Q1806.81 959.91 1803.71 959.91 Q1801.51 959.91 1799.06 960.674 Q1796.63 961.438 1793.85 962.989 L1793.85 958.266 Q1796.68 957.132 1799.13 956.553 Q1801.58 955.975 1803.62 955.975 Q1808.99 955.975 1812.18 958.66 Q1815.38 961.345 1815.38 965.836 Q1815.38 967.965 1814.57 969.887 Q1813.78 971.785 1811.68 974.377 Q1811.1 975.049 1808 978.266 Q1804.89 981.461 1799.25 987.225 Z" fill="#000000" fill-rule="nonzero" fill-opacity="1" /><path clip-path="url(#clip650)" d="M1826.19 987.225 L1833.83 987.225 L1833.83 960.859 L1825.52 962.526 L1825.52 958.266 L1833.78 956.6 L1838.46 956.6 L1838.46 987.225 L1846.1 987.225 L1846.1 991.16 L1826.19 991.16 L1826.19 987.225 Z" fill="#000000" fill-rule="nonzero" fill-opacity="1" /><path clip-path="url(#clip650)" d="M1869.71 972.526 Q1873.06 973.243 1874.94 975.512 Q1876.84 977.78 1876.84 981.113 Q1876.84 986.229 1873.32 989.03 Q1869.8 991.831 1863.32 991.831 Q1861.14 991.831 1858.83 991.391 Q1856.54 990.975 1854.08 990.118 L1854.08 985.604 Q1856.03 986.738 1858.34 987.317 Q1860.66 987.896 1863.18 987.896 Q1867.58 987.896 1869.87 986.16 Q1872.18 984.424 1872.18 981.113 Q1872.18 978.058 1870.03 976.345 Q1867.9 974.609 1864.08 974.609 L1860.05 974.609 L1860.05 970.766 L1864.27 970.766 Q1867.72 970.766 1869.55 969.401 Q1871.37 968.012 1871.37 965.419 Q1871.37 962.757 1869.48 961.345 Q1867.6 959.91 1864.08 959.91 Q1862.16 959.91 1859.96 960.327 Q1857.76 960.743 1855.12 961.623 L1855.12 957.456 Q1857.79 956.715 1860.1 956.345 Q1862.44 955.975 1864.5 955.975 Q1869.82 955.975 1872.93 958.405 Q1876.03 960.813 1876.03 964.933 Q1876.03 967.803 1874.38 969.794 Q1872.74 971.762 1869.71 972.526 Z" fill="#000000" fill-rule="nonzero" fill-opacity="1" /><polyline clip-path="url(#clip650)" style="stroke:#ac8d18; stroke-linecap:round; stroke-linejoin:round; stroke-width:8; stroke-opacity:1; fill:none" points="1203.31,1025.72 1317.19,1025.72 "/>
<path clip-path="url(#clip650)" d="M1351.03 1038.28 Q1351.86 1039.39 1354.36 1039.39 L1356.42 1039.39 L1356.42 1043 L1353.85 1043 Q1349.69 1043 1347.79 1040.78 Q1345.89 1038.51 1345.89 1033.6 L1345.89 1021.33 L1336.17 1021.33 L1336.17 1017.07 L1360.08 1017.07 L1360.08 1021.33 L1350.24 1021.33 L1350.24 1033.86 Q1350.24 1037.21 1351.03 1038.28 Z" fill="#000000" fill-rule="nonzero" fill-opacity="1" /><path clip-path="url(#clip650)" d="M1382.49 1021.47 L1412.16 1021.47 L1412.16 1025.36 L1382.49 1025.36 L1382.49 1021.47 M1382.49 1030.92 L1412.16 1030.92 L1412.16 1034.85 L1382.49 1034.85 L1382.49 1030.92 Z" fill="#000000" fill-rule="nonzero" fill-opacity="1" /><path clip-path="url(#clip650)" d="M1447.33 1011.52 Q1443.71 1011.52 1441.89 1015.08 Q1440.08 1018.62 1440.08 1025.75 Q1440.08 1032.86 1441.89 1036.43 Q1443.71 1039.97 1447.33 1039.97 Q1450.96 1039.97 1452.77 1036.43 Q1454.59 1032.86 1454.59 1025.75 Q1454.59 1018.62 1452.77 1015.08 Q1450.96 1011.52 1447.33 1011.52 M1447.33 1007.81 Q1453.14 1007.81 1456.19 1012.42 Q1459.27 1017 1459.27 1025.75 Q1459.27 1034.48 1456.19 1039.09 Q1453.14 1043.67 1447.33 1043.67 Q1441.52 1043.67 1438.44 1039.09 Q1435.38 1034.48 1435.38 1025.75 Q1435.38 1017 1438.44 1012.42 Q1441.52 1007.81 1447.33 1007.81 Z" fill="#000000" fill-rule="nonzero" fill-opacity="1" /><path clip-path="url(#clip650)" d="M1467.49 1037.12 L1472.37 1037.12 L1472.37 1043 L1467.49 1043 L1467.49 1037.12 Z" fill="#000000" fill-rule="nonzero" fill-opacity="1" /><path clip-path="url(#clip650)" d="M1483.37 1039.06 L1491.01 1039.06 L1491.01 1012.7 L1482.7 1014.37 L1482.7 1010.11 L1490.96 1008.44 L1495.64 1008.44 L1495.64 1039.06 L1503.27 1039.06 L1503.27 1043 L1483.37 1043 L1483.37 1039.06 Z" fill="#000000" fill-rule="nonzero" fill-opacity="1" /><path clip-path="url(#clip650)" d="M1513.2 1037.12 L1518.09 1037.12 L1518.09 1041.1 L1514.29 1048.51 L1511.31 1048.51 L1513.2 1041.1 L1513.2 1037.12 Z" fill="#000000" fill-rule="nonzero" fill-opacity="1" /><path clip-path="url(#clip650)" d="M1546.47 1009.71 L1546.47 1017.07 L1555.24 1017.07 L1555.24 1020.38 L1546.47 1020.38 L1546.47 1034.46 Q1546.47 1037.63 1547.33 1038.53 Q1548.2 1039.43 1550.87 1039.43 L1555.24 1039.43 L1555.24 1043 L1550.87 1043 Q1545.94 1043 1544.06 1041.17 Q1542.19 1039.32 1542.19 1034.46 L1542.19 1020.38 L1539.06 1020.38 L1539.06 1017.07 L1542.19 1017.07 L1542.19 1009.71 L1546.47 1009.71 Z" fill="#000000" fill-rule="nonzero" fill-opacity="1" /><path clip-path="url(#clip650)" d="M1560.84 1017.07 L1565.1 1017.07 L1565.1 1043 L1560.84 1043 L1560.84 1017.07 M1560.84 1006.98 L1565.1 1006.98 L1565.1 1012.37 L1560.84 1012.37 L1560.84 1006.98 Z" fill="#000000" fill-rule="nonzero" fill-opacity="1" /><path clip-path="url(#clip650)" d="M1594.2 1022.05 Q1595.8 1019.18 1598.02 1017.81 Q1600.24 1016.45 1603.25 1016.45 Q1607.3 1016.45 1609.5 1019.3 Q1611.7 1022.12 1611.7 1027.35 L1611.7 1043 L1607.42 1043 L1607.42 1027.49 Q1607.42 1023.76 1606.1 1021.96 Q1604.78 1020.15 1602.07 1020.15 Q1598.76 1020.15 1596.84 1022.35 Q1594.92 1024.55 1594.92 1028.35 L1594.92 1043 L1590.64 1043 L1590.64 1027.49 Q1590.64 1023.74 1589.32 1021.96 Q1588 1020.15 1585.24 1020.15 Q1581.98 1020.15 1580.06 1022.37 Q1578.14 1024.57 1578.14 1028.35 L1578.14 1043 L1573.85 1043 L1573.85 1017.07 L1578.14 1017.07 L1578.14 1021.1 Q1579.59 1018.72 1581.63 1017.58 Q1583.67 1016.45 1586.47 1016.45 Q1589.29 1016.45 1591.26 1017.88 Q1593.25 1019.32 1594.2 1022.05 Z" fill="#000000" fill-rule="nonzero" fill-opacity="1" /><path clip-path="url(#clip650)" d="M1642.37 1028.97 L1642.37 1031.06 L1622.79 1031.06 Q1623.07 1035.45 1625.43 1037.77 Q1627.81 1040.06 1632.05 1040.06 Q1634.5 1040.06 1636.79 1039.46 Q1639.11 1038.86 1641.38 1037.65 L1641.38 1041.68 Q1639.08 1042.65 1636.68 1043.16 Q1634.27 1043.67 1631.79 1043.67 Q1625.59 1043.67 1621.95 1040.06 Q1618.34 1036.45 1618.34 1030.29 Q1618.34 1023.93 1621.77 1020.2 Q1625.22 1016.45 1631.05 1016.45 Q1636.28 1016.45 1639.32 1019.83 Q1642.37 1023.19 1642.37 1028.97 M1638.11 1027.72 Q1638.07 1024.23 1636.14 1022.14 Q1634.25 1020.06 1631.1 1020.06 Q1627.53 1020.06 1625.38 1022.07 Q1623.25 1024.09 1622.93 1027.75 L1638.11 1027.72 Z" fill="#000000" fill-rule="nonzero" fill-opacity="1" /><path clip-path="url(#clip650)" d="M1664.99 1021.47 L1694.66 1021.47 L1694.66 1025.36 L1664.99 1025.36 L1664.99 1021.47 M1664.99 1030.92 L1694.66 1030.92 L1694.66 1034.85 L1664.99 1034.85 L1664.99 1030.92 Z" fill="#000000" fill-rule="nonzero" fill-opacity="1" /><path clip-path="url(#clip650)" d="M1720.63 1039.06 L1728.27 1039.06 L1728.27 1012.7 L1719.96 1014.37 L1719.96 1010.11 L1728.23 1008.44 L1732.9 1008.44 L1732.9 1039.06 L1740.54 1039.06 L1740.54 1043 L1720.63 1043 L1720.63 1039.06 Z" fill="#000000" fill-rule="nonzero" fill-opacity="1" /><path clip-path="url(#clip650)" d="M1749.99 1037.12 L1754.87 1037.12 L1754.87 1043 L1749.99 1043 L1749.99 1037.12 Z" fill="#000000" fill-rule="nonzero" fill-opacity="1" /><path clip-path="url(#clip650)" d="M1765.1 1008.44 L1783.46 1008.44 L1783.46 1012.37 L1769.38 1012.37 L1769.38 1020.85 Q1770.4 1020.5 1771.42 1020.34 Q1772.44 1020.15 1773.46 1020.15 Q1779.25 1020.15 1782.62 1023.32 Q1786 1026.5 1786 1031.91 Q1786 1037.49 1782.53 1040.59 Q1779.06 1043.67 1772.74 1043.67 Q1770.56 1043.67 1768.3 1043.3 Q1766.05 1042.93 1763.64 1042.19 L1763.64 1037.49 Q1765.73 1038.62 1767.95 1039.18 Q1770.17 1039.74 1772.65 1039.74 Q1776.65 1039.74 1778.99 1037.63 Q1781.33 1035.52 1781.33 1031.91 Q1781.33 1028.3 1778.99 1026.19 Q1776.65 1024.09 1772.65 1024.09 Q1770.77 1024.09 1768.9 1024.5 Q1767.05 1024.92 1765.1 1025.8 L1765.1 1008.44 Z" fill="#000000" fill-rule="nonzero" fill-opacity="1" /><path clip-path="url(#clip650)" d="M1805.8 1023.86 Q1802.65 1023.86 1800.8 1026.01 Q1798.97 1028.16 1798.97 1031.91 Q1798.97 1035.64 1800.8 1037.81 Q1802.65 1039.97 1805.8 1039.97 Q1808.94 1039.97 1810.77 1037.81 Q1812.62 1035.64 1812.62 1031.91 Q1812.62 1028.16 1810.77 1026.01 Q1808.94 1023.86 1805.8 1023.86 M1815.08 1009.2 L1815.08 1013.46 Q1813.32 1012.63 1811.51 1012.19 Q1809.73 1011.75 1807.97 1011.75 Q1803.34 1011.75 1800.89 1014.87 Q1798.46 1018 1798.11 1024.32 Q1799.48 1022.31 1801.54 1021.24 Q1803.6 1020.15 1806.07 1020.15 Q1811.28 1020.15 1814.29 1023.32 Q1817.32 1026.47 1817.32 1031.91 Q1817.32 1037.24 1814.18 1040.45 Q1811.03 1043.67 1805.8 1043.67 Q1799.8 1043.67 1796.63 1039.09 Q1793.46 1034.48 1793.46 1025.75 Q1793.46 1017.56 1797.35 1012.7 Q1801.24 1007.81 1807.79 1007.81 Q1809.55 1007.81 1811.33 1008.16 Q1813.13 1008.51 1815.08 1009.2 Z" fill="#000000" fill-rule="nonzero" fill-opacity="1" /><path clip-path="url(#clip650)" d="M1825.52 1042.28 L1825.52 1038.02 Q1827.28 1038.86 1829.08 1039.3 Q1830.89 1039.74 1832.62 1039.74 Q1837.25 1039.74 1839.68 1036.63 Q1842.14 1033.51 1842.49 1027.17 Q1841.14 1029.16 1839.08 1030.22 Q1837.02 1031.29 1834.52 1031.29 Q1829.34 1031.29 1826.31 1028.16 Q1823.3 1025.01 1823.3 1019.57 Q1823.3 1014.25 1826.44 1011.03 Q1829.59 1007.81 1834.82 1007.81 Q1840.82 1007.81 1843.97 1012.42 Q1847.14 1017 1847.14 1025.75 Q1847.14 1033.93 1843.25 1038.81 Q1839.38 1043.67 1832.83 1043.67 Q1831.07 1043.67 1829.27 1043.32 Q1827.46 1042.98 1825.52 1042.28 M1834.82 1027.63 Q1837.97 1027.63 1839.8 1025.48 Q1841.65 1023.32 1841.65 1019.57 Q1841.65 1015.85 1839.8 1013.69 Q1837.97 1011.52 1834.82 1011.52 Q1831.68 1011.52 1829.82 1013.69 Q1827.99 1015.85 1827.99 1019.57 Q1827.99 1023.32 1829.82 1025.48 Q1831.68 1027.63 1834.82 1027.63 Z" fill="#000000" fill-rule="nonzero" fill-opacity="1" /></svg>
