<?xml version="1.0" encoding="utf-8"?>
<svg xmlns="http://www.w3.org/2000/svg" xmlns:xlink="http://www.w3.org/1999/xlink" width="500" height="320" viewBox="0 0 2000 1280">
<defs>
  <clipPath id="clip280">
    <rect x="0" y="0" width="2000" height="1280"/>
  </clipPath>
</defs>
<path clip-path="url(#clip280)" d="M0 1280 L2000 1280 L2000 0 L0 0  Z" fill="#ffffff" fill-rule="evenodd" fill-opacity="1"/>
<defs>
  <clipPath id="clip281">
    <rect x="400" y="0" width="1401" height="1280"/>
  </clipPath>
</defs>
<path clip-path="url(#clip280)" d="M245.244 1111.02 L1952.76 1111.02 L1952.76 107.256 L245.244 107.256  Z" fill="#ffffff" fill-rule="evenodd" fill-opacity="1"/>
<defs>
  <clipPath id="clip282">
    <rect x="245" y="107" width="1709" height="1005"/>
  </clipPath>
</defs>
<polyline clip-path="url(#clip282)" style="stroke:#000000; stroke-linecap:round; stroke-linejoin:round; stroke-width:2; stroke-opacity:0.1; fill:none" points="293.57,1111.02 293.57,107.256 "/>
<polyline clip-path="url(#clip282)" style="stroke:#000000; stroke-linecap:round; stroke-linejoin:round; stroke-width:2; stroke-opacity:0.1; fill:none" points="549.262,1111.02 549.262,107.256 "/>
<polyline clip-path="url(#clip282)" style="stroke:#000000; stroke-linecap:round; stroke-linejoin:round; stroke-width:2; stroke-opacity:0.1; fill:none" points="804.954,1111.02 804.954,107.256 "/>
<polyline clip-path="url(#clip282)" style="stroke:#000000; stroke-linecap:round; stroke-linejoin:round; stroke-width:2; stroke-opacity:0.1; fill:none" points="1060.65,1111.02 1060.65,107.256 "/>
<polyline clip-path="url(#clip282)" style="stroke:#000000; stroke-linecap:round; stroke-linejoin:round; stroke-width:2; stroke-opacity:0.1; fill:none" points="1316.34,1111.02 1316.34,107.256 "/>
<polyline clip-path="url(#clip282)" style="stroke:#000000; stroke-linecap:round; stroke-linejoin:round; stroke-width:2; stroke-opacity:0.1; fill:none" points="1572.03,1111.02 1572.03,107.256 "/>
<polyline clip-path="url(#clip282)" style="stroke:#000000; stroke-linecap:round; stroke-linejoin:round; stroke-width:2; stroke-opacity:0.1; fill:none" points="1827.72,1111.02 1827.72,107.256 "/>
<polyline clip-path="url(#clip282)" style="stroke:#000000; stroke-linecap:round; stroke-linejoin:round; stroke-width:2; stroke-opacity:0.1; fill:none" points="245.244,1069.51 1952.76,1069.51 "/>
<polyline clip-path="url(#clip282)" style="stroke:#000000; stroke-linecap:round; stroke-linejoin:round; stroke-width:2; stroke-opacity:0.1; fill:none" points="245.244,570.894 1952.76,570.894 "/>
<polyline clip-path="url(#clip280)" style="stroke:#000000; stroke-linecap:round; stroke-linejoin:round; stroke-width:4; stroke-opacity:1; fill:none" points="245.244,1111.02 1952.76,1111.02 "/>
<polyline clip-path="url(#clip280)" style="stroke:#000000; stroke-linecap:round; stroke-linejoin:round; stroke-width:4; stroke-opacity:1; fill:none" points="293.57,1111.02 293.57,1092.12 "/>
<polyline clip-path="url(#clip280)" style="stroke:#000000; stroke-linecap:round; stroke-linejoin:round; stroke-width:4; stroke-opacity:1; fill:none" points="549.262,1111.02 549.262,1092.12 "/>
<polyline clip-path="url(#clip280)" style="stroke:#000000; stroke-linecap:round; stroke-linejoin:round; stroke-width:4; stroke-opacity:1; fill:none" points="804.954,1111.02 804.954,1092.12 "/>
<polyline clip-path="url(#clip280)" style="stroke:#000000; stroke-linecap:round; stroke-linejoin:round; stroke-width:4; stroke-opacity:1; fill:none" points="1060.65,1111.02 1060.65,1092.12 "/>
<polyline clip-path="url(#clip280)" style="stroke:#000000; stroke-linecap:round; stroke-linejoin:round; stroke-width:4; stroke-opacity:1; fill:none" points="1316.34,1111.02 1316.34,1092.12 "/>
<polyline clip-path="url(#clip280)" style="stroke:#000000; stroke-linecap:round; stroke-linejoin:round; stroke-width:4; stroke-opacity:1; fill:none" points="1572.03,1111.02 1572.03,1092.12 "/>
<polyline clip-path="url(#clip280)" style="stroke:#000000; stroke-linecap:round; stroke-linejoin:round; stroke-width:4; stroke-opacity:1; fill:none" points="1827.72,1111.02 1827.72,1092.12 "/>
<path clip-path="url(#clip280)" d="M293.57 1138.74 Q289.959 1138.74 288.13 1142.3 Q286.325 1145.84 286.325 1152.97 Q286.325 1160.08 288.13 1163.64 Q289.959 1167.19 293.57 1167.19 Q297.204 1167.19 299.01 1163.64 Q300.839 1160.08 300.839 1152.97 Q300.839 1145.84 299.01 1142.3 Q297.204 1138.74 293.57 1138.74 M293.57 1135.03 Q299.38 1135.03 302.436 1139.64 Q305.515 1144.22 305.515 1152.97 Q305.515 1161.7 302.436 1166.31 Q299.38 1170.89 293.57 1170.89 Q287.76 1170.89 284.681 1166.31 Q281.626 1161.7 281.626 1152.97 Q281.626 1144.22 284.681 1139.64 Q287.76 1135.03 293.57 1135.03 Z" fill="#000000" fill-rule="nonzero" fill-opacity="1" /><path clip-path="url(#clip280)" d="M523.95 1166.28 L531.589 1166.28 L531.589 1139.92 L523.279 1141.58 L523.279 1137.33 L531.542 1135.66 L536.218 1135.66 L536.218 1166.28 L543.857 1166.28 L543.857 1170.22 L523.95 1170.22 L523.95 1166.28 Z" fill="#000000" fill-rule="nonzero" fill-opacity="1" /><path clip-path="url(#clip280)" d="M563.302 1138.74 Q559.69 1138.74 557.862 1142.3 Q556.056 1145.84 556.056 1152.97 Q556.056 1160.08 557.862 1163.64 Q559.69 1167.19 563.302 1167.19 Q566.936 1167.19 568.741 1163.64 Q570.57 1160.08 570.57 1152.97 Q570.57 1145.84 568.741 1142.3 Q566.936 1138.74 563.302 1138.74 M563.302 1135.03 Q569.112 1135.03 572.167 1139.64 Q575.246 1144.22 575.246 1152.97 Q575.246 1161.7 572.167 1166.31 Q569.112 1170.89 563.302 1170.89 Q557.491 1170.89 554.413 1166.31 Q551.357 1161.7 551.357 1152.97 Q551.357 1144.22 554.413 1139.64 Q557.491 1135.03 563.302 1135.03 Z" fill="#000000" fill-rule="nonzero" fill-opacity="1" /><path clip-path="url(#clip280)" d="M783.728 1166.28 L800.047 1166.28 L800.047 1170.22 L778.103 1170.22 L778.103 1166.28 Q780.765 1163.53 785.348 1158.9 Q789.954 1154.25 791.135 1152.9 Q793.38 1150.38 794.26 1148.64 Q795.163 1146.89 795.163 1145.2 Q795.163 1142.44 793.218 1140.7 Q791.297 1138.97 788.195 1138.97 Q785.996 1138.97 783.542 1139.73 Q781.112 1140.5 778.334 1142.05 L778.334 1137.33 Q781.158 1136.19 783.612 1135.61 Q786.066 1135.03 788.103 1135.03 Q793.473 1135.03 796.667 1137.72 Q799.862 1140.4 799.862 1144.89 Q799.862 1147.02 799.052 1148.95 Q798.265 1150.84 796.158 1153.44 Q795.579 1154.11 792.478 1157.33 Q789.376 1160.52 783.728 1166.28 Z" fill="#000000" fill-rule="nonzero" fill-opacity="1" /><path clip-path="url(#clip280)" d="M819.862 1138.74 Q816.251 1138.74 814.422 1142.3 Q812.616 1145.84 812.616 1152.97 Q812.616 1160.08 814.422 1163.64 Q816.251 1167.19 819.862 1167.19 Q823.496 1167.19 825.301 1163.64 Q827.13 1160.08 827.13 1152.97 Q827.13 1145.84 825.301 1142.3 Q823.496 1138.74 819.862 1138.74 M819.862 1135.03 Q825.672 1135.03 828.727 1139.64 Q831.806 1144.22 831.806 1152.97 Q831.806 1161.7 828.727 1166.31 Q825.672 1170.89 819.862 1170.89 Q814.051 1170.89 810.973 1166.31 Q807.917 1161.7 807.917 1152.97 Q807.917 1144.22 810.973 1139.64 Q814.051 1135.03 819.862 1135.03 Z" fill="#000000" fill-rule="nonzero" fill-opacity="1" /><path clip-path="url(#clip280)" d="M1049.49 1151.58 Q1052.85 1152.3 1054.72 1154.57 Q1056.62 1156.84 1056.62 1160.17 Q1056.62 1165.29 1053.1 1168.09 Q1049.58 1170.89 1043.1 1170.89 Q1040.92 1170.89 1038.61 1170.45 Q1036.32 1170.03 1033.86 1169.18 L1033.86 1164.66 Q1035.81 1165.8 1038.12 1166.38 Q1040.44 1166.95 1042.96 1166.95 Q1047.36 1166.95 1049.65 1165.22 Q1051.97 1163.48 1051.97 1160.17 Q1051.97 1157.12 1049.81 1155.4 Q1047.68 1153.67 1043.86 1153.67 L1039.84 1153.67 L1039.84 1149.83 L1044.05 1149.83 Q1047.5 1149.83 1049.33 1148.46 Q1051.16 1147.07 1051.16 1144.48 Q1051.16 1141.82 1049.26 1140.4 Q1047.38 1138.97 1043.86 1138.97 Q1041.94 1138.97 1039.74 1139.39 Q1037.54 1139.8 1034.91 1140.68 L1034.91 1136.51 Q1037.57 1135.77 1039.88 1135.4 Q1042.22 1135.03 1044.28 1135.03 Q1049.6 1135.03 1052.71 1137.46 Q1055.81 1139.87 1055.81 1143.99 Q1055.81 1146.86 1054.16 1148.85 Q1052.52 1150.82 1049.49 1151.58 Z" fill="#000000" fill-rule="nonzero" fill-opacity="1" /><path clip-path="url(#clip280)" d="M1075.48 1138.74 Q1071.87 1138.74 1070.04 1142.3 Q1068.24 1145.84 1068.24 1152.97 Q1068.24 1160.08 1070.04 1163.64 Q1071.87 1167.19 1075.48 1167.19 Q1079.12 1167.19 1080.92 1163.64 Q1082.75 1160.08 1082.75 1152.97 Q1082.75 1145.84 1080.92 1142.3 Q1079.12 1138.74 1075.48 1138.74 M1075.48 1135.03 Q1081.29 1135.03 1084.35 1139.64 Q1087.43 1144.22 1087.43 1152.97 Q1087.43 1161.7 1084.35 1166.31 Q1081.29 1170.89 1075.48 1170.89 Q1069.67 1170.89 1066.6 1166.31 Q1063.54 1161.7 1063.54 1152.97 Q1063.54 1144.22 1066.6 1139.64 Q1069.67 1135.03 1075.48 1135.03 Z" fill="#000000" fill-rule="nonzero" fill-opacity="1" /><path clip-path="url(#clip280)" d="M1304.51 1139.73 L1292.7 1158.18 L1304.51 1158.18 L1304.51 1139.73 M1303.28 1135.66 L1309.16 1135.66 L1309.16 1158.18 L1314.09 1158.18 L1314.09 1162.07 L1309.16 1162.07 L1309.16 1170.22 L1304.51 1170.22 L1304.51 1162.07 L1288.91 1162.07 L1288.91 1157.56 L1303.28 1135.66 Z" fill="#000000" fill-rule="nonzero" fill-opacity="1" /><path clip-path="url(#clip280)" d="M1331.82 1138.74 Q1328.21 1138.74 1326.38 1142.3 Q1324.58 1145.84 1324.58 1152.97 Q1324.58 1160.08 1326.38 1163.64 Q1328.21 1167.19 1331.82 1167.19 Q1335.46 1167.19 1337.26 1163.64 Q1339.09 1160.08 1339.09 1152.97 Q1339.09 1145.84 1337.26 1142.3 Q1335.46 1138.74 1331.82 1138.74 M1331.82 1135.03 Q1337.63 1135.03 1340.69 1139.64 Q1343.77 1144.22 1343.77 1152.97 Q1343.77 1161.7 1340.69 1166.31 Q1337.63 1170.89 1331.82 1170.89 Q1326.01 1170.89 1322.94 1166.31 Q1319.88 1161.7 1319.88 1152.97 Q1319.88 1144.22 1322.94 1139.64 Q1326.01 1135.03 1331.82 1135.03 Z" fill="#000000" fill-rule="nonzero" fill-opacity="1" /><path clip-path="url(#clip280)" d="M1546.73 1135.66 L1565.09 1135.66 L1565.09 1139.59 L1551.01 1139.59 L1551.01 1148.07 Q1552.03 1147.72 1553.05 1147.56 Q1554.07 1147.37 1555.09 1147.37 Q1560.87 1147.37 1564.25 1150.54 Q1567.63 1153.71 1567.63 1159.13 Q1567.63 1164.71 1564.16 1167.81 Q1560.69 1170.89 1554.37 1170.89 Q1552.19 1170.89 1549.92 1170.52 Q1547.68 1170.15 1545.27 1169.41 L1545.27 1164.71 Q1547.35 1165.84 1549.58 1166.4 Q1551.8 1166.95 1554.28 1166.95 Q1558.28 1166.95 1560.62 1164.85 Q1562.96 1162.74 1562.96 1159.13 Q1562.96 1155.52 1560.62 1153.41 Q1558.28 1151.31 1554.28 1151.31 Q1552.4 1151.31 1550.53 1151.72 Q1548.67 1152.14 1546.73 1153.02 L1546.73 1135.66 Z" fill="#000000" fill-rule="nonzero" fill-opacity="1" /><path clip-path="url(#clip280)" d="M1586.85 1138.74 Q1583.23 1138.74 1581.41 1142.3 Q1579.6 1145.84 1579.6 1152.97 Q1579.6 1160.08 1581.41 1163.64 Q1583.23 1167.19 1586.85 1167.19 Q1590.48 1167.19 1592.28 1163.64 Q1594.11 1160.08 1594.11 1152.97 Q1594.11 1145.84 1592.28 1142.3 Q1590.48 1138.74 1586.85 1138.74 M1586.85 1135.03 Q1592.66 1135.03 1595.71 1139.64 Q1598.79 1144.22 1598.79 1152.97 Q1598.79 1161.7 1595.71 1166.31 Q1592.66 1170.89 1586.85 1170.89 Q1581.04 1170.89 1577.96 1166.31 Q1574.9 1161.7 1574.9 1152.97 Q1574.9 1144.22 1577.96 1139.64 Q1581.04 1135.03 1586.85 1135.03 Z" fill="#000000" fill-rule="nonzero" fill-opacity="1" /><path clip-path="url(#clip280)" d="M1813.13 1151.08 Q1809.98 1151.08 1808.13 1153.23 Q1806.3 1155.38 1806.3 1159.13 Q1806.3 1162.86 1808.13 1165.03 Q1809.98 1167.19 1813.13 1167.19 Q1816.28 1167.19 1818.1 1165.03 Q1819.96 1162.86 1819.96 1159.13 Q1819.96 1155.38 1818.1 1153.23 Q1816.28 1151.08 1813.13 1151.08 M1822.41 1136.42 L1822.41 1140.68 Q1820.65 1139.85 1818.85 1139.41 Q1817.06 1138.97 1815.3 1138.97 Q1810.67 1138.97 1808.22 1142.09 Q1805.79 1145.22 1805.44 1151.54 Q1806.81 1149.52 1808.87 1148.46 Q1810.93 1147.37 1813.41 1147.37 Q1818.61 1147.37 1821.62 1150.54 Q1824.66 1153.69 1824.66 1159.13 Q1824.66 1164.45 1821.51 1167.67 Q1818.36 1170.89 1813.13 1170.89 Q1807.13 1170.89 1803.96 1166.31 Q1800.79 1161.7 1800.79 1152.97 Q1800.79 1144.78 1804.68 1139.92 Q1808.57 1135.03 1815.12 1135.03 Q1816.88 1135.03 1818.66 1135.38 Q1820.47 1135.73 1822.41 1136.42 Z" fill="#000000" fill-rule="nonzero" fill-opacity="1" /><path clip-path="url(#clip280)" d="M1842.71 1138.74 Q1839.1 1138.74 1837.27 1142.3 Q1835.47 1145.84 1835.47 1152.97 Q1835.47 1160.08 1837.27 1163.64 Q1839.1 1167.19 1842.71 1167.19 Q1846.35 1167.19 1848.15 1163.64 Q1849.98 1160.08 1849.98 1152.97 Q1849.98 1145.84 1848.15 1142.3 Q1846.35 1138.74 1842.71 1138.74 M1842.71 1135.03 Q1848.52 1135.03 1851.58 1139.64 Q1854.66 1144.22 1854.66 1152.97 Q1854.66 1161.7 1851.58 1166.31 Q1848.52 1170.89 1842.71 1170.89 Q1836.9 1170.89 1833.82 1166.31 Q1830.77 1161.7 1830.77 1152.97 Q1830.77 1144.22 1833.82 1139.64 Q1836.9 1135.03 1842.71 1135.03 Z" fill="#000000" fill-rule="nonzero" fill-opacity="1" /><g clip-path="url(#clip280)">
<text style="fill:#000000; fill-opacity:1; font-family:Arial,Helvetica Neue,Helvetica,sans-serif; font-size:66px; text-anchor:middle;" transform="rotate(0, 1099, 1252.42)" x="1099" y="1252.42">Krylov dimension</text>
</g>
<polyline clip-path="url(#clip280)" style="stroke:#000000; stroke-linecap:round; stroke-linejoin:round; stroke-width:4; stroke-opacity:1; fill:none" points="245.244,1111.02 245.244,107.256 "/>
<polyline clip-path="url(#clip280)" style="stroke:#000000; stroke-linecap:round; stroke-linejoin:round; stroke-width:4; stroke-opacity:1; fill:none" points="245.244,1069.51 264.142,1069.51 "/>
<polyline clip-path="url(#clip280)" style="stroke:#000000; stroke-linecap:round; stroke-linejoin:round; stroke-width:4; stroke-opacity:1; fill:none" points="245.244,570.894 264.142,570.894 "/>
<path clip-path="url(#clip280)" d="M113.675 1089.3 L121.314 1089.3 L121.314 1062.94 L113.004 1064.6 L113.004 1060.35 L121.268 1058.68 L125.944 1058.68 L125.944 1089.3 L133.583 1089.3 L133.583 1093.24 L113.675 1093.24 L113.675 1089.3 Z" fill="#000000" fill-rule="nonzero" fill-opacity="1" /><path clip-path="url(#clip280)" d="M153.027 1061.76 Q149.416 1061.76 147.587 1065.32 Q145.782 1068.86 145.782 1075.99 Q145.782 1083.1 147.587 1086.66 Q149.416 1090.21 153.027 1090.21 Q156.661 1090.21 158.467 1086.66 Q160.295 1083.1 160.295 1075.99 Q160.295 1068.86 158.467 1065.32 Q156.661 1061.76 153.027 1061.76 M153.027 1058.05 Q158.837 1058.05 161.893 1062.66 Q164.971 1067.24 164.971 1075.99 Q164.971 1084.72 161.893 1089.33 Q158.837 1093.91 153.027 1093.91 Q147.217 1093.91 144.138 1089.33 Q141.082 1084.72 141.082 1075.99 Q141.082 1067.24 144.138 1062.66 Q147.217 1058.05 153.027 1058.05 Z" fill="#000000" fill-rule="nonzero" fill-opacity="1" /><path clip-path="url(#clip280)" d="M164.971 1052.16 L189.083 1052.16 L189.083 1055.35 L164.971 1055.35 L164.971 1052.16 Z" fill="#000000" fill-rule="nonzero" fill-opacity="1" /><path clip-path="url(#clip280)" d="M205.878 1050.27 Q203.32 1050.27 201.816 1052.02 Q200.33 1053.77 200.33 1056.82 Q200.33 1059.85 201.816 1061.62 Q203.32 1063.36 205.878 1063.36 Q208.436 1063.36 209.922 1061.62 Q211.426 1059.85 211.426 1056.82 Q211.426 1053.77 209.922 1052.02 Q208.436 1050.27 205.878 1050.27 M213.42 1038.37 L213.42 1041.83 Q211.991 1041.15 210.524 1040.8 Q209.075 1040.44 207.646 1040.44 Q203.885 1040.44 201.891 1042.98 Q199.916 1045.52 199.634 1050.65 Q200.744 1049.01 202.417 1048.15 Q204.091 1047.27 206.104 1047.27 Q210.336 1047.27 212.781 1049.84 Q215.244 1052.4 215.244 1056.82 Q215.244 1061.15 212.687 1063.76 Q210.129 1066.37 205.878 1066.37 Q201.007 1066.37 198.43 1062.65 Q195.854 1058.91 195.854 1051.82 Q195.854 1045.16 199.013 1041.21 Q202.173 1037.24 207.496 1037.24 Q208.925 1037.24 210.373 1037.52 Q211.84 1037.8 213.42 1038.37 Z" fill="#000000" fill-rule="nonzero" fill-opacity="1" /><path clip-path="url(#clip280)" d="M114.333 590.687 L121.972 590.687 L121.972 564.321 L113.662 565.988 L113.662 561.728 L121.926 560.062 L126.602 560.062 L126.602 590.687 L134.241 590.687 L134.241 594.622 L114.333 594.622 L114.333 590.687 Z" fill="#000000" fill-rule="nonzero" fill-opacity="1" /><path clip-path="url(#clip280)" d="M153.685 563.14 Q150.074 563.14 148.245 566.705 Q146.44 570.247 146.44 577.376 Q146.44 584.483 148.245 588.048 Q150.074 591.589 153.685 591.589 Q157.319 591.589 159.125 588.048 Q160.954 584.483 160.954 577.376 Q160.954 570.247 159.125 566.705 Q157.319 563.14 153.685 563.14 M153.685 559.437 Q159.495 559.437 162.551 564.043 Q165.629 568.627 165.629 577.376 Q165.629 586.103 162.551 590.71 Q159.495 595.293 153.685 595.293 Q147.875 595.293 144.796 590.71 Q141.741 586.103 141.741 577.376 Q141.741 568.627 144.796 564.043 Q147.875 559.437 153.685 559.437 Z" fill="#000000" fill-rule="nonzero" fill-opacity="1" /><path clip-path="url(#clip280)" d="M165.629 553.538 L189.741 553.538 L189.741 556.735 L165.629 556.735 L165.629 553.538 Z" fill="#000000" fill-rule="nonzero" fill-opacity="1" /><path clip-path="url(#clip280)" d="M209.452 552.071 Q212.179 552.654 213.702 554.497 Q215.244 556.34 215.244 559.049 Q215.244 563.205 212.386 565.481 Q209.527 567.757 204.261 567.757 Q202.493 567.757 200.612 567.399 Q198.75 567.061 196.756 566.365 L196.756 562.698 Q198.336 563.619 200.217 564.089 Q202.098 564.559 204.148 564.559 Q207.721 564.559 209.583 563.149 Q211.464 561.738 211.464 559.049 Q211.464 556.566 209.715 555.174 Q207.985 553.764 204.881 553.764 L201.609 553.764 L201.609 550.642 L205.032 550.642 Q207.834 550.642 209.32 549.532 Q210.806 548.404 210.806 546.297 Q210.806 544.134 209.264 542.987 Q207.74 541.821 204.881 541.821 Q203.32 541.821 201.534 542.159 Q199.747 542.498 197.603 543.213 L197.603 539.827 Q199.766 539.225 201.646 538.924 Q203.546 538.624 205.22 538.624 Q209.546 538.624 212.066 540.598 Q214.586 542.554 214.586 545.902 Q214.586 548.234 213.251 549.852 Q211.915 551.45 209.452 552.071 Z" fill="#000000" fill-rule="nonzero" fill-opacity="1" /><g clip-path="url(#clip280)">
<text style="fill:#000000; fill-opacity:1; font-family:Arial,Helvetica Neue,Helvetica,sans-serif; font-size:66px; text-anchor:middle;" transform="rotate(-90, 71.4418, 609.137)" x="71.4418" y="609.137">relative residual norm</text>
</g>
<g clip-path="url(#clip280)">
<text style="fill:#000000; fill-opacity:1; font-family:Arial,Helvetica Neue,Helvetica,sans-serif; font-size:66px; text-anchor:middle;" transform="rotate(0, 1099, 57.6)" x="1099" y="57.6">Convergence of MINRES and CG</text>
</g>
<polyline clip-path="url(#clip282)" style="stroke:#009af9; stroke-linecap:round; stroke-linejoin:round; stroke-width:8; stroke-opacity:1; fill:none" points="293.57,141.413 319.139,184.432 344.709,215.019 370.278,240.565 395.847,262.055 421.416,281.72 446.985,298.699 472.555,315.109 498.124,330.319 523.693,344.901 549.262,359.907 574.831,373.946 600.401,387.92 625.97,402.345 651.539,416.043 677.108,430.026 702.677,443.965 728.247,458.233 753.816,472.531 779.385,486.902 804.954,500.88 830.523,515.287 856.093,529.597 881.662,543.757 907.231,558.245 932.8,572.825 958.37,587.003 983.939,600.766 1009.51,615.311 1035.08,630.155 1060.65,644.578 1086.22,659.029 1111.78,673.356 1137.35,687.629 1162.92,701.874 1188.49,716.446 1214.06,730.876 1239.63,744.91 1265.2,759.423 1290.77,774.106 1316.34,789.027 1341.91,803.462 1367.48,817.677 1393.05,832.371 1418.62,846.636 1444.18,860.868 1469.75,875.153 1495.32,890.022 1520.89,904.35 1546.46,918.924 1572.03,933.814 1597.6,948.479 1623.17,962.889 1648.74,976.914 1674.31,992.152 1699.88,1006.33 1725.45,1020.73 1751.01,1035.28 1776.58,1049.75 1802.15,1063.59 1827.72,1077.92 "/>
<polyline clip-path="url(#clip282)" style="stroke:#e26f46; stroke-linecap:round; stroke-linejoin:round; stroke-width:8; stroke-opacity:1; fill:none" points="293.57,135.664 319.139,171.372 344.709,194.826 370.278,216.071 395.847,233.129 421.416,250.419 446.985,263.327 472.555,278.768 498.124,291.795 523.693,305.149 549.262,320.989 574.831,333.076 600.401,346.914 625.97,362.272 651.539,374.445 677.108,389.04 702.677,402.883 728.247,417.84 753.816,432.201 779.385,446.721 804.954,459.881 830.523,475.179 856.093,489.291 881.662,503.139 907.231,518.301 932.8,533.068 958.37,546.424 983.939,559.31 1009.51,575.481 1035.08,590.922 1060.65,604.503 1086.22,619.012 1111.78,633.083 1137.35,647.246 1162.92,661.435 1188.49,676.672 1214.06,690.816 1239.63,704.029 1265.2,719.531 1290.77,734.554 1316.34,749.947 1341.91,763.412 1367.48,777.174 1393.05,792.839 1418.62,806.237 1444.18,820.402 1469.75,834.794 1495.32,850.839 1520.89,864.081 1546.46,879.155 1572.03,894.669 1597.6,908.893 1623.17,922.788 1648.74,936.013 1674.31,953.68 1699.88,965.758 1725.45,980.604 1751.01,995.468 1776.58,1009.78 1802.15,1022.3 1827.72,1037.66 1853.29,1052.85 1878.86,1067.61 1904.43,1082.61 "/>
<path clip-path="url(#clip280)" d="M1570 296.235 L1895.84 296.235 L1895.84 140.715 L1570 140.715  Z" fill="#ffffff" fill-rule="evenodd" fill-opacity="1"/>
<polyline clip-path="url(#clip280)" style="stroke:#000000; stroke-linecap:round; stroke-linejoin:round; stroke-width:4; stroke-opacity:1; fill:none" points="1570,296.235 1895.84,296.235 1895.84,140.715 1570,140.715 1570,296.235 "/>
<polyline clip-path="url(#clip280)" style="stroke:#009af9; stroke-linecap:round; stroke-linejoin:round; stroke-width:8; stroke-opacity:1; fill:none" points="1588.97,192.555 1702.8,192.555 "/>
<path clip-path="url(#clip280)" d="M1742.12 188.886 Q1743.72 186.015 1745.94 184.65 Q1748.16 183.284 1751.17 183.284 Q1755.22 183.284 1757.42 186.131 Q1759.62 188.955 1759.62 194.187 L1759.62 209.835 L1755.34 209.835 L1755.34 194.325 Q1755.34 190.599 1754.02 188.793 Q1752.7 186.988 1749.99 186.988 Q1746.68 186.988 1744.76 189.187 Q1742.84 191.386 1742.84 195.182 L1742.84 209.835 L1738.56 209.835 L1738.56 194.325 Q1738.56 190.575 1737.24 188.793 Q1735.92 186.988 1733.16 186.988 Q1729.9 186.988 1727.98 189.21 Q1726.06 191.409 1726.06 195.182 L1726.06 209.835 L1721.77 209.835 L1721.77 183.909 L1726.06 183.909 L1726.06 187.937 Q1727.52 185.552 1729.55 184.418 Q1731.59 183.284 1734.39 183.284 Q1737.21 183.284 1739.18 184.719 Q1741.17 186.154 1742.12 188.886 Z" fill="#000000" fill-rule="nonzero" fill-opacity="1" /><path clip-path="url(#clip280)" d="M1768.12 183.909 L1772.38 183.909 L1772.38 209.835 L1768.12 209.835 L1768.12 183.909 M1768.12 173.816 L1772.38 173.816 L1772.38 179.21 L1768.12 179.21 L1768.12 173.816 Z" fill="#000000" fill-rule="nonzero" fill-opacity="1" /><path clip-path="url(#clip280)" d="M1802.84 194.187 L1802.84 209.835 L1798.58 209.835 L1798.58 194.325 Q1798.58 190.645 1797.14 188.816 Q1795.71 186.988 1792.84 186.988 Q1789.39 186.988 1787.4 189.187 Q1785.41 191.386 1785.41 195.182 L1785.41 209.835 L1781.13 209.835 L1781.13 183.909 L1785.41 183.909 L1785.41 187.937 Q1786.94 185.599 1789 184.441 Q1791.08 183.284 1793.79 183.284 Q1798.26 183.284 1800.55 186.062 Q1802.84 188.816 1802.84 194.187 Z" fill="#000000" fill-rule="nonzero" fill-opacity="1" /><path clip-path="url(#clip280)" d="M1826.36 187.89 Q1825.64 187.474 1824.78 187.288 Q1823.95 187.08 1822.93 187.08 Q1819.32 187.08 1817.38 189.441 Q1815.45 191.779 1815.45 196.177 L1815.45 209.835 L1811.17 209.835 L1811.17 183.909 L1815.45 183.909 L1815.45 187.937 Q1816.8 185.576 1818.95 184.441 Q1821.1 183.284 1824.18 183.284 Q1824.62 183.284 1825.15 183.353 Q1825.69 183.4 1826.33 183.515 L1826.36 187.89 Z" fill="#000000" fill-rule="nonzero" fill-opacity="1" /><path clip-path="url(#clip280)" d="M1851.96 195.807 L1851.96 197.89 L1832.38 197.89 Q1832.65 202.288 1835.01 204.603 Q1837.4 206.895 1841.64 206.895 Q1844.09 206.895 1846.38 206.293 Q1848.7 205.691 1850.96 204.487 L1850.96 208.515 Q1848.67 209.487 1846.26 209.997 Q1843.86 210.506 1841.38 210.506 Q1835.18 210.506 1831.54 206.895 Q1827.93 203.284 1827.93 197.126 Q1827.93 190.761 1831.36 187.034 Q1834.81 183.284 1840.64 183.284 Q1845.87 183.284 1848.9 186.663 Q1851.96 190.02 1851.96 195.807 M1847.7 194.557 Q1847.65 191.062 1845.73 188.978 Q1843.83 186.895 1840.69 186.895 Q1837.12 186.895 1834.97 188.909 Q1832.84 190.923 1832.51 194.58 L1847.7 194.557 Z" fill="#000000" fill-rule="nonzero" fill-opacity="1" /><path clip-path="url(#clip280)" d="M1875.48 184.673 L1875.48 188.7 Q1873.67 187.775 1871.73 187.312 Q1869.78 186.849 1867.7 186.849 Q1864.53 186.849 1862.93 187.821 Q1861.36 188.793 1861.36 190.738 Q1861.36 192.219 1862.49 193.075 Q1863.63 193.909 1867.05 194.673 L1868.51 194.997 Q1873.05 195.969 1874.95 197.751 Q1876.87 199.511 1876.87 202.682 Q1876.87 206.293 1874 208.399 Q1871.15 210.506 1866.15 210.506 Q1864.07 210.506 1861.8 210.089 Q1859.55 209.696 1857.05 208.886 L1857.05 204.487 Q1859.41 205.714 1861.7 206.339 Q1864 206.941 1866.24 206.941 Q1869.25 206.941 1870.87 205.923 Q1872.49 204.881 1872.49 203.006 Q1872.49 201.27 1871.31 200.344 Q1870.15 199.418 1866.2 198.562 L1864.71 198.214 Q1860.76 197.381 1859 195.668 Q1857.24 193.932 1857.24 190.923 Q1857.24 187.265 1859.83 185.275 Q1862.42 183.284 1867.19 183.284 Q1869.55 183.284 1871.64 183.631 Q1873.72 183.978 1875.48 184.673 Z" fill="#000000" fill-rule="nonzero" fill-opacity="1" /><polyline clip-path="url(#clip280)" style="stroke:#e26f46; stroke-linecap:round; stroke-linejoin:round; stroke-width:8; stroke-opacity:1; fill:none" points="1588.97,244.395 1702.8,244.395 "/>
<path clip-path="url(#clip280)" d="M1742.28 236.744 L1742.28 240.726 Q1740.48 239.73 1738.65 239.244 Q1736.84 238.735 1734.99 238.735 Q1730.85 238.735 1728.56 241.374 Q1726.27 243.99 1726.27 248.735 Q1726.27 253.48 1728.56 256.119 Q1730.85 258.735 1734.99 258.735 Q1736.84 258.735 1738.65 258.249 Q1740.48 257.739 1742.28 256.744 L1742.28 260.679 Q1740.5 261.513 1738.58 261.929 Q1736.68 262.346 1734.53 262.346 Q1728.67 262.346 1725.22 258.665 Q1721.77 254.985 1721.77 248.735 Q1721.77 242.392 1725.25 238.758 Q1728.74 235.124 1734.81 235.124 Q1736.77 235.124 1738.65 235.541 Q1740.52 235.934 1742.28 236.744 Z" fill="#000000" fill-rule="nonzero" fill-opacity="1" /><path clip-path="url(#clip280)" d="M1766.75 248.411 Q1766.75 243.781 1764.83 241.235 Q1762.93 238.689 1759.48 238.689 Q1756.06 238.689 1754.14 241.235 Q1752.24 243.781 1752.24 248.411 Q1752.24 253.017 1754.14 255.564 Q1756.06 258.11 1759.48 258.11 Q1762.93 258.11 1764.83 255.564 Q1766.75 253.017 1766.75 248.411 M1771.01 258.457 Q1771.01 265.077 1768.07 268.295 Q1765.13 271.536 1759.07 271.536 Q1756.82 271.536 1754.83 271.188 Q1752.84 270.864 1750.96 270.17 L1750.96 266.026 Q1752.84 267.045 1754.67 267.531 Q1756.5 268.017 1758.39 268.017 Q1762.58 268.017 1764.67 265.818 Q1766.75 263.642 1766.75 259.221 L1766.75 257.114 Q1765.43 259.406 1763.37 260.54 Q1761.31 261.675 1758.44 261.675 Q1753.67 261.675 1750.76 258.04 Q1747.84 254.406 1747.84 248.411 Q1747.84 242.392 1750.76 238.758 Q1753.67 235.124 1758.44 235.124 Q1761.31 235.124 1763.37 236.258 Q1765.43 237.392 1766.75 239.684 L1766.75 235.749 L1771.01 235.749 L1771.01 258.457 Z" fill="#000000" fill-rule="nonzero" fill-opacity="1" /></svg>
