<?xml version="1.0" encoding="utf-8"?>
<svg xmlns="http://www.w3.org/2000/svg" xmlns:xlink="http://www.w3.org/1999/xlink" width="500" height="320" viewBox="0 0 2000 1280">
<defs>
  <clipPath id="clip680">
    <rect x="0" y="0" width="2000" height="1280"/>
  </clipPath>
</defs>
<path clip-path="url(#clip680)" d="M0 1280 L2000 1280 L2000 0 L0 0  Z" fill="#ffffff" fill-rule="evenodd" fill-opacity="1"/>
<defs>
  <clipPath id="clip681">
    <rect x="400" y="0" width="1401" height="1280"/>
  </clipPath>
</defs>
<path clip-path="url(#clip680)" d="M244.586 1111.02 L1952.76 1111.02 L1952.76 107.256 L244.586 107.256  Z" fill="#ffffff" fill-rule="evenodd" fill-opacity="1"/>
<defs>
  <clipPath id="clip682">
    <rect x="244" y="107" width="1709" height="1005"/>
  </clipPath>
</defs>
<polyline clip-path="url(#clip682)" style="stroke:#000000; stroke-linecap:round; stroke-linejoin:round; stroke-width:2; stroke-opacity:0.1; fill:none" points="292.931,1111.02 292.931,107.256 "/>
<polyline clip-path="url(#clip682)" style="stroke:#000000; stroke-linecap:round; stroke-linejoin:round; stroke-width:2; stroke-opacity:0.1; fill:none" points="695.801,1111.02 695.801,107.256 "/>
<polyline clip-path="url(#clip682)" style="stroke:#000000; stroke-linecap:round; stroke-linejoin:round; stroke-width:2; stroke-opacity:0.1; fill:none" points="1098.67,1111.02 1098.67,107.256 "/>
<polyline clip-path="url(#clip682)" style="stroke:#000000; stroke-linecap:round; stroke-linejoin:round; stroke-width:2; stroke-opacity:0.1; fill:none" points="1501.54,1111.02 1501.54,107.256 "/>
<polyline clip-path="url(#clip682)" style="stroke:#000000; stroke-linecap:round; stroke-linejoin:round; stroke-width:2; stroke-opacity:0.1; fill:none" points="1904.41,1111.02 1904.41,107.256 "/>
<polyline clip-path="url(#clip682)" style="stroke:#000000; stroke-linecap:round; stroke-linejoin:round; stroke-width:2; stroke-opacity:0.1; fill:none" points="244.586,670.511 1952.76,670.511 "/>
<polyline clip-path="url(#clip682)" style="stroke:#000000; stroke-linecap:round; stroke-linejoin:round; stroke-width:2; stroke-opacity:0.1; fill:none" points="244.586,135.664 1952.76,135.664 "/>
<polyline clip-path="url(#clip680)" style="stroke:#000000; stroke-linecap:round; stroke-linejoin:round; stroke-width:4; stroke-opacity:1; fill:none" points="244.586,1111.02 1952.76,1111.02 "/>
<polyline clip-path="url(#clip680)" style="stroke:#000000; stroke-linecap:round; stroke-linejoin:round; stroke-width:4; stroke-opacity:1; fill:none" points="292.931,1111.02 292.931,1092.12 "/>
<polyline clip-path="url(#clip680)" style="stroke:#000000; stroke-linecap:round; stroke-linejoin:round; stroke-width:4; stroke-opacity:1; fill:none" points="695.801,1111.02 695.801,1092.12 "/>
<polyline clip-path="url(#clip680)" style="stroke:#000000; stroke-linecap:round; stroke-linejoin:round; stroke-width:4; stroke-opacity:1; fill:none" points="1098.67,1111.02 1098.67,1092.12 "/>
<polyline clip-path="url(#clip680)" style="stroke:#000000; stroke-linecap:round; stroke-linejoin:round; stroke-width:4; stroke-opacity:1; fill:none" points="1501.54,1111.02 1501.54,1092.12 "/>
<polyline clip-path="url(#clip680)" style="stroke:#000000; stroke-linecap:round; stroke-linejoin:round; stroke-width:4; stroke-opacity:1; fill:none" points="1904.41,1111.02 1904.41,1092.12 "/>
<path clip-path="url(#clip680)" d="M292.931 1138.74 Q289.319 1138.74 287.491 1142.3 Q285.685 1145.84 285.685 1152.97 Q285.685 1160.08 287.491 1163.64 Q289.319 1167.19 292.931 1167.19 Q296.565 1167.19 298.37 1163.64 Q300.199 1160.08 300.199 1152.97 Q300.199 1145.84 298.37 1142.3 Q296.565 1138.74 292.931 1138.74 M292.931 1135.03 Q298.741 1135.03 301.796 1139.64 Q304.875 1144.22 304.875 1152.97 Q304.875 1161.7 301.796 1166.31 Q298.741 1170.89 292.931 1170.89 Q287.12 1170.89 284.042 1166.31 Q280.986 1161.7 280.986 1152.97 Q280.986 1144.22 284.042 1139.64 Q287.12 1135.03 292.931 1135.03 Z" fill="#000000" fill-rule="nonzero" fill-opacity="1" /><path clip-path="url(#clip680)" d="M670.488 1166.28 L678.127 1166.28 L678.127 1139.92 L669.817 1141.58 L669.817 1137.33 L678.081 1135.66 L682.757 1135.66 L682.757 1166.28 L690.396 1166.28 L690.396 1170.22 L670.488 1170.22 L670.488 1166.28 Z" fill="#000000" fill-rule="nonzero" fill-opacity="1" /><path clip-path="url(#clip680)" d="M709.84 1138.74 Q706.229 1138.74 704.4 1142.3 Q702.595 1145.84 702.595 1152.97 Q702.595 1160.08 704.4 1163.64 Q706.229 1167.19 709.84 1167.19 Q713.474 1167.19 715.28 1163.64 Q717.109 1160.08 717.109 1152.97 Q717.109 1145.84 715.28 1142.3 Q713.474 1138.74 709.84 1138.74 M709.84 1135.03 Q715.65 1135.03 718.706 1139.64 Q721.784 1144.22 721.784 1152.97 Q721.784 1161.7 718.706 1166.31 Q715.65 1170.89 709.84 1170.89 Q704.03 1170.89 700.951 1166.31 Q697.896 1161.7 697.896 1152.97 Q697.896 1144.22 700.951 1139.64 Q704.03 1135.03 709.84 1135.03 Z" fill="#000000" fill-rule="nonzero" fill-opacity="1" /><path clip-path="url(#clip680)" d="M1077.44 1166.28 L1093.76 1166.28 L1093.76 1170.22 L1071.82 1170.22 L1071.82 1166.28 Q1074.48 1163.53 1079.06 1158.9 Q1083.67 1154.25 1084.85 1152.9 Q1087.1 1150.38 1087.98 1148.64 Q1088.88 1146.89 1088.88 1145.2 Q1088.88 1142.44 1086.93 1140.7 Q1085.01 1138.97 1081.91 1138.97 Q1079.71 1138.97 1077.26 1139.73 Q1074.83 1140.5 1072.05 1142.05 L1072.05 1137.33 Q1074.87 1136.19 1077.33 1135.61 Q1079.78 1135.03 1081.82 1135.03 Q1087.19 1135.03 1090.38 1137.72 Q1093.58 1140.4 1093.58 1144.89 Q1093.58 1147.02 1092.77 1148.95 Q1091.98 1150.84 1089.87 1153.44 Q1089.3 1154.11 1086.19 1157.33 Q1083.09 1160.52 1077.44 1166.28 Z" fill="#000000" fill-rule="nonzero" fill-opacity="1" /><path clip-path="url(#clip680)" d="M1113.58 1138.74 Q1109.97 1138.74 1108.14 1142.3 Q1106.33 1145.84 1106.33 1152.97 Q1106.33 1160.08 1108.14 1163.64 Q1109.97 1167.19 1113.58 1167.19 Q1117.21 1167.19 1119.02 1163.64 Q1120.85 1160.08 1120.85 1152.97 Q1120.85 1145.84 1119.02 1142.3 Q1117.21 1138.74 1113.58 1138.74 M1113.58 1135.03 Q1119.39 1135.03 1122.44 1139.64 Q1125.52 1144.22 1125.52 1152.97 Q1125.52 1161.7 1122.44 1166.31 Q1119.39 1170.89 1113.58 1170.89 Q1107.77 1170.89 1104.69 1166.31 Q1101.63 1161.7 1101.63 1152.97 Q1101.63 1144.22 1104.69 1139.64 Q1107.77 1135.03 1113.58 1135.03 Z" fill="#000000" fill-rule="nonzero" fill-opacity="1" /><path clip-path="url(#clip680)" d="M1490.38 1151.58 Q1493.74 1152.3 1495.62 1154.57 Q1497.51 1156.84 1497.51 1160.17 Q1497.51 1165.29 1493.99 1168.09 Q1490.48 1170.89 1484 1170.89 Q1481.82 1170.89 1479.5 1170.45 Q1477.21 1170.03 1474.76 1169.18 L1474.76 1164.66 Q1476.7 1165.8 1479.02 1166.38 Q1481.33 1166.95 1483.86 1166.95 Q1488.25 1166.95 1490.55 1165.22 Q1492.86 1163.48 1492.86 1160.17 Q1492.86 1157.12 1490.71 1155.4 Q1488.58 1153.67 1484.76 1153.67 L1480.73 1153.67 L1480.73 1149.83 L1484.94 1149.83 Q1488.39 1149.83 1490.22 1148.46 Q1492.05 1147.07 1492.05 1144.48 Q1492.05 1141.82 1490.15 1140.4 Q1488.28 1138.97 1484.76 1138.97 Q1482.84 1138.97 1480.64 1139.39 Q1478.44 1139.8 1475.8 1140.68 L1475.8 1136.51 Q1478.46 1135.77 1480.78 1135.4 Q1483.12 1135.03 1485.18 1135.03 Q1490.5 1135.03 1493.6 1137.46 Q1496.7 1139.87 1496.7 1143.99 Q1496.7 1146.86 1495.06 1148.85 Q1493.42 1150.82 1490.38 1151.58 Z" fill="#000000" fill-rule="nonzero" fill-opacity="1" /><path clip-path="url(#clip680)" d="M1516.38 1138.74 Q1512.77 1138.74 1510.94 1142.3 Q1509.13 1145.84 1509.13 1152.97 Q1509.13 1160.08 1510.94 1163.64 Q1512.77 1167.19 1516.38 1167.19 Q1520.01 1167.19 1521.82 1163.64 Q1523.65 1160.08 1523.65 1152.97 Q1523.65 1145.84 1521.82 1142.3 Q1520.01 1138.74 1516.38 1138.74 M1516.38 1135.03 Q1522.19 1135.03 1525.24 1139.64 Q1528.32 1144.22 1528.32 1152.97 Q1528.32 1161.7 1525.24 1166.31 Q1522.19 1170.89 1516.38 1170.89 Q1510.57 1170.89 1507.49 1166.31 Q1504.43 1161.7 1504.43 1152.97 Q1504.43 1144.22 1507.49 1139.64 Q1510.57 1135.03 1516.38 1135.03 Z" fill="#000000" fill-rule="nonzero" fill-opacity="1" /><path clip-path="url(#clip680)" d="M1892.58 1139.73 L1880.78 1158.18 L1892.58 1158.18 L1892.58 1139.73 M1891.36 1135.66 L1897.24 1135.66 L1897.24 1158.18 L1902.17 1158.18 L1902.17 1162.07 L1897.24 1162.07 L1897.24 1170.22 L1892.58 1170.22 L1892.58 1162.07 L1876.98 1162.07 L1876.98 1157.56 L1891.36 1135.66 Z" fill="#000000" fill-rule="nonzero" fill-opacity="1" /><path clip-path="url(#clip680)" d="M1919.9 1138.74 Q1916.29 1138.74 1914.46 1142.3 Q1912.65 1145.84 1912.65 1152.97 Q1912.65 1160.08 1914.46 1163.64 Q1916.29 1167.19 1919.9 1167.19 Q1923.53 1167.19 1925.34 1163.64 Q1927.17 1160.08 1927.17 1152.97 Q1927.17 1145.84 1925.34 1142.3 Q1923.53 1138.74 1919.9 1138.74 M1919.9 1135.03 Q1925.71 1135.03 1928.76 1139.64 Q1931.84 1144.22 1931.84 1152.97 Q1931.84 1161.7 1928.76 1166.31 Q1925.71 1170.89 1919.9 1170.89 Q1914.09 1170.89 1911.01 1166.31 Q1907.95 1161.7 1907.95 1152.97 Q1907.95 1144.22 1911.01 1139.64 Q1914.09 1135.03 1919.9 1135.03 Z" fill="#000000" fill-rule="nonzero" fill-opacity="1" /><g clip-path="url(#clip680)">
<text style="fill:#000000; fill-opacity:1; font-family:Arial,Helvetica Neue,Helvetica,sans-serif; font-size:66px; text-anchor:middle;" transform="rotate(0, 1098.67, 1252.42)" x="1098.67" y="1252.42">iteration number</text>
</g>
<polyline clip-path="url(#clip680)" style="stroke:#000000; stroke-linecap:round; stroke-linejoin:round; stroke-width:4; stroke-opacity:1; fill:none" points="244.586,1111.02 244.586,107.256 "/>
<polyline clip-path="url(#clip680)" style="stroke:#000000; stroke-linecap:round; stroke-linejoin:round; stroke-width:4; stroke-opacity:1; fill:none" points="244.586,670.511 263.484,670.511 "/>
<polyline clip-path="url(#clip680)" style="stroke:#000000; stroke-linecap:round; stroke-linejoin:round; stroke-width:4; stroke-opacity:1; fill:none" points="244.586,135.664 263.484,135.664 "/>
<path clip-path="url(#clip680)" d="M113.675 690.304 L121.314 690.304 L121.314 663.938 L113.004 665.605 L113.004 661.346 L121.268 659.679 L125.944 659.679 L125.944 690.304 L133.583 690.304 L133.583 694.239 L113.675 694.239 L113.675 690.304 Z" fill="#000000" fill-rule="nonzero" fill-opacity="1" /><path clip-path="url(#clip680)" d="M153.027 662.758 Q149.416 662.758 147.587 666.323 Q145.782 669.864 145.782 676.994 Q145.782 684.1 147.587 687.665 Q149.416 691.207 153.027 691.207 Q156.661 691.207 158.467 687.665 Q160.295 684.1 160.295 676.994 Q160.295 669.864 158.467 666.323 Q156.661 662.758 153.027 662.758 M153.027 659.054 Q158.837 659.054 161.893 663.661 Q164.971 668.244 164.971 676.994 Q164.971 685.721 161.893 690.327 Q158.837 694.91 153.027 694.91 Q147.217 694.91 144.138 690.327 Q141.082 685.721 141.082 676.994 Q141.082 668.244 144.138 663.661 Q147.217 659.054 153.027 659.054 Z" fill="#000000" fill-rule="nonzero" fill-opacity="1" /><path clip-path="url(#clip680)" d="M164.971 653.155 L189.083 653.155 L189.083 656.353 L164.971 656.353 L164.971 653.155 Z" fill="#000000" fill-rule="nonzero" fill-opacity="1" /><path clip-path="url(#clip680)" d="M208.793 651.688 Q211.52 652.271 213.044 654.115 Q214.586 655.958 214.586 658.666 Q214.586 662.823 211.727 665.098 Q208.869 667.374 203.602 667.374 Q201.834 667.374 199.954 667.017 Q198.092 666.678 196.098 665.982 L196.098 662.315 Q197.678 663.236 199.559 663.707 Q201.439 664.177 203.49 664.177 Q207.063 664.177 208.925 662.766 Q210.806 661.356 210.806 658.666 Q210.806 656.183 209.057 654.792 Q207.326 653.381 204.223 653.381 L200.95 653.381 L200.95 650.259 L204.374 650.259 Q207.176 650.259 208.662 649.149 Q210.147 648.021 210.147 645.914 Q210.147 643.752 208.605 642.604 Q207.082 641.438 204.223 641.438 Q202.662 641.438 200.875 641.777 Q199.089 642.115 196.944 642.83 L196.944 639.445 Q199.107 638.843 200.988 638.542 Q202.888 638.241 204.562 638.241 Q208.887 638.241 211.408 640.216 Q213.928 642.172 213.928 645.519 Q213.928 647.852 212.592 649.469 Q211.257 651.068 208.793 651.688 Z" fill="#000000" fill-rule="nonzero" fill-opacity="1" /><path clip-path="url(#clip680)" d="M143.88 155.457 L151.519 155.457 L151.519 129.091 L143.209 130.758 L143.209 126.499 L151.473 124.832 L156.149 124.832 L156.149 155.457 L163.788 155.457 L163.788 159.392 L143.88 159.392 L143.88 155.457 Z" fill="#000000" fill-rule="nonzero" fill-opacity="1" /><path clip-path="url(#clip680)" d="M183.232 127.911 Q179.621 127.911 177.792 131.475 Q175.987 135.017 175.987 142.147 Q175.987 149.253 177.792 152.818 Q179.621 156.359 183.232 156.359 Q186.866 156.359 188.672 152.818 Q190.501 149.253 190.501 142.147 Q190.501 135.017 188.672 131.475 Q186.866 127.911 183.232 127.911 M183.232 124.207 Q189.042 124.207 192.098 128.813 Q195.177 133.397 195.177 142.147 Q195.177 150.873 192.098 155.48 Q189.042 160.063 183.232 160.063 Q177.422 160.063 174.343 155.48 Q171.288 150.873 171.288 142.147 Q171.288 133.397 174.343 128.813 Q177.422 124.207 183.232 124.207 Z" fill="#000000" fill-rule="nonzero" fill-opacity="1" /><path clip-path="url(#clip680)" d="M204.881 106.403 Q201.947 106.403 200.461 109.299 Q198.994 112.177 198.994 117.97 Q198.994 123.744 200.461 126.64 Q201.947 129.518 204.881 129.518 Q207.834 129.518 209.301 126.64 Q210.787 123.744 210.787 117.97 Q210.787 112.177 209.301 109.299 Q207.834 106.403 204.881 106.403 M204.881 103.394 Q209.602 103.394 212.085 107.136 Q214.586 110.86 214.586 117.97 Q214.586 125.06 212.085 128.803 Q209.602 132.527 204.881 132.527 Q200.161 132.527 197.659 128.803 Q195.177 125.06 195.177 117.97 Q195.177 110.86 197.659 107.136 Q200.161 103.394 204.881 103.394 Z" fill="#000000" fill-rule="nonzero" fill-opacity="1" /><g clip-path="url(#clip680)">
<text style="fill:#000000; fill-opacity:1; font-family:Arial,Helvetica Neue,Helvetica,sans-serif; font-size:66px; text-anchor:middle;" transform="rotate(-90, 71.4418, 609.137)" x="71.4418" y="609.137">residual norm</text>
</g>
<g clip-path="url(#clip680)">
<text style="fill:#000000; fill-opacity:1; font-family:Arial,Helvetica Neue,Helvetica,sans-serif; font-size:66px; text-anchor:middle;" transform="rotate(0, 1098.67, 57.6)" x="1098.67" y="57.6">Incomplete LU preconditioning</text>
</g>
<polyline clip-path="url(#clip682)" style="stroke:#009af9; stroke-linecap:round; stroke-linejoin:round; stroke-width:8; stroke-opacity:1; fill:none" points="292.931,135.664 333.218,137.23 373.505,137.716 413.792,137.907 454.079,137.993 494.366,138.035 534.653,138.058 574.94,138.071 615.227,138.08 655.514,138.086 695.801,138.091 736.088,138.095 776.375,138.098 816.662,138.102 856.949,138.105 897.236,138.109 937.523,138.112 977.81,138.116 1018.1,138.12 1058.38,138.123 1098.67,138.123 1138.96,138.123 1179.25,138.123 1219.53,138.123 1259.82,138.123 1300.11,138.123 1340.39,138.123 1380.68,138.123 1420.97,138.123 1461.25,138.124 1501.54,138.124 1541.83,138.124 1582.12,138.125 1622.4,138.125 1662.69,138.127 1702.98,138.13 1743.26,138.134 1783.55,138.139 1823.84,138.147 1864.12,138.154 1904.41,138.154 "/>
<polyline clip-path="url(#clip682)" style="stroke:#e26f46; stroke-linecap:round; stroke-linejoin:round; stroke-width:8; stroke-opacity:1; fill:none" points="292.931,135.664 333.218,151.701 373.505,180.225 413.792,229.891 454.079,253.566 494.366,294.377 534.653,343.143 574.94,400.316 615.227,467.288 655.514,524.213 695.801,577.043 736.088,626.292 776.375,690.122 816.662,756.197 856.949,812.658 897.236,884.612 937.523,984.864 977.81,1082.61 "/>
<polyline clip-path="url(#clip682)" style="stroke:#3da44d; stroke-linecap:round; stroke-linejoin:round; stroke-width:8; stroke-opacity:1; fill:none" points="292.931,135.664 333.218,201.191 373.505,261.326 413.792,305.405 454.079,366.078 494.366,450.293 534.653,534.206 574.94,613.39 615.227,677.11 655.514,763.435 695.801,862.325 736.088,951.522 776.375,1072.99 "/>
<polyline clip-path="url(#clip682)" style="stroke:#c271d2; stroke-linecap:round; stroke-linejoin:round; stroke-width:8; stroke-opacity:1; fill:none" points="292.931,135.664 333.218,247.52 373.505,390.638 413.792,544.72 454.079,649.103 494.366,803.937 534.653,992.5 "/>
<polyline clip-path="url(#clip682)" style="stroke:#ac8d18; stroke-linecap:round; stroke-linejoin:round; stroke-width:8; stroke-opacity:1; fill:none" points="292.931,135.664 333.218,278.616 373.505,503.488 413.792,676.583 454.079,881.981 "/>
<path clip-path="url(#clip680)" d="M1184.91 1077.56 L1895.82 1077.56 L1895.82 766.52 L1184.91 766.52  Z" fill="#ffffff" fill-rule="evenodd" fill-opacity="1"/>
<polyline clip-path="url(#clip680)" style="stroke:#000000; stroke-linecap:round; stroke-linejoin:round; stroke-width:4; stroke-opacity:1; fill:none" points="1184.91,1077.56 1895.82,1077.56 1895.82,766.52 1184.91,766.52 1184.91,1077.56 "/>
<polyline clip-path="url(#clip680)" style="stroke:#009af9; stroke-linecap:round; stroke-linejoin:round; stroke-width:8; stroke-opacity:1; fill:none" points="1203.89,818.36 1317.77,818.36 "/>
<path clip-path="url(#clip680)" d="M1358.46 819.992 L1358.46 835.64 L1354.2 835.64 L1354.2 820.131 Q1354.2 816.45 1352.77 814.621 Q1351.33 812.793 1348.46 812.793 Q1345.01 812.793 1343.02 814.992 Q1341.03 817.191 1341.03 820.987 L1341.03 835.64 L1336.75 835.64 L1336.75 809.714 L1341.03 809.714 L1341.03 813.742 Q1342.56 811.404 1344.62 810.246 Q1346.7 809.089 1349.41 809.089 Q1353.88 809.089 1356.17 811.867 Q1358.46 814.621 1358.46 819.992 Z" fill="#000000" fill-rule="nonzero" fill-opacity="1" /><path clip-path="url(#clip680)" d="M1377 812.7 Q1373.58 812.7 1371.59 815.385 Q1369.59 818.047 1369.59 822.7 Q1369.59 827.353 1371.56 830.038 Q1373.55 832.7 1377 832.7 Q1380.4 832.7 1382.4 830.015 Q1384.39 827.33 1384.39 822.7 Q1384.39 818.094 1382.4 815.408 Q1380.4 812.7 1377 812.7 M1377 809.089 Q1382.56 809.089 1385.73 812.7 Q1388.9 816.311 1388.9 822.7 Q1388.9 829.066 1385.73 832.7 Q1382.56 836.311 1377 836.311 Q1371.42 836.311 1368.25 832.7 Q1365.1 829.066 1365.1 822.7 Q1365.1 816.311 1368.25 812.7 Q1371.42 809.089 1377 809.089 Z" fill="#000000" fill-rule="nonzero" fill-opacity="1" /><path clip-path="url(#clip680)" d="M1415.15 831.751 L1415.15 845.501 L1410.87 845.501 L1410.87 809.714 L1415.15 809.714 L1415.15 813.649 Q1416.49 811.334 1418.53 810.223 Q1420.59 809.089 1423.44 809.089 Q1428.16 809.089 1431.1 812.839 Q1434.06 816.589 1434.06 822.7 Q1434.06 828.811 1431.1 832.561 Q1428.16 836.311 1423.44 836.311 Q1420.59 836.311 1418.53 835.2 Q1416.49 834.066 1415.15 831.751 M1429.64 822.7 Q1429.64 818.001 1427.7 815.339 Q1425.77 812.654 1422.4 812.654 Q1419.02 812.654 1417.07 815.339 Q1415.15 818.001 1415.15 822.7 Q1415.15 827.399 1417.07 830.084 Q1419.02 832.746 1422.4 832.746 Q1425.77 832.746 1427.7 830.084 Q1429.64 827.399 1429.64 822.7 Z" fill="#000000" fill-rule="nonzero" fill-opacity="1" /><path clip-path="url(#clip680)" d="M1456.15 813.695 Q1455.43 813.279 1454.57 813.094 Q1453.74 812.885 1452.72 812.885 Q1449.11 812.885 1447.16 815.246 Q1445.24 817.584 1445.24 821.982 L1445.24 835.64 L1440.96 835.64 L1440.96 809.714 L1445.24 809.714 L1445.24 813.742 Q1446.58 811.381 1448.74 810.246 Q1450.89 809.089 1453.97 809.089 Q1454.41 809.089 1454.94 809.158 Q1455.47 809.205 1456.12 809.32 L1456.15 813.695 Z" fill="#000000" fill-rule="nonzero" fill-opacity="1" /><path clip-path="url(#clip680)" d="M1481.75 821.612 L1481.75 823.695 L1462.16 823.695 Q1462.44 828.093 1464.8 830.408 Q1467.19 832.7 1471.42 832.7 Q1473.88 832.7 1476.17 832.098 Q1478.48 831.496 1480.75 830.293 L1480.75 834.32 Q1478.46 835.293 1476.05 835.802 Q1473.64 836.311 1471.17 836.311 Q1464.96 836.311 1461.33 832.7 Q1457.72 829.089 1457.72 822.931 Q1457.72 816.566 1461.15 812.839 Q1464.59 809.089 1470.43 809.089 Q1475.66 809.089 1478.69 812.469 Q1481.75 815.825 1481.75 821.612 M1477.49 820.362 Q1477.44 816.867 1475.52 814.783 Q1473.62 812.7 1470.47 812.7 Q1466.91 812.7 1464.76 814.714 Q1462.63 816.728 1462.3 820.385 L1477.49 820.362 Z" fill="#000000" fill-rule="nonzero" fill-opacity="1" /><path clip-path="url(#clip680)" d="M1507.39 810.709 L1507.39 814.691 Q1505.59 813.695 1503.76 813.209 Q1501.95 812.7 1500.1 812.7 Q1495.96 812.7 1493.67 815.339 Q1491.38 817.955 1491.38 822.7 Q1491.38 827.445 1493.67 830.084 Q1495.96 832.7 1500.1 832.7 Q1501.95 832.7 1503.76 832.214 Q1505.59 831.705 1507.39 830.709 L1507.39 834.644 Q1505.61 835.478 1503.69 835.894 Q1501.79 836.311 1499.64 836.311 Q1493.78 836.311 1490.33 832.63 Q1486.89 828.95 1486.89 822.7 Q1486.89 816.357 1490.36 812.723 Q1493.85 809.089 1499.92 809.089 Q1501.89 809.089 1503.76 809.506 Q1505.64 809.899 1507.39 810.709 Z" fill="#000000" fill-rule="nonzero" fill-opacity="1" /><path clip-path="url(#clip680)" d="M1524.85 812.7 Q1521.42 812.7 1519.43 815.385 Q1517.44 818.047 1517.44 822.7 Q1517.44 827.353 1519.41 830.038 Q1521.4 832.7 1524.85 832.7 Q1528.25 832.7 1530.24 830.015 Q1532.23 827.33 1532.23 822.7 Q1532.23 818.094 1530.24 815.408 Q1528.25 812.7 1524.85 812.7 M1524.85 809.089 Q1530.4 809.089 1533.58 812.7 Q1536.75 816.311 1536.75 822.7 Q1536.75 829.066 1533.58 832.7 Q1530.4 836.311 1524.85 836.311 Q1519.27 836.311 1516.1 832.7 Q1512.95 829.066 1512.95 822.7 Q1512.95 816.311 1516.1 812.7 Q1519.27 809.089 1524.85 809.089 Z" fill="#000000" fill-rule="nonzero" fill-opacity="1" /><path clip-path="url(#clip680)" d="M1565.36 819.992 L1565.36 835.64 L1561.1 835.64 L1561.1 820.131 Q1561.1 816.45 1559.66 814.621 Q1558.23 812.793 1555.36 812.793 Q1551.91 812.793 1549.92 814.992 Q1547.93 817.191 1547.93 820.987 L1547.93 835.64 L1543.64 835.64 L1543.64 809.714 L1547.93 809.714 L1547.93 813.742 Q1549.45 811.404 1551.51 810.246 Q1553.6 809.089 1556.31 809.089 Q1560.77 809.089 1563.07 811.867 Q1565.36 814.621 1565.36 819.992 Z" fill="#000000" fill-rule="nonzero" fill-opacity="1" /><path clip-path="url(#clip680)" d="M1590.91 813.649 L1590.91 799.621 L1595.17 799.621 L1595.17 835.64 L1590.91 835.64 L1590.91 831.751 Q1589.57 834.066 1587.51 835.2 Q1585.47 836.311 1582.6 836.311 Q1577.9 836.311 1574.94 832.561 Q1572 828.811 1572 822.7 Q1572 816.589 1574.94 812.839 Q1577.9 809.089 1582.6 809.089 Q1585.47 809.089 1587.51 810.223 Q1589.57 811.334 1590.91 813.649 M1576.4 822.7 Q1576.4 827.399 1578.32 830.084 Q1580.26 832.746 1583.64 832.746 Q1587.02 832.746 1588.97 830.084 Q1590.91 827.399 1590.91 822.7 Q1590.91 818.001 1588.97 815.339 Q1587.02 812.654 1583.64 812.654 Q1580.26 812.654 1578.32 815.339 Q1576.4 818.001 1576.4 822.7 Z" fill="#000000" fill-rule="nonzero" fill-opacity="1" /><path clip-path="url(#clip680)" d="M1603.95 809.714 L1608.2 809.714 L1608.2 835.64 L1603.95 835.64 L1603.95 809.714 M1603.95 799.621 L1608.2 799.621 L1608.2 805.015 L1603.95 805.015 L1603.95 799.621 Z" fill="#000000" fill-rule="nonzero" fill-opacity="1" /><path clip-path="url(#clip680)" d="M1621.33 802.353 L1621.33 809.714 L1630.1 809.714 L1630.1 813.024 L1621.33 813.024 L1621.33 827.098 Q1621.33 830.269 1622.19 831.172 Q1623.07 832.075 1625.73 832.075 L1630.1 832.075 L1630.1 835.64 L1625.73 835.64 Q1620.8 835.64 1618.92 833.811 Q1617.05 831.959 1617.05 827.098 L1617.05 813.024 L1613.92 813.024 L1613.92 809.714 L1617.05 809.714 L1617.05 802.353 L1621.33 802.353 Z" fill="#000000" fill-rule="nonzero" fill-opacity="1" /><path clip-path="url(#clip680)" d="M1635.7 809.714 L1639.96 809.714 L1639.96 835.64 L1635.7 835.64 L1635.7 809.714 M1635.7 799.621 L1639.96 799.621 L1639.96 805.015 L1635.7 805.015 L1635.7 799.621 Z" fill="#000000" fill-rule="nonzero" fill-opacity="1" /><path clip-path="url(#clip680)" d="M1658.92 812.7 Q1655.5 812.7 1653.51 815.385 Q1651.51 818.047 1651.51 822.7 Q1651.51 827.353 1653.48 830.038 Q1655.47 832.7 1658.92 832.7 Q1662.32 832.7 1664.32 830.015 Q1666.31 827.33 1666.31 822.7 Q1666.31 818.094 1664.32 815.408 Q1662.32 812.7 1658.92 812.7 M1658.92 809.089 Q1664.48 809.089 1667.65 812.7 Q1670.82 816.311 1670.82 822.7 Q1670.82 829.066 1667.65 832.7 Q1664.48 836.311 1658.92 836.311 Q1653.34 836.311 1650.17 832.7 Q1647.02 829.066 1647.02 822.7 Q1647.02 816.311 1650.17 812.7 Q1653.34 809.089 1658.92 809.089 Z" fill="#000000" fill-rule="nonzero" fill-opacity="1" /><path clip-path="url(#clip680)" d="M1699.43 819.992 L1699.43 835.64 L1695.17 835.64 L1695.17 820.131 Q1695.17 816.45 1693.74 814.621 Q1692.3 812.793 1689.43 812.793 Q1685.98 812.793 1683.99 814.992 Q1682 817.191 1682 820.987 L1682 835.64 L1677.72 835.64 L1677.72 809.714 L1682 809.714 L1682 813.742 Q1683.53 811.404 1685.59 810.246 Q1687.67 809.089 1690.38 809.089 Q1694.85 809.089 1697.14 811.867 Q1699.43 814.621 1699.43 819.992 Z" fill="#000000" fill-rule="nonzero" fill-opacity="1" /><path clip-path="url(#clip680)" d="M1707.93 809.714 L1712.19 809.714 L1712.19 835.64 L1707.93 835.64 L1707.93 809.714 M1707.93 799.621 L1712.19 799.621 L1712.19 805.015 L1707.93 805.015 L1707.93 799.621 Z" fill="#000000" fill-rule="nonzero" fill-opacity="1" /><path clip-path="url(#clip680)" d="M1742.65 819.992 L1742.65 835.64 L1738.39 835.64 L1738.39 820.131 Q1738.39 816.45 1736.95 814.621 Q1735.52 812.793 1732.65 812.793 Q1729.2 812.793 1727.21 814.992 Q1725.22 817.191 1725.22 820.987 L1725.22 835.64 L1720.94 835.64 L1720.94 809.714 L1725.22 809.714 L1725.22 813.742 Q1726.75 811.404 1728.81 810.246 Q1730.89 809.089 1733.6 809.089 Q1738.06 809.089 1740.36 811.867 Q1742.65 814.621 1742.65 819.992 Z" fill="#000000" fill-rule="nonzero" fill-opacity="1" /><path clip-path="url(#clip680)" d="M1768.2 822.376 Q1768.2 817.746 1766.28 815.2 Q1764.38 812.654 1760.94 812.654 Q1757.51 812.654 1755.59 815.2 Q1753.69 817.746 1753.69 822.376 Q1753.69 826.982 1755.59 829.529 Q1757.51 832.075 1760.94 832.075 Q1764.38 832.075 1766.28 829.529 Q1768.2 826.982 1768.2 822.376 M1772.46 832.422 Q1772.46 839.042 1769.52 842.26 Q1766.58 845.501 1760.52 845.501 Q1758.27 845.501 1756.28 845.154 Q1754.29 844.829 1752.42 844.135 L1752.42 839.992 Q1754.29 841.01 1756.12 841.496 Q1757.95 841.982 1759.85 841.982 Q1764.04 841.982 1766.12 839.783 Q1768.2 837.607 1768.2 833.186 L1768.2 831.08 Q1766.88 833.371 1764.82 834.505 Q1762.76 835.64 1759.89 835.64 Q1755.12 835.64 1752.21 832.005 Q1749.29 828.371 1749.29 822.376 Q1749.29 816.357 1752.21 812.723 Q1755.12 809.089 1759.89 809.089 Q1762.76 809.089 1764.82 810.223 Q1766.88 811.357 1768.2 813.649 L1768.2 809.714 L1772.46 809.714 L1772.46 832.422 Z" fill="#000000" fill-rule="nonzero" fill-opacity="1" /><polyline clip-path="url(#clip680)" style="stroke:#e26f46; stroke-linecap:round; stroke-linejoin:round; stroke-width:8; stroke-opacity:1; fill:none" points="1203.89,870.2 1317.77,870.2 "/>
<path clip-path="url(#clip680)" d="M1351.61 882.758 Q1352.44 883.869 1354.94 883.869 L1357 883.869 L1357 887.48 L1354.43 887.48 Q1350.27 887.48 1348.37 885.258 Q1346.47 882.989 1346.47 878.082 L1346.47 865.813 L1336.75 865.813 L1336.75 861.554 L1360.66 861.554 L1360.66 865.813 L1350.82 865.813 L1350.82 878.336 Q1350.82 881.693 1351.61 882.758 Z" fill="#000000" fill-rule="nonzero" fill-opacity="1" /><path clip-path="url(#clip680)" d="M1383.07 865.952 L1412.74 865.952 L1412.74 869.841 L1383.07 869.841 L1383.07 865.952 M1383.07 875.396 L1412.74 875.396 L1412.74 879.332 L1383.07 879.332 L1383.07 875.396 Z" fill="#000000" fill-rule="nonzero" fill-opacity="1" /><path clip-path="url(#clip680)" d="M1441.93 883.545 L1458.25 883.545 L1458.25 887.48 L1436.31 887.48 L1436.31 883.545 Q1438.97 880.79 1443.55 876.16 Q1448.16 871.508 1449.34 870.165 Q1451.58 867.642 1452.46 865.906 Q1453.37 864.147 1453.37 862.457 Q1453.37 859.702 1451.42 857.966 Q1449.5 856.23 1446.4 856.23 Q1444.2 856.23 1441.75 856.994 Q1439.32 857.758 1436.54 859.309 L1436.54 854.586 Q1439.36 853.452 1441.82 852.873 Q1444.27 852.295 1446.31 852.295 Q1451.68 852.295 1454.87 854.98 Q1458.07 857.665 1458.07 862.156 Q1458.07 864.285 1457.26 866.207 Q1456.47 868.105 1454.36 870.697 Q1453.78 871.369 1450.68 874.586 Q1447.58 877.781 1441.93 883.545 Z" fill="#000000" fill-rule="nonzero" fill-opacity="1" /><path clip-path="url(#clip680)" d="M1468.07 881.6 L1472.95 881.6 L1472.95 887.48 L1468.07 887.48 L1468.07 881.6 Z" fill="#000000" fill-rule="nonzero" fill-opacity="1" /><path clip-path="url(#clip680)" d="M1493.14 855.998 Q1489.52 855.998 1487.7 859.563 Q1485.89 863.105 1485.89 870.234 Q1485.89 877.341 1487.7 880.906 Q1489.52 884.447 1493.14 884.447 Q1496.77 884.447 1498.58 880.906 Q1500.4 877.341 1500.4 870.234 Q1500.4 863.105 1498.58 859.563 Q1496.77 855.998 1493.14 855.998 M1493.14 852.295 Q1498.95 852.295 1502 856.901 Q1505.08 861.485 1505.08 870.234 Q1505.08 878.961 1502 883.568 Q1498.95 888.151 1493.14 888.151 Q1487.33 888.151 1484.25 883.568 Q1481.19 878.961 1481.19 870.234 Q1481.19 861.485 1484.25 856.901 Q1487.33 852.295 1493.14 852.295 Z" fill="#000000" fill-rule="nonzero" fill-opacity="1" /><path clip-path="url(#clip680)" d="M1513.78 881.6 L1518.67 881.6 L1518.67 885.582 L1514.87 892.989 L1511.89 892.989 L1513.78 885.582 L1513.78 881.6 Z" fill="#000000" fill-rule="nonzero" fill-opacity="1" /><path clip-path="url(#clip680)" d="M1547.05 854.193 L1547.05 861.554 L1555.82 861.554 L1555.82 864.864 L1547.05 864.864 L1547.05 878.938 Q1547.05 882.109 1547.9 883.012 Q1548.78 883.915 1551.45 883.915 L1555.82 883.915 L1555.82 887.48 L1551.45 887.48 Q1546.51 887.48 1544.64 885.651 Q1542.76 883.799 1542.76 878.938 L1542.76 864.864 L1539.64 864.864 L1539.64 861.554 L1542.76 861.554 L1542.76 854.193 L1547.05 854.193 Z" fill="#000000" fill-rule="nonzero" fill-opacity="1" /><path clip-path="url(#clip680)" d="M1561.42 861.554 L1565.68 861.554 L1565.68 887.48 L1561.42 887.48 L1561.42 861.554 M1561.42 851.461 L1565.68 851.461 L1565.68 856.855 L1561.42 856.855 L1561.42 851.461 Z" fill="#000000" fill-rule="nonzero" fill-opacity="1" /><path clip-path="url(#clip680)" d="M1594.78 866.531 Q1596.38 863.66 1598.6 862.295 Q1600.82 860.929 1603.83 860.929 Q1607.88 860.929 1610.08 863.776 Q1612.28 866.6 1612.28 871.832 L1612.28 887.48 L1608 887.48 L1608 871.971 Q1608 868.244 1606.68 866.438 Q1605.36 864.633 1602.65 864.633 Q1599.34 864.633 1597.42 866.832 Q1595.5 869.031 1595.5 872.827 L1595.5 887.48 L1591.21 887.48 L1591.21 871.971 Q1591.21 868.221 1589.89 866.438 Q1588.57 864.633 1585.82 864.633 Q1582.56 864.633 1580.64 866.855 Q1578.71 869.054 1578.71 872.827 L1578.71 887.48 L1574.43 887.48 L1574.43 861.554 L1578.71 861.554 L1578.71 865.582 Q1580.17 863.197 1582.21 862.063 Q1584.25 860.929 1587.05 860.929 Q1589.87 860.929 1591.84 862.364 Q1593.83 863.799 1594.78 866.531 Z" fill="#000000" fill-rule="nonzero" fill-opacity="1" /><path clip-path="url(#clip680)" d="M1642.95 873.452 L1642.95 875.535 L1623.37 875.535 Q1623.64 879.933 1626.01 882.248 Q1628.39 884.54 1632.63 884.54 Q1635.08 884.54 1637.37 883.938 Q1639.69 883.336 1641.95 882.133 L1641.95 886.16 Q1639.66 887.133 1637.26 887.642 Q1634.85 888.151 1632.37 888.151 Q1626.17 888.151 1622.53 884.54 Q1618.92 880.929 1618.92 874.771 Q1618.92 868.406 1622.35 864.679 Q1625.8 860.929 1631.63 860.929 Q1636.86 860.929 1639.89 864.309 Q1642.95 867.665 1642.95 873.452 M1638.69 872.202 Q1638.64 868.707 1636.72 866.623 Q1634.82 864.54 1631.68 864.54 Q1628.11 864.54 1625.96 866.554 Q1623.83 868.568 1623.51 872.225 L1638.69 872.202 Z" fill="#000000" fill-rule="nonzero" fill-opacity="1" /><path clip-path="url(#clip680)" d="M1665.57 865.952 L1695.24 865.952 L1695.24 869.841 L1665.57 869.841 L1665.57 865.952 M1665.57 875.396 L1695.24 875.396 L1695.24 879.332 L1665.57 879.332 L1665.57 875.396 Z" fill="#000000" fill-rule="nonzero" fill-opacity="1" /><path clip-path="url(#clip680)" d="M1730.4 855.998 Q1726.79 855.998 1724.96 859.563 Q1723.16 863.105 1723.16 870.234 Q1723.16 877.341 1724.96 880.906 Q1726.79 884.447 1730.4 884.447 Q1734.04 884.447 1735.84 880.906 Q1737.67 877.341 1737.67 870.234 Q1737.67 863.105 1735.84 859.563 Q1734.04 855.998 1730.4 855.998 M1730.4 852.295 Q1736.21 852.295 1739.27 856.901 Q1742.35 861.485 1742.35 870.234 Q1742.35 878.961 1739.27 883.568 Q1736.21 888.151 1730.4 888.151 Q1724.59 888.151 1721.51 883.568 Q1718.46 878.961 1718.46 870.234 Q1718.46 861.485 1721.51 856.901 Q1724.59 852.295 1730.4 852.295 Z" fill="#000000" fill-rule="nonzero" fill-opacity="1" /><path clip-path="url(#clip680)" d="M1750.56 881.6 L1755.45 881.6 L1755.45 887.48 L1750.56 887.48 L1750.56 881.6 Z" fill="#000000" fill-rule="nonzero" fill-opacity="1" /><path clip-path="url(#clip680)" d="M1775.63 855.998 Q1772.02 855.998 1770.19 859.563 Q1768.39 863.105 1768.39 870.234 Q1768.39 877.341 1770.19 880.906 Q1772.02 884.447 1775.63 884.447 Q1779.27 884.447 1781.07 880.906 Q1782.9 877.341 1782.9 870.234 Q1782.9 863.105 1781.07 859.563 Q1779.27 855.998 1775.63 855.998 M1775.63 852.295 Q1781.44 852.295 1784.5 856.901 Q1787.58 861.485 1787.58 870.234 Q1787.58 878.961 1784.5 883.568 Q1781.44 888.151 1775.63 888.151 Q1769.82 888.151 1766.75 883.568 Q1763.69 878.961 1763.69 870.234 Q1763.69 861.485 1766.75 856.901 Q1769.82 852.295 1775.63 852.295 Z" fill="#000000" fill-rule="nonzero" fill-opacity="1" /><path clip-path="url(#clip680)" d="M1808.64 856.994 L1796.84 875.443 L1808.64 875.443 L1808.64 856.994 M1807.42 852.92 L1813.3 852.92 L1813.3 875.443 L1818.23 875.443 L1818.23 879.332 L1813.3 879.332 L1813.3 887.48 L1808.64 887.48 L1808.64 879.332 L1793.04 879.332 L1793.04 874.818 L1807.42 852.92 Z" fill="#000000" fill-rule="nonzero" fill-opacity="1" /><path clip-path="url(#clip680)" d="M1838.81 856.994 L1827 875.443 L1838.81 875.443 L1838.81 856.994 M1837.58 852.92 L1843.46 852.92 L1843.46 875.443 L1848.39 875.443 L1848.39 879.332 L1843.46 879.332 L1843.46 887.48 L1838.81 887.48 L1838.81 879.332 L1823.2 879.332 L1823.2 874.818 L1837.58 852.92 Z" fill="#000000" fill-rule="nonzero" fill-opacity="1" /><polyline clip-path="url(#clip680)" style="stroke:#3da44d; stroke-linecap:round; stroke-linejoin:round; stroke-width:8; stroke-opacity:1; fill:none" points="1203.89,922.04 1317.77,922.04 "/>
<path clip-path="url(#clip680)" d="M1351.61 934.598 Q1352.44 935.709 1354.94 935.709 L1357 935.709 L1357 939.32 L1354.43 939.32 Q1350.27 939.32 1348.37 937.098 Q1346.47 934.829 1346.47 929.922 L1346.47 917.653 L1336.75 917.653 L1336.75 913.394 L1360.66 913.394 L1360.66 917.653 L1350.82 917.653 L1350.82 930.176 Q1350.82 933.533 1351.61 934.598 Z" fill="#000000" fill-rule="nonzero" fill-opacity="1" /><path clip-path="url(#clip680)" d="M1383.07 917.792 L1412.74 917.792 L1412.74 921.681 L1383.07 921.681 L1383.07 917.792 M1383.07 927.236 L1412.74 927.236 L1412.74 931.172 L1383.07 931.172 L1383.07 927.236 Z" fill="#000000" fill-rule="nonzero" fill-opacity="1" /><path clip-path="url(#clip680)" d="M1438.71 935.385 L1446.35 935.385 L1446.35 909.019 L1438.04 910.686 L1438.04 906.426 L1446.31 904.76 L1450.98 904.76 L1450.98 935.385 L1458.62 935.385 L1458.62 939.32 L1438.71 939.32 L1438.71 935.385 Z" fill="#000000" fill-rule="nonzero" fill-opacity="1" /><path clip-path="url(#clip680)" d="M1468.07 933.44 L1472.95 933.44 L1472.95 939.32 L1468.07 939.32 L1468.07 933.44 Z" fill="#000000" fill-rule="nonzero" fill-opacity="1" /><path clip-path="url(#clip680)" d="M1493.14 907.838 Q1489.52 907.838 1487.7 911.403 Q1485.89 914.945 1485.89 922.074 Q1485.89 929.181 1487.7 932.746 Q1489.52 936.287 1493.14 936.287 Q1496.77 936.287 1498.58 932.746 Q1500.4 929.181 1500.4 922.074 Q1500.4 914.945 1498.58 911.403 Q1496.77 907.838 1493.14 907.838 M1493.14 904.135 Q1498.95 904.135 1502 908.741 Q1505.08 913.325 1505.08 922.074 Q1505.08 930.801 1502 935.408 Q1498.95 939.991 1493.14 939.991 Q1487.33 939.991 1484.25 935.408 Q1481.19 930.801 1481.19 922.074 Q1481.19 913.325 1484.25 908.741 Q1487.33 904.135 1493.14 904.135 Z" fill="#000000" fill-rule="nonzero" fill-opacity="1" /><path clip-path="url(#clip680)" d="M1513.78 933.44 L1518.67 933.44 L1518.67 937.422 L1514.87 944.829 L1511.89 944.829 L1513.78 937.422 L1513.78 933.44 Z" fill="#000000" fill-rule="nonzero" fill-opacity="1" /><path clip-path="url(#clip680)" d="M1547.05 906.033 L1547.05 913.394 L1555.82 913.394 L1555.82 916.704 L1547.05 916.704 L1547.05 930.778 Q1547.05 933.949 1547.9 934.852 Q1548.78 935.755 1551.45 935.755 L1555.82 935.755 L1555.82 939.32 L1551.45 939.32 Q1546.51 939.32 1544.64 937.491 Q1542.76 935.639 1542.76 930.778 L1542.76 916.704 L1539.64 916.704 L1539.64 913.394 L1542.76 913.394 L1542.76 906.033 L1547.05 906.033 Z" fill="#000000" fill-rule="nonzero" fill-opacity="1" /><path clip-path="url(#clip680)" d="M1561.42 913.394 L1565.68 913.394 L1565.68 939.32 L1561.42 939.32 L1561.42 913.394 M1561.42 903.301 L1565.68 903.301 L1565.68 908.695 L1561.42 908.695 L1561.42 903.301 Z" fill="#000000" fill-rule="nonzero" fill-opacity="1" /><path clip-path="url(#clip680)" d="M1594.78 918.371 Q1596.38 915.5 1598.6 914.135 Q1600.82 912.769 1603.83 912.769 Q1607.88 912.769 1610.08 915.616 Q1612.28 918.44 1612.28 923.672 L1612.28 939.32 L1608 939.32 L1608 923.811 Q1608 920.084 1606.68 918.278 Q1605.36 916.473 1602.65 916.473 Q1599.34 916.473 1597.42 918.672 Q1595.5 920.871 1595.5 924.667 L1595.5 939.32 L1591.21 939.32 L1591.21 923.811 Q1591.21 920.061 1589.89 918.278 Q1588.57 916.473 1585.82 916.473 Q1582.56 916.473 1580.64 918.695 Q1578.71 920.894 1578.71 924.667 L1578.71 939.32 L1574.43 939.32 L1574.43 913.394 L1578.71 913.394 L1578.71 917.422 Q1580.17 915.037 1582.21 913.903 Q1584.25 912.769 1587.05 912.769 Q1589.87 912.769 1591.84 914.204 Q1593.83 915.639 1594.78 918.371 Z" fill="#000000" fill-rule="nonzero" fill-opacity="1" /><path clip-path="url(#clip680)" d="M1642.95 925.292 L1642.95 927.375 L1623.37 927.375 Q1623.64 931.773 1626.01 934.088 Q1628.39 936.38 1632.63 936.38 Q1635.08 936.38 1637.37 935.778 Q1639.69 935.176 1641.95 933.973 L1641.95 938 Q1639.66 938.973 1637.26 939.482 Q1634.85 939.991 1632.37 939.991 Q1626.17 939.991 1622.53 936.38 Q1618.92 932.769 1618.92 926.611 Q1618.92 920.246 1622.35 916.519 Q1625.8 912.769 1631.63 912.769 Q1636.86 912.769 1639.89 916.149 Q1642.95 919.505 1642.95 925.292 M1638.69 924.042 Q1638.64 920.547 1636.72 918.463 Q1634.82 916.38 1631.68 916.38 Q1628.11 916.38 1625.96 918.394 Q1623.83 920.408 1623.51 924.065 L1638.69 924.042 Z" fill="#000000" fill-rule="nonzero" fill-opacity="1" /><path clip-path="url(#clip680)" d="M1665.57 917.792 L1695.24 917.792 L1695.24 921.681 L1665.57 921.681 L1665.57 917.792 M1665.57 927.236 L1695.24 927.236 L1695.24 931.172 L1665.57 931.172 L1665.57 927.236 Z" fill="#000000" fill-rule="nonzero" fill-opacity="1" /><path clip-path="url(#clip680)" d="M1730.4 907.838 Q1726.79 907.838 1724.96 911.403 Q1723.16 914.945 1723.16 922.074 Q1723.16 929.181 1724.96 932.746 Q1726.79 936.287 1730.4 936.287 Q1734.04 936.287 1735.84 932.746 Q1737.67 929.181 1737.67 922.074 Q1737.67 914.945 1735.84 911.403 Q1734.04 907.838 1730.4 907.838 M1730.4 904.135 Q1736.21 904.135 1739.27 908.741 Q1742.35 913.325 1742.35 922.074 Q1742.35 930.801 1739.27 935.408 Q1736.21 939.991 1730.4 939.991 Q1724.59 939.991 1721.51 935.408 Q1718.46 930.801 1718.46 922.074 Q1718.46 913.325 1721.51 908.741 Q1724.59 904.135 1730.4 904.135 Z" fill="#000000" fill-rule="nonzero" fill-opacity="1" /><path clip-path="url(#clip680)" d="M1750.56 933.44 L1755.45 933.44 L1755.45 939.32 L1750.56 939.32 L1750.56 933.44 Z" fill="#000000" fill-rule="nonzero" fill-opacity="1" /><path clip-path="url(#clip680)" d="M1775.63 907.838 Q1772.02 907.838 1770.19 911.403 Q1768.39 914.945 1768.39 922.074 Q1768.39 929.181 1770.19 932.746 Q1772.02 936.287 1775.63 936.287 Q1779.27 936.287 1781.07 932.746 Q1782.9 929.181 1782.9 922.074 Q1782.9 914.945 1781.07 911.403 Q1779.27 907.838 1775.63 907.838 M1775.63 904.135 Q1781.44 904.135 1784.5 908.741 Q1787.58 913.325 1787.58 922.074 Q1787.58 930.801 1784.5 935.408 Q1781.44 939.991 1775.63 939.991 Q1769.82 939.991 1766.75 935.408 Q1763.69 930.801 1763.69 922.074 Q1763.69 913.325 1766.75 908.741 Q1769.82 904.135 1775.63 904.135 Z" fill="#000000" fill-rule="nonzero" fill-opacity="1" /><path clip-path="url(#clip680)" d="M1806.37 920.176 Q1803.23 920.176 1801.37 922.329 Q1799.55 924.482 1799.55 928.232 Q1799.55 931.959 1801.37 934.135 Q1803.23 936.287 1806.37 936.287 Q1809.52 936.287 1811.35 934.135 Q1813.2 931.959 1813.2 928.232 Q1813.2 924.482 1811.35 922.329 Q1809.52 920.176 1806.37 920.176 M1815.66 905.524 L1815.66 909.783 Q1813.9 908.95 1812.09 908.51 Q1810.31 908.07 1808.55 908.07 Q1803.92 908.07 1801.47 911.195 Q1799.04 914.32 1798.69 920.639 Q1800.06 918.625 1802.12 917.561 Q1804.18 916.473 1806.65 916.473 Q1811.86 916.473 1814.87 919.644 Q1817.9 922.792 1817.9 928.232 Q1817.9 933.556 1814.75 936.773 Q1811.61 939.991 1806.37 939.991 Q1800.38 939.991 1797.21 935.408 Q1794.04 930.801 1794.04 922.074 Q1794.04 913.88 1797.93 909.019 Q1801.81 904.135 1808.37 904.135 Q1810.12 904.135 1811.91 904.482 Q1813.71 904.829 1815.66 905.524 Z" fill="#000000" fill-rule="nonzero" fill-opacity="1" /><path clip-path="url(#clip680)" d="M1824.78 904.76 L1847 904.76 L1847 906.75 L1834.45 939.32 L1829.57 939.32 L1841.37 908.695 L1824.78 908.695 L1824.78 904.76 Z" fill="#000000" fill-rule="nonzero" fill-opacity="1" /><polyline clip-path="url(#clip680)" style="stroke:#c271d2; stroke-linecap:round; stroke-linejoin:round; stroke-width:8; stroke-opacity:1; fill:none" points="1203.89,973.88 1317.77,973.88 "/>
<path clip-path="url(#clip680)" d="M1351.61 986.438 Q1352.44 987.549 1354.94 987.549 L1357 987.549 L1357 991.16 L1354.43 991.16 Q1350.27 991.16 1348.37 988.938 Q1346.47 986.669 1346.47 981.762 L1346.47 969.493 L1336.75 969.493 L1336.75 965.234 L1360.66 965.234 L1360.66 969.493 L1350.82 969.493 L1350.82 982.016 Q1350.82 985.373 1351.61 986.438 Z" fill="#000000" fill-rule="nonzero" fill-opacity="1" /><path clip-path="url(#clip680)" d="M1383.07 969.632 L1412.74 969.632 L1412.74 973.521 L1383.07 973.521 L1383.07 969.632 M1383.07 979.076 L1412.74 979.076 L1412.74 983.012 L1383.07 983.012 L1383.07 979.076 Z" fill="#000000" fill-rule="nonzero" fill-opacity="1" /><path clip-path="url(#clip680)" d="M1447.9 959.678 Q1444.29 959.678 1442.46 963.243 Q1440.66 966.785 1440.66 973.914 Q1440.66 981.021 1442.46 984.586 Q1444.29 988.127 1447.9 988.127 Q1451.54 988.127 1453.34 984.586 Q1455.17 981.021 1455.17 973.914 Q1455.17 966.785 1453.34 963.243 Q1451.54 959.678 1447.9 959.678 M1447.9 955.975 Q1453.71 955.975 1456.77 960.581 Q1459.85 965.165 1459.85 973.914 Q1459.85 982.641 1456.77 987.248 Q1453.71 991.831 1447.9 991.831 Q1442.09 991.831 1439.02 987.248 Q1435.96 982.641 1435.96 973.914 Q1435.96 965.165 1439.02 960.581 Q1442.09 955.975 1447.9 955.975 Z" fill="#000000" fill-rule="nonzero" fill-opacity="1" /><path clip-path="url(#clip680)" d="M1468.07 985.28 L1472.95 985.28 L1472.95 991.16 L1468.07 991.16 L1468.07 985.28 Z" fill="#000000" fill-rule="nonzero" fill-opacity="1" /><path clip-path="url(#clip680)" d="M1487.16 987.225 L1503.48 987.225 L1503.48 991.16 L1481.54 991.16 L1481.54 987.225 Q1484.2 984.47 1488.78 979.84 Q1493.39 975.188 1494.57 973.845 Q1496.82 971.322 1497.7 969.586 Q1498.6 967.827 1498.6 966.137 Q1498.6 963.382 1496.65 961.646 Q1494.73 959.91 1491.63 959.91 Q1489.43 959.91 1486.98 960.674 Q1484.55 961.438 1481.77 962.989 L1481.77 958.266 Q1484.59 957.132 1487.05 956.553 Q1489.5 955.975 1491.54 955.975 Q1496.91 955.975 1500.1 958.66 Q1503.3 961.345 1503.3 965.836 Q1503.3 967.965 1502.49 969.887 Q1501.7 971.785 1499.59 974.377 Q1499.02 975.049 1495.91 978.266 Q1492.81 981.461 1487.16 987.225 Z" fill="#000000" fill-rule="nonzero" fill-opacity="1" /><path clip-path="url(#clip680)" d="M1513.34 956.6 L1531.7 956.6 L1531.7 960.535 L1517.63 960.535 L1517.63 969.007 Q1518.64 968.66 1519.66 968.498 Q1520.68 968.313 1521.7 968.313 Q1527.49 968.313 1530.87 971.484 Q1534.25 974.655 1534.25 980.072 Q1534.25 985.651 1530.77 988.752 Q1527.3 991.831 1520.98 991.831 Q1518.81 991.831 1516.54 991.461 Q1514.29 991.09 1511.89 990.35 L1511.89 985.651 Q1513.97 986.785 1516.19 987.34 Q1518.41 987.896 1520.89 987.896 Q1524.89 987.896 1527.23 985.789 Q1529.57 983.683 1529.57 980.072 Q1529.57 976.461 1527.23 974.354 Q1524.89 972.248 1520.89 972.248 Q1519.02 972.248 1517.14 972.664 Q1515.29 973.081 1513.34 973.961 L1513.34 956.6 Z" fill="#000000" fill-rule="nonzero" fill-opacity="1" /><path clip-path="url(#clip680)" d="M1543.95 985.28 L1548.83 985.28 L1548.83 989.262 L1545.03 996.669 L1542.05 996.669 L1543.95 989.262 L1543.95 985.28 Z" fill="#000000" fill-rule="nonzero" fill-opacity="1" /><path clip-path="url(#clip680)" d="M1577.21 957.873 L1577.21 965.234 L1585.98 965.234 L1585.98 968.544 L1577.21 968.544 L1577.21 982.618 Q1577.21 985.789 1578.07 986.692 Q1578.95 987.595 1581.61 987.595 L1585.98 987.595 L1585.98 991.16 L1581.61 991.16 Q1576.68 991.16 1574.8 989.331 Q1572.93 987.479 1572.93 982.618 L1572.93 968.544 L1569.8 968.544 L1569.8 965.234 L1572.93 965.234 L1572.93 957.873 L1577.21 957.873 Z" fill="#000000" fill-rule="nonzero" fill-opacity="1" /><path clip-path="url(#clip680)" d="M1591.58 965.234 L1595.84 965.234 L1595.84 991.16 L1591.58 991.16 L1591.58 965.234 M1591.58 955.141 L1595.84 955.141 L1595.84 960.535 L1591.58 960.535 L1591.58 955.141 Z" fill="#000000" fill-rule="nonzero" fill-opacity="1" /><path clip-path="url(#clip680)" d="M1624.94 970.211 Q1626.54 967.34 1628.76 965.975 Q1630.98 964.609 1633.99 964.609 Q1638.04 964.609 1640.24 967.456 Q1642.44 970.28 1642.44 975.512 L1642.44 991.16 L1638.16 991.16 L1638.16 975.651 Q1638.16 971.924 1636.84 970.118 Q1635.52 968.313 1632.81 968.313 Q1629.5 968.313 1627.58 970.512 Q1625.66 972.711 1625.66 976.507 L1625.66 991.16 L1621.38 991.16 L1621.38 975.651 Q1621.38 971.901 1620.06 970.118 Q1618.74 968.313 1615.98 968.313 Q1612.72 968.313 1610.8 970.535 Q1608.88 972.734 1608.88 976.507 L1608.88 991.16 L1604.59 991.16 L1604.59 965.234 L1608.88 965.234 L1608.88 969.262 Q1610.33 966.877 1612.37 965.743 Q1614.41 964.609 1617.21 964.609 Q1620.03 964.609 1622 966.044 Q1623.99 967.479 1624.94 970.211 Z" fill="#000000" fill-rule="nonzero" fill-opacity="1" /><path clip-path="url(#clip680)" d="M1673.11 977.132 L1673.11 979.215 L1653.53 979.215 Q1653.81 983.613 1656.17 985.928 Q1658.55 988.22 1662.79 988.22 Q1665.24 988.22 1667.53 987.618 Q1669.85 987.016 1672.12 985.813 L1672.12 989.84 Q1669.82 990.813 1667.42 991.322 Q1665.01 991.831 1662.53 991.831 Q1656.33 991.831 1652.69 988.22 Q1649.08 984.609 1649.08 978.451 Q1649.08 972.086 1652.51 968.359 Q1655.96 964.609 1661.79 964.609 Q1667.02 964.609 1670.06 967.989 Q1673.11 971.345 1673.11 977.132 M1668.85 975.882 Q1668.81 972.387 1666.88 970.303 Q1664.99 968.22 1661.84 968.22 Q1658.27 968.22 1656.12 970.234 Q1653.99 972.248 1653.67 975.905 L1668.85 975.882 Z" fill="#000000" fill-rule="nonzero" fill-opacity="1" /><path clip-path="url(#clip680)" d="M1695.73 969.632 L1725.4 969.632 L1725.4 973.521 L1695.73 973.521 L1695.73 969.632 M1695.73 979.076 L1725.4 979.076 L1725.4 983.012 L1695.73 983.012 L1695.73 979.076 Z" fill="#000000" fill-rule="nonzero" fill-opacity="1" /><path clip-path="url(#clip680)" d="M1760.56 959.678 Q1756.95 959.678 1755.12 963.243 Q1753.32 966.785 1753.32 973.914 Q1753.32 981.021 1755.12 984.586 Q1756.95 988.127 1760.56 988.127 Q1764.2 988.127 1766 984.586 Q1767.83 981.021 1767.83 973.914 Q1767.83 966.785 1766 963.243 Q1764.2 959.678 1760.56 959.678 M1760.56 955.975 Q1766.37 955.975 1769.43 960.581 Q1772.51 965.165 1772.51 973.914 Q1772.51 982.641 1769.43 987.248 Q1766.37 991.831 1760.56 991.831 Q1754.75 991.831 1751.68 987.248 Q1748.62 982.641 1748.62 973.914 Q1748.62 965.165 1751.68 960.581 Q1754.75 955.975 1760.56 955.975 Z" fill="#000000" fill-rule="nonzero" fill-opacity="1" /><path clip-path="url(#clip680)" d="M1780.73 985.28 L1785.61 985.28 L1785.61 991.16 L1780.73 991.16 L1780.73 985.28 Z" fill="#000000" fill-rule="nonzero" fill-opacity="1" /><path clip-path="url(#clip680)" d="M1805.8 959.678 Q1802.18 959.678 1800.36 963.243 Q1798.55 966.785 1798.55 973.914 Q1798.55 981.021 1800.36 984.586 Q1802.18 988.127 1805.8 988.127 Q1809.43 988.127 1811.24 984.586 Q1813.06 981.021 1813.06 973.914 Q1813.06 966.785 1811.24 963.243 Q1809.43 959.678 1805.8 959.678 M1805.8 955.975 Q1811.61 955.975 1814.66 960.581 Q1817.74 965.165 1817.74 973.914 Q1817.74 982.641 1814.66 987.248 Q1811.61 991.831 1805.8 991.831 Q1799.99 991.831 1796.91 987.248 Q1793.85 982.641 1793.85 973.914 Q1793.85 965.165 1796.91 960.581 Q1799.99 955.975 1805.8 955.975 Z" fill="#000000" fill-rule="nonzero" fill-opacity="1" /><path clip-path="url(#clip680)" d="M1826.1 990.442 L1826.1 986.183 Q1827.86 987.016 1829.66 987.456 Q1831.47 987.896 1833.2 987.896 Q1837.83 987.896 1840.26 984.794 Q1842.72 981.669 1843.06 975.326 Q1841.72 977.317 1839.66 978.382 Q1837.6 979.447 1835.1 979.447 Q1829.92 979.447 1826.88 976.322 Q1823.87 973.174 1823.87 967.734 Q1823.87 962.41 1827.02 959.192 Q1830.17 955.975 1835.4 955.975 Q1841.4 955.975 1844.55 960.581 Q1847.72 965.165 1847.72 973.914 Q1847.72 982.086 1843.83 986.97 Q1839.96 991.831 1833.41 991.831 Q1831.65 991.831 1829.85 991.484 Q1828.04 991.137 1826.1 990.442 M1835.4 975.789 Q1838.55 975.789 1840.38 973.637 Q1842.23 971.484 1842.23 967.734 Q1842.23 964.007 1840.38 961.854 Q1838.55 959.678 1835.4 959.678 Q1832.25 959.678 1830.4 961.854 Q1828.57 964.007 1828.57 967.734 Q1828.57 971.484 1830.4 973.637 Q1832.25 975.789 1835.4 975.789 Z" fill="#000000" fill-rule="nonzero" fill-opacity="1" /><path clip-path="url(#clip680)" d="M1856.93 987.225 L1864.57 987.225 L1864.57 960.859 L1856.26 962.526 L1856.26 958.266 L1864.52 956.6 L1869.2 956.6 L1869.2 987.225 L1876.84 987.225 L1876.84 991.16 L1856.93 991.16 L1856.93 987.225 Z" fill="#000000" fill-rule="nonzero" fill-opacity="1" /><polyline clip-path="url(#clip680)" style="stroke:#ac8d18; stroke-linecap:round; stroke-linejoin:round; stroke-width:8; stroke-opacity:1; fill:none" points="1203.89,1025.72 1317.77,1025.72 "/>
<path clip-path="url(#clip680)" d="M1351.61 1038.28 Q1352.44 1039.39 1354.94 1039.39 L1357 1039.39 L1357 1043 L1354.43 1043 Q1350.27 1043 1348.37 1040.78 Q1346.47 1038.51 1346.47 1033.6 L1346.47 1021.33 L1336.75 1021.33 L1336.75 1017.07 L1360.66 1017.07 L1360.66 1021.33 L1350.82 1021.33 L1350.82 1033.86 Q1350.82 1037.21 1351.61 1038.28 Z" fill="#000000" fill-rule="nonzero" fill-opacity="1" /><path clip-path="url(#clip680)" d="M1383.07 1021.47 L1412.74 1021.47 L1412.74 1025.36 L1383.07 1025.36 L1383.07 1021.47 M1383.07 1030.92 L1412.74 1030.92 L1412.74 1034.85 L1383.07 1034.85 L1383.07 1030.92 Z" fill="#000000" fill-rule="nonzero" fill-opacity="1" /><path clip-path="url(#clip680)" d="M1447.9 1011.52 Q1444.29 1011.52 1442.46 1015.08 Q1440.66 1018.62 1440.66 1025.75 Q1440.66 1032.86 1442.46 1036.43 Q1444.29 1039.97 1447.9 1039.97 Q1451.54 1039.97 1453.34 1036.43 Q1455.17 1032.86 1455.17 1025.75 Q1455.17 1018.62 1453.34 1015.08 Q1451.54 1011.52 1447.9 1011.52 M1447.9 1007.81 Q1453.71 1007.81 1456.77 1012.42 Q1459.85 1017 1459.85 1025.75 Q1459.85 1034.48 1456.77 1039.09 Q1453.71 1043.67 1447.9 1043.67 Q1442.09 1043.67 1439.02 1039.09 Q1435.96 1034.48 1435.96 1025.75 Q1435.96 1017 1439.02 1012.42 Q1442.09 1007.81 1447.9 1007.81 Z" fill="#000000" fill-rule="nonzero" fill-opacity="1" /><path clip-path="url(#clip680)" d="M1468.07 1037.12 L1472.95 1037.12 L1472.95 1043 L1468.07 1043 L1468.07 1037.12 Z" fill="#000000" fill-rule="nonzero" fill-opacity="1" /><path clip-path="url(#clip680)" d="M1483.95 1039.06 L1491.58 1039.06 L1491.58 1012.7 L1483.27 1014.37 L1483.27 1010.11 L1491.54 1008.44 L1496.21 1008.44 L1496.21 1039.06 L1503.85 1039.06 L1503.85 1043 L1483.95 1043 L1483.95 1039.06 Z" fill="#000000" fill-rule="nonzero" fill-opacity="1" /><path clip-path="url(#clip680)" d="M1513.78 1037.12 L1518.67 1037.12 L1518.67 1041.1 L1514.87 1048.51 L1511.89 1048.51 L1513.78 1041.1 L1513.78 1037.12 Z" fill="#000000" fill-rule="nonzero" fill-opacity="1" /><path clip-path="url(#clip680)" d="M1547.05 1009.71 L1547.05 1017.07 L1555.82 1017.07 L1555.82 1020.38 L1547.05 1020.38 L1547.05 1034.46 Q1547.05 1037.63 1547.9 1038.53 Q1548.78 1039.43 1551.45 1039.43 L1555.82 1039.43 L1555.82 1043 L1551.45 1043 Q1546.51 1043 1544.64 1041.17 Q1542.76 1039.32 1542.76 1034.46 L1542.76 1020.38 L1539.64 1020.38 L1539.64 1017.07 L1542.76 1017.07 L1542.76 1009.71 L1547.05 1009.71 Z" fill="#000000" fill-rule="nonzero" fill-opacity="1" /><path clip-path="url(#clip680)" d="M1561.42 1017.07 L1565.68 1017.07 L1565.68 1043 L1561.42 1043 L1561.42 1017.07 M1561.42 1006.98 L1565.68 1006.98 L1565.68 1012.37 L1561.42 1012.37 L1561.42 1006.98 Z" fill="#000000" fill-rule="nonzero" fill-opacity="1" /><path clip-path="url(#clip680)" d="M1594.78 1022.05 Q1596.38 1019.18 1598.6 1017.81 Q1600.82 1016.45 1603.83 1016.45 Q1607.88 1016.45 1610.08 1019.3 Q1612.28 1022.12 1612.28 1027.35 L1612.28 1043 L1608 1043 L1608 1027.49 Q1608 1023.76 1606.68 1021.96 Q1605.36 1020.15 1602.65 1020.15 Q1599.34 1020.15 1597.42 1022.35 Q1595.5 1024.55 1595.5 1028.35 L1595.5 1043 L1591.21 1043 L1591.21 1027.49 Q1591.21 1023.74 1589.89 1021.96 Q1588.57 1020.15 1585.82 1020.15 Q1582.56 1020.15 1580.64 1022.37 Q1578.71 1024.57 1578.71 1028.35 L1578.71 1043 L1574.43 1043 L1574.43 1017.07 L1578.71 1017.07 L1578.71 1021.1 Q1580.17 1018.72 1582.21 1017.58 Q1584.25 1016.45 1587.05 1016.45 Q1589.87 1016.45 1591.84 1017.88 Q1593.83 1019.32 1594.78 1022.05 Z" fill="#000000" fill-rule="nonzero" fill-opacity="1" /><path clip-path="url(#clip680)" d="M1642.95 1028.97 L1642.95 1031.06 L1623.37 1031.06 Q1623.64 1035.45 1626.01 1037.77 Q1628.39 1040.06 1632.63 1040.06 Q1635.08 1040.06 1637.37 1039.46 Q1639.69 1038.86 1641.95 1037.65 L1641.95 1041.68 Q1639.66 1042.65 1637.26 1043.16 Q1634.85 1043.67 1632.37 1043.67 Q1626.17 1043.67 1622.53 1040.06 Q1618.92 1036.45 1618.92 1030.29 Q1618.92 1023.93 1622.35 1020.2 Q1625.8 1016.45 1631.63 1016.45 Q1636.86 1016.45 1639.89 1019.83 Q1642.95 1023.19 1642.95 1028.97 M1638.69 1027.72 Q1638.64 1024.23 1636.72 1022.14 Q1634.82 1020.06 1631.68 1020.06 Q1628.11 1020.06 1625.96 1022.07 Q1623.83 1024.09 1623.51 1027.75 L1638.69 1027.72 Z" fill="#000000" fill-rule="nonzero" fill-opacity="1" /><path clip-path="url(#clip680)" d="M1665.57 1021.47 L1695.24 1021.47 L1695.24 1025.36 L1665.57 1025.36 L1665.57 1021.47 M1665.57 1030.92 L1695.24 1030.92 L1695.24 1034.85 L1665.57 1034.85 L1665.57 1030.92 Z" fill="#000000" fill-rule="nonzero" fill-opacity="1" /><path clip-path="url(#clip680)" d="M1730.4 1011.52 Q1726.79 1011.52 1724.96 1015.08 Q1723.16 1018.62 1723.16 1025.75 Q1723.16 1032.86 1724.96 1036.43 Q1726.79 1039.97 1730.4 1039.97 Q1734.04 1039.97 1735.84 1036.43 Q1737.67 1032.86 1737.67 1025.75 Q1737.67 1018.62 1735.84 1015.08 Q1734.04 1011.52 1730.4 1011.52 M1730.4 1007.81 Q1736.21 1007.81 1739.27 1012.42 Q1742.35 1017 1742.35 1025.75 Q1742.35 1034.48 1739.27 1039.09 Q1736.21 1043.67 1730.4 1043.67 Q1724.59 1043.67 1721.51 1039.09 Q1718.46 1034.48 1718.46 1025.75 Q1718.46 1017 1721.51 1012.42 Q1724.59 1007.81 1730.4 1007.81 Z" fill="#000000" fill-rule="nonzero" fill-opacity="1" /><path clip-path="url(#clip680)" d="M1750.56 1037.12 L1755.45 1037.12 L1755.45 1043 L1750.56 1043 L1750.56 1037.12 Z" fill="#000000" fill-rule="nonzero" fill-opacity="1" /><path clip-path="url(#clip680)" d="M1769.66 1039.06 L1785.98 1039.06 L1785.98 1043 L1764.04 1043 L1764.04 1039.06 Q1766.7 1036.31 1771.28 1031.68 Q1775.89 1027.03 1777.07 1025.69 Q1779.31 1023.16 1780.19 1021.43 Q1781.1 1019.67 1781.1 1017.98 Q1781.1 1015.22 1779.15 1013.49 Q1777.23 1011.75 1774.13 1011.75 Q1771.93 1011.75 1769.48 1012.51 Q1767.05 1013.28 1764.27 1014.83 L1764.27 1010.11 Q1767.09 1008.97 1769.55 1008.39 Q1772 1007.81 1774.04 1007.81 Q1779.41 1007.81 1782.6 1010.5 Q1785.8 1013.19 1785.8 1017.68 Q1785.8 1019.81 1784.99 1021.73 Q1784.2 1023.62 1782.09 1026.22 Q1781.51 1026.89 1778.41 1030.11 Q1775.31 1033.3 1769.66 1039.06 Z" fill="#000000" fill-rule="nonzero" fill-opacity="1" /><path clip-path="url(#clip680)" d="M1806.37 1023.86 Q1803.23 1023.86 1801.37 1026.01 Q1799.55 1028.16 1799.55 1031.91 Q1799.55 1035.64 1801.37 1037.81 Q1803.23 1039.97 1806.37 1039.97 Q1809.52 1039.97 1811.35 1037.81 Q1813.2 1035.64 1813.2 1031.91 Q1813.2 1028.16 1811.35 1026.01 Q1809.52 1023.86 1806.37 1023.86 M1815.66 1009.2 L1815.66 1013.46 Q1813.9 1012.63 1812.09 1012.19 Q1810.31 1011.75 1808.55 1011.75 Q1803.92 1011.75 1801.47 1014.87 Q1799.04 1018 1798.69 1024.32 Q1800.06 1022.31 1802.12 1021.24 Q1804.18 1020.15 1806.65 1020.15 Q1811.86 1020.15 1814.87 1023.32 Q1817.9 1026.47 1817.9 1031.91 Q1817.9 1037.24 1814.75 1040.45 Q1811.61 1043.67 1806.37 1043.67 Q1800.38 1043.67 1797.21 1039.09 Q1794.04 1034.48 1794.04 1025.75 Q1794.04 1017.56 1797.93 1012.7 Q1801.81 1007.81 1808.37 1007.81 Q1810.12 1007.81 1811.91 1008.16 Q1813.71 1008.51 1815.66 1009.2 Z" fill="#000000" fill-rule="nonzero" fill-opacity="1" /><path clip-path="url(#clip680)" d="M1826.77 1039.06 L1834.41 1039.06 L1834.41 1012.7 L1826.1 1014.37 L1826.1 1010.11 L1834.36 1008.44 L1839.04 1008.44 L1839.04 1039.06 L1846.68 1039.06 L1846.68 1043 L1826.77 1043 L1826.77 1039.06 Z" fill="#000000" fill-rule="nonzero" fill-opacity="1" /></svg>
