<?xml version="1.0" encoding="utf-8"?>
<svg xmlns="http://www.w3.org/2000/svg" xmlns:xlink="http://www.w3.org/1999/xlink" width="500" height="320" viewBox="0 0 2000 1280">
<defs>
  <clipPath id="clip380">
    <rect x="0" y="0" width="2000" height="1280"/>
  </clipPath>
</defs>
<path clip-path="url(#clip380)" d="M0 1280 L2000 1280 L2000 -2.66454e-14 L0 -2.66454e-14  Z" fill="#ffffff" fill-rule="evenodd" fill-opacity="1"/>
<defs>
  <clipPath id="clip381">
    <rect x="245" y="107" width="1709" height="1005"/>
  </clipPath>
</defs>
<path clip-path="url(#clip380)" d="M245.244 1111.02 L1952.76 1111.02 L1952.76 107.256 L245.244 107.256  Z" fill="#ffffff" fill-rule="evenodd" fill-opacity="1"/>
<polyline clip-path="url(#clip381)" style="stroke:#000000; stroke-linecap:round; stroke-linejoin:round; stroke-width:2; stroke-opacity:0.1; fill:none" points="293.57,1111.02 293.57,107.256 "/>
<polyline clip-path="url(#clip381)" style="stroke:#000000; stroke-linecap:round; stroke-linejoin:round; stroke-width:2; stroke-opacity:0.1; fill:none" points="602.164,1111.02 602.164,107.256 "/>
<polyline clip-path="url(#clip381)" style="stroke:#000000; stroke-linecap:round; stroke-linejoin:round; stroke-width:2; stroke-opacity:0.1; fill:none" points="910.758,1111.02 910.758,107.256 "/>
<polyline clip-path="url(#clip381)" style="stroke:#000000; stroke-linecap:round; stroke-linejoin:round; stroke-width:2; stroke-opacity:0.1; fill:none" points="1219.35,1111.02 1219.35,107.256 "/>
<polyline clip-path="url(#clip381)" style="stroke:#000000; stroke-linecap:round; stroke-linejoin:round; stroke-width:2; stroke-opacity:0.1; fill:none" points="1527.95,1111.02 1527.95,107.256 "/>
<polyline clip-path="url(#clip381)" style="stroke:#000000; stroke-linecap:round; stroke-linejoin:round; stroke-width:2; stroke-opacity:0.1; fill:none" points="1836.54,1111.02 1836.54,107.256 "/>
<polyline clip-path="url(#clip381)" style="stroke:#000000; stroke-linecap:round; stroke-linejoin:round; stroke-width:2; stroke-opacity:0.1; fill:none" points="245.244,1080.56 1952.76,1080.56 "/>
<polyline clip-path="url(#clip381)" style="stroke:#000000; stroke-linecap:round; stroke-linejoin:round; stroke-width:2; stroke-opacity:0.1; fill:none" points="245.244,570.982 1952.76,570.982 "/>
<polyline clip-path="url(#clip380)" style="stroke:#000000; stroke-linecap:round; stroke-linejoin:round; stroke-width:4; stroke-opacity:1; fill:none" points="245.244,1111.02 1952.76,1111.02 "/>
<polyline clip-path="url(#clip380)" style="stroke:#000000; stroke-linecap:round; stroke-linejoin:round; stroke-width:4; stroke-opacity:1; fill:none" points="293.57,1111.02 293.57,1092.12 "/>
<polyline clip-path="url(#clip380)" style="stroke:#000000; stroke-linecap:round; stroke-linejoin:round; stroke-width:4; stroke-opacity:1; fill:none" points="602.164,1111.02 602.164,1092.12 "/>
<polyline clip-path="url(#clip380)" style="stroke:#000000; stroke-linecap:round; stroke-linejoin:round; stroke-width:4; stroke-opacity:1; fill:none" points="910.758,1111.02 910.758,1092.12 "/>
<polyline clip-path="url(#clip380)" style="stroke:#000000; stroke-linecap:round; stroke-linejoin:round; stroke-width:4; stroke-opacity:1; fill:none" points="1219.35,1111.02 1219.35,1092.12 "/>
<polyline clip-path="url(#clip380)" style="stroke:#000000; stroke-linecap:round; stroke-linejoin:round; stroke-width:4; stroke-opacity:1; fill:none" points="1527.95,1111.02 1527.95,1092.12 "/>
<polyline clip-path="url(#clip380)" style="stroke:#000000; stroke-linecap:round; stroke-linejoin:round; stroke-width:4; stroke-opacity:1; fill:none" points="1836.54,1111.02 1836.54,1092.12 "/>
<path clip-path="url(#clip380)" d="M293.57 1138.74 Q289.959 1138.74 288.13 1142.3 Q286.325 1145.84 286.325 1152.97 Q286.325 1160.08 288.13 1163.64 Q289.959 1167.19 293.57 1167.19 Q297.204 1167.19 299.01 1163.64 Q300.839 1160.08 300.839 1152.97 Q300.839 1145.84 299.01 1142.3 Q297.204 1138.74 293.57 1138.74 M293.57 1135.03 Q299.38 1135.03 302.436 1139.64 Q305.515 1144.22 305.515 1152.97 Q305.515 1161.7 302.436 1166.31 Q299.38 1170.89 293.57 1170.89 Q287.76 1170.89 284.681 1166.31 Q281.626 1161.7 281.626 1152.97 Q281.626 1144.22 284.681 1139.64 Q287.76 1135.03 293.57 1135.03 Z" fill="#000000" fill-rule="nonzero" fill-opacity="1" /><path clip-path="url(#clip380)" d="M576.863 1135.66 L595.22 1135.66 L595.22 1139.59 L581.146 1139.59 L581.146 1148.07 Q582.164 1147.72 583.183 1147.56 Q584.201 1147.37 585.22 1147.37 Q591.007 1147.37 594.386 1150.54 Q597.766 1153.71 597.766 1159.13 Q597.766 1164.71 594.294 1167.81 Q590.822 1170.89 584.502 1170.89 Q582.326 1170.89 580.058 1170.52 Q577.812 1170.15 575.405 1169.41 L575.405 1164.71 Q577.488 1165.84 579.71 1166.4 Q581.933 1166.95 584.41 1166.95 Q588.414 1166.95 590.752 1164.85 Q593.09 1162.74 593.09 1159.13 Q593.09 1155.52 590.752 1153.41 Q588.414 1151.31 584.41 1151.31 Q582.535 1151.31 580.66 1151.72 Q578.808 1152.14 576.863 1153.02 L576.863 1135.66 Z" fill="#000000" fill-rule="nonzero" fill-opacity="1" /><path clip-path="url(#clip380)" d="M616.979 1138.74 Q613.368 1138.74 611.539 1142.3 Q609.733 1145.84 609.733 1152.97 Q609.733 1160.08 611.539 1163.64 Q613.368 1167.19 616.979 1167.19 Q620.613 1167.19 622.419 1163.64 Q624.247 1160.08 624.247 1152.97 Q624.247 1145.84 622.419 1142.3 Q620.613 1138.74 616.979 1138.74 M616.979 1135.03 Q622.789 1135.03 625.844 1139.64 Q628.923 1144.22 628.923 1152.97 Q628.923 1161.7 625.844 1166.31 Q622.789 1170.89 616.979 1170.89 Q611.169 1170.89 608.09 1166.31 Q605.034 1161.7 605.034 1152.97 Q605.034 1144.22 608.09 1139.64 Q611.169 1135.03 616.979 1135.03 Z" fill="#000000" fill-rule="nonzero" fill-opacity="1" /><path clip-path="url(#clip380)" d="M870.365 1166.28 L878.003 1166.28 L878.003 1139.92 L869.693 1141.58 L869.693 1137.33 L877.957 1135.66 L882.633 1135.66 L882.633 1166.28 L890.272 1166.28 L890.272 1170.22 L870.365 1170.22 L870.365 1166.28 Z" fill="#000000" fill-rule="nonzero" fill-opacity="1" /><path clip-path="url(#clip380)" d="M909.716 1138.74 Q906.105 1138.74 904.276 1142.3 Q902.471 1145.84 902.471 1152.97 Q902.471 1160.08 904.276 1163.64 Q906.105 1167.19 909.716 1167.19 Q913.35 1167.19 915.156 1163.64 Q916.985 1160.08 916.985 1152.97 Q916.985 1145.84 915.156 1142.3 Q913.35 1138.74 909.716 1138.74 M909.716 1135.03 Q915.526 1135.03 918.582 1139.64 Q921.661 1144.22 921.661 1152.97 Q921.661 1161.7 918.582 1166.31 Q915.526 1170.89 909.716 1170.89 Q903.906 1170.89 900.827 1166.31 Q897.772 1161.7 897.772 1152.97 Q897.772 1144.22 900.827 1139.64 Q903.906 1135.03 909.716 1135.03 Z" fill="#000000" fill-rule="nonzero" fill-opacity="1" /><path clip-path="url(#clip380)" d="M939.878 1138.74 Q936.267 1138.74 934.438 1142.3 Q932.633 1145.84 932.633 1152.97 Q932.633 1160.08 934.438 1163.64 Q936.267 1167.19 939.878 1167.19 Q943.512 1167.19 945.318 1163.64 Q947.147 1160.08 947.147 1152.97 Q947.147 1145.84 945.318 1142.3 Q943.512 1138.74 939.878 1138.74 M939.878 1135.03 Q945.688 1135.03 948.744 1139.64 Q951.822 1144.22 951.822 1152.97 Q951.822 1161.7 948.744 1166.31 Q945.688 1170.89 939.878 1170.89 Q934.068 1170.89 930.989 1166.31 Q927.934 1161.7 927.934 1152.97 Q927.934 1144.22 930.989 1139.64 Q934.068 1135.03 939.878 1135.03 Z" fill="#000000" fill-rule="nonzero" fill-opacity="1" /><path clip-path="url(#clip380)" d="M1178.96 1166.28 L1186.6 1166.28 L1186.6 1139.92 L1178.29 1141.58 L1178.29 1137.33 L1186.55 1135.66 L1191.23 1135.66 L1191.23 1166.28 L1198.87 1166.28 L1198.87 1170.22 L1178.96 1170.22 L1178.96 1166.28 Z" fill="#000000" fill-rule="nonzero" fill-opacity="1" /><path clip-path="url(#clip380)" d="M1208.36 1135.66 L1226.71 1135.66 L1226.71 1139.59 L1212.64 1139.59 L1212.64 1148.07 Q1213.66 1147.72 1214.68 1147.56 Q1215.69 1147.37 1216.71 1147.37 Q1222.5 1147.37 1225.88 1150.54 Q1229.26 1153.71 1229.26 1159.13 Q1229.26 1164.71 1225.79 1167.81 Q1222.31 1170.89 1216 1170.89 Q1213.82 1170.89 1211.55 1170.52 Q1209.31 1170.15 1206.9 1169.41 L1206.9 1164.71 Q1208.98 1165.84 1211.2 1166.4 Q1213.43 1166.95 1215.9 1166.95 Q1219.91 1166.95 1222.25 1164.85 Q1224.58 1162.74 1224.58 1159.13 Q1224.58 1155.52 1222.25 1153.41 Q1219.91 1151.31 1215.9 1151.31 Q1214.03 1151.31 1212.15 1151.72 Q1210.3 1152.14 1208.36 1153.02 L1208.36 1135.66 Z" fill="#000000" fill-rule="nonzero" fill-opacity="1" /><path clip-path="url(#clip380)" d="M1248.47 1138.74 Q1244.86 1138.74 1243.03 1142.3 Q1241.23 1145.84 1241.23 1152.97 Q1241.23 1160.08 1243.03 1163.64 Q1244.86 1167.19 1248.47 1167.19 Q1252.11 1167.19 1253.91 1163.64 Q1255.74 1160.08 1255.74 1152.97 Q1255.74 1145.84 1253.91 1142.3 Q1252.11 1138.74 1248.47 1138.74 M1248.47 1135.03 Q1254.28 1135.03 1257.34 1139.64 Q1260.42 1144.22 1260.42 1152.97 Q1260.42 1161.7 1257.34 1166.31 Q1254.28 1170.89 1248.47 1170.89 Q1242.66 1170.89 1239.58 1166.31 Q1236.53 1161.7 1236.53 1152.97 Q1236.53 1144.22 1239.58 1139.64 Q1242.66 1135.03 1248.47 1135.03 Z" fill="#000000" fill-rule="nonzero" fill-opacity="1" /><path clip-path="url(#clip380)" d="M1491.64 1166.28 L1507.96 1166.28 L1507.96 1170.22 L1486.01 1170.22 L1486.01 1166.28 Q1488.67 1163.53 1493.26 1158.9 Q1497.86 1154.25 1499.05 1152.9 Q1501.29 1150.38 1502.17 1148.64 Q1503.07 1146.89 1503.07 1145.2 Q1503.07 1142.44 1501.13 1140.7 Q1499.21 1138.97 1496.11 1138.97 Q1493.91 1138.97 1491.45 1139.73 Q1489.02 1140.5 1486.24 1142.05 L1486.24 1137.33 Q1489.07 1136.19 1491.52 1135.61 Q1493.98 1135.03 1496.01 1135.03 Q1501.38 1135.03 1504.58 1137.72 Q1507.77 1140.4 1507.77 1144.89 Q1507.77 1147.02 1506.96 1148.95 Q1506.17 1150.84 1504.07 1153.44 Q1503.49 1154.11 1500.39 1157.33 Q1497.29 1160.52 1491.64 1166.28 Z" fill="#000000" fill-rule="nonzero" fill-opacity="1" /><path clip-path="url(#clip380)" d="M1527.77 1138.74 Q1524.16 1138.74 1522.33 1142.3 Q1520.53 1145.84 1520.53 1152.97 Q1520.53 1160.08 1522.33 1163.64 Q1524.16 1167.19 1527.77 1167.19 Q1531.41 1167.19 1533.21 1163.64 Q1535.04 1160.08 1535.04 1152.97 Q1535.04 1145.84 1533.21 1142.3 Q1531.41 1138.74 1527.77 1138.74 M1527.77 1135.03 Q1533.58 1135.03 1536.64 1139.64 Q1539.72 1144.22 1539.72 1152.97 Q1539.72 1161.7 1536.64 1166.31 Q1533.58 1170.89 1527.77 1170.89 Q1521.96 1170.89 1518.88 1166.31 Q1515.83 1161.7 1515.83 1152.97 Q1515.83 1144.22 1518.88 1139.64 Q1521.96 1135.03 1527.77 1135.03 Z" fill="#000000" fill-rule="nonzero" fill-opacity="1" /><path clip-path="url(#clip380)" d="M1557.93 1138.74 Q1554.32 1138.74 1552.49 1142.3 Q1550.69 1145.84 1550.69 1152.97 Q1550.69 1160.08 1552.49 1163.64 Q1554.32 1167.19 1557.93 1167.19 Q1561.57 1167.19 1563.37 1163.64 Q1565.2 1160.08 1565.2 1152.97 Q1565.2 1145.84 1563.37 1142.3 Q1561.57 1138.74 1557.93 1138.74 M1557.93 1135.03 Q1563.74 1135.03 1566.8 1139.64 Q1569.88 1144.22 1569.88 1152.97 Q1569.88 1161.7 1566.8 1166.31 Q1563.74 1170.89 1557.93 1170.89 Q1552.12 1170.89 1549.05 1166.31 Q1545.99 1161.7 1545.99 1152.97 Q1545.99 1144.22 1549.05 1139.64 Q1552.12 1135.03 1557.93 1135.03 Z" fill="#000000" fill-rule="nonzero" fill-opacity="1" /><path clip-path="url(#clip380)" d="M1800.23 1166.28 L1816.55 1166.28 L1816.55 1170.22 L1794.61 1170.22 L1794.61 1166.28 Q1797.27 1163.53 1801.85 1158.9 Q1806.46 1154.25 1807.64 1152.9 Q1809.88 1150.38 1810.76 1148.64 Q1811.67 1146.89 1811.67 1145.2 Q1811.67 1142.44 1809.72 1140.7 Q1807.8 1138.97 1804.7 1138.97 Q1802.5 1138.97 1800.05 1139.73 Q1797.62 1140.5 1794.84 1142.05 L1794.84 1137.33 Q1797.66 1136.19 1800.12 1135.61 Q1802.57 1135.03 1804.61 1135.03 Q1809.98 1135.03 1813.17 1137.72 Q1816.37 1140.4 1816.37 1144.89 Q1816.37 1147.02 1815.56 1148.95 Q1814.77 1150.84 1812.66 1153.44 Q1812.08 1154.11 1808.98 1157.33 Q1805.88 1160.52 1800.23 1166.28 Z" fill="#000000" fill-rule="nonzero" fill-opacity="1" /><path clip-path="url(#clip380)" d="M1826.41 1135.66 L1844.77 1135.66 L1844.77 1139.59 L1830.69 1139.59 L1830.69 1148.07 Q1831.71 1147.72 1832.73 1147.56 Q1833.75 1147.37 1834.77 1147.37 Q1840.56 1147.37 1843.94 1150.54 Q1847.31 1153.71 1847.31 1159.13 Q1847.31 1164.71 1843.84 1167.81 Q1840.37 1170.89 1834.05 1170.89 Q1831.88 1170.89 1829.61 1170.52 Q1827.36 1170.15 1824.95 1169.41 L1824.95 1164.71 Q1827.04 1165.84 1829.26 1166.4 Q1831.48 1166.95 1833.96 1166.95 Q1837.96 1166.95 1840.3 1164.85 Q1842.64 1162.74 1842.64 1159.13 Q1842.64 1155.52 1840.3 1153.41 Q1837.96 1151.31 1833.96 1151.31 Q1832.08 1151.31 1830.21 1151.72 Q1828.36 1152.14 1826.41 1153.02 L1826.41 1135.66 Z" fill="#000000" fill-rule="nonzero" fill-opacity="1" /><path clip-path="url(#clip380)" d="M1866.53 1138.74 Q1862.92 1138.74 1861.09 1142.3 Q1859.28 1145.84 1859.28 1152.97 Q1859.28 1160.08 1861.09 1163.64 Q1862.92 1167.19 1866.53 1167.19 Q1870.16 1167.19 1871.97 1163.64 Q1873.8 1160.08 1873.8 1152.97 Q1873.8 1145.84 1871.97 1142.3 Q1870.16 1138.74 1866.53 1138.74 M1866.53 1135.03 Q1872.34 1135.03 1875.39 1139.64 Q1878.47 1144.22 1878.47 1152.97 Q1878.47 1161.7 1875.39 1166.31 Q1872.34 1170.89 1866.53 1170.89 Q1860.72 1170.89 1857.64 1166.31 Q1854.58 1161.7 1854.58 1152.97 Q1854.58 1144.22 1857.64 1139.64 Q1860.72 1135.03 1866.53 1135.03 Z" fill="#000000" fill-rule="nonzero" fill-opacity="1" /><g clip-path="url(#clip380)">
<text style="fill:#000000; fill-opacity:1; font-family:Arial,Helvetica Neue,Helvetica,sans-serif; font-size:66px; text-anchor:middle;" transform="rotate(0, 1099, 1252.42)" x="1099" y="1252.42">Krylov dimension</text>
</g>
<polyline clip-path="url(#clip380)" style="stroke:#000000; stroke-linecap:round; stroke-linejoin:round; stroke-width:4; stroke-opacity:1; fill:none" points="245.244,1111.02 245.244,107.256 "/>
<polyline clip-path="url(#clip380)" style="stroke:#000000; stroke-linecap:round; stroke-linejoin:round; stroke-width:4; stroke-opacity:1; fill:none" points="245.244,1080.56 264.142,1080.56 "/>
<polyline clip-path="url(#clip380)" style="stroke:#000000; stroke-linecap:round; stroke-linejoin:round; stroke-width:4; stroke-opacity:1; fill:none" points="245.244,570.982 264.142,570.982 "/>
<path clip-path="url(#clip380)" d="M113.675 1100.35 L121.314 1100.35 L121.314 1073.99 L113.004 1075.65 L113.004 1071.4 L121.268 1069.73 L125.944 1069.73 L125.944 1100.35 L133.583 1100.35 L133.583 1104.29 L113.675 1104.29 L113.675 1100.35 Z" fill="#000000" fill-rule="nonzero" fill-opacity="1" /><path clip-path="url(#clip380)" d="M153.027 1072.81 Q149.416 1072.81 147.587 1076.37 Q145.782 1079.91 145.782 1087.04 Q145.782 1094.15 147.587 1097.71 Q149.416 1101.26 153.027 1101.26 Q156.661 1101.26 158.467 1097.71 Q160.295 1094.15 160.295 1087.04 Q160.295 1079.91 158.467 1076.37 Q156.661 1072.81 153.027 1072.81 M153.027 1069.1 Q158.837 1069.1 161.893 1073.71 Q164.971 1078.29 164.971 1087.04 Q164.971 1095.77 161.893 1100.38 Q158.837 1104.96 153.027 1104.96 Q147.217 1104.96 144.138 1100.38 Q141.082 1095.77 141.082 1087.04 Q141.082 1078.29 144.138 1073.71 Q147.217 1069.1 153.027 1069.1 Z" fill="#000000" fill-rule="nonzero" fill-opacity="1" /><path clip-path="url(#clip380)" d="M164.971 1063.21 L189.083 1063.21 L189.083 1066.4 L164.971 1066.4 L164.971 1063.21 Z" fill="#000000" fill-rule="nonzero" fill-opacity="1" /><path clip-path="url(#clip380)" d="M205.878 1061.32 Q203.32 1061.32 201.816 1063.07 Q200.33 1064.82 200.33 1067.87 Q200.33 1070.9 201.816 1072.67 Q203.32 1074.41 205.878 1074.41 Q208.436 1074.41 209.922 1072.67 Q211.426 1070.9 211.426 1067.87 Q211.426 1064.82 209.922 1063.07 Q208.436 1061.32 205.878 1061.32 M213.42 1049.42 L213.42 1052.88 Q211.991 1052.2 210.524 1051.85 Q209.075 1051.49 207.646 1051.49 Q203.885 1051.49 201.891 1054.03 Q199.916 1056.57 199.634 1061.7 Q200.744 1060.06 202.417 1059.2 Q204.091 1058.32 206.104 1058.32 Q210.336 1058.32 212.781 1060.89 Q215.244 1063.45 215.244 1067.87 Q215.244 1072.2 212.687 1074.81 Q210.129 1077.42 205.878 1077.42 Q201.007 1077.42 198.43 1073.7 Q195.854 1069.96 195.854 1062.87 Q195.854 1056.21 199.013 1052.26 Q202.173 1048.29 207.496 1048.29 Q208.925 1048.29 210.373 1048.57 Q211.84 1048.85 213.42 1049.42 Z" fill="#000000" fill-rule="nonzero" fill-opacity="1" /><path clip-path="url(#clip380)" d="M114.333 590.775 L121.972 590.775 L121.972 564.409 L113.662 566.076 L113.662 561.816 L121.926 560.15 L126.602 560.15 L126.602 590.775 L134.241 590.775 L134.241 594.71 L114.333 594.71 L114.333 590.775 Z" fill="#000000" fill-rule="nonzero" fill-opacity="1" /><path clip-path="url(#clip380)" d="M153.685 563.229 Q150.074 563.229 148.245 566.793 Q146.44 570.335 146.44 577.465 Q146.44 584.571 148.245 588.136 Q150.074 591.677 153.685 591.677 Q157.319 591.677 159.125 588.136 Q160.954 584.571 160.954 577.465 Q160.954 570.335 159.125 566.793 Q157.319 563.229 153.685 563.229 M153.685 559.525 Q159.495 559.525 162.551 564.131 Q165.629 568.715 165.629 577.465 Q165.629 586.191 162.551 590.798 Q159.495 595.381 153.685 595.381 Q147.875 595.381 144.796 590.798 Q141.741 586.191 141.741 577.465 Q141.741 568.715 144.796 564.131 Q147.875 559.525 153.685 559.525 Z" fill="#000000" fill-rule="nonzero" fill-opacity="1" /><path clip-path="url(#clip380)" d="M165.629 553.626 L189.741 553.626 L189.741 556.824 L165.629 556.824 L165.629 553.626 Z" fill="#000000" fill-rule="nonzero" fill-opacity="1" /><path clip-path="url(#clip380)" d="M209.452 552.159 Q212.179 552.742 213.702 554.585 Q215.244 556.429 215.244 559.137 Q215.244 563.293 212.386 565.569 Q209.527 567.845 204.261 567.845 Q202.493 567.845 200.612 567.488 Q198.75 567.149 196.756 566.453 L196.756 562.786 Q198.336 563.707 200.217 564.177 Q202.098 564.648 204.148 564.648 Q207.721 564.648 209.583 563.237 Q211.464 561.826 211.464 559.137 Q211.464 556.654 209.715 555.262 Q207.985 553.852 204.881 553.852 L201.609 553.852 L201.609 550.73 L205.032 550.73 Q207.834 550.73 209.32 549.62 Q210.806 548.492 210.806 546.385 Q210.806 544.222 209.264 543.075 Q207.74 541.909 204.881 541.909 Q203.32 541.909 201.534 542.247 Q199.747 542.586 197.603 543.301 L197.603 539.915 Q199.766 539.313 201.646 539.013 Q203.546 538.712 205.22 538.712 Q209.546 538.712 212.066 540.686 Q214.586 542.642 214.586 545.99 Q214.586 548.322 213.251 549.94 Q211.915 551.539 209.452 552.159 Z" fill="#000000" fill-rule="nonzero" fill-opacity="1" /><g clip-path="url(#clip380)">
<text style="fill:#000000; fill-opacity:1; font-family:Arial,Helvetica Neue,Helvetica,sans-serif; font-size:66px; text-anchor:middle;" transform="rotate(-90, 71.4418, 609.137)" x="71.4418" y="609.137">relative residual norm</text>
</g>
<g clip-path="url(#clip380)">
<text style="fill:#000000; fill-opacity:1; font-family:Arial,Helvetica Neue,Helvetica,sans-serif; font-size:66px; text-anchor:middle;" transform="rotate(0, 1099, 57.6)" x="1099" y="57.6">Convergence of MINRES and CG</text>
</g>
<polyline clip-path="url(#clip381)" style="stroke:#009af9; stroke-linecap:round; stroke-linejoin:round; stroke-width:8; stroke-opacity:1; fill:none" points="293.57,140.288 299.742,186.289 305.914,220.234 312.086,247.607 318.258,269.168 324.43,288.219 330.601,304.466 336.773,319.463 342.945,332.942 349.117,344.523 355.289,355.614 361.461,366.353 367.633,375.561 373.805,384.651 379.976,392.506 386.148,400.063 392.32,407.376 398.492,414.296 404.664,421.005 410.836,427.418 417.008,433.527 423.18,439.024 429.351,444.416 435.523,449.696 441.695,454.578 447.867,459.887 454.039,464.687 460.211,469.222 466.383,473.912 472.555,478.322 478.727,482.813 484.898,486.911 491.07,490.86 497.242,494.892 503.414,499.022 509.586,502.915 515.758,506.869 521.93,510.663 528.102,514.334 534.273,517.922 540.445,521.499 546.617,524.805 552.789,528.378 558.961,531.846 565.133,535.123 571.305,538.387 577.477,541.521 583.648,544.664 589.82,547.892 595.992,551.037 602.164,554.175 608.336,557.176 614.508,560.384 620.68,563.453 626.852,566.464 633.023,569.486 639.195,572.613 645.367,575.579 651.539,578.531 657.711,581.386 663.883,584.43 670.055,587.346 676.227,590.341 682.398,593.378 688.57,596.382 694.742,599.222 700.914,602.118 707.086,605.071 713.258,607.856 719.43,610.665 725.602,613.448 731.773,616.302 737.945,619.237 744.117,622.135 750.289,624.99 756.461,627.757 762.633,630.509 768.805,633.298 774.977,636.32 781.148,639.198 787.32,642.196 793.492,645.269 799.664,648.224 805.836,651.033 812.008,653.974 818.18,656.842 824.352,659.612 830.523,662.505 836.695,665.425 842.867,668.116 849.039,671.201 855.211,674.065 861.383,676.733 867.555,679.612 873.727,682.36 879.899,685.263 886.07,687.985 892.242,690.938 898.414,693.796 904.586,696.579 910.758,699.488 916.93,702.451 923.102,705.284 929.274,708.17 935.445,711.039 941.617,713.789 947.789,716.625 953.961,719.641 960.133,722.43 966.305,725.36 972.477,728.212 978.649,731.072 984.82,733.982 990.992,737.092 997.164,739.9 1003.34,742.879 1009.51,745.77 1015.68,748.652 1021.85,751.629 1028.02,754.602 1034.2,757.46 1040.37,760.275 1046.54,763.207 1052.71,766.094 1058.88,768.919 1065.05,771.952 1071.23,774.85 1077.4,777.619 1083.57,780.433 1089.74,783.312 1095.91,786.321 1102.09,789.342 1108.26,792.321 1114.43,795.118 1120.6,798.171 1126.77,801.158 1132.95,804.107 1139.12,807.04 1145.29,809.972 1151.46,813.014 1157.63,815.942 1163.8,818.885 1169.98,821.908 1176.15,825.022 1182.32,827.941 1188.49,831.054 1194.66,834.153 1200.84,837.102 1207.01,840.1 1213.18,843.038 1219.35,846.027 1225.52,849.151 1231.7,852.239 1237.87,855.271 1244.04,858.166 1250.21,861.1 1256.38,864.138 1262.55,867.307 1268.73,870.312 1274.9,873.226 1281.07,876.216 1287.24,879.185 1293.41,882.118 1299.59,884.946 1305.76,888.005 1311.93,890.932 1318.1,894.041 1324.27,897.088 1330.45,900.02 1336.62,902.95 1342.79,906.034 1348.96,909.053 1355.13,911.972 1361.3,914.775 1367.48,917.83 1373.65,920.897 1379.82,923.916 1385.99,926.77 1392.16,929.721 1398.34,932.629 1404.51,935.48 1410.68,938.484 1416.85,941.528 1423.02,944.588 1429.2,947.569 1435.37,950.436 1441.54,953.334 1447.71,956.218 1453.88,959.208 1460.05,962.287 1466.23,965.22 1472.4,968.151 1478.57,971.094 1484.74,973.829 1490.91,976.813 1497.09,979.863 1503.26,982.823 1509.43,985.629 1515.6,988.691 1521.77,991.656 1527.95,994.615 1534.12,997.506 1540.29,1000.4 1546.46,1003.25 1552.63,1006.18 1558.8,1009.16 1564.98,1012.14 1571.15,1015.18 1577.32,1018.08 1583.49,1021.16 1589.66,1024.1 1595.84,1027.12 1602.01,1029.95 1608.18,1032.81 1614.35,1035.67 1620.52,1038.59 1626.7,1041.6 1632.87,1044.67 1639.04,1047.58 1645.21,1050.38 1651.38,1053.32 1657.56,1056.43 1663.73,1059.35 1669.9,1062.24 1676.07,1065.16 1682.24,1068.13 1688.41,1071.04 1694.59,1073.91 1700.76,1076.9 1706.93,1079.77 1713.1,1082.61 "/>
<polyline clip-path="url(#clip381)" style="stroke:#e26f46; stroke-linecap:round; stroke-linejoin:round; stroke-width:8; stroke-opacity:1; fill:none" points="293.57,135.664 299.742,173.796 305.914,201.491 312.086,223.762 318.258,239.108 324.43,254.734 330.601,266.398 336.773,279.025 342.945,289.276 349.117,296.157 355.289,305.887 361.461,315.602 367.633,319.865 373.805,328.538 379.976,331.602 386.148,337.874 392.32,344.098 398.492,349.167 404.664,354.84 410.836,359.731 417.008,364.192 423.18,366.095 429.351,370.828 435.523,375.391 441.695,377.574 447.867,385.766 454.039,387.1 460.211,389.673 466.383,395.522 472.555,397.793 478.727,402.927 484.898,403.837 491.07,406.487 497.242,411.254 503.414,416.217 509.586,418.04 515.758,422.543 521.93,424.895 528.102,427.413 534.273,430.196 540.445,433.655 546.617,434.2 552.789,440.504 558.961,442.924 565.133,444.206 571.305,447.329 577.477,449.022 583.648,452.274 589.82,456.443 595.992,458.665 602.164,461.729 608.336,463.142 614.508,468.714 620.68,470.223 626.852,472.549 633.023,475.702 639.195,480.039 645.367,481.143 651.539,483.917 657.711,485.593 663.883,490.898 670.055,492.309 676.227,496.239 682.398,499.766 688.57,502.391 694.742,503.248 700.914,506.818 707.086,510.481 713.258,511.18 719.43,514.289 725.602,516.741 731.773,520.5 737.945,524.415 744.117,526.87 750.289,529.193 756.461,530.853 762.633,533.417 768.805,536.672 774.977,542.538 781.148,543.686 787.32,548.131 793.492,552.08 799.664,553.643 805.836,554.671 812.008,559.228 818.18,561.204 824.352,562.741 830.523,567.178 836.695,570.43 842.867,570.217 849.039,578.146 855.211,578.382 861.383,578.533 867.555,584.119 873.727,585.21 879.899,590.05 886.07,590.495 892.242,596.341 898.414,598.042 904.586,599.87 910.758,604.36 916.93,607.973 923.102,609.218 929.274,612.753 935.445,615.41 941.617,616.672 947.789,620.596 953.961,625.778 960.133,625.81 966.305,630.487 972.477,632.372 978.649,635.342 984.82,638.868 990.992,644.323 997.164,643.511 1003.34,648.598 1009.51,650.42 1015.68,653.187 1021.85,657.318 1028.02,660.243 1034.2,661.698 1040.37,663.981 1046.54,668.35 1052.71,670.694 1058.88,672.75 1065.05,678.304 1071.23,679.586 1077.4,680.733 1083.57,684.121 1089.74,687.812 1095.91,692.394 1102.09,695.545 1108.26,698.032 1114.43,698.589 1120.6,704.753 1126.77,706.965 1132.95,709.461 1139.12,712.204 1145.29,715.116 1151.46,719.471 1157.63,721.045 1163.8,724.155 1169.98,728.147 1176.15,732.299 1182.32,732.927 1188.49,738.321 1194.66,741.267 1200.84,742.453 1207.01,746.041 1213.18,748.256 1219.35,751.859 1225.52,756.536 1231.7,759.229 1237.87,761.606 1244.04,762.86 1250.21,766.269 1256.38,770.555 1262.55,775.198 1268.73,776.332 1274.9,778.15 1281.07,782.06 1287.24,784.781 1293.41,787.271 1299.59,788.819 1305.76,794.657 1311.93,796.017 1318.1,801.267 1324.27,803.601 1330.45,805.161 1336.62,808.079 1342.79,812.967 1348.96,815.243 1355.13,816.955 1361.3,818.326 1367.48,824.431 1373.65,827.64 1379.82,830.099 1385.99,830.962 1392.16,835.1 1398.34,837.486 1404.51,839.637 1410.68,844.49 1416.85,848.005 1423.02,851.243 1429.2,853.312 1435.37,854.786 1441.54,858.073 1447.71,860.782 1453.88,865.042 1460.05,869.174 1466.23,870.371 1472.4,873.291 1478.57,876.377 1484.74,876.506 1490.91,882.58 1497.09,886.406 1503.26,888.315 1509.43,889.213 1515.6,895.385 1521.77,897.199 1527.95,900.088 1534.12,902.147 1540.29,905.102 1546.46,907.438 1552.63,911.225 1558.8,914.88 1564.98,917.847 1571.15,921.687 1577.32,922.77 1583.49,928.101 1589.66,929.313 1595.84,933.325 1602.01,933.823 1608.18,937.086 1614.35,940 1620.52,943.608 1626.7,947.664 1632.87,951.445 1639.04,952.383 1645.21,954.004 1651.38,958.512 1657.56,963.658 1663.73,964.412 1669.9,966.894 1676.07,970.344 1682.24,973.885 1688.41,976.154 1694.59,978.845 1700.76,983.113 1706.93,984.257 1713.1,986.387 1719.27,991.899 1725.45,994.318 1731.62,998.483 1737.79,1002.13 1743.96,1002.87 1750.13,1006.26 1756.31,1010.88 1762.48,1012.6 1768.65,1014.39 1774.82,1016.96 1780.99,1021.21 1787.16,1022.83 1793.34,1025.89 1799.51,1030.7 1805.68,1032.78 1811.85,1033.93 1818.02,1037.15 1824.2,1041.6 1830.37,1045.32 1836.54,1047.97 1842.71,1051.8 1848.88,1055.94 1855.06,1058.31 1861.23,1061.82 1867.4,1061.26 1873.57,1066.64 1879.74,1069.55 1885.91,1070.7 1892.09,1076.3 1898.26,1078.85 1904.43,1082.1 "/>
<path clip-path="url(#clip380)" d="M1570 296.235 L1895.84 296.235 L1895.84 140.715 L1570 140.715  Z" fill="#ffffff" fill-rule="evenodd" fill-opacity="1"/>
<polyline clip-path="url(#clip380)" style="stroke:#000000; stroke-linecap:round; stroke-linejoin:round; stroke-width:4; stroke-opacity:1; fill:none" points="1570,296.235 1895.84,296.235 1895.84,140.715 1570,140.715 1570,296.235 "/>
<polyline clip-path="url(#clip380)" style="stroke:#009af9; stroke-linecap:round; stroke-linejoin:round; stroke-width:8; stroke-opacity:1; fill:none" points="1588.97,192.555 1702.8,192.555 "/>
<path clip-path="url(#clip380)" d="M1742.12 188.886 Q1743.72 186.015 1745.94 184.65 Q1748.16 183.284 1751.17 183.284 Q1755.22 183.284 1757.42 186.131 Q1759.62 188.955 1759.62 194.187 L1759.62 209.835 L1755.34 209.835 L1755.34 194.325 Q1755.34 190.599 1754.02 188.793 Q1752.7 186.988 1749.99 186.988 Q1746.68 186.988 1744.76 189.187 Q1742.84 191.386 1742.84 195.182 L1742.84 209.835 L1738.56 209.835 L1738.56 194.325 Q1738.56 190.575 1737.24 188.793 Q1735.92 186.988 1733.16 186.988 Q1729.9 186.988 1727.98 189.21 Q1726.06 191.409 1726.06 195.182 L1726.06 209.835 L1721.77 209.835 L1721.77 183.909 L1726.06 183.909 L1726.06 187.937 Q1727.52 185.552 1729.55 184.418 Q1731.59 183.284 1734.39 183.284 Q1737.21 183.284 1739.18 184.719 Q1741.17 186.154 1742.12 188.886 Z" fill="#000000" fill-rule="nonzero" fill-opacity="1" /><path clip-path="url(#clip380)" d="M1768.12 183.909 L1772.38 183.909 L1772.38 209.835 L1768.12 209.835 L1768.12 183.909 M1768.12 173.816 L1772.38 173.816 L1772.38 179.21 L1768.12 179.21 L1768.12 173.816 Z" fill="#000000" fill-rule="nonzero" fill-opacity="1" /><path clip-path="url(#clip380)" d="M1802.84 194.187 L1802.84 209.835 L1798.58 209.835 L1798.58 194.325 Q1798.58 190.645 1797.14 188.816 Q1795.71 186.988 1792.84 186.988 Q1789.39 186.988 1787.4 189.187 Q1785.41 191.386 1785.41 195.182 L1785.41 209.835 L1781.13 209.835 L1781.13 183.909 L1785.41 183.909 L1785.41 187.937 Q1786.94 185.599 1789 184.441 Q1791.08 183.284 1793.79 183.284 Q1798.26 183.284 1800.55 186.062 Q1802.84 188.816 1802.84 194.187 Z" fill="#000000" fill-rule="nonzero" fill-opacity="1" /><path clip-path="url(#clip380)" d="M1826.36 187.89 Q1825.64 187.474 1824.78 187.288 Q1823.95 187.08 1822.93 187.08 Q1819.32 187.08 1817.38 189.441 Q1815.45 191.779 1815.45 196.177 L1815.45 209.835 L1811.17 209.835 L1811.17 183.909 L1815.45 183.909 L1815.45 187.937 Q1816.8 185.576 1818.95 184.441 Q1821.1 183.284 1824.18 183.284 Q1824.62 183.284 1825.15 183.353 Q1825.69 183.4 1826.33 183.515 L1826.36 187.89 Z" fill="#000000" fill-rule="nonzero" fill-opacity="1" /><path clip-path="url(#clip380)" d="M1851.96 195.807 L1851.96 197.89 L1832.38 197.89 Q1832.65 202.288 1835.01 204.603 Q1837.4 206.895 1841.64 206.895 Q1844.09 206.895 1846.38 206.293 Q1848.7 205.691 1850.96 204.487 L1850.96 208.515 Q1848.67 209.487 1846.26 209.997 Q1843.86 210.506 1841.38 210.506 Q1835.18 210.506 1831.54 206.895 Q1827.93 203.284 1827.93 197.126 Q1827.93 190.761 1831.36 187.034 Q1834.81 183.284 1840.64 183.284 Q1845.87 183.284 1848.9 186.663 Q1851.96 190.02 1851.96 195.807 M1847.7 194.557 Q1847.65 191.062 1845.73 188.978 Q1843.83 186.895 1840.69 186.895 Q1837.12 186.895 1834.97 188.909 Q1832.84 190.923 1832.51 194.58 L1847.7 194.557 Z" fill="#000000" fill-rule="nonzero" fill-opacity="1" /><path clip-path="url(#clip380)" d="M1875.48 184.673 L1875.48 188.7 Q1873.67 187.775 1871.73 187.312 Q1869.78 186.849 1867.7 186.849 Q1864.53 186.849 1862.93 187.821 Q1861.36 188.793 1861.36 190.738 Q1861.36 192.219 1862.49 193.075 Q1863.63 193.909 1867.05 194.673 L1868.51 194.997 Q1873.05 195.969 1874.95 197.751 Q1876.87 199.511 1876.87 202.682 Q1876.87 206.293 1874 208.399 Q1871.15 210.506 1866.15 210.506 Q1864.07 210.506 1861.8 210.089 Q1859.55 209.696 1857.05 208.886 L1857.05 204.487 Q1859.41 205.714 1861.7 206.339 Q1864 206.941 1866.24 206.941 Q1869.25 206.941 1870.87 205.923 Q1872.49 204.881 1872.49 203.006 Q1872.49 201.27 1871.31 200.344 Q1870.15 199.418 1866.2 198.562 L1864.71 198.214 Q1860.76 197.381 1859 195.668 Q1857.24 193.932 1857.24 190.923 Q1857.24 187.265 1859.83 185.275 Q1862.42 183.284 1867.19 183.284 Q1869.55 183.284 1871.64 183.631 Q1873.72 183.978 1875.48 184.673 Z" fill="#000000" fill-rule="nonzero" fill-opacity="1" /><polyline clip-path="url(#clip380)" style="stroke:#e26f46; stroke-linecap:round; stroke-linejoin:round; stroke-width:8; stroke-opacity:1; fill:none" points="1588.97,244.395 1702.8,244.395 "/>
<path clip-path="url(#clip380)" d="M1742.28 236.744 L1742.28 240.726 Q1740.48 239.73 1738.65 239.244 Q1736.84 238.735 1734.99 238.735 Q1730.85 238.735 1728.56 241.374 Q1726.27 243.99 1726.27 248.735 Q1726.27 253.48 1728.56 256.119 Q1730.85 258.735 1734.99 258.735 Q1736.84 258.735 1738.65 258.249 Q1740.48 257.739 1742.28 256.744 L1742.28 260.679 Q1740.5 261.513 1738.58 261.929 Q1736.68 262.346 1734.53 262.346 Q1728.67 262.346 1725.22 258.665 Q1721.77 254.985 1721.77 248.735 Q1721.77 242.392 1725.25 238.758 Q1728.74 235.124 1734.81 235.124 Q1736.77 235.124 1738.65 235.541 Q1740.52 235.934 1742.28 236.744 Z" fill="#000000" fill-rule="nonzero" fill-opacity="1" /><path clip-path="url(#clip380)" d="M1766.75 248.411 Q1766.75 243.781 1764.83 241.235 Q1762.93 238.689 1759.48 238.689 Q1756.06 238.689 1754.14 241.235 Q1752.24 243.781 1752.24 248.411 Q1752.24 253.017 1754.14 255.564 Q1756.06 258.11 1759.48 258.11 Q1762.93 258.11 1764.83 255.564 Q1766.75 253.017 1766.75 248.411 M1771.01 258.457 Q1771.01 265.077 1768.07 268.295 Q1765.13 271.536 1759.07 271.536 Q1756.82 271.536 1754.83 271.188 Q1752.84 270.864 1750.96 270.17 L1750.96 266.026 Q1752.84 267.045 1754.67 267.531 Q1756.5 268.017 1758.39 268.017 Q1762.58 268.017 1764.67 265.818 Q1766.75 263.642 1766.75 259.221 L1766.75 257.114 Q1765.43 259.406 1763.37 260.54 Q1761.31 261.675 1758.44 261.675 Q1753.67 261.675 1750.76 258.04 Q1747.84 254.406 1747.84 248.411 Q1747.84 242.392 1750.76 238.758 Q1753.67 235.124 1758.44 235.124 Q1761.31 235.124 1763.37 236.258 Q1765.43 237.392 1766.75 239.684 L1766.75 235.749 L1771.01 235.749 L1771.01 258.457 Z" fill="#000000" fill-rule="nonzero" fill-opacity="1" /></svg>
