<?xml version="1.0" encoding="utf-8"?>
<svg xmlns="http://www.w3.org/2000/svg" xmlns:xlink="http://www.w3.org/1999/xlink" width="500" height="320" viewBox="0 0 2000 1280">
<defs>
  <clipPath id="clip080">
    <rect x="0" y="0" width="2000" height="1280"/>
  </clipPath>
</defs>
<path clip-path="url(#clip080)" d="M0 1280 L2000 1280 L2000 0 L0 0  Z" fill="#ffffff" fill-rule="evenodd" fill-opacity="1"/>
<defs>
  <clipPath id="clip081">
    <rect x="400" y="0" width="1401" height="1280"/>
  </clipPath>
</defs>
<path clip-path="url(#clip080)" d="M185.496 1171.03 L1952.76 1171.03 L1952.76 107.256 L185.496 107.256  Z" fill="#ffffff" fill-rule="evenodd" fill-opacity="1"/>
<defs>
  <clipPath id="clip082">
    <rect x="185" y="107" width="1768" height="1065"/>
  </clipPath>
</defs>
<polyline clip-path="url(#clip082)" style="stroke:#000000; stroke-linecap:round; stroke-linejoin:round; stroke-width:2; stroke-opacity:0.1; fill:none" points="235.513,1171.03 235.513,107.256 "/>
<polyline clip-path="url(#clip082)" style="stroke:#000000; stroke-linecap:round; stroke-linejoin:round; stroke-width:2; stroke-opacity:0.1; fill:none" points="740.733,1171.03 740.733,107.256 "/>
<polyline clip-path="url(#clip082)" style="stroke:#000000; stroke-linecap:round; stroke-linejoin:round; stroke-width:2; stroke-opacity:0.1; fill:none" points="1245.95,1171.03 1245.95,107.256 "/>
<polyline clip-path="url(#clip082)" style="stroke:#000000; stroke-linecap:round; stroke-linejoin:round; stroke-width:2; stroke-opacity:0.1; fill:none" points="1751.17,1171.03 1751.17,107.256 "/>
<polyline clip-path="url(#clip082)" style="stroke:#000000; stroke-linecap:round; stroke-linejoin:round; stroke-width:2; stroke-opacity:0.1; fill:none" points="185.496,1092.56 1952.76,1092.56 "/>
<polyline clip-path="url(#clip082)" style="stroke:#000000; stroke-linecap:round; stroke-linejoin:round; stroke-width:2; stroke-opacity:0.1; fill:none" points="185.496,853.758 1952.76,853.758 "/>
<polyline clip-path="url(#clip082)" style="stroke:#000000; stroke-linecap:round; stroke-linejoin:round; stroke-width:2; stroke-opacity:0.1; fill:none" points="185.496,614.959 1952.76,614.959 "/>
<polyline clip-path="url(#clip082)" style="stroke:#000000; stroke-linecap:round; stroke-linejoin:round; stroke-width:2; stroke-opacity:0.1; fill:none" points="185.496,376.161 1952.76,376.161 "/>
<polyline clip-path="url(#clip082)" style="stroke:#000000; stroke-linecap:round; stroke-linejoin:round; stroke-width:2; stroke-opacity:0.1; fill:none" points="185.496,137.363 1952.76,137.363 "/>
<polyline clip-path="url(#clip080)" style="stroke:#000000; stroke-linecap:round; stroke-linejoin:round; stroke-width:4; stroke-opacity:1; fill:none" points="185.496,1171.03 1952.76,1171.03 "/>
<polyline clip-path="url(#clip080)" style="stroke:#000000; stroke-linecap:round; stroke-linejoin:round; stroke-width:4; stroke-opacity:1; fill:none" points="235.513,1171.03 235.513,1152.13 "/>
<polyline clip-path="url(#clip080)" style="stroke:#000000; stroke-linecap:round; stroke-linejoin:round; stroke-width:4; stroke-opacity:1; fill:none" points="740.733,1171.03 740.733,1152.13 "/>
<polyline clip-path="url(#clip080)" style="stroke:#000000; stroke-linecap:round; stroke-linejoin:round; stroke-width:4; stroke-opacity:1; fill:none" points="1245.95,1171.03 1245.95,1152.13 "/>
<polyline clip-path="url(#clip080)" style="stroke:#000000; stroke-linecap:round; stroke-linejoin:round; stroke-width:4; stroke-opacity:1; fill:none" points="1751.17,1171.03 1751.17,1152.13 "/>
<path clip-path="url(#clip080)" d="M235.513 1198.75 Q231.902 1198.75 230.073 1202.31 Q228.267 1205.86 228.267 1212.98 Q228.267 1220.09 230.073 1223.66 Q231.902 1227.2 235.513 1227.2 Q239.147 1227.2 240.952 1223.66 Q242.781 1220.09 242.781 1212.98 Q242.781 1205.86 240.952 1202.31 Q239.147 1198.75 235.513 1198.75 M235.513 1195.05 Q241.323 1195.05 244.378 1199.65 Q247.457 1204.24 247.457 1212.98 Q247.457 1221.71 244.378 1226.32 Q241.323 1230.9 235.513 1230.9 Q229.703 1230.9 226.624 1226.32 Q223.568 1221.71 223.568 1212.98 Q223.568 1204.24 226.624 1199.65 Q229.703 1195.05 235.513 1195.05 Z" fill="#000000" fill-rule="nonzero" fill-opacity="1" /><path clip-path="url(#clip080)" d="M715.432 1195.67 L733.788 1195.67 L733.788 1199.61 L719.714 1199.61 L719.714 1208.08 Q720.733 1207.73 721.751 1207.57 Q722.77 1207.38 723.788 1207.38 Q729.575 1207.38 732.955 1210.55 Q736.335 1213.73 736.335 1219.14 Q736.335 1224.72 732.863 1227.82 Q729.39 1230.9 723.071 1230.9 Q720.895 1230.9 718.626 1230.53 Q716.381 1230.16 713.974 1229.42 L713.974 1224.72 Q716.057 1225.86 718.279 1226.41 Q720.501 1226.97 722.978 1226.97 Q726.983 1226.97 729.321 1224.86 Q731.659 1222.75 731.659 1219.14 Q731.659 1215.53 729.321 1213.42 Q726.983 1211.32 722.978 1211.32 Q721.103 1211.32 719.228 1211.74 Q717.376 1212.15 715.432 1213.03 L715.432 1195.67 Z" fill="#000000" fill-rule="nonzero" fill-opacity="1" /><path clip-path="url(#clip080)" d="M755.548 1198.75 Q751.936 1198.75 750.108 1202.31 Q748.302 1205.86 748.302 1212.98 Q748.302 1220.09 750.108 1223.66 Q751.936 1227.2 755.548 1227.2 Q759.182 1227.2 760.987 1223.66 Q762.816 1220.09 762.816 1212.98 Q762.816 1205.86 760.987 1202.31 Q759.182 1198.75 755.548 1198.75 M755.548 1195.05 Q761.358 1195.05 764.413 1199.65 Q767.492 1204.24 767.492 1212.98 Q767.492 1221.71 764.413 1226.32 Q761.358 1230.9 755.548 1230.9 Q749.737 1230.9 746.659 1226.32 Q743.603 1221.71 743.603 1212.98 Q743.603 1204.24 746.659 1199.65 Q749.737 1195.05 755.548 1195.05 Z" fill="#000000" fill-rule="nonzero" fill-opacity="1" /><path clip-path="url(#clip080)" d="M1205.56 1226.3 L1213.2 1226.3 L1213.2 1199.93 L1204.89 1201.6 L1204.89 1197.34 L1213.15 1195.67 L1217.83 1195.67 L1217.83 1226.3 L1225.47 1226.3 L1225.47 1230.23 L1205.56 1230.23 L1205.56 1226.3 Z" fill="#000000" fill-rule="nonzero" fill-opacity="1" /><path clip-path="url(#clip080)" d="M1244.91 1198.75 Q1241.3 1198.75 1239.47 1202.31 Q1237.67 1205.86 1237.67 1212.98 Q1237.67 1220.09 1239.47 1223.66 Q1241.3 1227.2 1244.91 1227.2 Q1248.55 1227.2 1250.35 1223.66 Q1252.18 1220.09 1252.18 1212.98 Q1252.18 1205.86 1250.35 1202.31 Q1248.55 1198.75 1244.91 1198.75 M1244.91 1195.05 Q1250.72 1195.05 1253.78 1199.65 Q1256.86 1204.24 1256.86 1212.98 Q1256.86 1221.71 1253.78 1226.32 Q1250.72 1230.9 1244.91 1230.9 Q1239.1 1230.9 1236.02 1226.32 Q1232.97 1221.71 1232.97 1212.98 Q1232.97 1204.24 1236.02 1199.65 Q1239.1 1195.05 1244.91 1195.05 Z" fill="#000000" fill-rule="nonzero" fill-opacity="1" /><path clip-path="url(#clip080)" d="M1275.07 1198.75 Q1271.46 1198.75 1269.63 1202.31 Q1267.83 1205.86 1267.83 1212.98 Q1267.83 1220.09 1269.63 1223.66 Q1271.46 1227.2 1275.07 1227.2 Q1278.71 1227.2 1280.51 1223.66 Q1282.34 1220.09 1282.34 1212.98 Q1282.34 1205.86 1280.51 1202.31 Q1278.71 1198.75 1275.07 1198.75 M1275.07 1195.05 Q1280.88 1195.05 1283.94 1199.65 Q1287.02 1204.24 1287.02 1212.98 Q1287.02 1221.71 1283.94 1226.32 Q1280.88 1230.9 1275.07 1230.9 Q1269.26 1230.9 1266.18 1226.32 Q1263.13 1221.71 1263.13 1212.98 Q1263.13 1204.24 1266.18 1199.65 Q1269.26 1195.05 1275.07 1195.05 Z" fill="#000000" fill-rule="nonzero" fill-opacity="1" /><path clip-path="url(#clip080)" d="M1710.78 1226.3 L1718.42 1226.3 L1718.42 1199.93 L1710.11 1201.6 L1710.11 1197.34 L1718.37 1195.67 L1723.05 1195.67 L1723.05 1226.3 L1730.69 1226.3 L1730.69 1230.23 L1710.78 1230.23 L1710.78 1226.3 Z" fill="#000000" fill-rule="nonzero" fill-opacity="1" /><path clip-path="url(#clip080)" d="M1740.18 1195.67 L1758.53 1195.67 L1758.53 1199.61 L1744.46 1199.61 L1744.46 1208.08 Q1745.48 1207.73 1746.5 1207.57 Q1747.52 1207.38 1748.53 1207.38 Q1754.32 1207.38 1757.7 1210.55 Q1761.08 1213.73 1761.08 1219.14 Q1761.08 1224.72 1757.61 1227.82 Q1754.14 1230.9 1747.82 1230.9 Q1745.64 1230.9 1743.37 1230.53 Q1741.13 1230.16 1738.72 1229.42 L1738.72 1224.72 Q1740.8 1225.86 1743.02 1226.41 Q1745.25 1226.97 1747.72 1226.97 Q1751.73 1226.97 1754.07 1224.86 Q1756.4 1222.75 1756.4 1219.14 Q1756.4 1215.53 1754.07 1213.42 Q1751.73 1211.32 1747.72 1211.32 Q1745.85 1211.32 1743.97 1211.74 Q1742.12 1212.15 1740.18 1213.03 L1740.18 1195.67 Z" fill="#000000" fill-rule="nonzero" fill-opacity="1" /><path clip-path="url(#clip080)" d="M1780.29 1198.75 Q1776.68 1198.75 1774.85 1202.31 Q1773.05 1205.86 1773.05 1212.98 Q1773.05 1220.09 1774.85 1223.66 Q1776.68 1227.2 1780.29 1227.2 Q1783.93 1227.2 1785.73 1223.66 Q1787.56 1220.09 1787.56 1212.98 Q1787.56 1205.86 1785.73 1202.31 Q1783.93 1198.75 1780.29 1198.75 M1780.29 1195.05 Q1786.1 1195.05 1789.16 1199.65 Q1792.24 1204.24 1792.24 1212.98 Q1792.24 1221.71 1789.16 1226.32 Q1786.1 1230.9 1780.29 1230.9 Q1774.48 1230.9 1771.4 1226.32 Q1768.35 1221.71 1768.35 1212.98 Q1768.35 1204.24 1771.4 1199.65 Q1774.48 1195.05 1780.29 1195.05 Z" fill="#000000" fill-rule="nonzero" fill-opacity="1" /><polyline clip-path="url(#clip080)" style="stroke:#000000; stroke-linecap:round; stroke-linejoin:round; stroke-width:4; stroke-opacity:1; fill:none" points="185.496,1171.03 185.496,107.256 "/>
<polyline clip-path="url(#clip080)" style="stroke:#000000; stroke-linecap:round; stroke-linejoin:round; stroke-width:4; stroke-opacity:1; fill:none" points="185.496,1092.56 204.394,1092.56 "/>
<polyline clip-path="url(#clip080)" style="stroke:#000000; stroke-linecap:round; stroke-linejoin:round; stroke-width:4; stroke-opacity:1; fill:none" points="185.496,853.758 204.394,853.758 "/>
<polyline clip-path="url(#clip080)" style="stroke:#000000; stroke-linecap:round; stroke-linejoin:round; stroke-width:4; stroke-opacity:1; fill:none" points="185.496,614.959 204.394,614.959 "/>
<polyline clip-path="url(#clip080)" style="stroke:#000000; stroke-linecap:round; stroke-linejoin:round; stroke-width:4; stroke-opacity:1; fill:none" points="185.496,376.161 204.394,376.161 "/>
<polyline clip-path="url(#clip080)" style="stroke:#000000; stroke-linecap:round; stroke-linejoin:round; stroke-width:4; stroke-opacity:1; fill:none" points="185.496,137.363 204.394,137.363 "/>
<path clip-path="url(#clip080)" d="M53.6634 1112.35 L61.3023 1112.35 L61.3023 1085.98 L52.9921 1087.65 L52.9921 1083.39 L61.256 1081.72 L65.9319 1081.72 L65.9319 1112.35 L73.5707 1112.35 L73.5707 1116.28 L53.6634 1116.28 L53.6634 1112.35 Z" fill="#000000" fill-rule="nonzero" fill-opacity="1" /><path clip-path="url(#clip080)" d="M93.0151 1084.8 Q89.404 1084.8 87.5753 1088.37 Q85.7697 1091.91 85.7697 1099.04 Q85.7697 1106.14 87.5753 1109.71 Q89.404 1113.25 93.0151 1113.25 Q96.6493 1113.25 98.4548 1109.71 Q100.284 1106.14 100.284 1099.04 Q100.284 1091.91 98.4548 1088.37 Q96.6493 1084.8 93.0151 1084.8 M93.0151 1081.1 Q98.8252 1081.1 101.881 1085.71 Q104.959 1090.29 104.959 1099.04 Q104.959 1107.77 101.881 1112.37 Q98.8252 1116.96 93.0151 1116.96 Q87.2049 1116.96 84.1262 1112.37 Q81.0707 1107.77 81.0707 1099.04 Q81.0707 1090.29 84.1262 1085.71 Q87.2049 1081.1 93.0151 1081.1 Z" fill="#000000" fill-rule="nonzero" fill-opacity="1" /><path clip-path="url(#clip080)" d="M104.959 1075.2 L129.071 1075.2 L129.071 1078.4 L104.959 1078.4 L104.959 1075.2 Z" fill="#000000" fill-rule="nonzero" fill-opacity="1" /><path clip-path="url(#clip080)" d="M147.71 1064.1 L138.118 1079.09 L147.71 1079.09 L147.71 1064.1 M146.713 1060.79 L151.49 1060.79 L151.49 1079.09 L155.496 1079.09 L155.496 1082.25 L151.49 1082.25 L151.49 1088.87 L147.71 1088.87 L147.71 1082.25 L135.033 1082.25 L135.033 1078.59 L146.713 1060.79 Z" fill="#000000" fill-rule="nonzero" fill-opacity="1" /><path clip-path="url(#clip080)" d="M54.585 873.55 L62.2238 873.55 L62.2238 847.185 L53.9137 848.851 L53.9137 844.592 L62.1776 842.925 L66.8535 842.925 L66.8535 873.55 L74.4923 873.55 L74.4923 877.485 L54.585 877.485 L54.585 873.55 Z" fill="#000000" fill-rule="nonzero" fill-opacity="1" /><path clip-path="url(#clip080)" d="M93.9366 846.004 Q90.3255 846.004 88.4969 849.569 Q86.6913 853.111 86.6913 860.24 Q86.6913 867.347 88.4969 870.911 Q90.3255 874.453 93.9366 874.453 Q97.5709 874.453 99.3764 870.911 Q101.205 867.347 101.205 860.24 Q101.205 853.111 99.3764 849.569 Q97.5709 846.004 93.9366 846.004 M93.9366 842.3 Q99.7468 842.3 102.802 846.907 Q105.881 851.49 105.881 860.24 Q105.881 868.967 102.802 873.573 Q99.7468 878.157 93.9366 878.157 Q88.1265 878.157 85.0478 873.573 Q81.9923 868.967 81.9923 860.24 Q81.9923 851.49 85.0478 846.907 Q88.1265 842.3 93.9366 842.3 Z" fill="#000000" fill-rule="nonzero" fill-opacity="1" /><path clip-path="url(#clip080)" d="M105.881 836.402 L129.993 836.402 L129.993 839.599 L105.881 839.599 L105.881 836.402 Z" fill="#000000" fill-rule="nonzero" fill-opacity="1" /><path clip-path="url(#clip080)" d="M149.703 834.935 Q152.43 835.518 153.954 837.361 Q155.496 839.204 155.496 841.912 Q155.496 846.069 152.637 848.345 Q149.778 850.62 144.512 850.62 Q142.744 850.62 140.863 850.263 Q139.002 849.925 137.008 849.229 L137.008 845.561 Q138.588 846.483 140.469 846.953 Q142.349 847.423 144.399 847.423 Q147.973 847.423 149.835 846.013 Q151.716 844.602 151.716 841.912 Q151.716 839.43 149.966 838.038 Q148.236 836.627 145.133 836.627 L141.86 836.627 L141.86 833.505 L145.283 833.505 Q148.086 833.505 149.571 832.396 Q151.057 831.267 151.057 829.161 Q151.057 826.998 149.515 825.851 Q147.992 824.685 145.133 824.685 Q143.572 824.685 141.785 825.023 Q139.998 825.362 137.854 826.076 L137.854 822.691 Q140.017 822.089 141.898 821.788 Q143.797 821.487 145.471 821.487 Q149.797 821.487 152.317 823.462 Q154.838 825.418 154.838 828.766 Q154.838 831.098 153.502 832.715 Q152.167 834.314 149.703 834.935 Z" fill="#000000" fill-rule="nonzero" fill-opacity="1" /><path clip-path="url(#clip080)" d="M55.3561 634.752 L62.995 634.752 L62.995 608.386 L54.6848 610.053 L54.6848 605.794 L62.9487 604.127 L67.6246 604.127 L67.6246 634.752 L75.2634 634.752 L75.2634 638.687 L55.3561 638.687 L55.3561 634.752 Z" fill="#000000" fill-rule="nonzero" fill-opacity="1" /><path clip-path="url(#clip080)" d="M94.7078 607.206 Q91.0967 607.206 89.268 610.771 Q87.4624 614.312 87.4624 621.442 Q87.4624 628.548 89.268 632.113 Q91.0967 635.655 94.7078 635.655 Q98.342 635.655 100.148 632.113 Q101.976 628.548 101.976 621.442 Q101.976 614.312 100.148 610.771 Q98.342 607.206 94.7078 607.206 M94.7078 603.502 Q100.518 603.502 103.573 608.108 Q106.652 612.692 106.652 621.442 Q106.652 630.169 103.573 634.775 Q100.518 639.358 94.7078 639.358 Q88.8976 639.358 85.8189 634.775 Q82.7634 630.169 82.7634 621.442 Q82.7634 612.692 85.8189 608.108 Q88.8976 603.502 94.7078 603.502 Z" fill="#000000" fill-rule="nonzero" fill-opacity="1" /><path clip-path="url(#clip080)" d="M106.652 597.603 L130.764 597.603 L130.764 600.801 L106.652 600.801 L106.652 597.603 Z" fill="#000000" fill-rule="nonzero" fill-opacity="1" /><path clip-path="url(#clip080)" d="M142.236 608.079 L155.496 608.079 L155.496 611.277 L137.666 611.277 L137.666 608.079 Q139.829 605.841 143.553 602.08 Q147.296 598.299 148.255 597.208 Q150.079 595.158 150.794 593.748 Q151.527 592.318 151.527 590.945 Q151.527 588.707 149.948 587.297 Q148.387 585.886 145.866 585.886 Q144.08 585.886 142.086 586.507 Q140.111 587.127 137.854 588.388 L137.854 584.551 Q140.149 583.629 142.142 583.159 Q144.136 582.689 145.791 582.689 Q150.155 582.689 152.75 584.871 Q155.345 587.052 155.345 590.701 Q155.345 592.431 154.687 593.992 Q154.048 595.535 152.336 597.641 Q151.866 598.186 149.346 600.801 Q146.826 603.396 142.236 608.079 Z" fill="#000000" fill-rule="nonzero" fill-opacity="1" /><path clip-path="url(#clip080)" d="M55.0552 395.954 L62.694 395.954 L62.694 369.588 L54.3839 371.255 L54.3839 366.995 L62.6477 365.329 L67.3236 365.329 L67.3236 395.954 L74.9625 395.954 L74.9625 399.889 L55.0552 399.889 L55.0552 395.954 Z" fill="#000000" fill-rule="nonzero" fill-opacity="1" /><path clip-path="url(#clip080)" d="M94.4068 368.407 Q90.7957 368.407 88.967 371.972 Q87.1615 375.514 87.1615 382.643 Q87.1615 389.75 88.967 393.315 Q90.7957 396.856 94.4068 396.856 Q98.0411 396.856 99.8466 393.315 Q101.675 389.75 101.675 382.643 Q101.675 375.514 99.8466 371.972 Q98.0411 368.407 94.4068 368.407 M94.4068 364.704 Q100.217 364.704 103.273 369.31 Q106.351 373.893 106.351 382.643 Q106.351 391.37 103.273 395.977 Q100.217 400.56 94.4068 400.56 Q88.5967 400.56 85.518 395.977 Q82.4625 391.37 82.4625 382.643 Q82.4625 373.893 85.518 369.31 Q88.5967 364.704 94.4068 364.704 Z" fill="#000000" fill-rule="nonzero" fill-opacity="1" /><path clip-path="url(#clip080)" d="M106.351 358.805 L130.463 358.805 L130.463 362.002 L106.351 362.002 L106.351 358.805 Z" fill="#000000" fill-rule="nonzero" fill-opacity="1" /><path clip-path="url(#clip080)" d="M139.321 369.281 L145.528 369.281 L145.528 347.859 L138.776 349.213 L138.776 345.752 L145.49 344.398 L149.289 344.398 L149.289 369.281 L155.496 369.281 L155.496 372.478 L139.321 372.478 L139.321 369.281 Z" fill="#000000" fill-rule="nonzero" fill-opacity="1" /><path clip-path="url(#clip080)" d="M84.7903 157.155 L92.4291 157.155 L92.4291 130.79 L84.119 132.456 L84.119 128.197 L92.3828 126.53 L97.0587 126.53 L97.0587 157.155 L104.698 157.155 L104.698 161.09 L84.7903 161.09 L84.7903 157.155 Z" fill="#000000" fill-rule="nonzero" fill-opacity="1" /><path clip-path="url(#clip080)" d="M124.142 129.609 Q120.531 129.609 118.702 133.174 Q116.897 136.715 116.897 143.845 Q116.897 150.951 118.702 154.516 Q120.531 158.058 124.142 158.058 Q127.776 158.058 129.582 154.516 Q131.41 150.951 131.41 143.845 Q131.41 136.715 129.582 133.174 Q127.776 129.609 124.142 129.609 M124.142 125.905 Q129.952 125.905 133.008 130.512 Q136.086 135.095 136.086 143.845 Q136.086 152.572 133.008 157.178 Q129.952 161.762 124.142 161.762 Q118.332 161.762 115.253 157.178 Q112.198 152.572 112.198 143.845 Q112.198 135.095 115.253 130.512 Q118.332 125.905 124.142 125.905 Z" fill="#000000" fill-rule="nonzero" fill-opacity="1" /><path clip-path="url(#clip080)" d="M145.791 108.101 Q142.857 108.101 141.371 110.998 Q139.904 113.875 139.904 119.668 Q139.904 125.442 141.371 128.338 Q142.857 131.216 145.791 131.216 Q148.744 131.216 150.211 128.338 Q151.697 125.442 151.697 119.668 Q151.697 113.875 150.211 110.998 Q148.744 108.101 145.791 108.101 M145.791 105.092 Q150.512 105.092 152.994 108.835 Q155.496 112.559 155.496 119.668 Q155.496 126.759 152.994 130.501 Q150.512 134.225 145.791 134.225 Q141.07 134.225 138.569 130.501 Q136.086 126.759 136.086 119.668 Q136.086 112.559 138.569 108.835 Q141.07 105.092 145.791 105.092 Z" fill="#000000" fill-rule="nonzero" fill-opacity="1" /><g clip-path="url(#clip080)">
<text style="fill:#000000; fill-opacity:1; font-family:Arial,Helvetica Neue,Helvetica,sans-serif; font-size:66px; text-anchor:middle;" transform="rotate(0, 1069.13, 57.6)" x="1069.13" y="57.6">Diagonal preconditioning in CG</text>
</g>
<polyline clip-path="url(#clip082)" style="stroke:#009af9; stroke-linecap:round; stroke-linejoin:round; stroke-width:8; stroke-opacity:1; fill:none" points="235.513,137.363 245.617,174.197 255.722,246.508 265.826,281.294 275.93,283.376 286.035,286.292 296.139,307.612 306.244,338.077 316.348,359.818 326.452,366.628 336.557,368.464 346.661,379.492 356.766,395.272 366.87,406.955 376.974,413.664 387.079,417.263 397.183,423.645 407.288,431.479 417.392,439.006 427.496,446.186 437.601,450.351 447.705,455.682 457.81,461.342 467.914,468.064 478.018,471.607 488.123,475.16 498.227,477.849 508.332,479.558 518.436,483.331 528.54,485.699 538.645,487.67 548.749,489.986 558.854,489.402 568.958,491.052 579.062,490.5 589.167,490.453 599.271,489.193 609.376,489.118 619.48,485.939 629.584,485.79 639.689,485.194 649.793,481.849 659.898,483.387 670.002,481.434 680.106,481.909 690.211,481.278 700.315,478.677 710.42,480.348 720.524,480.395 730.628,482.539 740.733,484.587 750.837,487.828 760.942,491.154 771.046,495.194 781.15,498.803 791.255,504.352 801.359,508.046 811.464,513.309 821.568,520.856 831.672,525.915 841.777,531.393 851.881,535.23 861.986,540.358 872.09,544.295 882.194,549.805 892.299,555.569 902.403,560.265 912.508,564.82 922.612,565.941 932.716,571.685 942.821,574.757 952.925,577.801 963.03,584.015 973.134,588.45 983.238,593.659 993.343,597.101 1003.45,602.067 1013.55,603.89 1023.66,607.646 1033.76,608.881 1043.86,609.104 1053.97,610.33 1064.07,610.109 1074.18,612.402 1084.28,614.023 1094.39,615.822 1104.49,618.253 1114.6,621.813 1124.7,621.528 1134.8,621.199 1144.91,623.203 1155.01,621.708 1165.12,622.784 1175.22,622.453 1185.33,621.081 1195.43,621.347 1205.54,620.356 1215.64,621.673 1225.74,619.685 1235.85,621.367 1245.95,621.781 1256.06,623.737 1266.16,625.553 1276.27,628.347 1286.37,631.881 1296.47,638.049 1306.58,640.596 1316.68,645.441 1326.79,653.241 1336.89,658.989 1347,665.321 1357.1,669.548 1367.21,675.635 1377.31,683.348 1387.41,691.273 1397.52,699.088 1407.62,708.104 1417.73,716.314 1427.83,721.633 1437.94,729.023 1448.04,737.284 1458.15,744.777 1468.25,754.369 1478.35,763.833 1488.46,772.985 1498.56,779.102 1508.67,788.229 1518.77,795.139 1528.88,802.179 1538.98,810.064 1549.09,819.117 1559.19,827.834 1569.29,838.195 1579.4,847.337 1589.5,854.818 1599.61,864.04 1609.71,870.556 1619.82,881.063 1629.92,891.337 1640.02,900.638 1650.13,907.041 1660.23,919.787 1670.34,927.582 1680.44,934.972 1690.55,944.443 1700.65,953.516 1710.76,961.948 1720.86,970.372 1730.96,978.952 1741.07,989.559 1751.17,999.13 1761.28,1010.17 1771.38,1022.07 1781.49,1030.38 1791.59,1041.14 1801.7,1051.44 1811.8,1060.85 1821.9,1068.79 1832.01,1079.47 1842.11,1088.23 1852.22,1094.58 1862.32,1103.85 1872.43,1113.77 1882.53,1121.59 1892.63,1130.55 1902.74,1140.92 "/>
<polyline clip-path="url(#clip082)" style="stroke:#e26f46; stroke-linecap:round; stroke-linejoin:round; stroke-width:8; stroke-opacity:1; fill:none" points="235.513,137.363 245.617,190.032 255.722,262.181 265.826,331.858 275.93,389.569 286.035,439.403 296.139,483.098 306.244,538.523 316.348,577.4 326.452,605.936 336.557,670.966 346.661,742.774 356.766,797.753 366.87,839.549 376.974,893.13 387.079,943.493 397.183,979.756 407.288,1021.09 417.392,1074.76 "/>
<path clip-path="url(#clip080)" d="M1369.58 298.235 L1893.85 298.235 L1893.85 142.715 L1369.58 142.715  Z" fill="#ffffff" fill-rule="evenodd" fill-opacity="1"/>
<polyline clip-path="url(#clip080)" style="stroke:#000000; stroke-linecap:round; stroke-linejoin:round; stroke-width:4; stroke-opacity:1; fill:none" points="1369.58,298.235 1893.85,298.235 1893.85,142.715 1369.58,142.715 1369.58,298.235 "/>
<polyline clip-path="url(#clip080)" style="stroke:#009af9; stroke-linecap:round; stroke-linejoin:round; stroke-width:8; stroke-opacity:1; fill:none" points="1389.21,194.555 1507.03,194.555 "/>
<path clip-path="url(#clip080)" d="M1530.95 207.946 L1530.95 221.696 L1526.67 221.696 L1526.67 185.909 L1530.95 185.909 L1530.95 189.844 Q1532.29 187.53 1534.33 186.418 Q1536.39 185.284 1539.24 185.284 Q1543.96 185.284 1546.9 189.034 Q1549.86 192.784 1549.86 198.895 Q1549.86 205.006 1546.9 208.756 Q1543.96 212.506 1539.24 212.506 Q1536.39 212.506 1534.33 211.395 Q1532.29 210.261 1530.95 207.946 M1545.44 198.895 Q1545.44 194.196 1543.5 191.534 Q1541.57 188.849 1538.19 188.849 Q1534.81 188.849 1532.87 191.534 Q1530.95 194.196 1530.95 198.895 Q1530.95 203.594 1532.87 206.28 Q1534.81 208.942 1538.19 208.942 Q1541.57 208.942 1543.5 206.28 Q1545.44 203.594 1545.44 198.895 Z" fill="#000000" fill-rule="nonzero" fill-opacity="1" /><path clip-path="url(#clip080)" d="M1556.92 175.817 L1561.18 175.817 L1561.18 211.835 L1556.92 211.835 L1556.92 175.817 Z" fill="#000000" fill-rule="nonzero" fill-opacity="1" /><path clip-path="url(#clip080)" d="M1581.87 198.803 Q1576.71 198.803 1574.72 199.983 Q1572.73 201.164 1572.73 204.011 Q1572.73 206.28 1574.21 207.622 Q1575.72 208.942 1578.29 208.942 Q1581.83 208.942 1583.96 206.442 Q1586.11 203.918 1586.11 199.752 L1586.11 198.803 L1581.87 198.803 M1590.37 197.043 L1590.37 211.835 L1586.11 211.835 L1586.11 207.9 Q1584.65 210.261 1582.48 211.395 Q1580.3 212.506 1577.15 212.506 Q1573.17 212.506 1570.81 210.284 Q1568.47 208.039 1568.47 204.289 Q1568.47 199.914 1571.39 197.692 Q1574.33 195.469 1580.14 195.469 L1586.11 195.469 L1586.11 195.053 Q1586.11 192.113 1584.17 190.516 Q1582.24 188.895 1578.75 188.895 Q1576.53 188.895 1574.42 189.428 Q1572.31 189.96 1570.37 191.025 L1570.37 187.09 Q1572.71 186.187 1574.91 185.747 Q1577.11 185.284 1579.19 185.284 Q1584.81 185.284 1587.59 188.201 Q1590.37 191.118 1590.37 197.043 Z" fill="#000000" fill-rule="nonzero" fill-opacity="1" /><path clip-path="url(#clip080)" d="M1599.14 185.909 L1603.4 185.909 L1603.4 211.835 L1599.14 211.835 L1599.14 185.909 M1599.14 175.817 L1603.4 175.817 L1603.4 181.21 L1599.14 181.21 L1599.14 175.817 Z" fill="#000000" fill-rule="nonzero" fill-opacity="1" /><path clip-path="url(#clip080)" d="M1633.87 196.187 L1633.87 211.835 L1629.61 211.835 L1629.61 196.326 Q1629.61 192.645 1628.17 190.817 Q1626.74 188.988 1623.87 188.988 Q1620.42 188.988 1618.43 191.187 Q1616.43 193.386 1616.43 197.182 L1616.43 211.835 L1612.15 211.835 L1612.15 185.909 L1616.43 185.909 L1616.43 189.937 Q1617.96 187.599 1620.02 186.442 Q1622.11 185.284 1624.81 185.284 Q1629.28 185.284 1631.57 188.062 Q1633.87 190.817 1633.87 196.187 Z" fill="#000000" fill-rule="nonzero" fill-opacity="1" /><polyline clip-path="url(#clip080)" style="stroke:#e26f46; stroke-linecap:round; stroke-linejoin:round; stroke-width:8; stroke-opacity:1; fill:none" points="1389.21,246.395 1507.03,246.395 "/>
<path clip-path="url(#clip080)" d="M1530.95 259.786 L1530.95 273.536 L1526.67 273.536 L1526.67 237.749 L1530.95 237.749 L1530.95 241.684 Q1532.29 239.37 1534.33 238.258 Q1536.39 237.124 1539.24 237.124 Q1543.96 237.124 1546.9 240.874 Q1549.86 244.624 1549.86 250.735 Q1549.86 256.846 1546.9 260.596 Q1543.96 264.346 1539.24 264.346 Q1536.39 264.346 1534.33 263.235 Q1532.29 262.101 1530.95 259.786 M1545.44 250.735 Q1545.44 246.036 1543.5 243.374 Q1541.57 240.689 1538.19 240.689 Q1534.81 240.689 1532.87 243.374 Q1530.95 246.036 1530.95 250.735 Q1530.95 255.434 1532.87 258.12 Q1534.81 260.782 1538.19 260.782 Q1541.57 260.782 1543.5 258.12 Q1545.44 255.434 1545.44 250.735 Z" fill="#000000" fill-rule="nonzero" fill-opacity="1" /><path clip-path="url(#clip080)" d="M1571.94 241.731 Q1571.23 241.314 1570.37 241.129 Q1569.54 240.921 1568.52 240.921 Q1564.91 240.921 1562.96 243.282 Q1561.04 245.62 1561.04 250.018 L1561.04 263.675 L1556.76 263.675 L1556.76 237.749 L1561.04 237.749 L1561.04 241.777 Q1562.38 239.416 1564.54 238.282 Q1566.69 237.124 1569.77 237.124 Q1570.21 237.124 1570.74 237.194 Q1571.27 237.24 1571.92 237.356 L1571.94 241.731 Z" fill="#000000" fill-rule="nonzero" fill-opacity="1" /><path clip-path="url(#clip080)" d="M1597.55 249.647 L1597.55 251.731 L1577.96 251.731 Q1578.24 256.129 1580.6 258.444 Q1582.99 260.735 1587.22 260.735 Q1589.68 260.735 1591.97 260.133 Q1594.28 259.532 1596.55 258.328 L1596.55 262.356 Q1594.26 263.328 1591.85 263.837 Q1589.44 264.346 1586.97 264.346 Q1580.76 264.346 1577.13 260.735 Q1573.52 257.124 1573.52 250.967 Q1573.52 244.601 1576.94 240.874 Q1580.39 237.124 1586.23 237.124 Q1591.46 237.124 1594.49 240.504 Q1597.55 243.86 1597.55 249.647 M1593.29 248.397 Q1593.24 244.902 1591.32 242.819 Q1589.42 240.735 1586.27 240.735 Q1582.71 240.735 1580.56 242.749 Q1578.43 244.763 1578.1 248.42 L1593.29 248.397 Z" fill="#000000" fill-rule="nonzero" fill-opacity="1" /><path clip-path="url(#clip080)" d="M1623.19 238.745 L1623.19 242.726 Q1621.39 241.731 1619.56 241.245 Q1617.75 240.735 1615.9 240.735 Q1611.76 240.735 1609.47 243.374 Q1607.18 245.99 1607.18 250.735 Q1607.18 255.481 1609.47 258.12 Q1611.76 260.735 1615.9 260.735 Q1617.75 260.735 1619.56 260.249 Q1621.39 259.74 1623.19 258.744 L1623.19 262.68 Q1621.41 263.513 1619.49 263.93 Q1617.59 264.346 1615.44 264.346 Q1609.58 264.346 1606.13 260.666 Q1602.68 256.985 1602.68 250.735 Q1602.68 244.393 1606.16 240.758 Q1609.65 237.124 1615.72 237.124 Q1617.68 237.124 1619.56 237.541 Q1621.43 237.934 1623.19 238.745 Z" fill="#000000" fill-rule="nonzero" fill-opacity="1" /><path clip-path="url(#clip080)" d="M1640.65 240.735 Q1637.22 240.735 1635.23 243.421 Q1633.24 246.083 1633.24 250.735 Q1633.24 255.388 1635.21 258.073 Q1637.2 260.735 1640.65 260.735 Q1644.05 260.735 1646.04 258.05 Q1648.03 255.365 1648.03 250.735 Q1648.03 246.129 1646.04 243.444 Q1644.05 240.735 1640.65 240.735 M1640.65 237.124 Q1646.2 237.124 1649.37 240.735 Q1652.55 244.346 1652.55 250.735 Q1652.55 257.101 1649.37 260.735 Q1646.2 264.346 1640.65 264.346 Q1635.07 264.346 1631.9 260.735 Q1628.75 257.101 1628.75 250.735 Q1628.75 244.346 1631.9 240.735 Q1635.07 237.124 1640.65 237.124 Z" fill="#000000" fill-rule="nonzero" fill-opacity="1" /><path clip-path="url(#clip080)" d="M1681.16 248.027 L1681.16 263.675 L1676.9 263.675 L1676.9 248.166 Q1676.9 244.485 1675.46 242.657 Q1674.03 240.828 1671.16 240.828 Q1667.71 240.828 1665.72 243.027 Q1663.73 245.226 1663.73 249.022 L1663.73 263.675 L1659.44 263.675 L1659.44 237.749 L1663.73 237.749 L1663.73 241.777 Q1665.25 239.439 1667.31 238.282 Q1669.4 237.124 1672.11 237.124 Q1676.57 237.124 1678.86 239.902 Q1681.16 242.657 1681.16 248.027 Z" fill="#000000" fill-rule="nonzero" fill-opacity="1" /><path clip-path="url(#clip080)" d="M1706.71 241.684 L1706.71 227.657 L1710.97 227.657 L1710.97 263.675 L1706.71 263.675 L1706.71 259.786 Q1705.37 262.101 1703.31 263.235 Q1701.27 264.346 1698.4 264.346 Q1693.7 264.346 1690.74 260.596 Q1687.8 256.846 1687.8 250.735 Q1687.8 244.624 1690.74 240.874 Q1693.7 237.124 1698.4 237.124 Q1701.27 237.124 1703.31 238.258 Q1705.37 239.37 1706.71 241.684 M1692.2 250.735 Q1692.2 255.434 1694.12 258.12 Q1696.06 260.782 1699.44 260.782 Q1702.82 260.782 1704.77 258.12 Q1706.71 255.434 1706.71 250.735 Q1706.71 246.036 1704.77 243.374 Q1702.82 240.689 1699.44 240.689 Q1696.06 240.689 1694.12 243.374 Q1692.2 246.036 1692.2 250.735 Z" fill="#000000" fill-rule="nonzero" fill-opacity="1" /><path clip-path="url(#clip080)" d="M1719.74 237.749 L1724 237.749 L1724 263.675 L1719.74 263.675 L1719.74 237.749 M1719.74 227.657 L1724 227.657 L1724 233.05 L1719.74 233.05 L1719.74 227.657 Z" fill="#000000" fill-rule="nonzero" fill-opacity="1" /><path clip-path="url(#clip080)" d="M1737.13 230.388 L1737.13 237.749 L1745.9 237.749 L1745.9 241.059 L1737.13 241.059 L1737.13 255.133 Q1737.13 258.305 1737.98 259.207 Q1738.86 260.11 1741.53 260.11 L1745.9 260.11 L1745.9 263.675 L1741.53 263.675 Q1736.6 263.675 1734.72 261.846 Q1732.85 259.994 1732.85 255.133 L1732.85 241.059 L1729.72 241.059 L1729.72 237.749 L1732.85 237.749 L1732.85 230.388 L1737.13 230.388 Z" fill="#000000" fill-rule="nonzero" fill-opacity="1" /><path clip-path="url(#clip080)" d="M1751.5 237.749 L1755.76 237.749 L1755.76 263.675 L1751.5 263.675 L1751.5 237.749 M1751.5 227.657 L1755.76 227.657 L1755.76 233.05 L1751.5 233.05 L1751.5 227.657 Z" fill="#000000" fill-rule="nonzero" fill-opacity="1" /><path clip-path="url(#clip080)" d="M1774.72 240.735 Q1771.29 240.735 1769.3 243.421 Q1767.31 246.083 1767.31 250.735 Q1767.31 255.388 1769.28 258.073 Q1771.27 260.735 1774.72 260.735 Q1778.12 260.735 1780.11 258.05 Q1782.11 255.365 1782.11 250.735 Q1782.11 246.129 1780.11 243.444 Q1778.12 240.735 1774.72 240.735 M1774.72 237.124 Q1780.28 237.124 1783.45 240.735 Q1786.62 244.346 1786.62 250.735 Q1786.62 257.101 1783.45 260.735 Q1780.28 264.346 1774.72 264.346 Q1769.14 264.346 1765.97 260.735 Q1762.82 257.101 1762.82 250.735 Q1762.82 244.346 1765.97 240.735 Q1769.14 237.124 1774.72 237.124 Z" fill="#000000" fill-rule="nonzero" fill-opacity="1" /><path clip-path="url(#clip080)" d="M1815.23 248.027 L1815.23 263.675 L1810.97 263.675 L1810.97 248.166 Q1810.97 244.485 1809.54 242.657 Q1808.1 240.828 1805.23 240.828 Q1801.78 240.828 1799.79 243.027 Q1797.8 245.226 1797.8 249.022 L1797.8 263.675 L1793.52 263.675 L1793.52 237.749 L1797.8 237.749 L1797.8 241.777 Q1799.33 239.439 1801.39 238.282 Q1803.47 237.124 1806.18 237.124 Q1810.65 237.124 1812.94 239.902 Q1815.23 242.657 1815.23 248.027 Z" fill="#000000" fill-rule="nonzero" fill-opacity="1" /><path clip-path="url(#clip080)" d="M1845.9 249.647 L1845.9 251.731 L1826.32 251.731 Q1826.6 256.129 1828.96 258.444 Q1831.34 260.735 1835.58 260.735 Q1838.03 260.735 1840.32 260.133 Q1842.64 259.532 1844.91 258.328 L1844.91 262.356 Q1842.61 263.328 1840.21 263.837 Q1837.8 264.346 1835.32 264.346 Q1829.12 264.346 1825.48 260.735 Q1821.87 257.124 1821.87 250.967 Q1821.87 244.601 1825.3 240.874 Q1828.75 237.124 1834.58 237.124 Q1839.81 237.124 1842.85 240.504 Q1845.9 243.86 1845.9 249.647 M1841.64 248.397 Q1841.6 244.902 1839.67 242.819 Q1837.78 240.735 1834.63 240.735 Q1831.06 240.735 1828.91 242.749 Q1826.78 244.763 1826.46 248.42 L1841.64 248.397 Z" fill="#000000" fill-rule="nonzero" fill-opacity="1" /><path clip-path="url(#clip080)" d="M1869.95 241.684 L1869.95 227.657 L1874.21 227.657 L1874.21 263.675 L1869.95 263.675 L1869.95 259.786 Q1868.61 262.101 1866.55 263.235 Q1864.51 264.346 1861.64 264.346 Q1856.94 264.346 1853.98 260.596 Q1851.04 256.846 1851.04 250.735 Q1851.04 244.624 1853.98 240.874 Q1856.94 237.124 1861.64 237.124 Q1864.51 237.124 1866.55 238.258 Q1868.61 239.37 1869.95 241.684 M1855.44 250.735 Q1855.44 255.434 1857.36 258.12 Q1859.3 260.782 1862.68 260.782 Q1866.06 260.782 1868.01 258.12 Q1869.95 255.434 1869.95 250.735 Q1869.95 246.036 1868.01 243.374 Q1866.06 240.689 1862.68 240.689 Q1859.3 240.689 1857.36 243.374 Q1855.44 246.036 1855.44 250.735 Z" fill="#000000" fill-rule="nonzero" fill-opacity="1" /></svg>
