<svg width="136" height="20" viewBox="0 0 136 20" fill="none" xmlns="http://www.w3.org/2000/svg">
<path d="M0 4C0 1.79086 1.79086 0 4 0H20V20H4C1.79086 20 0 18.2091 0 16V4Z" fill="#D95319"/>
<g clip-path="url(#clip0_314_160)">
<path d="M6.175 11.5752C5.575 11.1252 4.825 10.6002 4 10.0002C4.975 9.6252 5.95 9.2502 6.925 8.8752L8.125 9.7752C7.225 10.8252 6.625 11.2002 6.175 11.5752ZM14.2 8.4252C13.975 7.8252 13.825 7.2252 13.6 6.6252C13.375 5.9502 13.15 5.3502 12.775 4.8252C12.625 4.6002 12.325 4.0752 11.95 4.0752C11.875 4.0752 11.8 4.1502 11.725 4.1502C11.5 4.2252 11.2 4.6752 11.125 4.9752C10.9 5.3502 10.45 5.9502 10.15 6.3252C10.075 6.4752 9.925 6.6252 9.85 6.7002C9.625 6.8502 9.4 7.0752 9.1 7.2252C9.025 7.2252 8.95 7.3002 8.875 7.3002C8.65 7.3002 8.5 7.4502 8.35 7.5252C8.125 7.7502 7.9 8.0502 7.675 8.2752C7.675 8.3502 7.6 8.4252 7.525 8.5002L8.65 9.3252C9.475 8.3502 10.45 7.3752 11.125 5.5002C11.125 5.5002 10.9 7.5252 9.1 9.7002C7.975 10.9752 7.075 11.6502 6.925 11.8002C6.925 11.8002 7.225 11.7252 7.525 11.8752C8.125 12.1002 8.425 12.9252 8.65 13.5252C8.8 13.9752 9.025 14.3502 9.175 14.8002C9.775 14.6502 10.15 14.4252 10.525 14.0502C10.9 13.6752 11.275 13.2252 11.65 12.8502C12.325 12.0252 13.15 10.9752 14.2 11.5002C14.35 11.5752 14.575 11.7252 14.65 11.8002C14.875 11.9502 15.025 12.1002 15.25 12.3252C15.625 12.6252 15.775 12.8502 16.075 13.0002C15.325 11.5002 14.8 10.0002 14.2 8.4252Z" fill="white"/>
</g>
<path d="M20 0H132C134.209 0 136 1.79086 136 4V16C136 18.2091 134.209 20 132 20H20V0Z" fill="#0076A8"/>
<path d="M30.5635 9.2793V9.61621C30.5635 10.1566 30.4902 10.6416 30.3438 11.0713C30.1973 11.501 29.9906 11.8672 29.7236 12.1699C29.4567 12.4694 29.1377 12.6989 28.7666 12.8584C28.3988 13.0179 27.9902 13.0977 27.541 13.0977C27.0951 13.0977 26.6865 13.0179 26.3154 12.8584C25.9476 12.6989 25.6286 12.4694 25.3584 12.1699C25.0882 11.8672 24.8783 11.501 24.7285 11.0713C24.582 10.6416 24.5088 10.1566 24.5088 9.61621V9.2793C24.5088 8.73568 24.582 8.25065 24.7285 7.82422C24.875 7.39453 25.0817 7.02832 25.3486 6.72559C25.6188 6.42285 25.9378 6.19173 26.3057 6.03223C26.6768 5.87272 27.0853 5.79297 27.5312 5.79297C27.9805 5.79297 28.389 5.87272 28.7568 6.03223C29.1279 6.19173 29.4469 6.42285 29.7139 6.72559C29.984 7.02832 30.1924 7.39453 30.3389 7.82422C30.4886 8.25065 30.5635 8.73568 30.5635 9.2793ZM29.084 9.61621V9.26953C29.084 8.89193 29.0498 8.5599 28.9814 8.27344C28.9131 7.98698 28.8122 7.74609 28.6787 7.55078C28.5452 7.35547 28.3825 7.20898 28.1904 7.11133C27.9984 7.01042 27.7786 6.95996 27.5312 6.95996C27.2839 6.95996 27.0641 7.01042 26.8721 7.11133C26.6833 7.20898 26.5221 7.35547 26.3887 7.55078C26.2585 7.74609 26.1592 7.98698 26.0908 8.27344C26.0225 8.5599 25.9883 8.89193 25.9883 9.26953V9.61621C25.9883 9.99056 26.0225 10.3226 26.0908 10.6123C26.1592 10.8988 26.2601 11.1413 26.3936 11.3398C26.527 11.5352 26.6898 11.6833 26.8818 11.7842C27.0739 11.8851 27.2936 11.9355 27.541 11.9355C27.7884 11.9355 28.0081 11.8851 28.2002 11.7842C28.3923 11.6833 28.5534 11.5352 28.6836 11.3398C28.8138 11.1413 28.9131 10.8988 28.9814 10.6123C29.0498 10.3226 29.084 9.99056 29.084 9.61621ZM32.9365 8.73242V15.0312H31.5303V7.7168H32.834L32.9365 8.73242ZM36.2812 10.2998V10.4023C36.2812 10.7865 36.2357 11.1429 36.1445 11.4717C36.0566 11.8005 35.9264 12.0869 35.7539 12.3311C35.5814 12.5719 35.3665 12.7607 35.1094 12.8975C34.8555 13.0309 34.5625 13.0977 34.2305 13.0977C33.9082 13.0977 33.6283 13.0326 33.3906 12.9023C33.153 12.7721 32.9528 12.5898 32.79 12.3555C32.6305 12.1178 32.502 11.8428 32.4043 11.5303C32.3066 11.2178 32.2318 10.8825 32.1797 10.5244V10.2559C32.2318 9.87174 32.3066 9.52018 32.4043 9.20117C32.502 8.87891 32.6305 8.60059 32.79 8.36621C32.9528 8.12858 33.1514 7.94466 33.3857 7.81445C33.6234 7.68424 33.9017 7.61914 34.2207 7.61914C34.556 7.61914 34.8506 7.68262 35.1045 7.80957C35.3617 7.93652 35.5765 8.11882 35.749 8.35645C35.9248 8.59408 36.0566 8.87728 36.1445 9.20605C36.2357 9.53483 36.2812 9.89941 36.2812 10.2998ZM34.8701 10.4023V10.2998C34.8701 10.0752 34.8506 9.86849 34.8115 9.67969C34.7757 9.48763 34.7171 9.31999 34.6357 9.17676C34.5576 9.03353 34.4535 8.92285 34.3232 8.84473C34.1963 8.76335 34.0417 8.72266 33.8594 8.72266C33.6673 8.72266 33.5029 8.75358 33.3662 8.81543C33.2327 8.87728 33.1237 8.9668 33.0391 9.08398C32.9544 9.20117 32.891 9.34115 32.8486 9.50391C32.8063 9.66667 32.7803 9.85059 32.7705 10.0557V10.7344C32.7868 10.9753 32.8324 11.1917 32.9072 11.3838C32.9821 11.5726 33.0977 11.7223 33.2539 11.833C33.4102 11.9437 33.6152 11.999 33.8691 11.999C34.0547 11.999 34.2109 11.9583 34.3379 11.877C34.4648 11.7923 34.5674 11.6768 34.6455 11.5303C34.7269 11.3838 34.7839 11.2145 34.8164 11.0225C34.8522 10.8304 34.8701 10.6237 34.8701 10.4023ZM39.5869 13.0977C39.1768 13.0977 38.8089 13.0326 38.4834 12.9023C38.1579 12.7689 37.8812 12.585 37.6533 12.3506C37.4287 12.1162 37.2562 11.8444 37.1357 11.5352C37.0153 11.2227 36.9551 10.8906 36.9551 10.5391V10.3438C36.9551 9.94336 37.012 9.57715 37.126 9.24512C37.2399 8.91309 37.4027 8.625 37.6143 8.38086C37.8291 8.13672 38.0895 7.94954 38.3955 7.81934C38.7015 7.68587 39.0465 7.61914 39.4307 7.61914C39.805 7.61914 40.137 7.68099 40.4268 7.80469C40.7165 7.92839 40.959 8.10417 41.1543 8.33203C41.3529 8.5599 41.5026 8.83333 41.6035 9.15234C41.7044 9.4681 41.7549 9.81966 41.7549 10.207V10.793H37.5557V9.85547H40.373V9.74805C40.373 9.55273 40.3372 9.37858 40.2656 9.22559C40.1973 9.06934 40.0931 8.94564 39.9531 8.85449C39.8132 8.76335 39.6341 8.71777 39.416 8.71777C39.2305 8.71777 39.071 8.75846 38.9375 8.83984C38.804 8.92122 38.695 9.03516 38.6104 9.18164C38.529 9.32812 38.4671 9.50065 38.4248 9.69922C38.3857 9.89453 38.3662 10.1094 38.3662 10.3438V10.5391C38.3662 10.7507 38.3955 10.946 38.4541 11.125C38.516 11.304 38.6022 11.4587 38.7129 11.5889C38.8268 11.7191 38.9635 11.82 39.123 11.8916C39.2858 11.9632 39.4697 11.999 39.6748 11.999C39.9287 11.999 40.1647 11.9502 40.3828 11.8525C40.6042 11.7516 40.7946 11.6003 40.9541 11.3984L41.6377 12.1406C41.527 12.3001 41.3757 12.4531 41.1836 12.5996C40.9948 12.7461 40.7669 12.8665 40.5 12.9609C40.2331 13.0521 39.9287 13.0977 39.5869 13.0977ZM43.9326 8.84473V13H42.5264V7.7168H43.8447L43.9326 8.84473ZM43.7275 10.1729H43.3467C43.3467 9.78223 43.3971 9.43066 43.498 9.11816C43.599 8.80241 43.7406 8.53385 43.9229 8.3125C44.1051 8.08789 44.3216 7.91699 44.5723 7.7998C44.8262 7.67936 45.1094 7.61914 45.4219 7.61914C45.6693 7.61914 45.8955 7.65495 46.1006 7.72656C46.3057 7.79818 46.4814 7.91211 46.6279 8.06836C46.7777 8.22461 46.8916 8.43132 46.9697 8.68848C47.0511 8.94564 47.0918 9.25977 47.0918 9.63086V13H45.6758V9.62598C45.6758 9.3916 45.6432 9.20931 45.5781 9.0791C45.513 8.94889 45.417 8.85775 45.29 8.80566C45.1663 8.75033 45.0133 8.72266 44.8311 8.72266C44.6423 8.72266 44.4779 8.76009 44.3379 8.83496C44.2012 8.90983 44.0872 9.014 43.9961 9.14746C43.9082 9.27767 43.8415 9.43066 43.7959 9.60645C43.7503 9.78223 43.7275 9.97103 43.7275 10.1729ZM52.1357 7.7168V13H50.7246V7.7168H52.1357ZM50.6367 6.33984C50.6367 6.13477 50.7083 5.96549 50.8516 5.83203C50.9948 5.69857 51.1868 5.63184 51.4277 5.63184C51.6654 5.63184 51.8558 5.69857 51.999 5.83203C52.1455 5.96549 52.2188 6.13477 52.2188 6.33984C52.2188 6.54492 52.1455 6.71419 51.999 6.84766C51.8558 6.98112 51.6654 7.04785 51.4277 7.04785C51.1868 7.04785 50.9948 6.98112 50.8516 6.84766C50.7083 6.71419 50.6367 6.54492 50.6367 6.33984ZM54.6748 8.84473V13H53.2686V7.7168H54.5869L54.6748 8.84473ZM54.4697 10.1729H54.0889C54.0889 9.78223 54.1393 9.43066 54.2402 9.11816C54.3411 8.80241 54.4827 8.53385 54.665 8.3125C54.8473 8.08789 55.0638 7.91699 55.3145 7.7998C55.5684 7.67936 55.8516 7.61914 56.1641 7.61914C56.4115 7.61914 56.6377 7.65495 56.8428 7.72656C57.0479 7.79818 57.2236 7.91211 57.3701 8.06836C57.5199 8.22461 57.6338 8.43132 57.7119 8.68848C57.7933 8.94564 57.834 9.25977 57.834 9.63086V13H56.418V9.62598C56.418 9.3916 56.3854 9.20931 56.3203 9.0791C56.2552 8.94889 56.1592 8.85775 56.0322 8.80566C55.9085 8.75033 55.7555 8.72266 55.5732 8.72266C55.3844 8.72266 55.2201 8.76009 55.0801 8.83496C54.9434 8.90983 54.8294 9.014 54.7383 9.14746C54.6504 9.27767 54.5837 9.43066 54.5381 9.60645C54.4925 9.78223 54.4697 9.97103 54.4697 10.1729ZM62.1504 5.89062H63.3906L65.2168 11.1104L67.043 5.89062H68.2832L65.7148 13H64.7188L62.1504 5.89062ZM61.4814 5.89062H62.7168L62.9414 10.9785V13H61.4814V5.89062ZM67.7168 5.89062H68.957V13H67.4922V10.9785L67.7168 5.89062ZM73.2197 7.10645L71.2861 13H69.7285L72.3701 5.89062H73.3613L73.2197 7.10645ZM74.8262 13L72.8877 7.10645L72.7314 5.89062H73.7324L76.3887 13H74.8262ZM74.7383 10.3535V11.501H70.9834V10.3535H74.7383ZM79.6211 5.89062V13H78.1611V5.89062H79.6211ZM81.8086 5.89062V7.03809H76.0078V5.89062H81.8086ZM87.2139 11.8574V13H83.6348V11.8574H87.2139ZM84.1084 5.89062V13H82.6436V5.89062H84.1084ZM91.042 7.10645L89.1084 13H87.5508L90.1924 5.89062H91.1836L91.042 7.10645ZM92.6484 13L90.71 7.10645L90.5537 5.89062H91.5547L94.2109 13H92.6484ZM92.5605 10.3535V11.501H88.8057V10.3535H92.5605ZM97.6533 9.87988H95.8271L95.8174 8.87402H97.3506C97.6208 8.87402 97.8421 8.83984 98.0146 8.77148C98.1872 8.69987 98.3158 8.59733 98.4004 8.46387C98.4883 8.32715 98.5322 8.16113 98.5322 7.96582C98.5322 7.74447 98.4899 7.56543 98.4053 7.42871C98.3239 7.29199 98.1953 7.19271 98.0195 7.13086C97.847 7.06901 97.624 7.03809 97.3506 7.03809H96.335V13H94.8701V5.89062H97.3506C97.764 5.89062 98.1335 5.92969 98.459 6.00781C98.7878 6.08594 99.0661 6.20475 99.2939 6.36426C99.5218 6.52376 99.696 6.72559 99.8164 6.96973C99.9368 7.21061 99.9971 7.49707 99.9971 7.8291C99.9971 8.12207 99.9303 8.39225 99.7969 8.63965C99.6667 8.88704 99.46 9.08887 99.1768 9.24512C98.8968 9.40137 98.5306 9.48763 98.0781 9.50391L97.6533 9.87988ZM97.5898 13H95.4268L95.998 11.8574H97.5898C97.847 11.8574 98.057 11.8167 98.2197 11.7354C98.3825 11.6507 98.5029 11.5368 98.5811 11.3936C98.6592 11.2503 98.6982 11.0859 98.6982 10.9004C98.6982 10.6921 98.6624 10.5114 98.5908 10.3584C98.5225 10.2054 98.4118 10.0882 98.2588 10.0068C98.1058 9.9222 97.904 9.87988 97.6533 9.87988H96.2422L96.252 8.87402H98.0098L98.3467 9.26953C98.7796 9.26302 99.1279 9.33952 99.3916 9.49902C99.6585 9.65527 99.8522 9.85872 99.9727 10.1094C100.096 10.36 100.158 10.6286 100.158 10.915C100.158 11.3708 100.059 11.7549 99.8604 12.0674C99.6618 12.3766 99.3704 12.6094 98.9863 12.7656C98.6055 12.9219 98.14 13 97.5898 13ZM109.587 9.2793V9.61621C109.587 10.1566 109.514 10.6416 109.367 11.0713C109.221 11.501 109.014 11.8672 108.747 12.1699C108.48 12.4694 108.161 12.6989 107.79 12.8584C107.422 13.0179 107.014 13.0977 106.564 13.0977C106.118 13.0977 105.71 13.0179 105.339 12.8584C104.971 12.6989 104.652 12.4694 104.382 12.1699C104.112 11.8672 103.902 11.501 103.752 11.0713C103.605 10.6416 103.532 10.1566 103.532 9.61621V9.2793C103.532 8.73568 103.605 8.25065 103.752 7.82422C103.898 7.39453 104.105 7.02832 104.372 6.72559C104.642 6.42285 104.961 6.19173 105.329 6.03223C105.7 5.87272 106.109 5.79297 106.555 5.79297C107.004 5.79297 107.412 5.87272 107.78 6.03223C108.151 6.19173 108.47 6.42285 108.737 6.72559C109.007 7.02832 109.216 7.39453 109.362 7.82422C109.512 8.25065 109.587 8.73568 109.587 9.2793ZM108.107 9.61621V9.26953C108.107 8.89193 108.073 8.5599 108.005 8.27344C107.937 7.98698 107.836 7.74609 107.702 7.55078C107.569 7.35547 107.406 7.20898 107.214 7.11133C107.022 7.01042 106.802 6.95996 106.555 6.95996C106.307 6.95996 106.088 7.01042 105.896 7.11133C105.707 7.20898 105.546 7.35547 105.412 7.55078C105.282 7.74609 105.183 7.98698 105.114 8.27344C105.046 8.5599 105.012 8.89193 105.012 9.26953V9.61621C105.012 9.99056 105.046 10.3226 105.114 10.6123C105.183 10.8988 105.284 11.1413 105.417 11.3398C105.55 11.5352 105.713 11.6833 105.905 11.7842C106.097 11.8851 106.317 11.9355 106.564 11.9355C106.812 11.9355 107.032 11.8851 107.224 11.7842C107.416 11.6833 107.577 11.5352 107.707 11.3398C107.837 11.1413 107.937 10.8988 108.005 10.6123C108.073 10.3226 108.107 9.99056 108.107 9.61621ZM111.931 8.84473V13H110.524V7.7168H111.843L111.931 8.84473ZM111.726 10.1729H111.345C111.345 9.78223 111.395 9.43066 111.496 9.11816C111.597 8.80241 111.739 8.53385 111.921 8.3125C112.103 8.08789 112.32 7.91699 112.57 7.7998C112.824 7.67936 113.107 7.61914 113.42 7.61914C113.667 7.61914 113.894 7.65495 114.099 7.72656C114.304 7.79818 114.479 7.91211 114.626 8.06836C114.776 8.22461 114.89 8.43132 114.968 8.68848C115.049 8.94564 115.09 9.25977 115.09 9.63086V13H113.674V9.62598C113.674 9.3916 113.641 9.20931 113.576 9.0791C113.511 8.94889 113.415 8.85775 113.288 8.80566C113.164 8.75033 113.011 8.72266 112.829 8.72266C112.64 8.72266 112.476 8.76009 112.336 8.83496C112.199 8.90983 112.085 9.014 111.994 9.14746C111.906 9.27767 111.84 9.43066 111.794 9.60645C111.748 9.78223 111.726 9.97103 111.726 10.1729ZM117.644 5.5V13H116.232V5.5H117.644ZM120.29 7.7168V13H118.879V7.7168H120.29ZM118.791 6.33984C118.791 6.13477 118.863 5.96549 119.006 5.83203C119.149 5.69857 119.341 5.63184 119.582 5.63184C119.82 5.63184 120.01 5.69857 120.153 5.83203C120.3 5.96549 120.373 6.13477 120.373 6.33984C120.373 6.54492 120.3 6.71419 120.153 6.84766C120.01 6.98112 119.82 7.04785 119.582 7.04785C119.341 7.04785 119.149 6.98112 119.006 6.84766C118.863 6.71419 118.791 6.54492 118.791 6.33984ZM122.829 8.84473V13H121.423V7.7168H122.741L122.829 8.84473ZM122.624 10.1729H122.243C122.243 9.78223 122.294 9.43066 122.395 9.11816C122.495 8.80241 122.637 8.53385 122.819 8.3125C123.002 8.08789 123.218 7.91699 123.469 7.7998C123.723 7.67936 124.006 7.61914 124.318 7.61914C124.566 7.61914 124.792 7.65495 124.997 7.72656C125.202 7.79818 125.378 7.91211 125.524 8.06836C125.674 8.22461 125.788 8.43132 125.866 8.68848C125.948 8.94564 125.988 9.25977 125.988 9.63086V13H124.572V9.62598C124.572 9.3916 124.54 9.20931 124.475 9.0791C124.41 8.94889 124.313 8.85775 124.187 8.80566C124.063 8.75033 123.91 8.72266 123.728 8.72266C123.539 8.72266 123.374 8.76009 123.234 8.83496C123.098 8.90983 122.984 9.014 122.893 9.14746C122.805 9.27767 122.738 9.43066 122.692 9.60645C122.647 9.78223 122.624 9.97103 122.624 10.1729ZM129.489 13.0977C129.079 13.0977 128.711 13.0326 128.386 12.9023C128.06 12.7689 127.784 12.585 127.556 12.3506C127.331 12.1162 127.159 11.8444 127.038 11.5352C126.918 11.2227 126.857 10.8906 126.857 10.5391V10.3438C126.857 9.94336 126.914 9.57715 127.028 9.24512C127.142 8.91309 127.305 8.625 127.517 8.38086C127.731 8.13672 127.992 7.94954 128.298 7.81934C128.604 7.68587 128.949 7.61914 129.333 7.61914C129.707 7.61914 130.039 7.68099 130.329 7.80469C130.619 7.92839 130.861 8.10417 131.057 8.33203C131.255 8.5599 131.405 8.83333 131.506 9.15234C131.607 9.4681 131.657 9.81966 131.657 10.207V10.793H127.458V9.85547H130.275V9.74805C130.275 9.55273 130.24 9.37858 130.168 9.22559C130.1 9.06934 129.995 8.94564 129.855 8.85449C129.715 8.76335 129.536 8.71777 129.318 8.71777C129.133 8.71777 128.973 8.75846 128.84 8.83984C128.706 8.92122 128.597 9.03516 128.513 9.18164C128.431 9.32812 128.369 9.50065 128.327 9.69922C128.288 9.89453 128.269 10.1094 128.269 10.3438V10.5391C128.269 10.7507 128.298 10.946 128.356 11.125C128.418 11.304 128.505 11.4587 128.615 11.5889C128.729 11.7191 128.866 11.82 129.025 11.8916C129.188 11.9632 129.372 11.999 129.577 11.999C129.831 11.999 130.067 11.9502 130.285 11.8525C130.507 11.7516 130.697 11.6003 130.856 11.3984L131.54 12.1406C131.429 12.3001 131.278 12.4531 131.086 12.5996C130.897 12.7461 130.669 12.8665 130.402 12.9609C130.135 13.0521 129.831 13.0977 129.489 13.0977Z" fill="white"/>
<defs>
<clipPath id="clip0_314_160">
<rect width="12" height="12" fill="white" transform="translate(4 4)"/>
</clipPath>
</defs>
</svg>
