<?xml version="1.0" encoding="utf-8"?>
<svg xmlns="http://www.w3.org/2000/svg" xmlns:xlink="http://www.w3.org/1999/xlink" width="800" height="220" viewBox="0 0 3200 880">
<defs>
  <clipPath id="clip700">
    <rect x="0" y="0" width="3200" height="880"/>
  </clipPath>
</defs>
<path clip-path="url(#clip700)" d="
M0 880 L3200 880 L3200 0 L0 0  Z
  " fill="#ffffff" fill-rule="evenodd" fill-opacity="1"/>
<defs>
  <clipPath id="clip701">
    <rect x="640" y="0" width="2241" height="880"/>
  </clipPath>
</defs>
<path clip-path="url(#clip700)" d="
M188.66 794.375 L1566.14 794.375 L1566.14 47.2441 L188.66 47.2441  Z
  " fill="#ffffff" fill-rule="evenodd" fill-opacity="1"/>
<defs>
  <clipPath id="clip702">
    <rect x="188" y="47" width="1378" height="748"/>
  </clipPath>
</defs>
<polyline clip-path="url(#clip702)" style="stroke:#009af9; stroke-width:8; stroke-opacity:1; fill:none" stroke-dasharray="32, 20" points="
  227.646,169.266 230.25,174.436 232.854,179.743 235.458,185.186 238.062,190.765 240.667,196.481 243.271,202.333 245.875,208.322 248.479,214.446 251.083,220.707 
  253.688,227.105 256.292,233.637 258.896,240.306 261.5,247.109 264.105,254.047 266.709,261.12 269.313,268.326 271.917,275.666 274.521,283.139 277.126,290.744 
  279.73,298.48 282.334,306.347 284.938,314.344 287.543,322.471 290.147,330.725 292.751,339.107 295.355,347.615 297.959,356.249 300.564,365.006 303.168,373.887 
  305.772,382.889 308.376,392.012 310.981,401.254 313.585,410.614 316.189,420.09 318.793,429.681 321.397,439.384 324.002,449.2 326.606,459.125 329.21,469.158 
  331.814,479.297 334.419,489.541 337.023,499.887 339.627,510.333 342.231,520.877 344.835,531.518 347.44,542.252 350.044,553.078 352.648,563.994 355.252,574.996 
  357.857,586.082 360.461,597.251 363.065,608.499 365.669,619.823 368.273,631.222 370.878,642.691 373.482,654.229 376.086,665.832 378.69,677.498 381.295,689.224 
  383.899,701.005 386.503,712.84 389.107,724.725 391.711,736.656 394.316,748.631 396.92,760.646 399.524,772.698 402.128,773.215 404.733,773.167 407.337,773.087 
  409.941,772.973 412.545,772.826 415.149,772.647 417.754,772.434 420.358,772.189 422.962,771.911 425.566,771.6 428.171,771.256 430.775,770.879 433.379,770.469 
  435.983,770.027 438.587,769.551 441.192,769.043 443.796,768.501 446.4,767.927 449.004,767.32 451.609,766.68 454.213,766.007 456.817,765.301 459.421,764.563 
  462.025,763.791 464.63,762.987 467.234,762.149 469.838,761.279 472.442,760.376 475.047,759.44 477.651,758.471 480.255,757.47 482.859,756.435 485.463,755.368 
  488.068,754.268 490.672,753.135 493.276,751.969 495.88,750.77 498.485,749.539 501.089,748.274 503.693,746.977 506.297,745.647 508.901,744.285 511.506,742.889 
  514.11,741.461 516.714,740 519.318,738.507 521.923,736.98 524.527,735.421 527.131,733.83 529.735,732.205 532.339,730.549 534.944,728.859 537.548,727.137 
  540.152,725.382 542.756,723.595 545.36,721.776 547.965,719.924 550.569,718.039 553.173,716.122 555.777,714.173 558.382,712.192 560.986,710.178 563.59,708.132 
  566.194,706.053 568.798,703.943 571.403,701.8 574.007,699.626 576.611,697.419 579.215,695.181 581.82,692.911 584.424,690.608 587.028,688.274 589.632,685.909 
  592.236,683.511 594.841,681.083 597.445,678.622 600.049,676.13 602.653,673.607 605.258,671.053 607.862,668.468 610.466,665.851 613.07,663.203 615.674,660.525 
  618.279,657.816 620.883,655.076 623.487,652.305 626.091,649.504 628.696,646.673 631.3,643.812 633.904,640.92 636.508,637.999 639.112,635.047 641.717,632.066 
  644.321,629.055 646.925,626.015 649.529,622.946 652.134,619.847 654.738,616.72 657.342,613.563 659.946,610.378 662.55,607.165 665.155,603.923 667.759,600.653 
  670.363,597.356 672.967,594.03 675.572,590.677 678.176,587.297 680.78,583.89 683.384,580.455 685.988,576.995 688.593,573.507 691.197,569.994 693.801,566.454 
  696.405,562.889 699.01,559.299 701.614,555.683 704.218,552.042 706.822,548.377 709.426,544.687 712.031,540.973 714.635,537.236 717.239,533.475 719.843,529.69 
  722.448,525.883 725.052,522.054 727.656,518.202 730.26,514.328 732.864,510.433 735.469,506.517 738.073,502.58 740.677,498.622 743.281,494.645 745.886,490.648 
  748.49,486.631 751.094,482.596 753.698,478.542 756.302,474.471 758.907,470.381 761.511,466.275 764.115,462.152 766.719,458.012 769.324,453.857 771.928,449.686 
  774.532,445.501 777.136,441.301 779.74,437.088 782.345,432.861 784.949,428.622 787.553,424.37 790.157,420.106 792.762,415.831 795.366,411.546 797.97,407.251 
  800.574,402.946 803.178,398.632 805.783,394.31 808.387,389.98 810.991,385.644 813.595,381.3 816.199,376.951 818.804,372.597 821.408,368.239 824.012,363.877 
  826.616,359.511 829.221,355.144 831.825,350.774 834.429,346.404 837.033,342.033 839.637,337.663 842.242,333.294 844.846,328.927 847.45,324.562 850.054,320.202 
  852.659,315.845 855.263,311.494 857.867,307.148 860.471,302.81 863.075,298.479 865.68,294.156 868.284,289.843 870.888,285.54 873.492,281.248 876.097,276.967 
  878.701,272.7 881.305,268.446 883.909,264.207 886.513,259.984 889.118,255.777 891.722,251.588 894.326,247.417 896.93,243.265 899.535,239.134 902.139,235.024 
  904.743,230.937 907.347,226.873 909.951,222.834 912.556,218.82 915.16,214.833 917.764,210.873 920.368,206.942 922.973,203.04 925.577,199.17 928.181,195.331 
  930.785,191.525 933.389,187.754 935.994,184.017 938.598,180.318 941.202,176.655 943.806,173.032 946.411,169.448 949.015,165.905 951.619,162.404 954.223,158.947 
  956.827,155.534 959.432,152.167 962.036,148.847 964.64,145.575 967.244,142.353 969.849,139.181 972.453,136.061 975.057,132.994 977.661,129.981 980.265,127.024 
  982.87,124.124 985.474,121.282 988.078,118.499 990.682,115.777 993.287,113.117 995.891,110.52 998.495,107.988 1001.1,105.521 1003.7,103.121 1006.31,100.79 
  1008.91,98.528 1011.52,96.3371 1014.12,94.2185 1016.72,92.1734 1019.33,90.2032 1021.93,88.309 1024.54,86.4923 1027.14,84.7543 1029.75,83.0964 1032.35,81.5197 
  1034.95,80.0257 1037.56,78.6156 1040.16,77.2907 1042.77,76.0523 1045.37,74.9017 1047.98,73.8401 1050.58,72.8689 1053.18,71.9893 1055.79,71.2025 1058.39,70.5099 
  1061,69.9127 1063.6,69.4122 1066.2,69.0095 1068.81,68.7059 1071.41,68.5027 1074.02,68.401 1076.62,68.4021 1079.23,68.5072 1081.83,68.7174 1084.43,69.0339 
  1087.04,69.4578 1089.64,69.9904 1092.25,70.6328 1094.85,71.386 1097.46,72.2512 1100.06,73.2294 1102.66,74.3218 1105.27,75.5295 1107.87,76.8533 1110.48,78.2945 
  1113.08,79.8539 1115.68,81.5326 1118.29,83.3315 1120.89,85.2516 1123.5,87.2937 1126.1,89.4589 1128.71,91.748 1131.31,94.1618 1133.91,96.7012 1136.52,99.367 
  1139.12,102.16 1141.73,105.081 1144.33,108.13 1146.94,111.309 1149.54,114.618 1152.14,118.058 1154.75,121.629 1157.35,125.331 1159.96,129.166 1162.56,133.135 
  1165.17,137.236 1167.77,141.471 1170.37,145.841 1172.98,150.346 1175.58,154.985 1178.19,159.76 1180.79,164.67 1183.39,169.717 1186,174.899 1188.6,180.218 
  1191.21,185.673 1193.81,191.264 1196.42,196.992 1199.02,202.856 1201.62,208.857 1204.23,214.993 1206.83,221.266 1209.44,227.675 1212.04,234.22 1214.65,240.9 
  1217.25,247.716 1219.85,254.666 1222.46,261.75 1225.06,268.969 1227.67,276.32 1230.27,283.804 1232.87,291.421 1235.48,299.169 1238.08,307.047 1240.69,315.056 
  1243.29,323.194 1245.9,331.46 1248.5,339.853 1251.1,348.372 1253.71,357.016 1256.31,365.785 1258.92,374.676 1261.52,383.69 1264.13,392.823 1266.73,402.075 
  1269.33,411.445 1271.94,420.932 1274.54,430.532 1277.15,440.246 1279.75,450.071 1282.36,460.006 1284.96,470.048 1287.56,480.197 1290.17,490.45 1292.77,500.804 
  1295.38,511.259 1297.98,521.812 1300.58,532.461 1303.19,543.204 1305.79,554.038 1308.4,564.961 1311,575.971 1313.61,587.065 1316.21,598.24 1318.81,609.495 
  1321.42,620.826 1324.02,632.231 1326.63,643.707 1329.23,655.25 1331.84,666.859 1334.44,678.531 1337.04,690.261 1339.65,702.047 1342.25,713.887 1344.86,725.776 
  1347.46,737.711 1350.06,749.69 1352.67,761.708 1355.27,773.23 1357.88,773.212 1360.48,773.161 1363.09,773.078 1365.69,772.961 1368.29,772.812 1370.9,772.629 
  1373.5,772.414 1376.11,772.166 1378.71,771.885 1381.32,771.571 1383.92,771.224 1386.52,770.844 1389.13,770.432 1391.73,769.986 1394.34,769.508 1396.94,768.996 
  1399.55,768.452 1402.15,767.875 1404.75,767.265 1407.36,766.622 1409.96,765.946 1412.57,765.238 1415.17,764.496 1417.77,763.721 1420.38,762.914 1422.98,762.074 
  1425.59,761.201 1428.19,760.295 1430.8,759.356 1433.4,758.384 1436,757.38 1438.61,756.342 1441.21,755.272 1443.82,754.169 1446.42,753.033 1449.03,751.864 
  1451.63,750.663 1454.23,749.428 1456.84,748.161 1459.44,746.861 1462.05,745.528 1464.65,744.163 1467.25,742.765 1469.86,741.334 1472.46,739.87 1475.07,738.373 
  1477.67,736.844 1480.28,735.282 1482.88,733.688 1485.48,732.061 1488.09,730.401 1490.69,728.708 1493.3,726.984 1495.9,725.226 1498.51,723.436 1501.11,721.614 
  1503.71,719.759 1506.32,717.871 1508.92,715.952 1511.53,714 1514.13,712.015 1516.73,709.998 1519.34,707.95 1521.94,705.868 1524.55,703.755 1527.15,701.61 
  
  "/>
<polyline clip-path="url(#clip702)" style="stroke:#e26f46; stroke-width:8; stroke-opacity:1; fill:none" points="
  399.639,773.23 401.554,773.221 403.469,773.195 405.384,773.15 407.298,773.088 409.213,773.008 411.128,772.91 413.043,772.794 414.958,772.661 416.873,772.51 
  418.788,772.341 420.703,772.154 422.617,771.95 424.532,771.727 426.447,771.487 428.362,771.229 430.277,770.954 432.192,770.66 434.107,770.349 436.021,770.02 
  437.936,769.673 439.851,769.309 441.766,768.926 443.681,768.526 445.596,768.108 447.511,767.672 449.426,767.219 451.34,766.747 453.255,766.258 455.17,765.751 
  457.085,765.227 459,764.684 460.915,764.124 462.83,763.546 464.745,762.95 466.659,762.337 468.574,761.706 470.489,761.057 472.404,760.39 474.319,759.705 
  476.234,759.003 478.149,758.282 480.063,757.545 481.978,756.789 483.893,756.015 485.808,755.224 487.723,754.415 489.638,753.588 491.553,752.744 493.468,751.882 
  495.382,751.002 497.297,750.104 499.212,749.189 501.127,748.255 503.042,747.305 504.957,746.336 506.872,745.35 508.787,744.345 510.701,743.324 512.616,742.284 
  514.531,741.227 516.446,740.152 518.361,739.06 520.276,737.949 522.191,736.821 524.105,735.676 526.02,734.513 527.935,733.332 529.85,732.133 531.765,730.917 
  533.68,729.683 535.595,728.432 537.51,727.163 539.424,725.876 541.339,724.572 543.254,723.25 545.169,721.911 547.084,720.554 548.999,719.179 550.914,717.787 
  552.828,716.378 554.743,714.951 556.658,713.506 558.573,712.045 560.488,710.565 562.403,709.068 564.318,707.554 566.233,706.023 568.147,704.474 570.062,702.907 
  571.977,701.324 573.892,699.723 575.807,698.104 577.722,696.469 579.637,694.816 581.552,693.146 583.466,691.458 585.381,689.754 587.296,688.032 589.211,686.293 
  591.126,684.538 593.041,682.765 594.956,680.975 596.87,679.168 598.785,677.344 600.7,675.503 602.615,673.645 604.53,671.77 606.445,669.878 608.36,667.97 
  610.275,666.044 612.189,664.102 614.104,662.144 616.019,660.168 617.934,658.176 619.849,656.167 621.764,654.142 623.679,652.1 625.593,650.042 627.508,647.968 
  629.423,645.877 631.338,643.769 633.253,641.646 635.168,639.506 637.083,637.35 638.998,635.178 640.912,632.99 642.827,630.786 644.742,628.565 646.657,626.329 
  648.572,624.078 650.487,621.81 652.402,619.526 654.317,617.227 656.231,614.913 658.146,612.583 660.061,610.237 661.976,607.876 663.891,605.5 665.806,603.108 
  667.721,600.702 669.635,598.28 671.55,595.843 673.465,593.391 675.38,590.925 677.295,588.443 679.21,585.947 681.125,583.437 683.04,580.912 684.954,578.372 
  686.869,575.818 688.784,573.25 690.699,570.668 692.614,568.071 694.529,565.461 696.444,562.837 698.358,560.199 700.273,557.547 702.188,554.882 704.103,552.203 
  706.018,549.511 707.933,546.806 709.848,544.088 711.763,541.357 713.677,538.613 715.592,535.856 717.507,533.086 719.422,530.304 721.337,527.51 723.252,524.703 
  725.167,521.884 727.082,519.054 728.996,516.211 730.911,513.357 732.826,510.491 734.741,507.613 736.656,504.725 738.571,501.825 740.486,498.914 742.4,495.992 
  744.315,493.06 746.23,490.117 748.145,487.164 750.06,484.2 751.975,481.227 753.89,478.244 755.805,475.25 757.719,472.248 759.634,469.236 761.549,466.214 
  763.464,463.184 765.379,460.145 767.294,457.097 769.209,454.041 771.123,450.976 773.038,447.903 774.953,444.823 776.868,441.734 778.783,438.639 780.698,435.535 
  782.613,432.425 784.528,429.308 786.442,426.184 788.357,423.054 790.272,419.918 792.187,416.775 794.102,413.627 796.017,410.473 797.932,407.314 799.847,404.149 
  801.761,400.98 803.676,397.806 805.591,394.628 807.506,391.446 809.421,388.259 811.336,385.069 813.251,381.876 815.165,378.679 817.08,375.479 818.995,372.277 
  820.91,369.073 822.825,365.866 824.74,362.657 826.655,359.447 828.57,356.236 830.484,353.023 832.399,349.81 834.314,346.597 836.229,343.383 838.144,340.169 
  840.059,336.956 841.974,333.743 843.888,330.532 845.803,327.322 847.718,324.113 849.633,320.907 851.548,317.702 853.463,314.501 855.378,311.302 857.293,308.106 
  859.207,304.914 861.122,301.726 863.037,298.542 864.952,295.363 866.867,292.189 868.782,289.019 870.697,285.856 872.612,282.698 874.526,279.547 876.441,276.402 
  878.356,273.264 880.271,270.134 882.186,267.011 884.101,263.896 886.016,260.79 887.93,257.693 889.845,254.605 891.76,251.526 893.675,248.458 895.59,245.4 
  897.505,242.352 899.42,239.316 901.335,236.291 903.249,233.279 905.164,230.278 907.079,227.29 908.994,224.316 910.909,221.355 912.824,218.408 914.739,215.476 
  916.654,212.558 918.568,209.656 920.483,206.769 922.398,203.898 924.313,201.044 926.228,198.207 928.143,195.387 930.058,192.585 931.972,189.802 933.887,187.037 
  935.802,184.291 937.717,181.565 939.632,178.859 941.547,176.173 943.462,173.509 945.377,170.866 947.291,168.245 949.206,165.646 951.121,163.07 953.036,160.518 
  954.951,157.989 956.866,155.484 958.781,153.005 960.695,150.55 962.61,148.121 964.525,145.719 966.44,143.343 968.355,140.994 970.27,138.673 972.185,136.38 
  974.1,134.115 976.014,131.88 977.929,129.674 979.844,127.499 981.759,125.354 983.674,123.24 985.589,121.158 987.504,119.108 989.419,117.091 991.333,115.106 
  993.248,113.156 995.163,111.239 997.078,109.358 998.993,107.511 1000.91,105.7 1002.82,103.925 1004.74,102.187 1006.65,100.486 1008.57,98.8233 1010.48,97.1984 
  1012.4,95.6124 1014.31,94.0656 1016.23,92.5587 1018.14,91.092 1020.06,89.6662 1021.97,88.2818 1023.89,86.9392 1025.8,85.639 1027.72,84.3817 1029.63,83.1678 
  1031.55,81.9979 1033.46,80.8724 1035.38,79.7919 1037.29,78.7569 1039.21,77.7678 1041.12,76.8253 1043.03,75.9298 1044.95,75.0818 1046.86,74.2819 1048.78,73.5305 
  1050.69,72.8281 1052.61,72.1754 1054.52,71.5726 1056.44,71.0205 1058.35,70.5194 1060.27,70.0699 1062.18,69.6725 1064.1,69.3276 1066.01,69.0357 1067.93,68.7974 
  1069.84,68.6132 1071.76,68.4834 1073.67,68.4086 1075.59,68.3893 1077.5,68.426 1079.42,68.519 1081.33,68.669 1083.25,68.8763 1085.16,69.1415 1087.08,69.4649 
  1088.99,69.847 1090.91,70.2884 1092.82,70.7893 1094.74,71.3504 1096.65,71.972 1098.57,72.6545 1100.48,73.3984 1102.4,74.2041 1104.31,75.072 1106.23,76.0026 
  1108.14,76.9962 1110.06,78.0533 1111.97,79.1743 1113.88,80.3595 1115.8,81.6094 1117.71,82.9243 1119.63,84.3046 1121.54,85.7506 1123.46,87.2628 1125.37,88.8415 
  1127.29,90.4871 1129.2,92.1998 1131.12,93.9801 1133.03,95.8282 1134.95,97.7445 1136.86,99.7293 1138.78,101.783 1140.69,103.906 1142.61,106.098 1144.52,108.36 
  1146.44,110.691 1148.35,113.093 1150.27,115.566 1152.18,118.109 1154.1,120.723 1156.01,123.409 1157.93,126.166 1159.84,128.994 1161.76,131.895 1163.67,134.867 
  1165.59,137.912 1167.5,141.029 1169.42,144.219 1171.33,147.482 1173.25,150.817 1175.16,154.225 1177.08,157.707 1178.99,161.262 1180.91,164.89 1182.82,168.592 
  1184.74,172.367 1186.65,176.216 1188.56,180.138 1190.48,184.135 1192.39,188.205 1194.31,192.348 1196.22,196.566 1198.14,200.857 1200.05,205.222 1201.97,209.661 
  1203.88,214.173 1205.8,218.759 1207.71,223.419 1209.63,228.152 1211.54,232.959 1213.46,237.838 1215.37,242.791 1217.29,247.817 1219.2,252.916 1221.12,258.087 
  1223.03,263.331 1224.95,268.647 1226.86,274.036 1228.78,279.496 1230.69,285.028 1232.61,290.631 1234.52,296.305 1236.44,302.05 1238.35,307.866 1240.27,313.752 
  1242.18,319.708 1244.1,325.733 1246.01,331.827 1247.93,337.99 1249.84,344.222 1251.76,350.521 1253.67,356.888 1255.59,363.323 1257.5,369.823 1259.41,376.39 
  1261.33,383.023 1263.24,389.72 1265.16,396.483 1267.07,403.309 1268.99,410.199 1270.9,417.151 1272.82,424.166 1274.73,431.243 1276.65,438.38 1278.56,445.578 
  1280.48,452.836 1282.39,460.153 1284.31,467.528 1286.22,474.96 1288.14,482.45 1290.05,489.995 1291.97,497.596 1293.88,505.251 1295.8,512.96 1297.71,520.722 
  1299.63,528.535 1301.54,536.4 1303.46,544.315 1305.37,552.279 1307.29,560.292 1309.2,568.352 1311.12,576.458 1313.03,584.61 1314.95,592.807 1316.86,601.047 
  1318.78,609.329 1320.69,617.652 1322.61,626.016 1324.52,634.419 1326.44,642.86 1328.35,651.338 1330.27,659.852 1332.18,668.401 1334.09,676.982 1336.01,685.596 
  1337.92,694.241 1339.84,702.916 1341.75,711.619 1343.67,720.35 1345.58,729.106 1347.5,737.887 1349.41,746.691 1351.33,755.518 1353.24,764.364 1355.16,773.23 
  
  "/>
<circle clip-path="url(#clip702)" cx="399.639" cy="773.23" r="14" fill="#000000" fill-rule="evenodd" fill-opacity="1" stroke="none"/>
<circle clip-path="url(#clip702)" cx="1355.16" cy="773.23" r="14" fill="#000000" fill-rule="evenodd" fill-opacity="1" stroke="none"/>
<path clip-path="url(#clip700)" d="
M1775.28 794.375 L3152.76 794.375 L3152.76 47.2441 L1775.28 47.2441  Z
  " fill="#ffffff" fill-rule="evenodd" fill-opacity="1"/>
<defs>
  <clipPath id="clip703">
    <rect x="1775" y="47" width="1378" height="748"/>
  </clipPath>
</defs>
<polyline clip-path="url(#clip703)" style="stroke:#009af9; stroke-width:8; stroke-opacity:1; fill:none" stroke-dasharray="32, 20" points="
  1814.26,142.39 1816.87,147.871 1819.47,153.505 1822.08,159.284 1824.68,165.203 1827.29,171.256 1829.89,177.438 1832.49,183.741 1835.1,190.161 1837.7,196.69 
  1840.31,203.324 1842.91,210.055 1845.51,216.878 1848.12,223.786 1850.72,230.773 1853.33,237.834 1855.93,244.962 1858.54,252.152 1861.14,259.396 1863.74,266.691 
  1866.35,274.028 1868.95,281.404 1871.56,288.812 1874.16,296.247 1876.77,303.704 1879.37,311.176 1881.97,318.659 1884.58,326.148 1887.18,333.638 1889.79,341.123 
  1892.39,348.6 1895,356.062 1897.6,363.507 1900.2,370.93 1902.81,378.326 1905.41,385.692 1908.02,393.023 1910.62,400.316 1913.22,407.567 1915.83,414.773 
  1918.43,421.93 1921.04,429.035 1923.64,436.086 1926.25,443.079 1928.85,450.011 1931.45,456.881 1934.06,463.685 1936.66,470.421 1939.27,477.088 1941.87,483.682 
  1944.48,490.203 1947.08,496.648 1949.68,503.016 1952.29,509.306 1954.89,515.515 1957.5,521.643 1960.1,527.689 1962.7,533.651 1965.31,539.529 1967.91,545.321 
  1970.52,551.028 1973.12,556.649 1975.73,562.182 1978.33,567.629 1980.93,572.988 1983.54,578.259 1986.14,583.442 1988.75,588.537 1991.35,593.545 1993.96,598.464 
  1996.56,603.296 1999.16,608.041 2001.77,612.698 2004.37,617.269 2006.98,621.754 2009.58,626.153 2012.19,630.466 2014.79,634.695 2017.39,638.84 2020,642.901 
  2022.6,646.88 2025.21,650.777 2027.81,654.593 2030.41,658.328 2033.02,661.984 2035.62,665.561 2038.23,669.06 2040.83,672.482 2043.44,675.829 2046.04,679.1 
  2048.64,682.297 2051.25,685.421 2053.85,688.473 2056.46,691.454 2059.06,694.364 2061.67,697.205 2064.27,699.978 2066.87,702.683 2069.48,705.323 2072.08,707.896 
  2074.69,710.406 2077.29,712.852 2079.89,715.236 2082.5,717.559 2085.1,719.821 2087.71,722.023 2090.31,724.167 2092.92,726.253 2095.52,728.283 2098.12,730.257 
  2100.73,732.176 2103.33,734.041 2105.94,735.853 2108.54,737.613 2111.15,739.321 2113.75,740.979 2116.35,742.586 2118.96,744.145 2121.56,745.656 2124.17,747.119 
  2126.77,748.536 2129.38,749.906 2131.98,751.231 2134.58,752.512 2137.19,753.749 2139.79,754.942 2142.4,756.093 2145,757.202 2147.6,758.27 2150.21,759.296 
  2152.81,760.283 2155.42,761.23 2158.02,762.137 2160.63,763.006 2163.23,763.837 2165.83,764.63 2168.44,765.385 2171.04,766.104 2173.65,766.786 2176.25,767.432 
  2178.86,768.043 2181.46,768.618 2184.06,769.158 2186.67,769.663 2189.27,770.134 2191.88,770.571 2194.48,770.974 2197.08,771.343 2199.69,771.679 2202.29,771.981 
  2204.9,772.251 2207.5,772.487 2210.11,772.691 2212.71,772.862 2215.31,773 2217.92,773.106 2220.52,773.18 2223.13,773.221 2225.73,773.23 2228.34,773.206 
  2230.94,773.15 2233.54,773.062 2236.15,772.941 2238.75,772.788 2241.36,772.602 2243.96,772.384 2246.57,772.132 2249.17,771.848 2251.77,771.53 2254.38,771.179 
  2256.98,770.794 2259.59,770.376 2262.19,769.924 2264.79,769.437 2267.4,768.916 2270,768.36 2272.61,767.769 2275.21,767.142 2277.82,766.48 2280.42,765.781 
  2283.02,765.045 2285.63,764.273 2288.23,763.463 2290.84,762.615 2293.44,761.728 2296.05,760.803 2298.65,759.838 2301.25,758.833 2303.86,757.788 2306.46,756.702 
  2309.07,755.574 2311.67,754.404 2314.27,753.19 2316.88,751.934 2319.48,750.633 2322.09,749.287 2324.69,747.896 2327.3,746.458 2329.9,744.973 2332.5,743.441 
  2335.11,741.86 2337.71,740.229 2340.32,738.548 2342.92,736.817 2345.53,735.034 2348.13,733.197 2350.73,731.308 2353.34,729.364 2355.94,727.365 2358.55,725.309 
  2361.15,723.197 2363.76,721.026 2366.36,718.797 2368.96,716.507 2371.57,714.157 2374.17,711.745 2376.78,709.27 2379.38,706.731 2381.98,704.128 2384.59,701.458 
  2387.19,698.722 2389.8,695.918 2392.4,693.046 2395.01,690.104 2397.61,687.091 2400.21,684.006 2402.82,680.849 2405.42,677.618 2408.03,674.313 2410.63,670.932 
  2413.24,667.474 2415.84,663.94 2418.44,660.327 2421.05,656.635 2423.65,652.863 2426.26,649.011 2428.86,645.076 2431.46,641.06 2434.07,636.961 2436.67,632.778 
  2439.28,628.51 2441.88,624.158 2444.49,619.72 2447.09,615.196 2449.69,610.586 2452.3,605.889 2454.9,601.104 2457.51,596.232 2460.11,591.273 2462.72,586.225 
  2465.32,581.09 2467.92,575.867 2470.53,570.556 2473.13,565.157 2475.74,559.671 2478.34,554.097 2480.94,548.437 2483.55,542.691 2486.15,536.859 2488.76,530.943 
  2491.36,524.943 2493.97,518.859 2496.57,512.694 2499.17,506.448 2501.78,500.123 2504.38,493.719 2506.99,487.24 2509.59,480.685 2512.2,474.057 2514.8,467.359 
  2517.4,460.591 2520.01,453.757 2522.61,446.858 2525.22,439.898 2527.82,432.878 2530.43,425.803 2533.03,418.673 2535.63,411.493 2538.24,404.267 2540.84,396.996 
  2543.45,389.685 2546.05,382.338 2548.65,374.958 2551.26,367.549 2553.86,360.116 2556.47,352.662 2559.07,345.193 2561.68,337.711 2564.28,330.224 2566.88,322.734 
  2569.49,315.247 2572.09,307.768 2574.7,300.302 2577.3,292.855 2579.91,285.432 2582.51,278.037 2585.11,270.678 2587.72,263.359 2590.32,256.087 2592.93,248.867 
  2595.53,241.705 2598.13,234.606 2600.74,227.578 2603.34,220.626 2605.95,213.756 2608.55,206.975 2611.16,200.287 2613.76,193.7 2616.36,187.22 2618.97,180.853 
  2621.57,174.604 2624.18,168.48 2626.78,162.487 2629.39,156.631 2631.99,150.918 2634.59,145.353 2637.2,139.942 2639.8,134.692 2642.41,129.606 2645.01,124.691 
  2647.62,119.952 2650.22,115.394 2652.82,111.021 2655.43,106.84 2658.03,102.854 2660.64,99.0669 2663.24,95.4842 2665.84,92.1094 2668.45,88.9463 2671.05,85.9984 
  2673.66,83.2693 2676.26,80.7619 2678.87,78.4791 2681.47,76.4236 2684.07,74.5978 2686.68,73.0037 2689.28,71.6433 2691.89,70.5181 2694.49,69.6294 2697.1,68.9783 
  2699.7,68.5655 2702.3,68.3915 2704.91,68.4565 2707.51,68.7605 2710.12,69.303 2712.72,70.0835 2715.32,71.1011 2717.93,72.3545 2720.53,73.8422 2723.14,75.5626 
  2725.74,77.5137 2728.35,79.6932 2730.95,82.0985 2733.55,84.7269 2736.16,87.5755 2738.76,90.6409 2741.37,93.9197 2743.97,97.4081 2746.58,101.102 2749.18,104.998 
  2751.78,109.091 2754.39,113.377 2756.99,117.851 2759.6,122.508 2762.2,127.344 2764.81,132.352 2767.41,137.528 2770.01,142.867 2772.62,148.362 2775.22,154.009 
  2777.83,159.8 2780.43,165.732 2783.03,171.797 2785.64,177.989 2788.24,184.303 2790.85,190.733 2793.45,197.272 2796.06,203.914 2798.66,210.653 2801.26,217.484 
  2803.87,224.399 2806.47,231.393 2809.08,238.46 2811.68,245.594 2814.29,252.789 2816.89,260.038 2819.49,267.336 2822.1,274.678 2824.7,282.057 2827.31,289.468 
  2829.91,296.905 2832.51,304.363 2835.12,311.836 2837.72,319.32 2840.33,326.809 2842.93,334.298 2845.54,341.783 2848.14,349.259 2850.74,356.72 2853.35,364.163 
  2855.95,371.584 2858.56,378.977 2861.16,386.34 2863.77,393.668 2866.37,400.957 2868.97,408.204 2871.58,415.406 2874.18,422.559 2876.79,429.66 2879.39,436.705 
  2882,443.693 2884.6,450.62 2887.2,457.484 2889.81,464.282 2892.41,471.012 2895.02,477.672 2897.62,484.261 2900.22,490.775 2902.83,497.213 2905.43,503.574 
  2908.04,509.857 2910.64,516.059 2913.25,522.18 2915.85,528.218 2918.45,534.173 2921.06,540.043 2923.66,545.828 2926.27,551.528 2928.87,557.141 2931.48,562.667 
  2934.08,568.105 2936.68,573.456 2939.29,578.72 2941.89,583.895 2944.5,588.983 2947.1,593.982 2949.7,598.894 2952.31,603.718 2954.91,608.455 2957.52,613.105 
  2960.12,617.668 2962.73,622.145 2965.33,626.537 2967.93,630.843 2970.54,635.064 2973.14,639.202 2975.75,643.256 2978.35,647.227 2980.96,651.117 2983.56,654.925 
  2986.16,658.654 2988.77,662.302 2991.37,665.873 2993.98,669.365 2996.58,672.781 2999.18,676.12 3001.79,679.385 3004.39,682.576 3007,685.693 3009.6,688.739 
  3012.21,691.713 3014.81,694.617 3017.41,697.452 3020.02,700.219 3022.62,702.919 3025.23,705.552 3027.83,708.12 3030.44,710.624 3033.04,713.065 3035.64,715.443 
  3038.25,717.761 3040.85,720.017 3043.46,722.215 3046.06,724.353 3048.67,726.435 3051.27,728.46 3053.87,730.429 3056.48,732.343 3059.08,734.203 3061.69,736.01 
  3064.29,737.765 3066.89,739.469 3069.5,741.122 3072.1,742.726 3074.71,744.28 3077.31,745.787 3079.92,747.246 3082.52,748.658 3085.12,750.025 3087.73,751.346 
  3090.33,752.623 3092.94,753.856 3095.54,755.046 3098.15,756.193 3100.75,757.298 3103.35,758.362 3105.96,759.385 3108.56,760.368 3111.17,761.311 3113.77,762.215 
  
  "/>
<polyline clip-path="url(#clip703)" style="stroke:#e26f46; stroke-width:8; stroke-opacity:1; fill:none" points="
  1986.26,583.669 1988.17,587.421 1990.09,591.126 1992,594.783 1993.92,598.392 1995.83,601.955 1997.75,605.47 1999.66,608.938 2001.58,612.359 2003.49,615.733 
  2005.41,619.06 2007.32,622.341 2009.24,625.575 2011.15,628.764 2013.07,631.906 2014.98,635.003 2016.9,638.054 2018.81,641.06 2020.73,644.021 2022.64,646.938 
  2024.56,649.81 2026.47,652.639 2028.38,655.423 2030.3,658.165 2032.21,660.863 2034.13,663.519 2036.04,666.132 2037.96,668.703 2039.87,671.233 2041.79,673.721 
  2043.7,676.169 2045.62,678.576 2047.53,680.943 2049.45,683.27 2051.36,685.557 2053.28,687.806 2055.19,690.016 2057.11,692.188 2059.02,694.322 2060.94,696.418 
  2062.85,698.477 2064.77,700.5 2066.68,702.487 2068.6,704.437 2070.51,706.352 2072.43,708.232 2074.34,710.077 2076.26,711.888 2078.17,713.665 2080.09,715.409 
  2082,717.119 2083.92,718.797 2085.83,720.442 2087.75,722.055 2089.66,723.636 2091.58,725.187 2093.49,726.706 2095.41,728.195 2097.32,729.653 2099.24,731.082 
  2101.15,732.481 2103.06,733.852 2104.98,735.193 2106.89,736.506 2108.81,737.791 2110.72,739.048 2112.64,740.278 2114.55,741.48 2116.47,742.656 2118.38,743.806 
  2120.3,744.929 2122.21,746.026 2124.13,747.098 2126.04,748.144 2127.96,749.166 2129.87,750.163 2131.79,751.135 2133.7,752.084 2135.62,753.008 2137.53,753.909 
  2139.45,754.787 2141.36,755.641 2143.28,756.473 2145.19,757.282 2147.11,758.069 2149.02,758.833 2150.94,759.576 2152.85,760.297 2154.77,760.997 2156.68,761.675 
  2158.6,762.332 2160.51,762.968 2162.43,763.584 2164.34,764.179 2166.26,764.754 2168.17,765.309 2170.09,765.844 2172,766.359 2173.91,766.854 2175.83,767.33 
  2177.74,767.787 2179.66,768.224 2181.57,768.642 2183.49,769.042 2185.4,769.422 2187.32,769.784 2189.23,770.128 2191.15,770.452 2193.06,770.759 2194.98,771.047 
  2196.89,771.317 2198.81,771.569 2200.72,771.803 2202.64,772.019 2204.55,772.217 2206.47,772.397 2208.38,772.56 2210.3,772.705 2212.21,772.832 2214.13,772.941 
  2216.04,773.033 2217.96,773.108 2219.87,773.165 2221.79,773.204 2223.7,773.226 2225.62,773.23 2227.53,773.217 2229.45,773.186 2231.36,773.138 2233.28,773.073 
  2235.19,772.99 2237.11,772.889 2239.02,772.77 2240.94,772.634 2242.85,772.481 2244.77,772.309 2246.68,772.12 2248.59,771.913 2250.51,771.688 2252.42,771.445 
  2254.34,771.184 2256.25,770.905 2258.17,770.608 2260.08,770.292 2262,769.958 2263.91,769.606 2265.83,769.234 2267.74,768.844 2269.66,768.436 2271.57,768.008 
  2273.49,767.561 2275.4,767.095 2277.32,766.609 2279.23,766.104 2281.15,765.579 2283.06,765.034 2284.98,764.469 2286.89,763.884 2288.81,763.279 2290.72,762.653 
  2292.64,762.006 2294.55,761.338 2296.47,760.65 2298.38,759.939 2300.3,759.207 2302.21,758.454 2304.13,757.678 2306.04,756.88 2307.96,756.06 2309.87,755.217 
  2311.79,754.351 2313.7,753.462 2315.62,752.549 2317.53,751.613 2319.44,750.652 2321.36,749.668 2323.27,748.658 2325.19,747.624 2327.1,746.565 2329.02,745.481 
  2330.93,744.37 2332.85,743.234 2334.76,742.072 2336.68,740.882 2338.59,739.666 2340.51,738.423 2342.42,737.152 2344.34,735.853 2346.25,734.526 2348.17,733.17 
  2350.08,731.785 2352,730.371 2353.91,728.928 2355.83,727.454 2357.74,725.95 2359.66,724.415 2361.57,722.85 2363.49,721.252 2365.4,719.623 2367.32,717.962 
  2369.23,716.268 2371.15,714.541 2373.06,712.781 2374.98,710.987 2376.89,709.159 2378.81,707.297 2380.72,705.399 2382.64,703.466 2384.55,701.498 2386.47,699.493 
  2388.38,697.452 2390.3,695.375 2392.21,693.259 2394.12,691.107 2396.04,688.916 2397.95,686.687 2399.87,684.418 2401.78,682.111 2403.7,679.764 2405.61,677.377 
  2407.53,674.95 2409.44,672.482 2411.36,669.973 2413.27,667.423 2415.19,664.831 2417.1,662.196 2419.02,659.519 2420.93,656.8 2422.85,654.037 2424.76,651.23 
  2426.68,648.38 2428.59,645.485 2430.51,642.546 2432.42,639.563 2434.34,636.534 2436.25,633.46 2438.17,630.34 2440.08,627.175 2442,623.964 2443.91,620.706 
  2445.83,617.402 2447.74,614.052 2449.66,610.654 2451.57,607.21 2453.49,603.718 2455.4,600.18 2457.32,596.594 2459.23,592.96 2461.15,589.279 2463.06,585.551 
  2464.97,581.775 2466.89,577.951 2468.8,574.08 2470.72,570.162 2472.63,566.196 2474.55,562.182 2476.46,558.122 2478.38,554.015 2480.29,549.86 2482.21,545.659 
  2484.12,541.412 2486.04,537.119 2487.95,532.779 2489.87,528.394 2491.78,523.964 2493.7,519.489 2495.61,514.97 2497.53,510.407 2499.44,505.801 2501.36,501.151 
  2503.27,496.46 2505.19,491.726 2507.1,486.952 2509.02,482.137 2510.93,477.283 2512.85,472.389 2514.76,467.458 2516.68,462.489 2518.59,457.484 2520.51,452.443 
  2522.42,447.368 2524.34,442.259 2526.25,437.118 2528.17,431.945 2530.08,426.742 2532,421.51 2533.91,416.25 2535.83,410.964 2537.74,405.652 2539.65,400.316 
  2541.57,394.957 2543.48,389.577 2545.4,384.178 2547.31,378.76 2549.23,373.326 2551.14,367.877 2553.06,362.414 2554.97,356.939 2556.89,351.455 2558.8,345.962 
  2560.72,340.463 2562.63,334.959 2564.55,329.453 2566.46,323.945 2568.38,318.439 2570.29,312.936 2572.21,307.438 2574.12,301.948 2576.04,296.466 2577.95,290.997 
  2579.87,285.541 2581.78,280.1 2583.7,274.678 2585.61,269.276 2587.53,263.896 2589.44,258.541 2591.36,253.214 2593.27,247.915 2595.19,242.649 2597.1,237.417 
  2599.02,232.221 2600.93,227.064 2602.85,221.949 2604.76,216.878 2606.68,211.852 2608.59,206.875 2610.5,201.95 2612.42,197.078 2614.33,192.262 2616.25,187.504 
  2618.16,182.807 2620.08,178.173 2621.99,173.605 2623.91,169.105 2625.82,164.675 2627.74,160.318 2629.65,156.037 2631.57,151.832 2633.48,147.708 2635.4,143.665 
  2637.31,139.707 2639.23,135.836 2641.14,132.053 2643.06,128.361 2644.97,124.762 2646.89,121.258 2648.8,117.851 2650.72,114.543 2652.63,111.336 2654.55,108.233 
  2656.46,105.233 2658.38,102.341 2660.29,99.5565 2662.21,96.8821 2664.12,94.3192 2666.04,91.8695 2667.95,89.5344 2669.87,87.3154 2671.78,85.2137 2673.7,83.2308 
  2675.61,81.3678 2677.53,79.6258 2679.44,78.0061 2681.36,76.5095 2683.27,75.137 2685.18,73.8895 2687.1,72.7678 2689.01,71.7725 2690.93,70.9043 2692.84,70.1638 
  2694.76,69.5514 2696.67,69.0675 2698.59,68.7123 2700.5,68.4862 2702.42,68.3893 2704.33,68.4216 2706.25,68.5832 2708.16,68.8738 2710.08,69.2933 2711.99,69.8416 
  2713.91,70.5181 2715.82,71.3225 2717.74,72.2543 2719.65,73.3129 2721.57,74.4976 2723.48,75.8077 2725.4,77.2423 2727.31,78.8006 2729.23,80.4816 2731.14,82.2842 
  2733.06,84.2073 2734.97,86.2498 2736.89,88.4103 2738.8,90.6876 2740.72,93.0802 2742.63,95.5866 2744.55,98.2054 2746.46,100.935 2748.38,103.774 2750.29,106.72 
  2752.21,109.772 2754.12,112.927 2756.03,116.185 2757.95,119.542 2759.86,122.998 2761.78,126.55 2763.69,130.195 2765.61,133.933 2767.52,137.761 2769.44,141.676 
  2771.35,145.676 2773.27,149.76 2775.18,153.925 2777.1,158.168 2779.01,162.487 2780.93,166.881 2782.84,171.346 2784.76,175.881 2786.67,180.482 2788.59,185.147 
  2790.5,189.875 2792.42,194.662 2794.33,199.507 2796.25,204.406 2798.16,209.358 2800.08,214.359 2801.99,219.408 2803.91,224.501 2805.82,229.638 2807.74,234.814 
  2809.65,240.029 2811.57,245.278 2813.48,250.561 2815.4,255.874 2817.31,261.215 2819.23,266.583 2821.14,271.974 2823.06,277.387 2824.97,282.818 2826.89,288.267 
  2828.8,293.73 2830.71,299.206 2832.63,304.692 2834.54,310.186 2836.46,315.687 2838.37,321.192 2840.29,326.699 2842.2,332.206 2844.12,337.711 2846.03,343.213 
  2847.95,348.709 2849.86,354.198 2851.78,359.678 2853.69,365.147 2855.61,370.603 2857.52,376.045 2859.44,381.471 2861.35,386.88 2863.27,392.27 2865.18,397.639 
  2867.1,402.987 2869.01,408.311 2870.93,413.61 2872.84,418.884 2874.76,424.13 2876.67,429.347 2878.59,434.535 2880.5,439.692 2882.42,444.818 2884.33,449.91 
  2886.25,454.968 2888.16,459.991 2890.08,464.978 2891.99,469.928 2893.91,474.841 2895.82,479.715 2897.74,484.55 2899.65,489.344 2901.56,494.098 2903.48,498.811 
  2905.39,503.481 2907.31,508.109 2909.22,512.694 2911.14,517.235 2913.05,521.732 2914.97,526.185 2916.88,530.592 2918.8,534.955 2920.71,539.271 2922.63,543.541 
  2924.54,547.766 2926.46,551.943 2928.37,556.074 2930.29,560.158 2932.2,564.195 2934.12,568.185 2936.03,572.127 2937.95,576.022 2939.86,579.869 2941.78,583.669 
  
  "/>
<circle clip-path="url(#clip703)" cx="1986.26" cy="583.669" r="14" fill="#000000" fill-rule="evenodd" fill-opacity="1" stroke="none"/>
<circle clip-path="url(#clip703)" cx="2941.78" cy="583.669" r="14" fill="#000000" fill-rule="evenodd" fill-opacity="1" stroke="none"/>
</svg>
