<?xml version="1.0" encoding="utf-8"?>
<svg xmlns="http://www.w3.org/2000/svg" xmlns:xlink="http://www.w3.org/1999/xlink" width="600" height="400" viewBox="0 0 2400 1600">
<defs>
  <clipPath id="clip940">
    <rect x="0" y="0" width="2400" height="1600"/>
  </clipPath>
</defs>
<path clip-path="url(#clip940)" d="
M0 1600 L2400 1600 L2400 0 L0 0  Z
  " fill="#ffffff" fill-rule="evenodd" fill-opacity="1"/>
<defs>
  <clipPath id="clip941">
    <rect x="480" y="0" width="1681" height="1600"/>
  </clipPath>
</defs>
<path clip-path="url(#clip940)" d="
M339.503 1486.45 L2138.51 1486.45 L2138.51 47.2441 L339.503 47.2441  Z
  " fill="#ffffff" fill-rule="evenodd" fill-opacity="1"/>
<defs>
  <clipPath id="clip942">
    <rect x="339" y="47" width="1800" height="1440"/>
  </clipPath>
</defs>
<polyline clip-path="url(#clip942)" style="stroke:#009af9; stroke-width:4; stroke-opacity:1; fill:none" points="
  699.304,1126.65 339.503,47.2441 
  "/>
<polyline clip-path="url(#clip942)" style="stroke:#e26f46; stroke-width:4; stroke-opacity:1; fill:none" points="
  1837.09,1126.65 339.503,47.2441 
  "/>
<polyline clip-path="url(#clip942)" style="stroke:#3da44d; stroke-width:4; stroke-opacity:1; fill:none" points="
  699.304,1126.65 1837.09,1126.65 
  "/>
<polyline clip-path="url(#clip942)" style="stroke:#000000; stroke-width:4; stroke-opacity:1; fill:none" stroke-dasharray="16, 10" points="
  -1459.5,4121.83 2858.11,-1868.54 
  "/>
<circle clip-path="url(#clip942)" cx="699.304" cy="1126.65" r="18" fill="#000000" fill-rule="evenodd" fill-opacity="1" stroke="none"/>
<path clip-path="url(#clip940)" d="M 0 0 M469.483 588.398 L467.966 605.367 L436.076 605.367 Q435.298 605.367 434.929 605.326 Q434.601 605.285 434.15 605.162 Q433.74 604.998 433.576 604.589 Q433.412 604.179 433.412 603.523 Q433.412 603.113 433.453 602.908 Q433.494 602.703 433.617 602.457 Q433.781 602.17 434.15 601.678 L457.555 571.1 L450.423 571.1 Q444.028 571.1 441.528 573.642 Q439.069 576.183 438.7 582.782 L434.724 582.782 L435.748 568.108 L466.531 568.108 Q467.515 568.108 467.966 568.19 Q468.417 568.231 468.827 568.641 Q469.237 569.051 469.237 569.871 Q469.237 570.24 469.114 570.527 Q469.032 570.772 468.95 570.936 Q468.868 571.1 468.417 571.715 L445.135 602.006 L452.349 602.006 Q455.095 602.006 457.104 601.637 Q459.153 601.227 460.506 600.367 Q461.9 599.465 462.801 598.44 Q463.703 597.374 464.236 595.694 Q464.81 593.972 465.056 592.374 Q465.343 590.775 465.548 588.398 L469.483 588.398 Z" fill="#000000" fill-rule="evenodd" fill-opacity="1" /><path clip-path="url(#clip940)" d="M 0 0 M1440.2 751.78 Q1437.62 751.78 1436.31 752.025 Q1435 752.23 1434.63 752.558 Q1434.26 752.845 1433.97 753.542 L1420.04 783.423 Q1419.46 784.653 1418.81 785.063 Q1418.15 785.432 1416.96 785.432 Q1416.22 785.432 1415.81 785.35 Q1415.45 785.309 1414.83 784.817 Q1414.26 784.325 1413.77 783.341 L1399.05 751.78 L1393.68 751.78 L1393.68 747.845 L1403.27 748.09 L1413.68 747.845 L1413.68 751.78 L1409.13 751.78 L1419.79 774.693 L1429.55 753.706 L1429.96 752.681 Q1429.96 752.23 1428.69 752.025 Q1427.41 751.78 1425.94 751.78 L1425.94 747.845 L1433.56 748.09 Q1437.09 748.09 1440.2 747.845 L1440.2 751.78 Z" fill="#000000" fill-rule="evenodd" fill-opacity="1" /><path clip-path="url(#clip940)" d="M 0 0 M1139.83 1272.47 L1139.83 1194.3 Q1139.83 1191.19 1141.51 1191.19 Q1143.19 1191.19 1143.19 1193.69 L1143.19 1271.85 Q1143.19 1274.97 1141.51 1274.97 Q1139.83 1274.97 1139.83 1272.47 Z" fill="#000000" fill-rule="evenodd" fill-opacity="1" /><path clip-path="url(#clip940)" d="M 0 0 M1210.55 1237.09 L1209.03 1254.06 L1177.14 1254.06 Q1176.36 1254.06 1175.99 1254.02 Q1175.66 1253.98 1175.21 1253.86 Q1174.8 1253.7 1174.64 1253.29 Q1174.48 1252.88 1174.48 1252.22 Q1174.48 1251.81 1174.52 1251.6 Q1174.56 1251.4 1174.68 1251.15 Q1174.84 1250.87 1175.21 1250.38 L1198.62 1219.8 L1191.49 1219.8 Q1185.09 1219.8 1182.59 1222.34 Q1180.13 1224.88 1179.76 1231.48 L1175.79 1231.48 L1176.81 1216.8 L1207.59 1216.8 Q1208.58 1216.8 1209.03 1216.89 Q1209.48 1216.93 1209.89 1217.34 Q1210.3 1217.75 1210.3 1218.57 Q1210.3 1218.94 1210.18 1219.22 Q1210.09 1219.47 1210.01 1219.63 Q1209.93 1219.8 1209.48 1220.41 L1186.2 1250.7 L1193.41 1250.7 Q1196.16 1250.7 1198.17 1250.33 Q1200.22 1249.92 1201.57 1249.06 Q1202.96 1248.16 1203.86 1247.14 Q1204.77 1246.07 1205.3 1244.39 Q1205.87 1242.67 1206.12 1241.07 Q1206.41 1239.47 1206.61 1237.09 L1210.55 1237.09 Z" fill="#000000" fill-rule="evenodd" fill-opacity="1" /><path clip-path="url(#clip940)" d="M 0 0 M1216.93 1272.47 L1216.93 1194.3 Q1216.93 1191.19 1218.61 1191.19 Q1220.29 1191.19 1220.29 1193.69 L1220.29 1271.85 Q1220.29 1274.97 1218.61 1274.97 Q1216.93 1274.97 1216.93 1272.47 Z" fill="#000000" fill-rule="evenodd" fill-opacity="1" /><path clip-path="url(#clip940)" d="M 0 0 M1301.44 1244.23 Q1301.44 1244.76 1300.99 1245.87 Q1300.54 1246.93 1299.27 1248.49 Q1298.04 1250.01 1296.23 1251.36 Q1294.47 1252.67 1291.35 1253.61 Q1288.28 1254.56 1284.55 1254.56 Q1274.55 1254.56 1268.61 1249.15 Q1262.66 1243.73 1262.66 1235.17 Q1262.66 1231.19 1264.01 1227.75 Q1265.41 1224.31 1267.95 1221.68 Q1270.49 1219.06 1274.47 1217.54 Q1278.44 1216.03 1283.36 1216.03 Q1292.05 1216.03 1296.72 1220.58 Q1298.65 1222.5 1299.76 1225.29 Q1300.9 1228.04 1301.15 1229.88 Q1301.44 1231.72 1301.44 1233.49 Q1301.44 1235.05 1300.86 1235.41 Q1300.33 1235.78 1298.73 1235.78 L1273.4 1235.78 Q1273.4 1237.14 1273.4 1238.04 Q1273.44 1238.9 1273.69 1240.66 Q1273.93 1242.42 1274.34 1243.69 Q1274.75 1244.92 1275.61 1246.44 Q1276.52 1247.96 1277.75 1248.94 Q1278.98 1249.88 1280.9 1250.54 Q1282.83 1251.19 1285.29 1251.19 Q1289.39 1251.19 1292.67 1249.35 Q1295.99 1247.51 1297.3 1244.51 Q1297.71 1243.41 1298.04 1243.08 Q1298.4 1242.75 1299.43 1242.75 Q1301.44 1242.75 1301.44 1244.23 M1293.44 1233 Q1293.08 1219.06 1283.36 1219.06 Q1281.23 1219.06 1279.06 1220.08 Q1276.88 1221.11 1275.41 1223.4 Q1274.59 1224.72 1274.14 1226.6 Q1273.69 1228.45 1273.61 1229.51 Q1273.52 1230.54 1273.4 1233 L1293.44 1233 Z" fill="#000000" fill-rule="evenodd" fill-opacity="1" /><path clip-path="url(#clip940)" d="M 0 0 M1310.01 1243.74 L1310.01 1241.9 Q1317.07 1241.9 1320.71 1238.15 Q1321.72 1238.15 1321.89 1238.38 Q1322.06 1238.6 1322.06 1239.67 L1322.06 1272.63 Q1322.06 1274.38 1322.92 1274.93 Q1323.78 1275.47 1327.54 1275.47 L1329.41 1275.47 L1329.41 1277.28 Q1327.34 1277.11 1319.88 1277.11 Q1312.42 1277.11 1310.39 1277.28 L1310.39 1275.47 L1312.25 1275.47 Q1315.95 1275.47 1316.84 1274.96 Q1317.73 1274.41 1317.73 1272.63 L1317.73 1242.19 Q1314.66 1243.74 1310.01 1243.74 Z" fill="#000000" fill-rule="evenodd" fill-opacity="1" /><path clip-path="url(#clip940)" d="M 0 0 M606.563 1126.53 Q606.563 1114.19 609.678 1107.47 Q614.023 1097.46 624.27 1097.46 Q626.443 1097.46 628.697 1098.08 Q630.993 1098.65 633.862 1100.91 Q636.772 1103.16 638.535 1106.85 Q641.896 1113.98 641.896 1126.53 Q641.896 1138.78 638.781 1145.46 Q634.231 1155.22 624.188 1155.22 Q620.417 1155.22 616.564 1153.29 Q612.752 1151.37 610.334 1146.73 Q606.563 1139.81 606.563 1126.53 M613.531 1125.5 Q613.531 1138.17 614.433 1143.21 Q615.458 1148.66 618.245 1151.04 Q621.073 1153.37 624.188 1153.37 Q627.55 1153.37 630.337 1150.87 Q633.165 1148.33 634.026 1142.88 Q634.969 1137.51 634.928 1125.5 Q634.928 1113.82 634.108 1109.15 Q633.001 1103.69 630.05 1101.52 Q627.14 1099.31 624.188 1099.31 Q623.082 1099.31 621.893 1099.64 Q620.745 1099.96 619.065 1100.91 Q617.384 1101.85 616.073 1104.19 Q614.802 1106.52 614.187 1110.05 Q613.531 1114.6 613.531 1125.5 Z" fill="#000000" fill-rule="evenodd" fill-opacity="1" /><path clip-path="url(#clip940)" d="M 0 0 M1299.32 413.041 L1294.77 431.404 Q1294.52 432.511 1294.32 432.798 Q1294.11 433.085 1293.54 433.085 Q1293.09 433.085 1292.8 432.88 Q1292.56 432.675 1292.56 432.47 L1292.51 432.265 Q1292.51 432.142 1292.6 431.527 Q1292.68 430.871 1292.76 429.806 Q1292.84 428.74 1292.84 427.551 Q1292.84 420.829 1289.56 417.714 Q1286.33 414.558 1280.75 414.558 Q1276.9 414.558 1273.45 416.607 Q1270.01 418.657 1268.04 421.895 Q1266.08 425.092 1266.08 428.453 Q1266.08 431.527 1267.63 433.495 Q1269.19 435.462 1271.2 436.118 L1276.82 437.635 Q1282.72 439.151 1284.4 439.807 Q1286.08 440.422 1287.47 441.816 Q1291.61 445.669 1291.61 451.653 Q1291.61 456.818 1288.7 461.818 Q1285.79 466.778 1280.79 470.016 Q1275.79 473.213 1270.26 473.213 Q1260.54 473.213 1256.08 467.188 L1251.98 471.943 Q1251.2 472.844 1250.95 473.008 Q1250.75 473.213 1250.46 473.213 Q1250.09 473.213 1249.8 472.967 Q1249.52 472.763 1249.52 472.394 Q1249.52 472.107 1251.94 462.474 Q1254.35 452.842 1254.56 452.637 Q1254.89 452.309 1255.42 452.309 Q1256.4 452.309 1256.4 453.252 Q1256.32 453.498 1256.24 453.825 Q1255.75 456.777 1255.75 458.375 Q1255.75 461.368 1256.77 463.663 Q1257.8 465.917 1259.31 467.229 Q1260.87 468.5 1262.96 469.319 Q1265.05 470.098 1266.81 470.385 Q1268.58 470.631 1270.42 470.631 Q1274.4 470.631 1277.92 468.336 Q1281.49 466.04 1283.5 462.474 Q1285.55 458.908 1285.55 455.178 Q1285.55 453.211 1285.01 451.694 Q1284.48 450.136 1283.74 449.276 Q1283.05 448.415 1281.86 447.759 Q1280.67 447.103 1279.85 446.857 Q1279.07 446.57 1277.84 446.283 L1268.86 443.906 Q1265.26 442.84 1262.67 439.766 Q1260.13 436.692 1260.13 431.978 Q1260.13 427.018 1263.04 422.428 Q1265.99 417.796 1270.79 415.009 Q1275.63 412.18 1280.83 412.18 Q1284.93 412.18 1288.09 413.779 Q1291.24 415.337 1292.84 418.247 L1296.9 413.451 Q1297.72 412.508 1297.88 412.344 Q1298.09 412.18 1298.38 412.18 Q1298.87 412.18 1299.07 412.467 Q1299.32 412.754 1299.32 413.041 Z" fill="#000000" fill-rule="evenodd" fill-opacity="1" /></svg>
