<?xml version="1.0" encoding="UTF-8" standalone="no"?>
<svg
   xmlns:dc="http://purl.org/dc/elements/1.1/"
   xmlns:cc="http://creativecommons.org/ns#"
   xmlns:rdf="http://www.w3.org/1999/02/22-rdf-syntax-ns#"
   xmlns:svg="http://www.w3.org/2000/svg"
   xmlns="http://www.w3.org/2000/svg"
   viewBox="0 0 14.666667 13.333333"
   height="13.333333"
   width="14.666667"
   xml:space="preserve"
   id="svg2"
   version="1.1"><metadata
     id="metadata8"><rdf:RDF><cc:Work
         rdf:about=""><dc:format>image/svg+xml</dc:format><dc:type
           rdf:resource="http://purl.org/dc/dcmitype/StillImage" /></cc:Work></rdf:RDF></metadata><defs
     id="defs6" /><g
     transform="matrix(1.3333333,0,0,-1.3333333,0,13.333333)"
     id="g10"><g
       transform="scale(0.1)"
       id="g12"><path
         id="path14"
         style="fill:#000000;fill-opacity:1;fill-rule:nonzero;stroke:none"
         d="m 58.7188,51.375 19.3906,26.4063 c 2.0625,2.6875 3.0937,4.125 19.6094,4.125 v 9.7031 c -6.6094,-0.4219 -15.0625,-0.625 -18.7813,-0.625 -5.1562,0 -15.4687,0.4062 -21.25,0.625 v -9.7031 c 4.125,0 6.3906,-0.2032 9.7031,-2.2657 L 52.9375,59.625 37.4688,81.9063 h 9.4843 v 9.7031 c -5.9687,-0.2188 -16.2968,-0.625 -24.3437,-0.625 -7.8281,0 -14.64065,0.2031 -22.07815,0.625 V 81.9063 H 14.5625 L 40.9844,43.5313 19.1094,13.6094 C 16.2188,9.70313 9.40625,9.70313 -0.28125,9.70313 V 0 C 5.90625,0.40625 16.0156,0.625 18.4844,0.625 23.4375,0.625 35.2031,0.203125 39.5313,0 V 9.70313 C 33.5469,9.90625 32.7188,10.3125 30.0469,11.9688 L 46.75,35.0781 64.2969,9.70313 h -9.5 V 0 C 60.9844,0.203125 73.9844,0.625 79.3438,0.625 85.3281,0.625 94.4063,0.203125 101.422,0 V 9.70313 H 87.3906 L 58.7188,51.375" /></g></g></svg>