<?xml version="1.0" encoding="UTF-8"?>
<svg xmlns="http://www.w3.org/2000/svg" xmlns:xlink="http://www.w3.org/1999/xlink" width="360pt" height="225pt" viewBox="0 0 360 225" version="1.1">
<g id="surface1">
<rect x="0" y="0" width="360" height="225" style="fill:rgb(100%,100%,100%);fill-opacity:1;stroke:none;"/>
<path style=" stroke:none;fill-rule:nonzero;fill:rgb(100%,100%,100%);fill-opacity:1;" d="M 12 213 L 348 213 L 348 12 L 12 12 Z M 12 213 "/>
<path style="fill:none;stroke-width:2;stroke-linecap:butt;stroke-linejoin:miter;stroke:rgb(0%,0%,0%);stroke-opacity:1;stroke-miterlimit:10;" d="M 36.364583 52.546875 L 443.635417 52.546875 " transform="matrix(0.75,0,0,0.75,0,0)"/>
<path style=" stroke:none;fill-rule:nonzero;fill:rgb(0%,0%,0%);fill-opacity:1;" d="M 29.898438 39.410156 C 29.898438 42.910156 24.648438 42.910156 24.648438 39.410156 C 24.648438 35.910156 29.898438 35.910156 29.898438 39.410156 "/>
<path style=" stroke:none;fill-rule:nonzero;fill:rgb(0%,0%,0%);fill-opacity:1;" d="M 335.351562 39.410156 C 335.351562 42.910156 330.101562 42.910156 330.101562 39.410156 C 330.101562 35.910156 335.351562 35.910156 335.351562 39.410156 "/>
<path style=" stroke:none;fill-rule:nonzero;fill:rgb(100%,0%,0%);fill-opacity:1;" d="M 182.625 39.410156 C 182.625 42.910156 177.375 42.910156 177.375 39.410156 C 177.375 35.910156 182.625 35.910156 182.625 39.410156 "/>
<path style="fill:none;stroke-width:2;stroke-linecap:butt;stroke-linejoin:miter;stroke:rgb(0%,0%,0%);stroke-opacity:1;stroke-miterlimit:10;" d="M 36.364583 113.453125 L 443.635417 113.453125 " transform="matrix(0.75,0,0,0.75,0,0)"/>
<path style=" stroke:none;fill-rule:nonzero;fill:rgb(0%,0%,0%);fill-opacity:1;" d="M 29.898438 85.089844 C 29.898438 88.589844 24.648438 88.589844 24.648438 85.089844 C 24.648438 81.589844 29.898438 81.589844 29.898438 85.089844 "/>
<path style=" stroke:none;fill-rule:nonzero;fill:rgb(0%,0%,0%);fill-opacity:1;" d="M 182.625 85.089844 C 182.625 88.589844 177.375 88.589844 177.375 85.089844 C 177.375 81.589844 182.625 81.589844 182.625 85.089844 "/>
<path style=" stroke:none;fill-rule:nonzero;fill:rgb(0%,0%,0%);fill-opacity:1;" d="M 335.351562 85.089844 C 335.351562 88.589844 330.101562 88.589844 330.101562 85.089844 C 330.101562 81.589844 335.351562 81.589844 335.351562 85.089844 "/>
<path style=" stroke:none;fill-rule:nonzero;fill:rgb(100%,0%,0%);fill-opacity:1;" d="M 106.261719 85.089844 C 106.261719 88.589844 101.011719 88.589844 101.011719 85.089844 C 101.011719 81.589844 106.261719 81.589844 106.261719 85.089844 "/>
<path style=" stroke:none;fill-rule:nonzero;fill:rgb(100%,0%,0%);fill-opacity:1;" d="M 258.988281 85.089844 C 258.988281 88.589844 253.738281 88.589844 253.738281 85.089844 C 253.738281 81.589844 258.988281 81.589844 258.988281 85.089844 "/>
<path style="fill:none;stroke-width:2;stroke-linecap:butt;stroke-linejoin:miter;stroke:rgb(0%,0%,0%);stroke-opacity:1;stroke-miterlimit:10;" d="M 36.364583 174.364583 L 443.635417 174.364583 " transform="matrix(0.75,0,0,0.75,0,0)"/>
<path style=" stroke:none;fill-rule:nonzero;fill:rgb(0%,0%,0%);fill-opacity:1;" d="M 29.898438 130.773438 C 29.898438 134.273438 24.648438 134.273438 24.648438 130.773438 C 24.648438 127.273438 29.898438 127.273438 29.898438 130.773438 "/>
<path style=" stroke:none;fill-rule:nonzero;fill:rgb(0%,0%,0%);fill-opacity:1;" d="M 106.261719 130.773438 C 106.261719 134.273438 101.011719 134.273438 101.011719 130.773438 C 101.011719 127.273438 106.261719 127.273438 106.261719 130.773438 "/>
<path style=" stroke:none;fill-rule:nonzero;fill:rgb(0%,0%,0%);fill-opacity:1;" d="M 182.625 130.773438 C 182.625 134.273438 177.375 134.273438 177.375 130.773438 C 177.375 127.273438 182.625 127.273438 182.625 130.773438 "/>
<path style=" stroke:none;fill-rule:nonzero;fill:rgb(0%,0%,0%);fill-opacity:1;" d="M 258.988281 130.773438 C 258.988281 134.273438 253.738281 134.273438 253.738281 130.773438 C 253.738281 127.273438 258.988281 127.273438 258.988281 130.773438 "/>
<path style=" stroke:none;fill-rule:nonzero;fill:rgb(0%,0%,0%);fill-opacity:1;" d="M 335.351562 130.773438 C 335.351562 134.273438 330.101562 134.273438 330.101562 130.773438 C 330.101562 127.273438 335.351562 127.273438 335.351562 130.773438 "/>
<path style=" stroke:none;fill-rule:nonzero;fill:rgb(100%,0%,0%);fill-opacity:1;" d="M 68.078125 130.773438 C 68.078125 134.273438 62.828125 134.273438 62.828125 130.773438 C 62.828125 127.273438 68.078125 127.273438 68.078125 130.773438 "/>
<path style=" stroke:none;fill-rule:nonzero;fill:rgb(100%,0%,0%);fill-opacity:1;" d="M 144.441406 130.773438 C 144.441406 134.273438 139.191406 134.273438 139.191406 130.773438 C 139.191406 127.273438 144.441406 127.273438 144.441406 130.773438 "/>
<path style=" stroke:none;fill-rule:nonzero;fill:rgb(100%,0%,0%);fill-opacity:1;" d="M 220.808594 130.773438 C 220.808594 134.273438 215.558594 134.273438 215.558594 130.773438 C 215.558594 127.273438 220.808594 127.273438 220.808594 130.773438 "/>
<path style=" stroke:none;fill-rule:nonzero;fill:rgb(100%,0%,0%);fill-opacity:1;" d="M 297.171875 130.773438 C 297.171875 134.273438 291.921875 134.273438 291.921875 130.773438 C 291.921875 127.273438 297.171875 127.273438 297.171875 130.773438 "/>
<path style="fill:none;stroke-width:2;stroke-linecap:butt;stroke-linejoin:miter;stroke:rgb(0%,0%,0%);stroke-opacity:1;stroke-miterlimit:10;" d="M 36.364583 235.270833 L 443.635417 235.270833 " transform="matrix(0.75,0,0,0.75,0,0)"/>
<path style=" stroke:none;fill-rule:nonzero;fill:rgb(0%,0%,0%);fill-opacity:1;" d="M 29.898438 176.453125 C 29.898438 179.953125 24.648438 179.953125 24.648438 176.453125 C 24.648438 172.953125 29.898438 172.953125 29.898438 176.453125 "/>
<path style=" stroke:none;fill-rule:nonzero;fill:rgb(0%,0%,0%);fill-opacity:1;" d="M 68.078125 176.453125 C 68.078125 179.953125 62.828125 179.953125 62.828125 176.453125 C 62.828125 172.953125 68.078125 172.953125 68.078125 176.453125 "/>
<path style=" stroke:none;fill-rule:nonzero;fill:rgb(0%,0%,0%);fill-opacity:1;" d="M 106.261719 176.453125 C 106.261719 179.953125 101.011719 179.953125 101.011719 176.453125 C 101.011719 172.953125 106.261719 172.953125 106.261719 176.453125 "/>
<path style=" stroke:none;fill-rule:nonzero;fill:rgb(0%,0%,0%);fill-opacity:1;" d="M 144.441406 176.453125 C 144.441406 179.953125 139.191406 179.953125 139.191406 176.453125 C 139.191406 172.953125 144.441406 172.953125 144.441406 176.453125 "/>
<path style=" stroke:none;fill-rule:nonzero;fill:rgb(0%,0%,0%);fill-opacity:1;" d="M 182.625 176.453125 C 182.625 179.953125 177.375 179.953125 177.375 176.453125 C 177.375 172.953125 182.625 172.953125 182.625 176.453125 "/>
<path style=" stroke:none;fill-rule:nonzero;fill:rgb(0%,0%,0%);fill-opacity:1;" d="M 220.808594 176.453125 C 220.808594 179.953125 215.558594 179.953125 215.558594 176.453125 C 215.558594 172.953125 220.808594 172.953125 220.808594 176.453125 "/>
<path style=" stroke:none;fill-rule:nonzero;fill:rgb(0%,0%,0%);fill-opacity:1;" d="M 258.988281 176.453125 C 258.988281 179.953125 253.738281 179.953125 253.738281 176.453125 C 253.738281 172.953125 258.988281 172.953125 258.988281 176.453125 "/>
<path style=" stroke:none;fill-rule:nonzero;fill:rgb(0%,0%,0%);fill-opacity:1;" d="M 297.171875 176.453125 C 297.171875 179.953125 291.921875 179.953125 291.921875 176.453125 C 291.921875 172.953125 297.171875 172.953125 297.171875 176.453125 "/>
<path style=" stroke:none;fill-rule:nonzero;fill:rgb(0%,0%,0%);fill-opacity:1;" d="M 335.351562 176.453125 C 335.351562 179.953125 330.101562 179.953125 330.101562 176.453125 C 330.101562 172.953125 335.351562 172.953125 335.351562 176.453125 "/>
<path style=" stroke:none;fill-rule:nonzero;fill:rgb(100%,0%,0%);fill-opacity:1;" d="M 48.988281 176.453125 C 48.988281 179.953125 43.738281 179.953125 43.738281 176.453125 C 43.738281 172.953125 48.988281 172.953125 48.988281 176.453125 "/>
<path style=" stroke:none;fill-rule:nonzero;fill:rgb(100%,0%,0%);fill-opacity:1;" d="M 87.171875 176.453125 C 87.171875 179.953125 81.921875 179.953125 81.921875 176.453125 C 81.921875 172.953125 87.171875 172.953125 87.171875 176.453125 "/>
<path style=" stroke:none;fill-rule:nonzero;fill:rgb(100%,0%,0%);fill-opacity:1;" d="M 125.351562 176.453125 C 125.351562 179.953125 120.101562 179.953125 120.101562 176.453125 C 120.101562 172.953125 125.351562 172.953125 125.351562 176.453125 "/>
<path style=" stroke:none;fill-rule:nonzero;fill:rgb(100%,0%,0%);fill-opacity:1;" d="M 163.535156 176.453125 C 163.535156 179.953125 158.285156 179.953125 158.285156 176.453125 C 158.285156 172.953125 163.535156 172.953125 163.535156 176.453125 "/>
<path style=" stroke:none;fill-rule:nonzero;fill:rgb(100%,0%,0%);fill-opacity:1;" d="M 201.714844 176.453125 C 201.714844 179.953125 196.464844 179.953125 196.464844 176.453125 C 196.464844 172.953125 201.714844 172.953125 201.714844 176.453125 "/>
<path style=" stroke:none;fill-rule:nonzero;fill:rgb(100%,0%,0%);fill-opacity:1;" d="M 239.898438 176.453125 C 239.898438 179.953125 234.648438 179.953125 234.648438 176.453125 C 234.648438 172.953125 239.898438 172.953125 239.898438 176.453125 "/>
<path style=" stroke:none;fill-rule:nonzero;fill:rgb(100%,0%,0%);fill-opacity:1;" d="M 278.078125 176.453125 C 278.078125 179.953125 272.828125 179.953125 272.828125 176.453125 C 272.828125 172.953125 278.078125 172.953125 278.078125 176.453125 "/>
<path style=" stroke:none;fill-rule:nonzero;fill:rgb(100%,0%,0%);fill-opacity:1;" d="M 316.261719 176.453125 C 316.261719 179.953125 311.011719 179.953125 311.011719 176.453125 C 311.011719 172.953125 316.261719 172.953125 316.261719 176.453125 "/>
</g>
</svg>
